<?xml version="1.0" encoding="utf-8" standalone="no"?>
<!DOCTYPE svg PUBLIC "-//W3C//DTD SVG 1.1//EN"
  "http://www.w3.org/Graphics/SVG/1.1/DTD/svg11.dtd">
<!-- Created with matplotlib (https://matplotlib.org/) -->
<svg height="360pt" version="1.1" viewBox="0 0 900 360" width="900pt" xmlns="http://www.w3.org/2000/svg" xmlns:xlink="http://www.w3.org/1999/xlink">
 <defs>
  <style type="text/css">
*{stroke-linecap:butt;stroke-linejoin:round;}
  </style>
 </defs>
 <g id="figure_1">
  <g id="patch_1">
   <path d="M 0 360 
L 900 360 
L 900 0 
L 0 0 
z
" style="fill:#ffffff;"/>
  </g>
  <g id="axes_1">
   <g id="patch_2">
    <path d="M 112.5 324 
L 635.625 324 
L 635.625 36 
L 112.5 36 
z
" style="fill:#ffffff;"/>
   </g>
   <g id="line2d_1">
    <path clip-path="url(#peda3fd87d9)" d="M 112.834907 282.399998 
L 116.183979 215.199998 
L 119.533051 229.599998 
L 122.882122 199.2 
L 126.231194 205.599998 
L 129.580266 224.799998 
L 132.929337 186.399998 
L 136.278409 194.4 
L 139.627481 197.600002 
L 142.976552 167.199998 
L 146.325624 189.6 
L 149.674696 173.600002 
L 153.023768 188.000002 
L 156.372839 195.999998 
L 159.721911 176.799998 
L 163.070983 207.200002 
L 166.420054 181.599998 
L 169.769126 200.799998 
L 173.118198 195.999998 
L 176.46727 181.599998 
L 179.816341 178.400002 
L 183.165413 171.999998 
L 186.514485 141.6 
L 189.863556 140.000002 
L 193.212628 162.399998 
L 196.5617 144.800002 
L 199.910771 135.200002 
L 203.259843 157.599998 
L 206.608915 125.600002 
L 209.957987 167.199998 
L 213.307058 138.399998 
L 216.65613 130.400002 
L 220.005202 159.200002 
L 223.354273 135.200002 
L 226.703345 141.6 
L 230.052417 130.400002 
L 233.401488 109.599998 
L 236.75056 136.8 
L 240.099632 135.200002 
L 243.448704 123.999998 
L 246.797775 119.199998 
L 250.146847 123.999998 
L 253.495919 108 
L 256.84499 128.799998 
L 260.194062 141.6 
L 263.543134 112.8 
L 266.892206 114.399998 
L 270.241277 92.000002 
L 273.590349 114.399998 
L 276.939421 114.399998 
L 280.288492 82.400002 
L 283.637564 99.999998 
L 286.986636 88.8 
L 290.335707 80.799998 
L 293.684779 103.2 
L 297.033851 109.599998 
L 300.382923 90.399998 
L 303.731994 99.999998 
L 307.081066 87.200002 
L 310.430138 116.000002 
L 313.779209 106.400002 
L 317.128281 108 
L 320.477353 111.200002 
L 323.826424 98.4 
L 327.175496 122.4 
L 330.524568 101.600002 
L 333.87364 87.200002 
L 337.222711 84 
L 340.571783 104.799998 
L 343.920855 82.400002 
L 347.269926 108 
L 350.618998 127.2 
L 353.96807 98.4 
L 357.317141 90.399998 
L 360.666213 72.800002 
L 364.015285 72.800002 
L 367.364357 88.8 
L 370.713428 93.6 
L 374.0625 87.200002 
L 377.411572 74.4 
L 380.760643 99.999998 
L 384.109715 61.599998 
L 387.458787 80.799998 
L 390.807859 120.800002 
L 394.15693 120.800002 
L 397.506002 61.599998 
L 400.855074 82.400002 
L 404.204145 109.599998 
L 407.553217 95.199998 
L 410.902289 111.200002 
L 414.25136 71.199998 
L 417.600432 51.999998 
L 420.949504 72.800002 
L 424.298576 96.800002 
L 427.647647 80.799998 
L 430.996719 77.600002 
L 434.345791 72.800002 
L 437.694862 122.4 
L 441.043934 84 
L 444.393006 82.400002 
L 447.742077 117.6 
L 451.091149 82.400002 
L 454.440221 72.800002 
L 457.789293 96.800002 
L 461.138364 96.800002 
L 464.487436 85.599998 
L 467.836508 98.4 
L 471.185579 75.999998 
L 474.534651 69.6 
L 477.883723 92.000002 
L 481.232794 98.4 
L 484.581866 72.800002 
L 487.930938 50.4 
L 491.28001 74.4 
L 494.629081 85.599998 
L 497.978153 87.200002 
L 501.327225 87.200002 
L 504.676296 80.799998 
L 508.025368 87.200002 
L 511.37444 72.800002 
L 514.723512 71.199998 
L 518.072583 88.8 
L 521.421655 74.4 
L 524.770727 77.600002 
L 528.119798 74.4 
L 531.46887 120.800002 
L 534.817942 69.6 
L 538.167013 98.4 
L 541.516085 75.999998 
L 544.865157 98.4 
L 548.214229 68.000002 
L 551.5633 95.199998 
L 554.912372 92.000002 
L 558.261444 82.400002 
L 561.610515 63.200002 
L 564.959587 50.4 
L 568.308659 77.600002 
L 571.65773 61.599998 
L 575.006802 56.799998 
L 578.355874 63.200002 
L 581.704946 87.200002 
L 585.054017 48.800002 
L 588.403089 79.2 
L 591.752161 61.599998 
L 595.101232 66.399998 
L 598.450304 79.2 
L 601.799376 74.4 
L 605.148448 82.400002 
L 608.497519 85.599998 
L 611.846591 55.2 
L 615.195663 79.2 
L 618.544734 44.000002 
L 621.893806 66.399998 
L 621.893806 66.399998 
" style="fill:none;stroke:#0000ff;stroke-linecap:square;stroke-width:1.2;"/>
   </g>
   <g id="line2d_2">
    <path clip-path="url(#peda3fd87d9)" d="M 112.834907 236.000002 
L 116.183979 237.6 
L 119.533051 200.799998 
L 122.882122 239.199998 
L 126.231194 191.199998 
L 129.580266 181.599998 
L 132.929337 205.599998 
L 136.278409 199.2 
L 139.627481 207.200002 
L 142.976552 202.400002 
L 146.325624 165.6 
L 149.674696 146.4 
L 153.023768 204 
L 156.372839 164.000002 
L 159.721911 157.599998 
L 163.070983 170.4 
L 166.420054 188.000002 
L 169.769126 168.800002 
L 173.118198 184.8 
L 176.46727 154.400002 
L 179.816341 156 
L 183.165413 143.199998 
L 186.514485 162.399998 
L 189.863556 147.999998 
L 193.212628 122.4 
L 196.5617 141.6 
L 199.910771 136.8 
L 206.608915 140.000002 
L 209.957987 138.399998 
L 213.307058 149.600002 
L 216.65613 152.799998 
L 220.005202 95.199998 
L 223.354273 112.8 
L 226.703345 146.4 
L 230.052417 85.599998 
L 233.401488 108 
L 236.75056 101.600002 
L 240.099632 90.399998 
L 243.448704 125.600002 
L 246.797775 90.399998 
L 250.146847 120.800002 
L 253.495919 85.599998 
L 256.84499 84 
L 260.194062 99.999998 
L 263.543134 84 
L 266.892206 104.799998 
L 270.241277 165.6 
L 273.590349 95.199998 
L 276.939421 72.800002 
L 280.288492 114.399998 
L 283.637564 75.999998 
L 286.986636 112.8 
L 290.335707 88.8 
L 293.684779 104.799998 
L 297.033851 98.4 
L 300.382923 63.200002 
L 303.731994 72.800002 
L 307.081066 84 
L 310.430138 120.800002 
L 313.779209 119.199998 
L 317.128281 87.200002 
L 320.477353 69.6 
L 323.826424 99.999998 
L 327.175496 98.4 
L 330.524568 82.400002 
L 333.87364 74.4 
L 337.222711 80.799998 
L 343.920855 77.600002 
L 347.269926 71.199998 
L 350.618998 75.999998 
L 353.96807 72.800002 
L 357.317141 64.8 
L 360.666213 88.8 
L 364.015285 60 
L 367.364357 96.800002 
L 370.713428 99.999998 
L 374.0625 55.2 
L 377.411572 66.399998 
L 380.760643 85.599998 
L 384.109715 60 
L 387.458787 71.199998 
L 390.807859 58.400002 
L 394.15693 77.600002 
L 397.506002 68.000002 
L 400.855074 75.999998 
L 404.204145 114.399998 
L 407.553217 61.599998 
L 410.902289 79.2 
L 414.25136 64.8 
L 417.600432 69.6 
L 420.949504 64.8 
L 424.298576 74.4 
L 427.647647 72.800002 
L 430.996719 74.4 
L 434.345791 71.199998 
L 437.694862 87.200002 
L 441.043934 63.200002 
L 444.393006 74.4 
L 447.742077 69.6 
L 451.091149 66.399998 
L 454.440221 93.6 
L 457.789293 92.000002 
L 461.138364 61.599998 
L 464.487436 58.400002 
L 467.836508 103.2 
L 471.185579 101.600002 
L 474.534651 75.999998 
L 477.883723 77.600002 
L 481.232794 42.399998 
L 484.581866 77.600002 
L 487.930938 80.799998 
L 491.28001 95.199998 
L 494.629081 69.6 
L 497.978153 68.000002 
L 501.327225 95.199998 
L 504.676296 61.599998 
L 508.025368 80.799998 
L 511.37444 56.799998 
L 514.723512 80.799998 
L 518.072583 74.4 
L 521.421655 75.999998 
L 524.770727 63.200002 
L 528.119798 55.2 
L 534.817942 99.999998 
L 538.167013 71.199998 
L 541.516085 79.2 
L 544.865157 106.400002 
L 548.214229 138.399998 
L 551.5633 69.6 
L 554.912372 79.2 
L 558.261444 77.600002 
L 561.610515 63.200002 
L 564.959587 53.600002 
L 568.308659 69.6 
L 571.65773 58.400002 
L 575.006802 66.399998 
L 578.355874 48.800002 
L 581.704946 77.600002 
L 585.054017 47.199998 
L 588.403089 71.199998 
L 591.752161 55.2 
L 595.101232 55.2 
L 598.450304 72.800002 
L 601.799376 68.000002 
L 605.148448 84 
L 608.497519 77.600002 
L 611.846591 85.599998 
L 615.195663 111.200002 
L 618.544734 74.4 
L 621.893806 75.999998 
L 625.242878 71.199998 
L 628.591949 99.999998 
L 631.941021 36 
L 635.290093 75.999998 
L 635.290093 75.999998 
" style="fill:none;stroke:#008000;stroke-linecap:square;stroke-width:1.2;"/>
   </g>
   <g id="line2d_3">
    <path clip-path="url(#peda3fd87d9)" d="M 112.834907 231.200002 
L 116.183979 180 
L 119.533051 229.599998 
L 122.882122 223.2 
L 126.231194 213.6 
L 129.580266 192.800002 
L 132.929337 204 
L 136.278409 200.799998 
L 139.627481 192.800002 
L 142.976552 204 
L 146.325624 167.199998 
L 149.674696 189.6 
L 153.023768 191.199998 
L 156.372839 154.400002 
L 159.721911 135.200002 
L 163.070983 184.8 
L 166.420054 199.2 
L 169.769126 197.600002 
L 173.118198 188.000002 
L 176.46727 143.199998 
L 179.816341 136.8 
L 183.165413 140.000002 
L 186.514485 128.799998 
L 189.863556 127.2 
L 193.212628 162.399998 
L 196.5617 119.199998 
L 199.910771 106.400002 
L 203.259843 143.199998 
L 206.608915 96.800002 
L 209.957987 98.4 
L 213.307058 116.000002 
L 216.65613 108 
L 220.005202 136.8 
L 223.354273 106.400002 
L 226.703345 125.600002 
L 230.052417 127.2 
L 233.401488 101.600002 
L 236.75056 114.399998 
L 240.099632 123.999998 
L 243.448704 119.199998 
L 246.797775 109.599998 
L 250.146847 96.800002 
L 253.495919 125.600002 
L 256.84499 108 
L 260.194062 101.600002 
L 263.543134 125.600002 
L 266.892206 108 
L 270.241277 117.6 
L 273.590349 119.199998 
L 276.939421 111.200002 
L 280.288492 114.399998 
L 283.637564 85.599998 
L 286.986636 90.399998 
L 290.335707 92.000002 
L 293.684779 111.200002 
L 297.033851 90.399998 
L 300.382923 112.8 
L 303.731994 93.6 
L 307.081066 84 
L 310.430138 71.199998 
L 313.779209 82.400002 
L 317.128281 120.800002 
L 320.477353 72.800002 
L 323.826424 109.599998 
L 327.175496 77.600002 
L 330.524568 53.600002 
L 333.87364 98.4 
L 337.222711 92.000002 
L 340.571783 117.6 
L 343.920855 96.800002 
L 347.269926 95.199998 
L 350.618998 147.999998 
L 353.96807 114.399998 
L 357.317141 87.200002 
L 360.666213 103.2 
L 364.015285 80.799998 
L 367.364357 92.000002 
L 370.713428 109.599998 
L 374.0625 77.600002 
L 377.411572 82.400002 
L 380.760643 98.4 
L 384.109715 116.000002 
L 387.458787 101.600002 
L 390.807859 128.799998 
L 394.15693 50.4 
L 397.506002 98.4 
L 400.855074 68.000002 
L 404.204145 112.8 
L 407.553217 66.399998 
L 410.902289 58.400002 
L 414.25136 87.200002 
L 417.600432 80.799998 
L 420.949504 95.199998 
L 424.298576 101.600002 
L 427.647647 64.8 
L 430.996719 48.800002 
L 434.345791 88.8 
L 437.694862 74.4 
L 441.043934 98.4 
L 444.393006 75.999998 
L 447.742077 42.399998 
L 451.091149 90.399998 
L 454.440221 77.600002 
L 457.789293 98.4 
L 461.138364 88.8 
L 464.487436 112.8 
L 467.836508 87.200002 
L 471.185579 90.399998 
L 474.534651 95.199998 
L 477.883723 68.000002 
L 481.232794 99.999998 
L 484.581866 79.2 
L 487.930938 96.800002 
L 491.28001 68.000002 
L 494.629081 69.6 
L 497.978153 77.600002 
L 501.327225 75.999998 
L 504.676296 39.200002 
L 508.025368 48.800002 
L 511.37444 56.799998 
L 514.723512 75.999998 
L 518.072583 68.000002 
L 521.421655 101.600002 
L 524.770727 104.799998 
L 528.119798 53.600002 
L 531.46887 55.2 
L 534.817942 69.6 
L 538.167013 69.6 
L 541.516085 104.799998 
L 544.865157 68.000002 
L 548.214229 84 
L 551.5633 69.6 
L 554.912372 80.799998 
L 558.261444 87.200002 
L 561.610515 66.399998 
L 564.959587 58.400002 
L 568.308659 82.400002 
L 571.65773 88.8 
L 575.006802 58.400002 
L 578.355874 55.2 
L 581.704946 85.599998 
L 585.054017 98.4 
L 588.403089 69.6 
L 591.752161 87.200002 
L 595.101232 77.600002 
L 598.450304 96.800002 
L 601.799376 80.799998 
L 605.148448 50.4 
L 608.497519 74.4 
L 611.846591 109.599998 
L 615.195663 112.8 
L 618.544734 111.200002 
L 621.893806 84 
L 625.242878 58.400002 
L 628.591949 44.000002 
L 631.941021 71.199998 
L 631.941021 71.199998 
" style="fill:none;stroke:#ff0000;stroke-linecap:square;stroke-width:1.2;"/>
   </g>
   <g id="patch_3">
    <path d="M 112.5 324 
L 112.5 36 
" style="fill:none;stroke:#000000;stroke-linecap:square;stroke-linejoin:miter;"/>
   </g>
   <g id="patch_4">
    <path d="M 635.625 324 
L 635.625 36 
" style="fill:none;stroke:#000000;stroke-linecap:square;stroke-linejoin:miter;"/>
   </g>
   <g id="patch_5">
    <path d="M 112.5 324 
L 635.625 324 
" style="fill:none;stroke:#000000;stroke-linecap:square;stroke-linejoin:miter;"/>
   </g>
   <g id="patch_6">
    <path d="M 112.5 36 
L 635.625 36 
" style="fill:none;stroke:#000000;stroke-linecap:square;stroke-linejoin:miter;"/>
   </g>
   <g id="matplotlib.axis_1">
    <g id="xtick_1">
     <g id="line2d_4">
      <defs>
       <path d="M 0 0 
L 0 -4 
" id="mfd260bfe11" style="stroke:#000000;stroke-width:0.5;"/>
      </defs>
      <g>
       <use style="stroke:#000000;stroke-width:0.5;" x="112.834907" xlink:href="#mfd260bfe11" y="324"/>
      </g>
     </g>
     <g id="line2d_5">
      <defs>
       <path d="M 0 0 
L 0 4 
" id="m22e9deba87" style="stroke:#000000;stroke-width:0.5;"/>
      </defs>
      <g>
       <use style="stroke:#000000;stroke-width:0.5;" x="112.834907" xlink:href="#m22e9deba87" y="36"/>
      </g>
     </g>
     <g id="text_1">
      <!-- 1 -->
      <defs>
       <path d="M 12.40625 8.296875 
L 28.515625 8.296875 
L 28.515625 63.921875 
L 10.984375 60.40625 
L 10.984375 69.390625 
L 28.421875 72.90625 
L 38.28125 72.90625 
L 38.28125 8.296875 
L 54.390625 8.296875 
L 54.390625 0 
L 12.40625 0 
z
" id="DejaVuSans-49"/>
      </defs>
      <g transform="translate(109.017407 337.118125)scale(0.12 -0.12)">
       <use xlink:href="#DejaVuSans-49"/>
      </g>
     </g>
    </g>
    <g id="xtick_2">
     <g id="line2d_6">
      <g>
       <use style="stroke:#000000;stroke-width:0.5;" x="166.420054" xlink:href="#mfd260bfe11" y="324"/>
      </g>
     </g>
     <g id="line2d_7">
      <g>
       <use style="stroke:#000000;stroke-width:0.5;" x="166.420054" xlink:href="#m22e9deba87" y="36"/>
      </g>
     </g>
     <g id="text_2">
      <!-- 17 -->
      <defs>
       <path d="M 8.203125 72.90625 
L 55.078125 72.90625 
L 55.078125 68.703125 
L 28.609375 0 
L 18.3125 0 
L 43.21875 64.59375 
L 8.203125 64.59375 
z
" id="DejaVuSans-55"/>
      </defs>
      <g transform="translate(158.785054 337.118125)scale(0.12 -0.12)">
       <use xlink:href="#DejaVuSans-49"/>
       <use x="63.623047" xlink:href="#DejaVuSans-55"/>
      </g>
     </g>
    </g>
    <g id="xtick_3">
     <g id="line2d_8">
      <g>
       <use style="stroke:#000000;stroke-width:0.5;" x="220.005202" xlink:href="#mfd260bfe11" y="324"/>
      </g>
     </g>
     <g id="line2d_9">
      <g>
       <use style="stroke:#000000;stroke-width:0.5;" x="220.005202" xlink:href="#m22e9deba87" y="36"/>
      </g>
     </g>
     <g id="text_3">
      <!-- 33 -->
      <defs>
       <path d="M 40.578125 39.3125 
Q 47.65625 37.796875 51.625 33 
Q 55.609375 28.21875 55.609375 21.1875 
Q 55.609375 10.40625 48.1875 4.484375 
Q 40.765625 -1.421875 27.09375 -1.421875 
Q 22.515625 -1.421875 17.65625 -0.515625 
Q 12.796875 0.390625 7.625 2.203125 
L 7.625 11.71875 
Q 11.71875 9.328125 16.59375 8.109375 
Q 21.484375 6.890625 26.8125 6.890625 
Q 36.078125 6.890625 40.9375 10.546875 
Q 45.796875 14.203125 45.796875 21.1875 
Q 45.796875 27.640625 41.28125 31.265625 
Q 36.765625 34.90625 28.71875 34.90625 
L 20.21875 34.90625 
L 20.21875 43.015625 
L 29.109375 43.015625 
Q 36.375 43.015625 40.234375 45.921875 
Q 44.09375 48.828125 44.09375 54.296875 
Q 44.09375 59.90625 40.109375 62.90625 
Q 36.140625 65.921875 28.71875 65.921875 
Q 24.65625 65.921875 20.015625 65.03125 
Q 15.375 64.15625 9.8125 62.3125 
L 9.8125 71.09375 
Q 15.4375 72.65625 20.34375 73.4375 
Q 25.25 74.21875 29.59375 74.21875 
Q 40.828125 74.21875 47.359375 69.109375 
Q 53.90625 64.015625 53.90625 55.328125 
Q 53.90625 49.265625 50.4375 45.09375 
Q 46.96875 40.921875 40.578125 39.3125 
z
" id="DejaVuSans-51"/>
      </defs>
      <g transform="translate(212.370202 337.118125)scale(0.12 -0.12)">
       <use xlink:href="#DejaVuSans-51"/>
       <use x="63.623047" xlink:href="#DejaVuSans-51"/>
      </g>
     </g>
    </g>
    <g id="xtick_4">
     <g id="line2d_10">
      <g>
       <use style="stroke:#000000;stroke-width:0.5;" x="273.590349" xlink:href="#mfd260bfe11" y="324"/>
      </g>
     </g>
     <g id="line2d_11">
      <g>
       <use style="stroke:#000000;stroke-width:0.5;" x="273.590349" xlink:href="#m22e9deba87" y="36"/>
      </g>
     </g>
     <g id="text_4">
      <!-- 49 -->
      <defs>
       <path d="M 37.796875 64.3125 
L 12.890625 25.390625 
L 37.796875 25.390625 
z
M 35.203125 72.90625 
L 47.609375 72.90625 
L 47.609375 25.390625 
L 58.015625 25.390625 
L 58.015625 17.1875 
L 47.609375 17.1875 
L 47.609375 0 
L 37.796875 0 
L 37.796875 17.1875 
L 4.890625 17.1875 
L 4.890625 26.703125 
z
" id="DejaVuSans-52"/>
       <path d="M 10.984375 1.515625 
L 10.984375 10.5 
Q 14.703125 8.734375 18.5 7.8125 
Q 22.3125 6.890625 25.984375 6.890625 
Q 35.75 6.890625 40.890625 13.453125 
Q 46.046875 20.015625 46.78125 33.40625 
Q 43.953125 29.203125 39.59375 26.953125 
Q 35.25 24.703125 29.984375 24.703125 
Q 19.046875 24.703125 12.671875 31.3125 
Q 6.296875 37.9375 6.296875 49.421875 
Q 6.296875 60.640625 12.9375 67.421875 
Q 19.578125 74.21875 30.609375 74.21875 
Q 43.265625 74.21875 49.921875 64.515625 
Q 56.59375 54.828125 56.59375 36.375 
Q 56.59375 19.140625 48.40625 8.859375 
Q 40.234375 -1.421875 26.421875 -1.421875 
Q 22.703125 -1.421875 18.890625 -0.6875 
Q 15.09375 0.046875 10.984375 1.515625 
z
M 30.609375 32.421875 
Q 37.25 32.421875 41.125 36.953125 
Q 45.015625 41.5 45.015625 49.421875 
Q 45.015625 57.28125 41.125 61.84375 
Q 37.25 66.40625 30.609375 66.40625 
Q 23.96875 66.40625 20.09375 61.84375 
Q 16.21875 57.28125 16.21875 49.421875 
Q 16.21875 41.5 20.09375 36.953125 
Q 23.96875 32.421875 30.609375 32.421875 
z
" id="DejaVuSans-57"/>
      </defs>
      <g transform="translate(265.955349 337.118125)scale(0.12 -0.12)">
       <use xlink:href="#DejaVuSans-52"/>
       <use x="63.623047" xlink:href="#DejaVuSans-57"/>
      </g>
     </g>
    </g>
    <g id="xtick_5">
     <g id="line2d_12">
      <g>
       <use style="stroke:#000000;stroke-width:0.5;" x="327.175496" xlink:href="#mfd260bfe11" y="324"/>
      </g>
     </g>
     <g id="line2d_13">
      <g>
       <use style="stroke:#000000;stroke-width:0.5;" x="327.175496" xlink:href="#m22e9deba87" y="36"/>
      </g>
     </g>
     <g id="text_5">
      <!-- 65 -->
      <defs>
       <path d="M 33.015625 40.375 
Q 26.375 40.375 22.484375 35.828125 
Q 18.609375 31.296875 18.609375 23.390625 
Q 18.609375 15.53125 22.484375 10.953125 
Q 26.375 6.390625 33.015625 6.390625 
Q 39.65625 6.390625 43.53125 10.953125 
Q 47.40625 15.53125 47.40625 23.390625 
Q 47.40625 31.296875 43.53125 35.828125 
Q 39.65625 40.375 33.015625 40.375 
z
M 52.59375 71.296875 
L 52.59375 62.3125 
Q 48.875 64.0625 45.09375 64.984375 
Q 41.3125 65.921875 37.59375 65.921875 
Q 27.828125 65.921875 22.671875 59.328125 
Q 17.53125 52.734375 16.796875 39.40625 
Q 19.671875 43.65625 24.015625 45.921875 
Q 28.375 48.1875 33.59375 48.1875 
Q 44.578125 48.1875 50.953125 41.515625 
Q 57.328125 34.859375 57.328125 23.390625 
Q 57.328125 12.15625 50.6875 5.359375 
Q 44.046875 -1.421875 33.015625 -1.421875 
Q 20.359375 -1.421875 13.671875 8.265625 
Q 6.984375 17.96875 6.984375 36.375 
Q 6.984375 53.65625 15.1875 63.9375 
Q 23.390625 74.21875 37.203125 74.21875 
Q 40.921875 74.21875 44.703125 73.484375 
Q 48.484375 72.75 52.59375 71.296875 
z
" id="DejaVuSans-54"/>
       <path d="M 10.796875 72.90625 
L 49.515625 72.90625 
L 49.515625 64.59375 
L 19.828125 64.59375 
L 19.828125 46.734375 
Q 21.96875 47.46875 24.109375 47.828125 
Q 26.265625 48.1875 28.421875 48.1875 
Q 40.625 48.1875 47.75 41.5 
Q 54.890625 34.8125 54.890625 23.390625 
Q 54.890625 11.625 47.5625 5.09375 
Q 40.234375 -1.421875 26.90625 -1.421875 
Q 22.3125 -1.421875 17.546875 -0.640625 
Q 12.796875 0.140625 7.71875 1.703125 
L 7.71875 11.625 
Q 12.109375 9.234375 16.796875 8.0625 
Q 21.484375 6.890625 26.703125 6.890625 
Q 35.15625 6.890625 40.078125 11.328125 
Q 45.015625 15.765625 45.015625 23.390625 
Q 45.015625 31 40.078125 35.4375 
Q 35.15625 39.890625 26.703125 39.890625 
Q 22.75 39.890625 18.8125 39.015625 
Q 14.890625 38.140625 10.796875 36.28125 
z
" id="DejaVuSans-53"/>
      </defs>
      <g transform="translate(319.540496 337.118125)scale(0.12 -0.12)">
       <use xlink:href="#DejaVuSans-54"/>
       <use x="63.623047" xlink:href="#DejaVuSans-53"/>
      </g>
     </g>
    </g>
    <g id="xtick_6">
     <g id="line2d_14">
      <g>
       <use style="stroke:#000000;stroke-width:0.5;" x="380.760643" xlink:href="#mfd260bfe11" y="324"/>
      </g>
     </g>
     <g id="line2d_15">
      <g>
       <use style="stroke:#000000;stroke-width:0.5;" x="380.760643" xlink:href="#m22e9deba87" y="36"/>
      </g>
     </g>
     <g id="text_6">
      <!-- 81 -->
      <defs>
       <path d="M 31.78125 34.625 
Q 24.75 34.625 20.71875 30.859375 
Q 16.703125 27.09375 16.703125 20.515625 
Q 16.703125 13.921875 20.71875 10.15625 
Q 24.75 6.390625 31.78125 6.390625 
Q 38.8125 6.390625 42.859375 10.171875 
Q 46.921875 13.96875 46.921875 20.515625 
Q 46.921875 27.09375 42.890625 30.859375 
Q 38.875 34.625 31.78125 34.625 
z
M 21.921875 38.8125 
Q 15.578125 40.375 12.03125 44.71875 
Q 8.5 49.078125 8.5 55.328125 
Q 8.5 64.0625 14.71875 69.140625 
Q 20.953125 74.21875 31.78125 74.21875 
Q 42.671875 74.21875 48.875 69.140625 
Q 55.078125 64.0625 55.078125 55.328125 
Q 55.078125 49.078125 51.53125 44.71875 
Q 48 40.375 41.703125 38.8125 
Q 48.828125 37.15625 52.796875 32.3125 
Q 56.78125 27.484375 56.78125 20.515625 
Q 56.78125 9.90625 50.3125 4.234375 
Q 43.84375 -1.421875 31.78125 -1.421875 
Q 19.734375 -1.421875 13.25 4.234375 
Q 6.78125 9.90625 6.78125 20.515625 
Q 6.78125 27.484375 10.78125 32.3125 
Q 14.796875 37.15625 21.921875 38.8125 
z
M 18.3125 54.390625 
Q 18.3125 48.734375 21.84375 45.5625 
Q 25.390625 42.390625 31.78125 42.390625 
Q 38.140625 42.390625 41.71875 45.5625 
Q 45.3125 48.734375 45.3125 54.390625 
Q 45.3125 60.0625 41.71875 63.234375 
Q 38.140625 66.40625 31.78125 66.40625 
Q 25.390625 66.40625 21.84375 63.234375 
Q 18.3125 60.0625 18.3125 54.390625 
z
" id="DejaVuSans-56"/>
      </defs>
      <g transform="translate(373.125643 337.118125)scale(0.12 -0.12)">
       <use xlink:href="#DejaVuSans-56"/>
       <use x="63.623047" xlink:href="#DejaVuSans-49"/>
      </g>
     </g>
    </g>
    <g id="xtick_7">
     <g id="line2d_16">
      <g>
       <use style="stroke:#000000;stroke-width:0.5;" x="434.345791" xlink:href="#mfd260bfe11" y="324"/>
      </g>
     </g>
     <g id="line2d_17">
      <g>
       <use style="stroke:#000000;stroke-width:0.5;" x="434.345791" xlink:href="#m22e9deba87" y="36"/>
      </g>
     </g>
     <g id="text_7">
      <!-- 97 -->
      <g transform="translate(426.710791 337.118125)scale(0.12 -0.12)">
       <use xlink:href="#DejaVuSans-57"/>
       <use x="63.623047" xlink:href="#DejaVuSans-55"/>
      </g>
     </g>
    </g>
    <g id="xtick_8">
     <g id="line2d_18">
      <g>
       <use style="stroke:#000000;stroke-width:0.5;" x="487.930938" xlink:href="#mfd260bfe11" y="324"/>
      </g>
     </g>
     <g id="line2d_19">
      <g>
       <use style="stroke:#000000;stroke-width:0.5;" x="487.930938" xlink:href="#m22e9deba87" y="36"/>
      </g>
     </g>
     <g id="text_8">
      <!-- 113 -->
      <g transform="translate(476.478438 337.118125)scale(0.12 -0.12)">
       <use xlink:href="#DejaVuSans-49"/>
       <use x="63.623047" xlink:href="#DejaVuSans-49"/>
       <use x="127.246094" xlink:href="#DejaVuSans-51"/>
      </g>
     </g>
    </g>
    <g id="xtick_9">
     <g id="line2d_20">
      <g>
       <use style="stroke:#000000;stroke-width:0.5;" x="541.516085" xlink:href="#mfd260bfe11" y="324"/>
      </g>
     </g>
     <g id="line2d_21">
      <g>
       <use style="stroke:#000000;stroke-width:0.5;" x="541.516085" xlink:href="#m22e9deba87" y="36"/>
      </g>
     </g>
     <g id="text_9">
      <!-- 129 -->
      <defs>
       <path d="M 19.1875 8.296875 
L 53.609375 8.296875 
L 53.609375 0 
L 7.328125 0 
L 7.328125 8.296875 
Q 12.9375 14.109375 22.625 23.890625 
Q 32.328125 33.6875 34.8125 36.53125 
Q 39.546875 41.84375 41.421875 45.53125 
Q 43.3125 49.21875 43.3125 52.78125 
Q 43.3125 58.59375 39.234375 62.25 
Q 35.15625 65.921875 28.609375 65.921875 
Q 23.96875 65.921875 18.8125 64.3125 
Q 13.671875 62.703125 7.8125 59.421875 
L 7.8125 69.390625 
Q 13.765625 71.78125 18.9375 73 
Q 24.125 74.21875 28.421875 74.21875 
Q 39.75 74.21875 46.484375 68.546875 
Q 53.21875 62.890625 53.21875 53.421875 
Q 53.21875 48.921875 51.53125 44.890625 
Q 49.859375 40.875 45.40625 35.40625 
Q 44.1875 33.984375 37.640625 27.21875 
Q 31.109375 20.453125 19.1875 8.296875 
z
" id="DejaVuSans-50"/>
      </defs>
      <g transform="translate(530.063585 337.118125)scale(0.12 -0.12)">
       <use xlink:href="#DejaVuSans-49"/>
       <use x="63.623047" xlink:href="#DejaVuSans-50"/>
       <use x="127.246094" xlink:href="#DejaVuSans-57"/>
      </g>
     </g>
    </g>
    <g id="xtick_10">
     <g id="line2d_22">
      <g>
       <use style="stroke:#000000;stroke-width:0.5;" x="595.101232" xlink:href="#mfd260bfe11" y="324"/>
      </g>
     </g>
     <g id="line2d_23">
      <g>
       <use style="stroke:#000000;stroke-width:0.5;" x="595.101232" xlink:href="#m22e9deba87" y="36"/>
      </g>
     </g>
     <g id="text_10">
      <!-- 145 -->
      <g transform="translate(583.648732 337.118125)scale(0.12 -0.12)">
       <use xlink:href="#DejaVuSans-49"/>
       <use x="63.623047" xlink:href="#DejaVuSans-52"/>
       <use x="127.246094" xlink:href="#DejaVuSans-53"/>
      </g>
     </g>
    </g>
    <g id="text_11">
     <!-- generation -->
     <defs>
      <path d="M 45.40625 27.984375 
Q 45.40625 37.75 41.375 43.109375 
Q 37.359375 48.484375 30.078125 48.484375 
Q 22.859375 48.484375 18.828125 43.109375 
Q 14.796875 37.75 14.796875 27.984375 
Q 14.796875 18.265625 18.828125 12.890625 
Q 22.859375 7.515625 30.078125 7.515625 
Q 37.359375 7.515625 41.375 12.890625 
Q 45.40625 18.265625 45.40625 27.984375 
z
M 54.390625 6.78125 
Q 54.390625 -7.171875 48.1875 -13.984375 
Q 42 -20.796875 29.203125 -20.796875 
Q 24.46875 -20.796875 20.265625 -20.09375 
Q 16.0625 -19.390625 12.109375 -17.921875 
L 12.109375 -9.1875 
Q 16.0625 -11.328125 19.921875 -12.34375 
Q 23.78125 -13.375 27.78125 -13.375 
Q 36.625 -13.375 41.015625 -8.765625 
Q 45.40625 -4.15625 45.40625 5.171875 
L 45.40625 9.625 
Q 42.625 4.78125 38.28125 2.390625 
Q 33.9375 0 27.875 0 
Q 17.828125 0 11.671875 7.65625 
Q 5.515625 15.328125 5.515625 27.984375 
Q 5.515625 40.671875 11.671875 48.328125 
Q 17.828125 56 27.875 56 
Q 33.9375 56 38.28125 53.609375 
Q 42.625 51.21875 45.40625 46.390625 
L 45.40625 54.6875 
L 54.390625 54.6875 
z
" id="DejaVuSans-103"/>
      <path d="M 56.203125 29.59375 
L 56.203125 25.203125 
L 14.890625 25.203125 
Q 15.484375 15.921875 20.484375 11.0625 
Q 25.484375 6.203125 34.421875 6.203125 
Q 39.59375 6.203125 44.453125 7.46875 
Q 49.3125 8.734375 54.109375 11.28125 
L 54.109375 2.78125 
Q 49.265625 0.734375 44.1875 -0.34375 
Q 39.109375 -1.421875 33.890625 -1.421875 
Q 20.796875 -1.421875 13.15625 6.1875 
Q 5.515625 13.8125 5.515625 26.8125 
Q 5.515625 40.234375 12.765625 48.109375 
Q 20.015625 56 32.328125 56 
Q 43.359375 56 49.78125 48.890625 
Q 56.203125 41.796875 56.203125 29.59375 
z
M 47.21875 32.234375 
Q 47.125 39.59375 43.09375 43.984375 
Q 39.0625 48.390625 32.421875 48.390625 
Q 24.90625 48.390625 20.390625 44.140625 
Q 15.875 39.890625 15.1875 32.171875 
z
" id="DejaVuSans-101"/>
      <path d="M 54.890625 33.015625 
L 54.890625 0 
L 45.90625 0 
L 45.90625 32.71875 
Q 45.90625 40.484375 42.875 44.328125 
Q 39.84375 48.1875 33.796875 48.1875 
Q 26.515625 48.1875 22.3125 43.546875 
Q 18.109375 38.921875 18.109375 30.90625 
L 18.109375 0 
L 9.078125 0 
L 9.078125 54.6875 
L 18.109375 54.6875 
L 18.109375 46.1875 
Q 21.34375 51.125 25.703125 53.5625 
Q 30.078125 56 35.796875 56 
Q 45.21875 56 50.046875 50.171875 
Q 54.890625 44.34375 54.890625 33.015625 
z
" id="DejaVuSans-110"/>
      <path d="M 41.109375 46.296875 
Q 39.59375 47.171875 37.8125 47.578125 
Q 36.03125 48 33.890625 48 
Q 26.265625 48 22.1875 43.046875 
Q 18.109375 38.09375 18.109375 28.8125 
L 18.109375 0 
L 9.078125 0 
L 9.078125 54.6875 
L 18.109375 54.6875 
L 18.109375 46.1875 
Q 20.953125 51.171875 25.484375 53.578125 
Q 30.03125 56 36.53125 56 
Q 37.453125 56 38.578125 55.875 
Q 39.703125 55.765625 41.0625 55.515625 
z
" id="DejaVuSans-114"/>
      <path d="M 34.28125 27.484375 
Q 23.390625 27.484375 19.1875 25 
Q 14.984375 22.515625 14.984375 16.5 
Q 14.984375 11.71875 18.140625 8.90625 
Q 21.296875 6.109375 26.703125 6.109375 
Q 34.1875 6.109375 38.703125 11.40625 
Q 43.21875 16.703125 43.21875 25.484375 
L 43.21875 27.484375 
z
M 52.203125 31.203125 
L 52.203125 0 
L 43.21875 0 
L 43.21875 8.296875 
Q 40.140625 3.328125 35.546875 0.953125 
Q 30.953125 -1.421875 24.3125 -1.421875 
Q 15.921875 -1.421875 10.953125 3.296875 
Q 6 8.015625 6 15.921875 
Q 6 25.140625 12.171875 29.828125 
Q 18.359375 34.515625 30.609375 34.515625 
L 43.21875 34.515625 
L 43.21875 35.40625 
Q 43.21875 41.609375 39.140625 45 
Q 35.0625 48.390625 27.6875 48.390625 
Q 23 48.390625 18.546875 47.265625 
Q 14.109375 46.140625 10.015625 43.890625 
L 10.015625 52.203125 
Q 14.9375 54.109375 19.578125 55.046875 
Q 24.21875 56 28.609375 56 
Q 40.484375 56 46.34375 49.84375 
Q 52.203125 43.703125 52.203125 31.203125 
z
" id="DejaVuSans-97"/>
      <path d="M 18.3125 70.21875 
L 18.3125 54.6875 
L 36.8125 54.6875 
L 36.8125 47.703125 
L 18.3125 47.703125 
L 18.3125 18.015625 
Q 18.3125 11.328125 20.140625 9.421875 
Q 21.96875 7.515625 27.59375 7.515625 
L 36.8125 7.515625 
L 36.8125 0 
L 27.59375 0 
Q 17.1875 0 13.234375 3.875 
Q 9.28125 7.765625 9.28125 18.015625 
L 9.28125 47.703125 
L 2.6875 47.703125 
L 2.6875 54.6875 
L 9.28125 54.6875 
L 9.28125 70.21875 
z
" id="DejaVuSans-116"/>
      <path d="M 9.421875 54.6875 
L 18.40625 54.6875 
L 18.40625 0 
L 9.421875 0 
z
M 9.421875 75.984375 
L 18.40625 75.984375 
L 18.40625 64.59375 
L 9.421875 64.59375 
z
" id="DejaVuSans-105"/>
      <path d="M 30.609375 48.390625 
Q 23.390625 48.390625 19.1875 42.75 
Q 14.984375 37.109375 14.984375 27.296875 
Q 14.984375 17.484375 19.15625 11.84375 
Q 23.34375 6.203125 30.609375 6.203125 
Q 37.796875 6.203125 41.984375 11.859375 
Q 46.1875 17.53125 46.1875 27.296875 
Q 46.1875 37.015625 41.984375 42.703125 
Q 37.796875 48.390625 30.609375 48.390625 
z
M 30.609375 56 
Q 42.328125 56 49.015625 48.375 
Q 55.71875 40.765625 55.71875 27.296875 
Q 55.71875 13.875 49.015625 6.21875 
Q 42.328125 -1.421875 30.609375 -1.421875 
Q 18.84375 -1.421875 12.171875 6.21875 
Q 5.515625 13.875 5.515625 27.296875 
Q 5.515625 40.765625 12.171875 48.375 
Q 18.84375 56 30.609375 56 
z
" id="DejaVuSans-111"/>
     </defs>
     <g transform="translate(341.430938 353.731875)scale(0.12 -0.12)">
      <use xlink:href="#DejaVuSans-103"/>
      <use x="63.476562" xlink:href="#DejaVuSans-101"/>
      <use x="125" xlink:href="#DejaVuSans-110"/>
      <use x="188.378906" xlink:href="#DejaVuSans-101"/>
      <use x="249.902344" xlink:href="#DejaVuSans-114"/>
      <use x="291.015625" xlink:href="#DejaVuSans-97"/>
      <use x="352.294922" xlink:href="#DejaVuSans-116"/>
      <use x="391.503906" xlink:href="#DejaVuSans-105"/>
      <use x="419.287109" xlink:href="#DejaVuSans-111"/>
      <use x="480.46875" xlink:href="#DejaVuSans-110"/>
     </g>
    </g>
   </g>
   <g id="matplotlib.axis_2">
    <g id="ytick_1">
     <g id="line2d_24">
      <defs>
       <path d="M 0 0 
L 4 0 
" id="m1599158a45" style="stroke:#000000;stroke-width:0.5;"/>
      </defs>
      <g>
       <use style="stroke:#000000;stroke-width:0.5;" x="112.5" xlink:href="#m1599158a45" y="324"/>
      </g>
     </g>
     <g id="line2d_25">
      <defs>
       <path d="M 0 0 
L -4 0 
" id="m6ad34be850" style="stroke:#000000;stroke-width:0.5;"/>
      </defs>
      <g>
       <use style="stroke:#000000;stroke-width:0.5;" x="635.625" xlink:href="#m6ad34be850" y="324"/>
      </g>
     </g>
     <g id="text_12">
      <!-- 0.89 -->
      <defs>
       <path d="M 31.78125 66.40625 
Q 24.171875 66.40625 20.328125 58.90625 
Q 16.5 51.421875 16.5 36.375 
Q 16.5 21.390625 20.328125 13.890625 
Q 24.171875 6.390625 31.78125 6.390625 
Q 39.453125 6.390625 43.28125 13.890625 
Q 47.125 21.390625 47.125 36.375 
Q 47.125 51.421875 43.28125 58.90625 
Q 39.453125 66.40625 31.78125 66.40625 
z
M 31.78125 74.21875 
Q 44.046875 74.21875 50.515625 64.515625 
Q 56.984375 54.828125 56.984375 36.375 
Q 56.984375 17.96875 50.515625 8.265625 
Q 44.046875 -1.421875 31.78125 -1.421875 
Q 19.53125 -1.421875 13.0625 8.265625 
Q 6.59375 17.96875 6.59375 36.375 
Q 6.59375 54.828125 13.0625 64.515625 
Q 19.53125 74.21875 31.78125 74.21875 
z
" id="DejaVuSans-48"/>
       <path d="M 10.6875 12.40625 
L 21 12.40625 
L 21 0 
L 10.6875 0 
z
" id="DejaVuSans-46"/>
      </defs>
      <g transform="translate(81.78125 327.31125)scale(0.12 -0.12)">
       <use xlink:href="#DejaVuSans-48"/>
       <use x="63.623047" xlink:href="#DejaVuSans-46"/>
       <use x="95.410156" xlink:href="#DejaVuSans-56"/>
       <use x="159.033203" xlink:href="#DejaVuSans-57"/>
      </g>
     </g>
    </g>
    <g id="ytick_2">
     <g id="line2d_26">
      <g>
       <use style="stroke:#000000;stroke-width:0.5;" x="112.5" xlink:href="#m1599158a45" y="276"/>
      </g>
     </g>
     <g id="line2d_27">
      <g>
       <use style="stroke:#000000;stroke-width:0.5;" x="635.625" xlink:href="#m6ad34be850" y="276"/>
      </g>
     </g>
     <g id="text_13">
      <!-- 0.90 -->
      <g transform="translate(81.78125 279.31125)scale(0.12 -0.12)">
       <use xlink:href="#DejaVuSans-48"/>
       <use x="63.623047" xlink:href="#DejaVuSans-46"/>
       <use x="95.410156" xlink:href="#DejaVuSans-57"/>
       <use x="159.033203" xlink:href="#DejaVuSans-48"/>
      </g>
     </g>
    </g>
    <g id="ytick_3">
     <g id="line2d_28">
      <g>
       <use style="stroke:#000000;stroke-width:0.5;" x="112.5" xlink:href="#m1599158a45" y="228"/>
      </g>
     </g>
     <g id="line2d_29">
      <g>
       <use style="stroke:#000000;stroke-width:0.5;" x="635.625" xlink:href="#m6ad34be850" y="228"/>
      </g>
     </g>
     <g id="text_14">
      <!-- 0.91 -->
      <g transform="translate(81.78125 231.31125)scale(0.12 -0.12)">
       <use xlink:href="#DejaVuSans-48"/>
       <use x="63.623047" xlink:href="#DejaVuSans-46"/>
       <use x="95.410156" xlink:href="#DejaVuSans-57"/>
       <use x="159.033203" xlink:href="#DejaVuSans-49"/>
      </g>
     </g>
    </g>
    <g id="ytick_4">
     <g id="line2d_30">
      <g>
       <use style="stroke:#000000;stroke-width:0.5;" x="112.5" xlink:href="#m1599158a45" y="180"/>
      </g>
     </g>
     <g id="line2d_31">
      <g>
       <use style="stroke:#000000;stroke-width:0.5;" x="635.625" xlink:href="#m6ad34be850" y="180"/>
      </g>
     </g>
     <g id="text_15">
      <!-- 0.92 -->
      <g transform="translate(81.78125 183.31125)scale(0.12 -0.12)">
       <use xlink:href="#DejaVuSans-48"/>
       <use x="63.623047" xlink:href="#DejaVuSans-46"/>
       <use x="95.410156" xlink:href="#DejaVuSans-57"/>
       <use x="159.033203" xlink:href="#DejaVuSans-50"/>
      </g>
     </g>
    </g>
    <g id="ytick_5">
     <g id="line2d_32">
      <g>
       <use style="stroke:#000000;stroke-width:0.5;" x="112.5" xlink:href="#m1599158a45" y="132"/>
      </g>
     </g>
     <g id="line2d_33">
      <g>
       <use style="stroke:#000000;stroke-width:0.5;" x="635.625" xlink:href="#m6ad34be850" y="132"/>
      </g>
     </g>
     <g id="text_16">
      <!-- 0.93 -->
      <g transform="translate(81.78125 135.31125)scale(0.12 -0.12)">
       <use xlink:href="#DejaVuSans-48"/>
       <use x="63.623047" xlink:href="#DejaVuSans-46"/>
       <use x="95.410156" xlink:href="#DejaVuSans-57"/>
       <use x="159.033203" xlink:href="#DejaVuSans-51"/>
      </g>
     </g>
    </g>
    <g id="ytick_6">
     <g id="line2d_34">
      <g>
       <use style="stroke:#000000;stroke-width:0.5;" x="112.5" xlink:href="#m1599158a45" y="84"/>
      </g>
     </g>
     <g id="line2d_35">
      <g>
       <use style="stroke:#000000;stroke-width:0.5;" x="635.625" xlink:href="#m6ad34be850" y="84"/>
      </g>
     </g>
     <g id="text_17">
      <!-- 0.94 -->
      <g transform="translate(81.78125 87.31125)scale(0.12 -0.12)">
       <use xlink:href="#DejaVuSans-48"/>
       <use x="63.623047" xlink:href="#DejaVuSans-46"/>
       <use x="95.410156" xlink:href="#DejaVuSans-57"/>
       <use x="159.033203" xlink:href="#DejaVuSans-52"/>
      </g>
     </g>
    </g>
    <g id="ytick_7">
     <g id="line2d_36">
      <g>
       <use style="stroke:#000000;stroke-width:0.5;" x="112.5" xlink:href="#m1599158a45" y="36"/>
      </g>
     </g>
     <g id="line2d_37">
      <g>
       <use style="stroke:#000000;stroke-width:0.5;" x="635.625" xlink:href="#m6ad34be850" y="36"/>
      </g>
     </g>
     <g id="text_18">
      <!-- 0.95 -->
      <g transform="translate(81.78125 39.31125)scale(0.12 -0.12)">
       <use xlink:href="#DejaVuSans-48"/>
       <use x="63.623047" xlink:href="#DejaVuSans-46"/>
       <use x="95.410156" xlink:href="#DejaVuSans-57"/>
       <use x="159.033203" xlink:href="#DejaVuSans-53"/>
      </g>
     </g>
    </g>
    <g id="text_19">
     <!-- accuracy -->
     <defs>
      <path d="M 48.78125 52.59375 
L 48.78125 44.1875 
Q 44.96875 46.296875 41.140625 47.34375 
Q 37.3125 48.390625 33.40625 48.390625 
Q 24.65625 48.390625 19.8125 42.84375 
Q 14.984375 37.3125 14.984375 27.296875 
Q 14.984375 17.28125 19.8125 11.734375 
Q 24.65625 6.203125 33.40625 6.203125 
Q 37.3125 6.203125 41.140625 7.25 
Q 44.96875 8.296875 48.78125 10.40625 
L 48.78125 2.09375 
Q 45.015625 0.34375 40.984375 -0.53125 
Q 36.96875 -1.421875 32.421875 -1.421875 
Q 20.0625 -1.421875 12.78125 6.34375 
Q 5.515625 14.109375 5.515625 27.296875 
Q 5.515625 40.671875 12.859375 48.328125 
Q 20.21875 56 33.015625 56 
Q 37.15625 56 41.109375 55.140625 
Q 45.0625 54.296875 48.78125 52.59375 
z
" id="DejaVuSans-99"/>
      <path d="M 8.5 21.578125 
L 8.5 54.6875 
L 17.484375 54.6875 
L 17.484375 21.921875 
Q 17.484375 14.15625 20.5 10.265625 
Q 23.53125 6.390625 29.59375 6.390625 
Q 36.859375 6.390625 41.078125 11.03125 
Q 45.3125 15.671875 45.3125 23.6875 
L 45.3125 54.6875 
L 54.296875 54.6875 
L 54.296875 0 
L 45.3125 0 
L 45.3125 8.40625 
Q 42.046875 3.421875 37.71875 1 
Q 33.40625 -1.421875 27.6875 -1.421875 
Q 18.265625 -1.421875 13.375 4.4375 
Q 8.5 10.296875 8.5 21.578125 
z
M 31.109375 56 
z
" id="DejaVuSans-117"/>
      <path d="M 32.171875 -5.078125 
Q 28.375 -14.84375 24.75 -17.8125 
Q 21.140625 -20.796875 15.09375 -20.796875 
L 7.90625 -20.796875 
L 7.90625 -13.28125 
L 13.1875 -13.28125 
Q 16.890625 -13.28125 18.9375 -11.515625 
Q 21 -9.765625 23.484375 -3.21875 
L 25.09375 0.875 
L 2.984375 54.6875 
L 12.5 54.6875 
L 29.59375 11.921875 
L 46.6875 54.6875 
L 56.203125 54.6875 
z
" id="DejaVuSans-121"/>
     </defs>
     <g transform="translate(74.285625 207.07125)rotate(-90)scale(0.12 -0.12)">
      <use xlink:href="#DejaVuSans-97"/>
      <use x="61.279297" xlink:href="#DejaVuSans-99"/>
      <use x="116.259766" xlink:href="#DejaVuSans-99"/>
      <use x="171.240234" xlink:href="#DejaVuSans-117"/>
      <use x="234.619141" xlink:href="#DejaVuSans-114"/>
      <use x="275.732422" xlink:href="#DejaVuSans-97"/>
      <use x="337.011719" xlink:href="#DejaVuSans-99"/>
      <use x="391.992188" xlink:href="#DejaVuSans-121"/>
     </g>
    </g>
   </g>
   <g id="legend_1">
    <g id="patch_7">
     <path d="M 640.623 203.924801 
L 821.716159 203.924801 
L 821.716159 156.075199 
L 640.623 156.075199 
z
" style="fill:#ffffff;stroke:#000000;stroke-linejoin:miter;"/>
    </g>
    <g id="line2d_38">
     <path d="M 647.6202 164.170397 
L 661.6146 164.170397 
" style="fill:none;stroke:#0000ff;stroke-linecap:square;stroke-width:1.2;"/>
    </g>
    <g id="line2d_39"/>
    <g id="text_20">
     <!-- Lonely_Los_Layers_Mut_All_3 -->
     <defs>
      <path d="M 9.8125 72.90625 
L 19.671875 72.90625 
L 19.671875 8.296875 
L 55.171875 8.296875 
L 55.171875 0 
L 9.8125 0 
z
" id="DejaVuSans-76"/>
      <path d="M 9.421875 75.984375 
L 18.40625 75.984375 
L 18.40625 0 
L 9.421875 0 
z
" id="DejaVuSans-108"/>
      <path d="M 50.984375 -16.609375 
L 50.984375 -23.578125 
L -0.984375 -23.578125 
L -0.984375 -16.609375 
z
" id="DejaVuSans-95"/>
      <path d="M 44.28125 53.078125 
L 44.28125 44.578125 
Q 40.484375 46.53125 36.375 47.5 
Q 32.28125 48.484375 27.875 48.484375 
Q 21.1875 48.484375 17.84375 46.4375 
Q 14.5 44.390625 14.5 40.28125 
Q 14.5 37.15625 16.890625 35.375 
Q 19.28125 33.59375 26.515625 31.984375 
L 29.59375 31.296875 
Q 39.15625 29.25 43.1875 25.515625 
Q 47.21875 21.78125 47.21875 15.09375 
Q 47.21875 7.46875 41.1875 3.015625 
Q 35.15625 -1.421875 24.609375 -1.421875 
Q 20.21875 -1.421875 15.453125 -0.5625 
Q 10.6875 0.296875 5.421875 2 
L 5.421875 11.28125 
Q 10.40625 8.6875 15.234375 7.390625 
Q 20.0625 6.109375 24.8125 6.109375 
Q 31.15625 6.109375 34.5625 8.28125 
Q 37.984375 10.453125 37.984375 14.40625 
Q 37.984375 18.0625 35.515625 20.015625 
Q 33.0625 21.96875 24.703125 23.78125 
L 21.578125 24.515625 
Q 13.234375 26.265625 9.515625 29.90625 
Q 5.8125 33.546875 5.8125 39.890625 
Q 5.8125 47.609375 11.28125 51.796875 
Q 16.75 56 26.8125 56 
Q 31.78125 56 36.171875 55.265625 
Q 40.578125 54.546875 44.28125 53.078125 
z
" id="DejaVuSans-115"/>
      <path d="M 9.8125 72.90625 
L 24.515625 72.90625 
L 43.109375 23.296875 
L 61.8125 72.90625 
L 76.515625 72.90625 
L 76.515625 0 
L 66.890625 0 
L 66.890625 64.015625 
L 48.09375 14.015625 
L 38.1875 14.015625 
L 19.390625 64.015625 
L 19.390625 0 
L 9.8125 0 
z
" id="DejaVuSans-77"/>
      <path d="M 34.1875 63.1875 
L 20.796875 26.90625 
L 47.609375 26.90625 
z
M 28.609375 72.90625 
L 39.796875 72.90625 
L 67.578125 0 
L 57.328125 0 
L 50.6875 18.703125 
L 17.828125 18.703125 
L 11.1875 0 
L 0.78125 0 
z
" id="DejaVuSans-65"/>
     </defs>
     <g transform="translate(672.6102 167.668997)scale(0.09996 -0.09996)">
      <use xlink:href="#DejaVuSans-76"/>
      <use x="53.962891" xlink:href="#DejaVuSans-111"/>
      <use x="115.144531" xlink:href="#DejaVuSans-110"/>
      <use x="178.523438" xlink:href="#DejaVuSans-101"/>
      <use x="240.046875" xlink:href="#DejaVuSans-108"/>
      <use x="267.830078" xlink:href="#DejaVuSans-121"/>
      <use x="327.009766" xlink:href="#DejaVuSans-95"/>
      <use x="377.009766" xlink:href="#DejaVuSans-76"/>
      <use x="430.972656" xlink:href="#DejaVuSans-111"/>
      <use x="492.154297" xlink:href="#DejaVuSans-115"/>
      <use x="544.253906" xlink:href="#DejaVuSans-95"/>
      <use x="594.253906" xlink:href="#DejaVuSans-76"/>
      <use x="649.966797" xlink:href="#DejaVuSans-97"/>
      <use x="711.246094" xlink:href="#DejaVuSans-121"/>
      <use x="770.425781" xlink:href="#DejaVuSans-101"/>
      <use x="831.949219" xlink:href="#DejaVuSans-114"/>
      <use x="873.0625" xlink:href="#DejaVuSans-115"/>
      <use x="925.162109" xlink:href="#DejaVuSans-95"/>
      <use x="975.162109" xlink:href="#DejaVuSans-77"/>
      <use x="1061.441406" xlink:href="#DejaVuSans-117"/>
      <use x="1124.820312" xlink:href="#DejaVuSans-116"/>
      <use x="1164.029297" xlink:href="#DejaVuSans-95"/>
      <use x="1214.029297" xlink:href="#DejaVuSans-65"/>
      <use x="1282.4375" xlink:href="#DejaVuSans-108"/>
      <use x="1310.220703" xlink:href="#DejaVuSans-108"/>
      <use x="1338.003906" xlink:href="#DejaVuSans-95"/>
      <use x="1388.003906" xlink:href="#DejaVuSans-51"/>
     </g>
    </g>
    <g id="line2d_40">
     <path d="M 647.6202 179.120664 
L 661.6146 179.120664 
" style="fill:none;stroke:#008000;stroke-linecap:square;stroke-width:1.2;"/>
    </g>
    <g id="line2d_41"/>
    <g id="text_21">
     <!-- Lonely_Los_Layers_Mut_All_4 -->
     <g transform="translate(672.6102 182.619264)scale(0.09996 -0.09996)">
      <use xlink:href="#DejaVuSans-76"/>
      <use x="53.962891" xlink:href="#DejaVuSans-111"/>
      <use x="115.144531" xlink:href="#DejaVuSans-110"/>
      <use x="178.523438" xlink:href="#DejaVuSans-101"/>
      <use x="240.046875" xlink:href="#DejaVuSans-108"/>
      <use x="267.830078" xlink:href="#DejaVuSans-121"/>
      <use x="327.009766" xlink:href="#DejaVuSans-95"/>
      <use x="377.009766" xlink:href="#DejaVuSans-76"/>
      <use x="430.972656" xlink:href="#DejaVuSans-111"/>
      <use x="492.154297" xlink:href="#DejaVuSans-115"/>
      <use x="544.253906" xlink:href="#DejaVuSans-95"/>
      <use x="594.253906" xlink:href="#DejaVuSans-76"/>
      <use x="649.966797" xlink:href="#DejaVuSans-97"/>
      <use x="711.246094" xlink:href="#DejaVuSans-121"/>
      <use x="770.425781" xlink:href="#DejaVuSans-101"/>
      <use x="831.949219" xlink:href="#DejaVuSans-114"/>
      <use x="873.0625" xlink:href="#DejaVuSans-115"/>
      <use x="925.162109" xlink:href="#DejaVuSans-95"/>
      <use x="975.162109" xlink:href="#DejaVuSans-77"/>
      <use x="1061.441406" xlink:href="#DejaVuSans-117"/>
      <use x="1124.820312" xlink:href="#DejaVuSans-116"/>
      <use x="1164.029297" xlink:href="#DejaVuSans-95"/>
      <use x="1214.029297" xlink:href="#DejaVuSans-65"/>
      <use x="1282.4375" xlink:href="#DejaVuSans-108"/>
      <use x="1310.220703" xlink:href="#DejaVuSans-108"/>
      <use x="1338.003906" xlink:href="#DejaVuSans-95"/>
      <use x="1388.003906" xlink:href="#DejaVuSans-52"/>
     </g>
    </g>
    <g id="line2d_42">
     <path d="M 647.6202 194.070932 
L 661.6146 194.070932 
" style="fill:none;stroke:#ff0000;stroke-linecap:square;stroke-width:1.2;"/>
    </g>
    <g id="line2d_43"/>
    <g id="text_22">
     <!-- Lonely_Los_Layers_Mut_All_5 -->
     <g transform="translate(672.6102 197.569532)scale(0.09996 -0.09996)">
      <use xlink:href="#DejaVuSans-76"/>
      <use x="53.962891" xlink:href="#DejaVuSans-111"/>
      <use x="115.144531" xlink:href="#DejaVuSans-110"/>
      <use x="178.523438" xlink:href="#DejaVuSans-101"/>
      <use x="240.046875" xlink:href="#DejaVuSans-108"/>
      <use x="267.830078" xlink:href="#DejaVuSans-121"/>
      <use x="327.009766" xlink:href="#DejaVuSans-95"/>
      <use x="377.009766" xlink:href="#DejaVuSans-76"/>
      <use x="430.972656" xlink:href="#DejaVuSans-111"/>
      <use x="492.154297" xlink:href="#DejaVuSans-115"/>
      <use x="544.253906" xlink:href="#DejaVuSans-95"/>
      <use x="594.253906" xlink:href="#DejaVuSans-76"/>
      <use x="649.966797" xlink:href="#DejaVuSans-97"/>
      <use x="711.246094" xlink:href="#DejaVuSans-121"/>
      <use x="770.425781" xlink:href="#DejaVuSans-101"/>
      <use x="831.949219" xlink:href="#DejaVuSans-114"/>
      <use x="873.0625" xlink:href="#DejaVuSans-115"/>
      <use x="925.162109" xlink:href="#DejaVuSans-95"/>
      <use x="975.162109" xlink:href="#DejaVuSans-77"/>
      <use x="1061.441406" xlink:href="#DejaVuSans-117"/>
      <use x="1124.820312" xlink:href="#DejaVuSans-116"/>
      <use x="1164.029297" xlink:href="#DejaVuSans-95"/>
      <use x="1214.029297" xlink:href="#DejaVuSans-65"/>
      <use x="1282.4375" xlink:href="#DejaVuSans-108"/>
      <use x="1310.220703" xlink:href="#DejaVuSans-108"/>
      <use x="1338.003906" xlink:href="#DejaVuSans-95"/>
      <use x="1388.003906" xlink:href="#DejaVuSans-53"/>
     </g>
    </g>
   </g>
  </g>
  <g id="text_23">
   <!-- Average Accuracy -->
   <defs>
    <path d="M 2.984375 54.6875 
L 12.5 54.6875 
L 29.59375 8.796875 
L 46.6875 54.6875 
L 56.203125 54.6875 
L 35.6875 0 
L 23.484375 0 
z
" id="DejaVuSans-118"/>
    <path id="DejaVuSans-32"/>
   </defs>
   <g transform="translate(396.06 16.318125)scale(0.12 -0.12)">
    <use xlink:href="#DejaVuSans-65"/>
    <use x="62.533203" xlink:href="#DejaVuSans-118"/>
    <use x="121.712891" xlink:href="#DejaVuSans-101"/>
    <use x="183.236328" xlink:href="#DejaVuSans-114"/>
    <use x="224.349609" xlink:href="#DejaVuSans-97"/>
    <use x="285.628906" xlink:href="#DejaVuSans-103"/>
    <use x="349.105469" xlink:href="#DejaVuSans-101"/>
    <use x="410.628906" xlink:href="#DejaVuSans-32"/>
    <use x="442.416016" xlink:href="#DejaVuSans-65"/>
    <use x="509.074219" xlink:href="#DejaVuSans-99"/>
    <use x="564.054688" xlink:href="#DejaVuSans-99"/>
    <use x="619.035156" xlink:href="#DejaVuSans-117"/>
    <use x="682.414062" xlink:href="#DejaVuSans-114"/>
    <use x="723.527344" xlink:href="#DejaVuSans-97"/>
    <use x="784.806641" xlink:href="#DejaVuSans-99"/>
    <use x="839.787109" xlink:href="#DejaVuSans-121"/>
   </g>
  </g>
 </g>
 <defs>
  <clipPath id="peda3fd87d9">
   <rect height="288" width="523.125" x="112.5" y="36"/>
  </clipPath>
 </defs>
</svg>
