<?xml version="1.0" encoding="utf-8" standalone="no"?>
<!DOCTYPE svg PUBLIC "-//W3C//DTD SVG 1.1//EN"
  "http://www.w3.org/Graphics/SVG/1.1/DTD/svg11.dtd">
<!-- Created with matplotlib (https://matplotlib.org/) -->
<svg height="360pt" version="1.1" viewBox="0 0 900 360" width="900pt" xmlns="http://www.w3.org/2000/svg" xmlns:xlink="http://www.w3.org/1999/xlink">
 <defs>
  <style type="text/css">
*{stroke-linecap:butt;stroke-linejoin:round;}
  </style>
 </defs>
 <g id="figure_1">
  <g id="patch_1">
   <path d="M 0 360 
L 900 360 
L 900 0 
L 0 0 
z
" style="fill:#ffffff;"/>
  </g>
  <g id="axes_1">
   <g id="patch_2">
    <path d="M 112.5 324 
L 635.625 324 
L 635.625 36 
L 112.5 36 
z
" style="fill:#ffffff;"/>
   </g>
   <g id="line2d_1">
    <path clip-path="url(#p9d5d490945)" d="M 112.837065 298.628573 
L 116.207716 295.028573 
L 119.578367 301.69524 
L 122.949017 300.735239 
L 126.319668 298.989784 
L 129.690319 299.389784 
L 133.06097 301.974399 
L 136.43162 300.201001 
L 139.802271 299.306572 
L 143.172922 295.615136 
L 146.543573 291.71359 
L 149.914224 287.27696 
L 153.284874 282.652897 
L 156.655525 275.628166 
L 160.026176 269.861025 
L 163.396827 264.457521 
L 166.767477 257.814627 
L 170.138128 250.407015 
L 173.508779 238.893942 
L 176.87943 229.620176 
L 180.250081 221.096484 
L 183.620731 212.914597 
L 186.991382 205.811295 
L 190.362033 194.980269 
L 193.732684 188.316673 
L 197.103334 182.949192 
L 200.473985 178.066808 
L 203.844636 171.802987 
L 207.215287 165.871325 
L 210.585938 158.737482 
L 213.956588 157.426498 
L 217.327239 154.127253 
L 220.69789 152.094796 
L 224.068541 148.43541 
L 227.439191 142.760981 
L 230.809842 140.614032 
L 234.180493 138.296844 
L 237.551144 132.579178 
L 240.921794 127.598557 
L 247.663096 116.098992 
L 251.033747 111.832686 
L 254.404398 105.003351 
L 257.775048 100.96539 
L 261.145699 97.795098 
L 264.51635 91.256371 
L 267.887001 88.350145 
L 271.257651 83.631003 
L 274.628302 83.492412 
L 277.998953 80.914648 
L 281.369604 81.956898 
L 284.740255 79.261653 
L 288.110905 79.262058 
L 291.481556 78.932206 
L 294.852207 79.863068 
L 298.222858 76.445426 
L 301.593508 75.363178 
L 304.964159 69.686738 
L 308.33481 66.180975 
L 311.705461 63.697815 
L 315.076111 60.49517 
L 318.446762 61.589946 
L 321.817413 63.031833 
L 325.188064 60.052499 
L 328.558715 60.972942 
L 335.300016 66.864446 
L 338.670667 66.062083 
L 342.041318 62.344555 
L 345.411968 59.522456 
L 348.782619 61.512453 
L 352.15327 59.523184 
L 355.523921 56.78686 
L 358.894572 51.580891 
L 362.265222 51.205415 
L 365.635873 51.271635 
L 369.006524 49.160033 
L 372.377175 52.271386 
L 375.747825 53.92894 
L 379.118476 56.293716 
L 382.489127 59.240856 
L 385.859778 57.828198 
L 389.230428 59.994087 
L 392.601079 64.704399 
L 395.97173 62.153092 
L 399.342381 60.75495 
L 402.713032 63.128891 
L 406.083682 62.689509 
L 409.454333 65.094225 
L 412.824984 61.978851 
L 416.195635 61.399963 
L 419.566285 61.711261 
L 422.936936 62.154053 
L 426.307587 58.755989 
L 429.678238 58.638026 
L 433.048889 64.602934 
L 436.419539 65.912479 
L 439.79019 63.30575 
L 443.160841 61.766864 
L 446.531492 59.152465 
L 449.902142 62.690656 
L 453.272793 65.217781 
L 456.643444 58.988153 
L 460.014095 59.932436 
L 466.755396 61.244425 
L 470.126047 64.913037 
L 473.496698 61.576297 
L 476.867349 57.234644 
L 480.237999 58.392067 
L 483.60865 55.319731 
L 486.979301 56.5754 
L 490.349952 55.293168 
L 493.720602 52.522409 
L 497.091253 51.27211 
L 500.461904 50.259607 
L 503.832555 51.110956 
L 507.203206 53.002589 
L 510.573856 51.620065 
L 513.944507 49.67598 
L 517.315158 52.41087 
L 520.685809 52.498467 
L 524.056459 51.932226 
L 527.42711 53.472324 
L 530.797761 52.954611 
L 534.168412 54.903422 
L 537.539062 56.597841 
L 540.909713 53.781453 
L 544.280364 54.249375 
L 547.651015 55.904541 
L 551.021666 49.44548 
L 554.392316 48.806316 
L 557.762967 50.183462 
L 561.133618 52.274664 
L 564.504269 51.420295 
L 567.874919 52.679597 
L 571.24557 54.277678 
L 574.616221 56.680155 
L 577.986872 59.316605 
L 581.357523 58.911462 
L 584.728173 59.421985 
L 591.469475 61.753787 
L 594.840126 66.205796 
L 598.210776 66.384691 
L 601.581427 65.820698 
L 608.322729 67.689811 
L 611.69338 70.779654 
L 615.06403 70.120206 
L 618.434681 66.346275 
L 621.805332 69.534757 
L 625.175983 71.084587 
L 625.175983 71.084587 
" style="fill:none;stroke:#0000ff;stroke-linecap:square;stroke-width:1.2;"/>
   </g>
   <g id="line2d_2">
    <path clip-path="url(#p9d5d490945)" d="M 112.837065 281.828571 
L 116.207716 279.728571 
L 119.578367 278.128571 
L 122.949017 275.968571 
L 126.319668 271.823117 
L 129.690319 264.223117 
L 133.06097 265.884655 
L 136.43162 259.119739 
L 139.802271 257.349829 
L 143.172922 252.982233 
L 146.543573 245.675592 
L 149.914224 240.525782 
L 153.284874 240.179833 
L 156.655525 235.248693 
L 160.026176 231.935536 
L 163.396827 227.395975 
L 166.767477 220.25857 
L 170.138128 216.641876 
L 173.508779 215.543114 
L 176.87943 215.494136 
L 180.250081 210.282246 
L 183.620731 211.016609 
L 186.991382 206.802811 
L 190.362033 202.998522 
L 193.732684 201.764418 
L 197.103334 194.796827 
L 200.473985 186.927803 
L 203.844636 183.285153 
L 207.215287 177.275041 
L 210.585938 174.449828 
L 213.956588 176.315314 
L 217.327239 171.219228 
L 220.69789 169.220951 
L 224.068541 162.135809 
L 227.439191 158.293552 
L 230.809842 155.91036 
L 234.180493 149.130401 
L 237.551144 141.316177 
L 240.921794 135.139019 
L 244.292445 130.117332 
L 247.663096 126.731295 
L 251.033747 121.534198 
L 254.404398 115.751417 
L 257.775048 113.922265 
L 261.145699 106.461195 
L 264.51635 104.255208 
L 267.887001 102.265814 
L 271.257651 101.491546 
L 274.628302 97.180573 
L 277.998953 91.321278 
L 281.369604 89.028894 
L 284.740255 94.518717 
L 288.110905 88.600525 
L 291.481556 86.995503 
L 294.852207 82.741962 
L 298.222858 81.446684 
L 301.593508 83.271714 
L 304.964159 80.798085 
L 308.33481 73.834959 
L 311.705461 73.806839 
L 315.076111 67.069249 
L 318.446762 65.67904 
L 321.817413 67.604607 
L 325.188064 65.476368 
L 328.558715 67.067005 
L 331.929365 67.654085 
L 335.300016 65.703873 
L 338.670667 67.814229 
L 342.041318 70.932321 
L 345.411968 65.465222 
L 348.782619 63.24898 
L 352.15327 62.032209 
L 355.523921 58.461296 
L 358.894572 60.119559 
L 362.265222 62.112276 
L 365.635873 58.849196 
L 369.006524 58.894117 
L 372.377175 61.882204 
L 375.747825 60.762973 
L 379.118476 61.12464 
L 382.489127 59.171185 
L 385.859778 56.544947 
L 389.230428 56.552313 
L 392.601079 55.633712 
L 395.97173 53.676135 
L 399.342381 51.28484 
L 402.713032 52.927933 
L 406.083682 53.73999 
L 409.454333 52.970378 
L 412.824984 51.956384 
L 416.195635 57.027359 
L 419.566285 57.654376 
L 422.936936 59.436648 
L 426.307587 56.245011 
L 429.678238 56.991551 
L 433.048889 58.593179 
L 436.419539 57.442163 
L 439.79019 58.027918 
L 443.160841 58.056652 
L 446.531492 57.581268 
L 449.902142 60.268672 
L 453.272793 59.413066 
L 456.643444 56.706903 
L 460.014095 57.204191 
L 463.384745 56.586981 
L 466.755396 54.627775 
L 470.126047 52.185199 
L 473.496698 50.086471 
L 476.867349 47.707502 
L 480.237999 54.21524 
L 483.60865 55.646859 
L 486.979301 55.574542 
L 490.349952 53.616602 
L 493.720602 55.572863 
L 497.091253 55.994893 
L 500.461904 60.140077 
L 503.832555 55.426603 
L 507.203206 59.471199 
L 510.573856 57.555557 
L 513.944507 65.243169 
L 517.315158 65.248577 
L 520.685809 70.206552 
L 524.056459 68.950127 
L 527.42711 73.682706 
L 530.797761 70.898976 
L 534.168412 70.079239 
L 537.539062 68.974321 
L 540.909713 69.814763 
L 544.280364 64.43078 
L 547.651015 67.406214 
L 551.021666 61.384946 
L 554.392316 60.468482 
L 557.762967 60.467654 
L 561.133618 59.259449 
L 564.504269 58.632117 
L 567.874919 59.847605 
L 571.24557 58.527712 
L 574.616221 63.29254 
L 577.986872 61.848237 
L 581.357523 60.846743 
L 584.728173 58.938074 
L 588.098824 59.70007 
L 591.469475 59.504106 
L 594.840126 59.948444 
L 598.210776 57.475821 
L 601.581427 60.462559 
L 604.952078 61.725313 
L 608.322729 59.355101 
L 611.69338 59.328565 
L 615.06403 61.715062 
L 618.434681 60.605202 
L 621.805332 60.726527 
L 625.175983 58.905577 
L 628.546633 59.27067 
L 631.917284 63.06895 
L 635.287935 63.013142 
L 635.287935 63.013142 
" style="fill:none;stroke:#008000;stroke-linecap:square;stroke-width:1.2;"/>
   </g>
   <g id="line2d_3">
    <path clip-path="url(#p9d5d490945)" d="M 112.837065 286.97143 
L 122.949017 271.524762 
L 126.319668 268.033852 
L 129.690319 269.633852 
L 133.06097 268.52616 
L 136.43162 265.076524 
L 139.802271 260.0923 
L 143.172922 256.775957 
L 146.543573 255.272203 
L 149.914224 247.644384 
L 153.284874 240.968271 
L 156.655525 237.740741 
L 160.026176 233.053374 
L 163.396827 226.911918 
L 166.767477 221.845454 
L 170.138128 213.181857 
L 173.508779 207.207817 
L 176.87943 203.872398 
L 180.250081 196.09791 
L 183.620731 187.347489 
L 186.991382 182.273302 
L 190.362033 177.567752 
L 193.732684 174.274359 
L 197.103334 171.18717 
L 200.473985 165.165229 
L 203.844636 163.339639 
L 207.215287 160.200573 
L 210.585938 158.871902 
L 217.327239 149.236554 
L 220.69789 145.33266 
L 224.068541 144.730155 
L 227.439191 141.083272 
L 230.809842 138.874248 
L 234.180493 132.905198 
L 237.551144 129.427853 
L 240.921794 128.088722 
L 244.292445 124.731496 
L 247.663096 119.131599 
L 251.033747 114.489163 
L 254.404398 111.69031 
L 257.775048 109.873781 
L 261.145699 105.60039 
L 264.51635 100.362827 
L 267.887001 94.796006 
L 271.257651 91.262499 
L 274.628302 89.475832 
L 277.998953 87.951641 
L 281.369604 82.019169 
L 284.740255 81.682152 
L 291.481556 77.407539 
L 294.852207 79.111003 
L 298.222858 73.88294 
L 301.593508 72.06227 
L 304.964159 72.957894 
L 308.33481 70.440643 
L 311.705461 68.635561 
L 315.076111 76.453101 
L 318.446762 72.92557 
L 321.817413 74.698081 
L 325.188064 75.454681 
L 328.558715 75.831357 
L 331.929365 78.830643 
L 335.300016 80.722572 
L 338.670667 72.558685 
L 342.041318 72.345847 
L 345.411968 71.057214 
L 348.782619 65.918947 
L 352.15327 65.894916 
L 355.523921 59.730629 
L 358.894572 57.377403 
L 362.265222 59.163458 
L 365.635873 61.841736 
L 369.006524 61.871315 
L 372.377175 64.883036 
L 375.747825 61.297506 
L 379.118476 62.710342 
L 382.489127 61.089799 
L 385.859778 61.053363 
L 389.230428 58.96195 
L 392.601079 57.999691 
L 395.97173 54.147126 
L 399.342381 51.381713 
L 402.713032 49.033357 
L 406.083682 52.905938 
L 409.454333 54.309983 
L 412.824984 49.890601 
L 416.195635 50.005286 
L 419.566285 49.132837 
L 422.936936 51.729077 
L 426.307587 53.413363 
L 429.678238 51.421626 
L 433.048889 47.876368 
L 436.419539 47.536812 
L 439.79019 45.685391 
L 443.160841 46.527895 
L 449.902142 51.517672 
L 453.272793 50.232753 
L 456.643444 49.490936 
L 460.014095 51.672023 
L 463.384745 53.05561 
L 470.126047 56.58608 
L 473.496698 54.391342 
L 476.867349 58.218926 
L 480.237999 60.551848 
L 483.60865 58.465681 
L 486.979301 59.989532 
L 493.720602 57.41082 
L 497.091253 61.520011 
L 500.461904 58.081633 
L 503.832555 58.076232 
L 507.203206 58.415506 
L 513.944507 66.909954 
L 520.685809 63.680706 
L 524.056459 63.557558 
L 527.42711 61.948429 
L 530.797761 62.404807 
L 534.168412 60.164778 
L 537.539062 57.245918 
L 540.909713 57.554015 
L 544.280364 56.713501 
L 547.651015 58.587035 
L 551.021666 59.066927 
L 554.392316 60.840937 
L 557.762967 53.139103 
L 561.133618 55.592425 
L 564.504269 58.395379 
L 567.874919 55.386293 
L 571.24557 52.740082 
L 574.616221 52.807248 
L 577.986872 49.420041 
L 581.357523 54.30319 
L 584.728173 53.280941 
L 588.098824 49.010599 
L 591.469475 51.843238 
L 594.840126 52.512712 
L 598.210776 51.264227 
L 601.581427 54.128628 
L 604.952078 54.484034 
L 608.322729 51.604826 
L 611.69338 53.879708 
L 615.06403 51.582019 
L 615.06403 51.582019 
" style="fill:none;stroke:#ff0000;stroke-linecap:square;stroke-width:1.2;"/>
   </g>
   <g id="line2d_4">
    <path clip-path="url(#p9d5d490945)" d="M 112.837065 297.257142 
L 116.207716 292.757142 
L 119.578367 287.157142 
L 122.949017 282.837142 
L 126.319668 286.109869 
L 129.690319 285.509869 
L 133.06097 281.632946 
L 139.802271 268.3634 
L 143.172922 264.702343 
L 146.543573 263.491974 
L 149.914224 257.875213 
L 153.284874 250.580239 
L 156.655525 247.083877 
L 160.026176 249.915157 
L 163.396827 251.449907 
L 166.767477 247.476643 
L 173.508779 237.113353 
L 176.87943 236.077439 
L 180.250081 232.83079 
L 186.991382 214.41878 
L 190.362033 210.214329 
L 197.103334 204.146664 
L 200.473985 197.628912 
L 203.844636 193.813383 
L 207.215287 188.93917 
L 213.956588 177.324427 
L 217.327239 169.304218 
L 220.69789 165.147106 
L 224.068541 158.217736 
L 227.439191 150.494994 
L 230.809842 143.660827 
L 234.180493 138.965331 
L 237.551144 133.060785 
L 240.921794 126.765137 
L 244.292445 118.274216 
L 247.663096 114.093945 
L 251.033747 111.663095 
L 254.404398 109.386347 
L 257.775048 104.526425 
L 264.51635 95.850779 
L 267.887001 93.202822 
L 271.257651 90.303505 
L 274.628302 84.968151 
L 277.998953 79.212905 
L 281.369604 76.52725 
L 284.740255 75.451185 
L 288.110905 72.035832 
L 291.481556 69.484525 
L 294.852207 68.806142 
L 298.222858 70.332141 
L 301.593508 69.279775 
L 304.964159 69.276123 
L 308.33481 66.401118 
L 311.705461 67.813833 
L 318.446762 62.7991 
L 321.817413 60.558097 
L 325.188064 59.702583 
L 328.558715 56.935388 
L 331.929365 55.653409 
L 335.300016 51.764146 
L 338.670667 51.647133 
L 342.041318 50.789289 
L 345.411968 48.007073 
L 348.782619 49.507418 
L 352.15327 48.566805 
L 355.523921 49.498605 
L 358.894572 51.170486 
L 362.265222 52.056898 
L 365.635873 50.677484 
L 369.006524 54.205977 
L 372.377175 54.75202 
L 375.747825 52.827806 
L 379.118476 51.79159 
L 382.489127 49.623983 
L 389.230428 48.574537 
L 392.601079 41.125965 
L 395.97173 42.293191 
L 399.342381 44.436682 
L 402.713032 49.963228 
L 406.083682 56.635478 
L 409.454333 57.033006 
L 412.824984 61.006735 
L 416.195635 68.997563 
L 419.566285 71.605592 
L 422.936936 73.510892 
L 426.307587 65.722251 
L 429.678238 61.621234 
L 436.419539 67.984687 
L 439.79019 66.06062 
L 443.160841 60.095622 
L 446.531492 57.77137 
L 449.902142 60.667456 
L 453.272793 62.440243 
L 456.643444 60.047692 
L 460.014095 55.744847 
L 463.384745 50.889787 
L 466.755396 51.658569 
L 470.126047 51.7422 
L 473.496698 50.871027 
L 476.867349 49.796471 
L 480.237999 49.377146 
L 483.60865 51.287323 
L 486.979301 56.487133 
L 490.349952 60.9201 
L 493.720602 63.472246 
L 497.091253 64.626186 
L 500.461904 65.397703 
L 503.832555 66.814669 
L 507.203206 67.455234 
L 510.573856 64.606626 
L 513.944507 60.090205 
L 517.315158 57.983894 
L 520.685809 59.872948 
L 524.056459 58.52489 
L 527.42711 55.487215 
L 530.797761 52.166598 
L 534.168412 54.717365 
L 537.539062 53.196378 
L 540.909713 50.981954 
L 544.280364 47.898031 
L 547.651015 48.003657 
L 551.021666 49.643383 
L 554.392316 51.110828 
L 557.762967 48.064172 
L 561.133618 48.407848 
L 564.504269 53.932917 
L 567.874919 54.212524 
L 571.24557 52.290129 
L 574.616221 52.309109 
L 577.986872 48.893592 
L 581.357523 57.634316 
L 584.728173 59.082506 
L 588.098824 57.635181 
L 591.469475 59.258621 
L 594.840126 62.761332 
L 598.210776 64.496171 
L 601.581427 70.608516 
L 604.952078 60.606047 
L 604.952078 60.606047 
" style="fill:none;stroke:#00bfbf;stroke-linecap:square;stroke-width:1.2;"/>
   </g>
   <g id="patch_3">
    <path d="M 112.5 324 
L 112.5 36 
" style="fill:none;stroke:#000000;stroke-linecap:square;stroke-linejoin:miter;"/>
   </g>
   <g id="patch_4">
    <path d="M 635.625 324 
L 635.625 36 
" style="fill:none;stroke:#000000;stroke-linecap:square;stroke-linejoin:miter;"/>
   </g>
   <g id="patch_5">
    <path d="M 112.5 324 
L 635.625 324 
" style="fill:none;stroke:#000000;stroke-linecap:square;stroke-linejoin:miter;"/>
   </g>
   <g id="patch_6">
    <path d="M 112.5 36 
L 635.625 36 
" style="fill:none;stroke:#000000;stroke-linecap:square;stroke-linejoin:miter;"/>
   </g>
   <g id="matplotlib.axis_1">
    <g id="xtick_1">
     <g id="line2d_5">
      <defs>
       <path d="M 0 0 
L 0 -4 
" id="m5379aae615" style="stroke:#000000;stroke-width:0.5;"/>
      </defs>
      <g>
       <use style="stroke:#000000;stroke-width:0.5;" x="112.837065" xlink:href="#m5379aae615" y="324"/>
      </g>
     </g>
     <g id="line2d_6">
      <defs>
       <path d="M 0 0 
L 0 4 
" id="m618e8b83e0" style="stroke:#000000;stroke-width:0.5;"/>
      </defs>
      <g>
       <use style="stroke:#000000;stroke-width:0.5;" x="112.837065" xlink:href="#m618e8b83e0" y="36"/>
      </g>
     </g>
     <g id="text_1">
      <!-- 0 -->
      <defs>
       <path d="M 31.78125 66.40625 
Q 24.171875 66.40625 20.328125 58.90625 
Q 16.5 51.421875 16.5 36.375 
Q 16.5 21.390625 20.328125 13.890625 
Q 24.171875 6.390625 31.78125 6.390625 
Q 39.453125 6.390625 43.28125 13.890625 
Q 47.125 21.390625 47.125 36.375 
Q 47.125 51.421875 43.28125 58.90625 
Q 39.453125 66.40625 31.78125 66.40625 
z
M 31.78125 74.21875 
Q 44.046875 74.21875 50.515625 64.515625 
Q 56.984375 54.828125 56.984375 36.375 
Q 56.984375 17.96875 50.515625 8.265625 
Q 44.046875 -1.421875 31.78125 -1.421875 
Q 19.53125 -1.421875 13.0625 8.265625 
Q 6.59375 17.96875 6.59375 36.375 
Q 6.59375 54.828125 13.0625 64.515625 
Q 19.53125 74.21875 31.78125 74.21875 
z
" id="DejaVuSans-48"/>
      </defs>
      <g transform="translate(109.019565 337.118125)scale(0.12 -0.12)">
       <use xlink:href="#DejaVuSans-48"/>
      </g>
     </g>
    </g>
    <g id="xtick_2">
     <g id="line2d_7">
      <g>
       <use style="stroke:#000000;stroke-width:0.5;" x="166.767477" xlink:href="#m5379aae615" y="324"/>
      </g>
     </g>
     <g id="line2d_8">
      <g>
       <use style="stroke:#000000;stroke-width:0.5;" x="166.767477" xlink:href="#m618e8b83e0" y="36"/>
      </g>
     </g>
     <g id="text_2">
      <!-- 16 -->
      <defs>
       <path d="M 12.40625 8.296875 
L 28.515625 8.296875 
L 28.515625 63.921875 
L 10.984375 60.40625 
L 10.984375 69.390625 
L 28.421875 72.90625 
L 38.28125 72.90625 
L 38.28125 8.296875 
L 54.390625 8.296875 
L 54.390625 0 
L 12.40625 0 
z
" id="DejaVuSans-49"/>
       <path d="M 33.015625 40.375 
Q 26.375 40.375 22.484375 35.828125 
Q 18.609375 31.296875 18.609375 23.390625 
Q 18.609375 15.53125 22.484375 10.953125 
Q 26.375 6.390625 33.015625 6.390625 
Q 39.65625 6.390625 43.53125 10.953125 
Q 47.40625 15.53125 47.40625 23.390625 
Q 47.40625 31.296875 43.53125 35.828125 
Q 39.65625 40.375 33.015625 40.375 
z
M 52.59375 71.296875 
L 52.59375 62.3125 
Q 48.875 64.0625 45.09375 64.984375 
Q 41.3125 65.921875 37.59375 65.921875 
Q 27.828125 65.921875 22.671875 59.328125 
Q 17.53125 52.734375 16.796875 39.40625 
Q 19.671875 43.65625 24.015625 45.921875 
Q 28.375 48.1875 33.59375 48.1875 
Q 44.578125 48.1875 50.953125 41.515625 
Q 57.328125 34.859375 57.328125 23.390625 
Q 57.328125 12.15625 50.6875 5.359375 
Q 44.046875 -1.421875 33.015625 -1.421875 
Q 20.359375 -1.421875 13.671875 8.265625 
Q 6.984375 17.96875 6.984375 36.375 
Q 6.984375 53.65625 15.1875 63.9375 
Q 23.390625 74.21875 37.203125 74.21875 
Q 40.921875 74.21875 44.703125 73.484375 
Q 48.484375 72.75 52.59375 71.296875 
z
" id="DejaVuSans-54"/>
      </defs>
      <g transform="translate(159.132477 337.118125)scale(0.12 -0.12)">
       <use xlink:href="#DejaVuSans-49"/>
       <use x="63.623047" xlink:href="#DejaVuSans-54"/>
      </g>
     </g>
    </g>
    <g id="xtick_3">
     <g id="line2d_9">
      <g>
       <use style="stroke:#000000;stroke-width:0.5;" x="220.69789" xlink:href="#m5379aae615" y="324"/>
      </g>
     </g>
     <g id="line2d_10">
      <g>
       <use style="stroke:#000000;stroke-width:0.5;" x="220.69789" xlink:href="#m618e8b83e0" y="36"/>
      </g>
     </g>
     <g id="text_3">
      <!-- 32 -->
      <defs>
       <path d="M 40.578125 39.3125 
Q 47.65625 37.796875 51.625 33 
Q 55.609375 28.21875 55.609375 21.1875 
Q 55.609375 10.40625 48.1875 4.484375 
Q 40.765625 -1.421875 27.09375 -1.421875 
Q 22.515625 -1.421875 17.65625 -0.515625 
Q 12.796875 0.390625 7.625 2.203125 
L 7.625 11.71875 
Q 11.71875 9.328125 16.59375 8.109375 
Q 21.484375 6.890625 26.8125 6.890625 
Q 36.078125 6.890625 40.9375 10.546875 
Q 45.796875 14.203125 45.796875 21.1875 
Q 45.796875 27.640625 41.28125 31.265625 
Q 36.765625 34.90625 28.71875 34.90625 
L 20.21875 34.90625 
L 20.21875 43.015625 
L 29.109375 43.015625 
Q 36.375 43.015625 40.234375 45.921875 
Q 44.09375 48.828125 44.09375 54.296875 
Q 44.09375 59.90625 40.109375 62.90625 
Q 36.140625 65.921875 28.71875 65.921875 
Q 24.65625 65.921875 20.015625 65.03125 
Q 15.375 64.15625 9.8125 62.3125 
L 9.8125 71.09375 
Q 15.4375 72.65625 20.34375 73.4375 
Q 25.25 74.21875 29.59375 74.21875 
Q 40.828125 74.21875 47.359375 69.109375 
Q 53.90625 64.015625 53.90625 55.328125 
Q 53.90625 49.265625 50.4375 45.09375 
Q 46.96875 40.921875 40.578125 39.3125 
z
" id="DejaVuSans-51"/>
       <path d="M 19.1875 8.296875 
L 53.609375 8.296875 
L 53.609375 0 
L 7.328125 0 
L 7.328125 8.296875 
Q 12.9375 14.109375 22.625 23.890625 
Q 32.328125 33.6875 34.8125 36.53125 
Q 39.546875 41.84375 41.421875 45.53125 
Q 43.3125 49.21875 43.3125 52.78125 
Q 43.3125 58.59375 39.234375 62.25 
Q 35.15625 65.921875 28.609375 65.921875 
Q 23.96875 65.921875 18.8125 64.3125 
Q 13.671875 62.703125 7.8125 59.421875 
L 7.8125 69.390625 
Q 13.765625 71.78125 18.9375 73 
Q 24.125 74.21875 28.421875 74.21875 
Q 39.75 74.21875 46.484375 68.546875 
Q 53.21875 62.890625 53.21875 53.421875 
Q 53.21875 48.921875 51.53125 44.890625 
Q 49.859375 40.875 45.40625 35.40625 
Q 44.1875 33.984375 37.640625 27.21875 
Q 31.109375 20.453125 19.1875 8.296875 
z
" id="DejaVuSans-50"/>
      </defs>
      <g transform="translate(213.06289 337.118125)scale(0.12 -0.12)">
       <use xlink:href="#DejaVuSans-51"/>
       <use x="63.623047" xlink:href="#DejaVuSans-50"/>
      </g>
     </g>
    </g>
    <g id="xtick_4">
     <g id="line2d_11">
      <g>
       <use style="stroke:#000000;stroke-width:0.5;" x="274.628302" xlink:href="#m5379aae615" y="324"/>
      </g>
     </g>
     <g id="line2d_12">
      <g>
       <use style="stroke:#000000;stroke-width:0.5;" x="274.628302" xlink:href="#m618e8b83e0" y="36"/>
      </g>
     </g>
     <g id="text_4">
      <!-- 48 -->
      <defs>
       <path d="M 37.796875 64.3125 
L 12.890625 25.390625 
L 37.796875 25.390625 
z
M 35.203125 72.90625 
L 47.609375 72.90625 
L 47.609375 25.390625 
L 58.015625 25.390625 
L 58.015625 17.1875 
L 47.609375 17.1875 
L 47.609375 0 
L 37.796875 0 
L 37.796875 17.1875 
L 4.890625 17.1875 
L 4.890625 26.703125 
z
" id="DejaVuSans-52"/>
       <path d="M 31.78125 34.625 
Q 24.75 34.625 20.71875 30.859375 
Q 16.703125 27.09375 16.703125 20.515625 
Q 16.703125 13.921875 20.71875 10.15625 
Q 24.75 6.390625 31.78125 6.390625 
Q 38.8125 6.390625 42.859375 10.171875 
Q 46.921875 13.96875 46.921875 20.515625 
Q 46.921875 27.09375 42.890625 30.859375 
Q 38.875 34.625 31.78125 34.625 
z
M 21.921875 38.8125 
Q 15.578125 40.375 12.03125 44.71875 
Q 8.5 49.078125 8.5 55.328125 
Q 8.5 64.0625 14.71875 69.140625 
Q 20.953125 74.21875 31.78125 74.21875 
Q 42.671875 74.21875 48.875 69.140625 
Q 55.078125 64.0625 55.078125 55.328125 
Q 55.078125 49.078125 51.53125 44.71875 
Q 48 40.375 41.703125 38.8125 
Q 48.828125 37.15625 52.796875 32.3125 
Q 56.78125 27.484375 56.78125 20.515625 
Q 56.78125 9.90625 50.3125 4.234375 
Q 43.84375 -1.421875 31.78125 -1.421875 
Q 19.734375 -1.421875 13.25 4.234375 
Q 6.78125 9.90625 6.78125 20.515625 
Q 6.78125 27.484375 10.78125 32.3125 
Q 14.796875 37.15625 21.921875 38.8125 
z
M 18.3125 54.390625 
Q 18.3125 48.734375 21.84375 45.5625 
Q 25.390625 42.390625 31.78125 42.390625 
Q 38.140625 42.390625 41.71875 45.5625 
Q 45.3125 48.734375 45.3125 54.390625 
Q 45.3125 60.0625 41.71875 63.234375 
Q 38.140625 66.40625 31.78125 66.40625 
Q 25.390625 66.40625 21.84375 63.234375 
Q 18.3125 60.0625 18.3125 54.390625 
z
" id="DejaVuSans-56"/>
      </defs>
      <g transform="translate(266.993302 337.118125)scale(0.12 -0.12)">
       <use xlink:href="#DejaVuSans-52"/>
       <use x="63.623047" xlink:href="#DejaVuSans-56"/>
      </g>
     </g>
    </g>
    <g id="xtick_5">
     <g id="line2d_13">
      <g>
       <use style="stroke:#000000;stroke-width:0.5;" x="328.558715" xlink:href="#m5379aae615" y="324"/>
      </g>
     </g>
     <g id="line2d_14">
      <g>
       <use style="stroke:#000000;stroke-width:0.5;" x="328.558715" xlink:href="#m618e8b83e0" y="36"/>
      </g>
     </g>
     <g id="text_5">
      <!-- 64 -->
      <g transform="translate(320.923715 337.118125)scale(0.12 -0.12)">
       <use xlink:href="#DejaVuSans-54"/>
       <use x="63.623047" xlink:href="#DejaVuSans-52"/>
      </g>
     </g>
    </g>
    <g id="xtick_6">
     <g id="line2d_15">
      <g>
       <use style="stroke:#000000;stroke-width:0.5;" x="382.489127" xlink:href="#m5379aae615" y="324"/>
      </g>
     </g>
     <g id="line2d_16">
      <g>
       <use style="stroke:#000000;stroke-width:0.5;" x="382.489127" xlink:href="#m618e8b83e0" y="36"/>
      </g>
     </g>
     <g id="text_6">
      <!-- 80 -->
      <g transform="translate(374.854127 337.118125)scale(0.12 -0.12)">
       <use xlink:href="#DejaVuSans-56"/>
       <use x="63.623047" xlink:href="#DejaVuSans-48"/>
      </g>
     </g>
    </g>
    <g id="xtick_7">
     <g id="line2d_17">
      <g>
       <use style="stroke:#000000;stroke-width:0.5;" x="436.419539" xlink:href="#m5379aae615" y="324"/>
      </g>
     </g>
     <g id="line2d_18">
      <g>
       <use style="stroke:#000000;stroke-width:0.5;" x="436.419539" xlink:href="#m618e8b83e0" y="36"/>
      </g>
     </g>
     <g id="text_7">
      <!-- 96 -->
      <defs>
       <path d="M 10.984375 1.515625 
L 10.984375 10.5 
Q 14.703125 8.734375 18.5 7.8125 
Q 22.3125 6.890625 25.984375 6.890625 
Q 35.75 6.890625 40.890625 13.453125 
Q 46.046875 20.015625 46.78125 33.40625 
Q 43.953125 29.203125 39.59375 26.953125 
Q 35.25 24.703125 29.984375 24.703125 
Q 19.046875 24.703125 12.671875 31.3125 
Q 6.296875 37.9375 6.296875 49.421875 
Q 6.296875 60.640625 12.9375 67.421875 
Q 19.578125 74.21875 30.609375 74.21875 
Q 43.265625 74.21875 49.921875 64.515625 
Q 56.59375 54.828125 56.59375 36.375 
Q 56.59375 19.140625 48.40625 8.859375 
Q 40.234375 -1.421875 26.421875 -1.421875 
Q 22.703125 -1.421875 18.890625 -0.6875 
Q 15.09375 0.046875 10.984375 1.515625 
z
M 30.609375 32.421875 
Q 37.25 32.421875 41.125 36.953125 
Q 45.015625 41.5 45.015625 49.421875 
Q 45.015625 57.28125 41.125 61.84375 
Q 37.25 66.40625 30.609375 66.40625 
Q 23.96875 66.40625 20.09375 61.84375 
Q 16.21875 57.28125 16.21875 49.421875 
Q 16.21875 41.5 20.09375 36.953125 
Q 23.96875 32.421875 30.609375 32.421875 
z
" id="DejaVuSans-57"/>
      </defs>
      <g transform="translate(428.784539 337.118125)scale(0.12 -0.12)">
       <use xlink:href="#DejaVuSans-57"/>
       <use x="63.623047" xlink:href="#DejaVuSans-54"/>
      </g>
     </g>
    </g>
    <g id="xtick_8">
     <g id="line2d_19">
      <g>
       <use style="stroke:#000000;stroke-width:0.5;" x="490.349952" xlink:href="#m5379aae615" y="324"/>
      </g>
     </g>
     <g id="line2d_20">
      <g>
       <use style="stroke:#000000;stroke-width:0.5;" x="490.349952" xlink:href="#m618e8b83e0" y="36"/>
      </g>
     </g>
     <g id="text_8">
      <!-- 112 -->
      <g transform="translate(478.897452 337.118125)scale(0.12 -0.12)">
       <use xlink:href="#DejaVuSans-49"/>
       <use x="63.623047" xlink:href="#DejaVuSans-49"/>
       <use x="127.246094" xlink:href="#DejaVuSans-50"/>
      </g>
     </g>
    </g>
    <g id="xtick_9">
     <g id="line2d_21">
      <g>
       <use style="stroke:#000000;stroke-width:0.5;" x="544.280364" xlink:href="#m5379aae615" y="324"/>
      </g>
     </g>
     <g id="line2d_22">
      <g>
       <use style="stroke:#000000;stroke-width:0.5;" x="544.280364" xlink:href="#m618e8b83e0" y="36"/>
      </g>
     </g>
     <g id="text_9">
      <!-- 128 -->
      <g transform="translate(532.827864 337.118125)scale(0.12 -0.12)">
       <use xlink:href="#DejaVuSans-49"/>
       <use x="63.623047" xlink:href="#DejaVuSans-50"/>
       <use x="127.246094" xlink:href="#DejaVuSans-56"/>
      </g>
     </g>
    </g>
    <g id="xtick_10">
     <g id="line2d_23">
      <g>
       <use style="stroke:#000000;stroke-width:0.5;" x="598.210776" xlink:href="#m5379aae615" y="324"/>
      </g>
     </g>
     <g id="line2d_24">
      <g>
       <use style="stroke:#000000;stroke-width:0.5;" x="598.210776" xlink:href="#m618e8b83e0" y="36"/>
      </g>
     </g>
     <g id="text_10">
      <!-- 144 -->
      <g transform="translate(586.758276 337.118125)scale(0.12 -0.12)">
       <use xlink:href="#DejaVuSans-49"/>
       <use x="63.623047" xlink:href="#DejaVuSans-52"/>
       <use x="127.246094" xlink:href="#DejaVuSans-52"/>
      </g>
     </g>
    </g>
    <g id="text_11">
     <!-- generation -->
     <defs>
      <path d="M 45.40625 27.984375 
Q 45.40625 37.75 41.375 43.109375 
Q 37.359375 48.484375 30.078125 48.484375 
Q 22.859375 48.484375 18.828125 43.109375 
Q 14.796875 37.75 14.796875 27.984375 
Q 14.796875 18.265625 18.828125 12.890625 
Q 22.859375 7.515625 30.078125 7.515625 
Q 37.359375 7.515625 41.375 12.890625 
Q 45.40625 18.265625 45.40625 27.984375 
z
M 54.390625 6.78125 
Q 54.390625 -7.171875 48.1875 -13.984375 
Q 42 -20.796875 29.203125 -20.796875 
Q 24.46875 -20.796875 20.265625 -20.09375 
Q 16.0625 -19.390625 12.109375 -17.921875 
L 12.109375 -9.1875 
Q 16.0625 -11.328125 19.921875 -12.34375 
Q 23.78125 -13.375 27.78125 -13.375 
Q 36.625 -13.375 41.015625 -8.765625 
Q 45.40625 -4.15625 45.40625 5.171875 
L 45.40625 9.625 
Q 42.625 4.78125 38.28125 2.390625 
Q 33.9375 0 27.875 0 
Q 17.828125 0 11.671875 7.65625 
Q 5.515625 15.328125 5.515625 27.984375 
Q 5.515625 40.671875 11.671875 48.328125 
Q 17.828125 56 27.875 56 
Q 33.9375 56 38.28125 53.609375 
Q 42.625 51.21875 45.40625 46.390625 
L 45.40625 54.6875 
L 54.390625 54.6875 
z
" id="DejaVuSans-103"/>
      <path d="M 56.203125 29.59375 
L 56.203125 25.203125 
L 14.890625 25.203125 
Q 15.484375 15.921875 20.484375 11.0625 
Q 25.484375 6.203125 34.421875 6.203125 
Q 39.59375 6.203125 44.453125 7.46875 
Q 49.3125 8.734375 54.109375 11.28125 
L 54.109375 2.78125 
Q 49.265625 0.734375 44.1875 -0.34375 
Q 39.109375 -1.421875 33.890625 -1.421875 
Q 20.796875 -1.421875 13.15625 6.1875 
Q 5.515625 13.8125 5.515625 26.8125 
Q 5.515625 40.234375 12.765625 48.109375 
Q 20.015625 56 32.328125 56 
Q 43.359375 56 49.78125 48.890625 
Q 56.203125 41.796875 56.203125 29.59375 
z
M 47.21875 32.234375 
Q 47.125 39.59375 43.09375 43.984375 
Q 39.0625 48.390625 32.421875 48.390625 
Q 24.90625 48.390625 20.390625 44.140625 
Q 15.875 39.890625 15.1875 32.171875 
z
" id="DejaVuSans-101"/>
      <path d="M 54.890625 33.015625 
L 54.890625 0 
L 45.90625 0 
L 45.90625 32.71875 
Q 45.90625 40.484375 42.875 44.328125 
Q 39.84375 48.1875 33.796875 48.1875 
Q 26.515625 48.1875 22.3125 43.546875 
Q 18.109375 38.921875 18.109375 30.90625 
L 18.109375 0 
L 9.078125 0 
L 9.078125 54.6875 
L 18.109375 54.6875 
L 18.109375 46.1875 
Q 21.34375 51.125 25.703125 53.5625 
Q 30.078125 56 35.796875 56 
Q 45.21875 56 50.046875 50.171875 
Q 54.890625 44.34375 54.890625 33.015625 
z
" id="DejaVuSans-110"/>
      <path d="M 41.109375 46.296875 
Q 39.59375 47.171875 37.8125 47.578125 
Q 36.03125 48 33.890625 48 
Q 26.265625 48 22.1875 43.046875 
Q 18.109375 38.09375 18.109375 28.8125 
L 18.109375 0 
L 9.078125 0 
L 9.078125 54.6875 
L 18.109375 54.6875 
L 18.109375 46.1875 
Q 20.953125 51.171875 25.484375 53.578125 
Q 30.03125 56 36.53125 56 
Q 37.453125 56 38.578125 55.875 
Q 39.703125 55.765625 41.0625 55.515625 
z
" id="DejaVuSans-114"/>
      <path d="M 34.28125 27.484375 
Q 23.390625 27.484375 19.1875 25 
Q 14.984375 22.515625 14.984375 16.5 
Q 14.984375 11.71875 18.140625 8.90625 
Q 21.296875 6.109375 26.703125 6.109375 
Q 34.1875 6.109375 38.703125 11.40625 
Q 43.21875 16.703125 43.21875 25.484375 
L 43.21875 27.484375 
z
M 52.203125 31.203125 
L 52.203125 0 
L 43.21875 0 
L 43.21875 8.296875 
Q 40.140625 3.328125 35.546875 0.953125 
Q 30.953125 -1.421875 24.3125 -1.421875 
Q 15.921875 -1.421875 10.953125 3.296875 
Q 6 8.015625 6 15.921875 
Q 6 25.140625 12.171875 29.828125 
Q 18.359375 34.515625 30.609375 34.515625 
L 43.21875 34.515625 
L 43.21875 35.40625 
Q 43.21875 41.609375 39.140625 45 
Q 35.0625 48.390625 27.6875 48.390625 
Q 23 48.390625 18.546875 47.265625 
Q 14.109375 46.140625 10.015625 43.890625 
L 10.015625 52.203125 
Q 14.9375 54.109375 19.578125 55.046875 
Q 24.21875 56 28.609375 56 
Q 40.484375 56 46.34375 49.84375 
Q 52.203125 43.703125 52.203125 31.203125 
z
" id="DejaVuSans-97"/>
      <path d="M 18.3125 70.21875 
L 18.3125 54.6875 
L 36.8125 54.6875 
L 36.8125 47.703125 
L 18.3125 47.703125 
L 18.3125 18.015625 
Q 18.3125 11.328125 20.140625 9.421875 
Q 21.96875 7.515625 27.59375 7.515625 
L 36.8125 7.515625 
L 36.8125 0 
L 27.59375 0 
Q 17.1875 0 13.234375 3.875 
Q 9.28125 7.765625 9.28125 18.015625 
L 9.28125 47.703125 
L 2.6875 47.703125 
L 2.6875 54.6875 
L 9.28125 54.6875 
L 9.28125 70.21875 
z
" id="DejaVuSans-116"/>
      <path d="M 9.421875 54.6875 
L 18.40625 54.6875 
L 18.40625 0 
L 9.421875 0 
z
M 9.421875 75.984375 
L 18.40625 75.984375 
L 18.40625 64.59375 
L 9.421875 64.59375 
z
" id="DejaVuSans-105"/>
      <path d="M 30.609375 48.390625 
Q 23.390625 48.390625 19.1875 42.75 
Q 14.984375 37.109375 14.984375 27.296875 
Q 14.984375 17.484375 19.15625 11.84375 
Q 23.34375 6.203125 30.609375 6.203125 
Q 37.796875 6.203125 41.984375 11.859375 
Q 46.1875 17.53125 46.1875 27.296875 
Q 46.1875 37.015625 41.984375 42.703125 
Q 37.796875 48.390625 30.609375 48.390625 
z
M 30.609375 56 
Q 42.328125 56 49.015625 48.375 
Q 55.71875 40.765625 55.71875 27.296875 
Q 55.71875 13.875 49.015625 6.21875 
Q 42.328125 -1.421875 30.609375 -1.421875 
Q 18.84375 -1.421875 12.171875 6.21875 
Q 5.515625 13.875 5.515625 27.296875 
Q 5.515625 40.765625 12.171875 48.375 
Q 18.84375 56 30.609375 56 
z
" id="DejaVuSans-111"/>
     </defs>
     <g transform="translate(341.430938 353.731875)scale(0.12 -0.12)">
      <use xlink:href="#DejaVuSans-103"/>
      <use x="63.476562" xlink:href="#DejaVuSans-101"/>
      <use x="125" xlink:href="#DejaVuSans-110"/>
      <use x="188.378906" xlink:href="#DejaVuSans-101"/>
      <use x="249.902344" xlink:href="#DejaVuSans-114"/>
      <use x="291.015625" xlink:href="#DejaVuSans-97"/>
      <use x="352.294922" xlink:href="#DejaVuSans-116"/>
      <use x="391.503906" xlink:href="#DejaVuSans-105"/>
      <use x="419.287109" xlink:href="#DejaVuSans-111"/>
      <use x="480.46875" xlink:href="#DejaVuSans-110"/>
     </g>
    </g>
   </g>
   <g id="matplotlib.axis_2">
    <g id="ytick_1">
     <g id="line2d_25">
      <defs>
       <path d="M 0 0 
L 4 0 
" id="mb40eac2fd5" style="stroke:#000000;stroke-width:0.5;"/>
      </defs>
      <g>
       <use style="stroke:#000000;stroke-width:0.5;" x="112.5" xlink:href="#mb40eac2fd5" y="324"/>
      </g>
     </g>
     <g id="line2d_26">
      <defs>
       <path d="M 0 0 
L -4 0 
" id="mc281bd88b3" style="stroke:#000000;stroke-width:0.5;"/>
      </defs>
      <g>
       <use style="stroke:#000000;stroke-width:0.5;" x="635.625" xlink:href="#mc281bd88b3" y="324"/>
      </g>
     </g>
     <g id="text_12">
      <!-- 0.905 -->
      <defs>
       <path d="M 10.6875 12.40625 
L 21 12.40625 
L 21 0 
L 10.6875 0 
z
" id="DejaVuSans-46"/>
       <path d="M 10.796875 72.90625 
L 49.515625 72.90625 
L 49.515625 64.59375 
L 19.828125 64.59375 
L 19.828125 46.734375 
Q 21.96875 47.46875 24.109375 47.828125 
Q 26.265625 48.1875 28.421875 48.1875 
Q 40.625 48.1875 47.75 41.5 
Q 54.890625 34.8125 54.890625 23.390625 
Q 54.890625 11.625 47.5625 5.09375 
Q 40.234375 -1.421875 26.90625 -1.421875 
Q 22.3125 -1.421875 17.546875 -0.640625 
Q 12.796875 0.140625 7.71875 1.703125 
L 7.71875 11.625 
Q 12.109375 9.234375 16.796875 8.0625 
Q 21.484375 6.890625 26.703125 6.890625 
Q 35.15625 6.890625 40.078125 11.328125 
Q 45.015625 15.765625 45.015625 23.390625 
Q 45.015625 31 40.078125 35.4375 
Q 35.15625 39.890625 26.703125 39.890625 
Q 22.75 39.890625 18.8125 39.015625 
Q 14.890625 38.140625 10.796875 36.28125 
z
" id="DejaVuSans-53"/>
      </defs>
      <g transform="translate(74.14625 327.31125)scale(0.12 -0.12)">
       <use xlink:href="#DejaVuSans-48"/>
       <use x="63.623047" xlink:href="#DejaVuSans-46"/>
       <use x="95.410156" xlink:href="#DejaVuSans-57"/>
       <use x="159.033203" xlink:href="#DejaVuSans-48"/>
       <use x="222.65625" xlink:href="#DejaVuSans-53"/>
      </g>
     </g>
    </g>
    <g id="ytick_2">
     <g id="line2d_27">
      <g>
       <use style="stroke:#000000;stroke-width:0.5;" x="112.5" xlink:href="#mb40eac2fd5" y="288"/>
      </g>
     </g>
     <g id="line2d_28">
      <g>
       <use style="stroke:#000000;stroke-width:0.5;" x="635.625" xlink:href="#mc281bd88b3" y="288"/>
      </g>
     </g>
     <g id="text_13">
      <!-- 0.910 -->
      <g transform="translate(74.14625 291.31125)scale(0.12 -0.12)">
       <use xlink:href="#DejaVuSans-48"/>
       <use x="63.623047" xlink:href="#DejaVuSans-46"/>
       <use x="95.410156" xlink:href="#DejaVuSans-57"/>
       <use x="159.033203" xlink:href="#DejaVuSans-49"/>
       <use x="222.65625" xlink:href="#DejaVuSans-48"/>
      </g>
     </g>
    </g>
    <g id="ytick_3">
     <g id="line2d_29">
      <g>
       <use style="stroke:#000000;stroke-width:0.5;" x="112.5" xlink:href="#mb40eac2fd5" y="252"/>
      </g>
     </g>
     <g id="line2d_30">
      <g>
       <use style="stroke:#000000;stroke-width:0.5;" x="635.625" xlink:href="#mc281bd88b3" y="252"/>
      </g>
     </g>
     <g id="text_14">
      <!-- 0.915 -->
      <g transform="translate(74.14625 255.31125)scale(0.12 -0.12)">
       <use xlink:href="#DejaVuSans-48"/>
       <use x="63.623047" xlink:href="#DejaVuSans-46"/>
       <use x="95.410156" xlink:href="#DejaVuSans-57"/>
       <use x="159.033203" xlink:href="#DejaVuSans-49"/>
       <use x="222.65625" xlink:href="#DejaVuSans-53"/>
      </g>
     </g>
    </g>
    <g id="ytick_4">
     <g id="line2d_31">
      <g>
       <use style="stroke:#000000;stroke-width:0.5;" x="112.5" xlink:href="#mb40eac2fd5" y="216"/>
      </g>
     </g>
     <g id="line2d_32">
      <g>
       <use style="stroke:#000000;stroke-width:0.5;" x="635.625" xlink:href="#mc281bd88b3" y="216"/>
      </g>
     </g>
     <g id="text_15">
      <!-- 0.920 -->
      <g transform="translate(74.14625 219.31125)scale(0.12 -0.12)">
       <use xlink:href="#DejaVuSans-48"/>
       <use x="63.623047" xlink:href="#DejaVuSans-46"/>
       <use x="95.410156" xlink:href="#DejaVuSans-57"/>
       <use x="159.033203" xlink:href="#DejaVuSans-50"/>
       <use x="222.65625" xlink:href="#DejaVuSans-48"/>
      </g>
     </g>
    </g>
    <g id="ytick_5">
     <g id="line2d_33">
      <g>
       <use style="stroke:#000000;stroke-width:0.5;" x="112.5" xlink:href="#mb40eac2fd5" y="180"/>
      </g>
     </g>
     <g id="line2d_34">
      <g>
       <use style="stroke:#000000;stroke-width:0.5;" x="635.625" xlink:href="#mc281bd88b3" y="180"/>
      </g>
     </g>
     <g id="text_16">
      <!-- 0.925 -->
      <g transform="translate(74.14625 183.31125)scale(0.12 -0.12)">
       <use xlink:href="#DejaVuSans-48"/>
       <use x="63.623047" xlink:href="#DejaVuSans-46"/>
       <use x="95.410156" xlink:href="#DejaVuSans-57"/>
       <use x="159.033203" xlink:href="#DejaVuSans-50"/>
       <use x="222.65625" xlink:href="#DejaVuSans-53"/>
      </g>
     </g>
    </g>
    <g id="ytick_6">
     <g id="line2d_35">
      <g>
       <use style="stroke:#000000;stroke-width:0.5;" x="112.5" xlink:href="#mb40eac2fd5" y="144"/>
      </g>
     </g>
     <g id="line2d_36">
      <g>
       <use style="stroke:#000000;stroke-width:0.5;" x="635.625" xlink:href="#mc281bd88b3" y="144"/>
      </g>
     </g>
     <g id="text_17">
      <!-- 0.930 -->
      <g transform="translate(74.14625 147.31125)scale(0.12 -0.12)">
       <use xlink:href="#DejaVuSans-48"/>
       <use x="63.623047" xlink:href="#DejaVuSans-46"/>
       <use x="95.410156" xlink:href="#DejaVuSans-57"/>
       <use x="159.033203" xlink:href="#DejaVuSans-51"/>
       <use x="222.65625" xlink:href="#DejaVuSans-48"/>
      </g>
     </g>
    </g>
    <g id="ytick_7">
     <g id="line2d_37">
      <g>
       <use style="stroke:#000000;stroke-width:0.5;" x="112.5" xlink:href="#mb40eac2fd5" y="108"/>
      </g>
     </g>
     <g id="line2d_38">
      <g>
       <use style="stroke:#000000;stroke-width:0.5;" x="635.625" xlink:href="#mc281bd88b3" y="108"/>
      </g>
     </g>
     <g id="text_18">
      <!-- 0.935 -->
      <g transform="translate(74.14625 111.31125)scale(0.12 -0.12)">
       <use xlink:href="#DejaVuSans-48"/>
       <use x="63.623047" xlink:href="#DejaVuSans-46"/>
       <use x="95.410156" xlink:href="#DejaVuSans-57"/>
       <use x="159.033203" xlink:href="#DejaVuSans-51"/>
       <use x="222.65625" xlink:href="#DejaVuSans-53"/>
      </g>
     </g>
    </g>
    <g id="ytick_8">
     <g id="line2d_39">
      <g>
       <use style="stroke:#000000;stroke-width:0.5;" x="112.5" xlink:href="#mb40eac2fd5" y="72"/>
      </g>
     </g>
     <g id="line2d_40">
      <g>
       <use style="stroke:#000000;stroke-width:0.5;" x="635.625" xlink:href="#mc281bd88b3" y="72"/>
      </g>
     </g>
     <g id="text_19">
      <!-- 0.940 -->
      <g transform="translate(74.14625 75.31125)scale(0.12 -0.12)">
       <use xlink:href="#DejaVuSans-48"/>
       <use x="63.623047" xlink:href="#DejaVuSans-46"/>
       <use x="95.410156" xlink:href="#DejaVuSans-57"/>
       <use x="159.033203" xlink:href="#DejaVuSans-52"/>
       <use x="222.65625" xlink:href="#DejaVuSans-48"/>
      </g>
     </g>
    </g>
    <g id="ytick_9">
     <g id="line2d_41">
      <g>
       <use style="stroke:#000000;stroke-width:0.5;" x="112.5" xlink:href="#mb40eac2fd5" y="36"/>
      </g>
     </g>
     <g id="line2d_42">
      <g>
       <use style="stroke:#000000;stroke-width:0.5;" x="635.625" xlink:href="#mc281bd88b3" y="36"/>
      </g>
     </g>
     <g id="text_20">
      <!-- 0.945 -->
      <g transform="translate(74.14625 39.31125)scale(0.12 -0.12)">
       <use xlink:href="#DejaVuSans-48"/>
       <use x="63.623047" xlink:href="#DejaVuSans-46"/>
       <use x="95.410156" xlink:href="#DejaVuSans-57"/>
       <use x="159.033203" xlink:href="#DejaVuSans-52"/>
       <use x="222.65625" xlink:href="#DejaVuSans-53"/>
      </g>
     </g>
    </g>
    <g id="text_21">
     <!-- accuracy -->
     <defs>
      <path d="M 48.78125 52.59375 
L 48.78125 44.1875 
Q 44.96875 46.296875 41.140625 47.34375 
Q 37.3125 48.390625 33.40625 48.390625 
Q 24.65625 48.390625 19.8125 42.84375 
Q 14.984375 37.3125 14.984375 27.296875 
Q 14.984375 17.28125 19.8125 11.734375 
Q 24.65625 6.203125 33.40625 6.203125 
Q 37.3125 6.203125 41.140625 7.25 
Q 44.96875 8.296875 48.78125 10.40625 
L 48.78125 2.09375 
Q 45.015625 0.34375 40.984375 -0.53125 
Q 36.96875 -1.421875 32.421875 -1.421875 
Q 20.0625 -1.421875 12.78125 6.34375 
Q 5.515625 14.109375 5.515625 27.296875 
Q 5.515625 40.671875 12.859375 48.328125 
Q 20.21875 56 33.015625 56 
Q 37.15625 56 41.109375 55.140625 
Q 45.0625 54.296875 48.78125 52.59375 
z
" id="DejaVuSans-99"/>
      <path d="M 8.5 21.578125 
L 8.5 54.6875 
L 17.484375 54.6875 
L 17.484375 21.921875 
Q 17.484375 14.15625 20.5 10.265625 
Q 23.53125 6.390625 29.59375 6.390625 
Q 36.859375 6.390625 41.078125 11.03125 
Q 45.3125 15.671875 45.3125 23.6875 
L 45.3125 54.6875 
L 54.296875 54.6875 
L 54.296875 0 
L 45.3125 0 
L 45.3125 8.40625 
Q 42.046875 3.421875 37.71875 1 
Q 33.40625 -1.421875 27.6875 -1.421875 
Q 18.265625 -1.421875 13.375 4.4375 
Q 8.5 10.296875 8.5 21.578125 
z
M 31.109375 56 
z
" id="DejaVuSans-117"/>
      <path d="M 32.171875 -5.078125 
Q 28.375 -14.84375 24.75 -17.8125 
Q 21.140625 -20.796875 15.09375 -20.796875 
L 7.90625 -20.796875 
L 7.90625 -13.28125 
L 13.1875 -13.28125 
Q 16.890625 -13.28125 18.9375 -11.515625 
Q 21 -9.765625 23.484375 -3.21875 
L 25.09375 0.875 
L 2.984375 54.6875 
L 12.5 54.6875 
L 29.59375 11.921875 
L 46.6875 54.6875 
L 56.203125 54.6875 
z
" id="DejaVuSans-121"/>
     </defs>
     <g transform="translate(66.650625 207.07125)rotate(-90)scale(0.12 -0.12)">
      <use xlink:href="#DejaVuSans-97"/>
      <use x="61.279297" xlink:href="#DejaVuSans-99"/>
      <use x="116.259766" xlink:href="#DejaVuSans-99"/>
      <use x="171.240234" xlink:href="#DejaVuSans-117"/>
      <use x="234.619141" xlink:href="#DejaVuSans-114"/>
      <use x="275.732422" xlink:href="#DejaVuSans-97"/>
      <use x="337.011719" xlink:href="#DejaVuSans-99"/>
      <use x="391.992188" xlink:href="#DejaVuSans-121"/>
     </g>
    </g>
   </g>
   <g id="legend_1">
    <g id="patch_7">
     <path d="M 640.623 211.399935 
L 774.197674 211.399935 
L 774.197674 148.600065 
L 640.623 148.600065 
z
" style="fill:#ffffff;stroke:#000000;stroke-linejoin:miter;"/>
    </g>
    <g id="line2d_43">
     <path d="M 647.6202 156.695263 
L 661.6146 156.695263 
" style="fill:none;stroke:#0000ff;stroke-linecap:square;stroke-width:1.2;"/>
    </g>
    <g id="line2d_44"/>
    <g id="text_22">
     <!-- Error_par_scale_0.1 -->
     <defs>
      <path d="M 9.8125 72.90625 
L 55.90625 72.90625 
L 55.90625 64.59375 
L 19.671875 64.59375 
L 19.671875 43.015625 
L 54.390625 43.015625 
L 54.390625 34.71875 
L 19.671875 34.71875 
L 19.671875 8.296875 
L 56.78125 8.296875 
L 56.78125 0 
L 9.8125 0 
z
" id="DejaVuSans-69"/>
      <path d="M 50.984375 -16.609375 
L 50.984375 -23.578125 
L -0.984375 -23.578125 
L -0.984375 -16.609375 
z
" id="DejaVuSans-95"/>
      <path d="M 18.109375 8.203125 
L 18.109375 -20.796875 
L 9.078125 -20.796875 
L 9.078125 54.6875 
L 18.109375 54.6875 
L 18.109375 46.390625 
Q 20.953125 51.265625 25.265625 53.625 
Q 29.59375 56 35.59375 56 
Q 45.5625 56 51.78125 48.09375 
Q 58.015625 40.1875 58.015625 27.296875 
Q 58.015625 14.40625 51.78125 6.484375 
Q 45.5625 -1.421875 35.59375 -1.421875 
Q 29.59375 -1.421875 25.265625 0.953125 
Q 20.953125 3.328125 18.109375 8.203125 
z
M 48.6875 27.296875 
Q 48.6875 37.203125 44.609375 42.84375 
Q 40.53125 48.484375 33.40625 48.484375 
Q 26.265625 48.484375 22.1875 42.84375 
Q 18.109375 37.203125 18.109375 27.296875 
Q 18.109375 17.390625 22.1875 11.75 
Q 26.265625 6.109375 33.40625 6.109375 
Q 40.53125 6.109375 44.609375 11.75 
Q 48.6875 17.390625 48.6875 27.296875 
z
" id="DejaVuSans-112"/>
      <path d="M 44.28125 53.078125 
L 44.28125 44.578125 
Q 40.484375 46.53125 36.375 47.5 
Q 32.28125 48.484375 27.875 48.484375 
Q 21.1875 48.484375 17.84375 46.4375 
Q 14.5 44.390625 14.5 40.28125 
Q 14.5 37.15625 16.890625 35.375 
Q 19.28125 33.59375 26.515625 31.984375 
L 29.59375 31.296875 
Q 39.15625 29.25 43.1875 25.515625 
Q 47.21875 21.78125 47.21875 15.09375 
Q 47.21875 7.46875 41.1875 3.015625 
Q 35.15625 -1.421875 24.609375 -1.421875 
Q 20.21875 -1.421875 15.453125 -0.5625 
Q 10.6875 0.296875 5.421875 2 
L 5.421875 11.28125 
Q 10.40625 8.6875 15.234375 7.390625 
Q 20.0625 6.109375 24.8125 6.109375 
Q 31.15625 6.109375 34.5625 8.28125 
Q 37.984375 10.453125 37.984375 14.40625 
Q 37.984375 18.0625 35.515625 20.015625 
Q 33.0625 21.96875 24.703125 23.78125 
L 21.578125 24.515625 
Q 13.234375 26.265625 9.515625 29.90625 
Q 5.8125 33.546875 5.8125 39.890625 
Q 5.8125 47.609375 11.28125 51.796875 
Q 16.75 56 26.8125 56 
Q 31.78125 56 36.171875 55.265625 
Q 40.578125 54.546875 44.28125 53.078125 
z
" id="DejaVuSans-115"/>
      <path d="M 9.421875 75.984375 
L 18.40625 75.984375 
L 18.40625 0 
L 9.421875 0 
z
" id="DejaVuSans-108"/>
     </defs>
     <g transform="translate(672.6102 160.193863)scale(0.09996 -0.09996)">
      <use xlink:href="#DejaVuSans-69"/>
      <use x="63.183594" xlink:href="#DejaVuSans-114"/>
      <use x="102.546875" xlink:href="#DejaVuSans-114"/>
      <use x="141.410156" xlink:href="#DejaVuSans-111"/>
      <use x="202.591797" xlink:href="#DejaVuSans-114"/>
      <use x="243.705078" xlink:href="#DejaVuSans-95"/>
      <use x="293.705078" xlink:href="#DejaVuSans-112"/>
      <use x="357.181641" xlink:href="#DejaVuSans-97"/>
      <use x="418.460938" xlink:href="#DejaVuSans-114"/>
      <use x="459.574219" xlink:href="#DejaVuSans-95"/>
      <use x="509.574219" xlink:href="#DejaVuSans-115"/>
      <use x="561.673828" xlink:href="#DejaVuSans-99"/>
      <use x="616.654297" xlink:href="#DejaVuSans-97"/>
      <use x="677.933594" xlink:href="#DejaVuSans-108"/>
      <use x="705.716797" xlink:href="#DejaVuSans-101"/>
      <use x="767.240234" xlink:href="#DejaVuSans-95"/>
      <use x="817.240234" xlink:href="#DejaVuSans-48"/>
      <use x="880.863281" xlink:href="#DejaVuSans-46"/>
      <use x="912.650391" xlink:href="#DejaVuSans-49"/>
     </g>
    </g>
    <g id="line2d_45">
     <path d="M 647.6202 171.645531 
L 661.6146 171.645531 
" style="fill:none;stroke:#008000;stroke-linecap:square;stroke-width:1.2;"/>
    </g>
    <g id="line2d_46"/>
    <g id="text_23">
     <!-- Error_no_par_scale -->
     <g transform="translate(672.6102 175.144131)scale(0.09996 -0.09996)">
      <use xlink:href="#DejaVuSans-69"/>
      <use x="63.183594" xlink:href="#DejaVuSans-114"/>
      <use x="102.546875" xlink:href="#DejaVuSans-114"/>
      <use x="141.410156" xlink:href="#DejaVuSans-111"/>
      <use x="202.591797" xlink:href="#DejaVuSans-114"/>
      <use x="243.705078" xlink:href="#DejaVuSans-95"/>
      <use x="293.705078" xlink:href="#DejaVuSans-110"/>
      <use x="357.083984" xlink:href="#DejaVuSans-111"/>
      <use x="418.265625" xlink:href="#DejaVuSans-95"/>
      <use x="468.265625" xlink:href="#DejaVuSans-112"/>
      <use x="531.742188" xlink:href="#DejaVuSans-97"/>
      <use x="593.021484" xlink:href="#DejaVuSans-114"/>
      <use x="634.134766" xlink:href="#DejaVuSans-95"/>
      <use x="684.134766" xlink:href="#DejaVuSans-115"/>
      <use x="736.234375" xlink:href="#DejaVuSans-99"/>
      <use x="791.214844" xlink:href="#DejaVuSans-97"/>
      <use x="852.494141" xlink:href="#DejaVuSans-108"/>
      <use x="880.277344" xlink:href="#DejaVuSans-101"/>
     </g>
    </g>
    <g id="line2d_47">
     <path d="M 647.6202 186.595798 
L 661.6146 186.595798 
" style="fill:none;stroke:#ff0000;stroke-linecap:square;stroke-width:1.2;"/>
    </g>
    <g id="line2d_48"/>
    <g id="text_24">
     <!-- Loss_par_scale_0.1 -->
     <defs>
      <path d="M 9.8125 72.90625 
L 19.671875 72.90625 
L 19.671875 8.296875 
L 55.171875 8.296875 
L 55.171875 0 
L 9.8125 0 
z
" id="DejaVuSans-76"/>
     </defs>
     <g transform="translate(672.6102 190.094398)scale(0.09996 -0.09996)">
      <use xlink:href="#DejaVuSans-76"/>
      <use x="53.962891" xlink:href="#DejaVuSans-111"/>
      <use x="115.144531" xlink:href="#DejaVuSans-115"/>
      <use x="167.244141" xlink:href="#DejaVuSans-115"/>
      <use x="219.34375" xlink:href="#DejaVuSans-95"/>
      <use x="269.34375" xlink:href="#DejaVuSans-112"/>
      <use x="332.820312" xlink:href="#DejaVuSans-97"/>
      <use x="394.099609" xlink:href="#DejaVuSans-114"/>
      <use x="435.212891" xlink:href="#DejaVuSans-95"/>
      <use x="485.212891" xlink:href="#DejaVuSans-115"/>
      <use x="537.3125" xlink:href="#DejaVuSans-99"/>
      <use x="592.292969" xlink:href="#DejaVuSans-97"/>
      <use x="653.572266" xlink:href="#DejaVuSans-108"/>
      <use x="681.355469" xlink:href="#DejaVuSans-101"/>
      <use x="742.878906" xlink:href="#DejaVuSans-95"/>
      <use x="792.878906" xlink:href="#DejaVuSans-48"/>
      <use x="856.501953" xlink:href="#DejaVuSans-46"/>
      <use x="888.289062" xlink:href="#DejaVuSans-49"/>
     </g>
    </g>
    <g id="line2d_49">
     <path d="M 647.6202 201.546066 
L 661.6146 201.546066 
" style="fill:none;stroke:#00bfbf;stroke-linecap:square;stroke-width:1.2;"/>
    </g>
    <g id="line2d_50"/>
    <g id="text_25">
     <!-- Loss_no_par_scale -->
     <g transform="translate(672.6102 205.044666)scale(0.09996 -0.09996)">
      <use xlink:href="#DejaVuSans-76"/>
      <use x="53.962891" xlink:href="#DejaVuSans-111"/>
      <use x="115.144531" xlink:href="#DejaVuSans-115"/>
      <use x="167.244141" xlink:href="#DejaVuSans-115"/>
      <use x="219.34375" xlink:href="#DejaVuSans-95"/>
      <use x="269.34375" xlink:href="#DejaVuSans-110"/>
      <use x="332.722656" xlink:href="#DejaVuSans-111"/>
      <use x="393.904297" xlink:href="#DejaVuSans-95"/>
      <use x="443.904297" xlink:href="#DejaVuSans-112"/>
      <use x="507.380859" xlink:href="#DejaVuSans-97"/>
      <use x="568.660156" xlink:href="#DejaVuSans-114"/>
      <use x="609.773438" xlink:href="#DejaVuSans-95"/>
      <use x="659.773438" xlink:href="#DejaVuSans-115"/>
      <use x="711.873047" xlink:href="#DejaVuSans-99"/>
      <use x="766.853516" xlink:href="#DejaVuSans-97"/>
      <use x="828.132812" xlink:href="#DejaVuSans-108"/>
      <use x="855.916016" xlink:href="#DejaVuSans-101"/>
     </g>
    </g>
   </g>
  </g>
  <g id="text_26">
   <!-- Average Accuracy -->
   <defs>
    <path d="M 34.1875 63.1875 
L 20.796875 26.90625 
L 47.609375 26.90625 
z
M 28.609375 72.90625 
L 39.796875 72.90625 
L 67.578125 0 
L 57.328125 0 
L 50.6875 18.703125 
L 17.828125 18.703125 
L 11.1875 0 
L 0.78125 0 
z
" id="DejaVuSans-65"/>
    <path d="M 2.984375 54.6875 
L 12.5 54.6875 
L 29.59375 8.796875 
L 46.6875 54.6875 
L 56.203125 54.6875 
L 35.6875 0 
L 23.484375 0 
z
" id="DejaVuSans-118"/>
    <path id="DejaVuSans-32"/>
   </defs>
   <g transform="translate(396.06 16.318125)scale(0.12 -0.12)">
    <use xlink:href="#DejaVuSans-65"/>
    <use x="62.533203" xlink:href="#DejaVuSans-118"/>
    <use x="121.712891" xlink:href="#DejaVuSans-101"/>
    <use x="183.236328" xlink:href="#DejaVuSans-114"/>
    <use x="224.349609" xlink:href="#DejaVuSans-97"/>
    <use x="285.628906" xlink:href="#DejaVuSans-103"/>
    <use x="349.105469" xlink:href="#DejaVuSans-101"/>
    <use x="410.628906" xlink:href="#DejaVuSans-32"/>
    <use x="442.416016" xlink:href="#DejaVuSans-65"/>
    <use x="509.074219" xlink:href="#DejaVuSans-99"/>
    <use x="564.054688" xlink:href="#DejaVuSans-99"/>
    <use x="619.035156" xlink:href="#DejaVuSans-117"/>
    <use x="682.414062" xlink:href="#DejaVuSans-114"/>
    <use x="723.527344" xlink:href="#DejaVuSans-97"/>
    <use x="784.806641" xlink:href="#DejaVuSans-99"/>
    <use x="839.787109" xlink:href="#DejaVuSans-121"/>
   </g>
  </g>
 </g>
 <defs>
  <clipPath id="p9d5d490945">
   <rect height="288" width="523.125" x="112.5" y="36"/>
  </clipPath>
 </defs>
</svg>
