<?xml version="1.0" encoding="utf-8" standalone="no"?>
<!DOCTYPE svg PUBLIC "-//W3C//DTD SVG 1.1//EN"
  "http://www.w3.org/Graphics/SVG/1.1/DTD/svg11.dtd">
<!-- Created with matplotlib (https://matplotlib.org/) -->
<svg height="360pt" version="1.1" viewBox="0 0 900 360" width="900pt" xmlns="http://www.w3.org/2000/svg" xmlns:xlink="http://www.w3.org/1999/xlink">
 <defs>
  <style type="text/css">
*{stroke-linecap:butt;stroke-linejoin:round;}
  </style>
 </defs>
 <g id="figure_1">
  <g id="patch_1">
   <path d="M 0 360 
L 900 360 
L 900 0 
L 0 0 
z
" style="fill:#ffffff;"/>
  </g>
  <g id="axes_1">
   <g id="patch_2">
    <path d="M 112.5 324 
L 635.625 324 
L 635.625 36 
L 112.5 36 
z
" style="fill:#ffffff;"/>
   </g>
   <g id="line2d_1">
    <path clip-path="url(#pf8abac9717)" d="M 112.852986 109.120912 
L 116.382844 130.158119 
L 119.912702 168.404978 
L 123.442561 163.357936 
L 126.972419 170.836121 
L 130.502277 140.67074 
L 134.032136 151.450808 
L 137.561994 133.377784 
L 141.091852 181.333001 
L 144.621711 168.833975 
L 148.151569 182.313148 
L 151.681427 180.471825 
L 155.211285 200.976791 
L 158.741144 142.007578 
L 162.271002 164.129094 
L 165.80086 181.213871 
L 169.330719 190.937005 
L 172.860577 171.935393 
L 176.390435 195.13498 
L 179.920294 194.817605 
L 183.450152 168.052489 
L 186.98001 152.84284 
L 190.509868 202.470421 
L 194.039727 176.536701 
L 197.569585 195.673304 
L 201.099443 166.302205 
L 204.629302 232.096313 
L 208.15916 199.381054 
L 211.689018 240.699022 
L 215.218877 244.320917 
L 218.748735 198.143744 
L 222.278593 229.178196 
L 225.808451 205.44232 
L 229.33831 176.892624 
L 232.868168 211.746227 
L 236.398026 192.337234 
L 239.927885 178.957744 
L 243.457743 195.199357 
L 246.987601 218.142193 
L 250.51746 262.819921 
L 254.047318 143.32025 
L 257.577176 252.075982 
L 261.107034 205.15851 
L 264.636893 209.735143 
L 268.166751 222.437498 
L 271.696609 232.483504 
L 275.226468 167.234105 
L 278.756326 236.822026 
L 282.286184 216.350602 
L 285.816043 180.212081 
L 289.345901 237.043667 
L 292.875759 258.245114 
L 296.405617 210.633763 
L 299.935476 211.386033 
L 303.465334 221.887777 
L 306.995192 155.237387 
L 310.525051 236.936932 
L 314.054909 202.325441 
L 317.584767 203.621353 
L 321.114626 238.457797 
L 324.644484 181.124066 
L 328.174342 207.425023 
L 331.7042 244.369582 
L 335.234059 220.484686 
L 338.763917 180.290891 
L 342.293775 205.563938 
L 345.823634 216.768119 
L 349.353492 186.621511 
L 352.88335 205.55788 
L 356.413209 213.8983 
L 359.943067 266.218366 
L 363.472925 204.761511 
L 367.002783 245.875162 
L 370.532642 105.540408 
L 374.0625 221.677754 
L 377.592358 189.691898 
L 381.122217 227.927513 
L 384.652075 250.622631 
L 388.181933 236.126441 
L 391.711791 243.465183 
L 395.24165 219.072064 
L 398.771508 189.037771 
L 402.301366 229.902674 
L 405.831225 261.135306 
L 409.361083 189.042498 
L 412.890941 253.687795 
L 416.4208 229.763284 
L 419.950658 201.337623 
L 423.480516 245.243362 
L 427.010374 203.604055 
L 430.540233 247.117192 
L 434.070091 274.24188 
L 437.599949 218.760181 
L 441.129808 196.899437 
L 444.659666 216.237377 
L 448.189524 207.396666 
L 451.719383 239.72305 
L 455.249241 136.993451 
L 458.779099 257.866375 
L 462.308957 192.652281 
L 465.838816 275.364058 
L 469.368674 252.299448 
L 472.898532 207.790007 
L 476.428391 193.509684 
L 479.958249 222.832971 
L 483.488107 245.067307 
L 487.017966 258.969994 
L 490.547824 268.228102 
L 494.077682 254.975022 
L 497.60754 240.380563 
L 501.137399 254.914767 
L 504.667257 261.512622 
L 508.197115 254.376306 
L 511.726974 227.467008 
L 515.256832 265.491997 
L 518.78669 254.383434 
L 522.316549 249.335354 
L 525.846407 255.464545 
L 529.376265 267.468628 
L 532.906123 178.790215 
L 536.435982 259.254268 
L 539.96584 279.14827 
L 543.495698 189.621479 
L 547.025557 208.69571 
L 550.555415 297.302278 
L 554.085273 206.954357 
L 557.615132 289.26218 
L 561.14499 270.853461 
L 564.674848 266.997978 
L 568.204706 225.549938 
L 571.734565 261.144713 
L 575.264423 241.548505 
L 578.794281 261.921926 
L 582.32414 209.478539 
L 585.853998 240.718997 
L 589.383856 242.402121 
L 592.913715 257.15716 
L 596.443573 235.087771 
L 599.973431 248.518161 
L 603.503289 252.420116 
L 607.033148 249.91574 
L 610.563006 251.077786 
L 614.092864 220.386632 
L 617.622723 180.553525 
L 621.152581 252.076457 
L 624.682439 229.54795 
L 628.212298 254.178392 
L 631.742156 249.173341 
L 635.272014 175.515143 
L 635.272014 175.515143 
" style="fill:none;stroke:#0000ff;stroke-linecap:square;stroke-width:1.2;"/>
   </g>
   <g id="line2d_2">
    <path clip-path="url(#pf8abac9717)" d="M 112.852986 111.079816 
L 116.382844 132.981586 
L 119.912702 106.871049 
L 123.442561 139.095268 
L 126.972419 159.483386 
L 130.502277 152.793418 
L 134.032136 135.228272 
L 137.561994 161.118976 
L 141.091852 124.214987 
L 144.621711 189.024635 
L 148.151569 132.04301 
L 151.681427 162.077531 
L 155.211285 139.019652 
L 158.741144 186.484082 
L 162.271002 213.891728 
L 165.80086 170.577059 
L 169.330719 187.458872 
L 172.860577 186.831416 
L 176.390435 164.202163 
L 179.920294 138.120869 
L 183.450152 200.619018 
L 186.98001 155.26436 
L 190.509868 160.648808 
L 194.039727 199.711778 
L 197.569585 194.04794 
L 201.099443 172.538566 
L 204.629302 195.704419 
L 208.15916 166.790893 
L 211.689018 164.402212 
L 215.218877 184.045963 
L 218.748735 261.82368 
L 222.278593 190.373711 
L 225.808451 209.402663 
L 229.33831 219.939867 
L 232.868168 270.649186 
L 236.398026 262.635772 
L 239.927885 230.767819 
L 243.457743 212.619407 
L 246.987601 215.363673 
L 250.51746 252.035928 
L 254.047318 171.133033 
L 261.107034 245.228794 
L 264.636893 238.711225 
L 268.166751 243.846407 
L 271.696609 223.497731 
L 275.226468 254.674593 
L 278.756326 149.988204 
L 282.286184 222.55492 
L 285.816043 267.437398 
L 289.345901 194.68467 
L 292.875759 213.982965 
L 296.405617 231.177112 
L 299.935476 204.968059 
L 303.465334 247.02831 
L 306.995192 240.601261 
L 310.525051 233.928232 
L 314.054909 189.378389 
L 317.584767 221.413689 
L 321.114626 205.135258 
L 324.644484 261.849553 
L 328.174342 241.007323 
L 331.7042 255.80781 
L 335.234059 250.559507 
L 338.763917 156.892774 
L 342.293775 194.160924 
L 345.823634 285.375668 
L 349.353492 254.302474 
L 352.88335 263.311803 
L 356.413209 240.908243 
L 359.943067 284.631503 
L 363.472925 254.753525 
L 367.002783 246.809257 
L 370.532642 242.616623 
L 374.0625 216.364516 
L 377.592358 223.394027 
L 381.122217 217.764711 
L 384.652075 269.684719 
L 388.181933 242.4652 
L 391.711791 217.983163 
L 395.24165 245.249887 
L 398.771508 172.93284 
L 402.301366 211.315207 
L 405.831225 212.487215 
L 409.361083 281.59358 
L 412.890941 277.168237 
L 416.4208 218.300494 
L 419.950658 284.152471 
L 423.480516 269.46164 
L 427.010374 264.631878 
L 430.540233 213.165295 
L 434.070091 194.27891 
L 437.599949 259.833384 
L 441.129808 244.954008 
L 444.659666 236.813544 
L 448.189524 242.972037 
L 451.719383 269.614067 
L 455.249241 298.781206 
L 458.779099 267.262562 
L 462.308957 279.652356 
L 465.838816 287.394955 
L 469.368674 253.739686 
L 472.898532 253.790023 
L 476.428391 242.543252 
L 479.958249 238.195778 
L 483.488107 251.301906 
L 487.017966 285.798917 
L 490.547824 254.396128 
L 494.077682 293.839621 
L 497.60754 278.5203 
L 501.137399 283.281278 
L 504.667257 257.404581 
L 508.197115 237.032613 
L 511.726974 259.219206 
L 515.256832 274.708561 
L 518.78669 280.433156 
L 522.316549 260.646302 
L 525.846407 244.384803 
L 529.376265 282.907544 
L 532.906123 272.424357 
L 536.435982 283.824567 
L 539.96584 293.351238 
L 543.495698 284.064122 
L 547.025557 261.30445 
L 550.555415 270.614497 
L 554.085273 250.450214 
L 557.615132 264.781181 
L 561.14499 249.411137 
L 564.674848 279.985331 
L 568.204706 288.571916 
L 571.734565 255.231279 
L 575.264423 286.893599 
L 578.794281 281.484886 
L 582.32414 240.805766 
L 585.853998 284.251086 
L 589.383856 270.834878 
L 592.913715 246.786386 
L 596.443573 254.873405 
L 599.973431 274.050338 
L 603.503289 258.152719 
L 603.503289 258.152719 
" style="fill:none;stroke:#008000;stroke-linecap:square;stroke-width:1.2;"/>
   </g>
   <g id="line2d_3">
    <path clip-path="url(#pf8abac9717)" d="M 112.852986 108.209396 
L 116.382844 125.349055 
L 119.912702 122.809021 
L 123.442561 131.263661 
L 126.972419 155.61418 
L 130.502277 126.938914 
L 134.032136 61.099949 
L 137.561994 143.352301 
L 141.091852 136.483942 
L 144.621711 133.969815 
L 148.151569 166.944011 
L 151.681427 155.120778 
L 155.211285 173.586722 
L 158.741144 182.943907 
L 162.271002 205.446292 
L 165.80086 179.242744 
L 169.330719 215.868119 
L 172.860577 199.24043 
L 176.390435 197.386522 
L 179.920294 157.288554 
L 183.450152 196.537698 
L 186.98001 134.629915 
L 190.509868 170.813255 
L 194.039727 215.26648 
L 197.569585 163.709793 
L 201.099443 192.643754 
L 204.629302 196.293971 
L 208.15916 232.878046 
L 211.689018 229.579209 
L 215.218877 204.505789 
L 218.748735 209.245882 
L 222.278593 207.472253 
L 225.808451 203.03712 
L 229.33831 261.648772 
L 232.868168 183.029742 
L 236.398026 261.212353 
L 239.927885 197.605228 
L 243.457743 244.733769 
L 246.987601 242.561754 
L 250.51746 231.767028 
L 254.047318 185.862424 
L 257.577176 245.56225 
L 261.107034 243.747281 
L 264.636893 244.432283 
L 268.166751 234.476111 
L 271.696609 210.981749 
L 275.226468 246.72814 
L 278.756326 238.415017 
L 282.286184 274.908047 
L 285.816043 140.576074 
L 289.345901 245.018522 
L 292.875759 217.048097 
L 296.405617 157.393778 
L 299.935476 200.288675 
L 303.465334 241.394071 
L 306.995192 252.47848 
L 310.525051 205.797411 
L 314.054909 207.223407 
L 317.584767 204.053846 
L 321.114626 268.993699 
L 324.644484 218.788601 
L 328.174342 266.050809 
L 331.7042 256.469116 
L 335.234059 205.356361 
L 338.763917 277.402081 
L 342.293775 258.423948 
L 345.823634 236.608124 
L 349.353492 244.706521 
L 352.88335 247.944472 
L 356.413209 278.30308 
L 359.943067 237.656889 
L 363.472925 281.851693 
L 367.002783 249.927392 
L 370.532642 258.519836 
L 374.0625 228.619507 
L 377.592358 255.515557 
L 381.122217 284.493596 
L 384.652075 267.162554 
L 388.181933 223.913423 
L 391.711791 273.014735 
L 395.24165 235.695359 
L 398.771508 243.840546 
L 402.301366 224.402265 
L 405.831225 265.317534 
L 409.361083 280.398604 
L 412.890941 260.458677 
L 416.4208 231.634058 
L 419.950658 273.479494 
L 423.480516 245.86108 
L 427.010374 243.624971 
L 430.540233 228.932489 
L 434.070091 222.708562 
L 437.599949 245.530744 
L 441.129808 254.166475 
L 444.659666 239.737993 
L 448.189524 263.304635 
L 451.719383 249.025441 
L 455.249241 265.084666 
L 458.779099 270.804987 
L 462.308957 252.339559 
L 465.838816 191.334942 
L 469.368674 238.960759 
L 472.898532 196.228931 
L 476.428391 262.072741 
L 479.958249 249.650224 
L 483.488107 296.405701 
L 487.017966 249.592534 
L 490.547824 270.760927 
L 494.077682 266.034733 
L 497.60754 270.795175 
L 501.137399 238.677055 
L 504.667257 274.731012 
L 508.197115 266.366678 
L 511.726974 270.540268 
L 515.256832 292.778752 
L 518.78669 279.59357 
L 522.316549 269.738449 
L 525.846407 235.860241 
L 529.376265 273.197389 
L 532.906123 280.53637 
L 536.435982 289.858806 
L 539.96584 266.847872 
L 543.495698 242.049922 
L 547.025557 263.315862 
L 550.555415 242.948117 
L 554.085273 267.509992 
L 557.615132 272.522261 
L 561.14499 256.418946 
L 564.674848 245.443576 
L 568.204706 288.420467 
L 571.734565 245.979049 
L 575.264423 291.356222 
L 578.794281 292.714427 
L 582.32414 298.431688 
L 585.853998 226.356111 
L 585.853998 226.356111 
" style="fill:none;stroke:#ff0000;stroke-linecap:square;stroke-width:1.2;"/>
   </g>
   <g id="patch_3">
    <path d="M 112.5 324 
L 112.5 36 
" style="fill:none;stroke:#000000;stroke-linecap:square;stroke-linejoin:miter;"/>
   </g>
   <g id="patch_4">
    <path d="M 635.625 324 
L 635.625 36 
" style="fill:none;stroke:#000000;stroke-linecap:square;stroke-linejoin:miter;"/>
   </g>
   <g id="patch_5">
    <path d="M 112.5 324 
L 635.625 324 
" style="fill:none;stroke:#000000;stroke-linecap:square;stroke-linejoin:miter;"/>
   </g>
   <g id="patch_6">
    <path d="M 112.5 36 
L 635.625 36 
" style="fill:none;stroke:#000000;stroke-linecap:square;stroke-linejoin:miter;"/>
   </g>
   <g id="matplotlib.axis_1">
    <g id="xtick_1">
     <g id="line2d_4">
      <defs>
       <path d="M 0 0 
L 0 -4 
" id="md877c5c57e" style="stroke:#000000;stroke-width:0.5;"/>
      </defs>
      <g>
       <use style="stroke:#000000;stroke-width:0.5;" x="112.852986" xlink:href="#md877c5c57e" y="324"/>
      </g>
     </g>
     <g id="line2d_5">
      <defs>
       <path d="M 0 0 
L 0 4 
" id="m4c1aae0051" style="stroke:#000000;stroke-width:0.5;"/>
      </defs>
      <g>
       <use style="stroke:#000000;stroke-width:0.5;" x="112.852986" xlink:href="#m4c1aae0051" y="36"/>
      </g>
     </g>
     <g id="text_1">
      <!-- 1 -->
      <defs>
       <path d="M 12.40625 8.296875 
L 28.515625 8.296875 
L 28.515625 63.921875 
L 10.984375 60.40625 
L 10.984375 69.390625 
L 28.421875 72.90625 
L 38.28125 72.90625 
L 38.28125 8.296875 
L 54.390625 8.296875 
L 54.390625 0 
L 12.40625 0 
z
" id="DejaVuSans-49"/>
      </defs>
      <g transform="translate(109.035486 337.118125)scale(0.12 -0.12)">
       <use xlink:href="#DejaVuSans-49"/>
      </g>
     </g>
    </g>
    <g id="xtick_2">
     <g id="line2d_6">
      <g>
       <use style="stroke:#000000;stroke-width:0.5;" x="165.80086" xlink:href="#md877c5c57e" y="324"/>
      </g>
     </g>
     <g id="line2d_7">
      <g>
       <use style="stroke:#000000;stroke-width:0.5;" x="165.80086" xlink:href="#m4c1aae0051" y="36"/>
      </g>
     </g>
     <g id="text_2">
      <!-- 16 -->
      <defs>
       <path d="M 33.015625 40.375 
Q 26.375 40.375 22.484375 35.828125 
Q 18.609375 31.296875 18.609375 23.390625 
Q 18.609375 15.53125 22.484375 10.953125 
Q 26.375 6.390625 33.015625 6.390625 
Q 39.65625 6.390625 43.53125 10.953125 
Q 47.40625 15.53125 47.40625 23.390625 
Q 47.40625 31.296875 43.53125 35.828125 
Q 39.65625 40.375 33.015625 40.375 
z
M 52.59375 71.296875 
L 52.59375 62.3125 
Q 48.875 64.0625 45.09375 64.984375 
Q 41.3125 65.921875 37.59375 65.921875 
Q 27.828125 65.921875 22.671875 59.328125 
Q 17.53125 52.734375 16.796875 39.40625 
Q 19.671875 43.65625 24.015625 45.921875 
Q 28.375 48.1875 33.59375 48.1875 
Q 44.578125 48.1875 50.953125 41.515625 
Q 57.328125 34.859375 57.328125 23.390625 
Q 57.328125 12.15625 50.6875 5.359375 
Q 44.046875 -1.421875 33.015625 -1.421875 
Q 20.359375 -1.421875 13.671875 8.265625 
Q 6.984375 17.96875 6.984375 36.375 
Q 6.984375 53.65625 15.1875 63.9375 
Q 23.390625 74.21875 37.203125 74.21875 
Q 40.921875 74.21875 44.703125 73.484375 
Q 48.484375 72.75 52.59375 71.296875 
z
" id="DejaVuSans-54"/>
      </defs>
      <g transform="translate(158.16586 337.118125)scale(0.12 -0.12)">
       <use xlink:href="#DejaVuSans-49"/>
       <use x="63.623047" xlink:href="#DejaVuSans-54"/>
      </g>
     </g>
    </g>
    <g id="xtick_3">
     <g id="line2d_8">
      <g>
       <use style="stroke:#000000;stroke-width:0.5;" x="218.748735" xlink:href="#md877c5c57e" y="324"/>
      </g>
     </g>
     <g id="line2d_9">
      <g>
       <use style="stroke:#000000;stroke-width:0.5;" x="218.748735" xlink:href="#m4c1aae0051" y="36"/>
      </g>
     </g>
     <g id="text_3">
      <!-- 31 -->
      <defs>
       <path d="M 40.578125 39.3125 
Q 47.65625 37.796875 51.625 33 
Q 55.609375 28.21875 55.609375 21.1875 
Q 55.609375 10.40625 48.1875 4.484375 
Q 40.765625 -1.421875 27.09375 -1.421875 
Q 22.515625 -1.421875 17.65625 -0.515625 
Q 12.796875 0.390625 7.625 2.203125 
L 7.625 11.71875 
Q 11.71875 9.328125 16.59375 8.109375 
Q 21.484375 6.890625 26.8125 6.890625 
Q 36.078125 6.890625 40.9375 10.546875 
Q 45.796875 14.203125 45.796875 21.1875 
Q 45.796875 27.640625 41.28125 31.265625 
Q 36.765625 34.90625 28.71875 34.90625 
L 20.21875 34.90625 
L 20.21875 43.015625 
L 29.109375 43.015625 
Q 36.375 43.015625 40.234375 45.921875 
Q 44.09375 48.828125 44.09375 54.296875 
Q 44.09375 59.90625 40.109375 62.90625 
Q 36.140625 65.921875 28.71875 65.921875 
Q 24.65625 65.921875 20.015625 65.03125 
Q 15.375 64.15625 9.8125 62.3125 
L 9.8125 71.09375 
Q 15.4375 72.65625 20.34375 73.4375 
Q 25.25 74.21875 29.59375 74.21875 
Q 40.828125 74.21875 47.359375 69.109375 
Q 53.90625 64.015625 53.90625 55.328125 
Q 53.90625 49.265625 50.4375 45.09375 
Q 46.96875 40.921875 40.578125 39.3125 
z
" id="DejaVuSans-51"/>
      </defs>
      <g transform="translate(211.113735 337.118125)scale(0.12 -0.12)">
       <use xlink:href="#DejaVuSans-51"/>
       <use x="63.623047" xlink:href="#DejaVuSans-49"/>
      </g>
     </g>
    </g>
    <g id="xtick_4">
     <g id="line2d_10">
      <g>
       <use style="stroke:#000000;stroke-width:0.5;" x="271.696609" xlink:href="#md877c5c57e" y="324"/>
      </g>
     </g>
     <g id="line2d_11">
      <g>
       <use style="stroke:#000000;stroke-width:0.5;" x="271.696609" xlink:href="#m4c1aae0051" y="36"/>
      </g>
     </g>
     <g id="text_4">
      <!-- 46 -->
      <defs>
       <path d="M 37.796875 64.3125 
L 12.890625 25.390625 
L 37.796875 25.390625 
z
M 35.203125 72.90625 
L 47.609375 72.90625 
L 47.609375 25.390625 
L 58.015625 25.390625 
L 58.015625 17.1875 
L 47.609375 17.1875 
L 47.609375 0 
L 37.796875 0 
L 37.796875 17.1875 
L 4.890625 17.1875 
L 4.890625 26.703125 
z
" id="DejaVuSans-52"/>
      </defs>
      <g transform="translate(264.061609 337.118125)scale(0.12 -0.12)">
       <use xlink:href="#DejaVuSans-52"/>
       <use x="63.623047" xlink:href="#DejaVuSans-54"/>
      </g>
     </g>
    </g>
    <g id="xtick_5">
     <g id="line2d_12">
      <g>
       <use style="stroke:#000000;stroke-width:0.5;" x="324.644484" xlink:href="#md877c5c57e" y="324"/>
      </g>
     </g>
     <g id="line2d_13">
      <g>
       <use style="stroke:#000000;stroke-width:0.5;" x="324.644484" xlink:href="#m4c1aae0051" y="36"/>
      </g>
     </g>
     <g id="text_5">
      <!-- 61 -->
      <g transform="translate(317.009484 337.118125)scale(0.12 -0.12)">
       <use xlink:href="#DejaVuSans-54"/>
       <use x="63.623047" xlink:href="#DejaVuSans-49"/>
      </g>
     </g>
    </g>
    <g id="xtick_6">
     <g id="line2d_14">
      <g>
       <use style="stroke:#000000;stroke-width:0.5;" x="377.592358" xlink:href="#md877c5c57e" y="324"/>
      </g>
     </g>
     <g id="line2d_15">
      <g>
       <use style="stroke:#000000;stroke-width:0.5;" x="377.592358" xlink:href="#m4c1aae0051" y="36"/>
      </g>
     </g>
     <g id="text_6">
      <!-- 76 -->
      <defs>
       <path d="M 8.203125 72.90625 
L 55.078125 72.90625 
L 55.078125 68.703125 
L 28.609375 0 
L 18.3125 0 
L 43.21875 64.59375 
L 8.203125 64.59375 
z
" id="DejaVuSans-55"/>
      </defs>
      <g transform="translate(369.957358 337.118125)scale(0.12 -0.12)">
       <use xlink:href="#DejaVuSans-55"/>
       <use x="63.623047" xlink:href="#DejaVuSans-54"/>
      </g>
     </g>
    </g>
    <g id="xtick_7">
     <g id="line2d_16">
      <g>
       <use style="stroke:#000000;stroke-width:0.5;" x="430.540233" xlink:href="#md877c5c57e" y="324"/>
      </g>
     </g>
     <g id="line2d_17">
      <g>
       <use style="stroke:#000000;stroke-width:0.5;" x="430.540233" xlink:href="#m4c1aae0051" y="36"/>
      </g>
     </g>
     <g id="text_7">
      <!-- 91 -->
      <defs>
       <path d="M 10.984375 1.515625 
L 10.984375 10.5 
Q 14.703125 8.734375 18.5 7.8125 
Q 22.3125 6.890625 25.984375 6.890625 
Q 35.75 6.890625 40.890625 13.453125 
Q 46.046875 20.015625 46.78125 33.40625 
Q 43.953125 29.203125 39.59375 26.953125 
Q 35.25 24.703125 29.984375 24.703125 
Q 19.046875 24.703125 12.671875 31.3125 
Q 6.296875 37.9375 6.296875 49.421875 
Q 6.296875 60.640625 12.9375 67.421875 
Q 19.578125 74.21875 30.609375 74.21875 
Q 43.265625 74.21875 49.921875 64.515625 
Q 56.59375 54.828125 56.59375 36.375 
Q 56.59375 19.140625 48.40625 8.859375 
Q 40.234375 -1.421875 26.421875 -1.421875 
Q 22.703125 -1.421875 18.890625 -0.6875 
Q 15.09375 0.046875 10.984375 1.515625 
z
M 30.609375 32.421875 
Q 37.25 32.421875 41.125 36.953125 
Q 45.015625 41.5 45.015625 49.421875 
Q 45.015625 57.28125 41.125 61.84375 
Q 37.25 66.40625 30.609375 66.40625 
Q 23.96875 66.40625 20.09375 61.84375 
Q 16.21875 57.28125 16.21875 49.421875 
Q 16.21875 41.5 20.09375 36.953125 
Q 23.96875 32.421875 30.609375 32.421875 
z
" id="DejaVuSans-57"/>
      </defs>
      <g transform="translate(422.905233 337.118125)scale(0.12 -0.12)">
       <use xlink:href="#DejaVuSans-57"/>
       <use x="63.623047" xlink:href="#DejaVuSans-49"/>
      </g>
     </g>
    </g>
    <g id="xtick_8">
     <g id="line2d_18">
      <g>
       <use style="stroke:#000000;stroke-width:0.5;" x="483.488107" xlink:href="#md877c5c57e" y="324"/>
      </g>
     </g>
     <g id="line2d_19">
      <g>
       <use style="stroke:#000000;stroke-width:0.5;" x="483.488107" xlink:href="#m4c1aae0051" y="36"/>
      </g>
     </g>
     <g id="text_8">
      <!-- 106 -->
      <defs>
       <path d="M 31.78125 66.40625 
Q 24.171875 66.40625 20.328125 58.90625 
Q 16.5 51.421875 16.5 36.375 
Q 16.5 21.390625 20.328125 13.890625 
Q 24.171875 6.390625 31.78125 6.390625 
Q 39.453125 6.390625 43.28125 13.890625 
Q 47.125 21.390625 47.125 36.375 
Q 47.125 51.421875 43.28125 58.90625 
Q 39.453125 66.40625 31.78125 66.40625 
z
M 31.78125 74.21875 
Q 44.046875 74.21875 50.515625 64.515625 
Q 56.984375 54.828125 56.984375 36.375 
Q 56.984375 17.96875 50.515625 8.265625 
Q 44.046875 -1.421875 31.78125 -1.421875 
Q 19.53125 -1.421875 13.0625 8.265625 
Q 6.59375 17.96875 6.59375 36.375 
Q 6.59375 54.828125 13.0625 64.515625 
Q 19.53125 74.21875 31.78125 74.21875 
z
" id="DejaVuSans-48"/>
      </defs>
      <g transform="translate(472.035607 337.118125)scale(0.12 -0.12)">
       <use xlink:href="#DejaVuSans-49"/>
       <use x="63.623047" xlink:href="#DejaVuSans-48"/>
       <use x="127.246094" xlink:href="#DejaVuSans-54"/>
      </g>
     </g>
    </g>
    <g id="xtick_9">
     <g id="line2d_20">
      <g>
       <use style="stroke:#000000;stroke-width:0.5;" x="536.435982" xlink:href="#md877c5c57e" y="324"/>
      </g>
     </g>
     <g id="line2d_21">
      <g>
       <use style="stroke:#000000;stroke-width:0.5;" x="536.435982" xlink:href="#m4c1aae0051" y="36"/>
      </g>
     </g>
     <g id="text_9">
      <!-- 121 -->
      <defs>
       <path d="M 19.1875 8.296875 
L 53.609375 8.296875 
L 53.609375 0 
L 7.328125 0 
L 7.328125 8.296875 
Q 12.9375 14.109375 22.625 23.890625 
Q 32.328125 33.6875 34.8125 36.53125 
Q 39.546875 41.84375 41.421875 45.53125 
Q 43.3125 49.21875 43.3125 52.78125 
Q 43.3125 58.59375 39.234375 62.25 
Q 35.15625 65.921875 28.609375 65.921875 
Q 23.96875 65.921875 18.8125 64.3125 
Q 13.671875 62.703125 7.8125 59.421875 
L 7.8125 69.390625 
Q 13.765625 71.78125 18.9375 73 
Q 24.125 74.21875 28.421875 74.21875 
Q 39.75 74.21875 46.484375 68.546875 
Q 53.21875 62.890625 53.21875 53.421875 
Q 53.21875 48.921875 51.53125 44.890625 
Q 49.859375 40.875 45.40625 35.40625 
Q 44.1875 33.984375 37.640625 27.21875 
Q 31.109375 20.453125 19.1875 8.296875 
z
" id="DejaVuSans-50"/>
      </defs>
      <g transform="translate(524.983482 337.118125)scale(0.12 -0.12)">
       <use xlink:href="#DejaVuSans-49"/>
       <use x="63.623047" xlink:href="#DejaVuSans-50"/>
       <use x="127.246094" xlink:href="#DejaVuSans-49"/>
      </g>
     </g>
    </g>
    <g id="xtick_10">
     <g id="line2d_22">
      <g>
       <use style="stroke:#000000;stroke-width:0.5;" x="589.383856" xlink:href="#md877c5c57e" y="324"/>
      </g>
     </g>
     <g id="line2d_23">
      <g>
       <use style="stroke:#000000;stroke-width:0.5;" x="589.383856" xlink:href="#m4c1aae0051" y="36"/>
      </g>
     </g>
     <g id="text_10">
      <!-- 136 -->
      <g transform="translate(577.931356 337.118125)scale(0.12 -0.12)">
       <use xlink:href="#DejaVuSans-49"/>
       <use x="63.623047" xlink:href="#DejaVuSans-51"/>
       <use x="127.246094" xlink:href="#DejaVuSans-54"/>
      </g>
     </g>
    </g>
    <g id="text_11">
     <!-- generation -->
     <defs>
      <path d="M 45.40625 27.984375 
Q 45.40625 37.75 41.375 43.109375 
Q 37.359375 48.484375 30.078125 48.484375 
Q 22.859375 48.484375 18.828125 43.109375 
Q 14.796875 37.75 14.796875 27.984375 
Q 14.796875 18.265625 18.828125 12.890625 
Q 22.859375 7.515625 30.078125 7.515625 
Q 37.359375 7.515625 41.375 12.890625 
Q 45.40625 18.265625 45.40625 27.984375 
z
M 54.390625 6.78125 
Q 54.390625 -7.171875 48.1875 -13.984375 
Q 42 -20.796875 29.203125 -20.796875 
Q 24.46875 -20.796875 20.265625 -20.09375 
Q 16.0625 -19.390625 12.109375 -17.921875 
L 12.109375 -9.1875 
Q 16.0625 -11.328125 19.921875 -12.34375 
Q 23.78125 -13.375 27.78125 -13.375 
Q 36.625 -13.375 41.015625 -8.765625 
Q 45.40625 -4.15625 45.40625 5.171875 
L 45.40625 9.625 
Q 42.625 4.78125 38.28125 2.390625 
Q 33.9375 0 27.875 0 
Q 17.828125 0 11.671875 7.65625 
Q 5.515625 15.328125 5.515625 27.984375 
Q 5.515625 40.671875 11.671875 48.328125 
Q 17.828125 56 27.875 56 
Q 33.9375 56 38.28125 53.609375 
Q 42.625 51.21875 45.40625 46.390625 
L 45.40625 54.6875 
L 54.390625 54.6875 
z
" id="DejaVuSans-103"/>
      <path d="M 56.203125 29.59375 
L 56.203125 25.203125 
L 14.890625 25.203125 
Q 15.484375 15.921875 20.484375 11.0625 
Q 25.484375 6.203125 34.421875 6.203125 
Q 39.59375 6.203125 44.453125 7.46875 
Q 49.3125 8.734375 54.109375 11.28125 
L 54.109375 2.78125 
Q 49.265625 0.734375 44.1875 -0.34375 
Q 39.109375 -1.421875 33.890625 -1.421875 
Q 20.796875 -1.421875 13.15625 6.1875 
Q 5.515625 13.8125 5.515625 26.8125 
Q 5.515625 40.234375 12.765625 48.109375 
Q 20.015625 56 32.328125 56 
Q 43.359375 56 49.78125 48.890625 
Q 56.203125 41.796875 56.203125 29.59375 
z
M 47.21875 32.234375 
Q 47.125 39.59375 43.09375 43.984375 
Q 39.0625 48.390625 32.421875 48.390625 
Q 24.90625 48.390625 20.390625 44.140625 
Q 15.875 39.890625 15.1875 32.171875 
z
" id="DejaVuSans-101"/>
      <path d="M 54.890625 33.015625 
L 54.890625 0 
L 45.90625 0 
L 45.90625 32.71875 
Q 45.90625 40.484375 42.875 44.328125 
Q 39.84375 48.1875 33.796875 48.1875 
Q 26.515625 48.1875 22.3125 43.546875 
Q 18.109375 38.921875 18.109375 30.90625 
L 18.109375 0 
L 9.078125 0 
L 9.078125 54.6875 
L 18.109375 54.6875 
L 18.109375 46.1875 
Q 21.34375 51.125 25.703125 53.5625 
Q 30.078125 56 35.796875 56 
Q 45.21875 56 50.046875 50.171875 
Q 54.890625 44.34375 54.890625 33.015625 
z
" id="DejaVuSans-110"/>
      <path d="M 41.109375 46.296875 
Q 39.59375 47.171875 37.8125 47.578125 
Q 36.03125 48 33.890625 48 
Q 26.265625 48 22.1875 43.046875 
Q 18.109375 38.09375 18.109375 28.8125 
L 18.109375 0 
L 9.078125 0 
L 9.078125 54.6875 
L 18.109375 54.6875 
L 18.109375 46.1875 
Q 20.953125 51.171875 25.484375 53.578125 
Q 30.03125 56 36.53125 56 
Q 37.453125 56 38.578125 55.875 
Q 39.703125 55.765625 41.0625 55.515625 
z
" id="DejaVuSans-114"/>
      <path d="M 34.28125 27.484375 
Q 23.390625 27.484375 19.1875 25 
Q 14.984375 22.515625 14.984375 16.5 
Q 14.984375 11.71875 18.140625 8.90625 
Q 21.296875 6.109375 26.703125 6.109375 
Q 34.1875 6.109375 38.703125 11.40625 
Q 43.21875 16.703125 43.21875 25.484375 
L 43.21875 27.484375 
z
M 52.203125 31.203125 
L 52.203125 0 
L 43.21875 0 
L 43.21875 8.296875 
Q 40.140625 3.328125 35.546875 0.953125 
Q 30.953125 -1.421875 24.3125 -1.421875 
Q 15.921875 -1.421875 10.953125 3.296875 
Q 6 8.015625 6 15.921875 
Q 6 25.140625 12.171875 29.828125 
Q 18.359375 34.515625 30.609375 34.515625 
L 43.21875 34.515625 
L 43.21875 35.40625 
Q 43.21875 41.609375 39.140625 45 
Q 35.0625 48.390625 27.6875 48.390625 
Q 23 48.390625 18.546875 47.265625 
Q 14.109375 46.140625 10.015625 43.890625 
L 10.015625 52.203125 
Q 14.9375 54.109375 19.578125 55.046875 
Q 24.21875 56 28.609375 56 
Q 40.484375 56 46.34375 49.84375 
Q 52.203125 43.703125 52.203125 31.203125 
z
" id="DejaVuSans-97"/>
      <path d="M 18.3125 70.21875 
L 18.3125 54.6875 
L 36.8125 54.6875 
L 36.8125 47.703125 
L 18.3125 47.703125 
L 18.3125 18.015625 
Q 18.3125 11.328125 20.140625 9.421875 
Q 21.96875 7.515625 27.59375 7.515625 
L 36.8125 7.515625 
L 36.8125 0 
L 27.59375 0 
Q 17.1875 0 13.234375 3.875 
Q 9.28125 7.765625 9.28125 18.015625 
L 9.28125 47.703125 
L 2.6875 47.703125 
L 2.6875 54.6875 
L 9.28125 54.6875 
L 9.28125 70.21875 
z
" id="DejaVuSans-116"/>
      <path d="M 9.421875 54.6875 
L 18.40625 54.6875 
L 18.40625 0 
L 9.421875 0 
z
M 9.421875 75.984375 
L 18.40625 75.984375 
L 18.40625 64.59375 
L 9.421875 64.59375 
z
" id="DejaVuSans-105"/>
      <path d="M 30.609375 48.390625 
Q 23.390625 48.390625 19.1875 42.75 
Q 14.984375 37.109375 14.984375 27.296875 
Q 14.984375 17.484375 19.15625 11.84375 
Q 23.34375 6.203125 30.609375 6.203125 
Q 37.796875 6.203125 41.984375 11.859375 
Q 46.1875 17.53125 46.1875 27.296875 
Q 46.1875 37.015625 41.984375 42.703125 
Q 37.796875 48.390625 30.609375 48.390625 
z
M 30.609375 56 
Q 42.328125 56 49.015625 48.375 
Q 55.71875 40.765625 55.71875 27.296875 
Q 55.71875 13.875 49.015625 6.21875 
Q 42.328125 -1.421875 30.609375 -1.421875 
Q 18.84375 -1.421875 12.171875 6.21875 
Q 5.515625 13.875 5.515625 27.296875 
Q 5.515625 40.765625 12.171875 48.375 
Q 18.84375 56 30.609375 56 
z
" id="DejaVuSans-111"/>
     </defs>
     <g transform="translate(341.430938 353.731875)scale(0.12 -0.12)">
      <use xlink:href="#DejaVuSans-103"/>
      <use x="63.476562" xlink:href="#DejaVuSans-101"/>
      <use x="125" xlink:href="#DejaVuSans-110"/>
      <use x="188.378906" xlink:href="#DejaVuSans-101"/>
      <use x="249.902344" xlink:href="#DejaVuSans-114"/>
      <use x="291.015625" xlink:href="#DejaVuSans-97"/>
      <use x="352.294922" xlink:href="#DejaVuSans-116"/>
      <use x="391.503906" xlink:href="#DejaVuSans-105"/>
      <use x="419.287109" xlink:href="#DejaVuSans-111"/>
      <use x="480.46875" xlink:href="#DejaVuSans-110"/>
     </g>
    </g>
   </g>
   <g id="matplotlib.axis_2">
    <g id="ytick_1">
     <g id="line2d_24">
      <defs>
       <path d="M 0 0 
L 4 0 
" id="m571cb40c7d" style="stroke:#000000;stroke-width:0.5;"/>
      </defs>
      <g>
       <use style="stroke:#000000;stroke-width:0.5;" x="112.5" xlink:href="#m571cb40c7d" y="324"/>
      </g>
     </g>
     <g id="line2d_25">
      <defs>
       <path d="M 0 0 
L -4 0 
" id="m0494d12b2d" style="stroke:#000000;stroke-width:0.5;"/>
      </defs>
      <g>
       <use style="stroke:#000000;stroke-width:0.5;" x="635.625" xlink:href="#m0494d12b2d" y="324"/>
      </g>
     </g>
     <g id="text_12">
      <!-- 0.16 -->
      <defs>
       <path d="M 10.6875 12.40625 
L 21 12.40625 
L 21 0 
L 10.6875 0 
z
" id="DejaVuSans-46"/>
      </defs>
      <g transform="translate(81.78125 327.31125)scale(0.12 -0.12)">
       <use xlink:href="#DejaVuSans-48"/>
       <use x="63.623047" xlink:href="#DejaVuSans-46"/>
       <use x="95.410156" xlink:href="#DejaVuSans-49"/>
       <use x="159.033203" xlink:href="#DejaVuSans-54"/>
      </g>
     </g>
    </g>
    <g id="ytick_2">
     <g id="line2d_26">
      <g>
       <use style="stroke:#000000;stroke-width:0.5;" x="112.5" xlink:href="#m571cb40c7d" y="288"/>
      </g>
     </g>
     <g id="line2d_27">
      <g>
       <use style="stroke:#000000;stroke-width:0.5;" x="635.625" xlink:href="#m0494d12b2d" y="288"/>
      </g>
     </g>
     <g id="text_13">
      <!-- 0.18 -->
      <defs>
       <path d="M 31.78125 34.625 
Q 24.75 34.625 20.71875 30.859375 
Q 16.703125 27.09375 16.703125 20.515625 
Q 16.703125 13.921875 20.71875 10.15625 
Q 24.75 6.390625 31.78125 6.390625 
Q 38.8125 6.390625 42.859375 10.171875 
Q 46.921875 13.96875 46.921875 20.515625 
Q 46.921875 27.09375 42.890625 30.859375 
Q 38.875 34.625 31.78125 34.625 
z
M 21.921875 38.8125 
Q 15.578125 40.375 12.03125 44.71875 
Q 8.5 49.078125 8.5 55.328125 
Q 8.5 64.0625 14.71875 69.140625 
Q 20.953125 74.21875 31.78125 74.21875 
Q 42.671875 74.21875 48.875 69.140625 
Q 55.078125 64.0625 55.078125 55.328125 
Q 55.078125 49.078125 51.53125 44.71875 
Q 48 40.375 41.703125 38.8125 
Q 48.828125 37.15625 52.796875 32.3125 
Q 56.78125 27.484375 56.78125 20.515625 
Q 56.78125 9.90625 50.3125 4.234375 
Q 43.84375 -1.421875 31.78125 -1.421875 
Q 19.734375 -1.421875 13.25 4.234375 
Q 6.78125 9.90625 6.78125 20.515625 
Q 6.78125 27.484375 10.78125 32.3125 
Q 14.796875 37.15625 21.921875 38.8125 
z
M 18.3125 54.390625 
Q 18.3125 48.734375 21.84375 45.5625 
Q 25.390625 42.390625 31.78125 42.390625 
Q 38.140625 42.390625 41.71875 45.5625 
Q 45.3125 48.734375 45.3125 54.390625 
Q 45.3125 60.0625 41.71875 63.234375 
Q 38.140625 66.40625 31.78125 66.40625 
Q 25.390625 66.40625 21.84375 63.234375 
Q 18.3125 60.0625 18.3125 54.390625 
z
" id="DejaVuSans-56"/>
      </defs>
      <g transform="translate(81.78125 291.31125)scale(0.12 -0.12)">
       <use xlink:href="#DejaVuSans-48"/>
       <use x="63.623047" xlink:href="#DejaVuSans-46"/>
       <use x="95.410156" xlink:href="#DejaVuSans-49"/>
       <use x="159.033203" xlink:href="#DejaVuSans-56"/>
      </g>
     </g>
    </g>
    <g id="ytick_3">
     <g id="line2d_28">
      <g>
       <use style="stroke:#000000;stroke-width:0.5;" x="112.5" xlink:href="#m571cb40c7d" y="252"/>
      </g>
     </g>
     <g id="line2d_29">
      <g>
       <use style="stroke:#000000;stroke-width:0.5;" x="635.625" xlink:href="#m0494d12b2d" y="252"/>
      </g>
     </g>
     <g id="text_14">
      <!-- 0.20 -->
      <g transform="translate(81.78125 255.31125)scale(0.12 -0.12)">
       <use xlink:href="#DejaVuSans-48"/>
       <use x="63.623047" xlink:href="#DejaVuSans-46"/>
       <use x="95.410156" xlink:href="#DejaVuSans-50"/>
       <use x="159.033203" xlink:href="#DejaVuSans-48"/>
      </g>
     </g>
    </g>
    <g id="ytick_4">
     <g id="line2d_30">
      <g>
       <use style="stroke:#000000;stroke-width:0.5;" x="112.5" xlink:href="#m571cb40c7d" y="216"/>
      </g>
     </g>
     <g id="line2d_31">
      <g>
       <use style="stroke:#000000;stroke-width:0.5;" x="635.625" xlink:href="#m0494d12b2d" y="216"/>
      </g>
     </g>
     <g id="text_15">
      <!-- 0.22 -->
      <g transform="translate(81.78125 219.31125)scale(0.12 -0.12)">
       <use xlink:href="#DejaVuSans-48"/>
       <use x="63.623047" xlink:href="#DejaVuSans-46"/>
       <use x="95.410156" xlink:href="#DejaVuSans-50"/>
       <use x="159.033203" xlink:href="#DejaVuSans-50"/>
      </g>
     </g>
    </g>
    <g id="ytick_5">
     <g id="line2d_32">
      <g>
       <use style="stroke:#000000;stroke-width:0.5;" x="112.5" xlink:href="#m571cb40c7d" y="180"/>
      </g>
     </g>
     <g id="line2d_33">
      <g>
       <use style="stroke:#000000;stroke-width:0.5;" x="635.625" xlink:href="#m0494d12b2d" y="180"/>
      </g>
     </g>
     <g id="text_16">
      <!-- 0.24 -->
      <g transform="translate(81.78125 183.31125)scale(0.12 -0.12)">
       <use xlink:href="#DejaVuSans-48"/>
       <use x="63.623047" xlink:href="#DejaVuSans-46"/>
       <use x="95.410156" xlink:href="#DejaVuSans-50"/>
       <use x="159.033203" xlink:href="#DejaVuSans-52"/>
      </g>
     </g>
    </g>
    <g id="ytick_6">
     <g id="line2d_34">
      <g>
       <use style="stroke:#000000;stroke-width:0.5;" x="112.5" xlink:href="#m571cb40c7d" y="144"/>
      </g>
     </g>
     <g id="line2d_35">
      <g>
       <use style="stroke:#000000;stroke-width:0.5;" x="635.625" xlink:href="#m0494d12b2d" y="144"/>
      </g>
     </g>
     <g id="text_17">
      <!-- 0.26 -->
      <g transform="translate(81.78125 147.31125)scale(0.12 -0.12)">
       <use xlink:href="#DejaVuSans-48"/>
       <use x="63.623047" xlink:href="#DejaVuSans-46"/>
       <use x="95.410156" xlink:href="#DejaVuSans-50"/>
       <use x="159.033203" xlink:href="#DejaVuSans-54"/>
      </g>
     </g>
    </g>
    <g id="ytick_7">
     <g id="line2d_36">
      <g>
       <use style="stroke:#000000;stroke-width:0.5;" x="112.5" xlink:href="#m571cb40c7d" y="108"/>
      </g>
     </g>
     <g id="line2d_37">
      <g>
       <use style="stroke:#000000;stroke-width:0.5;" x="635.625" xlink:href="#m0494d12b2d" y="108"/>
      </g>
     </g>
     <g id="text_18">
      <!-- 0.28 -->
      <g transform="translate(81.78125 111.31125)scale(0.12 -0.12)">
       <use xlink:href="#DejaVuSans-48"/>
       <use x="63.623047" xlink:href="#DejaVuSans-46"/>
       <use x="95.410156" xlink:href="#DejaVuSans-50"/>
       <use x="159.033203" xlink:href="#DejaVuSans-56"/>
      </g>
     </g>
    </g>
    <g id="ytick_8">
     <g id="line2d_38">
      <g>
       <use style="stroke:#000000;stroke-width:0.5;" x="112.5" xlink:href="#m571cb40c7d" y="72"/>
      </g>
     </g>
     <g id="line2d_39">
      <g>
       <use style="stroke:#000000;stroke-width:0.5;" x="635.625" xlink:href="#m0494d12b2d" y="72"/>
      </g>
     </g>
     <g id="text_19">
      <!-- 0.30 -->
      <g transform="translate(81.78125 75.31125)scale(0.12 -0.12)">
       <use xlink:href="#DejaVuSans-48"/>
       <use x="63.623047" xlink:href="#DejaVuSans-46"/>
       <use x="95.410156" xlink:href="#DejaVuSans-51"/>
       <use x="159.033203" xlink:href="#DejaVuSans-48"/>
      </g>
     </g>
    </g>
    <g id="ytick_9">
     <g id="line2d_40">
      <g>
       <use style="stroke:#000000;stroke-width:0.5;" x="112.5" xlink:href="#m571cb40c7d" y="36"/>
      </g>
     </g>
     <g id="line2d_41">
      <g>
       <use style="stroke:#000000;stroke-width:0.5;" x="635.625" xlink:href="#m0494d12b2d" y="36"/>
      </g>
     </g>
     <g id="text_20">
      <!-- 0.32 -->
      <g transform="translate(81.78125 39.31125)scale(0.12 -0.12)">
       <use xlink:href="#DejaVuSans-48"/>
       <use x="63.623047" xlink:href="#DejaVuSans-46"/>
       <use x="95.410156" xlink:href="#DejaVuSans-51"/>
       <use x="159.033203" xlink:href="#DejaVuSans-50"/>
      </g>
     </g>
    </g>
    <g id="text_21">
     <!-- los -->
     <defs>
      <path d="M 9.421875 75.984375 
L 18.40625 75.984375 
L 18.40625 0 
L 9.421875 0 
z
" id="DejaVuSans-108"/>
      <path d="M 44.28125 53.078125 
L 44.28125 44.578125 
Q 40.484375 46.53125 36.375 47.5 
Q 32.28125 48.484375 27.875 48.484375 
Q 21.1875 48.484375 17.84375 46.4375 
Q 14.5 44.390625 14.5 40.28125 
Q 14.5 37.15625 16.890625 35.375 
Q 19.28125 33.59375 26.515625 31.984375 
L 29.59375 31.296875 
Q 39.15625 29.25 43.1875 25.515625 
Q 47.21875 21.78125 47.21875 15.09375 
Q 47.21875 7.46875 41.1875 3.015625 
Q 35.15625 -1.421875 24.609375 -1.421875 
Q 20.21875 -1.421875 15.453125 -0.5625 
Q 10.6875 0.296875 5.421875 2 
L 5.421875 11.28125 
Q 10.40625 8.6875 15.234375 7.390625 
Q 20.0625 6.109375 24.8125 6.109375 
Q 31.15625 6.109375 34.5625 8.28125 
Q 37.984375 10.453125 37.984375 14.40625 
Q 37.984375 18.0625 35.515625 20.015625 
Q 33.0625 21.96875 24.703125 23.78125 
L 21.578125 24.515625 
Q 13.234375 26.265625 9.515625 29.90625 
Q 5.8125 33.546875 5.8125 39.890625 
Q 5.8125 47.609375 11.28125 51.796875 
Q 16.75 56 26.8125 56 
Q 31.78125 56 36.171875 55.265625 
Q 40.578125 54.546875 44.28125 53.078125 
z
" id="DejaVuSans-115"/>
     </defs>
     <g transform="translate(74.285625 188.46375)rotate(-90)scale(0.12 -0.12)">
      <use xlink:href="#DejaVuSans-108"/>
      <use x="27.783203" xlink:href="#DejaVuSans-111"/>
      <use x="88.964844" xlink:href="#DejaVuSans-115"/>
     </g>
    </g>
   </g>
   <g id="legend_1">
    <g id="patch_7">
     <path d="M 640.623 203.924801 
L 847.074761 203.924801 
L 847.074761 156.075199 
L 640.623 156.075199 
z
" style="fill:#ffffff;stroke:#000000;stroke-linejoin:miter;"/>
    </g>
    <g id="line2d_42">
     <path d="M 647.6202 164.170397 
L 661.6146 164.170397 
" style="fill:none;stroke:#0000ff;stroke-linecap:square;stroke-width:1.2;"/>
    </g>
    <g id="line2d_43"/>
    <g id="text_22">
     <!-- Lonely_Los_Layers_Mut_All_Copy3 -->
     <defs>
      <path d="M 9.8125 72.90625 
L 19.671875 72.90625 
L 19.671875 8.296875 
L 55.171875 8.296875 
L 55.171875 0 
L 9.8125 0 
z
" id="DejaVuSans-76"/>
      <path d="M 32.171875 -5.078125 
Q 28.375 -14.84375 24.75 -17.8125 
Q 21.140625 -20.796875 15.09375 -20.796875 
L 7.90625 -20.796875 
L 7.90625 -13.28125 
L 13.1875 -13.28125 
Q 16.890625 -13.28125 18.9375 -11.515625 
Q 21 -9.765625 23.484375 -3.21875 
L 25.09375 0.875 
L 2.984375 54.6875 
L 12.5 54.6875 
L 29.59375 11.921875 
L 46.6875 54.6875 
L 56.203125 54.6875 
z
" id="DejaVuSans-121"/>
      <path d="M 50.984375 -16.609375 
L 50.984375 -23.578125 
L -0.984375 -23.578125 
L -0.984375 -16.609375 
z
" id="DejaVuSans-95"/>
      <path d="M 9.8125 72.90625 
L 24.515625 72.90625 
L 43.109375 23.296875 
L 61.8125 72.90625 
L 76.515625 72.90625 
L 76.515625 0 
L 66.890625 0 
L 66.890625 64.015625 
L 48.09375 14.015625 
L 38.1875 14.015625 
L 19.390625 64.015625 
L 19.390625 0 
L 9.8125 0 
z
" id="DejaVuSans-77"/>
      <path d="M 8.5 21.578125 
L 8.5 54.6875 
L 17.484375 54.6875 
L 17.484375 21.921875 
Q 17.484375 14.15625 20.5 10.265625 
Q 23.53125 6.390625 29.59375 6.390625 
Q 36.859375 6.390625 41.078125 11.03125 
Q 45.3125 15.671875 45.3125 23.6875 
L 45.3125 54.6875 
L 54.296875 54.6875 
L 54.296875 0 
L 45.3125 0 
L 45.3125 8.40625 
Q 42.046875 3.421875 37.71875 1 
Q 33.40625 -1.421875 27.6875 -1.421875 
Q 18.265625 -1.421875 13.375 4.4375 
Q 8.5 10.296875 8.5 21.578125 
z
M 31.109375 56 
z
" id="DejaVuSans-117"/>
      <path d="M 34.1875 63.1875 
L 20.796875 26.90625 
L 47.609375 26.90625 
z
M 28.609375 72.90625 
L 39.796875 72.90625 
L 67.578125 0 
L 57.328125 0 
L 50.6875 18.703125 
L 17.828125 18.703125 
L 11.1875 0 
L 0.78125 0 
z
" id="DejaVuSans-65"/>
      <path d="M 64.40625 67.28125 
L 64.40625 56.890625 
Q 59.421875 61.53125 53.78125 63.8125 
Q 48.140625 66.109375 41.796875 66.109375 
Q 29.296875 66.109375 22.65625 58.46875 
Q 16.015625 50.828125 16.015625 36.375 
Q 16.015625 21.96875 22.65625 14.328125 
Q 29.296875 6.6875 41.796875 6.6875 
Q 48.140625 6.6875 53.78125 8.984375 
Q 59.421875 11.28125 64.40625 15.921875 
L 64.40625 5.609375 
Q 59.234375 2.09375 53.4375 0.328125 
Q 47.65625 -1.421875 41.21875 -1.421875 
Q 24.65625 -1.421875 15.125 8.703125 
Q 5.609375 18.84375 5.609375 36.375 
Q 5.609375 53.953125 15.125 64.078125 
Q 24.65625 74.21875 41.21875 74.21875 
Q 47.75 74.21875 53.53125 72.484375 
Q 59.328125 70.75 64.40625 67.28125 
z
" id="DejaVuSans-67"/>
      <path d="M 18.109375 8.203125 
L 18.109375 -20.796875 
L 9.078125 -20.796875 
L 9.078125 54.6875 
L 18.109375 54.6875 
L 18.109375 46.390625 
Q 20.953125 51.265625 25.265625 53.625 
Q 29.59375 56 35.59375 56 
Q 45.5625 56 51.78125 48.09375 
Q 58.015625 40.1875 58.015625 27.296875 
Q 58.015625 14.40625 51.78125 6.484375 
Q 45.5625 -1.421875 35.59375 -1.421875 
Q 29.59375 -1.421875 25.265625 0.953125 
Q 20.953125 3.328125 18.109375 8.203125 
z
M 48.6875 27.296875 
Q 48.6875 37.203125 44.609375 42.84375 
Q 40.53125 48.484375 33.40625 48.484375 
Q 26.265625 48.484375 22.1875 42.84375 
Q 18.109375 37.203125 18.109375 27.296875 
Q 18.109375 17.390625 22.1875 11.75 
Q 26.265625 6.109375 33.40625 6.109375 
Q 40.53125 6.109375 44.609375 11.75 
Q 48.6875 17.390625 48.6875 27.296875 
z
" id="DejaVuSans-112"/>
     </defs>
     <g transform="translate(672.6102 167.668997)scale(0.09996 -0.09996)">
      <use xlink:href="#DejaVuSans-76"/>
      <use x="53.962891" xlink:href="#DejaVuSans-111"/>
      <use x="115.144531" xlink:href="#DejaVuSans-110"/>
      <use x="178.523438" xlink:href="#DejaVuSans-101"/>
      <use x="240.046875" xlink:href="#DejaVuSans-108"/>
      <use x="267.830078" xlink:href="#DejaVuSans-121"/>
      <use x="327.009766" xlink:href="#DejaVuSans-95"/>
      <use x="377.009766" xlink:href="#DejaVuSans-76"/>
      <use x="430.972656" xlink:href="#DejaVuSans-111"/>
      <use x="492.154297" xlink:href="#DejaVuSans-115"/>
      <use x="544.253906" xlink:href="#DejaVuSans-95"/>
      <use x="594.253906" xlink:href="#DejaVuSans-76"/>
      <use x="649.966797" xlink:href="#DejaVuSans-97"/>
      <use x="711.246094" xlink:href="#DejaVuSans-121"/>
      <use x="770.425781" xlink:href="#DejaVuSans-101"/>
      <use x="831.949219" xlink:href="#DejaVuSans-114"/>
      <use x="873.0625" xlink:href="#DejaVuSans-115"/>
      <use x="925.162109" xlink:href="#DejaVuSans-95"/>
      <use x="975.162109" xlink:href="#DejaVuSans-77"/>
      <use x="1061.441406" xlink:href="#DejaVuSans-117"/>
      <use x="1124.820312" xlink:href="#DejaVuSans-116"/>
      <use x="1164.029297" xlink:href="#DejaVuSans-95"/>
      <use x="1214.029297" xlink:href="#DejaVuSans-65"/>
      <use x="1282.4375" xlink:href="#DejaVuSans-108"/>
      <use x="1310.220703" xlink:href="#DejaVuSans-108"/>
      <use x="1338.003906" xlink:href="#DejaVuSans-95"/>
      <use x="1388.003906" xlink:href="#DejaVuSans-67"/>
      <use x="1457.828125" xlink:href="#DejaVuSans-111"/>
      <use x="1519.009766" xlink:href="#DejaVuSans-112"/>
      <use x="1582.486328" xlink:href="#DejaVuSans-121"/>
      <use x="1641.666016" xlink:href="#DejaVuSans-51"/>
     </g>
    </g>
    <g id="line2d_44">
     <path d="M 647.6202 179.120664 
L 661.6146 179.120664 
" style="fill:none;stroke:#008000;stroke-linecap:square;stroke-width:1.2;"/>
    </g>
    <g id="line2d_45"/>
    <g id="text_23">
     <!-- Lonely_Los_Layers_Mut_All_Copy4 -->
     <g transform="translate(672.6102 182.619264)scale(0.09996 -0.09996)">
      <use xlink:href="#DejaVuSans-76"/>
      <use x="53.962891" xlink:href="#DejaVuSans-111"/>
      <use x="115.144531" xlink:href="#DejaVuSans-110"/>
      <use x="178.523438" xlink:href="#DejaVuSans-101"/>
      <use x="240.046875" xlink:href="#DejaVuSans-108"/>
      <use x="267.830078" xlink:href="#DejaVuSans-121"/>
      <use x="327.009766" xlink:href="#DejaVuSans-95"/>
      <use x="377.009766" xlink:href="#DejaVuSans-76"/>
      <use x="430.972656" xlink:href="#DejaVuSans-111"/>
      <use x="492.154297" xlink:href="#DejaVuSans-115"/>
      <use x="544.253906" xlink:href="#DejaVuSans-95"/>
      <use x="594.253906" xlink:href="#DejaVuSans-76"/>
      <use x="649.966797" xlink:href="#DejaVuSans-97"/>
      <use x="711.246094" xlink:href="#DejaVuSans-121"/>
      <use x="770.425781" xlink:href="#DejaVuSans-101"/>
      <use x="831.949219" xlink:href="#DejaVuSans-114"/>
      <use x="873.0625" xlink:href="#DejaVuSans-115"/>
      <use x="925.162109" xlink:href="#DejaVuSans-95"/>
      <use x="975.162109" xlink:href="#DejaVuSans-77"/>
      <use x="1061.441406" xlink:href="#DejaVuSans-117"/>
      <use x="1124.820312" xlink:href="#DejaVuSans-116"/>
      <use x="1164.029297" xlink:href="#DejaVuSans-95"/>
      <use x="1214.029297" xlink:href="#DejaVuSans-65"/>
      <use x="1282.4375" xlink:href="#DejaVuSans-108"/>
      <use x="1310.220703" xlink:href="#DejaVuSans-108"/>
      <use x="1338.003906" xlink:href="#DejaVuSans-95"/>
      <use x="1388.003906" xlink:href="#DejaVuSans-67"/>
      <use x="1457.828125" xlink:href="#DejaVuSans-111"/>
      <use x="1519.009766" xlink:href="#DejaVuSans-112"/>
      <use x="1582.486328" xlink:href="#DejaVuSans-121"/>
      <use x="1641.666016" xlink:href="#DejaVuSans-52"/>
     </g>
    </g>
    <g id="line2d_46">
     <path d="M 647.6202 194.070932 
L 661.6146 194.070932 
" style="fill:none;stroke:#ff0000;stroke-linecap:square;stroke-width:1.2;"/>
    </g>
    <g id="line2d_47"/>
    <g id="text_24">
     <!-- Lonely_Los_Layers_Mut_All_Copy5 -->
     <defs>
      <path d="M 10.796875 72.90625 
L 49.515625 72.90625 
L 49.515625 64.59375 
L 19.828125 64.59375 
L 19.828125 46.734375 
Q 21.96875 47.46875 24.109375 47.828125 
Q 26.265625 48.1875 28.421875 48.1875 
Q 40.625 48.1875 47.75 41.5 
Q 54.890625 34.8125 54.890625 23.390625 
Q 54.890625 11.625 47.5625 5.09375 
Q 40.234375 -1.421875 26.90625 -1.421875 
Q 22.3125 -1.421875 17.546875 -0.640625 
Q 12.796875 0.140625 7.71875 1.703125 
L 7.71875 11.625 
Q 12.109375 9.234375 16.796875 8.0625 
Q 21.484375 6.890625 26.703125 6.890625 
Q 35.15625 6.890625 40.078125 11.328125 
Q 45.015625 15.765625 45.015625 23.390625 
Q 45.015625 31 40.078125 35.4375 
Q 35.15625 39.890625 26.703125 39.890625 
Q 22.75 39.890625 18.8125 39.015625 
Q 14.890625 38.140625 10.796875 36.28125 
z
" id="DejaVuSans-53"/>
     </defs>
     <g transform="translate(672.6102 197.569532)scale(0.09996 -0.09996)">
      <use xlink:href="#DejaVuSans-76"/>
      <use x="53.962891" xlink:href="#DejaVuSans-111"/>
      <use x="115.144531" xlink:href="#DejaVuSans-110"/>
      <use x="178.523438" xlink:href="#DejaVuSans-101"/>
      <use x="240.046875" xlink:href="#DejaVuSans-108"/>
      <use x="267.830078" xlink:href="#DejaVuSans-121"/>
      <use x="327.009766" xlink:href="#DejaVuSans-95"/>
      <use x="377.009766" xlink:href="#DejaVuSans-76"/>
      <use x="430.972656" xlink:href="#DejaVuSans-111"/>
      <use x="492.154297" xlink:href="#DejaVuSans-115"/>
      <use x="544.253906" xlink:href="#DejaVuSans-95"/>
      <use x="594.253906" xlink:href="#DejaVuSans-76"/>
      <use x="649.966797" xlink:href="#DejaVuSans-97"/>
      <use x="711.246094" xlink:href="#DejaVuSans-121"/>
      <use x="770.425781" xlink:href="#DejaVuSans-101"/>
      <use x="831.949219" xlink:href="#DejaVuSans-114"/>
      <use x="873.0625" xlink:href="#DejaVuSans-115"/>
      <use x="925.162109" xlink:href="#DejaVuSans-95"/>
      <use x="975.162109" xlink:href="#DejaVuSans-77"/>
      <use x="1061.441406" xlink:href="#DejaVuSans-117"/>
      <use x="1124.820312" xlink:href="#DejaVuSans-116"/>
      <use x="1164.029297" xlink:href="#DejaVuSans-95"/>
      <use x="1214.029297" xlink:href="#DejaVuSans-65"/>
      <use x="1282.4375" xlink:href="#DejaVuSans-108"/>
      <use x="1310.220703" xlink:href="#DejaVuSans-108"/>
      <use x="1338.003906" xlink:href="#DejaVuSans-95"/>
      <use x="1388.003906" xlink:href="#DejaVuSans-67"/>
      <use x="1457.828125" xlink:href="#DejaVuSans-111"/>
      <use x="1519.009766" xlink:href="#DejaVuSans-112"/>
      <use x="1582.486328" xlink:href="#DejaVuSans-121"/>
      <use x="1641.666016" xlink:href="#DejaVuSans-53"/>
     </g>
    </g>
   </g>
  </g>
  <g id="text_25">
   <!-- Average Loss -->
   <defs>
    <path d="M 2.984375 54.6875 
L 12.5 54.6875 
L 29.59375 8.796875 
L 46.6875 54.6875 
L 56.203125 54.6875 
L 35.6875 0 
L 23.484375 0 
z
" id="DejaVuSans-118"/>
    <path id="DejaVuSans-32"/>
   </defs>
   <g transform="translate(410.293125 16.318125)scale(0.12 -0.12)">
    <use xlink:href="#DejaVuSans-65"/>
    <use x="62.533203" xlink:href="#DejaVuSans-118"/>
    <use x="121.712891" xlink:href="#DejaVuSans-101"/>
    <use x="183.236328" xlink:href="#DejaVuSans-114"/>
    <use x="224.349609" xlink:href="#DejaVuSans-97"/>
    <use x="285.628906" xlink:href="#DejaVuSans-103"/>
    <use x="349.105469" xlink:href="#DejaVuSans-101"/>
    <use x="410.628906" xlink:href="#DejaVuSans-32"/>
    <use x="442.416016" xlink:href="#DejaVuSans-76"/>
    <use x="496.378906" xlink:href="#DejaVuSans-111"/>
    <use x="557.560547" xlink:href="#DejaVuSans-115"/>
    <use x="609.660156" xlink:href="#DejaVuSans-115"/>
   </g>
  </g>
 </g>
 <defs>
  <clipPath id="pf8abac9717">
   <rect height="288" width="523.125" x="112.5" y="36"/>
  </clipPath>
 </defs>
</svg>
