<?xml version="1.0" encoding="utf-8" standalone="no"?>
<!DOCTYPE svg PUBLIC "-//W3C//DTD SVG 1.1//EN"
  "http://www.w3.org/Graphics/SVG/1.1/DTD/svg11.dtd">
<!-- Created with matplotlib (https://matplotlib.org/) -->
<svg height="360pt" version="1.1" viewBox="0 0 900 360" width="900pt" xmlns="http://www.w3.org/2000/svg" xmlns:xlink="http://www.w3.org/1999/xlink">
 <defs>
  <style type="text/css">
*{stroke-linecap:butt;stroke-linejoin:round;}
  </style>
 </defs>
 <g id="figure_1">
  <g id="patch_1">
   <path d="M 0 360 
L 900 360 
L 900 0 
L 0 0 
z
" style="fill:#ffffff;"/>
  </g>
  <g id="axes_1">
   <g id="patch_2">
    <path d="M 112.5 324 
L 635.625 324 
L 635.625 36 
L 112.5 36 
z
" style="fill:#ffffff;"/>
   </g>
   <g id="line2d_1">
    <path clip-path="url(#pb40252b47a)" d="M 112.884086 45.230422 
L 116.724945 50.667235 
L 120.565804 51.349378 
L 124.406663 56.324933 
L 128.247522 60.462131 
L 132.088381 66.798051 
L 135.92924 73.568176 
L 139.770099 81.728041 
L 143.610958 89.25306 
L 147.451817 100.6468 
L 151.292676 108.621863 
L 155.133535 116.007943 
L 158.974394 121.785125 
L 162.815253 125.078497 
L 166.656112 127.566641 
L 170.496971 131.973051 
L 174.33783 134.755976 
L 178.178689 138.720414 
L 182.019548 144.513474 
L 185.860407 146.315288 
L 189.701267 150.160378 
L 197.382985 158.868619 
L 201.223844 162.117798 
L 205.064703 164.335887 
L 208.905562 166.010932 
L 212.746421 170.445037 
L 216.58728 174.257812 
L 220.428139 178.973769 
L 224.268998 178.338557 
L 228.109857 181.607852 
L 231.950716 182.985388 
L 235.791575 186.815042 
L 239.632434 189.836758 
L 243.473293 191.673655 
L 247.314152 194.19527 
L 251.155011 198.587499 
L 258.836729 204.757996 
L 262.677588 206.929927 
L 266.518447 210.210091 
L 270.359306 214.16281 
L 274.200165 215.714906 
L 281.881883 220.779711 
L 285.722742 224.815096 
L 289.563601 225.811755 
L 293.40446 227.798824 
L 297.245319 227.496715 
L 301.086178 231.114516 
L 304.927037 233.588948 
L 308.767896 234.506349 
L 312.608756 236.562478 
L 316.449615 238.36519 
L 320.290474 238.941634 
L 324.131333 241.780152 
L 327.972192 241.499198 
L 331.813051 241.064632 
L 335.65391 242.871007 
L 339.494769 243.262821 
L 343.335628 245.646862 
L 347.176487 247.265023 
L 351.017346 250.209594 
L 354.858205 251.770689 
L 358.699064 254.859951 
L 362.539923 256.042811 
L 366.380782 257.952619 
L 370.221641 256.51823 
L 374.0625 258.138621 
L 377.903359 257.965981 
L 381.744218 259.345374 
L 385.585077 256.313619 
L 389.425936 255.208529 
L 393.266795 255.512777 
L 397.107654 258.474908 
L 400.948513 257.898529 
L 404.789372 257.656408 
L 408.630231 257.216855 
L 412.47109 260.586878 
L 416.311949 261.571871 
L 420.152808 259.325188 
L 423.993667 259.591366 
L 431.675385 254.825194 
L 435.516244 253.327248 
L 439.357104 244.897207 
L 443.197963 239.456118 
L 447.038822 238.763215 
L 450.879681 233.718221 
L 454.72054 233.37207 
L 458.561399 232.847859 
L 462.402258 230.552297 
L 466.243117 237.0767 
L 470.083976 238.038737 
L 473.924835 237.213641 
L 481.606553 242.472628 
L 485.447412 244.297295 
L 489.288271 249.535957 
L 493.12913 250.525239 
L 496.969989 254.35758 
L 500.810848 257.40269 
L 504.651707 260.135248 
L 508.492566 259.068686 
L 512.333425 261.108121 
L 516.174284 259.208848 
L 520.015143 261.01356 
L 523.856002 263.411337 
L 527.696861 263.015328 
L 531.53772 261.60741 
L 535.378579 264.210296 
L 539.219438 263.952047 
L 543.060297 265.620491 
L 546.901156 265.15827 
L 550.742015 264.556638 
L 554.582874 266.785895 
L 558.423733 269.303482 
L 562.264593 268.257465 
L 566.105452 269.918407 
L 569.946311 269.902826 
L 577.628029 271.375936 
L 581.468888 270.973558 
L 585.309747 269.125035 
L 589.150606 271.19891 
L 592.991465 270.1598 
L 596.832324 270.971032 
L 600.673183 271.419608 
L 604.514042 269.976094 
L 608.354901 270.902415 
L 612.19576 271.6514 
L 616.036619 270.661665 
L 619.877478 270.852907 
L 623.718337 270.458786 
L 627.559196 269.613064 
L 631.400055 271.553389 
L 635.240914 270.380395 
L 635.240914 270.380395 
" style="fill:none;stroke:#0000ff;stroke-linecap:square;stroke-width:1.2;"/>
   </g>
   <g id="line2d_2">
    <path clip-path="url(#pb40252b47a)" d="M 112.884086 121.668518 
L 116.724945 131.620936 
L 120.565804 135.182693 
L 124.406663 143.038074 
L 128.247522 144.243039 
L 132.088381 143.840029 
L 135.92924 151.202685 
L 139.770099 153.969165 
L 143.610958 156.169863 
L 147.451817 159.377981 
L 151.292676 160.367009 
L 155.133535 161.526152 
L 158.974394 167.60831 
L 162.815253 172.739162 
L 166.656112 177.261526 
L 170.496971 182.971891 
L 178.178689 193.402928 
L 182.019548 197.960417 
L 185.860407 200.611336 
L 189.701267 200.475792 
L 193.542126 202.323892 
L 197.382985 200.363657 
L 201.223844 200.13027 
L 205.064703 200.888281 
L 208.905562 202.030819 
L 212.746421 204.454279 
L 216.58728 209.07611 
L 220.428139 209.937562 
L 224.268998 214.716034 
L 228.109857 219.236951 
L 231.950716 222.4291 
L 235.791575 225.318283 
L 239.632434 227.662457 
L 243.473293 230.319423 
L 247.314152 234.747054 
L 251.155011 236.710475 
L 254.99587 239.701675 
L 258.836729 242.208508 
L 262.677588 242.347667 
L 266.518447 246.083148 
L 270.359306 247.125756 
L 274.200165 249.114712 
L 278.041024 248.525095 
L 281.881883 248.278907 
L 285.722742 248.922307 
L 289.563601 251.563309 
L 293.40446 250.69148 
L 297.245319 250.834756 
L 301.086178 251.623163 
L 308.767896 254.96366 
L 312.608756 256.329477 
L 316.449615 258.64744 
L 320.290474 261.184973 
L 324.131333 263.585994 
L 327.972192 264.349328 
L 331.813051 266.936895 
L 335.65391 268.741857 
L 339.494769 269.945305 
L 343.335628 270.52423 
L 347.176487 270.262273 
L 351.017346 271.434507 
L 354.858205 272.051125 
L 358.699064 273.408672 
L 362.539923 273.783727 
L 366.380782 273.709149 
L 370.221641 274.532122 
L 374.0625 276.418937 
L 381.744218 277.980802 
L 385.585077 278.109389 
L 389.425936 277.535911 
L 397.107654 279.182422 
L 400.948513 277.820756 
L 404.789372 278.624884 
L 408.630231 279.150088 
L 412.47109 279.373971 
L 416.311949 280.803875 
L 420.152808 281.04928 
L 423.993667 281.488374 
L 427.834526 282.629864 
L 431.675385 282.55998 
L 435.516244 281.847818 
L 439.357104 282.476002 
L 443.197963 282.021343 
L 447.038822 281.318021 
L 450.879681 282.094055 
L 454.72054 281.94018 
L 458.561399 280.534521 
L 462.402258 281.184776 
L 466.243117 280.6062 
L 470.083976 281.139849 
L 473.924835 282.0562 
L 477.765694 280.940592 
L 481.606553 281.236174 
L 485.447412 283.554245 
L 489.288271 284.554424 
L 493.12913 285.002102 
L 496.969989 285.050541 
L 500.810848 284.938956 
L 504.651707 284.704441 
L 508.492566 285.821604 
L 512.333425 284.996961 
L 516.174284 284.435102 
L 520.015143 284.479589 
L 523.856002 281.285376 
L 527.696861 280.613539 
L 531.53772 278.397635 
L 535.378579 275.79159 
L 539.219438 275.682571 
L 543.060297 273.893319 
L 546.901156 269.881961 
L 550.742015 271.6228 
L 554.582874 269.584222 
L 558.423733 270.951477 
L 562.264593 269.763136 
L 566.105452 267.678703 
L 569.946311 267.97075 
L 573.78717 270.231299 
L 577.628029 269.576914 
L 581.468888 272.149151 
L 585.309747 272.901064 
L 589.150606 274.78704 
L 592.991465 276.376691 
L 596.832324 277.239077 
L 600.673183 277.973672 
L 608.354901 278.765789 
L 612.19576 278.572295 
L 616.036619 278.941108 
L 619.877478 278.851976 
L 623.718337 278.450554 
L 627.559196 278.741341 
L 631.400055 280.749774 
L 631.400055 280.749774 
" style="fill:none;stroke:#008000;stroke-linecap:square;stroke-width:1.2;"/>
   </g>
   <g id="line2d_3">
    <path clip-path="url(#pb40252b47a)" d="M 112.884086 176.035394 
L 116.724945 177.319748 
L 120.565804 174.312731 
L 124.406663 179.106817 
L 132.088381 180.097062 
L 135.92924 178.868725 
L 139.770099 180.3463 
L 143.610958 182.136889 
L 147.451817 183.531983 
L 151.292676 187.967698 
L 155.133535 192.881359 
L 158.974394 195.942326 
L 162.815253 202.184343 
L 166.656112 203.966219 
L 170.496971 206.385208 
L 174.33783 209.622993 
L 178.178689 207.958634 
L 182.019548 208.83147 
L 185.860407 214.555688 
L 189.701267 215.331423 
L 193.542126 218.857615 
L 197.382985 220.613521 
L 201.223844 224.294832 
L 205.064703 231.677982 
L 208.905562 233.765871 
L 212.746421 234.154624 
L 216.58728 236.54393 
L 220.428139 237.625886 
L 224.268998 240.176983 
L 228.109857 241.501296 
L 231.950716 242.418253 
L 235.791575 244.314752 
L 239.632434 245.32911 
L 243.473293 245.116297 
L 247.314152 248.489537 
L 251.155011 250.674921 
L 254.99587 253.527624 
L 258.836729 253.653714 
L 262.677588 254.773977 
L 266.518447 256.353041 
L 270.359306 258.590996 
L 274.200165 255.741789 
L 278.041024 254.318286 
L 281.881883 252.599255 
L 285.722742 252.713602 
L 289.563601 250.087242 
L 293.40446 250.519635 
L 301.086178 253.868774 
L 304.927037 257.166162 
L 308.767896 258.351473 
L 312.608756 257.817919 
L 316.449615 259.511959 
L 324.131333 258.723413 
L 327.972192 260.894727 
L 335.65391 260.167957 
L 339.494769 263.519044 
L 343.335628 265.607397 
L 347.176487 266.30143 
L 351.017346 267.644244 
L 358.699064 267.673156 
L 362.539923 270.522078 
L 366.380782 271.010848 
L 370.221641 271.124375 
L 374.0625 271.676716 
L 377.903359 270.95627 
L 381.744218 272.629361 
L 385.585077 274.603702 
L 389.425936 273.914232 
L 393.266795 274.46477 
L 397.107654 276.347926 
L 400.948513 278.791552 
L 404.789372 280.990731 
L 408.630231 281.870243 
L 412.47109 281.845903 
L 416.311949 283.313406 
L 420.152808 283.769056 
L 423.993667 283.935567 
L 427.834526 283.169959 
L 431.675385 282.764919 
L 435.516244 281.259422 
L 439.357104 278.153003 
L 443.197963 277.713086 
L 447.038822 278.211857 
L 450.879681 277.281215 
L 454.72054 276.717915 
L 458.561399 277.004635 
L 462.402258 278.606867 
L 466.243117 282.647265 
L 470.083976 282.394224 
L 473.924835 282.862244 
L 477.765694 284.310559 
L 481.606553 285.451635 
L 485.447412 284.335005 
L 489.288271 284.37557 
L 493.12913 283.869772 
L 496.969989 282.685723 
L 500.810848 280.688375 
L 504.651707 279.970248 
L 508.492566 279.861385 
L 512.333425 280.809067 
L 516.174284 280.610983 
L 520.015143 280.700793 
L 523.856002 282.891556 
L 527.696861 284.823891 
L 531.53772 286.57718 
L 535.378579 287.289319 
L 539.219438 287.419053 
L 543.060297 285.329595 
L 546.901156 284.045644 
L 550.742015 280.893786 
L 554.582874 280.334917 
L 562.264593 276.770189 
L 566.105452 270.499861 
L 569.946311 271.274033 
L 573.78717 271.879977 
L 577.628029 273.272048 
L 585.309747 272.229871 
L 589.150606 272.792946 
L 592.991465 278.203587 
L 596.832324 278.751345 
L 600.673183 278.444274 
L 604.514042 279.109816 
L 612.19576 279.102327 
L 612.19576 279.102327 
" style="fill:none;stroke:#ff0000;stroke-linecap:square;stroke-width:1.2;"/>
   </g>
   <g id="patch_3">
    <path d="M 112.5 324 
L 112.5 36 
" style="fill:none;stroke:#000000;stroke-linecap:square;stroke-linejoin:miter;"/>
   </g>
   <g id="patch_4">
    <path d="M 635.625 324 
L 635.625 36 
" style="fill:none;stroke:#000000;stroke-linecap:square;stroke-linejoin:miter;"/>
   </g>
   <g id="patch_5">
    <path d="M 112.5 324 
L 635.625 324 
" style="fill:none;stroke:#000000;stroke-linecap:square;stroke-linejoin:miter;"/>
   </g>
   <g id="patch_6">
    <path d="M 112.5 36 
L 635.625 36 
" style="fill:none;stroke:#000000;stroke-linecap:square;stroke-linejoin:miter;"/>
   </g>
   <g id="matplotlib.axis_1">
    <g id="xtick_1">
     <g id="line2d_4">
      <defs>
       <path d="M 0 0 
L 0 -4 
" id="m20188f9f66" style="stroke:#000000;stroke-width:0.5;"/>
      </defs>
      <g>
       <use style="stroke:#000000;stroke-width:0.5;" x="112.884086" xlink:href="#m20188f9f66" y="324"/>
      </g>
     </g>
     <g id="line2d_5">
      <defs>
       <path d="M 0 0 
L 0 4 
" id="mdf776c066d" style="stroke:#000000;stroke-width:0.5;"/>
      </defs>
      <g>
       <use style="stroke:#000000;stroke-width:0.5;" x="112.884086" xlink:href="#mdf776c066d" y="36"/>
      </g>
     </g>
     <g id="text_1">
      <!-- 0 -->
      <defs>
       <path d="M 31.78125 66.40625 
Q 24.171875 66.40625 20.328125 58.90625 
Q 16.5 51.421875 16.5 36.375 
Q 16.5 21.390625 20.328125 13.890625 
Q 24.171875 6.390625 31.78125 6.390625 
Q 39.453125 6.390625 43.28125 13.890625 
Q 47.125 21.390625 47.125 36.375 
Q 47.125 51.421875 43.28125 58.90625 
Q 39.453125 66.40625 31.78125 66.40625 
z
M 31.78125 74.21875 
Q 44.046875 74.21875 50.515625 64.515625 
Q 56.984375 54.828125 56.984375 36.375 
Q 56.984375 17.96875 50.515625 8.265625 
Q 44.046875 -1.421875 31.78125 -1.421875 
Q 19.53125 -1.421875 13.0625 8.265625 
Q 6.59375 17.96875 6.59375 36.375 
Q 6.59375 54.828125 13.0625 64.515625 
Q 19.53125 74.21875 31.78125 74.21875 
z
" id="DejaVuSans-48"/>
      </defs>
      <g transform="translate(109.066586 337.118125)scale(0.12 -0.12)">
       <use xlink:href="#DejaVuSans-48"/>
      </g>
     </g>
    </g>
    <g id="xtick_2">
     <g id="line2d_6">
      <g>
       <use style="stroke:#000000;stroke-width:0.5;" x="166.656112" xlink:href="#m20188f9f66" y="324"/>
      </g>
     </g>
     <g id="line2d_7">
      <g>
       <use style="stroke:#000000;stroke-width:0.5;" x="166.656112" xlink:href="#mdf776c066d" y="36"/>
      </g>
     </g>
     <g id="text_2">
      <!-- 14 -->
      <defs>
       <path d="M 12.40625 8.296875 
L 28.515625 8.296875 
L 28.515625 63.921875 
L 10.984375 60.40625 
L 10.984375 69.390625 
L 28.421875 72.90625 
L 38.28125 72.90625 
L 38.28125 8.296875 
L 54.390625 8.296875 
L 54.390625 0 
L 12.40625 0 
z
" id="DejaVuSans-49"/>
       <path d="M 37.796875 64.3125 
L 12.890625 25.390625 
L 37.796875 25.390625 
z
M 35.203125 72.90625 
L 47.609375 72.90625 
L 47.609375 25.390625 
L 58.015625 25.390625 
L 58.015625 17.1875 
L 47.609375 17.1875 
L 47.609375 0 
L 37.796875 0 
L 37.796875 17.1875 
L 4.890625 17.1875 
L 4.890625 26.703125 
z
" id="DejaVuSans-52"/>
      </defs>
      <g transform="translate(159.021112 337.118125)scale(0.12 -0.12)">
       <use xlink:href="#DejaVuSans-49"/>
       <use x="63.623047" xlink:href="#DejaVuSans-52"/>
      </g>
     </g>
    </g>
    <g id="xtick_3">
     <g id="line2d_8">
      <g>
       <use style="stroke:#000000;stroke-width:0.5;" x="220.428139" xlink:href="#m20188f9f66" y="324"/>
      </g>
     </g>
     <g id="line2d_9">
      <g>
       <use style="stroke:#000000;stroke-width:0.5;" x="220.428139" xlink:href="#mdf776c066d" y="36"/>
      </g>
     </g>
     <g id="text_3">
      <!-- 28 -->
      <defs>
       <path d="M 19.1875 8.296875 
L 53.609375 8.296875 
L 53.609375 0 
L 7.328125 0 
L 7.328125 8.296875 
Q 12.9375 14.109375 22.625 23.890625 
Q 32.328125 33.6875 34.8125 36.53125 
Q 39.546875 41.84375 41.421875 45.53125 
Q 43.3125 49.21875 43.3125 52.78125 
Q 43.3125 58.59375 39.234375 62.25 
Q 35.15625 65.921875 28.609375 65.921875 
Q 23.96875 65.921875 18.8125 64.3125 
Q 13.671875 62.703125 7.8125 59.421875 
L 7.8125 69.390625 
Q 13.765625 71.78125 18.9375 73 
Q 24.125 74.21875 28.421875 74.21875 
Q 39.75 74.21875 46.484375 68.546875 
Q 53.21875 62.890625 53.21875 53.421875 
Q 53.21875 48.921875 51.53125 44.890625 
Q 49.859375 40.875 45.40625 35.40625 
Q 44.1875 33.984375 37.640625 27.21875 
Q 31.109375 20.453125 19.1875 8.296875 
z
" id="DejaVuSans-50"/>
       <path d="M 31.78125 34.625 
Q 24.75 34.625 20.71875 30.859375 
Q 16.703125 27.09375 16.703125 20.515625 
Q 16.703125 13.921875 20.71875 10.15625 
Q 24.75 6.390625 31.78125 6.390625 
Q 38.8125 6.390625 42.859375 10.171875 
Q 46.921875 13.96875 46.921875 20.515625 
Q 46.921875 27.09375 42.890625 30.859375 
Q 38.875 34.625 31.78125 34.625 
z
M 21.921875 38.8125 
Q 15.578125 40.375 12.03125 44.71875 
Q 8.5 49.078125 8.5 55.328125 
Q 8.5 64.0625 14.71875 69.140625 
Q 20.953125 74.21875 31.78125 74.21875 
Q 42.671875 74.21875 48.875 69.140625 
Q 55.078125 64.0625 55.078125 55.328125 
Q 55.078125 49.078125 51.53125 44.71875 
Q 48 40.375 41.703125 38.8125 
Q 48.828125 37.15625 52.796875 32.3125 
Q 56.78125 27.484375 56.78125 20.515625 
Q 56.78125 9.90625 50.3125 4.234375 
Q 43.84375 -1.421875 31.78125 -1.421875 
Q 19.734375 -1.421875 13.25 4.234375 
Q 6.78125 9.90625 6.78125 20.515625 
Q 6.78125 27.484375 10.78125 32.3125 
Q 14.796875 37.15625 21.921875 38.8125 
z
M 18.3125 54.390625 
Q 18.3125 48.734375 21.84375 45.5625 
Q 25.390625 42.390625 31.78125 42.390625 
Q 38.140625 42.390625 41.71875 45.5625 
Q 45.3125 48.734375 45.3125 54.390625 
Q 45.3125 60.0625 41.71875 63.234375 
Q 38.140625 66.40625 31.78125 66.40625 
Q 25.390625 66.40625 21.84375 63.234375 
Q 18.3125 60.0625 18.3125 54.390625 
z
" id="DejaVuSans-56"/>
      </defs>
      <g transform="translate(212.793139 337.118125)scale(0.12 -0.12)">
       <use xlink:href="#DejaVuSans-50"/>
       <use x="63.623047" xlink:href="#DejaVuSans-56"/>
      </g>
     </g>
    </g>
    <g id="xtick_4">
     <g id="line2d_10">
      <g>
       <use style="stroke:#000000;stroke-width:0.5;" x="274.200165" xlink:href="#m20188f9f66" y="324"/>
      </g>
     </g>
     <g id="line2d_11">
      <g>
       <use style="stroke:#000000;stroke-width:0.5;" x="274.200165" xlink:href="#mdf776c066d" y="36"/>
      </g>
     </g>
     <g id="text_4">
      <!-- 42 -->
      <g transform="translate(266.565165 337.118125)scale(0.12 -0.12)">
       <use xlink:href="#DejaVuSans-52"/>
       <use x="63.623047" xlink:href="#DejaVuSans-50"/>
      </g>
     </g>
    </g>
    <g id="xtick_5">
     <g id="line2d_12">
      <g>
       <use style="stroke:#000000;stroke-width:0.5;" x="327.972192" xlink:href="#m20188f9f66" y="324"/>
      </g>
     </g>
     <g id="line2d_13">
      <g>
       <use style="stroke:#000000;stroke-width:0.5;" x="327.972192" xlink:href="#mdf776c066d" y="36"/>
      </g>
     </g>
     <g id="text_5">
      <!-- 56 -->
      <defs>
       <path d="M 10.796875 72.90625 
L 49.515625 72.90625 
L 49.515625 64.59375 
L 19.828125 64.59375 
L 19.828125 46.734375 
Q 21.96875 47.46875 24.109375 47.828125 
Q 26.265625 48.1875 28.421875 48.1875 
Q 40.625 48.1875 47.75 41.5 
Q 54.890625 34.8125 54.890625 23.390625 
Q 54.890625 11.625 47.5625 5.09375 
Q 40.234375 -1.421875 26.90625 -1.421875 
Q 22.3125 -1.421875 17.546875 -0.640625 
Q 12.796875 0.140625 7.71875 1.703125 
L 7.71875 11.625 
Q 12.109375 9.234375 16.796875 8.0625 
Q 21.484375 6.890625 26.703125 6.890625 
Q 35.15625 6.890625 40.078125 11.328125 
Q 45.015625 15.765625 45.015625 23.390625 
Q 45.015625 31 40.078125 35.4375 
Q 35.15625 39.890625 26.703125 39.890625 
Q 22.75 39.890625 18.8125 39.015625 
Q 14.890625 38.140625 10.796875 36.28125 
z
" id="DejaVuSans-53"/>
       <path d="M 33.015625 40.375 
Q 26.375 40.375 22.484375 35.828125 
Q 18.609375 31.296875 18.609375 23.390625 
Q 18.609375 15.53125 22.484375 10.953125 
Q 26.375 6.390625 33.015625 6.390625 
Q 39.65625 6.390625 43.53125 10.953125 
Q 47.40625 15.53125 47.40625 23.390625 
Q 47.40625 31.296875 43.53125 35.828125 
Q 39.65625 40.375 33.015625 40.375 
z
M 52.59375 71.296875 
L 52.59375 62.3125 
Q 48.875 64.0625 45.09375 64.984375 
Q 41.3125 65.921875 37.59375 65.921875 
Q 27.828125 65.921875 22.671875 59.328125 
Q 17.53125 52.734375 16.796875 39.40625 
Q 19.671875 43.65625 24.015625 45.921875 
Q 28.375 48.1875 33.59375 48.1875 
Q 44.578125 48.1875 50.953125 41.515625 
Q 57.328125 34.859375 57.328125 23.390625 
Q 57.328125 12.15625 50.6875 5.359375 
Q 44.046875 -1.421875 33.015625 -1.421875 
Q 20.359375 -1.421875 13.671875 8.265625 
Q 6.984375 17.96875 6.984375 36.375 
Q 6.984375 53.65625 15.1875 63.9375 
Q 23.390625 74.21875 37.203125 74.21875 
Q 40.921875 74.21875 44.703125 73.484375 
Q 48.484375 72.75 52.59375 71.296875 
z
" id="DejaVuSans-54"/>
      </defs>
      <g transform="translate(320.337192 337.118125)scale(0.12 -0.12)">
       <use xlink:href="#DejaVuSans-53"/>
       <use x="63.623047" xlink:href="#DejaVuSans-54"/>
      </g>
     </g>
    </g>
    <g id="xtick_6">
     <g id="line2d_14">
      <g>
       <use style="stroke:#000000;stroke-width:0.5;" x="381.744218" xlink:href="#m20188f9f66" y="324"/>
      </g>
     </g>
     <g id="line2d_15">
      <g>
       <use style="stroke:#000000;stroke-width:0.5;" x="381.744218" xlink:href="#mdf776c066d" y="36"/>
      </g>
     </g>
     <g id="text_6">
      <!-- 70 -->
      <defs>
       <path d="M 8.203125 72.90625 
L 55.078125 72.90625 
L 55.078125 68.703125 
L 28.609375 0 
L 18.3125 0 
L 43.21875 64.59375 
L 8.203125 64.59375 
z
" id="DejaVuSans-55"/>
      </defs>
      <g transform="translate(374.109218 337.118125)scale(0.12 -0.12)">
       <use xlink:href="#DejaVuSans-55"/>
       <use x="63.623047" xlink:href="#DejaVuSans-48"/>
      </g>
     </g>
    </g>
    <g id="xtick_7">
     <g id="line2d_16">
      <g>
       <use style="stroke:#000000;stroke-width:0.5;" x="435.516244" xlink:href="#m20188f9f66" y="324"/>
      </g>
     </g>
     <g id="line2d_17">
      <g>
       <use style="stroke:#000000;stroke-width:0.5;" x="435.516244" xlink:href="#mdf776c066d" y="36"/>
      </g>
     </g>
     <g id="text_7">
      <!-- 84 -->
      <g transform="translate(427.881244 337.118125)scale(0.12 -0.12)">
       <use xlink:href="#DejaVuSans-56"/>
       <use x="63.623047" xlink:href="#DejaVuSans-52"/>
      </g>
     </g>
    </g>
    <g id="xtick_8">
     <g id="line2d_18">
      <g>
       <use style="stroke:#000000;stroke-width:0.5;" x="489.288271" xlink:href="#m20188f9f66" y="324"/>
      </g>
     </g>
     <g id="line2d_19">
      <g>
       <use style="stroke:#000000;stroke-width:0.5;" x="489.288271" xlink:href="#mdf776c066d" y="36"/>
      </g>
     </g>
     <g id="text_8">
      <!-- 98 -->
      <defs>
       <path d="M 10.984375 1.515625 
L 10.984375 10.5 
Q 14.703125 8.734375 18.5 7.8125 
Q 22.3125 6.890625 25.984375 6.890625 
Q 35.75 6.890625 40.890625 13.453125 
Q 46.046875 20.015625 46.78125 33.40625 
Q 43.953125 29.203125 39.59375 26.953125 
Q 35.25 24.703125 29.984375 24.703125 
Q 19.046875 24.703125 12.671875 31.3125 
Q 6.296875 37.9375 6.296875 49.421875 
Q 6.296875 60.640625 12.9375 67.421875 
Q 19.578125 74.21875 30.609375 74.21875 
Q 43.265625 74.21875 49.921875 64.515625 
Q 56.59375 54.828125 56.59375 36.375 
Q 56.59375 19.140625 48.40625 8.859375 
Q 40.234375 -1.421875 26.421875 -1.421875 
Q 22.703125 -1.421875 18.890625 -0.6875 
Q 15.09375 0.046875 10.984375 1.515625 
z
M 30.609375 32.421875 
Q 37.25 32.421875 41.125 36.953125 
Q 45.015625 41.5 45.015625 49.421875 
Q 45.015625 57.28125 41.125 61.84375 
Q 37.25 66.40625 30.609375 66.40625 
Q 23.96875 66.40625 20.09375 61.84375 
Q 16.21875 57.28125 16.21875 49.421875 
Q 16.21875 41.5 20.09375 36.953125 
Q 23.96875 32.421875 30.609375 32.421875 
z
" id="DejaVuSans-57"/>
      </defs>
      <g transform="translate(481.653271 337.118125)scale(0.12 -0.12)">
       <use xlink:href="#DejaVuSans-57"/>
       <use x="63.623047" xlink:href="#DejaVuSans-56"/>
      </g>
     </g>
    </g>
    <g id="xtick_9">
     <g id="line2d_20">
      <g>
       <use style="stroke:#000000;stroke-width:0.5;" x="543.060297" xlink:href="#m20188f9f66" y="324"/>
      </g>
     </g>
     <g id="line2d_21">
      <g>
       <use style="stroke:#000000;stroke-width:0.5;" x="543.060297" xlink:href="#mdf776c066d" y="36"/>
      </g>
     </g>
     <g id="text_9">
      <!-- 112 -->
      <g transform="translate(531.607797 337.118125)scale(0.12 -0.12)">
       <use xlink:href="#DejaVuSans-49"/>
       <use x="63.623047" xlink:href="#DejaVuSans-49"/>
       <use x="127.246094" xlink:href="#DejaVuSans-50"/>
      </g>
     </g>
    </g>
    <g id="xtick_10">
     <g id="line2d_22">
      <g>
       <use style="stroke:#000000;stroke-width:0.5;" x="596.832324" xlink:href="#m20188f9f66" y="324"/>
      </g>
     </g>
     <g id="line2d_23">
      <g>
       <use style="stroke:#000000;stroke-width:0.5;" x="596.832324" xlink:href="#mdf776c066d" y="36"/>
      </g>
     </g>
     <g id="text_10">
      <!-- 126 -->
      <g transform="translate(585.379824 337.118125)scale(0.12 -0.12)">
       <use xlink:href="#DejaVuSans-49"/>
       <use x="63.623047" xlink:href="#DejaVuSans-50"/>
       <use x="127.246094" xlink:href="#DejaVuSans-54"/>
      </g>
     </g>
    </g>
    <g id="text_11">
     <!-- generation -->
     <defs>
      <path d="M 45.40625 27.984375 
Q 45.40625 37.75 41.375 43.109375 
Q 37.359375 48.484375 30.078125 48.484375 
Q 22.859375 48.484375 18.828125 43.109375 
Q 14.796875 37.75 14.796875 27.984375 
Q 14.796875 18.265625 18.828125 12.890625 
Q 22.859375 7.515625 30.078125 7.515625 
Q 37.359375 7.515625 41.375 12.890625 
Q 45.40625 18.265625 45.40625 27.984375 
z
M 54.390625 6.78125 
Q 54.390625 -7.171875 48.1875 -13.984375 
Q 42 -20.796875 29.203125 -20.796875 
Q 24.46875 -20.796875 20.265625 -20.09375 
Q 16.0625 -19.390625 12.109375 -17.921875 
L 12.109375 -9.1875 
Q 16.0625 -11.328125 19.921875 -12.34375 
Q 23.78125 -13.375 27.78125 -13.375 
Q 36.625 -13.375 41.015625 -8.765625 
Q 45.40625 -4.15625 45.40625 5.171875 
L 45.40625 9.625 
Q 42.625 4.78125 38.28125 2.390625 
Q 33.9375 0 27.875 0 
Q 17.828125 0 11.671875 7.65625 
Q 5.515625 15.328125 5.515625 27.984375 
Q 5.515625 40.671875 11.671875 48.328125 
Q 17.828125 56 27.875 56 
Q 33.9375 56 38.28125 53.609375 
Q 42.625 51.21875 45.40625 46.390625 
L 45.40625 54.6875 
L 54.390625 54.6875 
z
" id="DejaVuSans-103"/>
      <path d="M 56.203125 29.59375 
L 56.203125 25.203125 
L 14.890625 25.203125 
Q 15.484375 15.921875 20.484375 11.0625 
Q 25.484375 6.203125 34.421875 6.203125 
Q 39.59375 6.203125 44.453125 7.46875 
Q 49.3125 8.734375 54.109375 11.28125 
L 54.109375 2.78125 
Q 49.265625 0.734375 44.1875 -0.34375 
Q 39.109375 -1.421875 33.890625 -1.421875 
Q 20.796875 -1.421875 13.15625 6.1875 
Q 5.515625 13.8125 5.515625 26.8125 
Q 5.515625 40.234375 12.765625 48.109375 
Q 20.015625 56 32.328125 56 
Q 43.359375 56 49.78125 48.890625 
Q 56.203125 41.796875 56.203125 29.59375 
z
M 47.21875 32.234375 
Q 47.125 39.59375 43.09375 43.984375 
Q 39.0625 48.390625 32.421875 48.390625 
Q 24.90625 48.390625 20.390625 44.140625 
Q 15.875 39.890625 15.1875 32.171875 
z
" id="DejaVuSans-101"/>
      <path d="M 54.890625 33.015625 
L 54.890625 0 
L 45.90625 0 
L 45.90625 32.71875 
Q 45.90625 40.484375 42.875 44.328125 
Q 39.84375 48.1875 33.796875 48.1875 
Q 26.515625 48.1875 22.3125 43.546875 
Q 18.109375 38.921875 18.109375 30.90625 
L 18.109375 0 
L 9.078125 0 
L 9.078125 54.6875 
L 18.109375 54.6875 
L 18.109375 46.1875 
Q 21.34375 51.125 25.703125 53.5625 
Q 30.078125 56 35.796875 56 
Q 45.21875 56 50.046875 50.171875 
Q 54.890625 44.34375 54.890625 33.015625 
z
" id="DejaVuSans-110"/>
      <path d="M 41.109375 46.296875 
Q 39.59375 47.171875 37.8125 47.578125 
Q 36.03125 48 33.890625 48 
Q 26.265625 48 22.1875 43.046875 
Q 18.109375 38.09375 18.109375 28.8125 
L 18.109375 0 
L 9.078125 0 
L 9.078125 54.6875 
L 18.109375 54.6875 
L 18.109375 46.1875 
Q 20.953125 51.171875 25.484375 53.578125 
Q 30.03125 56 36.53125 56 
Q 37.453125 56 38.578125 55.875 
Q 39.703125 55.765625 41.0625 55.515625 
z
" id="DejaVuSans-114"/>
      <path d="M 34.28125 27.484375 
Q 23.390625 27.484375 19.1875 25 
Q 14.984375 22.515625 14.984375 16.5 
Q 14.984375 11.71875 18.140625 8.90625 
Q 21.296875 6.109375 26.703125 6.109375 
Q 34.1875 6.109375 38.703125 11.40625 
Q 43.21875 16.703125 43.21875 25.484375 
L 43.21875 27.484375 
z
M 52.203125 31.203125 
L 52.203125 0 
L 43.21875 0 
L 43.21875 8.296875 
Q 40.140625 3.328125 35.546875 0.953125 
Q 30.953125 -1.421875 24.3125 -1.421875 
Q 15.921875 -1.421875 10.953125 3.296875 
Q 6 8.015625 6 15.921875 
Q 6 25.140625 12.171875 29.828125 
Q 18.359375 34.515625 30.609375 34.515625 
L 43.21875 34.515625 
L 43.21875 35.40625 
Q 43.21875 41.609375 39.140625 45 
Q 35.0625 48.390625 27.6875 48.390625 
Q 23 48.390625 18.546875 47.265625 
Q 14.109375 46.140625 10.015625 43.890625 
L 10.015625 52.203125 
Q 14.9375 54.109375 19.578125 55.046875 
Q 24.21875 56 28.609375 56 
Q 40.484375 56 46.34375 49.84375 
Q 52.203125 43.703125 52.203125 31.203125 
z
" id="DejaVuSans-97"/>
      <path d="M 18.3125 70.21875 
L 18.3125 54.6875 
L 36.8125 54.6875 
L 36.8125 47.703125 
L 18.3125 47.703125 
L 18.3125 18.015625 
Q 18.3125 11.328125 20.140625 9.421875 
Q 21.96875 7.515625 27.59375 7.515625 
L 36.8125 7.515625 
L 36.8125 0 
L 27.59375 0 
Q 17.1875 0 13.234375 3.875 
Q 9.28125 7.765625 9.28125 18.015625 
L 9.28125 47.703125 
L 2.6875 47.703125 
L 2.6875 54.6875 
L 9.28125 54.6875 
L 9.28125 70.21875 
z
" id="DejaVuSans-116"/>
      <path d="M 9.421875 54.6875 
L 18.40625 54.6875 
L 18.40625 0 
L 9.421875 0 
z
M 9.421875 75.984375 
L 18.40625 75.984375 
L 18.40625 64.59375 
L 9.421875 64.59375 
z
" id="DejaVuSans-105"/>
      <path d="M 30.609375 48.390625 
Q 23.390625 48.390625 19.1875 42.75 
Q 14.984375 37.109375 14.984375 27.296875 
Q 14.984375 17.484375 19.15625 11.84375 
Q 23.34375 6.203125 30.609375 6.203125 
Q 37.796875 6.203125 41.984375 11.859375 
Q 46.1875 17.53125 46.1875 27.296875 
Q 46.1875 37.015625 41.984375 42.703125 
Q 37.796875 48.390625 30.609375 48.390625 
z
M 30.609375 56 
Q 42.328125 56 49.015625 48.375 
Q 55.71875 40.765625 55.71875 27.296875 
Q 55.71875 13.875 49.015625 6.21875 
Q 42.328125 -1.421875 30.609375 -1.421875 
Q 18.84375 -1.421875 12.171875 6.21875 
Q 5.515625 13.875 5.515625 27.296875 
Q 5.515625 40.765625 12.171875 48.375 
Q 18.84375 56 30.609375 56 
z
" id="DejaVuSans-111"/>
     </defs>
     <g transform="translate(341.430938 353.731875)scale(0.12 -0.12)">
      <use xlink:href="#DejaVuSans-103"/>
      <use x="63.476562" xlink:href="#DejaVuSans-101"/>
      <use x="125" xlink:href="#DejaVuSans-110"/>
      <use x="188.378906" xlink:href="#DejaVuSans-101"/>
      <use x="249.902344" xlink:href="#DejaVuSans-114"/>
      <use x="291.015625" xlink:href="#DejaVuSans-97"/>
      <use x="352.294922" xlink:href="#DejaVuSans-116"/>
      <use x="391.503906" xlink:href="#DejaVuSans-105"/>
      <use x="419.287109" xlink:href="#DejaVuSans-111"/>
      <use x="480.46875" xlink:href="#DejaVuSans-110"/>
     </g>
    </g>
   </g>
   <g id="matplotlib.axis_2">
    <g id="ytick_1">
     <g id="line2d_24">
      <defs>
       <path d="M 0 0 
L 4 0 
" id="m7247eece72" style="stroke:#000000;stroke-width:0.5;"/>
      </defs>
      <g>
       <use style="stroke:#000000;stroke-width:0.5;" x="112.5" xlink:href="#m7247eece72" y="324"/>
      </g>
     </g>
     <g id="line2d_25">
      <defs>
       <path d="M 0 0 
L -4 0 
" id="m27d1914456" style="stroke:#000000;stroke-width:0.5;"/>
      </defs>
      <g>
       <use style="stroke:#000000;stroke-width:0.5;" x="635.625" xlink:href="#m27d1914456" y="324"/>
      </g>
     </g>
     <g id="text_12">
      <!-- 0.15 -->
      <defs>
       <path d="M 10.6875 12.40625 
L 21 12.40625 
L 21 0 
L 10.6875 0 
z
" id="DejaVuSans-46"/>
      </defs>
      <g transform="translate(81.78125 327.31125)scale(0.12 -0.12)">
       <use xlink:href="#DejaVuSans-48"/>
       <use x="63.623047" xlink:href="#DejaVuSans-46"/>
       <use x="95.410156" xlink:href="#DejaVuSans-49"/>
       <use x="159.033203" xlink:href="#DejaVuSans-53"/>
      </g>
     </g>
    </g>
    <g id="ytick_2">
     <g id="line2d_26">
      <g>
       <use style="stroke:#000000;stroke-width:0.5;" x="112.5" xlink:href="#m7247eece72" y="252"/>
      </g>
     </g>
     <g id="line2d_27">
      <g>
       <use style="stroke:#000000;stroke-width:0.5;" x="635.625" xlink:href="#m27d1914456" y="252"/>
      </g>
     </g>
     <g id="text_13">
      <!-- 0.20 -->
      <g transform="translate(81.78125 255.31125)scale(0.12 -0.12)">
       <use xlink:href="#DejaVuSans-48"/>
       <use x="63.623047" xlink:href="#DejaVuSans-46"/>
       <use x="95.410156" xlink:href="#DejaVuSans-50"/>
       <use x="159.033203" xlink:href="#DejaVuSans-48"/>
      </g>
     </g>
    </g>
    <g id="ytick_3">
     <g id="line2d_28">
      <g>
       <use style="stroke:#000000;stroke-width:0.5;" x="112.5" xlink:href="#m7247eece72" y="180"/>
      </g>
     </g>
     <g id="line2d_29">
      <g>
       <use style="stroke:#000000;stroke-width:0.5;" x="635.625" xlink:href="#m27d1914456" y="180"/>
      </g>
     </g>
     <g id="text_14">
      <!-- 0.25 -->
      <g transform="translate(81.78125 183.31125)scale(0.12 -0.12)">
       <use xlink:href="#DejaVuSans-48"/>
       <use x="63.623047" xlink:href="#DejaVuSans-46"/>
       <use x="95.410156" xlink:href="#DejaVuSans-50"/>
       <use x="159.033203" xlink:href="#DejaVuSans-53"/>
      </g>
     </g>
    </g>
    <g id="ytick_4">
     <g id="line2d_30">
      <g>
       <use style="stroke:#000000;stroke-width:0.5;" x="112.5" xlink:href="#m7247eece72" y="108"/>
      </g>
     </g>
     <g id="line2d_31">
      <g>
       <use style="stroke:#000000;stroke-width:0.5;" x="635.625" xlink:href="#m27d1914456" y="108"/>
      </g>
     </g>
     <g id="text_15">
      <!-- 0.30 -->
      <defs>
       <path d="M 40.578125 39.3125 
Q 47.65625 37.796875 51.625 33 
Q 55.609375 28.21875 55.609375 21.1875 
Q 55.609375 10.40625 48.1875 4.484375 
Q 40.765625 -1.421875 27.09375 -1.421875 
Q 22.515625 -1.421875 17.65625 -0.515625 
Q 12.796875 0.390625 7.625 2.203125 
L 7.625 11.71875 
Q 11.71875 9.328125 16.59375 8.109375 
Q 21.484375 6.890625 26.8125 6.890625 
Q 36.078125 6.890625 40.9375 10.546875 
Q 45.796875 14.203125 45.796875 21.1875 
Q 45.796875 27.640625 41.28125 31.265625 
Q 36.765625 34.90625 28.71875 34.90625 
L 20.21875 34.90625 
L 20.21875 43.015625 
L 29.109375 43.015625 
Q 36.375 43.015625 40.234375 45.921875 
Q 44.09375 48.828125 44.09375 54.296875 
Q 44.09375 59.90625 40.109375 62.90625 
Q 36.140625 65.921875 28.71875 65.921875 
Q 24.65625 65.921875 20.015625 65.03125 
Q 15.375 64.15625 9.8125 62.3125 
L 9.8125 71.09375 
Q 15.4375 72.65625 20.34375 73.4375 
Q 25.25 74.21875 29.59375 74.21875 
Q 40.828125 74.21875 47.359375 69.109375 
Q 53.90625 64.015625 53.90625 55.328125 
Q 53.90625 49.265625 50.4375 45.09375 
Q 46.96875 40.921875 40.578125 39.3125 
z
" id="DejaVuSans-51"/>
      </defs>
      <g transform="translate(81.78125 111.31125)scale(0.12 -0.12)">
       <use xlink:href="#DejaVuSans-48"/>
       <use x="63.623047" xlink:href="#DejaVuSans-46"/>
       <use x="95.410156" xlink:href="#DejaVuSans-51"/>
       <use x="159.033203" xlink:href="#DejaVuSans-48"/>
      </g>
     </g>
    </g>
    <g id="ytick_5">
     <g id="line2d_32">
      <g>
       <use style="stroke:#000000;stroke-width:0.5;" x="112.5" xlink:href="#m7247eece72" y="36"/>
      </g>
     </g>
     <g id="line2d_33">
      <g>
       <use style="stroke:#000000;stroke-width:0.5;" x="635.625" xlink:href="#m27d1914456" y="36"/>
      </g>
     </g>
     <g id="text_16">
      <!-- 0.35 -->
      <g transform="translate(81.78125 39.31125)scale(0.12 -0.12)">
       <use xlink:href="#DejaVuSans-48"/>
       <use x="63.623047" xlink:href="#DejaVuSans-46"/>
       <use x="95.410156" xlink:href="#DejaVuSans-51"/>
       <use x="159.033203" xlink:href="#DejaVuSans-53"/>
      </g>
     </g>
    </g>
    <g id="text_17">
     <!-- los -->
     <defs>
      <path d="M 9.421875 75.984375 
L 18.40625 75.984375 
L 18.40625 0 
L 9.421875 0 
z
" id="DejaVuSans-108"/>
      <path d="M 44.28125 53.078125 
L 44.28125 44.578125 
Q 40.484375 46.53125 36.375 47.5 
Q 32.28125 48.484375 27.875 48.484375 
Q 21.1875 48.484375 17.84375 46.4375 
Q 14.5 44.390625 14.5 40.28125 
Q 14.5 37.15625 16.890625 35.375 
Q 19.28125 33.59375 26.515625 31.984375 
L 29.59375 31.296875 
Q 39.15625 29.25 43.1875 25.515625 
Q 47.21875 21.78125 47.21875 15.09375 
Q 47.21875 7.46875 41.1875 3.015625 
Q 35.15625 -1.421875 24.609375 -1.421875 
Q 20.21875 -1.421875 15.453125 -0.5625 
Q 10.6875 0.296875 5.421875 2 
L 5.421875 11.28125 
Q 10.40625 8.6875 15.234375 7.390625 
Q 20.0625 6.109375 24.8125 6.109375 
Q 31.15625 6.109375 34.5625 8.28125 
Q 37.984375 10.453125 37.984375 14.40625 
Q 37.984375 18.0625 35.515625 20.015625 
Q 33.0625 21.96875 24.703125 23.78125 
L 21.578125 24.515625 
Q 13.234375 26.265625 9.515625 29.90625 
Q 5.8125 33.546875 5.8125 39.890625 
Q 5.8125 47.609375 11.28125 51.796875 
Q 16.75 56 26.8125 56 
Q 31.78125 56 36.171875 55.265625 
Q 40.578125 54.546875 44.28125 53.078125 
z
" id="DejaVuSans-115"/>
     </defs>
     <g transform="translate(74.285625 188.46375)rotate(-90)scale(0.12 -0.12)">
      <use xlink:href="#DejaVuSans-108"/>
      <use x="27.783203" xlink:href="#DejaVuSans-111"/>
      <use x="88.964844" xlink:href="#DejaVuSans-115"/>
     </g>
    </g>
   </g>
   <g id="legend_1">
    <g id="patch_7">
     <path d="M 640.623 203.924801 
L 822.512715 203.924801 
L 822.512715 156.075199 
L 640.623 156.075199 
z
" style="fill:#ffffff;stroke:#000000;stroke-linejoin:miter;"/>
    </g>
    <g id="line2d_34">
     <path d="M 647.6202 164.170397 
L 661.6146 164.170397 
" style="fill:none;stroke:#0000ff;stroke-linecap:square;stroke-width:1.2;"/>
    </g>
    <g id="line2d_35"/>
    <g id="text_18">
     <!-- Crossover_max_neurons_25 -->
     <defs>
      <path d="M 64.40625 67.28125 
L 64.40625 56.890625 
Q 59.421875 61.53125 53.78125 63.8125 
Q 48.140625 66.109375 41.796875 66.109375 
Q 29.296875 66.109375 22.65625 58.46875 
Q 16.015625 50.828125 16.015625 36.375 
Q 16.015625 21.96875 22.65625 14.328125 
Q 29.296875 6.6875 41.796875 6.6875 
Q 48.140625 6.6875 53.78125 8.984375 
Q 59.421875 11.28125 64.40625 15.921875 
L 64.40625 5.609375 
Q 59.234375 2.09375 53.4375 0.328125 
Q 47.65625 -1.421875 41.21875 -1.421875 
Q 24.65625 -1.421875 15.125 8.703125 
Q 5.609375 18.84375 5.609375 36.375 
Q 5.609375 53.953125 15.125 64.078125 
Q 24.65625 74.21875 41.21875 74.21875 
Q 47.75 74.21875 53.53125 72.484375 
Q 59.328125 70.75 64.40625 67.28125 
z
" id="DejaVuSans-67"/>
      <path d="M 2.984375 54.6875 
L 12.5 54.6875 
L 29.59375 8.796875 
L 46.6875 54.6875 
L 56.203125 54.6875 
L 35.6875 0 
L 23.484375 0 
z
" id="DejaVuSans-118"/>
      <path d="M 50.984375 -16.609375 
L 50.984375 -23.578125 
L -0.984375 -23.578125 
L -0.984375 -16.609375 
z
" id="DejaVuSans-95"/>
      <path d="M 52 44.1875 
Q 55.375 50.25 60.0625 53.125 
Q 64.75 56 71.09375 56 
Q 79.640625 56 84.28125 50.015625 
Q 88.921875 44.046875 88.921875 33.015625 
L 88.921875 0 
L 79.890625 0 
L 79.890625 32.71875 
Q 79.890625 40.578125 77.09375 44.375 
Q 74.3125 48.1875 68.609375 48.1875 
Q 61.625 48.1875 57.5625 43.546875 
Q 53.515625 38.921875 53.515625 30.90625 
L 53.515625 0 
L 44.484375 0 
L 44.484375 32.71875 
Q 44.484375 40.625 41.703125 44.40625 
Q 38.921875 48.1875 33.109375 48.1875 
Q 26.21875 48.1875 22.15625 43.53125 
Q 18.109375 38.875 18.109375 30.90625 
L 18.109375 0 
L 9.078125 0 
L 9.078125 54.6875 
L 18.109375 54.6875 
L 18.109375 46.1875 
Q 21.1875 51.21875 25.484375 53.609375 
Q 29.78125 56 35.6875 56 
Q 41.65625 56 45.828125 52.96875 
Q 50 49.953125 52 44.1875 
z
" id="DejaVuSans-109"/>
      <path d="M 54.890625 54.6875 
L 35.109375 28.078125 
L 55.90625 0 
L 45.3125 0 
L 29.390625 21.484375 
L 13.484375 0 
L 2.875 0 
L 24.125 28.609375 
L 4.6875 54.6875 
L 15.28125 54.6875 
L 29.78125 35.203125 
L 44.28125 54.6875 
z
" id="DejaVuSans-120"/>
      <path d="M 8.5 21.578125 
L 8.5 54.6875 
L 17.484375 54.6875 
L 17.484375 21.921875 
Q 17.484375 14.15625 20.5 10.265625 
Q 23.53125 6.390625 29.59375 6.390625 
Q 36.859375 6.390625 41.078125 11.03125 
Q 45.3125 15.671875 45.3125 23.6875 
L 45.3125 54.6875 
L 54.296875 54.6875 
L 54.296875 0 
L 45.3125 0 
L 45.3125 8.40625 
Q 42.046875 3.421875 37.71875 1 
Q 33.40625 -1.421875 27.6875 -1.421875 
Q 18.265625 -1.421875 13.375 4.4375 
Q 8.5 10.296875 8.5 21.578125 
z
M 31.109375 56 
z
" id="DejaVuSans-117"/>
     </defs>
     <g transform="translate(672.6102 167.668997)scale(0.09996 -0.09996)">
      <use xlink:href="#DejaVuSans-67"/>
      <use x="69.824219" xlink:href="#DejaVuSans-114"/>
      <use x="108.6875" xlink:href="#DejaVuSans-111"/>
      <use x="169.869141" xlink:href="#DejaVuSans-115"/>
      <use x="221.96875" xlink:href="#DejaVuSans-115"/>
      <use x="274.068359" xlink:href="#DejaVuSans-111"/>
      <use x="335.25" xlink:href="#DejaVuSans-118"/>
      <use x="394.429688" xlink:href="#DejaVuSans-101"/>
      <use x="455.953125" xlink:href="#DejaVuSans-114"/>
      <use x="497.066406" xlink:href="#DejaVuSans-95"/>
      <use x="547.066406" xlink:href="#DejaVuSans-109"/>
      <use x="644.478516" xlink:href="#DejaVuSans-97"/>
      <use x="705.757812" xlink:href="#DejaVuSans-120"/>
      <use x="764.9375" xlink:href="#DejaVuSans-95"/>
      <use x="814.9375" xlink:href="#DejaVuSans-110"/>
      <use x="878.316406" xlink:href="#DejaVuSans-101"/>
      <use x="939.839844" xlink:href="#DejaVuSans-117"/>
      <use x="1003.21875" xlink:href="#DejaVuSans-114"/>
      <use x="1042.082031" xlink:href="#DejaVuSans-111"/>
      <use x="1103.263672" xlink:href="#DejaVuSans-110"/>
      <use x="1166.642578" xlink:href="#DejaVuSans-115"/>
      <use x="1218.742188" xlink:href="#DejaVuSans-95"/>
      <use x="1268.742188" xlink:href="#DejaVuSans-50"/>
      <use x="1332.365234" xlink:href="#DejaVuSans-53"/>
     </g>
    </g>
    <g id="line2d_36">
     <path d="M 647.6202 179.120664 
L 661.6146 179.120664 
" style="fill:none;stroke:#008000;stroke-linecap:square;stroke-width:1.2;"/>
    </g>
    <g id="line2d_37"/>
    <g id="text_19">
     <!-- Crossover_max_neurons_50 -->
     <g transform="translate(672.6102 182.619264)scale(0.09996 -0.09996)">
      <use xlink:href="#DejaVuSans-67"/>
      <use x="69.824219" xlink:href="#DejaVuSans-114"/>
      <use x="108.6875" xlink:href="#DejaVuSans-111"/>
      <use x="169.869141" xlink:href="#DejaVuSans-115"/>
      <use x="221.96875" xlink:href="#DejaVuSans-115"/>
      <use x="274.068359" xlink:href="#DejaVuSans-111"/>
      <use x="335.25" xlink:href="#DejaVuSans-118"/>
      <use x="394.429688" xlink:href="#DejaVuSans-101"/>
      <use x="455.953125" xlink:href="#DejaVuSans-114"/>
      <use x="497.066406" xlink:href="#DejaVuSans-95"/>
      <use x="547.066406" xlink:href="#DejaVuSans-109"/>
      <use x="644.478516" xlink:href="#DejaVuSans-97"/>
      <use x="705.757812" xlink:href="#DejaVuSans-120"/>
      <use x="764.9375" xlink:href="#DejaVuSans-95"/>
      <use x="814.9375" xlink:href="#DejaVuSans-110"/>
      <use x="878.316406" xlink:href="#DejaVuSans-101"/>
      <use x="939.839844" xlink:href="#DejaVuSans-117"/>
      <use x="1003.21875" xlink:href="#DejaVuSans-114"/>
      <use x="1042.082031" xlink:href="#DejaVuSans-111"/>
      <use x="1103.263672" xlink:href="#DejaVuSans-110"/>
      <use x="1166.642578" xlink:href="#DejaVuSans-115"/>
      <use x="1218.742188" xlink:href="#DejaVuSans-95"/>
      <use x="1268.742188" xlink:href="#DejaVuSans-53"/>
      <use x="1332.365234" xlink:href="#DejaVuSans-48"/>
     </g>
    </g>
    <g id="line2d_38">
     <path d="M 647.6202 194.070932 
L 661.6146 194.070932 
" style="fill:none;stroke:#ff0000;stroke-linecap:square;stroke-width:1.2;"/>
    </g>
    <g id="line2d_39"/>
    <g id="text_20">
     <!-- Crossover_max_neurons_100 -->
     <g transform="translate(672.6102 197.569532)scale(0.09996 -0.09996)">
      <use xlink:href="#DejaVuSans-67"/>
      <use x="69.824219" xlink:href="#DejaVuSans-114"/>
      <use x="108.6875" xlink:href="#DejaVuSans-111"/>
      <use x="169.869141" xlink:href="#DejaVuSans-115"/>
      <use x="221.96875" xlink:href="#DejaVuSans-115"/>
      <use x="274.068359" xlink:href="#DejaVuSans-111"/>
      <use x="335.25" xlink:href="#DejaVuSans-118"/>
      <use x="394.429688" xlink:href="#DejaVuSans-101"/>
      <use x="455.953125" xlink:href="#DejaVuSans-114"/>
      <use x="497.066406" xlink:href="#DejaVuSans-95"/>
      <use x="547.066406" xlink:href="#DejaVuSans-109"/>
      <use x="644.478516" xlink:href="#DejaVuSans-97"/>
      <use x="705.757812" xlink:href="#DejaVuSans-120"/>
      <use x="764.9375" xlink:href="#DejaVuSans-95"/>
      <use x="814.9375" xlink:href="#DejaVuSans-110"/>
      <use x="878.316406" xlink:href="#DejaVuSans-101"/>
      <use x="939.839844" xlink:href="#DejaVuSans-117"/>
      <use x="1003.21875" xlink:href="#DejaVuSans-114"/>
      <use x="1042.082031" xlink:href="#DejaVuSans-111"/>
      <use x="1103.263672" xlink:href="#DejaVuSans-110"/>
      <use x="1166.642578" xlink:href="#DejaVuSans-115"/>
      <use x="1218.742188" xlink:href="#DejaVuSans-95"/>
      <use x="1268.742188" xlink:href="#DejaVuSans-49"/>
      <use x="1332.365234" xlink:href="#DejaVuSans-48"/>
      <use x="1395.988281" xlink:href="#DejaVuSans-48"/>
     </g>
    </g>
   </g>
  </g>
  <g id="text_21">
   <!-- Average Loss -->
   <defs>
    <path d="M 34.1875 63.1875 
L 20.796875 26.90625 
L 47.609375 26.90625 
z
M 28.609375 72.90625 
L 39.796875 72.90625 
L 67.578125 0 
L 57.328125 0 
L 50.6875 18.703125 
L 17.828125 18.703125 
L 11.1875 0 
L 0.78125 0 
z
" id="DejaVuSans-65"/>
    <path id="DejaVuSans-32"/>
    <path d="M 9.8125 72.90625 
L 19.671875 72.90625 
L 19.671875 8.296875 
L 55.171875 8.296875 
L 55.171875 0 
L 9.8125 0 
z
" id="DejaVuSans-76"/>
   </defs>
   <g transform="translate(410.293125 16.318125)scale(0.12 -0.12)">
    <use xlink:href="#DejaVuSans-65"/>
    <use x="62.533203" xlink:href="#DejaVuSans-118"/>
    <use x="121.712891" xlink:href="#DejaVuSans-101"/>
    <use x="183.236328" xlink:href="#DejaVuSans-114"/>
    <use x="224.349609" xlink:href="#DejaVuSans-97"/>
    <use x="285.628906" xlink:href="#DejaVuSans-103"/>
    <use x="349.105469" xlink:href="#DejaVuSans-101"/>
    <use x="410.628906" xlink:href="#DejaVuSans-32"/>
    <use x="442.416016" xlink:href="#DejaVuSans-76"/>
    <use x="496.378906" xlink:href="#DejaVuSans-111"/>
    <use x="557.560547" xlink:href="#DejaVuSans-115"/>
    <use x="609.660156" xlink:href="#DejaVuSans-115"/>
   </g>
  </g>
 </g>
 <defs>
  <clipPath id="pb40252b47a">
   <rect height="288" width="523.125" x="112.5" y="36"/>
  </clipPath>
 </defs>
</svg>
