<?xml version="1.0" encoding="utf-8" standalone="no"?>
<!DOCTYPE svg PUBLIC "-//W3C//DTD SVG 1.1//EN"
  "http://www.w3.org/Graphics/SVG/1.1/DTD/svg11.dtd">
<!-- Created with matplotlib (https://matplotlib.org/) -->
<svg height="360pt" version="1.1" viewBox="0 0 900 360" width="900pt" xmlns="http://www.w3.org/2000/svg" xmlns:xlink="http://www.w3.org/1999/xlink">
 <defs>
  <style type="text/css">
*{stroke-linecap:butt;stroke-linejoin:round;}
  </style>
 </defs>
 <g id="figure_1">
  <g id="patch_1">
   <path d="M 0 360 
L 900 360 
L 900 0 
L 0 0 
z
" style="fill:#ffffff;"/>
  </g>
  <g id="axes_1">
   <g id="patch_2">
    <path d="M 112.5 324 
L 635.625 324 
L 635.625 36 
L 112.5 36 
z
" style="fill:#ffffff;"/>
   </g>
   <g id="line2d_1">
    <path clip-path="url(#p0018edcdad)" d="M 112.85062 277.371429 
L 116.35682 273.638095 
L 123.369219 257.685502 
L 126.875419 254.000654 
L 130.381619 247.600654 
L 133.887818 246.944243 
L 137.394018 241.157537 
L 144.406418 231.652578 
L 147.912617 228.66543 
L 151.418817 225.403746 
L 154.925017 221.891164 
L 158.431216 221.933235 
L 161.937416 218.485212 
L 165.443616 213.992156 
L 168.949816 211.156739 
L 172.456015 207.184276 
L 175.962215 200.859701 
L 179.468415 197.60087 
L 182.974615 186.867611 
L 186.480814 182.138052 
L 189.987014 175.092865 
L 193.493214 168.708464 
L 196.999414 160.497504 
L 200.505613 154.767079 
L 204.011813 148.026018 
L 207.518013 148.812563 
L 214.530412 138.589678 
L 218.036612 135.288233 
L 225.049011 124.026568 
L 228.555211 119.22661 
L 232.061411 110.71487 
L 235.567611 105.873383 
L 239.07381 101.879822 
L 242.58001 100.458662 
L 246.08621 104.78307 
L 249.59241 105.928442 
L 253.098609 104.084993 
L 256.604809 104.06731 
L 260.111009 100.318125 
L 263.617208 101.346713 
L 267.123408 98.953486 
L 270.629608 92.433262 
L 274.135808 87.784915 
L 277.642007 86.859267 
L 281.148207 88.653521 
L 284.654407 92.351115 
L 288.160607 92.971966 
L 291.666806 91.527234 
L 295.173006 92.606258 
L 302.185405 92.601975 
L 305.691605 89.295446 
L 309.197805 87.255267 
L 312.704005 84.025777 
L 316.210204 81.971819 
L 319.716404 80.333272 
L 323.222604 80.698735 
L 326.728804 78.962589 
L 330.235003 78.003651 
L 337.247403 77.291558 
L 340.753603 77.752051 
L 344.259802 77.061188 
L 347.766002 75.304454 
L 351.272202 75.679469 
L 354.778401 75.828891 
L 358.284601 80.778278 
L 361.790801 81.538795 
L 365.297001 83.799314 
L 368.8032 86.286862 
L 372.3094 85.982944 
L 375.8156 89.40116 
L 379.3218 86.834924 
L 382.827999 81.885436 
L 386.334199 81.747998 
L 389.840399 77.815845 
L 393.346599 81.594998 
L 396.852798 84.047207 
L 400.358998 80.353314 
L 403.865198 81.823959 
L 407.371397 87.070512 
L 410.877597 87.972243 
L 414.383797 93.184274 
L 417.889997 89.973193 
L 421.396196 90.429038 
L 424.902396 92.845119 
L 428.408596 94.513414 
L 431.914796 89.178252 
L 435.420995 87.629996 
L 438.927195 84.248898 
L 442.433395 78.22908 
L 445.939595 76.634212 
L 449.445794 72.597475 
L 452.951994 69.762916 
L 456.458194 67.448916 
L 459.964393 62.778577 
L 463.470593 62.603937 
L 466.976793 67.6379 
L 470.482993 69.571517 
L 473.989192 69.010546 
L 477.495392 71.250107 
L 481.001592 70.721993 
L 484.507792 72.809949 
L 488.013991 72.282206 
L 491.520191 69.193307 
L 495.026391 67.03088 
L 498.53259 73.114496 
L 502.03879 72.6015 
L 505.54499 75.043513 
L 509.05119 79.974301 
L 512.557389 79.745487 
L 516.063589 82.034117 
L 519.569789 84.99334 
L 523.075989 81.148123 
L 526.582188 80.82094 
L 533.594588 79.647904 
L 537.100788 80.296807 
L 540.606987 80.163168 
L 544.113187 79.135206 
L 547.619387 80.45729 
L 551.125586 84.695984 
L 554.631786 87.004848 
L 558.137986 83.139998 
L 561.644186 84.34332 
L 565.150385 85.32128 
L 568.656585 83.827902 
L 572.162785 84.251282 
L 575.668985 80.935023 
L 579.175184 80.632215 
L 582.681384 84.049566 
L 586.187584 85.33979 
L 589.693784 85.833521 
L 593.199983 87.30062 
L 596.706183 87.699287 
L 600.212383 88.304583 
L 603.718582 88.52067 
L 607.224782 89.31318 
L 610.730982 87.856133 
L 614.237182 87.924309 
L 617.743381 87.507356 
L 617.743381 87.507356 
" style="fill:none;stroke:#0000ff;stroke-linecap:square;stroke-width:1.2;"/>
   </g>
   <g id="line2d_2">
    <path clip-path="url(#p0018edcdad)" d="M 112.85062 308.457143 
L 116.35682 298.590476 
L 119.863019 291.005291 
L 123.369219 290.151958 
L 126.875419 293.061049 
L 130.381619 287.905494 
L 133.887818 289.382417 
L 137.394018 287.91513 
L 140.900218 287.75036 
L 144.406418 284.546134 
L 147.912617 282.145686 
L 151.418817 275.398351 
L 154.925017 277.226006 
L 158.431216 273.993462 
L 161.937416 269.640513 
L 165.443616 270.708986 
L 168.949816 271.449719 
L 175.962215 277.278461 
L 179.468415 275.969676 
L 182.974615 274.972974 
L 186.480814 274.234446 
L 189.987014 273.849225 
L 193.493214 272.228674 
L 196.999414 266.810266 
L 200.505613 263.215277 
L 207.518013 255.624281 
L 211.024212 258.459396 
L 214.530412 255.962742 
L 218.036612 255.203825 
L 221.542812 253.818714 
L 225.049011 249.649747 
L 228.555211 253.32708 
L 232.061411 256.596526 
L 235.567611 253.663485 
L 239.07381 251.189183 
L 242.58001 251.20857 
L 246.08621 249.859071 
L 249.59241 255.45466 
L 260.111009 241.267994 
L 263.617208 239.356108 
L 267.123408 236.803354 
L 270.629608 233.009325 
L 274.135808 227.508402 
L 277.642007 229.00685 
L 281.148207 232.801439 
L 284.654407 233.298883 
L 288.160607 230.535507 
L 291.666806 228.740545 
L 295.173006 233.171151 
L 298.679206 230.817003 
L 302.185405 226.361374 
L 305.691605 219.630087 
L 309.197805 218.086333 
L 312.704005 219.754346 
L 316.210204 217.914381 
L 319.716404 214.60745 
L 323.222604 209.914408 
L 326.728804 207.664641 
L 330.235003 208.385248 
L 333.741203 204.192857 
L 337.247403 200.862486 
L 340.753603 204.309776 
L 344.259802 204.99457 
L 347.766002 204.452019 
L 351.272202 200.75874 
L 354.778401 196.069522 
L 358.284601 197.577983 
L 361.790801 193.55097 
L 365.297001 189.933626 
L 368.8032 183.687912 
L 372.3094 184.059904 
L 375.8156 186.05743 
L 379.3218 186.928294 
L 382.827999 182.334729 
L 386.334199 184.097582 
L 389.840399 179.874297 
L 393.346599 177.283506 
L 396.852798 176.762244 
L 400.358998 171.288255 
L 403.865198 166.474919 
L 407.371397 168.20878 
L 410.877597 164.689129 
L 414.383797 161.551808 
L 417.889997 158.864755 
L 421.396196 157.159819 
L 424.902396 156.565324 
L 428.408596 157.444073 
L 431.914796 153.662173 
L 435.420995 152.157535 
L 438.927195 152.747719 
L 442.433395 155.395126 
L 445.939595 152.141432 
L 449.445794 152.785748 
L 452.951994 154.396646 
L 456.458194 153.468528 
L 459.964393 151.271938 
L 463.470593 150.337904 
L 466.976793 149.948887 
L 470.482993 150.600742 
L 473.989192 151.909588 
L 477.495392 154.343917 
L 481.001592 156.380485 
L 484.507792 161.040117 
L 488.013991 171.381312 
L 491.520191 172.045345 
L 495.026391 171.725699 
L 498.53259 173.250015 
L 502.03879 173.883818 
L 505.54499 171.948177 
L 509.05119 170.982131 
L 512.557389 159.300142 
L 516.063589 159.632563 
L 519.569789 160.999757 
L 523.075989 160.549738 
L 526.582188 152.795834 
L 530.088388 152.963602 
L 533.594588 149.116023 
L 537.100788 147.348014 
L 540.606987 141.479972 
L 544.113187 136.696398 
L 547.619387 129.117936 
L 551.125586 129.758098 
L 554.631786 126.824342 
L 558.137986 124.289084 
L 561.644186 122.187115 
L 565.150385 124.805613 
L 568.656585 126.188374 
L 575.668985 132.159456 
L 579.175184 132.898055 
L 582.681384 132.083361 
L 586.187584 133.665123 
L 589.693784 129.751752 
L 593.199983 127.236114 
L 596.706183 125.427266 
L 600.212383 120.145 
L 603.718582 117.897528 
L 607.224782 119.732161 
L 610.730982 117.790394 
L 614.237182 118.623113 
L 614.237182 118.623113 
" style="fill:none;stroke:#008000;stroke-linecap:square;stroke-width:1.2;"/>
   </g>
   <g id="line2d_3">
    <path clip-path="url(#p0018edcdad)" d="M 112.85062 279.809524 
L 116.35682 272.342858 
L 119.863019 271.39471 
L 123.369219 261.79471 
L 126.875419 260.437134 
L 130.381619 256.881579 
L 133.887818 256.553373 
L 137.394018 251.974695 
L 140.900218 249.751502 
L 144.406418 242.999461 
L 147.912617 238.763929 
L 151.418817 236.112144 
L 154.925017 234.18629 
L 158.431216 228.527283 
L 161.937416 224.4262 
L 165.443616 224.775536 
L 168.949816 221.07626 
L 172.456015 221.520798 
L 175.962215 220.726592 
L 179.468415 221.988667 
L 182.974615 221.157492 
L 186.480814 224.024002 
L 189.987014 218.386704 
L 193.493214 215.390072 
L 196.999414 213.769759 
L 200.505613 210.280772 
L 204.011813 216.600677 
L 207.518013 214.280922 
L 211.024212 207.951967 
L 214.530412 202.718526 
L 218.036612 205.354048 
L 221.542812 203.393866 
L 225.049011 202.535899 
L 228.555211 190.45912 
L 232.061411 189.447187 
L 235.567611 186.710922 
L 239.07381 188.433414 
L 242.58001 183.849775 
L 246.08621 180.705358 
L 249.59241 173.938906 
L 253.098609 171.683505 
L 256.604809 173.106811 
L 260.111009 172.716751 
L 263.617208 167.077008 
L 267.123408 163.981667 
L 270.629608 158.920871 
L 274.135808 160.391278 
L 277.642007 157.061107 
L 281.148207 150.575539 
L 284.654407 147.067241 
L 288.160607 146.184438 
L 291.666806 144.323113 
L 295.173006 147.302772 
L 298.679206 144.983144 
L 302.185405 147.828429 
L 305.691605 146.632497 
L 309.197805 143.645209 
L 312.704005 145.255012 
L 316.210204 143.685671 
L 319.716404 139.468971 
L 323.222604 135.434548 
L 326.728804 131.199121 
L 330.235003 130.668349 
L 333.741203 133.60859 
L 337.247403 128.117839 
L 340.753603 128.069032 
L 344.259802 126.863908 
L 347.766002 129.486679 
L 351.272202 129.519056 
L 354.778401 125.984495 
L 358.284601 126.710847 
L 361.790801 130.048771 
L 365.297001 131.513879 
L 368.8032 128.589518 
L 372.3094 127.371787 
L 375.8156 127.69892 
L 379.3218 129.143619 
L 382.827999 125.884602 
L 386.334199 121.62582 
L 389.840399 115.449815 
L 393.346599 121.823684 
L 396.852798 120.248189 
L 400.358998 117.705825 
L 403.865198 115.513175 
L 407.371397 113.89486 
L 410.877597 112.479658 
L 414.383797 114.384518 
L 417.889997 105.771248 
L 421.396196 102.852509 
L 424.902396 102.038151 
L 428.408596 106.416995 
L 431.914796 103.708442 
L 435.420995 103.690143 
L 438.927195 103.031601 
L 442.433395 106.923424 
L 445.939595 109.69811 
L 449.445794 107.333491 
L 452.951994 103.629632 
L 456.458194 108.054338 
L 459.964393 105.928507 
L 463.470593 104.51032 
L 466.976793 101.534953 
L 470.482993 98.937787 
L 473.989192 101.574015 
L 477.495392 101.579994 
L 481.001592 98.456326 
L 484.507792 108.54821 
L 488.013991 113.453689 
L 491.520191 116.01154 
L 495.026391 119.786444 
L 498.53259 121.023298 
L 502.03879 123.33945 
L 505.54499 125.253536 
L 509.05119 118.005227 
L 512.557389 114.252781 
L 516.063589 116.250826 
L 519.569789 115.65065 
L 523.075989 114.088652 
L 526.582188 116.330898 
L 530.088388 113.511207 
L 533.594588 115.627052 
L 537.100788 115.896868 
L 540.606987 115.869641 
L 544.113187 118.512127 
L 547.619387 117.539574 
L 551.125586 111.232549 
L 554.631786 113.190601 
L 558.137986 111.526259 
L 561.644186 109.549032 
L 565.150385 104.46796 
L 568.656585 101.746613 
L 572.162785 100.367667 
L 575.668985 104.290882 
L 579.175184 102.293467 
L 582.681384 102.403766 
L 586.187584 104.315668 
L 589.693784 107.421903 
L 593.199983 104.248206 
L 596.706183 108.813376 
L 600.212383 108.012542 
L 607.224782 106.872786 
L 610.730982 105.428462 
L 614.237182 104.618709 
L 617.743381 106.456699 
L 621.249581 103.33852 
L 624.755781 101.071636 
L 628.261981 102.613349 
L 631.76818 103.207588 
L 635.27438 104.262833 
L 635.27438 104.262833 
" style="fill:none;stroke:#ff0000;stroke-linecap:square;stroke-width:1.2;"/>
   </g>
   <g id="line2d_4">
    <path clip-path="url(#p0018edcdad)" d="M 112.85062 260.304763 
L 116.35682 256.838096 
L 119.863019 258.023282 
L 123.369219 247.143282 
L 126.875419 243.846312 
L 130.381619 246.690756 
L 133.887818 243.080499 
L 137.394018 243.068377 
L 140.900218 233.639937 
L 144.406418 226.020705 
L 147.912617 225.708711 
L 151.418817 219.390434 
L 154.925017 213.844256 
L 158.431216 213.564545 
L 161.937416 208.177071 
L 165.443616 206.710696 
L 168.949816 206.045824 
L 172.456015 202.235859 
L 175.962215 202.064994 
L 179.468415 199.189666 
L 182.974615 192.832624 
L 186.480814 190.011256 
L 189.987014 194.470273 
L 193.493214 192.102923 
L 196.999414 192.636287 
L 200.505613 187.808438 
L 204.011813 184.799626 
L 207.518013 182.868882 
L 211.024212 178.381007 
L 214.530412 167.46132 
L 218.036612 164.088889 
L 221.542812 159.923705 
L 228.555211 149.565283 
L 232.061411 153.239366 
L 235.567611 154.587445 
L 239.07381 154.417659 
L 242.58001 150.719872 
L 246.08621 149.355475 
L 249.59241 151.232187 
L 253.098609 153.986052 
L 256.604809 149.448617 
L 260.111009 143.473836 
L 263.617208 141.319183 
L 267.123408 146.17554 
L 270.629608 143.797596 
L 274.135808 141.748782 
L 277.642007 138.510017 
L 281.148207 136.683971 
L 284.654407 136.489878 
L 288.160607 139.892752 
L 291.666806 135.470999 
L 295.173006 131.54844 
L 302.185405 140.758863 
L 305.691605 141.072316 
L 309.197805 143.722247 
L 312.704005 143.196311 
L 316.210204 141.000823 
L 319.716404 147.799724 
L 323.222604 147.380791 
L 326.728804 143.131196 
L 330.235003 141.484443 
L 333.741203 141.968715 
L 337.247403 147.289669 
L 340.753603 151.383682 
L 344.259802 150.018346 
L 347.766002 147.759696 
L 351.272202 146.310607 
L 358.284601 144.6586 
L 361.790801 140.189543 
L 365.297001 136.866917 
L 368.8032 132.73732 
L 372.3094 131.745855 
L 375.8156 127.507541 
L 379.3218 124.644034 
L 382.827999 122.283939 
L 386.334199 117.460431 
L 389.840399 113.670188 
L 393.346599 112.53169 
L 396.852798 106.130601 
L 400.358998 107.111862 
L 403.865198 108.224772 
L 407.371397 105.33817 
L 410.877597 103.585175 
L 414.383797 103.301713 
L 417.889997 101.935304 
L 421.396196 104.23823 
L 424.902396 103.853079 
L 428.408596 104.009103 
L 431.914796 102.594046 
L 435.420995 99.892164 
L 438.927195 102.255533 
L 442.433395 101.131448 
L 445.939595 104.995029 
L 449.445794 108.529025 
L 452.951994 105.922865 
L 456.458194 105.522518 
L 459.964393 108.581263 
L 463.470593 105.129396 
L 466.976793 106.421546 
L 470.482993 100.951791 
L 473.989192 95.774055 
L 477.495392 95.15748 
L 481.001592 97.478118 
L 484.507792 93.177876 
L 488.013991 90.945708 
L 491.520191 89.427054 
L 495.026391 86.735407 
L 498.53259 83.578588 
L 502.03879 83.672519 
L 505.54499 81.29773 
L 509.05119 84.650539 
L 512.557389 87.448347 
L 519.569789 87.175169 
L 523.075989 92.374906 
L 526.582188 92.38791 
L 530.088388 97.179462 
L 533.594588 96.5022 
L 537.100788 94.080701 
L 540.606987 94.110283 
L 544.113187 96.777087 
L 547.619387 95.47469 
L 551.125586 94.563417 
L 554.631786 90.916029 
L 558.137986 90.650426 
L 561.644186 92.519892 
L 565.150385 89.936016 
L 568.656585 89.060595 
L 572.162785 87.095125 
L 575.668985 87.617808 
L 579.175184 87.060726 
L 582.681384 85.794604 
L 586.187584 84.937839 
L 586.187584 84.937839 
" style="fill:none;stroke:#00bfbf;stroke-linecap:square;stroke-width:1.2;"/>
   </g>
   <g id="patch_3">
    <path d="M 112.5 324 
L 112.5 36 
" style="fill:none;stroke:#000000;stroke-linecap:square;stroke-linejoin:miter;"/>
   </g>
   <g id="patch_4">
    <path d="M 635.625 324 
L 635.625 36 
" style="fill:none;stroke:#000000;stroke-linecap:square;stroke-linejoin:miter;"/>
   </g>
   <g id="patch_5">
    <path d="M 112.5 324 
L 635.625 324 
" style="fill:none;stroke:#000000;stroke-linecap:square;stroke-linejoin:miter;"/>
   </g>
   <g id="patch_6">
    <path d="M 112.5 36 
L 635.625 36 
" style="fill:none;stroke:#000000;stroke-linecap:square;stroke-linejoin:miter;"/>
   </g>
   <g id="matplotlib.axis_1">
    <g id="xtick_1">
     <g id="line2d_5">
      <defs>
       <path d="M 0 0 
L 0 -4 
" id="m41a344472a" style="stroke:#000000;stroke-width:0.5;"/>
      </defs>
      <g>
       <use style="stroke:#000000;stroke-width:0.5;" x="112.85062" xlink:href="#m41a344472a" y="324"/>
      </g>
     </g>
     <g id="line2d_6">
      <defs>
       <path d="M 0 0 
L 0 4 
" id="m99075ac58b" style="stroke:#000000;stroke-width:0.5;"/>
      </defs>
      <g>
       <use style="stroke:#000000;stroke-width:0.5;" x="112.85062" xlink:href="#m99075ac58b" y="36"/>
      </g>
     </g>
     <g id="text_1">
      <!-- 0 -->
      <defs>
       <path d="M 31.78125 66.40625 
Q 24.171875 66.40625 20.328125 58.90625 
Q 16.5 51.421875 16.5 36.375 
Q 16.5 21.390625 20.328125 13.890625 
Q 24.171875 6.390625 31.78125 6.390625 
Q 39.453125 6.390625 43.28125 13.890625 
Q 47.125 21.390625 47.125 36.375 
Q 47.125 51.421875 43.28125 58.90625 
Q 39.453125 66.40625 31.78125 66.40625 
z
M 31.78125 74.21875 
Q 44.046875 74.21875 50.515625 64.515625 
Q 56.984375 54.828125 56.984375 36.375 
Q 56.984375 17.96875 50.515625 8.265625 
Q 44.046875 -1.421875 31.78125 -1.421875 
Q 19.53125 -1.421875 13.0625 8.265625 
Q 6.59375 17.96875 6.59375 36.375 
Q 6.59375 54.828125 13.0625 64.515625 
Q 19.53125 74.21875 31.78125 74.21875 
z
" id="DejaVuSans-48"/>
      </defs>
      <g transform="translate(109.03312 337.118125)scale(0.12 -0.12)">
       <use xlink:href="#DejaVuSans-48"/>
      </g>
     </g>
    </g>
    <g id="xtick_2">
     <g id="line2d_7">
      <g>
       <use style="stroke:#000000;stroke-width:0.5;" x="165.443616" xlink:href="#m41a344472a" y="324"/>
      </g>
     </g>
     <g id="line2d_8">
      <g>
       <use style="stroke:#000000;stroke-width:0.5;" x="165.443616" xlink:href="#m99075ac58b" y="36"/>
      </g>
     </g>
     <g id="text_2">
      <!-- 15 -->
      <defs>
       <path d="M 12.40625 8.296875 
L 28.515625 8.296875 
L 28.515625 63.921875 
L 10.984375 60.40625 
L 10.984375 69.390625 
L 28.421875 72.90625 
L 38.28125 72.90625 
L 38.28125 8.296875 
L 54.390625 8.296875 
L 54.390625 0 
L 12.40625 0 
z
" id="DejaVuSans-49"/>
       <path d="M 10.796875 72.90625 
L 49.515625 72.90625 
L 49.515625 64.59375 
L 19.828125 64.59375 
L 19.828125 46.734375 
Q 21.96875 47.46875 24.109375 47.828125 
Q 26.265625 48.1875 28.421875 48.1875 
Q 40.625 48.1875 47.75 41.5 
Q 54.890625 34.8125 54.890625 23.390625 
Q 54.890625 11.625 47.5625 5.09375 
Q 40.234375 -1.421875 26.90625 -1.421875 
Q 22.3125 -1.421875 17.546875 -0.640625 
Q 12.796875 0.140625 7.71875 1.703125 
L 7.71875 11.625 
Q 12.109375 9.234375 16.796875 8.0625 
Q 21.484375 6.890625 26.703125 6.890625 
Q 35.15625 6.890625 40.078125 11.328125 
Q 45.015625 15.765625 45.015625 23.390625 
Q 45.015625 31 40.078125 35.4375 
Q 35.15625 39.890625 26.703125 39.890625 
Q 22.75 39.890625 18.8125 39.015625 
Q 14.890625 38.140625 10.796875 36.28125 
z
" id="DejaVuSans-53"/>
      </defs>
      <g transform="translate(157.808616 337.118125)scale(0.12 -0.12)">
       <use xlink:href="#DejaVuSans-49"/>
       <use x="63.623047" xlink:href="#DejaVuSans-53"/>
      </g>
     </g>
    </g>
    <g id="xtick_3">
     <g id="line2d_9">
      <g>
       <use style="stroke:#000000;stroke-width:0.5;" x="218.036612" xlink:href="#m41a344472a" y="324"/>
      </g>
     </g>
     <g id="line2d_10">
      <g>
       <use style="stroke:#000000;stroke-width:0.5;" x="218.036612" xlink:href="#m99075ac58b" y="36"/>
      </g>
     </g>
     <g id="text_3">
      <!-- 30 -->
      <defs>
       <path d="M 40.578125 39.3125 
Q 47.65625 37.796875 51.625 33 
Q 55.609375 28.21875 55.609375 21.1875 
Q 55.609375 10.40625 48.1875 4.484375 
Q 40.765625 -1.421875 27.09375 -1.421875 
Q 22.515625 -1.421875 17.65625 -0.515625 
Q 12.796875 0.390625 7.625 2.203125 
L 7.625 11.71875 
Q 11.71875 9.328125 16.59375 8.109375 
Q 21.484375 6.890625 26.8125 6.890625 
Q 36.078125 6.890625 40.9375 10.546875 
Q 45.796875 14.203125 45.796875 21.1875 
Q 45.796875 27.640625 41.28125 31.265625 
Q 36.765625 34.90625 28.71875 34.90625 
L 20.21875 34.90625 
L 20.21875 43.015625 
L 29.109375 43.015625 
Q 36.375 43.015625 40.234375 45.921875 
Q 44.09375 48.828125 44.09375 54.296875 
Q 44.09375 59.90625 40.109375 62.90625 
Q 36.140625 65.921875 28.71875 65.921875 
Q 24.65625 65.921875 20.015625 65.03125 
Q 15.375 64.15625 9.8125 62.3125 
L 9.8125 71.09375 
Q 15.4375 72.65625 20.34375 73.4375 
Q 25.25 74.21875 29.59375 74.21875 
Q 40.828125 74.21875 47.359375 69.109375 
Q 53.90625 64.015625 53.90625 55.328125 
Q 53.90625 49.265625 50.4375 45.09375 
Q 46.96875 40.921875 40.578125 39.3125 
z
" id="DejaVuSans-51"/>
      </defs>
      <g transform="translate(210.401612 337.118125)scale(0.12 -0.12)">
       <use xlink:href="#DejaVuSans-51"/>
       <use x="63.623047" xlink:href="#DejaVuSans-48"/>
      </g>
     </g>
    </g>
    <g id="xtick_4">
     <g id="line2d_11">
      <g>
       <use style="stroke:#000000;stroke-width:0.5;" x="270.629608" xlink:href="#m41a344472a" y="324"/>
      </g>
     </g>
     <g id="line2d_12">
      <g>
       <use style="stroke:#000000;stroke-width:0.5;" x="270.629608" xlink:href="#m99075ac58b" y="36"/>
      </g>
     </g>
     <g id="text_4">
      <!-- 45 -->
      <defs>
       <path d="M 37.796875 64.3125 
L 12.890625 25.390625 
L 37.796875 25.390625 
z
M 35.203125 72.90625 
L 47.609375 72.90625 
L 47.609375 25.390625 
L 58.015625 25.390625 
L 58.015625 17.1875 
L 47.609375 17.1875 
L 47.609375 0 
L 37.796875 0 
L 37.796875 17.1875 
L 4.890625 17.1875 
L 4.890625 26.703125 
z
" id="DejaVuSans-52"/>
      </defs>
      <g transform="translate(262.994608 337.118125)scale(0.12 -0.12)">
       <use xlink:href="#DejaVuSans-52"/>
       <use x="63.623047" xlink:href="#DejaVuSans-53"/>
      </g>
     </g>
    </g>
    <g id="xtick_5">
     <g id="line2d_13">
      <g>
       <use style="stroke:#000000;stroke-width:0.5;" x="323.222604" xlink:href="#m41a344472a" y="324"/>
      </g>
     </g>
     <g id="line2d_14">
      <g>
       <use style="stroke:#000000;stroke-width:0.5;" x="323.222604" xlink:href="#m99075ac58b" y="36"/>
      </g>
     </g>
     <g id="text_5">
      <!-- 60 -->
      <defs>
       <path d="M 33.015625 40.375 
Q 26.375 40.375 22.484375 35.828125 
Q 18.609375 31.296875 18.609375 23.390625 
Q 18.609375 15.53125 22.484375 10.953125 
Q 26.375 6.390625 33.015625 6.390625 
Q 39.65625 6.390625 43.53125 10.953125 
Q 47.40625 15.53125 47.40625 23.390625 
Q 47.40625 31.296875 43.53125 35.828125 
Q 39.65625 40.375 33.015625 40.375 
z
M 52.59375 71.296875 
L 52.59375 62.3125 
Q 48.875 64.0625 45.09375 64.984375 
Q 41.3125 65.921875 37.59375 65.921875 
Q 27.828125 65.921875 22.671875 59.328125 
Q 17.53125 52.734375 16.796875 39.40625 
Q 19.671875 43.65625 24.015625 45.921875 
Q 28.375 48.1875 33.59375 48.1875 
Q 44.578125 48.1875 50.953125 41.515625 
Q 57.328125 34.859375 57.328125 23.390625 
Q 57.328125 12.15625 50.6875 5.359375 
Q 44.046875 -1.421875 33.015625 -1.421875 
Q 20.359375 -1.421875 13.671875 8.265625 
Q 6.984375 17.96875 6.984375 36.375 
Q 6.984375 53.65625 15.1875 63.9375 
Q 23.390625 74.21875 37.203125 74.21875 
Q 40.921875 74.21875 44.703125 73.484375 
Q 48.484375 72.75 52.59375 71.296875 
z
" id="DejaVuSans-54"/>
      </defs>
      <g transform="translate(315.587604 337.118125)scale(0.12 -0.12)">
       <use xlink:href="#DejaVuSans-54"/>
       <use x="63.623047" xlink:href="#DejaVuSans-48"/>
      </g>
     </g>
    </g>
    <g id="xtick_6">
     <g id="line2d_15">
      <g>
       <use style="stroke:#000000;stroke-width:0.5;" x="375.8156" xlink:href="#m41a344472a" y="324"/>
      </g>
     </g>
     <g id="line2d_16">
      <g>
       <use style="stroke:#000000;stroke-width:0.5;" x="375.8156" xlink:href="#m99075ac58b" y="36"/>
      </g>
     </g>
     <g id="text_6">
      <!-- 75 -->
      <defs>
       <path d="M 8.203125 72.90625 
L 55.078125 72.90625 
L 55.078125 68.703125 
L 28.609375 0 
L 18.3125 0 
L 43.21875 64.59375 
L 8.203125 64.59375 
z
" id="DejaVuSans-55"/>
      </defs>
      <g transform="translate(368.1806 337.118125)scale(0.12 -0.12)">
       <use xlink:href="#DejaVuSans-55"/>
       <use x="63.623047" xlink:href="#DejaVuSans-53"/>
      </g>
     </g>
    </g>
    <g id="xtick_7">
     <g id="line2d_17">
      <g>
       <use style="stroke:#000000;stroke-width:0.5;" x="428.408596" xlink:href="#m41a344472a" y="324"/>
      </g>
     </g>
     <g id="line2d_18">
      <g>
       <use style="stroke:#000000;stroke-width:0.5;" x="428.408596" xlink:href="#m99075ac58b" y="36"/>
      </g>
     </g>
     <g id="text_7">
      <!-- 90 -->
      <defs>
       <path d="M 10.984375 1.515625 
L 10.984375 10.5 
Q 14.703125 8.734375 18.5 7.8125 
Q 22.3125 6.890625 25.984375 6.890625 
Q 35.75 6.890625 40.890625 13.453125 
Q 46.046875 20.015625 46.78125 33.40625 
Q 43.953125 29.203125 39.59375 26.953125 
Q 35.25 24.703125 29.984375 24.703125 
Q 19.046875 24.703125 12.671875 31.3125 
Q 6.296875 37.9375 6.296875 49.421875 
Q 6.296875 60.640625 12.9375 67.421875 
Q 19.578125 74.21875 30.609375 74.21875 
Q 43.265625 74.21875 49.921875 64.515625 
Q 56.59375 54.828125 56.59375 36.375 
Q 56.59375 19.140625 48.40625 8.859375 
Q 40.234375 -1.421875 26.421875 -1.421875 
Q 22.703125 -1.421875 18.890625 -0.6875 
Q 15.09375 0.046875 10.984375 1.515625 
z
M 30.609375 32.421875 
Q 37.25 32.421875 41.125 36.953125 
Q 45.015625 41.5 45.015625 49.421875 
Q 45.015625 57.28125 41.125 61.84375 
Q 37.25 66.40625 30.609375 66.40625 
Q 23.96875 66.40625 20.09375 61.84375 
Q 16.21875 57.28125 16.21875 49.421875 
Q 16.21875 41.5 20.09375 36.953125 
Q 23.96875 32.421875 30.609375 32.421875 
z
" id="DejaVuSans-57"/>
      </defs>
      <g transform="translate(420.773596 337.118125)scale(0.12 -0.12)">
       <use xlink:href="#DejaVuSans-57"/>
       <use x="63.623047" xlink:href="#DejaVuSans-48"/>
      </g>
     </g>
    </g>
    <g id="xtick_8">
     <g id="line2d_19">
      <g>
       <use style="stroke:#000000;stroke-width:0.5;" x="481.001592" xlink:href="#m41a344472a" y="324"/>
      </g>
     </g>
     <g id="line2d_20">
      <g>
       <use style="stroke:#000000;stroke-width:0.5;" x="481.001592" xlink:href="#m99075ac58b" y="36"/>
      </g>
     </g>
     <g id="text_8">
      <!-- 105 -->
      <g transform="translate(469.549092 337.118125)scale(0.12 -0.12)">
       <use xlink:href="#DejaVuSans-49"/>
       <use x="63.623047" xlink:href="#DejaVuSans-48"/>
       <use x="127.246094" xlink:href="#DejaVuSans-53"/>
      </g>
     </g>
    </g>
    <g id="xtick_9">
     <g id="line2d_21">
      <g>
       <use style="stroke:#000000;stroke-width:0.5;" x="533.594588" xlink:href="#m41a344472a" y="324"/>
      </g>
     </g>
     <g id="line2d_22">
      <g>
       <use style="stroke:#000000;stroke-width:0.5;" x="533.594588" xlink:href="#m99075ac58b" y="36"/>
      </g>
     </g>
     <g id="text_9">
      <!-- 120 -->
      <defs>
       <path d="M 19.1875 8.296875 
L 53.609375 8.296875 
L 53.609375 0 
L 7.328125 0 
L 7.328125 8.296875 
Q 12.9375 14.109375 22.625 23.890625 
Q 32.328125 33.6875 34.8125 36.53125 
Q 39.546875 41.84375 41.421875 45.53125 
Q 43.3125 49.21875 43.3125 52.78125 
Q 43.3125 58.59375 39.234375 62.25 
Q 35.15625 65.921875 28.609375 65.921875 
Q 23.96875 65.921875 18.8125 64.3125 
Q 13.671875 62.703125 7.8125 59.421875 
L 7.8125 69.390625 
Q 13.765625 71.78125 18.9375 73 
Q 24.125 74.21875 28.421875 74.21875 
Q 39.75 74.21875 46.484375 68.546875 
Q 53.21875 62.890625 53.21875 53.421875 
Q 53.21875 48.921875 51.53125 44.890625 
Q 49.859375 40.875 45.40625 35.40625 
Q 44.1875 33.984375 37.640625 27.21875 
Q 31.109375 20.453125 19.1875 8.296875 
z
" id="DejaVuSans-50"/>
      </defs>
      <g transform="translate(522.142088 337.118125)scale(0.12 -0.12)">
       <use xlink:href="#DejaVuSans-49"/>
       <use x="63.623047" xlink:href="#DejaVuSans-50"/>
       <use x="127.246094" xlink:href="#DejaVuSans-48"/>
      </g>
     </g>
    </g>
    <g id="xtick_10">
     <g id="line2d_23">
      <g>
       <use style="stroke:#000000;stroke-width:0.5;" x="586.187584" xlink:href="#m41a344472a" y="324"/>
      </g>
     </g>
     <g id="line2d_24">
      <g>
       <use style="stroke:#000000;stroke-width:0.5;" x="586.187584" xlink:href="#m99075ac58b" y="36"/>
      </g>
     </g>
     <g id="text_10">
      <!-- 135 -->
      <g transform="translate(574.735084 337.118125)scale(0.12 -0.12)">
       <use xlink:href="#DejaVuSans-49"/>
       <use x="63.623047" xlink:href="#DejaVuSans-51"/>
       <use x="127.246094" xlink:href="#DejaVuSans-53"/>
      </g>
     </g>
    </g>
    <g id="text_11">
     <!-- generation -->
     <defs>
      <path d="M 45.40625 27.984375 
Q 45.40625 37.75 41.375 43.109375 
Q 37.359375 48.484375 30.078125 48.484375 
Q 22.859375 48.484375 18.828125 43.109375 
Q 14.796875 37.75 14.796875 27.984375 
Q 14.796875 18.265625 18.828125 12.890625 
Q 22.859375 7.515625 30.078125 7.515625 
Q 37.359375 7.515625 41.375 12.890625 
Q 45.40625 18.265625 45.40625 27.984375 
z
M 54.390625 6.78125 
Q 54.390625 -7.171875 48.1875 -13.984375 
Q 42 -20.796875 29.203125 -20.796875 
Q 24.46875 -20.796875 20.265625 -20.09375 
Q 16.0625 -19.390625 12.109375 -17.921875 
L 12.109375 -9.1875 
Q 16.0625 -11.328125 19.921875 -12.34375 
Q 23.78125 -13.375 27.78125 -13.375 
Q 36.625 -13.375 41.015625 -8.765625 
Q 45.40625 -4.15625 45.40625 5.171875 
L 45.40625 9.625 
Q 42.625 4.78125 38.28125 2.390625 
Q 33.9375 0 27.875 0 
Q 17.828125 0 11.671875 7.65625 
Q 5.515625 15.328125 5.515625 27.984375 
Q 5.515625 40.671875 11.671875 48.328125 
Q 17.828125 56 27.875 56 
Q 33.9375 56 38.28125 53.609375 
Q 42.625 51.21875 45.40625 46.390625 
L 45.40625 54.6875 
L 54.390625 54.6875 
z
" id="DejaVuSans-103"/>
      <path d="M 56.203125 29.59375 
L 56.203125 25.203125 
L 14.890625 25.203125 
Q 15.484375 15.921875 20.484375 11.0625 
Q 25.484375 6.203125 34.421875 6.203125 
Q 39.59375 6.203125 44.453125 7.46875 
Q 49.3125 8.734375 54.109375 11.28125 
L 54.109375 2.78125 
Q 49.265625 0.734375 44.1875 -0.34375 
Q 39.109375 -1.421875 33.890625 -1.421875 
Q 20.796875 -1.421875 13.15625 6.1875 
Q 5.515625 13.8125 5.515625 26.8125 
Q 5.515625 40.234375 12.765625 48.109375 
Q 20.015625 56 32.328125 56 
Q 43.359375 56 49.78125 48.890625 
Q 56.203125 41.796875 56.203125 29.59375 
z
M 47.21875 32.234375 
Q 47.125 39.59375 43.09375 43.984375 
Q 39.0625 48.390625 32.421875 48.390625 
Q 24.90625 48.390625 20.390625 44.140625 
Q 15.875 39.890625 15.1875 32.171875 
z
" id="DejaVuSans-101"/>
      <path d="M 54.890625 33.015625 
L 54.890625 0 
L 45.90625 0 
L 45.90625 32.71875 
Q 45.90625 40.484375 42.875 44.328125 
Q 39.84375 48.1875 33.796875 48.1875 
Q 26.515625 48.1875 22.3125 43.546875 
Q 18.109375 38.921875 18.109375 30.90625 
L 18.109375 0 
L 9.078125 0 
L 9.078125 54.6875 
L 18.109375 54.6875 
L 18.109375 46.1875 
Q 21.34375 51.125 25.703125 53.5625 
Q 30.078125 56 35.796875 56 
Q 45.21875 56 50.046875 50.171875 
Q 54.890625 44.34375 54.890625 33.015625 
z
" id="DejaVuSans-110"/>
      <path d="M 41.109375 46.296875 
Q 39.59375 47.171875 37.8125 47.578125 
Q 36.03125 48 33.890625 48 
Q 26.265625 48 22.1875 43.046875 
Q 18.109375 38.09375 18.109375 28.8125 
L 18.109375 0 
L 9.078125 0 
L 9.078125 54.6875 
L 18.109375 54.6875 
L 18.109375 46.1875 
Q 20.953125 51.171875 25.484375 53.578125 
Q 30.03125 56 36.53125 56 
Q 37.453125 56 38.578125 55.875 
Q 39.703125 55.765625 41.0625 55.515625 
z
" id="DejaVuSans-114"/>
      <path d="M 34.28125 27.484375 
Q 23.390625 27.484375 19.1875 25 
Q 14.984375 22.515625 14.984375 16.5 
Q 14.984375 11.71875 18.140625 8.90625 
Q 21.296875 6.109375 26.703125 6.109375 
Q 34.1875 6.109375 38.703125 11.40625 
Q 43.21875 16.703125 43.21875 25.484375 
L 43.21875 27.484375 
z
M 52.203125 31.203125 
L 52.203125 0 
L 43.21875 0 
L 43.21875 8.296875 
Q 40.140625 3.328125 35.546875 0.953125 
Q 30.953125 -1.421875 24.3125 -1.421875 
Q 15.921875 -1.421875 10.953125 3.296875 
Q 6 8.015625 6 15.921875 
Q 6 25.140625 12.171875 29.828125 
Q 18.359375 34.515625 30.609375 34.515625 
L 43.21875 34.515625 
L 43.21875 35.40625 
Q 43.21875 41.609375 39.140625 45 
Q 35.0625 48.390625 27.6875 48.390625 
Q 23 48.390625 18.546875 47.265625 
Q 14.109375 46.140625 10.015625 43.890625 
L 10.015625 52.203125 
Q 14.9375 54.109375 19.578125 55.046875 
Q 24.21875 56 28.609375 56 
Q 40.484375 56 46.34375 49.84375 
Q 52.203125 43.703125 52.203125 31.203125 
z
" id="DejaVuSans-97"/>
      <path d="M 18.3125 70.21875 
L 18.3125 54.6875 
L 36.8125 54.6875 
L 36.8125 47.703125 
L 18.3125 47.703125 
L 18.3125 18.015625 
Q 18.3125 11.328125 20.140625 9.421875 
Q 21.96875 7.515625 27.59375 7.515625 
L 36.8125 7.515625 
L 36.8125 0 
L 27.59375 0 
Q 17.1875 0 13.234375 3.875 
Q 9.28125 7.765625 9.28125 18.015625 
L 9.28125 47.703125 
L 2.6875 47.703125 
L 2.6875 54.6875 
L 9.28125 54.6875 
L 9.28125 70.21875 
z
" id="DejaVuSans-116"/>
      <path d="M 9.421875 54.6875 
L 18.40625 54.6875 
L 18.40625 0 
L 9.421875 0 
z
M 9.421875 75.984375 
L 18.40625 75.984375 
L 18.40625 64.59375 
L 9.421875 64.59375 
z
" id="DejaVuSans-105"/>
      <path d="M 30.609375 48.390625 
Q 23.390625 48.390625 19.1875 42.75 
Q 14.984375 37.109375 14.984375 27.296875 
Q 14.984375 17.484375 19.15625 11.84375 
Q 23.34375 6.203125 30.609375 6.203125 
Q 37.796875 6.203125 41.984375 11.859375 
Q 46.1875 17.53125 46.1875 27.296875 
Q 46.1875 37.015625 41.984375 42.703125 
Q 37.796875 48.390625 30.609375 48.390625 
z
M 30.609375 56 
Q 42.328125 56 49.015625 48.375 
Q 55.71875 40.765625 55.71875 27.296875 
Q 55.71875 13.875 49.015625 6.21875 
Q 42.328125 -1.421875 30.609375 -1.421875 
Q 18.84375 -1.421875 12.171875 6.21875 
Q 5.515625 13.875 5.515625 27.296875 
Q 5.515625 40.765625 12.171875 48.375 
Q 18.84375 56 30.609375 56 
z
" id="DejaVuSans-111"/>
     </defs>
     <g transform="translate(341.430938 353.731875)scale(0.12 -0.12)">
      <use xlink:href="#DejaVuSans-103"/>
      <use x="63.476562" xlink:href="#DejaVuSans-101"/>
      <use x="125" xlink:href="#DejaVuSans-110"/>
      <use x="188.378906" xlink:href="#DejaVuSans-101"/>
      <use x="249.902344" xlink:href="#DejaVuSans-114"/>
      <use x="291.015625" xlink:href="#DejaVuSans-97"/>
      <use x="352.294922" xlink:href="#DejaVuSans-116"/>
      <use x="391.503906" xlink:href="#DejaVuSans-105"/>
      <use x="419.287109" xlink:href="#DejaVuSans-111"/>
      <use x="480.46875" xlink:href="#DejaVuSans-110"/>
     </g>
    </g>
   </g>
   <g id="matplotlib.axis_2">
    <g id="ytick_1">
     <g id="line2d_25">
      <defs>
       <path d="M 0 0 
L 4 0 
" id="m2b79d604de" style="stroke:#000000;stroke-width:0.5;"/>
      </defs>
      <g>
       <use style="stroke:#000000;stroke-width:0.5;" x="112.5" xlink:href="#m2b79d604de" y="292"/>
      </g>
     </g>
     <g id="line2d_26">
      <defs>
       <path d="M 0 0 
L -4 0 
" id="m220c8d2351" style="stroke:#000000;stroke-width:0.5;"/>
      </defs>
      <g>
       <use style="stroke:#000000;stroke-width:0.5;" x="635.625" xlink:href="#m220c8d2351" y="292"/>
      </g>
     </g>
     <g id="text_12">
      <!-- 0.91 -->
      <defs>
       <path d="M 10.6875 12.40625 
L 21 12.40625 
L 21 0 
L 10.6875 0 
z
" id="DejaVuSans-46"/>
      </defs>
      <g transform="translate(81.78125 295.31125)scale(0.12 -0.12)">
       <use xlink:href="#DejaVuSans-48"/>
       <use x="63.623047" xlink:href="#DejaVuSans-46"/>
       <use x="95.410156" xlink:href="#DejaVuSans-57"/>
       <use x="159.033203" xlink:href="#DejaVuSans-49"/>
      </g>
     </g>
    </g>
    <g id="ytick_2">
     <g id="line2d_27">
      <g>
       <use style="stroke:#000000;stroke-width:0.5;" x="112.5" xlink:href="#m2b79d604de" y="228"/>
      </g>
     </g>
     <g id="line2d_28">
      <g>
       <use style="stroke:#000000;stroke-width:0.5;" x="635.625" xlink:href="#m220c8d2351" y="228"/>
      </g>
     </g>
     <g id="text_13">
      <!-- 0.92 -->
      <g transform="translate(81.78125 231.31125)scale(0.12 -0.12)">
       <use xlink:href="#DejaVuSans-48"/>
       <use x="63.623047" xlink:href="#DejaVuSans-46"/>
       <use x="95.410156" xlink:href="#DejaVuSans-57"/>
       <use x="159.033203" xlink:href="#DejaVuSans-50"/>
      </g>
     </g>
    </g>
    <g id="ytick_3">
     <g id="line2d_29">
      <g>
       <use style="stroke:#000000;stroke-width:0.5;" x="112.5" xlink:href="#m2b79d604de" y="164"/>
      </g>
     </g>
     <g id="line2d_30">
      <g>
       <use style="stroke:#000000;stroke-width:0.5;" x="635.625" xlink:href="#m220c8d2351" y="164"/>
      </g>
     </g>
     <g id="text_14">
      <!-- 0.93 -->
      <g transform="translate(81.78125 167.31125)scale(0.12 -0.12)">
       <use xlink:href="#DejaVuSans-48"/>
       <use x="63.623047" xlink:href="#DejaVuSans-46"/>
       <use x="95.410156" xlink:href="#DejaVuSans-57"/>
       <use x="159.033203" xlink:href="#DejaVuSans-51"/>
      </g>
     </g>
    </g>
    <g id="ytick_4">
     <g id="line2d_31">
      <g>
       <use style="stroke:#000000;stroke-width:0.5;" x="112.5" xlink:href="#m2b79d604de" y="100"/>
      </g>
     </g>
     <g id="line2d_32">
      <g>
       <use style="stroke:#000000;stroke-width:0.5;" x="635.625" xlink:href="#m220c8d2351" y="100"/>
      </g>
     </g>
     <g id="text_15">
      <!-- 0.94 -->
      <g transform="translate(81.78125 103.31125)scale(0.12 -0.12)">
       <use xlink:href="#DejaVuSans-48"/>
       <use x="63.623047" xlink:href="#DejaVuSans-46"/>
       <use x="95.410156" xlink:href="#DejaVuSans-57"/>
       <use x="159.033203" xlink:href="#DejaVuSans-52"/>
      </g>
     </g>
    </g>
    <g id="ytick_5">
     <g id="line2d_33">
      <g>
       <use style="stroke:#000000;stroke-width:0.5;" x="112.5" xlink:href="#m2b79d604de" y="36"/>
      </g>
     </g>
     <g id="line2d_34">
      <g>
       <use style="stroke:#000000;stroke-width:0.5;" x="635.625" xlink:href="#m220c8d2351" y="36"/>
      </g>
     </g>
     <g id="text_16">
      <!-- 0.95 -->
      <g transform="translate(81.78125 39.31125)scale(0.12 -0.12)">
       <use xlink:href="#DejaVuSans-48"/>
       <use x="63.623047" xlink:href="#DejaVuSans-46"/>
       <use x="95.410156" xlink:href="#DejaVuSans-57"/>
       <use x="159.033203" xlink:href="#DejaVuSans-53"/>
      </g>
     </g>
    </g>
    <g id="text_17">
     <!-- accuracy -->
     <defs>
      <path d="M 48.78125 52.59375 
L 48.78125 44.1875 
Q 44.96875 46.296875 41.140625 47.34375 
Q 37.3125 48.390625 33.40625 48.390625 
Q 24.65625 48.390625 19.8125 42.84375 
Q 14.984375 37.3125 14.984375 27.296875 
Q 14.984375 17.28125 19.8125 11.734375 
Q 24.65625 6.203125 33.40625 6.203125 
Q 37.3125 6.203125 41.140625 7.25 
Q 44.96875 8.296875 48.78125 10.40625 
L 48.78125 2.09375 
Q 45.015625 0.34375 40.984375 -0.53125 
Q 36.96875 -1.421875 32.421875 -1.421875 
Q 20.0625 -1.421875 12.78125 6.34375 
Q 5.515625 14.109375 5.515625 27.296875 
Q 5.515625 40.671875 12.859375 48.328125 
Q 20.21875 56 33.015625 56 
Q 37.15625 56 41.109375 55.140625 
Q 45.0625 54.296875 48.78125 52.59375 
z
" id="DejaVuSans-99"/>
      <path d="M 8.5 21.578125 
L 8.5 54.6875 
L 17.484375 54.6875 
L 17.484375 21.921875 
Q 17.484375 14.15625 20.5 10.265625 
Q 23.53125 6.390625 29.59375 6.390625 
Q 36.859375 6.390625 41.078125 11.03125 
Q 45.3125 15.671875 45.3125 23.6875 
L 45.3125 54.6875 
L 54.296875 54.6875 
L 54.296875 0 
L 45.3125 0 
L 45.3125 8.40625 
Q 42.046875 3.421875 37.71875 1 
Q 33.40625 -1.421875 27.6875 -1.421875 
Q 18.265625 -1.421875 13.375 4.4375 
Q 8.5 10.296875 8.5 21.578125 
z
M 31.109375 56 
z
" id="DejaVuSans-117"/>
      <path d="M 32.171875 -5.078125 
Q 28.375 -14.84375 24.75 -17.8125 
Q 21.140625 -20.796875 15.09375 -20.796875 
L 7.90625 -20.796875 
L 7.90625 -13.28125 
L 13.1875 -13.28125 
Q 16.890625 -13.28125 18.9375 -11.515625 
Q 21 -9.765625 23.484375 -3.21875 
L 25.09375 0.875 
L 2.984375 54.6875 
L 12.5 54.6875 
L 29.59375 11.921875 
L 46.6875 54.6875 
L 56.203125 54.6875 
z
" id="DejaVuSans-121"/>
     </defs>
     <g transform="translate(74.285625 207.07125)rotate(-90)scale(0.12 -0.12)">
      <use xlink:href="#DejaVuSans-97"/>
      <use x="61.279297" xlink:href="#DejaVuSans-99"/>
      <use x="116.259766" xlink:href="#DejaVuSans-99"/>
      <use x="171.240234" xlink:href="#DejaVuSans-117"/>
      <use x="234.619141" xlink:href="#DejaVuSans-114"/>
      <use x="275.732422" xlink:href="#DejaVuSans-97"/>
      <use x="337.011719" xlink:href="#DejaVuSans-99"/>
      <use x="391.992188" xlink:href="#DejaVuSans-121"/>
     </g>
    </g>
   </g>
   <g id="legend_1">
    <g id="patch_7">
     <path d="M 640.623 211.399935 
L 834.22053 211.399935 
L 834.22053 148.600065 
L 640.623 148.600065 
z
" style="fill:#ffffff;stroke:#000000;stroke-linejoin:miter;"/>
    </g>
    <g id="line2d_35">
     <path d="M 647.6202 156.695263 
L 661.6146 156.695263 
" style="fill:none;stroke:#0000ff;stroke-linecap:square;stroke-width:1.2;"/>
    </g>
    <g id="line2d_36"/>
    <g id="text_18">
     <!-- Lonely_los_exp_loss -->
     <defs>
      <path d="M 9.8125 72.90625 
L 19.671875 72.90625 
L 19.671875 8.296875 
L 55.171875 8.296875 
L 55.171875 0 
L 9.8125 0 
z
" id="DejaVuSans-76"/>
      <path d="M 9.421875 75.984375 
L 18.40625 75.984375 
L 18.40625 0 
L 9.421875 0 
z
" id="DejaVuSans-108"/>
      <path d="M 50.984375 -16.609375 
L 50.984375 -23.578125 
L -0.984375 -23.578125 
L -0.984375 -16.609375 
z
" id="DejaVuSans-95"/>
      <path d="M 44.28125 53.078125 
L 44.28125 44.578125 
Q 40.484375 46.53125 36.375 47.5 
Q 32.28125 48.484375 27.875 48.484375 
Q 21.1875 48.484375 17.84375 46.4375 
Q 14.5 44.390625 14.5 40.28125 
Q 14.5 37.15625 16.890625 35.375 
Q 19.28125 33.59375 26.515625 31.984375 
L 29.59375 31.296875 
Q 39.15625 29.25 43.1875 25.515625 
Q 47.21875 21.78125 47.21875 15.09375 
Q 47.21875 7.46875 41.1875 3.015625 
Q 35.15625 -1.421875 24.609375 -1.421875 
Q 20.21875 -1.421875 15.453125 -0.5625 
Q 10.6875 0.296875 5.421875 2 
L 5.421875 11.28125 
Q 10.40625 8.6875 15.234375 7.390625 
Q 20.0625 6.109375 24.8125 6.109375 
Q 31.15625 6.109375 34.5625 8.28125 
Q 37.984375 10.453125 37.984375 14.40625 
Q 37.984375 18.0625 35.515625 20.015625 
Q 33.0625 21.96875 24.703125 23.78125 
L 21.578125 24.515625 
Q 13.234375 26.265625 9.515625 29.90625 
Q 5.8125 33.546875 5.8125 39.890625 
Q 5.8125 47.609375 11.28125 51.796875 
Q 16.75 56 26.8125 56 
Q 31.78125 56 36.171875 55.265625 
Q 40.578125 54.546875 44.28125 53.078125 
z
" id="DejaVuSans-115"/>
      <path d="M 54.890625 54.6875 
L 35.109375 28.078125 
L 55.90625 0 
L 45.3125 0 
L 29.390625 21.484375 
L 13.484375 0 
L 2.875 0 
L 24.125 28.609375 
L 4.6875 54.6875 
L 15.28125 54.6875 
L 29.78125 35.203125 
L 44.28125 54.6875 
z
" id="DejaVuSans-120"/>
      <path d="M 18.109375 8.203125 
L 18.109375 -20.796875 
L 9.078125 -20.796875 
L 9.078125 54.6875 
L 18.109375 54.6875 
L 18.109375 46.390625 
Q 20.953125 51.265625 25.265625 53.625 
Q 29.59375 56 35.59375 56 
Q 45.5625 56 51.78125 48.09375 
Q 58.015625 40.1875 58.015625 27.296875 
Q 58.015625 14.40625 51.78125 6.484375 
Q 45.5625 -1.421875 35.59375 -1.421875 
Q 29.59375 -1.421875 25.265625 0.953125 
Q 20.953125 3.328125 18.109375 8.203125 
z
M 48.6875 27.296875 
Q 48.6875 37.203125 44.609375 42.84375 
Q 40.53125 48.484375 33.40625 48.484375 
Q 26.265625 48.484375 22.1875 42.84375 
Q 18.109375 37.203125 18.109375 27.296875 
Q 18.109375 17.390625 22.1875 11.75 
Q 26.265625 6.109375 33.40625 6.109375 
Q 40.53125 6.109375 44.609375 11.75 
Q 48.6875 17.390625 48.6875 27.296875 
z
" id="DejaVuSans-112"/>
     </defs>
     <g transform="translate(672.6102 160.193863)scale(0.09996 -0.09996)">
      <use xlink:href="#DejaVuSans-76"/>
      <use x="53.962891" xlink:href="#DejaVuSans-111"/>
      <use x="115.144531" xlink:href="#DejaVuSans-110"/>
      <use x="178.523438" xlink:href="#DejaVuSans-101"/>
      <use x="240.046875" xlink:href="#DejaVuSans-108"/>
      <use x="267.830078" xlink:href="#DejaVuSans-121"/>
      <use x="327.009766" xlink:href="#DejaVuSans-95"/>
      <use x="377.009766" xlink:href="#DejaVuSans-108"/>
      <use x="404.792969" xlink:href="#DejaVuSans-111"/>
      <use x="465.974609" xlink:href="#DejaVuSans-115"/>
      <use x="518.074219" xlink:href="#DejaVuSans-95"/>
      <use x="568.074219" xlink:href="#DejaVuSans-101"/>
      <use x="627.847656" xlink:href="#DejaVuSans-120"/>
      <use x="687.027344" xlink:href="#DejaVuSans-112"/>
      <use x="750.503906" xlink:href="#DejaVuSans-95"/>
      <use x="800.503906" xlink:href="#DejaVuSans-108"/>
      <use x="828.287109" xlink:href="#DejaVuSans-111"/>
      <use x="889.46875" xlink:href="#DejaVuSans-115"/>
      <use x="941.568359" xlink:href="#DejaVuSans-115"/>
     </g>
    </g>
    <g id="line2d_37">
     <path d="M 647.6202 171.645531 
L 661.6146 171.645531 
" style="fill:none;stroke:#008000;stroke-linecap:square;stroke-width:1.2;"/>
    </g>
    <g id="line2d_38"/>
    <g id="text_19">
     <!-- Lonely_los_layers -->
     <g transform="translate(672.6102 175.144131)scale(0.09996 -0.09996)">
      <use xlink:href="#DejaVuSans-76"/>
      <use x="53.962891" xlink:href="#DejaVuSans-111"/>
      <use x="115.144531" xlink:href="#DejaVuSans-110"/>
      <use x="178.523438" xlink:href="#DejaVuSans-101"/>
      <use x="240.046875" xlink:href="#DejaVuSans-108"/>
      <use x="267.830078" xlink:href="#DejaVuSans-121"/>
      <use x="327.009766" xlink:href="#DejaVuSans-95"/>
      <use x="377.009766" xlink:href="#DejaVuSans-108"/>
      <use x="404.792969" xlink:href="#DejaVuSans-111"/>
      <use x="465.974609" xlink:href="#DejaVuSans-115"/>
      <use x="518.074219" xlink:href="#DejaVuSans-95"/>
      <use x="568.074219" xlink:href="#DejaVuSans-108"/>
      <use x="595.857422" xlink:href="#DejaVuSans-97"/>
      <use x="657.136719" xlink:href="#DejaVuSans-121"/>
      <use x="716.316406" xlink:href="#DejaVuSans-101"/>
      <use x="777.839844" xlink:href="#DejaVuSans-114"/>
      <use x="818.953125" xlink:href="#DejaVuSans-115"/>
     </g>
    </g>
    <g id="line2d_39">
     <path d="M 647.6202 186.595798 
L 661.6146 186.595798 
" style="fill:none;stroke:#ff0000;stroke-linecap:square;stroke-width:1.2;"/>
    </g>
    <g id="line2d_40"/>
    <g id="text_20">
     <!-- Lonely_los_layers_mut_all -->
     <defs>
      <path d="M 52 44.1875 
Q 55.375 50.25 60.0625 53.125 
Q 64.75 56 71.09375 56 
Q 79.640625 56 84.28125 50.015625 
Q 88.921875 44.046875 88.921875 33.015625 
L 88.921875 0 
L 79.890625 0 
L 79.890625 32.71875 
Q 79.890625 40.578125 77.09375 44.375 
Q 74.3125 48.1875 68.609375 48.1875 
Q 61.625 48.1875 57.5625 43.546875 
Q 53.515625 38.921875 53.515625 30.90625 
L 53.515625 0 
L 44.484375 0 
L 44.484375 32.71875 
Q 44.484375 40.625 41.703125 44.40625 
Q 38.921875 48.1875 33.109375 48.1875 
Q 26.21875 48.1875 22.15625 43.53125 
Q 18.109375 38.875 18.109375 30.90625 
L 18.109375 0 
L 9.078125 0 
L 9.078125 54.6875 
L 18.109375 54.6875 
L 18.109375 46.1875 
Q 21.1875 51.21875 25.484375 53.609375 
Q 29.78125 56 35.6875 56 
Q 41.65625 56 45.828125 52.96875 
Q 50 49.953125 52 44.1875 
z
" id="DejaVuSans-109"/>
     </defs>
     <g transform="translate(672.6102 190.094398)scale(0.09996 -0.09996)">
      <use xlink:href="#DejaVuSans-76"/>
      <use x="53.962891" xlink:href="#DejaVuSans-111"/>
      <use x="115.144531" xlink:href="#DejaVuSans-110"/>
      <use x="178.523438" xlink:href="#DejaVuSans-101"/>
      <use x="240.046875" xlink:href="#DejaVuSans-108"/>
      <use x="267.830078" xlink:href="#DejaVuSans-121"/>
      <use x="327.009766" xlink:href="#DejaVuSans-95"/>
      <use x="377.009766" xlink:href="#DejaVuSans-108"/>
      <use x="404.792969" xlink:href="#DejaVuSans-111"/>
      <use x="465.974609" xlink:href="#DejaVuSans-115"/>
      <use x="518.074219" xlink:href="#DejaVuSans-95"/>
      <use x="568.074219" xlink:href="#DejaVuSans-108"/>
      <use x="595.857422" xlink:href="#DejaVuSans-97"/>
      <use x="657.136719" xlink:href="#DejaVuSans-121"/>
      <use x="716.316406" xlink:href="#DejaVuSans-101"/>
      <use x="777.839844" xlink:href="#DejaVuSans-114"/>
      <use x="818.953125" xlink:href="#DejaVuSans-115"/>
      <use x="871.052734" xlink:href="#DejaVuSans-95"/>
      <use x="921.052734" xlink:href="#DejaVuSans-109"/>
      <use x="1018.464844" xlink:href="#DejaVuSans-117"/>
      <use x="1081.84375" xlink:href="#DejaVuSans-116"/>
      <use x="1121.052734" xlink:href="#DejaVuSans-95"/>
      <use x="1171.052734" xlink:href="#DejaVuSans-97"/>
      <use x="1232.332031" xlink:href="#DejaVuSans-108"/>
      <use x="1260.115234" xlink:href="#DejaVuSans-108"/>
     </g>
    </g>
    <g id="line2d_41">
     <path d="M 647.6202 201.546066 
L 661.6146 201.546066 
" style="fill:none;stroke:#00bfbf;stroke-linecap:square;stroke-width:1.2;"/>
    </g>
    <g id="line2d_42"/>
    <g id="text_21">
     <!-- Lonely_los_layers_mut_all_copy -->
     <g transform="translate(672.6102 205.044666)scale(0.09996 -0.09996)">
      <use xlink:href="#DejaVuSans-76"/>
      <use x="53.962891" xlink:href="#DejaVuSans-111"/>
      <use x="115.144531" xlink:href="#DejaVuSans-110"/>
      <use x="178.523438" xlink:href="#DejaVuSans-101"/>
      <use x="240.046875" xlink:href="#DejaVuSans-108"/>
      <use x="267.830078" xlink:href="#DejaVuSans-121"/>
      <use x="327.009766" xlink:href="#DejaVuSans-95"/>
      <use x="377.009766" xlink:href="#DejaVuSans-108"/>
      <use x="404.792969" xlink:href="#DejaVuSans-111"/>
      <use x="465.974609" xlink:href="#DejaVuSans-115"/>
      <use x="518.074219" xlink:href="#DejaVuSans-95"/>
      <use x="568.074219" xlink:href="#DejaVuSans-108"/>
      <use x="595.857422" xlink:href="#DejaVuSans-97"/>
      <use x="657.136719" xlink:href="#DejaVuSans-121"/>
      <use x="716.316406" xlink:href="#DejaVuSans-101"/>
      <use x="777.839844" xlink:href="#DejaVuSans-114"/>
      <use x="818.953125" xlink:href="#DejaVuSans-115"/>
      <use x="871.052734" xlink:href="#DejaVuSans-95"/>
      <use x="921.052734" xlink:href="#DejaVuSans-109"/>
      <use x="1018.464844" xlink:href="#DejaVuSans-117"/>
      <use x="1081.84375" xlink:href="#DejaVuSans-116"/>
      <use x="1121.052734" xlink:href="#DejaVuSans-95"/>
      <use x="1171.052734" xlink:href="#DejaVuSans-97"/>
      <use x="1232.332031" xlink:href="#DejaVuSans-108"/>
      <use x="1260.115234" xlink:href="#DejaVuSans-108"/>
      <use x="1287.898438" xlink:href="#DejaVuSans-95"/>
      <use x="1337.898438" xlink:href="#DejaVuSans-99"/>
      <use x="1392.878906" xlink:href="#DejaVuSans-111"/>
      <use x="1454.060547" xlink:href="#DejaVuSans-112"/>
      <use x="1517.537109" xlink:href="#DejaVuSans-121"/>
     </g>
    </g>
   </g>
  </g>
  <g id="text_22">
   <!-- Average Accuracy -->
   <defs>
    <path d="M 34.1875 63.1875 
L 20.796875 26.90625 
L 47.609375 26.90625 
z
M 28.609375 72.90625 
L 39.796875 72.90625 
L 67.578125 0 
L 57.328125 0 
L 50.6875 18.703125 
L 17.828125 18.703125 
L 11.1875 0 
L 0.78125 0 
z
" id="DejaVuSans-65"/>
    <path d="M 2.984375 54.6875 
L 12.5 54.6875 
L 29.59375 8.796875 
L 46.6875 54.6875 
L 56.203125 54.6875 
L 35.6875 0 
L 23.484375 0 
z
" id="DejaVuSans-118"/>
    <path id="DejaVuSans-32"/>
   </defs>
   <g transform="translate(396.06 16.318125)scale(0.12 -0.12)">
    <use xlink:href="#DejaVuSans-65"/>
    <use x="62.533203" xlink:href="#DejaVuSans-118"/>
    <use x="121.712891" xlink:href="#DejaVuSans-101"/>
    <use x="183.236328" xlink:href="#DejaVuSans-114"/>
    <use x="224.349609" xlink:href="#DejaVuSans-97"/>
    <use x="285.628906" xlink:href="#DejaVuSans-103"/>
    <use x="349.105469" xlink:href="#DejaVuSans-101"/>
    <use x="410.628906" xlink:href="#DejaVuSans-32"/>
    <use x="442.416016" xlink:href="#DejaVuSans-65"/>
    <use x="509.074219" xlink:href="#DejaVuSans-99"/>
    <use x="564.054688" xlink:href="#DejaVuSans-99"/>
    <use x="619.035156" xlink:href="#DejaVuSans-117"/>
    <use x="682.414062" xlink:href="#DejaVuSans-114"/>
    <use x="723.527344" xlink:href="#DejaVuSans-97"/>
    <use x="784.806641" xlink:href="#DejaVuSans-99"/>
    <use x="839.787109" xlink:href="#DejaVuSans-121"/>
   </g>
  </g>
 </g>
 <defs>
  <clipPath id="p0018edcdad">
   <rect height="288" width="523.125" x="112.5" y="36"/>
  </clipPath>
 </defs>
</svg>
