<?xml version="1.0" encoding="utf-8" standalone="no"?>
<!DOCTYPE svg PUBLIC "-//W3C//DTD SVG 1.1//EN"
  "http://www.w3.org/Graphics/SVG/1.1/DTD/svg11.dtd">
<!-- Created with matplotlib (https://matplotlib.org/) -->
<svg height="360pt" version="1.1" viewBox="0 0 900 360" width="900pt" xmlns="http://www.w3.org/2000/svg" xmlns:xlink="http://www.w3.org/1999/xlink">
 <defs>
  <style type="text/css">
*{stroke-linecap:butt;stroke-linejoin:round;}
  </style>
 </defs>
 <g id="figure_1">
  <g id="patch_1">
   <path d="M 0 360 
L 900 360 
L 900 0 
L 0 0 
z
" style="fill:#ffffff;"/>
  </g>
  <g id="axes_1">
   <g id="patch_2">
    <path d="M 112.5 324 
L 635.625 324 
L 635.625 36 
L 112.5 36 
z
" style="fill:#ffffff;"/>
   </g>
   <g id="line2d_1">
    <path clip-path="url(#p8f4aea90e4)" d="M 112.85062 94.486854 
L 116.35682 104.155246 
L 119.863019 112.819549 
L 123.369219 120.625338 
L 126.875419 125.551539 
L 130.381619 131.832007 
L 133.887818 135.025705 
L 137.394018 141.628651 
L 140.900218 147.079347 
L 144.406418 152.781278 
L 147.912617 157.952852 
L 151.418817 164.30793 
L 154.925017 170.360146 
L 158.431216 174.070766 
L 165.443616 186.642336 
L 168.949816 192.852647 
L 172.456015 197.820944 
L 175.962215 204.735264 
L 179.468415 210.252809 
L 182.974615 218.55346 
L 186.480814 224.313708 
L 189.987014 233.266637 
L 193.493214 239.827975 
L 196.999414 249.0607 
L 200.505613 256.779742 
L 204.011813 263.770859 
L 207.518013 266.041854 
L 211.024212 272.85242 
L 214.530412 278.848305 
L 218.036612 281.464439 
L 221.542812 286.144508 
L 225.049011 288.448422 
L 228.555211 288.903631 
L 232.061411 296.540203 
L 235.567611 298.238503 
L 239.07381 298.594387 
L 242.58001 297.734945 
L 246.08621 290.84226 
L 249.59241 287.848414 
L 253.098609 291.517477 
L 256.604809 290.410941 
L 260.111009 290.53184 
L 263.617208 288.828576 
L 267.123408 291.638218 
L 270.629608 299.163711 
L 274.135808 304.34314 
L 277.642007 302.499041 
L 281.148207 298.775484 
L 284.654407 295.647088 
L 288.160607 295.473555 
L 291.666806 293.872658 
L 295.173006 293.204216 
L 302.185405 290.16349 
L 305.691605 293.840929 
L 309.197805 295.107501 
L 312.704005 295.099656 
L 316.210204 297.926689 
L 319.716404 299.86241 
L 323.222604 300.231985 
L 326.728804 303.785013 
L 330.235003 306.054233 
L 333.741203 306.910244 
L 337.247403 306.758719 
L 340.753603 309.544691 
L 344.259802 307.850419 
L 347.766002 306.297553 
L 351.272202 305.220963 
L 354.778401 302.92939 
L 358.284601 298.107826 
L 361.790801 298.488725 
L 365.297001 292.079987 
L 368.8032 289.659174 
L 372.3094 292.018299 
L 375.8156 287.75534 
L 379.3218 288.948496 
L 382.827999 292.115103 
L 386.334199 292.436816 
L 389.840399 297.996736 
L 393.346599 295.489916 
L 396.852798 292.633426 
L 400.358998 296.817589 
L 403.865198 295.622605 
L 407.371397 292.735518 
L 410.877597 291.969577 
L 414.383797 287.810596 
L 417.889997 288.243653 
L 421.396196 290.426488 
L 424.902396 291.902914 
L 428.408596 292.1949 
L 431.914796 297.332188 
L 435.420995 299.939788 
L 438.927195 305.34058 
L 442.433395 311.457737 
L 445.939595 311.253667 
L 449.445794 312.774451 
L 452.951994 316.620207 
L 456.458194 317.900802 
L 459.964393 318.993671 
L 463.470593 315.197097 
L 466.976793 312.125089 
L 470.482993 311.056179 
L 473.989192 311.975431 
L 477.495392 306.745599 
L 481.001592 308.23259 
L 484.507792 308.418433 
L 488.013991 310.412394 
L 491.520191 312.61277 
L 495.026391 312.560218 
L 498.53259 305.445543 
L 502.03879 307.153068 
L 509.05119 298.533231 
L 512.557389 297.572172 
L 516.063589 297.224456 
L 519.569789 297.268366 
L 523.075989 302.329677 
L 526.582188 304.627764 
L 530.088388 306.332871 
L 533.594588 306.450024 
L 537.100788 303.928956 
L 540.606987 303.773035 
L 544.113187 301.862915 
L 547.619387 300.103984 
L 551.125586 292.138629 
L 554.631786 290.758564 
L 558.137986 294.030177 
L 561.644186 295.90623 
L 565.150385 293.597649 
L 568.656585 296.310748 
L 572.162785 296.679084 
L 575.668985 303.691353 
L 579.175184 305.766906 
L 582.681384 301.833777 
L 586.187584 300.590276 
L 589.693784 304.470176 
L 593.199983 304.982102 
L 596.706183 304.31156 
L 600.212383 302.749084 
L 603.718582 301.053443 
L 610.730982 306.852324 
L 614.237182 303.024197 
L 617.743381 302.821624 
L 617.743381 302.821624 
" style="fill:none;stroke:#0000ff;stroke-linecap:square;stroke-width:1.2;"/>
   </g>
   <g id="line2d_2">
    <path clip-path="url(#p8f4aea90e4)" d="M 112.85062 60.320191 
L 116.35682 74.349051 
L 119.863019 82.550358 
L 123.369219 88.118005 
L 126.875419 85.980945 
L 130.381619 94.330804 
L 133.887818 92.386534 
L 137.394018 94.982094 
L 140.900218 96.798718 
L 144.406418 101.500878 
L 147.912617 103.844024 
L 151.418817 110.361745 
L 154.925017 108.697849 
L 158.431216 111.30968 
L 161.937416 113.477444 
L 165.443616 111.918852 
L 168.949816 112.631066 
L 172.456015 109.014073 
L 175.962215 106.934309 
L 179.468415 105.514953 
L 182.974615 107.977053 
L 186.480814 110.602299 
L 189.987014 111.476501 
L 193.493214 111.583059 
L 196.999414 118.169496 
L 200.505613 123.375356 
L 204.011813 130.00578 
L 207.518013 132.049272 
L 211.024212 129.846981 
L 214.530412 130.823953 
L 218.036612 133.072552 
L 225.049011 138.4197 
L 228.555211 131.748364 
L 232.061411 133.673296 
L 239.07381 142.128664 
L 242.58001 140.898246 
L 246.08621 139.221251 
L 249.59241 134.299231 
L 253.098609 141.006408 
L 260.111009 145.071459 
L 263.617208 145.194788 
L 274.135808 158.333086 
L 277.642007 154.204806 
L 281.148207 151.223814 
L 284.654407 150.907799 
L 288.160607 154.742019 
L 291.666806 154.894684 
L 295.173006 153.028149 
L 298.679206 154.856878 
L 305.691605 163.902059 
L 309.197805 163.138341 
L 312.704005 160.563159 
L 316.210204 163.325334 
L 319.716404 162.531672 
L 323.222604 169.720511 
L 326.728804 173.600478 
L 330.235003 172.813107 
L 333.741203 176.528178 
L 337.247403 182.741213 
L 340.753603 177.252715 
L 344.259802 179.319509 
L 347.766002 178.10934 
L 351.272202 180.624857 
L 354.778401 181.952443 
L 358.284601 182.735265 
L 361.790801 184.157638 
L 365.297001 187.884843 
L 368.8032 194.039812 
L 372.3094 193.445826 
L 375.8156 194.975333 
L 379.3218 195.786595 
L 382.827999 200.284518 
L 386.334199 199.76127 
L 389.840399 206.889435 
L 393.346599 209.286041 
L 396.852798 208.829764 
L 400.358998 211.356332 
L 403.865198 217.745679 
L 407.371397 216.257168 
L 410.877597 220.053701 
L 414.383797 221.138836 
L 417.889997 221.582598 
L 421.396196 226.485438 
L 424.902396 230.585801 
L 428.408596 231.045093 
L 431.914796 235.72871 
L 435.420995 238.255428 
L 438.927195 238.336326 
L 442.433395 237.956251 
L 445.939595 240.55694 
L 449.445794 237.459954 
L 452.951994 233.95775 
L 456.458194 234.084296 
L 459.964393 232.194072 
L 463.470593 230.649021 
L 466.976793 230.248938 
L 473.989192 227.073182 
L 477.495392 227.466296 
L 481.001592 226.510335 
L 484.507792 222.985627 
L 488.013991 213.215429 
L 495.026391 212.18407 
L 505.54499 213.551122 
L 509.05119 213.043863 
L 512.557389 227.696053 
L 516.063589 224.622947 
L 519.569789 224.238836 
L 523.075989 223.982538 
L 526.582188 227.247735 
L 530.088388 224.793576 
L 533.594588 230.301314 
L 537.100788 227.991079 
L 540.606987 237.597342 
L 544.113187 239.395449 
L 547.619387 245.202927 
L 551.125586 243.218072 
L 558.137986 251.639733 
L 561.644186 253.319908 
L 565.150385 249.575577 
L 568.656585 249.582232 
L 572.162785 248.203581 
L 575.668985 249.558087 
L 579.175184 247.738825 
L 582.681384 247.005464 
L 586.187584 248.403439 
L 589.693784 252.010826 
L 593.199983 256.190471 
L 596.706183 257.140962 
L 600.212383 260.037854 
L 603.718582 264.659002 
L 607.224782 263.813924 
L 610.730982 265.671481 
L 614.237182 265.356095 
L 614.237182 265.356095 
" style="fill:none;stroke:#008000;stroke-linecap:square;stroke-width:1.2;"/>
   </g>
   <g id="line2d_3">
    <path clip-path="url(#p8f4aea90e4)" d="M 112.85062 98.154763 
L 116.35682 113.422126 
L 119.863019 112.034454 
L 123.369219 118.626754 
L 126.875419 122.24294 
L 130.381619 127.81926 
L 133.887818 128.984731 
L 137.394018 131.512345 
L 140.900218 132.239432 
L 144.406418 141.628786 
L 147.912617 147.063568 
L 151.418817 150.520685 
L 154.925017 152.863408 
L 158.431216 158.157326 
L 161.937416 164.064938 
L 165.443616 163.108006 
L 168.949816 164.943749 
L 172.456015 164.604348 
L 175.962215 165.930633 
L 179.468415 165.707982 
L 182.974615 166.908243 
L 186.480814 163.889671 
L 189.987014 169.931451 
L 193.493214 177.12035 
L 196.999414 178.227185 
L 200.505613 179.044122 
L 204.011813 170.353952 
L 207.518013 172.99257 
L 214.530412 184.716608 
L 218.036612 179.997435 
L 221.542812 183.731396 
L 225.049011 186.579683 
L 228.555211 197.950685 
L 232.061411 197.242499 
L 235.567611 198.384321 
L 239.07381 197.832588 
L 242.58001 201.630312 
L 246.08621 200.73375 
L 249.59241 207.097862 
L 253.098609 210.025863 
L 256.604809 208.113328 
L 260.111009 209.988514 
L 263.617208 211.629381 
L 267.123408 215.279449 
L 270.629608 222.408673 
L 274.135808 221.39875 
L 277.642007 223.097741 
L 281.148207 233.78853 
L 284.654407 239.03003 
L 288.160607 244.698679 
L 291.666806 247.741735 
L 295.173006 243.518993 
L 298.679206 245.965334 
L 302.185405 244.292632 
L 305.691605 244.880008 
L 309.197805 248.816916 
L 312.704005 247.44481 
L 316.210204 248.91223 
L 319.716404 253.588804 
L 323.222604 254.641211 
L 326.728804 260.52836 
L 330.235003 259.631389 
L 333.741203 256.411586 
L 337.247403 259.827578 
L 340.753603 257.918854 
L 344.259802 259.960009 
L 347.766002 256.944431 
L 351.272202 254.87185 
L 354.778401 255.618544 
L 358.284601 254.22373 
L 361.790801 249.567991 
L 365.297001 246.783492 
L 368.8032 249.317689 
L 372.3094 250.689279 
L 375.8156 250.553166 
L 379.3218 251.613437 
L 382.827999 252.017354 
L 386.334199 256.837237 
L 389.840399 264.720315 
L 393.346599 256.214467 
L 396.852798 260.577202 
L 400.358998 263.859985 
L 403.865198 263.41332 
L 407.371397 266.208408 
L 410.877597 266.625997 
L 414.383797 264.417439 
L 417.889997 272.367612 
L 421.396196 273.908805 
L 424.902396 272.106769 
L 428.408596 268.675779 
L 431.914796 267.920827 
L 435.420995 268.165202 
L 438.927195 266.209322 
L 442.433395 260.709429 
L 445.939595 254.964303 
L 449.445794 257.596401 
L 452.951994 261.344923 
L 456.458194 257.640522 
L 459.964393 256.864665 
L 463.470593 259.863031 
L 466.976793 266.703308 
L 470.482993 271.095408 
L 473.989192 265.860737 
L 477.495392 264.78277 
L 481.001592 269.093563 
L 484.507792 257.648853 
L 488.013991 251.282858 
L 491.520191 245.678906 
L 495.026391 237.262292 
L 498.53259 236.992682 
L 502.03879 232.12314 
L 505.54499 230.229102 
L 509.05119 240.122952 
L 512.557389 245.463631 
L 516.063589 242.717738 
L 523.075989 250.571388 
L 526.582188 250.837106 
L 530.088388 255.41779 
L 533.594588 255.195066 
L 537.100788 255.855328 
L 540.606987 260.957064 
L 544.113187 258.195269 
L 547.619387 258.028696 
L 551.125586 264.436739 
L 554.631786 260.71804 
L 558.137986 260.400367 
L 561.644186 257.944082 
L 565.150385 260.294546 
L 568.656585 261.278866 
L 572.162785 264.387238 
L 575.668985 262.976509 
L 579.175184 266.379175 
L 582.681384 270.265219 
L 586.187584 273.071093 
L 589.693784 271.809685 
L 593.199983 282.682368 
L 596.706183 278.873344 
L 600.212383 279.718268 
L 603.718582 282.431515 
L 607.224782 281.931406 
L 610.730982 284.991858 
L 614.237182 288.804132 
L 617.743381 285.194296 
L 621.249581 289.638528 
L 624.755781 292.698998 
L 628.261981 291.125608 
L 631.76818 292.199195 
L 635.27438 292.824277 
L 635.27438 292.824277 
" style="fill:none;stroke:#ff0000;stroke-linecap:square;stroke-width:1.2;"/>
   </g>
   <g id="line2d_4">
    <path clip-path="url(#p8f4aea90e4)" d="M 112.85062 115.411025 
L 116.35682 132.02806 
L 119.863019 134.359665 
L 123.369219 144.058193 
L 126.875419 146.930325 
L 130.381619 147.976864 
L 133.887818 151.478263 
L 137.394018 154.256804 
L 140.900218 160.496396 
L 144.406418 167.937969 
L 147.912617 167.661706 
L 151.418817 172.819085 
L 154.925017 173.472659 
L 158.431216 174.298465 
L 161.937416 177.723364 
L 168.949816 175.385947 
L 172.456015 180.071769 
L 175.962215 177.953996 
L 179.468415 178.280308 
L 182.974615 183.525316 
L 186.480814 187.201195 
L 189.987014 183.939402 
L 193.493214 187.241027 
L 196.999414 186.026645 
L 200.505613 190.372153 
L 204.011813 197.142911 
L 207.518013 198.104531 
L 211.024212 201.137451 
L 214.530412 213.200291 
L 218.036612 215.864597 
L 221.542812 215.272923 
L 225.049011 220.242262 
L 228.555211 221.789232 
L 232.061411 218.306706 
L 235.567611 217.166099 
L 239.07381 214.51968 
L 242.58001 217.972504 
L 246.08621 222.246089 
L 249.59241 222.145565 
L 253.098609 219.311042 
L 260.111009 227.102746 
L 263.617208 229.428529 
L 267.123408 223.738513 
L 270.629608 224.659008 
L 274.135808 225.153069 
L 277.642007 230.357281 
L 281.148207 229.565786 
L 284.654407 229.776335 
L 288.160607 222.680348 
L 291.666806 227.408923 
L 295.173006 230.992532 
L 298.679206 223.901685 
L 302.185405 215.849563 
L 305.691605 215.77643 
L 309.197805 213.757191 
L 312.704005 216.683669 
L 316.210204 216.579327 
L 319.716404 206.04209 
L 323.222604 206.971991 
L 326.728804 214.577973 
L 330.235003 219.634172 
L 333.741203 219.703941 
L 337.247403 213.902076 
L 340.753603 210.269599 
L 344.259802 213.372975 
L 347.766002 217.433435 
L 351.272202 217.156768 
L 354.778401 215.041635 
L 358.284601 216.070222 
L 361.790801 215.281165 
L 365.297001 217.072185 
L 368.8032 223.525119 
L 372.3094 221.222832 
L 375.8156 227.216144 
L 379.3218 231.33269 
L 382.827999 231.668927 
L 386.334199 243.284521 
L 389.840399 249.377239 
L 393.346599 249.221392 
L 396.852798 255.321728 
L 400.358998 254.735126 
L 403.865198 251.597532 
L 407.371397 255.849736 
L 410.877597 256.109917 
L 417.889997 254.777292 
L 421.396196 254.735572 
L 424.902396 252.779831 
L 428.408596 255.057994 
L 431.914796 253.855506 
L 435.420995 258.694418 
L 438.927195 258.884227 
L 442.433395 264.830416 
L 445.939595 261.11038 
L 449.445794 262.216411 
L 452.951994 263.688448 
L 456.458194 269.272565 
L 459.964393 264.710797 
L 463.470593 267.418261 
L 466.976793 267.190927 
L 470.482993 273.046512 
L 477.495392 278.836222 
L 481.001592 272.197993 
L 484.507792 277.601153 
L 488.013991 282.157924 
L 491.520191 285.380552 
L 495.026391 290.261813 
L 498.53259 295.878735 
L 502.03879 298.826774 
L 505.54499 304.55812 
L 509.05119 305.460646 
L 512.557389 303.099981 
L 516.063589 302.373444 
L 519.569789 302.555521 
L 523.075989 297.578608 
L 526.582188 291.035856 
L 530.088388 287.760486 
L 533.594588 287.136961 
L 537.100788 288.705296 
L 540.606987 288.425635 
L 544.113187 288.423051 
L 547.619387 287.874433 
L 551.125586 293.790469 
L 554.631786 296.873213 
L 558.137986 297.873243 
L 561.644186 298.076668 
L 565.150385 301.902428 
L 568.656585 301.666049 
L 572.162785 305.874349 
L 575.668985 305.89574 
L 579.175184 308.509974 
L 582.681384 309.980672 
L 586.187584 310.07478 
L 586.187584 310.07478 
" style="fill:none;stroke:#00bfbf;stroke-linecap:square;stroke-width:1.2;"/>
   </g>
   <g id="patch_3">
    <path d="M 112.5 324 
L 112.5 36 
" style="fill:none;stroke:#000000;stroke-linecap:square;stroke-linejoin:miter;"/>
   </g>
   <g id="patch_4">
    <path d="M 635.625 324 
L 635.625 36 
" style="fill:none;stroke:#000000;stroke-linecap:square;stroke-linejoin:miter;"/>
   </g>
   <g id="patch_5">
    <path d="M 112.5 324 
L 635.625 324 
" style="fill:none;stroke:#000000;stroke-linecap:square;stroke-linejoin:miter;"/>
   </g>
   <g id="patch_6">
    <path d="M 112.5 36 
L 635.625 36 
" style="fill:none;stroke:#000000;stroke-linecap:square;stroke-linejoin:miter;"/>
   </g>
   <g id="matplotlib.axis_1">
    <g id="xtick_1">
     <g id="line2d_5">
      <defs>
       <path d="M 0 0 
L 0 -4 
" id="ma52d154159" style="stroke:#000000;stroke-width:0.5;"/>
      </defs>
      <g>
       <use style="stroke:#000000;stroke-width:0.5;" x="112.85062" xlink:href="#ma52d154159" y="324"/>
      </g>
     </g>
     <g id="line2d_6">
      <defs>
       <path d="M 0 0 
L 0 4 
" id="mf726494492" style="stroke:#000000;stroke-width:0.5;"/>
      </defs>
      <g>
       <use style="stroke:#000000;stroke-width:0.5;" x="112.85062" xlink:href="#mf726494492" y="36"/>
      </g>
     </g>
     <g id="text_1">
      <!-- 0 -->
      <defs>
       <path d="M 31.78125 66.40625 
Q 24.171875 66.40625 20.328125 58.90625 
Q 16.5 51.421875 16.5 36.375 
Q 16.5 21.390625 20.328125 13.890625 
Q 24.171875 6.390625 31.78125 6.390625 
Q 39.453125 6.390625 43.28125 13.890625 
Q 47.125 21.390625 47.125 36.375 
Q 47.125 51.421875 43.28125 58.90625 
Q 39.453125 66.40625 31.78125 66.40625 
z
M 31.78125 74.21875 
Q 44.046875 74.21875 50.515625 64.515625 
Q 56.984375 54.828125 56.984375 36.375 
Q 56.984375 17.96875 50.515625 8.265625 
Q 44.046875 -1.421875 31.78125 -1.421875 
Q 19.53125 -1.421875 13.0625 8.265625 
Q 6.59375 17.96875 6.59375 36.375 
Q 6.59375 54.828125 13.0625 64.515625 
Q 19.53125 74.21875 31.78125 74.21875 
z
" id="DejaVuSans-48"/>
      </defs>
      <g transform="translate(109.03312 337.118125)scale(0.12 -0.12)">
       <use xlink:href="#DejaVuSans-48"/>
      </g>
     </g>
    </g>
    <g id="xtick_2">
     <g id="line2d_7">
      <g>
       <use style="stroke:#000000;stroke-width:0.5;" x="165.443616" xlink:href="#ma52d154159" y="324"/>
      </g>
     </g>
     <g id="line2d_8">
      <g>
       <use style="stroke:#000000;stroke-width:0.5;" x="165.443616" xlink:href="#mf726494492" y="36"/>
      </g>
     </g>
     <g id="text_2">
      <!-- 15 -->
      <defs>
       <path d="M 12.40625 8.296875 
L 28.515625 8.296875 
L 28.515625 63.921875 
L 10.984375 60.40625 
L 10.984375 69.390625 
L 28.421875 72.90625 
L 38.28125 72.90625 
L 38.28125 8.296875 
L 54.390625 8.296875 
L 54.390625 0 
L 12.40625 0 
z
" id="DejaVuSans-49"/>
       <path d="M 10.796875 72.90625 
L 49.515625 72.90625 
L 49.515625 64.59375 
L 19.828125 64.59375 
L 19.828125 46.734375 
Q 21.96875 47.46875 24.109375 47.828125 
Q 26.265625 48.1875 28.421875 48.1875 
Q 40.625 48.1875 47.75 41.5 
Q 54.890625 34.8125 54.890625 23.390625 
Q 54.890625 11.625 47.5625 5.09375 
Q 40.234375 -1.421875 26.90625 -1.421875 
Q 22.3125 -1.421875 17.546875 -0.640625 
Q 12.796875 0.140625 7.71875 1.703125 
L 7.71875 11.625 
Q 12.109375 9.234375 16.796875 8.0625 
Q 21.484375 6.890625 26.703125 6.890625 
Q 35.15625 6.890625 40.078125 11.328125 
Q 45.015625 15.765625 45.015625 23.390625 
Q 45.015625 31 40.078125 35.4375 
Q 35.15625 39.890625 26.703125 39.890625 
Q 22.75 39.890625 18.8125 39.015625 
Q 14.890625 38.140625 10.796875 36.28125 
z
" id="DejaVuSans-53"/>
      </defs>
      <g transform="translate(157.808616 337.118125)scale(0.12 -0.12)">
       <use xlink:href="#DejaVuSans-49"/>
       <use x="63.623047" xlink:href="#DejaVuSans-53"/>
      </g>
     </g>
    </g>
    <g id="xtick_3">
     <g id="line2d_9">
      <g>
       <use style="stroke:#000000;stroke-width:0.5;" x="218.036612" xlink:href="#ma52d154159" y="324"/>
      </g>
     </g>
     <g id="line2d_10">
      <g>
       <use style="stroke:#000000;stroke-width:0.5;" x="218.036612" xlink:href="#mf726494492" y="36"/>
      </g>
     </g>
     <g id="text_3">
      <!-- 30 -->
      <defs>
       <path d="M 40.578125 39.3125 
Q 47.65625 37.796875 51.625 33 
Q 55.609375 28.21875 55.609375 21.1875 
Q 55.609375 10.40625 48.1875 4.484375 
Q 40.765625 -1.421875 27.09375 -1.421875 
Q 22.515625 -1.421875 17.65625 -0.515625 
Q 12.796875 0.390625 7.625 2.203125 
L 7.625 11.71875 
Q 11.71875 9.328125 16.59375 8.109375 
Q 21.484375 6.890625 26.8125 6.890625 
Q 36.078125 6.890625 40.9375 10.546875 
Q 45.796875 14.203125 45.796875 21.1875 
Q 45.796875 27.640625 41.28125 31.265625 
Q 36.765625 34.90625 28.71875 34.90625 
L 20.21875 34.90625 
L 20.21875 43.015625 
L 29.109375 43.015625 
Q 36.375 43.015625 40.234375 45.921875 
Q 44.09375 48.828125 44.09375 54.296875 
Q 44.09375 59.90625 40.109375 62.90625 
Q 36.140625 65.921875 28.71875 65.921875 
Q 24.65625 65.921875 20.015625 65.03125 
Q 15.375 64.15625 9.8125 62.3125 
L 9.8125 71.09375 
Q 15.4375 72.65625 20.34375 73.4375 
Q 25.25 74.21875 29.59375 74.21875 
Q 40.828125 74.21875 47.359375 69.109375 
Q 53.90625 64.015625 53.90625 55.328125 
Q 53.90625 49.265625 50.4375 45.09375 
Q 46.96875 40.921875 40.578125 39.3125 
z
" id="DejaVuSans-51"/>
      </defs>
      <g transform="translate(210.401612 337.118125)scale(0.12 -0.12)">
       <use xlink:href="#DejaVuSans-51"/>
       <use x="63.623047" xlink:href="#DejaVuSans-48"/>
      </g>
     </g>
    </g>
    <g id="xtick_4">
     <g id="line2d_11">
      <g>
       <use style="stroke:#000000;stroke-width:0.5;" x="270.629608" xlink:href="#ma52d154159" y="324"/>
      </g>
     </g>
     <g id="line2d_12">
      <g>
       <use style="stroke:#000000;stroke-width:0.5;" x="270.629608" xlink:href="#mf726494492" y="36"/>
      </g>
     </g>
     <g id="text_4">
      <!-- 45 -->
      <defs>
       <path d="M 37.796875 64.3125 
L 12.890625 25.390625 
L 37.796875 25.390625 
z
M 35.203125 72.90625 
L 47.609375 72.90625 
L 47.609375 25.390625 
L 58.015625 25.390625 
L 58.015625 17.1875 
L 47.609375 17.1875 
L 47.609375 0 
L 37.796875 0 
L 37.796875 17.1875 
L 4.890625 17.1875 
L 4.890625 26.703125 
z
" id="DejaVuSans-52"/>
      </defs>
      <g transform="translate(262.994608 337.118125)scale(0.12 -0.12)">
       <use xlink:href="#DejaVuSans-52"/>
       <use x="63.623047" xlink:href="#DejaVuSans-53"/>
      </g>
     </g>
    </g>
    <g id="xtick_5">
     <g id="line2d_13">
      <g>
       <use style="stroke:#000000;stroke-width:0.5;" x="323.222604" xlink:href="#ma52d154159" y="324"/>
      </g>
     </g>
     <g id="line2d_14">
      <g>
       <use style="stroke:#000000;stroke-width:0.5;" x="323.222604" xlink:href="#mf726494492" y="36"/>
      </g>
     </g>
     <g id="text_5">
      <!-- 60 -->
      <defs>
       <path d="M 33.015625 40.375 
Q 26.375 40.375 22.484375 35.828125 
Q 18.609375 31.296875 18.609375 23.390625 
Q 18.609375 15.53125 22.484375 10.953125 
Q 26.375 6.390625 33.015625 6.390625 
Q 39.65625 6.390625 43.53125 10.953125 
Q 47.40625 15.53125 47.40625 23.390625 
Q 47.40625 31.296875 43.53125 35.828125 
Q 39.65625 40.375 33.015625 40.375 
z
M 52.59375 71.296875 
L 52.59375 62.3125 
Q 48.875 64.0625 45.09375 64.984375 
Q 41.3125 65.921875 37.59375 65.921875 
Q 27.828125 65.921875 22.671875 59.328125 
Q 17.53125 52.734375 16.796875 39.40625 
Q 19.671875 43.65625 24.015625 45.921875 
Q 28.375 48.1875 33.59375 48.1875 
Q 44.578125 48.1875 50.953125 41.515625 
Q 57.328125 34.859375 57.328125 23.390625 
Q 57.328125 12.15625 50.6875 5.359375 
Q 44.046875 -1.421875 33.015625 -1.421875 
Q 20.359375 -1.421875 13.671875 8.265625 
Q 6.984375 17.96875 6.984375 36.375 
Q 6.984375 53.65625 15.1875 63.9375 
Q 23.390625 74.21875 37.203125 74.21875 
Q 40.921875 74.21875 44.703125 73.484375 
Q 48.484375 72.75 52.59375 71.296875 
z
" id="DejaVuSans-54"/>
      </defs>
      <g transform="translate(315.587604 337.118125)scale(0.12 -0.12)">
       <use xlink:href="#DejaVuSans-54"/>
       <use x="63.623047" xlink:href="#DejaVuSans-48"/>
      </g>
     </g>
    </g>
    <g id="xtick_6">
     <g id="line2d_15">
      <g>
       <use style="stroke:#000000;stroke-width:0.5;" x="375.8156" xlink:href="#ma52d154159" y="324"/>
      </g>
     </g>
     <g id="line2d_16">
      <g>
       <use style="stroke:#000000;stroke-width:0.5;" x="375.8156" xlink:href="#mf726494492" y="36"/>
      </g>
     </g>
     <g id="text_6">
      <!-- 75 -->
      <defs>
       <path d="M 8.203125 72.90625 
L 55.078125 72.90625 
L 55.078125 68.703125 
L 28.609375 0 
L 18.3125 0 
L 43.21875 64.59375 
L 8.203125 64.59375 
z
" id="DejaVuSans-55"/>
      </defs>
      <g transform="translate(368.1806 337.118125)scale(0.12 -0.12)">
       <use xlink:href="#DejaVuSans-55"/>
       <use x="63.623047" xlink:href="#DejaVuSans-53"/>
      </g>
     </g>
    </g>
    <g id="xtick_7">
     <g id="line2d_17">
      <g>
       <use style="stroke:#000000;stroke-width:0.5;" x="428.408596" xlink:href="#ma52d154159" y="324"/>
      </g>
     </g>
     <g id="line2d_18">
      <g>
       <use style="stroke:#000000;stroke-width:0.5;" x="428.408596" xlink:href="#mf726494492" y="36"/>
      </g>
     </g>
     <g id="text_7">
      <!-- 90 -->
      <defs>
       <path d="M 10.984375 1.515625 
L 10.984375 10.5 
Q 14.703125 8.734375 18.5 7.8125 
Q 22.3125 6.890625 25.984375 6.890625 
Q 35.75 6.890625 40.890625 13.453125 
Q 46.046875 20.015625 46.78125 33.40625 
Q 43.953125 29.203125 39.59375 26.953125 
Q 35.25 24.703125 29.984375 24.703125 
Q 19.046875 24.703125 12.671875 31.3125 
Q 6.296875 37.9375 6.296875 49.421875 
Q 6.296875 60.640625 12.9375 67.421875 
Q 19.578125 74.21875 30.609375 74.21875 
Q 43.265625 74.21875 49.921875 64.515625 
Q 56.59375 54.828125 56.59375 36.375 
Q 56.59375 19.140625 48.40625 8.859375 
Q 40.234375 -1.421875 26.421875 -1.421875 
Q 22.703125 -1.421875 18.890625 -0.6875 
Q 15.09375 0.046875 10.984375 1.515625 
z
M 30.609375 32.421875 
Q 37.25 32.421875 41.125 36.953125 
Q 45.015625 41.5 45.015625 49.421875 
Q 45.015625 57.28125 41.125 61.84375 
Q 37.25 66.40625 30.609375 66.40625 
Q 23.96875 66.40625 20.09375 61.84375 
Q 16.21875 57.28125 16.21875 49.421875 
Q 16.21875 41.5 20.09375 36.953125 
Q 23.96875 32.421875 30.609375 32.421875 
z
" id="DejaVuSans-57"/>
      </defs>
      <g transform="translate(420.773596 337.118125)scale(0.12 -0.12)">
       <use xlink:href="#DejaVuSans-57"/>
       <use x="63.623047" xlink:href="#DejaVuSans-48"/>
      </g>
     </g>
    </g>
    <g id="xtick_8">
     <g id="line2d_19">
      <g>
       <use style="stroke:#000000;stroke-width:0.5;" x="481.001592" xlink:href="#ma52d154159" y="324"/>
      </g>
     </g>
     <g id="line2d_20">
      <g>
       <use style="stroke:#000000;stroke-width:0.5;" x="481.001592" xlink:href="#mf726494492" y="36"/>
      </g>
     </g>
     <g id="text_8">
      <!-- 105 -->
      <g transform="translate(469.549092 337.118125)scale(0.12 -0.12)">
       <use xlink:href="#DejaVuSans-49"/>
       <use x="63.623047" xlink:href="#DejaVuSans-48"/>
       <use x="127.246094" xlink:href="#DejaVuSans-53"/>
      </g>
     </g>
    </g>
    <g id="xtick_9">
     <g id="line2d_21">
      <g>
       <use style="stroke:#000000;stroke-width:0.5;" x="533.594588" xlink:href="#ma52d154159" y="324"/>
      </g>
     </g>
     <g id="line2d_22">
      <g>
       <use style="stroke:#000000;stroke-width:0.5;" x="533.594588" xlink:href="#mf726494492" y="36"/>
      </g>
     </g>
     <g id="text_9">
      <!-- 120 -->
      <defs>
       <path d="M 19.1875 8.296875 
L 53.609375 8.296875 
L 53.609375 0 
L 7.328125 0 
L 7.328125 8.296875 
Q 12.9375 14.109375 22.625 23.890625 
Q 32.328125 33.6875 34.8125 36.53125 
Q 39.546875 41.84375 41.421875 45.53125 
Q 43.3125 49.21875 43.3125 52.78125 
Q 43.3125 58.59375 39.234375 62.25 
Q 35.15625 65.921875 28.609375 65.921875 
Q 23.96875 65.921875 18.8125 64.3125 
Q 13.671875 62.703125 7.8125 59.421875 
L 7.8125 69.390625 
Q 13.765625 71.78125 18.9375 73 
Q 24.125 74.21875 28.421875 74.21875 
Q 39.75 74.21875 46.484375 68.546875 
Q 53.21875 62.890625 53.21875 53.421875 
Q 53.21875 48.921875 51.53125 44.890625 
Q 49.859375 40.875 45.40625 35.40625 
Q 44.1875 33.984375 37.640625 27.21875 
Q 31.109375 20.453125 19.1875 8.296875 
z
" id="DejaVuSans-50"/>
      </defs>
      <g transform="translate(522.142088 337.118125)scale(0.12 -0.12)">
       <use xlink:href="#DejaVuSans-49"/>
       <use x="63.623047" xlink:href="#DejaVuSans-50"/>
       <use x="127.246094" xlink:href="#DejaVuSans-48"/>
      </g>
     </g>
    </g>
    <g id="xtick_10">
     <g id="line2d_23">
      <g>
       <use style="stroke:#000000;stroke-width:0.5;" x="586.187584" xlink:href="#ma52d154159" y="324"/>
      </g>
     </g>
     <g id="line2d_24">
      <g>
       <use style="stroke:#000000;stroke-width:0.5;" x="586.187584" xlink:href="#mf726494492" y="36"/>
      </g>
     </g>
     <g id="text_10">
      <!-- 135 -->
      <g transform="translate(574.735084 337.118125)scale(0.12 -0.12)">
       <use xlink:href="#DejaVuSans-49"/>
       <use x="63.623047" xlink:href="#DejaVuSans-51"/>
       <use x="127.246094" xlink:href="#DejaVuSans-53"/>
      </g>
     </g>
    </g>
    <g id="text_11">
     <!-- generation -->
     <defs>
      <path d="M 45.40625 27.984375 
Q 45.40625 37.75 41.375 43.109375 
Q 37.359375 48.484375 30.078125 48.484375 
Q 22.859375 48.484375 18.828125 43.109375 
Q 14.796875 37.75 14.796875 27.984375 
Q 14.796875 18.265625 18.828125 12.890625 
Q 22.859375 7.515625 30.078125 7.515625 
Q 37.359375 7.515625 41.375 12.890625 
Q 45.40625 18.265625 45.40625 27.984375 
z
M 54.390625 6.78125 
Q 54.390625 -7.171875 48.1875 -13.984375 
Q 42 -20.796875 29.203125 -20.796875 
Q 24.46875 -20.796875 20.265625 -20.09375 
Q 16.0625 -19.390625 12.109375 -17.921875 
L 12.109375 -9.1875 
Q 16.0625 -11.328125 19.921875 -12.34375 
Q 23.78125 -13.375 27.78125 -13.375 
Q 36.625 -13.375 41.015625 -8.765625 
Q 45.40625 -4.15625 45.40625 5.171875 
L 45.40625 9.625 
Q 42.625 4.78125 38.28125 2.390625 
Q 33.9375 0 27.875 0 
Q 17.828125 0 11.671875 7.65625 
Q 5.515625 15.328125 5.515625 27.984375 
Q 5.515625 40.671875 11.671875 48.328125 
Q 17.828125 56 27.875 56 
Q 33.9375 56 38.28125 53.609375 
Q 42.625 51.21875 45.40625 46.390625 
L 45.40625 54.6875 
L 54.390625 54.6875 
z
" id="DejaVuSans-103"/>
      <path d="M 56.203125 29.59375 
L 56.203125 25.203125 
L 14.890625 25.203125 
Q 15.484375 15.921875 20.484375 11.0625 
Q 25.484375 6.203125 34.421875 6.203125 
Q 39.59375 6.203125 44.453125 7.46875 
Q 49.3125 8.734375 54.109375 11.28125 
L 54.109375 2.78125 
Q 49.265625 0.734375 44.1875 -0.34375 
Q 39.109375 -1.421875 33.890625 -1.421875 
Q 20.796875 -1.421875 13.15625 6.1875 
Q 5.515625 13.8125 5.515625 26.8125 
Q 5.515625 40.234375 12.765625 48.109375 
Q 20.015625 56 32.328125 56 
Q 43.359375 56 49.78125 48.890625 
Q 56.203125 41.796875 56.203125 29.59375 
z
M 47.21875 32.234375 
Q 47.125 39.59375 43.09375 43.984375 
Q 39.0625 48.390625 32.421875 48.390625 
Q 24.90625 48.390625 20.390625 44.140625 
Q 15.875 39.890625 15.1875 32.171875 
z
" id="DejaVuSans-101"/>
      <path d="M 54.890625 33.015625 
L 54.890625 0 
L 45.90625 0 
L 45.90625 32.71875 
Q 45.90625 40.484375 42.875 44.328125 
Q 39.84375 48.1875 33.796875 48.1875 
Q 26.515625 48.1875 22.3125 43.546875 
Q 18.109375 38.921875 18.109375 30.90625 
L 18.109375 0 
L 9.078125 0 
L 9.078125 54.6875 
L 18.109375 54.6875 
L 18.109375 46.1875 
Q 21.34375 51.125 25.703125 53.5625 
Q 30.078125 56 35.796875 56 
Q 45.21875 56 50.046875 50.171875 
Q 54.890625 44.34375 54.890625 33.015625 
z
" id="DejaVuSans-110"/>
      <path d="M 41.109375 46.296875 
Q 39.59375 47.171875 37.8125 47.578125 
Q 36.03125 48 33.890625 48 
Q 26.265625 48 22.1875 43.046875 
Q 18.109375 38.09375 18.109375 28.8125 
L 18.109375 0 
L 9.078125 0 
L 9.078125 54.6875 
L 18.109375 54.6875 
L 18.109375 46.1875 
Q 20.953125 51.171875 25.484375 53.578125 
Q 30.03125 56 36.53125 56 
Q 37.453125 56 38.578125 55.875 
Q 39.703125 55.765625 41.0625 55.515625 
z
" id="DejaVuSans-114"/>
      <path d="M 34.28125 27.484375 
Q 23.390625 27.484375 19.1875 25 
Q 14.984375 22.515625 14.984375 16.5 
Q 14.984375 11.71875 18.140625 8.90625 
Q 21.296875 6.109375 26.703125 6.109375 
Q 34.1875 6.109375 38.703125 11.40625 
Q 43.21875 16.703125 43.21875 25.484375 
L 43.21875 27.484375 
z
M 52.203125 31.203125 
L 52.203125 0 
L 43.21875 0 
L 43.21875 8.296875 
Q 40.140625 3.328125 35.546875 0.953125 
Q 30.953125 -1.421875 24.3125 -1.421875 
Q 15.921875 -1.421875 10.953125 3.296875 
Q 6 8.015625 6 15.921875 
Q 6 25.140625 12.171875 29.828125 
Q 18.359375 34.515625 30.609375 34.515625 
L 43.21875 34.515625 
L 43.21875 35.40625 
Q 43.21875 41.609375 39.140625 45 
Q 35.0625 48.390625 27.6875 48.390625 
Q 23 48.390625 18.546875 47.265625 
Q 14.109375 46.140625 10.015625 43.890625 
L 10.015625 52.203125 
Q 14.9375 54.109375 19.578125 55.046875 
Q 24.21875 56 28.609375 56 
Q 40.484375 56 46.34375 49.84375 
Q 52.203125 43.703125 52.203125 31.203125 
z
" id="DejaVuSans-97"/>
      <path d="M 18.3125 70.21875 
L 18.3125 54.6875 
L 36.8125 54.6875 
L 36.8125 47.703125 
L 18.3125 47.703125 
L 18.3125 18.015625 
Q 18.3125 11.328125 20.140625 9.421875 
Q 21.96875 7.515625 27.59375 7.515625 
L 36.8125 7.515625 
L 36.8125 0 
L 27.59375 0 
Q 17.1875 0 13.234375 3.875 
Q 9.28125 7.765625 9.28125 18.015625 
L 9.28125 47.703125 
L 2.6875 47.703125 
L 2.6875 54.6875 
L 9.28125 54.6875 
L 9.28125 70.21875 
z
" id="DejaVuSans-116"/>
      <path d="M 9.421875 54.6875 
L 18.40625 54.6875 
L 18.40625 0 
L 9.421875 0 
z
M 9.421875 75.984375 
L 18.40625 75.984375 
L 18.40625 64.59375 
L 9.421875 64.59375 
z
" id="DejaVuSans-105"/>
      <path d="M 30.609375 48.390625 
Q 23.390625 48.390625 19.1875 42.75 
Q 14.984375 37.109375 14.984375 27.296875 
Q 14.984375 17.484375 19.15625 11.84375 
Q 23.34375 6.203125 30.609375 6.203125 
Q 37.796875 6.203125 41.984375 11.859375 
Q 46.1875 17.53125 46.1875 27.296875 
Q 46.1875 37.015625 41.984375 42.703125 
Q 37.796875 48.390625 30.609375 48.390625 
z
M 30.609375 56 
Q 42.328125 56 49.015625 48.375 
Q 55.71875 40.765625 55.71875 27.296875 
Q 55.71875 13.875 49.015625 6.21875 
Q 42.328125 -1.421875 30.609375 -1.421875 
Q 18.84375 -1.421875 12.171875 6.21875 
Q 5.515625 13.875 5.515625 27.296875 
Q 5.515625 40.765625 12.171875 48.375 
Q 18.84375 56 30.609375 56 
z
" id="DejaVuSans-111"/>
     </defs>
     <g transform="translate(341.430938 353.731875)scale(0.12 -0.12)">
      <use xlink:href="#DejaVuSans-103"/>
      <use x="63.476562" xlink:href="#DejaVuSans-101"/>
      <use x="125" xlink:href="#DejaVuSans-110"/>
      <use x="188.378906" xlink:href="#DejaVuSans-101"/>
      <use x="249.902344" xlink:href="#DejaVuSans-114"/>
      <use x="291.015625" xlink:href="#DejaVuSans-97"/>
      <use x="352.294922" xlink:href="#DejaVuSans-116"/>
      <use x="391.503906" xlink:href="#DejaVuSans-105"/>
      <use x="419.287109" xlink:href="#DejaVuSans-111"/>
      <use x="480.46875" xlink:href="#DejaVuSans-110"/>
     </g>
    </g>
   </g>
   <g id="matplotlib.axis_2">
    <g id="ytick_1">
     <g id="line2d_25">
      <defs>
       <path d="M 0 0 
L 4 0 
" id="mc7a27e7f0c" style="stroke:#000000;stroke-width:0.5;"/>
      </defs>
      <g>
       <use style="stroke:#000000;stroke-width:0.5;" x="112.5" xlink:href="#mc7a27e7f0c" y="324"/>
      </g>
     </g>
     <g id="line2d_26">
      <defs>
       <path d="M 0 0 
L -4 0 
" id="m81e5c72685" style="stroke:#000000;stroke-width:0.5;"/>
      </defs>
      <g>
       <use style="stroke:#000000;stroke-width:0.5;" x="635.625" xlink:href="#m81e5c72685" y="324"/>
      </g>
     </g>
     <g id="text_12">
      <!-- 0.18 -->
      <defs>
       <path d="M 10.6875 12.40625 
L 21 12.40625 
L 21 0 
L 10.6875 0 
z
" id="DejaVuSans-46"/>
       <path d="M 31.78125 34.625 
Q 24.75 34.625 20.71875 30.859375 
Q 16.703125 27.09375 16.703125 20.515625 
Q 16.703125 13.921875 20.71875 10.15625 
Q 24.75 6.390625 31.78125 6.390625 
Q 38.8125 6.390625 42.859375 10.171875 
Q 46.921875 13.96875 46.921875 20.515625 
Q 46.921875 27.09375 42.890625 30.859375 
Q 38.875 34.625 31.78125 34.625 
z
M 21.921875 38.8125 
Q 15.578125 40.375 12.03125 44.71875 
Q 8.5 49.078125 8.5 55.328125 
Q 8.5 64.0625 14.71875 69.140625 
Q 20.953125 74.21875 31.78125 74.21875 
Q 42.671875 74.21875 48.875 69.140625 
Q 55.078125 64.0625 55.078125 55.328125 
Q 55.078125 49.078125 51.53125 44.71875 
Q 48 40.375 41.703125 38.8125 
Q 48.828125 37.15625 52.796875 32.3125 
Q 56.78125 27.484375 56.78125 20.515625 
Q 56.78125 9.90625 50.3125 4.234375 
Q 43.84375 -1.421875 31.78125 -1.421875 
Q 19.734375 -1.421875 13.25 4.234375 
Q 6.78125 9.90625 6.78125 20.515625 
Q 6.78125 27.484375 10.78125 32.3125 
Q 14.796875 37.15625 21.921875 38.8125 
z
M 18.3125 54.390625 
Q 18.3125 48.734375 21.84375 45.5625 
Q 25.390625 42.390625 31.78125 42.390625 
Q 38.140625 42.390625 41.71875 45.5625 
Q 45.3125 48.734375 45.3125 54.390625 
Q 45.3125 60.0625 41.71875 63.234375 
Q 38.140625 66.40625 31.78125 66.40625 
Q 25.390625 66.40625 21.84375 63.234375 
Q 18.3125 60.0625 18.3125 54.390625 
z
" id="DejaVuSans-56"/>
      </defs>
      <g transform="translate(81.78125 327.31125)scale(0.12 -0.12)">
       <use xlink:href="#DejaVuSans-48"/>
       <use x="63.623047" xlink:href="#DejaVuSans-46"/>
       <use x="95.410156" xlink:href="#DejaVuSans-49"/>
       <use x="159.033203" xlink:href="#DejaVuSans-56"/>
      </g>
     </g>
    </g>
    <g id="ytick_2">
     <g id="line2d_27">
      <g>
       <use style="stroke:#000000;stroke-width:0.5;" x="112.5" xlink:href="#mc7a27e7f0c" y="276"/>
      </g>
     </g>
     <g id="line2d_28">
      <g>
       <use style="stroke:#000000;stroke-width:0.5;" x="635.625" xlink:href="#m81e5c72685" y="276"/>
      </g>
     </g>
     <g id="text_13">
      <!-- 0.20 -->
      <g transform="translate(81.78125 279.31125)scale(0.12 -0.12)">
       <use xlink:href="#DejaVuSans-48"/>
       <use x="63.623047" xlink:href="#DejaVuSans-46"/>
       <use x="95.410156" xlink:href="#DejaVuSans-50"/>
       <use x="159.033203" xlink:href="#DejaVuSans-48"/>
      </g>
     </g>
    </g>
    <g id="ytick_3">
     <g id="line2d_29">
      <g>
       <use style="stroke:#000000;stroke-width:0.5;" x="112.5" xlink:href="#mc7a27e7f0c" y="228"/>
      </g>
     </g>
     <g id="line2d_30">
      <g>
       <use style="stroke:#000000;stroke-width:0.5;" x="635.625" xlink:href="#m81e5c72685" y="228"/>
      </g>
     </g>
     <g id="text_14">
      <!-- 0.22 -->
      <g transform="translate(81.78125 231.31125)scale(0.12 -0.12)">
       <use xlink:href="#DejaVuSans-48"/>
       <use x="63.623047" xlink:href="#DejaVuSans-46"/>
       <use x="95.410156" xlink:href="#DejaVuSans-50"/>
       <use x="159.033203" xlink:href="#DejaVuSans-50"/>
      </g>
     </g>
    </g>
    <g id="ytick_4">
     <g id="line2d_31">
      <g>
       <use style="stroke:#000000;stroke-width:0.5;" x="112.5" xlink:href="#mc7a27e7f0c" y="180"/>
      </g>
     </g>
     <g id="line2d_32">
      <g>
       <use style="stroke:#000000;stroke-width:0.5;" x="635.625" xlink:href="#m81e5c72685" y="180"/>
      </g>
     </g>
     <g id="text_15">
      <!-- 0.24 -->
      <g transform="translate(81.78125 183.31125)scale(0.12 -0.12)">
       <use xlink:href="#DejaVuSans-48"/>
       <use x="63.623047" xlink:href="#DejaVuSans-46"/>
       <use x="95.410156" xlink:href="#DejaVuSans-50"/>
       <use x="159.033203" xlink:href="#DejaVuSans-52"/>
      </g>
     </g>
    </g>
    <g id="ytick_5">
     <g id="line2d_33">
      <g>
       <use style="stroke:#000000;stroke-width:0.5;" x="112.5" xlink:href="#mc7a27e7f0c" y="132"/>
      </g>
     </g>
     <g id="line2d_34">
      <g>
       <use style="stroke:#000000;stroke-width:0.5;" x="635.625" xlink:href="#m81e5c72685" y="132"/>
      </g>
     </g>
     <g id="text_16">
      <!-- 0.26 -->
      <g transform="translate(81.78125 135.31125)scale(0.12 -0.12)">
       <use xlink:href="#DejaVuSans-48"/>
       <use x="63.623047" xlink:href="#DejaVuSans-46"/>
       <use x="95.410156" xlink:href="#DejaVuSans-50"/>
       <use x="159.033203" xlink:href="#DejaVuSans-54"/>
      </g>
     </g>
    </g>
    <g id="ytick_6">
     <g id="line2d_35">
      <g>
       <use style="stroke:#000000;stroke-width:0.5;" x="112.5" xlink:href="#mc7a27e7f0c" y="84"/>
      </g>
     </g>
     <g id="line2d_36">
      <g>
       <use style="stroke:#000000;stroke-width:0.5;" x="635.625" xlink:href="#m81e5c72685" y="84"/>
      </g>
     </g>
     <g id="text_17">
      <!-- 0.28 -->
      <g transform="translate(81.78125 87.31125)scale(0.12 -0.12)">
       <use xlink:href="#DejaVuSans-48"/>
       <use x="63.623047" xlink:href="#DejaVuSans-46"/>
       <use x="95.410156" xlink:href="#DejaVuSans-50"/>
       <use x="159.033203" xlink:href="#DejaVuSans-56"/>
      </g>
     </g>
    </g>
    <g id="ytick_7">
     <g id="line2d_37">
      <g>
       <use style="stroke:#000000;stroke-width:0.5;" x="112.5" xlink:href="#mc7a27e7f0c" y="36"/>
      </g>
     </g>
     <g id="line2d_38">
      <g>
       <use style="stroke:#000000;stroke-width:0.5;" x="635.625" xlink:href="#m81e5c72685" y="36"/>
      </g>
     </g>
     <g id="text_18">
      <!-- 0.30 -->
      <g transform="translate(81.78125 39.31125)scale(0.12 -0.12)">
       <use xlink:href="#DejaVuSans-48"/>
       <use x="63.623047" xlink:href="#DejaVuSans-46"/>
       <use x="95.410156" xlink:href="#DejaVuSans-51"/>
       <use x="159.033203" xlink:href="#DejaVuSans-48"/>
      </g>
     </g>
    </g>
    <g id="text_19">
     <!-- los -->
     <defs>
      <path d="M 9.421875 75.984375 
L 18.40625 75.984375 
L 18.40625 0 
L 9.421875 0 
z
" id="DejaVuSans-108"/>
      <path d="M 44.28125 53.078125 
L 44.28125 44.578125 
Q 40.484375 46.53125 36.375 47.5 
Q 32.28125 48.484375 27.875 48.484375 
Q 21.1875 48.484375 17.84375 46.4375 
Q 14.5 44.390625 14.5 40.28125 
Q 14.5 37.15625 16.890625 35.375 
Q 19.28125 33.59375 26.515625 31.984375 
L 29.59375 31.296875 
Q 39.15625 29.25 43.1875 25.515625 
Q 47.21875 21.78125 47.21875 15.09375 
Q 47.21875 7.46875 41.1875 3.015625 
Q 35.15625 -1.421875 24.609375 -1.421875 
Q 20.21875 -1.421875 15.453125 -0.5625 
Q 10.6875 0.296875 5.421875 2 
L 5.421875 11.28125 
Q 10.40625 8.6875 15.234375 7.390625 
Q 20.0625 6.109375 24.8125 6.109375 
Q 31.15625 6.109375 34.5625 8.28125 
Q 37.984375 10.453125 37.984375 14.40625 
Q 37.984375 18.0625 35.515625 20.015625 
Q 33.0625 21.96875 24.703125 23.78125 
L 21.578125 24.515625 
Q 13.234375 26.265625 9.515625 29.90625 
Q 5.8125 33.546875 5.8125 39.890625 
Q 5.8125 47.609375 11.28125 51.796875 
Q 16.75 56 26.8125 56 
Q 31.78125 56 36.171875 55.265625 
Q 40.578125 54.546875 44.28125 53.078125 
z
" id="DejaVuSans-115"/>
     </defs>
     <g transform="translate(74.285625 188.46375)rotate(-90)scale(0.12 -0.12)">
      <use xlink:href="#DejaVuSans-108"/>
      <use x="27.783203" xlink:href="#DejaVuSans-111"/>
      <use x="88.964844" xlink:href="#DejaVuSans-115"/>
     </g>
    </g>
   </g>
   <g id="legend_1">
    <g id="patch_7">
     <path d="M 640.623 211.399935 
L 834.22053 211.399935 
L 834.22053 148.600065 
L 640.623 148.600065 
z
" style="fill:#ffffff;stroke:#000000;stroke-linejoin:miter;"/>
    </g>
    <g id="line2d_39">
     <path d="M 647.6202 156.695263 
L 661.6146 156.695263 
" style="fill:none;stroke:#0000ff;stroke-linecap:square;stroke-width:1.2;"/>
    </g>
    <g id="line2d_40"/>
    <g id="text_20">
     <!-- Lonely_los_exp_loss -->
     <defs>
      <path d="M 9.8125 72.90625 
L 19.671875 72.90625 
L 19.671875 8.296875 
L 55.171875 8.296875 
L 55.171875 0 
L 9.8125 0 
z
" id="DejaVuSans-76"/>
      <path d="M 32.171875 -5.078125 
Q 28.375 -14.84375 24.75 -17.8125 
Q 21.140625 -20.796875 15.09375 -20.796875 
L 7.90625 -20.796875 
L 7.90625 -13.28125 
L 13.1875 -13.28125 
Q 16.890625 -13.28125 18.9375 -11.515625 
Q 21 -9.765625 23.484375 -3.21875 
L 25.09375 0.875 
L 2.984375 54.6875 
L 12.5 54.6875 
L 29.59375 11.921875 
L 46.6875 54.6875 
L 56.203125 54.6875 
z
" id="DejaVuSans-121"/>
      <path d="M 50.984375 -16.609375 
L 50.984375 -23.578125 
L -0.984375 -23.578125 
L -0.984375 -16.609375 
z
" id="DejaVuSans-95"/>
      <path d="M 54.890625 54.6875 
L 35.109375 28.078125 
L 55.90625 0 
L 45.3125 0 
L 29.390625 21.484375 
L 13.484375 0 
L 2.875 0 
L 24.125 28.609375 
L 4.6875 54.6875 
L 15.28125 54.6875 
L 29.78125 35.203125 
L 44.28125 54.6875 
z
" id="DejaVuSans-120"/>
      <path d="M 18.109375 8.203125 
L 18.109375 -20.796875 
L 9.078125 -20.796875 
L 9.078125 54.6875 
L 18.109375 54.6875 
L 18.109375 46.390625 
Q 20.953125 51.265625 25.265625 53.625 
Q 29.59375 56 35.59375 56 
Q 45.5625 56 51.78125 48.09375 
Q 58.015625 40.1875 58.015625 27.296875 
Q 58.015625 14.40625 51.78125 6.484375 
Q 45.5625 -1.421875 35.59375 -1.421875 
Q 29.59375 -1.421875 25.265625 0.953125 
Q 20.953125 3.328125 18.109375 8.203125 
z
M 48.6875 27.296875 
Q 48.6875 37.203125 44.609375 42.84375 
Q 40.53125 48.484375 33.40625 48.484375 
Q 26.265625 48.484375 22.1875 42.84375 
Q 18.109375 37.203125 18.109375 27.296875 
Q 18.109375 17.390625 22.1875 11.75 
Q 26.265625 6.109375 33.40625 6.109375 
Q 40.53125 6.109375 44.609375 11.75 
Q 48.6875 17.390625 48.6875 27.296875 
z
" id="DejaVuSans-112"/>
     </defs>
     <g transform="translate(672.6102 160.193863)scale(0.09996 -0.09996)">
      <use xlink:href="#DejaVuSans-76"/>
      <use x="53.962891" xlink:href="#DejaVuSans-111"/>
      <use x="115.144531" xlink:href="#DejaVuSans-110"/>
      <use x="178.523438" xlink:href="#DejaVuSans-101"/>
      <use x="240.046875" xlink:href="#DejaVuSans-108"/>
      <use x="267.830078" xlink:href="#DejaVuSans-121"/>
      <use x="327.009766" xlink:href="#DejaVuSans-95"/>
      <use x="377.009766" xlink:href="#DejaVuSans-108"/>
      <use x="404.792969" xlink:href="#DejaVuSans-111"/>
      <use x="465.974609" xlink:href="#DejaVuSans-115"/>
      <use x="518.074219" xlink:href="#DejaVuSans-95"/>
      <use x="568.074219" xlink:href="#DejaVuSans-101"/>
      <use x="627.847656" xlink:href="#DejaVuSans-120"/>
      <use x="687.027344" xlink:href="#DejaVuSans-112"/>
      <use x="750.503906" xlink:href="#DejaVuSans-95"/>
      <use x="800.503906" xlink:href="#DejaVuSans-108"/>
      <use x="828.287109" xlink:href="#DejaVuSans-111"/>
      <use x="889.46875" xlink:href="#DejaVuSans-115"/>
      <use x="941.568359" xlink:href="#DejaVuSans-115"/>
     </g>
    </g>
    <g id="line2d_41">
     <path d="M 647.6202 171.645531 
L 661.6146 171.645531 
" style="fill:none;stroke:#008000;stroke-linecap:square;stroke-width:1.2;"/>
    </g>
    <g id="line2d_42"/>
    <g id="text_21">
     <!-- Lonely_los_layers -->
     <g transform="translate(672.6102 175.144131)scale(0.09996 -0.09996)">
      <use xlink:href="#DejaVuSans-76"/>
      <use x="53.962891" xlink:href="#DejaVuSans-111"/>
      <use x="115.144531" xlink:href="#DejaVuSans-110"/>
      <use x="178.523438" xlink:href="#DejaVuSans-101"/>
      <use x="240.046875" xlink:href="#DejaVuSans-108"/>
      <use x="267.830078" xlink:href="#DejaVuSans-121"/>
      <use x="327.009766" xlink:href="#DejaVuSans-95"/>
      <use x="377.009766" xlink:href="#DejaVuSans-108"/>
      <use x="404.792969" xlink:href="#DejaVuSans-111"/>
      <use x="465.974609" xlink:href="#DejaVuSans-115"/>
      <use x="518.074219" xlink:href="#DejaVuSans-95"/>
      <use x="568.074219" xlink:href="#DejaVuSans-108"/>
      <use x="595.857422" xlink:href="#DejaVuSans-97"/>
      <use x="657.136719" xlink:href="#DejaVuSans-121"/>
      <use x="716.316406" xlink:href="#DejaVuSans-101"/>
      <use x="777.839844" xlink:href="#DejaVuSans-114"/>
      <use x="818.953125" xlink:href="#DejaVuSans-115"/>
     </g>
    </g>
    <g id="line2d_43">
     <path d="M 647.6202 186.595798 
L 661.6146 186.595798 
" style="fill:none;stroke:#ff0000;stroke-linecap:square;stroke-width:1.2;"/>
    </g>
    <g id="line2d_44"/>
    <g id="text_22">
     <!-- Lonely_los_layers_mut_all -->
     <defs>
      <path d="M 52 44.1875 
Q 55.375 50.25 60.0625 53.125 
Q 64.75 56 71.09375 56 
Q 79.640625 56 84.28125 50.015625 
Q 88.921875 44.046875 88.921875 33.015625 
L 88.921875 0 
L 79.890625 0 
L 79.890625 32.71875 
Q 79.890625 40.578125 77.09375 44.375 
Q 74.3125 48.1875 68.609375 48.1875 
Q 61.625 48.1875 57.5625 43.546875 
Q 53.515625 38.921875 53.515625 30.90625 
L 53.515625 0 
L 44.484375 0 
L 44.484375 32.71875 
Q 44.484375 40.625 41.703125 44.40625 
Q 38.921875 48.1875 33.109375 48.1875 
Q 26.21875 48.1875 22.15625 43.53125 
Q 18.109375 38.875 18.109375 30.90625 
L 18.109375 0 
L 9.078125 0 
L 9.078125 54.6875 
L 18.109375 54.6875 
L 18.109375 46.1875 
Q 21.1875 51.21875 25.484375 53.609375 
Q 29.78125 56 35.6875 56 
Q 41.65625 56 45.828125 52.96875 
Q 50 49.953125 52 44.1875 
z
" id="DejaVuSans-109"/>
      <path d="M 8.5 21.578125 
L 8.5 54.6875 
L 17.484375 54.6875 
L 17.484375 21.921875 
Q 17.484375 14.15625 20.5 10.265625 
Q 23.53125 6.390625 29.59375 6.390625 
Q 36.859375 6.390625 41.078125 11.03125 
Q 45.3125 15.671875 45.3125 23.6875 
L 45.3125 54.6875 
L 54.296875 54.6875 
L 54.296875 0 
L 45.3125 0 
L 45.3125 8.40625 
Q 42.046875 3.421875 37.71875 1 
Q 33.40625 -1.421875 27.6875 -1.421875 
Q 18.265625 -1.421875 13.375 4.4375 
Q 8.5 10.296875 8.5 21.578125 
z
M 31.109375 56 
z
" id="DejaVuSans-117"/>
     </defs>
     <g transform="translate(672.6102 190.094398)scale(0.09996 -0.09996)">
      <use xlink:href="#DejaVuSans-76"/>
      <use x="53.962891" xlink:href="#DejaVuSans-111"/>
      <use x="115.144531" xlink:href="#DejaVuSans-110"/>
      <use x="178.523438" xlink:href="#DejaVuSans-101"/>
      <use x="240.046875" xlink:href="#DejaVuSans-108"/>
      <use x="267.830078" xlink:href="#DejaVuSans-121"/>
      <use x="327.009766" xlink:href="#DejaVuSans-95"/>
      <use x="377.009766" xlink:href="#DejaVuSans-108"/>
      <use x="404.792969" xlink:href="#DejaVuSans-111"/>
      <use x="465.974609" xlink:href="#DejaVuSans-115"/>
      <use x="518.074219" xlink:href="#DejaVuSans-95"/>
      <use x="568.074219" xlink:href="#DejaVuSans-108"/>
      <use x="595.857422" xlink:href="#DejaVuSans-97"/>
      <use x="657.136719" xlink:href="#DejaVuSans-121"/>
      <use x="716.316406" xlink:href="#DejaVuSans-101"/>
      <use x="777.839844" xlink:href="#DejaVuSans-114"/>
      <use x="818.953125" xlink:href="#DejaVuSans-115"/>
      <use x="871.052734" xlink:href="#DejaVuSans-95"/>
      <use x="921.052734" xlink:href="#DejaVuSans-109"/>
      <use x="1018.464844" xlink:href="#DejaVuSans-117"/>
      <use x="1081.84375" xlink:href="#DejaVuSans-116"/>
      <use x="1121.052734" xlink:href="#DejaVuSans-95"/>
      <use x="1171.052734" xlink:href="#DejaVuSans-97"/>
      <use x="1232.332031" xlink:href="#DejaVuSans-108"/>
      <use x="1260.115234" xlink:href="#DejaVuSans-108"/>
     </g>
    </g>
    <g id="line2d_45">
     <path d="M 647.6202 201.546066 
L 661.6146 201.546066 
" style="fill:none;stroke:#00bfbf;stroke-linecap:square;stroke-width:1.2;"/>
    </g>
    <g id="line2d_46"/>
    <g id="text_23">
     <!-- Lonely_los_layers_mut_all_copy -->
     <defs>
      <path d="M 48.78125 52.59375 
L 48.78125 44.1875 
Q 44.96875 46.296875 41.140625 47.34375 
Q 37.3125 48.390625 33.40625 48.390625 
Q 24.65625 48.390625 19.8125 42.84375 
Q 14.984375 37.3125 14.984375 27.296875 
Q 14.984375 17.28125 19.8125 11.734375 
Q 24.65625 6.203125 33.40625 6.203125 
Q 37.3125 6.203125 41.140625 7.25 
Q 44.96875 8.296875 48.78125 10.40625 
L 48.78125 2.09375 
Q 45.015625 0.34375 40.984375 -0.53125 
Q 36.96875 -1.421875 32.421875 -1.421875 
Q 20.0625 -1.421875 12.78125 6.34375 
Q 5.515625 14.109375 5.515625 27.296875 
Q 5.515625 40.671875 12.859375 48.328125 
Q 20.21875 56 33.015625 56 
Q 37.15625 56 41.109375 55.140625 
Q 45.0625 54.296875 48.78125 52.59375 
z
" id="DejaVuSans-99"/>
     </defs>
     <g transform="translate(672.6102 205.044666)scale(0.09996 -0.09996)">
      <use xlink:href="#DejaVuSans-76"/>
      <use x="53.962891" xlink:href="#DejaVuSans-111"/>
      <use x="115.144531" xlink:href="#DejaVuSans-110"/>
      <use x="178.523438" xlink:href="#DejaVuSans-101"/>
      <use x="240.046875" xlink:href="#DejaVuSans-108"/>
      <use x="267.830078" xlink:href="#DejaVuSans-121"/>
      <use x="327.009766" xlink:href="#DejaVuSans-95"/>
      <use x="377.009766" xlink:href="#DejaVuSans-108"/>
      <use x="404.792969" xlink:href="#DejaVuSans-111"/>
      <use x="465.974609" xlink:href="#DejaVuSans-115"/>
      <use x="518.074219" xlink:href="#DejaVuSans-95"/>
      <use x="568.074219" xlink:href="#DejaVuSans-108"/>
      <use x="595.857422" xlink:href="#DejaVuSans-97"/>
      <use x="657.136719" xlink:href="#DejaVuSans-121"/>
      <use x="716.316406" xlink:href="#DejaVuSans-101"/>
      <use x="777.839844" xlink:href="#DejaVuSans-114"/>
      <use x="818.953125" xlink:href="#DejaVuSans-115"/>
      <use x="871.052734" xlink:href="#DejaVuSans-95"/>
      <use x="921.052734" xlink:href="#DejaVuSans-109"/>
      <use x="1018.464844" xlink:href="#DejaVuSans-117"/>
      <use x="1081.84375" xlink:href="#DejaVuSans-116"/>
      <use x="1121.052734" xlink:href="#DejaVuSans-95"/>
      <use x="1171.052734" xlink:href="#DejaVuSans-97"/>
      <use x="1232.332031" xlink:href="#DejaVuSans-108"/>
      <use x="1260.115234" xlink:href="#DejaVuSans-108"/>
      <use x="1287.898438" xlink:href="#DejaVuSans-95"/>
      <use x="1337.898438" xlink:href="#DejaVuSans-99"/>
      <use x="1392.878906" xlink:href="#DejaVuSans-111"/>
      <use x="1454.060547" xlink:href="#DejaVuSans-112"/>
      <use x="1517.537109" xlink:href="#DejaVuSans-121"/>
     </g>
    </g>
   </g>
  </g>
  <g id="text_24">
   <!-- Average Loss -->
   <defs>
    <path d="M 34.1875 63.1875 
L 20.796875 26.90625 
L 47.609375 26.90625 
z
M 28.609375 72.90625 
L 39.796875 72.90625 
L 67.578125 0 
L 57.328125 0 
L 50.6875 18.703125 
L 17.828125 18.703125 
L 11.1875 0 
L 0.78125 0 
z
" id="DejaVuSans-65"/>
    <path d="M 2.984375 54.6875 
L 12.5 54.6875 
L 29.59375 8.796875 
L 46.6875 54.6875 
L 56.203125 54.6875 
L 35.6875 0 
L 23.484375 0 
z
" id="DejaVuSans-118"/>
    <path id="DejaVuSans-32"/>
   </defs>
   <g transform="translate(410.293125 16.318125)scale(0.12 -0.12)">
    <use xlink:href="#DejaVuSans-65"/>
    <use x="62.533203" xlink:href="#DejaVuSans-118"/>
    <use x="121.712891" xlink:href="#DejaVuSans-101"/>
    <use x="183.236328" xlink:href="#DejaVuSans-114"/>
    <use x="224.349609" xlink:href="#DejaVuSans-97"/>
    <use x="285.628906" xlink:href="#DejaVuSans-103"/>
    <use x="349.105469" xlink:href="#DejaVuSans-101"/>
    <use x="410.628906" xlink:href="#DejaVuSans-32"/>
    <use x="442.416016" xlink:href="#DejaVuSans-76"/>
    <use x="496.378906" xlink:href="#DejaVuSans-111"/>
    <use x="557.560547" xlink:href="#DejaVuSans-115"/>
    <use x="609.660156" xlink:href="#DejaVuSans-115"/>
   </g>
  </g>
 </g>
 <defs>
  <clipPath id="p8f4aea90e4">
   <rect height="288" width="523.125" x="112.5" y="36"/>
  </clipPath>
 </defs>
</svg>
