<?xml version="1.0" encoding="utf-8" standalone="no"?>
<!DOCTYPE svg PUBLIC "-//W3C//DTD SVG 1.1//EN"
  "http://www.w3.org/Graphics/SVG/1.1/DTD/svg11.dtd">
<!-- Created with matplotlib (https://matplotlib.org/) -->
<svg height="360pt" version="1.1" viewBox="0 0 900 360" width="900pt" xmlns="http://www.w3.org/2000/svg" xmlns:xlink="http://www.w3.org/1999/xlink">
 <defs>
  <style type="text/css">
*{stroke-linecap:butt;stroke-linejoin:round;}
  </style>
 </defs>
 <g id="figure_1">
  <g id="patch_1">
   <path d="M 0 360 
L 900 360 
L 900 0 
L 0 0 
z
" style="fill:#ffffff;"/>
  </g>
  <g id="axes_1">
   <g id="patch_2">
    <path d="M 112.5 324 
L 635.625 324 
L 635.625 36 
L 112.5 36 
z
" style="fill:#ffffff;"/>
   </g>
   <g id="line2d_1">
    <path clip-path="url(#pfc00c46f51)" d="M 112.85062 314.59592 
L 116.35682 305.681633 
L 119.863019 300.195919 
L 123.369219 296.904491 
L 126.875419 297.652543 
L 130.381619 299.938257 
L 133.887818 295.507487 
L 137.394018 291.296289 
L 140.900218 285.336976 
L 144.406418 279.130245 
L 147.912617 274.59816 
L 151.418817 268.393976 
L 154.925017 261.114746 
L 158.431216 254.671348 
L 165.443616 245.123575 
L 168.949816 238.287897 
L 172.456015 232.962932 
L 175.962215 224.329775 
L 179.468415 219.390272 
L 182.974615 208.65876 
L 186.480814 197.464533 
L 189.987014 191.899552 
L 193.493214 185.377372 
L 196.999414 176.02024 
L 200.505613 167.873353 
L 204.011813 156.10392 
L 207.518013 153.749152 
L 211.024212 150.175441 
L 214.530412 145.488972 
L 218.036612 143.0536 
L 221.542812 139.673749 
L 225.049011 133.706746 
L 228.555211 129.663008 
L 232.061411 124.856381 
L 235.567611 121.431838 
L 239.07381 118.315355 
L 242.58001 114.091534 
L 246.08621 109.169825 
L 249.59241 107.915336 
L 253.098609 105.609471 
L 256.604809 102.01905 
L 260.111009 102.635649 
L 263.617208 94.888858 
L 267.123408 91.934806 
L 270.629608 90.187057 
L 274.135808 87.557409 
L 277.642007 84.269888 
L 281.148207 79.317754 
L 284.654407 70.772422 
L 288.160607 69.128301 
L 291.666806 66.319009 
L 295.173006 68.069819 
L 298.679206 69.946597 
L 302.185405 67.578872 
L 305.691605 70.262694 
L 309.197805 71.278429 
L 312.704005 73.975692 
L 319.716404 61.463595 
L 323.222604 57.224243 
L 326.728804 58.748613 
L 330.235003 55.964013 
L 333.741203 60.271695 
L 337.247403 55.41974 
L 340.753603 57.631246 
L 344.259802 59.446339 
L 347.766002 61.72716 
L 351.272202 61.534301 
L 354.778401 63.228719 
L 358.284601 59.869369 
L 361.790801 64.431428 
L 365.297001 66.85342 
L 368.8032 65.313306 
L 372.3094 64.745206 
L 379.3218 64.024216 
L 382.827999 62.655908 
L 389.840399 55.369371 
L 393.346599 55.026431 
L 396.852798 51.746964 
L 400.358998 56.473493 
L 403.865198 56.525635 
L 407.371397 54.155175 
L 410.877597 53.787687 
L 414.383797 55.775909 
L 417.889997 60.686308 
L 421.396196 62.850873 
L 424.902396 57.644738 
L 428.408596 56.2539 
L 431.914796 57.470285 
L 435.420995 58.386528 
L 438.927195 60.697236 
L 442.433395 53.946429 
L 445.939595 61.279053 
L 449.445794 63.668506 
L 452.951994 68.45864 
L 456.458194 67.194008 
L 459.964393 67.23854 
L 463.470593 62.677981 
L 466.976793 69.046342 
L 470.482993 60.360309 
L 473.989192 59.050888 
L 477.495392 54.318424 
L 481.001592 61.767554 
L 484.507792 63.245611 
L 488.013991 68.774988 
L 491.520191 66.222247 
L 495.026391 71.314923 
L 498.53259 75.423146 
L 502.03879 77.257575 
L 505.54499 68.954609 
L 509.05119 66.439916 
L 512.557389 62.040516 
L 516.063589 64.250712 
L 519.569789 61.386432 
L 523.075989 57.14185 
L 526.582188 54.75053 
L 530.088388 55.767799 
L 537.100788 61.866967 
L 540.606987 58.518767 
L 544.113187 59.986089 
L 547.619387 57.883998 
L 551.125586 61.500858 
L 554.631786 62.574829 
L 561.644186 58.110054 
L 565.150385 56.812681 
L 568.656585 53.192749 
L 572.162785 54.519796 
L 575.668985 49.130044 
L 582.681384 50.010622 
L 586.187584 49.809567 
L 589.693784 50.747788 
L 593.199983 48.238835 
L 596.706183 50.498541 
L 600.212383 53.420794 
L 603.718582 53.110169 
L 607.224782 51.839712 
L 610.730982 51.691919 
L 614.237182 51.714282 
L 617.743381 56.806692 
L 617.743381 56.806692 
" style="fill:none;stroke:#0000ff;stroke-linecap:square;stroke-width:1.2;"/>
   </g>
   <g id="line2d_2">
    <path clip-path="url(#pfc00c46f51)" d="M 112.85062 320.473469 
L 116.35682 319.444898 
L 119.863019 309.692517 
L 123.369219 305.852516 
L 126.875419 305.353815 
L 130.381619 301.239529 
L 133.887818 295.753815 
L 137.394018 292.37538 
L 140.900218 282.697505 
L 144.406418 277.034153 
L 147.912617 269.120652 
L 151.418817 257.260959 
L 154.925017 249.658212 
L 158.431216 242.525584 
L 161.937416 233.838236 
L 165.443616 227.125985 
L 168.949816 221.387994 
L 172.456015 213.70746 
L 175.962215 207.614333 
L 179.468415 206.0681 
L 182.974615 200.309832 
L 186.480814 193.510944 
L 189.987014 189.23726 
L 193.493214 183.599291 
L 196.999414 178.75141 
L 200.505613 173.155361 
L 204.011813 163.660975 
L 207.518013 155.145128 
L 211.024212 151.771934 
L 214.530412 149.100975 
L 218.036612 144.548357 
L 221.542812 136.642628 
L 225.049011 134.255934 
L 228.555211 131.572031 
L 232.061411 132.501572 
L 235.567611 128.487369 
L 239.07381 123.103905 
L 242.58001 118.922463 
L 246.08621 116.504428 
L 249.59241 112.39607 
L 253.098609 106.701216 
L 256.604809 102.184705 
L 260.111009 100.583401 
L 263.617208 95.47523 
L 267.123408 94.726542 
L 270.629608 90.73044 
L 274.135808 85.899018 
L 277.642007 82.821926 
L 284.654407 75.242344 
L 288.160607 73.896957 
L 291.666806 67.230945 
L 295.173006 68.377138 
L 298.679206 66.185345 
L 302.185405 70.180333 
L 305.691605 69.501005 
L 309.197805 70.325297 
L 312.704005 65.408796 
L 316.210204 63.580719 
L 319.716404 60.046928 
L 323.222604 64.005511 
L 326.728804 59.521734 
L 330.235003 59.387065 
L 333.741203 55.169839 
L 337.247403 57.547062 
L 340.753603 57.504912 
L 344.259802 56.465416 
L 347.766002 49.766727 
L 354.778401 42.067453 
L 358.284601 46.545291 
L 361.790801 47.175925 
L 365.297001 52.711058 
L 368.8032 54.954129 
L 372.3094 60.838875 
L 375.8156 66.211529 
L 379.3218 68.279755 
L 382.827999 61.723065 
L 386.334199 61.787131 
L 389.840399 59.531444 
L 393.346599 58.617611 
L 396.852798 58.657734 
L 400.358998 57.654695 
L 403.865198 56.837383 
L 407.371397 60.048374 
L 410.877597 55.905832 
L 414.383797 55.626939 
L 417.889997 55.818865 
L 421.396196 53.068622 
L 424.902396 51.871891 
L 428.408596 51.48993 
L 431.914796 53.996424 
L 435.420995 57.858337 
L 438.927195 56.342071 
L 442.433395 57.648251 
L 445.939595 58.422509 
L 449.445794 56.816512 
L 452.951994 58.492184 
L 456.458194 56.517133 
L 459.964393 52.82715 
L 463.470593 48.54798 
L 466.976793 52.489718 
L 470.482993 49.290492 
L 473.989192 49.133546 
L 477.495392 48.835628 
L 481.001592 44.235952 
L 484.507792 50.959706 
L 488.013991 55.99797 
L 491.520191 49.938166 
L 495.026391 52.941832 
L 498.53259 53.867744 
L 502.03879 53.199886 
L 505.54499 55.577331 
L 509.05119 53.189676 
L 512.557389 53.184643 
L 516.063589 54.067339 
L 519.569789 52.044027 
L 523.075989 53.380664 
L 526.582188 50.651712 
L 530.088388 51.327764 
L 533.594588 52.872451 
L 540.606987 50.774623 
L 544.113187 54.685768 
L 547.619387 53.731215 
L 551.125586 57.765902 
L 554.631786 54.885319 
L 558.137986 49.76543 
L 561.644186 49.187447 
L 565.150385 53.285137 
L 568.656585 50.434539 
L 572.162785 56.932597 
L 575.668985 59.611355 
L 579.175184 61.873797 
L 582.681384 63.860155 
L 586.187584 69.208605 
L 589.693784 66.002718 
L 593.199983 65.723348 
L 596.706183 59.8589 
L 600.212383 55.86915 
L 603.718582 58.150112 
L 607.224782 60.664724 
L 610.730982 59.374535 
L 621.249581 62.969506 
L 624.755781 66.102206 
L 628.261981 66.978081 
L 631.76818 66.153796 
L 635.27438 63.201376 
L 635.27438 63.201376 
" style="fill:none;stroke:#008000;stroke-linecap:square;stroke-width:1.2;"/>
   </g>
   <g id="line2d_3">
    <path clip-path="url(#pfc00c46f51)" d="M 112.85062 303.624489 
L 116.35682 288.538774 
L 119.863019 282.748298 
L 123.369219 274.245441 
L 126.875419 271.003883 
L 130.381619 263.232454 
L 133.887818 257.535751 
L 137.394018 247.871782 
L 140.900218 239.046848 
L 144.406418 226.190693 
L 147.912617 219.751317 
L 151.418817 209.268152 
L 154.925017 201.952217 
L 161.937416 184.402034 
L 165.443616 175.34584 
L 168.949816 167.214917 
L 172.456015 160.219809 
L 175.962215 150.750156 
L 179.468415 144.490657 
L 182.974615 136.731471 
L 186.480814 135.596372 
L 196.999414 119.375667 
L 200.505613 119.072136 
L 204.011813 114.584997 
L 207.518013 109.716587 
L 211.024212 102.873087 
L 214.530412 98.659754 
L 218.036612 98.755776 
L 221.542812 90.206993 
L 225.049011 84.399784 
L 228.555211 80.811911 
L 232.061411 75.634628 
L 235.567611 70.796505 
L 239.07381 68.442188 
L 242.58001 62.101582 
L 246.08621 61.41655 
L 249.59241 59.226631 
L 253.098609 56.089302 
L 256.604809 60.493508 
L 260.111009 58.646025 
L 263.617208 54.938628 
L 267.123408 52.277742 
L 270.629608 58.959372 
L 274.135808 59.571781 
L 277.642007 57.940763 
L 281.148207 55.423518 
L 284.654407 62.13827 
L 288.160607 61.426155 
L 291.666806 70.147462 
L 295.173006 67.843249 
L 298.679206 68.901494 
L 302.185405 72.909462 
L 305.691605 71.511678 
L 309.197805 68.856885 
L 312.704005 74.914194 
L 316.210204 74.436909 
L 319.716404 74.733125 
L 323.222604 74.548745 
L 326.728804 76.573744 
L 330.235003 77.80709 
L 333.741203 78.495567 
L 337.247403 74.551278 
L 340.753603 72.872164 
L 344.259802 71.463079 
L 347.766002 71.22572 
L 351.272202 71.869279 
L 354.778401 69.513623 
L 358.284601 68.189737 
L 361.790801 70.232256 
L 365.297001 68.763252 
L 368.8032 66.234694 
L 372.3094 60.787032 
L 375.8156 55.081804 
L 379.3218 55.237599 
L 382.827999 48.755566 
L 386.334199 48.791424 
L 389.840399 47.466119 
L 393.346599 48.132272 
L 396.852798 50.534653 
L 400.358998 48.49696 
L 403.865198 48.400427 
L 407.371397 51.959922 
L 410.877597 53.047609 
L 414.383797 48.624207 
L 417.889997 48.873038 
L 421.396196 48.323244 
L 424.902396 54.428563 
L 428.408596 56.791166 
L 431.914796 53.997965 
L 435.420995 50.906235 
L 438.927195 51.081775 
L 442.433395 53.994535 
L 445.939595 53.797821 
L 449.445794 51.217434 
L 452.951994 50.366707 
L 456.458194 52.408259 
L 459.964393 49.991931 
L 463.470593 53.283922 
L 466.976793 49.431457 
L 470.482993 51.205473 
L 473.989192 50.149608 
L 477.495392 47.812028 
L 481.001592 48.935395 
L 488.013991 55.962903 
L 491.520191 62.794993 
L 495.026391 67.906274 
L 498.53259 75.390853 
L 502.03879 76.879335 
L 505.54499 79.872824 
L 509.05119 84.725827 
L 512.557389 86.305393 
L 516.063589 82.83916 
L 519.569789 76.814217 
L 523.075989 67.4292 
L 526.582188 75.985784 
L 530.088388 73.154913 
L 533.594588 69.310996 
L 537.100788 66.526812 
L 540.606987 67.170917 
L 544.113187 69.804949 
L 547.619387 73.574512 
L 551.125586 67.270348 
L 558.137986 62.909245 
L 561.644186 63.474926 
L 565.150385 61.080729 
L 568.656585 55.767876 
L 572.162785 52.710223 
L 575.668985 48.425378 
L 579.175184 49.250314 
L 582.681384 46.089737 
L 586.187584 41.798569 
L 589.693784 40.104337 
L 593.199983 42.275274 
L 596.706183 41.683574 
L 600.212383 43.063875 
L 603.718582 39.634149 
L 607.224782 47.366137 
L 610.730982 49.060345 
L 614.237182 50.382236 
L 617.743381 50.427764 
L 621.249581 52.284955 
L 624.755781 52.915559 
L 628.261981 57.794588 
L 631.76818 51.87961 
L 635.27438 52.591694 
L 635.27438 52.591694 
" style="fill:none;stroke:#ff0000;stroke-linecap:square;stroke-width:1.2;"/>
   </g>
   <g id="line2d_4">
    <path clip-path="url(#pfc00c46f51)" d="M 112.85062 320.081634 
L 116.35682 306.024491 
L 119.863019 298.710205 
L 123.369219 289.384491 
L 126.875419 283.150725 
L 130.381619 271.722153 
L 133.887818 263.915559 
L 137.394018 253.265421 
L 151.418817 202.679664 
L 154.925017 191.250022 
L 158.431216 177.642784 
L 161.937416 164.652031 
L 165.443616 151.217623 
L 168.949816 140.891705 
L 172.456015 135.410294 
L 175.962215 128.547816 
L 182.974615 117.840412 
L 186.480814 112.973584 
L 189.987014 110.664702 
L 193.493214 108.128559 
L 196.999414 100.122271 
L 200.505613 92.871955 
L 204.011813 85.061652 
L 207.518013 80.430319 
L 211.024212 74.762156 
L 214.530412 71.578444 
L 218.036612 66.235029 
L 221.542812 64.472273 
L 225.049011 64.608561 
L 228.555211 68.942939 
L 232.061411 65.105448 
L 235.567611 68.160426 
L 239.07381 65.154644 
L 242.58001 63.805604 
L 246.08621 63.543332 
L 249.59241 63.039414 
L 253.098609 61.95233 
L 256.604809 65.085606 
L 260.111009 63.794137 
L 263.617208 65.799373 
L 267.123408 67.218674 
L 274.135808 68.948256 
L 277.642007 67.376515 
L 281.148207 68.607684 
L 284.654407 64.969165 
L 288.160607 61.951456 
L 291.666806 58.38145 
L 295.173006 55.732326 
L 298.679206 53.660771 
L 302.185405 53.449669 
L 305.691605 48.485866 
L 312.704005 44.558959 
L 316.210204 45.394591 
L 319.716404 46.498282 
L 323.222604 48.2682 
L 326.728804 49.557538 
L 330.235003 49.007007 
L 333.741203 50.459253 
L 337.247403 58.930703 
L 340.753603 62.925789 
L 344.259802 61.657575 
L 347.766002 61.210605 
L 351.272202 58.520181 
L 354.778401 60.939876 
L 358.284601 62.379045 
L 365.297001 57.786132 
L 368.8032 64.239977 
L 372.3094 61.730149 
L 375.8156 66.407838 
L 379.3218 69.782297 
L 382.827999 72.883646 
L 386.334199 68.591322 
L 389.840399 69.000512 
L 393.346599 65.146926 
L 396.852798 69.418546 
L 400.358998 61.210579 
L 403.865198 60.973194 
L 407.371397 54.99327 
L 410.877597 55.846167 
L 414.383797 57.999129 
L 417.889997 57.660287 
L 421.396196 60.342619 
L 424.902396 62.174754 
L 428.408596 58.891358 
L 431.914796 61.090112 
L 435.420995 64.447339 
L 438.927195 62.622476 
L 442.433395 64.270117 
L 445.939595 61.196407 
L 449.445794 65.129941 
L 452.951994 64.976865 
L 456.458194 66.330791 
L 459.964393 64.154792 
L 463.470593 63.217718 
L 466.976793 54.908193 
L 470.482993 51.681627 
L 473.989192 48.95923 
L 477.495392 53.00183 
L 481.001592 55.985316 
L 484.507792 55.778873 
L 488.013991 58.1605 
L 491.520191 62.419469 
L 495.026391 65.777325 
L 498.53259 69.813881 
L 502.03879 72.37305 
L 505.54499 65.827052 
L 509.05119 65.123065 
L 512.557389 66.080625 
L 516.063589 69.738076 
L 519.569789 66.666926 
L 523.075989 68.112765 
L 526.582188 65.253182 
L 530.088388 70.061786 
L 533.594588 71.918611 
L 537.100788 70.679774 
L 540.606987 68.220345 
L 544.113187 71.082695 
L 547.619387 64.137525 
L 551.125586 59.831925 
L 554.631786 56.091166 
L 558.137986 54.029714 
L 561.644186 57.179709 
L 565.150385 59.706253 
L 568.656585 53.978395 
L 572.162785 53.82989 
L 575.668985 56.53303 
L 579.175184 56.988998 
L 582.681384 59.537515 
L 586.187584 53.389214 
L 589.693784 51.215376 
L 593.199983 54.800639 
L 596.706183 53.820367 
L 600.212383 51.501811 
L 603.718582 52.345654 
L 607.224782 52.214412 
L 610.730982 51.491075 
L 614.237182 50.976401 
L 617.743381 49.496728 
L 621.249581 52.334037 
L 624.755781 53.327114 
L 628.261981 52.872828 
L 631.76818 48.716067 
L 631.76818 48.716067 
" style="fill:none;stroke:#00bfbf;stroke-linecap:square;stroke-width:1.2;"/>
   </g>
   <g id="patch_3">
    <path d="M 112.5 324 
L 112.5 36 
" style="fill:none;stroke:#000000;stroke-linecap:square;stroke-linejoin:miter;"/>
   </g>
   <g id="patch_4">
    <path d="M 635.625 324 
L 635.625 36 
" style="fill:none;stroke:#000000;stroke-linecap:square;stroke-linejoin:miter;"/>
   </g>
   <g id="patch_5">
    <path d="M 112.5 324 
L 635.625 324 
" style="fill:none;stroke:#000000;stroke-linecap:square;stroke-linejoin:miter;"/>
   </g>
   <g id="patch_6">
    <path d="M 112.5 36 
L 635.625 36 
" style="fill:none;stroke:#000000;stroke-linecap:square;stroke-linejoin:miter;"/>
   </g>
   <g id="matplotlib.axis_1">
    <g id="xtick_1">
     <g id="line2d_5">
      <defs>
       <path d="M 0 0 
L 0 -4 
" id="m1a9a96cd35" style="stroke:#000000;stroke-width:0.5;"/>
      </defs>
      <g>
       <use style="stroke:#000000;stroke-width:0.5;" x="112.85062" xlink:href="#m1a9a96cd35" y="324"/>
      </g>
     </g>
     <g id="line2d_6">
      <defs>
       <path d="M 0 0 
L 0 4 
" id="m606c5aad67" style="stroke:#000000;stroke-width:0.5;"/>
      </defs>
      <g>
       <use style="stroke:#000000;stroke-width:0.5;" x="112.85062" xlink:href="#m606c5aad67" y="36"/>
      </g>
     </g>
     <g id="text_1">
      <!-- 0 -->
      <defs>
       <path d="M 31.78125 66.40625 
Q 24.171875 66.40625 20.328125 58.90625 
Q 16.5 51.421875 16.5 36.375 
Q 16.5 21.390625 20.328125 13.890625 
Q 24.171875 6.390625 31.78125 6.390625 
Q 39.453125 6.390625 43.28125 13.890625 
Q 47.125 21.390625 47.125 36.375 
Q 47.125 51.421875 43.28125 58.90625 
Q 39.453125 66.40625 31.78125 66.40625 
z
M 31.78125 74.21875 
Q 44.046875 74.21875 50.515625 64.515625 
Q 56.984375 54.828125 56.984375 36.375 
Q 56.984375 17.96875 50.515625 8.265625 
Q 44.046875 -1.421875 31.78125 -1.421875 
Q 19.53125 -1.421875 13.0625 8.265625 
Q 6.59375 17.96875 6.59375 36.375 
Q 6.59375 54.828125 13.0625 64.515625 
Q 19.53125 74.21875 31.78125 74.21875 
z
" id="DejaVuSans-48"/>
      </defs>
      <g transform="translate(109.03312 337.118125)scale(0.12 -0.12)">
       <use xlink:href="#DejaVuSans-48"/>
      </g>
     </g>
    </g>
    <g id="xtick_2">
     <g id="line2d_7">
      <g>
       <use style="stroke:#000000;stroke-width:0.5;" x="165.443616" xlink:href="#m1a9a96cd35" y="324"/>
      </g>
     </g>
     <g id="line2d_8">
      <g>
       <use style="stroke:#000000;stroke-width:0.5;" x="165.443616" xlink:href="#m606c5aad67" y="36"/>
      </g>
     </g>
     <g id="text_2">
      <!-- 15 -->
      <defs>
       <path d="M 12.40625 8.296875 
L 28.515625 8.296875 
L 28.515625 63.921875 
L 10.984375 60.40625 
L 10.984375 69.390625 
L 28.421875 72.90625 
L 38.28125 72.90625 
L 38.28125 8.296875 
L 54.390625 8.296875 
L 54.390625 0 
L 12.40625 0 
z
" id="DejaVuSans-49"/>
       <path d="M 10.796875 72.90625 
L 49.515625 72.90625 
L 49.515625 64.59375 
L 19.828125 64.59375 
L 19.828125 46.734375 
Q 21.96875 47.46875 24.109375 47.828125 
Q 26.265625 48.1875 28.421875 48.1875 
Q 40.625 48.1875 47.75 41.5 
Q 54.890625 34.8125 54.890625 23.390625 
Q 54.890625 11.625 47.5625 5.09375 
Q 40.234375 -1.421875 26.90625 -1.421875 
Q 22.3125 -1.421875 17.546875 -0.640625 
Q 12.796875 0.140625 7.71875 1.703125 
L 7.71875 11.625 
Q 12.109375 9.234375 16.796875 8.0625 
Q 21.484375 6.890625 26.703125 6.890625 
Q 35.15625 6.890625 40.078125 11.328125 
Q 45.015625 15.765625 45.015625 23.390625 
Q 45.015625 31 40.078125 35.4375 
Q 35.15625 39.890625 26.703125 39.890625 
Q 22.75 39.890625 18.8125 39.015625 
Q 14.890625 38.140625 10.796875 36.28125 
z
" id="DejaVuSans-53"/>
      </defs>
      <g transform="translate(157.808616 337.118125)scale(0.12 -0.12)">
       <use xlink:href="#DejaVuSans-49"/>
       <use x="63.623047" xlink:href="#DejaVuSans-53"/>
      </g>
     </g>
    </g>
    <g id="xtick_3">
     <g id="line2d_9">
      <g>
       <use style="stroke:#000000;stroke-width:0.5;" x="218.036612" xlink:href="#m1a9a96cd35" y="324"/>
      </g>
     </g>
     <g id="line2d_10">
      <g>
       <use style="stroke:#000000;stroke-width:0.5;" x="218.036612" xlink:href="#m606c5aad67" y="36"/>
      </g>
     </g>
     <g id="text_3">
      <!-- 30 -->
      <defs>
       <path d="M 40.578125 39.3125 
Q 47.65625 37.796875 51.625 33 
Q 55.609375 28.21875 55.609375 21.1875 
Q 55.609375 10.40625 48.1875 4.484375 
Q 40.765625 -1.421875 27.09375 -1.421875 
Q 22.515625 -1.421875 17.65625 -0.515625 
Q 12.796875 0.390625 7.625 2.203125 
L 7.625 11.71875 
Q 11.71875 9.328125 16.59375 8.109375 
Q 21.484375 6.890625 26.8125 6.890625 
Q 36.078125 6.890625 40.9375 10.546875 
Q 45.796875 14.203125 45.796875 21.1875 
Q 45.796875 27.640625 41.28125 31.265625 
Q 36.765625 34.90625 28.71875 34.90625 
L 20.21875 34.90625 
L 20.21875 43.015625 
L 29.109375 43.015625 
Q 36.375 43.015625 40.234375 45.921875 
Q 44.09375 48.828125 44.09375 54.296875 
Q 44.09375 59.90625 40.109375 62.90625 
Q 36.140625 65.921875 28.71875 65.921875 
Q 24.65625 65.921875 20.015625 65.03125 
Q 15.375 64.15625 9.8125 62.3125 
L 9.8125 71.09375 
Q 15.4375 72.65625 20.34375 73.4375 
Q 25.25 74.21875 29.59375 74.21875 
Q 40.828125 74.21875 47.359375 69.109375 
Q 53.90625 64.015625 53.90625 55.328125 
Q 53.90625 49.265625 50.4375 45.09375 
Q 46.96875 40.921875 40.578125 39.3125 
z
" id="DejaVuSans-51"/>
      </defs>
      <g transform="translate(210.401612 337.118125)scale(0.12 -0.12)">
       <use xlink:href="#DejaVuSans-51"/>
       <use x="63.623047" xlink:href="#DejaVuSans-48"/>
      </g>
     </g>
    </g>
    <g id="xtick_4">
     <g id="line2d_11">
      <g>
       <use style="stroke:#000000;stroke-width:0.5;" x="270.629608" xlink:href="#m1a9a96cd35" y="324"/>
      </g>
     </g>
     <g id="line2d_12">
      <g>
       <use style="stroke:#000000;stroke-width:0.5;" x="270.629608" xlink:href="#m606c5aad67" y="36"/>
      </g>
     </g>
     <g id="text_4">
      <!-- 45 -->
      <defs>
       <path d="M 37.796875 64.3125 
L 12.890625 25.390625 
L 37.796875 25.390625 
z
M 35.203125 72.90625 
L 47.609375 72.90625 
L 47.609375 25.390625 
L 58.015625 25.390625 
L 58.015625 17.1875 
L 47.609375 17.1875 
L 47.609375 0 
L 37.796875 0 
L 37.796875 17.1875 
L 4.890625 17.1875 
L 4.890625 26.703125 
z
" id="DejaVuSans-52"/>
      </defs>
      <g transform="translate(262.994608 337.118125)scale(0.12 -0.12)">
       <use xlink:href="#DejaVuSans-52"/>
       <use x="63.623047" xlink:href="#DejaVuSans-53"/>
      </g>
     </g>
    </g>
    <g id="xtick_5">
     <g id="line2d_13">
      <g>
       <use style="stroke:#000000;stroke-width:0.5;" x="323.222604" xlink:href="#m1a9a96cd35" y="324"/>
      </g>
     </g>
     <g id="line2d_14">
      <g>
       <use style="stroke:#000000;stroke-width:0.5;" x="323.222604" xlink:href="#m606c5aad67" y="36"/>
      </g>
     </g>
     <g id="text_5">
      <!-- 60 -->
      <defs>
       <path d="M 33.015625 40.375 
Q 26.375 40.375 22.484375 35.828125 
Q 18.609375 31.296875 18.609375 23.390625 
Q 18.609375 15.53125 22.484375 10.953125 
Q 26.375 6.390625 33.015625 6.390625 
Q 39.65625 6.390625 43.53125 10.953125 
Q 47.40625 15.53125 47.40625 23.390625 
Q 47.40625 31.296875 43.53125 35.828125 
Q 39.65625 40.375 33.015625 40.375 
z
M 52.59375 71.296875 
L 52.59375 62.3125 
Q 48.875 64.0625 45.09375 64.984375 
Q 41.3125 65.921875 37.59375 65.921875 
Q 27.828125 65.921875 22.671875 59.328125 
Q 17.53125 52.734375 16.796875 39.40625 
Q 19.671875 43.65625 24.015625 45.921875 
Q 28.375 48.1875 33.59375 48.1875 
Q 44.578125 48.1875 50.953125 41.515625 
Q 57.328125 34.859375 57.328125 23.390625 
Q 57.328125 12.15625 50.6875 5.359375 
Q 44.046875 -1.421875 33.015625 -1.421875 
Q 20.359375 -1.421875 13.671875 8.265625 
Q 6.984375 17.96875 6.984375 36.375 
Q 6.984375 53.65625 15.1875 63.9375 
Q 23.390625 74.21875 37.203125 74.21875 
Q 40.921875 74.21875 44.703125 73.484375 
Q 48.484375 72.75 52.59375 71.296875 
z
" id="DejaVuSans-54"/>
      </defs>
      <g transform="translate(315.587604 337.118125)scale(0.12 -0.12)">
       <use xlink:href="#DejaVuSans-54"/>
       <use x="63.623047" xlink:href="#DejaVuSans-48"/>
      </g>
     </g>
    </g>
    <g id="xtick_6">
     <g id="line2d_15">
      <g>
       <use style="stroke:#000000;stroke-width:0.5;" x="375.8156" xlink:href="#m1a9a96cd35" y="324"/>
      </g>
     </g>
     <g id="line2d_16">
      <g>
       <use style="stroke:#000000;stroke-width:0.5;" x="375.8156" xlink:href="#m606c5aad67" y="36"/>
      </g>
     </g>
     <g id="text_6">
      <!-- 75 -->
      <defs>
       <path d="M 8.203125 72.90625 
L 55.078125 72.90625 
L 55.078125 68.703125 
L 28.609375 0 
L 18.3125 0 
L 43.21875 64.59375 
L 8.203125 64.59375 
z
" id="DejaVuSans-55"/>
      </defs>
      <g transform="translate(368.1806 337.118125)scale(0.12 -0.12)">
       <use xlink:href="#DejaVuSans-55"/>
       <use x="63.623047" xlink:href="#DejaVuSans-53"/>
      </g>
     </g>
    </g>
    <g id="xtick_7">
     <g id="line2d_17">
      <g>
       <use style="stroke:#000000;stroke-width:0.5;" x="428.408596" xlink:href="#m1a9a96cd35" y="324"/>
      </g>
     </g>
     <g id="line2d_18">
      <g>
       <use style="stroke:#000000;stroke-width:0.5;" x="428.408596" xlink:href="#m606c5aad67" y="36"/>
      </g>
     </g>
     <g id="text_7">
      <!-- 90 -->
      <defs>
       <path d="M 10.984375 1.515625 
L 10.984375 10.5 
Q 14.703125 8.734375 18.5 7.8125 
Q 22.3125 6.890625 25.984375 6.890625 
Q 35.75 6.890625 40.890625 13.453125 
Q 46.046875 20.015625 46.78125 33.40625 
Q 43.953125 29.203125 39.59375 26.953125 
Q 35.25 24.703125 29.984375 24.703125 
Q 19.046875 24.703125 12.671875 31.3125 
Q 6.296875 37.9375 6.296875 49.421875 
Q 6.296875 60.640625 12.9375 67.421875 
Q 19.578125 74.21875 30.609375 74.21875 
Q 43.265625 74.21875 49.921875 64.515625 
Q 56.59375 54.828125 56.59375 36.375 
Q 56.59375 19.140625 48.40625 8.859375 
Q 40.234375 -1.421875 26.421875 -1.421875 
Q 22.703125 -1.421875 18.890625 -0.6875 
Q 15.09375 0.046875 10.984375 1.515625 
z
M 30.609375 32.421875 
Q 37.25 32.421875 41.125 36.953125 
Q 45.015625 41.5 45.015625 49.421875 
Q 45.015625 57.28125 41.125 61.84375 
Q 37.25 66.40625 30.609375 66.40625 
Q 23.96875 66.40625 20.09375 61.84375 
Q 16.21875 57.28125 16.21875 49.421875 
Q 16.21875 41.5 20.09375 36.953125 
Q 23.96875 32.421875 30.609375 32.421875 
z
" id="DejaVuSans-57"/>
      </defs>
      <g transform="translate(420.773596 337.118125)scale(0.12 -0.12)">
       <use xlink:href="#DejaVuSans-57"/>
       <use x="63.623047" xlink:href="#DejaVuSans-48"/>
      </g>
     </g>
    </g>
    <g id="xtick_8">
     <g id="line2d_19">
      <g>
       <use style="stroke:#000000;stroke-width:0.5;" x="481.001592" xlink:href="#m1a9a96cd35" y="324"/>
      </g>
     </g>
     <g id="line2d_20">
      <g>
       <use style="stroke:#000000;stroke-width:0.5;" x="481.001592" xlink:href="#m606c5aad67" y="36"/>
      </g>
     </g>
     <g id="text_8">
      <!-- 105 -->
      <g transform="translate(469.549092 337.118125)scale(0.12 -0.12)">
       <use xlink:href="#DejaVuSans-49"/>
       <use x="63.623047" xlink:href="#DejaVuSans-48"/>
       <use x="127.246094" xlink:href="#DejaVuSans-53"/>
      </g>
     </g>
    </g>
    <g id="xtick_9">
     <g id="line2d_21">
      <g>
       <use style="stroke:#000000;stroke-width:0.5;" x="533.594588" xlink:href="#m1a9a96cd35" y="324"/>
      </g>
     </g>
     <g id="line2d_22">
      <g>
       <use style="stroke:#000000;stroke-width:0.5;" x="533.594588" xlink:href="#m606c5aad67" y="36"/>
      </g>
     </g>
     <g id="text_9">
      <!-- 120 -->
      <defs>
       <path d="M 19.1875 8.296875 
L 53.609375 8.296875 
L 53.609375 0 
L 7.328125 0 
L 7.328125 8.296875 
Q 12.9375 14.109375 22.625 23.890625 
Q 32.328125 33.6875 34.8125 36.53125 
Q 39.546875 41.84375 41.421875 45.53125 
Q 43.3125 49.21875 43.3125 52.78125 
Q 43.3125 58.59375 39.234375 62.25 
Q 35.15625 65.921875 28.609375 65.921875 
Q 23.96875 65.921875 18.8125 64.3125 
Q 13.671875 62.703125 7.8125 59.421875 
L 7.8125 69.390625 
Q 13.765625 71.78125 18.9375 73 
Q 24.125 74.21875 28.421875 74.21875 
Q 39.75 74.21875 46.484375 68.546875 
Q 53.21875 62.890625 53.21875 53.421875 
Q 53.21875 48.921875 51.53125 44.890625 
Q 49.859375 40.875 45.40625 35.40625 
Q 44.1875 33.984375 37.640625 27.21875 
Q 31.109375 20.453125 19.1875 8.296875 
z
" id="DejaVuSans-50"/>
      </defs>
      <g transform="translate(522.142088 337.118125)scale(0.12 -0.12)">
       <use xlink:href="#DejaVuSans-49"/>
       <use x="63.623047" xlink:href="#DejaVuSans-50"/>
       <use x="127.246094" xlink:href="#DejaVuSans-48"/>
      </g>
     </g>
    </g>
    <g id="xtick_10">
     <g id="line2d_23">
      <g>
       <use style="stroke:#000000;stroke-width:0.5;" x="586.187584" xlink:href="#m1a9a96cd35" y="324"/>
      </g>
     </g>
     <g id="line2d_24">
      <g>
       <use style="stroke:#000000;stroke-width:0.5;" x="586.187584" xlink:href="#m606c5aad67" y="36"/>
      </g>
     </g>
     <g id="text_10">
      <!-- 135 -->
      <g transform="translate(574.735084 337.118125)scale(0.12 -0.12)">
       <use xlink:href="#DejaVuSans-49"/>
       <use x="63.623047" xlink:href="#DejaVuSans-51"/>
       <use x="127.246094" xlink:href="#DejaVuSans-53"/>
      </g>
     </g>
    </g>
    <g id="text_11">
     <!-- generation -->
     <defs>
      <path d="M 45.40625 27.984375 
Q 45.40625 37.75 41.375 43.109375 
Q 37.359375 48.484375 30.078125 48.484375 
Q 22.859375 48.484375 18.828125 43.109375 
Q 14.796875 37.75 14.796875 27.984375 
Q 14.796875 18.265625 18.828125 12.890625 
Q 22.859375 7.515625 30.078125 7.515625 
Q 37.359375 7.515625 41.375 12.890625 
Q 45.40625 18.265625 45.40625 27.984375 
z
M 54.390625 6.78125 
Q 54.390625 -7.171875 48.1875 -13.984375 
Q 42 -20.796875 29.203125 -20.796875 
Q 24.46875 -20.796875 20.265625 -20.09375 
Q 16.0625 -19.390625 12.109375 -17.921875 
L 12.109375 -9.1875 
Q 16.0625 -11.328125 19.921875 -12.34375 
Q 23.78125 -13.375 27.78125 -13.375 
Q 36.625 -13.375 41.015625 -8.765625 
Q 45.40625 -4.15625 45.40625 5.171875 
L 45.40625 9.625 
Q 42.625 4.78125 38.28125 2.390625 
Q 33.9375 0 27.875 0 
Q 17.828125 0 11.671875 7.65625 
Q 5.515625 15.328125 5.515625 27.984375 
Q 5.515625 40.671875 11.671875 48.328125 
Q 17.828125 56 27.875 56 
Q 33.9375 56 38.28125 53.609375 
Q 42.625 51.21875 45.40625 46.390625 
L 45.40625 54.6875 
L 54.390625 54.6875 
z
" id="DejaVuSans-103"/>
      <path d="M 56.203125 29.59375 
L 56.203125 25.203125 
L 14.890625 25.203125 
Q 15.484375 15.921875 20.484375 11.0625 
Q 25.484375 6.203125 34.421875 6.203125 
Q 39.59375 6.203125 44.453125 7.46875 
Q 49.3125 8.734375 54.109375 11.28125 
L 54.109375 2.78125 
Q 49.265625 0.734375 44.1875 -0.34375 
Q 39.109375 -1.421875 33.890625 -1.421875 
Q 20.796875 -1.421875 13.15625 6.1875 
Q 5.515625 13.8125 5.515625 26.8125 
Q 5.515625 40.234375 12.765625 48.109375 
Q 20.015625 56 32.328125 56 
Q 43.359375 56 49.78125 48.890625 
Q 56.203125 41.796875 56.203125 29.59375 
z
M 47.21875 32.234375 
Q 47.125 39.59375 43.09375 43.984375 
Q 39.0625 48.390625 32.421875 48.390625 
Q 24.90625 48.390625 20.390625 44.140625 
Q 15.875 39.890625 15.1875 32.171875 
z
" id="DejaVuSans-101"/>
      <path d="M 54.890625 33.015625 
L 54.890625 0 
L 45.90625 0 
L 45.90625 32.71875 
Q 45.90625 40.484375 42.875 44.328125 
Q 39.84375 48.1875 33.796875 48.1875 
Q 26.515625 48.1875 22.3125 43.546875 
Q 18.109375 38.921875 18.109375 30.90625 
L 18.109375 0 
L 9.078125 0 
L 9.078125 54.6875 
L 18.109375 54.6875 
L 18.109375 46.1875 
Q 21.34375 51.125 25.703125 53.5625 
Q 30.078125 56 35.796875 56 
Q 45.21875 56 50.046875 50.171875 
Q 54.890625 44.34375 54.890625 33.015625 
z
" id="DejaVuSans-110"/>
      <path d="M 41.109375 46.296875 
Q 39.59375 47.171875 37.8125 47.578125 
Q 36.03125 48 33.890625 48 
Q 26.265625 48 22.1875 43.046875 
Q 18.109375 38.09375 18.109375 28.8125 
L 18.109375 0 
L 9.078125 0 
L 9.078125 54.6875 
L 18.109375 54.6875 
L 18.109375 46.1875 
Q 20.953125 51.171875 25.484375 53.578125 
Q 30.03125 56 36.53125 56 
Q 37.453125 56 38.578125 55.875 
Q 39.703125 55.765625 41.0625 55.515625 
z
" id="DejaVuSans-114"/>
      <path d="M 34.28125 27.484375 
Q 23.390625 27.484375 19.1875 25 
Q 14.984375 22.515625 14.984375 16.5 
Q 14.984375 11.71875 18.140625 8.90625 
Q 21.296875 6.109375 26.703125 6.109375 
Q 34.1875 6.109375 38.703125 11.40625 
Q 43.21875 16.703125 43.21875 25.484375 
L 43.21875 27.484375 
z
M 52.203125 31.203125 
L 52.203125 0 
L 43.21875 0 
L 43.21875 8.296875 
Q 40.140625 3.328125 35.546875 0.953125 
Q 30.953125 -1.421875 24.3125 -1.421875 
Q 15.921875 -1.421875 10.953125 3.296875 
Q 6 8.015625 6 15.921875 
Q 6 25.140625 12.171875 29.828125 
Q 18.359375 34.515625 30.609375 34.515625 
L 43.21875 34.515625 
L 43.21875 35.40625 
Q 43.21875 41.609375 39.140625 45 
Q 35.0625 48.390625 27.6875 48.390625 
Q 23 48.390625 18.546875 47.265625 
Q 14.109375 46.140625 10.015625 43.890625 
L 10.015625 52.203125 
Q 14.9375 54.109375 19.578125 55.046875 
Q 24.21875 56 28.609375 56 
Q 40.484375 56 46.34375 49.84375 
Q 52.203125 43.703125 52.203125 31.203125 
z
" id="DejaVuSans-97"/>
      <path d="M 18.3125 70.21875 
L 18.3125 54.6875 
L 36.8125 54.6875 
L 36.8125 47.703125 
L 18.3125 47.703125 
L 18.3125 18.015625 
Q 18.3125 11.328125 20.140625 9.421875 
Q 21.96875 7.515625 27.59375 7.515625 
L 36.8125 7.515625 
L 36.8125 0 
L 27.59375 0 
Q 17.1875 0 13.234375 3.875 
Q 9.28125 7.765625 9.28125 18.015625 
L 9.28125 47.703125 
L 2.6875 47.703125 
L 2.6875 54.6875 
L 9.28125 54.6875 
L 9.28125 70.21875 
z
" id="DejaVuSans-116"/>
      <path d="M 9.421875 54.6875 
L 18.40625 54.6875 
L 18.40625 0 
L 9.421875 0 
z
M 9.421875 75.984375 
L 18.40625 75.984375 
L 18.40625 64.59375 
L 9.421875 64.59375 
z
" id="DejaVuSans-105"/>
      <path d="M 30.609375 48.390625 
Q 23.390625 48.390625 19.1875 42.75 
Q 14.984375 37.109375 14.984375 27.296875 
Q 14.984375 17.484375 19.15625 11.84375 
Q 23.34375 6.203125 30.609375 6.203125 
Q 37.796875 6.203125 41.984375 11.859375 
Q 46.1875 17.53125 46.1875 27.296875 
Q 46.1875 37.015625 41.984375 42.703125 
Q 37.796875 48.390625 30.609375 48.390625 
z
M 30.609375 56 
Q 42.328125 56 49.015625 48.375 
Q 55.71875 40.765625 55.71875 27.296875 
Q 55.71875 13.875 49.015625 6.21875 
Q 42.328125 -1.421875 30.609375 -1.421875 
Q 18.84375 -1.421875 12.171875 6.21875 
Q 5.515625 13.875 5.515625 27.296875 
Q 5.515625 40.765625 12.171875 48.375 
Q 18.84375 56 30.609375 56 
z
" id="DejaVuSans-111"/>
     </defs>
     <g transform="translate(341.430938 353.731875)scale(0.12 -0.12)">
      <use xlink:href="#DejaVuSans-103"/>
      <use x="63.476562" xlink:href="#DejaVuSans-101"/>
      <use x="125" xlink:href="#DejaVuSans-110"/>
      <use x="188.378906" xlink:href="#DejaVuSans-101"/>
      <use x="249.902344" xlink:href="#DejaVuSans-114"/>
      <use x="291.015625" xlink:href="#DejaVuSans-97"/>
      <use x="352.294922" xlink:href="#DejaVuSans-116"/>
      <use x="391.503906" xlink:href="#DejaVuSans-105"/>
      <use x="419.287109" xlink:href="#DejaVuSans-111"/>
      <use x="480.46875" xlink:href="#DejaVuSans-110"/>
     </g>
    </g>
   </g>
   <g id="matplotlib.axis_2">
    <g id="ytick_1">
     <g id="line2d_25">
      <defs>
       <path d="M 0 0 
L 4 0 
" id="m14f366afa3" style="stroke:#000000;stroke-width:0.5;"/>
      </defs>
      <g>
       <use style="stroke:#000000;stroke-width:0.5;" x="112.5" xlink:href="#m14f366afa3" y="324"/>
      </g>
     </g>
     <g id="line2d_26">
      <defs>
       <path d="M 0 0 
L -4 0 
" id="m868bb3a9bc" style="stroke:#000000;stroke-width:0.5;"/>
      </defs>
      <g>
       <use style="stroke:#000000;stroke-width:0.5;" x="635.625" xlink:href="#m868bb3a9bc" y="324"/>
      </g>
     </g>
     <g id="text_12">
      <!-- 0.910 -->
      <defs>
       <path d="M 10.6875 12.40625 
L 21 12.40625 
L 21 0 
L 10.6875 0 
z
" id="DejaVuSans-46"/>
      </defs>
      <g transform="translate(74.14625 327.31125)scale(0.12 -0.12)">
       <use xlink:href="#DejaVuSans-48"/>
       <use x="63.623047" xlink:href="#DejaVuSans-46"/>
       <use x="95.410156" xlink:href="#DejaVuSans-57"/>
       <use x="159.033203" xlink:href="#DejaVuSans-49"/>
       <use x="222.65625" xlink:href="#DejaVuSans-48"/>
      </g>
     </g>
    </g>
    <g id="ytick_2">
     <g id="line2d_27">
      <g>
       <use style="stroke:#000000;stroke-width:0.5;" x="112.5" xlink:href="#m14f366afa3" y="282.857143"/>
      </g>
     </g>
     <g id="line2d_28">
      <g>
       <use style="stroke:#000000;stroke-width:0.5;" x="635.625" xlink:href="#m868bb3a9bc" y="282.857143"/>
      </g>
     </g>
     <g id="text_13">
      <!-- 0.915 -->
      <g transform="translate(74.14625 286.168393)scale(0.12 -0.12)">
       <use xlink:href="#DejaVuSans-48"/>
       <use x="63.623047" xlink:href="#DejaVuSans-46"/>
       <use x="95.410156" xlink:href="#DejaVuSans-57"/>
       <use x="159.033203" xlink:href="#DejaVuSans-49"/>
       <use x="222.65625" xlink:href="#DejaVuSans-53"/>
      </g>
     </g>
    </g>
    <g id="ytick_3">
     <g id="line2d_29">
      <g>
       <use style="stroke:#000000;stroke-width:0.5;" x="112.5" xlink:href="#m14f366afa3" y="241.714286"/>
      </g>
     </g>
     <g id="line2d_30">
      <g>
       <use style="stroke:#000000;stroke-width:0.5;" x="635.625" xlink:href="#m868bb3a9bc" y="241.714286"/>
      </g>
     </g>
     <g id="text_14">
      <!-- 0.920 -->
      <g transform="translate(74.14625 245.025536)scale(0.12 -0.12)">
       <use xlink:href="#DejaVuSans-48"/>
       <use x="63.623047" xlink:href="#DejaVuSans-46"/>
       <use x="95.410156" xlink:href="#DejaVuSans-57"/>
       <use x="159.033203" xlink:href="#DejaVuSans-50"/>
       <use x="222.65625" xlink:href="#DejaVuSans-48"/>
      </g>
     </g>
    </g>
    <g id="ytick_4">
     <g id="line2d_31">
      <g>
       <use style="stroke:#000000;stroke-width:0.5;" x="112.5" xlink:href="#m14f366afa3" y="200.571429"/>
      </g>
     </g>
     <g id="line2d_32">
      <g>
       <use style="stroke:#000000;stroke-width:0.5;" x="635.625" xlink:href="#m868bb3a9bc" y="200.571429"/>
      </g>
     </g>
     <g id="text_15">
      <!-- 0.925 -->
      <g transform="translate(74.14625 203.882679)scale(0.12 -0.12)">
       <use xlink:href="#DejaVuSans-48"/>
       <use x="63.623047" xlink:href="#DejaVuSans-46"/>
       <use x="95.410156" xlink:href="#DejaVuSans-57"/>
       <use x="159.033203" xlink:href="#DejaVuSans-50"/>
       <use x="222.65625" xlink:href="#DejaVuSans-53"/>
      </g>
     </g>
    </g>
    <g id="ytick_5">
     <g id="line2d_33">
      <g>
       <use style="stroke:#000000;stroke-width:0.5;" x="112.5" xlink:href="#m14f366afa3" y="159.428571"/>
      </g>
     </g>
     <g id="line2d_34">
      <g>
       <use style="stroke:#000000;stroke-width:0.5;" x="635.625" xlink:href="#m868bb3a9bc" y="159.428571"/>
      </g>
     </g>
     <g id="text_16">
      <!-- 0.930 -->
      <g transform="translate(74.14625 162.739821)scale(0.12 -0.12)">
       <use xlink:href="#DejaVuSans-48"/>
       <use x="63.623047" xlink:href="#DejaVuSans-46"/>
       <use x="95.410156" xlink:href="#DejaVuSans-57"/>
       <use x="159.033203" xlink:href="#DejaVuSans-51"/>
       <use x="222.65625" xlink:href="#DejaVuSans-48"/>
      </g>
     </g>
    </g>
    <g id="ytick_6">
     <g id="line2d_35">
      <g>
       <use style="stroke:#000000;stroke-width:0.5;" x="112.5" xlink:href="#m14f366afa3" y="118.285714"/>
      </g>
     </g>
     <g id="line2d_36">
      <g>
       <use style="stroke:#000000;stroke-width:0.5;" x="635.625" xlink:href="#m868bb3a9bc" y="118.285714"/>
      </g>
     </g>
     <g id="text_17">
      <!-- 0.935 -->
      <g transform="translate(74.14625 121.596964)scale(0.12 -0.12)">
       <use xlink:href="#DejaVuSans-48"/>
       <use x="63.623047" xlink:href="#DejaVuSans-46"/>
       <use x="95.410156" xlink:href="#DejaVuSans-57"/>
       <use x="159.033203" xlink:href="#DejaVuSans-51"/>
       <use x="222.65625" xlink:href="#DejaVuSans-53"/>
      </g>
     </g>
    </g>
    <g id="ytick_7">
     <g id="line2d_37">
      <g>
       <use style="stroke:#000000;stroke-width:0.5;" x="112.5" xlink:href="#m14f366afa3" y="77.142857"/>
      </g>
     </g>
     <g id="line2d_38">
      <g>
       <use style="stroke:#000000;stroke-width:0.5;" x="635.625" xlink:href="#m868bb3a9bc" y="77.142857"/>
      </g>
     </g>
     <g id="text_18">
      <!-- 0.940 -->
      <g transform="translate(74.14625 80.454107)scale(0.12 -0.12)">
       <use xlink:href="#DejaVuSans-48"/>
       <use x="63.623047" xlink:href="#DejaVuSans-46"/>
       <use x="95.410156" xlink:href="#DejaVuSans-57"/>
       <use x="159.033203" xlink:href="#DejaVuSans-52"/>
       <use x="222.65625" xlink:href="#DejaVuSans-48"/>
      </g>
     </g>
    </g>
    <g id="ytick_8">
     <g id="line2d_39">
      <g>
       <use style="stroke:#000000;stroke-width:0.5;" x="112.5" xlink:href="#m14f366afa3" y="36"/>
      </g>
     </g>
     <g id="line2d_40">
      <g>
       <use style="stroke:#000000;stroke-width:0.5;" x="635.625" xlink:href="#m868bb3a9bc" y="36"/>
      </g>
     </g>
     <g id="text_19">
      <!-- 0.945 -->
      <g transform="translate(74.14625 39.31125)scale(0.12 -0.12)">
       <use xlink:href="#DejaVuSans-48"/>
       <use x="63.623047" xlink:href="#DejaVuSans-46"/>
       <use x="95.410156" xlink:href="#DejaVuSans-57"/>
       <use x="159.033203" xlink:href="#DejaVuSans-52"/>
       <use x="222.65625" xlink:href="#DejaVuSans-53"/>
      </g>
     </g>
    </g>
    <g id="text_20">
     <!-- accuracy -->
     <defs>
      <path d="M 48.78125 52.59375 
L 48.78125 44.1875 
Q 44.96875 46.296875 41.140625 47.34375 
Q 37.3125 48.390625 33.40625 48.390625 
Q 24.65625 48.390625 19.8125 42.84375 
Q 14.984375 37.3125 14.984375 27.296875 
Q 14.984375 17.28125 19.8125 11.734375 
Q 24.65625 6.203125 33.40625 6.203125 
Q 37.3125 6.203125 41.140625 7.25 
Q 44.96875 8.296875 48.78125 10.40625 
L 48.78125 2.09375 
Q 45.015625 0.34375 40.984375 -0.53125 
Q 36.96875 -1.421875 32.421875 -1.421875 
Q 20.0625 -1.421875 12.78125 6.34375 
Q 5.515625 14.109375 5.515625 27.296875 
Q 5.515625 40.671875 12.859375 48.328125 
Q 20.21875 56 33.015625 56 
Q 37.15625 56 41.109375 55.140625 
Q 45.0625 54.296875 48.78125 52.59375 
z
" id="DejaVuSans-99"/>
      <path d="M 8.5 21.578125 
L 8.5 54.6875 
L 17.484375 54.6875 
L 17.484375 21.921875 
Q 17.484375 14.15625 20.5 10.265625 
Q 23.53125 6.390625 29.59375 6.390625 
Q 36.859375 6.390625 41.078125 11.03125 
Q 45.3125 15.671875 45.3125 23.6875 
L 45.3125 54.6875 
L 54.296875 54.6875 
L 54.296875 0 
L 45.3125 0 
L 45.3125 8.40625 
Q 42.046875 3.421875 37.71875 1 
Q 33.40625 -1.421875 27.6875 -1.421875 
Q 18.265625 -1.421875 13.375 4.4375 
Q 8.5 10.296875 8.5 21.578125 
z
M 31.109375 56 
z
" id="DejaVuSans-117"/>
      <path d="M 32.171875 -5.078125 
Q 28.375 -14.84375 24.75 -17.8125 
Q 21.140625 -20.796875 15.09375 -20.796875 
L 7.90625 -20.796875 
L 7.90625 -13.28125 
L 13.1875 -13.28125 
Q 16.890625 -13.28125 18.9375 -11.515625 
Q 21 -9.765625 23.484375 -3.21875 
L 25.09375 0.875 
L 2.984375 54.6875 
L 12.5 54.6875 
L 29.59375 11.921875 
L 46.6875 54.6875 
L 56.203125 54.6875 
z
" id="DejaVuSans-121"/>
     </defs>
     <g transform="translate(66.650625 207.07125)rotate(-90)scale(0.12 -0.12)">
      <use xlink:href="#DejaVuSans-97"/>
      <use x="61.279297" xlink:href="#DejaVuSans-99"/>
      <use x="116.259766" xlink:href="#DejaVuSans-99"/>
      <use x="171.240234" xlink:href="#DejaVuSans-117"/>
      <use x="234.619141" xlink:href="#DejaVuSans-114"/>
      <use x="275.732422" xlink:href="#DejaVuSans-97"/>
      <use x="337.011719" xlink:href="#DejaVuSans-99"/>
      <use x="391.992188" xlink:href="#DejaVuSans-121"/>
     </g>
    </g>
   </g>
   <g id="legend_1">
    <g id="patch_7">
     <path d="M 640.623 211.399935 
L 806.672179 211.399935 
L 806.672179 148.600065 
L 640.623 148.600065 
z
" style="fill:#ffffff;stroke:#000000;stroke-linejoin:miter;"/>
    </g>
    <g id="line2d_41">
     <path d="M 647.6202 156.695263 
L 661.6146 156.695263 
" style="fill:none;stroke:#0000ff;stroke-linecap:square;stroke-width:1.2;"/>
    </g>
    <g id="line2d_42"/>
    <g id="text_21">
     <!-- Lonely_Los_Overall_Exp_2 -->
     <defs>
      <path d="M 9.8125 72.90625 
L 19.671875 72.90625 
L 19.671875 8.296875 
L 55.171875 8.296875 
L 55.171875 0 
L 9.8125 0 
z
" id="DejaVuSans-76"/>
      <path d="M 9.421875 75.984375 
L 18.40625 75.984375 
L 18.40625 0 
L 9.421875 0 
z
" id="DejaVuSans-108"/>
      <path d="M 50.984375 -16.609375 
L 50.984375 -23.578125 
L -0.984375 -23.578125 
L -0.984375 -16.609375 
z
" id="DejaVuSans-95"/>
      <path d="M 44.28125 53.078125 
L 44.28125 44.578125 
Q 40.484375 46.53125 36.375 47.5 
Q 32.28125 48.484375 27.875 48.484375 
Q 21.1875 48.484375 17.84375 46.4375 
Q 14.5 44.390625 14.5 40.28125 
Q 14.5 37.15625 16.890625 35.375 
Q 19.28125 33.59375 26.515625 31.984375 
L 29.59375 31.296875 
Q 39.15625 29.25 43.1875 25.515625 
Q 47.21875 21.78125 47.21875 15.09375 
Q 47.21875 7.46875 41.1875 3.015625 
Q 35.15625 -1.421875 24.609375 -1.421875 
Q 20.21875 -1.421875 15.453125 -0.5625 
Q 10.6875 0.296875 5.421875 2 
L 5.421875 11.28125 
Q 10.40625 8.6875 15.234375 7.390625 
Q 20.0625 6.109375 24.8125 6.109375 
Q 31.15625 6.109375 34.5625 8.28125 
Q 37.984375 10.453125 37.984375 14.40625 
Q 37.984375 18.0625 35.515625 20.015625 
Q 33.0625 21.96875 24.703125 23.78125 
L 21.578125 24.515625 
Q 13.234375 26.265625 9.515625 29.90625 
Q 5.8125 33.546875 5.8125 39.890625 
Q 5.8125 47.609375 11.28125 51.796875 
Q 16.75 56 26.8125 56 
Q 31.78125 56 36.171875 55.265625 
Q 40.578125 54.546875 44.28125 53.078125 
z
" id="DejaVuSans-115"/>
      <path d="M 39.40625 66.21875 
Q 28.65625 66.21875 22.328125 58.203125 
Q 16.015625 50.203125 16.015625 36.375 
Q 16.015625 22.609375 22.328125 14.59375 
Q 28.65625 6.59375 39.40625 6.59375 
Q 50.140625 6.59375 56.421875 14.59375 
Q 62.703125 22.609375 62.703125 36.375 
Q 62.703125 50.203125 56.421875 58.203125 
Q 50.140625 66.21875 39.40625 66.21875 
z
M 39.40625 74.21875 
Q 54.734375 74.21875 63.90625 63.9375 
Q 73.09375 53.65625 73.09375 36.375 
Q 73.09375 19.140625 63.90625 8.859375 
Q 54.734375 -1.421875 39.40625 -1.421875 
Q 24.03125 -1.421875 14.8125 8.828125 
Q 5.609375 19.09375 5.609375 36.375 
Q 5.609375 53.65625 14.8125 63.9375 
Q 24.03125 74.21875 39.40625 74.21875 
z
" id="DejaVuSans-79"/>
      <path d="M 2.984375 54.6875 
L 12.5 54.6875 
L 29.59375 8.796875 
L 46.6875 54.6875 
L 56.203125 54.6875 
L 35.6875 0 
L 23.484375 0 
z
" id="DejaVuSans-118"/>
      <path d="M 9.8125 72.90625 
L 55.90625 72.90625 
L 55.90625 64.59375 
L 19.671875 64.59375 
L 19.671875 43.015625 
L 54.390625 43.015625 
L 54.390625 34.71875 
L 19.671875 34.71875 
L 19.671875 8.296875 
L 56.78125 8.296875 
L 56.78125 0 
L 9.8125 0 
z
" id="DejaVuSans-69"/>
      <path d="M 54.890625 54.6875 
L 35.109375 28.078125 
L 55.90625 0 
L 45.3125 0 
L 29.390625 21.484375 
L 13.484375 0 
L 2.875 0 
L 24.125 28.609375 
L 4.6875 54.6875 
L 15.28125 54.6875 
L 29.78125 35.203125 
L 44.28125 54.6875 
z
" id="DejaVuSans-120"/>
      <path d="M 18.109375 8.203125 
L 18.109375 -20.796875 
L 9.078125 -20.796875 
L 9.078125 54.6875 
L 18.109375 54.6875 
L 18.109375 46.390625 
Q 20.953125 51.265625 25.265625 53.625 
Q 29.59375 56 35.59375 56 
Q 45.5625 56 51.78125 48.09375 
Q 58.015625 40.1875 58.015625 27.296875 
Q 58.015625 14.40625 51.78125 6.484375 
Q 45.5625 -1.421875 35.59375 -1.421875 
Q 29.59375 -1.421875 25.265625 0.953125 
Q 20.953125 3.328125 18.109375 8.203125 
z
M 48.6875 27.296875 
Q 48.6875 37.203125 44.609375 42.84375 
Q 40.53125 48.484375 33.40625 48.484375 
Q 26.265625 48.484375 22.1875 42.84375 
Q 18.109375 37.203125 18.109375 27.296875 
Q 18.109375 17.390625 22.1875 11.75 
Q 26.265625 6.109375 33.40625 6.109375 
Q 40.53125 6.109375 44.609375 11.75 
Q 48.6875 17.390625 48.6875 27.296875 
z
" id="DejaVuSans-112"/>
     </defs>
     <g transform="translate(672.6102 160.193863)scale(0.09996 -0.09996)">
      <use xlink:href="#DejaVuSans-76"/>
      <use x="53.962891" xlink:href="#DejaVuSans-111"/>
      <use x="115.144531" xlink:href="#DejaVuSans-110"/>
      <use x="178.523438" xlink:href="#DejaVuSans-101"/>
      <use x="240.046875" xlink:href="#DejaVuSans-108"/>
      <use x="267.830078" xlink:href="#DejaVuSans-121"/>
      <use x="327.009766" xlink:href="#DejaVuSans-95"/>
      <use x="377.009766" xlink:href="#DejaVuSans-76"/>
      <use x="430.972656" xlink:href="#DejaVuSans-111"/>
      <use x="492.154297" xlink:href="#DejaVuSans-115"/>
      <use x="544.253906" xlink:href="#DejaVuSans-95"/>
      <use x="594.253906" xlink:href="#DejaVuSans-79"/>
      <use x="672.964844" xlink:href="#DejaVuSans-118"/>
      <use x="732.144531" xlink:href="#DejaVuSans-101"/>
      <use x="793.667969" xlink:href="#DejaVuSans-114"/>
      <use x="834.78125" xlink:href="#DejaVuSans-97"/>
      <use x="896.060547" xlink:href="#DejaVuSans-108"/>
      <use x="923.84375" xlink:href="#DejaVuSans-108"/>
      <use x="951.626953" xlink:href="#DejaVuSans-95"/>
      <use x="1001.626953" xlink:href="#DejaVuSans-69"/>
      <use x="1064.810547" xlink:href="#DejaVuSans-120"/>
      <use x="1123.990234" xlink:href="#DejaVuSans-112"/>
      <use x="1187.466797" xlink:href="#DejaVuSans-95"/>
      <use x="1237.466797" xlink:href="#DejaVuSans-50"/>
     </g>
    </g>
    <g id="line2d_43">
     <path d="M 647.6202 171.645531 
L 661.6146 171.645531 
" style="fill:none;stroke:#008000;stroke-linecap:square;stroke-width:1.2;"/>
    </g>
    <g id="line2d_44"/>
    <g id="text_22">
     <!-- Lonely_Los_Overall_Exp_3 -->
     <g transform="translate(672.6102 175.144131)scale(0.09996 -0.09996)">
      <use xlink:href="#DejaVuSans-76"/>
      <use x="53.962891" xlink:href="#DejaVuSans-111"/>
      <use x="115.144531" xlink:href="#DejaVuSans-110"/>
      <use x="178.523438" xlink:href="#DejaVuSans-101"/>
      <use x="240.046875" xlink:href="#DejaVuSans-108"/>
      <use x="267.830078" xlink:href="#DejaVuSans-121"/>
      <use x="327.009766" xlink:href="#DejaVuSans-95"/>
      <use x="377.009766" xlink:href="#DejaVuSans-76"/>
      <use x="430.972656" xlink:href="#DejaVuSans-111"/>
      <use x="492.154297" xlink:href="#DejaVuSans-115"/>
      <use x="544.253906" xlink:href="#DejaVuSans-95"/>
      <use x="594.253906" xlink:href="#DejaVuSans-79"/>
      <use x="672.964844" xlink:href="#DejaVuSans-118"/>
      <use x="732.144531" xlink:href="#DejaVuSans-101"/>
      <use x="793.667969" xlink:href="#DejaVuSans-114"/>
      <use x="834.78125" xlink:href="#DejaVuSans-97"/>
      <use x="896.060547" xlink:href="#DejaVuSans-108"/>
      <use x="923.84375" xlink:href="#DejaVuSans-108"/>
      <use x="951.626953" xlink:href="#DejaVuSans-95"/>
      <use x="1001.626953" xlink:href="#DejaVuSans-69"/>
      <use x="1064.810547" xlink:href="#DejaVuSans-120"/>
      <use x="1123.990234" xlink:href="#DejaVuSans-112"/>
      <use x="1187.466797" xlink:href="#DejaVuSans-95"/>
      <use x="1237.466797" xlink:href="#DejaVuSans-51"/>
     </g>
    </g>
    <g id="line2d_45">
     <path d="M 647.6202 186.595798 
L 661.6146 186.595798 
" style="fill:none;stroke:#ff0000;stroke-linecap:square;stroke-width:1.2;"/>
    </g>
    <g id="line2d_46"/>
    <g id="text_23">
     <!-- Lonely_Los_Overall_Exp_4 -->
     <g transform="translate(672.6102 190.094398)scale(0.09996 -0.09996)">
      <use xlink:href="#DejaVuSans-76"/>
      <use x="53.962891" xlink:href="#DejaVuSans-111"/>
      <use x="115.144531" xlink:href="#DejaVuSans-110"/>
      <use x="178.523438" xlink:href="#DejaVuSans-101"/>
      <use x="240.046875" xlink:href="#DejaVuSans-108"/>
      <use x="267.830078" xlink:href="#DejaVuSans-121"/>
      <use x="327.009766" xlink:href="#DejaVuSans-95"/>
      <use x="377.009766" xlink:href="#DejaVuSans-76"/>
      <use x="430.972656" xlink:href="#DejaVuSans-111"/>
      <use x="492.154297" xlink:href="#DejaVuSans-115"/>
      <use x="544.253906" xlink:href="#DejaVuSans-95"/>
      <use x="594.253906" xlink:href="#DejaVuSans-79"/>
      <use x="672.964844" xlink:href="#DejaVuSans-118"/>
      <use x="732.144531" xlink:href="#DejaVuSans-101"/>
      <use x="793.667969" xlink:href="#DejaVuSans-114"/>
      <use x="834.78125" xlink:href="#DejaVuSans-97"/>
      <use x="896.060547" xlink:href="#DejaVuSans-108"/>
      <use x="923.84375" xlink:href="#DejaVuSans-108"/>
      <use x="951.626953" xlink:href="#DejaVuSans-95"/>
      <use x="1001.626953" xlink:href="#DejaVuSans-69"/>
      <use x="1064.810547" xlink:href="#DejaVuSans-120"/>
      <use x="1123.990234" xlink:href="#DejaVuSans-112"/>
      <use x="1187.466797" xlink:href="#DejaVuSans-95"/>
      <use x="1237.466797" xlink:href="#DejaVuSans-52"/>
     </g>
    </g>
    <g id="line2d_47">
     <path d="M 647.6202 201.546066 
L 661.6146 201.546066 
" style="fill:none;stroke:#00bfbf;stroke-linecap:square;stroke-width:1.2;"/>
    </g>
    <g id="line2d_48"/>
    <g id="text_24">
     <!-- Lonely_Los_Overall_Exp_5 -->
     <g transform="translate(672.6102 205.044666)scale(0.09996 -0.09996)">
      <use xlink:href="#DejaVuSans-76"/>
      <use x="53.962891" xlink:href="#DejaVuSans-111"/>
      <use x="115.144531" xlink:href="#DejaVuSans-110"/>
      <use x="178.523438" xlink:href="#DejaVuSans-101"/>
      <use x="240.046875" xlink:href="#DejaVuSans-108"/>
      <use x="267.830078" xlink:href="#DejaVuSans-121"/>
      <use x="327.009766" xlink:href="#DejaVuSans-95"/>
      <use x="377.009766" xlink:href="#DejaVuSans-76"/>
      <use x="430.972656" xlink:href="#DejaVuSans-111"/>
      <use x="492.154297" xlink:href="#DejaVuSans-115"/>
      <use x="544.253906" xlink:href="#DejaVuSans-95"/>
      <use x="594.253906" xlink:href="#DejaVuSans-79"/>
      <use x="672.964844" xlink:href="#DejaVuSans-118"/>
      <use x="732.144531" xlink:href="#DejaVuSans-101"/>
      <use x="793.667969" xlink:href="#DejaVuSans-114"/>
      <use x="834.78125" xlink:href="#DejaVuSans-97"/>
      <use x="896.060547" xlink:href="#DejaVuSans-108"/>
      <use x="923.84375" xlink:href="#DejaVuSans-108"/>
      <use x="951.626953" xlink:href="#DejaVuSans-95"/>
      <use x="1001.626953" xlink:href="#DejaVuSans-69"/>
      <use x="1064.810547" xlink:href="#DejaVuSans-120"/>
      <use x="1123.990234" xlink:href="#DejaVuSans-112"/>
      <use x="1187.466797" xlink:href="#DejaVuSans-95"/>
      <use x="1237.466797" xlink:href="#DejaVuSans-53"/>
     </g>
    </g>
   </g>
  </g>
  <g id="text_25">
   <!-- Average Accuracy -->
   <defs>
    <path d="M 34.1875 63.1875 
L 20.796875 26.90625 
L 47.609375 26.90625 
z
M 28.609375 72.90625 
L 39.796875 72.90625 
L 67.578125 0 
L 57.328125 0 
L 50.6875 18.703125 
L 17.828125 18.703125 
L 11.1875 0 
L 0.78125 0 
z
" id="DejaVuSans-65"/>
    <path id="DejaVuSans-32"/>
   </defs>
   <g transform="translate(396.06 16.318125)scale(0.12 -0.12)">
    <use xlink:href="#DejaVuSans-65"/>
    <use x="62.533203" xlink:href="#DejaVuSans-118"/>
    <use x="121.712891" xlink:href="#DejaVuSans-101"/>
    <use x="183.236328" xlink:href="#DejaVuSans-114"/>
    <use x="224.349609" xlink:href="#DejaVuSans-97"/>
    <use x="285.628906" xlink:href="#DejaVuSans-103"/>
    <use x="349.105469" xlink:href="#DejaVuSans-101"/>
    <use x="410.628906" xlink:href="#DejaVuSans-32"/>
    <use x="442.416016" xlink:href="#DejaVuSans-65"/>
    <use x="509.074219" xlink:href="#DejaVuSans-99"/>
    <use x="564.054688" xlink:href="#DejaVuSans-99"/>
    <use x="619.035156" xlink:href="#DejaVuSans-117"/>
    <use x="682.414062" xlink:href="#DejaVuSans-114"/>
    <use x="723.527344" xlink:href="#DejaVuSans-97"/>
    <use x="784.806641" xlink:href="#DejaVuSans-99"/>
    <use x="839.787109" xlink:href="#DejaVuSans-121"/>
   </g>
  </g>
 </g>
 <defs>
  <clipPath id="pfc00c46f51">
   <rect height="288" width="523.125" x="112.5" y="36"/>
  </clipPath>
 </defs>
</svg>
