<?xml version="1.0" encoding="utf-8" standalone="no"?>
<!DOCTYPE svg PUBLIC "-//W3C//DTD SVG 1.1//EN"
  "http://www.w3.org/Graphics/SVG/1.1/DTD/svg11.dtd">
<!-- Created with matplotlib (https://matplotlib.org/) -->
<svg height="360pt" version="1.1" viewBox="0 0 900 360" width="900pt" xmlns="http://www.w3.org/2000/svg" xmlns:xlink="http://www.w3.org/1999/xlink">
 <defs>
  <style type="text/css">
*{stroke-linecap:butt;stroke-linejoin:round;}
  </style>
 </defs>
 <g id="figure_1">
  <g id="patch_1">
   <path d="M 0 360 
L 900 360 
L 900 0 
L 0 0 
z
" style="fill:#ffffff;"/>
  </g>
  <g id="axes_1">
   <g id="patch_2">
    <path d="M 112.5 324 
L 635.625 324 
L 635.625 36 
L 112.5 36 
z
" style="fill:#ffffff;"/>
   </g>
   <g id="line2d_1">
    <path clip-path="url(#pc38b9e1956)" d="M 109.542635 263.657141 
L 112.828596 251.314284 
L 116.114557 256.800001 
L 119.400518 260.914287 
L 122.686479 251.314284 
L 125.97244 249.942857 
L 129.258401 228.000001 
L 132.544362 251.314284 
L 135.830323 266.4 
L 139.116285 259.542856 
L 142.402246 269.142859 
L 145.688207 288.342856 
L 148.974168 265.028573 
L 152.260129 243.085713 
L 155.54609 256.800001 
L 158.832051 241.714286 
L 162.118012 230.742856 
L 165.403973 247.199999 
L 168.689934 238.971427 
L 171.975895 252.685716 
L 175.261856 211.542859 
L 178.547817 243.085713 
L 181.833778 225.257143 
L 185.119739 247.199999 
L 188.4057 245.828571 
L 191.691661 247.199999 
L 194.977622 233.485714 
L 198.263584 230.742856 
L 201.549545 252.685716 
L 204.835506 240.342859 
L 208.121467 222.514284 
L 211.407428 218.399999 
L 214.693389 221.142857 
L 217.97935 225.257143 
L 221.265311 217.028571 
L 224.551272 217.028571 
L 227.837233 210.171427 
L 231.123194 206.057141 
L 234.409155 212.914286 
L 237.695116 226.62857 
L 240.981077 193.714284 
L 244.267038 201.942856 
L 247.552999 204.685714 
L 250.83896 206.057141 
L 254.124921 229.371429 
L 257.410883 184.114286 
L 260.696844 210.171427 
L 263.982805 201.942856 
L 267.268766 195.085716 
L 270.554727 185.485713 
L 273.840688 196.457143 
L 277.126649 206.057141 
L 280.41261 184.114286 
L 283.698571 177.257141 
L 286.984532 181.371427 
L 290.270493 173.142856 
L 293.556454 177.257141 
L 296.842415 166.285716 
L 300.128376 149.828573 
L 303.414337 170.400001 
L 306.700298 162.17143 
L 309.986259 163.542857 
L 313.27222 144.342856 
L 316.558182 169.02857 
L 319.844143 152.571427 
L 323.130104 145.714287 
L 326.416065 166.285716 
L 329.702026 148.457141 
L 332.987987 141.600001 
L 336.273948 140.22857 
L 339.559909 130.628571 
L 342.84587 152.571427 
L 346.131831 126.514286 
L 349.417792 114.171429 
L 352.703753 122.4 
L 355.989714 123.771427 
L 359.275675 126.514286 
L 362.561636 134.742857 
L 365.847597 129.257144 
L 369.133558 131.999999 
L 372.419519 114.171429 
L 375.705481 115.542856 
L 378.991442 107.314284 
L 382.277403 107.314284 
L 385.563364 121.028573 
L 388.849325 115.542856 
L 392.135286 108.685716 
L 395.421247 134.742857 
L 398.707208 152.571427 
L 401.993169 130.628571 
L 405.27913 112.800001 
L 408.565091 105.942857 
L 411.851052 140.22857 
L 415.137013 115.542856 
L 418.422974 125.142859 
L 421.708935 138.857143 
L 424.994896 105.942857 
L 428.280857 122.4 
L 431.566818 115.542856 
L 434.85278 107.314284 
L 438.138741 123.771427 
L 441.424702 123.771427 
L 444.710663 111.42857 
L 447.996624 133.37143 
L 451.282585 96.342859 
L 454.568546 121.028573 
L 457.854507 127.885713 
L 461.140468 121.028573 
L 464.426429 93.6 
L 467.71239 134.742857 
L 470.998351 119.657141 
L 474.284312 96.342859 
L 477.570273 92.228573 
L 480.856234 105.942857 
L 484.142195 107.314284 
L 487.428156 134.742857 
L 490.714117 100.457144 
L 494.000079 116.914287 
L 497.28604 119.657141 
L 500.572001 119.657141 
L 503.857962 112.800001 
L 507.143923 92.228573 
L 510.429884 118.285714 
L 513.715845 116.914287 
L 517.001806 96.342859 
L 520.287767 108.685716 
L 523.573728 112.800001 
L 526.859689 101.828571 
L 530.14565 112.800001 
L 533.431611 99.085713 
L 536.717572 118.285714 
L 540.003533 94.971427 
L 543.289494 141.600001 
L 546.575455 112.800001 
L 549.861416 108.685716 
L 553.147378 114.171429 
L 556.433339 104.57143 
L 559.7193 110.057143 
L 563.005261 147.085714 
L 566.291222 136.114284 
L 572.863144 94.971427 
L 576.149105 93.6 
L 579.435066 116.914287 
L 582.721027 99.085713 
L 586.006988 104.57143 
L 589.292949 111.42857 
L 592.57891 99.085713 
L 595.864871 138.857143 
L 599.150832 99.085713 
L 602.436793 104.57143 
L 605.722754 134.742857 
L 609.008715 105.942857 
L 612.294677 116.914287 
L 615.580638 99.085713 
L 618.866599 141.600001 
L 622.15256 94.971427 
L 625.438521 89.485714 
L 628.724482 93.6 
L 628.724482 93.6 
" style="fill:none;stroke:#0000ff;stroke-linecap:square;stroke-width:1.2;"/>
   </g>
   <g id="line2d_2">
    <path clip-path="url(#pc38b9e1956)" d="M 109.542635 295.2 
L 112.828596 258.171429 
L 116.114557 249.942857 
L 119.400518 248.57143 
L 122.686479 260.914287 
L 125.97244 266.4 
L 129.258401 238.971427 
L 132.544362 273.257144 
L 135.830323 277.37143 
L 139.116285 234.857141 
L 142.402246 252.685716 
L 145.688207 240.342859 
L 148.974168 237.6 
L 152.260129 254.057143 
L 155.54609 238.971427 
L 158.832051 238.971427 
L 162.118012 214.285713 
L 165.403973 226.62857 
L 168.689934 248.57143 
L 171.975895 214.285713 
L 175.261856 229.371429 
L 178.547817 190.97143 
L 181.833778 241.714286 
L 185.119739 215.657144 
L 188.4057 233.485714 
L 191.691661 214.285713 
L 194.977622 219.77143 
L 198.263584 248.57143 
L 201.549545 218.399999 
L 204.835506 217.028571 
L 208.121467 230.742856 
L 211.407428 210.171427 
L 214.693389 193.714284 
L 217.97935 197.82857 
L 221.265311 211.542859 
L 224.551272 210.171427 
L 227.837233 163.542857 
L 231.123194 177.257141 
L 234.409155 160.799999 
L 237.695116 190.97143 
L 240.981077 195.085716 
L 244.267038 175.885714 
L 247.552999 190.97143 
L 250.83896 196.457143 
L 254.124921 178.628573 
L 260.696844 164.914284 
L 263.982805 178.628573 
L 267.268766 180 
L 270.554727 175.885714 
L 273.840688 190.97143 
L 277.126649 178.628573 
L 280.41261 164.914284 
L 283.698571 170.400001 
L 286.984532 167.657143 
L 290.270493 151.2 
L 293.556454 152.571427 
L 296.842415 163.542857 
L 303.414337 160.799999 
L 306.700298 142.971429 
L 309.986259 185.485713 
L 313.27222 184.114286 
L 316.558182 181.371427 
L 319.844143 182.742859 
L 323.130104 175.885714 
L 326.416065 181.371427 
L 329.702026 178.628573 
L 332.987987 174.514287 
L 336.273948 169.02857 
L 339.559909 186.857144 
L 342.84587 164.914284 
L 346.131831 158.057144 
L 349.417792 173.142856 
L 352.703753 178.628573 
L 355.989714 166.285716 
L 359.275675 167.657143 
L 362.561636 155.314286 
L 365.847597 188.228571 
L 369.133558 173.142856 
L 372.419519 169.02857 
L 375.705481 170.400001 
L 378.991442 151.2 
L 382.277403 138.857143 
L 385.563364 184.114286 
L 388.849325 175.885714 
L 392.135286 147.085714 
L 395.421247 160.799999 
L 398.707208 186.857144 
L 401.993169 173.142856 
L 405.27913 153.942859 
L 408.565091 152.571427 
L 411.851052 163.542857 
L 415.137013 192.342857 
L 418.422974 175.885714 
L 421.708935 153.942859 
L 424.994896 170.400001 
L 428.280857 163.542857 
L 431.566818 169.02857 
L 434.85278 156.685713 
L 438.138741 156.685713 
L 441.424702 169.02857 
L 444.710663 178.628573 
L 447.996624 160.799999 
L 451.282585 181.371427 
L 454.568546 163.542857 
L 457.854507 149.828573 
L 461.140468 166.285716 
L 464.426429 193.714284 
L 467.71239 153.942859 
L 470.998351 141.600001 
L 474.284312 145.714287 
L 477.570273 158.057144 
L 480.856234 182.742859 
L 484.142195 164.914284 
L 487.428156 174.514287 
L 490.714117 196.457143 
L 494.000079 149.828573 
L 497.28604 177.257141 
L 500.572001 182.742859 
L 503.857962 177.257141 
L 507.143923 175.885714 
L 510.429884 171.771429 
L 513.715845 180 
L 517.001806 180 
L 520.287767 184.114286 
L 523.573728 175.885714 
L 526.859689 204.685714 
L 530.14565 215.657144 
L 533.431611 164.914284 
L 536.717572 151.2 
L 540.003533 169.02857 
L 543.289494 159.428571 
L 546.575455 207.428573 
L 549.861416 189.599999 
L 553.147378 173.142856 
L 556.433339 190.97143 
L 559.7193 178.628573 
L 563.005261 178.628573 
L 566.291222 160.799999 
L 569.577183 151.2 
L 572.863144 193.714284 
L 576.149105 190.97143 
L 579.435066 159.428571 
L 582.721027 153.942859 
L 586.006988 160.799999 
L 589.292949 186.857144 
L 592.57891 207.428573 
L 595.864871 170.400001 
L 599.150832 171.771429 
L 602.436793 158.057144 
L 605.722754 170.400001 
L 612.294677 173.142856 
L 615.580638 148.457141 
L 618.866599 162.17143 
L 622.15256 169.02857 
L 625.438521 167.657143 
L 625.438521 167.657143 
" style="fill:none;stroke:#008000;stroke-linecap:square;stroke-width:1.2;"/>
   </g>
   <g id="line2d_3">
    <path clip-path="url(#pc38b9e1956)" d="M 109.542635 299.314286 
L 112.828596 262.285714 
L 116.114557 281.485716 
L 119.400518 252.685716 
L 122.686479 217.028571 
L 125.97244 233.485714 
L 129.258401 254.057143 
L 132.544362 210.171427 
L 135.830323 234.857141 
L 139.116285 229.371429 
L 142.402246 233.485714 
L 145.688207 243.085713 
L 148.974168 230.742856 
L 152.260129 206.057141 
L 155.54609 226.62857 
L 158.832051 184.114286 
L 162.118012 206.057141 
L 165.403973 211.542859 
L 168.689934 192.342857 
L 171.975895 197.82857 
L 175.261856 181.371427 
L 178.547817 200.571429 
L 181.833778 174.514287 
L 185.119739 215.657144 
L 188.4057 174.514287 
L 191.691661 208.8 
L 194.977622 192.342857 
L 198.263584 184.114286 
L 201.549545 192.342857 
L 204.835506 171.771429 
L 208.121467 196.457143 
L 211.407428 177.257141 
L 214.693389 166.285716 
L 217.97935 169.02857 
L 221.265311 178.628573 
L 224.551272 190.97143 
L 227.837233 182.742859 
L 231.123194 182.742859 
L 234.409155 200.571429 
L 237.695116 166.285716 
L 240.981077 166.285716 
L 244.267038 155.314286 
L 247.552999 186.857144 
L 250.83896 166.285716 
L 254.124921 185.485713 
L 257.410883 207.428573 
L 260.696844 197.82857 
L 263.982805 186.857144 
L 267.268766 197.82857 
L 270.554727 180 
L 273.840688 167.657143 
L 277.126649 173.142856 
L 280.41261 201.942856 
L 283.698571 171.771429 
L 286.984532 160.799999 
L 290.270493 169.02857 
L 293.556454 178.628573 
L 296.842415 200.571429 
L 300.128376 182.742859 
L 303.414337 192.342857 
L 306.700298 178.628573 
L 309.986259 203.314287 
L 313.27222 197.82857 
L 316.558182 190.97143 
L 319.844143 173.142856 
L 323.130104 177.257141 
L 326.416065 175.885714 
L 329.702026 171.771429 
L 332.987987 184.114286 
L 336.273948 193.714284 
L 339.559909 192.342857 
L 342.84587 174.514287 
L 346.131831 186.857144 
L 349.417792 178.628573 
L 352.703753 153.942859 
L 355.989714 153.942859 
L 359.275675 185.485713 
L 362.561636 186.857144 
L 365.847597 177.257141 
L 369.133558 178.628573 
L 372.419519 155.314286 
L 375.705481 200.571429 
L 378.991442 177.257141 
L 382.277403 180 
L 385.563364 169.02857 
L 388.849325 177.257141 
L 392.135286 162.17143 
L 395.421247 190.97143 
L 398.707208 185.485713 
L 401.993169 166.285716 
L 405.27913 166.285716 
L 408.565091 197.82857 
L 411.851052 206.057141 
L 415.137013 174.514287 
L 418.422974 185.485713 
L 421.708935 197.82857 
L 424.994896 181.371427 
L 428.280857 219.77143 
L 431.566818 188.228571 
L 434.85278 149.828573 
L 438.138741 173.142856 
L 441.424702 173.142856 
L 444.710663 175.885714 
L 447.996624 180 
L 451.282585 134.742857 
L 454.568546 164.914284 
L 457.854507 153.942859 
L 461.140468 159.428571 
L 464.426429 163.542857 
L 467.71239 169.02857 
L 470.998351 196.457143 
L 474.284312 158.057144 
L 477.570273 185.485713 
L 480.856234 182.742859 
L 484.142195 156.685713 
L 487.428156 171.771429 
L 490.714117 153.942859 
L 494.000079 173.142856 
L 497.28604 167.657143 
L 500.572001 180 
L 503.857962 182.742859 
L 507.143923 153.942859 
L 510.429884 162.17143 
L 513.715845 151.2 
L 517.001806 162.17143 
L 520.287767 140.22857 
L 523.573728 167.657143 
L 526.859689 156.685713 
L 530.14565 162.17143 
L 533.431611 152.571427 
L 540.003533 147.085714 
L 543.289494 152.571427 
L 546.575455 136.114284 
L 549.861416 136.114284 
L 553.147378 134.742857 
L 556.433339 140.22857 
L 559.7193 155.314286 
L 563.005261 122.4 
L 566.291222 112.800001 
L 569.577183 134.742857 
L 572.863144 136.114284 
L 576.149105 134.742857 
L 579.435066 126.514286 
L 582.721027 116.914287 
L 586.006988 134.742857 
L 589.292949 118.285714 
L 592.57891 119.657141 
L 595.864871 112.800001 
L 599.150832 126.514286 
L 602.436793 130.628571 
L 605.722754 108.685716 
L 609.008715 118.285714 
L 612.294677 122.4 
L 615.580638 114.171429 
L 618.866599 100.457144 
L 618.866599 100.457144 
" style="fill:none;stroke:#ff0000;stroke-linecap:square;stroke-width:1.2;"/>
   </g>
   <g id="line2d_4">
    <path clip-path="url(#pc38b9e1956)" d="M 112.828596 260.914287 
L 116.114557 263.657141 
L 119.400518 244.457144 
L 122.686479 296.571427 
L 125.97244 232.114287 
L 129.258401 260.914287 
L 132.544362 273.257144 
L 135.830323 273.257144 
L 139.116285 247.199999 
L 142.402246 265.028573 
L 145.688207 258.171429 
L 148.974168 254.057143 
L 152.260129 273.257144 
L 155.54609 245.828571 
L 158.832051 259.542856 
L 162.118012 241.714286 
L 165.403973 266.4 
L 168.689934 256.800001 
L 171.975895 244.457144 
L 175.261856 254.057143 
L 178.547817 244.457144 
L 181.833778 252.685716 
L 185.119739 265.028573 
L 188.4057 241.714286 
L 191.691661 255.42857 
L 194.977622 241.714286 
L 198.263584 245.828571 
L 201.549545 212.914286 
L 204.835506 222.514284 
L 208.121467 212.914286 
L 211.407428 232.114287 
L 214.693389 211.542859 
L 217.97935 193.714284 
L 221.265311 215.657144 
L 224.551272 201.942856 
L 227.837233 196.457143 
L 231.123194 204.685714 
L 234.409155 195.085716 
L 237.695116 181.371427 
L 240.981077 195.085716 
L 244.267038 221.142857 
L 247.552999 180 
L 254.124921 190.97143 
L 257.410883 184.114286 
L 260.696844 164.914284 
L 263.982805 196.457143 
L 267.268766 174.514287 
L 270.554727 169.02857 
L 273.840688 155.314286 
L 277.126649 159.428571 
L 280.41261 159.428571 
L 283.698571 166.285716 
L 286.984532 180 
L 290.270493 133.37143 
L 293.556454 166.285716 
L 296.842415 133.37143 
L 300.128376 164.914284 
L 303.414337 173.142856 
L 306.700298 151.2 
L 309.986259 163.542857 
L 313.27222 158.057144 
L 316.558182 144.342856 
L 319.844143 145.714287 
L 323.130104 138.857143 
L 326.416065 142.971429 
L 329.702026 162.17143 
L 332.987987 134.742857 
L 336.273948 153.942859 
L 339.559909 137.485716 
L 342.84587 163.542857 
L 346.131831 144.342856 
L 349.417792 141.600001 
L 352.703753 163.542857 
L 355.989714 153.942859 
L 359.275675 185.485713 
L 362.561636 160.799999 
L 365.847597 151.2 
L 369.133558 173.142856 
L 372.419519 189.599999 
L 375.705481 158.057144 
L 378.991442 145.714287 
L 382.277403 155.314286 
L 385.563364 169.02857 
L 388.849325 156.685713 
L 392.135286 181.371427 
L 395.421247 182.742859 
L 398.707208 182.742859 
L 401.993169 175.885714 
L 405.27913 211.542859 
L 408.565091 181.371427 
L 411.851052 178.628573 
L 415.137013 184.114286 
L 418.422974 138.857143 
L 421.708935 181.371427 
L 424.994896 163.542857 
L 428.280857 129.257144 
L 431.566818 181.371427 
L 434.85278 184.114286 
L 438.138741 166.285716 
L 441.424702 171.771429 
L 444.710663 158.057144 
L 447.996624 189.599999 
L 451.282585 180 
L 454.568546 164.914284 
L 457.854507 156.685713 
L 461.140468 178.628573 
L 464.426429 162.17143 
L 467.71239 189.599999 
L 470.998351 201.942856 
L 474.284312 180 
L 477.570273 185.485713 
L 480.856234 155.314286 
L 484.142195 169.02857 
L 487.428156 184.114286 
L 490.714117 153.942859 
L 494.000079 203.314287 
L 497.28604 169.02857 
L 500.572001 152.571427 
L 503.857962 175.885714 
L 507.143923 170.400001 
L 510.429884 171.771429 
L 513.715845 160.799999 
L 517.001806 181.371427 
L 520.287767 189.599999 
L 523.573728 167.657143 
L 526.859689 162.17143 
L 530.14565 151.2 
L 533.431611 169.02857 
L 536.717572 167.657143 
L 540.003533 169.02857 
L 543.289494 164.914284 
L 546.575455 180 
L 549.861416 149.828573 
L 553.147378 166.285716 
L 556.433339 171.771429 
L 559.7193 159.428571 
L 563.005261 151.2 
L 566.291222 156.685713 
L 569.577183 153.942859 
L 572.863144 167.657143 
L 576.149105 140.22857 
L 579.435066 169.02857 
L 582.721027 152.571427 
L 586.006988 164.914284 
L 589.292949 125.142859 
L 592.57891 160.799999 
L 595.864871 129.257144 
L 602.436793 140.22857 
L 605.722754 130.628571 
L 609.008715 118.285714 
L 612.294677 130.628571 
L 615.580638 136.114284 
L 618.866599 126.514286 
L 622.15256 137.485716 
L 625.438521 99.085713 
L 628.724482 122.4 
L 632.010443 130.628571 
L 635.296404 129.257144 
L 635.296404 129.257144 
" style="fill:none;stroke:#00bfbf;stroke-linecap:square;stroke-width:1.2;"/>
   </g>
   <g id="line2d_5">
    <path clip-path="url(#pc38b9e1956)" d="M 112.828596 252.685716 
L 116.114557 237.6 
L 119.400518 262.285714 
L 122.686479 243.085713 
L 125.97244 263.657141 
L 129.258401 200.571429 
L 132.544362 243.085713 
L 135.830323 223.885716 
L 139.116285 210.171427 
L 145.688207 232.114287 
L 148.974168 199.200001 
L 152.260129 221.142857 
L 155.54609 225.257143 
L 158.832051 212.914286 
L 162.118012 214.285713 
L 165.403973 217.028571 
L 168.689934 208.8 
L 171.975895 207.428573 
L 175.261856 210.171427 
L 178.547817 204.685714 
L 181.833778 186.857144 
L 185.119739 171.771429 
L 188.4057 197.82857 
L 194.977622 195.085716 
L 198.263584 182.742859 
L 201.549545 171.771429 
L 204.835506 177.257141 
L 208.121467 181.371427 
L 211.407428 173.142856 
L 214.693389 188.228571 
L 217.97935 184.114286 
L 221.265311 181.371427 
L 224.551272 188.228571 
L 227.837233 163.542857 
L 231.123194 186.857144 
L 234.409155 166.285716 
L 237.695116 147.085714 
L 240.981077 181.371427 
L 244.267038 169.02857 
L 247.552999 152.571427 
L 250.83896 148.457141 
L 254.124921 158.057144 
L 257.410883 158.057144 
L 260.696844 160.799999 
L 263.982805 142.971429 
L 267.268766 145.714287 
L 270.554727 127.885713 
L 273.840688 149.828573 
L 277.126649 145.714287 
L 280.41261 171.771429 
L 283.698571 140.22857 
L 286.984532 144.342856 
L 293.556454 127.885713 
L 296.842415 144.342856 
L 300.128376 137.485716 
L 303.414337 148.457141 
L 306.700298 125.142859 
L 309.986259 138.857143 
L 313.27222 131.999999 
L 316.558182 122.4 
L 319.844143 127.885713 
L 323.130104 142.971429 
L 326.416065 119.657141 
L 329.702026 110.057143 
L 332.987987 121.028573 
L 336.273948 123.771427 
L 339.559909 112.800001 
L 342.84587 126.514286 
L 346.131831 134.742857 
L 349.417792 122.4 
L 352.703753 115.542856 
L 355.989714 115.542856 
L 359.275675 133.37143 
L 362.561636 119.657141 
L 365.847597 104.57143 
L 369.133558 93.6 
L 372.419519 142.971429 
L 375.705481 122.4 
L 378.991442 107.314284 
L 382.277403 103.199999 
L 385.563364 129.257144 
L 388.849325 96.342859 
L 392.135286 119.657141 
L 395.421247 74.399999 
L 398.707208 88.114287 
L 401.993169 108.685716 
L 405.27913 96.342859 
L 408.565091 115.542856 
L 411.851052 108.685716 
L 415.137013 127.885713 
L 418.422974 136.114284 
L 421.708935 99.085713 
L 424.994896 81.257143 
L 428.280857 100.457144 
L 431.566818 93.6 
L 434.85278 107.314284 
L 438.138741 144.342856 
L 441.424702 86.742856 
L 444.710663 111.42857 
L 451.282585 130.628571 
L 454.568546 96.342859 
L 457.854507 112.800001 
L 461.140468 138.857143 
L 464.426429 142.971429 
L 467.71239 105.942857 
L 470.998351 94.971427 
L 474.284312 119.657141 
L 477.570273 79.885716 
L 480.856234 112.800001 
L 484.142195 119.657141 
L 487.428156 104.57143 
L 494.000079 93.6 
L 497.28604 116.914287 
L 500.572001 114.171429 
L 503.857962 130.628571 
L 507.143923 89.485714 
L 510.429884 129.257144 
L 513.715845 104.57143 
L 517.001806 88.114287 
L 520.287767 104.57143 
L 523.573728 86.742856 
L 526.859689 101.828571 
L 530.14565 105.942857 
L 533.431611 121.028573 
L 536.717572 97.714286 
L 540.003533 93.6 
L 543.289494 104.57143 
L 546.575455 78.514284 
L 549.861416 114.171429 
L 553.147378 153.942859 
L 556.433339 112.800001 
L 559.7193 125.142859 
L 563.005261 119.657141 
L 566.291222 115.542856 
L 569.577183 121.028573 
L 572.863144 118.285714 
L 576.149105 93.6 
L 579.435066 114.171429 
L 579.435066 114.171429 
" style="fill:none;stroke:#bf00bf;stroke-linecap:square;stroke-width:1.2;"/>
   </g>
   <g id="line2d_6">
    <path clip-path="url(#pc38b9e1956)" d="M 112.828596 270.514286 
L 116.114557 245.828571 
L 119.400518 218.399999 
L 122.686479 270.514286 
L 125.97244 241.714286 
L 129.258401 214.285713 
L 132.544362 195.085716 
L 135.830323 237.6 
L 139.116285 233.485714 
L 142.402246 203.314287 
L 145.688207 219.77143 
L 148.974168 215.657144 
L 152.260129 222.514284 
L 155.54609 190.97143 
L 158.832051 208.8 
L 162.118012 185.485713 
L 165.403973 174.514287 
L 168.689934 207.428573 
L 171.975895 199.200001 
L 175.261856 147.085714 
L 178.547817 160.799999 
L 181.833778 171.771429 
L 185.119739 155.314286 
L 188.4057 152.571427 
L 191.691661 151.2 
L 194.977622 152.571427 
L 198.263584 138.857143 
L 201.549545 133.37143 
L 204.835506 131.999999 
L 208.121467 137.485716 
L 211.407428 147.085714 
L 214.693389 137.485716 
L 217.97935 114.171429 
L 221.265311 141.600001 
L 224.551272 112.800001 
L 227.837233 125.142859 
L 231.123194 116.914287 
L 234.409155 116.914287 
L 237.695116 84.000001 
L 240.981077 125.142859 
L 244.267038 119.657141 
L 247.552999 112.800001 
L 250.83896 125.142859 
L 254.124921 121.028573 
L 257.410883 105.942857 
L 260.696844 101.828571 
L 263.982805 116.914287 
L 267.268766 114.171429 
L 270.554727 105.942857 
L 273.840688 103.199999 
L 277.126649 133.37143 
L 280.41261 123.771427 
L 283.698571 126.514286 
L 286.984532 104.57143 
L 290.270493 101.828571 
L 293.556454 85.371429 
L 296.842415 111.42857 
L 300.128376 104.57143 
L 303.414337 74.399999 
L 306.700298 93.6 
L 309.986259 122.4 
L 313.27222 99.085713 
L 316.558182 123.771427 
L 319.844143 93.6 
L 323.130104 105.942857 
L 329.702026 122.4 
L 332.987987 118.285714 
L 336.273948 158.057144 
L 339.559909 97.714286 
L 342.84587 104.57143 
L 346.131831 129.257144 
L 349.417792 92.228573 
L 352.703753 136.114284 
L 355.989714 121.028573 
L 359.275675 94.971427 
L 362.561636 123.771427 
L 365.847597 112.800001 
L 369.133558 121.028573 
L 372.419519 88.114287 
L 375.705481 119.657141 
L 378.991442 127.885713 
L 382.277403 119.657141 
L 385.563364 79.885716 
L 388.849325 119.657141 
L 392.135286 110.057143 
L 395.421247 81.257143 
L 398.707208 105.942857 
L 401.993169 121.028573 
L 405.27913 112.800001 
L 408.565091 138.857143 
L 411.851052 105.942857 
L 415.137013 123.771427 
L 418.422974 92.228573 
L 421.708935 114.171429 
L 424.994896 104.57143 
L 428.280857 103.199999 
L 431.566818 115.542856 
L 438.138741 107.314284 
L 441.424702 85.371429 
L 444.710663 112.800001 
L 447.996624 108.685716 
L 451.282585 105.942857 
L 454.568546 104.57143 
L 457.854507 112.800001 
L 461.140468 112.800001 
L 464.426429 101.828571 
L 467.71239 107.314284 
L 470.998351 114.171429 
L 474.284312 97.714286 
L 477.570273 86.742856 
L 480.856234 112.800001 
L 484.142195 97.714286 
L 487.428156 107.314284 
L 490.714117 142.971429 
L 494.000079 93.6 
L 497.28604 107.314284 
L 500.572001 96.342859 
L 503.857962 116.914287 
L 507.143923 77.142857 
L 510.429884 100.457144 
L 513.715845 112.800001 
L 517.001806 92.228573 
L 520.287767 112.800001 
L 523.573728 92.228573 
L 530.14565 105.942857 
L 533.431611 110.057143 
L 536.717572 104.57143 
L 540.003533 116.914287 
L 543.289494 96.342859 
L 546.575455 125.142859 
L 549.861416 74.399999 
L 553.147378 112.800001 
L 556.433339 101.828571 
L 559.7193 105.942857 
L 563.005261 112.800001 
L 569.577183 110.057143 
L 572.863144 119.657141 
L 576.149105 88.114287 
L 579.435066 101.828571 
L 582.721027 105.942857 
L 586.006988 158.057144 
L 589.292949 96.342859 
L 592.57891 119.657141 
L 595.864871 96.342859 
L 599.150832 96.342859 
L 602.436793 107.314284 
L 602.436793 107.314284 
" style="fill:none;stroke:#bfbf00;stroke-linecap:square;stroke-width:1.2;"/>
   </g>
   <g id="line2d_7">
    <path clip-path="url(#pc38b9e1956)" d="M 112.828596 247.199999 
L 116.114557 241.714286 
L 119.400518 226.62857 
L 122.686479 249.942857 
L 125.97244 223.885716 
L 129.258401 228.000001 
L 132.544362 230.742856 
L 135.830323 218.399999 
L 139.116285 225.257143 
L 142.402246 206.057141 
L 145.688207 217.028571 
L 148.974168 196.457143 
L 152.260129 178.628573 
L 155.54609 199.200001 
L 158.832051 188.228571 
L 162.118012 192.342857 
L 165.403973 178.628573 
L 168.689934 181.371427 
L 171.975895 163.542857 
L 175.261856 160.799999 
L 178.547817 151.2 
L 181.833778 137.485716 
L 185.119739 156.685713 
L 188.4057 155.314286 
L 191.691661 147.085714 
L 194.977622 129.257144 
L 198.263584 149.828573 
L 201.549545 129.257144 
L 204.835506 114.171429 
L 208.121467 104.57143 
L 211.407428 108.685716 
L 214.693389 131.999999 
L 217.97935 112.800001 
L 221.265311 131.999999 
L 224.551272 104.57143 
L 227.837233 125.142859 
L 231.123194 111.42857 
L 234.409155 96.342859 
L 237.695116 115.542856 
L 240.981077 101.828571 
L 244.267038 110.057143 
L 247.552999 94.971427 
L 250.83896 131.999999 
L 254.124921 122.4 
L 257.410883 118.285714 
L 260.696844 101.828571 
L 263.982805 133.37143 
L 267.268766 88.114287 
L 270.554727 96.342859 
L 273.840688 115.542856 
L 277.126649 105.942857 
L 280.41261 121.028573 
L 283.698571 118.285714 
L 286.984532 93.6 
L 290.270493 93.6 
L 293.556454 101.828571 
L 296.842415 101.828571 
L 300.128376 104.57143 
L 303.414337 118.285714 
L 306.700298 108.685716 
L 309.986259 84.000001 
L 313.27222 103.199999 
L 316.558182 90.857141 
L 319.844143 88.114287 
L 323.130104 126.514286 
L 326.416065 103.199999 
L 329.702026 114.171429 
L 332.987987 110.057143 
L 336.273948 100.457144 
L 339.559909 126.514286 
L 342.84587 115.542856 
L 346.131831 107.314284 
L 349.417792 93.6 
L 352.703753 103.199999 
L 355.989714 104.57143 
L 359.275675 108.685716 
L 362.561636 116.914287 
L 369.133558 114.171429 
L 372.419519 114.171429 
L 375.705481 105.942857 
L 378.991442 93.6 
L 382.277403 108.685716 
L 385.563364 108.685716 
L 388.849325 118.285714 
L 392.135286 140.22857 
L 395.421247 116.914287 
L 398.707208 112.800001 
L 401.993169 121.028573 
L 405.27913 105.942857 
L 408.565091 108.685716 
L 411.851052 105.942857 
L 415.137013 88.114287 
L 418.422974 121.028573 
L 421.708935 96.342859 
L 424.994896 115.542856 
L 428.280857 104.57143 
L 431.566818 123.771427 
L 434.85278 101.828571 
L 438.138741 121.028573 
L 441.424702 126.514286 
L 444.710663 111.42857 
L 447.996624 114.171429 
L 451.282585 86.742856 
L 454.568546 107.314284 
L 457.854507 119.657141 
L 461.140468 136.114284 
L 464.426429 107.314284 
L 467.71239 122.4 
L 470.998351 110.057143 
L 474.284312 100.457144 
L 477.570273 123.771427 
L 480.856234 104.57143 
L 484.142195 137.485716 
L 487.428156 94.971427 
L 490.714117 111.42857 
L 494.000079 121.028573 
L 497.28604 77.142857 
L 500.572001 100.457144 
L 503.857962 108.685716 
L 507.143923 122.4 
L 510.429884 108.685716 
L 513.715845 121.028573 
L 517.001806 97.714286 
L 520.287767 123.771427 
L 523.573728 111.42857 
L 526.859689 107.314284 
L 530.14565 115.542856 
L 533.431611 104.57143 
L 536.717572 115.542856 
L 540.003533 111.42857 
L 543.289494 127.885713 
L 546.575455 121.028573 
L 549.861416 107.314284 
L 553.147378 118.285714 
L 556.433339 105.942857 
L 559.7193 92.228573 
L 563.005261 129.257144 
L 566.291222 96.342859 
L 569.577183 85.371429 
L 572.863144 112.800001 
L 576.149105 112.800001 
L 579.435066 108.685716 
L 582.721027 116.914287 
L 586.006988 99.085713 
L 589.292949 90.857141 
L 595.864871 107.314284 
L 595.864871 107.314284 
" style="fill:none;stroke:#000000;stroke-linecap:square;stroke-width:1.2;"/>
   </g>
   <g id="line2d_8">
    <path clip-path="url(#pc38b9e1956)" d="M 112.828596 248.57143 
L 116.114557 277.37143 
L 119.400518 241.714286 
L 122.686479 219.77143 
L 125.97244 251.314284 
L 129.258401 222.514284 
L 132.544362 226.62857 
L 135.830323 201.942856 
L 139.116285 195.085716 
L 142.402246 203.314287 
L 145.688207 188.228571 
L 148.974168 196.457143 
L 152.260129 185.485713 
L 155.54609 173.142856 
L 158.832051 163.542857 
L 162.118012 160.799999 
L 165.403973 185.485713 
L 168.689934 173.142856 
L 171.975895 159.428571 
L 175.261856 147.085714 
L 178.547817 164.914284 
L 181.833778 121.028573 
L 185.119739 123.771427 
L 188.4057 130.628571 
L 191.691661 142.971429 
L 194.977622 131.999999 
L 198.263584 112.800001 
L 201.549545 114.171429 
L 204.835506 127.885713 
L 208.121467 125.142859 
L 211.407428 134.742857 
L 214.693389 115.542856 
L 217.97935 129.257144 
L 221.265311 107.314284 
L 224.551272 90.857141 
L 227.837233 104.57143 
L 231.123194 114.171429 
L 234.409155 125.142859 
L 237.695116 112.800001 
L 240.981077 122.4 
L 244.267038 99.085713 
L 247.552999 88.114287 
L 250.83896 130.628571 
L 254.124921 104.57143 
L 257.410883 84.000001 
L 260.696844 104.57143 
L 263.982805 96.342859 
L 267.268766 104.57143 
L 270.554727 119.657141 
L 273.840688 108.685716 
L 277.126649 129.257144 
L 280.41261 107.314284 
L 283.698571 107.314284 
L 286.984532 119.657141 
L 293.556454 86.742856 
L 296.842415 111.42857 
L 300.128376 125.142859 
L 303.414337 118.285714 
L 306.700298 97.714286 
L 309.986259 105.942857 
L 313.27222 88.114287 
L 316.558182 96.342859 
L 319.844143 93.6 
L 323.130104 125.142859 
L 326.416065 147.085714 
L 329.702026 123.771427 
L 332.987987 101.828571 
L 336.273948 103.199999 
L 339.559909 140.22857 
L 342.84587 119.657141 
L 346.131831 112.800001 
L 349.417792 88.114287 
L 352.703753 100.457144 
L 355.989714 123.771427 
L 359.275675 127.885713 
L 362.561636 118.285714 
L 365.847597 126.514286 
L 369.133558 104.57143 
L 372.419519 118.285714 
L 375.705481 111.42857 
L 378.991442 137.485716 
L 382.277403 90.857141 
L 385.563364 129.257144 
L 388.849325 104.57143 
L 392.135286 84.000001 
L 395.421247 110.057143 
L 398.707208 101.828571 
L 401.993169 67.542859 
L 405.27913 86.742856 
L 408.565091 100.457144 
L 411.851052 105.942857 
L 415.137013 112.800001 
L 418.422974 148.457141 
L 421.708935 123.771427 
L 424.994896 136.114284 
L 428.280857 108.685716 
L 431.566818 94.971427 
L 434.85278 115.542856 
L 438.138741 93.6 
L 441.424702 118.285714 
L 444.710663 114.171429 
L 447.996624 105.942857 
L 451.282585 130.628571 
L 454.568546 104.57143 
L 457.854507 141.600001 
L 461.140468 136.114284 
L 464.426429 99.085713 
L 467.71239 105.942857 
L 470.998351 107.314284 
L 474.284312 96.342859 
L 477.570273 116.914287 
L 480.856234 123.771427 
L 484.142195 97.714286 
L 487.428156 133.37143 
L 490.714117 99.085713 
L 494.000079 94.971427 
L 497.28604 101.828571 
L 500.572001 110.057143 
L 503.857962 133.37143 
L 507.143923 90.857141 
L 510.429884 114.171429 
L 513.715845 100.457144 
L 520.287767 116.914287 
L 523.573728 100.457144 
L 526.859689 119.657141 
L 530.14565 99.085713 
L 533.431611 114.171429 
L 536.717572 121.028573 
L 540.003533 115.542856 
L 543.289494 103.199999 
L 546.575455 115.542856 
L 549.861416 97.714286 
L 553.147378 107.314284 
L 556.433339 97.714286 
L 559.7193 125.142859 
L 563.005261 104.57143 
L 566.291222 122.4 
L 569.577183 116.914287 
L 572.863144 97.714286 
L 576.149105 93.6 
L 579.435066 108.685716 
L 582.721027 81.257143 
L 586.006988 110.057143 
L 589.292949 133.37143 
L 589.292949 133.37143 
" style="fill:none;stroke:#0000ff;stroke-linecap:square;stroke-width:1.2;"/>
   </g>
   <g id="patch_3">
    <path d="M 112.5 324 
L 112.5 36 
" style="fill:none;stroke:#000000;stroke-linecap:square;stroke-linejoin:miter;"/>
   </g>
   <g id="patch_4">
    <path d="M 635.625 324 
L 635.625 36 
" style="fill:none;stroke:#000000;stroke-linecap:square;stroke-linejoin:miter;"/>
   </g>
   <g id="patch_5">
    <path d="M 112.5 324 
L 635.625 324 
" style="fill:none;stroke:#000000;stroke-linecap:square;stroke-linejoin:miter;"/>
   </g>
   <g id="patch_6">
    <path d="M 112.5 36 
L 635.625 36 
" style="fill:none;stroke:#000000;stroke-linecap:square;stroke-linejoin:miter;"/>
   </g>
   <g id="matplotlib.axis_1">
    <g id="xtick_1">
     <g id="line2d_9">
      <defs>
       <path d="M 0 0 
L 0 -4 
" id="m8b97f022a6" style="stroke:#000000;stroke-width:0.5;"/>
      </defs>
      <g>
       <use style="stroke:#000000;stroke-width:0.5;" x="112.828596" xlink:href="#m8b97f022a6" y="324"/>
      </g>
     </g>
     <g id="line2d_10">
      <defs>
       <path d="M 0 0 
L 0 4 
" id="m70875f5893" style="stroke:#000000;stroke-width:0.5;"/>
      </defs>
      <g>
       <use style="stroke:#000000;stroke-width:0.5;" x="112.828596" xlink:href="#m70875f5893" y="36"/>
      </g>
     </g>
     <g id="text_1">
      <!-- 1 -->
      <defs>
       <path d="M 12.40625 8.296875 
L 28.515625 8.296875 
L 28.515625 63.921875 
L 10.984375 60.40625 
L 10.984375 69.390625 
L 28.421875 72.90625 
L 38.28125 72.90625 
L 38.28125 8.296875 
L 54.390625 8.296875 
L 54.390625 0 
L 12.40625 0 
z
" id="DejaVuSans-49"/>
      </defs>
      <g transform="translate(109.011096 337.118125)scale(0.12 -0.12)">
       <use xlink:href="#DejaVuSans-49"/>
      </g>
     </g>
    </g>
    <g id="xtick_2">
     <g id="line2d_11">
      <g>
       <use style="stroke:#000000;stroke-width:0.5;" x="165.403973" xlink:href="#m8b97f022a6" y="324"/>
      </g>
     </g>
     <g id="line2d_12">
      <g>
       <use style="stroke:#000000;stroke-width:0.5;" x="165.403973" xlink:href="#m70875f5893" y="36"/>
      </g>
     </g>
     <g id="text_2">
      <!-- 17 -->
      <defs>
       <path d="M 8.203125 72.90625 
L 55.078125 72.90625 
L 55.078125 68.703125 
L 28.609375 0 
L 18.3125 0 
L 43.21875 64.59375 
L 8.203125 64.59375 
z
" id="DejaVuSans-55"/>
      </defs>
      <g transform="translate(157.768973 337.118125)scale(0.12 -0.12)">
       <use xlink:href="#DejaVuSans-49"/>
       <use x="63.623047" xlink:href="#DejaVuSans-55"/>
      </g>
     </g>
    </g>
    <g id="xtick_3">
     <g id="line2d_13">
      <g>
       <use style="stroke:#000000;stroke-width:0.5;" x="217.97935" xlink:href="#m8b97f022a6" y="324"/>
      </g>
     </g>
     <g id="line2d_14">
      <g>
       <use style="stroke:#000000;stroke-width:0.5;" x="217.97935" xlink:href="#m70875f5893" y="36"/>
      </g>
     </g>
     <g id="text_3">
      <!-- 33 -->
      <defs>
       <path d="M 40.578125 39.3125 
Q 47.65625 37.796875 51.625 33 
Q 55.609375 28.21875 55.609375 21.1875 
Q 55.609375 10.40625 48.1875 4.484375 
Q 40.765625 -1.421875 27.09375 -1.421875 
Q 22.515625 -1.421875 17.65625 -0.515625 
Q 12.796875 0.390625 7.625 2.203125 
L 7.625 11.71875 
Q 11.71875 9.328125 16.59375 8.109375 
Q 21.484375 6.890625 26.8125 6.890625 
Q 36.078125 6.890625 40.9375 10.546875 
Q 45.796875 14.203125 45.796875 21.1875 
Q 45.796875 27.640625 41.28125 31.265625 
Q 36.765625 34.90625 28.71875 34.90625 
L 20.21875 34.90625 
L 20.21875 43.015625 
L 29.109375 43.015625 
Q 36.375 43.015625 40.234375 45.921875 
Q 44.09375 48.828125 44.09375 54.296875 
Q 44.09375 59.90625 40.109375 62.90625 
Q 36.140625 65.921875 28.71875 65.921875 
Q 24.65625 65.921875 20.015625 65.03125 
Q 15.375 64.15625 9.8125 62.3125 
L 9.8125 71.09375 
Q 15.4375 72.65625 20.34375 73.4375 
Q 25.25 74.21875 29.59375 74.21875 
Q 40.828125 74.21875 47.359375 69.109375 
Q 53.90625 64.015625 53.90625 55.328125 
Q 53.90625 49.265625 50.4375 45.09375 
Q 46.96875 40.921875 40.578125 39.3125 
z
" id="DejaVuSans-51"/>
      </defs>
      <g transform="translate(210.34435 337.118125)scale(0.12 -0.12)">
       <use xlink:href="#DejaVuSans-51"/>
       <use x="63.623047" xlink:href="#DejaVuSans-51"/>
      </g>
     </g>
    </g>
    <g id="xtick_4">
     <g id="line2d_15">
      <g>
       <use style="stroke:#000000;stroke-width:0.5;" x="270.554727" xlink:href="#m8b97f022a6" y="324"/>
      </g>
     </g>
     <g id="line2d_16">
      <g>
       <use style="stroke:#000000;stroke-width:0.5;" x="270.554727" xlink:href="#m70875f5893" y="36"/>
      </g>
     </g>
     <g id="text_4">
      <!-- 49 -->
      <defs>
       <path d="M 37.796875 64.3125 
L 12.890625 25.390625 
L 37.796875 25.390625 
z
M 35.203125 72.90625 
L 47.609375 72.90625 
L 47.609375 25.390625 
L 58.015625 25.390625 
L 58.015625 17.1875 
L 47.609375 17.1875 
L 47.609375 0 
L 37.796875 0 
L 37.796875 17.1875 
L 4.890625 17.1875 
L 4.890625 26.703125 
z
" id="DejaVuSans-52"/>
       <path d="M 10.984375 1.515625 
L 10.984375 10.5 
Q 14.703125 8.734375 18.5 7.8125 
Q 22.3125 6.890625 25.984375 6.890625 
Q 35.75 6.890625 40.890625 13.453125 
Q 46.046875 20.015625 46.78125 33.40625 
Q 43.953125 29.203125 39.59375 26.953125 
Q 35.25 24.703125 29.984375 24.703125 
Q 19.046875 24.703125 12.671875 31.3125 
Q 6.296875 37.9375 6.296875 49.421875 
Q 6.296875 60.640625 12.9375 67.421875 
Q 19.578125 74.21875 30.609375 74.21875 
Q 43.265625 74.21875 49.921875 64.515625 
Q 56.59375 54.828125 56.59375 36.375 
Q 56.59375 19.140625 48.40625 8.859375 
Q 40.234375 -1.421875 26.421875 -1.421875 
Q 22.703125 -1.421875 18.890625 -0.6875 
Q 15.09375 0.046875 10.984375 1.515625 
z
M 30.609375 32.421875 
Q 37.25 32.421875 41.125 36.953125 
Q 45.015625 41.5 45.015625 49.421875 
Q 45.015625 57.28125 41.125 61.84375 
Q 37.25 66.40625 30.609375 66.40625 
Q 23.96875 66.40625 20.09375 61.84375 
Q 16.21875 57.28125 16.21875 49.421875 
Q 16.21875 41.5 20.09375 36.953125 
Q 23.96875 32.421875 30.609375 32.421875 
z
" id="DejaVuSans-57"/>
      </defs>
      <g transform="translate(262.919727 337.118125)scale(0.12 -0.12)">
       <use xlink:href="#DejaVuSans-52"/>
       <use x="63.623047" xlink:href="#DejaVuSans-57"/>
      </g>
     </g>
    </g>
    <g id="xtick_5">
     <g id="line2d_17">
      <g>
       <use style="stroke:#000000;stroke-width:0.5;" x="323.130104" xlink:href="#m8b97f022a6" y="324"/>
      </g>
     </g>
     <g id="line2d_18">
      <g>
       <use style="stroke:#000000;stroke-width:0.5;" x="323.130104" xlink:href="#m70875f5893" y="36"/>
      </g>
     </g>
     <g id="text_5">
      <!-- 65 -->
      <defs>
       <path d="M 33.015625 40.375 
Q 26.375 40.375 22.484375 35.828125 
Q 18.609375 31.296875 18.609375 23.390625 
Q 18.609375 15.53125 22.484375 10.953125 
Q 26.375 6.390625 33.015625 6.390625 
Q 39.65625 6.390625 43.53125 10.953125 
Q 47.40625 15.53125 47.40625 23.390625 
Q 47.40625 31.296875 43.53125 35.828125 
Q 39.65625 40.375 33.015625 40.375 
z
M 52.59375 71.296875 
L 52.59375 62.3125 
Q 48.875 64.0625 45.09375 64.984375 
Q 41.3125 65.921875 37.59375 65.921875 
Q 27.828125 65.921875 22.671875 59.328125 
Q 17.53125 52.734375 16.796875 39.40625 
Q 19.671875 43.65625 24.015625 45.921875 
Q 28.375 48.1875 33.59375 48.1875 
Q 44.578125 48.1875 50.953125 41.515625 
Q 57.328125 34.859375 57.328125 23.390625 
Q 57.328125 12.15625 50.6875 5.359375 
Q 44.046875 -1.421875 33.015625 -1.421875 
Q 20.359375 -1.421875 13.671875 8.265625 
Q 6.984375 17.96875 6.984375 36.375 
Q 6.984375 53.65625 15.1875 63.9375 
Q 23.390625 74.21875 37.203125 74.21875 
Q 40.921875 74.21875 44.703125 73.484375 
Q 48.484375 72.75 52.59375 71.296875 
z
" id="DejaVuSans-54"/>
       <path d="M 10.796875 72.90625 
L 49.515625 72.90625 
L 49.515625 64.59375 
L 19.828125 64.59375 
L 19.828125 46.734375 
Q 21.96875 47.46875 24.109375 47.828125 
Q 26.265625 48.1875 28.421875 48.1875 
Q 40.625 48.1875 47.75 41.5 
Q 54.890625 34.8125 54.890625 23.390625 
Q 54.890625 11.625 47.5625 5.09375 
Q 40.234375 -1.421875 26.90625 -1.421875 
Q 22.3125 -1.421875 17.546875 -0.640625 
Q 12.796875 0.140625 7.71875 1.703125 
L 7.71875 11.625 
Q 12.109375 9.234375 16.796875 8.0625 
Q 21.484375 6.890625 26.703125 6.890625 
Q 35.15625 6.890625 40.078125 11.328125 
Q 45.015625 15.765625 45.015625 23.390625 
Q 45.015625 31 40.078125 35.4375 
Q 35.15625 39.890625 26.703125 39.890625 
Q 22.75 39.890625 18.8125 39.015625 
Q 14.890625 38.140625 10.796875 36.28125 
z
" id="DejaVuSans-53"/>
      </defs>
      <g transform="translate(315.495104 337.118125)scale(0.12 -0.12)">
       <use xlink:href="#DejaVuSans-54"/>
       <use x="63.623047" xlink:href="#DejaVuSans-53"/>
      </g>
     </g>
    </g>
    <g id="xtick_6">
     <g id="line2d_19">
      <g>
       <use style="stroke:#000000;stroke-width:0.5;" x="375.705481" xlink:href="#m8b97f022a6" y="324"/>
      </g>
     </g>
     <g id="line2d_20">
      <g>
       <use style="stroke:#000000;stroke-width:0.5;" x="375.705481" xlink:href="#m70875f5893" y="36"/>
      </g>
     </g>
     <g id="text_6">
      <!-- 81 -->
      <defs>
       <path d="M 31.78125 34.625 
Q 24.75 34.625 20.71875 30.859375 
Q 16.703125 27.09375 16.703125 20.515625 
Q 16.703125 13.921875 20.71875 10.15625 
Q 24.75 6.390625 31.78125 6.390625 
Q 38.8125 6.390625 42.859375 10.171875 
Q 46.921875 13.96875 46.921875 20.515625 
Q 46.921875 27.09375 42.890625 30.859375 
Q 38.875 34.625 31.78125 34.625 
z
M 21.921875 38.8125 
Q 15.578125 40.375 12.03125 44.71875 
Q 8.5 49.078125 8.5 55.328125 
Q 8.5 64.0625 14.71875 69.140625 
Q 20.953125 74.21875 31.78125 74.21875 
Q 42.671875 74.21875 48.875 69.140625 
Q 55.078125 64.0625 55.078125 55.328125 
Q 55.078125 49.078125 51.53125 44.71875 
Q 48 40.375 41.703125 38.8125 
Q 48.828125 37.15625 52.796875 32.3125 
Q 56.78125 27.484375 56.78125 20.515625 
Q 56.78125 9.90625 50.3125 4.234375 
Q 43.84375 -1.421875 31.78125 -1.421875 
Q 19.734375 -1.421875 13.25 4.234375 
Q 6.78125 9.90625 6.78125 20.515625 
Q 6.78125 27.484375 10.78125 32.3125 
Q 14.796875 37.15625 21.921875 38.8125 
z
M 18.3125 54.390625 
Q 18.3125 48.734375 21.84375 45.5625 
Q 25.390625 42.390625 31.78125 42.390625 
Q 38.140625 42.390625 41.71875 45.5625 
Q 45.3125 48.734375 45.3125 54.390625 
Q 45.3125 60.0625 41.71875 63.234375 
Q 38.140625 66.40625 31.78125 66.40625 
Q 25.390625 66.40625 21.84375 63.234375 
Q 18.3125 60.0625 18.3125 54.390625 
z
" id="DejaVuSans-56"/>
      </defs>
      <g transform="translate(368.070481 337.118125)scale(0.12 -0.12)">
       <use xlink:href="#DejaVuSans-56"/>
       <use x="63.623047" xlink:href="#DejaVuSans-49"/>
      </g>
     </g>
    </g>
    <g id="xtick_7">
     <g id="line2d_21">
      <g>
       <use style="stroke:#000000;stroke-width:0.5;" x="428.280857" xlink:href="#m8b97f022a6" y="324"/>
      </g>
     </g>
     <g id="line2d_22">
      <g>
       <use style="stroke:#000000;stroke-width:0.5;" x="428.280857" xlink:href="#m70875f5893" y="36"/>
      </g>
     </g>
     <g id="text_7">
      <!-- 97 -->
      <g transform="translate(420.645857 337.118125)scale(0.12 -0.12)">
       <use xlink:href="#DejaVuSans-57"/>
       <use x="63.623047" xlink:href="#DejaVuSans-55"/>
      </g>
     </g>
    </g>
    <g id="xtick_8">
     <g id="line2d_23">
      <g>
       <use style="stroke:#000000;stroke-width:0.5;" x="480.856234" xlink:href="#m8b97f022a6" y="324"/>
      </g>
     </g>
     <g id="line2d_24">
      <g>
       <use style="stroke:#000000;stroke-width:0.5;" x="480.856234" xlink:href="#m70875f5893" y="36"/>
      </g>
     </g>
     <g id="text_8">
      <!-- 113 -->
      <g transform="translate(469.403734 337.118125)scale(0.12 -0.12)">
       <use xlink:href="#DejaVuSans-49"/>
       <use x="63.623047" xlink:href="#DejaVuSans-49"/>
       <use x="127.246094" xlink:href="#DejaVuSans-51"/>
      </g>
     </g>
    </g>
    <g id="xtick_9">
     <g id="line2d_25">
      <g>
       <use style="stroke:#000000;stroke-width:0.5;" x="533.431611" xlink:href="#m8b97f022a6" y="324"/>
      </g>
     </g>
     <g id="line2d_26">
      <g>
       <use style="stroke:#000000;stroke-width:0.5;" x="533.431611" xlink:href="#m70875f5893" y="36"/>
      </g>
     </g>
     <g id="text_9">
      <!-- 129 -->
      <defs>
       <path d="M 19.1875 8.296875 
L 53.609375 8.296875 
L 53.609375 0 
L 7.328125 0 
L 7.328125 8.296875 
Q 12.9375 14.109375 22.625 23.890625 
Q 32.328125 33.6875 34.8125 36.53125 
Q 39.546875 41.84375 41.421875 45.53125 
Q 43.3125 49.21875 43.3125 52.78125 
Q 43.3125 58.59375 39.234375 62.25 
Q 35.15625 65.921875 28.609375 65.921875 
Q 23.96875 65.921875 18.8125 64.3125 
Q 13.671875 62.703125 7.8125 59.421875 
L 7.8125 69.390625 
Q 13.765625 71.78125 18.9375 73 
Q 24.125 74.21875 28.421875 74.21875 
Q 39.75 74.21875 46.484375 68.546875 
Q 53.21875 62.890625 53.21875 53.421875 
Q 53.21875 48.921875 51.53125 44.890625 
Q 49.859375 40.875 45.40625 35.40625 
Q 44.1875 33.984375 37.640625 27.21875 
Q 31.109375 20.453125 19.1875 8.296875 
z
" id="DejaVuSans-50"/>
      </defs>
      <g transform="translate(521.979111 337.118125)scale(0.12 -0.12)">
       <use xlink:href="#DejaVuSans-49"/>
       <use x="63.623047" xlink:href="#DejaVuSans-50"/>
       <use x="127.246094" xlink:href="#DejaVuSans-57"/>
      </g>
     </g>
    </g>
    <g id="xtick_10">
     <g id="line2d_27">
      <g>
       <use style="stroke:#000000;stroke-width:0.5;" x="586.006988" xlink:href="#m8b97f022a6" y="324"/>
      </g>
     </g>
     <g id="line2d_28">
      <g>
       <use style="stroke:#000000;stroke-width:0.5;" x="586.006988" xlink:href="#m70875f5893" y="36"/>
      </g>
     </g>
     <g id="text_10">
      <!-- 145 -->
      <g transform="translate(574.554488 337.118125)scale(0.12 -0.12)">
       <use xlink:href="#DejaVuSans-49"/>
       <use x="63.623047" xlink:href="#DejaVuSans-52"/>
       <use x="127.246094" xlink:href="#DejaVuSans-53"/>
      </g>
     </g>
    </g>
    <g id="text_11">
     <!-- generation -->
     <defs>
      <path d="M 45.40625 27.984375 
Q 45.40625 37.75 41.375 43.109375 
Q 37.359375 48.484375 30.078125 48.484375 
Q 22.859375 48.484375 18.828125 43.109375 
Q 14.796875 37.75 14.796875 27.984375 
Q 14.796875 18.265625 18.828125 12.890625 
Q 22.859375 7.515625 30.078125 7.515625 
Q 37.359375 7.515625 41.375 12.890625 
Q 45.40625 18.265625 45.40625 27.984375 
z
M 54.390625 6.78125 
Q 54.390625 -7.171875 48.1875 -13.984375 
Q 42 -20.796875 29.203125 -20.796875 
Q 24.46875 -20.796875 20.265625 -20.09375 
Q 16.0625 -19.390625 12.109375 -17.921875 
L 12.109375 -9.1875 
Q 16.0625 -11.328125 19.921875 -12.34375 
Q 23.78125 -13.375 27.78125 -13.375 
Q 36.625 -13.375 41.015625 -8.765625 
Q 45.40625 -4.15625 45.40625 5.171875 
L 45.40625 9.625 
Q 42.625 4.78125 38.28125 2.390625 
Q 33.9375 0 27.875 0 
Q 17.828125 0 11.671875 7.65625 
Q 5.515625 15.328125 5.515625 27.984375 
Q 5.515625 40.671875 11.671875 48.328125 
Q 17.828125 56 27.875 56 
Q 33.9375 56 38.28125 53.609375 
Q 42.625 51.21875 45.40625 46.390625 
L 45.40625 54.6875 
L 54.390625 54.6875 
z
" id="DejaVuSans-103"/>
      <path d="M 56.203125 29.59375 
L 56.203125 25.203125 
L 14.890625 25.203125 
Q 15.484375 15.921875 20.484375 11.0625 
Q 25.484375 6.203125 34.421875 6.203125 
Q 39.59375 6.203125 44.453125 7.46875 
Q 49.3125 8.734375 54.109375 11.28125 
L 54.109375 2.78125 
Q 49.265625 0.734375 44.1875 -0.34375 
Q 39.109375 -1.421875 33.890625 -1.421875 
Q 20.796875 -1.421875 13.15625 6.1875 
Q 5.515625 13.8125 5.515625 26.8125 
Q 5.515625 40.234375 12.765625 48.109375 
Q 20.015625 56 32.328125 56 
Q 43.359375 56 49.78125 48.890625 
Q 56.203125 41.796875 56.203125 29.59375 
z
M 47.21875 32.234375 
Q 47.125 39.59375 43.09375 43.984375 
Q 39.0625 48.390625 32.421875 48.390625 
Q 24.90625 48.390625 20.390625 44.140625 
Q 15.875 39.890625 15.1875 32.171875 
z
" id="DejaVuSans-101"/>
      <path d="M 54.890625 33.015625 
L 54.890625 0 
L 45.90625 0 
L 45.90625 32.71875 
Q 45.90625 40.484375 42.875 44.328125 
Q 39.84375 48.1875 33.796875 48.1875 
Q 26.515625 48.1875 22.3125 43.546875 
Q 18.109375 38.921875 18.109375 30.90625 
L 18.109375 0 
L 9.078125 0 
L 9.078125 54.6875 
L 18.109375 54.6875 
L 18.109375 46.1875 
Q 21.34375 51.125 25.703125 53.5625 
Q 30.078125 56 35.796875 56 
Q 45.21875 56 50.046875 50.171875 
Q 54.890625 44.34375 54.890625 33.015625 
z
" id="DejaVuSans-110"/>
      <path d="M 41.109375 46.296875 
Q 39.59375 47.171875 37.8125 47.578125 
Q 36.03125 48 33.890625 48 
Q 26.265625 48 22.1875 43.046875 
Q 18.109375 38.09375 18.109375 28.8125 
L 18.109375 0 
L 9.078125 0 
L 9.078125 54.6875 
L 18.109375 54.6875 
L 18.109375 46.1875 
Q 20.953125 51.171875 25.484375 53.578125 
Q 30.03125 56 36.53125 56 
Q 37.453125 56 38.578125 55.875 
Q 39.703125 55.765625 41.0625 55.515625 
z
" id="DejaVuSans-114"/>
      <path d="M 34.28125 27.484375 
Q 23.390625 27.484375 19.1875 25 
Q 14.984375 22.515625 14.984375 16.5 
Q 14.984375 11.71875 18.140625 8.90625 
Q 21.296875 6.109375 26.703125 6.109375 
Q 34.1875 6.109375 38.703125 11.40625 
Q 43.21875 16.703125 43.21875 25.484375 
L 43.21875 27.484375 
z
M 52.203125 31.203125 
L 52.203125 0 
L 43.21875 0 
L 43.21875 8.296875 
Q 40.140625 3.328125 35.546875 0.953125 
Q 30.953125 -1.421875 24.3125 -1.421875 
Q 15.921875 -1.421875 10.953125 3.296875 
Q 6 8.015625 6 15.921875 
Q 6 25.140625 12.171875 29.828125 
Q 18.359375 34.515625 30.609375 34.515625 
L 43.21875 34.515625 
L 43.21875 35.40625 
Q 43.21875 41.609375 39.140625 45 
Q 35.0625 48.390625 27.6875 48.390625 
Q 23 48.390625 18.546875 47.265625 
Q 14.109375 46.140625 10.015625 43.890625 
L 10.015625 52.203125 
Q 14.9375 54.109375 19.578125 55.046875 
Q 24.21875 56 28.609375 56 
Q 40.484375 56 46.34375 49.84375 
Q 52.203125 43.703125 52.203125 31.203125 
z
" id="DejaVuSans-97"/>
      <path d="M 18.3125 70.21875 
L 18.3125 54.6875 
L 36.8125 54.6875 
L 36.8125 47.703125 
L 18.3125 47.703125 
L 18.3125 18.015625 
Q 18.3125 11.328125 20.140625 9.421875 
Q 21.96875 7.515625 27.59375 7.515625 
L 36.8125 7.515625 
L 36.8125 0 
L 27.59375 0 
Q 17.1875 0 13.234375 3.875 
Q 9.28125 7.765625 9.28125 18.015625 
L 9.28125 47.703125 
L 2.6875 47.703125 
L 2.6875 54.6875 
L 9.28125 54.6875 
L 9.28125 70.21875 
z
" id="DejaVuSans-116"/>
      <path d="M 9.421875 54.6875 
L 18.40625 54.6875 
L 18.40625 0 
L 9.421875 0 
z
M 9.421875 75.984375 
L 18.40625 75.984375 
L 18.40625 64.59375 
L 9.421875 64.59375 
z
" id="DejaVuSans-105"/>
      <path d="M 30.609375 48.390625 
Q 23.390625 48.390625 19.1875 42.75 
Q 14.984375 37.109375 14.984375 27.296875 
Q 14.984375 17.484375 19.15625 11.84375 
Q 23.34375 6.203125 30.609375 6.203125 
Q 37.796875 6.203125 41.984375 11.859375 
Q 46.1875 17.53125 46.1875 27.296875 
Q 46.1875 37.015625 41.984375 42.703125 
Q 37.796875 48.390625 30.609375 48.390625 
z
M 30.609375 56 
Q 42.328125 56 49.015625 48.375 
Q 55.71875 40.765625 55.71875 27.296875 
Q 55.71875 13.875 49.015625 6.21875 
Q 42.328125 -1.421875 30.609375 -1.421875 
Q 18.84375 -1.421875 12.171875 6.21875 
Q 5.515625 13.875 5.515625 27.296875 
Q 5.515625 40.765625 12.171875 48.375 
Q 18.84375 56 30.609375 56 
z
" id="DejaVuSans-111"/>
     </defs>
     <g transform="translate(341.430938 353.731875)scale(0.12 -0.12)">
      <use xlink:href="#DejaVuSans-103"/>
      <use x="63.476562" xlink:href="#DejaVuSans-101"/>
      <use x="125" xlink:href="#DejaVuSans-110"/>
      <use x="188.378906" xlink:href="#DejaVuSans-101"/>
      <use x="249.902344" xlink:href="#DejaVuSans-114"/>
      <use x="291.015625" xlink:href="#DejaVuSans-97"/>
      <use x="352.294922" xlink:href="#DejaVuSans-116"/>
      <use x="391.503906" xlink:href="#DejaVuSans-105"/>
      <use x="419.287109" xlink:href="#DejaVuSans-111"/>
      <use x="480.46875" xlink:href="#DejaVuSans-110"/>
     </g>
    </g>
   </g>
   <g id="matplotlib.axis_2">
    <g id="ytick_1">
     <g id="line2d_29">
      <defs>
       <path d="M 0 0 
L 4 0 
" id="ma903b47c9d" style="stroke:#000000;stroke-width:0.5;"/>
      </defs>
      <g>
       <use style="stroke:#000000;stroke-width:0.5;" x="112.5" xlink:href="#ma903b47c9d" y="324"/>
      </g>
     </g>
     <g id="line2d_30">
      <defs>
       <path d="M 0 0 
L -4 0 
" id="m56598952f9" style="stroke:#000000;stroke-width:0.5;"/>
      </defs>
      <g>
       <use style="stroke:#000000;stroke-width:0.5;" x="635.625" xlink:href="#m56598952f9" y="324"/>
      </g>
     </g>
     <g id="text_12">
      <!-- 0.89 -->
      <defs>
       <path d="M 31.78125 66.40625 
Q 24.171875 66.40625 20.328125 58.90625 
Q 16.5 51.421875 16.5 36.375 
Q 16.5 21.390625 20.328125 13.890625 
Q 24.171875 6.390625 31.78125 6.390625 
Q 39.453125 6.390625 43.28125 13.890625 
Q 47.125 21.390625 47.125 36.375 
Q 47.125 51.421875 43.28125 58.90625 
Q 39.453125 66.40625 31.78125 66.40625 
z
M 31.78125 74.21875 
Q 44.046875 74.21875 50.515625 64.515625 
Q 56.984375 54.828125 56.984375 36.375 
Q 56.984375 17.96875 50.515625 8.265625 
Q 44.046875 -1.421875 31.78125 -1.421875 
Q 19.53125 -1.421875 13.0625 8.265625 
Q 6.59375 17.96875 6.59375 36.375 
Q 6.59375 54.828125 13.0625 64.515625 
Q 19.53125 74.21875 31.78125 74.21875 
z
" id="DejaVuSans-48"/>
       <path d="M 10.6875 12.40625 
L 21 12.40625 
L 21 0 
L 10.6875 0 
z
" id="DejaVuSans-46"/>
      </defs>
      <g transform="translate(81.78125 327.31125)scale(0.12 -0.12)">
       <use xlink:href="#DejaVuSans-48"/>
       <use x="63.623047" xlink:href="#DejaVuSans-46"/>
       <use x="95.410156" xlink:href="#DejaVuSans-56"/>
       <use x="159.033203" xlink:href="#DejaVuSans-57"/>
      </g>
     </g>
    </g>
    <g id="ytick_2">
     <g id="line2d_31">
      <g>
       <use style="stroke:#000000;stroke-width:0.5;" x="112.5" xlink:href="#ma903b47c9d" y="282.857143"/>
      </g>
     </g>
     <g id="line2d_32">
      <g>
       <use style="stroke:#000000;stroke-width:0.5;" x="635.625" xlink:href="#m56598952f9" y="282.857143"/>
      </g>
     </g>
     <g id="text_13">
      <!-- 0.90 -->
      <g transform="translate(81.78125 286.168393)scale(0.12 -0.12)">
       <use xlink:href="#DejaVuSans-48"/>
       <use x="63.623047" xlink:href="#DejaVuSans-46"/>
       <use x="95.410156" xlink:href="#DejaVuSans-57"/>
       <use x="159.033203" xlink:href="#DejaVuSans-48"/>
      </g>
     </g>
    </g>
    <g id="ytick_3">
     <g id="line2d_33">
      <g>
       <use style="stroke:#000000;stroke-width:0.5;" x="112.5" xlink:href="#ma903b47c9d" y="241.714286"/>
      </g>
     </g>
     <g id="line2d_34">
      <g>
       <use style="stroke:#000000;stroke-width:0.5;" x="635.625" xlink:href="#m56598952f9" y="241.714286"/>
      </g>
     </g>
     <g id="text_14">
      <!-- 0.91 -->
      <g transform="translate(81.78125 245.025536)scale(0.12 -0.12)">
       <use xlink:href="#DejaVuSans-48"/>
       <use x="63.623047" xlink:href="#DejaVuSans-46"/>
       <use x="95.410156" xlink:href="#DejaVuSans-57"/>
       <use x="159.033203" xlink:href="#DejaVuSans-49"/>
      </g>
     </g>
    </g>
    <g id="ytick_4">
     <g id="line2d_35">
      <g>
       <use style="stroke:#000000;stroke-width:0.5;" x="112.5" xlink:href="#ma903b47c9d" y="200.571429"/>
      </g>
     </g>
     <g id="line2d_36">
      <g>
       <use style="stroke:#000000;stroke-width:0.5;" x="635.625" xlink:href="#m56598952f9" y="200.571429"/>
      </g>
     </g>
     <g id="text_15">
      <!-- 0.92 -->
      <g transform="translate(81.78125 203.882679)scale(0.12 -0.12)">
       <use xlink:href="#DejaVuSans-48"/>
       <use x="63.623047" xlink:href="#DejaVuSans-46"/>
       <use x="95.410156" xlink:href="#DejaVuSans-57"/>
       <use x="159.033203" xlink:href="#DejaVuSans-50"/>
      </g>
     </g>
    </g>
    <g id="ytick_5">
     <g id="line2d_37">
      <g>
       <use style="stroke:#000000;stroke-width:0.5;" x="112.5" xlink:href="#ma903b47c9d" y="159.428571"/>
      </g>
     </g>
     <g id="line2d_38">
      <g>
       <use style="stroke:#000000;stroke-width:0.5;" x="635.625" xlink:href="#m56598952f9" y="159.428571"/>
      </g>
     </g>
     <g id="text_16">
      <!-- 0.93 -->
      <g transform="translate(81.78125 162.739821)scale(0.12 -0.12)">
       <use xlink:href="#DejaVuSans-48"/>
       <use x="63.623047" xlink:href="#DejaVuSans-46"/>
       <use x="95.410156" xlink:href="#DejaVuSans-57"/>
       <use x="159.033203" xlink:href="#DejaVuSans-51"/>
      </g>
     </g>
    </g>
    <g id="ytick_6">
     <g id="line2d_39">
      <g>
       <use style="stroke:#000000;stroke-width:0.5;" x="112.5" xlink:href="#ma903b47c9d" y="118.285714"/>
      </g>
     </g>
     <g id="line2d_40">
      <g>
       <use style="stroke:#000000;stroke-width:0.5;" x="635.625" xlink:href="#m56598952f9" y="118.285714"/>
      </g>
     </g>
     <g id="text_17">
      <!-- 0.94 -->
      <g transform="translate(81.78125 121.596964)scale(0.12 -0.12)">
       <use xlink:href="#DejaVuSans-48"/>
       <use x="63.623047" xlink:href="#DejaVuSans-46"/>
       <use x="95.410156" xlink:href="#DejaVuSans-57"/>
       <use x="159.033203" xlink:href="#DejaVuSans-52"/>
      </g>
     </g>
    </g>
    <g id="ytick_7">
     <g id="line2d_41">
      <g>
       <use style="stroke:#000000;stroke-width:0.5;" x="112.5" xlink:href="#ma903b47c9d" y="77.142857"/>
      </g>
     </g>
     <g id="line2d_42">
      <g>
       <use style="stroke:#000000;stroke-width:0.5;" x="635.625" xlink:href="#m56598952f9" y="77.142857"/>
      </g>
     </g>
     <g id="text_18">
      <!-- 0.95 -->
      <g transform="translate(81.78125 80.454107)scale(0.12 -0.12)">
       <use xlink:href="#DejaVuSans-48"/>
       <use x="63.623047" xlink:href="#DejaVuSans-46"/>
       <use x="95.410156" xlink:href="#DejaVuSans-57"/>
       <use x="159.033203" xlink:href="#DejaVuSans-53"/>
      </g>
     </g>
    </g>
    <g id="ytick_8">
     <g id="line2d_43">
      <g>
       <use style="stroke:#000000;stroke-width:0.5;" x="112.5" xlink:href="#ma903b47c9d" y="36"/>
      </g>
     </g>
     <g id="line2d_44">
      <g>
       <use style="stroke:#000000;stroke-width:0.5;" x="635.625" xlink:href="#m56598952f9" y="36"/>
      </g>
     </g>
     <g id="text_19">
      <!-- 0.96 -->
      <g transform="translate(81.78125 39.31125)scale(0.12 -0.12)">
       <use xlink:href="#DejaVuSans-48"/>
       <use x="63.623047" xlink:href="#DejaVuSans-46"/>
       <use x="95.410156" xlink:href="#DejaVuSans-57"/>
       <use x="159.033203" xlink:href="#DejaVuSans-54"/>
      </g>
     </g>
    </g>
    <g id="text_20">
     <!-- accuracy -->
     <defs>
      <path d="M 48.78125 52.59375 
L 48.78125 44.1875 
Q 44.96875 46.296875 41.140625 47.34375 
Q 37.3125 48.390625 33.40625 48.390625 
Q 24.65625 48.390625 19.8125 42.84375 
Q 14.984375 37.3125 14.984375 27.296875 
Q 14.984375 17.28125 19.8125 11.734375 
Q 24.65625 6.203125 33.40625 6.203125 
Q 37.3125 6.203125 41.140625 7.25 
Q 44.96875 8.296875 48.78125 10.40625 
L 48.78125 2.09375 
Q 45.015625 0.34375 40.984375 -0.53125 
Q 36.96875 -1.421875 32.421875 -1.421875 
Q 20.0625 -1.421875 12.78125 6.34375 
Q 5.515625 14.109375 5.515625 27.296875 
Q 5.515625 40.671875 12.859375 48.328125 
Q 20.21875 56 33.015625 56 
Q 37.15625 56 41.109375 55.140625 
Q 45.0625 54.296875 48.78125 52.59375 
z
" id="DejaVuSans-99"/>
      <path d="M 8.5 21.578125 
L 8.5 54.6875 
L 17.484375 54.6875 
L 17.484375 21.921875 
Q 17.484375 14.15625 20.5 10.265625 
Q 23.53125 6.390625 29.59375 6.390625 
Q 36.859375 6.390625 41.078125 11.03125 
Q 45.3125 15.671875 45.3125 23.6875 
L 45.3125 54.6875 
L 54.296875 54.6875 
L 54.296875 0 
L 45.3125 0 
L 45.3125 8.40625 
Q 42.046875 3.421875 37.71875 1 
Q 33.40625 -1.421875 27.6875 -1.421875 
Q 18.265625 -1.421875 13.375 4.4375 
Q 8.5 10.296875 8.5 21.578125 
z
M 31.109375 56 
z
" id="DejaVuSans-117"/>
      <path d="M 32.171875 -5.078125 
Q 28.375 -14.84375 24.75 -17.8125 
Q 21.140625 -20.796875 15.09375 -20.796875 
L 7.90625 -20.796875 
L 7.90625 -13.28125 
L 13.1875 -13.28125 
Q 16.890625 -13.28125 18.9375 -11.515625 
Q 21 -9.765625 23.484375 -3.21875 
L 25.09375 0.875 
L 2.984375 54.6875 
L 12.5 54.6875 
L 29.59375 11.921875 
L 46.6875 54.6875 
L 56.203125 54.6875 
z
" id="DejaVuSans-121"/>
     </defs>
     <g transform="translate(74.285625 207.07125)rotate(-90)scale(0.12 -0.12)">
      <use xlink:href="#DejaVuSans-97"/>
      <use x="61.279297" xlink:href="#DejaVuSans-99"/>
      <use x="116.259766" xlink:href="#DejaVuSans-99"/>
      <use x="171.240234" xlink:href="#DejaVuSans-117"/>
      <use x="234.619141" xlink:href="#DejaVuSans-114"/>
      <use x="275.732422" xlink:href="#DejaVuSans-97"/>
      <use x="337.011719" xlink:href="#DejaVuSans-99"/>
      <use x="391.992188" xlink:href="#DejaVuSans-121"/>
     </g>
    </g>
   </g>
   <g id="legend_1">
    <g id="patch_7">
     <path d="M 640.623 241.30047 
L 771.156703 241.30047 
L 771.156703 118.69953 
L 640.623 118.69953 
z
" style="fill:#ffffff;stroke:#000000;stroke-linejoin:miter;"/>
    </g>
    <g id="line2d_45">
     <path d="M 647.6202 126.794728 
L 661.6146 126.794728 
" style="fill:none;stroke:#0000ff;stroke-linecap:square;stroke-width:1.2;"/>
    </g>
    <g id="line2d_46"/>
    <g id="text_21">
     <!-- Lonely_Loss_Exp_2 -->
     <defs>
      <path d="M 9.8125 72.90625 
L 19.671875 72.90625 
L 19.671875 8.296875 
L 55.171875 8.296875 
L 55.171875 0 
L 9.8125 0 
z
" id="DejaVuSans-76"/>
      <path d="M 9.421875 75.984375 
L 18.40625 75.984375 
L 18.40625 0 
L 9.421875 0 
z
" id="DejaVuSans-108"/>
      <path d="M 50.984375 -16.609375 
L 50.984375 -23.578125 
L -0.984375 -23.578125 
L -0.984375 -16.609375 
z
" id="DejaVuSans-95"/>
      <path d="M 44.28125 53.078125 
L 44.28125 44.578125 
Q 40.484375 46.53125 36.375 47.5 
Q 32.28125 48.484375 27.875 48.484375 
Q 21.1875 48.484375 17.84375 46.4375 
Q 14.5 44.390625 14.5 40.28125 
Q 14.5 37.15625 16.890625 35.375 
Q 19.28125 33.59375 26.515625 31.984375 
L 29.59375 31.296875 
Q 39.15625 29.25 43.1875 25.515625 
Q 47.21875 21.78125 47.21875 15.09375 
Q 47.21875 7.46875 41.1875 3.015625 
Q 35.15625 -1.421875 24.609375 -1.421875 
Q 20.21875 -1.421875 15.453125 -0.5625 
Q 10.6875 0.296875 5.421875 2 
L 5.421875 11.28125 
Q 10.40625 8.6875 15.234375 7.390625 
Q 20.0625 6.109375 24.8125 6.109375 
Q 31.15625 6.109375 34.5625 8.28125 
Q 37.984375 10.453125 37.984375 14.40625 
Q 37.984375 18.0625 35.515625 20.015625 
Q 33.0625 21.96875 24.703125 23.78125 
L 21.578125 24.515625 
Q 13.234375 26.265625 9.515625 29.90625 
Q 5.8125 33.546875 5.8125 39.890625 
Q 5.8125 47.609375 11.28125 51.796875 
Q 16.75 56 26.8125 56 
Q 31.78125 56 36.171875 55.265625 
Q 40.578125 54.546875 44.28125 53.078125 
z
" id="DejaVuSans-115"/>
      <path d="M 9.8125 72.90625 
L 55.90625 72.90625 
L 55.90625 64.59375 
L 19.671875 64.59375 
L 19.671875 43.015625 
L 54.390625 43.015625 
L 54.390625 34.71875 
L 19.671875 34.71875 
L 19.671875 8.296875 
L 56.78125 8.296875 
L 56.78125 0 
L 9.8125 0 
z
" id="DejaVuSans-69"/>
      <path d="M 54.890625 54.6875 
L 35.109375 28.078125 
L 55.90625 0 
L 45.3125 0 
L 29.390625 21.484375 
L 13.484375 0 
L 2.875 0 
L 24.125 28.609375 
L 4.6875 54.6875 
L 15.28125 54.6875 
L 29.78125 35.203125 
L 44.28125 54.6875 
z
" id="DejaVuSans-120"/>
      <path d="M 18.109375 8.203125 
L 18.109375 -20.796875 
L 9.078125 -20.796875 
L 9.078125 54.6875 
L 18.109375 54.6875 
L 18.109375 46.390625 
Q 20.953125 51.265625 25.265625 53.625 
Q 29.59375 56 35.59375 56 
Q 45.5625 56 51.78125 48.09375 
Q 58.015625 40.1875 58.015625 27.296875 
Q 58.015625 14.40625 51.78125 6.484375 
Q 45.5625 -1.421875 35.59375 -1.421875 
Q 29.59375 -1.421875 25.265625 0.953125 
Q 20.953125 3.328125 18.109375 8.203125 
z
M 48.6875 27.296875 
Q 48.6875 37.203125 44.609375 42.84375 
Q 40.53125 48.484375 33.40625 48.484375 
Q 26.265625 48.484375 22.1875 42.84375 
Q 18.109375 37.203125 18.109375 27.296875 
Q 18.109375 17.390625 22.1875 11.75 
Q 26.265625 6.109375 33.40625 6.109375 
Q 40.53125 6.109375 44.609375 11.75 
Q 48.6875 17.390625 48.6875 27.296875 
z
" id="DejaVuSans-112"/>
     </defs>
     <g transform="translate(672.6102 130.293328)scale(0.09996 -0.09996)">
      <use xlink:href="#DejaVuSans-76"/>
      <use x="53.962891" xlink:href="#DejaVuSans-111"/>
      <use x="115.144531" xlink:href="#DejaVuSans-110"/>
      <use x="178.523438" xlink:href="#DejaVuSans-101"/>
      <use x="240.046875" xlink:href="#DejaVuSans-108"/>
      <use x="267.830078" xlink:href="#DejaVuSans-121"/>
      <use x="327.009766" xlink:href="#DejaVuSans-95"/>
      <use x="377.009766" xlink:href="#DejaVuSans-76"/>
      <use x="430.972656" xlink:href="#DejaVuSans-111"/>
      <use x="492.154297" xlink:href="#DejaVuSans-115"/>
      <use x="544.253906" xlink:href="#DejaVuSans-115"/>
      <use x="596.353516" xlink:href="#DejaVuSans-95"/>
      <use x="646.353516" xlink:href="#DejaVuSans-69"/>
      <use x="709.537109" xlink:href="#DejaVuSans-120"/>
      <use x="768.716797" xlink:href="#DejaVuSans-112"/>
      <use x="832.193359" xlink:href="#DejaVuSans-95"/>
      <use x="882.193359" xlink:href="#DejaVuSans-50"/>
     </g>
    </g>
    <g id="line2d_47">
     <path d="M 647.6202 141.744996 
L 661.6146 141.744996 
" style="fill:none;stroke:#008000;stroke-linecap:square;stroke-width:1.2;"/>
    </g>
    <g id="line2d_48"/>
    <g id="text_22">
     <!-- Lonely_Loss_Exp_3 -->
     <g transform="translate(672.6102 145.243596)scale(0.09996 -0.09996)">
      <use xlink:href="#DejaVuSans-76"/>
      <use x="53.962891" xlink:href="#DejaVuSans-111"/>
      <use x="115.144531" xlink:href="#DejaVuSans-110"/>
      <use x="178.523438" xlink:href="#DejaVuSans-101"/>
      <use x="240.046875" xlink:href="#DejaVuSans-108"/>
      <use x="267.830078" xlink:href="#DejaVuSans-121"/>
      <use x="327.009766" xlink:href="#DejaVuSans-95"/>
      <use x="377.009766" xlink:href="#DejaVuSans-76"/>
      <use x="430.972656" xlink:href="#DejaVuSans-111"/>
      <use x="492.154297" xlink:href="#DejaVuSans-115"/>
      <use x="544.253906" xlink:href="#DejaVuSans-115"/>
      <use x="596.353516" xlink:href="#DejaVuSans-95"/>
      <use x="646.353516" xlink:href="#DejaVuSans-69"/>
      <use x="709.537109" xlink:href="#DejaVuSans-120"/>
      <use x="768.716797" xlink:href="#DejaVuSans-112"/>
      <use x="832.193359" xlink:href="#DejaVuSans-95"/>
      <use x="882.193359" xlink:href="#DejaVuSans-51"/>
     </g>
    </g>
    <g id="line2d_49">
     <path d="M 647.6202 156.695263 
L 661.6146 156.695263 
" style="fill:none;stroke:#ff0000;stroke-linecap:square;stroke-width:1.2;"/>
    </g>
    <g id="line2d_50"/>
    <g id="text_23">
     <!-- Lonely_Loss_Exp_4 -->
     <g transform="translate(672.6102 160.193863)scale(0.09996 -0.09996)">
      <use xlink:href="#DejaVuSans-76"/>
      <use x="53.962891" xlink:href="#DejaVuSans-111"/>
      <use x="115.144531" xlink:href="#DejaVuSans-110"/>
      <use x="178.523438" xlink:href="#DejaVuSans-101"/>
      <use x="240.046875" xlink:href="#DejaVuSans-108"/>
      <use x="267.830078" xlink:href="#DejaVuSans-121"/>
      <use x="327.009766" xlink:href="#DejaVuSans-95"/>
      <use x="377.009766" xlink:href="#DejaVuSans-76"/>
      <use x="430.972656" xlink:href="#DejaVuSans-111"/>
      <use x="492.154297" xlink:href="#DejaVuSans-115"/>
      <use x="544.253906" xlink:href="#DejaVuSans-115"/>
      <use x="596.353516" xlink:href="#DejaVuSans-95"/>
      <use x="646.353516" xlink:href="#DejaVuSans-69"/>
      <use x="709.537109" xlink:href="#DejaVuSans-120"/>
      <use x="768.716797" xlink:href="#DejaVuSans-112"/>
      <use x="832.193359" xlink:href="#DejaVuSans-95"/>
      <use x="882.193359" xlink:href="#DejaVuSans-52"/>
     </g>
    </g>
    <g id="line2d_51">
     <path d="M 647.6202 171.645531 
L 661.6146 171.645531 
" style="fill:none;stroke:#00bfbf;stroke-linecap:square;stroke-width:1.2;"/>
    </g>
    <g id="line2d_52"/>
    <g id="text_24">
     <!-- Lonely_Loss_Exp_5 -->
     <g transform="translate(672.6102 175.144131)scale(0.09996 -0.09996)">
      <use xlink:href="#DejaVuSans-76"/>
      <use x="53.962891" xlink:href="#DejaVuSans-111"/>
      <use x="115.144531" xlink:href="#DejaVuSans-110"/>
      <use x="178.523438" xlink:href="#DejaVuSans-101"/>
      <use x="240.046875" xlink:href="#DejaVuSans-108"/>
      <use x="267.830078" xlink:href="#DejaVuSans-121"/>
      <use x="327.009766" xlink:href="#DejaVuSans-95"/>
      <use x="377.009766" xlink:href="#DejaVuSans-76"/>
      <use x="430.972656" xlink:href="#DejaVuSans-111"/>
      <use x="492.154297" xlink:href="#DejaVuSans-115"/>
      <use x="544.253906" xlink:href="#DejaVuSans-115"/>
      <use x="596.353516" xlink:href="#DejaVuSans-95"/>
      <use x="646.353516" xlink:href="#DejaVuSans-69"/>
      <use x="709.537109" xlink:href="#DejaVuSans-120"/>
      <use x="768.716797" xlink:href="#DejaVuSans-112"/>
      <use x="832.193359" xlink:href="#DejaVuSans-95"/>
      <use x="882.193359" xlink:href="#DejaVuSans-53"/>
     </g>
    </g>
    <g id="line2d_53">
     <path d="M 647.6202 186.595798 
L 661.6146 186.595798 
" style="fill:none;stroke:#bf00bf;stroke-linecap:square;stroke-width:1.2;"/>
    </g>
    <g id="line2d_54"/>
    <g id="text_25">
     <!-- Lonely_Loss_LS_2 -->
     <defs>
      <path d="M 53.515625 70.515625 
L 53.515625 60.890625 
Q 47.90625 63.578125 42.921875 64.890625 
Q 37.9375 66.21875 33.296875 66.21875 
Q 25.25 66.21875 20.875 63.09375 
Q 16.5 59.96875 16.5 54.203125 
Q 16.5 49.359375 19.40625 46.890625 
Q 22.3125 44.4375 30.421875 42.921875 
L 36.375 41.703125 
Q 47.40625 39.59375 52.65625 34.296875 
Q 57.90625 29 57.90625 20.125 
Q 57.90625 9.515625 50.796875 4.046875 
Q 43.703125 -1.421875 29.984375 -1.421875 
Q 24.8125 -1.421875 18.96875 -0.25 
Q 13.140625 0.921875 6.890625 3.21875 
L 6.890625 13.375 
Q 12.890625 10.015625 18.65625 8.296875 
Q 24.421875 6.59375 29.984375 6.59375 
Q 38.421875 6.59375 43.015625 9.90625 
Q 47.609375 13.234375 47.609375 19.390625 
Q 47.609375 24.75 44.3125 27.78125 
Q 41.015625 30.8125 33.5 32.328125 
L 27.484375 33.5 
Q 16.453125 35.6875 11.515625 40.375 
Q 6.59375 45.0625 6.59375 53.421875 
Q 6.59375 63.09375 13.40625 68.65625 
Q 20.21875 74.21875 32.171875 74.21875 
Q 37.3125 74.21875 42.625 73.28125 
Q 47.953125 72.359375 53.515625 70.515625 
z
" id="DejaVuSans-83"/>
     </defs>
     <g transform="translate(672.6102 190.094398)scale(0.09996 -0.09996)">
      <use xlink:href="#DejaVuSans-76"/>
      <use x="53.962891" xlink:href="#DejaVuSans-111"/>
      <use x="115.144531" xlink:href="#DejaVuSans-110"/>
      <use x="178.523438" xlink:href="#DejaVuSans-101"/>
      <use x="240.046875" xlink:href="#DejaVuSans-108"/>
      <use x="267.830078" xlink:href="#DejaVuSans-121"/>
      <use x="327.009766" xlink:href="#DejaVuSans-95"/>
      <use x="377.009766" xlink:href="#DejaVuSans-76"/>
      <use x="430.972656" xlink:href="#DejaVuSans-111"/>
      <use x="492.154297" xlink:href="#DejaVuSans-115"/>
      <use x="544.253906" xlink:href="#DejaVuSans-115"/>
      <use x="596.353516" xlink:href="#DejaVuSans-95"/>
      <use x="646.353516" xlink:href="#DejaVuSans-76"/>
      <use x="702.066406" xlink:href="#DejaVuSans-83"/>
      <use x="765.542969" xlink:href="#DejaVuSans-95"/>
      <use x="815.542969" xlink:href="#DejaVuSans-50"/>
     </g>
    </g>
    <g id="line2d_55">
     <path d="M 647.6202 201.546066 
L 661.6146 201.546066 
" style="fill:none;stroke:#bfbf00;stroke-linecap:square;stroke-width:1.2;"/>
    </g>
    <g id="line2d_56"/>
    <g id="text_26">
     <!-- Lonely_Loss_LS_3 -->
     <g transform="translate(672.6102 205.044666)scale(0.09996 -0.09996)">
      <use xlink:href="#DejaVuSans-76"/>
      <use x="53.962891" xlink:href="#DejaVuSans-111"/>
      <use x="115.144531" xlink:href="#DejaVuSans-110"/>
      <use x="178.523438" xlink:href="#DejaVuSans-101"/>
      <use x="240.046875" xlink:href="#DejaVuSans-108"/>
      <use x="267.830078" xlink:href="#DejaVuSans-121"/>
      <use x="327.009766" xlink:href="#DejaVuSans-95"/>
      <use x="377.009766" xlink:href="#DejaVuSans-76"/>
      <use x="430.972656" xlink:href="#DejaVuSans-111"/>
      <use x="492.154297" xlink:href="#DejaVuSans-115"/>
      <use x="544.253906" xlink:href="#DejaVuSans-115"/>
      <use x="596.353516" xlink:href="#DejaVuSans-95"/>
      <use x="646.353516" xlink:href="#DejaVuSans-76"/>
      <use x="702.066406" xlink:href="#DejaVuSans-83"/>
      <use x="765.542969" xlink:href="#DejaVuSans-95"/>
      <use x="815.542969" xlink:href="#DejaVuSans-51"/>
     </g>
    </g>
    <g id="line2d_57">
     <path d="M 647.6202 216.496333 
L 661.6146 216.496333 
" style="fill:none;stroke:#000000;stroke-linecap:square;stroke-width:1.2;"/>
    </g>
    <g id="line2d_58"/>
    <g id="text_27">
     <!-- Lonely_Loss_LS_4 -->
     <g transform="translate(672.6102 219.994933)scale(0.09996 -0.09996)">
      <use xlink:href="#DejaVuSans-76"/>
      <use x="53.962891" xlink:href="#DejaVuSans-111"/>
      <use x="115.144531" xlink:href="#DejaVuSans-110"/>
      <use x="178.523438" xlink:href="#DejaVuSans-101"/>
      <use x="240.046875" xlink:href="#DejaVuSans-108"/>
      <use x="267.830078" xlink:href="#DejaVuSans-121"/>
      <use x="327.009766" xlink:href="#DejaVuSans-95"/>
      <use x="377.009766" xlink:href="#DejaVuSans-76"/>
      <use x="430.972656" xlink:href="#DejaVuSans-111"/>
      <use x="492.154297" xlink:href="#DejaVuSans-115"/>
      <use x="544.253906" xlink:href="#DejaVuSans-115"/>
      <use x="596.353516" xlink:href="#DejaVuSans-95"/>
      <use x="646.353516" xlink:href="#DejaVuSans-76"/>
      <use x="702.066406" xlink:href="#DejaVuSans-83"/>
      <use x="765.542969" xlink:href="#DejaVuSans-95"/>
      <use x="815.542969" xlink:href="#DejaVuSans-52"/>
     </g>
    </g>
    <g id="line2d_59">
     <path d="M 647.6202 231.446601 
L 661.6146 231.446601 
" style="fill:none;stroke:#0000ff;stroke-linecap:square;stroke-width:1.2;"/>
    </g>
    <g id="line2d_60"/>
    <g id="text_28">
     <!-- Lonely_Loss_LS_5 -->
     <g transform="translate(672.6102 234.945201)scale(0.09996 -0.09996)">
      <use xlink:href="#DejaVuSans-76"/>
      <use x="53.962891" xlink:href="#DejaVuSans-111"/>
      <use x="115.144531" xlink:href="#DejaVuSans-110"/>
      <use x="178.523438" xlink:href="#DejaVuSans-101"/>
      <use x="240.046875" xlink:href="#DejaVuSans-108"/>
      <use x="267.830078" xlink:href="#DejaVuSans-121"/>
      <use x="327.009766" xlink:href="#DejaVuSans-95"/>
      <use x="377.009766" xlink:href="#DejaVuSans-76"/>
      <use x="430.972656" xlink:href="#DejaVuSans-111"/>
      <use x="492.154297" xlink:href="#DejaVuSans-115"/>
      <use x="544.253906" xlink:href="#DejaVuSans-115"/>
      <use x="596.353516" xlink:href="#DejaVuSans-95"/>
      <use x="646.353516" xlink:href="#DejaVuSans-76"/>
      <use x="702.066406" xlink:href="#DejaVuSans-83"/>
      <use x="765.542969" xlink:href="#DejaVuSans-95"/>
      <use x="815.542969" xlink:href="#DejaVuSans-53"/>
     </g>
    </g>
   </g>
  </g>
  <g id="text_29">
   <!-- Average Accuracy -->
   <defs>
    <path d="M 34.1875 63.1875 
L 20.796875 26.90625 
L 47.609375 26.90625 
z
M 28.609375 72.90625 
L 39.796875 72.90625 
L 67.578125 0 
L 57.328125 0 
L 50.6875 18.703125 
L 17.828125 18.703125 
L 11.1875 0 
L 0.78125 0 
z
" id="DejaVuSans-65"/>
    <path d="M 2.984375 54.6875 
L 12.5 54.6875 
L 29.59375 8.796875 
L 46.6875 54.6875 
L 56.203125 54.6875 
L 35.6875 0 
L 23.484375 0 
z
" id="DejaVuSans-118"/>
    <path id="DejaVuSans-32"/>
   </defs>
   <g transform="translate(396.06 16.318125)scale(0.12 -0.12)">
    <use xlink:href="#DejaVuSans-65"/>
    <use x="62.533203" xlink:href="#DejaVuSans-118"/>
    <use x="121.712891" xlink:href="#DejaVuSans-101"/>
    <use x="183.236328" xlink:href="#DejaVuSans-114"/>
    <use x="224.349609" xlink:href="#DejaVuSans-97"/>
    <use x="285.628906" xlink:href="#DejaVuSans-103"/>
    <use x="349.105469" xlink:href="#DejaVuSans-101"/>
    <use x="410.628906" xlink:href="#DejaVuSans-32"/>
    <use x="442.416016" xlink:href="#DejaVuSans-65"/>
    <use x="509.074219" xlink:href="#DejaVuSans-99"/>
    <use x="564.054688" xlink:href="#DejaVuSans-99"/>
    <use x="619.035156" xlink:href="#DejaVuSans-117"/>
    <use x="682.414062" xlink:href="#DejaVuSans-114"/>
    <use x="723.527344" xlink:href="#DejaVuSans-97"/>
    <use x="784.806641" xlink:href="#DejaVuSans-99"/>
    <use x="839.787109" xlink:href="#DejaVuSans-121"/>
   </g>
  </g>
 </g>
 <defs>
  <clipPath id="pc38b9e1956">
   <rect height="288" width="523.125" x="112.5" y="36"/>
  </clipPath>
 </defs>
</svg>
