<?xml version="1.0" encoding="utf-8" standalone="no"?>
<!DOCTYPE svg PUBLIC "-//W3C//DTD SVG 1.1//EN"
  "http://www.w3.org/Graphics/SVG/1.1/DTD/svg11.dtd">
<!-- Created with matplotlib (https://matplotlib.org/) -->
<svg height="360pt" version="1.1" viewBox="0 0 900 360" width="900pt" xmlns="http://www.w3.org/2000/svg" xmlns:xlink="http://www.w3.org/1999/xlink">
 <defs>
  <style type="text/css">
*{stroke-linecap:butt;stroke-linejoin:round;}
  </style>
 </defs>
 <g id="figure_1">
  <g id="patch_1">
   <path d="M 0 360 
L 900 360 
L 900 0 
L 0 0 
z
" style="fill:#ffffff;"/>
  </g>
  <g id="axes_1">
   <g id="patch_2">
    <path d="M 112.5 324 
L 635.625 324 
L 635.625 36 
L 112.5 36 
z
" style="fill:#ffffff;"/>
   </g>
   <g id="line2d_1">
    <path clip-path="url(#p978b0419aa)" d="M 109.542635 322.7148 
L 112.828596 322.47312 
L 119.400518 322.6512 
L 122.686479 322.48584 
L 125.97244 322.62576 
L 129.258401 321.93888 
L 132.544362 322.54944 
L 139.116285 322.3968 
L 142.402246 322.76568 
L 145.688207 322.47312 
L 148.974168 321.96432 
L 152.260129 321.81168 
L 155.54609 321.27744 
L 158.832051 321.1884 
L 162.118012 321.29016 
L 165.403973 320.78136 
L 168.689934 320.47608 
L 171.975895 321.40464 
L 175.261856 320.76864 
L 178.547817 320.94672 
L 181.833778 321.53184 
L 185.119739 321.70992 
L 188.4057 321.55728 
L 191.691661 321.51912 
L 194.977622 320.2344 
L 198.263584 320.97216 
L 201.549545 320.05632 
L 204.835506 320.5524 
L 208.121467 320.38704 
L 211.407428 320.41248 
L 217.97935 319.90368 
L 221.265311 319.82736 
L 224.551272 320.3616 
L 234.409155 317.97024 
L 237.695116 318.69528 
L 240.981077 319.05144 
L 244.267038 317.38512 
L 247.552999 317.4996 
L 250.83896 316.76184 
L 254.124921 316.53288 
L 257.410883 314.28144 
L 260.696844 313.1112 
L 263.982805 314.0016 
L 270.554727 314.10336 
L 273.840688 312.4752 
L 277.126649 313.62 
L 280.41261 310.92336 
L 283.698571 308.73552 
L 290.270493 308.54472 
L 293.556454 306.5604 
L 296.842415 306.35688 
L 300.128376 303.35496 
L 303.414337 302.66808 
L 306.700298 295.95192 
L 309.986259 294.75624 
L 313.27222 295.82472 
L 316.558182 302.00664 
L 319.844143 297.74544 
L 323.130104 296.30808 
L 326.416065 297.89808 
L 329.702026 295.29048 
L 332.987987 291.75432 
L 336.273948 297.3384 
L 339.559909 292.27584 
L 342.84587 275.05296 
L 346.131831 276.84648 
L 349.417792 273.45024 
L 352.703753 282.16344 
L 355.989714 271.5168 
L 359.275675 261.60792 
L 362.561636 287.08608 
L 365.847597 287.39136 
L 369.133558 264.60984 
L 372.419519 258.61872 
L 375.705481 278.7672 
L 378.991442 267.34464 
L 382.277403 285.08904 
L 385.563364 283.11744 
L 388.849325 278.30928 
L 392.135286 277.1136 
L 395.421247 272.49624 
L 398.707208 281.61648 
L 401.993169 279.0216 
L 405.27913 271.4532 
L 408.565091 263.57952 
L 411.851052 276.38856 
L 415.137013 270.09216 
L 418.422974 262.1676 
L 421.708935 261.70968 
L 424.994896 252.00432 
L 428.280857 253.86144 
L 431.566818 259.22928 
L 434.85278 252.15696 
L 438.138741 250.338 
L 441.424702 240.30192 
L 444.710663 233.802 
L 447.996624 225.73752 
L 451.282585 223.0536 
L 454.568546 223.7532 
L 457.854507 217.88928 
L 461.140468 253.87416 
L 464.426429 220.6368 
L 467.71239 224.09664 
L 470.998351 232.26288 
L 477.570273 244.71576 
L 480.856234 209.08704 
L 487.428156 251.07576 
L 490.714117 231.27072 
L 494.000079 238.48296 
L 497.28604 242.34984 
L 500.572001 229.05744 
L 503.857962 242.05728 
L 507.143923 250.24896 
L 510.429884 245.40264 
L 513.715845 245.16096 
L 517.001806 253.59432 
L 520.287767 247.61592 
L 523.573728 239.16984 
L 526.859689 235.36656 
L 530.14565 247.31064 
L 533.431611 226.58976 
L 536.717572 218.10552 
L 540.003533 213.48816 
L 543.289494 227.91264 
L 546.575455 196.92672 
L 549.861416 192.51288 
L 553.147378 221.03112 
L 556.433339 229.50264 
L 559.7193 208.62912 
L 563.005261 227.22576 
L 566.291222 215.96856 
L 569.577183 211.30032 
L 572.863144 204.63504 
L 576.149105 211.7328 
L 579.435066 212.97936 
L 582.721027 211.4148 
L 586.006988 200.52648 
L 589.292949 204.97848 
L 592.57891 228.59952 
L 595.864871 232.37736 
L 599.150832 237.1092 
L 602.436793 192.09312 
L 609.008715 224.14752 
L 612.294677 211.32576 
L 615.580638 224.94888 
L 618.866599 211.23672 
L 622.15256 195.40032 
L 625.438521 232.51728 
L 628.724482 228.53592 
L 628.724482 228.53592 
" style="fill:none;stroke:#0000ff;stroke-linecap:square;stroke-width:1.2;"/>
   </g>
   <g id="line2d_2">
    <path clip-path="url(#p978b0419aa)" d="M 109.542635 322.62576 
L 112.828596 322.56216 
L 116.114557 322.80384 
L 122.686479 322.0152 
L 125.97244 322.42224 
L 129.258401 322.0788 
L 132.544362 322.38408 
L 142.402246 321.3156 
L 145.688207 321.48096 
L 148.974168 321.53184 
L 152.260129 320.73048 
L 155.54609 320.73048 
L 158.832051 319.96728 
L 162.118012 320.616 
L 165.403973 320.3616 
L 168.689934 319.62384 
L 171.975895 318.44088 
L 175.261856 320.32344 
L 178.547817 318.61896 
L 181.833778 318.52992 
L 185.119739 318.27552 
L 188.4057 318.93696 
L 191.691661 317.84304 
L 194.977622 317.48688 
L 198.263584 317.86848 
L 201.549545 318.93696 
L 204.835506 319.49664 
L 211.407428 317.57592 
L 214.693389 317.15616 
L 217.97935 317.01624 
L 221.265311 315.89688 
L 224.551272 315.85872 
L 227.837233 315.26088 
L 231.123194 314.16696 
L 237.695116 312.30984 
L 240.981077 311.97912 
L 244.267038 308.88816 
L 247.552999 312.04272 
L 250.83896 305.53008 
L 254.124921 302.05752 
L 257.410883 304.89408 
L 260.696844 302.54088 
L 263.982805 301.35792 
L 267.268766 302.31192 
L 270.554727 299.17008 
L 273.840688 300.34032 
L 277.126649 289.24848 
L 280.41261 298.13976 
L 283.698571 295.5576 
L 286.984532 290.35512 
L 290.270493 284.63112 
L 293.556454 284.03328 
L 300.128376 274.1244 
L 303.414337 267.01392 
L 306.700298 274.67136 
L 309.986259 271.0716 
L 313.27222 279.4032 
L 316.558182 277.66056 
L 319.844143 274.21344 
L 323.130104 278.55096 
L 326.416065 279.17424 
L 329.702026 275.57448 
L 332.987987 274.59504 
L 336.273948 269.1636 
L 339.559909 274.08624 
L 342.84587 263.98656 
L 346.131831 272.86512 
L 349.417792 262.07856 
L 352.703753 270.74088 
L 355.989714 260.69208 
L 359.275675 260.73024 
L 362.561636 268.0188 
L 365.847597 266.45424 
L 369.133558 229.13376 
L 372.419519 268.62936 
L 375.705481 263.42688 
L 378.991442 272.19096 
L 382.277403 259.6872 
L 385.563364 279.37776 
L 388.849325 285.75048 
L 392.135286 265.78008 
L 395.421247 257.72832 
L 398.707208 255.24792 
L 401.993169 247.01808 
L 405.27913 271.60584 
L 408.565091 270.19392 
L 411.851052 273.08136 
L 415.137013 280.90416 
L 418.422974 264.33 
L 421.708935 267.61176 
L 424.994896 262.05312 
L 428.280857 247.81944 
L 431.566818 269.53248 
L 434.85278 251.17752 
L 438.138741 251.82624 
L 441.424702 281.3748 
L 444.710663 265.18224 
L 447.996624 269.59608 
L 451.282585 248.92608 
L 454.568546 276.27408 
L 457.854507 248.3028 
L 461.140468 283.14288 
L 464.426429 260.7048 
L 467.71239 280.91688 
L 470.998351 272.01288 
L 474.284312 248.39184 
L 477.570273 261.60792 
L 480.856234 265.58928 
L 484.142195 273.64104 
L 487.428156 265.55112 
L 490.714117 273.56472 
L 494.000079 256.698 
L 497.28604 258.93672 
L 500.572001 254.9172 
L 503.857962 240.07296 
L 507.143923 267.3828 
L 510.429884 261.2772 
L 513.715845 269.69784 
L 517.001806 270.9444 
L 520.287767 270.39744 
L 523.573728 248.88792 
L 526.859689 253.2636 
L 530.14565 269.58336 
L 533.431611 256.1256 
L 536.717572 246.70008 
L 540.003533 270.66456 
L 543.289494 264.85152 
L 546.575455 253.92504 
L 549.861416 264.97872 
L 553.147378 253.46712 
L 556.433339 273.31032 
L 559.7193 260.832 
L 563.005261 261.68424 
L 566.291222 256.72344 
L 569.577183 270.57552 
L 572.863144 257.15592 
L 576.149105 265.602 
L 579.435066 253.47984 
L 582.721027 274.0608 
L 586.006988 228.2688 
L 589.292949 274.03536 
L 592.57891 273.70464 
L 595.864871 275.10384 
L 599.150832 282.2652 
L 602.436793 273.98448 
L 605.722754 267.14112 
L 609.008715 253.82328 
L 612.294677 247.23432 
L 615.580638 248.72256 
L 618.866599 259.64904 
L 622.15256 253.92504 
L 625.438521 266.82312 
L 625.438521 266.82312 
" style="fill:none;stroke:#008000;stroke-linecap:square;stroke-width:1.2;"/>
   </g>
   <g id="line2d_3">
    <path clip-path="url(#p978b0419aa)" d="M 109.542635 323.13456 
L 112.828596 322.44768 
L 116.114557 322.74024 
L 119.400518 322.37136 
L 122.686479 321.49368 
L 129.258401 321.79896 
L 135.830323 320.59056 
L 139.116285 321.1884 
L 142.402246 321.35376 
L 145.688207 321.68448 
L 148.974168 320.47608 
L 152.260129 319.86552 
L 155.54609 319.92912 
L 158.832051 317.93208 
L 162.118012 317.04168 
L 165.403973 317.60136 
L 168.689934 316.25304 
L 171.975895 316.71096 
L 175.261856 314.54856 
L 178.547817 315.26088 
L 181.833778 314.3196 
L 185.119739 314.23056 
L 188.4057 312.08088 
L 191.691661 313.39104 
L 194.977622 312.93312 
L 198.263584 310.08384 
L 201.549545 310.2492 
L 204.835506 307.93416 
L 208.121467 309.30792 
L 211.407428 305.49192 
L 214.693389 298.21608 
L 217.97935 303.92736 
L 221.265311 291.00384 
L 224.551272 302.65536 
L 227.837233 287.4168 
L 231.123194 279.69576 
L 234.409155 284.70744 
L 237.695116 271.41504 
L 240.981077 279.0852 
L 244.267038 267.45912 
L 247.552999 279.18696 
L 250.83896 274.62048 
L 254.124921 256.04928 
L 257.410883 281.32392 
L 260.696844 260.4504 
L 263.982805 276.3504 
L 267.268766 261.88776 
L 270.554727 258.42792 
L 273.840688 287.74752 
L 277.126649 284.364 
L 280.41261 267.6372 
L 283.698571 284.00784 
L 286.984532 256.35456 
L 290.270493 265.76736 
L 293.556454 239.75496 
L 296.842415 273.0432 
L 300.128376 271.02072 
L 303.414337 261.2136 
L 306.700298 252.14424 
L 309.986259 258.63144 
L 313.27222 268.45128 
L 316.558182 246.66192 
L 319.844143 260.37408 
L 323.130104 270.3084 
L 326.416065 249.67656 
L 329.702026 247.17072 
L 332.987987 263.8848 
L 336.273948 266.91216 
L 339.559909 262.37112 
L 342.84587 265.27128 
L 346.131831 268.38768 
L 349.417792 263.36328 
L 352.703753 254.62464 
L 355.989714 253.12368 
L 359.275675 245.6316 
L 362.561636 251.95344 
L 365.847597 266.95032 
L 369.133558 253.42896 
L 372.419519 243.60912 
L 375.705481 260.43768 
L 378.991442 246.82728 
L 382.277403 263.64312 
L 385.563364 249.61296 
L 388.849325 259.44552 
L 392.135286 268.0824 
L 395.421247 273.90816 
L 398.707208 275.9052 
L 401.993169 268.05696 
L 405.27913 263.98656 
L 408.565091 267.2556 
L 411.851052 266.14896 
L 415.137013 268.03152 
L 418.422974 253.79784 
L 421.708935 250.79592 
L 424.994896 269.418 
L 428.280857 267.92976 
L 431.566818 264.82608 
L 434.85278 274.3788 
L 438.138741 233.95464 
L 441.424702 242.27352 
L 444.710663 283.29552 
L 447.996624 266.96304 
L 451.282585 247.95936 
L 454.568546 251.20296 
L 457.854507 244.13064 
L 461.140468 268.75656 
L 464.426429 269.87592 
L 467.71239 263.65584 
L 470.998351 263.70672 
L 474.284312 271.1352 
L 477.570273 270.66456 
L 480.856234 260.79384 
L 484.142195 244.70304 
L 487.428156 244.1052 
L 490.714117 253.0092 
L 494.000079 262.6128 
L 497.28604 279.36504 
L 500.572001 275.80344 
L 503.857962 269.58336 
L 507.143923 266.44152 
L 510.429884 284.5548 
L 513.715845 277.85136 
L 517.001806 282.91392 
L 520.287767 272.4708 
L 523.573728 266.98848 
L 526.859689 274.17528 
L 530.14565 279.11064 
L 533.431611 277.8768 
L 536.717572 280.21728 
L 540.003533 259.48368 
L 543.289494 275.66352 
L 546.575455 268.98552 
L 549.861416 271.7712 
L 553.147378 263.09616 
L 556.433339 248.21376 
L 559.7193 272.7252 
L 563.005261 252.33504 
L 566.291222 267.43368 
L 569.577183 270.71544 
L 572.863144 274.21344 
L 576.149105 256.04928 
L 579.435066 247.97208 
L 582.721027 244.07976 
L 586.006988 251.31744 
L 589.292949 259.96704 
L 592.57891 253.97592 
L 595.864871 210.37176 
L 599.150832 250.51608 
L 602.436793 247.27248 
L 605.722754 250.22352 
L 609.008715 239.89488 
L 612.294677 256.8252 
L 615.580638 245.47896 
L 618.866599 250.37616 
L 618.866599 250.37616 
" style="fill:none;stroke:#ff0000;stroke-linecap:square;stroke-width:1.2;"/>
   </g>
   <g id="line2d_4">
    <path clip-path="url(#p978b0419aa)" d="M 112.828596 322.53672 
L 116.114557 322.56216 
L 119.400518 322.28232 
L 122.686479 322.85472 
L 125.97244 321.96432 
L 129.258401 322.51128 
L 132.544362 322.5876 
L 135.830323 322.88016 
L 139.116285 322.21872 
L 142.402246 322.38408 
L 145.688207 322.38408 
L 148.974168 322.06608 
L 152.260129 322.66392 
L 155.54609 321.36648 
L 158.832051 321.16296 
L 162.118012 322.24416 
L 165.403973 321.6336 
L 168.689934 321.67176 
L 171.975895 321.29016 
L 175.261856 322.0788 
L 178.547817 320.8704 
L 181.833778 321.65904 
L 185.119739 321.49368 
L 188.4057 321.15024 
L 191.691661 320.27256 
L 194.977622 319.58568 
L 198.263584 319.89096 
L 201.549545 318.16104 
L 204.835506 317.95752 
L 208.121467 318.21192 
L 211.407428 317.6268 
L 214.693389 316.34208 
L 217.97935 315.36264 
L 221.265311 316.482 
L 224.551272 316.25304 
L 227.837233 315.26088 
L 231.123194 315.12096 
L 234.409155 313.69632 
L 237.695116 313.40376 
L 240.981077 311.61024 
L 244.267038 312.43704 
L 247.552999 307.4508 
L 250.83896 304.08 
L 254.124921 299.01744 
L 257.410883 301.67592 
L 260.696844 297.00768 
L 263.982805 293.34432 
L 267.268766 288.63792 
L 270.554727 291.32184 
L 273.840688 279.39048 
L 277.126649 277.71144 
L 280.41261 269.69784 
L 283.698571 269.1636 
L 286.984532 277.83864 
L 290.270493 257.35944 
L 293.556454 259.97976 
L 296.842415 274.54416 
L 300.128376 268.06968 
L 303.414337 269.30352 
L 306.700298 284.28768 
L 309.986259 261.17544 
L 313.27222 272.29272 
L 316.558182 271.5168 
L 319.844143 268.87104 
L 323.130104 269.65968 
L 326.416065 263.10888 
L 329.702026 247.0944 
L 332.987987 255.84576 
L 336.273948 250.00728 
L 339.559909 252.72936 
L 342.84587 268.47672 
L 346.131831 258.2244 
L 349.417792 261.49344 
L 352.703753 251.74992 
L 355.989714 253.69608 
L 359.275675 256.03656 
L 362.561636 256.46904 
L 365.847597 262.02768 
L 369.133558 264.15192 
L 372.419519 264.35544 
L 375.705481 254.6628 
L 378.991442 268.60392 
L 382.277403 259.61088 
L 388.849325 274.03536 
L 392.135286 264.62256 
L 395.421247 271.008 
L 398.707208 268.61664 
L 401.993169 262.91808 
L 405.27913 258.42792 
L 408.565091 267.35736 
L 411.851052 259.0512 
L 415.137013 261.0228 
L 418.422974 259.52184 
L 421.708935 251.38104 
L 424.994896 262.3584 
L 428.280857 257.72832 
L 431.566818 271.44048 
L 434.85278 263.1852 
L 438.138741 274.41696 
L 441.424702 281.3112 
L 444.710663 269.32896 
L 447.996624 263.376 
L 451.282585 267.23016 
L 454.568546 248.15016 
L 457.854507 252.7548 
L 461.140468 269.83776 
L 464.426429 277.26624 
L 467.71239 240.65808 
L 470.998351 265.08048 
L 474.284312 269.18904 
L 477.570273 235.5192 
L 480.856234 260.90832 
L 484.142195 268.0188 
L 487.428156 250.02 
L 490.714117 265.25856 
L 494.000079 263.47776 
L 497.28604 248.50632 
L 500.572001 250.12176 
L 503.857962 245.78424 
L 507.143923 247.9848 
L 510.429884 275.47272 
L 513.715845 262.30752 
L 517.001806 238.26672 
L 520.287767 264.78792 
L 523.573728 267.34464 
L 526.859689 250.28712 
L 530.14565 267.45912 
L 533.431611 266.67048 
L 536.717572 257.56296 
L 540.003533 251.20296 
L 543.289494 262.104 
L 546.575455 265.92 
L 549.861416 240.40368 
L 553.147378 262.01496 
L 556.433339 267.96792 
L 559.7193 266.26344 
L 563.005261 267.58632 
L 566.291222 263.70672 
L 569.577183 268.94736 
L 572.863144 269.83776 
L 576.149105 274.46784 
L 579.435066 268.0824 
L 582.721027 269.9904 
L 586.006988 245.51712 
L 589.292949 245.91144 
L 592.57891 275.25648 
L 595.864871 253.65792 
L 599.150832 274.55688 
L 602.436793 265.5384 
L 605.722754 274.65864 
L 609.008715 258.0972 
L 612.294677 266.40336 
L 615.580638 244.63944 
L 618.866599 270.8172 
L 622.15256 268.75656 
L 628.724482 247.71768 
L 632.010443 256.29096 
L 635.296404 249.05328 
L 635.296404 249.05328 
" style="fill:none;stroke:#00bfbf;stroke-linecap:square;stroke-width:1.2;"/>
   </g>
   <g id="line2d_5">
    <path clip-path="url(#p978b0419aa)" d="M 112.828596 322.206 
L 119.400518 321.43008 
L 122.686479 321.62088 
L 129.258401 321.1884 
L 132.544362 320.98488 
L 135.830323 320.4252 
L 139.116285 320.7432 
L 142.402246 320.20896 
L 145.688207 319.84008 
L 152.260129 318.22464 
L 155.54609 318.52992 
L 158.832051 319.14048 
L 162.118012 317.04168 
L 165.403973 316.49472 
L 168.689934 316.30392 
L 171.975895 316.31664 
L 175.261856 316.06224 
L 178.547817 314.56128 
L 181.833778 315.5916 
L 185.119739 314.56128 
L 188.4057 313.302 
L 191.691661 312.48792 
L 194.977622 312.46248 
L 198.263584 310.09656 
L 201.549545 310.27464 
L 204.835506 308.32848 
L 208.121467 310.02024 
L 211.407428 311.11416 
L 214.693389 309.8676 
L 217.97935 306.40776 
L 224.551272 299.90784 
L 227.837233 299.6916 
L 231.123194 304.53792 
L 234.409155 301.26888 
L 237.695116 289.47744 
L 240.981077 284.7456 
L 244.267038 275.95608 
L 247.552999 273.41208 
L 250.83896 269.93952 
L 254.124921 263.68128 
L 257.410883 282.2652 
L 260.696844 276.43944 
L 263.982805 257.35944 
L 267.268766 261.8496 
L 270.554727 259.06392 
L 273.840688 268.19688 
L 277.126649 258.44064 
L 280.41261 238.40664 
L 283.698571 243.92712 
L 286.984532 250.99944 
L 290.270493 254.16672 
L 293.556454 231.90672 
L 296.842415 245.3772 
L 300.128376 222.12504 
L 303.414337 219.6192 
L 306.700298 232.54272 
L 309.986259 232.04664 
L 313.27222 244.43592 
L 316.558182 223.5624 
L 319.844143 241.12872 
L 323.130104 221.3364 
L 326.416065 210.23184 
L 329.702026 212.0508 
L 332.987987 198.52944 
L 336.273948 210.15552 
L 339.559909 198.16056 
L 342.84587 197.76624 
L 346.131831 222.77376 
L 349.417792 223.42248 
L 352.703753 200.95896 
L 355.989714 212.83944 
L 359.275675 211.27488 
L 362.561636 215.94312 
L 365.847597 174.61584 
L 369.133558 222.8628 
L 372.419519 172.75872 
L 375.705481 198.59304 
L 378.991442 201.91296 
L 382.277403 187.52664 
L 385.563364 185.28792 
L 388.849325 194.66256 
L 392.135286 159.16104 
L 395.421247 162.6972 
L 398.707208 209.93928 
L 401.993169 200.88264 
L 405.27913 200.6664 
L 408.565091 186.96696 
L 411.851052 196.914 
L 415.137013 176.39664 
L 418.422974 198.9492 
L 421.708935 175.34088 
L 424.994896 147.90384 
L 428.280857 213.90792 
L 431.566818 150.38424 
L 434.85278 224.49096 
L 438.138741 184.0032 
L 441.424702 132.19464 
L 444.710663 140.6916 
L 447.996624 222.26496 
L 451.282585 200.18304 
L 454.568546 211.04592 
L 457.854507 223.60056 
L 461.140468 186.81432 
L 464.426429 222.6084 
L 467.71239 207.52248 
L 470.998351 181.19208 
L 474.284312 187.692 
L 477.570273 207.61152 
L 480.856234 210.40992 
L 484.142195 203.49024 
L 487.428156 211.04592 
L 490.714117 202.16736 
L 494.000079 217.87656 
L 497.28604 216.8208 
L 500.572001 196.68504 
L 503.857962 193.32696 
L 507.143923 178.63536 
L 510.429884 219.58104 
L 513.715845 228.34512 
L 517.001806 205.46184 
L 520.287767 212.57232 
L 523.573728 197.11752 
L 526.859689 206.3904 
L 530.14565 220.20432 
L 533.431611 209.49408 
L 536.717572 157.95264 
L 540.003533 173.03856 
L 543.289494 175.70976 
L 546.575455 169.27344 
L 549.861416 199.29264 
L 553.147378 190.19784 
L 556.433339 198.186 
L 559.7193 189.9816 
L 563.005261 190.9356 
L 566.291222 185.466 
L 569.577183 160.33128 
L 572.863144 179.81832 
L 576.149105 177.50328 
L 579.435066 176.19312 
L 579.435066 176.19312 
" style="fill:none;stroke:#bf00bf;stroke-linecap:square;stroke-width:1.2;"/>
   </g>
   <g id="line2d_6">
    <path clip-path="url(#p978b0419aa)" d="M 112.828596 322.2696 
L 116.114557 321.91344 
L 119.400518 321.86256 
L 122.686479 321.6336 
L 129.258401 320.56512 
L 132.544362 320.33616 
L 135.830323 320.56512 
L 139.116285 320.6796 
L 142.402246 319.95456 
L 145.688207 319.87824 
L 148.974168 319.50936 
L 155.54609 318.17376 
L 158.832051 318.22464 
L 162.118012 317.14344 
L 165.403973 316.9272 
L 168.689934 315.45168 
L 171.975895 315.21 
L 175.261856 313.28928 
L 178.547817 313.53096 
L 181.833778 310.92336 
L 185.119739 308.6592 
L 188.4057 305.91168 
L 191.691661 303.444 
L 194.977622 303.22776 
L 198.263584 298.53408 
L 201.549545 296.29536 
L 204.835506 292.58112 
L 208.121467 291.62712 
L 211.407428 288.95592 
L 214.693389 284.50392 
L 217.97935 281.13312 
L 221.265311 274.49328 
L 224.551272 259.26744 
L 227.837233 255.15888 
L 231.123194 255.9348 
L 234.409155 250.656 
L 237.695116 234.67968 
L 240.981077 228.44688 
L 244.267038 224.47824 
L 247.552999 226.4244 
L 250.83896 216.93528 
L 254.124921 215.45976 
L 257.410883 233.06424 
L 260.696844 221.50176 
L 263.982805 208.64184 
L 267.268766 203.592 
L 270.554727 192.51288 
L 273.840688 198.6312 
L 277.126649 164.05824 
L 280.41261 161.7432 
L 283.698571 214.17504 
L 286.984532 208.6164 
L 290.270493 207.25536 
L 293.556454 222.32856 
L 296.842415 167.75976 
L 300.128376 188.44248 
L 303.414337 192.42384 
L 306.700298 203.1468 
L 309.986259 215.84136 
L 313.27222 226.488 
L 316.558182 213.768 
L 319.844143 196.92672 
L 323.130104 203.87184 
L 326.416065 201.76032 
L 329.702026 167.4036 
L 332.987987 185.31336 
L 336.273948 120.4032 
L 339.559909 171.97008 
L 342.84587 173.91624 
L 346.131831 165.78816 
L 349.417792 202.45992 
L 352.703753 200.13216 
L 355.989714 194.35728 
L 359.275675 220.77672 
L 362.561636 211.68192 
L 365.847597 222.01056 
L 369.133558 168.31944 
L 372.419519 215.71416 
L 375.705481 202.32 
L 378.991442 198.66936 
L 382.277403 166.08072 
L 385.563364 163.11696 
L 388.849325 204.90216 
L 392.135286 172.50432 
L 395.421247 176.8164 
L 398.707208 187.17048 
L 401.993169 183.18912 
L 405.27913 199.27992 
L 408.565091 206.02152 
L 411.851052 155.4468 
L 415.137013 155.4468 
L 418.422974 155.07792 
L 421.708935 163.25688 
L 424.994896 176.48568 
L 428.280857 188.4552 
L 431.566818 144.10056 
L 434.85278 164.0964 
L 438.138741 175.30272 
L 441.424702 166.50048 
L 444.710663 130.88448 
L 447.996624 200.97168 
L 451.282585 197.01576 
L 454.568546 164.40168 
L 457.854507 174.45048 
L 461.140468 178.88976 
L 464.426429 170.7108 
L 467.71239 172.94952 
L 470.998351 154.95072 
L 474.284312 171.97008 
L 477.570273 142.06536 
L 480.856234 167.20008 
L 484.142195 189.87984 
L 487.428156 183.51984 
L 490.714117 194.12832 
L 494.000079 197.98248 
L 497.28604 202.28184 
L 500.572001 178.01208 
L 503.857962 187.83192 
L 507.143923 184.5756 
L 510.429884 191.96592 
L 513.715845 213.23376 
L 517.001806 223.90584 
L 520.287767 210.66432 
L 523.573728 176.32032 
L 526.859689 179.2332 
L 530.14565 120.61944 
L 533.431611 167.89968 
L 536.717572 184.10496 
L 540.003533 199.5852 
L 543.289494 182.8584 
L 546.575455 136.02336 
L 549.861416 185.56776 
L 553.147378 181.11576 
L 556.433339 193.87392 
L 559.7193 180.65784 
L 563.005261 168.63744 
L 566.291222 179.64024 
L 569.577183 201.22608 
L 572.863144 216.32472 
L 576.149105 199.12728 
L 579.435066 203.60472 
L 582.721027 179.81832 
L 586.006988 197.7408 
L 589.292949 207.9168 
L 592.57891 198.6948 
L 595.864871 199.85232 
L 599.150832 210.38448 
L 602.436793 203.31216 
L 602.436793 203.31216 
" style="fill:none;stroke:#bfbf00;stroke-linecap:square;stroke-width:1.2;"/>
   </g>
   <g id="line2d_7">
    <path clip-path="url(#p978b0419aa)" d="M 112.828596 322.12968 
L 116.114557 322.2696 
L 119.400518 321.84984 
L 122.686479 321.98976 
L 125.97244 321.4428 
L 129.258401 321.35376 
L 135.830323 320.73048 
L 139.116285 319.98 
L 142.402246 320.03088 
L 145.688207 319.43304 
L 148.974168 318.63168 
L 152.260129 317.33424 
L 155.54609 317.20704 
L 158.832051 315.66792 
L 162.118012 314.9556 
L 165.403973 313.39104 
L 168.689934 312.348 
L 171.975895 310.59264 
L 175.261856 309.56232 
L 178.547817 306.21696 
L 181.833778 305.27568 
L 185.119739 305.40288 
L 188.4057 305.39016 
L 191.691661 302.2356 
L 194.977622 297.61824 
L 198.263584 297.73272 
L 201.549545 296.01552 
L 204.835506 287.78568 
L 208.121467 286.00488 
L 211.407428 279.36504 
L 214.693389 273.45024 
L 217.97935 273.9972 
L 221.265311 266.32704 
L 224.551272 259.878 
L 227.837233 260.04336 
L 231.123194 256.01112 
L 234.409155 241.59936 
L 237.695116 252.65304 
L 240.981077 228.47232 
L 244.267038 234.20904 
L 247.552999 224.27472 
L 250.83896 210.67704 
L 254.124921 214.22592 
L 257.410883 175.12464 
L 260.696844 175.21368 
L 263.982805 169.78224 
L 267.268766 217.74936 
L 270.554727 183.69792 
L 273.840688 193.81032 
L 277.126649 170.50728 
L 280.41261 216.8844 
L 283.698571 212.5596 
L 286.984532 173.58552 
L 290.270493 212.8776 
L 293.556454 191.73696 
L 296.842415 190.236 
L 300.128376 207.39528 
L 303.414337 190.83384 
L 306.700298 194.29368 
L 309.986259 204.72408 
L 313.27222 206.772 
L 316.558182 177.834 
L 319.844143 173.16576 
L 323.130104 191.6352 
L 326.416065 189.62544 
L 329.702026 208.51464 
L 332.987987 181.85352 
L 336.273948 204.4188 
L 339.559909 207.4716 
L 342.84587 192.41112 
L 346.131831 164.40168 
L 349.417792 204.13896 
L 352.703753 211.04592 
L 355.989714 209.77392 
L 359.275675 213.08112 
L 362.561636 198.58032 
L 365.847597 205.01664 
L 369.133558 202.54896 
L 372.419519 208.69272 
L 375.705481 179.76744 
L 378.991442 204.32976 
L 382.277403 148.3236 
L 385.563364 230.66016 
L 388.849325 170.93976 
L 392.135286 171.44856 
L 395.421247 215.05272 
L 398.707208 208.4892 
L 401.993169 165.16488 
L 405.27913 159.78432 
L 408.565091 181.66272 
L 411.851052 147.48408 
L 415.137013 204.87672 
L 418.422974 193.51776 
L 421.708935 167.976 
L 424.994896 187.2468 
L 431.566818 208.1712 
L 434.85278 172.07184 
L 438.138741 144.78744 
L 441.424702 175.50624 
L 444.710663 194.42088 
L 447.996624 174.56496 
L 451.282585 137.448 
L 454.568546 205.6908 
L 457.854507 182.45136 
L 461.140468 178.20288 
L 464.426429 142.33248 
L 467.71239 182.93472 
L 470.998351 177.98664 
L 474.284312 190.28688 
L 477.570273 175.56984 
L 480.856234 190.79568 
L 484.142195 193.61952 
L 487.428156 180.3144 
L 490.714117 184.80456 
L 494.000079 167.60712 
L 497.28604 177.27432 
L 500.572001 191.16456 
L 503.857962 129.71424 
L 507.143923 155.37048 
L 510.429884 134.75136 
L 513.715845 180.89952 
L 517.001806 178.24104 
L 520.287767 176.76552 
L 523.573728 140.65344 
L 526.859689 102.41712 
L 530.14565 155.66304 
L 533.431611 150.79128 
L 536.717572 130.2612 
L 540.003533 165.25392 
L 543.289494 145.93224 
L 546.575455 140.89512 
L 549.861416 76.50648 
L 553.147378 166.02984 
L 556.433339 167.82336 
L 559.7193 191.78784 
L 563.005261 175.18824 
L 566.291222 159.68256 
L 569.577183 183.8124 
L 572.863144 200.11944 
L 576.149105 190.26144 
L 579.435066 196.63416 
L 582.721027 193.00896 
L 586.006988 181.67544 
L 589.292949 143.27376 
L 592.57891 162.59544 
L 595.864871 188.964 
L 595.864871 188.964 
" style="fill:none;stroke:#000000;stroke-linecap:square;stroke-width:1.2;"/>
   </g>
   <g id="line2d_8">
    <path clip-path="url(#p978b0419aa)" d="M 112.828596 322.23144 
L 116.114557 322.00248 
L 122.686479 321.252 
L 125.97244 321.22656 
L 129.258401 320.62872 
L 132.544362 320.33616 
L 135.830323 320.15808 
L 142.402246 318.72072 
L 145.688207 317.98296 
L 148.974168 316.72368 
L 152.260129 315.61704 
L 158.832051 312.56424 
L 162.118012 311.34312 
L 165.403973 310.33824 
L 168.689934 308.44296 
L 171.975895 304.85592 
L 175.261856 303.9528 
L 178.547817 302.64264 
L 181.833778 297.96168 
L 185.119739 291.71616 
L 188.4057 292.84824 
L 191.691661 284.5548 
L 194.977622 284.69472 
L 198.263584 274.00992 
L 201.549545 268.99824 
L 204.835506 281.87088 
L 208.121467 249.65112 
L 211.407428 241.16688 
L 214.693389 251.40648 
L 217.97935 255.744 
L 221.265311 234.6288 
L 224.551272 230.39304 
L 227.837233 247.32336 
L 231.123194 228.03984 
L 234.409155 201.08616 
L 237.695116 187.70472 
L 240.981077 195.27312 
L 244.267038 203.80824 
L 247.552999 165.16488 
L 250.83896 198.47856 
L 254.124921 207.62424 
L 257.410883 200.08128 
L 260.696844 176.57472 
L 263.982805 182.31144 
L 267.268766 196.25256 
L 270.554727 181.12848 
L 273.840688 179.00424 
L 277.126649 174.89568 
L 280.41261 163.89288 
L 283.698571 182.33688 
L 286.984532 202.54896 
L 290.270493 201.63312 
L 293.556454 181.54824 
L 296.842415 197.98248 
L 300.128376 180.8232 
L 303.414337 171.20688 
L 306.700298 182.46408 
L 309.986259 154.64544 
L 313.27222 193.81032 
L 316.558182 160.1532 
L 319.844143 183.4308 
L 323.130104 179.95824 
L 326.416065 188.73504 
L 329.702026 195.5148 
L 332.987987 201.54408 
L 336.273948 190.37592 
L 339.559909 129.3072 
L 342.84587 181.5228 
L 346.131831 195.99816 
L 349.417792 183.21456 
L 352.703753 208.52736 
L 355.989714 178.9152 
L 359.275675 154.97616 
L 362.561636 179.56392 
L 365.847597 174.85752 
L 369.133558 159.04656 
L 372.419519 171.32136 
L 375.705481 177.1344 
L 378.991442 141.08592 
L 382.277403 177.55416 
L 385.563364 138.38928 
L 388.849325 134.904 
L 392.135286 167.88696 
L 395.421247 134.63688 
L 398.707208 179.81832 
L 401.993169 145.08 
L 405.27913 187.71744 
L 408.565091 150.46056 
L 411.851052 168.17952 
L 415.137013 135.89616 
L 418.422974 176.71464 
L 421.708935 171.88104 
L 424.994896 168.1668 
L 428.280857 193.91208 
L 431.566818 167.82336 
L 434.85278 176.9436 
L 438.138741 195.006 
L 441.424702 181.12848 
L 444.710663 183.32904 
L 447.996624 191.05008 
L 451.282585 186.30552 
L 454.568546 185.36424 
L 457.854507 205.89432 
L 461.140468 187.7556 
L 464.426429 165.57192 
L 467.71239 148.03104 
L 470.998351 191.46984 
L 474.284312 170.16384 
L 477.570273 171.01608 
L 480.856234 158.04168 
L 484.142195 175.63344 
L 487.428156 151.3764 
L 490.714117 176.74008 
L 494.000079 184.72824 
L 497.28604 148.24728 
L 500.572001 142.68864 
L 503.857962 161.98488 
L 507.143923 167.92512 
L 510.429884 171.474 
L 513.715845 197.52456 
L 517.001806 187.60296 
L 520.287767 183.37992 
L 523.573728 173.39472 
L 526.859689 140.70432 
L 530.14565 190.41408 
L 533.431611 183.0492 
L 536.717572 165.76272 
L 540.003533 189.51096 
L 543.289494 166.93296 
L 546.575455 149.0232 
L 549.861416 189.76536 
L 553.147378 163.6512 
L 556.433339 188.97672 
L 559.7193 157.81272 
L 563.005261 192.6528 
L 566.291222 199.5216 
L 569.577183 192.43656 
L 572.863144 166.46232 
L 576.149105 166.52592 
L 579.435066 201.09888 
L 582.721027 144.48216 
L 586.006988 149.68464 
L 589.292949 140.41176 
L 589.292949 140.41176 
" style="fill:none;stroke:#0000ff;stroke-linecap:square;stroke-width:1.2;"/>
   </g>
   <g id="patch_3">
    <path d="M 112.5 324 
L 112.5 36 
" style="fill:none;stroke:#000000;stroke-linecap:square;stroke-linejoin:miter;"/>
   </g>
   <g id="patch_4">
    <path d="M 635.625 324 
L 635.625 36 
" style="fill:none;stroke:#000000;stroke-linecap:square;stroke-linejoin:miter;"/>
   </g>
   <g id="patch_5">
    <path d="M 112.5 324 
L 635.625 324 
" style="fill:none;stroke:#000000;stroke-linecap:square;stroke-linejoin:miter;"/>
   </g>
   <g id="patch_6">
    <path d="M 112.5 36 
L 635.625 36 
" style="fill:none;stroke:#000000;stroke-linecap:square;stroke-linejoin:miter;"/>
   </g>
   <g id="matplotlib.axis_1">
    <g id="xtick_1">
     <g id="line2d_9">
      <defs>
       <path d="M 0 0 
L 0 -4 
" id="m56f26b61f9" style="stroke:#000000;stroke-width:0.5;"/>
      </defs>
      <g>
       <use style="stroke:#000000;stroke-width:0.5;" x="112.828596" xlink:href="#m56f26b61f9" y="324"/>
      </g>
     </g>
     <g id="line2d_10">
      <defs>
       <path d="M 0 0 
L 0 4 
" id="mb979cbbedd" style="stroke:#000000;stroke-width:0.5;"/>
      </defs>
      <g>
       <use style="stroke:#000000;stroke-width:0.5;" x="112.828596" xlink:href="#mb979cbbedd" y="36"/>
      </g>
     </g>
     <g id="text_1">
      <!-- 1 -->
      <defs>
       <path d="M 12.40625 8.296875 
L 28.515625 8.296875 
L 28.515625 63.921875 
L 10.984375 60.40625 
L 10.984375 69.390625 
L 28.421875 72.90625 
L 38.28125 72.90625 
L 38.28125 8.296875 
L 54.390625 8.296875 
L 54.390625 0 
L 12.40625 0 
z
" id="DejaVuSans-49"/>
      </defs>
      <g transform="translate(109.011096 337.118125)scale(0.12 -0.12)">
       <use xlink:href="#DejaVuSans-49"/>
      </g>
     </g>
    </g>
    <g id="xtick_2">
     <g id="line2d_11">
      <g>
       <use style="stroke:#000000;stroke-width:0.5;" x="165.403973" xlink:href="#m56f26b61f9" y="324"/>
      </g>
     </g>
     <g id="line2d_12">
      <g>
       <use style="stroke:#000000;stroke-width:0.5;" x="165.403973" xlink:href="#mb979cbbedd" y="36"/>
      </g>
     </g>
     <g id="text_2">
      <!-- 17 -->
      <defs>
       <path d="M 8.203125 72.90625 
L 55.078125 72.90625 
L 55.078125 68.703125 
L 28.609375 0 
L 18.3125 0 
L 43.21875 64.59375 
L 8.203125 64.59375 
z
" id="DejaVuSans-55"/>
      </defs>
      <g transform="translate(157.768973 337.118125)scale(0.12 -0.12)">
       <use xlink:href="#DejaVuSans-49"/>
       <use x="63.623047" xlink:href="#DejaVuSans-55"/>
      </g>
     </g>
    </g>
    <g id="xtick_3">
     <g id="line2d_13">
      <g>
       <use style="stroke:#000000;stroke-width:0.5;" x="217.97935" xlink:href="#m56f26b61f9" y="324"/>
      </g>
     </g>
     <g id="line2d_14">
      <g>
       <use style="stroke:#000000;stroke-width:0.5;" x="217.97935" xlink:href="#mb979cbbedd" y="36"/>
      </g>
     </g>
     <g id="text_3">
      <!-- 33 -->
      <defs>
       <path d="M 40.578125 39.3125 
Q 47.65625 37.796875 51.625 33 
Q 55.609375 28.21875 55.609375 21.1875 
Q 55.609375 10.40625 48.1875 4.484375 
Q 40.765625 -1.421875 27.09375 -1.421875 
Q 22.515625 -1.421875 17.65625 -0.515625 
Q 12.796875 0.390625 7.625 2.203125 
L 7.625 11.71875 
Q 11.71875 9.328125 16.59375 8.109375 
Q 21.484375 6.890625 26.8125 6.890625 
Q 36.078125 6.890625 40.9375 10.546875 
Q 45.796875 14.203125 45.796875 21.1875 
Q 45.796875 27.640625 41.28125 31.265625 
Q 36.765625 34.90625 28.71875 34.90625 
L 20.21875 34.90625 
L 20.21875 43.015625 
L 29.109375 43.015625 
Q 36.375 43.015625 40.234375 45.921875 
Q 44.09375 48.828125 44.09375 54.296875 
Q 44.09375 59.90625 40.109375 62.90625 
Q 36.140625 65.921875 28.71875 65.921875 
Q 24.65625 65.921875 20.015625 65.03125 
Q 15.375 64.15625 9.8125 62.3125 
L 9.8125 71.09375 
Q 15.4375 72.65625 20.34375 73.4375 
Q 25.25 74.21875 29.59375 74.21875 
Q 40.828125 74.21875 47.359375 69.109375 
Q 53.90625 64.015625 53.90625 55.328125 
Q 53.90625 49.265625 50.4375 45.09375 
Q 46.96875 40.921875 40.578125 39.3125 
z
" id="DejaVuSans-51"/>
      </defs>
      <g transform="translate(210.34435 337.118125)scale(0.12 -0.12)">
       <use xlink:href="#DejaVuSans-51"/>
       <use x="63.623047" xlink:href="#DejaVuSans-51"/>
      </g>
     </g>
    </g>
    <g id="xtick_4">
     <g id="line2d_15">
      <g>
       <use style="stroke:#000000;stroke-width:0.5;" x="270.554727" xlink:href="#m56f26b61f9" y="324"/>
      </g>
     </g>
     <g id="line2d_16">
      <g>
       <use style="stroke:#000000;stroke-width:0.5;" x="270.554727" xlink:href="#mb979cbbedd" y="36"/>
      </g>
     </g>
     <g id="text_4">
      <!-- 49 -->
      <defs>
       <path d="M 37.796875 64.3125 
L 12.890625 25.390625 
L 37.796875 25.390625 
z
M 35.203125 72.90625 
L 47.609375 72.90625 
L 47.609375 25.390625 
L 58.015625 25.390625 
L 58.015625 17.1875 
L 47.609375 17.1875 
L 47.609375 0 
L 37.796875 0 
L 37.796875 17.1875 
L 4.890625 17.1875 
L 4.890625 26.703125 
z
" id="DejaVuSans-52"/>
       <path d="M 10.984375 1.515625 
L 10.984375 10.5 
Q 14.703125 8.734375 18.5 7.8125 
Q 22.3125 6.890625 25.984375 6.890625 
Q 35.75 6.890625 40.890625 13.453125 
Q 46.046875 20.015625 46.78125 33.40625 
Q 43.953125 29.203125 39.59375 26.953125 
Q 35.25 24.703125 29.984375 24.703125 
Q 19.046875 24.703125 12.671875 31.3125 
Q 6.296875 37.9375 6.296875 49.421875 
Q 6.296875 60.640625 12.9375 67.421875 
Q 19.578125 74.21875 30.609375 74.21875 
Q 43.265625 74.21875 49.921875 64.515625 
Q 56.59375 54.828125 56.59375 36.375 
Q 56.59375 19.140625 48.40625 8.859375 
Q 40.234375 -1.421875 26.421875 -1.421875 
Q 22.703125 -1.421875 18.890625 -0.6875 
Q 15.09375 0.046875 10.984375 1.515625 
z
M 30.609375 32.421875 
Q 37.25 32.421875 41.125 36.953125 
Q 45.015625 41.5 45.015625 49.421875 
Q 45.015625 57.28125 41.125 61.84375 
Q 37.25 66.40625 30.609375 66.40625 
Q 23.96875 66.40625 20.09375 61.84375 
Q 16.21875 57.28125 16.21875 49.421875 
Q 16.21875 41.5 20.09375 36.953125 
Q 23.96875 32.421875 30.609375 32.421875 
z
" id="DejaVuSans-57"/>
      </defs>
      <g transform="translate(262.919727 337.118125)scale(0.12 -0.12)">
       <use xlink:href="#DejaVuSans-52"/>
       <use x="63.623047" xlink:href="#DejaVuSans-57"/>
      </g>
     </g>
    </g>
    <g id="xtick_5">
     <g id="line2d_17">
      <g>
       <use style="stroke:#000000;stroke-width:0.5;" x="323.130104" xlink:href="#m56f26b61f9" y="324"/>
      </g>
     </g>
     <g id="line2d_18">
      <g>
       <use style="stroke:#000000;stroke-width:0.5;" x="323.130104" xlink:href="#mb979cbbedd" y="36"/>
      </g>
     </g>
     <g id="text_5">
      <!-- 65 -->
      <defs>
       <path d="M 33.015625 40.375 
Q 26.375 40.375 22.484375 35.828125 
Q 18.609375 31.296875 18.609375 23.390625 
Q 18.609375 15.53125 22.484375 10.953125 
Q 26.375 6.390625 33.015625 6.390625 
Q 39.65625 6.390625 43.53125 10.953125 
Q 47.40625 15.53125 47.40625 23.390625 
Q 47.40625 31.296875 43.53125 35.828125 
Q 39.65625 40.375 33.015625 40.375 
z
M 52.59375 71.296875 
L 52.59375 62.3125 
Q 48.875 64.0625 45.09375 64.984375 
Q 41.3125 65.921875 37.59375 65.921875 
Q 27.828125 65.921875 22.671875 59.328125 
Q 17.53125 52.734375 16.796875 39.40625 
Q 19.671875 43.65625 24.015625 45.921875 
Q 28.375 48.1875 33.59375 48.1875 
Q 44.578125 48.1875 50.953125 41.515625 
Q 57.328125 34.859375 57.328125 23.390625 
Q 57.328125 12.15625 50.6875 5.359375 
Q 44.046875 -1.421875 33.015625 -1.421875 
Q 20.359375 -1.421875 13.671875 8.265625 
Q 6.984375 17.96875 6.984375 36.375 
Q 6.984375 53.65625 15.1875 63.9375 
Q 23.390625 74.21875 37.203125 74.21875 
Q 40.921875 74.21875 44.703125 73.484375 
Q 48.484375 72.75 52.59375 71.296875 
z
" id="DejaVuSans-54"/>
       <path d="M 10.796875 72.90625 
L 49.515625 72.90625 
L 49.515625 64.59375 
L 19.828125 64.59375 
L 19.828125 46.734375 
Q 21.96875 47.46875 24.109375 47.828125 
Q 26.265625 48.1875 28.421875 48.1875 
Q 40.625 48.1875 47.75 41.5 
Q 54.890625 34.8125 54.890625 23.390625 
Q 54.890625 11.625 47.5625 5.09375 
Q 40.234375 -1.421875 26.90625 -1.421875 
Q 22.3125 -1.421875 17.546875 -0.640625 
Q 12.796875 0.140625 7.71875 1.703125 
L 7.71875 11.625 
Q 12.109375 9.234375 16.796875 8.0625 
Q 21.484375 6.890625 26.703125 6.890625 
Q 35.15625 6.890625 40.078125 11.328125 
Q 45.015625 15.765625 45.015625 23.390625 
Q 45.015625 31 40.078125 35.4375 
Q 35.15625 39.890625 26.703125 39.890625 
Q 22.75 39.890625 18.8125 39.015625 
Q 14.890625 38.140625 10.796875 36.28125 
z
" id="DejaVuSans-53"/>
      </defs>
      <g transform="translate(315.495104 337.118125)scale(0.12 -0.12)">
       <use xlink:href="#DejaVuSans-54"/>
       <use x="63.623047" xlink:href="#DejaVuSans-53"/>
      </g>
     </g>
    </g>
    <g id="xtick_6">
     <g id="line2d_19">
      <g>
       <use style="stroke:#000000;stroke-width:0.5;" x="375.705481" xlink:href="#m56f26b61f9" y="324"/>
      </g>
     </g>
     <g id="line2d_20">
      <g>
       <use style="stroke:#000000;stroke-width:0.5;" x="375.705481" xlink:href="#mb979cbbedd" y="36"/>
      </g>
     </g>
     <g id="text_6">
      <!-- 81 -->
      <defs>
       <path d="M 31.78125 34.625 
Q 24.75 34.625 20.71875 30.859375 
Q 16.703125 27.09375 16.703125 20.515625 
Q 16.703125 13.921875 20.71875 10.15625 
Q 24.75 6.390625 31.78125 6.390625 
Q 38.8125 6.390625 42.859375 10.171875 
Q 46.921875 13.96875 46.921875 20.515625 
Q 46.921875 27.09375 42.890625 30.859375 
Q 38.875 34.625 31.78125 34.625 
z
M 21.921875 38.8125 
Q 15.578125 40.375 12.03125 44.71875 
Q 8.5 49.078125 8.5 55.328125 
Q 8.5 64.0625 14.71875 69.140625 
Q 20.953125 74.21875 31.78125 74.21875 
Q 42.671875 74.21875 48.875 69.140625 
Q 55.078125 64.0625 55.078125 55.328125 
Q 55.078125 49.078125 51.53125 44.71875 
Q 48 40.375 41.703125 38.8125 
Q 48.828125 37.15625 52.796875 32.3125 
Q 56.78125 27.484375 56.78125 20.515625 
Q 56.78125 9.90625 50.3125 4.234375 
Q 43.84375 -1.421875 31.78125 -1.421875 
Q 19.734375 -1.421875 13.25 4.234375 
Q 6.78125 9.90625 6.78125 20.515625 
Q 6.78125 27.484375 10.78125 32.3125 
Q 14.796875 37.15625 21.921875 38.8125 
z
M 18.3125 54.390625 
Q 18.3125 48.734375 21.84375 45.5625 
Q 25.390625 42.390625 31.78125 42.390625 
Q 38.140625 42.390625 41.71875 45.5625 
Q 45.3125 48.734375 45.3125 54.390625 
Q 45.3125 60.0625 41.71875 63.234375 
Q 38.140625 66.40625 31.78125 66.40625 
Q 25.390625 66.40625 21.84375 63.234375 
Q 18.3125 60.0625 18.3125 54.390625 
z
" id="DejaVuSans-56"/>
      </defs>
      <g transform="translate(368.070481 337.118125)scale(0.12 -0.12)">
       <use xlink:href="#DejaVuSans-56"/>
       <use x="63.623047" xlink:href="#DejaVuSans-49"/>
      </g>
     </g>
    </g>
    <g id="xtick_7">
     <g id="line2d_21">
      <g>
       <use style="stroke:#000000;stroke-width:0.5;" x="428.280857" xlink:href="#m56f26b61f9" y="324"/>
      </g>
     </g>
     <g id="line2d_22">
      <g>
       <use style="stroke:#000000;stroke-width:0.5;" x="428.280857" xlink:href="#mb979cbbedd" y="36"/>
      </g>
     </g>
     <g id="text_7">
      <!-- 97 -->
      <g transform="translate(420.645857 337.118125)scale(0.12 -0.12)">
       <use xlink:href="#DejaVuSans-57"/>
       <use x="63.623047" xlink:href="#DejaVuSans-55"/>
      </g>
     </g>
    </g>
    <g id="xtick_8">
     <g id="line2d_23">
      <g>
       <use style="stroke:#000000;stroke-width:0.5;" x="480.856234" xlink:href="#m56f26b61f9" y="324"/>
      </g>
     </g>
     <g id="line2d_24">
      <g>
       <use style="stroke:#000000;stroke-width:0.5;" x="480.856234" xlink:href="#mb979cbbedd" y="36"/>
      </g>
     </g>
     <g id="text_8">
      <!-- 113 -->
      <g transform="translate(469.403734 337.118125)scale(0.12 -0.12)">
       <use xlink:href="#DejaVuSans-49"/>
       <use x="63.623047" xlink:href="#DejaVuSans-49"/>
       <use x="127.246094" xlink:href="#DejaVuSans-51"/>
      </g>
     </g>
    </g>
    <g id="xtick_9">
     <g id="line2d_25">
      <g>
       <use style="stroke:#000000;stroke-width:0.5;" x="533.431611" xlink:href="#m56f26b61f9" y="324"/>
      </g>
     </g>
     <g id="line2d_26">
      <g>
       <use style="stroke:#000000;stroke-width:0.5;" x="533.431611" xlink:href="#mb979cbbedd" y="36"/>
      </g>
     </g>
     <g id="text_9">
      <!-- 129 -->
      <defs>
       <path d="M 19.1875 8.296875 
L 53.609375 8.296875 
L 53.609375 0 
L 7.328125 0 
L 7.328125 8.296875 
Q 12.9375 14.109375 22.625 23.890625 
Q 32.328125 33.6875 34.8125 36.53125 
Q 39.546875 41.84375 41.421875 45.53125 
Q 43.3125 49.21875 43.3125 52.78125 
Q 43.3125 58.59375 39.234375 62.25 
Q 35.15625 65.921875 28.609375 65.921875 
Q 23.96875 65.921875 18.8125 64.3125 
Q 13.671875 62.703125 7.8125 59.421875 
L 7.8125 69.390625 
Q 13.765625 71.78125 18.9375 73 
Q 24.125 74.21875 28.421875 74.21875 
Q 39.75 74.21875 46.484375 68.546875 
Q 53.21875 62.890625 53.21875 53.421875 
Q 53.21875 48.921875 51.53125 44.890625 
Q 49.859375 40.875 45.40625 35.40625 
Q 44.1875 33.984375 37.640625 27.21875 
Q 31.109375 20.453125 19.1875 8.296875 
z
" id="DejaVuSans-50"/>
      </defs>
      <g transform="translate(521.979111 337.118125)scale(0.12 -0.12)">
       <use xlink:href="#DejaVuSans-49"/>
       <use x="63.623047" xlink:href="#DejaVuSans-50"/>
       <use x="127.246094" xlink:href="#DejaVuSans-57"/>
      </g>
     </g>
    </g>
    <g id="xtick_10">
     <g id="line2d_27">
      <g>
       <use style="stroke:#000000;stroke-width:0.5;" x="586.006988" xlink:href="#m56f26b61f9" y="324"/>
      </g>
     </g>
     <g id="line2d_28">
      <g>
       <use style="stroke:#000000;stroke-width:0.5;" x="586.006988" xlink:href="#mb979cbbedd" y="36"/>
      </g>
     </g>
     <g id="text_10">
      <!-- 145 -->
      <g transform="translate(574.554488 337.118125)scale(0.12 -0.12)">
       <use xlink:href="#DejaVuSans-49"/>
       <use x="63.623047" xlink:href="#DejaVuSans-52"/>
       <use x="127.246094" xlink:href="#DejaVuSans-53"/>
      </g>
     </g>
    </g>
    <g id="text_11">
     <!-- generation -->
     <defs>
      <path d="M 45.40625 27.984375 
Q 45.40625 37.75 41.375 43.109375 
Q 37.359375 48.484375 30.078125 48.484375 
Q 22.859375 48.484375 18.828125 43.109375 
Q 14.796875 37.75 14.796875 27.984375 
Q 14.796875 18.265625 18.828125 12.890625 
Q 22.859375 7.515625 30.078125 7.515625 
Q 37.359375 7.515625 41.375 12.890625 
Q 45.40625 18.265625 45.40625 27.984375 
z
M 54.390625 6.78125 
Q 54.390625 -7.171875 48.1875 -13.984375 
Q 42 -20.796875 29.203125 -20.796875 
Q 24.46875 -20.796875 20.265625 -20.09375 
Q 16.0625 -19.390625 12.109375 -17.921875 
L 12.109375 -9.1875 
Q 16.0625 -11.328125 19.921875 -12.34375 
Q 23.78125 -13.375 27.78125 -13.375 
Q 36.625 -13.375 41.015625 -8.765625 
Q 45.40625 -4.15625 45.40625 5.171875 
L 45.40625 9.625 
Q 42.625 4.78125 38.28125 2.390625 
Q 33.9375 0 27.875 0 
Q 17.828125 0 11.671875 7.65625 
Q 5.515625 15.328125 5.515625 27.984375 
Q 5.515625 40.671875 11.671875 48.328125 
Q 17.828125 56 27.875 56 
Q 33.9375 56 38.28125 53.609375 
Q 42.625 51.21875 45.40625 46.390625 
L 45.40625 54.6875 
L 54.390625 54.6875 
z
" id="DejaVuSans-103"/>
      <path d="M 56.203125 29.59375 
L 56.203125 25.203125 
L 14.890625 25.203125 
Q 15.484375 15.921875 20.484375 11.0625 
Q 25.484375 6.203125 34.421875 6.203125 
Q 39.59375 6.203125 44.453125 7.46875 
Q 49.3125 8.734375 54.109375 11.28125 
L 54.109375 2.78125 
Q 49.265625 0.734375 44.1875 -0.34375 
Q 39.109375 -1.421875 33.890625 -1.421875 
Q 20.796875 -1.421875 13.15625 6.1875 
Q 5.515625 13.8125 5.515625 26.8125 
Q 5.515625 40.234375 12.765625 48.109375 
Q 20.015625 56 32.328125 56 
Q 43.359375 56 49.78125 48.890625 
Q 56.203125 41.796875 56.203125 29.59375 
z
M 47.21875 32.234375 
Q 47.125 39.59375 43.09375 43.984375 
Q 39.0625 48.390625 32.421875 48.390625 
Q 24.90625 48.390625 20.390625 44.140625 
Q 15.875 39.890625 15.1875 32.171875 
z
" id="DejaVuSans-101"/>
      <path d="M 54.890625 33.015625 
L 54.890625 0 
L 45.90625 0 
L 45.90625 32.71875 
Q 45.90625 40.484375 42.875 44.328125 
Q 39.84375 48.1875 33.796875 48.1875 
Q 26.515625 48.1875 22.3125 43.546875 
Q 18.109375 38.921875 18.109375 30.90625 
L 18.109375 0 
L 9.078125 0 
L 9.078125 54.6875 
L 18.109375 54.6875 
L 18.109375 46.1875 
Q 21.34375 51.125 25.703125 53.5625 
Q 30.078125 56 35.796875 56 
Q 45.21875 56 50.046875 50.171875 
Q 54.890625 44.34375 54.890625 33.015625 
z
" id="DejaVuSans-110"/>
      <path d="M 41.109375 46.296875 
Q 39.59375 47.171875 37.8125 47.578125 
Q 36.03125 48 33.890625 48 
Q 26.265625 48 22.1875 43.046875 
Q 18.109375 38.09375 18.109375 28.8125 
L 18.109375 0 
L 9.078125 0 
L 9.078125 54.6875 
L 18.109375 54.6875 
L 18.109375 46.1875 
Q 20.953125 51.171875 25.484375 53.578125 
Q 30.03125 56 36.53125 56 
Q 37.453125 56 38.578125 55.875 
Q 39.703125 55.765625 41.0625 55.515625 
z
" id="DejaVuSans-114"/>
      <path d="M 34.28125 27.484375 
Q 23.390625 27.484375 19.1875 25 
Q 14.984375 22.515625 14.984375 16.5 
Q 14.984375 11.71875 18.140625 8.90625 
Q 21.296875 6.109375 26.703125 6.109375 
Q 34.1875 6.109375 38.703125 11.40625 
Q 43.21875 16.703125 43.21875 25.484375 
L 43.21875 27.484375 
z
M 52.203125 31.203125 
L 52.203125 0 
L 43.21875 0 
L 43.21875 8.296875 
Q 40.140625 3.328125 35.546875 0.953125 
Q 30.953125 -1.421875 24.3125 -1.421875 
Q 15.921875 -1.421875 10.953125 3.296875 
Q 6 8.015625 6 15.921875 
Q 6 25.140625 12.171875 29.828125 
Q 18.359375 34.515625 30.609375 34.515625 
L 43.21875 34.515625 
L 43.21875 35.40625 
Q 43.21875 41.609375 39.140625 45 
Q 35.0625 48.390625 27.6875 48.390625 
Q 23 48.390625 18.546875 47.265625 
Q 14.109375 46.140625 10.015625 43.890625 
L 10.015625 52.203125 
Q 14.9375 54.109375 19.578125 55.046875 
Q 24.21875 56 28.609375 56 
Q 40.484375 56 46.34375 49.84375 
Q 52.203125 43.703125 52.203125 31.203125 
z
" id="DejaVuSans-97"/>
      <path d="M 18.3125 70.21875 
L 18.3125 54.6875 
L 36.8125 54.6875 
L 36.8125 47.703125 
L 18.3125 47.703125 
L 18.3125 18.015625 
Q 18.3125 11.328125 20.140625 9.421875 
Q 21.96875 7.515625 27.59375 7.515625 
L 36.8125 7.515625 
L 36.8125 0 
L 27.59375 0 
Q 17.1875 0 13.234375 3.875 
Q 9.28125 7.765625 9.28125 18.015625 
L 9.28125 47.703125 
L 2.6875 47.703125 
L 2.6875 54.6875 
L 9.28125 54.6875 
L 9.28125 70.21875 
z
" id="DejaVuSans-116"/>
      <path d="M 9.421875 54.6875 
L 18.40625 54.6875 
L 18.40625 0 
L 9.421875 0 
z
M 9.421875 75.984375 
L 18.40625 75.984375 
L 18.40625 64.59375 
L 9.421875 64.59375 
z
" id="DejaVuSans-105"/>
      <path d="M 30.609375 48.390625 
Q 23.390625 48.390625 19.1875 42.75 
Q 14.984375 37.109375 14.984375 27.296875 
Q 14.984375 17.484375 19.15625 11.84375 
Q 23.34375 6.203125 30.609375 6.203125 
Q 37.796875 6.203125 41.984375 11.859375 
Q 46.1875 17.53125 46.1875 27.296875 
Q 46.1875 37.015625 41.984375 42.703125 
Q 37.796875 48.390625 30.609375 48.390625 
z
M 30.609375 56 
Q 42.328125 56 49.015625 48.375 
Q 55.71875 40.765625 55.71875 27.296875 
Q 55.71875 13.875 49.015625 6.21875 
Q 42.328125 -1.421875 30.609375 -1.421875 
Q 18.84375 -1.421875 12.171875 6.21875 
Q 5.515625 13.875 5.515625 27.296875 
Q 5.515625 40.765625 12.171875 48.375 
Q 18.84375 56 30.609375 56 
z
" id="DejaVuSans-111"/>
     </defs>
     <g transform="translate(341.430938 353.731875)scale(0.12 -0.12)">
      <use xlink:href="#DejaVuSans-103"/>
      <use x="63.476562" xlink:href="#DejaVuSans-101"/>
      <use x="125" xlink:href="#DejaVuSans-110"/>
      <use x="188.378906" xlink:href="#DejaVuSans-101"/>
      <use x="249.902344" xlink:href="#DejaVuSans-114"/>
      <use x="291.015625" xlink:href="#DejaVuSans-97"/>
      <use x="352.294922" xlink:href="#DejaVuSans-116"/>
      <use x="391.503906" xlink:href="#DejaVuSans-105"/>
      <use x="419.287109" xlink:href="#DejaVuSans-111"/>
      <use x="480.46875" xlink:href="#DejaVuSans-110"/>
     </g>
    </g>
   </g>
   <g id="matplotlib.axis_2">
    <g id="ytick_1">
     <g id="line2d_29">
      <defs>
       <path d="M 0 0 
L 4 0 
" id="m9733aacd30" style="stroke:#000000;stroke-width:0.5;"/>
      </defs>
      <g>
       <use style="stroke:#000000;stroke-width:0.5;" x="112.5" xlink:href="#m9733aacd30" y="324"/>
      </g>
     </g>
     <g id="line2d_30">
      <defs>
       <path d="M 0 0 
L -4 0 
" id="m7b347737bd" style="stroke:#000000;stroke-width:0.5;"/>
      </defs>
      <g>
       <use style="stroke:#000000;stroke-width:0.5;" x="635.625" xlink:href="#m7b347737bd" y="324"/>
      </g>
     </g>
     <g id="text_12">
      <!-- 0 -->
      <defs>
       <path d="M 31.78125 66.40625 
Q 24.171875 66.40625 20.328125 58.90625 
Q 16.5 51.421875 16.5 36.375 
Q 16.5 21.390625 20.328125 13.890625 
Q 24.171875 6.390625 31.78125 6.390625 
Q 39.453125 6.390625 43.28125 13.890625 
Q 47.125 21.390625 47.125 36.375 
Q 47.125 51.421875 43.28125 58.90625 
Q 39.453125 66.40625 31.78125 66.40625 
z
M 31.78125 74.21875 
Q 44.046875 74.21875 50.515625 64.515625 
Q 56.984375 54.828125 56.984375 36.375 
Q 56.984375 17.96875 50.515625 8.265625 
Q 44.046875 -1.421875 31.78125 -1.421875 
Q 19.53125 -1.421875 13.0625 8.265625 
Q 6.59375 17.96875 6.59375 36.375 
Q 6.59375 54.828125 13.0625 64.515625 
Q 19.53125 74.21875 31.78125 74.21875 
z
" id="DejaVuSans-48"/>
      </defs>
      <g transform="translate(100.865 327.31125)scale(0.12 -0.12)">
       <use xlink:href="#DejaVuSans-48"/>
      </g>
     </g>
    </g>
    <g id="ytick_2">
     <g id="line2d_31">
      <g>
       <use style="stroke:#000000;stroke-width:0.5;" x="112.5" xlink:href="#m9733aacd30" y="276"/>
      </g>
     </g>
     <g id="line2d_32">
      <g>
       <use style="stroke:#000000;stroke-width:0.5;" x="635.625" xlink:href="#m7b347737bd" y="276"/>
      </g>
     </g>
     <g id="text_13">
      <!-- 1,000,000 -->
      <defs>
       <path d="M 11.71875 12.40625 
L 22.015625 12.40625 
L 22.015625 4 
L 14.015625 -11.625 
L 7.71875 -11.625 
L 11.71875 4 
z
" id="DejaVuSans-44"/>
      </defs>
      <g transform="translate(47.4275 279.31125)scale(0.12 -0.12)">
       <use xlink:href="#DejaVuSans-49"/>
       <use x="63.623047" xlink:href="#DejaVuSans-44"/>
       <use x="95.410156" xlink:href="#DejaVuSans-48"/>
       <use x="159.033203" xlink:href="#DejaVuSans-48"/>
       <use x="222.65625" xlink:href="#DejaVuSans-48"/>
       <use x="286.279297" xlink:href="#DejaVuSans-44"/>
       <use x="318.066406" xlink:href="#DejaVuSans-48"/>
       <use x="381.689453" xlink:href="#DejaVuSans-48"/>
       <use x="445.3125" xlink:href="#DejaVuSans-48"/>
      </g>
     </g>
    </g>
    <g id="ytick_3">
     <g id="line2d_33">
      <g>
       <use style="stroke:#000000;stroke-width:0.5;" x="112.5" xlink:href="#m9733aacd30" y="228"/>
      </g>
     </g>
     <g id="line2d_34">
      <g>
       <use style="stroke:#000000;stroke-width:0.5;" x="635.625" xlink:href="#m7b347737bd" y="228"/>
      </g>
     </g>
     <g id="text_14">
      <!-- 2,000,000 -->
      <g transform="translate(47.4275 231.31125)scale(0.12 -0.12)">
       <use xlink:href="#DejaVuSans-50"/>
       <use x="63.623047" xlink:href="#DejaVuSans-44"/>
       <use x="95.410156" xlink:href="#DejaVuSans-48"/>
       <use x="159.033203" xlink:href="#DejaVuSans-48"/>
       <use x="222.65625" xlink:href="#DejaVuSans-48"/>
       <use x="286.279297" xlink:href="#DejaVuSans-44"/>
       <use x="318.066406" xlink:href="#DejaVuSans-48"/>
       <use x="381.689453" xlink:href="#DejaVuSans-48"/>
       <use x="445.3125" xlink:href="#DejaVuSans-48"/>
      </g>
     </g>
    </g>
    <g id="ytick_4">
     <g id="line2d_35">
      <g>
       <use style="stroke:#000000;stroke-width:0.5;" x="112.5" xlink:href="#m9733aacd30" y="180"/>
      </g>
     </g>
     <g id="line2d_36">
      <g>
       <use style="stroke:#000000;stroke-width:0.5;" x="635.625" xlink:href="#m7b347737bd" y="180"/>
      </g>
     </g>
     <g id="text_15">
      <!-- 3,000,000 -->
      <g transform="translate(47.4275 183.31125)scale(0.12 -0.12)">
       <use xlink:href="#DejaVuSans-51"/>
       <use x="63.623047" xlink:href="#DejaVuSans-44"/>
       <use x="95.410156" xlink:href="#DejaVuSans-48"/>
       <use x="159.033203" xlink:href="#DejaVuSans-48"/>
       <use x="222.65625" xlink:href="#DejaVuSans-48"/>
       <use x="286.279297" xlink:href="#DejaVuSans-44"/>
       <use x="318.066406" xlink:href="#DejaVuSans-48"/>
       <use x="381.689453" xlink:href="#DejaVuSans-48"/>
       <use x="445.3125" xlink:href="#DejaVuSans-48"/>
      </g>
     </g>
    </g>
    <g id="ytick_5">
     <g id="line2d_37">
      <g>
       <use style="stroke:#000000;stroke-width:0.5;" x="112.5" xlink:href="#m9733aacd30" y="132"/>
      </g>
     </g>
     <g id="line2d_38">
      <g>
       <use style="stroke:#000000;stroke-width:0.5;" x="635.625" xlink:href="#m7b347737bd" y="132"/>
      </g>
     </g>
     <g id="text_16">
      <!-- 4,000,000 -->
      <g transform="translate(47.4275 135.31125)scale(0.12 -0.12)">
       <use xlink:href="#DejaVuSans-52"/>
       <use x="63.623047" xlink:href="#DejaVuSans-44"/>
       <use x="95.410156" xlink:href="#DejaVuSans-48"/>
       <use x="159.033203" xlink:href="#DejaVuSans-48"/>
       <use x="222.65625" xlink:href="#DejaVuSans-48"/>
       <use x="286.279297" xlink:href="#DejaVuSans-44"/>
       <use x="318.066406" xlink:href="#DejaVuSans-48"/>
       <use x="381.689453" xlink:href="#DejaVuSans-48"/>
       <use x="445.3125" xlink:href="#DejaVuSans-48"/>
      </g>
     </g>
    </g>
    <g id="ytick_6">
     <g id="line2d_39">
      <g>
       <use style="stroke:#000000;stroke-width:0.5;" x="112.5" xlink:href="#m9733aacd30" y="84"/>
      </g>
     </g>
     <g id="line2d_40">
      <g>
       <use style="stroke:#000000;stroke-width:0.5;" x="635.625" xlink:href="#m7b347737bd" y="84"/>
      </g>
     </g>
     <g id="text_17">
      <!-- 5,000,000 -->
      <g transform="translate(47.4275 87.31125)scale(0.12 -0.12)">
       <use xlink:href="#DejaVuSans-53"/>
       <use x="63.623047" xlink:href="#DejaVuSans-44"/>
       <use x="95.410156" xlink:href="#DejaVuSans-48"/>
       <use x="159.033203" xlink:href="#DejaVuSans-48"/>
       <use x="222.65625" xlink:href="#DejaVuSans-48"/>
       <use x="286.279297" xlink:href="#DejaVuSans-44"/>
       <use x="318.066406" xlink:href="#DejaVuSans-48"/>
       <use x="381.689453" xlink:href="#DejaVuSans-48"/>
       <use x="445.3125" xlink:href="#DejaVuSans-48"/>
      </g>
     </g>
    </g>
    <g id="ytick_7">
     <g id="line2d_41">
      <g>
       <use style="stroke:#000000;stroke-width:0.5;" x="112.5" xlink:href="#m9733aacd30" y="36"/>
      </g>
     </g>
     <g id="line2d_42">
      <g>
       <use style="stroke:#000000;stroke-width:0.5;" x="635.625" xlink:href="#m7b347737bd" y="36"/>
      </g>
     </g>
     <g id="text_18">
      <!-- 6,000,000 -->
      <g transform="translate(47.4275 39.31125)scale(0.12 -0.12)">
       <use xlink:href="#DejaVuSans-54"/>
       <use x="63.623047" xlink:href="#DejaVuSans-44"/>
       <use x="95.410156" xlink:href="#DejaVuSans-48"/>
       <use x="159.033203" xlink:href="#DejaVuSans-48"/>
       <use x="222.65625" xlink:href="#DejaVuSans-48"/>
       <use x="286.279297" xlink:href="#DejaVuSans-44"/>
       <use x="318.066406" xlink:href="#DejaVuSans-48"/>
       <use x="381.689453" xlink:href="#DejaVuSans-48"/>
       <use x="445.3125" xlink:href="#DejaVuSans-48"/>
      </g>
     </g>
    </g>
    <g id="text_19">
     <!-- parameters -->
     <defs>
      <path d="M 18.109375 8.203125 
L 18.109375 -20.796875 
L 9.078125 -20.796875 
L 9.078125 54.6875 
L 18.109375 54.6875 
L 18.109375 46.390625 
Q 20.953125 51.265625 25.265625 53.625 
Q 29.59375 56 35.59375 56 
Q 45.5625 56 51.78125 48.09375 
Q 58.015625 40.1875 58.015625 27.296875 
Q 58.015625 14.40625 51.78125 6.484375 
Q 45.5625 -1.421875 35.59375 -1.421875 
Q 29.59375 -1.421875 25.265625 0.953125 
Q 20.953125 3.328125 18.109375 8.203125 
z
M 48.6875 27.296875 
Q 48.6875 37.203125 44.609375 42.84375 
Q 40.53125 48.484375 33.40625 48.484375 
Q 26.265625 48.484375 22.1875 42.84375 
Q 18.109375 37.203125 18.109375 27.296875 
Q 18.109375 17.390625 22.1875 11.75 
Q 26.265625 6.109375 33.40625 6.109375 
Q 40.53125 6.109375 44.609375 11.75 
Q 48.6875 17.390625 48.6875 27.296875 
z
" id="DejaVuSans-112"/>
      <path d="M 52 44.1875 
Q 55.375 50.25 60.0625 53.125 
Q 64.75 56 71.09375 56 
Q 79.640625 56 84.28125 50.015625 
Q 88.921875 44.046875 88.921875 33.015625 
L 88.921875 0 
L 79.890625 0 
L 79.890625 32.71875 
Q 79.890625 40.578125 77.09375 44.375 
Q 74.3125 48.1875 68.609375 48.1875 
Q 61.625 48.1875 57.5625 43.546875 
Q 53.515625 38.921875 53.515625 30.90625 
L 53.515625 0 
L 44.484375 0 
L 44.484375 32.71875 
Q 44.484375 40.625 41.703125 44.40625 
Q 38.921875 48.1875 33.109375 48.1875 
Q 26.21875 48.1875 22.15625 43.53125 
Q 18.109375 38.875 18.109375 30.90625 
L 18.109375 0 
L 9.078125 0 
L 9.078125 54.6875 
L 18.109375 54.6875 
L 18.109375 46.1875 
Q 21.1875 51.21875 25.484375 53.609375 
Q 29.78125 56 35.6875 56 
Q 41.65625 56 45.828125 52.96875 
Q 50 49.953125 52 44.1875 
z
" id="DejaVuSans-109"/>
      <path d="M 44.28125 53.078125 
L 44.28125 44.578125 
Q 40.484375 46.53125 36.375 47.5 
Q 32.28125 48.484375 27.875 48.484375 
Q 21.1875 48.484375 17.84375 46.4375 
Q 14.5 44.390625 14.5 40.28125 
Q 14.5 37.15625 16.890625 35.375 
Q 19.28125 33.59375 26.515625 31.984375 
L 29.59375 31.296875 
Q 39.15625 29.25 43.1875 25.515625 
Q 47.21875 21.78125 47.21875 15.09375 
Q 47.21875 7.46875 41.1875 3.015625 
Q 35.15625 -1.421875 24.609375 -1.421875 
Q 20.21875 -1.421875 15.453125 -0.5625 
Q 10.6875 0.296875 5.421875 2 
L 5.421875 11.28125 
Q 10.40625 8.6875 15.234375 7.390625 
Q 20.0625 6.109375 24.8125 6.109375 
Q 31.15625 6.109375 34.5625 8.28125 
Q 37.984375 10.453125 37.984375 14.40625 
Q 37.984375 18.0625 35.515625 20.015625 
Q 33.0625 21.96875 24.703125 23.78125 
L 21.578125 24.515625 
Q 13.234375 26.265625 9.515625 29.90625 
Q 5.8125 33.546875 5.8125 39.890625 
Q 5.8125 47.609375 11.28125 51.796875 
Q 16.75 56 26.8125 56 
Q 31.78125 56 36.171875 55.265625 
Q 40.578125 54.546875 44.28125 53.078125 
z
" id="DejaVuSans-115"/>
     </defs>
     <g transform="translate(39.931875 214.801875)rotate(-90)scale(0.12 -0.12)">
      <use xlink:href="#DejaVuSans-112"/>
      <use x="63.476562" xlink:href="#DejaVuSans-97"/>
      <use x="124.755859" xlink:href="#DejaVuSans-114"/>
      <use x="165.869141" xlink:href="#DejaVuSans-97"/>
      <use x="227.148438" xlink:href="#DejaVuSans-109"/>
      <use x="324.560547" xlink:href="#DejaVuSans-101"/>
      <use x="386.083984" xlink:href="#DejaVuSans-116"/>
      <use x="425.292969" xlink:href="#DejaVuSans-101"/>
      <use x="486.816406" xlink:href="#DejaVuSans-114"/>
      <use x="527.929688" xlink:href="#DejaVuSans-115"/>
     </g>
    </g>
   </g>
   <g id="legend_1">
    <g id="patch_7">
     <path d="M 640.623 241.30047 
L 771.156703 241.30047 
L 771.156703 118.69953 
L 640.623 118.69953 
z
" style="fill:#ffffff;stroke:#000000;stroke-linejoin:miter;"/>
    </g>
    <g id="line2d_43">
     <path d="M 647.6202 126.794728 
L 661.6146 126.794728 
" style="fill:none;stroke:#0000ff;stroke-linecap:square;stroke-width:1.2;"/>
    </g>
    <g id="line2d_44"/>
    <g id="text_20">
     <!-- Lonely_Loss_Exp_2 -->
     <defs>
      <path d="M 9.8125 72.90625 
L 19.671875 72.90625 
L 19.671875 8.296875 
L 55.171875 8.296875 
L 55.171875 0 
L 9.8125 0 
z
" id="DejaVuSans-76"/>
      <path d="M 9.421875 75.984375 
L 18.40625 75.984375 
L 18.40625 0 
L 9.421875 0 
z
" id="DejaVuSans-108"/>
      <path d="M 32.171875 -5.078125 
Q 28.375 -14.84375 24.75 -17.8125 
Q 21.140625 -20.796875 15.09375 -20.796875 
L 7.90625 -20.796875 
L 7.90625 -13.28125 
L 13.1875 -13.28125 
Q 16.890625 -13.28125 18.9375 -11.515625 
Q 21 -9.765625 23.484375 -3.21875 
L 25.09375 0.875 
L 2.984375 54.6875 
L 12.5 54.6875 
L 29.59375 11.921875 
L 46.6875 54.6875 
L 56.203125 54.6875 
z
" id="DejaVuSans-121"/>
      <path d="M 50.984375 -16.609375 
L 50.984375 -23.578125 
L -0.984375 -23.578125 
L -0.984375 -16.609375 
z
" id="DejaVuSans-95"/>
      <path d="M 9.8125 72.90625 
L 55.90625 72.90625 
L 55.90625 64.59375 
L 19.671875 64.59375 
L 19.671875 43.015625 
L 54.390625 43.015625 
L 54.390625 34.71875 
L 19.671875 34.71875 
L 19.671875 8.296875 
L 56.78125 8.296875 
L 56.78125 0 
L 9.8125 0 
z
" id="DejaVuSans-69"/>
      <path d="M 54.890625 54.6875 
L 35.109375 28.078125 
L 55.90625 0 
L 45.3125 0 
L 29.390625 21.484375 
L 13.484375 0 
L 2.875 0 
L 24.125 28.609375 
L 4.6875 54.6875 
L 15.28125 54.6875 
L 29.78125 35.203125 
L 44.28125 54.6875 
z
" id="DejaVuSans-120"/>
     </defs>
     <g transform="translate(672.6102 130.293328)scale(0.09996 -0.09996)">
      <use xlink:href="#DejaVuSans-76"/>
      <use x="53.962891" xlink:href="#DejaVuSans-111"/>
      <use x="115.144531" xlink:href="#DejaVuSans-110"/>
      <use x="178.523438" xlink:href="#DejaVuSans-101"/>
      <use x="240.046875" xlink:href="#DejaVuSans-108"/>
      <use x="267.830078" xlink:href="#DejaVuSans-121"/>
      <use x="327.009766" xlink:href="#DejaVuSans-95"/>
      <use x="377.009766" xlink:href="#DejaVuSans-76"/>
      <use x="430.972656" xlink:href="#DejaVuSans-111"/>
      <use x="492.154297" xlink:href="#DejaVuSans-115"/>
      <use x="544.253906" xlink:href="#DejaVuSans-115"/>
      <use x="596.353516" xlink:href="#DejaVuSans-95"/>
      <use x="646.353516" xlink:href="#DejaVuSans-69"/>
      <use x="709.537109" xlink:href="#DejaVuSans-120"/>
      <use x="768.716797" xlink:href="#DejaVuSans-112"/>
      <use x="832.193359" xlink:href="#DejaVuSans-95"/>
      <use x="882.193359" xlink:href="#DejaVuSans-50"/>
     </g>
    </g>
    <g id="line2d_45">
     <path d="M 647.6202 141.744996 
L 661.6146 141.744996 
" style="fill:none;stroke:#008000;stroke-linecap:square;stroke-width:1.2;"/>
    </g>
    <g id="line2d_46"/>
    <g id="text_21">
     <!-- Lonely_Loss_Exp_3 -->
     <g transform="translate(672.6102 145.243596)scale(0.09996 -0.09996)">
      <use xlink:href="#DejaVuSans-76"/>
      <use x="53.962891" xlink:href="#DejaVuSans-111"/>
      <use x="115.144531" xlink:href="#DejaVuSans-110"/>
      <use x="178.523438" xlink:href="#DejaVuSans-101"/>
      <use x="240.046875" xlink:href="#DejaVuSans-108"/>
      <use x="267.830078" xlink:href="#DejaVuSans-121"/>
      <use x="327.009766" xlink:href="#DejaVuSans-95"/>
      <use x="377.009766" xlink:href="#DejaVuSans-76"/>
      <use x="430.972656" xlink:href="#DejaVuSans-111"/>
      <use x="492.154297" xlink:href="#DejaVuSans-115"/>
      <use x="544.253906" xlink:href="#DejaVuSans-115"/>
      <use x="596.353516" xlink:href="#DejaVuSans-95"/>
      <use x="646.353516" xlink:href="#DejaVuSans-69"/>
      <use x="709.537109" xlink:href="#DejaVuSans-120"/>
      <use x="768.716797" xlink:href="#DejaVuSans-112"/>
      <use x="832.193359" xlink:href="#DejaVuSans-95"/>
      <use x="882.193359" xlink:href="#DejaVuSans-51"/>
     </g>
    </g>
    <g id="line2d_47">
     <path d="M 647.6202 156.695263 
L 661.6146 156.695263 
" style="fill:none;stroke:#ff0000;stroke-linecap:square;stroke-width:1.2;"/>
    </g>
    <g id="line2d_48"/>
    <g id="text_22">
     <!-- Lonely_Loss_Exp_4 -->
     <g transform="translate(672.6102 160.193863)scale(0.09996 -0.09996)">
      <use xlink:href="#DejaVuSans-76"/>
      <use x="53.962891" xlink:href="#DejaVuSans-111"/>
      <use x="115.144531" xlink:href="#DejaVuSans-110"/>
      <use x="178.523438" xlink:href="#DejaVuSans-101"/>
      <use x="240.046875" xlink:href="#DejaVuSans-108"/>
      <use x="267.830078" xlink:href="#DejaVuSans-121"/>
      <use x="327.009766" xlink:href="#DejaVuSans-95"/>
      <use x="377.009766" xlink:href="#DejaVuSans-76"/>
      <use x="430.972656" xlink:href="#DejaVuSans-111"/>
      <use x="492.154297" xlink:href="#DejaVuSans-115"/>
      <use x="544.253906" xlink:href="#DejaVuSans-115"/>
      <use x="596.353516" xlink:href="#DejaVuSans-95"/>
      <use x="646.353516" xlink:href="#DejaVuSans-69"/>
      <use x="709.537109" xlink:href="#DejaVuSans-120"/>
      <use x="768.716797" xlink:href="#DejaVuSans-112"/>
      <use x="832.193359" xlink:href="#DejaVuSans-95"/>
      <use x="882.193359" xlink:href="#DejaVuSans-52"/>
     </g>
    </g>
    <g id="line2d_49">
     <path d="M 647.6202 171.645531 
L 661.6146 171.645531 
" style="fill:none;stroke:#00bfbf;stroke-linecap:square;stroke-width:1.2;"/>
    </g>
    <g id="line2d_50"/>
    <g id="text_23">
     <!-- Lonely_Loss_Exp_5 -->
     <g transform="translate(672.6102 175.144131)scale(0.09996 -0.09996)">
      <use xlink:href="#DejaVuSans-76"/>
      <use x="53.962891" xlink:href="#DejaVuSans-111"/>
      <use x="115.144531" xlink:href="#DejaVuSans-110"/>
      <use x="178.523438" xlink:href="#DejaVuSans-101"/>
      <use x="240.046875" xlink:href="#DejaVuSans-108"/>
      <use x="267.830078" xlink:href="#DejaVuSans-121"/>
      <use x="327.009766" xlink:href="#DejaVuSans-95"/>
      <use x="377.009766" xlink:href="#DejaVuSans-76"/>
      <use x="430.972656" xlink:href="#DejaVuSans-111"/>
      <use x="492.154297" xlink:href="#DejaVuSans-115"/>
      <use x="544.253906" xlink:href="#DejaVuSans-115"/>
      <use x="596.353516" xlink:href="#DejaVuSans-95"/>
      <use x="646.353516" xlink:href="#DejaVuSans-69"/>
      <use x="709.537109" xlink:href="#DejaVuSans-120"/>
      <use x="768.716797" xlink:href="#DejaVuSans-112"/>
      <use x="832.193359" xlink:href="#DejaVuSans-95"/>
      <use x="882.193359" xlink:href="#DejaVuSans-53"/>
     </g>
    </g>
    <g id="line2d_51">
     <path d="M 647.6202 186.595798 
L 661.6146 186.595798 
" style="fill:none;stroke:#bf00bf;stroke-linecap:square;stroke-width:1.2;"/>
    </g>
    <g id="line2d_52"/>
    <g id="text_24">
     <!-- Lonely_Loss_LS_2 -->
     <defs>
      <path d="M 53.515625 70.515625 
L 53.515625 60.890625 
Q 47.90625 63.578125 42.921875 64.890625 
Q 37.9375 66.21875 33.296875 66.21875 
Q 25.25 66.21875 20.875 63.09375 
Q 16.5 59.96875 16.5 54.203125 
Q 16.5 49.359375 19.40625 46.890625 
Q 22.3125 44.4375 30.421875 42.921875 
L 36.375 41.703125 
Q 47.40625 39.59375 52.65625 34.296875 
Q 57.90625 29 57.90625 20.125 
Q 57.90625 9.515625 50.796875 4.046875 
Q 43.703125 -1.421875 29.984375 -1.421875 
Q 24.8125 -1.421875 18.96875 -0.25 
Q 13.140625 0.921875 6.890625 3.21875 
L 6.890625 13.375 
Q 12.890625 10.015625 18.65625 8.296875 
Q 24.421875 6.59375 29.984375 6.59375 
Q 38.421875 6.59375 43.015625 9.90625 
Q 47.609375 13.234375 47.609375 19.390625 
Q 47.609375 24.75 44.3125 27.78125 
Q 41.015625 30.8125 33.5 32.328125 
L 27.484375 33.5 
Q 16.453125 35.6875 11.515625 40.375 
Q 6.59375 45.0625 6.59375 53.421875 
Q 6.59375 63.09375 13.40625 68.65625 
Q 20.21875 74.21875 32.171875 74.21875 
Q 37.3125 74.21875 42.625 73.28125 
Q 47.953125 72.359375 53.515625 70.515625 
z
" id="DejaVuSans-83"/>
     </defs>
     <g transform="translate(672.6102 190.094398)scale(0.09996 -0.09996)">
      <use xlink:href="#DejaVuSans-76"/>
      <use x="53.962891" xlink:href="#DejaVuSans-111"/>
      <use x="115.144531" xlink:href="#DejaVuSans-110"/>
      <use x="178.523438" xlink:href="#DejaVuSans-101"/>
      <use x="240.046875" xlink:href="#DejaVuSans-108"/>
      <use x="267.830078" xlink:href="#DejaVuSans-121"/>
      <use x="327.009766" xlink:href="#DejaVuSans-95"/>
      <use x="377.009766" xlink:href="#DejaVuSans-76"/>
      <use x="430.972656" xlink:href="#DejaVuSans-111"/>
      <use x="492.154297" xlink:href="#DejaVuSans-115"/>
      <use x="544.253906" xlink:href="#DejaVuSans-115"/>
      <use x="596.353516" xlink:href="#DejaVuSans-95"/>
      <use x="646.353516" xlink:href="#DejaVuSans-76"/>
      <use x="702.066406" xlink:href="#DejaVuSans-83"/>
      <use x="765.542969" xlink:href="#DejaVuSans-95"/>
      <use x="815.542969" xlink:href="#DejaVuSans-50"/>
     </g>
    </g>
    <g id="line2d_53">
     <path d="M 647.6202 201.546066 
L 661.6146 201.546066 
" style="fill:none;stroke:#bfbf00;stroke-linecap:square;stroke-width:1.2;"/>
    </g>
    <g id="line2d_54"/>
    <g id="text_25">
     <!-- Lonely_Loss_LS_3 -->
     <g transform="translate(672.6102 205.044666)scale(0.09996 -0.09996)">
      <use xlink:href="#DejaVuSans-76"/>
      <use x="53.962891" xlink:href="#DejaVuSans-111"/>
      <use x="115.144531" xlink:href="#DejaVuSans-110"/>
      <use x="178.523438" xlink:href="#DejaVuSans-101"/>
      <use x="240.046875" xlink:href="#DejaVuSans-108"/>
      <use x="267.830078" xlink:href="#DejaVuSans-121"/>
      <use x="327.009766" xlink:href="#DejaVuSans-95"/>
      <use x="377.009766" xlink:href="#DejaVuSans-76"/>
      <use x="430.972656" xlink:href="#DejaVuSans-111"/>
      <use x="492.154297" xlink:href="#DejaVuSans-115"/>
      <use x="544.253906" xlink:href="#DejaVuSans-115"/>
      <use x="596.353516" xlink:href="#DejaVuSans-95"/>
      <use x="646.353516" xlink:href="#DejaVuSans-76"/>
      <use x="702.066406" xlink:href="#DejaVuSans-83"/>
      <use x="765.542969" xlink:href="#DejaVuSans-95"/>
      <use x="815.542969" xlink:href="#DejaVuSans-51"/>
     </g>
    </g>
    <g id="line2d_55">
     <path d="M 647.6202 216.496333 
L 661.6146 216.496333 
" style="fill:none;stroke:#000000;stroke-linecap:square;stroke-width:1.2;"/>
    </g>
    <g id="line2d_56"/>
    <g id="text_26">
     <!-- Lonely_Loss_LS_4 -->
     <g transform="translate(672.6102 219.994933)scale(0.09996 -0.09996)">
      <use xlink:href="#DejaVuSans-76"/>
      <use x="53.962891" xlink:href="#DejaVuSans-111"/>
      <use x="115.144531" xlink:href="#DejaVuSans-110"/>
      <use x="178.523438" xlink:href="#DejaVuSans-101"/>
      <use x="240.046875" xlink:href="#DejaVuSans-108"/>
      <use x="267.830078" xlink:href="#DejaVuSans-121"/>
      <use x="327.009766" xlink:href="#DejaVuSans-95"/>
      <use x="377.009766" xlink:href="#DejaVuSans-76"/>
      <use x="430.972656" xlink:href="#DejaVuSans-111"/>
      <use x="492.154297" xlink:href="#DejaVuSans-115"/>
      <use x="544.253906" xlink:href="#DejaVuSans-115"/>
      <use x="596.353516" xlink:href="#DejaVuSans-95"/>
      <use x="646.353516" xlink:href="#DejaVuSans-76"/>
      <use x="702.066406" xlink:href="#DejaVuSans-83"/>
      <use x="765.542969" xlink:href="#DejaVuSans-95"/>
      <use x="815.542969" xlink:href="#DejaVuSans-52"/>
     </g>
    </g>
    <g id="line2d_57">
     <path d="M 647.6202 231.446601 
L 661.6146 231.446601 
" style="fill:none;stroke:#0000ff;stroke-linecap:square;stroke-width:1.2;"/>
    </g>
    <g id="line2d_58"/>
    <g id="text_27">
     <!-- Lonely_Loss_LS_5 -->
     <g transform="translate(672.6102 234.945201)scale(0.09996 -0.09996)">
      <use xlink:href="#DejaVuSans-76"/>
      <use x="53.962891" xlink:href="#DejaVuSans-111"/>
      <use x="115.144531" xlink:href="#DejaVuSans-110"/>
      <use x="178.523438" xlink:href="#DejaVuSans-101"/>
      <use x="240.046875" xlink:href="#DejaVuSans-108"/>
      <use x="267.830078" xlink:href="#DejaVuSans-121"/>
      <use x="327.009766" xlink:href="#DejaVuSans-95"/>
      <use x="377.009766" xlink:href="#DejaVuSans-76"/>
      <use x="430.972656" xlink:href="#DejaVuSans-111"/>
      <use x="492.154297" xlink:href="#DejaVuSans-115"/>
      <use x="544.253906" xlink:href="#DejaVuSans-115"/>
      <use x="596.353516" xlink:href="#DejaVuSans-95"/>
      <use x="646.353516" xlink:href="#DejaVuSans-76"/>
      <use x="702.066406" xlink:href="#DejaVuSans-83"/>
      <use x="765.542969" xlink:href="#DejaVuSans-95"/>
      <use x="815.542969" xlink:href="#DejaVuSans-53"/>
     </g>
    </g>
   </g>
  </g>
  <g id="text_28">
   <!-- Average Amount of Parameters -->
   <defs>
    <path d="M 34.1875 63.1875 
L 20.796875 26.90625 
L 47.609375 26.90625 
z
M 28.609375 72.90625 
L 39.796875 72.90625 
L 67.578125 0 
L 57.328125 0 
L 50.6875 18.703125 
L 17.828125 18.703125 
L 11.1875 0 
L 0.78125 0 
z
" id="DejaVuSans-65"/>
    <path d="M 2.984375 54.6875 
L 12.5 54.6875 
L 29.59375 8.796875 
L 46.6875 54.6875 
L 56.203125 54.6875 
L 35.6875 0 
L 23.484375 0 
z
" id="DejaVuSans-118"/>
    <path id="DejaVuSans-32"/>
    <path d="M 8.5 21.578125 
L 8.5 54.6875 
L 17.484375 54.6875 
L 17.484375 21.921875 
Q 17.484375 14.15625 20.5 10.265625 
Q 23.53125 6.390625 29.59375 6.390625 
Q 36.859375 6.390625 41.078125 11.03125 
Q 45.3125 15.671875 45.3125 23.6875 
L 45.3125 54.6875 
L 54.296875 54.6875 
L 54.296875 0 
L 45.3125 0 
L 45.3125 8.40625 
Q 42.046875 3.421875 37.71875 1 
Q 33.40625 -1.421875 27.6875 -1.421875 
Q 18.265625 -1.421875 13.375 4.4375 
Q 8.5 10.296875 8.5 21.578125 
z
M 31.109375 56 
z
" id="DejaVuSans-117"/>
    <path d="M 37.109375 75.984375 
L 37.109375 68.5 
L 28.515625 68.5 
Q 23.6875 68.5 21.796875 66.546875 
Q 19.921875 64.59375 19.921875 59.515625 
L 19.921875 54.6875 
L 34.71875 54.6875 
L 34.71875 47.703125 
L 19.921875 47.703125 
L 19.921875 0 
L 10.890625 0 
L 10.890625 47.703125 
L 2.296875 47.703125 
L 2.296875 54.6875 
L 10.890625 54.6875 
L 10.890625 58.5 
Q 10.890625 67.625 15.140625 71.796875 
Q 19.390625 75.984375 28.609375 75.984375 
z
" id="DejaVuSans-102"/>
    <path d="M 19.671875 64.796875 
L 19.671875 37.40625 
L 32.078125 37.40625 
Q 38.96875 37.40625 42.71875 40.96875 
Q 46.484375 44.53125 46.484375 51.125 
Q 46.484375 57.671875 42.71875 61.234375 
Q 38.96875 64.796875 32.078125 64.796875 
z
M 9.8125 72.90625 
L 32.078125 72.90625 
Q 44.34375 72.90625 50.609375 67.359375 
Q 56.890625 61.8125 56.890625 51.125 
Q 56.890625 40.328125 50.609375 34.8125 
Q 44.34375 29.296875 32.078125 29.296875 
L 19.671875 29.296875 
L 19.671875 0 
L 9.8125 0 
z
" id="DejaVuSans-80"/>
   </defs>
   <g transform="translate(355.93875 16.318125)scale(0.12 -0.12)">
    <use xlink:href="#DejaVuSans-65"/>
    <use x="62.533203" xlink:href="#DejaVuSans-118"/>
    <use x="121.712891" xlink:href="#DejaVuSans-101"/>
    <use x="183.236328" xlink:href="#DejaVuSans-114"/>
    <use x="224.349609" xlink:href="#DejaVuSans-97"/>
    <use x="285.628906" xlink:href="#DejaVuSans-103"/>
    <use x="349.105469" xlink:href="#DejaVuSans-101"/>
    <use x="410.628906" xlink:href="#DejaVuSans-32"/>
    <use x="442.416016" xlink:href="#DejaVuSans-65"/>
    <use x="510.824219" xlink:href="#DejaVuSans-109"/>
    <use x="608.236328" xlink:href="#DejaVuSans-111"/>
    <use x="669.417969" xlink:href="#DejaVuSans-117"/>
    <use x="732.796875" xlink:href="#DejaVuSans-110"/>
    <use x="796.175781" xlink:href="#DejaVuSans-116"/>
    <use x="835.384766" xlink:href="#DejaVuSans-32"/>
    <use x="867.171875" xlink:href="#DejaVuSans-111"/>
    <use x="928.353516" xlink:href="#DejaVuSans-102"/>
    <use x="963.558594" xlink:href="#DejaVuSans-32"/>
    <use x="995.345703" xlink:href="#DejaVuSans-80"/>
    <use x="1051.148438" xlink:href="#DejaVuSans-97"/>
    <use x="1112.427734" xlink:href="#DejaVuSans-114"/>
    <use x="1153.541016" xlink:href="#DejaVuSans-97"/>
    <use x="1214.820312" xlink:href="#DejaVuSans-109"/>
    <use x="1312.232422" xlink:href="#DejaVuSans-101"/>
    <use x="1373.755859" xlink:href="#DejaVuSans-116"/>
    <use x="1412.964844" xlink:href="#DejaVuSans-101"/>
    <use x="1474.488281" xlink:href="#DejaVuSans-114"/>
    <use x="1515.601562" xlink:href="#DejaVuSans-115"/>
   </g>
  </g>
 </g>
 <defs>
  <clipPath id="p978b0419aa">
   <rect height="288" width="523.125" x="112.5" y="36"/>
  </clipPath>
 </defs>
</svg>
