<?xml version="1.0" encoding="utf-8" standalone="no"?>
<!DOCTYPE svg PUBLIC "-//W3C//DTD SVG 1.1//EN"
  "http://www.w3.org/Graphics/SVG/1.1/DTD/svg11.dtd">
<!-- Created with matplotlib (https://matplotlib.org/) -->
<svg height="360pt" version="1.1" viewBox="0 0 900 360" width="900pt" xmlns="http://www.w3.org/2000/svg" xmlns:xlink="http://www.w3.org/1999/xlink">
 <defs>
  <style type="text/css">
*{stroke-linecap:butt;stroke-linejoin:round;}
  </style>
 </defs>
 <g id="figure_1">
  <g id="patch_1">
   <path d="M 0 360 
L 900 360 
L 900 0 
L 0 0 
z
" style="fill:#ffffff;"/>
  </g>
  <g id="axes_1">
   <g id="patch_2">
    <path d="M 112.5 324 
L 635.625 324 
L 635.625 36 
L 112.5 36 
z
" style="fill:#ffffff;"/>
   </g>
   <g id="line2d_1">
    <path clip-path="url(#pfa9df17a99)" d="M 112.832777 63.0358 
L 116.160544 92.154672 
L 119.488311 84.776873 
L 122.816078 141.370079 
L 126.143845 116.480781 
L 129.471613 111.742686 
L 132.79938 107.588831 
L 136.127147 135.243324 
L 139.454914 138.571603 
L 142.782681 122.446582 
L 146.110448 129.350821 
L 149.438216 84.912703 
L 152.765983 146.039371 
L 156.09375 148.954777 
L 159.421517 130.526406 
L 162.749284 119.276345 
L 166.077052 111.257365 
L 169.404819 152.44321 
L 172.732586 152.308427 
L 176.060353 118.467326 
L 179.38812 106.517279 
L 182.715887 156.857546 
L 186.043655 145.907314 
L 189.371422 156.065666 
L 192.699189 180.116258 
L 196.026956 177.590966 
L 199.354723 156.643209 
L 202.68249 133.090706 
L 206.010258 152.635214 
L 209.338025 150.773733 
L 212.665792 175.738923 
L 215.993559 147.987664 
L 219.321326 151.146922 
L 222.649094 185.941737 
L 225.976861 126.613636 
L 229.304628 167.150983 
L 232.632395 158.894424 
L 235.960162 146.832791 
L 239.287929 167.649876 
L 242.615697 141.760247 
L 245.943464 152.001425 
L 249.271231 129.064549 
L 252.598998 159.652588 
L 255.926765 148.391206 
L 259.254532 158.436025 
L 262.5823 187.368835 
L 265.910067 142.559075 
L 269.237834 172.619989 
L 272.565601 150.174338 
L 275.893368 175.589618 
L 279.221135 146.689047 
L 282.548903 191.745097 
L 285.87667 173.398005 
L 289.204437 141.548094 
L 292.532204 166.758977 
L 295.859971 178.931763 
L 299.187739 188.024713 
L 302.515506 193.402868 
L 305.843273 177.338752 
L 309.17104 185.228959 
L 312.498807 191.812977 
L 315.826574 88.534685 
L 319.154342 207.19764 
L 322.482109 174.963904 
L 325.809876 151.211016 
L 329.137643 201.603425 
L 332.46541 173.066578 
L 335.793177 221.352086 
L 339.120945 158.630308 
L 342.448712 216.998777 
L 345.776479 200.320634 
L 349.104246 217.835033 
L 352.432013 199.761068 
L 355.759781 220.783448 
L 359.087548 156.669786 
L 362.415315 214.612364 
L 365.743082 231.998899 
L 369.070849 214.38909 
L 372.398616 193.625451 
L 375.726384 236.090349 
L 379.054151 224.332229 
L 382.381918 230.281726 
L 385.709685 217.225577 
L 389.037452 252.232519 
L 392.365219 218.377159 
L 395.692987 243.521114 
L 399.020754 221.697821 
L 402.348521 193.782607 
L 405.676288 219.261697 
L 409.004055 237.086804 
L 412.331823 183.772651 
L 415.65959 228.862337 
L 418.987357 232.346416 
L 422.315124 229.310098 
L 425.642891 221.35657 
L 428.970658 242.947971 
L 432.298426 206.410801 
L 435.626193 235.435644 
L 438.95396 215.655849 
L 442.281727 233.204454 
L 445.609494 242.760353 
L 448.937261 213.016147 
L 452.265029 256.444106 
L 455.592796 233.070498 
L 458.920563 232.155967 
L 462.24833 212.660402 
L 465.576097 239.436216 
L 468.903865 251.440259 
L 472.231632 200.829173 
L 475.559399 247.161467 
L 478.887166 228.131372 
L 482.214933 250.54222 
L 485.5427 230.48372 
L 488.870468 241.148639 
L 492.198235 235.921451 
L 495.526002 251.762369 
L 498.853769 237.637361 
L 502.181536 178.127514 
L 505.509303 223.47088 
L 508.837071 256.487404 
L 512.164838 248.305131 
L 515.492605 254.391565 
L 518.820372 270.352103 
L 522.148139 233.075587 
L 525.475906 258.407149 
L 528.803674 258.496987 
L 532.131441 243.524702 
L 535.459208 258.078825 
L 538.786975 201.550993 
L 542.114742 222.919315 
L 545.44251 252.712697 
L 548.770277 231.225611 
L 552.098044 243.589691 
L 555.425811 248.716708 
L 558.753578 234.184396 
L 562.081345 243.54643 
L 565.409113 239.307511 
L 568.73688 210.26529 
L 572.064647 238.740761 
L 575.392414 247.349297 
L 578.720181 243.223697 
L 582.047948 257.644139 
L 585.375716 282.211124 
L 588.703483 256.955492 
L 592.03125 272.579593 
L 595.359017 258.879496 
L 598.686784 271.3064 
L 602.014552 228.581129 
L 605.342319 253.609216 
L 608.670086 210.56008 
L 611.997853 266.630647 
L 615.32562 258.534128 
L 618.653387 274.650827 
L 621.981155 266.66984 
L 625.308922 183.910151 
L 625.308922 183.910151 
" style="fill:none;stroke:#0000ff;stroke-linecap:square;stroke-width:1.2;"/>
   </g>
   <g id="line2d_2">
    <path clip-path="url(#pfa9df17a99)" d="M 112.832777 77.505779 
L 116.160544 86.738209 
L 119.488311 94.682423 
L 122.816078 100.613925 
L 126.143845 125.748509 
L 129.471613 122.675044 
L 132.79938 134.244891 
L 136.127147 117.217102 
L 139.454914 151.101052 
L 142.782681 158.332104 
L 146.110448 150.220274 
L 149.438216 163.48943 
L 152.765983 202.557175 
L 156.09375 185.938992 
L 162.749284 199.370921 
L 166.077052 211.226769 
L 169.404819 209.974855 
L 172.732586 243.163193 
L 176.060353 241.185551 
L 179.38812 238.897532 
L 182.715887 249.594124 
L 186.043655 230.504416 
L 189.371422 242.859451 
L 192.699189 252.000751 
L 196.026956 251.207194 
L 199.354723 243.911592 
L 202.68249 244.298345 
L 206.010258 278.943624 
L 209.338025 287.047615 
L 212.665792 273.199336 
L 215.993559 245.796145 
L 219.321326 277.607767 
L 222.649094 239.692257 
L 225.976861 273.143509 
L 229.304628 243.128695 
L 232.632395 277.708963 
L 235.960162 283.898101 
L 239.287929 277.805173 
L 242.615697 282.0798 
L 245.943464 290.498659 
L 249.271231 294.528098 
L 252.598998 228.649721 
L 255.926765 258.494927 
L 259.254532 222.299235 
L 262.5823 284.595869 
L 265.910067 242.074773 
L 269.237834 302.260838 
L 272.565601 287.68426 
L 275.893368 250.523723 
L 279.221135 277.480597 
L 282.548903 258.760141 
L 285.87667 244.168717 
L 289.204437 289.702804 
L 292.532204 285.417128 
L 295.859971 273.006202 
L 299.187739 267.010198 
L 302.515506 273.161122 
L 305.843273 262.716545 
L 309.17104 259.055105 
L 312.498807 291.447229 
L 315.826574 284.18519 
L 319.154342 279.878665 
L 322.482109 285.822211 
L 325.809876 259.718728 
L 329.137643 293.869825 
L 332.46541 275.792175 
L 335.793177 269.958991 
L 339.120945 290.500106 
L 342.448712 254.043657 
L 345.776479 243.414499 
L 349.104246 273.257194 
L 352.432013 283.925873 
L 355.759781 273.189679 
L 359.087548 279.469595 
L 362.415315 287.691701 
L 365.743082 267.98445 
L 369.070849 267.730547 
L 372.398616 289.280005 
L 375.726384 268.958257 
L 379.054151 247.151122 
L 382.381918 292.052945 
L 385.709685 286.357421 
L 389.037452 276.847144 
L 392.365219 253.741086 
L 395.692987 236.090975 
L 399.020754 250.508678 
L 402.348521 285.039214 
L 405.676288 229.744786 
L 409.004055 286.497563 
L 412.331823 282.122068 
L 415.65959 293.420664 
L 418.987357 294.745315 
L 422.315124 278.097808 
L 425.642891 295.171088 
L 428.970658 272.129166 
L 432.298426 273.595343 
L 435.626193 251.476609 
L 438.95396 283.017546 
L 442.281727 218.528946 
L 445.609494 246.587504 
L 448.937261 261.047718 
L 452.265029 254.657423 
L 455.592796 284.062333 
L 458.920563 283.72037 
L 462.24833 269.158995 
L 465.576097 233.428545 
L 468.903865 275.073433 
L 472.231632 234.23542 
L 475.559399 266.637371 
L 478.887166 273.955727 
L 482.214933 233.651149 
L 485.5427 278.224081 
L 488.870468 223.287345 
L 492.198235 281.814667 
L 495.526002 271.256231 
L 498.853769 244.889069 
L 502.181536 305.845051 
L 505.509303 295.697405 
L 508.837071 249.709626 
L 512.164838 244.089567 
L 515.492605 254.971859 
L 518.820372 236.512404 
L 522.148139 287.372464 
L 525.475906 261.833261 
L 528.803674 252.067666 
L 532.131441 247.669088 
L 535.459208 259.356044 
L 538.786975 269.993009 
L 542.114742 284.519864 
L 545.44251 256.257518 
L 548.770277 224.952386 
L 552.098044 228.214354 
L 555.425811 248.033104 
L 558.753578 240.481827 
L 562.081345 300.445807 
L 565.409113 293.203107 
L 568.73688 192.302431 
L 572.064647 288.999234 
L 575.392414 285.221119 
L 578.720181 296.437601 
L 582.047948 279.882972 
L 585.375716 280.132551 
L 588.703483 231.829083 
L 592.03125 272.240397 
L 595.359017 279.791113 
L 598.686784 282.420198 
L 602.014552 284.667028 
L 602.014552 284.667028 
" style="fill:none;stroke:#008000;stroke-linecap:square;stroke-width:1.2;"/>
   </g>
   <g id="line2d_3">
    <path clip-path="url(#pfa9df17a99)" d="M 112.832777 82.493654 
L 116.160544 81.114761 
L 119.488311 111.929607 
L 122.816078 155.868158 
L 126.143845 132.946702 
L 129.471613 134.315129 
L 132.79938 150.533087 
L 136.127147 143.062288 
L 139.454914 165.32654 
L 142.782681 160.580704 
L 146.110448 165.025361 
L 149.438216 173.373975 
L 152.765983 124.223132 
L 156.09375 141.213917 
L 159.421517 168.223111 
L 162.749284 156.150754 
L 166.077052 153.221531 
L 169.404819 181.428831 
L 172.732586 186.736581 
L 176.060353 180.644337 
L 179.38812 131.964251 
L 182.715887 181.913902 
L 186.043655 177.001844 
L 189.371422 147.743001 
L 192.699189 162.562995 
L 196.026956 183.268957 
L 199.354723 173.514753 
L 202.68249 172.295687 
L 206.010258 148.776775 
L 209.338025 165.744727 
L 212.665792 157.060973 
L 215.993559 201.030329 
L 219.321326 195.416321 
L 222.649094 192.431833 
L 225.976861 166.473824 
L 229.304628 162.260294 
L 232.632395 172.494148 
L 235.960162 182.19629 
L 239.287929 189.492604 
L 242.615697 207.671602 
L 245.943464 211.979218 
L 249.271231 172.783953 
L 252.598998 156.270118 
L 255.926765 188.744515 
L 259.254532 207.609561 
L 262.5823 197.853503 
L 265.910067 243.554137 
L 269.237834 190.912869 
L 272.565601 162.335164 
L 275.893368 181.375875 
L 279.221135 190.131674 
L 282.548903 153.262933 
L 285.87667 192.769983 
L 289.204437 192.076024 
L 292.532204 228.34226 
L 295.859971 245.995234 
L 299.187739 238.845364 
L 302.515506 223.973633 
L 305.843273 164.879487 
L 309.17104 222.117496 
L 312.498807 213.210455 
L 315.826574 168.424313 
L 319.154342 253.342921 
L 322.482109 235.743889 
L 325.809876 217.182105 
L 329.137643 223.508894 
L 332.46541 243.998239 
L 335.793177 187.944527 
L 339.120945 219.92126 
L 342.448712 222.852323 
L 345.776479 221.130437 
L 349.104246 254.142499 
L 352.432013 234.818546 
L 355.759781 221.847394 
L 359.087548 204.972601 
L 362.415315 213.762712 
L 365.743082 202.797655 
L 369.070849 225.708781 
L 372.398616 246.355078 
L 375.726384 261.269473 
L 379.054151 244.530013 
L 382.381918 262.770457 
L 385.709685 247.027419 
L 389.037452 260.650332 
L 392.365219 250.386755 
L 395.692987 185.355052 
L 399.020754 198.376826 
L 402.348521 192.548579 
L 405.676288 246.914935 
L 409.004055 238.427165 
L 412.331823 194.031747 
L 415.65959 251.412156 
L 418.987357 255.56216 
L 422.315124 260.416561 
L 425.642891 289.458047 
L 428.970658 244.385492 
L 432.298426 246.53959 
L 435.626193 216.277162 
L 438.95396 239.178258 
L 442.281727 229.173163 
L 445.609494 270.365897 
L 448.937261 227.070029 
L 452.265029 233.82873 
L 455.592796 199.190716 
L 458.920563 235.19722 
L 462.24833 223.870835 
L 465.576097 264.05303 
L 468.903865 270.892699 
L 472.231632 241.044201 
L 475.559399 262.803884 
L 478.887166 210.866497 
L 482.214933 265.254453 
L 485.5427 257.818853 
L 488.870468 242.881076 
L 492.198235 271.810915 
L 495.526002 243.407516 
L 498.853769 289.087951 
L 502.181536 249.228974 
L 505.509303 185.55205 
L 508.837071 264.006392 
L 512.164838 230.026712 
L 515.492605 260.952055 
L 518.820372 163.818072 
L 522.148139 261.648061 
L 525.475906 237.610168 
L 528.803674 283.953098 
L 532.131441 223.022155 
L 535.459208 189.492421 
L 538.786975 240.706771 
L 542.114742 273.826559 
L 545.44251 261.089399 
L 548.770277 204.36854 
L 552.098044 282.600884 
L 555.425811 250.455389 
L 558.753578 269.995766 
L 562.081345 220.206353 
L 565.409113 245.236565 
L 568.73688 243.427549 
L 572.064647 199.423955 
L 575.392414 269.428441 
L 578.720181 277.444316 
L 582.047948 230.378429 
L 585.375716 270.287933 
L 588.703483 205.08152 
L 592.03125 244.648355 
L 595.359017 237.335393 
L 598.686784 212.315553 
L 602.014552 192.187031 
L 605.342319 233.062834 
L 608.670086 259.026678 
L 611.997853 233.732975 
L 615.32562 232.325307 
L 618.653387 207.612261 
L 621.981155 265.143362 
L 625.308922 249.753796 
L 628.636689 269.853602 
L 631.964456 260.545945 
L 635.292223 268.762471 
L 635.292223 268.762471 
" style="fill:none;stroke:#ff0000;stroke-linecap:square;stroke-width:1.2;"/>
   </g>
   <g id="patch_3">
    <path d="M 112.5 324 
L 112.5 36 
" style="fill:none;stroke:#000000;stroke-linecap:square;stroke-linejoin:miter;"/>
   </g>
   <g id="patch_4">
    <path d="M 635.625 324 
L 635.625 36 
" style="fill:none;stroke:#000000;stroke-linecap:square;stroke-linejoin:miter;"/>
   </g>
   <g id="patch_5">
    <path d="M 112.5 324 
L 635.625 324 
" style="fill:none;stroke:#000000;stroke-linecap:square;stroke-linejoin:miter;"/>
   </g>
   <g id="patch_6">
    <path d="M 112.5 36 
L 635.625 36 
" style="fill:none;stroke:#000000;stroke-linecap:square;stroke-linejoin:miter;"/>
   </g>
   <g id="matplotlib.axis_1">
    <g id="xtick_1">
     <g id="line2d_4">
      <defs>
       <path d="M 0 0 
L 0 -4 
" id="md553b4b007" style="stroke:#000000;stroke-width:0.5;"/>
      </defs>
      <g>
       <use style="stroke:#000000;stroke-width:0.5;" x="112.832777" xlink:href="#md553b4b007" y="324"/>
      </g>
     </g>
     <g id="line2d_5">
      <defs>
       <path d="M 0 0 
L 0 4 
" id="m7f7ad3497d" style="stroke:#000000;stroke-width:0.5;"/>
      </defs>
      <g>
       <use style="stroke:#000000;stroke-width:0.5;" x="112.832777" xlink:href="#m7f7ad3497d" y="36"/>
      </g>
     </g>
     <g id="text_1">
      <!-- 1 -->
      <defs>
       <path d="M 12.40625 8.296875 
L 28.515625 8.296875 
L 28.515625 63.921875 
L 10.984375 60.40625 
L 10.984375 69.390625 
L 28.421875 72.90625 
L 38.28125 72.90625 
L 38.28125 8.296875 
L 54.390625 8.296875 
L 54.390625 0 
L 12.40625 0 
z
" id="DejaVuSans-49"/>
      </defs>
      <g transform="translate(109.015277 337.118125)scale(0.12 -0.12)">
       <use xlink:href="#DejaVuSans-49"/>
      </g>
     </g>
    </g>
    <g id="xtick_2">
     <g id="line2d_6">
      <g>
       <use style="stroke:#000000;stroke-width:0.5;" x="166.077052" xlink:href="#md553b4b007" y="324"/>
      </g>
     </g>
     <g id="line2d_7">
      <g>
       <use style="stroke:#000000;stroke-width:0.5;" x="166.077052" xlink:href="#m7f7ad3497d" y="36"/>
      </g>
     </g>
     <g id="text_2">
      <!-- 17 -->
      <defs>
       <path d="M 8.203125 72.90625 
L 55.078125 72.90625 
L 55.078125 68.703125 
L 28.609375 0 
L 18.3125 0 
L 43.21875 64.59375 
L 8.203125 64.59375 
z
" id="DejaVuSans-55"/>
      </defs>
      <g transform="translate(158.442052 337.118125)scale(0.12 -0.12)">
       <use xlink:href="#DejaVuSans-49"/>
       <use x="63.623047" xlink:href="#DejaVuSans-55"/>
      </g>
     </g>
    </g>
    <g id="xtick_3">
     <g id="line2d_8">
      <g>
       <use style="stroke:#000000;stroke-width:0.5;" x="219.321326" xlink:href="#md553b4b007" y="324"/>
      </g>
     </g>
     <g id="line2d_9">
      <g>
       <use style="stroke:#000000;stroke-width:0.5;" x="219.321326" xlink:href="#m7f7ad3497d" y="36"/>
      </g>
     </g>
     <g id="text_3">
      <!-- 33 -->
      <defs>
       <path d="M 40.578125 39.3125 
Q 47.65625 37.796875 51.625 33 
Q 55.609375 28.21875 55.609375 21.1875 
Q 55.609375 10.40625 48.1875 4.484375 
Q 40.765625 -1.421875 27.09375 -1.421875 
Q 22.515625 -1.421875 17.65625 -0.515625 
Q 12.796875 0.390625 7.625 2.203125 
L 7.625 11.71875 
Q 11.71875 9.328125 16.59375 8.109375 
Q 21.484375 6.890625 26.8125 6.890625 
Q 36.078125 6.890625 40.9375 10.546875 
Q 45.796875 14.203125 45.796875 21.1875 
Q 45.796875 27.640625 41.28125 31.265625 
Q 36.765625 34.90625 28.71875 34.90625 
L 20.21875 34.90625 
L 20.21875 43.015625 
L 29.109375 43.015625 
Q 36.375 43.015625 40.234375 45.921875 
Q 44.09375 48.828125 44.09375 54.296875 
Q 44.09375 59.90625 40.109375 62.90625 
Q 36.140625 65.921875 28.71875 65.921875 
Q 24.65625 65.921875 20.015625 65.03125 
Q 15.375 64.15625 9.8125 62.3125 
L 9.8125 71.09375 
Q 15.4375 72.65625 20.34375 73.4375 
Q 25.25 74.21875 29.59375 74.21875 
Q 40.828125 74.21875 47.359375 69.109375 
Q 53.90625 64.015625 53.90625 55.328125 
Q 53.90625 49.265625 50.4375 45.09375 
Q 46.96875 40.921875 40.578125 39.3125 
z
" id="DejaVuSans-51"/>
      </defs>
      <g transform="translate(211.686326 337.118125)scale(0.12 -0.12)">
       <use xlink:href="#DejaVuSans-51"/>
       <use x="63.623047" xlink:href="#DejaVuSans-51"/>
      </g>
     </g>
    </g>
    <g id="xtick_4">
     <g id="line2d_10">
      <g>
       <use style="stroke:#000000;stroke-width:0.5;" x="272.565601" xlink:href="#md553b4b007" y="324"/>
      </g>
     </g>
     <g id="line2d_11">
      <g>
       <use style="stroke:#000000;stroke-width:0.5;" x="272.565601" xlink:href="#m7f7ad3497d" y="36"/>
      </g>
     </g>
     <g id="text_4">
      <!-- 49 -->
      <defs>
       <path d="M 37.796875 64.3125 
L 12.890625 25.390625 
L 37.796875 25.390625 
z
M 35.203125 72.90625 
L 47.609375 72.90625 
L 47.609375 25.390625 
L 58.015625 25.390625 
L 58.015625 17.1875 
L 47.609375 17.1875 
L 47.609375 0 
L 37.796875 0 
L 37.796875 17.1875 
L 4.890625 17.1875 
L 4.890625 26.703125 
z
" id="DejaVuSans-52"/>
       <path d="M 10.984375 1.515625 
L 10.984375 10.5 
Q 14.703125 8.734375 18.5 7.8125 
Q 22.3125 6.890625 25.984375 6.890625 
Q 35.75 6.890625 40.890625 13.453125 
Q 46.046875 20.015625 46.78125 33.40625 
Q 43.953125 29.203125 39.59375 26.953125 
Q 35.25 24.703125 29.984375 24.703125 
Q 19.046875 24.703125 12.671875 31.3125 
Q 6.296875 37.9375 6.296875 49.421875 
Q 6.296875 60.640625 12.9375 67.421875 
Q 19.578125 74.21875 30.609375 74.21875 
Q 43.265625 74.21875 49.921875 64.515625 
Q 56.59375 54.828125 56.59375 36.375 
Q 56.59375 19.140625 48.40625 8.859375 
Q 40.234375 -1.421875 26.421875 -1.421875 
Q 22.703125 -1.421875 18.890625 -0.6875 
Q 15.09375 0.046875 10.984375 1.515625 
z
M 30.609375 32.421875 
Q 37.25 32.421875 41.125 36.953125 
Q 45.015625 41.5 45.015625 49.421875 
Q 45.015625 57.28125 41.125 61.84375 
Q 37.25 66.40625 30.609375 66.40625 
Q 23.96875 66.40625 20.09375 61.84375 
Q 16.21875 57.28125 16.21875 49.421875 
Q 16.21875 41.5 20.09375 36.953125 
Q 23.96875 32.421875 30.609375 32.421875 
z
" id="DejaVuSans-57"/>
      </defs>
      <g transform="translate(264.930601 337.118125)scale(0.12 -0.12)">
       <use xlink:href="#DejaVuSans-52"/>
       <use x="63.623047" xlink:href="#DejaVuSans-57"/>
      </g>
     </g>
    </g>
    <g id="xtick_5">
     <g id="line2d_12">
      <g>
       <use style="stroke:#000000;stroke-width:0.5;" x="325.809876" xlink:href="#md553b4b007" y="324"/>
      </g>
     </g>
     <g id="line2d_13">
      <g>
       <use style="stroke:#000000;stroke-width:0.5;" x="325.809876" xlink:href="#m7f7ad3497d" y="36"/>
      </g>
     </g>
     <g id="text_5">
      <!-- 65 -->
      <defs>
       <path d="M 33.015625 40.375 
Q 26.375 40.375 22.484375 35.828125 
Q 18.609375 31.296875 18.609375 23.390625 
Q 18.609375 15.53125 22.484375 10.953125 
Q 26.375 6.390625 33.015625 6.390625 
Q 39.65625 6.390625 43.53125 10.953125 
Q 47.40625 15.53125 47.40625 23.390625 
Q 47.40625 31.296875 43.53125 35.828125 
Q 39.65625 40.375 33.015625 40.375 
z
M 52.59375 71.296875 
L 52.59375 62.3125 
Q 48.875 64.0625 45.09375 64.984375 
Q 41.3125 65.921875 37.59375 65.921875 
Q 27.828125 65.921875 22.671875 59.328125 
Q 17.53125 52.734375 16.796875 39.40625 
Q 19.671875 43.65625 24.015625 45.921875 
Q 28.375 48.1875 33.59375 48.1875 
Q 44.578125 48.1875 50.953125 41.515625 
Q 57.328125 34.859375 57.328125 23.390625 
Q 57.328125 12.15625 50.6875 5.359375 
Q 44.046875 -1.421875 33.015625 -1.421875 
Q 20.359375 -1.421875 13.671875 8.265625 
Q 6.984375 17.96875 6.984375 36.375 
Q 6.984375 53.65625 15.1875 63.9375 
Q 23.390625 74.21875 37.203125 74.21875 
Q 40.921875 74.21875 44.703125 73.484375 
Q 48.484375 72.75 52.59375 71.296875 
z
" id="DejaVuSans-54"/>
       <path d="M 10.796875 72.90625 
L 49.515625 72.90625 
L 49.515625 64.59375 
L 19.828125 64.59375 
L 19.828125 46.734375 
Q 21.96875 47.46875 24.109375 47.828125 
Q 26.265625 48.1875 28.421875 48.1875 
Q 40.625 48.1875 47.75 41.5 
Q 54.890625 34.8125 54.890625 23.390625 
Q 54.890625 11.625 47.5625 5.09375 
Q 40.234375 -1.421875 26.90625 -1.421875 
Q 22.3125 -1.421875 17.546875 -0.640625 
Q 12.796875 0.140625 7.71875 1.703125 
L 7.71875 11.625 
Q 12.109375 9.234375 16.796875 8.0625 
Q 21.484375 6.890625 26.703125 6.890625 
Q 35.15625 6.890625 40.078125 11.328125 
Q 45.015625 15.765625 45.015625 23.390625 
Q 45.015625 31 40.078125 35.4375 
Q 35.15625 39.890625 26.703125 39.890625 
Q 22.75 39.890625 18.8125 39.015625 
Q 14.890625 38.140625 10.796875 36.28125 
z
" id="DejaVuSans-53"/>
      </defs>
      <g transform="translate(318.174876 337.118125)scale(0.12 -0.12)">
       <use xlink:href="#DejaVuSans-54"/>
       <use x="63.623047" xlink:href="#DejaVuSans-53"/>
      </g>
     </g>
    </g>
    <g id="xtick_6">
     <g id="line2d_14">
      <g>
       <use style="stroke:#000000;stroke-width:0.5;" x="379.054151" xlink:href="#md553b4b007" y="324"/>
      </g>
     </g>
     <g id="line2d_15">
      <g>
       <use style="stroke:#000000;stroke-width:0.5;" x="379.054151" xlink:href="#m7f7ad3497d" y="36"/>
      </g>
     </g>
     <g id="text_6">
      <!-- 81 -->
      <defs>
       <path d="M 31.78125 34.625 
Q 24.75 34.625 20.71875 30.859375 
Q 16.703125 27.09375 16.703125 20.515625 
Q 16.703125 13.921875 20.71875 10.15625 
Q 24.75 6.390625 31.78125 6.390625 
Q 38.8125 6.390625 42.859375 10.171875 
Q 46.921875 13.96875 46.921875 20.515625 
Q 46.921875 27.09375 42.890625 30.859375 
Q 38.875 34.625 31.78125 34.625 
z
M 21.921875 38.8125 
Q 15.578125 40.375 12.03125 44.71875 
Q 8.5 49.078125 8.5 55.328125 
Q 8.5 64.0625 14.71875 69.140625 
Q 20.953125 74.21875 31.78125 74.21875 
Q 42.671875 74.21875 48.875 69.140625 
Q 55.078125 64.0625 55.078125 55.328125 
Q 55.078125 49.078125 51.53125 44.71875 
Q 48 40.375 41.703125 38.8125 
Q 48.828125 37.15625 52.796875 32.3125 
Q 56.78125 27.484375 56.78125 20.515625 
Q 56.78125 9.90625 50.3125 4.234375 
Q 43.84375 -1.421875 31.78125 -1.421875 
Q 19.734375 -1.421875 13.25 4.234375 
Q 6.78125 9.90625 6.78125 20.515625 
Q 6.78125 27.484375 10.78125 32.3125 
Q 14.796875 37.15625 21.921875 38.8125 
z
M 18.3125 54.390625 
Q 18.3125 48.734375 21.84375 45.5625 
Q 25.390625 42.390625 31.78125 42.390625 
Q 38.140625 42.390625 41.71875 45.5625 
Q 45.3125 48.734375 45.3125 54.390625 
Q 45.3125 60.0625 41.71875 63.234375 
Q 38.140625 66.40625 31.78125 66.40625 
Q 25.390625 66.40625 21.84375 63.234375 
Q 18.3125 60.0625 18.3125 54.390625 
z
" id="DejaVuSans-56"/>
      </defs>
      <g transform="translate(371.419151 337.118125)scale(0.12 -0.12)">
       <use xlink:href="#DejaVuSans-56"/>
       <use x="63.623047" xlink:href="#DejaVuSans-49"/>
      </g>
     </g>
    </g>
    <g id="xtick_7">
     <g id="line2d_16">
      <g>
       <use style="stroke:#000000;stroke-width:0.5;" x="432.298426" xlink:href="#md553b4b007" y="324"/>
      </g>
     </g>
     <g id="line2d_17">
      <g>
       <use style="stroke:#000000;stroke-width:0.5;" x="432.298426" xlink:href="#m7f7ad3497d" y="36"/>
      </g>
     </g>
     <g id="text_7">
      <!-- 97 -->
      <g transform="translate(424.663426 337.118125)scale(0.12 -0.12)">
       <use xlink:href="#DejaVuSans-57"/>
       <use x="63.623047" xlink:href="#DejaVuSans-55"/>
      </g>
     </g>
    </g>
    <g id="xtick_8">
     <g id="line2d_18">
      <g>
       <use style="stroke:#000000;stroke-width:0.5;" x="485.5427" xlink:href="#md553b4b007" y="324"/>
      </g>
     </g>
     <g id="line2d_19">
      <g>
       <use style="stroke:#000000;stroke-width:0.5;" x="485.5427" xlink:href="#m7f7ad3497d" y="36"/>
      </g>
     </g>
     <g id="text_8">
      <!-- 113 -->
      <g transform="translate(474.0902 337.118125)scale(0.12 -0.12)">
       <use xlink:href="#DejaVuSans-49"/>
       <use x="63.623047" xlink:href="#DejaVuSans-49"/>
       <use x="127.246094" xlink:href="#DejaVuSans-51"/>
      </g>
     </g>
    </g>
    <g id="xtick_9">
     <g id="line2d_20">
      <g>
       <use style="stroke:#000000;stroke-width:0.5;" x="538.786975" xlink:href="#md553b4b007" y="324"/>
      </g>
     </g>
     <g id="line2d_21">
      <g>
       <use style="stroke:#000000;stroke-width:0.5;" x="538.786975" xlink:href="#m7f7ad3497d" y="36"/>
      </g>
     </g>
     <g id="text_9">
      <!-- 129 -->
      <defs>
       <path d="M 19.1875 8.296875 
L 53.609375 8.296875 
L 53.609375 0 
L 7.328125 0 
L 7.328125 8.296875 
Q 12.9375 14.109375 22.625 23.890625 
Q 32.328125 33.6875 34.8125 36.53125 
Q 39.546875 41.84375 41.421875 45.53125 
Q 43.3125 49.21875 43.3125 52.78125 
Q 43.3125 58.59375 39.234375 62.25 
Q 35.15625 65.921875 28.609375 65.921875 
Q 23.96875 65.921875 18.8125 64.3125 
Q 13.671875 62.703125 7.8125 59.421875 
L 7.8125 69.390625 
Q 13.765625 71.78125 18.9375 73 
Q 24.125 74.21875 28.421875 74.21875 
Q 39.75 74.21875 46.484375 68.546875 
Q 53.21875 62.890625 53.21875 53.421875 
Q 53.21875 48.921875 51.53125 44.890625 
Q 49.859375 40.875 45.40625 35.40625 
Q 44.1875 33.984375 37.640625 27.21875 
Q 31.109375 20.453125 19.1875 8.296875 
z
" id="DejaVuSans-50"/>
      </defs>
      <g transform="translate(527.334475 337.118125)scale(0.12 -0.12)">
       <use xlink:href="#DejaVuSans-49"/>
       <use x="63.623047" xlink:href="#DejaVuSans-50"/>
       <use x="127.246094" xlink:href="#DejaVuSans-57"/>
      </g>
     </g>
    </g>
    <g id="xtick_10">
     <g id="line2d_22">
      <g>
       <use style="stroke:#000000;stroke-width:0.5;" x="592.03125" xlink:href="#md553b4b007" y="324"/>
      </g>
     </g>
     <g id="line2d_23">
      <g>
       <use style="stroke:#000000;stroke-width:0.5;" x="592.03125" xlink:href="#m7f7ad3497d" y="36"/>
      </g>
     </g>
     <g id="text_10">
      <!-- 145 -->
      <g transform="translate(580.57875 337.118125)scale(0.12 -0.12)">
       <use xlink:href="#DejaVuSans-49"/>
       <use x="63.623047" xlink:href="#DejaVuSans-52"/>
       <use x="127.246094" xlink:href="#DejaVuSans-53"/>
      </g>
     </g>
    </g>
    <g id="text_11">
     <!-- generation -->
     <defs>
      <path d="M 45.40625 27.984375 
Q 45.40625 37.75 41.375 43.109375 
Q 37.359375 48.484375 30.078125 48.484375 
Q 22.859375 48.484375 18.828125 43.109375 
Q 14.796875 37.75 14.796875 27.984375 
Q 14.796875 18.265625 18.828125 12.890625 
Q 22.859375 7.515625 30.078125 7.515625 
Q 37.359375 7.515625 41.375 12.890625 
Q 45.40625 18.265625 45.40625 27.984375 
z
M 54.390625 6.78125 
Q 54.390625 -7.171875 48.1875 -13.984375 
Q 42 -20.796875 29.203125 -20.796875 
Q 24.46875 -20.796875 20.265625 -20.09375 
Q 16.0625 -19.390625 12.109375 -17.921875 
L 12.109375 -9.1875 
Q 16.0625 -11.328125 19.921875 -12.34375 
Q 23.78125 -13.375 27.78125 -13.375 
Q 36.625 -13.375 41.015625 -8.765625 
Q 45.40625 -4.15625 45.40625 5.171875 
L 45.40625 9.625 
Q 42.625 4.78125 38.28125 2.390625 
Q 33.9375 0 27.875 0 
Q 17.828125 0 11.671875 7.65625 
Q 5.515625 15.328125 5.515625 27.984375 
Q 5.515625 40.671875 11.671875 48.328125 
Q 17.828125 56 27.875 56 
Q 33.9375 56 38.28125 53.609375 
Q 42.625 51.21875 45.40625 46.390625 
L 45.40625 54.6875 
L 54.390625 54.6875 
z
" id="DejaVuSans-103"/>
      <path d="M 56.203125 29.59375 
L 56.203125 25.203125 
L 14.890625 25.203125 
Q 15.484375 15.921875 20.484375 11.0625 
Q 25.484375 6.203125 34.421875 6.203125 
Q 39.59375 6.203125 44.453125 7.46875 
Q 49.3125 8.734375 54.109375 11.28125 
L 54.109375 2.78125 
Q 49.265625 0.734375 44.1875 -0.34375 
Q 39.109375 -1.421875 33.890625 -1.421875 
Q 20.796875 -1.421875 13.15625 6.1875 
Q 5.515625 13.8125 5.515625 26.8125 
Q 5.515625 40.234375 12.765625 48.109375 
Q 20.015625 56 32.328125 56 
Q 43.359375 56 49.78125 48.890625 
Q 56.203125 41.796875 56.203125 29.59375 
z
M 47.21875 32.234375 
Q 47.125 39.59375 43.09375 43.984375 
Q 39.0625 48.390625 32.421875 48.390625 
Q 24.90625 48.390625 20.390625 44.140625 
Q 15.875 39.890625 15.1875 32.171875 
z
" id="DejaVuSans-101"/>
      <path d="M 54.890625 33.015625 
L 54.890625 0 
L 45.90625 0 
L 45.90625 32.71875 
Q 45.90625 40.484375 42.875 44.328125 
Q 39.84375 48.1875 33.796875 48.1875 
Q 26.515625 48.1875 22.3125 43.546875 
Q 18.109375 38.921875 18.109375 30.90625 
L 18.109375 0 
L 9.078125 0 
L 9.078125 54.6875 
L 18.109375 54.6875 
L 18.109375 46.1875 
Q 21.34375 51.125 25.703125 53.5625 
Q 30.078125 56 35.796875 56 
Q 45.21875 56 50.046875 50.171875 
Q 54.890625 44.34375 54.890625 33.015625 
z
" id="DejaVuSans-110"/>
      <path d="M 41.109375 46.296875 
Q 39.59375 47.171875 37.8125 47.578125 
Q 36.03125 48 33.890625 48 
Q 26.265625 48 22.1875 43.046875 
Q 18.109375 38.09375 18.109375 28.8125 
L 18.109375 0 
L 9.078125 0 
L 9.078125 54.6875 
L 18.109375 54.6875 
L 18.109375 46.1875 
Q 20.953125 51.171875 25.484375 53.578125 
Q 30.03125 56 36.53125 56 
Q 37.453125 56 38.578125 55.875 
Q 39.703125 55.765625 41.0625 55.515625 
z
" id="DejaVuSans-114"/>
      <path d="M 34.28125 27.484375 
Q 23.390625 27.484375 19.1875 25 
Q 14.984375 22.515625 14.984375 16.5 
Q 14.984375 11.71875 18.140625 8.90625 
Q 21.296875 6.109375 26.703125 6.109375 
Q 34.1875 6.109375 38.703125 11.40625 
Q 43.21875 16.703125 43.21875 25.484375 
L 43.21875 27.484375 
z
M 52.203125 31.203125 
L 52.203125 0 
L 43.21875 0 
L 43.21875 8.296875 
Q 40.140625 3.328125 35.546875 0.953125 
Q 30.953125 -1.421875 24.3125 -1.421875 
Q 15.921875 -1.421875 10.953125 3.296875 
Q 6 8.015625 6 15.921875 
Q 6 25.140625 12.171875 29.828125 
Q 18.359375 34.515625 30.609375 34.515625 
L 43.21875 34.515625 
L 43.21875 35.40625 
Q 43.21875 41.609375 39.140625 45 
Q 35.0625 48.390625 27.6875 48.390625 
Q 23 48.390625 18.546875 47.265625 
Q 14.109375 46.140625 10.015625 43.890625 
L 10.015625 52.203125 
Q 14.9375 54.109375 19.578125 55.046875 
Q 24.21875 56 28.609375 56 
Q 40.484375 56 46.34375 49.84375 
Q 52.203125 43.703125 52.203125 31.203125 
z
" id="DejaVuSans-97"/>
      <path d="M 18.3125 70.21875 
L 18.3125 54.6875 
L 36.8125 54.6875 
L 36.8125 47.703125 
L 18.3125 47.703125 
L 18.3125 18.015625 
Q 18.3125 11.328125 20.140625 9.421875 
Q 21.96875 7.515625 27.59375 7.515625 
L 36.8125 7.515625 
L 36.8125 0 
L 27.59375 0 
Q 17.1875 0 13.234375 3.875 
Q 9.28125 7.765625 9.28125 18.015625 
L 9.28125 47.703125 
L 2.6875 47.703125 
L 2.6875 54.6875 
L 9.28125 54.6875 
L 9.28125 70.21875 
z
" id="DejaVuSans-116"/>
      <path d="M 9.421875 54.6875 
L 18.40625 54.6875 
L 18.40625 0 
L 9.421875 0 
z
M 9.421875 75.984375 
L 18.40625 75.984375 
L 18.40625 64.59375 
L 9.421875 64.59375 
z
" id="DejaVuSans-105"/>
      <path d="M 30.609375 48.390625 
Q 23.390625 48.390625 19.1875 42.75 
Q 14.984375 37.109375 14.984375 27.296875 
Q 14.984375 17.484375 19.15625 11.84375 
Q 23.34375 6.203125 30.609375 6.203125 
Q 37.796875 6.203125 41.984375 11.859375 
Q 46.1875 17.53125 46.1875 27.296875 
Q 46.1875 37.015625 41.984375 42.703125 
Q 37.796875 48.390625 30.609375 48.390625 
z
M 30.609375 56 
Q 42.328125 56 49.015625 48.375 
Q 55.71875 40.765625 55.71875 27.296875 
Q 55.71875 13.875 49.015625 6.21875 
Q 42.328125 -1.421875 30.609375 -1.421875 
Q 18.84375 -1.421875 12.171875 6.21875 
Q 5.515625 13.875 5.515625 27.296875 
Q 5.515625 40.765625 12.171875 48.375 
Q 18.84375 56 30.609375 56 
z
" id="DejaVuSans-111"/>
     </defs>
     <g transform="translate(341.430938 353.731875)scale(0.12 -0.12)">
      <use xlink:href="#DejaVuSans-103"/>
      <use x="63.476562" xlink:href="#DejaVuSans-101"/>
      <use x="125" xlink:href="#DejaVuSans-110"/>
      <use x="188.378906" xlink:href="#DejaVuSans-101"/>
      <use x="249.902344" xlink:href="#DejaVuSans-114"/>
      <use x="291.015625" xlink:href="#DejaVuSans-97"/>
      <use x="352.294922" xlink:href="#DejaVuSans-116"/>
      <use x="391.503906" xlink:href="#DejaVuSans-105"/>
      <use x="419.287109" xlink:href="#DejaVuSans-111"/>
      <use x="480.46875" xlink:href="#DejaVuSans-110"/>
     </g>
    </g>
   </g>
   <g id="matplotlib.axis_2">
    <g id="ytick_1">
     <g id="line2d_24">
      <defs>
       <path d="M 0 0 
L 4 0 
" id="m0a50c9c5d9" style="stroke:#000000;stroke-width:0.5;"/>
      </defs>
      <g>
       <use style="stroke:#000000;stroke-width:0.5;" x="112.5" xlink:href="#m0a50c9c5d9" y="324"/>
      </g>
     </g>
     <g id="line2d_25">
      <defs>
       <path d="M 0 0 
L -4 0 
" id="mc26b55ee0c" style="stroke:#000000;stroke-width:0.5;"/>
      </defs>
      <g>
       <use style="stroke:#000000;stroke-width:0.5;" x="635.625" xlink:href="#mc26b55ee0c" y="324"/>
      </g>
     </g>
     <g id="text_12">
      <!-- 0.16 -->
      <defs>
       <path d="M 31.78125 66.40625 
Q 24.171875 66.40625 20.328125 58.90625 
Q 16.5 51.421875 16.5 36.375 
Q 16.5 21.390625 20.328125 13.890625 
Q 24.171875 6.390625 31.78125 6.390625 
Q 39.453125 6.390625 43.28125 13.890625 
Q 47.125 21.390625 47.125 36.375 
Q 47.125 51.421875 43.28125 58.90625 
Q 39.453125 66.40625 31.78125 66.40625 
z
M 31.78125 74.21875 
Q 44.046875 74.21875 50.515625 64.515625 
Q 56.984375 54.828125 56.984375 36.375 
Q 56.984375 17.96875 50.515625 8.265625 
Q 44.046875 -1.421875 31.78125 -1.421875 
Q 19.53125 -1.421875 13.0625 8.265625 
Q 6.59375 17.96875 6.59375 36.375 
Q 6.59375 54.828125 13.0625 64.515625 
Q 19.53125 74.21875 31.78125 74.21875 
z
" id="DejaVuSans-48"/>
       <path d="M 10.6875 12.40625 
L 21 12.40625 
L 21 0 
L 10.6875 0 
z
" id="DejaVuSans-46"/>
      </defs>
      <g transform="translate(81.78125 327.31125)scale(0.12 -0.12)">
       <use xlink:href="#DejaVuSans-48"/>
       <use x="63.623047" xlink:href="#DejaVuSans-46"/>
       <use x="95.410156" xlink:href="#DejaVuSans-49"/>
       <use x="159.033203" xlink:href="#DejaVuSans-54"/>
      </g>
     </g>
    </g>
    <g id="ytick_2">
     <g id="line2d_26">
      <g>
       <use style="stroke:#000000;stroke-width:0.5;" x="112.5" xlink:href="#m0a50c9c5d9" y="288"/>
      </g>
     </g>
     <g id="line2d_27">
      <g>
       <use style="stroke:#000000;stroke-width:0.5;" x="635.625" xlink:href="#mc26b55ee0c" y="288"/>
      </g>
     </g>
     <g id="text_13">
      <!-- 0.18 -->
      <g transform="translate(81.78125 291.31125)scale(0.12 -0.12)">
       <use xlink:href="#DejaVuSans-48"/>
       <use x="63.623047" xlink:href="#DejaVuSans-46"/>
       <use x="95.410156" xlink:href="#DejaVuSans-49"/>
       <use x="159.033203" xlink:href="#DejaVuSans-56"/>
      </g>
     </g>
    </g>
    <g id="ytick_3">
     <g id="line2d_28">
      <g>
       <use style="stroke:#000000;stroke-width:0.5;" x="112.5" xlink:href="#m0a50c9c5d9" y="252"/>
      </g>
     </g>
     <g id="line2d_29">
      <g>
       <use style="stroke:#000000;stroke-width:0.5;" x="635.625" xlink:href="#mc26b55ee0c" y="252"/>
      </g>
     </g>
     <g id="text_14">
      <!-- 0.20 -->
      <g transform="translate(81.78125 255.31125)scale(0.12 -0.12)">
       <use xlink:href="#DejaVuSans-48"/>
       <use x="63.623047" xlink:href="#DejaVuSans-46"/>
       <use x="95.410156" xlink:href="#DejaVuSans-50"/>
       <use x="159.033203" xlink:href="#DejaVuSans-48"/>
      </g>
     </g>
    </g>
    <g id="ytick_4">
     <g id="line2d_30">
      <g>
       <use style="stroke:#000000;stroke-width:0.5;" x="112.5" xlink:href="#m0a50c9c5d9" y="216"/>
      </g>
     </g>
     <g id="line2d_31">
      <g>
       <use style="stroke:#000000;stroke-width:0.5;" x="635.625" xlink:href="#mc26b55ee0c" y="216"/>
      </g>
     </g>
     <g id="text_15">
      <!-- 0.22 -->
      <g transform="translate(81.78125 219.31125)scale(0.12 -0.12)">
       <use xlink:href="#DejaVuSans-48"/>
       <use x="63.623047" xlink:href="#DejaVuSans-46"/>
       <use x="95.410156" xlink:href="#DejaVuSans-50"/>
       <use x="159.033203" xlink:href="#DejaVuSans-50"/>
      </g>
     </g>
    </g>
    <g id="ytick_5">
     <g id="line2d_32">
      <g>
       <use style="stroke:#000000;stroke-width:0.5;" x="112.5" xlink:href="#m0a50c9c5d9" y="180"/>
      </g>
     </g>
     <g id="line2d_33">
      <g>
       <use style="stroke:#000000;stroke-width:0.5;" x="635.625" xlink:href="#mc26b55ee0c" y="180"/>
      </g>
     </g>
     <g id="text_16">
      <!-- 0.24 -->
      <g transform="translate(81.78125 183.31125)scale(0.12 -0.12)">
       <use xlink:href="#DejaVuSans-48"/>
       <use x="63.623047" xlink:href="#DejaVuSans-46"/>
       <use x="95.410156" xlink:href="#DejaVuSans-50"/>
       <use x="159.033203" xlink:href="#DejaVuSans-52"/>
      </g>
     </g>
    </g>
    <g id="ytick_6">
     <g id="line2d_34">
      <g>
       <use style="stroke:#000000;stroke-width:0.5;" x="112.5" xlink:href="#m0a50c9c5d9" y="144"/>
      </g>
     </g>
     <g id="line2d_35">
      <g>
       <use style="stroke:#000000;stroke-width:0.5;" x="635.625" xlink:href="#mc26b55ee0c" y="144"/>
      </g>
     </g>
     <g id="text_17">
      <!-- 0.26 -->
      <g transform="translate(81.78125 147.31125)scale(0.12 -0.12)">
       <use xlink:href="#DejaVuSans-48"/>
       <use x="63.623047" xlink:href="#DejaVuSans-46"/>
       <use x="95.410156" xlink:href="#DejaVuSans-50"/>
       <use x="159.033203" xlink:href="#DejaVuSans-54"/>
      </g>
     </g>
    </g>
    <g id="ytick_7">
     <g id="line2d_36">
      <g>
       <use style="stroke:#000000;stroke-width:0.5;" x="112.5" xlink:href="#m0a50c9c5d9" y="108"/>
      </g>
     </g>
     <g id="line2d_37">
      <g>
       <use style="stroke:#000000;stroke-width:0.5;" x="635.625" xlink:href="#mc26b55ee0c" y="108"/>
      </g>
     </g>
     <g id="text_18">
      <!-- 0.28 -->
      <g transform="translate(81.78125 111.31125)scale(0.12 -0.12)">
       <use xlink:href="#DejaVuSans-48"/>
       <use x="63.623047" xlink:href="#DejaVuSans-46"/>
       <use x="95.410156" xlink:href="#DejaVuSans-50"/>
       <use x="159.033203" xlink:href="#DejaVuSans-56"/>
      </g>
     </g>
    </g>
    <g id="ytick_8">
     <g id="line2d_38">
      <g>
       <use style="stroke:#000000;stroke-width:0.5;" x="112.5" xlink:href="#m0a50c9c5d9" y="72"/>
      </g>
     </g>
     <g id="line2d_39">
      <g>
       <use style="stroke:#000000;stroke-width:0.5;" x="635.625" xlink:href="#mc26b55ee0c" y="72"/>
      </g>
     </g>
     <g id="text_19">
      <!-- 0.30 -->
      <g transform="translate(81.78125 75.31125)scale(0.12 -0.12)">
       <use xlink:href="#DejaVuSans-48"/>
       <use x="63.623047" xlink:href="#DejaVuSans-46"/>
       <use x="95.410156" xlink:href="#DejaVuSans-51"/>
       <use x="159.033203" xlink:href="#DejaVuSans-48"/>
      </g>
     </g>
    </g>
    <g id="ytick_9">
     <g id="line2d_40">
      <g>
       <use style="stroke:#000000;stroke-width:0.5;" x="112.5" xlink:href="#m0a50c9c5d9" y="36"/>
      </g>
     </g>
     <g id="line2d_41">
      <g>
       <use style="stroke:#000000;stroke-width:0.5;" x="635.625" xlink:href="#mc26b55ee0c" y="36"/>
      </g>
     </g>
     <g id="text_20">
      <!-- 0.32 -->
      <g transform="translate(81.78125 39.31125)scale(0.12 -0.12)">
       <use xlink:href="#DejaVuSans-48"/>
       <use x="63.623047" xlink:href="#DejaVuSans-46"/>
       <use x="95.410156" xlink:href="#DejaVuSans-51"/>
       <use x="159.033203" xlink:href="#DejaVuSans-50"/>
      </g>
     </g>
    </g>
    <g id="text_21">
     <!-- los -->
     <defs>
      <path d="M 9.421875 75.984375 
L 18.40625 75.984375 
L 18.40625 0 
L 9.421875 0 
z
" id="DejaVuSans-108"/>
      <path d="M 44.28125 53.078125 
L 44.28125 44.578125 
Q 40.484375 46.53125 36.375 47.5 
Q 32.28125 48.484375 27.875 48.484375 
Q 21.1875 48.484375 17.84375 46.4375 
Q 14.5 44.390625 14.5 40.28125 
Q 14.5 37.15625 16.890625 35.375 
Q 19.28125 33.59375 26.515625 31.984375 
L 29.59375 31.296875 
Q 39.15625 29.25 43.1875 25.515625 
Q 47.21875 21.78125 47.21875 15.09375 
Q 47.21875 7.46875 41.1875 3.015625 
Q 35.15625 -1.421875 24.609375 -1.421875 
Q 20.21875 -1.421875 15.453125 -0.5625 
Q 10.6875 0.296875 5.421875 2 
L 5.421875 11.28125 
Q 10.40625 8.6875 15.234375 7.390625 
Q 20.0625 6.109375 24.8125 6.109375 
Q 31.15625 6.109375 34.5625 8.28125 
Q 37.984375 10.453125 37.984375 14.40625 
Q 37.984375 18.0625 35.515625 20.015625 
Q 33.0625 21.96875 24.703125 23.78125 
L 21.578125 24.515625 
Q 13.234375 26.265625 9.515625 29.90625 
Q 5.8125 33.546875 5.8125 39.890625 
Q 5.8125 47.609375 11.28125 51.796875 
Q 16.75 56 26.8125 56 
Q 31.78125 56 36.171875 55.265625 
Q 40.578125 54.546875 44.28125 53.078125 
z
" id="DejaVuSans-115"/>
     </defs>
     <g transform="translate(74.285625 188.46375)rotate(-90)scale(0.12 -0.12)">
      <use xlink:href="#DejaVuSans-108"/>
      <use x="27.783203" xlink:href="#DejaVuSans-111"/>
      <use x="88.964844" xlink:href="#DejaVuSans-115"/>
     </g>
    </g>
   </g>
   <g id="legend_1">
    <g id="patch_7">
     <path d="M 640.623 203.924801 
L 780.449859 203.924801 
L 780.449859 156.075199 
L 640.623 156.075199 
z
" style="fill:#ffffff;stroke:#000000;stroke-linejoin:miter;"/>
    </g>
    <g id="line2d_42">
     <path d="M 647.6202 164.170397 
L 661.6146 164.170397 
" style="fill:none;stroke:#0000ff;stroke-linecap:square;stroke-width:1.2;"/>
    </g>
    <g id="line2d_43"/>
    <g id="text_22">
     <!-- Lonely_Los_Layers_3 -->
     <defs>
      <path d="M 9.8125 72.90625 
L 19.671875 72.90625 
L 19.671875 8.296875 
L 55.171875 8.296875 
L 55.171875 0 
L 9.8125 0 
z
" id="DejaVuSans-76"/>
      <path d="M 32.171875 -5.078125 
Q 28.375 -14.84375 24.75 -17.8125 
Q 21.140625 -20.796875 15.09375 -20.796875 
L 7.90625 -20.796875 
L 7.90625 -13.28125 
L 13.1875 -13.28125 
Q 16.890625 -13.28125 18.9375 -11.515625 
Q 21 -9.765625 23.484375 -3.21875 
L 25.09375 0.875 
L 2.984375 54.6875 
L 12.5 54.6875 
L 29.59375 11.921875 
L 46.6875 54.6875 
L 56.203125 54.6875 
z
" id="DejaVuSans-121"/>
      <path d="M 50.984375 -16.609375 
L 50.984375 -23.578125 
L -0.984375 -23.578125 
L -0.984375 -16.609375 
z
" id="DejaVuSans-95"/>
     </defs>
     <g transform="translate(672.6102 167.668997)scale(0.09996 -0.09996)">
      <use xlink:href="#DejaVuSans-76"/>
      <use x="53.962891" xlink:href="#DejaVuSans-111"/>
      <use x="115.144531" xlink:href="#DejaVuSans-110"/>
      <use x="178.523438" xlink:href="#DejaVuSans-101"/>
      <use x="240.046875" xlink:href="#DejaVuSans-108"/>
      <use x="267.830078" xlink:href="#DejaVuSans-121"/>
      <use x="327.009766" xlink:href="#DejaVuSans-95"/>
      <use x="377.009766" xlink:href="#DejaVuSans-76"/>
      <use x="430.972656" xlink:href="#DejaVuSans-111"/>
      <use x="492.154297" xlink:href="#DejaVuSans-115"/>
      <use x="544.253906" xlink:href="#DejaVuSans-95"/>
      <use x="594.253906" xlink:href="#DejaVuSans-76"/>
      <use x="649.966797" xlink:href="#DejaVuSans-97"/>
      <use x="711.246094" xlink:href="#DejaVuSans-121"/>
      <use x="770.425781" xlink:href="#DejaVuSans-101"/>
      <use x="831.949219" xlink:href="#DejaVuSans-114"/>
      <use x="873.0625" xlink:href="#DejaVuSans-115"/>
      <use x="925.162109" xlink:href="#DejaVuSans-95"/>
      <use x="975.162109" xlink:href="#DejaVuSans-51"/>
     </g>
    </g>
    <g id="line2d_44">
     <path d="M 647.6202 179.120664 
L 661.6146 179.120664 
" style="fill:none;stroke:#008000;stroke-linecap:square;stroke-width:1.2;"/>
    </g>
    <g id="line2d_45"/>
    <g id="text_23">
     <!-- Lonely_Los_Layers_4 -->
     <g transform="translate(672.6102 182.619264)scale(0.09996 -0.09996)">
      <use xlink:href="#DejaVuSans-76"/>
      <use x="53.962891" xlink:href="#DejaVuSans-111"/>
      <use x="115.144531" xlink:href="#DejaVuSans-110"/>
      <use x="178.523438" xlink:href="#DejaVuSans-101"/>
      <use x="240.046875" xlink:href="#DejaVuSans-108"/>
      <use x="267.830078" xlink:href="#DejaVuSans-121"/>
      <use x="327.009766" xlink:href="#DejaVuSans-95"/>
      <use x="377.009766" xlink:href="#DejaVuSans-76"/>
      <use x="430.972656" xlink:href="#DejaVuSans-111"/>
      <use x="492.154297" xlink:href="#DejaVuSans-115"/>
      <use x="544.253906" xlink:href="#DejaVuSans-95"/>
      <use x="594.253906" xlink:href="#DejaVuSans-76"/>
      <use x="649.966797" xlink:href="#DejaVuSans-97"/>
      <use x="711.246094" xlink:href="#DejaVuSans-121"/>
      <use x="770.425781" xlink:href="#DejaVuSans-101"/>
      <use x="831.949219" xlink:href="#DejaVuSans-114"/>
      <use x="873.0625" xlink:href="#DejaVuSans-115"/>
      <use x="925.162109" xlink:href="#DejaVuSans-95"/>
      <use x="975.162109" xlink:href="#DejaVuSans-52"/>
     </g>
    </g>
    <g id="line2d_46">
     <path d="M 647.6202 194.070932 
L 661.6146 194.070932 
" style="fill:none;stroke:#ff0000;stroke-linecap:square;stroke-width:1.2;"/>
    </g>
    <g id="line2d_47"/>
    <g id="text_24">
     <!-- Lonely_Los_Layers_5 -->
     <g transform="translate(672.6102 197.569532)scale(0.09996 -0.09996)">
      <use xlink:href="#DejaVuSans-76"/>
      <use x="53.962891" xlink:href="#DejaVuSans-111"/>
      <use x="115.144531" xlink:href="#DejaVuSans-110"/>
      <use x="178.523438" xlink:href="#DejaVuSans-101"/>
      <use x="240.046875" xlink:href="#DejaVuSans-108"/>
      <use x="267.830078" xlink:href="#DejaVuSans-121"/>
      <use x="327.009766" xlink:href="#DejaVuSans-95"/>
      <use x="377.009766" xlink:href="#DejaVuSans-76"/>
      <use x="430.972656" xlink:href="#DejaVuSans-111"/>
      <use x="492.154297" xlink:href="#DejaVuSans-115"/>
      <use x="544.253906" xlink:href="#DejaVuSans-95"/>
      <use x="594.253906" xlink:href="#DejaVuSans-76"/>
      <use x="649.966797" xlink:href="#DejaVuSans-97"/>
      <use x="711.246094" xlink:href="#DejaVuSans-121"/>
      <use x="770.425781" xlink:href="#DejaVuSans-101"/>
      <use x="831.949219" xlink:href="#DejaVuSans-114"/>
      <use x="873.0625" xlink:href="#DejaVuSans-115"/>
      <use x="925.162109" xlink:href="#DejaVuSans-95"/>
      <use x="975.162109" xlink:href="#DejaVuSans-53"/>
     </g>
    </g>
   </g>
  </g>
  <g id="text_25">
   <!-- Average Loss -->
   <defs>
    <path d="M 34.1875 63.1875 
L 20.796875 26.90625 
L 47.609375 26.90625 
z
M 28.609375 72.90625 
L 39.796875 72.90625 
L 67.578125 0 
L 57.328125 0 
L 50.6875 18.703125 
L 17.828125 18.703125 
L 11.1875 0 
L 0.78125 0 
z
" id="DejaVuSans-65"/>
    <path d="M 2.984375 54.6875 
L 12.5 54.6875 
L 29.59375 8.796875 
L 46.6875 54.6875 
L 56.203125 54.6875 
L 35.6875 0 
L 23.484375 0 
z
" id="DejaVuSans-118"/>
    <path id="DejaVuSans-32"/>
   </defs>
   <g transform="translate(410.293125 16.318125)scale(0.12 -0.12)">
    <use xlink:href="#DejaVuSans-65"/>
    <use x="62.533203" xlink:href="#DejaVuSans-118"/>
    <use x="121.712891" xlink:href="#DejaVuSans-101"/>
    <use x="183.236328" xlink:href="#DejaVuSans-114"/>
    <use x="224.349609" xlink:href="#DejaVuSans-97"/>
    <use x="285.628906" xlink:href="#DejaVuSans-103"/>
    <use x="349.105469" xlink:href="#DejaVuSans-101"/>
    <use x="410.628906" xlink:href="#DejaVuSans-32"/>
    <use x="442.416016" xlink:href="#DejaVuSans-76"/>
    <use x="496.378906" xlink:href="#DejaVuSans-111"/>
    <use x="557.560547" xlink:href="#DejaVuSans-115"/>
    <use x="609.660156" xlink:href="#DejaVuSans-115"/>
   </g>
  </g>
 </g>
 <defs>
  <clipPath id="pfa9df17a99">
   <rect height="288" width="523.125" x="112.5" y="36"/>
  </clipPath>
 </defs>
</svg>
