<?xml version="1.0" encoding="utf-8" standalone="no"?>
<!DOCTYPE svg PUBLIC "-//W3C//DTD SVG 1.1//EN"
  "http://www.w3.org/Graphics/SVG/1.1/DTD/svg11.dtd">
<!-- Created with matplotlib (https://matplotlib.org/) -->
<svg height="360pt" version="1.1" viewBox="0 0 900 360" width="900pt" xmlns="http://www.w3.org/2000/svg" xmlns:xlink="http://www.w3.org/1999/xlink">
 <defs>
  <style type="text/css">
*{stroke-linecap:butt;stroke-linejoin:round;}
  </style>
 </defs>
 <g id="figure_1">
  <g id="patch_1">
   <path d="M 0 360 
L 900 360 
L 900 0 
L 0 0 
z
" style="fill:#ffffff;"/>
  </g>
  <g id="axes_1">
   <g id="patch_2">
    <path d="M 112.5 324 
L 635.625 324 
L 635.625 36 
L 112.5 36 
z
" style="fill:#ffffff;"/>
   </g>
   <g id="line2d_1">
    <path clip-path="url(#pf50eba1572)" d="M 112.852986 266.4 
L 116.382844 226.400002 
L 119.912702 223.2 
L 123.442561 210.399998 
L 126.972419 221.600002 
L 130.502277 228 
L 134.032136 184.8 
L 137.561994 184.8 
L 141.091852 171.999998 
L 144.621711 175.2 
L 148.151569 188.000002 
L 151.681427 178.400002 
L 155.211285 186.399998 
L 158.741144 149.600002 
L 162.271002 189.6 
L 165.80086 135.200002 
L 169.330719 138.399998 
L 172.860577 147.999998 
L 176.390435 144.800002 
L 179.920294 188.000002 
L 183.450152 138.399998 
L 186.98001 167.199998 
L 190.509868 160.8 
L 194.039727 128.799998 
L 197.569585 151.2 
L 201.099443 140.000002 
L 204.629302 127.2 
L 208.15916 111.200002 
L 211.689018 90.399998 
L 215.218877 112.8 
L 218.748735 133.599998 
L 222.278593 90.399998 
L 225.808451 125.600002 
L 229.33831 122.4 
L 232.868168 114.399998 
L 236.398026 101.600002 
L 239.927885 111.200002 
L 243.457743 122.4 
L 246.987601 99.999998 
L 250.51746 135.200002 
L 254.047318 93.6 
L 257.577176 108 
L 261.107034 123.999998 
L 264.636893 108 
L 268.166751 116.000002 
L 271.696609 108 
L 275.226468 101.600002 
L 278.756326 84 
L 282.286184 82.400002 
L 285.816043 84 
L 289.345901 68.000002 
L 292.875759 116.000002 
L 296.405617 50.4 
L 299.935476 109.599998 
L 303.465334 92.000002 
L 306.995192 101.600002 
L 310.525051 114.399998 
L 314.054909 75.999998 
L 317.584767 95.199998 
L 321.114626 85.599998 
L 324.644484 68.000002 
L 328.174342 122.4 
L 331.7042 74.4 
L 335.234059 125.600002 
L 338.763917 109.599998 
L 342.293775 75.999998 
L 345.823634 79.2 
L 349.353492 80.799998 
L 352.88335 96.800002 
L 356.413209 119.199998 
L 359.943067 90.399998 
L 363.472925 109.599998 
L 370.532642 87.200002 
L 374.0625 106.400002 
L 377.592358 103.2 
L 381.122217 85.599998 
L 384.652075 119.199998 
L 388.181933 87.200002 
L 391.711791 108 
L 395.24165 56.799998 
L 398.771508 56.799998 
L 402.301366 80.799998 
L 405.831225 84 
L 409.361083 99.999998 
L 412.890941 79.2 
L 416.4208 99.999998 
L 419.950658 69.6 
L 423.480516 56.799998 
L 427.010374 75.999998 
L 430.540233 74.4 
L 437.599949 74.4 
L 441.129808 53.600002 
L 444.659666 92.000002 
L 448.189524 93.6 
L 451.719383 90.399998 
L 455.249241 51.999998 
L 458.779099 56.799998 
L 462.308957 98.4 
L 465.838816 79.2 
L 469.368674 47.199998 
L 472.898532 50.4 
L 476.428391 56.799998 
L 479.958249 71.199998 
L 483.488107 55.2 
L 490.547824 80.799998 
L 494.077682 84 
L 497.60754 77.600002 
L 501.137399 88.8 
L 504.667257 123.999998 
L 508.197115 72.800002 
L 515.256832 92.000002 
L 518.78669 79.2 
L 522.316549 95.199998 
L 525.846407 60 
L 529.376265 79.2 
L 532.906123 106.400002 
L 536.435982 53.600002 
L 539.96584 98.4 
L 543.495698 48.800002 
L 547.025557 128.799998 
L 550.555415 84 
L 554.085273 55.2 
L 557.615132 82.400002 
L 561.14499 96.800002 
L 564.674848 64.8 
L 568.204706 56.799998 
L 571.734565 66.399998 
L 575.264423 47.199998 
L 578.794281 51.999998 
L 582.32414 58.400002 
L 585.853998 99.999998 
L 589.383856 80.799998 
L 592.913715 63.200002 
L 596.443573 51.999998 
L 599.973431 58.400002 
L 603.503289 87.200002 
L 607.033148 88.8 
L 610.563006 112.8 
L 614.092864 60 
L 617.622723 98.4 
L 621.152581 56.799998 
L 621.152581 56.799998 
" style="fill:none;stroke:#0000ff;stroke-linecap:square;stroke-width:1.2;"/>
   </g>
   <g id="line2d_2">
    <path clip-path="url(#pf50eba1572)" d="M 112.852986 218.4 
L 116.382844 234.399998 
L 119.912702 210.399998 
L 123.442561 205.599998 
L 126.972419 219.999998 
L 130.502277 191.199998 
L 134.032136 186.399998 
L 137.561994 191.199998 
L 141.091852 180 
L 144.621711 210.399998 
L 148.151569 192.800002 
L 151.681427 156 
L 155.211285 151.2 
L 158.741144 141.6 
L 162.271002 156 
L 165.80086 140.000002 
L 169.330719 186.399998 
L 172.860577 176.799998 
L 176.390435 144.800002 
L 179.920294 138.399998 
L 183.450152 143.199998 
L 186.98001 136.8 
L 190.509868 135.200002 
L 194.039727 165.6 
L 197.569585 119.199998 
L 201.099443 147.999998 
L 204.629302 138.399998 
L 208.15916 120.800002 
L 211.689018 143.199998 
L 215.218877 130.400002 
L 218.748735 128.799998 
L 222.278593 123.999998 
L 225.808451 117.6 
L 229.33831 116.000002 
L 236.398026 125.600002 
L 239.927885 141.6 
L 243.457743 104.799998 
L 246.987601 87.200002 
L 250.51746 119.199998 
L 254.047318 122.4 
L 257.577176 114.399998 
L 261.107034 93.6 
L 264.636893 103.2 
L 268.166751 95.199998 
L 271.696609 93.6 
L 275.226468 98.4 
L 278.756326 125.600002 
L 282.286184 117.6 
L 285.816043 112.8 
L 289.345901 101.600002 
L 292.875759 138.399998 
L 296.405617 71.199998 
L 299.935476 108 
L 303.465334 90.399998 
L 306.995192 101.600002 
L 310.525051 85.599998 
L 314.054909 109.599998 
L 317.584767 96.800002 
L 321.114626 93.6 
L 324.644484 109.599998 
L 328.174342 111.200002 
L 331.7042 122.4 
L 338.763917 96.800002 
L 342.293775 98.4 
L 345.823634 56.799998 
L 349.353492 88.8 
L 352.88335 154.400002 
L 356.413209 85.599998 
L 363.472925 111.200002 
L 367.002783 104.799998 
L 370.532642 93.6 
L 374.0625 63.200002 
L 377.592358 71.199998 
L 381.122217 87.200002 
L 384.652075 95.199998 
L 388.181933 88.8 
L 391.711791 84 
L 395.24165 88.8 
L 398.771508 74.4 
L 402.301366 84 
L 405.831225 98.4 
L 409.361083 77.600002 
L 412.890941 92.000002 
L 416.4208 104.799998 
L 419.950658 93.6 
L 423.480516 108 
L 427.010374 75.999998 
L 430.540233 60 
L 434.070091 80.799998 
L 437.599949 127.2 
L 441.129808 93.6 
L 444.659666 80.799998 
L 448.189524 84 
L 451.719383 64.8 
L 455.249241 112.8 
L 458.779099 152.799998 
L 462.308957 72.800002 
L 465.838816 93.6 
L 469.368674 119.199998 
L 472.898532 93.6 
L 479.958249 74.4 
L 483.488107 108 
L 487.017966 79.2 
L 490.547824 71.199998 
L 494.077682 104.799998 
L 497.60754 96.800002 
L 501.137399 123.999998 
L 504.667257 68.000002 
L 508.197115 114.399998 
L 511.726974 120.800002 
L 515.256832 96.800002 
L 518.78669 120.800002 
L 522.316549 103.2 
L 525.846407 106.400002 
L 529.376265 90.399998 
L 532.906123 108 
L 536.435982 93.6 
L 539.96584 51.999998 
L 543.495698 125.600002 
L 547.025557 116.000002 
L 550.555415 80.799998 
L 554.085273 132 
L 557.615132 120.800002 
L 564.674848 79.2 
L 568.204706 79.2 
L 571.734565 95.199998 
L 575.264423 85.599998 
L 578.794281 77.600002 
L 582.32414 120.800002 
L 585.853998 101.600002 
L 589.383856 88.8 
L 589.383856 88.8 
" style="fill:none;stroke:#008000;stroke-linecap:square;stroke-width:1.2;"/>
   </g>
   <g id="line2d_3">
    <path clip-path="url(#pf50eba1572)" d="M 112.852986 231.200002 
L 116.382844 264.800002 
L 119.912702 248.799998 
L 123.442561 240.800002 
L 126.972419 237.6 
L 130.502277 237.6 
L 134.032136 240.800002 
L 137.561994 202.400002 
L 141.091852 240.800002 
L 144.621711 240.800002 
L 148.151569 176.799998 
L 151.681427 216.800002 
L 155.211285 215.199998 
L 158.741144 204 
L 162.271002 216.800002 
L 165.80086 188.000002 
L 169.330719 234.399998 
L 172.860577 215.199998 
L 176.390435 247.2 
L 179.920294 216.800002 
L 183.450152 180 
L 186.98001 199.2 
L 190.509868 194.4 
L 194.039727 192.800002 
L 197.569585 210.399998 
L 201.099443 213.6 
L 204.629302 200.799998 
L 208.15916 183.200002 
L 211.689018 160.8 
L 215.218877 175.2 
L 218.748735 176.799998 
L 222.278593 138.399998 
L 225.808451 226.400002 
L 229.33831 144.800002 
L 232.868168 156 
L 236.398026 164.000002 
L 239.927885 216.800002 
L 243.457743 123.999998 
L 246.987601 147.999998 
L 250.51746 152.799998 
L 254.047318 130.400002 
L 257.577176 170.4 
L 261.107034 183.200002 
L 264.636893 87.200002 
L 268.166751 136.8 
L 271.696609 229.599998 
L 275.226468 156 
L 278.756326 109.599998 
L 282.286184 147.999998 
L 285.816043 152.799998 
L 289.345901 165.6 
L 292.875759 188.000002 
L 296.405617 218.4 
L 299.935476 149.600002 
L 303.465334 152.799998 
L 306.995192 106.400002 
L 310.525051 200.799998 
L 314.054909 159.200002 
L 317.584767 157.599998 
L 321.114626 277.599998 
L 324.644484 108 
L 328.174342 136.8 
L 331.7042 63.200002 
L 335.234059 168.800002 
L 338.763917 144.800002 
L 342.293775 108 
L 345.823634 108 
L 349.353492 135.200002 
L 352.88335 195.999998 
L 356.413209 135.200002 
L 359.943067 194.4 
L 363.472925 117.6 
L 367.002783 95.199998 
L 370.532642 147.999998 
L 374.0625 90.399998 
L 377.592358 108 
L 381.122217 119.199998 
L 384.652075 88.8 
L 388.181933 109.599998 
L 391.711791 82.400002 
L 395.24165 116.000002 
L 398.771508 183.200002 
L 402.301366 143.199998 
L 405.831225 119.199998 
L 409.361083 104.799998 
L 412.890941 117.6 
L 416.4208 170.4 
L 419.950658 45.6 
L 423.480516 80.799998 
L 427.010374 101.600002 
L 430.540233 168.800002 
L 434.070091 120.800002 
L 437.599949 108 
L 441.129808 87.200002 
L 444.659666 120.800002 
L 448.189524 117.6 
L 451.719383 88.8 
L 455.249241 75.999998 
L 458.779099 80.799998 
L 462.308957 84 
L 465.838816 74.4 
L 469.368674 84 
L 472.898532 96.800002 
" style="fill:none;stroke:#ff0000;stroke-linecap:square;stroke-width:1.2;"/>
   </g>
   <g id="line2d_4">
    <path clip-path="url(#pf50eba1572)" d="M 112.852986 263.199998 
L 116.382844 240.800002 
L 119.912702 226.400002 
L 123.442561 266.4 
L 126.972419 213.6 
L 130.502277 189.6 
L 134.032136 195.999998 
L 137.561994 224.799998 
L 141.091852 205.599998 
L 144.621711 176.799998 
L 148.151569 173.600002 
L 151.681427 173.600002 
L 155.211285 171.999998 
L 158.741144 162.399998 
L 162.271002 191.199998 
L 165.80086 176.799998 
L 172.860577 144.800002 
L 179.920294 125.600002 
L 183.450152 117.6 
L 186.98001 164.000002 
L 190.509868 135.200002 
L 194.039727 212.000002 
L 197.569585 123.999998 
L 201.099443 151.2 
L 204.629302 159.200002 
L 208.15916 146.4 
L 211.689018 154.400002 
L 215.218877 122.4 
L 218.748735 133.599998 
L 222.278593 133.599998 
L 225.808451 99.999998 
L 229.33831 104.799998 
L 232.868168 136.8 
L 236.398026 82.400002 
L 239.927885 116.000002 
L 243.457743 128.799998 
L 246.987601 84 
L 250.51746 74.4 
L 254.047318 119.199998 
L 257.577176 109.599998 
L 261.107034 106.400002 
L 264.636893 108 
L 268.166751 88.8 
L 271.696609 80.799998 
L 275.226468 109.599998 
L 278.756326 80.799998 
L 282.286184 147.999998 
L 285.816043 84 
L 289.345901 119.199998 
L 292.875759 96.800002 
L 296.405617 96.800002 
L 299.935476 71.199998 
L 303.465334 112.8 
L 306.995192 95.199998 
L 310.525051 122.4 
L 314.054909 92.000002 
L 317.584767 95.199998 
L 321.114626 87.200002 
L 324.644484 68.000002 
L 328.174342 82.400002 
L 331.7042 77.600002 
L 335.234059 80.799998 
L 338.763917 141.6 
L 342.293775 64.8 
L 345.823634 132 
L 349.353492 143.199998 
L 352.88335 98.4 
L 356.413209 80.799998 
L 359.943067 80.799998 
L 363.472925 114.399998 
L 367.002783 119.199998 
L 370.532642 95.199998 
L 374.0625 60 
L 377.592358 79.2 
L 381.122217 111.200002 
L 384.652075 90.399998 
L 388.181933 104.799998 
L 391.711791 88.8 
L 395.24165 93.6 
L 398.771508 117.6 
L 402.301366 72.800002 
L 405.831225 85.599998 
L 409.361083 90.399998 
L 412.890941 98.4 
L 416.4208 135.200002 
L 419.950658 90.399998 
L 423.480516 79.2 
L 427.010374 109.599998 
L 430.540233 92.000002 
L 434.070091 116.000002 
L 437.599949 79.2 
L 441.129808 80.799998 
L 444.659666 77.600002 
L 448.189524 71.199998 
L 451.719383 56.799998 
L 455.249241 87.200002 
L 458.779099 93.6 
L 462.308957 112.8 
L 465.838816 109.599998 
L 469.368674 69.6 
L 472.898532 82.400002 
L 476.428391 92.000002 
L 479.958249 104.799998 
L 483.488107 92.000002 
L 487.017966 53.600002 
L 490.547824 75.999998 
L 494.077682 109.599998 
L 497.60754 101.600002 
L 501.137399 63.200002 
L 504.667257 132 
L 508.197115 114.399998 
L 511.726974 92.000002 
L 515.256832 95.199998 
L 518.78669 80.799998 
L 522.316549 58.400002 
L 525.846407 88.8 
L 529.376265 123.999998 
L 532.906123 82.400002 
L 536.435982 96.800002 
L 539.96584 85.599998 
L 543.495698 85.599998 
L 547.025557 116.000002 
L 550.555415 114.399998 
L 554.085273 84 
L 557.615132 88.8 
L 561.14499 53.600002 
L 564.674848 79.2 
L 568.204706 92.000002 
L 571.734565 75.999998 
L 575.264423 80.799998 
L 578.794281 50.4 
L 582.32414 72.800002 
L 585.853998 58.400002 
L 589.383856 69.6 
L 592.913715 106.400002 
L 596.443573 55.2 
L 599.973431 72.800002 
L 603.503289 61.599998 
L 607.033148 74.4 
L 610.563006 116.000002 
L 614.092864 95.199998 
L 617.622723 92.000002 
L 621.152581 80.799998 
L 624.682439 55.2 
L 628.212298 69.6 
L 631.742156 92.000002 
L 635.272014 58.400002 
L 635.272014 58.400002 
" style="fill:none;stroke:#00bfbf;stroke-linecap:square;stroke-width:1.2;"/>
   </g>
   <g id="patch_3">
    <path d="M 112.5 324 
L 112.5 36 
" style="fill:none;stroke:#000000;stroke-linecap:square;stroke-linejoin:miter;"/>
   </g>
   <g id="patch_4">
    <path d="M 635.625 324 
L 635.625 36 
" style="fill:none;stroke:#000000;stroke-linecap:square;stroke-linejoin:miter;"/>
   </g>
   <g id="patch_5">
    <path d="M 112.5 324 
L 635.625 324 
" style="fill:none;stroke:#000000;stroke-linecap:square;stroke-linejoin:miter;"/>
   </g>
   <g id="patch_6">
    <path d="M 112.5 36 
L 635.625 36 
" style="fill:none;stroke:#000000;stroke-linecap:square;stroke-linejoin:miter;"/>
   </g>
   <g id="matplotlib.axis_1">
    <g id="xtick_1">
     <g id="line2d_5">
      <defs>
       <path d="M 0 0 
L 0 -4 
" id="ma5594fa140" style="stroke:#000000;stroke-width:0.5;"/>
      </defs>
      <g>
       <use style="stroke:#000000;stroke-width:0.5;" x="112.852986" xlink:href="#ma5594fa140" y="324"/>
      </g>
     </g>
     <g id="line2d_6">
      <defs>
       <path d="M 0 0 
L 0 4 
" id="ma875539703" style="stroke:#000000;stroke-width:0.5;"/>
      </defs>
      <g>
       <use style="stroke:#000000;stroke-width:0.5;" x="112.852986" xlink:href="#ma875539703" y="36"/>
      </g>
     </g>
     <g id="text_1">
      <!-- 0 -->
      <defs>
       <path d="M 31.78125 66.40625 
Q 24.171875 66.40625 20.328125 58.90625 
Q 16.5 51.421875 16.5 36.375 
Q 16.5 21.390625 20.328125 13.890625 
Q 24.171875 6.390625 31.78125 6.390625 
Q 39.453125 6.390625 43.28125 13.890625 
Q 47.125 21.390625 47.125 36.375 
Q 47.125 51.421875 43.28125 58.90625 
Q 39.453125 66.40625 31.78125 66.40625 
z
M 31.78125 74.21875 
Q 44.046875 74.21875 50.515625 64.515625 
Q 56.984375 54.828125 56.984375 36.375 
Q 56.984375 17.96875 50.515625 8.265625 
Q 44.046875 -1.421875 31.78125 -1.421875 
Q 19.53125 -1.421875 13.0625 8.265625 
Q 6.59375 17.96875 6.59375 36.375 
Q 6.59375 54.828125 13.0625 64.515625 
Q 19.53125 74.21875 31.78125 74.21875 
z
" id="DejaVuSans-48"/>
      </defs>
      <g transform="translate(109.035486 337.118125)scale(0.12 -0.12)">
       <use xlink:href="#DejaVuSans-48"/>
      </g>
     </g>
    </g>
    <g id="xtick_2">
     <g id="line2d_7">
      <g>
       <use style="stroke:#000000;stroke-width:0.5;" x="165.80086" xlink:href="#ma5594fa140" y="324"/>
      </g>
     </g>
     <g id="line2d_8">
      <g>
       <use style="stroke:#000000;stroke-width:0.5;" x="165.80086" xlink:href="#ma875539703" y="36"/>
      </g>
     </g>
     <g id="text_2">
      <!-- 15 -->
      <defs>
       <path d="M 12.40625 8.296875 
L 28.515625 8.296875 
L 28.515625 63.921875 
L 10.984375 60.40625 
L 10.984375 69.390625 
L 28.421875 72.90625 
L 38.28125 72.90625 
L 38.28125 8.296875 
L 54.390625 8.296875 
L 54.390625 0 
L 12.40625 0 
z
" id="DejaVuSans-49"/>
       <path d="M 10.796875 72.90625 
L 49.515625 72.90625 
L 49.515625 64.59375 
L 19.828125 64.59375 
L 19.828125 46.734375 
Q 21.96875 47.46875 24.109375 47.828125 
Q 26.265625 48.1875 28.421875 48.1875 
Q 40.625 48.1875 47.75 41.5 
Q 54.890625 34.8125 54.890625 23.390625 
Q 54.890625 11.625 47.5625 5.09375 
Q 40.234375 -1.421875 26.90625 -1.421875 
Q 22.3125 -1.421875 17.546875 -0.640625 
Q 12.796875 0.140625 7.71875 1.703125 
L 7.71875 11.625 
Q 12.109375 9.234375 16.796875 8.0625 
Q 21.484375 6.890625 26.703125 6.890625 
Q 35.15625 6.890625 40.078125 11.328125 
Q 45.015625 15.765625 45.015625 23.390625 
Q 45.015625 31 40.078125 35.4375 
Q 35.15625 39.890625 26.703125 39.890625 
Q 22.75 39.890625 18.8125 39.015625 
Q 14.890625 38.140625 10.796875 36.28125 
z
" id="DejaVuSans-53"/>
      </defs>
      <g transform="translate(158.16586 337.118125)scale(0.12 -0.12)">
       <use xlink:href="#DejaVuSans-49"/>
       <use x="63.623047" xlink:href="#DejaVuSans-53"/>
      </g>
     </g>
    </g>
    <g id="xtick_3">
     <g id="line2d_9">
      <g>
       <use style="stroke:#000000;stroke-width:0.5;" x="218.748735" xlink:href="#ma5594fa140" y="324"/>
      </g>
     </g>
     <g id="line2d_10">
      <g>
       <use style="stroke:#000000;stroke-width:0.5;" x="218.748735" xlink:href="#ma875539703" y="36"/>
      </g>
     </g>
     <g id="text_3">
      <!-- 30 -->
      <defs>
       <path d="M 40.578125 39.3125 
Q 47.65625 37.796875 51.625 33 
Q 55.609375 28.21875 55.609375 21.1875 
Q 55.609375 10.40625 48.1875 4.484375 
Q 40.765625 -1.421875 27.09375 -1.421875 
Q 22.515625 -1.421875 17.65625 -0.515625 
Q 12.796875 0.390625 7.625 2.203125 
L 7.625 11.71875 
Q 11.71875 9.328125 16.59375 8.109375 
Q 21.484375 6.890625 26.8125 6.890625 
Q 36.078125 6.890625 40.9375 10.546875 
Q 45.796875 14.203125 45.796875 21.1875 
Q 45.796875 27.640625 41.28125 31.265625 
Q 36.765625 34.90625 28.71875 34.90625 
L 20.21875 34.90625 
L 20.21875 43.015625 
L 29.109375 43.015625 
Q 36.375 43.015625 40.234375 45.921875 
Q 44.09375 48.828125 44.09375 54.296875 
Q 44.09375 59.90625 40.109375 62.90625 
Q 36.140625 65.921875 28.71875 65.921875 
Q 24.65625 65.921875 20.015625 65.03125 
Q 15.375 64.15625 9.8125 62.3125 
L 9.8125 71.09375 
Q 15.4375 72.65625 20.34375 73.4375 
Q 25.25 74.21875 29.59375 74.21875 
Q 40.828125 74.21875 47.359375 69.109375 
Q 53.90625 64.015625 53.90625 55.328125 
Q 53.90625 49.265625 50.4375 45.09375 
Q 46.96875 40.921875 40.578125 39.3125 
z
" id="DejaVuSans-51"/>
      </defs>
      <g transform="translate(211.113735 337.118125)scale(0.12 -0.12)">
       <use xlink:href="#DejaVuSans-51"/>
       <use x="63.623047" xlink:href="#DejaVuSans-48"/>
      </g>
     </g>
    </g>
    <g id="xtick_4">
     <g id="line2d_11">
      <g>
       <use style="stroke:#000000;stroke-width:0.5;" x="271.696609" xlink:href="#ma5594fa140" y="324"/>
      </g>
     </g>
     <g id="line2d_12">
      <g>
       <use style="stroke:#000000;stroke-width:0.5;" x="271.696609" xlink:href="#ma875539703" y="36"/>
      </g>
     </g>
     <g id="text_4">
      <!-- 45 -->
      <defs>
       <path d="M 37.796875 64.3125 
L 12.890625 25.390625 
L 37.796875 25.390625 
z
M 35.203125 72.90625 
L 47.609375 72.90625 
L 47.609375 25.390625 
L 58.015625 25.390625 
L 58.015625 17.1875 
L 47.609375 17.1875 
L 47.609375 0 
L 37.796875 0 
L 37.796875 17.1875 
L 4.890625 17.1875 
L 4.890625 26.703125 
z
" id="DejaVuSans-52"/>
      </defs>
      <g transform="translate(264.061609 337.118125)scale(0.12 -0.12)">
       <use xlink:href="#DejaVuSans-52"/>
       <use x="63.623047" xlink:href="#DejaVuSans-53"/>
      </g>
     </g>
    </g>
    <g id="xtick_5">
     <g id="line2d_13">
      <g>
       <use style="stroke:#000000;stroke-width:0.5;" x="324.644484" xlink:href="#ma5594fa140" y="324"/>
      </g>
     </g>
     <g id="line2d_14">
      <g>
       <use style="stroke:#000000;stroke-width:0.5;" x="324.644484" xlink:href="#ma875539703" y="36"/>
      </g>
     </g>
     <g id="text_5">
      <!-- 60 -->
      <defs>
       <path d="M 33.015625 40.375 
Q 26.375 40.375 22.484375 35.828125 
Q 18.609375 31.296875 18.609375 23.390625 
Q 18.609375 15.53125 22.484375 10.953125 
Q 26.375 6.390625 33.015625 6.390625 
Q 39.65625 6.390625 43.53125 10.953125 
Q 47.40625 15.53125 47.40625 23.390625 
Q 47.40625 31.296875 43.53125 35.828125 
Q 39.65625 40.375 33.015625 40.375 
z
M 52.59375 71.296875 
L 52.59375 62.3125 
Q 48.875 64.0625 45.09375 64.984375 
Q 41.3125 65.921875 37.59375 65.921875 
Q 27.828125 65.921875 22.671875 59.328125 
Q 17.53125 52.734375 16.796875 39.40625 
Q 19.671875 43.65625 24.015625 45.921875 
Q 28.375 48.1875 33.59375 48.1875 
Q 44.578125 48.1875 50.953125 41.515625 
Q 57.328125 34.859375 57.328125 23.390625 
Q 57.328125 12.15625 50.6875 5.359375 
Q 44.046875 -1.421875 33.015625 -1.421875 
Q 20.359375 -1.421875 13.671875 8.265625 
Q 6.984375 17.96875 6.984375 36.375 
Q 6.984375 53.65625 15.1875 63.9375 
Q 23.390625 74.21875 37.203125 74.21875 
Q 40.921875 74.21875 44.703125 73.484375 
Q 48.484375 72.75 52.59375 71.296875 
z
" id="DejaVuSans-54"/>
      </defs>
      <g transform="translate(317.009484 337.118125)scale(0.12 -0.12)">
       <use xlink:href="#DejaVuSans-54"/>
       <use x="63.623047" xlink:href="#DejaVuSans-48"/>
      </g>
     </g>
    </g>
    <g id="xtick_6">
     <g id="line2d_15">
      <g>
       <use style="stroke:#000000;stroke-width:0.5;" x="377.592358" xlink:href="#ma5594fa140" y="324"/>
      </g>
     </g>
     <g id="line2d_16">
      <g>
       <use style="stroke:#000000;stroke-width:0.5;" x="377.592358" xlink:href="#ma875539703" y="36"/>
      </g>
     </g>
     <g id="text_6">
      <!-- 75 -->
      <defs>
       <path d="M 8.203125 72.90625 
L 55.078125 72.90625 
L 55.078125 68.703125 
L 28.609375 0 
L 18.3125 0 
L 43.21875 64.59375 
L 8.203125 64.59375 
z
" id="DejaVuSans-55"/>
      </defs>
      <g transform="translate(369.957358 337.118125)scale(0.12 -0.12)">
       <use xlink:href="#DejaVuSans-55"/>
       <use x="63.623047" xlink:href="#DejaVuSans-53"/>
      </g>
     </g>
    </g>
    <g id="xtick_7">
     <g id="line2d_17">
      <g>
       <use style="stroke:#000000;stroke-width:0.5;" x="430.540233" xlink:href="#ma5594fa140" y="324"/>
      </g>
     </g>
     <g id="line2d_18">
      <g>
       <use style="stroke:#000000;stroke-width:0.5;" x="430.540233" xlink:href="#ma875539703" y="36"/>
      </g>
     </g>
     <g id="text_7">
      <!-- 90 -->
      <defs>
       <path d="M 10.984375 1.515625 
L 10.984375 10.5 
Q 14.703125 8.734375 18.5 7.8125 
Q 22.3125 6.890625 25.984375 6.890625 
Q 35.75 6.890625 40.890625 13.453125 
Q 46.046875 20.015625 46.78125 33.40625 
Q 43.953125 29.203125 39.59375 26.953125 
Q 35.25 24.703125 29.984375 24.703125 
Q 19.046875 24.703125 12.671875 31.3125 
Q 6.296875 37.9375 6.296875 49.421875 
Q 6.296875 60.640625 12.9375 67.421875 
Q 19.578125 74.21875 30.609375 74.21875 
Q 43.265625 74.21875 49.921875 64.515625 
Q 56.59375 54.828125 56.59375 36.375 
Q 56.59375 19.140625 48.40625 8.859375 
Q 40.234375 -1.421875 26.421875 -1.421875 
Q 22.703125 -1.421875 18.890625 -0.6875 
Q 15.09375 0.046875 10.984375 1.515625 
z
M 30.609375 32.421875 
Q 37.25 32.421875 41.125 36.953125 
Q 45.015625 41.5 45.015625 49.421875 
Q 45.015625 57.28125 41.125 61.84375 
Q 37.25 66.40625 30.609375 66.40625 
Q 23.96875 66.40625 20.09375 61.84375 
Q 16.21875 57.28125 16.21875 49.421875 
Q 16.21875 41.5 20.09375 36.953125 
Q 23.96875 32.421875 30.609375 32.421875 
z
" id="DejaVuSans-57"/>
      </defs>
      <g transform="translate(422.905233 337.118125)scale(0.12 -0.12)">
       <use xlink:href="#DejaVuSans-57"/>
       <use x="63.623047" xlink:href="#DejaVuSans-48"/>
      </g>
     </g>
    </g>
    <g id="xtick_8">
     <g id="line2d_19">
      <g>
       <use style="stroke:#000000;stroke-width:0.5;" x="483.488107" xlink:href="#ma5594fa140" y="324"/>
      </g>
     </g>
     <g id="line2d_20">
      <g>
       <use style="stroke:#000000;stroke-width:0.5;" x="483.488107" xlink:href="#ma875539703" y="36"/>
      </g>
     </g>
     <g id="text_8">
      <!-- 105 -->
      <g transform="translate(472.035607 337.118125)scale(0.12 -0.12)">
       <use xlink:href="#DejaVuSans-49"/>
       <use x="63.623047" xlink:href="#DejaVuSans-48"/>
       <use x="127.246094" xlink:href="#DejaVuSans-53"/>
      </g>
     </g>
    </g>
    <g id="xtick_9">
     <g id="line2d_21">
      <g>
       <use style="stroke:#000000;stroke-width:0.5;" x="536.435982" xlink:href="#ma5594fa140" y="324"/>
      </g>
     </g>
     <g id="line2d_22">
      <g>
       <use style="stroke:#000000;stroke-width:0.5;" x="536.435982" xlink:href="#ma875539703" y="36"/>
      </g>
     </g>
     <g id="text_9">
      <!-- 120 -->
      <defs>
       <path d="M 19.1875 8.296875 
L 53.609375 8.296875 
L 53.609375 0 
L 7.328125 0 
L 7.328125 8.296875 
Q 12.9375 14.109375 22.625 23.890625 
Q 32.328125 33.6875 34.8125 36.53125 
Q 39.546875 41.84375 41.421875 45.53125 
Q 43.3125 49.21875 43.3125 52.78125 
Q 43.3125 58.59375 39.234375 62.25 
Q 35.15625 65.921875 28.609375 65.921875 
Q 23.96875 65.921875 18.8125 64.3125 
Q 13.671875 62.703125 7.8125 59.421875 
L 7.8125 69.390625 
Q 13.765625 71.78125 18.9375 73 
Q 24.125 74.21875 28.421875 74.21875 
Q 39.75 74.21875 46.484375 68.546875 
Q 53.21875 62.890625 53.21875 53.421875 
Q 53.21875 48.921875 51.53125 44.890625 
Q 49.859375 40.875 45.40625 35.40625 
Q 44.1875 33.984375 37.640625 27.21875 
Q 31.109375 20.453125 19.1875 8.296875 
z
" id="DejaVuSans-50"/>
      </defs>
      <g transform="translate(524.983482 337.118125)scale(0.12 -0.12)">
       <use xlink:href="#DejaVuSans-49"/>
       <use x="63.623047" xlink:href="#DejaVuSans-50"/>
       <use x="127.246094" xlink:href="#DejaVuSans-48"/>
      </g>
     </g>
    </g>
    <g id="xtick_10">
     <g id="line2d_23">
      <g>
       <use style="stroke:#000000;stroke-width:0.5;" x="589.383856" xlink:href="#ma5594fa140" y="324"/>
      </g>
     </g>
     <g id="line2d_24">
      <g>
       <use style="stroke:#000000;stroke-width:0.5;" x="589.383856" xlink:href="#ma875539703" y="36"/>
      </g>
     </g>
     <g id="text_10">
      <!-- 135 -->
      <g transform="translate(577.931356 337.118125)scale(0.12 -0.12)">
       <use xlink:href="#DejaVuSans-49"/>
       <use x="63.623047" xlink:href="#DejaVuSans-51"/>
       <use x="127.246094" xlink:href="#DejaVuSans-53"/>
      </g>
     </g>
    </g>
    <g id="text_11">
     <!-- generation -->
     <defs>
      <path d="M 45.40625 27.984375 
Q 45.40625 37.75 41.375 43.109375 
Q 37.359375 48.484375 30.078125 48.484375 
Q 22.859375 48.484375 18.828125 43.109375 
Q 14.796875 37.75 14.796875 27.984375 
Q 14.796875 18.265625 18.828125 12.890625 
Q 22.859375 7.515625 30.078125 7.515625 
Q 37.359375 7.515625 41.375 12.890625 
Q 45.40625 18.265625 45.40625 27.984375 
z
M 54.390625 6.78125 
Q 54.390625 -7.171875 48.1875 -13.984375 
Q 42 -20.796875 29.203125 -20.796875 
Q 24.46875 -20.796875 20.265625 -20.09375 
Q 16.0625 -19.390625 12.109375 -17.921875 
L 12.109375 -9.1875 
Q 16.0625 -11.328125 19.921875 -12.34375 
Q 23.78125 -13.375 27.78125 -13.375 
Q 36.625 -13.375 41.015625 -8.765625 
Q 45.40625 -4.15625 45.40625 5.171875 
L 45.40625 9.625 
Q 42.625 4.78125 38.28125 2.390625 
Q 33.9375 0 27.875 0 
Q 17.828125 0 11.671875 7.65625 
Q 5.515625 15.328125 5.515625 27.984375 
Q 5.515625 40.671875 11.671875 48.328125 
Q 17.828125 56 27.875 56 
Q 33.9375 56 38.28125 53.609375 
Q 42.625 51.21875 45.40625 46.390625 
L 45.40625 54.6875 
L 54.390625 54.6875 
z
" id="DejaVuSans-103"/>
      <path d="M 56.203125 29.59375 
L 56.203125 25.203125 
L 14.890625 25.203125 
Q 15.484375 15.921875 20.484375 11.0625 
Q 25.484375 6.203125 34.421875 6.203125 
Q 39.59375 6.203125 44.453125 7.46875 
Q 49.3125 8.734375 54.109375 11.28125 
L 54.109375 2.78125 
Q 49.265625 0.734375 44.1875 -0.34375 
Q 39.109375 -1.421875 33.890625 -1.421875 
Q 20.796875 -1.421875 13.15625 6.1875 
Q 5.515625 13.8125 5.515625 26.8125 
Q 5.515625 40.234375 12.765625 48.109375 
Q 20.015625 56 32.328125 56 
Q 43.359375 56 49.78125 48.890625 
Q 56.203125 41.796875 56.203125 29.59375 
z
M 47.21875 32.234375 
Q 47.125 39.59375 43.09375 43.984375 
Q 39.0625 48.390625 32.421875 48.390625 
Q 24.90625 48.390625 20.390625 44.140625 
Q 15.875 39.890625 15.1875 32.171875 
z
" id="DejaVuSans-101"/>
      <path d="M 54.890625 33.015625 
L 54.890625 0 
L 45.90625 0 
L 45.90625 32.71875 
Q 45.90625 40.484375 42.875 44.328125 
Q 39.84375 48.1875 33.796875 48.1875 
Q 26.515625 48.1875 22.3125 43.546875 
Q 18.109375 38.921875 18.109375 30.90625 
L 18.109375 0 
L 9.078125 0 
L 9.078125 54.6875 
L 18.109375 54.6875 
L 18.109375 46.1875 
Q 21.34375 51.125 25.703125 53.5625 
Q 30.078125 56 35.796875 56 
Q 45.21875 56 50.046875 50.171875 
Q 54.890625 44.34375 54.890625 33.015625 
z
" id="DejaVuSans-110"/>
      <path d="M 41.109375 46.296875 
Q 39.59375 47.171875 37.8125 47.578125 
Q 36.03125 48 33.890625 48 
Q 26.265625 48 22.1875 43.046875 
Q 18.109375 38.09375 18.109375 28.8125 
L 18.109375 0 
L 9.078125 0 
L 9.078125 54.6875 
L 18.109375 54.6875 
L 18.109375 46.1875 
Q 20.953125 51.171875 25.484375 53.578125 
Q 30.03125 56 36.53125 56 
Q 37.453125 56 38.578125 55.875 
Q 39.703125 55.765625 41.0625 55.515625 
z
" id="DejaVuSans-114"/>
      <path d="M 34.28125 27.484375 
Q 23.390625 27.484375 19.1875 25 
Q 14.984375 22.515625 14.984375 16.5 
Q 14.984375 11.71875 18.140625 8.90625 
Q 21.296875 6.109375 26.703125 6.109375 
Q 34.1875 6.109375 38.703125 11.40625 
Q 43.21875 16.703125 43.21875 25.484375 
L 43.21875 27.484375 
z
M 52.203125 31.203125 
L 52.203125 0 
L 43.21875 0 
L 43.21875 8.296875 
Q 40.140625 3.328125 35.546875 0.953125 
Q 30.953125 -1.421875 24.3125 -1.421875 
Q 15.921875 -1.421875 10.953125 3.296875 
Q 6 8.015625 6 15.921875 
Q 6 25.140625 12.171875 29.828125 
Q 18.359375 34.515625 30.609375 34.515625 
L 43.21875 34.515625 
L 43.21875 35.40625 
Q 43.21875 41.609375 39.140625 45 
Q 35.0625 48.390625 27.6875 48.390625 
Q 23 48.390625 18.546875 47.265625 
Q 14.109375 46.140625 10.015625 43.890625 
L 10.015625 52.203125 
Q 14.9375 54.109375 19.578125 55.046875 
Q 24.21875 56 28.609375 56 
Q 40.484375 56 46.34375 49.84375 
Q 52.203125 43.703125 52.203125 31.203125 
z
" id="DejaVuSans-97"/>
      <path d="M 18.3125 70.21875 
L 18.3125 54.6875 
L 36.8125 54.6875 
L 36.8125 47.703125 
L 18.3125 47.703125 
L 18.3125 18.015625 
Q 18.3125 11.328125 20.140625 9.421875 
Q 21.96875 7.515625 27.59375 7.515625 
L 36.8125 7.515625 
L 36.8125 0 
L 27.59375 0 
Q 17.1875 0 13.234375 3.875 
Q 9.28125 7.765625 9.28125 18.015625 
L 9.28125 47.703125 
L 2.6875 47.703125 
L 2.6875 54.6875 
L 9.28125 54.6875 
L 9.28125 70.21875 
z
" id="DejaVuSans-116"/>
      <path d="M 9.421875 54.6875 
L 18.40625 54.6875 
L 18.40625 0 
L 9.421875 0 
z
M 9.421875 75.984375 
L 18.40625 75.984375 
L 18.40625 64.59375 
L 9.421875 64.59375 
z
" id="DejaVuSans-105"/>
      <path d="M 30.609375 48.390625 
Q 23.390625 48.390625 19.1875 42.75 
Q 14.984375 37.109375 14.984375 27.296875 
Q 14.984375 17.484375 19.15625 11.84375 
Q 23.34375 6.203125 30.609375 6.203125 
Q 37.796875 6.203125 41.984375 11.859375 
Q 46.1875 17.53125 46.1875 27.296875 
Q 46.1875 37.015625 41.984375 42.703125 
Q 37.796875 48.390625 30.609375 48.390625 
z
M 30.609375 56 
Q 42.328125 56 49.015625 48.375 
Q 55.71875 40.765625 55.71875 27.296875 
Q 55.71875 13.875 49.015625 6.21875 
Q 42.328125 -1.421875 30.609375 -1.421875 
Q 18.84375 -1.421875 12.171875 6.21875 
Q 5.515625 13.875 5.515625 27.296875 
Q 5.515625 40.765625 12.171875 48.375 
Q 18.84375 56 30.609375 56 
z
" id="DejaVuSans-111"/>
     </defs>
     <g transform="translate(341.430938 353.731875)scale(0.12 -0.12)">
      <use xlink:href="#DejaVuSans-103"/>
      <use x="63.476562" xlink:href="#DejaVuSans-101"/>
      <use x="125" xlink:href="#DejaVuSans-110"/>
      <use x="188.378906" xlink:href="#DejaVuSans-101"/>
      <use x="249.902344" xlink:href="#DejaVuSans-114"/>
      <use x="291.015625" xlink:href="#DejaVuSans-97"/>
      <use x="352.294922" xlink:href="#DejaVuSans-116"/>
      <use x="391.503906" xlink:href="#DejaVuSans-105"/>
      <use x="419.287109" xlink:href="#DejaVuSans-111"/>
      <use x="480.46875" xlink:href="#DejaVuSans-110"/>
     </g>
    </g>
   </g>
   <g id="matplotlib.axis_2">
    <g id="ytick_1">
     <g id="line2d_25">
      <defs>
       <path d="M 0 0 
L 4 0 
" id="m1adc1c7938" style="stroke:#000000;stroke-width:0.5;"/>
      </defs>
      <g>
       <use style="stroke:#000000;stroke-width:0.5;" x="112.5" xlink:href="#m1adc1c7938" y="324"/>
      </g>
     </g>
     <g id="line2d_26">
      <defs>
       <path d="M 0 0 
L -4 0 
" id="m8d54ccc11b" style="stroke:#000000;stroke-width:0.5;"/>
      </defs>
      <g>
       <use style="stroke:#000000;stroke-width:0.5;" x="635.625" xlink:href="#m8d54ccc11b" y="324"/>
      </g>
     </g>
     <g id="text_12">
      <!-- 0.89 -->
      <defs>
       <path d="M 10.6875 12.40625 
L 21 12.40625 
L 21 0 
L 10.6875 0 
z
" id="DejaVuSans-46"/>
       <path d="M 31.78125 34.625 
Q 24.75 34.625 20.71875 30.859375 
Q 16.703125 27.09375 16.703125 20.515625 
Q 16.703125 13.921875 20.71875 10.15625 
Q 24.75 6.390625 31.78125 6.390625 
Q 38.8125 6.390625 42.859375 10.171875 
Q 46.921875 13.96875 46.921875 20.515625 
Q 46.921875 27.09375 42.890625 30.859375 
Q 38.875 34.625 31.78125 34.625 
z
M 21.921875 38.8125 
Q 15.578125 40.375 12.03125 44.71875 
Q 8.5 49.078125 8.5 55.328125 
Q 8.5 64.0625 14.71875 69.140625 
Q 20.953125 74.21875 31.78125 74.21875 
Q 42.671875 74.21875 48.875 69.140625 
Q 55.078125 64.0625 55.078125 55.328125 
Q 55.078125 49.078125 51.53125 44.71875 
Q 48 40.375 41.703125 38.8125 
Q 48.828125 37.15625 52.796875 32.3125 
Q 56.78125 27.484375 56.78125 20.515625 
Q 56.78125 9.90625 50.3125 4.234375 
Q 43.84375 -1.421875 31.78125 -1.421875 
Q 19.734375 -1.421875 13.25 4.234375 
Q 6.78125 9.90625 6.78125 20.515625 
Q 6.78125 27.484375 10.78125 32.3125 
Q 14.796875 37.15625 21.921875 38.8125 
z
M 18.3125 54.390625 
Q 18.3125 48.734375 21.84375 45.5625 
Q 25.390625 42.390625 31.78125 42.390625 
Q 38.140625 42.390625 41.71875 45.5625 
Q 45.3125 48.734375 45.3125 54.390625 
Q 45.3125 60.0625 41.71875 63.234375 
Q 38.140625 66.40625 31.78125 66.40625 
Q 25.390625 66.40625 21.84375 63.234375 
Q 18.3125 60.0625 18.3125 54.390625 
z
" id="DejaVuSans-56"/>
      </defs>
      <g transform="translate(81.78125 327.31125)scale(0.12 -0.12)">
       <use xlink:href="#DejaVuSans-48"/>
       <use x="63.623047" xlink:href="#DejaVuSans-46"/>
       <use x="95.410156" xlink:href="#DejaVuSans-56"/>
       <use x="159.033203" xlink:href="#DejaVuSans-57"/>
      </g>
     </g>
    </g>
    <g id="ytick_2">
     <g id="line2d_27">
      <g>
       <use style="stroke:#000000;stroke-width:0.5;" x="112.5" xlink:href="#m1adc1c7938" y="276"/>
      </g>
     </g>
     <g id="line2d_28">
      <g>
       <use style="stroke:#000000;stroke-width:0.5;" x="635.625" xlink:href="#m8d54ccc11b" y="276"/>
      </g>
     </g>
     <g id="text_13">
      <!-- 0.90 -->
      <g transform="translate(81.78125 279.31125)scale(0.12 -0.12)">
       <use xlink:href="#DejaVuSans-48"/>
       <use x="63.623047" xlink:href="#DejaVuSans-46"/>
       <use x="95.410156" xlink:href="#DejaVuSans-57"/>
       <use x="159.033203" xlink:href="#DejaVuSans-48"/>
      </g>
     </g>
    </g>
    <g id="ytick_3">
     <g id="line2d_29">
      <g>
       <use style="stroke:#000000;stroke-width:0.5;" x="112.5" xlink:href="#m1adc1c7938" y="228"/>
      </g>
     </g>
     <g id="line2d_30">
      <g>
       <use style="stroke:#000000;stroke-width:0.5;" x="635.625" xlink:href="#m8d54ccc11b" y="228"/>
      </g>
     </g>
     <g id="text_14">
      <!-- 0.91 -->
      <g transform="translate(81.78125 231.31125)scale(0.12 -0.12)">
       <use xlink:href="#DejaVuSans-48"/>
       <use x="63.623047" xlink:href="#DejaVuSans-46"/>
       <use x="95.410156" xlink:href="#DejaVuSans-57"/>
       <use x="159.033203" xlink:href="#DejaVuSans-49"/>
      </g>
     </g>
    </g>
    <g id="ytick_4">
     <g id="line2d_31">
      <g>
       <use style="stroke:#000000;stroke-width:0.5;" x="112.5" xlink:href="#m1adc1c7938" y="180"/>
      </g>
     </g>
     <g id="line2d_32">
      <g>
       <use style="stroke:#000000;stroke-width:0.5;" x="635.625" xlink:href="#m8d54ccc11b" y="180"/>
      </g>
     </g>
     <g id="text_15">
      <!-- 0.92 -->
      <g transform="translate(81.78125 183.31125)scale(0.12 -0.12)">
       <use xlink:href="#DejaVuSans-48"/>
       <use x="63.623047" xlink:href="#DejaVuSans-46"/>
       <use x="95.410156" xlink:href="#DejaVuSans-57"/>
       <use x="159.033203" xlink:href="#DejaVuSans-50"/>
      </g>
     </g>
    </g>
    <g id="ytick_5">
     <g id="line2d_33">
      <g>
       <use style="stroke:#000000;stroke-width:0.5;" x="112.5" xlink:href="#m1adc1c7938" y="132"/>
      </g>
     </g>
     <g id="line2d_34">
      <g>
       <use style="stroke:#000000;stroke-width:0.5;" x="635.625" xlink:href="#m8d54ccc11b" y="132"/>
      </g>
     </g>
     <g id="text_16">
      <!-- 0.93 -->
      <g transform="translate(81.78125 135.31125)scale(0.12 -0.12)">
       <use xlink:href="#DejaVuSans-48"/>
       <use x="63.623047" xlink:href="#DejaVuSans-46"/>
       <use x="95.410156" xlink:href="#DejaVuSans-57"/>
       <use x="159.033203" xlink:href="#DejaVuSans-51"/>
      </g>
     </g>
    </g>
    <g id="ytick_6">
     <g id="line2d_35">
      <g>
       <use style="stroke:#000000;stroke-width:0.5;" x="112.5" xlink:href="#m1adc1c7938" y="84"/>
      </g>
     </g>
     <g id="line2d_36">
      <g>
       <use style="stroke:#000000;stroke-width:0.5;" x="635.625" xlink:href="#m8d54ccc11b" y="84"/>
      </g>
     </g>
     <g id="text_17">
      <!-- 0.94 -->
      <g transform="translate(81.78125 87.31125)scale(0.12 -0.12)">
       <use xlink:href="#DejaVuSans-48"/>
       <use x="63.623047" xlink:href="#DejaVuSans-46"/>
       <use x="95.410156" xlink:href="#DejaVuSans-57"/>
       <use x="159.033203" xlink:href="#DejaVuSans-52"/>
      </g>
     </g>
    </g>
    <g id="ytick_7">
     <g id="line2d_37">
      <g>
       <use style="stroke:#000000;stroke-width:0.5;" x="112.5" xlink:href="#m1adc1c7938" y="36"/>
      </g>
     </g>
     <g id="line2d_38">
      <g>
       <use style="stroke:#000000;stroke-width:0.5;" x="635.625" xlink:href="#m8d54ccc11b" y="36"/>
      </g>
     </g>
     <g id="text_18">
      <!-- 0.95 -->
      <g transform="translate(81.78125 39.31125)scale(0.12 -0.12)">
       <use xlink:href="#DejaVuSans-48"/>
       <use x="63.623047" xlink:href="#DejaVuSans-46"/>
       <use x="95.410156" xlink:href="#DejaVuSans-57"/>
       <use x="159.033203" xlink:href="#DejaVuSans-53"/>
      </g>
     </g>
    </g>
    <g id="text_19">
     <!-- accuracy -->
     <defs>
      <path d="M 48.78125 52.59375 
L 48.78125 44.1875 
Q 44.96875 46.296875 41.140625 47.34375 
Q 37.3125 48.390625 33.40625 48.390625 
Q 24.65625 48.390625 19.8125 42.84375 
Q 14.984375 37.3125 14.984375 27.296875 
Q 14.984375 17.28125 19.8125 11.734375 
Q 24.65625 6.203125 33.40625 6.203125 
Q 37.3125 6.203125 41.140625 7.25 
Q 44.96875 8.296875 48.78125 10.40625 
L 48.78125 2.09375 
Q 45.015625 0.34375 40.984375 -0.53125 
Q 36.96875 -1.421875 32.421875 -1.421875 
Q 20.0625 -1.421875 12.78125 6.34375 
Q 5.515625 14.109375 5.515625 27.296875 
Q 5.515625 40.671875 12.859375 48.328125 
Q 20.21875 56 33.015625 56 
Q 37.15625 56 41.109375 55.140625 
Q 45.0625 54.296875 48.78125 52.59375 
z
" id="DejaVuSans-99"/>
      <path d="M 8.5 21.578125 
L 8.5 54.6875 
L 17.484375 54.6875 
L 17.484375 21.921875 
Q 17.484375 14.15625 20.5 10.265625 
Q 23.53125 6.390625 29.59375 6.390625 
Q 36.859375 6.390625 41.078125 11.03125 
Q 45.3125 15.671875 45.3125 23.6875 
L 45.3125 54.6875 
L 54.296875 54.6875 
L 54.296875 0 
L 45.3125 0 
L 45.3125 8.40625 
Q 42.046875 3.421875 37.71875 1 
Q 33.40625 -1.421875 27.6875 -1.421875 
Q 18.265625 -1.421875 13.375 4.4375 
Q 8.5 10.296875 8.5 21.578125 
z
M 31.109375 56 
z
" id="DejaVuSans-117"/>
      <path d="M 32.171875 -5.078125 
Q 28.375 -14.84375 24.75 -17.8125 
Q 21.140625 -20.796875 15.09375 -20.796875 
L 7.90625 -20.796875 
L 7.90625 -13.28125 
L 13.1875 -13.28125 
Q 16.890625 -13.28125 18.9375 -11.515625 
Q 21 -9.765625 23.484375 -3.21875 
L 25.09375 0.875 
L 2.984375 54.6875 
L 12.5 54.6875 
L 29.59375 11.921875 
L 46.6875 54.6875 
L 56.203125 54.6875 
z
" id="DejaVuSans-121"/>
     </defs>
     <g transform="translate(74.285625 207.07125)rotate(-90)scale(0.12 -0.12)">
      <use xlink:href="#DejaVuSans-97"/>
      <use x="61.279297" xlink:href="#DejaVuSans-99"/>
      <use x="116.259766" xlink:href="#DejaVuSans-99"/>
      <use x="171.240234" xlink:href="#DejaVuSans-117"/>
      <use x="234.619141" xlink:href="#DejaVuSans-114"/>
      <use x="275.732422" xlink:href="#DejaVuSans-97"/>
      <use x="337.011719" xlink:href="#DejaVuSans-99"/>
      <use x="391.992188" xlink:href="#DejaVuSans-121"/>
     </g>
    </g>
   </g>
   <g id="legend_1">
    <g id="patch_7">
     <path d="M 640.623 211.260928 
L 856.794309 211.260928 
L 856.794309 148.739072 
L 640.623 148.739072 
z
" style="fill:#ffffff;stroke:#000000;stroke-linejoin:miter;"/>
    </g>
    <g id="line2d_39">
     <path d="M 647.6202 156.83427 
L 661.6146 156.83427 
" style="fill:none;stroke:#0000ff;stroke-linecap:square;stroke-width:1.2;"/>
    </g>
    <g id="line2d_40"/>
    <g id="text_20">
     <!-- Crossover -->
     <defs>
      <path d="M 64.40625 67.28125 
L 64.40625 56.890625 
Q 59.421875 61.53125 53.78125 63.8125 
Q 48.140625 66.109375 41.796875 66.109375 
Q 29.296875 66.109375 22.65625 58.46875 
Q 16.015625 50.828125 16.015625 36.375 
Q 16.015625 21.96875 22.65625 14.328125 
Q 29.296875 6.6875 41.796875 6.6875 
Q 48.140625 6.6875 53.78125 8.984375 
Q 59.421875 11.28125 64.40625 15.921875 
L 64.40625 5.609375 
Q 59.234375 2.09375 53.4375 0.328125 
Q 47.65625 -1.421875 41.21875 -1.421875 
Q 24.65625 -1.421875 15.125 8.703125 
Q 5.609375 18.84375 5.609375 36.375 
Q 5.609375 53.953125 15.125 64.078125 
Q 24.65625 74.21875 41.21875 74.21875 
Q 47.75 74.21875 53.53125 72.484375 
Q 59.328125 70.75 64.40625 67.28125 
z
" id="DejaVuSans-67"/>
      <path d="M 44.28125 53.078125 
L 44.28125 44.578125 
Q 40.484375 46.53125 36.375 47.5 
Q 32.28125 48.484375 27.875 48.484375 
Q 21.1875 48.484375 17.84375 46.4375 
Q 14.5 44.390625 14.5 40.28125 
Q 14.5 37.15625 16.890625 35.375 
Q 19.28125 33.59375 26.515625 31.984375 
L 29.59375 31.296875 
Q 39.15625 29.25 43.1875 25.515625 
Q 47.21875 21.78125 47.21875 15.09375 
Q 47.21875 7.46875 41.1875 3.015625 
Q 35.15625 -1.421875 24.609375 -1.421875 
Q 20.21875 -1.421875 15.453125 -0.5625 
Q 10.6875 0.296875 5.421875 2 
L 5.421875 11.28125 
Q 10.40625 8.6875 15.234375 7.390625 
Q 20.0625 6.109375 24.8125 6.109375 
Q 31.15625 6.109375 34.5625 8.28125 
Q 37.984375 10.453125 37.984375 14.40625 
Q 37.984375 18.0625 35.515625 20.015625 
Q 33.0625 21.96875 24.703125 23.78125 
L 21.578125 24.515625 
Q 13.234375 26.265625 9.515625 29.90625 
Q 5.8125 33.546875 5.8125 39.890625 
Q 5.8125 47.609375 11.28125 51.796875 
Q 16.75 56 26.8125 56 
Q 31.78125 56 36.171875 55.265625 
Q 40.578125 54.546875 44.28125 53.078125 
z
" id="DejaVuSans-115"/>
      <path d="M 2.984375 54.6875 
L 12.5 54.6875 
L 29.59375 8.796875 
L 46.6875 54.6875 
L 56.203125 54.6875 
L 35.6875 0 
L 23.484375 0 
z
" id="DejaVuSans-118"/>
     </defs>
     <g transform="translate(672.6102 160.33287)scale(0.09996 -0.09996)">
      <use xlink:href="#DejaVuSans-67"/>
      <use x="69.824219" xlink:href="#DejaVuSans-114"/>
      <use x="108.6875" xlink:href="#DejaVuSans-111"/>
      <use x="169.869141" xlink:href="#DejaVuSans-115"/>
      <use x="221.96875" xlink:href="#DejaVuSans-115"/>
      <use x="274.068359" xlink:href="#DejaVuSans-111"/>
      <use x="335.25" xlink:href="#DejaVuSans-118"/>
      <use x="394.429688" xlink:href="#DejaVuSans-101"/>
      <use x="455.953125" xlink:href="#DejaVuSans-114"/>
     </g>
    </g>
    <g id="line2d_41">
     <path d="M 647.6202 171.506524 
L 661.6146 171.506524 
" style="fill:none;stroke:#008000;stroke-linecap:square;stroke-width:1.2;"/>
    </g>
    <g id="line2d_42"/>
    <g id="text_21">
     <!-- Crossover_Min_Layers -->
     <defs>
      <path d="M 50.984375 -16.609375 
L 50.984375 -23.578125 
L -0.984375 -23.578125 
L -0.984375 -16.609375 
z
" id="DejaVuSans-95"/>
      <path d="M 9.8125 72.90625 
L 24.515625 72.90625 
L 43.109375 23.296875 
L 61.8125 72.90625 
L 76.515625 72.90625 
L 76.515625 0 
L 66.890625 0 
L 66.890625 64.015625 
L 48.09375 14.015625 
L 38.1875 14.015625 
L 19.390625 64.015625 
L 19.390625 0 
L 9.8125 0 
z
" id="DejaVuSans-77"/>
      <path d="M 9.8125 72.90625 
L 19.671875 72.90625 
L 19.671875 8.296875 
L 55.171875 8.296875 
L 55.171875 0 
L 9.8125 0 
z
" id="DejaVuSans-76"/>
     </defs>
     <g transform="translate(672.6102 175.005124)scale(0.09996 -0.09996)">
      <use xlink:href="#DejaVuSans-67"/>
      <use x="69.824219" xlink:href="#DejaVuSans-114"/>
      <use x="108.6875" xlink:href="#DejaVuSans-111"/>
      <use x="169.869141" xlink:href="#DejaVuSans-115"/>
      <use x="221.96875" xlink:href="#DejaVuSans-115"/>
      <use x="274.068359" xlink:href="#DejaVuSans-111"/>
      <use x="335.25" xlink:href="#DejaVuSans-118"/>
      <use x="394.429688" xlink:href="#DejaVuSans-101"/>
      <use x="455.953125" xlink:href="#DejaVuSans-114"/>
      <use x="497.066406" xlink:href="#DejaVuSans-95"/>
      <use x="547.066406" xlink:href="#DejaVuSans-77"/>
      <use x="633.345703" xlink:href="#DejaVuSans-105"/>
      <use x="661.128906" xlink:href="#DejaVuSans-110"/>
      <use x="724.507812" xlink:href="#DejaVuSans-95"/>
      <use x="774.507812" xlink:href="#DejaVuSans-76"/>
      <use x="830.220703" xlink:href="#DejaVuSans-97"/>
      <use x="891.5" xlink:href="#DejaVuSans-121"/>
      <use x="950.679688" xlink:href="#DejaVuSans-101"/>
      <use x="1012.203125" xlink:href="#DejaVuSans-114"/>
      <use x="1053.316406" xlink:href="#DejaVuSans-115"/>
     </g>
    </g>
    <g id="line2d_43">
     <path d="M 647.6202 186.456791 
L 661.6146 186.456791 
" style="fill:none;stroke:#ff0000;stroke-linecap:square;stroke-width:1.2;"/>
    </g>
    <g id="line2d_44"/>
    <g id="text_22">
     <!-- Crossover_Activation_Optimizer -->
     <defs>
      <path d="M 34.1875 63.1875 
L 20.796875 26.90625 
L 47.609375 26.90625 
z
M 28.609375 72.90625 
L 39.796875 72.90625 
L 67.578125 0 
L 57.328125 0 
L 50.6875 18.703125 
L 17.828125 18.703125 
L 11.1875 0 
L 0.78125 0 
z
" id="DejaVuSans-65"/>
      <path d="M 39.40625 66.21875 
Q 28.65625 66.21875 22.328125 58.203125 
Q 16.015625 50.203125 16.015625 36.375 
Q 16.015625 22.609375 22.328125 14.59375 
Q 28.65625 6.59375 39.40625 6.59375 
Q 50.140625 6.59375 56.421875 14.59375 
Q 62.703125 22.609375 62.703125 36.375 
Q 62.703125 50.203125 56.421875 58.203125 
Q 50.140625 66.21875 39.40625 66.21875 
z
M 39.40625 74.21875 
Q 54.734375 74.21875 63.90625 63.9375 
Q 73.09375 53.65625 73.09375 36.375 
Q 73.09375 19.140625 63.90625 8.859375 
Q 54.734375 -1.421875 39.40625 -1.421875 
Q 24.03125 -1.421875 14.8125 8.828125 
Q 5.609375 19.09375 5.609375 36.375 
Q 5.609375 53.65625 14.8125 63.9375 
Q 24.03125 74.21875 39.40625 74.21875 
z
" id="DejaVuSans-79"/>
      <path d="M 18.109375 8.203125 
L 18.109375 -20.796875 
L 9.078125 -20.796875 
L 9.078125 54.6875 
L 18.109375 54.6875 
L 18.109375 46.390625 
Q 20.953125 51.265625 25.265625 53.625 
Q 29.59375 56 35.59375 56 
Q 45.5625 56 51.78125 48.09375 
Q 58.015625 40.1875 58.015625 27.296875 
Q 58.015625 14.40625 51.78125 6.484375 
Q 45.5625 -1.421875 35.59375 -1.421875 
Q 29.59375 -1.421875 25.265625 0.953125 
Q 20.953125 3.328125 18.109375 8.203125 
z
M 48.6875 27.296875 
Q 48.6875 37.203125 44.609375 42.84375 
Q 40.53125 48.484375 33.40625 48.484375 
Q 26.265625 48.484375 22.1875 42.84375 
Q 18.109375 37.203125 18.109375 27.296875 
Q 18.109375 17.390625 22.1875 11.75 
Q 26.265625 6.109375 33.40625 6.109375 
Q 40.53125 6.109375 44.609375 11.75 
Q 48.6875 17.390625 48.6875 27.296875 
z
" id="DejaVuSans-112"/>
      <path d="M 52 44.1875 
Q 55.375 50.25 60.0625 53.125 
Q 64.75 56 71.09375 56 
Q 79.640625 56 84.28125 50.015625 
Q 88.921875 44.046875 88.921875 33.015625 
L 88.921875 0 
L 79.890625 0 
L 79.890625 32.71875 
Q 79.890625 40.578125 77.09375 44.375 
Q 74.3125 48.1875 68.609375 48.1875 
Q 61.625 48.1875 57.5625 43.546875 
Q 53.515625 38.921875 53.515625 30.90625 
L 53.515625 0 
L 44.484375 0 
L 44.484375 32.71875 
Q 44.484375 40.625 41.703125 44.40625 
Q 38.921875 48.1875 33.109375 48.1875 
Q 26.21875 48.1875 22.15625 43.53125 
Q 18.109375 38.875 18.109375 30.90625 
L 18.109375 0 
L 9.078125 0 
L 9.078125 54.6875 
L 18.109375 54.6875 
L 18.109375 46.1875 
Q 21.1875 51.21875 25.484375 53.609375 
Q 29.78125 56 35.6875 56 
Q 41.65625 56 45.828125 52.96875 
Q 50 49.953125 52 44.1875 
z
" id="DejaVuSans-109"/>
      <path d="M 5.515625 54.6875 
L 48.1875 54.6875 
L 48.1875 46.484375 
L 14.40625 7.171875 
L 48.1875 7.171875 
L 48.1875 0 
L 4.296875 0 
L 4.296875 8.203125 
L 38.09375 47.515625 
L 5.515625 47.515625 
z
" id="DejaVuSans-122"/>
     </defs>
     <g transform="translate(672.6102 189.955391)scale(0.09996 -0.09996)">
      <use xlink:href="#DejaVuSans-67"/>
      <use x="69.824219" xlink:href="#DejaVuSans-114"/>
      <use x="108.6875" xlink:href="#DejaVuSans-111"/>
      <use x="169.869141" xlink:href="#DejaVuSans-115"/>
      <use x="221.96875" xlink:href="#DejaVuSans-115"/>
      <use x="274.068359" xlink:href="#DejaVuSans-111"/>
      <use x="335.25" xlink:href="#DejaVuSans-118"/>
      <use x="394.429688" xlink:href="#DejaVuSans-101"/>
      <use x="455.953125" xlink:href="#DejaVuSans-114"/>
      <use x="497.066406" xlink:href="#DejaVuSans-95"/>
      <use x="547.066406" xlink:href="#DejaVuSans-65"/>
      <use x="613.724609" xlink:href="#DejaVuSans-99"/>
      <use x="668.705078" xlink:href="#DejaVuSans-116"/>
      <use x="707.914062" xlink:href="#DejaVuSans-105"/>
      <use x="735.697266" xlink:href="#DejaVuSans-118"/>
      <use x="794.876953" xlink:href="#DejaVuSans-97"/>
      <use x="856.15625" xlink:href="#DejaVuSans-116"/>
      <use x="895.365234" xlink:href="#DejaVuSans-105"/>
      <use x="923.148438" xlink:href="#DejaVuSans-111"/>
      <use x="984.330078" xlink:href="#DejaVuSans-110"/>
      <use x="1047.708984" xlink:href="#DejaVuSans-95"/>
      <use x="1097.708984" xlink:href="#DejaVuSans-79"/>
      <use x="1176.419922" xlink:href="#DejaVuSans-112"/>
      <use x="1239.896484" xlink:href="#DejaVuSans-116"/>
      <use x="1279.105469" xlink:href="#DejaVuSans-105"/>
      <use x="1306.888672" xlink:href="#DejaVuSans-109"/>
      <use x="1404.300781" xlink:href="#DejaVuSans-105"/>
      <use x="1432.083984" xlink:href="#DejaVuSans-122"/>
      <use x="1484.574219" xlink:href="#DejaVuSans-101"/>
      <use x="1546.097656" xlink:href="#DejaVuSans-114"/>
     </g>
    </g>
    <g id="line2d_45">
     <path d="M 647.6202 201.407059 
L 661.6146 201.407059 
" style="fill:none;stroke:#00bfbf;stroke-linecap:square;stroke-width:1.2;"/>
    </g>
    <g id="line2d_46"/>
    <g id="text_23">
     <!-- Crossover_Random_Initial_Layer_No -->
     <defs>
      <path d="M 44.390625 34.1875 
Q 47.5625 33.109375 50.5625 29.59375 
Q 53.5625 26.078125 56.59375 19.921875 
L 66.609375 0 
L 56 0 
L 46.6875 18.703125 
Q 43.0625 26.03125 39.671875 28.421875 
Q 36.28125 30.8125 30.421875 30.8125 
L 19.671875 30.8125 
L 19.671875 0 
L 9.8125 0 
L 9.8125 72.90625 
L 32.078125 72.90625 
Q 44.578125 72.90625 50.734375 67.671875 
Q 56.890625 62.453125 56.890625 51.90625 
Q 56.890625 45.015625 53.6875 40.46875 
Q 50.484375 35.9375 44.390625 34.1875 
z
M 19.671875 64.796875 
L 19.671875 38.921875 
L 32.078125 38.921875 
Q 39.203125 38.921875 42.84375 42.21875 
Q 46.484375 45.515625 46.484375 51.90625 
Q 46.484375 58.296875 42.84375 61.546875 
Q 39.203125 64.796875 32.078125 64.796875 
z
" id="DejaVuSans-82"/>
      <path d="M 45.40625 46.390625 
L 45.40625 75.984375 
L 54.390625 75.984375 
L 54.390625 0 
L 45.40625 0 
L 45.40625 8.203125 
Q 42.578125 3.328125 38.25 0.953125 
Q 33.9375 -1.421875 27.875 -1.421875 
Q 17.96875 -1.421875 11.734375 6.484375 
Q 5.515625 14.40625 5.515625 27.296875 
Q 5.515625 40.1875 11.734375 48.09375 
Q 17.96875 56 27.875 56 
Q 33.9375 56 38.25 53.625 
Q 42.578125 51.265625 45.40625 46.390625 
z
M 14.796875 27.296875 
Q 14.796875 17.390625 18.875 11.75 
Q 22.953125 6.109375 30.078125 6.109375 
Q 37.203125 6.109375 41.296875 11.75 
Q 45.40625 17.390625 45.40625 27.296875 
Q 45.40625 37.203125 41.296875 42.84375 
Q 37.203125 48.484375 30.078125 48.484375 
Q 22.953125 48.484375 18.875 42.84375 
Q 14.796875 37.203125 14.796875 27.296875 
z
" id="DejaVuSans-100"/>
      <path d="M 9.8125 72.90625 
L 19.671875 72.90625 
L 19.671875 0 
L 9.8125 0 
z
" id="DejaVuSans-73"/>
      <path d="M 9.421875 75.984375 
L 18.40625 75.984375 
L 18.40625 0 
L 9.421875 0 
z
" id="DejaVuSans-108"/>
      <path d="M 9.8125 72.90625 
L 23.09375 72.90625 
L 55.421875 11.921875 
L 55.421875 72.90625 
L 64.984375 72.90625 
L 64.984375 0 
L 51.703125 0 
L 19.390625 60.984375 
L 19.390625 0 
L 9.8125 0 
z
" id="DejaVuSans-78"/>
     </defs>
     <g transform="translate(672.6102 204.905659)scale(0.09996 -0.09996)">
      <use xlink:href="#DejaVuSans-67"/>
      <use x="69.824219" xlink:href="#DejaVuSans-114"/>
      <use x="108.6875" xlink:href="#DejaVuSans-111"/>
      <use x="169.869141" xlink:href="#DejaVuSans-115"/>
      <use x="221.96875" xlink:href="#DejaVuSans-115"/>
      <use x="274.068359" xlink:href="#DejaVuSans-111"/>
      <use x="335.25" xlink:href="#DejaVuSans-118"/>
      <use x="394.429688" xlink:href="#DejaVuSans-101"/>
      <use x="455.953125" xlink:href="#DejaVuSans-114"/>
      <use x="497.066406" xlink:href="#DejaVuSans-95"/>
      <use x="547.066406" xlink:href="#DejaVuSans-82"/>
      <use x="614.298828" xlink:href="#DejaVuSans-97"/>
      <use x="675.578125" xlink:href="#DejaVuSans-110"/>
      <use x="738.957031" xlink:href="#DejaVuSans-100"/>
      <use x="802.433594" xlink:href="#DejaVuSans-111"/>
      <use x="863.615234" xlink:href="#DejaVuSans-109"/>
      <use x="961.027344" xlink:href="#DejaVuSans-95"/>
      <use x="1011.027344" xlink:href="#DejaVuSans-73"/>
      <use x="1040.519531" xlink:href="#DejaVuSans-110"/>
      <use x="1103.898438" xlink:href="#DejaVuSans-105"/>
      <use x="1131.681641" xlink:href="#DejaVuSans-116"/>
      <use x="1170.890625" xlink:href="#DejaVuSans-105"/>
      <use x="1198.673828" xlink:href="#DejaVuSans-97"/>
      <use x="1259.953125" xlink:href="#DejaVuSans-108"/>
      <use x="1287.736328" xlink:href="#DejaVuSans-95"/>
      <use x="1337.736328" xlink:href="#DejaVuSans-76"/>
      <use x="1393.449219" xlink:href="#DejaVuSans-97"/>
      <use x="1454.728516" xlink:href="#DejaVuSans-121"/>
      <use x="1513.908203" xlink:href="#DejaVuSans-101"/>
      <use x="1575.431641" xlink:href="#DejaVuSans-114"/>
      <use x="1616.544922" xlink:href="#DejaVuSans-95"/>
      <use x="1666.544922" xlink:href="#DejaVuSans-78"/>
      <use x="1741.349609" xlink:href="#DejaVuSans-111"/>
     </g>
    </g>
   </g>
  </g>
  <g id="text_24">
   <!-- Average Accuracy -->
   <defs>
    <path id="DejaVuSans-32"/>
   </defs>
   <g transform="translate(396.06 16.318125)scale(0.12 -0.12)">
    <use xlink:href="#DejaVuSans-65"/>
    <use x="62.533203" xlink:href="#DejaVuSans-118"/>
    <use x="121.712891" xlink:href="#DejaVuSans-101"/>
    <use x="183.236328" xlink:href="#DejaVuSans-114"/>
    <use x="224.349609" xlink:href="#DejaVuSans-97"/>
    <use x="285.628906" xlink:href="#DejaVuSans-103"/>
    <use x="349.105469" xlink:href="#DejaVuSans-101"/>
    <use x="410.628906" xlink:href="#DejaVuSans-32"/>
    <use x="442.416016" xlink:href="#DejaVuSans-65"/>
    <use x="509.074219" xlink:href="#DejaVuSans-99"/>
    <use x="564.054688" xlink:href="#DejaVuSans-99"/>
    <use x="619.035156" xlink:href="#DejaVuSans-117"/>
    <use x="682.414062" xlink:href="#DejaVuSans-114"/>
    <use x="723.527344" xlink:href="#DejaVuSans-97"/>
    <use x="784.806641" xlink:href="#DejaVuSans-99"/>
    <use x="839.787109" xlink:href="#DejaVuSans-121"/>
   </g>
  </g>
 </g>
 <defs>
  <clipPath id="pf50eba1572">
   <rect height="288" width="523.125" x="112.5" y="36"/>
  </clipPath>
 </defs>
</svg>
