<?xml version="1.0" encoding="utf-8" standalone="no"?>
<!DOCTYPE svg PUBLIC "-//W3C//DTD SVG 1.1//EN"
  "http://www.w3.org/Graphics/SVG/1.1/DTD/svg11.dtd">
<!-- Created with matplotlib (https://matplotlib.org/) -->
<svg height="360pt" version="1.1" viewBox="0 0 900 360" width="900pt" xmlns="http://www.w3.org/2000/svg" xmlns:xlink="http://www.w3.org/1999/xlink">
 <defs>
  <style type="text/css">
*{stroke-linecap:butt;stroke-linejoin:round;}
  </style>
 </defs>
 <g id="figure_1">
  <g id="patch_1">
   <path d="M 0 360 
L 900 360 
L 900 0 
L 0 0 
z
" style="fill:#ffffff;"/>
  </g>
  <g id="axes_1">
   <g id="patch_2">
    <path d="M 112.5 324 
L 635.625 324 
L 635.625 36 
L 112.5 36 
z
" style="fill:#ffffff;"/>
   </g>
   <g id="line2d_1">
    <path clip-path="url(#paee982f24d)" d="M 112.852986 102.173903 
L 116.382844 135.276143 
L 119.912702 149.882491 
L 123.442561 169.14004 
L 126.972419 149.685522 
L 130.502277 140.820277 
L 134.032136 173.109237 
L 137.561994 168.504119 
L 141.091852 185.979548 
L 144.621711 193.50669 
L 148.151569 177.844512 
L 151.681427 184.651517 
L 155.211285 190.15328 
L 158.741144 206.784765 
L 162.271002 179.733581 
L 165.80086 210.452257 
L 169.330719 222.484931 
L 172.860577 205.912243 
L 176.390435 211.235113 
L 179.920294 196.671853 
L 183.450152 228.633384 
L 186.98001 205.314618 
L 190.509868 195.686833 
L 194.039727 209.44908 
L 197.569585 213.877467 
L 201.099443 205.552768 
L 204.629302 232.483465 
L 208.15916 234.23693 
L 211.689018 254.223786 
L 215.218877 232.556518 
L 218.748735 236.942594 
L 222.278593 255.135506 
L 225.808451 226.703373 
L 229.33831 234.749369 
L 232.868168 235.074321 
L 236.398026 259.509843 
L 239.927885 257.150845 
L 243.457743 215.467281 
L 246.987601 229.413456 
L 250.51746 214.562209 
L 254.047318 243.218244 
L 257.577176 235.501744 
L 261.107034 230.585164 
L 264.636893 252.010653 
L 268.166751 212.188262 
L 271.696609 233.929473 
L 275.226468 223.409707 
L 278.756326 243.209392 
L 282.286184 260.751122 
L 285.816043 248.45775 
L 289.345901 250.395718 
L 292.875759 227.889268 
L 296.405617 293.515281 
L 299.935476 231.153162 
L 303.465334 235.724714 
L 306.995192 233.195018 
L 310.525051 220.432837 
L 314.054909 255.171126 
L 317.584767 248.46078 
L 321.114626 229.691252 
L 324.644484 266.637207 
L 328.174342 217.350834 
L 331.7042 269.478364 
L 335.234059 203.823397 
L 338.763917 213.983654 
L 342.293775 267.906924 
L 345.823634 230.180304 
L 349.353492 229.061478 
L 352.88335 221.279439 
L 356.413209 186.590399 
L 359.943067 209.99489 
L 363.472925 221.573255 
L 367.002783 208.008338 
L 370.532642 213.916284 
L 374.0625 246.55642 
L 377.592358 220.610868 
L 381.122217 252.697519 
L 384.652075 208.857976 
L 388.181933 249.43044 
L 391.711791 209.56344 
L 395.24165 284.633078 
L 398.771508 286.743504 
L 402.301366 258.982353 
L 405.831225 258.943416 
L 409.361083 250.99737 
L 412.890941 253.875541 
L 416.4208 248.064733 
L 419.950658 274.813671 
L 423.480516 265.097519 
L 427.010374 276.828634 
L 430.540233 253.076361 
L 434.070091 257.118316 
L 437.599949 265.881226 
L 441.129808 273.942576 
L 444.659666 250.758861 
L 448.189524 230.987078 
L 451.719383 258.3193 
L 455.249241 272.74679 
L 458.779099 283.000994 
L 462.308957 214.196904 
L 465.838816 257.722919 
L 469.368674 284.801256 
L 472.898532 273.823361 
L 476.428391 272.196903 
L 479.958249 270.849151 
L 483.488107 276.644686 
L 487.017966 263.033474 
L 490.547824 278.373835 
L 494.077682 260.903648 
L 497.60754 259.847882 
L 501.137399 244.142688 
L 504.667257 213.844945 
L 508.197115 247.566656 
L 511.726974 232.860959 
L 515.256832 216.883909 
L 518.78669 252.387095 
L 522.316549 244.478786 
L 525.846407 269.5595 
L 529.376265 273.180974 
L 532.906123 245.32665 
L 536.435982 270.696612 
L 539.96584 232.022746 
L 543.495698 271.530765 
L 547.025557 216.833335 
L 550.555415 254.230497 
L 554.085273 296.965525 
L 557.615132 258.187254 
L 561.14499 236.759232 
L 564.674848 283.727756 
L 568.204706 272.69859 
L 575.264423 275.45441 
L 578.794281 270.680728 
L 582.32414 279.704465 
L 585.853998 232.739024 
L 589.383856 278.410009 
L 592.913715 267.15205 
L 596.443573 287.107507 
L 603.503289 251.451351 
L 607.033148 258.523592 
L 610.563006 241.574278 
L 614.092864 272.265764 
L 617.622723 252.407868 
L 621.152581 269.387489 
L 621.152581 269.387489 
" style="fill:none;stroke:#0000ff;stroke-linecap:square;stroke-width:1.2;"/>
   </g>
   <g id="line2d_2">
    <path clip-path="url(#paee982f24d)" d="M 112.852986 142.778847 
L 116.382844 128.754449 
L 119.912702 156.614142 
L 123.442561 150.114324 
L 126.972419 149.427795 
L 130.502277 167.950171 
L 134.032136 162.971418 
L 137.561994 168.795207 
L 141.091852 168.482822 
L 144.621711 153.807386 
L 148.151569 163.635065 
L 151.681427 190.846758 
L 155.211285 202.321394 
L 158.741144 221.527596 
L 162.271002 214.388009 
L 165.80086 209.667357 
L 169.330719 165.191507 
L 172.860577 187.053519 
L 176.390435 215.566914 
L 179.920294 204.07585 
L 183.450152 187.149132 
L 186.98001 223.088018 
L 190.509868 210.197881 
L 194.039727 219.007799 
L 197.569585 242.678009 
L 201.099443 204.120238 
L 204.629302 232.287755 
L 208.15916 239.393568 
L 211.689018 224.661387 
L 215.218877 217.601264 
L 218.748735 211.592284 
L 222.278593 234.182143 
L 225.808451 230.813915 
L 229.33831 246.537409 
L 232.868168 187.863044 
L 236.398026 221.397617 
L 239.927885 222.119235 
L 243.457743 236.108746 
L 246.987601 259.265409 
L 250.51746 233.839778 
L 254.047318 216.375756 
L 257.577176 215.68839 
L 261.107034 250.689953 
L 264.636893 246.003817 
L 268.166751 249.068271 
L 271.696609 246.092767 
L 275.226468 242.866709 
L 278.756326 213.311527 
L 282.286184 209.639241 
L 285.816043 229.055541 
L 289.345901 249.534613 
L 292.875759 217.370488 
L 296.405617 261.053567 
L 299.935476 238.849331 
L 303.465334 235.800585 
L 306.995192 219.922226 
L 310.525051 239.380145 
L 314.054909 235.037618 
L 317.584767 228.56685 
L 321.114626 222.976015 
L 324.644484 227.70054 
L 328.174342 233.111658 
L 331.7042 222.066615 
L 335.234059 234.953345 
L 338.763917 247.365177 
L 342.293775 216.520095 
L 345.823634 274.472045 
L 349.353492 244.442773 
L 352.88335 159.220028 
L 356.413209 238.08468 
L 359.943067 215.970376 
L 363.472925 211.386601 
L 367.002783 250.368247 
L 370.532642 221.363051 
L 374.0625 271.600747 
L 377.592358 256.200091 
L 381.122217 267.71925 
L 384.652075 243.789617 
L 388.181933 251.715326 
L 391.711791 239.862718 
L 395.24165 242.812973 
L 398.771508 242.098724 
L 402.301366 234.736626 
L 405.831225 247.827404 
L 409.361083 246.374868 
L 412.890941 230.882957 
L 416.4208 216.140998 
L 419.950658 209.715078 
L 423.480516 244.069721 
L 427.010374 269.572319 
L 430.540233 242.072428 
L 434.070091 242.414443 
L 437.599949 199.916097 
L 441.129808 231.437678 
L 444.659666 240.251318 
L 448.189524 238.759752 
L 451.719383 255.007763 
L 455.249241 203.50117 
L 458.779099 166.781016 
L 462.308957 258.183611 
L 465.838816 238.147029 
L 469.368674 196.521823 
L 472.898532 217.688512 
L 476.428391 231.192828 
L 479.958249 246.711864 
L 483.488107 219.837495 
L 487.017966 241.680781 
L 490.547824 245.901311 
L 494.077682 248.881856 
L 497.60754 250.013827 
L 501.137399 204.329989 
L 504.667257 262.656276 
L 508.197115 215.401893 
L 511.726974 191.581937 
L 515.256832 222.581798 
L 518.78669 210.560648 
L 522.316549 203.385198 
L 525.846407 210.398694 
L 529.376265 239.675763 
L 532.906123 200.768462 
L 536.435982 215.315271 
L 539.96584 252.389975 
L 543.495698 189.397735 
L 547.025557 205.233522 
L 550.555415 223.821792 
L 554.085273 187.759699 
L 557.615132 222.02104 
L 561.14499 228.471823 
L 564.674848 252.805549 
L 568.204706 239.17811 
L 571.734565 242.496804 
L 575.264423 236.953014 
L 578.794281 233.592902 
L 582.32414 214.653607 
L 585.853998 208.137684 
L 589.383856 243.628079 
L 589.383856 243.628079 
" style="fill:none;stroke:#008000;stroke-linecap:square;stroke-width:1.2;"/>
   </g>
   <g id="line2d_3">
    <path clip-path="url(#paee982f24d)" d="M 112.852986 107.845068 
L 116.382844 90.004323 
L 119.912702 102.797063 
L 123.442561 105.679441 
L 126.972419 127.430076 
L 130.502277 129.308779 
L 134.032136 134.451775 
L 137.561994 156.91658 
L 141.091852 125.850787 
L 144.621711 128.349403 
L 148.151569 163.841501 
L 151.681427 151.239594 
L 155.211285 158.085419 
L 158.741144 138.721429 
L 162.271002 120.837558 
L 165.80086 169.207383 
L 169.330719 135.881797 
L 172.860577 156.674746 
L 176.390435 118.10289 
L 179.920294 140.443713 
L 183.450152 155.513848 
L 186.98001 154.237213 
L 190.509868 135.38328 
L 194.039727 147.944066 
L 197.569585 148.115084 
L 201.099443 137.349884 
L 204.629302 138.688772 
L 208.15916 174.12493 
L 211.689018 172.291791 
L 215.218877 164.413768 
L 218.748735 146.063858 
L 222.278593 207.493681 
L 225.808451 123.56134 
L 229.33831 207.83587 
L 232.868168 192.152189 
L 236.398026 186.095385 
L 239.927885 84.178295 
L 243.457743 212.562249 
L 246.987601 186.334259 
L 250.51746 184.541272 
L 254.047318 226.728819 
L 257.577176 165.613488 
L 261.107034 143.362297 
L 264.636893 248.369416 
L 268.166751 178.751455 
L 271.696609 128.222408 
L 275.226468 171.816856 
L 278.756326 236.032092 
L 282.286184 212.281456 
L 285.816043 195.947411 
L 289.345901 165.453549 
L 292.875759 173.010283 
L 296.405617 77.277162 
L 299.935476 188.275408 
L 303.465334 177.551807 
L 306.995192 219.278212 
L 310.525051 137.15424 
L 314.054909 172.279348 
L 317.584767 199.438855 
L 321.114626 46.236823 
L 324.644484 243.301559 
L 328.174342 199.28002 
L 331.7042 259.569491 
L 335.234059 180.128974 
L 338.763917 191.764822 
L 342.293775 215.424782 
L 345.823634 220.297548 
L 349.353492 224.4251 
L 352.88335 135.798725 
L 356.413209 218.58064 
L 359.943067 125.882461 
L 363.472925 202.156845 
L 367.002783 233.253416 
L 370.532642 169.778501 
L 374.0625 256.735247 
L 377.592358 217.677617 
L 381.122217 210.772849 
L 384.652075 218.243074 
L 388.181933 220.167 
L 391.711791 245.087607 
L 395.24165 222.195953 
L 398.771508 111.004497 
L 402.301366 213.682369 
L 405.831225 238.689317 
L 409.361083 241.056724 
L 412.890941 227.535136 
L 416.4208 139.231325 
L 419.950658 281.414566 
L 423.480516 242.521338 
L 427.010374 219.824421 
L 430.540233 168.714641 
L 434.070091 206.459774 
L 437.599949 198.116024 
L 441.129808 238.673835 
L 444.659666 206.714614 
L 448.189524 213.876278 
L 451.719383 220.384421 
L 455.249241 246.397005 
L 458.779099 249.364884 
L 462.308957 248.114182 
L 465.838816 255.426055 
L 469.368674 250.954518 
L 472.898532 218.1522 
" style="fill:none;stroke:#ff0000;stroke-linecap:square;stroke-width:1.2;"/>
   </g>
   <g id="line2d_4">
    <path clip-path="url(#paee982f24d)" d="M 112.852986 49.152784 
L 116.382844 123.48057 
L 119.912702 115.968616 
L 123.442561 112.785359 
L 126.972419 149.625124 
L 130.502277 151.770545 
L 134.032136 156.125436 
L 137.561994 151.264842 
L 141.091852 150.986589 
L 144.621711 187.336037 
L 148.151569 178.682975 
L 151.681427 197.861525 
L 155.211285 169.306654 
L 158.741144 217.321838 
L 162.271002 154.559631 
L 165.80086 196.574492 
L 169.330719 193.499747 
L 172.860577 214.634861 
L 176.390435 215.114148 
L 179.920294 229.669927 
L 183.450152 238.399088 
L 186.98001 193.489887 
L 190.509868 210.630695 
L 194.039727 164.355124 
L 197.569585 197.871242 
L 201.099443 206.157943 
L 204.629302 203.237539 
L 208.15916 200.761461 
L 211.689018 197.273997 
L 215.218877 224.592899 
L 218.748735 239.846443 
L 222.278593 228.850224 
L 225.808451 260.250358 
L 229.33831 224.109625 
L 232.868168 234.396979 
L 236.398026 263.737884 
L 239.927885 240.837528 
L 243.457743 230.412272 
L 246.987601 256.534063 
L 250.51746 261.186065 
L 254.047318 206.638646 
L 257.577176 226.548968 
L 261.107034 253.791694 
L 264.636893 239.515152 
L 268.166751 248.333952 
L 271.696609 253.51835 
L 275.226468 243.12798 
L 278.756326 274.448909 
L 282.286184 189.076886 
L 285.816043 240.07523 
L 289.345901 206.803886 
L 292.875759 243.309905 
L 296.405617 248.100168 
L 299.935476 263.686061 
L 303.465334 218.933709 
L 306.995192 261.442323 
L 310.525051 233.985037 
L 314.054909 261.060631 
L 317.584767 248.617738 
L 321.114626 270.835949 
L 324.644484 244.222747 
L 328.174342 258.873255 
L 331.7042 262.91003 
L 335.234059 264.63362 
L 338.763917 194.348484 
L 342.293775 267.303586 
L 345.823634 198.720595 
L 349.353492 208.834875 
L 352.88335 235.786781 
L 356.413209 270.776444 
L 359.943067 245.6231 
L 363.472925 224.250326 
L 367.002783 216.458063 
L 370.532642 232.2891 
L 374.0625 265.425149 
L 377.592358 262.088719 
L 381.122217 229.394658 
L 384.652075 276.984514 
L 388.181933 252.712642 
L 391.711791 244.769895 
L 395.24165 260.331248 
L 398.771508 212.535065 
L 402.301366 249.725295 
L 405.831225 258.845177 
L 409.361083 229.284484 
L 412.890941 249.633101 
L 416.4208 188.479421 
L 419.950658 260.083136 
L 423.480516 258.325714 
L 427.010374 210.259679 
L 430.540233 235.97823 
L 434.070091 210.156931 
L 437.599949 245.661068 
L 441.129808 233.777763 
L 444.659666 262.004626 
L 448.189524 250.925338 
L 451.719383 277.342629 
L 455.249241 250.637772 
L 458.779099 230.790266 
L 462.308957 233.553175 
L 465.838816 235.361307 
L 469.368674 248.125134 
L 472.898532 244.299404 
L 476.428391 231.934622 
L 479.958249 234.287427 
L 483.488107 267.597667 
L 487.017966 268.721965 
L 490.547824 260.010274 
L 494.077682 209.429679 
L 497.60754 228.441894 
L 501.137399 259.526663 
L 504.667257 171.506701 
L 508.197115 203.100369 
L 511.726974 245.323408 
L 515.256832 246.212042 
L 518.78669 217.516379 
L 522.316549 260.565689 
L 525.846407 215.88532 
L 529.376265 210.5687 
L 532.906123 246.794126 
L 536.435982 258.696801 
L 539.96584 254.485656 
L 543.495698 269.823256 
L 547.025557 248.499143 
L 550.555415 216.85458 
L 554.085273 262.334664 
L 557.615132 256.049996 
L 561.14499 253.789904 
L 564.674848 256.277461 
L 568.204706 227.996806 
L 571.734565 252.841005 
L 575.264423 253.128054 
L 578.794281 273.402449 
L 582.32414 266.031344 
L 585.853998 271.828133 
L 589.383856 232.653898 
L 592.913715 208.297139 
L 596.443573 275.464102 
L 599.973431 258.66269 
L 603.503289 269.506428 
L 607.033148 264.676601 
L 610.563006 229.976159 
L 614.092864 222.368884 
L 617.622723 228.630218 
L 621.152581 257.616001 
L 624.682439 258.079435 
L 628.212298 279.276445 
L 631.742156 253.589651 
L 635.272014 288.882531 
L 635.272014 288.882531 
" style="fill:none;stroke:#00bfbf;stroke-linecap:square;stroke-width:1.2;"/>
   </g>
   <g id="patch_3">
    <path d="M 112.5 324 
L 112.5 36 
" style="fill:none;stroke:#000000;stroke-linecap:square;stroke-linejoin:miter;"/>
   </g>
   <g id="patch_4">
    <path d="M 635.625 324 
L 635.625 36 
" style="fill:none;stroke:#000000;stroke-linecap:square;stroke-linejoin:miter;"/>
   </g>
   <g id="patch_5">
    <path d="M 112.5 324 
L 635.625 324 
" style="fill:none;stroke:#000000;stroke-linecap:square;stroke-linejoin:miter;"/>
   </g>
   <g id="patch_6">
    <path d="M 112.5 36 
L 635.625 36 
" style="fill:none;stroke:#000000;stroke-linecap:square;stroke-linejoin:miter;"/>
   </g>
   <g id="matplotlib.axis_1">
    <g id="xtick_1">
     <g id="line2d_5">
      <defs>
       <path d="M 0 0 
L 0 -4 
" id="m11db20cdb8" style="stroke:#000000;stroke-width:0.5;"/>
      </defs>
      <g>
       <use style="stroke:#000000;stroke-width:0.5;" x="112.852986" xlink:href="#m11db20cdb8" y="324"/>
      </g>
     </g>
     <g id="line2d_6">
      <defs>
       <path d="M 0 0 
L 0 4 
" id="m9e89f71346" style="stroke:#000000;stroke-width:0.5;"/>
      </defs>
      <g>
       <use style="stroke:#000000;stroke-width:0.5;" x="112.852986" xlink:href="#m9e89f71346" y="36"/>
      </g>
     </g>
     <g id="text_1">
      <!-- 0 -->
      <defs>
       <path d="M 31.78125 66.40625 
Q 24.171875 66.40625 20.328125 58.90625 
Q 16.5 51.421875 16.5 36.375 
Q 16.5 21.390625 20.328125 13.890625 
Q 24.171875 6.390625 31.78125 6.390625 
Q 39.453125 6.390625 43.28125 13.890625 
Q 47.125 21.390625 47.125 36.375 
Q 47.125 51.421875 43.28125 58.90625 
Q 39.453125 66.40625 31.78125 66.40625 
z
M 31.78125 74.21875 
Q 44.046875 74.21875 50.515625 64.515625 
Q 56.984375 54.828125 56.984375 36.375 
Q 56.984375 17.96875 50.515625 8.265625 
Q 44.046875 -1.421875 31.78125 -1.421875 
Q 19.53125 -1.421875 13.0625 8.265625 
Q 6.59375 17.96875 6.59375 36.375 
Q 6.59375 54.828125 13.0625 64.515625 
Q 19.53125 74.21875 31.78125 74.21875 
z
" id="DejaVuSans-48"/>
      </defs>
      <g transform="translate(109.035486 337.118125)scale(0.12 -0.12)">
       <use xlink:href="#DejaVuSans-48"/>
      </g>
     </g>
    </g>
    <g id="xtick_2">
     <g id="line2d_7">
      <g>
       <use style="stroke:#000000;stroke-width:0.5;" x="165.80086" xlink:href="#m11db20cdb8" y="324"/>
      </g>
     </g>
     <g id="line2d_8">
      <g>
       <use style="stroke:#000000;stroke-width:0.5;" x="165.80086" xlink:href="#m9e89f71346" y="36"/>
      </g>
     </g>
     <g id="text_2">
      <!-- 15 -->
      <defs>
       <path d="M 12.40625 8.296875 
L 28.515625 8.296875 
L 28.515625 63.921875 
L 10.984375 60.40625 
L 10.984375 69.390625 
L 28.421875 72.90625 
L 38.28125 72.90625 
L 38.28125 8.296875 
L 54.390625 8.296875 
L 54.390625 0 
L 12.40625 0 
z
" id="DejaVuSans-49"/>
       <path d="M 10.796875 72.90625 
L 49.515625 72.90625 
L 49.515625 64.59375 
L 19.828125 64.59375 
L 19.828125 46.734375 
Q 21.96875 47.46875 24.109375 47.828125 
Q 26.265625 48.1875 28.421875 48.1875 
Q 40.625 48.1875 47.75 41.5 
Q 54.890625 34.8125 54.890625 23.390625 
Q 54.890625 11.625 47.5625 5.09375 
Q 40.234375 -1.421875 26.90625 -1.421875 
Q 22.3125 -1.421875 17.546875 -0.640625 
Q 12.796875 0.140625 7.71875 1.703125 
L 7.71875 11.625 
Q 12.109375 9.234375 16.796875 8.0625 
Q 21.484375 6.890625 26.703125 6.890625 
Q 35.15625 6.890625 40.078125 11.328125 
Q 45.015625 15.765625 45.015625 23.390625 
Q 45.015625 31 40.078125 35.4375 
Q 35.15625 39.890625 26.703125 39.890625 
Q 22.75 39.890625 18.8125 39.015625 
Q 14.890625 38.140625 10.796875 36.28125 
z
" id="DejaVuSans-53"/>
      </defs>
      <g transform="translate(158.16586 337.118125)scale(0.12 -0.12)">
       <use xlink:href="#DejaVuSans-49"/>
       <use x="63.623047" xlink:href="#DejaVuSans-53"/>
      </g>
     </g>
    </g>
    <g id="xtick_3">
     <g id="line2d_9">
      <g>
       <use style="stroke:#000000;stroke-width:0.5;" x="218.748735" xlink:href="#m11db20cdb8" y="324"/>
      </g>
     </g>
     <g id="line2d_10">
      <g>
       <use style="stroke:#000000;stroke-width:0.5;" x="218.748735" xlink:href="#m9e89f71346" y="36"/>
      </g>
     </g>
     <g id="text_3">
      <!-- 30 -->
      <defs>
       <path d="M 40.578125 39.3125 
Q 47.65625 37.796875 51.625 33 
Q 55.609375 28.21875 55.609375 21.1875 
Q 55.609375 10.40625 48.1875 4.484375 
Q 40.765625 -1.421875 27.09375 -1.421875 
Q 22.515625 -1.421875 17.65625 -0.515625 
Q 12.796875 0.390625 7.625 2.203125 
L 7.625 11.71875 
Q 11.71875 9.328125 16.59375 8.109375 
Q 21.484375 6.890625 26.8125 6.890625 
Q 36.078125 6.890625 40.9375 10.546875 
Q 45.796875 14.203125 45.796875 21.1875 
Q 45.796875 27.640625 41.28125 31.265625 
Q 36.765625 34.90625 28.71875 34.90625 
L 20.21875 34.90625 
L 20.21875 43.015625 
L 29.109375 43.015625 
Q 36.375 43.015625 40.234375 45.921875 
Q 44.09375 48.828125 44.09375 54.296875 
Q 44.09375 59.90625 40.109375 62.90625 
Q 36.140625 65.921875 28.71875 65.921875 
Q 24.65625 65.921875 20.015625 65.03125 
Q 15.375 64.15625 9.8125 62.3125 
L 9.8125 71.09375 
Q 15.4375 72.65625 20.34375 73.4375 
Q 25.25 74.21875 29.59375 74.21875 
Q 40.828125 74.21875 47.359375 69.109375 
Q 53.90625 64.015625 53.90625 55.328125 
Q 53.90625 49.265625 50.4375 45.09375 
Q 46.96875 40.921875 40.578125 39.3125 
z
" id="DejaVuSans-51"/>
      </defs>
      <g transform="translate(211.113735 337.118125)scale(0.12 -0.12)">
       <use xlink:href="#DejaVuSans-51"/>
       <use x="63.623047" xlink:href="#DejaVuSans-48"/>
      </g>
     </g>
    </g>
    <g id="xtick_4">
     <g id="line2d_11">
      <g>
       <use style="stroke:#000000;stroke-width:0.5;" x="271.696609" xlink:href="#m11db20cdb8" y="324"/>
      </g>
     </g>
     <g id="line2d_12">
      <g>
       <use style="stroke:#000000;stroke-width:0.5;" x="271.696609" xlink:href="#m9e89f71346" y="36"/>
      </g>
     </g>
     <g id="text_4">
      <!-- 45 -->
      <defs>
       <path d="M 37.796875 64.3125 
L 12.890625 25.390625 
L 37.796875 25.390625 
z
M 35.203125 72.90625 
L 47.609375 72.90625 
L 47.609375 25.390625 
L 58.015625 25.390625 
L 58.015625 17.1875 
L 47.609375 17.1875 
L 47.609375 0 
L 37.796875 0 
L 37.796875 17.1875 
L 4.890625 17.1875 
L 4.890625 26.703125 
z
" id="DejaVuSans-52"/>
      </defs>
      <g transform="translate(264.061609 337.118125)scale(0.12 -0.12)">
       <use xlink:href="#DejaVuSans-52"/>
       <use x="63.623047" xlink:href="#DejaVuSans-53"/>
      </g>
     </g>
    </g>
    <g id="xtick_5">
     <g id="line2d_13">
      <g>
       <use style="stroke:#000000;stroke-width:0.5;" x="324.644484" xlink:href="#m11db20cdb8" y="324"/>
      </g>
     </g>
     <g id="line2d_14">
      <g>
       <use style="stroke:#000000;stroke-width:0.5;" x="324.644484" xlink:href="#m9e89f71346" y="36"/>
      </g>
     </g>
     <g id="text_5">
      <!-- 60 -->
      <defs>
       <path d="M 33.015625 40.375 
Q 26.375 40.375 22.484375 35.828125 
Q 18.609375 31.296875 18.609375 23.390625 
Q 18.609375 15.53125 22.484375 10.953125 
Q 26.375 6.390625 33.015625 6.390625 
Q 39.65625 6.390625 43.53125 10.953125 
Q 47.40625 15.53125 47.40625 23.390625 
Q 47.40625 31.296875 43.53125 35.828125 
Q 39.65625 40.375 33.015625 40.375 
z
M 52.59375 71.296875 
L 52.59375 62.3125 
Q 48.875 64.0625 45.09375 64.984375 
Q 41.3125 65.921875 37.59375 65.921875 
Q 27.828125 65.921875 22.671875 59.328125 
Q 17.53125 52.734375 16.796875 39.40625 
Q 19.671875 43.65625 24.015625 45.921875 
Q 28.375 48.1875 33.59375 48.1875 
Q 44.578125 48.1875 50.953125 41.515625 
Q 57.328125 34.859375 57.328125 23.390625 
Q 57.328125 12.15625 50.6875 5.359375 
Q 44.046875 -1.421875 33.015625 -1.421875 
Q 20.359375 -1.421875 13.671875 8.265625 
Q 6.984375 17.96875 6.984375 36.375 
Q 6.984375 53.65625 15.1875 63.9375 
Q 23.390625 74.21875 37.203125 74.21875 
Q 40.921875 74.21875 44.703125 73.484375 
Q 48.484375 72.75 52.59375 71.296875 
z
" id="DejaVuSans-54"/>
      </defs>
      <g transform="translate(317.009484 337.118125)scale(0.12 -0.12)">
       <use xlink:href="#DejaVuSans-54"/>
       <use x="63.623047" xlink:href="#DejaVuSans-48"/>
      </g>
     </g>
    </g>
    <g id="xtick_6">
     <g id="line2d_15">
      <g>
       <use style="stroke:#000000;stroke-width:0.5;" x="377.592358" xlink:href="#m11db20cdb8" y="324"/>
      </g>
     </g>
     <g id="line2d_16">
      <g>
       <use style="stroke:#000000;stroke-width:0.5;" x="377.592358" xlink:href="#m9e89f71346" y="36"/>
      </g>
     </g>
     <g id="text_6">
      <!-- 75 -->
      <defs>
       <path d="M 8.203125 72.90625 
L 55.078125 72.90625 
L 55.078125 68.703125 
L 28.609375 0 
L 18.3125 0 
L 43.21875 64.59375 
L 8.203125 64.59375 
z
" id="DejaVuSans-55"/>
      </defs>
      <g transform="translate(369.957358 337.118125)scale(0.12 -0.12)">
       <use xlink:href="#DejaVuSans-55"/>
       <use x="63.623047" xlink:href="#DejaVuSans-53"/>
      </g>
     </g>
    </g>
    <g id="xtick_7">
     <g id="line2d_17">
      <g>
       <use style="stroke:#000000;stroke-width:0.5;" x="430.540233" xlink:href="#m11db20cdb8" y="324"/>
      </g>
     </g>
     <g id="line2d_18">
      <g>
       <use style="stroke:#000000;stroke-width:0.5;" x="430.540233" xlink:href="#m9e89f71346" y="36"/>
      </g>
     </g>
     <g id="text_7">
      <!-- 90 -->
      <defs>
       <path d="M 10.984375 1.515625 
L 10.984375 10.5 
Q 14.703125 8.734375 18.5 7.8125 
Q 22.3125 6.890625 25.984375 6.890625 
Q 35.75 6.890625 40.890625 13.453125 
Q 46.046875 20.015625 46.78125 33.40625 
Q 43.953125 29.203125 39.59375 26.953125 
Q 35.25 24.703125 29.984375 24.703125 
Q 19.046875 24.703125 12.671875 31.3125 
Q 6.296875 37.9375 6.296875 49.421875 
Q 6.296875 60.640625 12.9375 67.421875 
Q 19.578125 74.21875 30.609375 74.21875 
Q 43.265625 74.21875 49.921875 64.515625 
Q 56.59375 54.828125 56.59375 36.375 
Q 56.59375 19.140625 48.40625 8.859375 
Q 40.234375 -1.421875 26.421875 -1.421875 
Q 22.703125 -1.421875 18.890625 -0.6875 
Q 15.09375 0.046875 10.984375 1.515625 
z
M 30.609375 32.421875 
Q 37.25 32.421875 41.125 36.953125 
Q 45.015625 41.5 45.015625 49.421875 
Q 45.015625 57.28125 41.125 61.84375 
Q 37.25 66.40625 30.609375 66.40625 
Q 23.96875 66.40625 20.09375 61.84375 
Q 16.21875 57.28125 16.21875 49.421875 
Q 16.21875 41.5 20.09375 36.953125 
Q 23.96875 32.421875 30.609375 32.421875 
z
" id="DejaVuSans-57"/>
      </defs>
      <g transform="translate(422.905233 337.118125)scale(0.12 -0.12)">
       <use xlink:href="#DejaVuSans-57"/>
       <use x="63.623047" xlink:href="#DejaVuSans-48"/>
      </g>
     </g>
    </g>
    <g id="xtick_8">
     <g id="line2d_19">
      <g>
       <use style="stroke:#000000;stroke-width:0.5;" x="483.488107" xlink:href="#m11db20cdb8" y="324"/>
      </g>
     </g>
     <g id="line2d_20">
      <g>
       <use style="stroke:#000000;stroke-width:0.5;" x="483.488107" xlink:href="#m9e89f71346" y="36"/>
      </g>
     </g>
     <g id="text_8">
      <!-- 105 -->
      <g transform="translate(472.035607 337.118125)scale(0.12 -0.12)">
       <use xlink:href="#DejaVuSans-49"/>
       <use x="63.623047" xlink:href="#DejaVuSans-48"/>
       <use x="127.246094" xlink:href="#DejaVuSans-53"/>
      </g>
     </g>
    </g>
    <g id="xtick_9">
     <g id="line2d_21">
      <g>
       <use style="stroke:#000000;stroke-width:0.5;" x="536.435982" xlink:href="#m11db20cdb8" y="324"/>
      </g>
     </g>
     <g id="line2d_22">
      <g>
       <use style="stroke:#000000;stroke-width:0.5;" x="536.435982" xlink:href="#m9e89f71346" y="36"/>
      </g>
     </g>
     <g id="text_9">
      <!-- 120 -->
      <defs>
       <path d="M 19.1875 8.296875 
L 53.609375 8.296875 
L 53.609375 0 
L 7.328125 0 
L 7.328125 8.296875 
Q 12.9375 14.109375 22.625 23.890625 
Q 32.328125 33.6875 34.8125 36.53125 
Q 39.546875 41.84375 41.421875 45.53125 
Q 43.3125 49.21875 43.3125 52.78125 
Q 43.3125 58.59375 39.234375 62.25 
Q 35.15625 65.921875 28.609375 65.921875 
Q 23.96875 65.921875 18.8125 64.3125 
Q 13.671875 62.703125 7.8125 59.421875 
L 7.8125 69.390625 
Q 13.765625 71.78125 18.9375 73 
Q 24.125 74.21875 28.421875 74.21875 
Q 39.75 74.21875 46.484375 68.546875 
Q 53.21875 62.890625 53.21875 53.421875 
Q 53.21875 48.921875 51.53125 44.890625 
Q 49.859375 40.875 45.40625 35.40625 
Q 44.1875 33.984375 37.640625 27.21875 
Q 31.109375 20.453125 19.1875 8.296875 
z
" id="DejaVuSans-50"/>
      </defs>
      <g transform="translate(524.983482 337.118125)scale(0.12 -0.12)">
       <use xlink:href="#DejaVuSans-49"/>
       <use x="63.623047" xlink:href="#DejaVuSans-50"/>
       <use x="127.246094" xlink:href="#DejaVuSans-48"/>
      </g>
     </g>
    </g>
    <g id="xtick_10">
     <g id="line2d_23">
      <g>
       <use style="stroke:#000000;stroke-width:0.5;" x="589.383856" xlink:href="#m11db20cdb8" y="324"/>
      </g>
     </g>
     <g id="line2d_24">
      <g>
       <use style="stroke:#000000;stroke-width:0.5;" x="589.383856" xlink:href="#m9e89f71346" y="36"/>
      </g>
     </g>
     <g id="text_10">
      <!-- 135 -->
      <g transform="translate(577.931356 337.118125)scale(0.12 -0.12)">
       <use xlink:href="#DejaVuSans-49"/>
       <use x="63.623047" xlink:href="#DejaVuSans-51"/>
       <use x="127.246094" xlink:href="#DejaVuSans-53"/>
      </g>
     </g>
    </g>
    <g id="text_11">
     <!-- generation -->
     <defs>
      <path d="M 45.40625 27.984375 
Q 45.40625 37.75 41.375 43.109375 
Q 37.359375 48.484375 30.078125 48.484375 
Q 22.859375 48.484375 18.828125 43.109375 
Q 14.796875 37.75 14.796875 27.984375 
Q 14.796875 18.265625 18.828125 12.890625 
Q 22.859375 7.515625 30.078125 7.515625 
Q 37.359375 7.515625 41.375 12.890625 
Q 45.40625 18.265625 45.40625 27.984375 
z
M 54.390625 6.78125 
Q 54.390625 -7.171875 48.1875 -13.984375 
Q 42 -20.796875 29.203125 -20.796875 
Q 24.46875 -20.796875 20.265625 -20.09375 
Q 16.0625 -19.390625 12.109375 -17.921875 
L 12.109375 -9.1875 
Q 16.0625 -11.328125 19.921875 -12.34375 
Q 23.78125 -13.375 27.78125 -13.375 
Q 36.625 -13.375 41.015625 -8.765625 
Q 45.40625 -4.15625 45.40625 5.171875 
L 45.40625 9.625 
Q 42.625 4.78125 38.28125 2.390625 
Q 33.9375 0 27.875 0 
Q 17.828125 0 11.671875 7.65625 
Q 5.515625 15.328125 5.515625 27.984375 
Q 5.515625 40.671875 11.671875 48.328125 
Q 17.828125 56 27.875 56 
Q 33.9375 56 38.28125 53.609375 
Q 42.625 51.21875 45.40625 46.390625 
L 45.40625 54.6875 
L 54.390625 54.6875 
z
" id="DejaVuSans-103"/>
      <path d="M 56.203125 29.59375 
L 56.203125 25.203125 
L 14.890625 25.203125 
Q 15.484375 15.921875 20.484375 11.0625 
Q 25.484375 6.203125 34.421875 6.203125 
Q 39.59375 6.203125 44.453125 7.46875 
Q 49.3125 8.734375 54.109375 11.28125 
L 54.109375 2.78125 
Q 49.265625 0.734375 44.1875 -0.34375 
Q 39.109375 -1.421875 33.890625 -1.421875 
Q 20.796875 -1.421875 13.15625 6.1875 
Q 5.515625 13.8125 5.515625 26.8125 
Q 5.515625 40.234375 12.765625 48.109375 
Q 20.015625 56 32.328125 56 
Q 43.359375 56 49.78125 48.890625 
Q 56.203125 41.796875 56.203125 29.59375 
z
M 47.21875 32.234375 
Q 47.125 39.59375 43.09375 43.984375 
Q 39.0625 48.390625 32.421875 48.390625 
Q 24.90625 48.390625 20.390625 44.140625 
Q 15.875 39.890625 15.1875 32.171875 
z
" id="DejaVuSans-101"/>
      <path d="M 54.890625 33.015625 
L 54.890625 0 
L 45.90625 0 
L 45.90625 32.71875 
Q 45.90625 40.484375 42.875 44.328125 
Q 39.84375 48.1875 33.796875 48.1875 
Q 26.515625 48.1875 22.3125 43.546875 
Q 18.109375 38.921875 18.109375 30.90625 
L 18.109375 0 
L 9.078125 0 
L 9.078125 54.6875 
L 18.109375 54.6875 
L 18.109375 46.1875 
Q 21.34375 51.125 25.703125 53.5625 
Q 30.078125 56 35.796875 56 
Q 45.21875 56 50.046875 50.171875 
Q 54.890625 44.34375 54.890625 33.015625 
z
" id="DejaVuSans-110"/>
      <path d="M 41.109375 46.296875 
Q 39.59375 47.171875 37.8125 47.578125 
Q 36.03125 48 33.890625 48 
Q 26.265625 48 22.1875 43.046875 
Q 18.109375 38.09375 18.109375 28.8125 
L 18.109375 0 
L 9.078125 0 
L 9.078125 54.6875 
L 18.109375 54.6875 
L 18.109375 46.1875 
Q 20.953125 51.171875 25.484375 53.578125 
Q 30.03125 56 36.53125 56 
Q 37.453125 56 38.578125 55.875 
Q 39.703125 55.765625 41.0625 55.515625 
z
" id="DejaVuSans-114"/>
      <path d="M 34.28125 27.484375 
Q 23.390625 27.484375 19.1875 25 
Q 14.984375 22.515625 14.984375 16.5 
Q 14.984375 11.71875 18.140625 8.90625 
Q 21.296875 6.109375 26.703125 6.109375 
Q 34.1875 6.109375 38.703125 11.40625 
Q 43.21875 16.703125 43.21875 25.484375 
L 43.21875 27.484375 
z
M 52.203125 31.203125 
L 52.203125 0 
L 43.21875 0 
L 43.21875 8.296875 
Q 40.140625 3.328125 35.546875 0.953125 
Q 30.953125 -1.421875 24.3125 -1.421875 
Q 15.921875 -1.421875 10.953125 3.296875 
Q 6 8.015625 6 15.921875 
Q 6 25.140625 12.171875 29.828125 
Q 18.359375 34.515625 30.609375 34.515625 
L 43.21875 34.515625 
L 43.21875 35.40625 
Q 43.21875 41.609375 39.140625 45 
Q 35.0625 48.390625 27.6875 48.390625 
Q 23 48.390625 18.546875 47.265625 
Q 14.109375 46.140625 10.015625 43.890625 
L 10.015625 52.203125 
Q 14.9375 54.109375 19.578125 55.046875 
Q 24.21875 56 28.609375 56 
Q 40.484375 56 46.34375 49.84375 
Q 52.203125 43.703125 52.203125 31.203125 
z
" id="DejaVuSans-97"/>
      <path d="M 18.3125 70.21875 
L 18.3125 54.6875 
L 36.8125 54.6875 
L 36.8125 47.703125 
L 18.3125 47.703125 
L 18.3125 18.015625 
Q 18.3125 11.328125 20.140625 9.421875 
Q 21.96875 7.515625 27.59375 7.515625 
L 36.8125 7.515625 
L 36.8125 0 
L 27.59375 0 
Q 17.1875 0 13.234375 3.875 
Q 9.28125 7.765625 9.28125 18.015625 
L 9.28125 47.703125 
L 2.6875 47.703125 
L 2.6875 54.6875 
L 9.28125 54.6875 
L 9.28125 70.21875 
z
" id="DejaVuSans-116"/>
      <path d="M 9.421875 54.6875 
L 18.40625 54.6875 
L 18.40625 0 
L 9.421875 0 
z
M 9.421875 75.984375 
L 18.40625 75.984375 
L 18.40625 64.59375 
L 9.421875 64.59375 
z
" id="DejaVuSans-105"/>
      <path d="M 30.609375 48.390625 
Q 23.390625 48.390625 19.1875 42.75 
Q 14.984375 37.109375 14.984375 27.296875 
Q 14.984375 17.484375 19.15625 11.84375 
Q 23.34375 6.203125 30.609375 6.203125 
Q 37.796875 6.203125 41.984375 11.859375 
Q 46.1875 17.53125 46.1875 27.296875 
Q 46.1875 37.015625 41.984375 42.703125 
Q 37.796875 48.390625 30.609375 48.390625 
z
M 30.609375 56 
Q 42.328125 56 49.015625 48.375 
Q 55.71875 40.765625 55.71875 27.296875 
Q 55.71875 13.875 49.015625 6.21875 
Q 42.328125 -1.421875 30.609375 -1.421875 
Q 18.84375 -1.421875 12.171875 6.21875 
Q 5.515625 13.875 5.515625 27.296875 
Q 5.515625 40.765625 12.171875 48.375 
Q 18.84375 56 30.609375 56 
z
" id="DejaVuSans-111"/>
     </defs>
     <g transform="translate(341.430938 353.731875)scale(0.12 -0.12)">
      <use xlink:href="#DejaVuSans-103"/>
      <use x="63.476562" xlink:href="#DejaVuSans-101"/>
      <use x="125" xlink:href="#DejaVuSans-110"/>
      <use x="188.378906" xlink:href="#DejaVuSans-101"/>
      <use x="249.902344" xlink:href="#DejaVuSans-114"/>
      <use x="291.015625" xlink:href="#DejaVuSans-97"/>
      <use x="352.294922" xlink:href="#DejaVuSans-116"/>
      <use x="391.503906" xlink:href="#DejaVuSans-105"/>
      <use x="419.287109" xlink:href="#DejaVuSans-111"/>
      <use x="480.46875" xlink:href="#DejaVuSans-110"/>
     </g>
    </g>
   </g>
   <g id="matplotlib.axis_2">
    <g id="ytick_1">
     <g id="line2d_25">
      <defs>
       <path d="M 0 0 
L 4 0 
" id="m468de3d83a" style="stroke:#000000;stroke-width:0.5;"/>
      </defs>
      <g>
       <use style="stroke:#000000;stroke-width:0.5;" x="112.5" xlink:href="#m468de3d83a" y="324"/>
      </g>
     </g>
     <g id="line2d_26">
      <defs>
       <path d="M 0 0 
L -4 0 
" id="m1e41ff8047" style="stroke:#000000;stroke-width:0.5;"/>
      </defs>
      <g>
       <use style="stroke:#000000;stroke-width:0.5;" x="635.625" xlink:href="#m1e41ff8047" y="324"/>
      </g>
     </g>
     <g id="text_12">
      <!-- 0.15 -->
      <defs>
       <path d="M 10.6875 12.40625 
L 21 12.40625 
L 21 0 
L 10.6875 0 
z
" id="DejaVuSans-46"/>
      </defs>
      <g transform="translate(81.78125 327.31125)scale(0.12 -0.12)">
       <use xlink:href="#DejaVuSans-48"/>
       <use x="63.623047" xlink:href="#DejaVuSans-46"/>
       <use x="95.410156" xlink:href="#DejaVuSans-49"/>
       <use x="159.033203" xlink:href="#DejaVuSans-53"/>
      </g>
     </g>
    </g>
    <g id="ytick_2">
     <g id="line2d_27">
      <g>
       <use style="stroke:#000000;stroke-width:0.5;" x="112.5" xlink:href="#m468de3d83a" y="252"/>
      </g>
     </g>
     <g id="line2d_28">
      <g>
       <use style="stroke:#000000;stroke-width:0.5;" x="635.625" xlink:href="#m1e41ff8047" y="252"/>
      </g>
     </g>
     <g id="text_13">
      <!-- 0.20 -->
      <g transform="translate(81.78125 255.31125)scale(0.12 -0.12)">
       <use xlink:href="#DejaVuSans-48"/>
       <use x="63.623047" xlink:href="#DejaVuSans-46"/>
       <use x="95.410156" xlink:href="#DejaVuSans-50"/>
       <use x="159.033203" xlink:href="#DejaVuSans-48"/>
      </g>
     </g>
    </g>
    <g id="ytick_3">
     <g id="line2d_29">
      <g>
       <use style="stroke:#000000;stroke-width:0.5;" x="112.5" xlink:href="#m468de3d83a" y="180"/>
      </g>
     </g>
     <g id="line2d_30">
      <g>
       <use style="stroke:#000000;stroke-width:0.5;" x="635.625" xlink:href="#m1e41ff8047" y="180"/>
      </g>
     </g>
     <g id="text_14">
      <!-- 0.25 -->
      <g transform="translate(81.78125 183.31125)scale(0.12 -0.12)">
       <use xlink:href="#DejaVuSans-48"/>
       <use x="63.623047" xlink:href="#DejaVuSans-46"/>
       <use x="95.410156" xlink:href="#DejaVuSans-50"/>
       <use x="159.033203" xlink:href="#DejaVuSans-53"/>
      </g>
     </g>
    </g>
    <g id="ytick_4">
     <g id="line2d_31">
      <g>
       <use style="stroke:#000000;stroke-width:0.5;" x="112.5" xlink:href="#m468de3d83a" y="108"/>
      </g>
     </g>
     <g id="line2d_32">
      <g>
       <use style="stroke:#000000;stroke-width:0.5;" x="635.625" xlink:href="#m1e41ff8047" y="108"/>
      </g>
     </g>
     <g id="text_15">
      <!-- 0.30 -->
      <g transform="translate(81.78125 111.31125)scale(0.12 -0.12)">
       <use xlink:href="#DejaVuSans-48"/>
       <use x="63.623047" xlink:href="#DejaVuSans-46"/>
       <use x="95.410156" xlink:href="#DejaVuSans-51"/>
       <use x="159.033203" xlink:href="#DejaVuSans-48"/>
      </g>
     </g>
    </g>
    <g id="ytick_5">
     <g id="line2d_33">
      <g>
       <use style="stroke:#000000;stroke-width:0.5;" x="112.5" xlink:href="#m468de3d83a" y="36"/>
      </g>
     </g>
     <g id="line2d_34">
      <g>
       <use style="stroke:#000000;stroke-width:0.5;" x="635.625" xlink:href="#m1e41ff8047" y="36"/>
      </g>
     </g>
     <g id="text_16">
      <!-- 0.35 -->
      <g transform="translate(81.78125 39.31125)scale(0.12 -0.12)">
       <use xlink:href="#DejaVuSans-48"/>
       <use x="63.623047" xlink:href="#DejaVuSans-46"/>
       <use x="95.410156" xlink:href="#DejaVuSans-51"/>
       <use x="159.033203" xlink:href="#DejaVuSans-53"/>
      </g>
     </g>
    </g>
    <g id="text_17">
     <!-- los -->
     <defs>
      <path d="M 9.421875 75.984375 
L 18.40625 75.984375 
L 18.40625 0 
L 9.421875 0 
z
" id="DejaVuSans-108"/>
      <path d="M 44.28125 53.078125 
L 44.28125 44.578125 
Q 40.484375 46.53125 36.375 47.5 
Q 32.28125 48.484375 27.875 48.484375 
Q 21.1875 48.484375 17.84375 46.4375 
Q 14.5 44.390625 14.5 40.28125 
Q 14.5 37.15625 16.890625 35.375 
Q 19.28125 33.59375 26.515625 31.984375 
L 29.59375 31.296875 
Q 39.15625 29.25 43.1875 25.515625 
Q 47.21875 21.78125 47.21875 15.09375 
Q 47.21875 7.46875 41.1875 3.015625 
Q 35.15625 -1.421875 24.609375 -1.421875 
Q 20.21875 -1.421875 15.453125 -0.5625 
Q 10.6875 0.296875 5.421875 2 
L 5.421875 11.28125 
Q 10.40625 8.6875 15.234375 7.390625 
Q 20.0625 6.109375 24.8125 6.109375 
Q 31.15625 6.109375 34.5625 8.28125 
Q 37.984375 10.453125 37.984375 14.40625 
Q 37.984375 18.0625 35.515625 20.015625 
Q 33.0625 21.96875 24.703125 23.78125 
L 21.578125 24.515625 
Q 13.234375 26.265625 9.515625 29.90625 
Q 5.8125 33.546875 5.8125 39.890625 
Q 5.8125 47.609375 11.28125 51.796875 
Q 16.75 56 26.8125 56 
Q 31.78125 56 36.171875 55.265625 
Q 40.578125 54.546875 44.28125 53.078125 
z
" id="DejaVuSans-115"/>
     </defs>
     <g transform="translate(74.285625 188.46375)rotate(-90)scale(0.12 -0.12)">
      <use xlink:href="#DejaVuSans-108"/>
      <use x="27.783203" xlink:href="#DejaVuSans-111"/>
      <use x="88.964844" xlink:href="#DejaVuSans-115"/>
     </g>
    </g>
   </g>
   <g id="legend_1">
    <g id="patch_7">
     <path d="M 640.623 211.260928 
L 856.794309 211.260928 
L 856.794309 148.739072 
L 640.623 148.739072 
z
" style="fill:#ffffff;stroke:#000000;stroke-linejoin:miter;"/>
    </g>
    <g id="line2d_35">
     <path d="M 647.6202 156.83427 
L 661.6146 156.83427 
" style="fill:none;stroke:#0000ff;stroke-linecap:square;stroke-width:1.2;"/>
    </g>
    <g id="line2d_36"/>
    <g id="text_18">
     <!-- Crossover -->
     <defs>
      <path d="M 64.40625 67.28125 
L 64.40625 56.890625 
Q 59.421875 61.53125 53.78125 63.8125 
Q 48.140625 66.109375 41.796875 66.109375 
Q 29.296875 66.109375 22.65625 58.46875 
Q 16.015625 50.828125 16.015625 36.375 
Q 16.015625 21.96875 22.65625 14.328125 
Q 29.296875 6.6875 41.796875 6.6875 
Q 48.140625 6.6875 53.78125 8.984375 
Q 59.421875 11.28125 64.40625 15.921875 
L 64.40625 5.609375 
Q 59.234375 2.09375 53.4375 0.328125 
Q 47.65625 -1.421875 41.21875 -1.421875 
Q 24.65625 -1.421875 15.125 8.703125 
Q 5.609375 18.84375 5.609375 36.375 
Q 5.609375 53.953125 15.125 64.078125 
Q 24.65625 74.21875 41.21875 74.21875 
Q 47.75 74.21875 53.53125 72.484375 
Q 59.328125 70.75 64.40625 67.28125 
z
" id="DejaVuSans-67"/>
      <path d="M 2.984375 54.6875 
L 12.5 54.6875 
L 29.59375 8.796875 
L 46.6875 54.6875 
L 56.203125 54.6875 
L 35.6875 0 
L 23.484375 0 
z
" id="DejaVuSans-118"/>
     </defs>
     <g transform="translate(672.6102 160.33287)scale(0.09996 -0.09996)">
      <use xlink:href="#DejaVuSans-67"/>
      <use x="69.824219" xlink:href="#DejaVuSans-114"/>
      <use x="108.6875" xlink:href="#DejaVuSans-111"/>
      <use x="169.869141" xlink:href="#DejaVuSans-115"/>
      <use x="221.96875" xlink:href="#DejaVuSans-115"/>
      <use x="274.068359" xlink:href="#DejaVuSans-111"/>
      <use x="335.25" xlink:href="#DejaVuSans-118"/>
      <use x="394.429688" xlink:href="#DejaVuSans-101"/>
      <use x="455.953125" xlink:href="#DejaVuSans-114"/>
     </g>
    </g>
    <g id="line2d_37">
     <path d="M 647.6202 171.506524 
L 661.6146 171.506524 
" style="fill:none;stroke:#008000;stroke-linecap:square;stroke-width:1.2;"/>
    </g>
    <g id="line2d_38"/>
    <g id="text_19">
     <!-- Crossover_Min_Layers -->
     <defs>
      <path d="M 50.984375 -16.609375 
L 50.984375 -23.578125 
L -0.984375 -23.578125 
L -0.984375 -16.609375 
z
" id="DejaVuSans-95"/>
      <path d="M 9.8125 72.90625 
L 24.515625 72.90625 
L 43.109375 23.296875 
L 61.8125 72.90625 
L 76.515625 72.90625 
L 76.515625 0 
L 66.890625 0 
L 66.890625 64.015625 
L 48.09375 14.015625 
L 38.1875 14.015625 
L 19.390625 64.015625 
L 19.390625 0 
L 9.8125 0 
z
" id="DejaVuSans-77"/>
      <path d="M 9.8125 72.90625 
L 19.671875 72.90625 
L 19.671875 8.296875 
L 55.171875 8.296875 
L 55.171875 0 
L 9.8125 0 
z
" id="DejaVuSans-76"/>
      <path d="M 32.171875 -5.078125 
Q 28.375 -14.84375 24.75 -17.8125 
Q 21.140625 -20.796875 15.09375 -20.796875 
L 7.90625 -20.796875 
L 7.90625 -13.28125 
L 13.1875 -13.28125 
Q 16.890625 -13.28125 18.9375 -11.515625 
Q 21 -9.765625 23.484375 -3.21875 
L 25.09375 0.875 
L 2.984375 54.6875 
L 12.5 54.6875 
L 29.59375 11.921875 
L 46.6875 54.6875 
L 56.203125 54.6875 
z
" id="DejaVuSans-121"/>
     </defs>
     <g transform="translate(672.6102 175.005124)scale(0.09996 -0.09996)">
      <use xlink:href="#DejaVuSans-67"/>
      <use x="69.824219" xlink:href="#DejaVuSans-114"/>
      <use x="108.6875" xlink:href="#DejaVuSans-111"/>
      <use x="169.869141" xlink:href="#DejaVuSans-115"/>
      <use x="221.96875" xlink:href="#DejaVuSans-115"/>
      <use x="274.068359" xlink:href="#DejaVuSans-111"/>
      <use x="335.25" xlink:href="#DejaVuSans-118"/>
      <use x="394.429688" xlink:href="#DejaVuSans-101"/>
      <use x="455.953125" xlink:href="#DejaVuSans-114"/>
      <use x="497.066406" xlink:href="#DejaVuSans-95"/>
      <use x="547.066406" xlink:href="#DejaVuSans-77"/>
      <use x="633.345703" xlink:href="#DejaVuSans-105"/>
      <use x="661.128906" xlink:href="#DejaVuSans-110"/>
      <use x="724.507812" xlink:href="#DejaVuSans-95"/>
      <use x="774.507812" xlink:href="#DejaVuSans-76"/>
      <use x="830.220703" xlink:href="#DejaVuSans-97"/>
      <use x="891.5" xlink:href="#DejaVuSans-121"/>
      <use x="950.679688" xlink:href="#DejaVuSans-101"/>
      <use x="1012.203125" xlink:href="#DejaVuSans-114"/>
      <use x="1053.316406" xlink:href="#DejaVuSans-115"/>
     </g>
    </g>
    <g id="line2d_39">
     <path d="M 647.6202 186.456791 
L 661.6146 186.456791 
" style="fill:none;stroke:#ff0000;stroke-linecap:square;stroke-width:1.2;"/>
    </g>
    <g id="line2d_40"/>
    <g id="text_20">
     <!-- Crossover_Activation_Optimizer -->
     <defs>
      <path d="M 34.1875 63.1875 
L 20.796875 26.90625 
L 47.609375 26.90625 
z
M 28.609375 72.90625 
L 39.796875 72.90625 
L 67.578125 0 
L 57.328125 0 
L 50.6875 18.703125 
L 17.828125 18.703125 
L 11.1875 0 
L 0.78125 0 
z
" id="DejaVuSans-65"/>
      <path d="M 48.78125 52.59375 
L 48.78125 44.1875 
Q 44.96875 46.296875 41.140625 47.34375 
Q 37.3125 48.390625 33.40625 48.390625 
Q 24.65625 48.390625 19.8125 42.84375 
Q 14.984375 37.3125 14.984375 27.296875 
Q 14.984375 17.28125 19.8125 11.734375 
Q 24.65625 6.203125 33.40625 6.203125 
Q 37.3125 6.203125 41.140625 7.25 
Q 44.96875 8.296875 48.78125 10.40625 
L 48.78125 2.09375 
Q 45.015625 0.34375 40.984375 -0.53125 
Q 36.96875 -1.421875 32.421875 -1.421875 
Q 20.0625 -1.421875 12.78125 6.34375 
Q 5.515625 14.109375 5.515625 27.296875 
Q 5.515625 40.671875 12.859375 48.328125 
Q 20.21875 56 33.015625 56 
Q 37.15625 56 41.109375 55.140625 
Q 45.0625 54.296875 48.78125 52.59375 
z
" id="DejaVuSans-99"/>
      <path d="M 39.40625 66.21875 
Q 28.65625 66.21875 22.328125 58.203125 
Q 16.015625 50.203125 16.015625 36.375 
Q 16.015625 22.609375 22.328125 14.59375 
Q 28.65625 6.59375 39.40625 6.59375 
Q 50.140625 6.59375 56.421875 14.59375 
Q 62.703125 22.609375 62.703125 36.375 
Q 62.703125 50.203125 56.421875 58.203125 
Q 50.140625 66.21875 39.40625 66.21875 
z
M 39.40625 74.21875 
Q 54.734375 74.21875 63.90625 63.9375 
Q 73.09375 53.65625 73.09375 36.375 
Q 73.09375 19.140625 63.90625 8.859375 
Q 54.734375 -1.421875 39.40625 -1.421875 
Q 24.03125 -1.421875 14.8125 8.828125 
Q 5.609375 19.09375 5.609375 36.375 
Q 5.609375 53.65625 14.8125 63.9375 
Q 24.03125 74.21875 39.40625 74.21875 
z
" id="DejaVuSans-79"/>
      <path d="M 18.109375 8.203125 
L 18.109375 -20.796875 
L 9.078125 -20.796875 
L 9.078125 54.6875 
L 18.109375 54.6875 
L 18.109375 46.390625 
Q 20.953125 51.265625 25.265625 53.625 
Q 29.59375 56 35.59375 56 
Q 45.5625 56 51.78125 48.09375 
Q 58.015625 40.1875 58.015625 27.296875 
Q 58.015625 14.40625 51.78125 6.484375 
Q 45.5625 -1.421875 35.59375 -1.421875 
Q 29.59375 -1.421875 25.265625 0.953125 
Q 20.953125 3.328125 18.109375 8.203125 
z
M 48.6875 27.296875 
Q 48.6875 37.203125 44.609375 42.84375 
Q 40.53125 48.484375 33.40625 48.484375 
Q 26.265625 48.484375 22.1875 42.84375 
Q 18.109375 37.203125 18.109375 27.296875 
Q 18.109375 17.390625 22.1875 11.75 
Q 26.265625 6.109375 33.40625 6.109375 
Q 40.53125 6.109375 44.609375 11.75 
Q 48.6875 17.390625 48.6875 27.296875 
z
" id="DejaVuSans-112"/>
      <path d="M 52 44.1875 
Q 55.375 50.25 60.0625 53.125 
Q 64.75 56 71.09375 56 
Q 79.640625 56 84.28125 50.015625 
Q 88.921875 44.046875 88.921875 33.015625 
L 88.921875 0 
L 79.890625 0 
L 79.890625 32.71875 
Q 79.890625 40.578125 77.09375 44.375 
Q 74.3125 48.1875 68.609375 48.1875 
Q 61.625 48.1875 57.5625 43.546875 
Q 53.515625 38.921875 53.515625 30.90625 
L 53.515625 0 
L 44.484375 0 
L 44.484375 32.71875 
Q 44.484375 40.625 41.703125 44.40625 
Q 38.921875 48.1875 33.109375 48.1875 
Q 26.21875 48.1875 22.15625 43.53125 
Q 18.109375 38.875 18.109375 30.90625 
L 18.109375 0 
L 9.078125 0 
L 9.078125 54.6875 
L 18.109375 54.6875 
L 18.109375 46.1875 
Q 21.1875 51.21875 25.484375 53.609375 
Q 29.78125 56 35.6875 56 
Q 41.65625 56 45.828125 52.96875 
Q 50 49.953125 52 44.1875 
z
" id="DejaVuSans-109"/>
      <path d="M 5.515625 54.6875 
L 48.1875 54.6875 
L 48.1875 46.484375 
L 14.40625 7.171875 
L 48.1875 7.171875 
L 48.1875 0 
L 4.296875 0 
L 4.296875 8.203125 
L 38.09375 47.515625 
L 5.515625 47.515625 
z
" id="DejaVuSans-122"/>
     </defs>
     <g transform="translate(672.6102 189.955391)scale(0.09996 -0.09996)">
      <use xlink:href="#DejaVuSans-67"/>
      <use x="69.824219" xlink:href="#DejaVuSans-114"/>
      <use x="108.6875" xlink:href="#DejaVuSans-111"/>
      <use x="169.869141" xlink:href="#DejaVuSans-115"/>
      <use x="221.96875" xlink:href="#DejaVuSans-115"/>
      <use x="274.068359" xlink:href="#DejaVuSans-111"/>
      <use x="335.25" xlink:href="#DejaVuSans-118"/>
      <use x="394.429688" xlink:href="#DejaVuSans-101"/>
      <use x="455.953125" xlink:href="#DejaVuSans-114"/>
      <use x="497.066406" xlink:href="#DejaVuSans-95"/>
      <use x="547.066406" xlink:href="#DejaVuSans-65"/>
      <use x="613.724609" xlink:href="#DejaVuSans-99"/>
      <use x="668.705078" xlink:href="#DejaVuSans-116"/>
      <use x="707.914062" xlink:href="#DejaVuSans-105"/>
      <use x="735.697266" xlink:href="#DejaVuSans-118"/>
      <use x="794.876953" xlink:href="#DejaVuSans-97"/>
      <use x="856.15625" xlink:href="#DejaVuSans-116"/>
      <use x="895.365234" xlink:href="#DejaVuSans-105"/>
      <use x="923.148438" xlink:href="#DejaVuSans-111"/>
      <use x="984.330078" xlink:href="#DejaVuSans-110"/>
      <use x="1047.708984" xlink:href="#DejaVuSans-95"/>
      <use x="1097.708984" xlink:href="#DejaVuSans-79"/>
      <use x="1176.419922" xlink:href="#DejaVuSans-112"/>
      <use x="1239.896484" xlink:href="#DejaVuSans-116"/>
      <use x="1279.105469" xlink:href="#DejaVuSans-105"/>
      <use x="1306.888672" xlink:href="#DejaVuSans-109"/>
      <use x="1404.300781" xlink:href="#DejaVuSans-105"/>
      <use x="1432.083984" xlink:href="#DejaVuSans-122"/>
      <use x="1484.574219" xlink:href="#DejaVuSans-101"/>
      <use x="1546.097656" xlink:href="#DejaVuSans-114"/>
     </g>
    </g>
    <g id="line2d_41">
     <path d="M 647.6202 201.407059 
L 661.6146 201.407059 
" style="fill:none;stroke:#00bfbf;stroke-linecap:square;stroke-width:1.2;"/>
    </g>
    <g id="line2d_42"/>
    <g id="text_21">
     <!-- Crossover_Random_Initial_Layer_No -->
     <defs>
      <path d="M 44.390625 34.1875 
Q 47.5625 33.109375 50.5625 29.59375 
Q 53.5625 26.078125 56.59375 19.921875 
L 66.609375 0 
L 56 0 
L 46.6875 18.703125 
Q 43.0625 26.03125 39.671875 28.421875 
Q 36.28125 30.8125 30.421875 30.8125 
L 19.671875 30.8125 
L 19.671875 0 
L 9.8125 0 
L 9.8125 72.90625 
L 32.078125 72.90625 
Q 44.578125 72.90625 50.734375 67.671875 
Q 56.890625 62.453125 56.890625 51.90625 
Q 56.890625 45.015625 53.6875 40.46875 
Q 50.484375 35.9375 44.390625 34.1875 
z
M 19.671875 64.796875 
L 19.671875 38.921875 
L 32.078125 38.921875 
Q 39.203125 38.921875 42.84375 42.21875 
Q 46.484375 45.515625 46.484375 51.90625 
Q 46.484375 58.296875 42.84375 61.546875 
Q 39.203125 64.796875 32.078125 64.796875 
z
" id="DejaVuSans-82"/>
      <path d="M 45.40625 46.390625 
L 45.40625 75.984375 
L 54.390625 75.984375 
L 54.390625 0 
L 45.40625 0 
L 45.40625 8.203125 
Q 42.578125 3.328125 38.25 0.953125 
Q 33.9375 -1.421875 27.875 -1.421875 
Q 17.96875 -1.421875 11.734375 6.484375 
Q 5.515625 14.40625 5.515625 27.296875 
Q 5.515625 40.1875 11.734375 48.09375 
Q 17.96875 56 27.875 56 
Q 33.9375 56 38.25 53.625 
Q 42.578125 51.265625 45.40625 46.390625 
z
M 14.796875 27.296875 
Q 14.796875 17.390625 18.875 11.75 
Q 22.953125 6.109375 30.078125 6.109375 
Q 37.203125 6.109375 41.296875 11.75 
Q 45.40625 17.390625 45.40625 27.296875 
Q 45.40625 37.203125 41.296875 42.84375 
Q 37.203125 48.484375 30.078125 48.484375 
Q 22.953125 48.484375 18.875 42.84375 
Q 14.796875 37.203125 14.796875 27.296875 
z
" id="DejaVuSans-100"/>
      <path d="M 9.8125 72.90625 
L 19.671875 72.90625 
L 19.671875 0 
L 9.8125 0 
z
" id="DejaVuSans-73"/>
      <path d="M 9.8125 72.90625 
L 23.09375 72.90625 
L 55.421875 11.921875 
L 55.421875 72.90625 
L 64.984375 72.90625 
L 64.984375 0 
L 51.703125 0 
L 19.390625 60.984375 
L 19.390625 0 
L 9.8125 0 
z
" id="DejaVuSans-78"/>
     </defs>
     <g transform="translate(672.6102 204.905659)scale(0.09996 -0.09996)">
      <use xlink:href="#DejaVuSans-67"/>
      <use x="69.824219" xlink:href="#DejaVuSans-114"/>
      <use x="108.6875" xlink:href="#DejaVuSans-111"/>
      <use x="169.869141" xlink:href="#DejaVuSans-115"/>
      <use x="221.96875" xlink:href="#DejaVuSans-115"/>
      <use x="274.068359" xlink:href="#DejaVuSans-111"/>
      <use x="335.25" xlink:href="#DejaVuSans-118"/>
      <use x="394.429688" xlink:href="#DejaVuSans-101"/>
      <use x="455.953125" xlink:href="#DejaVuSans-114"/>
      <use x="497.066406" xlink:href="#DejaVuSans-95"/>
      <use x="547.066406" xlink:href="#DejaVuSans-82"/>
      <use x="614.298828" xlink:href="#DejaVuSans-97"/>
      <use x="675.578125" xlink:href="#DejaVuSans-110"/>
      <use x="738.957031" xlink:href="#DejaVuSans-100"/>
      <use x="802.433594" xlink:href="#DejaVuSans-111"/>
      <use x="863.615234" xlink:href="#DejaVuSans-109"/>
      <use x="961.027344" xlink:href="#DejaVuSans-95"/>
      <use x="1011.027344" xlink:href="#DejaVuSans-73"/>
      <use x="1040.519531" xlink:href="#DejaVuSans-110"/>
      <use x="1103.898438" xlink:href="#DejaVuSans-105"/>
      <use x="1131.681641" xlink:href="#DejaVuSans-116"/>
      <use x="1170.890625" xlink:href="#DejaVuSans-105"/>
      <use x="1198.673828" xlink:href="#DejaVuSans-97"/>
      <use x="1259.953125" xlink:href="#DejaVuSans-108"/>
      <use x="1287.736328" xlink:href="#DejaVuSans-95"/>
      <use x="1337.736328" xlink:href="#DejaVuSans-76"/>
      <use x="1393.449219" xlink:href="#DejaVuSans-97"/>
      <use x="1454.728516" xlink:href="#DejaVuSans-121"/>
      <use x="1513.908203" xlink:href="#DejaVuSans-101"/>
      <use x="1575.431641" xlink:href="#DejaVuSans-114"/>
      <use x="1616.544922" xlink:href="#DejaVuSans-95"/>
      <use x="1666.544922" xlink:href="#DejaVuSans-78"/>
      <use x="1741.349609" xlink:href="#DejaVuSans-111"/>
     </g>
    </g>
   </g>
  </g>
  <g id="text_22">
   <!-- Average Loss -->
   <defs>
    <path id="DejaVuSans-32"/>
   </defs>
   <g transform="translate(410.293125 16.318125)scale(0.12 -0.12)">
    <use xlink:href="#DejaVuSans-65"/>
    <use x="62.533203" xlink:href="#DejaVuSans-118"/>
    <use x="121.712891" xlink:href="#DejaVuSans-101"/>
    <use x="183.236328" xlink:href="#DejaVuSans-114"/>
    <use x="224.349609" xlink:href="#DejaVuSans-97"/>
    <use x="285.628906" xlink:href="#DejaVuSans-103"/>
    <use x="349.105469" xlink:href="#DejaVuSans-101"/>
    <use x="410.628906" xlink:href="#DejaVuSans-32"/>
    <use x="442.416016" xlink:href="#DejaVuSans-76"/>
    <use x="496.378906" xlink:href="#DejaVuSans-111"/>
    <use x="557.560547" xlink:href="#DejaVuSans-115"/>
    <use x="609.660156" xlink:href="#DejaVuSans-115"/>
   </g>
  </g>
 </g>
 <defs>
  <clipPath id="paee982f24d">
   <rect height="288" width="523.125" x="112.5" y="36"/>
  </clipPath>
 </defs>
</svg>
