<?xml version="1.0" encoding="utf-8" standalone="no"?>
<!DOCTYPE svg PUBLIC "-//W3C//DTD SVG 1.1//EN"
  "http://www.w3.org/Graphics/SVG/1.1/DTD/svg11.dtd">
<!-- Created with matplotlib (https://matplotlib.org/) -->
<svg height="360pt" version="1.1" viewBox="0 0 900 360" width="900pt" xmlns="http://www.w3.org/2000/svg" xmlns:xlink="http://www.w3.org/1999/xlink">
 <defs>
  <style type="text/css">
*{stroke-linecap:butt;stroke-linejoin:round;}
  </style>
 </defs>
 <g id="figure_1">
  <g id="patch_1">
   <path d="M 0 360 
L 900 360 
L 900 0 
L 0 0 
z
" style="fill:#ffffff;"/>
  </g>
  <g id="axes_1">
   <g id="patch_2">
    <path d="M 112.5 324 
L 635.625 324 
L 635.625 36 
L 112.5 36 
z
" style="fill:#ffffff;"/>
   </g>
   <g id="line2d_1"/>
   <g id="line2d_2">
    <path clip-path="url(#p9582311aba)" d="M 113.128756 145.220846 
L 119.416316 169.972847 
L 125.703876 166.981071 
L 131.991436 161.075308 
L 138.278996 169.736804 
L 144.566556 184.595822 
L 150.854117 174.020997 
L 157.141677 165.484609 
L 163.429237 182.221003 
L 169.716797 162.415483 
L 176.004357 182.692234 
L 182.291917 176.234469 
L 188.579477 171.172509 
L 194.867037 172.683503 
L 201.154597 162.747064 
L 207.442157 183.583539 
L 213.729718 181.550178 
L 220.017278 173.181153 
L 226.304838 166.076702 
L 232.592398 179.966024 
L 238.879958 181.796194 
L 245.167518 175.479121 
L 251.455078 187.913591 
L 257.742638 189.585539 
L 264.030198 180.099719 
L 270.317758 188.067969 
L 276.605319 193.709088 
L 282.892879 198.896769 
L 289.180439 194.42701 
L 295.467999 204.729615 
L 301.755559 201.949394 
L 308.043119 198.033994 
L 314.330679 213.009543 
L 320.618239 202.087704 
L 326.905799 211.200406 
L 333.193359 214.30641 
L 339.480919 227.584778 
L 345.76848 216.717646 
L 352.05604 221.754595 
L 358.3436 230.321402 
L 364.63116 220.450433 
L 370.91872 225.918369 
L 377.20628 220.993328 
L 383.49384 235.230435 
L 389.7814 227.573611 
L 396.06896 250.398364 
L 402.35652 253.192247 
L 408.644081 246.385882 
L 414.931641 237.998856 
L 421.219201 248.203017 
L 427.506761 257.645708 
L 433.794321 225.102135 
L 440.081881 212.234846 
L 446.369441 263.071166 
L 452.657001 251.598075 
L 458.944561 245.373686 
L 465.232121 237.942872 
L 471.519681 247.896486 
L 477.807242 250.0085 
L 484.094802 265.071595 
L 490.382362 246.529332 
L 496.669922 256.468322 
L 502.957482 240.393795 
L 509.245042 268.18069 
L 515.532602 246.305 
L 521.820162 234.916059 
L 528.107722 262.861367 
L 534.395282 256.354649 
L 540.682843 265.798571 
L 546.970403 259.960387 
L 553.257963 270.792641 
L 559.545523 263.124387 
L 565.833083 288.706909 
L 572.120643 270.236681 
L 578.408203 273.004362 
L 584.695763 259.06748 
L 590.983323 273.812137 
L 597.270883 264.482966 
L 603.558444 280.223811 
" style="fill:none;stroke:#008000;stroke-linecap:square;stroke-width:1.2;"/>
   </g>
   <g id="line2d_3">
    <path clip-path="url(#p9582311aba)" d="M 113.128756 99.677703 
L 119.416316 130.165875 
L 125.703876 111.342556 
L 131.991436 116.610791 
L 138.278996 149.800162 
L 144.566556 133.668412 
L 150.854117 146.663295 
L 157.141677 135.079411 
L 163.429237 126.025846 
L 169.716797 147.553755 
L 176.004357 86.47012 
L 182.291917 143.257203 
L 188.579477 146.480064 
L 194.867037 167.461269 
L 201.154597 116.425558 
L 207.442157 149.380546 
L 213.729718 148.28012 
L 220.017278 133.234515 
L 226.304838 170.199863 
L 232.592398 183.470574 
L 238.879958 133.676749 
L 245.167518 130.893752 
L 251.455078 184.635143 
L 257.742638 187.323331 
L 264.030198 208.766946 
L 270.317758 201.220077 
L 276.605319 188.254363 
L 282.892879 216.046778 
L 289.180439 210.790437 
L 295.467999 218.632217 
L 301.755559 236.412685 
L 308.043119 234.473428 
L 314.330679 237.677345 
L 320.618239 235.802614 
L 326.905799 222.467502 
L 333.193359 243.930972 
L 339.480919 237.08727 
L 345.76848 231.651367 
L 352.05604 247.709703 
L 358.3436 224.218873 
L 364.63116 241.869981 
L 370.91872 245.773468 
L 377.20628 249.988927 
L 383.49384 237.162636 
L 389.7814 239.201089 
L 396.06896 248.816215 
L 402.35652 254.578097 
L 408.644081 241.423269 
L 414.931641 252.293283 
L 421.219201 246.193298 
L 427.506761 242.857142 
L 433.794321 250.142887 
L 440.081881 254.053931 
L 446.369441 249.411247 
L 452.657001 246.569429 
L 458.944561 270.280106 
L 465.232121 258.686233 
L 471.519681 263.319524 
L 477.807242 247.268334 
L 484.094802 258.301104 
L 490.382362 243.113619 
L 496.669922 249.052894 
L 502.957482 273.602272 
L 509.245042 254.564933 
L 515.532602 264.272899 
L 521.820162 245.004843 
L 528.107722 251.414666 
L 534.395282 250.762111 
L 540.682843 277.006106 
L 546.970403 257.547461 
L 553.257963 263.213288 
L 559.545523 255.172822 
L 565.833083 280.814031 
L 572.120643 258.529207 
L 578.408203 272.63073 
L 584.695763 262.562077 
L 590.983323 249.783724 
L 597.270883 265.594053 
L 603.558444 258.498963 
L 609.846004 271.68537 
L 616.133564 287.635654 
L 622.421124 254.42153 
L 628.708684 273.142149 
L 634.996244 267.324295 
" style="fill:none;stroke:#ff0000;stroke-linecap:square;stroke-width:1.2;"/>
   </g>
   <g id="line2d_4">
    <path clip-path="url(#p9582311aba)" d="M 113.128756 163.9106 
L 119.416316 173.288949 
L 125.703876 177.83233 
L 131.991436 171.425949 
L 138.278996 192.311456 
L 144.566556 185.997896 
L 150.854117 170.914037 
L 157.141677 195.06678 
L 163.429237 186.711895 
L 169.716797 184.965477 
L 176.004357 196.755248 
L 182.291917 198.012578 
L 188.579477 183.137351 
L 194.867037 194.333675 
L 201.154597 210.967157 
L 207.442157 213.105957 
L 213.729718 197.825083 
L 220.017278 209.096337 
L 226.304838 221.625411 
L 232.592398 213.147489 
L 238.879958 207.033115 
L 245.167518 202.654159 
L 251.455078 211.027991 
L 257.742638 222.040562 
L 264.030198 205.424767 
L 270.317758 215.267028 
L 276.605319 212.315032 
L 282.892879 229.259033 
L 289.180439 233.699835 
L 295.467999 244.502449 
L 301.755559 243.573309 
L 308.043119 236.789493 
L 314.330679 237.170527 
L 320.618239 239.404425 
L 326.905799 246.860708 
L 333.193359 239.852888 
L 339.480919 248.715116 
L 345.76848 250.471096 
L 352.05604 242.790204 
L 358.3436 248.35624 
L 364.63116 243.89111 
L 370.91872 256.903043 
L 377.20628 256.572753 
L 383.49384 262.356008 
L 389.7814 266.988103 
L 396.06896 257.459833 
L 402.35652 253.458335 
L 408.644081 247.30796 
L 414.931641 252.656406 
L 421.219201 277.40291 
L 427.506761 266.447068 
L 433.794321 278.658843 
L 440.081881 270.706403 
L 446.369441 266.154404 
L 452.657001 283.560106 
L 458.944561 280.534693 
L 465.232121 261.032545 
L 471.519681 287.260628 
L 477.807242 294.373825 
L 484.094802 258.528162 
L 490.382362 274.06651 
L 496.669922 283.644486 
L 502.957482 299.584409 
L 509.245042 282.465098 
L 515.532602 267.419146 
L 521.820162 284.624734 
L 528.107722 261.777673 
L 534.395282 255.413914 
L 540.682843 285.513994 
L 546.970403 300.000658 
L 553.257963 277.691902 
L 559.545523 216.203085 
L 565.833083 281.629206 
L 572.120643 264.412697 
L 578.408203 263.907389 
L 584.695763 265.069915 
L 590.983323 281.465383 
L 597.270883 276.087424 
L 603.558444 270.745271 
L 609.846004 285.298289 
L 616.133564 282.3851 
" style="fill:none;stroke:#00bfbf;stroke-linecap:square;stroke-width:1.2;"/>
   </g>
   <g id="line2d_5">
    <path clip-path="url(#p9582311aba)" d="M 113.128756 152.541566 
L 119.416316 175.606718 
L 125.703876 154.917718 
L 131.991436 117.440898 
L 138.278996 147.600943 
L 144.566556 147.258304 
L 150.854117 167.533953 
L 157.141677 142.792227 
L 163.429237 153.475369 
L 169.716797 141.864698 
L 176.004357 118.931268 
L 182.291917 178.791454 
L 188.579477 183.435158 
L 194.867037 192.203242 
L 201.154597 144.965265 
L 207.442157 137.976642 
L 213.729718 133.849382 
L 220.017278 142.820322 
L 226.304838 149.817659 
L 232.592398 124.7069 
L 238.879958 109.987243 
L 245.167518 162.478447 
L 251.455078 157.761625 
L 257.742638 135.457039 
L 264.030198 146.510874 
L 270.317758 145.739453 
L 276.605319 159.016118 
L 282.892879 152.353778 
L 289.180439 158.86649 
L 295.467999 131.464553 
L 301.755559 154.913846 
L 308.043119 154.072156 
L 314.330679 172.231932 
L 320.618239 157.042685 
L 326.905799 145.990313 
L 333.193359 169.439371 
L 339.480919 154.722745 
L 345.76848 142.415615 
L 352.05604 158.665382 
L 358.3436 132.719432 
L 364.63116 167.532296 
L 370.91872 153.89666 
L 377.20628 168.085536 
L 383.49384 175.949335 
L 389.7814 192.950028 
L 396.06896 202.221484 
L 402.35652 198.521222 
L 408.644081 212.575618 
L 414.931641 213.848916 
L 421.219201 201.733935 
L 427.506761 218.139171 
L 433.794321 198.396596 
L 440.081881 219.013593 
L 446.369441 225.889746 
L 452.657001 207.65589 
L 458.944561 243.851769 
L 465.232121 222.369047 
L 471.519681 228.908659 
L 477.807242 216.380259 
L 484.094802 223.652296 
L 490.382362 233.081196 
L 496.669922 240.313619 
L 502.957482 217.555263 
L 509.245042 225.402928 
L 515.532602 249.139822 
L 521.820162 243.864175 
L 528.107722 233.164788 
L 534.395282 240.472409 
L 540.682843 252.291621 
L 546.970403 229.933775 
L 553.257963 237.622807 
L 559.545523 249.048013 
L 565.833083 237.756634 
L 572.120643 228.589685 
L 578.408203 251.445751 
L 584.695763 258.694894 
L 590.983323 240.218357 
L 597.270883 254.161079 
L 603.558444 261.572743 
L 609.846004 245.646149 
L 616.133564 240.870947 
L 622.421124 242.44672 
L 628.708684 250.019959 
L 634.996244 241.610012 
" style="fill:none;stroke:#bf00bf;stroke-linecap:square;stroke-width:1.2;"/>
   </g>
   <g id="patch_3">
    <path d="M 112.5 324 
L 112.5 36 
" style="fill:none;stroke:#000000;stroke-linecap:square;stroke-linejoin:miter;"/>
   </g>
   <g id="patch_4">
    <path d="M 635.625 324 
L 635.625 36 
" style="fill:none;stroke:#000000;stroke-linecap:square;stroke-linejoin:miter;"/>
   </g>
   <g id="patch_5">
    <path d="M 112.5 324 
L 635.625 324 
" style="fill:none;stroke:#000000;stroke-linecap:square;stroke-linejoin:miter;"/>
   </g>
   <g id="patch_6">
    <path d="M 112.5 36 
L 635.625 36 
" style="fill:none;stroke:#000000;stroke-linecap:square;stroke-linejoin:miter;"/>
   </g>
   <g id="matplotlib.axis_1">
    <g id="xtick_1">
     <g id="line2d_6">
      <defs>
       <path d="M 0 0 
L 0 -4 
" id="m1f86384da4" style="stroke:#000000;stroke-width:0.5;"/>
      </defs>
      <g>
       <use style="stroke:#000000;stroke-width:0.5;" x="113.128756" xlink:href="#m1f86384da4" y="324"/>
      </g>
     </g>
     <g id="line2d_7">
      <defs>
       <path d="M 0 0 
L 0 4 
" id="m70dc081686" style="stroke:#000000;stroke-width:0.5;"/>
      </defs>
      <g>
       <use style="stroke:#000000;stroke-width:0.5;" x="113.128756" xlink:href="#m70dc081686" y="36"/>
      </g>
     </g>
     <g id="text_1">
      <!-- 0 -->
      <defs>
       <path d="M 31.78125 66.40625 
Q 24.171875 66.40625 20.328125 58.90625 
Q 16.5 51.421875 16.5 36.375 
Q 16.5 21.390625 20.328125 13.890625 
Q 24.171875 6.390625 31.78125 6.390625 
Q 39.453125 6.390625 43.28125 13.890625 
Q 47.125 21.390625 47.125 36.375 
Q 47.125 51.421875 43.28125 58.90625 
Q 39.453125 66.40625 31.78125 66.40625 
z
M 31.78125 74.21875 
Q 44.046875 74.21875 50.515625 64.515625 
Q 56.984375 54.828125 56.984375 36.375 
Q 56.984375 17.96875 50.515625 8.265625 
Q 44.046875 -1.421875 31.78125 -1.421875 
Q 19.53125 -1.421875 13.0625 8.265625 
Q 6.59375 17.96875 6.59375 36.375 
Q 6.59375 54.828125 13.0625 64.515625 
Q 19.53125 74.21875 31.78125 74.21875 
z
" id="DejaVuSans-48"/>
      </defs>
      <g transform="translate(109.311256 337.118125)scale(0.12 -0.12)">
       <use xlink:href="#DejaVuSans-48"/>
      </g>
     </g>
    </g>
    <g id="xtick_2">
     <g id="line2d_8">
      <g>
       <use style="stroke:#000000;stroke-width:0.5;" x="169.716797" xlink:href="#m1f86384da4" y="324"/>
      </g>
     </g>
     <g id="line2d_9">
      <g>
       <use style="stroke:#000000;stroke-width:0.5;" x="169.716797" xlink:href="#m70dc081686" y="36"/>
      </g>
     </g>
     <g id="text_2">
      <!-- 9 -->
      <defs>
       <path d="M 10.984375 1.515625 
L 10.984375 10.5 
Q 14.703125 8.734375 18.5 7.8125 
Q 22.3125 6.890625 25.984375 6.890625 
Q 35.75 6.890625 40.890625 13.453125 
Q 46.046875 20.015625 46.78125 33.40625 
Q 43.953125 29.203125 39.59375 26.953125 
Q 35.25 24.703125 29.984375 24.703125 
Q 19.046875 24.703125 12.671875 31.3125 
Q 6.296875 37.9375 6.296875 49.421875 
Q 6.296875 60.640625 12.9375 67.421875 
Q 19.578125 74.21875 30.609375 74.21875 
Q 43.265625 74.21875 49.921875 64.515625 
Q 56.59375 54.828125 56.59375 36.375 
Q 56.59375 19.140625 48.40625 8.859375 
Q 40.234375 -1.421875 26.421875 -1.421875 
Q 22.703125 -1.421875 18.890625 -0.6875 
Q 15.09375 0.046875 10.984375 1.515625 
z
M 30.609375 32.421875 
Q 37.25 32.421875 41.125 36.953125 
Q 45.015625 41.5 45.015625 49.421875 
Q 45.015625 57.28125 41.125 61.84375 
Q 37.25 66.40625 30.609375 66.40625 
Q 23.96875 66.40625 20.09375 61.84375 
Q 16.21875 57.28125 16.21875 49.421875 
Q 16.21875 41.5 20.09375 36.953125 
Q 23.96875 32.421875 30.609375 32.421875 
z
" id="DejaVuSans-57"/>
      </defs>
      <g transform="translate(165.899297 337.118125)scale(0.12 -0.12)">
       <use xlink:href="#DejaVuSans-57"/>
      </g>
     </g>
    </g>
    <g id="xtick_3">
     <g id="line2d_10">
      <g>
       <use style="stroke:#000000;stroke-width:0.5;" x="226.304838" xlink:href="#m1f86384da4" y="324"/>
      </g>
     </g>
     <g id="line2d_11">
      <g>
       <use style="stroke:#000000;stroke-width:0.5;" x="226.304838" xlink:href="#m70dc081686" y="36"/>
      </g>
     </g>
     <g id="text_3">
      <!-- 18 -->
      <defs>
       <path d="M 12.40625 8.296875 
L 28.515625 8.296875 
L 28.515625 63.921875 
L 10.984375 60.40625 
L 10.984375 69.390625 
L 28.421875 72.90625 
L 38.28125 72.90625 
L 38.28125 8.296875 
L 54.390625 8.296875 
L 54.390625 0 
L 12.40625 0 
z
" id="DejaVuSans-49"/>
       <path d="M 31.78125 34.625 
Q 24.75 34.625 20.71875 30.859375 
Q 16.703125 27.09375 16.703125 20.515625 
Q 16.703125 13.921875 20.71875 10.15625 
Q 24.75 6.390625 31.78125 6.390625 
Q 38.8125 6.390625 42.859375 10.171875 
Q 46.921875 13.96875 46.921875 20.515625 
Q 46.921875 27.09375 42.890625 30.859375 
Q 38.875 34.625 31.78125 34.625 
z
M 21.921875 38.8125 
Q 15.578125 40.375 12.03125 44.71875 
Q 8.5 49.078125 8.5 55.328125 
Q 8.5 64.0625 14.71875 69.140625 
Q 20.953125 74.21875 31.78125 74.21875 
Q 42.671875 74.21875 48.875 69.140625 
Q 55.078125 64.0625 55.078125 55.328125 
Q 55.078125 49.078125 51.53125 44.71875 
Q 48 40.375 41.703125 38.8125 
Q 48.828125 37.15625 52.796875 32.3125 
Q 56.78125 27.484375 56.78125 20.515625 
Q 56.78125 9.90625 50.3125 4.234375 
Q 43.84375 -1.421875 31.78125 -1.421875 
Q 19.734375 -1.421875 13.25 4.234375 
Q 6.78125 9.90625 6.78125 20.515625 
Q 6.78125 27.484375 10.78125 32.3125 
Q 14.796875 37.15625 21.921875 38.8125 
z
M 18.3125 54.390625 
Q 18.3125 48.734375 21.84375 45.5625 
Q 25.390625 42.390625 31.78125 42.390625 
Q 38.140625 42.390625 41.71875 45.5625 
Q 45.3125 48.734375 45.3125 54.390625 
Q 45.3125 60.0625 41.71875 63.234375 
Q 38.140625 66.40625 31.78125 66.40625 
Q 25.390625 66.40625 21.84375 63.234375 
Q 18.3125 60.0625 18.3125 54.390625 
z
" id="DejaVuSans-56"/>
      </defs>
      <g transform="translate(218.669838 337.118125)scale(0.12 -0.12)">
       <use xlink:href="#DejaVuSans-49"/>
       <use x="63.623047" xlink:href="#DejaVuSans-56"/>
      </g>
     </g>
    </g>
    <g id="xtick_4">
     <g id="line2d_12">
      <g>
       <use style="stroke:#000000;stroke-width:0.5;" x="282.892879" xlink:href="#m1f86384da4" y="324"/>
      </g>
     </g>
     <g id="line2d_13">
      <g>
       <use style="stroke:#000000;stroke-width:0.5;" x="282.892879" xlink:href="#m70dc081686" y="36"/>
      </g>
     </g>
     <g id="text_4">
      <!-- 27 -->
      <defs>
       <path d="M 19.1875 8.296875 
L 53.609375 8.296875 
L 53.609375 0 
L 7.328125 0 
L 7.328125 8.296875 
Q 12.9375 14.109375 22.625 23.890625 
Q 32.328125 33.6875 34.8125 36.53125 
Q 39.546875 41.84375 41.421875 45.53125 
Q 43.3125 49.21875 43.3125 52.78125 
Q 43.3125 58.59375 39.234375 62.25 
Q 35.15625 65.921875 28.609375 65.921875 
Q 23.96875 65.921875 18.8125 64.3125 
Q 13.671875 62.703125 7.8125 59.421875 
L 7.8125 69.390625 
Q 13.765625 71.78125 18.9375 73 
Q 24.125 74.21875 28.421875 74.21875 
Q 39.75 74.21875 46.484375 68.546875 
Q 53.21875 62.890625 53.21875 53.421875 
Q 53.21875 48.921875 51.53125 44.890625 
Q 49.859375 40.875 45.40625 35.40625 
Q 44.1875 33.984375 37.640625 27.21875 
Q 31.109375 20.453125 19.1875 8.296875 
z
" id="DejaVuSans-50"/>
       <path d="M 8.203125 72.90625 
L 55.078125 72.90625 
L 55.078125 68.703125 
L 28.609375 0 
L 18.3125 0 
L 43.21875 64.59375 
L 8.203125 64.59375 
z
" id="DejaVuSans-55"/>
      </defs>
      <g transform="translate(275.257879 337.118125)scale(0.12 -0.12)">
       <use xlink:href="#DejaVuSans-50"/>
       <use x="63.623047" xlink:href="#DejaVuSans-55"/>
      </g>
     </g>
    </g>
    <g id="xtick_5">
     <g id="line2d_14">
      <g>
       <use style="stroke:#000000;stroke-width:0.5;" x="339.480919" xlink:href="#m1f86384da4" y="324"/>
      </g>
     </g>
     <g id="line2d_15">
      <g>
       <use style="stroke:#000000;stroke-width:0.5;" x="339.480919" xlink:href="#m70dc081686" y="36"/>
      </g>
     </g>
     <g id="text_5">
      <!-- 36 -->
      <defs>
       <path d="M 40.578125 39.3125 
Q 47.65625 37.796875 51.625 33 
Q 55.609375 28.21875 55.609375 21.1875 
Q 55.609375 10.40625 48.1875 4.484375 
Q 40.765625 -1.421875 27.09375 -1.421875 
Q 22.515625 -1.421875 17.65625 -0.515625 
Q 12.796875 0.390625 7.625 2.203125 
L 7.625 11.71875 
Q 11.71875 9.328125 16.59375 8.109375 
Q 21.484375 6.890625 26.8125 6.890625 
Q 36.078125 6.890625 40.9375 10.546875 
Q 45.796875 14.203125 45.796875 21.1875 
Q 45.796875 27.640625 41.28125 31.265625 
Q 36.765625 34.90625 28.71875 34.90625 
L 20.21875 34.90625 
L 20.21875 43.015625 
L 29.109375 43.015625 
Q 36.375 43.015625 40.234375 45.921875 
Q 44.09375 48.828125 44.09375 54.296875 
Q 44.09375 59.90625 40.109375 62.90625 
Q 36.140625 65.921875 28.71875 65.921875 
Q 24.65625 65.921875 20.015625 65.03125 
Q 15.375 64.15625 9.8125 62.3125 
L 9.8125 71.09375 
Q 15.4375 72.65625 20.34375 73.4375 
Q 25.25 74.21875 29.59375 74.21875 
Q 40.828125 74.21875 47.359375 69.109375 
Q 53.90625 64.015625 53.90625 55.328125 
Q 53.90625 49.265625 50.4375 45.09375 
Q 46.96875 40.921875 40.578125 39.3125 
z
" id="DejaVuSans-51"/>
       <path d="M 33.015625 40.375 
Q 26.375 40.375 22.484375 35.828125 
Q 18.609375 31.296875 18.609375 23.390625 
Q 18.609375 15.53125 22.484375 10.953125 
Q 26.375 6.390625 33.015625 6.390625 
Q 39.65625 6.390625 43.53125 10.953125 
Q 47.40625 15.53125 47.40625 23.390625 
Q 47.40625 31.296875 43.53125 35.828125 
Q 39.65625 40.375 33.015625 40.375 
z
M 52.59375 71.296875 
L 52.59375 62.3125 
Q 48.875 64.0625 45.09375 64.984375 
Q 41.3125 65.921875 37.59375 65.921875 
Q 27.828125 65.921875 22.671875 59.328125 
Q 17.53125 52.734375 16.796875 39.40625 
Q 19.671875 43.65625 24.015625 45.921875 
Q 28.375 48.1875 33.59375 48.1875 
Q 44.578125 48.1875 50.953125 41.515625 
Q 57.328125 34.859375 57.328125 23.390625 
Q 57.328125 12.15625 50.6875 5.359375 
Q 44.046875 -1.421875 33.015625 -1.421875 
Q 20.359375 -1.421875 13.671875 8.265625 
Q 6.984375 17.96875 6.984375 36.375 
Q 6.984375 53.65625 15.1875 63.9375 
Q 23.390625 74.21875 37.203125 74.21875 
Q 40.921875 74.21875 44.703125 73.484375 
Q 48.484375 72.75 52.59375 71.296875 
z
" id="DejaVuSans-54"/>
      </defs>
      <g transform="translate(331.845919 337.118125)scale(0.12 -0.12)">
       <use xlink:href="#DejaVuSans-51"/>
       <use x="63.623047" xlink:href="#DejaVuSans-54"/>
      </g>
     </g>
    </g>
    <g id="xtick_6">
     <g id="line2d_16">
      <g>
       <use style="stroke:#000000;stroke-width:0.5;" x="396.06896" xlink:href="#m1f86384da4" y="324"/>
      </g>
     </g>
     <g id="line2d_17">
      <g>
       <use style="stroke:#000000;stroke-width:0.5;" x="396.06896" xlink:href="#m70dc081686" y="36"/>
      </g>
     </g>
     <g id="text_6">
      <!-- 45 -->
      <defs>
       <path d="M 37.796875 64.3125 
L 12.890625 25.390625 
L 37.796875 25.390625 
z
M 35.203125 72.90625 
L 47.609375 72.90625 
L 47.609375 25.390625 
L 58.015625 25.390625 
L 58.015625 17.1875 
L 47.609375 17.1875 
L 47.609375 0 
L 37.796875 0 
L 37.796875 17.1875 
L 4.890625 17.1875 
L 4.890625 26.703125 
z
" id="DejaVuSans-52"/>
       <path d="M 10.796875 72.90625 
L 49.515625 72.90625 
L 49.515625 64.59375 
L 19.828125 64.59375 
L 19.828125 46.734375 
Q 21.96875 47.46875 24.109375 47.828125 
Q 26.265625 48.1875 28.421875 48.1875 
Q 40.625 48.1875 47.75 41.5 
Q 54.890625 34.8125 54.890625 23.390625 
Q 54.890625 11.625 47.5625 5.09375 
Q 40.234375 -1.421875 26.90625 -1.421875 
Q 22.3125 -1.421875 17.546875 -0.640625 
Q 12.796875 0.140625 7.71875 1.703125 
L 7.71875 11.625 
Q 12.109375 9.234375 16.796875 8.0625 
Q 21.484375 6.890625 26.703125 6.890625 
Q 35.15625 6.890625 40.078125 11.328125 
Q 45.015625 15.765625 45.015625 23.390625 
Q 45.015625 31 40.078125 35.4375 
Q 35.15625 39.890625 26.703125 39.890625 
Q 22.75 39.890625 18.8125 39.015625 
Q 14.890625 38.140625 10.796875 36.28125 
z
" id="DejaVuSans-53"/>
      </defs>
      <g transform="translate(388.43396 337.118125)scale(0.12 -0.12)">
       <use xlink:href="#DejaVuSans-52"/>
       <use x="63.623047" xlink:href="#DejaVuSans-53"/>
      </g>
     </g>
    </g>
    <g id="xtick_7">
     <g id="line2d_18">
      <g>
       <use style="stroke:#000000;stroke-width:0.5;" x="452.657001" xlink:href="#m1f86384da4" y="324"/>
      </g>
     </g>
     <g id="line2d_19">
      <g>
       <use style="stroke:#000000;stroke-width:0.5;" x="452.657001" xlink:href="#m70dc081686" y="36"/>
      </g>
     </g>
     <g id="text_7">
      <!-- 54 -->
      <g transform="translate(445.022001 337.118125)scale(0.12 -0.12)">
       <use xlink:href="#DejaVuSans-53"/>
       <use x="63.623047" xlink:href="#DejaVuSans-52"/>
      </g>
     </g>
    </g>
    <g id="xtick_8">
     <g id="line2d_20">
      <g>
       <use style="stroke:#000000;stroke-width:0.5;" x="509.245042" xlink:href="#m1f86384da4" y="324"/>
      </g>
     </g>
     <g id="line2d_21">
      <g>
       <use style="stroke:#000000;stroke-width:0.5;" x="509.245042" xlink:href="#m70dc081686" y="36"/>
      </g>
     </g>
     <g id="text_8">
      <!-- 63 -->
      <g transform="translate(501.610042 337.118125)scale(0.12 -0.12)">
       <use xlink:href="#DejaVuSans-54"/>
       <use x="63.623047" xlink:href="#DejaVuSans-51"/>
      </g>
     </g>
    </g>
    <g id="xtick_9">
     <g id="line2d_22">
      <g>
       <use style="stroke:#000000;stroke-width:0.5;" x="565.833083" xlink:href="#m1f86384da4" y="324"/>
      </g>
     </g>
     <g id="line2d_23">
      <g>
       <use style="stroke:#000000;stroke-width:0.5;" x="565.833083" xlink:href="#m70dc081686" y="36"/>
      </g>
     </g>
     <g id="text_9">
      <!-- 72 -->
      <g transform="translate(558.198083 337.118125)scale(0.12 -0.12)">
       <use xlink:href="#DejaVuSans-55"/>
       <use x="63.623047" xlink:href="#DejaVuSans-50"/>
      </g>
     </g>
    </g>
    <g id="xtick_10">
     <g id="line2d_24">
      <g>
       <use style="stroke:#000000;stroke-width:0.5;" x="622.421124" xlink:href="#m1f86384da4" y="324"/>
      </g>
     </g>
     <g id="line2d_25">
      <g>
       <use style="stroke:#000000;stroke-width:0.5;" x="622.421124" xlink:href="#m70dc081686" y="36"/>
      </g>
     </g>
     <g id="text_10">
      <!-- 81 -->
      <g transform="translate(614.786124 337.118125)scale(0.12 -0.12)">
       <use xlink:href="#DejaVuSans-56"/>
       <use x="63.623047" xlink:href="#DejaVuSans-49"/>
      </g>
     </g>
    </g>
    <g id="text_11">
     <!-- generation -->
     <defs>
      <path d="M 45.40625 27.984375 
Q 45.40625 37.75 41.375 43.109375 
Q 37.359375 48.484375 30.078125 48.484375 
Q 22.859375 48.484375 18.828125 43.109375 
Q 14.796875 37.75 14.796875 27.984375 
Q 14.796875 18.265625 18.828125 12.890625 
Q 22.859375 7.515625 30.078125 7.515625 
Q 37.359375 7.515625 41.375 12.890625 
Q 45.40625 18.265625 45.40625 27.984375 
z
M 54.390625 6.78125 
Q 54.390625 -7.171875 48.1875 -13.984375 
Q 42 -20.796875 29.203125 -20.796875 
Q 24.46875 -20.796875 20.265625 -20.09375 
Q 16.0625 -19.390625 12.109375 -17.921875 
L 12.109375 -9.1875 
Q 16.0625 -11.328125 19.921875 -12.34375 
Q 23.78125 -13.375 27.78125 -13.375 
Q 36.625 -13.375 41.015625 -8.765625 
Q 45.40625 -4.15625 45.40625 5.171875 
L 45.40625 9.625 
Q 42.625 4.78125 38.28125 2.390625 
Q 33.9375 0 27.875 0 
Q 17.828125 0 11.671875 7.65625 
Q 5.515625 15.328125 5.515625 27.984375 
Q 5.515625 40.671875 11.671875 48.328125 
Q 17.828125 56 27.875 56 
Q 33.9375 56 38.28125 53.609375 
Q 42.625 51.21875 45.40625 46.390625 
L 45.40625 54.6875 
L 54.390625 54.6875 
z
" id="DejaVuSans-103"/>
      <path d="M 56.203125 29.59375 
L 56.203125 25.203125 
L 14.890625 25.203125 
Q 15.484375 15.921875 20.484375 11.0625 
Q 25.484375 6.203125 34.421875 6.203125 
Q 39.59375 6.203125 44.453125 7.46875 
Q 49.3125 8.734375 54.109375 11.28125 
L 54.109375 2.78125 
Q 49.265625 0.734375 44.1875 -0.34375 
Q 39.109375 -1.421875 33.890625 -1.421875 
Q 20.796875 -1.421875 13.15625 6.1875 
Q 5.515625 13.8125 5.515625 26.8125 
Q 5.515625 40.234375 12.765625 48.109375 
Q 20.015625 56 32.328125 56 
Q 43.359375 56 49.78125 48.890625 
Q 56.203125 41.796875 56.203125 29.59375 
z
M 47.21875 32.234375 
Q 47.125 39.59375 43.09375 43.984375 
Q 39.0625 48.390625 32.421875 48.390625 
Q 24.90625 48.390625 20.390625 44.140625 
Q 15.875 39.890625 15.1875 32.171875 
z
" id="DejaVuSans-101"/>
      <path d="M 54.890625 33.015625 
L 54.890625 0 
L 45.90625 0 
L 45.90625 32.71875 
Q 45.90625 40.484375 42.875 44.328125 
Q 39.84375 48.1875 33.796875 48.1875 
Q 26.515625 48.1875 22.3125 43.546875 
Q 18.109375 38.921875 18.109375 30.90625 
L 18.109375 0 
L 9.078125 0 
L 9.078125 54.6875 
L 18.109375 54.6875 
L 18.109375 46.1875 
Q 21.34375 51.125 25.703125 53.5625 
Q 30.078125 56 35.796875 56 
Q 45.21875 56 50.046875 50.171875 
Q 54.890625 44.34375 54.890625 33.015625 
z
" id="DejaVuSans-110"/>
      <path d="M 41.109375 46.296875 
Q 39.59375 47.171875 37.8125 47.578125 
Q 36.03125 48 33.890625 48 
Q 26.265625 48 22.1875 43.046875 
Q 18.109375 38.09375 18.109375 28.8125 
L 18.109375 0 
L 9.078125 0 
L 9.078125 54.6875 
L 18.109375 54.6875 
L 18.109375 46.1875 
Q 20.953125 51.171875 25.484375 53.578125 
Q 30.03125 56 36.53125 56 
Q 37.453125 56 38.578125 55.875 
Q 39.703125 55.765625 41.0625 55.515625 
z
" id="DejaVuSans-114"/>
      <path d="M 34.28125 27.484375 
Q 23.390625 27.484375 19.1875 25 
Q 14.984375 22.515625 14.984375 16.5 
Q 14.984375 11.71875 18.140625 8.90625 
Q 21.296875 6.109375 26.703125 6.109375 
Q 34.1875 6.109375 38.703125 11.40625 
Q 43.21875 16.703125 43.21875 25.484375 
L 43.21875 27.484375 
z
M 52.203125 31.203125 
L 52.203125 0 
L 43.21875 0 
L 43.21875 8.296875 
Q 40.140625 3.328125 35.546875 0.953125 
Q 30.953125 -1.421875 24.3125 -1.421875 
Q 15.921875 -1.421875 10.953125 3.296875 
Q 6 8.015625 6 15.921875 
Q 6 25.140625 12.171875 29.828125 
Q 18.359375 34.515625 30.609375 34.515625 
L 43.21875 34.515625 
L 43.21875 35.40625 
Q 43.21875 41.609375 39.140625 45 
Q 35.0625 48.390625 27.6875 48.390625 
Q 23 48.390625 18.546875 47.265625 
Q 14.109375 46.140625 10.015625 43.890625 
L 10.015625 52.203125 
Q 14.9375 54.109375 19.578125 55.046875 
Q 24.21875 56 28.609375 56 
Q 40.484375 56 46.34375 49.84375 
Q 52.203125 43.703125 52.203125 31.203125 
z
" id="DejaVuSans-97"/>
      <path d="M 18.3125 70.21875 
L 18.3125 54.6875 
L 36.8125 54.6875 
L 36.8125 47.703125 
L 18.3125 47.703125 
L 18.3125 18.015625 
Q 18.3125 11.328125 20.140625 9.421875 
Q 21.96875 7.515625 27.59375 7.515625 
L 36.8125 7.515625 
L 36.8125 0 
L 27.59375 0 
Q 17.1875 0 13.234375 3.875 
Q 9.28125 7.765625 9.28125 18.015625 
L 9.28125 47.703125 
L 2.6875 47.703125 
L 2.6875 54.6875 
L 9.28125 54.6875 
L 9.28125 70.21875 
z
" id="DejaVuSans-116"/>
      <path d="M 9.421875 54.6875 
L 18.40625 54.6875 
L 18.40625 0 
L 9.421875 0 
z
M 9.421875 75.984375 
L 18.40625 75.984375 
L 18.40625 64.59375 
L 9.421875 64.59375 
z
" id="DejaVuSans-105"/>
      <path d="M 30.609375 48.390625 
Q 23.390625 48.390625 19.1875 42.75 
Q 14.984375 37.109375 14.984375 27.296875 
Q 14.984375 17.484375 19.15625 11.84375 
Q 23.34375 6.203125 30.609375 6.203125 
Q 37.796875 6.203125 41.984375 11.859375 
Q 46.1875 17.53125 46.1875 27.296875 
Q 46.1875 37.015625 41.984375 42.703125 
Q 37.796875 48.390625 30.609375 48.390625 
z
M 30.609375 56 
Q 42.328125 56 49.015625 48.375 
Q 55.71875 40.765625 55.71875 27.296875 
Q 55.71875 13.875 49.015625 6.21875 
Q 42.328125 -1.421875 30.609375 -1.421875 
Q 18.84375 -1.421875 12.171875 6.21875 
Q 5.515625 13.875 5.515625 27.296875 
Q 5.515625 40.765625 12.171875 48.375 
Q 18.84375 56 30.609375 56 
z
" id="DejaVuSans-111"/>
     </defs>
     <g transform="translate(341.430938 353.731875)scale(0.12 -0.12)">
      <use xlink:href="#DejaVuSans-103"/>
      <use x="63.476562" xlink:href="#DejaVuSans-101"/>
      <use x="125" xlink:href="#DejaVuSans-110"/>
      <use x="188.378906" xlink:href="#DejaVuSans-101"/>
      <use x="249.902344" xlink:href="#DejaVuSans-114"/>
      <use x="291.015625" xlink:href="#DejaVuSans-97"/>
      <use x="352.294922" xlink:href="#DejaVuSans-116"/>
      <use x="391.503906" xlink:href="#DejaVuSans-105"/>
      <use x="419.287109" xlink:href="#DejaVuSans-111"/>
      <use x="480.46875" xlink:href="#DejaVuSans-110"/>
     </g>
    </g>
   </g>
   <g id="matplotlib.axis_2">
    <g id="ytick_1">
     <g id="line2d_26">
      <defs>
       <path d="M 0 0 
L 4 0 
" id="m474a1597b6" style="stroke:#000000;stroke-width:0.5;"/>
      </defs>
      <g>
       <use style="stroke:#000000;stroke-width:0.5;" x="112.5" xlink:href="#m474a1597b6" y="324"/>
      </g>
     </g>
     <g id="line2d_27">
      <defs>
       <path d="M 0 0 
L -4 0 
" id="mf35cb40828" style="stroke:#000000;stroke-width:0.5;"/>
      </defs>
      <g>
       <use style="stroke:#000000;stroke-width:0.5;" x="635.625" xlink:href="#mf35cb40828" y="324"/>
      </g>
     </g>
     <g id="text_12">
      <!-- 0.15 -->
      <defs>
       <path d="M 10.6875 12.40625 
L 21 12.40625 
L 21 0 
L 10.6875 0 
z
" id="DejaVuSans-46"/>
      </defs>
      <g transform="translate(81.78125 327.31125)scale(0.12 -0.12)">
       <use xlink:href="#DejaVuSans-48"/>
       <use x="63.623047" xlink:href="#DejaVuSans-46"/>
       <use x="95.410156" xlink:href="#DejaVuSans-49"/>
       <use x="159.033203" xlink:href="#DejaVuSans-53"/>
      </g>
     </g>
    </g>
    <g id="ytick_2">
     <g id="line2d_28">
      <g>
       <use style="stroke:#000000;stroke-width:0.5;" x="112.5" xlink:href="#m474a1597b6" y="266.4"/>
      </g>
     </g>
     <g id="line2d_29">
      <g>
       <use style="stroke:#000000;stroke-width:0.5;" x="635.625" xlink:href="#mf35cb40828" y="266.4"/>
      </g>
     </g>
     <g id="text_13">
      <!-- 0.20 -->
      <g transform="translate(81.78125 269.71125)scale(0.12 -0.12)">
       <use xlink:href="#DejaVuSans-48"/>
       <use x="63.623047" xlink:href="#DejaVuSans-46"/>
       <use x="95.410156" xlink:href="#DejaVuSans-50"/>
       <use x="159.033203" xlink:href="#DejaVuSans-48"/>
      </g>
     </g>
    </g>
    <g id="ytick_3">
     <g id="line2d_30">
      <g>
       <use style="stroke:#000000;stroke-width:0.5;" x="112.5" xlink:href="#m474a1597b6" y="208.8"/>
      </g>
     </g>
     <g id="line2d_31">
      <g>
       <use style="stroke:#000000;stroke-width:0.5;" x="635.625" xlink:href="#mf35cb40828" y="208.8"/>
      </g>
     </g>
     <g id="text_14">
      <!-- 0.25 -->
      <g transform="translate(81.78125 212.11125)scale(0.12 -0.12)">
       <use xlink:href="#DejaVuSans-48"/>
       <use x="63.623047" xlink:href="#DejaVuSans-46"/>
       <use x="95.410156" xlink:href="#DejaVuSans-50"/>
       <use x="159.033203" xlink:href="#DejaVuSans-53"/>
      </g>
     </g>
    </g>
    <g id="ytick_4">
     <g id="line2d_32">
      <g>
       <use style="stroke:#000000;stroke-width:0.5;" x="112.5" xlink:href="#m474a1597b6" y="151.2"/>
      </g>
     </g>
     <g id="line2d_33">
      <g>
       <use style="stroke:#000000;stroke-width:0.5;" x="635.625" xlink:href="#mf35cb40828" y="151.2"/>
      </g>
     </g>
     <g id="text_15">
      <!-- 0.30 -->
      <g transform="translate(81.78125 154.51125)scale(0.12 -0.12)">
       <use xlink:href="#DejaVuSans-48"/>
       <use x="63.623047" xlink:href="#DejaVuSans-46"/>
       <use x="95.410156" xlink:href="#DejaVuSans-51"/>
       <use x="159.033203" xlink:href="#DejaVuSans-48"/>
      </g>
     </g>
    </g>
    <g id="ytick_5">
     <g id="line2d_34">
      <g>
       <use style="stroke:#000000;stroke-width:0.5;" x="112.5" xlink:href="#m474a1597b6" y="93.6"/>
      </g>
     </g>
     <g id="line2d_35">
      <g>
       <use style="stroke:#000000;stroke-width:0.5;" x="635.625" xlink:href="#mf35cb40828" y="93.6"/>
      </g>
     </g>
     <g id="text_16">
      <!-- 0.35 -->
      <g transform="translate(81.78125 96.91125)scale(0.12 -0.12)">
       <use xlink:href="#DejaVuSans-48"/>
       <use x="63.623047" xlink:href="#DejaVuSans-46"/>
       <use x="95.410156" xlink:href="#DejaVuSans-51"/>
       <use x="159.033203" xlink:href="#DejaVuSans-53"/>
      </g>
     </g>
    </g>
    <g id="ytick_6">
     <g id="line2d_36">
      <g>
       <use style="stroke:#000000;stroke-width:0.5;" x="112.5" xlink:href="#m474a1597b6" y="36"/>
      </g>
     </g>
     <g id="line2d_37">
      <g>
       <use style="stroke:#000000;stroke-width:0.5;" x="635.625" xlink:href="#mf35cb40828" y="36"/>
      </g>
     </g>
     <g id="text_17">
      <!-- 0.40 -->
      <g transform="translate(81.78125 39.31125)scale(0.12 -0.12)">
       <use xlink:href="#DejaVuSans-48"/>
       <use x="63.623047" xlink:href="#DejaVuSans-46"/>
       <use x="95.410156" xlink:href="#DejaVuSans-52"/>
       <use x="159.033203" xlink:href="#DejaVuSans-48"/>
      </g>
     </g>
    </g>
    <g id="text_18">
     <!-- los -->
     <defs>
      <path d="M 9.421875 75.984375 
L 18.40625 75.984375 
L 18.40625 0 
L 9.421875 0 
z
" id="DejaVuSans-108"/>
      <path d="M 44.28125 53.078125 
L 44.28125 44.578125 
Q 40.484375 46.53125 36.375 47.5 
Q 32.28125 48.484375 27.875 48.484375 
Q 21.1875 48.484375 17.84375 46.4375 
Q 14.5 44.390625 14.5 40.28125 
Q 14.5 37.15625 16.890625 35.375 
Q 19.28125 33.59375 26.515625 31.984375 
L 29.59375 31.296875 
Q 39.15625 29.25 43.1875 25.515625 
Q 47.21875 21.78125 47.21875 15.09375 
Q 47.21875 7.46875 41.1875 3.015625 
Q 35.15625 -1.421875 24.609375 -1.421875 
Q 20.21875 -1.421875 15.453125 -0.5625 
Q 10.6875 0.296875 5.421875 2 
L 5.421875 11.28125 
Q 10.40625 8.6875 15.234375 7.390625 
Q 20.0625 6.109375 24.8125 6.109375 
Q 31.15625 6.109375 34.5625 8.28125 
Q 37.984375 10.453125 37.984375 14.40625 
Q 37.984375 18.0625 35.515625 20.015625 
Q 33.0625 21.96875 24.703125 23.78125 
L 21.578125 24.515625 
Q 13.234375 26.265625 9.515625 29.90625 
Q 5.8125 33.546875 5.8125 39.890625 
Q 5.8125 47.609375 11.28125 51.796875 
Q 16.75 56 26.8125 56 
Q 31.78125 56 36.171875 55.265625 
Q 40.578125 54.546875 44.28125 53.078125 
z
" id="DejaVuSans-115"/>
     </defs>
     <g transform="translate(74.285625 188.46375)rotate(-90)scale(0.12 -0.12)">
      <use xlink:href="#DejaVuSans-108"/>
      <use x="27.783203" xlink:href="#DejaVuSans-111"/>
      <use x="88.964844" xlink:href="#DejaVuSans-115"/>
     </g>
    </g>
   </g>
   <g id="legend_1">
    <g id="patch_7">
     <path d="M 640.623 211.399935 
L 834.478239 211.399935 
L 834.478239 148.600065 
L 640.623 148.600065 
z
" style="fill:#ffffff;stroke:#000000;stroke-linejoin:miter;"/>
    </g>
    <g id="line2d_38">
     <path d="M 647.6202 156.695263 
L 661.6146 156.695263 
" style="fill:none;stroke:#008000;stroke-linecap:square;stroke-width:1.2;"/>
    </g>
    <g id="line2d_39"/>
    <g id="text_19">
     <!-- Lonely_Loss_Param_Scale_0.1 -->
     <defs>
      <path d="M 9.8125 72.90625 
L 19.671875 72.90625 
L 19.671875 8.296875 
L 55.171875 8.296875 
L 55.171875 0 
L 9.8125 0 
z
" id="DejaVuSans-76"/>
      <path d="M 32.171875 -5.078125 
Q 28.375 -14.84375 24.75 -17.8125 
Q 21.140625 -20.796875 15.09375 -20.796875 
L 7.90625 -20.796875 
L 7.90625 -13.28125 
L 13.1875 -13.28125 
Q 16.890625 -13.28125 18.9375 -11.515625 
Q 21 -9.765625 23.484375 -3.21875 
L 25.09375 0.875 
L 2.984375 54.6875 
L 12.5 54.6875 
L 29.59375 11.921875 
L 46.6875 54.6875 
L 56.203125 54.6875 
z
" id="DejaVuSans-121"/>
      <path d="M 50.984375 -16.609375 
L 50.984375 -23.578125 
L -0.984375 -23.578125 
L -0.984375 -16.609375 
z
" id="DejaVuSans-95"/>
      <path d="M 19.671875 64.796875 
L 19.671875 37.40625 
L 32.078125 37.40625 
Q 38.96875 37.40625 42.71875 40.96875 
Q 46.484375 44.53125 46.484375 51.125 
Q 46.484375 57.671875 42.71875 61.234375 
Q 38.96875 64.796875 32.078125 64.796875 
z
M 9.8125 72.90625 
L 32.078125 72.90625 
Q 44.34375 72.90625 50.609375 67.359375 
Q 56.890625 61.8125 56.890625 51.125 
Q 56.890625 40.328125 50.609375 34.8125 
Q 44.34375 29.296875 32.078125 29.296875 
L 19.671875 29.296875 
L 19.671875 0 
L 9.8125 0 
z
" id="DejaVuSans-80"/>
      <path d="M 52 44.1875 
Q 55.375 50.25 60.0625 53.125 
Q 64.75 56 71.09375 56 
Q 79.640625 56 84.28125 50.015625 
Q 88.921875 44.046875 88.921875 33.015625 
L 88.921875 0 
L 79.890625 0 
L 79.890625 32.71875 
Q 79.890625 40.578125 77.09375 44.375 
Q 74.3125 48.1875 68.609375 48.1875 
Q 61.625 48.1875 57.5625 43.546875 
Q 53.515625 38.921875 53.515625 30.90625 
L 53.515625 0 
L 44.484375 0 
L 44.484375 32.71875 
Q 44.484375 40.625 41.703125 44.40625 
Q 38.921875 48.1875 33.109375 48.1875 
Q 26.21875 48.1875 22.15625 43.53125 
Q 18.109375 38.875 18.109375 30.90625 
L 18.109375 0 
L 9.078125 0 
L 9.078125 54.6875 
L 18.109375 54.6875 
L 18.109375 46.1875 
Q 21.1875 51.21875 25.484375 53.609375 
Q 29.78125 56 35.6875 56 
Q 41.65625 56 45.828125 52.96875 
Q 50 49.953125 52 44.1875 
z
" id="DejaVuSans-109"/>
      <path d="M 53.515625 70.515625 
L 53.515625 60.890625 
Q 47.90625 63.578125 42.921875 64.890625 
Q 37.9375 66.21875 33.296875 66.21875 
Q 25.25 66.21875 20.875 63.09375 
Q 16.5 59.96875 16.5 54.203125 
Q 16.5 49.359375 19.40625 46.890625 
Q 22.3125 44.4375 30.421875 42.921875 
L 36.375 41.703125 
Q 47.40625 39.59375 52.65625 34.296875 
Q 57.90625 29 57.90625 20.125 
Q 57.90625 9.515625 50.796875 4.046875 
Q 43.703125 -1.421875 29.984375 -1.421875 
Q 24.8125 -1.421875 18.96875 -0.25 
Q 13.140625 0.921875 6.890625 3.21875 
L 6.890625 13.375 
Q 12.890625 10.015625 18.65625 8.296875 
Q 24.421875 6.59375 29.984375 6.59375 
Q 38.421875 6.59375 43.015625 9.90625 
Q 47.609375 13.234375 47.609375 19.390625 
Q 47.609375 24.75 44.3125 27.78125 
Q 41.015625 30.8125 33.5 32.328125 
L 27.484375 33.5 
Q 16.453125 35.6875 11.515625 40.375 
Q 6.59375 45.0625 6.59375 53.421875 
Q 6.59375 63.09375 13.40625 68.65625 
Q 20.21875 74.21875 32.171875 74.21875 
Q 37.3125 74.21875 42.625 73.28125 
Q 47.953125 72.359375 53.515625 70.515625 
z
" id="DejaVuSans-83"/>
      <path d="M 48.78125 52.59375 
L 48.78125 44.1875 
Q 44.96875 46.296875 41.140625 47.34375 
Q 37.3125 48.390625 33.40625 48.390625 
Q 24.65625 48.390625 19.8125 42.84375 
Q 14.984375 37.3125 14.984375 27.296875 
Q 14.984375 17.28125 19.8125 11.734375 
Q 24.65625 6.203125 33.40625 6.203125 
Q 37.3125 6.203125 41.140625 7.25 
Q 44.96875 8.296875 48.78125 10.40625 
L 48.78125 2.09375 
Q 45.015625 0.34375 40.984375 -0.53125 
Q 36.96875 -1.421875 32.421875 -1.421875 
Q 20.0625 -1.421875 12.78125 6.34375 
Q 5.515625 14.109375 5.515625 27.296875 
Q 5.515625 40.671875 12.859375 48.328125 
Q 20.21875 56 33.015625 56 
Q 37.15625 56 41.109375 55.140625 
Q 45.0625 54.296875 48.78125 52.59375 
z
" id="DejaVuSans-99"/>
     </defs>
     <g transform="translate(672.6102 160.193863)scale(0.09996 -0.09996)">
      <use xlink:href="#DejaVuSans-76"/>
      <use x="53.962891" xlink:href="#DejaVuSans-111"/>
      <use x="115.144531" xlink:href="#DejaVuSans-110"/>
      <use x="178.523438" xlink:href="#DejaVuSans-101"/>
      <use x="240.046875" xlink:href="#DejaVuSans-108"/>
      <use x="267.830078" xlink:href="#DejaVuSans-121"/>
      <use x="327.009766" xlink:href="#DejaVuSans-95"/>
      <use x="377.009766" xlink:href="#DejaVuSans-76"/>
      <use x="430.972656" xlink:href="#DejaVuSans-111"/>
      <use x="492.154297" xlink:href="#DejaVuSans-115"/>
      <use x="544.253906" xlink:href="#DejaVuSans-115"/>
      <use x="596.353516" xlink:href="#DejaVuSans-95"/>
      <use x="646.353516" xlink:href="#DejaVuSans-80"/>
      <use x="702.15625" xlink:href="#DejaVuSans-97"/>
      <use x="763.435547" xlink:href="#DejaVuSans-114"/>
      <use x="804.548828" xlink:href="#DejaVuSans-97"/>
      <use x="865.828125" xlink:href="#DejaVuSans-109"/>
      <use x="963.240234" xlink:href="#DejaVuSans-95"/>
      <use x="1013.240234" xlink:href="#DejaVuSans-83"/>
      <use x="1076.716797" xlink:href="#DejaVuSans-99"/>
      <use x="1131.697266" xlink:href="#DejaVuSans-97"/>
      <use x="1192.976562" xlink:href="#DejaVuSans-108"/>
      <use x="1220.759766" xlink:href="#DejaVuSans-101"/>
      <use x="1282.283203" xlink:href="#DejaVuSans-95"/>
      <use x="1332.283203" xlink:href="#DejaVuSans-48"/>
      <use x="1395.90625" xlink:href="#DejaVuSans-46"/>
      <use x="1427.693359" xlink:href="#DejaVuSans-49"/>
     </g>
    </g>
    <g id="line2d_40">
     <path d="M 647.6202 171.645531 
L 661.6146 171.645531 
" style="fill:none;stroke:#ff0000;stroke-linecap:square;stroke-width:1.2;"/>
    </g>
    <g id="line2d_41"/>
    <g id="text_20">
     <!-- Lonely_Loss_Param_Scale_0.33 -->
     <g transform="translate(672.6102 175.144131)scale(0.09996 -0.09996)">
      <use xlink:href="#DejaVuSans-76"/>
      <use x="53.962891" xlink:href="#DejaVuSans-111"/>
      <use x="115.144531" xlink:href="#DejaVuSans-110"/>
      <use x="178.523438" xlink:href="#DejaVuSans-101"/>
      <use x="240.046875" xlink:href="#DejaVuSans-108"/>
      <use x="267.830078" xlink:href="#DejaVuSans-121"/>
      <use x="327.009766" xlink:href="#DejaVuSans-95"/>
      <use x="377.009766" xlink:href="#DejaVuSans-76"/>
      <use x="430.972656" xlink:href="#DejaVuSans-111"/>
      <use x="492.154297" xlink:href="#DejaVuSans-115"/>
      <use x="544.253906" xlink:href="#DejaVuSans-115"/>
      <use x="596.353516" xlink:href="#DejaVuSans-95"/>
      <use x="646.353516" xlink:href="#DejaVuSans-80"/>
      <use x="702.15625" xlink:href="#DejaVuSans-97"/>
      <use x="763.435547" xlink:href="#DejaVuSans-114"/>
      <use x="804.548828" xlink:href="#DejaVuSans-97"/>
      <use x="865.828125" xlink:href="#DejaVuSans-109"/>
      <use x="963.240234" xlink:href="#DejaVuSans-95"/>
      <use x="1013.240234" xlink:href="#DejaVuSans-83"/>
      <use x="1076.716797" xlink:href="#DejaVuSans-99"/>
      <use x="1131.697266" xlink:href="#DejaVuSans-97"/>
      <use x="1192.976562" xlink:href="#DejaVuSans-108"/>
      <use x="1220.759766" xlink:href="#DejaVuSans-101"/>
      <use x="1282.283203" xlink:href="#DejaVuSans-95"/>
      <use x="1332.283203" xlink:href="#DejaVuSans-48"/>
      <use x="1395.90625" xlink:href="#DejaVuSans-46"/>
      <use x="1427.693359" xlink:href="#DejaVuSans-51"/>
      <use x="1491.316406" xlink:href="#DejaVuSans-51"/>
     </g>
    </g>
    <g id="line2d_42">
     <path d="M 647.6202 186.595798 
L 661.6146 186.595798 
" style="fill:none;stroke:#00bfbf;stroke-linecap:square;stroke-width:1.2;"/>
    </g>
    <g id="line2d_43"/>
    <g id="text_21">
     <!-- Lonely_Error_Param_Scale_0.1 -->
     <defs>
      <path d="M 9.8125 72.90625 
L 55.90625 72.90625 
L 55.90625 64.59375 
L 19.671875 64.59375 
L 19.671875 43.015625 
L 54.390625 43.015625 
L 54.390625 34.71875 
L 19.671875 34.71875 
L 19.671875 8.296875 
L 56.78125 8.296875 
L 56.78125 0 
L 9.8125 0 
z
" id="DejaVuSans-69"/>
     </defs>
     <g transform="translate(672.6102 190.094398)scale(0.09996 -0.09996)">
      <use xlink:href="#DejaVuSans-76"/>
      <use x="53.962891" xlink:href="#DejaVuSans-111"/>
      <use x="115.144531" xlink:href="#DejaVuSans-110"/>
      <use x="178.523438" xlink:href="#DejaVuSans-101"/>
      <use x="240.046875" xlink:href="#DejaVuSans-108"/>
      <use x="267.830078" xlink:href="#DejaVuSans-121"/>
      <use x="327.009766" xlink:href="#DejaVuSans-95"/>
      <use x="377.009766" xlink:href="#DejaVuSans-69"/>
      <use x="440.193359" xlink:href="#DejaVuSans-114"/>
      <use x="479.556641" xlink:href="#DejaVuSans-114"/>
      <use x="518.419922" xlink:href="#DejaVuSans-111"/>
      <use x="579.601562" xlink:href="#DejaVuSans-114"/>
      <use x="620.714844" xlink:href="#DejaVuSans-95"/>
      <use x="670.714844" xlink:href="#DejaVuSans-80"/>
      <use x="726.517578" xlink:href="#DejaVuSans-97"/>
      <use x="787.796875" xlink:href="#DejaVuSans-114"/>
      <use x="828.910156" xlink:href="#DejaVuSans-97"/>
      <use x="890.189453" xlink:href="#DejaVuSans-109"/>
      <use x="987.601562" xlink:href="#DejaVuSans-95"/>
      <use x="1037.601562" xlink:href="#DejaVuSans-83"/>
      <use x="1101.078125" xlink:href="#DejaVuSans-99"/>
      <use x="1156.058594" xlink:href="#DejaVuSans-97"/>
      <use x="1217.337891" xlink:href="#DejaVuSans-108"/>
      <use x="1245.121094" xlink:href="#DejaVuSans-101"/>
      <use x="1306.644531" xlink:href="#DejaVuSans-95"/>
      <use x="1356.644531" xlink:href="#DejaVuSans-48"/>
      <use x="1420.267578" xlink:href="#DejaVuSans-46"/>
      <use x="1452.054688" xlink:href="#DejaVuSans-49"/>
     </g>
    </g>
    <g id="line2d_44">
     <path d="M 647.6202 201.546066 
L 661.6146 201.546066 
" style="fill:none;stroke:#bf00bf;stroke-linecap:square;stroke-width:1.2;"/>
    </g>
    <g id="line2d_45"/>
    <g id="text_22">
     <!-- Lonely_Error_Param_Scale_0.33 -->
     <g transform="translate(672.6102 205.044666)scale(0.09996 -0.09996)">
      <use xlink:href="#DejaVuSans-76"/>
      <use x="53.962891" xlink:href="#DejaVuSans-111"/>
      <use x="115.144531" xlink:href="#DejaVuSans-110"/>
      <use x="178.523438" xlink:href="#DejaVuSans-101"/>
      <use x="240.046875" xlink:href="#DejaVuSans-108"/>
      <use x="267.830078" xlink:href="#DejaVuSans-121"/>
      <use x="327.009766" xlink:href="#DejaVuSans-95"/>
      <use x="377.009766" xlink:href="#DejaVuSans-69"/>
      <use x="440.193359" xlink:href="#DejaVuSans-114"/>
      <use x="479.556641" xlink:href="#DejaVuSans-114"/>
      <use x="518.419922" xlink:href="#DejaVuSans-111"/>
      <use x="579.601562" xlink:href="#DejaVuSans-114"/>
      <use x="620.714844" xlink:href="#DejaVuSans-95"/>
      <use x="670.714844" xlink:href="#DejaVuSans-80"/>
      <use x="726.517578" xlink:href="#DejaVuSans-97"/>
      <use x="787.796875" xlink:href="#DejaVuSans-114"/>
      <use x="828.910156" xlink:href="#DejaVuSans-97"/>
      <use x="890.189453" xlink:href="#DejaVuSans-109"/>
      <use x="987.601562" xlink:href="#DejaVuSans-95"/>
      <use x="1037.601562" xlink:href="#DejaVuSans-83"/>
      <use x="1101.078125" xlink:href="#DejaVuSans-99"/>
      <use x="1156.058594" xlink:href="#DejaVuSans-97"/>
      <use x="1217.337891" xlink:href="#DejaVuSans-108"/>
      <use x="1245.121094" xlink:href="#DejaVuSans-101"/>
      <use x="1306.644531" xlink:href="#DejaVuSans-95"/>
      <use x="1356.644531" xlink:href="#DejaVuSans-48"/>
      <use x="1420.267578" xlink:href="#DejaVuSans-46"/>
      <use x="1452.054688" xlink:href="#DejaVuSans-51"/>
      <use x="1515.677734" xlink:href="#DejaVuSans-51"/>
     </g>
    </g>
   </g>
  </g>
  <g id="text_23">
   <!-- Average Loss -->
   <defs>
    <path d="M 34.1875 63.1875 
L 20.796875 26.90625 
L 47.609375 26.90625 
z
M 28.609375 72.90625 
L 39.796875 72.90625 
L 67.578125 0 
L 57.328125 0 
L 50.6875 18.703125 
L 17.828125 18.703125 
L 11.1875 0 
L 0.78125 0 
z
" id="DejaVuSans-65"/>
    <path d="M 2.984375 54.6875 
L 12.5 54.6875 
L 29.59375 8.796875 
L 46.6875 54.6875 
L 56.203125 54.6875 
L 35.6875 0 
L 23.484375 0 
z
" id="DejaVuSans-118"/>
    <path id="DejaVuSans-32"/>
   </defs>
   <g transform="translate(410.293125 16.318125)scale(0.12 -0.12)">
    <use xlink:href="#DejaVuSans-65"/>
    <use x="62.533203" xlink:href="#DejaVuSans-118"/>
    <use x="121.712891" xlink:href="#DejaVuSans-101"/>
    <use x="183.236328" xlink:href="#DejaVuSans-114"/>
    <use x="224.349609" xlink:href="#DejaVuSans-97"/>
    <use x="285.628906" xlink:href="#DejaVuSans-103"/>
    <use x="349.105469" xlink:href="#DejaVuSans-101"/>
    <use x="410.628906" xlink:href="#DejaVuSans-32"/>
    <use x="442.416016" xlink:href="#DejaVuSans-76"/>
    <use x="496.378906" xlink:href="#DejaVuSans-111"/>
    <use x="557.560547" xlink:href="#DejaVuSans-115"/>
    <use x="609.660156" xlink:href="#DejaVuSans-115"/>
   </g>
  </g>
 </g>
 <defs>
  <clipPath id="p9582311aba">
   <rect height="288" width="523.125" x="112.5" y="36"/>
  </clipPath>
 </defs>
</svg>
