<?xml version="1.0" encoding="utf-8" standalone="no"?>
<!DOCTYPE svg PUBLIC "-//W3C//DTD SVG 1.1//EN"
  "http://www.w3.org/Graphics/SVG/1.1/DTD/svg11.dtd">
<!-- Created with matplotlib (https://matplotlib.org/) -->
<svg height="360pt" version="1.1" viewBox="0 0 900 360" width="900pt" xmlns="http://www.w3.org/2000/svg" xmlns:xlink="http://www.w3.org/1999/xlink">
 <defs>
  <style type="text/css">
*{stroke-linecap:butt;stroke-linejoin:round;}
  </style>
 </defs>
 <g id="figure_1">
  <g id="patch_1">
   <path d="M 0 360 
L 900 360 
L 900 0 
L 0 0 
z
" style="fill:#ffffff;"/>
  </g>
  <g id="axes_1">
   <g id="patch_2">
    <path d="M 112.5 324 
L 635.625 324 
L 635.625 36 
L 112.5 36 
z
" style="fill:#ffffff;"/>
   </g>
   <g id="line2d_1">
    <path clip-path="url(#p38b17dd0a7)" d="M 112.832777 321.64192 
L 116.160544 321.33664 
L 122.816078 320.336 
L 126.143845 320.30208 
L 129.471613 319.50496 
L 132.79938 319.11488 
L 136.127147 318.87744 
L 139.454914 317.85984 
L 146.110448 315.97728 
L 149.438216 314.29824 
L 152.765983 312.82272 
L 156.09375 310.85536 
L 159.421517 308.75232 
L 162.749284 307.12416 
L 166.077052 305.78432 
L 169.404819 303.25728 
L 172.732586 298.47456 
L 176.060353 297.2704 
L 179.38812 295.52352 
L 182.715887 289.28224 
L 186.043655 280.95488 
L 189.371422 282.46432 
L 192.699189 271.4064 
L 196.026956 271.59296 
L 199.354723 257.34656 
L 202.68249 250.66432 
L 206.010258 267.82784 
L 209.338025 224.86816 
L 212.665792 213.55584 
L 215.993559 227.20864 
L 219.321326 232.992 
L 222.649094 204.8384 
L 225.976861 199.19072 
L 229.304628 221.76448 
L 232.632395 196.05312 
L 235.960162 160.11488 
L 239.287929 142.27296 
L 242.615697 152.36416 
L 245.943464 163.74432 
L 249.271231 112.21984 
L 252.598998 156.63808 
L 255.926765 168.83232 
L 259.254532 158.77504 
L 262.5823 127.43296 
L 265.910067 135.08192 
L 269.237834 153.67008 
L 272.565601 133.50464 
L 275.893368 130.67232 
L 279.221135 125.19424 
L 282.548903 110.52384 
L 285.87667 135.11584 
L 289.204437 162.06528 
L 292.532204 160.84416 
L 295.859971 134.06432 
L 299.187739 155.97664 
L 302.515506 133.0976 
L 305.843273 120.27584 
L 309.17104 135.28544 
L 312.498807 98.19392 
L 315.826574 150.41376 
L 319.154342 105.5376 
L 322.482109 136.5744 
L 325.809876 131.94432 
L 329.137643 143.64672 
L 332.46541 152.6864 
L 335.793177 160.72544 
L 339.120945 145.83456 
L 342.448712 64.4096 
L 345.776479 134.0304 
L 349.104246 153.33088 
L 352.432013 136.28608 
L 355.759781 170.03648 
L 359.087548 130.5536 
L 362.415315 98.63488 
L 365.743082 131.41856 
L 369.070849 125.14336 
L 372.398616 104.06208 
L 375.726384 120.42848 
L 379.054151 128.1792 
L 382.381918 80.11456 
L 385.709685 128.73888 
L 389.037452 76.51904 
L 392.365219 71.872 
L 395.692987 115.84928 
L 399.020754 71.51584 
L 402.348521 131.75776 
L 405.676288 85.44 
L 409.004055 142.28992 
L 412.331823 92.61408 
L 415.65959 116.23936 
L 418.987357 73.19488 
L 422.315124 127.61952 
L 425.642891 121.17472 
L 428.970658 116.2224 
L 432.298426 150.54944 
L 435.626193 115.76448 
L 438.95396 127.9248 
L 442.281727 152.008 
L 445.609494 133.50464 
L 448.937261 136.43872 
L 452.265029 146.73344 
L 455.592796 140.40736 
L 458.920563 139.15232 
L 462.24833 166.52576 
L 465.576097 142.3408 
L 468.903865 112.76256 
L 472.231632 89.37472 
L 475.559399 147.29312 
L 478.887166 118.88512 
L 482.214933 120.02144 
L 485.5427 102.72224 
L 488.870468 126.17792 
L 492.198235 93.8352 
L 495.526002 127.65344 
L 498.853769 138.30432 
L 502.181536 89.66304 
L 505.509303 82.25152 
L 508.837071 107.97984 
L 512.164838 115.90016 
L 515.492605 120.632 
L 518.820372 155.36608 
L 522.148139 142.13728 
L 525.475906 136.50656 
L 528.803674 123.19296 
L 532.131441 79.60576 
L 535.459208 145.88544 
L 538.786975 136.0656 
L 542.114742 113.01696 
L 545.44251 144.68128 
L 548.770277 114.57728 
L 552.098044 90.6976 
L 555.425811 145.02048 
L 558.753578 110.2016 
L 562.081345 143.96896 
L 565.409113 102.41696 
L 568.73688 148.8704 
L 572.064647 158.0288 
L 575.392414 148.58208 
L 578.720181 113.94976 
L 582.047948 114.03456 
L 585.375716 160.13184 
L 588.703483 84.64288 
L 592.03125 91.57952 
L 595.359017 79.21568 
L 595.359017 79.21568 
" style="fill:none;stroke:#0000ff;stroke-linecap:square;stroke-width:1.2;"/>
   </g>
   <g id="line2d_2">
    <path clip-path="url(#p38b17dd0a7)" d="M 112.832777 321.956309 
L 116.160544 321.955435 
L 119.488311 321.803477 
L 122.816078 321.350805 
L 126.143845 321.342208 
L 132.79938 320.999104 
L 136.127147 320.420267 
L 139.454914 320.639573 
L 142.782681 320.685483 
L 146.110448 320.39616 
L 149.438216 320.605525 
L 152.765983 319.93184 
L 156.09375 320.067179 
L 159.421517 319.946517 
L 162.749284 319.642965 
L 166.077052 319.913536 
L 169.404819 319.924416 
L 179.38812 320.233536 
L 182.715887 320.166485 
L 186.043655 319.89824 
L 189.371422 320.079467 
L 192.699189 319.635797 
L 199.354723 319.588501 
L 206.010258 319.036096 
L 209.338025 318.764907 
L 212.665792 318.351808 
L 215.993559 318.826987 
L 219.321326 318.415381 
L 229.304628 318.186987 
L 232.632395 318.679723 
L 235.960162 317.016107 
L 239.287929 316.537344 
L 242.615697 315.372075 
L 245.943464 315.411221 
L 249.271231 315.862443 
L 252.598998 314.016853 
L 255.926765 314.270997 
L 262.5823 313.874923 
L 265.910067 311.885035 
L 269.237834 311.600277 
L 272.565601 311.811328 
L 275.893368 310.95872 
L 279.221135 311.008384 
L 282.548903 309.174336 
L 285.87667 309.571733 
L 292.532204 309.80128 
L 295.859971 306.699456 
L 299.187739 308.20064 
L 302.515506 307.781973 
L 305.843273 299.965696 
L 309.17104 302.157483 
L 312.498807 306.796117 
L 315.826574 306.721003 
L 322.482109 307.361088 
L 329.137643 306.397717 
L 332.46541 304.638528 
L 335.793177 304.909035 
L 339.120945 302.134891 
L 342.448712 301.336427 
L 345.776479 302.471573 
L 349.104246 302.359787 
L 352.432013 301.37568 
L 355.759781 301.3488 
L 359.087548 299.552832 
L 362.415315 299.771968 
L 365.743082 300.415403 
L 369.070849 299.776555 
L 372.398616 298.791445 
L 375.726384 299.279317 
L 379.054151 297.916715 
L 382.381918 301.422955 
L 385.709685 297.875008 
L 389.037452 297.539605 
L 392.365219 297.056213 
L 395.692987 294.706859 
L 399.020754 293.697045 
L 402.348521 296.250752 
L 405.676288 290.358315 
L 409.004055 293.502165 
L 412.331823 284.126613 
L 415.65959 284.022763 
L 418.987357 286.041749 
L 422.315124 284.906027 
L 425.642891 286.401152 
L 428.970658 281.871915 
L 432.298426 278.476821 
L 435.626193 277.273749 
L 438.95396 271.260949 
L 442.281727 271.004693 
L 445.609494 266.45024 
L 448.937261 263.947285 
L 452.265029 269.060245 
L 455.592796 266.174656 
L 458.920563 267.944064 
L 462.24833 267.872064 
L 465.576097 272.606443 
L 468.903865 272.394987 
L 472.231632 263.203904 
L 475.559399 267.284907 
L 478.887166 264.208533 
L 482.214933 261.718848 
L 485.5427 264.248768 
L 488.870468 247.016064 
L 492.198235 241.518869 
L 495.526002 248.121515 
L 498.853769 256.958443 
L 502.181536 268.625728 
L 505.509303 268.096619 
L 508.837071 276.621269 
L 512.164838 268.337771 
L 515.492605 274.093163 
L 518.820372 276.144043 
L 522.148139 270.850219 
L 525.475906 270.125461 
L 528.803674 273.37024 
L 532.131441 263.723328 
L 535.459208 266.696661 
L 538.786975 260.748267 
L 542.114742 258.360597 
L 545.44251 247.564949 
L 548.770277 237.457237 
L 552.098044 241.406805 
L 555.425811 238.269653 
L 558.753578 250.871616 
L 562.081345 243.447403 
L 565.409113 234.094315 
L 568.73688 252.933376 
L 572.064647 253.055189 
L 575.392414 243.393003 
L 578.720181 249.783232 
L 582.047948 245.552917 
L 585.375716 229.025323 
L 588.703483 227.111339 
L 592.03125 218.439787 
L 595.359017 214.757291 
L 598.686784 216.054187 
L 602.014552 203.727125 
L 605.342319 169.542933 
L 608.670086 164.816 
L 611.997853 178.79264 
L 615.32562 142.067627 
L 618.653387 154.095787 
L 621.981155 169.875093 
L 625.308922 164.780352 
L 628.636689 157.900501 
L 631.964456 186.45376 
L 635.292223 180.474261 
L 635.292223 180.474261 
" style="fill:none;stroke:#008000;stroke-linecap:square;stroke-width:1.2;"/>
   </g>
   <g id="line2d_3">
    <path clip-path="url(#p38b17dd0a7)" d="M 112.832777 321.893653 
L 122.816078 321.515797 
L 126.143845 321.182827 
L 129.471613 321.135893 
L 132.79938 320.486677 
L 136.127147 320.721216 
L 139.454914 320.253952 
L 142.782681 319.976661 
L 149.438216 319.815339 
L 152.765983 318.956373 
L 156.09375 319.33664 
L 159.421517 318.173163 
L 166.077052 317.30528 
L 169.404819 317.557141 
L 176.060353 317.327957 
L 182.715887 314.269333 
L 189.371422 314.702763 
L 192.699189 314.474773 
L 196.026956 313.047936 
L 202.68249 312.358208 
L 206.010258 310.108245 
L 209.338025 309.798059 
L 212.665792 308.34592 
L 215.993559 306.467605 
L 219.321326 310.795584 
L 222.649094 311.109056 
L 225.976861 309.695936 
L 229.304628 307.940587 
L 232.632395 307.450432 
L 235.960162 307.237269 
L 239.287929 304.437781 
L 242.615697 305.027157 
L 245.943464 303.133333 
L 249.271231 300.099733 
L 252.598998 302.518507 
L 255.926765 298.790635 
L 262.5823 292.001963 
L 265.910067 294.760576 
L 269.237834 290.402133 
L 272.565601 292.761024 
L 275.893368 287.080043 
L 279.221135 286.03296 
L 282.548903 285.508757 
L 285.87667 285.730709 
L 289.204437 283.894016 
L 292.532204 277.074837 
L 295.859971 286.552341 
L 299.187739 284.886421 
L 302.515506 273.202688 
L 305.843273 274.188715 
L 309.17104 278.109504 
L 312.498807 267.856896 
L 315.826574 264.470507 
L 319.154342 264.029717 
L 322.482109 268.925931 
L 325.809876 261.57664 
L 329.137643 263.804373 
L 332.46541 259.679744 
L 335.793177 270.985536 
L 339.120945 267.819691 
L 342.448712 262.558208 
L 345.776479 267.005205 
L 349.104246 267.838336 
L 352.432013 266.497067 
L 355.759781 260.286165 
L 359.087548 255.546325 
L 362.415315 245.827136 
L 365.743082 237.892459 
L 369.070849 235.915755 
L 372.398616 243.860373 
L 375.726384 234.642901 
L 379.054151 235.335744 
L 382.381918 248.250432 
L 385.709685 270.877205 
L 389.037452 246.637099 
L 392.365219 232.025408 
L 395.692987 249.651349 
L 399.020754 261.670357 
L 402.348521 238.155605 
L 405.676288 243.799637 
L 409.004055 238.553365 
L 412.331823 232.561963 
L 415.65959 234.142635 
L 418.987357 224.715093 
L 422.315124 230.209344 
L 425.642891 228.59936 
L 428.970658 214.799957 
L 432.298426 210.29952 
L 435.626193 202.3792 
L 438.95396 201.64992 
L 442.281727 191.66048 
L 445.609494 187.55616 
L 448.937261 154.56896 
L 452.265029 164.37184 
L 455.592796 142.66304 
L 458.920563 162.8624 
L 462.24833 177.54976 
L 465.576097 176.39648 
L 468.903865 174.6496 
L 472.231632 150.15936 
L 475.559399 138.98272 
L 478.887166 139.35584 
L 482.214933 141.00096 
L 485.5427 151.82144 
L 488.870468 158.38496 
L 492.198235 173.632 
L 495.526002 170.1552 
L 498.853769 168.98496 
L 502.181536 173.42848 
L 505.509303 160.04704 
L 508.837071 166.03392 
L 512.164838 151.16 
L 515.492605 129.38336 
L 518.820372 161.45472 
L 522.148139 149.75232 
L 525.475906 176.71872 
L 528.803674 150.6512 
L 532.131441 182.33248 
L 535.459208 137.99904 
L 538.786975 145.54624 
L 542.114742 113.55968 
L 545.44251 128.12832 
L 548.770277 123.99008 
L 552.098044 129.99392 
L 555.425811 144.01984 
L 558.753578 89.28992 
L 562.081345 88.0688 
L 565.409113 86.0336 
L 568.73688 113.54272 
L 572.064647 146.4112 
L 575.392414 93.08896 
L 578.720181 109.6928 
L 582.047948 115.30656 
L 585.375716 111.6432 
L 588.703483 112.33856 
L 592.03125 121.12384 
L 595.359017 140.4752 
L 598.686784 118.324651 
L 602.014552 82.79424 
L 605.342319 95.58208 
L 611.997853 154.00928 
L 615.32562 145.27488 
L 618.653387 155.55264 
L 621.981155 144.61344 
L 625.308922 135.65856 
L 628.636689 128.48448 
L 628.636689 128.48448 
" style="fill:none;stroke:#ff0000;stroke-linecap:square;stroke-width:1.2;"/>
   </g>
   <g id="line2d_4">
    <path clip-path="url(#p38b17dd0a7)" d="M 112.832777 321.929131 
L 116.160544 321.570539 
L 122.816078 321.227115 
L 126.143845 320.959936 
L 129.471613 320.868715 
L 132.79938 320.236736 
L 136.127147 320.332565 
L 139.454914 319.885056 
L 142.782681 319.621355 
L 146.110448 320.122581 
L 149.438216 318.920299 
L 156.09375 317.9728 
L 159.421517 318.059691 
L 162.749284 316.999488 
L 166.077052 316.099029 
L 169.404819 316.8896 
L 172.732586 316.761365 
L 176.060353 314.896832 
L 179.38812 316.842944 
L 182.715887 315.403733 
L 186.043655 312.772139 
L 189.371422 313.630293 
L 192.699189 312.707499 
L 196.026956 312.394965 
L 199.354723 312.635371 
L 202.68249 309.654464 
L 206.010258 309.576341 
L 209.338025 308.577664 
L 212.665792 308.441728 
L 215.993559 305.107008 
L 219.321326 303.914624 
L 222.649094 302.145472 
L 225.976861 298.673813 
L 229.304628 301.337792 
L 232.632395 295.6416 
L 235.960162 294.666176 
L 239.287929 290.744917 
L 242.615697 291.464256 
L 245.943464 287.885717 
L 249.271231 277.421781 
L 252.598998 277.222891 
L 255.926765 281.91648 
L 259.254532 274.023296 
L 262.5823 268.152341 
L 265.910067 287.591851 
L 269.237834 281.258837 
L 272.565601 282.026453 
L 275.893368 294.747072 
L 279.221135 276.172096 
L 282.548903 279.884352 
L 285.87667 269.872 
L 289.204437 269.924587 
L 292.532204 270.096533 
L 295.859971 267.184384 
L 299.187739 268.860928 
L 302.515506 267.926485 
L 305.843273 271.197568 
L 309.17104 261.391552 
L 312.498807 268.85472 
L 315.826574 262.522645 
L 319.154342 267.049835 
L 322.482109 267.832299 
L 325.809876 244.419307 
L 329.137643 254.65056 
L 332.46541 232.952 
L 335.793177 219.57792 
L 339.120945 239.388587 
L 342.448712 251.047253 
L 345.776479 245.578987 
L 349.104246 233.350336 
L 352.432013 226.954624 
L 355.759781 237.4784 
L 359.087548 235.116096 
L 362.415315 222.820373 
L 365.743082 222.557931 
L 369.070849 197.131541 
L 372.398616 215.120725 
L 375.726384 212.964245 
L 379.054151 205.758165 
L 382.381918 211.054869 
L 385.709685 203.862421 
L 389.037452 209.207296 
L 392.365219 179.83552 
L 395.692987 185.276736 
L 399.020754 173.960021 
L 402.348521 185.404715 
L 405.676288 206.469035 
L 409.004055 187.849899 
L 412.331823 203.046827 
L 415.65959 156.578645 
L 418.987357 186.814464 
L 422.315124 211.40128 
L 425.642891 185.02848 
L 428.970658 142.154176 
L 432.298426 197.596416 
L 435.626193 185.232576 
L 438.95396 170.986176 
L 442.281727 172.211605 
L 445.609494 160.816405 
L 448.937261 162.551253 
L 452.265029 177.159936 
L 455.592796 160.164885 
L 458.920563 132.912 
L 462.24833 112.7296 
L 465.576097 153.1952 
L 468.903865 169.27328 
L 472.231632 110.69344 
L 475.559399 98.97408 
L 478.887166 71.80416 
L 482.214933 162.37056 
L 485.5427 170.85056 
L 488.870468 161.62432 
L 492.198235 146.1568 
L 495.526002 172.25824 
L 498.853769 149.6336 
L 502.181536 169.9856 
L 505.509303 148.4464 
L 508.837071 140.83136 
L 512.164838 176.2608 
L 515.492605 179.61888 
L 518.820372 159.31776 
L 522.148139 152.38112 
L 525.475906 143.6976 
L 528.803674 160.488 
L 532.131441 140.32256 
L 535.459208 108.81088 
L 538.786975 93.496 
L 542.114742 104.79136 
L 545.44251 90.93504 
L 548.770277 142.91744 
L 552.098044 142.30688 
L 555.425811 156.72288 
L 558.753578 97.75296 
L 558.753578 97.75296 
" style="fill:none;stroke:#00bfbf;stroke-linecap:square;stroke-width:1.2;"/>
   </g>
   <g id="patch_3">
    <path d="M 112.5 324 
L 112.5 36 
" style="fill:none;stroke:#000000;stroke-linecap:square;stroke-linejoin:miter;"/>
   </g>
   <g id="patch_4">
    <path d="M 635.625 324 
L 635.625 36 
" style="fill:none;stroke:#000000;stroke-linecap:square;stroke-linejoin:miter;"/>
   </g>
   <g id="patch_5">
    <path d="M 112.5 324 
L 635.625 324 
" style="fill:none;stroke:#000000;stroke-linecap:square;stroke-linejoin:miter;"/>
   </g>
   <g id="patch_6">
    <path d="M 112.5 36 
L 635.625 36 
" style="fill:none;stroke:#000000;stroke-linecap:square;stroke-linejoin:miter;"/>
   </g>
   <g id="matplotlib.axis_1">
    <g id="xtick_1">
     <g id="line2d_5">
      <defs>
       <path d="M 0 0 
L 0 -4 
" id="mb60f810148" style="stroke:#000000;stroke-width:0.5;"/>
      </defs>
      <g>
       <use style="stroke:#000000;stroke-width:0.5;" x="112.832777" xlink:href="#mb60f810148" y="324"/>
      </g>
     </g>
     <g id="line2d_6">
      <defs>
       <path d="M 0 0 
L 0 4 
" id="m3e2ad309bb" style="stroke:#000000;stroke-width:0.5;"/>
      </defs>
      <g>
       <use style="stroke:#000000;stroke-width:0.5;" x="112.832777" xlink:href="#m3e2ad309bb" y="36"/>
      </g>
     </g>
     <g id="text_1">
      <!-- 1 -->
      <defs>
       <path d="M 12.40625 8.296875 
L 28.515625 8.296875 
L 28.515625 63.921875 
L 10.984375 60.40625 
L 10.984375 69.390625 
L 28.421875 72.90625 
L 38.28125 72.90625 
L 38.28125 8.296875 
L 54.390625 8.296875 
L 54.390625 0 
L 12.40625 0 
z
" id="DejaVuSans-49"/>
      </defs>
      <g transform="translate(109.015277 337.118125)scale(0.12 -0.12)">
       <use xlink:href="#DejaVuSans-49"/>
      </g>
     </g>
    </g>
    <g id="xtick_2">
     <g id="line2d_7">
      <g>
       <use style="stroke:#000000;stroke-width:0.5;" x="166.077052" xlink:href="#mb60f810148" y="324"/>
      </g>
     </g>
     <g id="line2d_8">
      <g>
       <use style="stroke:#000000;stroke-width:0.5;" x="166.077052" xlink:href="#m3e2ad309bb" y="36"/>
      </g>
     </g>
     <g id="text_2">
      <!-- 17 -->
      <defs>
       <path d="M 8.203125 72.90625 
L 55.078125 72.90625 
L 55.078125 68.703125 
L 28.609375 0 
L 18.3125 0 
L 43.21875 64.59375 
L 8.203125 64.59375 
z
" id="DejaVuSans-55"/>
      </defs>
      <g transform="translate(158.442052 337.118125)scale(0.12 -0.12)">
       <use xlink:href="#DejaVuSans-49"/>
       <use x="63.623047" xlink:href="#DejaVuSans-55"/>
      </g>
     </g>
    </g>
    <g id="xtick_3">
     <g id="line2d_9">
      <g>
       <use style="stroke:#000000;stroke-width:0.5;" x="219.321326" xlink:href="#mb60f810148" y="324"/>
      </g>
     </g>
     <g id="line2d_10">
      <g>
       <use style="stroke:#000000;stroke-width:0.5;" x="219.321326" xlink:href="#m3e2ad309bb" y="36"/>
      </g>
     </g>
     <g id="text_3">
      <!-- 33 -->
      <defs>
       <path d="M 40.578125 39.3125 
Q 47.65625 37.796875 51.625 33 
Q 55.609375 28.21875 55.609375 21.1875 
Q 55.609375 10.40625 48.1875 4.484375 
Q 40.765625 -1.421875 27.09375 -1.421875 
Q 22.515625 -1.421875 17.65625 -0.515625 
Q 12.796875 0.390625 7.625 2.203125 
L 7.625 11.71875 
Q 11.71875 9.328125 16.59375 8.109375 
Q 21.484375 6.890625 26.8125 6.890625 
Q 36.078125 6.890625 40.9375 10.546875 
Q 45.796875 14.203125 45.796875 21.1875 
Q 45.796875 27.640625 41.28125 31.265625 
Q 36.765625 34.90625 28.71875 34.90625 
L 20.21875 34.90625 
L 20.21875 43.015625 
L 29.109375 43.015625 
Q 36.375 43.015625 40.234375 45.921875 
Q 44.09375 48.828125 44.09375 54.296875 
Q 44.09375 59.90625 40.109375 62.90625 
Q 36.140625 65.921875 28.71875 65.921875 
Q 24.65625 65.921875 20.015625 65.03125 
Q 15.375 64.15625 9.8125 62.3125 
L 9.8125 71.09375 
Q 15.4375 72.65625 20.34375 73.4375 
Q 25.25 74.21875 29.59375 74.21875 
Q 40.828125 74.21875 47.359375 69.109375 
Q 53.90625 64.015625 53.90625 55.328125 
Q 53.90625 49.265625 50.4375 45.09375 
Q 46.96875 40.921875 40.578125 39.3125 
z
" id="DejaVuSans-51"/>
      </defs>
      <g transform="translate(211.686326 337.118125)scale(0.12 -0.12)">
       <use xlink:href="#DejaVuSans-51"/>
       <use x="63.623047" xlink:href="#DejaVuSans-51"/>
      </g>
     </g>
    </g>
    <g id="xtick_4">
     <g id="line2d_11">
      <g>
       <use style="stroke:#000000;stroke-width:0.5;" x="272.565601" xlink:href="#mb60f810148" y="324"/>
      </g>
     </g>
     <g id="line2d_12">
      <g>
       <use style="stroke:#000000;stroke-width:0.5;" x="272.565601" xlink:href="#m3e2ad309bb" y="36"/>
      </g>
     </g>
     <g id="text_4">
      <!-- 49 -->
      <defs>
       <path d="M 37.796875 64.3125 
L 12.890625 25.390625 
L 37.796875 25.390625 
z
M 35.203125 72.90625 
L 47.609375 72.90625 
L 47.609375 25.390625 
L 58.015625 25.390625 
L 58.015625 17.1875 
L 47.609375 17.1875 
L 47.609375 0 
L 37.796875 0 
L 37.796875 17.1875 
L 4.890625 17.1875 
L 4.890625 26.703125 
z
" id="DejaVuSans-52"/>
       <path d="M 10.984375 1.515625 
L 10.984375 10.5 
Q 14.703125 8.734375 18.5 7.8125 
Q 22.3125 6.890625 25.984375 6.890625 
Q 35.75 6.890625 40.890625 13.453125 
Q 46.046875 20.015625 46.78125 33.40625 
Q 43.953125 29.203125 39.59375 26.953125 
Q 35.25 24.703125 29.984375 24.703125 
Q 19.046875 24.703125 12.671875 31.3125 
Q 6.296875 37.9375 6.296875 49.421875 
Q 6.296875 60.640625 12.9375 67.421875 
Q 19.578125 74.21875 30.609375 74.21875 
Q 43.265625 74.21875 49.921875 64.515625 
Q 56.59375 54.828125 56.59375 36.375 
Q 56.59375 19.140625 48.40625 8.859375 
Q 40.234375 -1.421875 26.421875 -1.421875 
Q 22.703125 -1.421875 18.890625 -0.6875 
Q 15.09375 0.046875 10.984375 1.515625 
z
M 30.609375 32.421875 
Q 37.25 32.421875 41.125 36.953125 
Q 45.015625 41.5 45.015625 49.421875 
Q 45.015625 57.28125 41.125 61.84375 
Q 37.25 66.40625 30.609375 66.40625 
Q 23.96875 66.40625 20.09375 61.84375 
Q 16.21875 57.28125 16.21875 49.421875 
Q 16.21875 41.5 20.09375 36.953125 
Q 23.96875 32.421875 30.609375 32.421875 
z
" id="DejaVuSans-57"/>
      </defs>
      <g transform="translate(264.930601 337.118125)scale(0.12 -0.12)">
       <use xlink:href="#DejaVuSans-52"/>
       <use x="63.623047" xlink:href="#DejaVuSans-57"/>
      </g>
     </g>
    </g>
    <g id="xtick_5">
     <g id="line2d_13">
      <g>
       <use style="stroke:#000000;stroke-width:0.5;" x="325.809876" xlink:href="#mb60f810148" y="324"/>
      </g>
     </g>
     <g id="line2d_14">
      <g>
       <use style="stroke:#000000;stroke-width:0.5;" x="325.809876" xlink:href="#m3e2ad309bb" y="36"/>
      </g>
     </g>
     <g id="text_5">
      <!-- 65 -->
      <defs>
       <path d="M 33.015625 40.375 
Q 26.375 40.375 22.484375 35.828125 
Q 18.609375 31.296875 18.609375 23.390625 
Q 18.609375 15.53125 22.484375 10.953125 
Q 26.375 6.390625 33.015625 6.390625 
Q 39.65625 6.390625 43.53125 10.953125 
Q 47.40625 15.53125 47.40625 23.390625 
Q 47.40625 31.296875 43.53125 35.828125 
Q 39.65625 40.375 33.015625 40.375 
z
M 52.59375 71.296875 
L 52.59375 62.3125 
Q 48.875 64.0625 45.09375 64.984375 
Q 41.3125 65.921875 37.59375 65.921875 
Q 27.828125 65.921875 22.671875 59.328125 
Q 17.53125 52.734375 16.796875 39.40625 
Q 19.671875 43.65625 24.015625 45.921875 
Q 28.375 48.1875 33.59375 48.1875 
Q 44.578125 48.1875 50.953125 41.515625 
Q 57.328125 34.859375 57.328125 23.390625 
Q 57.328125 12.15625 50.6875 5.359375 
Q 44.046875 -1.421875 33.015625 -1.421875 
Q 20.359375 -1.421875 13.671875 8.265625 
Q 6.984375 17.96875 6.984375 36.375 
Q 6.984375 53.65625 15.1875 63.9375 
Q 23.390625 74.21875 37.203125 74.21875 
Q 40.921875 74.21875 44.703125 73.484375 
Q 48.484375 72.75 52.59375 71.296875 
z
" id="DejaVuSans-54"/>
       <path d="M 10.796875 72.90625 
L 49.515625 72.90625 
L 49.515625 64.59375 
L 19.828125 64.59375 
L 19.828125 46.734375 
Q 21.96875 47.46875 24.109375 47.828125 
Q 26.265625 48.1875 28.421875 48.1875 
Q 40.625 48.1875 47.75 41.5 
Q 54.890625 34.8125 54.890625 23.390625 
Q 54.890625 11.625 47.5625 5.09375 
Q 40.234375 -1.421875 26.90625 -1.421875 
Q 22.3125 -1.421875 17.546875 -0.640625 
Q 12.796875 0.140625 7.71875 1.703125 
L 7.71875 11.625 
Q 12.109375 9.234375 16.796875 8.0625 
Q 21.484375 6.890625 26.703125 6.890625 
Q 35.15625 6.890625 40.078125 11.328125 
Q 45.015625 15.765625 45.015625 23.390625 
Q 45.015625 31 40.078125 35.4375 
Q 35.15625 39.890625 26.703125 39.890625 
Q 22.75 39.890625 18.8125 39.015625 
Q 14.890625 38.140625 10.796875 36.28125 
z
" id="DejaVuSans-53"/>
      </defs>
      <g transform="translate(318.174876 337.118125)scale(0.12 -0.12)">
       <use xlink:href="#DejaVuSans-54"/>
       <use x="63.623047" xlink:href="#DejaVuSans-53"/>
      </g>
     </g>
    </g>
    <g id="xtick_6">
     <g id="line2d_15">
      <g>
       <use style="stroke:#000000;stroke-width:0.5;" x="379.054151" xlink:href="#mb60f810148" y="324"/>
      </g>
     </g>
     <g id="line2d_16">
      <g>
       <use style="stroke:#000000;stroke-width:0.5;" x="379.054151" xlink:href="#m3e2ad309bb" y="36"/>
      </g>
     </g>
     <g id="text_6">
      <!-- 81 -->
      <defs>
       <path d="M 31.78125 34.625 
Q 24.75 34.625 20.71875 30.859375 
Q 16.703125 27.09375 16.703125 20.515625 
Q 16.703125 13.921875 20.71875 10.15625 
Q 24.75 6.390625 31.78125 6.390625 
Q 38.8125 6.390625 42.859375 10.171875 
Q 46.921875 13.96875 46.921875 20.515625 
Q 46.921875 27.09375 42.890625 30.859375 
Q 38.875 34.625 31.78125 34.625 
z
M 21.921875 38.8125 
Q 15.578125 40.375 12.03125 44.71875 
Q 8.5 49.078125 8.5 55.328125 
Q 8.5 64.0625 14.71875 69.140625 
Q 20.953125 74.21875 31.78125 74.21875 
Q 42.671875 74.21875 48.875 69.140625 
Q 55.078125 64.0625 55.078125 55.328125 
Q 55.078125 49.078125 51.53125 44.71875 
Q 48 40.375 41.703125 38.8125 
Q 48.828125 37.15625 52.796875 32.3125 
Q 56.78125 27.484375 56.78125 20.515625 
Q 56.78125 9.90625 50.3125 4.234375 
Q 43.84375 -1.421875 31.78125 -1.421875 
Q 19.734375 -1.421875 13.25 4.234375 
Q 6.78125 9.90625 6.78125 20.515625 
Q 6.78125 27.484375 10.78125 32.3125 
Q 14.796875 37.15625 21.921875 38.8125 
z
M 18.3125 54.390625 
Q 18.3125 48.734375 21.84375 45.5625 
Q 25.390625 42.390625 31.78125 42.390625 
Q 38.140625 42.390625 41.71875 45.5625 
Q 45.3125 48.734375 45.3125 54.390625 
Q 45.3125 60.0625 41.71875 63.234375 
Q 38.140625 66.40625 31.78125 66.40625 
Q 25.390625 66.40625 21.84375 63.234375 
Q 18.3125 60.0625 18.3125 54.390625 
z
" id="DejaVuSans-56"/>
      </defs>
      <g transform="translate(371.419151 337.118125)scale(0.12 -0.12)">
       <use xlink:href="#DejaVuSans-56"/>
       <use x="63.623047" xlink:href="#DejaVuSans-49"/>
      </g>
     </g>
    </g>
    <g id="xtick_7">
     <g id="line2d_17">
      <g>
       <use style="stroke:#000000;stroke-width:0.5;" x="432.298426" xlink:href="#mb60f810148" y="324"/>
      </g>
     </g>
     <g id="line2d_18">
      <g>
       <use style="stroke:#000000;stroke-width:0.5;" x="432.298426" xlink:href="#m3e2ad309bb" y="36"/>
      </g>
     </g>
     <g id="text_7">
      <!-- 97 -->
      <g transform="translate(424.663426 337.118125)scale(0.12 -0.12)">
       <use xlink:href="#DejaVuSans-57"/>
       <use x="63.623047" xlink:href="#DejaVuSans-55"/>
      </g>
     </g>
    </g>
    <g id="xtick_8">
     <g id="line2d_19">
      <g>
       <use style="stroke:#000000;stroke-width:0.5;" x="485.5427" xlink:href="#mb60f810148" y="324"/>
      </g>
     </g>
     <g id="line2d_20">
      <g>
       <use style="stroke:#000000;stroke-width:0.5;" x="485.5427" xlink:href="#m3e2ad309bb" y="36"/>
      </g>
     </g>
     <g id="text_8">
      <!-- 113 -->
      <g transform="translate(474.0902 337.118125)scale(0.12 -0.12)">
       <use xlink:href="#DejaVuSans-49"/>
       <use x="63.623047" xlink:href="#DejaVuSans-49"/>
       <use x="127.246094" xlink:href="#DejaVuSans-51"/>
      </g>
     </g>
    </g>
    <g id="xtick_9">
     <g id="line2d_21">
      <g>
       <use style="stroke:#000000;stroke-width:0.5;" x="538.786975" xlink:href="#mb60f810148" y="324"/>
      </g>
     </g>
     <g id="line2d_22">
      <g>
       <use style="stroke:#000000;stroke-width:0.5;" x="538.786975" xlink:href="#m3e2ad309bb" y="36"/>
      </g>
     </g>
     <g id="text_9">
      <!-- 129 -->
      <defs>
       <path d="M 19.1875 8.296875 
L 53.609375 8.296875 
L 53.609375 0 
L 7.328125 0 
L 7.328125 8.296875 
Q 12.9375 14.109375 22.625 23.890625 
Q 32.328125 33.6875 34.8125 36.53125 
Q 39.546875 41.84375 41.421875 45.53125 
Q 43.3125 49.21875 43.3125 52.78125 
Q 43.3125 58.59375 39.234375 62.25 
Q 35.15625 65.921875 28.609375 65.921875 
Q 23.96875 65.921875 18.8125 64.3125 
Q 13.671875 62.703125 7.8125 59.421875 
L 7.8125 69.390625 
Q 13.765625 71.78125 18.9375 73 
Q 24.125 74.21875 28.421875 74.21875 
Q 39.75 74.21875 46.484375 68.546875 
Q 53.21875 62.890625 53.21875 53.421875 
Q 53.21875 48.921875 51.53125 44.890625 
Q 49.859375 40.875 45.40625 35.40625 
Q 44.1875 33.984375 37.640625 27.21875 
Q 31.109375 20.453125 19.1875 8.296875 
z
" id="DejaVuSans-50"/>
      </defs>
      <g transform="translate(527.334475 337.118125)scale(0.12 -0.12)">
       <use xlink:href="#DejaVuSans-49"/>
       <use x="63.623047" xlink:href="#DejaVuSans-50"/>
       <use x="127.246094" xlink:href="#DejaVuSans-57"/>
      </g>
     </g>
    </g>
    <g id="xtick_10">
     <g id="line2d_23">
      <g>
       <use style="stroke:#000000;stroke-width:0.5;" x="592.03125" xlink:href="#mb60f810148" y="324"/>
      </g>
     </g>
     <g id="line2d_24">
      <g>
       <use style="stroke:#000000;stroke-width:0.5;" x="592.03125" xlink:href="#m3e2ad309bb" y="36"/>
      </g>
     </g>
     <g id="text_10">
      <!-- 145 -->
      <g transform="translate(580.57875 337.118125)scale(0.12 -0.12)">
       <use xlink:href="#DejaVuSans-49"/>
       <use x="63.623047" xlink:href="#DejaVuSans-52"/>
       <use x="127.246094" xlink:href="#DejaVuSans-53"/>
      </g>
     </g>
    </g>
    <g id="text_11">
     <!-- generation -->
     <defs>
      <path d="M 45.40625 27.984375 
Q 45.40625 37.75 41.375 43.109375 
Q 37.359375 48.484375 30.078125 48.484375 
Q 22.859375 48.484375 18.828125 43.109375 
Q 14.796875 37.75 14.796875 27.984375 
Q 14.796875 18.265625 18.828125 12.890625 
Q 22.859375 7.515625 30.078125 7.515625 
Q 37.359375 7.515625 41.375 12.890625 
Q 45.40625 18.265625 45.40625 27.984375 
z
M 54.390625 6.78125 
Q 54.390625 -7.171875 48.1875 -13.984375 
Q 42 -20.796875 29.203125 -20.796875 
Q 24.46875 -20.796875 20.265625 -20.09375 
Q 16.0625 -19.390625 12.109375 -17.921875 
L 12.109375 -9.1875 
Q 16.0625 -11.328125 19.921875 -12.34375 
Q 23.78125 -13.375 27.78125 -13.375 
Q 36.625 -13.375 41.015625 -8.765625 
Q 45.40625 -4.15625 45.40625 5.171875 
L 45.40625 9.625 
Q 42.625 4.78125 38.28125 2.390625 
Q 33.9375 0 27.875 0 
Q 17.828125 0 11.671875 7.65625 
Q 5.515625 15.328125 5.515625 27.984375 
Q 5.515625 40.671875 11.671875 48.328125 
Q 17.828125 56 27.875 56 
Q 33.9375 56 38.28125 53.609375 
Q 42.625 51.21875 45.40625 46.390625 
L 45.40625 54.6875 
L 54.390625 54.6875 
z
" id="DejaVuSans-103"/>
      <path d="M 56.203125 29.59375 
L 56.203125 25.203125 
L 14.890625 25.203125 
Q 15.484375 15.921875 20.484375 11.0625 
Q 25.484375 6.203125 34.421875 6.203125 
Q 39.59375 6.203125 44.453125 7.46875 
Q 49.3125 8.734375 54.109375 11.28125 
L 54.109375 2.78125 
Q 49.265625 0.734375 44.1875 -0.34375 
Q 39.109375 -1.421875 33.890625 -1.421875 
Q 20.796875 -1.421875 13.15625 6.1875 
Q 5.515625 13.8125 5.515625 26.8125 
Q 5.515625 40.234375 12.765625 48.109375 
Q 20.015625 56 32.328125 56 
Q 43.359375 56 49.78125 48.890625 
Q 56.203125 41.796875 56.203125 29.59375 
z
M 47.21875 32.234375 
Q 47.125 39.59375 43.09375 43.984375 
Q 39.0625 48.390625 32.421875 48.390625 
Q 24.90625 48.390625 20.390625 44.140625 
Q 15.875 39.890625 15.1875 32.171875 
z
" id="DejaVuSans-101"/>
      <path d="M 54.890625 33.015625 
L 54.890625 0 
L 45.90625 0 
L 45.90625 32.71875 
Q 45.90625 40.484375 42.875 44.328125 
Q 39.84375 48.1875 33.796875 48.1875 
Q 26.515625 48.1875 22.3125 43.546875 
Q 18.109375 38.921875 18.109375 30.90625 
L 18.109375 0 
L 9.078125 0 
L 9.078125 54.6875 
L 18.109375 54.6875 
L 18.109375 46.1875 
Q 21.34375 51.125 25.703125 53.5625 
Q 30.078125 56 35.796875 56 
Q 45.21875 56 50.046875 50.171875 
Q 54.890625 44.34375 54.890625 33.015625 
z
" id="DejaVuSans-110"/>
      <path d="M 41.109375 46.296875 
Q 39.59375 47.171875 37.8125 47.578125 
Q 36.03125 48 33.890625 48 
Q 26.265625 48 22.1875 43.046875 
Q 18.109375 38.09375 18.109375 28.8125 
L 18.109375 0 
L 9.078125 0 
L 9.078125 54.6875 
L 18.109375 54.6875 
L 18.109375 46.1875 
Q 20.953125 51.171875 25.484375 53.578125 
Q 30.03125 56 36.53125 56 
Q 37.453125 56 38.578125 55.875 
Q 39.703125 55.765625 41.0625 55.515625 
z
" id="DejaVuSans-114"/>
      <path d="M 34.28125 27.484375 
Q 23.390625 27.484375 19.1875 25 
Q 14.984375 22.515625 14.984375 16.5 
Q 14.984375 11.71875 18.140625 8.90625 
Q 21.296875 6.109375 26.703125 6.109375 
Q 34.1875 6.109375 38.703125 11.40625 
Q 43.21875 16.703125 43.21875 25.484375 
L 43.21875 27.484375 
z
M 52.203125 31.203125 
L 52.203125 0 
L 43.21875 0 
L 43.21875 8.296875 
Q 40.140625 3.328125 35.546875 0.953125 
Q 30.953125 -1.421875 24.3125 -1.421875 
Q 15.921875 -1.421875 10.953125 3.296875 
Q 6 8.015625 6 15.921875 
Q 6 25.140625 12.171875 29.828125 
Q 18.359375 34.515625 30.609375 34.515625 
L 43.21875 34.515625 
L 43.21875 35.40625 
Q 43.21875 41.609375 39.140625 45 
Q 35.0625 48.390625 27.6875 48.390625 
Q 23 48.390625 18.546875 47.265625 
Q 14.109375 46.140625 10.015625 43.890625 
L 10.015625 52.203125 
Q 14.9375 54.109375 19.578125 55.046875 
Q 24.21875 56 28.609375 56 
Q 40.484375 56 46.34375 49.84375 
Q 52.203125 43.703125 52.203125 31.203125 
z
" id="DejaVuSans-97"/>
      <path d="M 18.3125 70.21875 
L 18.3125 54.6875 
L 36.8125 54.6875 
L 36.8125 47.703125 
L 18.3125 47.703125 
L 18.3125 18.015625 
Q 18.3125 11.328125 20.140625 9.421875 
Q 21.96875 7.515625 27.59375 7.515625 
L 36.8125 7.515625 
L 36.8125 0 
L 27.59375 0 
Q 17.1875 0 13.234375 3.875 
Q 9.28125 7.765625 9.28125 18.015625 
L 9.28125 47.703125 
L 2.6875 47.703125 
L 2.6875 54.6875 
L 9.28125 54.6875 
L 9.28125 70.21875 
z
" id="DejaVuSans-116"/>
      <path d="M 9.421875 54.6875 
L 18.40625 54.6875 
L 18.40625 0 
L 9.421875 0 
z
M 9.421875 75.984375 
L 18.40625 75.984375 
L 18.40625 64.59375 
L 9.421875 64.59375 
z
" id="DejaVuSans-105"/>
      <path d="M 30.609375 48.390625 
Q 23.390625 48.390625 19.1875 42.75 
Q 14.984375 37.109375 14.984375 27.296875 
Q 14.984375 17.484375 19.15625 11.84375 
Q 23.34375 6.203125 30.609375 6.203125 
Q 37.796875 6.203125 41.984375 11.859375 
Q 46.1875 17.53125 46.1875 27.296875 
Q 46.1875 37.015625 41.984375 42.703125 
Q 37.796875 48.390625 30.609375 48.390625 
z
M 30.609375 56 
Q 42.328125 56 49.015625 48.375 
Q 55.71875 40.765625 55.71875 27.296875 
Q 55.71875 13.875 49.015625 6.21875 
Q 42.328125 -1.421875 30.609375 -1.421875 
Q 18.84375 -1.421875 12.171875 6.21875 
Q 5.515625 13.875 5.515625 27.296875 
Q 5.515625 40.765625 12.171875 48.375 
Q 18.84375 56 30.609375 56 
z
" id="DejaVuSans-111"/>
     </defs>
     <g transform="translate(341.430938 353.731875)scale(0.12 -0.12)">
      <use xlink:href="#DejaVuSans-103"/>
      <use x="63.476562" xlink:href="#DejaVuSans-101"/>
      <use x="125" xlink:href="#DejaVuSans-110"/>
      <use x="188.378906" xlink:href="#DejaVuSans-101"/>
      <use x="249.902344" xlink:href="#DejaVuSans-114"/>
      <use x="291.015625" xlink:href="#DejaVuSans-97"/>
      <use x="352.294922" xlink:href="#DejaVuSans-116"/>
      <use x="391.503906" xlink:href="#DejaVuSans-105"/>
      <use x="419.287109" xlink:href="#DejaVuSans-111"/>
      <use x="480.46875" xlink:href="#DejaVuSans-110"/>
     </g>
    </g>
   </g>
   <g id="matplotlib.axis_2">
    <g id="ytick_1">
     <g id="line2d_25">
      <defs>
       <path d="M 0 0 
L 4 0 
" id="m5e9e820994" style="stroke:#000000;stroke-width:0.5;"/>
      </defs>
      <g>
       <use style="stroke:#000000;stroke-width:0.5;" x="112.5" xlink:href="#m5e9e820994" y="324"/>
      </g>
     </g>
     <g id="line2d_26">
      <defs>
       <path d="M 0 0 
L -4 0 
" id="m04ceb7d258" style="stroke:#000000;stroke-width:0.5;"/>
      </defs>
      <g>
       <use style="stroke:#000000;stroke-width:0.5;" x="635.625" xlink:href="#m04ceb7d258" y="324"/>
      </g>
     </g>
     <g id="text_12">
      <!-- 0 -->
      <defs>
       <path d="M 31.78125 66.40625 
Q 24.171875 66.40625 20.328125 58.90625 
Q 16.5 51.421875 16.5 36.375 
Q 16.5 21.390625 20.328125 13.890625 
Q 24.171875 6.390625 31.78125 6.390625 
Q 39.453125 6.390625 43.28125 13.890625 
Q 47.125 21.390625 47.125 36.375 
Q 47.125 51.421875 43.28125 58.90625 
Q 39.453125 66.40625 31.78125 66.40625 
z
M 31.78125 74.21875 
Q 44.046875 74.21875 50.515625 64.515625 
Q 56.984375 54.828125 56.984375 36.375 
Q 56.984375 17.96875 50.515625 8.265625 
Q 44.046875 -1.421875 31.78125 -1.421875 
Q 19.53125 -1.421875 13.0625 8.265625 
Q 6.59375 17.96875 6.59375 36.375 
Q 6.59375 54.828125 13.0625 64.515625 
Q 19.53125 74.21875 31.78125 74.21875 
z
" id="DejaVuSans-48"/>
      </defs>
      <g transform="translate(100.865 327.31125)scale(0.12 -0.12)">
       <use xlink:href="#DejaVuSans-48"/>
      </g>
     </g>
    </g>
    <g id="ytick_2">
     <g id="line2d_27">
      <g>
       <use style="stroke:#000000;stroke-width:0.5;" x="112.5" xlink:href="#m5e9e820994" y="292"/>
      </g>
     </g>
     <g id="line2d_28">
      <g>
       <use style="stroke:#000000;stroke-width:0.5;" x="635.625" xlink:href="#m04ceb7d258" y="292"/>
      </g>
     </g>
     <g id="text_13">
      <!-- 500,000 -->
      <defs>
       <path d="M 11.71875 12.40625 
L 22.015625 12.40625 
L 22.015625 4 
L 14.015625 -11.625 
L 7.71875 -11.625 
L 11.71875 4 
z
" id="DejaVuSans-44"/>
      </defs>
      <g transform="translate(58.87625 295.31125)scale(0.12 -0.12)">
       <use xlink:href="#DejaVuSans-53"/>
       <use x="63.623047" xlink:href="#DejaVuSans-48"/>
       <use x="127.246094" xlink:href="#DejaVuSans-48"/>
       <use x="190.869141" xlink:href="#DejaVuSans-44"/>
       <use x="222.65625" xlink:href="#DejaVuSans-48"/>
       <use x="286.279297" xlink:href="#DejaVuSans-48"/>
       <use x="349.902344" xlink:href="#DejaVuSans-48"/>
      </g>
     </g>
    </g>
    <g id="ytick_3">
     <g id="line2d_29">
      <g>
       <use style="stroke:#000000;stroke-width:0.5;" x="112.5" xlink:href="#m5e9e820994" y="260"/>
      </g>
     </g>
     <g id="line2d_30">
      <g>
       <use style="stroke:#000000;stroke-width:0.5;" x="635.625" xlink:href="#m04ceb7d258" y="260"/>
      </g>
     </g>
     <g id="text_14">
      <!-- 1,000,000 -->
      <g transform="translate(47.4275 263.31125)scale(0.12 -0.12)">
       <use xlink:href="#DejaVuSans-49"/>
       <use x="63.623047" xlink:href="#DejaVuSans-44"/>
       <use x="95.410156" xlink:href="#DejaVuSans-48"/>
       <use x="159.033203" xlink:href="#DejaVuSans-48"/>
       <use x="222.65625" xlink:href="#DejaVuSans-48"/>
       <use x="286.279297" xlink:href="#DejaVuSans-44"/>
       <use x="318.066406" xlink:href="#DejaVuSans-48"/>
       <use x="381.689453" xlink:href="#DejaVuSans-48"/>
       <use x="445.3125" xlink:href="#DejaVuSans-48"/>
      </g>
     </g>
    </g>
    <g id="ytick_4">
     <g id="line2d_31">
      <g>
       <use style="stroke:#000000;stroke-width:0.5;" x="112.5" xlink:href="#m5e9e820994" y="228"/>
      </g>
     </g>
     <g id="line2d_32">
      <g>
       <use style="stroke:#000000;stroke-width:0.5;" x="635.625" xlink:href="#m04ceb7d258" y="228"/>
      </g>
     </g>
     <g id="text_15">
      <!-- 1,500,000 -->
      <g transform="translate(47.4275 231.31125)scale(0.12 -0.12)">
       <use xlink:href="#DejaVuSans-49"/>
       <use x="63.623047" xlink:href="#DejaVuSans-44"/>
       <use x="95.410156" xlink:href="#DejaVuSans-53"/>
       <use x="159.033203" xlink:href="#DejaVuSans-48"/>
       <use x="222.65625" xlink:href="#DejaVuSans-48"/>
       <use x="286.279297" xlink:href="#DejaVuSans-44"/>
       <use x="318.066406" xlink:href="#DejaVuSans-48"/>
       <use x="381.689453" xlink:href="#DejaVuSans-48"/>
       <use x="445.3125" xlink:href="#DejaVuSans-48"/>
      </g>
     </g>
    </g>
    <g id="ytick_5">
     <g id="line2d_33">
      <g>
       <use style="stroke:#000000;stroke-width:0.5;" x="112.5" xlink:href="#m5e9e820994" y="196"/>
      </g>
     </g>
     <g id="line2d_34">
      <g>
       <use style="stroke:#000000;stroke-width:0.5;" x="635.625" xlink:href="#m04ceb7d258" y="196"/>
      </g>
     </g>
     <g id="text_16">
      <!-- 2,000,000 -->
      <g transform="translate(47.4275 199.31125)scale(0.12 -0.12)">
       <use xlink:href="#DejaVuSans-50"/>
       <use x="63.623047" xlink:href="#DejaVuSans-44"/>
       <use x="95.410156" xlink:href="#DejaVuSans-48"/>
       <use x="159.033203" xlink:href="#DejaVuSans-48"/>
       <use x="222.65625" xlink:href="#DejaVuSans-48"/>
       <use x="286.279297" xlink:href="#DejaVuSans-44"/>
       <use x="318.066406" xlink:href="#DejaVuSans-48"/>
       <use x="381.689453" xlink:href="#DejaVuSans-48"/>
       <use x="445.3125" xlink:href="#DejaVuSans-48"/>
      </g>
     </g>
    </g>
    <g id="ytick_6">
     <g id="line2d_35">
      <g>
       <use style="stroke:#000000;stroke-width:0.5;" x="112.5" xlink:href="#m5e9e820994" y="164"/>
      </g>
     </g>
     <g id="line2d_36">
      <g>
       <use style="stroke:#000000;stroke-width:0.5;" x="635.625" xlink:href="#m04ceb7d258" y="164"/>
      </g>
     </g>
     <g id="text_17">
      <!-- 2,500,000 -->
      <g transform="translate(47.4275 167.31125)scale(0.12 -0.12)">
       <use xlink:href="#DejaVuSans-50"/>
       <use x="63.623047" xlink:href="#DejaVuSans-44"/>
       <use x="95.410156" xlink:href="#DejaVuSans-53"/>
       <use x="159.033203" xlink:href="#DejaVuSans-48"/>
       <use x="222.65625" xlink:href="#DejaVuSans-48"/>
       <use x="286.279297" xlink:href="#DejaVuSans-44"/>
       <use x="318.066406" xlink:href="#DejaVuSans-48"/>
       <use x="381.689453" xlink:href="#DejaVuSans-48"/>
       <use x="445.3125" xlink:href="#DejaVuSans-48"/>
      </g>
     </g>
    </g>
    <g id="ytick_7">
     <g id="line2d_37">
      <g>
       <use style="stroke:#000000;stroke-width:0.5;" x="112.5" xlink:href="#m5e9e820994" y="132"/>
      </g>
     </g>
     <g id="line2d_38">
      <g>
       <use style="stroke:#000000;stroke-width:0.5;" x="635.625" xlink:href="#m04ceb7d258" y="132"/>
      </g>
     </g>
     <g id="text_18">
      <!-- 3,000,000 -->
      <g transform="translate(47.4275 135.31125)scale(0.12 -0.12)">
       <use xlink:href="#DejaVuSans-51"/>
       <use x="63.623047" xlink:href="#DejaVuSans-44"/>
       <use x="95.410156" xlink:href="#DejaVuSans-48"/>
       <use x="159.033203" xlink:href="#DejaVuSans-48"/>
       <use x="222.65625" xlink:href="#DejaVuSans-48"/>
       <use x="286.279297" xlink:href="#DejaVuSans-44"/>
       <use x="318.066406" xlink:href="#DejaVuSans-48"/>
       <use x="381.689453" xlink:href="#DejaVuSans-48"/>
       <use x="445.3125" xlink:href="#DejaVuSans-48"/>
      </g>
     </g>
    </g>
    <g id="ytick_8">
     <g id="line2d_39">
      <g>
       <use style="stroke:#000000;stroke-width:0.5;" x="112.5" xlink:href="#m5e9e820994" y="100"/>
      </g>
     </g>
     <g id="line2d_40">
      <g>
       <use style="stroke:#000000;stroke-width:0.5;" x="635.625" xlink:href="#m04ceb7d258" y="100"/>
      </g>
     </g>
     <g id="text_19">
      <!-- 3,500,000 -->
      <g transform="translate(47.4275 103.31125)scale(0.12 -0.12)">
       <use xlink:href="#DejaVuSans-51"/>
       <use x="63.623047" xlink:href="#DejaVuSans-44"/>
       <use x="95.410156" xlink:href="#DejaVuSans-53"/>
       <use x="159.033203" xlink:href="#DejaVuSans-48"/>
       <use x="222.65625" xlink:href="#DejaVuSans-48"/>
       <use x="286.279297" xlink:href="#DejaVuSans-44"/>
       <use x="318.066406" xlink:href="#DejaVuSans-48"/>
       <use x="381.689453" xlink:href="#DejaVuSans-48"/>
       <use x="445.3125" xlink:href="#DejaVuSans-48"/>
      </g>
     </g>
    </g>
    <g id="ytick_9">
     <g id="line2d_41">
      <g>
       <use style="stroke:#000000;stroke-width:0.5;" x="112.5" xlink:href="#m5e9e820994" y="68"/>
      </g>
     </g>
     <g id="line2d_42">
      <g>
       <use style="stroke:#000000;stroke-width:0.5;" x="635.625" xlink:href="#m04ceb7d258" y="68"/>
      </g>
     </g>
     <g id="text_20">
      <!-- 4,000,000 -->
      <g transform="translate(47.4275 71.31125)scale(0.12 -0.12)">
       <use xlink:href="#DejaVuSans-52"/>
       <use x="63.623047" xlink:href="#DejaVuSans-44"/>
       <use x="95.410156" xlink:href="#DejaVuSans-48"/>
       <use x="159.033203" xlink:href="#DejaVuSans-48"/>
       <use x="222.65625" xlink:href="#DejaVuSans-48"/>
       <use x="286.279297" xlink:href="#DejaVuSans-44"/>
       <use x="318.066406" xlink:href="#DejaVuSans-48"/>
       <use x="381.689453" xlink:href="#DejaVuSans-48"/>
       <use x="445.3125" xlink:href="#DejaVuSans-48"/>
      </g>
     </g>
    </g>
    <g id="ytick_10">
     <g id="line2d_43">
      <g>
       <use style="stroke:#000000;stroke-width:0.5;" x="112.5" xlink:href="#m5e9e820994" y="36"/>
      </g>
     </g>
     <g id="line2d_44">
      <g>
       <use style="stroke:#000000;stroke-width:0.5;" x="635.625" xlink:href="#m04ceb7d258" y="36"/>
      </g>
     </g>
     <g id="text_21">
      <!-- 4,500,000 -->
      <g transform="translate(47.4275 39.31125)scale(0.12 -0.12)">
       <use xlink:href="#DejaVuSans-52"/>
       <use x="63.623047" xlink:href="#DejaVuSans-44"/>
       <use x="95.410156" xlink:href="#DejaVuSans-53"/>
       <use x="159.033203" xlink:href="#DejaVuSans-48"/>
       <use x="222.65625" xlink:href="#DejaVuSans-48"/>
       <use x="286.279297" xlink:href="#DejaVuSans-44"/>
       <use x="318.066406" xlink:href="#DejaVuSans-48"/>
       <use x="381.689453" xlink:href="#DejaVuSans-48"/>
       <use x="445.3125" xlink:href="#DejaVuSans-48"/>
      </g>
     </g>
    </g>
    <g id="text_22">
     <!-- parameters -->
     <defs>
      <path d="M 18.109375 8.203125 
L 18.109375 -20.796875 
L 9.078125 -20.796875 
L 9.078125 54.6875 
L 18.109375 54.6875 
L 18.109375 46.390625 
Q 20.953125 51.265625 25.265625 53.625 
Q 29.59375 56 35.59375 56 
Q 45.5625 56 51.78125 48.09375 
Q 58.015625 40.1875 58.015625 27.296875 
Q 58.015625 14.40625 51.78125 6.484375 
Q 45.5625 -1.421875 35.59375 -1.421875 
Q 29.59375 -1.421875 25.265625 0.953125 
Q 20.953125 3.328125 18.109375 8.203125 
z
M 48.6875 27.296875 
Q 48.6875 37.203125 44.609375 42.84375 
Q 40.53125 48.484375 33.40625 48.484375 
Q 26.265625 48.484375 22.1875 42.84375 
Q 18.109375 37.203125 18.109375 27.296875 
Q 18.109375 17.390625 22.1875 11.75 
Q 26.265625 6.109375 33.40625 6.109375 
Q 40.53125 6.109375 44.609375 11.75 
Q 48.6875 17.390625 48.6875 27.296875 
z
" id="DejaVuSans-112"/>
      <path d="M 52 44.1875 
Q 55.375 50.25 60.0625 53.125 
Q 64.75 56 71.09375 56 
Q 79.640625 56 84.28125 50.015625 
Q 88.921875 44.046875 88.921875 33.015625 
L 88.921875 0 
L 79.890625 0 
L 79.890625 32.71875 
Q 79.890625 40.578125 77.09375 44.375 
Q 74.3125 48.1875 68.609375 48.1875 
Q 61.625 48.1875 57.5625 43.546875 
Q 53.515625 38.921875 53.515625 30.90625 
L 53.515625 0 
L 44.484375 0 
L 44.484375 32.71875 
Q 44.484375 40.625 41.703125 44.40625 
Q 38.921875 48.1875 33.109375 48.1875 
Q 26.21875 48.1875 22.15625 43.53125 
Q 18.109375 38.875 18.109375 30.90625 
L 18.109375 0 
L 9.078125 0 
L 9.078125 54.6875 
L 18.109375 54.6875 
L 18.109375 46.1875 
Q 21.1875 51.21875 25.484375 53.609375 
Q 29.78125 56 35.6875 56 
Q 41.65625 56 45.828125 52.96875 
Q 50 49.953125 52 44.1875 
z
" id="DejaVuSans-109"/>
      <path d="M 44.28125 53.078125 
L 44.28125 44.578125 
Q 40.484375 46.53125 36.375 47.5 
Q 32.28125 48.484375 27.875 48.484375 
Q 21.1875 48.484375 17.84375 46.4375 
Q 14.5 44.390625 14.5 40.28125 
Q 14.5 37.15625 16.890625 35.375 
Q 19.28125 33.59375 26.515625 31.984375 
L 29.59375 31.296875 
Q 39.15625 29.25 43.1875 25.515625 
Q 47.21875 21.78125 47.21875 15.09375 
Q 47.21875 7.46875 41.1875 3.015625 
Q 35.15625 -1.421875 24.609375 -1.421875 
Q 20.21875 -1.421875 15.453125 -0.5625 
Q 10.6875 0.296875 5.421875 2 
L 5.421875 11.28125 
Q 10.40625 8.6875 15.234375 7.390625 
Q 20.0625 6.109375 24.8125 6.109375 
Q 31.15625 6.109375 34.5625 8.28125 
Q 37.984375 10.453125 37.984375 14.40625 
Q 37.984375 18.0625 35.515625 20.015625 
Q 33.0625 21.96875 24.703125 23.78125 
L 21.578125 24.515625 
Q 13.234375 26.265625 9.515625 29.90625 
Q 5.8125 33.546875 5.8125 39.890625 
Q 5.8125 47.609375 11.28125 51.796875 
Q 16.75 56 26.8125 56 
Q 31.78125 56 36.171875 55.265625 
Q 40.578125 54.546875 44.28125 53.078125 
z
" id="DejaVuSans-115"/>
     </defs>
     <g transform="translate(39.931875 214.801875)rotate(-90)scale(0.12 -0.12)">
      <use xlink:href="#DejaVuSans-112"/>
      <use x="63.476562" xlink:href="#DejaVuSans-97"/>
      <use x="124.755859" xlink:href="#DejaVuSans-114"/>
      <use x="165.869141" xlink:href="#DejaVuSans-97"/>
      <use x="227.148438" xlink:href="#DejaVuSans-109"/>
      <use x="324.560547" xlink:href="#DejaVuSans-101"/>
      <use x="386.083984" xlink:href="#DejaVuSans-116"/>
      <use x="425.292969" xlink:href="#DejaVuSans-101"/>
      <use x="486.816406" xlink:href="#DejaVuSans-114"/>
      <use x="527.929688" xlink:href="#DejaVuSans-115"/>
     </g>
    </g>
   </g>
   <g id="legend_1">
    <g id="patch_7">
     <path d="M 640.623 211.399935 
L 847.074761 211.399935 
L 847.074761 148.600065 
L 640.623 148.600065 
z
" style="fill:#ffffff;stroke:#000000;stroke-linejoin:miter;"/>
    </g>
    <g id="line2d_45">
     <path d="M 647.6202 156.695263 
L 661.6146 156.695263 
" style="fill:none;stroke:#0000ff;stroke-linecap:square;stroke-width:1.2;"/>
    </g>
    <g id="line2d_46"/>
    <g id="text_23">
     <!-- Lonely_Loss_LS_5 -->
     <defs>
      <path d="M 9.8125 72.90625 
L 19.671875 72.90625 
L 19.671875 8.296875 
L 55.171875 8.296875 
L 55.171875 0 
L 9.8125 0 
z
" id="DejaVuSans-76"/>
      <path d="M 9.421875 75.984375 
L 18.40625 75.984375 
L 18.40625 0 
L 9.421875 0 
z
" id="DejaVuSans-108"/>
      <path d="M 32.171875 -5.078125 
Q 28.375 -14.84375 24.75 -17.8125 
Q 21.140625 -20.796875 15.09375 -20.796875 
L 7.90625 -20.796875 
L 7.90625 -13.28125 
L 13.1875 -13.28125 
Q 16.890625 -13.28125 18.9375 -11.515625 
Q 21 -9.765625 23.484375 -3.21875 
L 25.09375 0.875 
L 2.984375 54.6875 
L 12.5 54.6875 
L 29.59375 11.921875 
L 46.6875 54.6875 
L 56.203125 54.6875 
z
" id="DejaVuSans-121"/>
      <path d="M 50.984375 -16.609375 
L 50.984375 -23.578125 
L -0.984375 -23.578125 
L -0.984375 -16.609375 
z
" id="DejaVuSans-95"/>
      <path d="M 53.515625 70.515625 
L 53.515625 60.890625 
Q 47.90625 63.578125 42.921875 64.890625 
Q 37.9375 66.21875 33.296875 66.21875 
Q 25.25 66.21875 20.875 63.09375 
Q 16.5 59.96875 16.5 54.203125 
Q 16.5 49.359375 19.40625 46.890625 
Q 22.3125 44.4375 30.421875 42.921875 
L 36.375 41.703125 
Q 47.40625 39.59375 52.65625 34.296875 
Q 57.90625 29 57.90625 20.125 
Q 57.90625 9.515625 50.796875 4.046875 
Q 43.703125 -1.421875 29.984375 -1.421875 
Q 24.8125 -1.421875 18.96875 -0.25 
Q 13.140625 0.921875 6.890625 3.21875 
L 6.890625 13.375 
Q 12.890625 10.015625 18.65625 8.296875 
Q 24.421875 6.59375 29.984375 6.59375 
Q 38.421875 6.59375 43.015625 9.90625 
Q 47.609375 13.234375 47.609375 19.390625 
Q 47.609375 24.75 44.3125 27.78125 
Q 41.015625 30.8125 33.5 32.328125 
L 27.484375 33.5 
Q 16.453125 35.6875 11.515625 40.375 
Q 6.59375 45.0625 6.59375 53.421875 
Q 6.59375 63.09375 13.40625 68.65625 
Q 20.21875 74.21875 32.171875 74.21875 
Q 37.3125 74.21875 42.625 73.28125 
Q 47.953125 72.359375 53.515625 70.515625 
z
" id="DejaVuSans-83"/>
     </defs>
     <g transform="translate(672.6102 160.193863)scale(0.09996 -0.09996)">
      <use xlink:href="#DejaVuSans-76"/>
      <use x="53.962891" xlink:href="#DejaVuSans-111"/>
      <use x="115.144531" xlink:href="#DejaVuSans-110"/>
      <use x="178.523438" xlink:href="#DejaVuSans-101"/>
      <use x="240.046875" xlink:href="#DejaVuSans-108"/>
      <use x="267.830078" xlink:href="#DejaVuSans-121"/>
      <use x="327.009766" xlink:href="#DejaVuSans-95"/>
      <use x="377.009766" xlink:href="#DejaVuSans-76"/>
      <use x="430.972656" xlink:href="#DejaVuSans-111"/>
      <use x="492.154297" xlink:href="#DejaVuSans-115"/>
      <use x="544.253906" xlink:href="#DejaVuSans-115"/>
      <use x="596.353516" xlink:href="#DejaVuSans-95"/>
      <use x="646.353516" xlink:href="#DejaVuSans-76"/>
      <use x="702.066406" xlink:href="#DejaVuSans-83"/>
      <use x="765.542969" xlink:href="#DejaVuSans-95"/>
      <use x="815.542969" xlink:href="#DejaVuSans-53"/>
     </g>
    </g>
    <g id="line2d_47">
     <path d="M 647.6202 171.645531 
L 661.6146 171.645531 
" style="fill:none;stroke:#008000;stroke-linecap:square;stroke-width:1.2;"/>
    </g>
    <g id="line2d_48"/>
    <g id="text_24">
     <!-- Lonely_Los_Layers_5 -->
     <g transform="translate(672.6102 175.144131)scale(0.09996 -0.09996)">
      <use xlink:href="#DejaVuSans-76"/>
      <use x="53.962891" xlink:href="#DejaVuSans-111"/>
      <use x="115.144531" xlink:href="#DejaVuSans-110"/>
      <use x="178.523438" xlink:href="#DejaVuSans-101"/>
      <use x="240.046875" xlink:href="#DejaVuSans-108"/>
      <use x="267.830078" xlink:href="#DejaVuSans-121"/>
      <use x="327.009766" xlink:href="#DejaVuSans-95"/>
      <use x="377.009766" xlink:href="#DejaVuSans-76"/>
      <use x="430.972656" xlink:href="#DejaVuSans-111"/>
      <use x="492.154297" xlink:href="#DejaVuSans-115"/>
      <use x="544.253906" xlink:href="#DejaVuSans-95"/>
      <use x="594.253906" xlink:href="#DejaVuSans-76"/>
      <use x="649.966797" xlink:href="#DejaVuSans-97"/>
      <use x="711.246094" xlink:href="#DejaVuSans-121"/>
      <use x="770.425781" xlink:href="#DejaVuSans-101"/>
      <use x="831.949219" xlink:href="#DejaVuSans-114"/>
      <use x="873.0625" xlink:href="#DejaVuSans-115"/>
      <use x="925.162109" xlink:href="#DejaVuSans-95"/>
      <use x="975.162109" xlink:href="#DejaVuSans-53"/>
     </g>
    </g>
    <g id="line2d_49">
     <path d="M 647.6202 186.595798 
L 661.6146 186.595798 
" style="fill:none;stroke:#ff0000;stroke-linecap:square;stroke-width:1.2;"/>
    </g>
    <g id="line2d_50"/>
    <g id="text_25">
     <!-- Lonely_Los_Layers_Mut_All_5 -->
     <defs>
      <path d="M 9.8125 72.90625 
L 24.515625 72.90625 
L 43.109375 23.296875 
L 61.8125 72.90625 
L 76.515625 72.90625 
L 76.515625 0 
L 66.890625 0 
L 66.890625 64.015625 
L 48.09375 14.015625 
L 38.1875 14.015625 
L 19.390625 64.015625 
L 19.390625 0 
L 9.8125 0 
z
" id="DejaVuSans-77"/>
      <path d="M 8.5 21.578125 
L 8.5 54.6875 
L 17.484375 54.6875 
L 17.484375 21.921875 
Q 17.484375 14.15625 20.5 10.265625 
Q 23.53125 6.390625 29.59375 6.390625 
Q 36.859375 6.390625 41.078125 11.03125 
Q 45.3125 15.671875 45.3125 23.6875 
L 45.3125 54.6875 
L 54.296875 54.6875 
L 54.296875 0 
L 45.3125 0 
L 45.3125 8.40625 
Q 42.046875 3.421875 37.71875 1 
Q 33.40625 -1.421875 27.6875 -1.421875 
Q 18.265625 -1.421875 13.375 4.4375 
Q 8.5 10.296875 8.5 21.578125 
z
M 31.109375 56 
z
" id="DejaVuSans-117"/>
      <path d="M 34.1875 63.1875 
L 20.796875 26.90625 
L 47.609375 26.90625 
z
M 28.609375 72.90625 
L 39.796875 72.90625 
L 67.578125 0 
L 57.328125 0 
L 50.6875 18.703125 
L 17.828125 18.703125 
L 11.1875 0 
L 0.78125 0 
z
" id="DejaVuSans-65"/>
     </defs>
     <g transform="translate(672.6102 190.094398)scale(0.09996 -0.09996)">
      <use xlink:href="#DejaVuSans-76"/>
      <use x="53.962891" xlink:href="#DejaVuSans-111"/>
      <use x="115.144531" xlink:href="#DejaVuSans-110"/>
      <use x="178.523438" xlink:href="#DejaVuSans-101"/>
      <use x="240.046875" xlink:href="#DejaVuSans-108"/>
      <use x="267.830078" xlink:href="#DejaVuSans-121"/>
      <use x="327.009766" xlink:href="#DejaVuSans-95"/>
      <use x="377.009766" xlink:href="#DejaVuSans-76"/>
      <use x="430.972656" xlink:href="#DejaVuSans-111"/>
      <use x="492.154297" xlink:href="#DejaVuSans-115"/>
      <use x="544.253906" xlink:href="#DejaVuSans-95"/>
      <use x="594.253906" xlink:href="#DejaVuSans-76"/>
      <use x="649.966797" xlink:href="#DejaVuSans-97"/>
      <use x="711.246094" xlink:href="#DejaVuSans-121"/>
      <use x="770.425781" xlink:href="#DejaVuSans-101"/>
      <use x="831.949219" xlink:href="#DejaVuSans-114"/>
      <use x="873.0625" xlink:href="#DejaVuSans-115"/>
      <use x="925.162109" xlink:href="#DejaVuSans-95"/>
      <use x="975.162109" xlink:href="#DejaVuSans-77"/>
      <use x="1061.441406" xlink:href="#DejaVuSans-117"/>
      <use x="1124.820312" xlink:href="#DejaVuSans-116"/>
      <use x="1164.029297" xlink:href="#DejaVuSans-95"/>
      <use x="1214.029297" xlink:href="#DejaVuSans-65"/>
      <use x="1282.4375" xlink:href="#DejaVuSans-108"/>
      <use x="1310.220703" xlink:href="#DejaVuSans-108"/>
      <use x="1338.003906" xlink:href="#DejaVuSans-95"/>
      <use x="1388.003906" xlink:href="#DejaVuSans-53"/>
     </g>
    </g>
    <g id="line2d_51">
     <path d="M 647.6202 201.546066 
L 661.6146 201.546066 
" style="fill:none;stroke:#00bfbf;stroke-linecap:square;stroke-width:1.2;"/>
    </g>
    <g id="line2d_52"/>
    <g id="text_26">
     <!-- Lonely_Los_Layers_Mut_All_Copy5 -->
     <defs>
      <path d="M 64.40625 67.28125 
L 64.40625 56.890625 
Q 59.421875 61.53125 53.78125 63.8125 
Q 48.140625 66.109375 41.796875 66.109375 
Q 29.296875 66.109375 22.65625 58.46875 
Q 16.015625 50.828125 16.015625 36.375 
Q 16.015625 21.96875 22.65625 14.328125 
Q 29.296875 6.6875 41.796875 6.6875 
Q 48.140625 6.6875 53.78125 8.984375 
Q 59.421875 11.28125 64.40625 15.921875 
L 64.40625 5.609375 
Q 59.234375 2.09375 53.4375 0.328125 
Q 47.65625 -1.421875 41.21875 -1.421875 
Q 24.65625 -1.421875 15.125 8.703125 
Q 5.609375 18.84375 5.609375 36.375 
Q 5.609375 53.953125 15.125 64.078125 
Q 24.65625 74.21875 41.21875 74.21875 
Q 47.75 74.21875 53.53125 72.484375 
Q 59.328125 70.75 64.40625 67.28125 
z
" id="DejaVuSans-67"/>
     </defs>
     <g transform="translate(672.6102 205.044666)scale(0.09996 -0.09996)">
      <use xlink:href="#DejaVuSans-76"/>
      <use x="53.962891" xlink:href="#DejaVuSans-111"/>
      <use x="115.144531" xlink:href="#DejaVuSans-110"/>
      <use x="178.523438" xlink:href="#DejaVuSans-101"/>
      <use x="240.046875" xlink:href="#DejaVuSans-108"/>
      <use x="267.830078" xlink:href="#DejaVuSans-121"/>
      <use x="327.009766" xlink:href="#DejaVuSans-95"/>
      <use x="377.009766" xlink:href="#DejaVuSans-76"/>
      <use x="430.972656" xlink:href="#DejaVuSans-111"/>
      <use x="492.154297" xlink:href="#DejaVuSans-115"/>
      <use x="544.253906" xlink:href="#DejaVuSans-95"/>
      <use x="594.253906" xlink:href="#DejaVuSans-76"/>
      <use x="649.966797" xlink:href="#DejaVuSans-97"/>
      <use x="711.246094" xlink:href="#DejaVuSans-121"/>
      <use x="770.425781" xlink:href="#DejaVuSans-101"/>
      <use x="831.949219" xlink:href="#DejaVuSans-114"/>
      <use x="873.0625" xlink:href="#DejaVuSans-115"/>
      <use x="925.162109" xlink:href="#DejaVuSans-95"/>
      <use x="975.162109" xlink:href="#DejaVuSans-77"/>
      <use x="1061.441406" xlink:href="#DejaVuSans-117"/>
      <use x="1124.820312" xlink:href="#DejaVuSans-116"/>
      <use x="1164.029297" xlink:href="#DejaVuSans-95"/>
      <use x="1214.029297" xlink:href="#DejaVuSans-65"/>
      <use x="1282.4375" xlink:href="#DejaVuSans-108"/>
      <use x="1310.220703" xlink:href="#DejaVuSans-108"/>
      <use x="1338.003906" xlink:href="#DejaVuSans-95"/>
      <use x="1388.003906" xlink:href="#DejaVuSans-67"/>
      <use x="1457.828125" xlink:href="#DejaVuSans-111"/>
      <use x="1519.009766" xlink:href="#DejaVuSans-112"/>
      <use x="1582.486328" xlink:href="#DejaVuSans-121"/>
      <use x="1641.666016" xlink:href="#DejaVuSans-53"/>
     </g>
    </g>
   </g>
  </g>
  <g id="text_27">
   <!-- Average Amount of Parameters -->
   <defs>
    <path d="M 2.984375 54.6875 
L 12.5 54.6875 
L 29.59375 8.796875 
L 46.6875 54.6875 
L 56.203125 54.6875 
L 35.6875 0 
L 23.484375 0 
z
" id="DejaVuSans-118"/>
    <path id="DejaVuSans-32"/>
    <path d="M 37.109375 75.984375 
L 37.109375 68.5 
L 28.515625 68.5 
Q 23.6875 68.5 21.796875 66.546875 
Q 19.921875 64.59375 19.921875 59.515625 
L 19.921875 54.6875 
L 34.71875 54.6875 
L 34.71875 47.703125 
L 19.921875 47.703125 
L 19.921875 0 
L 10.890625 0 
L 10.890625 47.703125 
L 2.296875 47.703125 
L 2.296875 54.6875 
L 10.890625 54.6875 
L 10.890625 58.5 
Q 10.890625 67.625 15.140625 71.796875 
Q 19.390625 75.984375 28.609375 75.984375 
z
" id="DejaVuSans-102"/>
    <path d="M 19.671875 64.796875 
L 19.671875 37.40625 
L 32.078125 37.40625 
Q 38.96875 37.40625 42.71875 40.96875 
Q 46.484375 44.53125 46.484375 51.125 
Q 46.484375 57.671875 42.71875 61.234375 
Q 38.96875 64.796875 32.078125 64.796875 
z
M 9.8125 72.90625 
L 32.078125 72.90625 
Q 44.34375 72.90625 50.609375 67.359375 
Q 56.890625 61.8125 56.890625 51.125 
Q 56.890625 40.328125 50.609375 34.8125 
Q 44.34375 29.296875 32.078125 29.296875 
L 19.671875 29.296875 
L 19.671875 0 
L 9.8125 0 
z
" id="DejaVuSans-80"/>
   </defs>
   <g transform="translate(355.93875 16.318125)scale(0.12 -0.12)">
    <use xlink:href="#DejaVuSans-65"/>
    <use x="62.533203" xlink:href="#DejaVuSans-118"/>
    <use x="121.712891" xlink:href="#DejaVuSans-101"/>
    <use x="183.236328" xlink:href="#DejaVuSans-114"/>
    <use x="224.349609" xlink:href="#DejaVuSans-97"/>
    <use x="285.628906" xlink:href="#DejaVuSans-103"/>
    <use x="349.105469" xlink:href="#DejaVuSans-101"/>
    <use x="410.628906" xlink:href="#DejaVuSans-32"/>
    <use x="442.416016" xlink:href="#DejaVuSans-65"/>
    <use x="510.824219" xlink:href="#DejaVuSans-109"/>
    <use x="608.236328" xlink:href="#DejaVuSans-111"/>
    <use x="669.417969" xlink:href="#DejaVuSans-117"/>
    <use x="732.796875" xlink:href="#DejaVuSans-110"/>
    <use x="796.175781" xlink:href="#DejaVuSans-116"/>
    <use x="835.384766" xlink:href="#DejaVuSans-32"/>
    <use x="867.171875" xlink:href="#DejaVuSans-111"/>
    <use x="928.353516" xlink:href="#DejaVuSans-102"/>
    <use x="963.558594" xlink:href="#DejaVuSans-32"/>
    <use x="995.345703" xlink:href="#DejaVuSans-80"/>
    <use x="1051.148438" xlink:href="#DejaVuSans-97"/>
    <use x="1112.427734" xlink:href="#DejaVuSans-114"/>
    <use x="1153.541016" xlink:href="#DejaVuSans-97"/>
    <use x="1214.820312" xlink:href="#DejaVuSans-109"/>
    <use x="1312.232422" xlink:href="#DejaVuSans-101"/>
    <use x="1373.755859" xlink:href="#DejaVuSans-116"/>
    <use x="1412.964844" xlink:href="#DejaVuSans-101"/>
    <use x="1474.488281" xlink:href="#DejaVuSans-114"/>
    <use x="1515.601562" xlink:href="#DejaVuSans-115"/>
   </g>
  </g>
 </g>
 <defs>
  <clipPath id="p38b17dd0a7">
   <rect height="288" width="523.125" x="112.5" y="36"/>
  </clipPath>
 </defs>
</svg>
