<?xml version="1.0" encoding="utf-8" standalone="no"?>
<!DOCTYPE svg PUBLIC "-//W3C//DTD SVG 1.1//EN"
  "http://www.w3.org/Graphics/SVG/1.1/DTD/svg11.dtd">
<!-- Created with matplotlib (https://matplotlib.org/) -->
<svg height="360pt" version="1.1" viewBox="0 0 900 360" width="900pt" xmlns="http://www.w3.org/2000/svg" xmlns:xlink="http://www.w3.org/1999/xlink">
 <defs>
  <style type="text/css">
*{stroke-linecap:butt;stroke-linejoin:round;}
  </style>
 </defs>
 <g id="figure_1">
  <g id="patch_1">
   <path d="M 0 360 
L 900 360 
L 900 0 
L 0 0 
z
" style="fill:#ffffff;"/>
  </g>
  <g id="axes_1">
   <g id="patch_2">
    <path d="M 112.5 324 
L 635.625 324 
L 635.625 36 
L 112.5 36 
z
" style="fill:#ffffff;"/>
   </g>
   <g id="line2d_1">
    <path clip-path="url(#p3b9f10abea)" d="M 112.807359 141.278955 
L 115.880949 139.34486 
L 118.954539 134.820617 
L 122.028129 133.044133 
L 125.101719 134.215525 
L 128.175308 136.520713 
L 131.248898 137.790703 
L 134.322488 138.898477 
L 137.396078 142.512068 
L 140.469668 146.743435 
L 143.543258 151.547313 
L 146.616848 156.120477 
L 149.690438 160.054079 
L 152.764028 164.369594 
L 155.837618 172.015945 
L 158.911207 176.700155 
L 161.984797 183.279132 
L 174.279157 210.997967 
L 180.426337 223.13901 
L 183.499927 230.200761 
L 186.573516 235.271174 
L 189.647106 241.555161 
L 192.720696 245.010979 
L 195.794286 250.036833 
L 198.867876 253.104153 
L 201.941466 257.875241 
L 205.015056 259.571601 
L 208.088646 262.748376 
L 211.162236 263.303308 
L 214.235825 266.546021 
L 217.309415 268.332841 
L 220.383005 269.861006 
L 223.456595 271.910987 
L 226.530185 275.315342 
L 229.603775 277.346315 
L 232.677365 281.355941 
L 235.750955 283.53 
L 238.824545 285.422013 
L 241.898135 290.10224 
L 244.971724 292.458463 
L 248.045314 294.141808 
L 251.118904 297.441308 
L 254.192494 299.42259 
L 257.266084 301.710909 
L 260.339674 301.665005 
L 263.413264 302.203865 
L 266.486854 300.444637 
L 269.560444 301.480886 
L 272.634033 302.083577 
L 275.707623 300.71806 
L 278.781213 300.924767 
L 281.854803 303.635668 
L 284.928393 303.998809 
L 288.001983 308.404496 
L 291.075573 310.793962 
L 294.149163 311.147305 
L 297.222753 313.554804 
L 300.296343 313.284307 
L 303.369932 312.683914 
L 306.443522 313.983617 
L 309.517112 312.470785 
L 312.590702 310.300525 
L 315.664292 309.397812 
L 321.811472 310.197475 
L 324.885062 310.52025 
L 331.032241 310.437933 
L 334.105831 312.057683 
L 337.179421 312.863416 
L 340.253011 312.12034 
L 343.326601 313.102217 
L 346.400191 313.616329 
L 349.473781 309.011584 
L 352.547371 307.961087 
L 355.620961 306.542667 
L 358.694551 306.061242 
L 361.76814 307.518425 
L 364.84173 305.969812 
L 367.91532 305.298875 
L 370.98891 308.677749 
L 374.0625 309.550401 
L 377.13609 306.547997 
L 380.20968 306.296421 
L 383.28327 302.683032 
L 386.35686 303.669785 
L 389.430449 302.729495 
L 392.504039 300.988894 
L 395.577629 300.173707 
L 398.651219 300.193507 
L 401.724809 299.862308 
L 404.798399 296.581332 
L 407.871989 292.636987 
L 410.945579 292.24887 
L 414.019169 293.630377 
L 417.092759 295.499067 
L 420.166348 295.635017 
L 423.239938 294.179995 
L 426.313528 299.279244 
L 429.387118 301.874909 
L 432.460708 303.18672 
L 435.534298 302.274639 
L 438.607888 300.142393 
L 441.681478 300.595802 
L 444.755068 302.526719 
L 447.828657 301.76752 
L 450.902247 302.853022 
L 453.975837 302.652427 
L 457.049427 303.430308 
L 460.123017 305.678268 
L 463.196607 309.441832 
L 469.343787 311.694527 
L 472.417377 311.611896 
L 475.490967 313.014524 
L 478.564556 315.123516 
L 481.638146 313.026886 
L 484.711736 309.023765 
L 487.785326 308.621459 
L 490.858916 302.64155 
L 493.932506 303.08298 
L 497.006096 301.292587 
L 500.079686 300.17201 
L 503.153276 300.118515 
L 506.226865 301.539506 
L 509.300455 301.371049 
L 512.374045 308.229432 
L 515.447635 308.665162 
L 518.521225 308.593589 
L 521.594815 305.996719 
L 524.668405 308.931094 
L 527.741995 309.661873 
L 530.815585 308.881315 
L 533.889175 307.209119 
L 536.962764 304.872883 
L 540.036354 303.999761 
L 543.109944 303.916271 
L 546.183534 303.299201 
L 549.257124 301.839677 
L 552.330714 299.177047 
L 555.404304 300.458472 
L 558.477894 299.67891 
L 564.625073 300.432291 
L 567.698663 298.167363 
L 570.772253 299.072431 
L 573.845843 301.427958 
L 576.919433 298.000495 
L 579.993023 299.305296 
L 579.993023 299.305296 
" style="fill:none;stroke:#0000ff;stroke-linecap:square;stroke-width:1.2;"/>
   </g>
   <g id="line2d_2">
    <path clip-path="url(#p3b9f10abea)" d="M 112.807359 117.071201 
L 115.880949 114.304582 
L 118.954539 112.012381 
L 122.028129 109.253013 
L 125.101719 107.304927 
L 128.175308 109.164349 
L 131.248898 104.495229 
L 134.322488 101.515827 
L 137.396078 102.743976 
L 140.469668 99.882143 
L 143.543258 100.461241 
L 146.616848 99.700378 
L 149.690438 100.49107 
L 152.764028 100.771756 
L 155.837618 103.406257 
L 158.911207 102.685954 
L 161.984797 107.924444 
L 165.058387 109.035043 
L 168.131977 114.132008 
L 171.205567 113.526896 
L 174.279157 117.555584 
L 177.352747 120.508417 
L 180.426337 123.29486 
L 183.499927 123.595425 
L 186.573516 125.727304 
L 189.647106 121.992168 
L 192.720696 127.173034 
L 195.794286 130.68265 
L 198.867876 133.635802 
L 201.941466 134.94064 
L 205.015056 136.449709 
L 208.088646 138.088159 
L 211.162236 146.033214 
L 214.235825 146.884668 
L 217.309415 148.226599 
L 220.383005 150.586426 
L 226.530185 163.051441 
L 229.603775 168.414442 
L 232.677365 172.529267 
L 235.750955 178.016512 
L 238.824545 183.099388 
L 241.898135 185.80637 
L 244.971724 188.761875 
L 248.045314 190.547019 
L 251.118904 194.177071 
L 254.192494 195.119642 
L 257.266084 196.724928 
L 260.339674 196.901671 
L 263.413264 197.678331 
L 266.486854 197.16299 
L 269.560444 197.977168 
L 272.634033 198.906569 
L 275.707623 201.831054 
L 278.781213 203.424454 
L 281.854803 206.940214 
L 284.928393 211.048923 
L 288.001983 214.328879 
L 291.075573 219.375314 
L 294.149163 223.147789 
L 297.222753 225.759672 
L 300.296343 229.229754 
L 303.369932 232.42738 
L 306.443522 235.29245 
L 309.517112 237.949164 
L 312.590702 237.973511 
L 318.737882 238.507859 
L 321.811472 238.51965 
L 324.885062 238.046736 
L 327.958652 238.439887 
L 331.032241 239.508 
L 334.105831 240.151276 
L 337.179421 239.79222 
L 340.253011 238.786163 
L 343.326601 239.324607 
L 346.400191 238.532883 
L 349.473781 240.11877 
L 352.547371 239.617865 
L 355.620961 239.546737 
L 358.694551 240.32733 
L 361.76814 240.371806 
L 364.84173 238.335425 
L 367.91532 238.342239 
L 370.98891 234.470402 
L 374.0625 233.998393 
L 377.13609 236.086049 
L 380.20968 236.624127 
L 383.28327 238.792706 
L 386.35686 240.088898 
L 389.430449 242.339831 
L 392.504039 245.181403 
L 395.577629 247.379914 
L 398.651219 247.342731 
L 401.724809 249.631552 
L 404.798399 251.57092 
L 407.871989 255.536568 
L 410.945579 257.394389 
L 414.019169 259.384369 
L 417.092759 261.862393 
L 420.166348 261.804414 
L 426.313528 262.192112 
L 429.387118 261.737727 
L 432.460708 261.141312 
L 435.534298 261.011272 
L 438.607888 259.686849 
L 441.681478 262.730163 
L 444.755068 263.832504 
L 447.828657 264.417244 
L 450.902247 266.517936 
L 453.975837 270.921994 
L 457.049427 271.822287 
L 460.123017 274.336455 
L 463.196607 275.230558 
L 466.270197 276.869776 
L 469.343787 279.078381 
L 472.417377 280.084645 
L 475.490967 278.017947 
L 478.564556 279.174226 
L 481.638146 280.205689 
L 487.785326 278.219043 
L 490.858916 278.239254 
L 493.932506 275.591252 
L 497.006096 277.49577 
L 500.079686 278.681949 
L 503.153276 277.548196 
L 506.226865 276.64608 
L 509.300455 276.076266 
L 512.374045 274.015603 
L 515.447635 278.377364 
L 518.521225 279.023803 
L 521.594815 278.79767 
L 524.668405 280.642388 
L 530.815585 281.801834 
L 533.889175 284.241667 
L 536.962764 282.851395 
L 543.109944 283.358159 
L 546.183534 283.264217 
L 549.257124 284.978882 
L 552.330714 288.880275 
L 555.404304 289.436705 
L 558.477894 290.754887 
L 567.698663 295.624694 
L 570.772253 296.346642 
L 573.845843 294.643757 
L 576.919433 295.072783 
L 579.993023 296.670855 
L 583.066613 297.450663 
L 586.140203 298.970674 
L 589.213793 296.447013 
L 592.287382 297.069817 
L 595.360972 300.13201 
L 598.434562 301.621535 
L 601.508152 300.971262 
L 604.581742 300.630569 
L 607.655332 300.146596 
L 610.728922 303.738714 
L 613.802512 306.458235 
L 616.876102 305.357654 
L 623.023281 306.501689 
L 626.096871 306.535826 
L 629.170461 307.597322 
L 632.244051 307.3599 
L 635.317641 305.695043 
L 635.317641 305.695043 
" style="fill:none;stroke:#008000;stroke-linecap:square;stroke-width:1.2;"/>
   </g>
   <g id="line2d_3">
    <path clip-path="url(#p3b9f10abea)" d="M 112.807359 160.121997 
L 118.954539 168.31797 
L 122.028129 168.923869 
L 125.101719 170.488505 
L 128.175308 169.674307 
L 131.248898 171.319773 
L 137.396078 177.860865 
L 140.469668 181.516652 
L 143.543258 186.009706 
L 146.616848 191.59501 
L 149.690438 197.451998 
L 152.764028 201.355998 
L 155.837618 204.727059 
L 158.911207 209.968551 
L 161.984797 214.171325 
L 165.058387 218.864967 
L 168.131977 224.194131 
L 171.205567 228.360019 
L 174.279157 234.422996 
L 177.352747 240.784027 
L 180.426337 244.681986 
L 183.499927 247.866865 
L 186.573516 251.456981 
L 192.720696 259.167698 
L 195.794286 260.366887 
L 198.867876 263.151354 
L 201.941466 265.391779 
L 205.015056 269.589805 
L 208.088646 272.259979 
L 211.162236 272.939238 
L 214.235825 273.374011 
L 217.309415 276.657592 
L 220.383005 276.774008 
L 223.456595 279.70869 
L 226.530185 281.05553 
L 229.603775 282.170795 
L 232.677365 284.568103 
L 235.750955 288.254178 
L 238.824545 290.092533 
L 241.898135 292.262674 
L 244.971724 293.262653 
L 248.045314 295.142307 
L 251.118904 297.842797 
L 254.192494 300.822464 
L 257.266084 301.980196 
L 260.339674 303.331276 
L 263.413264 304.972666 
L 266.486854 307.335574 
L 269.560444 306.804706 
L 272.634033 307.618324 
L 275.707623 308.758057 
L 278.781213 307.772687 
L 281.854803 309.3804 
L 284.928393 308.294787 
L 288.001983 307.45733 
L 291.075573 308.480897 
L 294.149163 309.693389 
L 297.222753 303.436434 
L 300.296343 305.433965 
L 306.443522 302.430538 
L 309.517112 301.909663 
L 312.590702 300.366064 
L 315.664292 298.594968 
L 318.737882 304.276894 
L 321.811472 304.007082 
L 324.885062 303.968865 
L 327.958652 308.54256 
L 331.032241 309.636659 
L 334.105831 311.819195 
L 337.179421 312.631825 
L 340.253011 310.564787 
L 343.326601 306.467975 
L 346.400191 308.163152 
L 349.473781 303.921078 
L 352.547371 303.088859 
L 355.620961 302.848337 
L 358.694551 304.545638 
L 361.76814 304.441157 
L 364.84173 305.883951 
L 367.91532 304.143765 
L 370.98891 307.663292 
L 374.0625 309.933451 
L 377.13609 311.673686 
L 380.20968 306.704319 
L 383.28327 304.892899 
L 386.35686 307.628337 
L 389.430449 307.010384 
L 392.504039 307.964459 
L 395.577629 306.814217 
L 398.651219 305.08011 
L 401.724809 304.924339 
L 404.798399 307.709295 
L 407.871989 307.251801 
L 410.945579 308.575181 
L 417.092759 305.038264 
L 420.166348 303.626661 
L 423.239938 305.837138 
L 426.313528 304.918519 
L 432.460708 305.20186 
L 435.534298 304.304628 
L 438.607888 304.386583 
L 441.681478 303.996105 
L 444.755068 303.031164 
L 447.828657 304.966252 
L 450.902247 305.992337 
L 453.975837 303.844582 
L 457.049427 304.409165 
L 460.123017 305.845807 
L 463.196607 305.120088 
L 466.270197 307.835324 
L 469.343787 306.992881 
L 472.417377 307.648472 
L 475.490967 306.854534 
L 478.564556 305.667597 
L 481.638146 306.507564 
L 484.711736 307.804621 
L 487.785326 306.586734 
L 490.858916 306.005932 
L 493.932506 304.727121 
L 497.006096 305.810731 
L 500.079686 305.995845 
L 503.153276 305.273844 
L 506.226865 305.958475 
L 509.300455 305.736308 
L 512.374045 306.175036 
L 515.447635 303.885875 
L 518.521225 307.046251 
L 521.594815 303.902596 
L 524.668405 300.109467 
L 527.741995 300.172031 
L 530.815585 299.772069 
L 533.889175 297.714812 
L 536.962764 299.111583 
L 540.036354 295.939881 
L 543.109944 297.396174 
L 546.183534 301.264993 
L 549.257124 298.355533 
L 552.330714 299.365468 
L 555.404304 300.695519 
L 558.477894 299.958276 
L 561.551484 299.648041 
L 564.625073 302.289631 
L 567.698663 299.280789 
L 570.772253 302.994715 
L 570.772253 302.994715 
" style="fill:none;stroke:#ff0000;stroke-linecap:square;stroke-width:1.2;"/>
   </g>
   <g id="line2d_4">
    <path clip-path="url(#p3b9f10abea)" d="M 112.807359 128.521949 
L 115.880949 130.565029 
L 118.954539 132.773419 
L 122.028129 130.569227 
L 125.101719 130.456833 
L 128.175308 126.455973 
L 131.248898 126.841488 
L 134.322488 129.687858 
L 137.396078 127.197398 
L 140.469668 127.600153 
L 143.543258 123.090974 
L 146.616848 121.659511 
L 149.690438 117.190356 
L 152.764028 115.962327 
L 155.837618 114.318028 
L 158.911207 112.208121 
L 161.984797 107.988992 
L 165.058387 105.775863 
L 168.131977 103.300364 
L 171.205567 100.005031 
L 174.279157 95.020013 
L 177.352747 91.889375 
L 180.426337 90.989769 
L 183.499927 86.857809 
L 186.573516 84.440621 
L 189.647106 78.267346 
L 192.720696 75.666693 
L 195.794286 73.372844 
L 198.867876 68.30232 
L 201.941466 63.59735 
L 205.015056 63.92381 
L 208.088646 62.834368 
L 211.162236 61.92155 
L 214.235825 65.093636 
L 217.309415 65.538462 
L 220.383005 65.802128 
L 223.456595 67.685123 
L 226.530185 68.559022 
L 229.603775 72.536269 
L 232.677365 75.812708 
L 235.750955 79.808085 
L 238.824545 85.613631 
L 241.898135 89.891647 
L 244.971724 95.869198 
L 248.045314 102.711272 
L 251.118904 106.286376 
L 254.192494 112.281183 
L 257.266084 116.184402 
L 260.339674 118.899066 
L 266.486854 126.981189 
L 269.560444 127.720433 
L 272.634033 132.022377 
L 275.707623 135.346102 
L 278.781213 138.163985 
L 281.854803 141.651806 
L 284.928393 147.510267 
L 288.001983 149.226645 
L 291.075573 149.350302 
L 294.149163 150.456692 
L 297.222753 153.358913 
L 300.296343 154.671663 
L 303.369932 152.475102 
L 306.443522 147.944291 
L 309.517112 144.116983 
L 312.590702 142.318667 
L 315.664292 141.311432 
L 318.737882 139.171021 
L 321.811472 136.62322 
L 324.885062 131.906338 
L 327.958652 128.395662 
L 331.032241 127.133143 
L 334.105831 128.47562 
L 337.179421 128.218786 
L 340.253011 125.973832 
L 343.326601 124.874994 
L 346.400191 128.952286 
L 349.473781 131.336846 
L 352.547371 135.16144 
L 355.620961 132.416528 
L 358.694551 128.090044 
L 361.76814 126.344543 
L 370.98891 126.910443 
L 374.0625 125.104524 
L 380.20968 136.010051 
L 383.28327 138.419187 
L 386.35686 137.564645 
L 389.430449 138.035157 
L 392.504039 139.366129 
L 395.577629 140.962813 
L 398.651219 142.060933 
L 401.724809 144.094198 
L 404.798399 147.683595 
L 407.871989 153.014402 
L 410.945579 156.839695 
L 414.019169 161.269875 
L 417.092759 166.572828 
L 420.166348 171.420395 
L 423.239938 175.301985 
L 426.313528 178.734331 
L 429.387118 183.716061 
L 435.534298 192.121085 
L 438.607888 196.087463 
L 441.681478 195.285631 
L 444.755068 197.030423 
L 447.828657 199.982869 
L 450.902247 199.038058 
L 453.975837 196.711812 
L 457.049427 197.09278 
L 460.123017 198.170558 
L 463.196607 201.378839 
L 466.270197 203.07854 
L 469.343787 201.372383 
L 472.417377 200.321851 
L 475.490967 200.933161 
L 478.564556 199.818835 
L 481.638146 198.026261 
L 484.711736 198.778189 
L 487.785326 195.173385 
L 490.858916 192.782267 
L 493.932506 192.264809 
L 497.006096 192.1434 
L 500.079686 191.894457 
L 503.153276 191.188237 
L 506.226865 188.015461 
L 509.300455 189.228798 
L 512.374045 193.196166 
L 515.447635 196.165568 
L 518.521225 195.789964 
L 521.594815 196.371497 
L 524.668405 198.393222 
L 530.815585 200.888979 
L 533.889175 199.245969 
L 536.962764 198.211855 
L 540.036354 201.466013 
L 543.109944 203.096979 
L 546.183534 203.613347 
L 549.257124 207.28668 
L 552.330714 208.104649 
L 555.404304 208.649175 
L 558.477894 208.773977 
L 561.551484 210.189577 
L 564.625073 212.305503 
L 567.698663 210.535504 
L 570.772253 207.131547 
L 573.845843 204.207663 
L 576.919433 207.024232 
L 579.993023 210.555303 
L 583.066613 208.416332 
L 586.140203 209.032944 
L 589.213793 211.840367 
L 592.287382 213.276845 
L 595.360972 217.584925 
L 598.434562 217.370748 
L 601.508152 216.586165 
L 604.581742 219.116949 
L 607.655332 217.661463 
L 610.728922 216.908437 
L 613.802512 218.919762 
L 613.802512 218.919762 
" style="fill:none;stroke:#00bfbf;stroke-linecap:square;stroke-width:1.2;"/>
   </g>
   <g id="patch_3">
    <path d="M 112.5 324 
L 112.5 36 
" style="fill:none;stroke:#000000;stroke-linecap:square;stroke-linejoin:miter;"/>
   </g>
   <g id="patch_4">
    <path d="M 635.625 324 
L 635.625 36 
" style="fill:none;stroke:#000000;stroke-linecap:square;stroke-linejoin:miter;"/>
   </g>
   <g id="patch_5">
    <path d="M 112.5 324 
L 635.625 324 
" style="fill:none;stroke:#000000;stroke-linecap:square;stroke-linejoin:miter;"/>
   </g>
   <g id="patch_6">
    <path d="M 112.5 36 
L 635.625 36 
" style="fill:none;stroke:#000000;stroke-linecap:square;stroke-linejoin:miter;"/>
   </g>
   <g id="matplotlib.axis_1">
    <g id="xtick_1">
     <g id="line2d_5">
      <defs>
       <path d="M 0 0 
L 0 -4 
" id="m9d6c002bdb" style="stroke:#000000;stroke-width:0.5;"/>
      </defs>
      <g>
       <use style="stroke:#000000;stroke-width:0.5;" x="112.807359" xlink:href="#m9d6c002bdb" y="324"/>
      </g>
     </g>
     <g id="line2d_6">
      <defs>
       <path d="M 0 0 
L 0 4 
" id="ma049d0ef53" style="stroke:#000000;stroke-width:0.5;"/>
      </defs>
      <g>
       <use style="stroke:#000000;stroke-width:0.5;" x="112.807359" xlink:href="#ma049d0ef53" y="36"/>
      </g>
     </g>
     <g id="text_1">
      <!-- 0 -->
      <defs>
       <path d="M 31.78125 66.40625 
Q 24.171875 66.40625 20.328125 58.90625 
Q 16.5 51.421875 16.5 36.375 
Q 16.5 21.390625 20.328125 13.890625 
Q 24.171875 6.390625 31.78125 6.390625 
Q 39.453125 6.390625 43.28125 13.890625 
Q 47.125 21.390625 47.125 36.375 
Q 47.125 51.421875 43.28125 58.90625 
Q 39.453125 66.40625 31.78125 66.40625 
z
M 31.78125 74.21875 
Q 44.046875 74.21875 50.515625 64.515625 
Q 56.984375 54.828125 56.984375 36.375 
Q 56.984375 17.96875 50.515625 8.265625 
Q 44.046875 -1.421875 31.78125 -1.421875 
Q 19.53125 -1.421875 13.0625 8.265625 
Q 6.59375 17.96875 6.59375 36.375 
Q 6.59375 54.828125 13.0625 64.515625 
Q 19.53125 74.21875 31.78125 74.21875 
z
" id="DejaVuSans-48"/>
      </defs>
      <g transform="translate(108.989859 337.118125)scale(0.12 -0.12)">
       <use xlink:href="#DejaVuSans-48"/>
      </g>
     </g>
    </g>
    <g id="xtick_2">
     <g id="line2d_7">
      <g>
       <use style="stroke:#000000;stroke-width:0.5;" x="168.131977" xlink:href="#m9d6c002bdb" y="324"/>
      </g>
     </g>
     <g id="line2d_8">
      <g>
       <use style="stroke:#000000;stroke-width:0.5;" x="168.131977" xlink:href="#ma049d0ef53" y="36"/>
      </g>
     </g>
     <g id="text_2">
      <!-- 18 -->
      <defs>
       <path d="M 12.40625 8.296875 
L 28.515625 8.296875 
L 28.515625 63.921875 
L 10.984375 60.40625 
L 10.984375 69.390625 
L 28.421875 72.90625 
L 38.28125 72.90625 
L 38.28125 8.296875 
L 54.390625 8.296875 
L 54.390625 0 
L 12.40625 0 
z
" id="DejaVuSans-49"/>
       <path d="M 31.78125 34.625 
Q 24.75 34.625 20.71875 30.859375 
Q 16.703125 27.09375 16.703125 20.515625 
Q 16.703125 13.921875 20.71875 10.15625 
Q 24.75 6.390625 31.78125 6.390625 
Q 38.8125 6.390625 42.859375 10.171875 
Q 46.921875 13.96875 46.921875 20.515625 
Q 46.921875 27.09375 42.890625 30.859375 
Q 38.875 34.625 31.78125 34.625 
z
M 21.921875 38.8125 
Q 15.578125 40.375 12.03125 44.71875 
Q 8.5 49.078125 8.5 55.328125 
Q 8.5 64.0625 14.71875 69.140625 
Q 20.953125 74.21875 31.78125 74.21875 
Q 42.671875 74.21875 48.875 69.140625 
Q 55.078125 64.0625 55.078125 55.328125 
Q 55.078125 49.078125 51.53125 44.71875 
Q 48 40.375 41.703125 38.8125 
Q 48.828125 37.15625 52.796875 32.3125 
Q 56.78125 27.484375 56.78125 20.515625 
Q 56.78125 9.90625 50.3125 4.234375 
Q 43.84375 -1.421875 31.78125 -1.421875 
Q 19.734375 -1.421875 13.25 4.234375 
Q 6.78125 9.90625 6.78125 20.515625 
Q 6.78125 27.484375 10.78125 32.3125 
Q 14.796875 37.15625 21.921875 38.8125 
z
M 18.3125 54.390625 
Q 18.3125 48.734375 21.84375 45.5625 
Q 25.390625 42.390625 31.78125 42.390625 
Q 38.140625 42.390625 41.71875 45.5625 
Q 45.3125 48.734375 45.3125 54.390625 
Q 45.3125 60.0625 41.71875 63.234375 
Q 38.140625 66.40625 31.78125 66.40625 
Q 25.390625 66.40625 21.84375 63.234375 
Q 18.3125 60.0625 18.3125 54.390625 
z
" id="DejaVuSans-56"/>
      </defs>
      <g transform="translate(160.496977 337.118125)scale(0.12 -0.12)">
       <use xlink:href="#DejaVuSans-49"/>
       <use x="63.623047" xlink:href="#DejaVuSans-56"/>
      </g>
     </g>
    </g>
    <g id="xtick_3">
     <g id="line2d_9">
      <g>
       <use style="stroke:#000000;stroke-width:0.5;" x="223.456595" xlink:href="#m9d6c002bdb" y="324"/>
      </g>
     </g>
     <g id="line2d_10">
      <g>
       <use style="stroke:#000000;stroke-width:0.5;" x="223.456595" xlink:href="#ma049d0ef53" y="36"/>
      </g>
     </g>
     <g id="text_3">
      <!-- 36 -->
      <defs>
       <path d="M 40.578125 39.3125 
Q 47.65625 37.796875 51.625 33 
Q 55.609375 28.21875 55.609375 21.1875 
Q 55.609375 10.40625 48.1875 4.484375 
Q 40.765625 -1.421875 27.09375 -1.421875 
Q 22.515625 -1.421875 17.65625 -0.515625 
Q 12.796875 0.390625 7.625 2.203125 
L 7.625 11.71875 
Q 11.71875 9.328125 16.59375 8.109375 
Q 21.484375 6.890625 26.8125 6.890625 
Q 36.078125 6.890625 40.9375 10.546875 
Q 45.796875 14.203125 45.796875 21.1875 
Q 45.796875 27.640625 41.28125 31.265625 
Q 36.765625 34.90625 28.71875 34.90625 
L 20.21875 34.90625 
L 20.21875 43.015625 
L 29.109375 43.015625 
Q 36.375 43.015625 40.234375 45.921875 
Q 44.09375 48.828125 44.09375 54.296875 
Q 44.09375 59.90625 40.109375 62.90625 
Q 36.140625 65.921875 28.71875 65.921875 
Q 24.65625 65.921875 20.015625 65.03125 
Q 15.375 64.15625 9.8125 62.3125 
L 9.8125 71.09375 
Q 15.4375 72.65625 20.34375 73.4375 
Q 25.25 74.21875 29.59375 74.21875 
Q 40.828125 74.21875 47.359375 69.109375 
Q 53.90625 64.015625 53.90625 55.328125 
Q 53.90625 49.265625 50.4375 45.09375 
Q 46.96875 40.921875 40.578125 39.3125 
z
" id="DejaVuSans-51"/>
       <path d="M 33.015625 40.375 
Q 26.375 40.375 22.484375 35.828125 
Q 18.609375 31.296875 18.609375 23.390625 
Q 18.609375 15.53125 22.484375 10.953125 
Q 26.375 6.390625 33.015625 6.390625 
Q 39.65625 6.390625 43.53125 10.953125 
Q 47.40625 15.53125 47.40625 23.390625 
Q 47.40625 31.296875 43.53125 35.828125 
Q 39.65625 40.375 33.015625 40.375 
z
M 52.59375 71.296875 
L 52.59375 62.3125 
Q 48.875 64.0625 45.09375 64.984375 
Q 41.3125 65.921875 37.59375 65.921875 
Q 27.828125 65.921875 22.671875 59.328125 
Q 17.53125 52.734375 16.796875 39.40625 
Q 19.671875 43.65625 24.015625 45.921875 
Q 28.375 48.1875 33.59375 48.1875 
Q 44.578125 48.1875 50.953125 41.515625 
Q 57.328125 34.859375 57.328125 23.390625 
Q 57.328125 12.15625 50.6875 5.359375 
Q 44.046875 -1.421875 33.015625 -1.421875 
Q 20.359375 -1.421875 13.671875 8.265625 
Q 6.984375 17.96875 6.984375 36.375 
Q 6.984375 53.65625 15.1875 63.9375 
Q 23.390625 74.21875 37.203125 74.21875 
Q 40.921875 74.21875 44.703125 73.484375 
Q 48.484375 72.75 52.59375 71.296875 
z
" id="DejaVuSans-54"/>
      </defs>
      <g transform="translate(215.821595 337.118125)scale(0.12 -0.12)">
       <use xlink:href="#DejaVuSans-51"/>
       <use x="63.623047" xlink:href="#DejaVuSans-54"/>
      </g>
     </g>
    </g>
    <g id="xtick_4">
     <g id="line2d_11">
      <g>
       <use style="stroke:#000000;stroke-width:0.5;" x="278.781213" xlink:href="#m9d6c002bdb" y="324"/>
      </g>
     </g>
     <g id="line2d_12">
      <g>
       <use style="stroke:#000000;stroke-width:0.5;" x="278.781213" xlink:href="#ma049d0ef53" y="36"/>
      </g>
     </g>
     <g id="text_4">
      <!-- 54 -->
      <defs>
       <path d="M 10.796875 72.90625 
L 49.515625 72.90625 
L 49.515625 64.59375 
L 19.828125 64.59375 
L 19.828125 46.734375 
Q 21.96875 47.46875 24.109375 47.828125 
Q 26.265625 48.1875 28.421875 48.1875 
Q 40.625 48.1875 47.75 41.5 
Q 54.890625 34.8125 54.890625 23.390625 
Q 54.890625 11.625 47.5625 5.09375 
Q 40.234375 -1.421875 26.90625 -1.421875 
Q 22.3125 -1.421875 17.546875 -0.640625 
Q 12.796875 0.140625 7.71875 1.703125 
L 7.71875 11.625 
Q 12.109375 9.234375 16.796875 8.0625 
Q 21.484375 6.890625 26.703125 6.890625 
Q 35.15625 6.890625 40.078125 11.328125 
Q 45.015625 15.765625 45.015625 23.390625 
Q 45.015625 31 40.078125 35.4375 
Q 35.15625 39.890625 26.703125 39.890625 
Q 22.75 39.890625 18.8125 39.015625 
Q 14.890625 38.140625 10.796875 36.28125 
z
" id="DejaVuSans-53"/>
       <path d="M 37.796875 64.3125 
L 12.890625 25.390625 
L 37.796875 25.390625 
z
M 35.203125 72.90625 
L 47.609375 72.90625 
L 47.609375 25.390625 
L 58.015625 25.390625 
L 58.015625 17.1875 
L 47.609375 17.1875 
L 47.609375 0 
L 37.796875 0 
L 37.796875 17.1875 
L 4.890625 17.1875 
L 4.890625 26.703125 
z
" id="DejaVuSans-52"/>
      </defs>
      <g transform="translate(271.146213 337.118125)scale(0.12 -0.12)">
       <use xlink:href="#DejaVuSans-53"/>
       <use x="63.623047" xlink:href="#DejaVuSans-52"/>
      </g>
     </g>
    </g>
    <g id="xtick_5">
     <g id="line2d_13">
      <g>
       <use style="stroke:#000000;stroke-width:0.5;" x="334.105831" xlink:href="#m9d6c002bdb" y="324"/>
      </g>
     </g>
     <g id="line2d_14">
      <g>
       <use style="stroke:#000000;stroke-width:0.5;" x="334.105831" xlink:href="#ma049d0ef53" y="36"/>
      </g>
     </g>
     <g id="text_5">
      <!-- 72 -->
      <defs>
       <path d="M 8.203125 72.90625 
L 55.078125 72.90625 
L 55.078125 68.703125 
L 28.609375 0 
L 18.3125 0 
L 43.21875 64.59375 
L 8.203125 64.59375 
z
" id="DejaVuSans-55"/>
       <path d="M 19.1875 8.296875 
L 53.609375 8.296875 
L 53.609375 0 
L 7.328125 0 
L 7.328125 8.296875 
Q 12.9375 14.109375 22.625 23.890625 
Q 32.328125 33.6875 34.8125 36.53125 
Q 39.546875 41.84375 41.421875 45.53125 
Q 43.3125 49.21875 43.3125 52.78125 
Q 43.3125 58.59375 39.234375 62.25 
Q 35.15625 65.921875 28.609375 65.921875 
Q 23.96875 65.921875 18.8125 64.3125 
Q 13.671875 62.703125 7.8125 59.421875 
L 7.8125 69.390625 
Q 13.765625 71.78125 18.9375 73 
Q 24.125 74.21875 28.421875 74.21875 
Q 39.75 74.21875 46.484375 68.546875 
Q 53.21875 62.890625 53.21875 53.421875 
Q 53.21875 48.921875 51.53125 44.890625 
Q 49.859375 40.875 45.40625 35.40625 
Q 44.1875 33.984375 37.640625 27.21875 
Q 31.109375 20.453125 19.1875 8.296875 
z
" id="DejaVuSans-50"/>
      </defs>
      <g transform="translate(326.470831 337.118125)scale(0.12 -0.12)">
       <use xlink:href="#DejaVuSans-55"/>
       <use x="63.623047" xlink:href="#DejaVuSans-50"/>
      </g>
     </g>
    </g>
    <g id="xtick_6">
     <g id="line2d_15">
      <g>
       <use style="stroke:#000000;stroke-width:0.5;" x="389.430449" xlink:href="#m9d6c002bdb" y="324"/>
      </g>
     </g>
     <g id="line2d_16">
      <g>
       <use style="stroke:#000000;stroke-width:0.5;" x="389.430449" xlink:href="#ma049d0ef53" y="36"/>
      </g>
     </g>
     <g id="text_6">
      <!-- 90 -->
      <defs>
       <path d="M 10.984375 1.515625 
L 10.984375 10.5 
Q 14.703125 8.734375 18.5 7.8125 
Q 22.3125 6.890625 25.984375 6.890625 
Q 35.75 6.890625 40.890625 13.453125 
Q 46.046875 20.015625 46.78125 33.40625 
Q 43.953125 29.203125 39.59375 26.953125 
Q 35.25 24.703125 29.984375 24.703125 
Q 19.046875 24.703125 12.671875 31.3125 
Q 6.296875 37.9375 6.296875 49.421875 
Q 6.296875 60.640625 12.9375 67.421875 
Q 19.578125 74.21875 30.609375 74.21875 
Q 43.265625 74.21875 49.921875 64.515625 
Q 56.59375 54.828125 56.59375 36.375 
Q 56.59375 19.140625 48.40625 8.859375 
Q 40.234375 -1.421875 26.421875 -1.421875 
Q 22.703125 -1.421875 18.890625 -0.6875 
Q 15.09375 0.046875 10.984375 1.515625 
z
M 30.609375 32.421875 
Q 37.25 32.421875 41.125 36.953125 
Q 45.015625 41.5 45.015625 49.421875 
Q 45.015625 57.28125 41.125 61.84375 
Q 37.25 66.40625 30.609375 66.40625 
Q 23.96875 66.40625 20.09375 61.84375 
Q 16.21875 57.28125 16.21875 49.421875 
Q 16.21875 41.5 20.09375 36.953125 
Q 23.96875 32.421875 30.609375 32.421875 
z
" id="DejaVuSans-57"/>
      </defs>
      <g transform="translate(381.795449 337.118125)scale(0.12 -0.12)">
       <use xlink:href="#DejaVuSans-57"/>
       <use x="63.623047" xlink:href="#DejaVuSans-48"/>
      </g>
     </g>
    </g>
    <g id="xtick_7">
     <g id="line2d_17">
      <g>
       <use style="stroke:#000000;stroke-width:0.5;" x="444.755068" xlink:href="#m9d6c002bdb" y="324"/>
      </g>
     </g>
     <g id="line2d_18">
      <g>
       <use style="stroke:#000000;stroke-width:0.5;" x="444.755068" xlink:href="#ma049d0ef53" y="36"/>
      </g>
     </g>
     <g id="text_7">
      <!-- 108 -->
      <g transform="translate(433.302568 337.118125)scale(0.12 -0.12)">
       <use xlink:href="#DejaVuSans-49"/>
       <use x="63.623047" xlink:href="#DejaVuSans-48"/>
       <use x="127.246094" xlink:href="#DejaVuSans-56"/>
      </g>
     </g>
    </g>
    <g id="xtick_8">
     <g id="line2d_19">
      <g>
       <use style="stroke:#000000;stroke-width:0.5;" x="500.079686" xlink:href="#m9d6c002bdb" y="324"/>
      </g>
     </g>
     <g id="line2d_20">
      <g>
       <use style="stroke:#000000;stroke-width:0.5;" x="500.079686" xlink:href="#ma049d0ef53" y="36"/>
      </g>
     </g>
     <g id="text_8">
      <!-- 126 -->
      <g transform="translate(488.627186 337.118125)scale(0.12 -0.12)">
       <use xlink:href="#DejaVuSans-49"/>
       <use x="63.623047" xlink:href="#DejaVuSans-50"/>
       <use x="127.246094" xlink:href="#DejaVuSans-54"/>
      </g>
     </g>
    </g>
    <g id="xtick_9">
     <g id="line2d_21">
      <g>
       <use style="stroke:#000000;stroke-width:0.5;" x="555.404304" xlink:href="#m9d6c002bdb" y="324"/>
      </g>
     </g>
     <g id="line2d_22">
      <g>
       <use style="stroke:#000000;stroke-width:0.5;" x="555.404304" xlink:href="#ma049d0ef53" y="36"/>
      </g>
     </g>
     <g id="text_9">
      <!-- 144 -->
      <g transform="translate(543.951804 337.118125)scale(0.12 -0.12)">
       <use xlink:href="#DejaVuSans-49"/>
       <use x="63.623047" xlink:href="#DejaVuSans-52"/>
       <use x="127.246094" xlink:href="#DejaVuSans-52"/>
      </g>
     </g>
    </g>
    <g id="xtick_10">
     <g id="line2d_23">
      <g>
       <use style="stroke:#000000;stroke-width:0.5;" x="610.728922" xlink:href="#m9d6c002bdb" y="324"/>
      </g>
     </g>
     <g id="line2d_24">
      <g>
       <use style="stroke:#000000;stroke-width:0.5;" x="610.728922" xlink:href="#ma049d0ef53" y="36"/>
      </g>
     </g>
     <g id="text_10">
      <!-- 162 -->
      <g transform="translate(599.276422 337.118125)scale(0.12 -0.12)">
       <use xlink:href="#DejaVuSans-49"/>
       <use x="63.623047" xlink:href="#DejaVuSans-54"/>
       <use x="127.246094" xlink:href="#DejaVuSans-50"/>
      </g>
     </g>
    </g>
    <g id="text_11">
     <!-- generation -->
     <defs>
      <path d="M 45.40625 27.984375 
Q 45.40625 37.75 41.375 43.109375 
Q 37.359375 48.484375 30.078125 48.484375 
Q 22.859375 48.484375 18.828125 43.109375 
Q 14.796875 37.75 14.796875 27.984375 
Q 14.796875 18.265625 18.828125 12.890625 
Q 22.859375 7.515625 30.078125 7.515625 
Q 37.359375 7.515625 41.375 12.890625 
Q 45.40625 18.265625 45.40625 27.984375 
z
M 54.390625 6.78125 
Q 54.390625 -7.171875 48.1875 -13.984375 
Q 42 -20.796875 29.203125 -20.796875 
Q 24.46875 -20.796875 20.265625 -20.09375 
Q 16.0625 -19.390625 12.109375 -17.921875 
L 12.109375 -9.1875 
Q 16.0625 -11.328125 19.921875 -12.34375 
Q 23.78125 -13.375 27.78125 -13.375 
Q 36.625 -13.375 41.015625 -8.765625 
Q 45.40625 -4.15625 45.40625 5.171875 
L 45.40625 9.625 
Q 42.625 4.78125 38.28125 2.390625 
Q 33.9375 0 27.875 0 
Q 17.828125 0 11.671875 7.65625 
Q 5.515625 15.328125 5.515625 27.984375 
Q 5.515625 40.671875 11.671875 48.328125 
Q 17.828125 56 27.875 56 
Q 33.9375 56 38.28125 53.609375 
Q 42.625 51.21875 45.40625 46.390625 
L 45.40625 54.6875 
L 54.390625 54.6875 
z
" id="DejaVuSans-103"/>
      <path d="M 56.203125 29.59375 
L 56.203125 25.203125 
L 14.890625 25.203125 
Q 15.484375 15.921875 20.484375 11.0625 
Q 25.484375 6.203125 34.421875 6.203125 
Q 39.59375 6.203125 44.453125 7.46875 
Q 49.3125 8.734375 54.109375 11.28125 
L 54.109375 2.78125 
Q 49.265625 0.734375 44.1875 -0.34375 
Q 39.109375 -1.421875 33.890625 -1.421875 
Q 20.796875 -1.421875 13.15625 6.1875 
Q 5.515625 13.8125 5.515625 26.8125 
Q 5.515625 40.234375 12.765625 48.109375 
Q 20.015625 56 32.328125 56 
Q 43.359375 56 49.78125 48.890625 
Q 56.203125 41.796875 56.203125 29.59375 
z
M 47.21875 32.234375 
Q 47.125 39.59375 43.09375 43.984375 
Q 39.0625 48.390625 32.421875 48.390625 
Q 24.90625 48.390625 20.390625 44.140625 
Q 15.875 39.890625 15.1875 32.171875 
z
" id="DejaVuSans-101"/>
      <path d="M 54.890625 33.015625 
L 54.890625 0 
L 45.90625 0 
L 45.90625 32.71875 
Q 45.90625 40.484375 42.875 44.328125 
Q 39.84375 48.1875 33.796875 48.1875 
Q 26.515625 48.1875 22.3125 43.546875 
Q 18.109375 38.921875 18.109375 30.90625 
L 18.109375 0 
L 9.078125 0 
L 9.078125 54.6875 
L 18.109375 54.6875 
L 18.109375 46.1875 
Q 21.34375 51.125 25.703125 53.5625 
Q 30.078125 56 35.796875 56 
Q 45.21875 56 50.046875 50.171875 
Q 54.890625 44.34375 54.890625 33.015625 
z
" id="DejaVuSans-110"/>
      <path d="M 41.109375 46.296875 
Q 39.59375 47.171875 37.8125 47.578125 
Q 36.03125 48 33.890625 48 
Q 26.265625 48 22.1875 43.046875 
Q 18.109375 38.09375 18.109375 28.8125 
L 18.109375 0 
L 9.078125 0 
L 9.078125 54.6875 
L 18.109375 54.6875 
L 18.109375 46.1875 
Q 20.953125 51.171875 25.484375 53.578125 
Q 30.03125 56 36.53125 56 
Q 37.453125 56 38.578125 55.875 
Q 39.703125 55.765625 41.0625 55.515625 
z
" id="DejaVuSans-114"/>
      <path d="M 34.28125 27.484375 
Q 23.390625 27.484375 19.1875 25 
Q 14.984375 22.515625 14.984375 16.5 
Q 14.984375 11.71875 18.140625 8.90625 
Q 21.296875 6.109375 26.703125 6.109375 
Q 34.1875 6.109375 38.703125 11.40625 
Q 43.21875 16.703125 43.21875 25.484375 
L 43.21875 27.484375 
z
M 52.203125 31.203125 
L 52.203125 0 
L 43.21875 0 
L 43.21875 8.296875 
Q 40.140625 3.328125 35.546875 0.953125 
Q 30.953125 -1.421875 24.3125 -1.421875 
Q 15.921875 -1.421875 10.953125 3.296875 
Q 6 8.015625 6 15.921875 
Q 6 25.140625 12.171875 29.828125 
Q 18.359375 34.515625 30.609375 34.515625 
L 43.21875 34.515625 
L 43.21875 35.40625 
Q 43.21875 41.609375 39.140625 45 
Q 35.0625 48.390625 27.6875 48.390625 
Q 23 48.390625 18.546875 47.265625 
Q 14.109375 46.140625 10.015625 43.890625 
L 10.015625 52.203125 
Q 14.9375 54.109375 19.578125 55.046875 
Q 24.21875 56 28.609375 56 
Q 40.484375 56 46.34375 49.84375 
Q 52.203125 43.703125 52.203125 31.203125 
z
" id="DejaVuSans-97"/>
      <path d="M 18.3125 70.21875 
L 18.3125 54.6875 
L 36.8125 54.6875 
L 36.8125 47.703125 
L 18.3125 47.703125 
L 18.3125 18.015625 
Q 18.3125 11.328125 20.140625 9.421875 
Q 21.96875 7.515625 27.59375 7.515625 
L 36.8125 7.515625 
L 36.8125 0 
L 27.59375 0 
Q 17.1875 0 13.234375 3.875 
Q 9.28125 7.765625 9.28125 18.015625 
L 9.28125 47.703125 
L 2.6875 47.703125 
L 2.6875 54.6875 
L 9.28125 54.6875 
L 9.28125 70.21875 
z
" id="DejaVuSans-116"/>
      <path d="M 9.421875 54.6875 
L 18.40625 54.6875 
L 18.40625 0 
L 9.421875 0 
z
M 9.421875 75.984375 
L 18.40625 75.984375 
L 18.40625 64.59375 
L 9.421875 64.59375 
z
" id="DejaVuSans-105"/>
      <path d="M 30.609375 48.390625 
Q 23.390625 48.390625 19.1875 42.75 
Q 14.984375 37.109375 14.984375 27.296875 
Q 14.984375 17.484375 19.15625 11.84375 
Q 23.34375 6.203125 30.609375 6.203125 
Q 37.796875 6.203125 41.984375 11.859375 
Q 46.1875 17.53125 46.1875 27.296875 
Q 46.1875 37.015625 41.984375 42.703125 
Q 37.796875 48.390625 30.609375 48.390625 
z
M 30.609375 56 
Q 42.328125 56 49.015625 48.375 
Q 55.71875 40.765625 55.71875 27.296875 
Q 55.71875 13.875 49.015625 6.21875 
Q 42.328125 -1.421875 30.609375 -1.421875 
Q 18.84375 -1.421875 12.171875 6.21875 
Q 5.515625 13.875 5.515625 27.296875 
Q 5.515625 40.765625 12.171875 48.375 
Q 18.84375 56 30.609375 56 
z
" id="DejaVuSans-111"/>
     </defs>
     <g transform="translate(341.430938 353.731875)scale(0.12 -0.12)">
      <use xlink:href="#DejaVuSans-103"/>
      <use x="63.476562" xlink:href="#DejaVuSans-101"/>
      <use x="125" xlink:href="#DejaVuSans-110"/>
      <use x="188.378906" xlink:href="#DejaVuSans-101"/>
      <use x="249.902344" xlink:href="#DejaVuSans-114"/>
      <use x="291.015625" xlink:href="#DejaVuSans-97"/>
      <use x="352.294922" xlink:href="#DejaVuSans-116"/>
      <use x="391.503906" xlink:href="#DejaVuSans-105"/>
      <use x="419.287109" xlink:href="#DejaVuSans-111"/>
      <use x="480.46875" xlink:href="#DejaVuSans-110"/>
     </g>
    </g>
   </g>
   <g id="matplotlib.axis_2">
    <g id="ytick_1">
     <g id="line2d_25">
      <defs>
       <path d="M 0 0 
L 4 0 
" id="mf5e24e71a7" style="stroke:#000000;stroke-width:0.5;"/>
      </defs>
      <g>
       <use style="stroke:#000000;stroke-width:0.5;" x="112.5" xlink:href="#mf5e24e71a7" y="292"/>
      </g>
     </g>
     <g id="line2d_26">
      <defs>
       <path d="M 0 0 
L -4 0 
" id="m039268fe07" style="stroke:#000000;stroke-width:0.5;"/>
      </defs>
      <g>
       <use style="stroke:#000000;stroke-width:0.5;" x="635.625" xlink:href="#m039268fe07" y="292"/>
      </g>
     </g>
     <g id="text_12">
      <!-- 0.20 -->
      <defs>
       <path d="M 10.6875 12.40625 
L 21 12.40625 
L 21 0 
L 10.6875 0 
z
" id="DejaVuSans-46"/>
      </defs>
      <g transform="translate(81.78125 295.31125)scale(0.12 -0.12)">
       <use xlink:href="#DejaVuSans-48"/>
       <use x="63.623047" xlink:href="#DejaVuSans-46"/>
       <use x="95.410156" xlink:href="#DejaVuSans-50"/>
       <use x="159.033203" xlink:href="#DejaVuSans-48"/>
      </g>
     </g>
    </g>
    <g id="ytick_2">
     <g id="line2d_27">
      <g>
       <use style="stroke:#000000;stroke-width:0.5;" x="112.5" xlink:href="#mf5e24e71a7" y="212"/>
      </g>
     </g>
     <g id="line2d_28">
      <g>
       <use style="stroke:#000000;stroke-width:0.5;" x="635.625" xlink:href="#m039268fe07" y="212"/>
      </g>
     </g>
     <g id="text_13">
      <!-- 0.25 -->
      <g transform="translate(81.78125 215.31125)scale(0.12 -0.12)">
       <use xlink:href="#DejaVuSans-48"/>
       <use x="63.623047" xlink:href="#DejaVuSans-46"/>
       <use x="95.410156" xlink:href="#DejaVuSans-50"/>
       <use x="159.033203" xlink:href="#DejaVuSans-53"/>
      </g>
     </g>
    </g>
    <g id="ytick_3">
     <g id="line2d_29">
      <g>
       <use style="stroke:#000000;stroke-width:0.5;" x="112.5" xlink:href="#mf5e24e71a7" y="132"/>
      </g>
     </g>
     <g id="line2d_30">
      <g>
       <use style="stroke:#000000;stroke-width:0.5;" x="635.625" xlink:href="#m039268fe07" y="132"/>
      </g>
     </g>
     <g id="text_14">
      <!-- 0.30 -->
      <g transform="translate(81.78125 135.31125)scale(0.12 -0.12)">
       <use xlink:href="#DejaVuSans-48"/>
       <use x="63.623047" xlink:href="#DejaVuSans-46"/>
       <use x="95.410156" xlink:href="#DejaVuSans-51"/>
       <use x="159.033203" xlink:href="#DejaVuSans-48"/>
      </g>
     </g>
    </g>
    <g id="ytick_4">
     <g id="line2d_31">
      <g>
       <use style="stroke:#000000;stroke-width:0.5;" x="112.5" xlink:href="#mf5e24e71a7" y="52"/>
      </g>
     </g>
     <g id="line2d_32">
      <g>
       <use style="stroke:#000000;stroke-width:0.5;" x="635.625" xlink:href="#m039268fe07" y="52"/>
      </g>
     </g>
     <g id="text_15">
      <!-- 0.35 -->
      <g transform="translate(81.78125 55.31125)scale(0.12 -0.12)">
       <use xlink:href="#DejaVuSans-48"/>
       <use x="63.623047" xlink:href="#DejaVuSans-46"/>
       <use x="95.410156" xlink:href="#DejaVuSans-51"/>
       <use x="159.033203" xlink:href="#DejaVuSans-53"/>
      </g>
     </g>
    </g>
    <g id="text_16">
     <!-- los -->
     <defs>
      <path d="M 9.421875 75.984375 
L 18.40625 75.984375 
L 18.40625 0 
L 9.421875 0 
z
" id="DejaVuSans-108"/>
      <path d="M 44.28125 53.078125 
L 44.28125 44.578125 
Q 40.484375 46.53125 36.375 47.5 
Q 32.28125 48.484375 27.875 48.484375 
Q 21.1875 48.484375 17.84375 46.4375 
Q 14.5 44.390625 14.5 40.28125 
Q 14.5 37.15625 16.890625 35.375 
Q 19.28125 33.59375 26.515625 31.984375 
L 29.59375 31.296875 
Q 39.15625 29.25 43.1875 25.515625 
Q 47.21875 21.78125 47.21875 15.09375 
Q 47.21875 7.46875 41.1875 3.015625 
Q 35.15625 -1.421875 24.609375 -1.421875 
Q 20.21875 -1.421875 15.453125 -0.5625 
Q 10.6875 0.296875 5.421875 2 
L 5.421875 11.28125 
Q 10.40625 8.6875 15.234375 7.390625 
Q 20.0625 6.109375 24.8125 6.109375 
Q 31.15625 6.109375 34.5625 8.28125 
Q 37.984375 10.453125 37.984375 14.40625 
Q 37.984375 18.0625 35.515625 20.015625 
Q 33.0625 21.96875 24.703125 23.78125 
L 21.578125 24.515625 
Q 13.234375 26.265625 9.515625 29.90625 
Q 5.8125 33.546875 5.8125 39.890625 
Q 5.8125 47.609375 11.28125 51.796875 
Q 16.75 56 26.8125 56 
Q 31.78125 56 36.171875 55.265625 
Q 40.578125 54.546875 44.28125 53.078125 
z
" id="DejaVuSans-115"/>
     </defs>
     <g transform="translate(74.285625 188.46375)rotate(-90)scale(0.12 -0.12)">
      <use xlink:href="#DejaVuSans-108"/>
      <use x="27.783203" xlink:href="#DejaVuSans-111"/>
      <use x="88.964844" xlink:href="#DejaVuSans-115"/>
     </g>
    </g>
   </g>
   <g id="legend_1">
    <g id="patch_7">
     <path d="M 640.623 211.399935 
L 780.557629 211.399935 
L 780.557629 148.600065 
L 640.623 148.600065 
z
" style="fill:#ffffff;stroke:#000000;stroke-linejoin:miter;"/>
    </g>
    <g id="line2d_33">
     <path d="M 647.6202 156.695263 
L 661.6146 156.695263 
" style="fill:none;stroke:#0000ff;stroke-linecap:square;stroke-width:1.2;"/>
    </g>
    <g id="line2d_34"/>
    <g id="text_17">
     <!-- Error_par_scale_0.1 -->
     <defs>
      <path d="M 9.8125 72.90625 
L 55.90625 72.90625 
L 55.90625 64.59375 
L 19.671875 64.59375 
L 19.671875 43.015625 
L 54.390625 43.015625 
L 54.390625 34.71875 
L 19.671875 34.71875 
L 19.671875 8.296875 
L 56.78125 8.296875 
L 56.78125 0 
L 9.8125 0 
z
" id="DejaVuSans-69"/>
      <path d="M 50.984375 -16.609375 
L 50.984375 -23.578125 
L -0.984375 -23.578125 
L -0.984375 -16.609375 
z
" id="DejaVuSans-95"/>
      <path d="M 18.109375 8.203125 
L 18.109375 -20.796875 
L 9.078125 -20.796875 
L 9.078125 54.6875 
L 18.109375 54.6875 
L 18.109375 46.390625 
Q 20.953125 51.265625 25.265625 53.625 
Q 29.59375 56 35.59375 56 
Q 45.5625 56 51.78125 48.09375 
Q 58.015625 40.1875 58.015625 27.296875 
Q 58.015625 14.40625 51.78125 6.484375 
Q 45.5625 -1.421875 35.59375 -1.421875 
Q 29.59375 -1.421875 25.265625 0.953125 
Q 20.953125 3.328125 18.109375 8.203125 
z
M 48.6875 27.296875 
Q 48.6875 37.203125 44.609375 42.84375 
Q 40.53125 48.484375 33.40625 48.484375 
Q 26.265625 48.484375 22.1875 42.84375 
Q 18.109375 37.203125 18.109375 27.296875 
Q 18.109375 17.390625 22.1875 11.75 
Q 26.265625 6.109375 33.40625 6.109375 
Q 40.53125 6.109375 44.609375 11.75 
Q 48.6875 17.390625 48.6875 27.296875 
z
" id="DejaVuSans-112"/>
      <path d="M 48.78125 52.59375 
L 48.78125 44.1875 
Q 44.96875 46.296875 41.140625 47.34375 
Q 37.3125 48.390625 33.40625 48.390625 
Q 24.65625 48.390625 19.8125 42.84375 
Q 14.984375 37.3125 14.984375 27.296875 
Q 14.984375 17.28125 19.8125 11.734375 
Q 24.65625 6.203125 33.40625 6.203125 
Q 37.3125 6.203125 41.140625 7.25 
Q 44.96875 8.296875 48.78125 10.40625 
L 48.78125 2.09375 
Q 45.015625 0.34375 40.984375 -0.53125 
Q 36.96875 -1.421875 32.421875 -1.421875 
Q 20.0625 -1.421875 12.78125 6.34375 
Q 5.515625 14.109375 5.515625 27.296875 
Q 5.515625 40.671875 12.859375 48.328125 
Q 20.21875 56 33.015625 56 
Q 37.15625 56 41.109375 55.140625 
Q 45.0625 54.296875 48.78125 52.59375 
z
" id="DejaVuSans-99"/>
     </defs>
     <g transform="translate(672.6102 160.193863)scale(0.09996 -0.09996)">
      <use xlink:href="#DejaVuSans-69"/>
      <use x="63.183594" xlink:href="#DejaVuSans-114"/>
      <use x="102.546875" xlink:href="#DejaVuSans-114"/>
      <use x="141.410156" xlink:href="#DejaVuSans-111"/>
      <use x="202.591797" xlink:href="#DejaVuSans-114"/>
      <use x="243.705078" xlink:href="#DejaVuSans-95"/>
      <use x="293.705078" xlink:href="#DejaVuSans-112"/>
      <use x="357.181641" xlink:href="#DejaVuSans-97"/>
      <use x="418.460938" xlink:href="#DejaVuSans-114"/>
      <use x="459.574219" xlink:href="#DejaVuSans-95"/>
      <use x="509.574219" xlink:href="#DejaVuSans-115"/>
      <use x="561.673828" xlink:href="#DejaVuSans-99"/>
      <use x="616.654297" xlink:href="#DejaVuSans-97"/>
      <use x="677.933594" xlink:href="#DejaVuSans-108"/>
      <use x="705.716797" xlink:href="#DejaVuSans-101"/>
      <use x="767.240234" xlink:href="#DejaVuSans-95"/>
      <use x="817.240234" xlink:href="#DejaVuSans-48"/>
      <use x="880.863281" xlink:href="#DejaVuSans-46"/>
      <use x="912.650391" xlink:href="#DejaVuSans-49"/>
     </g>
    </g>
    <g id="line2d_35">
     <path d="M 647.6202 171.645531 
L 661.6146 171.645531 
" style="fill:none;stroke:#008000;stroke-linecap:square;stroke-width:1.2;"/>
    </g>
    <g id="line2d_36"/>
    <g id="text_18">
     <!-- Error_par_scale_0.33 -->
     <g transform="translate(672.6102 175.144131)scale(0.09996 -0.09996)">
      <use xlink:href="#DejaVuSans-69"/>
      <use x="63.183594" xlink:href="#DejaVuSans-114"/>
      <use x="102.546875" xlink:href="#DejaVuSans-114"/>
      <use x="141.410156" xlink:href="#DejaVuSans-111"/>
      <use x="202.591797" xlink:href="#DejaVuSans-114"/>
      <use x="243.705078" xlink:href="#DejaVuSans-95"/>
      <use x="293.705078" xlink:href="#DejaVuSans-112"/>
      <use x="357.181641" xlink:href="#DejaVuSans-97"/>
      <use x="418.460938" xlink:href="#DejaVuSans-114"/>
      <use x="459.574219" xlink:href="#DejaVuSans-95"/>
      <use x="509.574219" xlink:href="#DejaVuSans-115"/>
      <use x="561.673828" xlink:href="#DejaVuSans-99"/>
      <use x="616.654297" xlink:href="#DejaVuSans-97"/>
      <use x="677.933594" xlink:href="#DejaVuSans-108"/>
      <use x="705.716797" xlink:href="#DejaVuSans-101"/>
      <use x="767.240234" xlink:href="#DejaVuSans-95"/>
      <use x="817.240234" xlink:href="#DejaVuSans-48"/>
      <use x="880.863281" xlink:href="#DejaVuSans-46"/>
      <use x="912.650391" xlink:href="#DejaVuSans-51"/>
      <use x="976.273438" xlink:href="#DejaVuSans-51"/>
     </g>
    </g>
    <g id="line2d_37">
     <path d="M 647.6202 186.595798 
L 661.6146 186.595798 
" style="fill:none;stroke:#ff0000;stroke-linecap:square;stroke-width:1.2;"/>
    </g>
    <g id="line2d_38"/>
    <g id="text_19">
     <!-- Loss_par_scale_0.1 -->
     <defs>
      <path d="M 9.8125 72.90625 
L 19.671875 72.90625 
L 19.671875 8.296875 
L 55.171875 8.296875 
L 55.171875 0 
L 9.8125 0 
z
" id="DejaVuSans-76"/>
     </defs>
     <g transform="translate(672.6102 190.094398)scale(0.09996 -0.09996)">
      <use xlink:href="#DejaVuSans-76"/>
      <use x="53.962891" xlink:href="#DejaVuSans-111"/>
      <use x="115.144531" xlink:href="#DejaVuSans-115"/>
      <use x="167.244141" xlink:href="#DejaVuSans-115"/>
      <use x="219.34375" xlink:href="#DejaVuSans-95"/>
      <use x="269.34375" xlink:href="#DejaVuSans-112"/>
      <use x="332.820312" xlink:href="#DejaVuSans-97"/>
      <use x="394.099609" xlink:href="#DejaVuSans-114"/>
      <use x="435.212891" xlink:href="#DejaVuSans-95"/>
      <use x="485.212891" xlink:href="#DejaVuSans-115"/>
      <use x="537.3125" xlink:href="#DejaVuSans-99"/>
      <use x="592.292969" xlink:href="#DejaVuSans-97"/>
      <use x="653.572266" xlink:href="#DejaVuSans-108"/>
      <use x="681.355469" xlink:href="#DejaVuSans-101"/>
      <use x="742.878906" xlink:href="#DejaVuSans-95"/>
      <use x="792.878906" xlink:href="#DejaVuSans-48"/>
      <use x="856.501953" xlink:href="#DejaVuSans-46"/>
      <use x="888.289062" xlink:href="#DejaVuSans-49"/>
     </g>
    </g>
    <g id="line2d_39">
     <path d="M 647.6202 201.546066 
L 661.6146 201.546066 
" style="fill:none;stroke:#00bfbf;stroke-linecap:square;stroke-width:1.2;"/>
    </g>
    <g id="line2d_40"/>
    <g id="text_20">
     <!-- Loss_par_scale_0.33 -->
     <g transform="translate(672.6102 205.044666)scale(0.09996 -0.09996)">
      <use xlink:href="#DejaVuSans-76"/>
      <use x="53.962891" xlink:href="#DejaVuSans-111"/>
      <use x="115.144531" xlink:href="#DejaVuSans-115"/>
      <use x="167.244141" xlink:href="#DejaVuSans-115"/>
      <use x="219.34375" xlink:href="#DejaVuSans-95"/>
      <use x="269.34375" xlink:href="#DejaVuSans-112"/>
      <use x="332.820312" xlink:href="#DejaVuSans-97"/>
      <use x="394.099609" xlink:href="#DejaVuSans-114"/>
      <use x="435.212891" xlink:href="#DejaVuSans-95"/>
      <use x="485.212891" xlink:href="#DejaVuSans-115"/>
      <use x="537.3125" xlink:href="#DejaVuSans-99"/>
      <use x="592.292969" xlink:href="#DejaVuSans-97"/>
      <use x="653.572266" xlink:href="#DejaVuSans-108"/>
      <use x="681.355469" xlink:href="#DejaVuSans-101"/>
      <use x="742.878906" xlink:href="#DejaVuSans-95"/>
      <use x="792.878906" xlink:href="#DejaVuSans-48"/>
      <use x="856.501953" xlink:href="#DejaVuSans-46"/>
      <use x="888.289062" xlink:href="#DejaVuSans-51"/>
      <use x="951.912109" xlink:href="#DejaVuSans-51"/>
     </g>
    </g>
   </g>
  </g>
  <g id="text_21">
   <!-- Average Loss -->
   <defs>
    <path d="M 34.1875 63.1875 
L 20.796875 26.90625 
L 47.609375 26.90625 
z
M 28.609375 72.90625 
L 39.796875 72.90625 
L 67.578125 0 
L 57.328125 0 
L 50.6875 18.703125 
L 17.828125 18.703125 
L 11.1875 0 
L 0.78125 0 
z
" id="DejaVuSans-65"/>
    <path d="M 2.984375 54.6875 
L 12.5 54.6875 
L 29.59375 8.796875 
L 46.6875 54.6875 
L 56.203125 54.6875 
L 35.6875 0 
L 23.484375 0 
z
" id="DejaVuSans-118"/>
    <path id="DejaVuSans-32"/>
   </defs>
   <g transform="translate(410.293125 16.318125)scale(0.12 -0.12)">
    <use xlink:href="#DejaVuSans-65"/>
    <use x="62.533203" xlink:href="#DejaVuSans-118"/>
    <use x="121.712891" xlink:href="#DejaVuSans-101"/>
    <use x="183.236328" xlink:href="#DejaVuSans-114"/>
    <use x="224.349609" xlink:href="#DejaVuSans-97"/>
    <use x="285.628906" xlink:href="#DejaVuSans-103"/>
    <use x="349.105469" xlink:href="#DejaVuSans-101"/>
    <use x="410.628906" xlink:href="#DejaVuSans-32"/>
    <use x="442.416016" xlink:href="#DejaVuSans-76"/>
    <use x="496.378906" xlink:href="#DejaVuSans-111"/>
    <use x="557.560547" xlink:href="#DejaVuSans-115"/>
    <use x="609.660156" xlink:href="#DejaVuSans-115"/>
   </g>
  </g>
 </g>
 <defs>
  <clipPath id="p3b9f10abea">
   <rect height="288" width="523.125" x="112.5" y="36"/>
  </clipPath>
 </defs>
</svg>
