<?xml version="1.0" encoding="utf-8" standalone="no"?>
<!DOCTYPE svg PUBLIC "-//W3C//DTD SVG 1.1//EN"
  "http://www.w3.org/Graphics/SVG/1.1/DTD/svg11.dtd">
<!-- Created with matplotlib (https://matplotlib.org/) -->
<svg height="360pt" version="1.1" viewBox="0 0 900 360" width="900pt" xmlns="http://www.w3.org/2000/svg" xmlns:xlink="http://www.w3.org/1999/xlink">
 <defs>
  <style type="text/css">
*{stroke-linecap:butt;stroke-linejoin:round;}
  </style>
 </defs>
 <g id="figure_1">
  <g id="patch_1">
   <path d="M 0 360 
L 900 360 
L 900 0 
L 0 0 
z
" style="fill:#ffffff;"/>
  </g>
  <g id="axes_1">
   <g id="patch_2">
    <path d="M 112.5 324 
L 635.625 324 
L 635.625 36 
L 112.5 36 
z
" style="fill:#ffffff;"/>
   </g>
   <g id="line2d_1">
    <path clip-path="url(#p7264d27464)" d="M 112.688039 323.0376 
L 114.568431 322.525659 
L 116.448823 322.744704 
L 120.209606 322.573495 
L 122.089998 322.175767 
L 123.97039 322.260617 
L 125.850782 322.21189 
L 127.731174 322.277239 
L 129.611565 321.812777 
L 131.491957 322.052928 
L 133.372349 321.781783 
L 135.252741 322.085239 
L 137.133133 321.854071 
L 140.893916 320.781326 
L 142.774308 320.528599 
L 146.535092 321.009477 
L 148.415483 320.617934 
L 150.295875 320.619895 
L 152.176267 320.118994 
L 154.056659 319.27717 
L 155.937051 319.462848 
L 157.817442 319.825577 
L 161.578226 318.369298 
L 165.33901 317.705856 
L 167.219402 318.044763 
L 169.099793 318.783209 
L 170.980185 318.20293 
L 172.860577 318.814917 
L 174.740969 317.281673 
L 176.621361 316.440329 
L 178.501752 314.139099 
L 180.382144 313.889691 
L 182.262536 311.590162 
L 184.142928 310.968795 
L 186.02332 313.880091 
L 187.903711 313.752809 
L 189.784103 311.253518 
L 191.664495 310.688613 
L 195.425279 306.660549 
L 197.30567 306.109207 
L 199.186062 303.402555 
L 201.066454 301.930711 
L 202.946846 303.014235 
L 204.827238 303.519593 
L 206.707629 302.433477 
L 208.588021 302.01035 
L 210.468413 299.867493 
L 212.348805 291.780905 
L 214.229197 301.918354 
L 216.109588 292.738917 
L 217.98998 290.262322 
L 219.870372 296.357307 
L 221.750764 292.975529 
L 223.631156 283.770487 
L 225.511547 280.430359 
L 227.391939 278.784014 
L 229.272331 286.377627 
L 231.152723 292.384306 
L 233.033115 285.907077 
L 234.913506 290.061024 
L 236.793898 281.284677 
L 238.67429 287.043305 
L 240.554682 263.878025 
L 242.435074 277.013746 
L 244.315465 255.901495 
L 246.195857 274.236576 
L 248.076249 275.317317 
L 249.956641 267.444137 
L 251.837033 266.433189 
L 253.717425 277.520503 
L 255.597816 252.457179 
L 257.478208 273.052869 
L 259.3586 259.694167 
L 261.238992 261.710523 
L 263.119384 260.649915 
L 264.999775 242.457559 
L 266.880167 270.043474 
L 268.760559 271.686432 
L 270.640951 260.038135 
L 272.521343 268.118016 
L 274.401734 257.058007 
L 276.282126 279.42901 
L 278.162518 234.252192 
L 280.04291 231.864315 
L 281.923302 228.165888 
L 283.803693 242.640137 
L 285.684085 236.958789 
L 287.564477 209.595909 
L 289.444869 227.171314 
L 291.325261 226.015611 
L 293.205652 233.691223 
L 295.086044 227.519931 
L 296.966436 250.823191 
L 298.846828 229.12704 
L 300.72722 218.87424 
L 302.607611 234.399909 
L 304.488003 218.481737 
L 306.368395 234.560229 
L 308.248787 208.11312 
L 310.129179 228.425143 
L 312.00957 204.128667 
L 313.889962 200.699177 
L 315.770354 222.367063 
L 317.650746 173.376617 
L 319.531138 135.641829 
L 321.411529 185.762263 
L 323.291921 183.167383 
L 325.172313 164.959611 
L 327.052705 216.017691 
L 328.933097 217.304229 
L 330.813488 194.866149 
L 332.69388 209.922994 
L 334.574272 170.389234 
L 336.454664 195.106011 
L 338.335056 197.602766 
L 340.215448 212.986697 
L 342.095839 204.384343 
L 343.976231 191.071954 
L 345.856623 181.09584 
L 347.737015 172.275429 
L 349.617407 161.830491 
L 351.497798 187.572137 
L 353.37819 132.817989 
L 353.37819 132.817989 
" style="fill:none;stroke:#0000ff;stroke-linecap:square;stroke-width:1.2;"/>
   </g>
   <g id="line2d_2">
    <path clip-path="url(#p7264d27464)" d="M 112.688039 322.760681 
L 114.568431 322.854857 
L 116.448823 322.746555 
L 120.209606 322.800425 
L 122.089998 322.694674 
L 123.97039 322.76869 
L 127.731174 322.363735 
L 131.491957 321.97632 
L 133.372349 322.093879 
L 135.252741 321.707863 
L 137.133133 321.879593 
L 139.013524 321.641486 
L 140.893916 321.627483 
L 142.774308 321.266523 
L 144.6547 321.428681 
L 146.535092 321.369874 
L 148.415483 320.766021 
L 150.295875 321.010725 
L 152.176267 320.635817 
L 154.056659 319.711982 
L 155.937051 320.011653 
L 157.817442 319.865856 
L 159.697834 319.320549 
L 161.578226 319.21691 
L 163.458618 319.228142 
L 165.33901 318.929952 
L 169.099793 318.977979 
L 170.980185 318.793522 
L 172.860577 318.876713 
L 174.740969 318.449376 
L 176.621361 318.653445 
L 178.501752 317.549211 
L 180.382144 318.6696 
L 182.262536 317.402167 
L 184.142928 318.177175 
L 186.02332 317.563762 
L 187.903711 317.739826 
L 189.784103 317.057486 
L 191.664495 316.639927 
L 193.544887 316.053792 
L 195.425279 316.562921 
L 197.30567 315.343131 
L 201.066454 314.945115 
L 202.946846 315.698523 
L 204.827238 315.497102 
L 206.707629 315.589509 
L 208.588021 314.82613 
L 210.468413 313.688805 
L 212.348805 312.349481 
L 214.229197 311.407625 
L 216.109588 309.920105 
L 217.98998 311.514693 
L 219.870372 309.209129 
L 221.750764 309.357614 
L 223.631156 311.636695 
L 225.511547 308.706802 
L 227.391939 309.427488 
L 229.272331 307.730811 
L 231.152723 305.426057 
L 233.033115 303.625097 
L 234.913506 302.430309 
L 236.793898 301.545134 
L 238.67429 301.718112 
L 240.554682 298.873467 
L 242.435074 302.589765 
L 244.315465 303.202821 
L 246.195857 297.225641 
L 248.076249 292.419223 
L 249.956641 295.465509 
L 251.837033 294.797198 
L 253.717425 295.513742 
L 255.597816 297.200846 
L 257.478208 296.310213 
L 259.3586 286.183735 
L 261.238992 280.683799 
L 263.119384 286.616722 
L 264.999775 286.422322 
L 266.880167 283.212727 
L 268.760559 277.873248 
L 270.640951 280.634894 
L 272.521343 286.329038 
L 274.401734 281.203186 
L 276.282126 281.798523 
L 278.162518 284.158683 
L 280.04291 283.150231 
L 281.923302 281.687081 
L 283.803693 269.984997 
L 285.684085 274.237289 
L 287.564477 280.53013 
L 289.444869 270.464037 
L 291.325261 269.907895 
L 293.205652 264.132727 
L 295.086044 262.474766 
L 296.966436 266.435575 
L 298.846828 267.097577 
L 300.72722 265.26192 
L 302.607611 256.7064 
L 304.488003 264.765326 
L 306.368395 254.8368 
L 308.248787 251.076165 
L 310.129179 249.62064 
L 312.00957 249.792987 
L 313.889962 258.367653 
L 315.770354 258.98256 
L 317.650746 263.471287 
L 319.531138 260.056018 
L 321.411529 254.636352 
L 325.172313 268.10064 
L 327.052705 241.355931 
L 328.933097 266.410697 
L 330.813488 249.925577 
L 332.69388 250.992261 
L 334.574272 247.047223 
L 336.454664 247.897646 
L 338.335056 255.093531 
L 340.215448 233.83296 
L 342.095839 237.845211 
L 343.976231 224.107611 
L 347.737015 208.996251 
L 349.617407 226.484434 
L 351.497798 213.3792 
L 353.37819 222.211625 
L 355.258582 223.747749 
L 357.138974 234.436937 
L 359.019366 209.094377 
L 360.899757 211.645659 
L 362.780149 245.585349 
L 364.660541 235.566514 
L 366.540933 236.983886 
L 368.421325 234.995054 
L 370.301716 232.094894 
L 372.182108 232.764247 
L 374.0625 226.909646 
L 375.942892 220.378834 
L 377.823284 224.805394 
L 379.703675 234.908585 
L 381.584067 219.413061 
L 383.464459 229.673157 
L 385.344851 221.31648 
L 387.225243 230.463977 
L 389.105634 226.043246 
L 390.986026 234.247269 
L 392.866418 237.976046 
L 394.74681 226.833326 
L 396.627202 236.902834 
L 398.507593 196.149847 
L 400.387985 243.816014 
L 402.268377 203.714455 
L 404.148769 229.68624 
L 406.029161 235.565294 
L 407.909552 248.706171 
L 409.789944 236.019621 
L 411.670336 235.839086 
L 413.550728 234.622066 
L 415.43112 231.03803 
L 417.311512 235.816622 
L 419.191903 228.356119 
L 421.072295 229.062199 
L 422.952687 222.275931 
L 424.833079 216.682766 
L 426.713471 228.10896 
L 428.593862 221.908663 
L 430.474254 232.256421 
L 432.354646 218.710697 
L 434.235038 238.433966 
L 436.11543 224.042194 
L 437.995821 237.387291 
L 439.876213 226.975063 
L 441.756605 219.397577 
L 443.636997 228.305211 
L 445.517389 227.978126 
L 447.39778 226.680686 
L 449.278172 235.544709 
L 451.158564 227.44464 
L 453.038956 226.04832 
L 454.919348 237.42 
L 456.799739 238.630217 
L 458.680131 223.704206 
L 460.560523 234.476229 
L 462.440915 230.224114 
L 464.321307 216.170331 
L 466.201698 223.169966 
L 468.08209 230.80224 
L 469.962482 231.275287 
L 471.842874 245.793394 
L 473.723266 238.128686 
L 475.603657 232.30656 
L 477.484049 222.701143 
L 479.364441 238.652023 
L 481.244833 240.876206 
L 483.125225 183.876069 
L 485.005616 187.899223 
L 486.886008 162.551657 
L 488.7664 182.359776 
L 490.646792 183.210994 
L 492.527184 179.809303 
L 494.407575 201.822171 
L 496.287967 203.642949 
L 498.168359 198.584023 
L 500.048751 195.127817 
L 501.929143 190.668549 
L 503.809535 192.075017 
L 505.689926 205.801714 
L 507.570318 172.787863 
L 509.45071 183.189189 
L 511.331102 174.128914 
L 513.211494 189.665486 
L 515.091885 180.899589 
L 516.972277 146.29104 
L 518.852669 159.584503 
L 520.733061 176.920046 
L 522.613453 181.150354 
L 524.493844 174.706766 
L 526.374236 171.882926 
L 528.254628 164.07648 
L 530.13502 137.887817 
L 532.015412 130.506583 
L 533.895803 137.462606 
L 535.776195 132.109303 
L 537.656587 118.415314 
L 539.536979 100.491017 
L 541.417371 81.411017 
L 543.297762 111.601029 
L 545.178154 111.601029 
L 547.058546 118.851429 
L 548.938938 121.462697 
L 550.81933 116.22384 
L 552.699721 130.502976 
L 554.580113 104.143474 
L 556.460505 106.640229 
L 558.340897 96.184389 
L 560.221289 90.296846 
L 563.982072 62.745326 
L 565.862464 75.970491 
L 567.742856 75.970491 
L 569.623248 74.716663 
L 571.503639 78.227383 
L 573.384031 61.774971 
L 575.264423 67.804251 
L 577.144815 105.613947 
L 580.905598 145.781486 
L 582.78599 120.519566 
L 584.666382 100.414697 
L 586.546774 92.084914 
L 588.427166 133.232297 
L 590.307558 101.777554 
L 594.068341 116.997943 
L 595.948733 125.00064 
L 597.829125 116.784192 
L 599.709517 145.476206 
L 603.4703 168.154149 
L 605.350692 152.334103 
L 607.231084 167.521783 
L 609.111476 195.971904 
L 610.991867 163.400503 
L 612.872259 141.681806 
L 614.752651 189.990583 
L 616.633043 189.40896 
L 618.513435 191.257303 
L 620.393826 181.772571 
L 622.274218 170.063328 
L 624.15461 148.638034 
L 626.035002 143.415566 
L 627.915394 160.3368 
L 629.795785 150.306171 
L 631.676177 154.329326 
L 633.556569 70.955177 
L 635.436961 73.473737 
L 635.436961 73.473737 
" style="fill:none;stroke:#008000;stroke-linecap:square;stroke-width:1.2;"/>
   </g>
   <g id="line2d_3">
    <path clip-path="url(#p7264d27464)" d="M 112.688039 322.45536 
L 114.568431 322.588197 
L 116.448823 322.57355 
L 118.329215 322.221957 
L 120.209606 322.070592 
L 122.089998 322.096032 
L 123.97039 321.659342 
L 127.731174 321.365362 
L 129.611565 321.035355 
L 131.491957 320.830368 
L 133.372349 320.823867 
L 135.252741 320.215845 
L 139.013524 320.244631 
L 140.893916 318.473403 
L 142.774308 319.891872 
L 144.6547 319.288402 
L 150.295875 319.181198 
L 152.176267 318.484183 
L 154.056659 318.720549 
L 155.937051 317.69989 
L 157.817442 317.827227 
L 159.697834 317.604658 
L 161.578226 317.565463 
L 163.458618 317.722656 
L 165.33901 317.644334 
L 167.219402 316.31472 
L 169.099793 316.406729 
L 170.980185 315.522144 
L 172.860577 313.659483 
L 174.740969 314.407803 
L 176.621361 314.838226 
L 178.501752 311.116142 
L 180.382144 311.430542 
L 182.262536 311.074683 
L 184.142928 308.406295 
L 187.903711 304.906642 
L 189.784103 304.884562 
L 191.664495 306.352663 
L 193.544887 303.556978 
L 195.425279 307.583767 
L 197.30567 303.025152 
L 199.186062 303.644434 
L 201.066454 300.502834 
L 202.946846 296.026917 
L 204.827238 298.108032 
L 206.707629 299.803515 
L 208.588021 298.592489 
L 210.468413 296.467406 
L 212.348805 296.645513 
L 214.229197 292.280942 
L 216.109588 289.327872 
L 217.98998 294.795099 
L 219.870372 292.436818 
L 221.750764 292.129111 
L 223.631156 295.74683 
L 225.511547 291.188023 
L 227.391939 295.04592 
L 229.272331 292.713394 
L 231.152723 295.470734 
L 233.033115 293.602299 
L 234.913506 293.577339 
L 236.793898 292.061678 
L 238.67429 295.856064 
L 240.554682 293.922418 
L 244.315465 287.639726 
L 246.195857 295.863291 
L 248.076249 290.936558 
L 249.956641 286.654286 
L 251.837033 276.756274 
L 253.717425 283.555186 
L 255.597816 285.17941 
L 257.478208 277.45717 
L 259.3586 281.695269 
L 261.238992 273.711237 
L 263.119384 274.970784 
L 264.999775 277.929943 
L 266.880167 282.150857 
L 268.760559 272.719433 
L 270.640951 277.258807 
L 272.521343 272.409394 
L 274.401734 277.806089 
L 276.282126 277.634921 
L 278.162518 280.230665 
L 280.04291 278.53381 
L 281.923302 272.775675 
L 283.803693 276.550176 
L 285.684085 275.347077 
L 287.564477 267.100827 
L 289.444869 266.910459 
L 291.325261 264.677541 
L 293.205652 266.864311 
L 295.086044 267.505851 
L 296.966436 260.550994 
L 298.846828 268.586098 
L 300.72722 255.839534 
L 302.607611 269.507054 
L 304.488003 274.25952 
L 306.368395 241.432786 
L 308.248787 268.41925 
L 310.129179 272.667689 
L 312.00957 269.455872 
L 313.889962 257.694651 
L 315.770354 266.986025 
L 317.650746 255.766985 
L 319.531138 249.233609 
L 321.411529 261.481769 
L 323.291921 263.938738 
L 325.172313 272.088823 
L 327.052705 267.671904 
L 328.933097 261.45264 
L 330.813488 275.167035 
L 332.69388 271.906395 
L 334.574272 266.567451 
L 336.454664 267.2376 
L 338.335056 266.595291 
L 340.215448 262.304434 
L 342.095839 261.039703 
L 343.976231 237.52224 
L 345.856623 251.340754 
L 347.737015 256.529061 
L 349.617407 253.677079 
L 351.497798 244.584699 
L 353.37819 241.44576 
L 355.258582 260.195726 
L 357.138974 237.137198 
L 359.019366 238.155154 
L 360.899757 247.41792 
L 362.780149 248.315589 
L 364.660541 255.438706 
L 366.540933 244.604462 
L 368.421325 246.77413 
L 370.301716 257.037381 
L 372.182108 249.02064 
L 374.0625 256.520901 
L 375.942892 238.619314 
L 377.823284 243.78432 
L 379.703675 240.575959 
L 381.584067 243.471305 
L 383.464459 258.555346 
L 385.344851 224.21952 
L 387.225243 240.385577 
L 389.105634 239.535154 
L 390.986026 216.442903 
L 390.986026 216.442903 
" style="fill:none;stroke:#ff0000;stroke-linecap:square;stroke-width:1.2;"/>
   </g>
   <g id="line2d_4">
    <path clip-path="url(#p7264d27464)" d="M 112.688039 322.997321 
L 122.089998 322.41035 
L 123.97039 322.329189 
L 125.850782 322.399269 
L 131.491957 321.874615 
L 133.372349 322.010414 
L 137.133133 321.559721 
L 139.013524 321.236571 
L 140.893916 321.293307 
L 142.774308 320.740923 
L 144.6547 320.606277 
L 146.535092 320.877984 
L 148.415483 320.509893 
L 150.295875 319.947525 
L 152.176267 320.075726 
L 154.056659 319.429467 
L 157.817442 319.327118 
L 159.697834 319.101051 
L 161.578226 319.348293 
L 163.458618 319.07819 
L 165.33901 317.823703 
L 169.099793 316.268709 
L 170.980185 316.248261 
L 172.860577 317.180914 
L 174.740969 315.395301 
L 176.621361 315.403872 
L 178.501752 316.451835 
L 180.382144 315.078802 
L 182.262536 314.646597 
L 184.142928 312.447168 
L 186.02332 312.038112 
L 187.903711 311.449207 
L 189.784103 309.875973 
L 191.664495 307.117961 
L 193.544887 308.08704 
L 197.30567 306.279099 
L 199.186062 305.015959 
L 201.066454 304.030354 
L 202.946846 303.551355 
L 204.827238 306.171771 
L 206.707629 307.790469 
L 208.588021 307.506144 
L 210.468413 308.682473 
L 212.348805 305.603122 
L 214.229197 302.785728 
L 216.109588 306.189093 
L 217.98998 305.877847 
L 219.870372 302.786331 
L 221.750764 302.654373 
L 223.631156 301.204512 
L 225.511547 300.887081 
L 227.391939 301.836658 
L 229.272331 303.539026 
L 231.152723 299.513184 
L 233.033115 298.175136 
L 234.913506 299.074738 
L 236.793898 297.483922 
L 238.67429 296.570811 
L 240.554682 297.961385 
L 242.435074 294.366953 
L 244.315465 293.738016 
L 246.195857 293.484274 
L 248.076249 294.158139 
L 249.956641 289.857902 
L 251.837033 293.861335 
L 253.717425 290.033143 
L 255.597816 285.288645 
L 257.478208 279.624549 
L 259.3586 275.63989 
L 261.238992 270.012027 
L 264.999775 261.882048 
L 266.880167 266.911899 
L 268.760559 270.23173 
L 270.640951 268.251566 
L 272.521343 262.250757 
L 274.401734 259.340407 
L 276.282126 250.771611 
L 278.162518 250.49904 
L 280.04291 242.855931 
L 281.923302 238.358565 
L 283.803693 239.404759 
L 285.684085 235.444745 
L 287.564477 253.940681 
L 289.444869 250.822464 
L 291.325261 241.866459 
L 293.205652 239.435122 
L 295.086044 227.319579 
L 296.966436 228.866414 
L 298.846828 235.029696 
L 300.72722 231.287438 
L 302.607611 233.007922 
L 304.488003 231.394656 
L 306.368395 233.978071 
L 308.248787 218.637243 
L 310.129179 235.442743 
L 312.00957 235.690491 
L 313.889962 238.241294 
L 315.770354 226.934674 
L 317.650746 214.498807 
L 319.531138 196.01557 
L 321.411529 194.532837 
L 323.291921 173.088398 
L 325.172313 167.064795 
L 327.052705 162.075552 
L 328.933097 157.813426 
L 330.813488 154.552978 
L 332.69388 153.68821 
L 334.574272 170.597403 
L 336.454664 145.835698 
L 338.335056 174.852398 
L 340.215448 134.569701 
L 342.095839 138.769742 
L 343.976231 162.199173 
L 345.856623 176.819726 
L 347.737015 137.553202 
L 349.617407 134.393431 
L 351.497798 141.943845 
L 353.37819 147.160334 
L 355.258582 151.953902 
L 355.258582 151.953902 
" style="fill:none;stroke:#00bfbf;stroke-linecap:square;stroke-width:1.2;"/>
   </g>
   <g id="patch_3">
    <path d="M 112.5 324 
L 112.5 36 
" style="fill:none;stroke:#000000;stroke-linecap:square;stroke-linejoin:miter;"/>
   </g>
   <g id="patch_4">
    <path d="M 635.625 324 
L 635.625 36 
" style="fill:none;stroke:#000000;stroke-linecap:square;stroke-linejoin:miter;"/>
   </g>
   <g id="patch_5">
    <path d="M 112.5 324 
L 635.625 324 
" style="fill:none;stroke:#000000;stroke-linecap:square;stroke-linejoin:miter;"/>
   </g>
   <g id="patch_6">
    <path d="M 112.5 36 
L 635.625 36 
" style="fill:none;stroke:#000000;stroke-linecap:square;stroke-linejoin:miter;"/>
   </g>
   <g id="matplotlib.axis_1">
    <g id="xtick_1">
     <g id="line2d_5">
      <defs>
       <path d="M 0 0 
L 0 -4 
" id="md61935c31c" style="stroke:#000000;stroke-width:0.5;"/>
      </defs>
      <g>
       <use style="stroke:#000000;stroke-width:0.5;" x="112.688039" xlink:href="#md61935c31c" y="324"/>
      </g>
     </g>
     <g id="line2d_6">
      <defs>
       <path d="M 0 0 
L 0 4 
" id="m849424d9ac" style="stroke:#000000;stroke-width:0.5;"/>
      </defs>
      <g>
       <use style="stroke:#000000;stroke-width:0.5;" x="112.688039" xlink:href="#m849424d9ac" y="36"/>
      </g>
     </g>
     <g id="text_1">
      <!-- 0 -->
      <defs>
       <path d="M 31.78125 66.40625 
Q 24.171875 66.40625 20.328125 58.90625 
Q 16.5 51.421875 16.5 36.375 
Q 16.5 21.390625 20.328125 13.890625 
Q 24.171875 6.390625 31.78125 6.390625 
Q 39.453125 6.390625 43.28125 13.890625 
Q 47.125 21.390625 47.125 36.375 
Q 47.125 51.421875 43.28125 58.90625 
Q 39.453125 66.40625 31.78125 66.40625 
z
M 31.78125 74.21875 
Q 44.046875 74.21875 50.515625 64.515625 
Q 56.984375 54.828125 56.984375 36.375 
Q 56.984375 17.96875 50.515625 8.265625 
Q 44.046875 -1.421875 31.78125 -1.421875 
Q 19.53125 -1.421875 13.0625 8.265625 
Q 6.59375 17.96875 6.59375 36.375 
Q 6.59375 54.828125 13.0625 64.515625 
Q 19.53125 74.21875 31.78125 74.21875 
z
" id="DejaVuSans-48"/>
      </defs>
      <g transform="translate(108.870539 337.118125)scale(0.12 -0.12)">
       <use xlink:href="#DejaVuSans-48"/>
      </g>
     </g>
    </g>
    <g id="xtick_2">
     <g id="line2d_7">
      <g>
       <use style="stroke:#000000;stroke-width:0.5;" x="165.33901" xlink:href="#md61935c31c" y="324"/>
      </g>
     </g>
     <g id="line2d_8">
      <g>
       <use style="stroke:#000000;stroke-width:0.5;" x="165.33901" xlink:href="#m849424d9ac" y="36"/>
      </g>
     </g>
     <g id="text_2">
      <!-- 28 -->
      <defs>
       <path d="M 19.1875 8.296875 
L 53.609375 8.296875 
L 53.609375 0 
L 7.328125 0 
L 7.328125 8.296875 
Q 12.9375 14.109375 22.625 23.890625 
Q 32.328125 33.6875 34.8125 36.53125 
Q 39.546875 41.84375 41.421875 45.53125 
Q 43.3125 49.21875 43.3125 52.78125 
Q 43.3125 58.59375 39.234375 62.25 
Q 35.15625 65.921875 28.609375 65.921875 
Q 23.96875 65.921875 18.8125 64.3125 
Q 13.671875 62.703125 7.8125 59.421875 
L 7.8125 69.390625 
Q 13.765625 71.78125 18.9375 73 
Q 24.125 74.21875 28.421875 74.21875 
Q 39.75 74.21875 46.484375 68.546875 
Q 53.21875 62.890625 53.21875 53.421875 
Q 53.21875 48.921875 51.53125 44.890625 
Q 49.859375 40.875 45.40625 35.40625 
Q 44.1875 33.984375 37.640625 27.21875 
Q 31.109375 20.453125 19.1875 8.296875 
z
" id="DejaVuSans-50"/>
       <path d="M 31.78125 34.625 
Q 24.75 34.625 20.71875 30.859375 
Q 16.703125 27.09375 16.703125 20.515625 
Q 16.703125 13.921875 20.71875 10.15625 
Q 24.75 6.390625 31.78125 6.390625 
Q 38.8125 6.390625 42.859375 10.171875 
Q 46.921875 13.96875 46.921875 20.515625 
Q 46.921875 27.09375 42.890625 30.859375 
Q 38.875 34.625 31.78125 34.625 
z
M 21.921875 38.8125 
Q 15.578125 40.375 12.03125 44.71875 
Q 8.5 49.078125 8.5 55.328125 
Q 8.5 64.0625 14.71875 69.140625 
Q 20.953125 74.21875 31.78125 74.21875 
Q 42.671875 74.21875 48.875 69.140625 
Q 55.078125 64.0625 55.078125 55.328125 
Q 55.078125 49.078125 51.53125 44.71875 
Q 48 40.375 41.703125 38.8125 
Q 48.828125 37.15625 52.796875 32.3125 
Q 56.78125 27.484375 56.78125 20.515625 
Q 56.78125 9.90625 50.3125 4.234375 
Q 43.84375 -1.421875 31.78125 -1.421875 
Q 19.734375 -1.421875 13.25 4.234375 
Q 6.78125 9.90625 6.78125 20.515625 
Q 6.78125 27.484375 10.78125 32.3125 
Q 14.796875 37.15625 21.921875 38.8125 
z
M 18.3125 54.390625 
Q 18.3125 48.734375 21.84375 45.5625 
Q 25.390625 42.390625 31.78125 42.390625 
Q 38.140625 42.390625 41.71875 45.5625 
Q 45.3125 48.734375 45.3125 54.390625 
Q 45.3125 60.0625 41.71875 63.234375 
Q 38.140625 66.40625 31.78125 66.40625 
Q 25.390625 66.40625 21.84375 63.234375 
Q 18.3125 60.0625 18.3125 54.390625 
z
" id="DejaVuSans-56"/>
      </defs>
      <g transform="translate(157.70401 337.118125)scale(0.12 -0.12)">
       <use xlink:href="#DejaVuSans-50"/>
       <use x="63.623047" xlink:href="#DejaVuSans-56"/>
      </g>
     </g>
    </g>
    <g id="xtick_3">
     <g id="line2d_9">
      <g>
       <use style="stroke:#000000;stroke-width:0.5;" x="217.98998" xlink:href="#md61935c31c" y="324"/>
      </g>
     </g>
     <g id="line2d_10">
      <g>
       <use style="stroke:#000000;stroke-width:0.5;" x="217.98998" xlink:href="#m849424d9ac" y="36"/>
      </g>
     </g>
     <g id="text_3">
      <!-- 56 -->
      <defs>
       <path d="M 10.796875 72.90625 
L 49.515625 72.90625 
L 49.515625 64.59375 
L 19.828125 64.59375 
L 19.828125 46.734375 
Q 21.96875 47.46875 24.109375 47.828125 
Q 26.265625 48.1875 28.421875 48.1875 
Q 40.625 48.1875 47.75 41.5 
Q 54.890625 34.8125 54.890625 23.390625 
Q 54.890625 11.625 47.5625 5.09375 
Q 40.234375 -1.421875 26.90625 -1.421875 
Q 22.3125 -1.421875 17.546875 -0.640625 
Q 12.796875 0.140625 7.71875 1.703125 
L 7.71875 11.625 
Q 12.109375 9.234375 16.796875 8.0625 
Q 21.484375 6.890625 26.703125 6.890625 
Q 35.15625 6.890625 40.078125 11.328125 
Q 45.015625 15.765625 45.015625 23.390625 
Q 45.015625 31 40.078125 35.4375 
Q 35.15625 39.890625 26.703125 39.890625 
Q 22.75 39.890625 18.8125 39.015625 
Q 14.890625 38.140625 10.796875 36.28125 
z
" id="DejaVuSans-53"/>
       <path d="M 33.015625 40.375 
Q 26.375 40.375 22.484375 35.828125 
Q 18.609375 31.296875 18.609375 23.390625 
Q 18.609375 15.53125 22.484375 10.953125 
Q 26.375 6.390625 33.015625 6.390625 
Q 39.65625 6.390625 43.53125 10.953125 
Q 47.40625 15.53125 47.40625 23.390625 
Q 47.40625 31.296875 43.53125 35.828125 
Q 39.65625 40.375 33.015625 40.375 
z
M 52.59375 71.296875 
L 52.59375 62.3125 
Q 48.875 64.0625 45.09375 64.984375 
Q 41.3125 65.921875 37.59375 65.921875 
Q 27.828125 65.921875 22.671875 59.328125 
Q 17.53125 52.734375 16.796875 39.40625 
Q 19.671875 43.65625 24.015625 45.921875 
Q 28.375 48.1875 33.59375 48.1875 
Q 44.578125 48.1875 50.953125 41.515625 
Q 57.328125 34.859375 57.328125 23.390625 
Q 57.328125 12.15625 50.6875 5.359375 
Q 44.046875 -1.421875 33.015625 -1.421875 
Q 20.359375 -1.421875 13.671875 8.265625 
Q 6.984375 17.96875 6.984375 36.375 
Q 6.984375 53.65625 15.1875 63.9375 
Q 23.390625 74.21875 37.203125 74.21875 
Q 40.921875 74.21875 44.703125 73.484375 
Q 48.484375 72.75 52.59375 71.296875 
z
" id="DejaVuSans-54"/>
      </defs>
      <g transform="translate(210.35498 337.118125)scale(0.12 -0.12)">
       <use xlink:href="#DejaVuSans-53"/>
       <use x="63.623047" xlink:href="#DejaVuSans-54"/>
      </g>
     </g>
    </g>
    <g id="xtick_4">
     <g id="line2d_11">
      <g>
       <use style="stroke:#000000;stroke-width:0.5;" x="270.640951" xlink:href="#md61935c31c" y="324"/>
      </g>
     </g>
     <g id="line2d_12">
      <g>
       <use style="stroke:#000000;stroke-width:0.5;" x="270.640951" xlink:href="#m849424d9ac" y="36"/>
      </g>
     </g>
     <g id="text_4">
      <!-- 84 -->
      <defs>
       <path d="M 37.796875 64.3125 
L 12.890625 25.390625 
L 37.796875 25.390625 
z
M 35.203125 72.90625 
L 47.609375 72.90625 
L 47.609375 25.390625 
L 58.015625 25.390625 
L 58.015625 17.1875 
L 47.609375 17.1875 
L 47.609375 0 
L 37.796875 0 
L 37.796875 17.1875 
L 4.890625 17.1875 
L 4.890625 26.703125 
z
" id="DejaVuSans-52"/>
      </defs>
      <g transform="translate(263.005951 337.118125)scale(0.12 -0.12)">
       <use xlink:href="#DejaVuSans-56"/>
       <use x="63.623047" xlink:href="#DejaVuSans-52"/>
      </g>
     </g>
    </g>
    <g id="xtick_5">
     <g id="line2d_13">
      <g>
       <use style="stroke:#000000;stroke-width:0.5;" x="323.291921" xlink:href="#md61935c31c" y="324"/>
      </g>
     </g>
     <g id="line2d_14">
      <g>
       <use style="stroke:#000000;stroke-width:0.5;" x="323.291921" xlink:href="#m849424d9ac" y="36"/>
      </g>
     </g>
     <g id="text_5">
      <!-- 112 -->
      <defs>
       <path d="M 12.40625 8.296875 
L 28.515625 8.296875 
L 28.515625 63.921875 
L 10.984375 60.40625 
L 10.984375 69.390625 
L 28.421875 72.90625 
L 38.28125 72.90625 
L 38.28125 8.296875 
L 54.390625 8.296875 
L 54.390625 0 
L 12.40625 0 
z
" id="DejaVuSans-49"/>
      </defs>
      <g transform="translate(311.839421 337.118125)scale(0.12 -0.12)">
       <use xlink:href="#DejaVuSans-49"/>
       <use x="63.623047" xlink:href="#DejaVuSans-49"/>
       <use x="127.246094" xlink:href="#DejaVuSans-50"/>
      </g>
     </g>
    </g>
    <g id="xtick_6">
     <g id="line2d_15">
      <g>
       <use style="stroke:#000000;stroke-width:0.5;" x="375.942892" xlink:href="#md61935c31c" y="324"/>
      </g>
     </g>
     <g id="line2d_16">
      <g>
       <use style="stroke:#000000;stroke-width:0.5;" x="375.942892" xlink:href="#m849424d9ac" y="36"/>
      </g>
     </g>
     <g id="text_6">
      <!-- 140 -->
      <g transform="translate(364.490392 337.118125)scale(0.12 -0.12)">
       <use xlink:href="#DejaVuSans-49"/>
       <use x="63.623047" xlink:href="#DejaVuSans-52"/>
       <use x="127.246094" xlink:href="#DejaVuSans-48"/>
      </g>
     </g>
    </g>
    <g id="xtick_7">
     <g id="line2d_17">
      <g>
       <use style="stroke:#000000;stroke-width:0.5;" x="428.593862" xlink:href="#md61935c31c" y="324"/>
      </g>
     </g>
     <g id="line2d_18">
      <g>
       <use style="stroke:#000000;stroke-width:0.5;" x="428.593862" xlink:href="#m849424d9ac" y="36"/>
      </g>
     </g>
     <g id="text_7">
      <!-- 168 -->
      <g transform="translate(417.141362 337.118125)scale(0.12 -0.12)">
       <use xlink:href="#DejaVuSans-49"/>
       <use x="63.623047" xlink:href="#DejaVuSans-54"/>
       <use x="127.246094" xlink:href="#DejaVuSans-56"/>
      </g>
     </g>
    </g>
    <g id="xtick_8">
     <g id="line2d_19">
      <g>
       <use style="stroke:#000000;stroke-width:0.5;" x="481.244833" xlink:href="#md61935c31c" y="324"/>
      </g>
     </g>
     <g id="line2d_20">
      <g>
       <use style="stroke:#000000;stroke-width:0.5;" x="481.244833" xlink:href="#m849424d9ac" y="36"/>
      </g>
     </g>
     <g id="text_8">
      <!-- 196 -->
      <defs>
       <path d="M 10.984375 1.515625 
L 10.984375 10.5 
Q 14.703125 8.734375 18.5 7.8125 
Q 22.3125 6.890625 25.984375 6.890625 
Q 35.75 6.890625 40.890625 13.453125 
Q 46.046875 20.015625 46.78125 33.40625 
Q 43.953125 29.203125 39.59375 26.953125 
Q 35.25 24.703125 29.984375 24.703125 
Q 19.046875 24.703125 12.671875 31.3125 
Q 6.296875 37.9375 6.296875 49.421875 
Q 6.296875 60.640625 12.9375 67.421875 
Q 19.578125 74.21875 30.609375 74.21875 
Q 43.265625 74.21875 49.921875 64.515625 
Q 56.59375 54.828125 56.59375 36.375 
Q 56.59375 19.140625 48.40625 8.859375 
Q 40.234375 -1.421875 26.421875 -1.421875 
Q 22.703125 -1.421875 18.890625 -0.6875 
Q 15.09375 0.046875 10.984375 1.515625 
z
M 30.609375 32.421875 
Q 37.25 32.421875 41.125 36.953125 
Q 45.015625 41.5 45.015625 49.421875 
Q 45.015625 57.28125 41.125 61.84375 
Q 37.25 66.40625 30.609375 66.40625 
Q 23.96875 66.40625 20.09375 61.84375 
Q 16.21875 57.28125 16.21875 49.421875 
Q 16.21875 41.5 20.09375 36.953125 
Q 23.96875 32.421875 30.609375 32.421875 
z
" id="DejaVuSans-57"/>
      </defs>
      <g transform="translate(469.792333 337.118125)scale(0.12 -0.12)">
       <use xlink:href="#DejaVuSans-49"/>
       <use x="63.623047" xlink:href="#DejaVuSans-57"/>
       <use x="127.246094" xlink:href="#DejaVuSans-54"/>
      </g>
     </g>
    </g>
    <g id="xtick_9">
     <g id="line2d_21">
      <g>
       <use style="stroke:#000000;stroke-width:0.5;" x="533.895803" xlink:href="#md61935c31c" y="324"/>
      </g>
     </g>
     <g id="line2d_22">
      <g>
       <use style="stroke:#000000;stroke-width:0.5;" x="533.895803" xlink:href="#m849424d9ac" y="36"/>
      </g>
     </g>
     <g id="text_9">
      <!-- 224 -->
      <g transform="translate(522.443303 337.118125)scale(0.12 -0.12)">
       <use xlink:href="#DejaVuSans-50"/>
       <use x="63.623047" xlink:href="#DejaVuSans-50"/>
       <use x="127.246094" xlink:href="#DejaVuSans-52"/>
      </g>
     </g>
    </g>
    <g id="xtick_10">
     <g id="line2d_23">
      <g>
       <use style="stroke:#000000;stroke-width:0.5;" x="586.546774" xlink:href="#md61935c31c" y="324"/>
      </g>
     </g>
     <g id="line2d_24">
      <g>
       <use style="stroke:#000000;stroke-width:0.5;" x="586.546774" xlink:href="#m849424d9ac" y="36"/>
      </g>
     </g>
     <g id="text_10">
      <!-- 252 -->
      <g transform="translate(575.094274 337.118125)scale(0.12 -0.12)">
       <use xlink:href="#DejaVuSans-50"/>
       <use x="63.623047" xlink:href="#DejaVuSans-53"/>
       <use x="127.246094" xlink:href="#DejaVuSans-50"/>
      </g>
     </g>
    </g>
    <g id="text_11">
     <!-- generation -->
     <defs>
      <path d="M 45.40625 27.984375 
Q 45.40625 37.75 41.375 43.109375 
Q 37.359375 48.484375 30.078125 48.484375 
Q 22.859375 48.484375 18.828125 43.109375 
Q 14.796875 37.75 14.796875 27.984375 
Q 14.796875 18.265625 18.828125 12.890625 
Q 22.859375 7.515625 30.078125 7.515625 
Q 37.359375 7.515625 41.375 12.890625 
Q 45.40625 18.265625 45.40625 27.984375 
z
M 54.390625 6.78125 
Q 54.390625 -7.171875 48.1875 -13.984375 
Q 42 -20.796875 29.203125 -20.796875 
Q 24.46875 -20.796875 20.265625 -20.09375 
Q 16.0625 -19.390625 12.109375 -17.921875 
L 12.109375 -9.1875 
Q 16.0625 -11.328125 19.921875 -12.34375 
Q 23.78125 -13.375 27.78125 -13.375 
Q 36.625 -13.375 41.015625 -8.765625 
Q 45.40625 -4.15625 45.40625 5.171875 
L 45.40625 9.625 
Q 42.625 4.78125 38.28125 2.390625 
Q 33.9375 0 27.875 0 
Q 17.828125 0 11.671875 7.65625 
Q 5.515625 15.328125 5.515625 27.984375 
Q 5.515625 40.671875 11.671875 48.328125 
Q 17.828125 56 27.875 56 
Q 33.9375 56 38.28125 53.609375 
Q 42.625 51.21875 45.40625 46.390625 
L 45.40625 54.6875 
L 54.390625 54.6875 
z
" id="DejaVuSans-103"/>
      <path d="M 56.203125 29.59375 
L 56.203125 25.203125 
L 14.890625 25.203125 
Q 15.484375 15.921875 20.484375 11.0625 
Q 25.484375 6.203125 34.421875 6.203125 
Q 39.59375 6.203125 44.453125 7.46875 
Q 49.3125 8.734375 54.109375 11.28125 
L 54.109375 2.78125 
Q 49.265625 0.734375 44.1875 -0.34375 
Q 39.109375 -1.421875 33.890625 -1.421875 
Q 20.796875 -1.421875 13.15625 6.1875 
Q 5.515625 13.8125 5.515625 26.8125 
Q 5.515625 40.234375 12.765625 48.109375 
Q 20.015625 56 32.328125 56 
Q 43.359375 56 49.78125 48.890625 
Q 56.203125 41.796875 56.203125 29.59375 
z
M 47.21875 32.234375 
Q 47.125 39.59375 43.09375 43.984375 
Q 39.0625 48.390625 32.421875 48.390625 
Q 24.90625 48.390625 20.390625 44.140625 
Q 15.875 39.890625 15.1875 32.171875 
z
" id="DejaVuSans-101"/>
      <path d="M 54.890625 33.015625 
L 54.890625 0 
L 45.90625 0 
L 45.90625 32.71875 
Q 45.90625 40.484375 42.875 44.328125 
Q 39.84375 48.1875 33.796875 48.1875 
Q 26.515625 48.1875 22.3125 43.546875 
Q 18.109375 38.921875 18.109375 30.90625 
L 18.109375 0 
L 9.078125 0 
L 9.078125 54.6875 
L 18.109375 54.6875 
L 18.109375 46.1875 
Q 21.34375 51.125 25.703125 53.5625 
Q 30.078125 56 35.796875 56 
Q 45.21875 56 50.046875 50.171875 
Q 54.890625 44.34375 54.890625 33.015625 
z
" id="DejaVuSans-110"/>
      <path d="M 41.109375 46.296875 
Q 39.59375 47.171875 37.8125 47.578125 
Q 36.03125 48 33.890625 48 
Q 26.265625 48 22.1875 43.046875 
Q 18.109375 38.09375 18.109375 28.8125 
L 18.109375 0 
L 9.078125 0 
L 9.078125 54.6875 
L 18.109375 54.6875 
L 18.109375 46.1875 
Q 20.953125 51.171875 25.484375 53.578125 
Q 30.03125 56 36.53125 56 
Q 37.453125 56 38.578125 55.875 
Q 39.703125 55.765625 41.0625 55.515625 
z
" id="DejaVuSans-114"/>
      <path d="M 34.28125 27.484375 
Q 23.390625 27.484375 19.1875 25 
Q 14.984375 22.515625 14.984375 16.5 
Q 14.984375 11.71875 18.140625 8.90625 
Q 21.296875 6.109375 26.703125 6.109375 
Q 34.1875 6.109375 38.703125 11.40625 
Q 43.21875 16.703125 43.21875 25.484375 
L 43.21875 27.484375 
z
M 52.203125 31.203125 
L 52.203125 0 
L 43.21875 0 
L 43.21875 8.296875 
Q 40.140625 3.328125 35.546875 0.953125 
Q 30.953125 -1.421875 24.3125 -1.421875 
Q 15.921875 -1.421875 10.953125 3.296875 
Q 6 8.015625 6 15.921875 
Q 6 25.140625 12.171875 29.828125 
Q 18.359375 34.515625 30.609375 34.515625 
L 43.21875 34.515625 
L 43.21875 35.40625 
Q 43.21875 41.609375 39.140625 45 
Q 35.0625 48.390625 27.6875 48.390625 
Q 23 48.390625 18.546875 47.265625 
Q 14.109375 46.140625 10.015625 43.890625 
L 10.015625 52.203125 
Q 14.9375 54.109375 19.578125 55.046875 
Q 24.21875 56 28.609375 56 
Q 40.484375 56 46.34375 49.84375 
Q 52.203125 43.703125 52.203125 31.203125 
z
" id="DejaVuSans-97"/>
      <path d="M 18.3125 70.21875 
L 18.3125 54.6875 
L 36.8125 54.6875 
L 36.8125 47.703125 
L 18.3125 47.703125 
L 18.3125 18.015625 
Q 18.3125 11.328125 20.140625 9.421875 
Q 21.96875 7.515625 27.59375 7.515625 
L 36.8125 7.515625 
L 36.8125 0 
L 27.59375 0 
Q 17.1875 0 13.234375 3.875 
Q 9.28125 7.765625 9.28125 18.015625 
L 9.28125 47.703125 
L 2.6875 47.703125 
L 2.6875 54.6875 
L 9.28125 54.6875 
L 9.28125 70.21875 
z
" id="DejaVuSans-116"/>
      <path d="M 9.421875 54.6875 
L 18.40625 54.6875 
L 18.40625 0 
L 9.421875 0 
z
M 9.421875 75.984375 
L 18.40625 75.984375 
L 18.40625 64.59375 
L 9.421875 64.59375 
z
" id="DejaVuSans-105"/>
      <path d="M 30.609375 48.390625 
Q 23.390625 48.390625 19.1875 42.75 
Q 14.984375 37.109375 14.984375 27.296875 
Q 14.984375 17.484375 19.15625 11.84375 
Q 23.34375 6.203125 30.609375 6.203125 
Q 37.796875 6.203125 41.984375 11.859375 
Q 46.1875 17.53125 46.1875 27.296875 
Q 46.1875 37.015625 41.984375 42.703125 
Q 37.796875 48.390625 30.609375 48.390625 
z
M 30.609375 56 
Q 42.328125 56 49.015625 48.375 
Q 55.71875 40.765625 55.71875 27.296875 
Q 55.71875 13.875 49.015625 6.21875 
Q 42.328125 -1.421875 30.609375 -1.421875 
Q 18.84375 -1.421875 12.171875 6.21875 
Q 5.515625 13.875 5.515625 27.296875 
Q 5.515625 40.765625 12.171875 48.375 
Q 18.84375 56 30.609375 56 
z
" id="DejaVuSans-111"/>
     </defs>
     <g transform="translate(341.430938 353.731875)scale(0.12 -0.12)">
      <use xlink:href="#DejaVuSans-103"/>
      <use x="63.476562" xlink:href="#DejaVuSans-101"/>
      <use x="125" xlink:href="#DejaVuSans-110"/>
      <use x="188.378906" xlink:href="#DejaVuSans-101"/>
      <use x="249.902344" xlink:href="#DejaVuSans-114"/>
      <use x="291.015625" xlink:href="#DejaVuSans-97"/>
      <use x="352.294922" xlink:href="#DejaVuSans-116"/>
      <use x="391.503906" xlink:href="#DejaVuSans-105"/>
      <use x="419.287109" xlink:href="#DejaVuSans-111"/>
      <use x="480.46875" xlink:href="#DejaVuSans-110"/>
     </g>
    </g>
   </g>
   <g id="matplotlib.axis_2">
    <g id="ytick_1">
     <g id="line2d_25">
      <defs>
       <path d="M 0 0 
L 4 0 
" id="m341688fb00" style="stroke:#000000;stroke-width:0.5;"/>
      </defs>
      <g>
       <use style="stroke:#000000;stroke-width:0.5;" x="112.5" xlink:href="#m341688fb00" y="324"/>
      </g>
     </g>
     <g id="line2d_26">
      <defs>
       <path d="M 0 0 
L -4 0 
" id="m6fa81338b8" style="stroke:#000000;stroke-width:0.5;"/>
      </defs>
      <g>
       <use style="stroke:#000000;stroke-width:0.5;" x="635.625" xlink:href="#m6fa81338b8" y="324"/>
      </g>
     </g>
     <g id="text_12">
      <!-- 0 -->
      <g transform="translate(100.865 327.31125)scale(0.12 -0.12)">
       <use xlink:href="#DejaVuSans-48"/>
      </g>
     </g>
    </g>
    <g id="ytick_2">
     <g id="line2d_27">
      <g>
       <use style="stroke:#000000;stroke-width:0.5;" x="112.5" xlink:href="#m341688fb00" y="282.857143"/>
      </g>
     </g>
     <g id="line2d_28">
      <g>
       <use style="stroke:#000000;stroke-width:0.5;" x="635.625" xlink:href="#m6fa81338b8" y="282.857143"/>
      </g>
     </g>
     <g id="text_13">
      <!-- 1,000,000 -->
      <defs>
       <path d="M 11.71875 12.40625 
L 22.015625 12.40625 
L 22.015625 4 
L 14.015625 -11.625 
L 7.71875 -11.625 
L 11.71875 4 
z
" id="DejaVuSans-44"/>
      </defs>
      <g transform="translate(47.4275 286.168393)scale(0.12 -0.12)">
       <use xlink:href="#DejaVuSans-49"/>
       <use x="63.623047" xlink:href="#DejaVuSans-44"/>
       <use x="95.410156" xlink:href="#DejaVuSans-48"/>
       <use x="159.033203" xlink:href="#DejaVuSans-48"/>
       <use x="222.65625" xlink:href="#DejaVuSans-48"/>
       <use x="286.279297" xlink:href="#DejaVuSans-44"/>
       <use x="318.066406" xlink:href="#DejaVuSans-48"/>
       <use x="381.689453" xlink:href="#DejaVuSans-48"/>
       <use x="445.3125" xlink:href="#DejaVuSans-48"/>
      </g>
     </g>
    </g>
    <g id="ytick_3">
     <g id="line2d_29">
      <g>
       <use style="stroke:#000000;stroke-width:0.5;" x="112.5" xlink:href="#m341688fb00" y="241.714286"/>
      </g>
     </g>
     <g id="line2d_30">
      <g>
       <use style="stroke:#000000;stroke-width:0.5;" x="635.625" xlink:href="#m6fa81338b8" y="241.714286"/>
      </g>
     </g>
     <g id="text_14">
      <!-- 2,000,000 -->
      <g transform="translate(47.4275 245.025536)scale(0.12 -0.12)">
       <use xlink:href="#DejaVuSans-50"/>
       <use x="63.623047" xlink:href="#DejaVuSans-44"/>
       <use x="95.410156" xlink:href="#DejaVuSans-48"/>
       <use x="159.033203" xlink:href="#DejaVuSans-48"/>
       <use x="222.65625" xlink:href="#DejaVuSans-48"/>
       <use x="286.279297" xlink:href="#DejaVuSans-44"/>
       <use x="318.066406" xlink:href="#DejaVuSans-48"/>
       <use x="381.689453" xlink:href="#DejaVuSans-48"/>
       <use x="445.3125" xlink:href="#DejaVuSans-48"/>
      </g>
     </g>
    </g>
    <g id="ytick_4">
     <g id="line2d_31">
      <g>
       <use style="stroke:#000000;stroke-width:0.5;" x="112.5" xlink:href="#m341688fb00" y="200.571429"/>
      </g>
     </g>
     <g id="line2d_32">
      <g>
       <use style="stroke:#000000;stroke-width:0.5;" x="635.625" xlink:href="#m6fa81338b8" y="200.571429"/>
      </g>
     </g>
     <g id="text_15">
      <!-- 3,000,000 -->
      <defs>
       <path d="M 40.578125 39.3125 
Q 47.65625 37.796875 51.625 33 
Q 55.609375 28.21875 55.609375 21.1875 
Q 55.609375 10.40625 48.1875 4.484375 
Q 40.765625 -1.421875 27.09375 -1.421875 
Q 22.515625 -1.421875 17.65625 -0.515625 
Q 12.796875 0.390625 7.625 2.203125 
L 7.625 11.71875 
Q 11.71875 9.328125 16.59375 8.109375 
Q 21.484375 6.890625 26.8125 6.890625 
Q 36.078125 6.890625 40.9375 10.546875 
Q 45.796875 14.203125 45.796875 21.1875 
Q 45.796875 27.640625 41.28125 31.265625 
Q 36.765625 34.90625 28.71875 34.90625 
L 20.21875 34.90625 
L 20.21875 43.015625 
L 29.109375 43.015625 
Q 36.375 43.015625 40.234375 45.921875 
Q 44.09375 48.828125 44.09375 54.296875 
Q 44.09375 59.90625 40.109375 62.90625 
Q 36.140625 65.921875 28.71875 65.921875 
Q 24.65625 65.921875 20.015625 65.03125 
Q 15.375 64.15625 9.8125 62.3125 
L 9.8125 71.09375 
Q 15.4375 72.65625 20.34375 73.4375 
Q 25.25 74.21875 29.59375 74.21875 
Q 40.828125 74.21875 47.359375 69.109375 
Q 53.90625 64.015625 53.90625 55.328125 
Q 53.90625 49.265625 50.4375 45.09375 
Q 46.96875 40.921875 40.578125 39.3125 
z
" id="DejaVuSans-51"/>
      </defs>
      <g transform="translate(47.4275 203.882679)scale(0.12 -0.12)">
       <use xlink:href="#DejaVuSans-51"/>
       <use x="63.623047" xlink:href="#DejaVuSans-44"/>
       <use x="95.410156" xlink:href="#DejaVuSans-48"/>
       <use x="159.033203" xlink:href="#DejaVuSans-48"/>
       <use x="222.65625" xlink:href="#DejaVuSans-48"/>
       <use x="286.279297" xlink:href="#DejaVuSans-44"/>
       <use x="318.066406" xlink:href="#DejaVuSans-48"/>
       <use x="381.689453" xlink:href="#DejaVuSans-48"/>
       <use x="445.3125" xlink:href="#DejaVuSans-48"/>
      </g>
     </g>
    </g>
    <g id="ytick_5">
     <g id="line2d_33">
      <g>
       <use style="stroke:#000000;stroke-width:0.5;" x="112.5" xlink:href="#m341688fb00" y="159.428571"/>
      </g>
     </g>
     <g id="line2d_34">
      <g>
       <use style="stroke:#000000;stroke-width:0.5;" x="635.625" xlink:href="#m6fa81338b8" y="159.428571"/>
      </g>
     </g>
     <g id="text_16">
      <!-- 4,000,000 -->
      <g transform="translate(47.4275 162.739821)scale(0.12 -0.12)">
       <use xlink:href="#DejaVuSans-52"/>
       <use x="63.623047" xlink:href="#DejaVuSans-44"/>
       <use x="95.410156" xlink:href="#DejaVuSans-48"/>
       <use x="159.033203" xlink:href="#DejaVuSans-48"/>
       <use x="222.65625" xlink:href="#DejaVuSans-48"/>
       <use x="286.279297" xlink:href="#DejaVuSans-44"/>
       <use x="318.066406" xlink:href="#DejaVuSans-48"/>
       <use x="381.689453" xlink:href="#DejaVuSans-48"/>
       <use x="445.3125" xlink:href="#DejaVuSans-48"/>
      </g>
     </g>
    </g>
    <g id="ytick_6">
     <g id="line2d_35">
      <g>
       <use style="stroke:#000000;stroke-width:0.5;" x="112.5" xlink:href="#m341688fb00" y="118.285714"/>
      </g>
     </g>
     <g id="line2d_36">
      <g>
       <use style="stroke:#000000;stroke-width:0.5;" x="635.625" xlink:href="#m6fa81338b8" y="118.285714"/>
      </g>
     </g>
     <g id="text_17">
      <!-- 5,000,000 -->
      <g transform="translate(47.4275 121.596964)scale(0.12 -0.12)">
       <use xlink:href="#DejaVuSans-53"/>
       <use x="63.623047" xlink:href="#DejaVuSans-44"/>
       <use x="95.410156" xlink:href="#DejaVuSans-48"/>
       <use x="159.033203" xlink:href="#DejaVuSans-48"/>
       <use x="222.65625" xlink:href="#DejaVuSans-48"/>
       <use x="286.279297" xlink:href="#DejaVuSans-44"/>
       <use x="318.066406" xlink:href="#DejaVuSans-48"/>
       <use x="381.689453" xlink:href="#DejaVuSans-48"/>
       <use x="445.3125" xlink:href="#DejaVuSans-48"/>
      </g>
     </g>
    </g>
    <g id="ytick_7">
     <g id="line2d_37">
      <g>
       <use style="stroke:#000000;stroke-width:0.5;" x="112.5" xlink:href="#m341688fb00" y="77.142857"/>
      </g>
     </g>
     <g id="line2d_38">
      <g>
       <use style="stroke:#000000;stroke-width:0.5;" x="635.625" xlink:href="#m6fa81338b8" y="77.142857"/>
      </g>
     </g>
     <g id="text_18">
      <!-- 6,000,000 -->
      <g transform="translate(47.4275 80.454107)scale(0.12 -0.12)">
       <use xlink:href="#DejaVuSans-54"/>
       <use x="63.623047" xlink:href="#DejaVuSans-44"/>
       <use x="95.410156" xlink:href="#DejaVuSans-48"/>
       <use x="159.033203" xlink:href="#DejaVuSans-48"/>
       <use x="222.65625" xlink:href="#DejaVuSans-48"/>
       <use x="286.279297" xlink:href="#DejaVuSans-44"/>
       <use x="318.066406" xlink:href="#DejaVuSans-48"/>
       <use x="381.689453" xlink:href="#DejaVuSans-48"/>
       <use x="445.3125" xlink:href="#DejaVuSans-48"/>
      </g>
     </g>
    </g>
    <g id="ytick_8">
     <g id="line2d_39">
      <g>
       <use style="stroke:#000000;stroke-width:0.5;" x="112.5" xlink:href="#m341688fb00" y="36"/>
      </g>
     </g>
     <g id="line2d_40">
      <g>
       <use style="stroke:#000000;stroke-width:0.5;" x="635.625" xlink:href="#m6fa81338b8" y="36"/>
      </g>
     </g>
     <g id="text_19">
      <!-- 7,000,000 -->
      <defs>
       <path d="M 8.203125 72.90625 
L 55.078125 72.90625 
L 55.078125 68.703125 
L 28.609375 0 
L 18.3125 0 
L 43.21875 64.59375 
L 8.203125 64.59375 
z
" id="DejaVuSans-55"/>
      </defs>
      <g transform="translate(47.4275 39.31125)scale(0.12 -0.12)">
       <use xlink:href="#DejaVuSans-55"/>
       <use x="63.623047" xlink:href="#DejaVuSans-44"/>
       <use x="95.410156" xlink:href="#DejaVuSans-48"/>
       <use x="159.033203" xlink:href="#DejaVuSans-48"/>
       <use x="222.65625" xlink:href="#DejaVuSans-48"/>
       <use x="286.279297" xlink:href="#DejaVuSans-44"/>
       <use x="318.066406" xlink:href="#DejaVuSans-48"/>
       <use x="381.689453" xlink:href="#DejaVuSans-48"/>
       <use x="445.3125" xlink:href="#DejaVuSans-48"/>
      </g>
     </g>
    </g>
    <g id="text_20">
     <!-- parameters -->
     <defs>
      <path d="M 18.109375 8.203125 
L 18.109375 -20.796875 
L 9.078125 -20.796875 
L 9.078125 54.6875 
L 18.109375 54.6875 
L 18.109375 46.390625 
Q 20.953125 51.265625 25.265625 53.625 
Q 29.59375 56 35.59375 56 
Q 45.5625 56 51.78125 48.09375 
Q 58.015625 40.1875 58.015625 27.296875 
Q 58.015625 14.40625 51.78125 6.484375 
Q 45.5625 -1.421875 35.59375 -1.421875 
Q 29.59375 -1.421875 25.265625 0.953125 
Q 20.953125 3.328125 18.109375 8.203125 
z
M 48.6875 27.296875 
Q 48.6875 37.203125 44.609375 42.84375 
Q 40.53125 48.484375 33.40625 48.484375 
Q 26.265625 48.484375 22.1875 42.84375 
Q 18.109375 37.203125 18.109375 27.296875 
Q 18.109375 17.390625 22.1875 11.75 
Q 26.265625 6.109375 33.40625 6.109375 
Q 40.53125 6.109375 44.609375 11.75 
Q 48.6875 17.390625 48.6875 27.296875 
z
" id="DejaVuSans-112"/>
      <path d="M 52 44.1875 
Q 55.375 50.25 60.0625 53.125 
Q 64.75 56 71.09375 56 
Q 79.640625 56 84.28125 50.015625 
Q 88.921875 44.046875 88.921875 33.015625 
L 88.921875 0 
L 79.890625 0 
L 79.890625 32.71875 
Q 79.890625 40.578125 77.09375 44.375 
Q 74.3125 48.1875 68.609375 48.1875 
Q 61.625 48.1875 57.5625 43.546875 
Q 53.515625 38.921875 53.515625 30.90625 
L 53.515625 0 
L 44.484375 0 
L 44.484375 32.71875 
Q 44.484375 40.625 41.703125 44.40625 
Q 38.921875 48.1875 33.109375 48.1875 
Q 26.21875 48.1875 22.15625 43.53125 
Q 18.109375 38.875 18.109375 30.90625 
L 18.109375 0 
L 9.078125 0 
L 9.078125 54.6875 
L 18.109375 54.6875 
L 18.109375 46.1875 
Q 21.1875 51.21875 25.484375 53.609375 
Q 29.78125 56 35.6875 56 
Q 41.65625 56 45.828125 52.96875 
Q 50 49.953125 52 44.1875 
z
" id="DejaVuSans-109"/>
      <path d="M 44.28125 53.078125 
L 44.28125 44.578125 
Q 40.484375 46.53125 36.375 47.5 
Q 32.28125 48.484375 27.875 48.484375 
Q 21.1875 48.484375 17.84375 46.4375 
Q 14.5 44.390625 14.5 40.28125 
Q 14.5 37.15625 16.890625 35.375 
Q 19.28125 33.59375 26.515625 31.984375 
L 29.59375 31.296875 
Q 39.15625 29.25 43.1875 25.515625 
Q 47.21875 21.78125 47.21875 15.09375 
Q 47.21875 7.46875 41.1875 3.015625 
Q 35.15625 -1.421875 24.609375 -1.421875 
Q 20.21875 -1.421875 15.453125 -0.5625 
Q 10.6875 0.296875 5.421875 2 
L 5.421875 11.28125 
Q 10.40625 8.6875 15.234375 7.390625 
Q 20.0625 6.109375 24.8125 6.109375 
Q 31.15625 6.109375 34.5625 8.28125 
Q 37.984375 10.453125 37.984375 14.40625 
Q 37.984375 18.0625 35.515625 20.015625 
Q 33.0625 21.96875 24.703125 23.78125 
L 21.578125 24.515625 
Q 13.234375 26.265625 9.515625 29.90625 
Q 5.8125 33.546875 5.8125 39.890625 
Q 5.8125 47.609375 11.28125 51.796875 
Q 16.75 56 26.8125 56 
Q 31.78125 56 36.171875 55.265625 
Q 40.578125 54.546875 44.28125 53.078125 
z
" id="DejaVuSans-115"/>
     </defs>
     <g transform="translate(39.931875 214.801875)rotate(-90)scale(0.12 -0.12)">
      <use xlink:href="#DejaVuSans-112"/>
      <use x="63.476562" xlink:href="#DejaVuSans-97"/>
      <use x="124.755859" xlink:href="#DejaVuSans-114"/>
      <use x="165.869141" xlink:href="#DejaVuSans-97"/>
      <use x="227.148438" xlink:href="#DejaVuSans-109"/>
      <use x="324.560547" xlink:href="#DejaVuSans-101"/>
      <use x="386.083984" xlink:href="#DejaVuSans-116"/>
      <use x="425.292969" xlink:href="#DejaVuSans-101"/>
      <use x="486.816406" xlink:href="#DejaVuSans-114"/>
      <use x="527.929688" xlink:href="#DejaVuSans-115"/>
     </g>
    </g>
   </g>
   <g id="legend_1">
    <g id="patch_7">
     <path d="M 640.623 211.399935 
L 789.696159 211.399935 
L 789.696159 148.600065 
L 640.623 148.600065 
z
" style="fill:#ffffff;stroke:#000000;stroke-linejoin:miter;"/>
    </g>
    <g id="line2d_41">
     <path d="M 647.6202 156.695263 
L 661.6146 156.695263 
" style="fill:none;stroke:#0000ff;stroke-linecap:square;stroke-width:1.2;"/>
    </g>
    <g id="line2d_42"/>
    <g id="text_21">
     <!-- Epochs3_population17 -->
     <defs>
      <path d="M 9.8125 72.90625 
L 55.90625 72.90625 
L 55.90625 64.59375 
L 19.671875 64.59375 
L 19.671875 43.015625 
L 54.390625 43.015625 
L 54.390625 34.71875 
L 19.671875 34.71875 
L 19.671875 8.296875 
L 56.78125 8.296875 
L 56.78125 0 
L 9.8125 0 
z
" id="DejaVuSans-69"/>
      <path d="M 48.78125 52.59375 
L 48.78125 44.1875 
Q 44.96875 46.296875 41.140625 47.34375 
Q 37.3125 48.390625 33.40625 48.390625 
Q 24.65625 48.390625 19.8125 42.84375 
Q 14.984375 37.3125 14.984375 27.296875 
Q 14.984375 17.28125 19.8125 11.734375 
Q 24.65625 6.203125 33.40625 6.203125 
Q 37.3125 6.203125 41.140625 7.25 
Q 44.96875 8.296875 48.78125 10.40625 
L 48.78125 2.09375 
Q 45.015625 0.34375 40.984375 -0.53125 
Q 36.96875 -1.421875 32.421875 -1.421875 
Q 20.0625 -1.421875 12.78125 6.34375 
Q 5.515625 14.109375 5.515625 27.296875 
Q 5.515625 40.671875 12.859375 48.328125 
Q 20.21875 56 33.015625 56 
Q 37.15625 56 41.109375 55.140625 
Q 45.0625 54.296875 48.78125 52.59375 
z
" id="DejaVuSans-99"/>
      <path d="M 54.890625 33.015625 
L 54.890625 0 
L 45.90625 0 
L 45.90625 32.71875 
Q 45.90625 40.484375 42.875 44.328125 
Q 39.84375 48.1875 33.796875 48.1875 
Q 26.515625 48.1875 22.3125 43.546875 
Q 18.109375 38.921875 18.109375 30.90625 
L 18.109375 0 
L 9.078125 0 
L 9.078125 75.984375 
L 18.109375 75.984375 
L 18.109375 46.1875 
Q 21.34375 51.125 25.703125 53.5625 
Q 30.078125 56 35.796875 56 
Q 45.21875 56 50.046875 50.171875 
Q 54.890625 44.34375 54.890625 33.015625 
z
" id="DejaVuSans-104"/>
      <path d="M 50.984375 -16.609375 
L 50.984375 -23.578125 
L -0.984375 -23.578125 
L -0.984375 -16.609375 
z
" id="DejaVuSans-95"/>
      <path d="M 8.5 21.578125 
L 8.5 54.6875 
L 17.484375 54.6875 
L 17.484375 21.921875 
Q 17.484375 14.15625 20.5 10.265625 
Q 23.53125 6.390625 29.59375 6.390625 
Q 36.859375 6.390625 41.078125 11.03125 
Q 45.3125 15.671875 45.3125 23.6875 
L 45.3125 54.6875 
L 54.296875 54.6875 
L 54.296875 0 
L 45.3125 0 
L 45.3125 8.40625 
Q 42.046875 3.421875 37.71875 1 
Q 33.40625 -1.421875 27.6875 -1.421875 
Q 18.265625 -1.421875 13.375 4.4375 
Q 8.5 10.296875 8.5 21.578125 
z
M 31.109375 56 
z
" id="DejaVuSans-117"/>
      <path d="M 9.421875 75.984375 
L 18.40625 75.984375 
L 18.40625 0 
L 9.421875 0 
z
" id="DejaVuSans-108"/>
     </defs>
     <g transform="translate(672.6102 160.193863)scale(0.09996 -0.09996)">
      <use xlink:href="#DejaVuSans-69"/>
      <use x="63.183594" xlink:href="#DejaVuSans-112"/>
      <use x="126.660156" xlink:href="#DejaVuSans-111"/>
      <use x="187.841797" xlink:href="#DejaVuSans-99"/>
      <use x="242.822266" xlink:href="#DejaVuSans-104"/>
      <use x="306.201172" xlink:href="#DejaVuSans-115"/>
      <use x="358.300781" xlink:href="#DejaVuSans-51"/>
      <use x="421.923828" xlink:href="#DejaVuSans-95"/>
      <use x="471.923828" xlink:href="#DejaVuSans-112"/>
      <use x="535.400391" xlink:href="#DejaVuSans-111"/>
      <use x="596.582031" xlink:href="#DejaVuSans-112"/>
      <use x="660.058594" xlink:href="#DejaVuSans-117"/>
      <use x="723.4375" xlink:href="#DejaVuSans-108"/>
      <use x="751.220703" xlink:href="#DejaVuSans-97"/>
      <use x="812.5" xlink:href="#DejaVuSans-116"/>
      <use x="851.708984" xlink:href="#DejaVuSans-105"/>
      <use x="879.492188" xlink:href="#DejaVuSans-111"/>
      <use x="940.673828" xlink:href="#DejaVuSans-110"/>
      <use x="1004.052734" xlink:href="#DejaVuSans-49"/>
      <use x="1067.675781" xlink:href="#DejaVuSans-55"/>
     </g>
    </g>
    <g id="line2d_43">
     <path d="M 647.6202 171.645531 
L 661.6146 171.645531 
" style="fill:none;stroke:#008000;stroke-linecap:square;stroke-width:1.2;"/>
    </g>
    <g id="line2d_44"/>
    <g id="text_22">
     <!-- Epochs4_population13 -->
     <g transform="translate(672.6102 175.144131)scale(0.09996 -0.09996)">
      <use xlink:href="#DejaVuSans-69"/>
      <use x="63.183594" xlink:href="#DejaVuSans-112"/>
      <use x="126.660156" xlink:href="#DejaVuSans-111"/>
      <use x="187.841797" xlink:href="#DejaVuSans-99"/>
      <use x="242.822266" xlink:href="#DejaVuSans-104"/>
      <use x="306.201172" xlink:href="#DejaVuSans-115"/>
      <use x="358.300781" xlink:href="#DejaVuSans-52"/>
      <use x="421.923828" xlink:href="#DejaVuSans-95"/>
      <use x="471.923828" xlink:href="#DejaVuSans-112"/>
      <use x="535.400391" xlink:href="#DejaVuSans-111"/>
      <use x="596.582031" xlink:href="#DejaVuSans-112"/>
      <use x="660.058594" xlink:href="#DejaVuSans-117"/>
      <use x="723.4375" xlink:href="#DejaVuSans-108"/>
      <use x="751.220703" xlink:href="#DejaVuSans-97"/>
      <use x="812.5" xlink:href="#DejaVuSans-116"/>
      <use x="851.708984" xlink:href="#DejaVuSans-105"/>
      <use x="879.492188" xlink:href="#DejaVuSans-111"/>
      <use x="940.673828" xlink:href="#DejaVuSans-110"/>
      <use x="1004.052734" xlink:href="#DejaVuSans-49"/>
      <use x="1067.675781" xlink:href="#DejaVuSans-51"/>
     </g>
    </g>
    <g id="line2d_45">
     <path d="M 647.6202 186.595798 
L 661.6146 186.595798 
" style="fill:none;stroke:#ff0000;stroke-linecap:square;stroke-width:1.2;"/>
    </g>
    <g id="line2d_46"/>
    <g id="text_23">
     <!-- Epochs5_population10 -->
     <g transform="translate(672.6102 190.094398)scale(0.09996 -0.09996)">
      <use xlink:href="#DejaVuSans-69"/>
      <use x="63.183594" xlink:href="#DejaVuSans-112"/>
      <use x="126.660156" xlink:href="#DejaVuSans-111"/>
      <use x="187.841797" xlink:href="#DejaVuSans-99"/>
      <use x="242.822266" xlink:href="#DejaVuSans-104"/>
      <use x="306.201172" xlink:href="#DejaVuSans-115"/>
      <use x="358.300781" xlink:href="#DejaVuSans-53"/>
      <use x="421.923828" xlink:href="#DejaVuSans-95"/>
      <use x="471.923828" xlink:href="#DejaVuSans-112"/>
      <use x="535.400391" xlink:href="#DejaVuSans-111"/>
      <use x="596.582031" xlink:href="#DejaVuSans-112"/>
      <use x="660.058594" xlink:href="#DejaVuSans-117"/>
      <use x="723.4375" xlink:href="#DejaVuSans-108"/>
      <use x="751.220703" xlink:href="#DejaVuSans-97"/>
      <use x="812.5" xlink:href="#DejaVuSans-116"/>
      <use x="851.708984" xlink:href="#DejaVuSans-105"/>
      <use x="879.492188" xlink:href="#DejaVuSans-111"/>
      <use x="940.673828" xlink:href="#DejaVuSans-110"/>
      <use x="1004.052734" xlink:href="#DejaVuSans-49"/>
      <use x="1067.675781" xlink:href="#DejaVuSans-48"/>
     </g>
    </g>
    <g id="line2d_47">
     <path d="M 647.6202 201.546066 
L 661.6146 201.546066 
" style="fill:none;stroke:#00bfbf;stroke-linecap:square;stroke-width:1.2;"/>
    </g>
    <g id="line2d_48"/>
    <g id="text_24">
     <!-- Epochs10_population5 -->
     <g transform="translate(672.6102 205.044666)scale(0.09996 -0.09996)">
      <use xlink:href="#DejaVuSans-69"/>
      <use x="63.183594" xlink:href="#DejaVuSans-112"/>
      <use x="126.660156" xlink:href="#DejaVuSans-111"/>
      <use x="187.841797" xlink:href="#DejaVuSans-99"/>
      <use x="242.822266" xlink:href="#DejaVuSans-104"/>
      <use x="306.201172" xlink:href="#DejaVuSans-115"/>
      <use x="358.300781" xlink:href="#DejaVuSans-49"/>
      <use x="421.923828" xlink:href="#DejaVuSans-48"/>
      <use x="485.546875" xlink:href="#DejaVuSans-95"/>
      <use x="535.546875" xlink:href="#DejaVuSans-112"/>
      <use x="599.023438" xlink:href="#DejaVuSans-111"/>
      <use x="660.205078" xlink:href="#DejaVuSans-112"/>
      <use x="723.681641" xlink:href="#DejaVuSans-117"/>
      <use x="787.060547" xlink:href="#DejaVuSans-108"/>
      <use x="814.84375" xlink:href="#DejaVuSans-97"/>
      <use x="876.123047" xlink:href="#DejaVuSans-116"/>
      <use x="915.332031" xlink:href="#DejaVuSans-105"/>
      <use x="943.115234" xlink:href="#DejaVuSans-111"/>
      <use x="1004.296875" xlink:href="#DejaVuSans-110"/>
      <use x="1067.675781" xlink:href="#DejaVuSans-53"/>
     </g>
    </g>
   </g>
  </g>
  <g id="text_25">
   <!-- Average Amount of Parameters -->
   <defs>
    <path d="M 34.1875 63.1875 
L 20.796875 26.90625 
L 47.609375 26.90625 
z
M 28.609375 72.90625 
L 39.796875 72.90625 
L 67.578125 0 
L 57.328125 0 
L 50.6875 18.703125 
L 17.828125 18.703125 
L 11.1875 0 
L 0.78125 0 
z
" id="DejaVuSans-65"/>
    <path d="M 2.984375 54.6875 
L 12.5 54.6875 
L 29.59375 8.796875 
L 46.6875 54.6875 
L 56.203125 54.6875 
L 35.6875 0 
L 23.484375 0 
z
" id="DejaVuSans-118"/>
    <path id="DejaVuSans-32"/>
    <path d="M 37.109375 75.984375 
L 37.109375 68.5 
L 28.515625 68.5 
Q 23.6875 68.5 21.796875 66.546875 
Q 19.921875 64.59375 19.921875 59.515625 
L 19.921875 54.6875 
L 34.71875 54.6875 
L 34.71875 47.703125 
L 19.921875 47.703125 
L 19.921875 0 
L 10.890625 0 
L 10.890625 47.703125 
L 2.296875 47.703125 
L 2.296875 54.6875 
L 10.890625 54.6875 
L 10.890625 58.5 
Q 10.890625 67.625 15.140625 71.796875 
Q 19.390625 75.984375 28.609375 75.984375 
z
" id="DejaVuSans-102"/>
    <path d="M 19.671875 64.796875 
L 19.671875 37.40625 
L 32.078125 37.40625 
Q 38.96875 37.40625 42.71875 40.96875 
Q 46.484375 44.53125 46.484375 51.125 
Q 46.484375 57.671875 42.71875 61.234375 
Q 38.96875 64.796875 32.078125 64.796875 
z
M 9.8125 72.90625 
L 32.078125 72.90625 
Q 44.34375 72.90625 50.609375 67.359375 
Q 56.890625 61.8125 56.890625 51.125 
Q 56.890625 40.328125 50.609375 34.8125 
Q 44.34375 29.296875 32.078125 29.296875 
L 19.671875 29.296875 
L 19.671875 0 
L 9.8125 0 
z
" id="DejaVuSans-80"/>
   </defs>
   <g transform="translate(355.93875 16.318125)scale(0.12 -0.12)">
    <use xlink:href="#DejaVuSans-65"/>
    <use x="62.533203" xlink:href="#DejaVuSans-118"/>
    <use x="121.712891" xlink:href="#DejaVuSans-101"/>
    <use x="183.236328" xlink:href="#DejaVuSans-114"/>
    <use x="224.349609" xlink:href="#DejaVuSans-97"/>
    <use x="285.628906" xlink:href="#DejaVuSans-103"/>
    <use x="349.105469" xlink:href="#DejaVuSans-101"/>
    <use x="410.628906" xlink:href="#DejaVuSans-32"/>
    <use x="442.416016" xlink:href="#DejaVuSans-65"/>
    <use x="510.824219" xlink:href="#DejaVuSans-109"/>
    <use x="608.236328" xlink:href="#DejaVuSans-111"/>
    <use x="669.417969" xlink:href="#DejaVuSans-117"/>
    <use x="732.796875" xlink:href="#DejaVuSans-110"/>
    <use x="796.175781" xlink:href="#DejaVuSans-116"/>
    <use x="835.384766" xlink:href="#DejaVuSans-32"/>
    <use x="867.171875" xlink:href="#DejaVuSans-111"/>
    <use x="928.353516" xlink:href="#DejaVuSans-102"/>
    <use x="963.558594" xlink:href="#DejaVuSans-32"/>
    <use x="995.345703" xlink:href="#DejaVuSans-80"/>
    <use x="1051.148438" xlink:href="#DejaVuSans-97"/>
    <use x="1112.427734" xlink:href="#DejaVuSans-114"/>
    <use x="1153.541016" xlink:href="#DejaVuSans-97"/>
    <use x="1214.820312" xlink:href="#DejaVuSans-109"/>
    <use x="1312.232422" xlink:href="#DejaVuSans-101"/>
    <use x="1373.755859" xlink:href="#DejaVuSans-116"/>
    <use x="1412.964844" xlink:href="#DejaVuSans-101"/>
    <use x="1474.488281" xlink:href="#DejaVuSans-114"/>
    <use x="1515.601562" xlink:href="#DejaVuSans-115"/>
   </g>
  </g>
 </g>
 <defs>
  <clipPath id="p7264d27464">
   <rect height="288" width="523.125" x="112.5" y="36"/>
  </clipPath>
 </defs>
</svg>
