<?xml version="1.0" encoding="utf-8" standalone="no"?>
<!DOCTYPE svg PUBLIC "-//W3C//DTD SVG 1.1//EN"
  "http://www.w3.org/Graphics/SVG/1.1/DTD/svg11.dtd">
<!-- Created with matplotlib (https://matplotlib.org/) -->
<svg height="360pt" version="1.1" viewBox="0 0 900 360" width="900pt" xmlns="http://www.w3.org/2000/svg" xmlns:xlink="http://www.w3.org/1999/xlink">
 <defs>
  <style type="text/css">
*{stroke-linecap:butt;stroke-linejoin:round;}
  </style>
 </defs>
 <g id="figure_1">
  <g id="patch_1">
   <path d="M 0 360 
L 900 360 
L 900 0 
L 0 0 
z
" style="fill:#ffffff;"/>
  </g>
  <g id="axes_1">
   <g id="patch_2">
    <path d="M 112.5 324 
L 635.625 324 
L 635.625 36 
L 112.5 36 
z
" style="fill:#ffffff;"/>
   </g>
   <g id="line2d_1">
    <path clip-path="url(#pca5a17ab79)" d="M 109.34442 323.19816 
L 112.85062 322.91196 
L 116.35682 323.0646 
L 119.863019 322.91196 
L 123.369219 322.54944 
L 126.875419 322.62576 
L 130.381619 322.45404 
L 133.887818 322.56852 
L 137.394018 322.45404 
L 140.900218 322.79748 
L 144.406418 323.23632 
L 147.912617 322.206 
L 151.418817 322.5876 
L 154.925017 321.95796 
L 158.431216 322.64484 
L 161.937416 322.41588 
L 165.443616 322.54944 
L 168.949816 321.76716 
L 172.456015 321.69084 
L 175.962215 321.32832 
L 179.468415 321.99612 
L 182.974615 321.8244 
L 186.480814 321.27108 
L 189.987014 320.46972 
L 193.493214 320.35524 
L 196.999414 320.08812 
L 200.505613 320.298 
L 204.011813 318.4854 
L 207.518013 320.27892 
L 211.024212 319.6302 
L 214.530412 317.77944 
L 218.036612 317.55048 
L 221.542812 317.07348 
L 225.049011 318.27552 
L 228.555211 317.56956 
L 232.061411 316.74912 
L 235.567611 316.50108 
L 239.07381 316.13856 
L 242.58001 316.08132 
L 246.08621 315.85236 
L 249.59241 313.86804 
L 253.098609 312.87588 
L 256.604809 311.10144 
L 260.111009 313.62 
L 263.617208 313.82988 
L 267.123408 314.30688 
L 270.629608 313.16208 
L 274.135808 312.97128 
L 277.642007 312.64692 
L 281.148207 311.12052 
L 284.654407 313.00944 
L 288.160607 312.79956 
L 291.666806 309.84216 
L 295.173006 310.3764 
L 298.679206 308.88816 
L 302.185405 307.59072 
L 305.691605 307.0374 
L 309.197805 305.96892 
L 312.704005 307.1328 
L 316.210204 307.55256 
L 319.716404 309.804 
L 323.222604 309.0408 
L 326.728804 308.02956 
L 330.235003 308.44932 
L 333.741203 308.2776 
L 337.247403 309.7086 
L 340.753603 310.5672 
L 344.259802 307.19004 
L 347.766002 304.25172 
L 351.272202 305.58732 
L 354.778401 301.37064 
L 358.284601 299.15736 
L 361.790801 303.54576 
L 365.297001 305.39652 
L 368.8032 301.46604 
L 372.3094 302.8398 
L 375.8156 297.74544 
L 379.3218 298.62312 
L 382.827999 293.75772 
L 386.334199 292.38396 
L 389.840399 291.06744 
L 393.346599 282.97752 
L 396.852798 290.30424 
L 400.358998 292.59384 
" style="fill:none;stroke:#0000ff;stroke-linecap:square;stroke-width:1.2;"/>
   </g>
   <g id="line2d_2">
    <path clip-path="url(#pca5a17ab79)" d="M 112.85062 322.2696 
L 116.35682 321.91344 
L 119.863019 321.86256 
L 123.369219 321.6336 
L 130.381619 320.56512 
L 133.887818 320.33616 
L 137.394018 320.56512 
L 140.900218 320.6796 
L 144.406418 319.95456 
L 147.912617 319.87824 
L 151.418817 319.50936 
L 158.431216 318.17376 
L 161.937416 318.22464 
L 165.443616 317.14344 
L 168.949816 316.9272 
L 172.456015 315.45168 
L 175.962215 315.21 
L 179.468415 313.28928 
L 182.974615 313.53096 
L 186.480814 310.92336 
L 189.987014 308.6592 
L 193.493214 305.91168 
L 196.999414 303.444 
L 200.505613 303.22776 
L 204.011813 298.53408 
L 207.518013 296.29536 
L 211.024212 292.58112 
L 214.530412 291.62712 
L 218.036612 288.95592 
L 221.542812 284.50392 
L 225.049011 281.13312 
L 228.555211 274.49328 
L 232.061411 259.26744 
L 235.567611 255.15888 
L 239.07381 255.9348 
L 242.58001 250.656 
L 246.08621 234.67968 
L 249.59241 228.44688 
L 253.098609 224.47824 
L 256.604809 226.4244 
L 260.111009 216.93528 
L 263.617208 215.45976 
L 267.123408 233.06424 
L 270.629608 221.50176 
L 274.135808 208.64184 
L 277.642007 203.592 
L 281.148207 192.51288 
L 284.654407 198.6312 
L 288.160607 164.05824 
L 291.666806 161.7432 
L 295.173006 214.17504 
L 298.679206 208.6164 
L 302.185405 207.25536 
L 305.691605 222.32856 
L 309.197805 167.75976 
L 312.704005 188.44248 
L 316.210204 192.42384 
L 319.716404 203.1468 
L 323.222604 215.84136 
L 326.728804 226.488 
L 330.235003 213.768 
L 333.741203 196.92672 
L 337.247403 203.87184 
L 340.753603 201.76032 
L 344.259802 167.4036 
L 347.766002 185.31336 
L 351.272202 120.4032 
L 354.778401 171.97008 
L 358.284601 173.91624 
L 361.790801 165.78816 
L 365.297001 202.45992 
L 368.8032 200.13216 
L 372.3094 194.35728 
L 375.8156 220.77672 
L 379.3218 211.68192 
L 382.827999 222.01056 
L 386.334199 168.31944 
L 389.840399 215.71416 
L 393.346599 202.32 
L 396.852798 198.66936 
L 400.358998 166.08072 
L 403.865198 163.11696 
L 407.371397 204.90216 
L 410.877597 172.50432 
L 414.383797 176.8164 
L 417.889997 187.17048 
L 421.396196 183.18912 
L 424.902396 199.27992 
L 428.408596 206.02152 
L 431.914796 155.4468 
L 435.420995 155.4468 
L 438.927195 155.07792 
L 442.433395 163.25688 
L 445.939595 176.48568 
L 449.445794 188.4552 
L 452.951994 144.10056 
L 456.458194 164.0964 
L 459.964393 175.30272 
L 463.470593 166.50048 
L 466.976793 130.88448 
L 470.482993 200.97168 
L 473.989192 197.01576 
L 477.495392 164.40168 
L 481.001592 174.45048 
L 484.507792 178.88976 
L 488.013991 170.7108 
L 491.520191 172.94952 
L 495.026391 154.95072 
L 498.53259 171.97008 
L 502.03879 142.06536 
L 505.54499 167.20008 
L 509.05119 189.87984 
L 512.557389 183.51984 
L 516.063589 194.12832 
L 519.569789 197.98248 
L 523.075989 202.28184 
L 526.582188 178.01208 
L 530.088388 187.83192 
L 533.594588 184.5756 
L 537.100788 191.96592 
L 540.606987 213.23376 
L 544.113187 223.90584 
L 547.619387 210.66432 
L 551.125586 176.32032 
L 554.631786 179.2332 
L 558.137986 120.61944 
L 561.644186 167.89968 
L 565.150385 184.10496 
L 568.656585 199.5852 
L 572.162785 182.8584 
L 575.668985 136.02336 
L 579.175184 185.56776 
L 582.681384 181.11576 
L 586.187584 193.87392 
L 589.693784 180.65784 
L 593.199983 168.63744 
L 596.706183 179.64024 
L 600.212383 201.22608 
L 603.718582 216.32472 
L 607.224782 199.12728 
L 610.730982 203.60472 
L 614.237182 179.81832 
L 617.743381 197.7408 
L 621.249581 207.9168 
L 624.755781 198.6948 
L 628.261981 199.85232 
L 631.76818 210.38448 
L 635.27438 203.31216 
L 635.27438 203.31216 
" style="fill:none;stroke:#008000;stroke-linecap:square;stroke-width:1.2;"/>
   </g>
   <g id="line2d_3">
    <path clip-path="url(#pca5a17ab79)" d="M 112.85062 322.12968 
L 116.35682 322.2696 
L 119.863019 321.84984 
L 123.369219 321.98976 
L 126.875419 321.4428 
L 130.381619 321.35376 
L 137.394018 320.73048 
L 140.900218 319.98 
L 144.406418 320.03088 
L 147.912617 319.43304 
L 151.418817 318.63168 
L 154.925017 317.33424 
L 158.431216 317.20704 
L 161.937416 315.66792 
L 165.443616 314.9556 
L 168.949816 313.39104 
L 172.456015 312.348 
L 175.962215 310.59264 
L 179.468415 309.56232 
L 182.974615 306.21696 
L 186.480814 305.27568 
L 189.987014 305.40288 
L 193.493214 305.39016 
L 196.999414 302.2356 
L 200.505613 297.61824 
L 204.011813 297.73272 
L 207.518013 296.01552 
L 211.024212 287.78568 
L 214.530412 286.00488 
L 218.036612 279.36504 
L 221.542812 273.45024 
L 225.049011 273.9972 
L 228.555211 266.32704 
L 232.061411 259.878 
L 235.567611 260.04336 
L 239.07381 256.01112 
L 242.58001 241.59936 
L 246.08621 252.65304 
L 249.59241 228.47232 
L 253.098609 234.20904 
L 256.604809 224.27472 
L 260.111009 210.67704 
L 263.617208 214.22592 
L 267.123408 175.12464 
L 270.629608 175.21368 
L 274.135808 169.78224 
L 277.642007 217.74936 
L 281.148207 183.69792 
L 284.654407 193.81032 
L 288.160607 170.50728 
L 291.666806 216.8844 
L 295.173006 212.5596 
L 298.679206 173.58552 
L 302.185405 212.8776 
L 305.691605 191.73696 
L 309.197805 190.236 
L 312.704005 207.39528 
L 316.210204 190.83384 
L 319.716404 194.29368 
L 323.222604 204.72408 
L 326.728804 206.772 
L 330.235003 177.834 
L 333.741203 173.16576 
L 337.247403 191.6352 
L 340.753603 189.62544 
L 344.259802 208.51464 
L 347.766002 181.85352 
L 351.272202 204.4188 
L 354.778401 207.4716 
L 358.284601 192.41112 
L 361.790801 164.40168 
L 365.297001 204.13896 
L 368.8032 211.04592 
L 372.3094 209.77392 
L 375.8156 213.08112 
L 379.3218 198.58032 
L 382.827999 205.01664 
L 386.334199 202.54896 
L 389.840399 208.69272 
L 393.346599 179.76744 
L 396.852798 204.32976 
L 400.358998 148.3236 
L 403.865198 230.66016 
L 407.371397 170.93976 
L 410.877597 171.44856 
L 414.383797 215.05272 
L 417.889997 208.4892 
L 421.396196 165.16488 
L 424.902396 159.78432 
L 428.408596 181.66272 
L 431.914796 147.48408 
L 435.420995 204.87672 
L 438.927195 193.51776 
L 442.433395 167.976 
L 445.939595 187.2468 
L 449.445794 197.89344 
L 452.951994 208.1712 
L 456.458194 172.07184 
L 459.964393 144.78744 
L 463.470593 175.50624 
L 466.976793 194.42088 
L 470.482993 174.56496 
L 473.989192 137.448 
L 477.495392 205.6908 
L 481.001592 182.45136 
L 484.507792 178.20288 
L 488.013991 142.33248 
L 491.520191 182.93472 
L 495.026391 177.98664 
L 498.53259 190.28688 
L 502.03879 175.56984 
L 505.54499 190.79568 
L 509.05119 193.61952 
L 512.557389 180.3144 
L 516.063589 184.80456 
L 519.569789 167.60712 
L 523.075989 177.27432 
L 526.582188 191.16456 
L 530.088388 129.71424 
L 533.594588 155.37048 
L 537.100788 134.75136 
L 540.606987 180.89952 
L 544.113187 178.24104 
L 547.619387 176.76552 
L 551.125586 140.65344 
L 554.631786 102.41712 
L 558.137986 155.66304 
L 561.644186 150.79128 
L 565.150385 130.2612 
L 568.656585 165.25392 
L 572.162785 145.93224 
L 575.668985 140.89512 
L 579.175184 76.50648 
L 582.681384 166.02984 
L 586.187584 167.82336 
L 589.693784 191.78784 
L 593.199983 175.18824 
L 596.706183 159.68256 
L 600.212383 183.8124 
L 603.718582 200.11944 
L 607.224782 190.26144 
L 610.730982 196.63416 
L 614.237182 193.00896 
L 617.743381 181.67544 
L 621.249581 143.27376 
L 624.755781 162.59544 
L 628.261981 188.964 
L 628.261981 188.964 
" style="fill:none;stroke:#ff0000;stroke-linecap:square;stroke-width:1.2;"/>
   </g>
   <g id="line2d_4">
    <path clip-path="url(#pca5a17ab79)" d="M 112.85062 322.23144 
L 116.35682 322.00248 
L 123.369219 321.252 
L 126.875419 321.22656 
L 130.381619 320.62872 
L 133.887818 320.33616 
L 137.394018 320.15808 
L 144.406418 318.72072 
L 147.912617 317.98296 
L 151.418817 316.72368 
L 154.925017 315.61704 
L 161.937416 312.56424 
L 165.443616 311.34312 
L 168.949816 310.33824 
L 172.456015 308.44296 
L 175.962215 304.85592 
L 179.468415 303.9528 
L 182.974615 302.64264 
L 186.480814 297.96168 
L 189.987014 291.71616 
L 193.493214 292.84824 
L 196.999414 284.5548 
L 200.505613 284.69472 
L 204.011813 274.00992 
L 207.518013 268.99824 
L 211.024212 281.87088 
L 214.530412 249.65112 
L 218.036612 241.16688 
L 221.542812 251.40648 
L 225.049011 255.744 
L 228.555211 234.6288 
L 232.061411 230.39304 
L 235.567611 247.32336 
L 239.07381 228.03984 
L 242.58001 201.08616 
L 246.08621 187.70472 
L 249.59241 195.27312 
L 253.098609 203.80824 
L 256.604809 165.16488 
L 260.111009 198.47856 
L 263.617208 207.62424 
L 267.123408 200.08128 
L 270.629608 176.57472 
L 274.135808 182.31144 
L 277.642007 196.25256 
L 281.148207 181.12848 
L 284.654407 179.00424 
L 288.160607 174.89568 
L 291.666806 163.89288 
L 295.173006 182.33688 
L 298.679206 202.54896 
L 302.185405 201.63312 
L 305.691605 181.54824 
L 309.197805 197.98248 
L 312.704005 180.8232 
L 316.210204 171.20688 
L 319.716404 182.46408 
L 323.222604 154.64544 
L 326.728804 193.81032 
L 330.235003 160.1532 
L 333.741203 183.4308 
L 337.247403 179.95824 
L 340.753603 188.73504 
L 344.259802 195.5148 
L 347.766002 201.54408 
L 351.272202 190.37592 
L 354.778401 129.3072 
L 358.284601 181.5228 
L 361.790801 195.99816 
L 365.297001 183.21456 
L 368.8032 208.52736 
L 372.3094 178.9152 
L 375.8156 154.97616 
L 379.3218 179.56392 
L 382.827999 174.85752 
L 386.334199 159.04656 
L 389.840399 171.32136 
L 393.346599 177.1344 
L 396.852798 141.08592 
L 400.358998 177.55416 
L 403.865198 138.38928 
L 407.371397 134.904 
L 410.877597 167.88696 
L 414.383797 134.63688 
L 417.889997 179.81832 
L 421.396196 145.08 
L 424.902396 187.71744 
L 428.408596 150.46056 
L 431.914796 168.17952 
L 435.420995 135.89616 
L 438.927195 176.71464 
L 442.433395 171.88104 
L 445.939595 168.1668 
L 449.445794 193.91208 
L 452.951994 167.82336 
L 456.458194 176.9436 
L 459.964393 195.006 
L 463.470593 181.12848 
L 466.976793 183.32904 
L 470.482993 191.05008 
L 473.989192 186.30552 
L 477.495392 185.36424 
L 481.001592 205.89432 
L 484.507792 187.7556 
L 488.013991 165.57192 
L 491.520191 148.03104 
L 495.026391 191.46984 
L 498.53259 170.16384 
L 502.03879 171.01608 
L 505.54499 158.04168 
L 509.05119 175.63344 
L 512.557389 151.3764 
L 516.063589 176.74008 
L 519.569789 184.72824 
L 523.075989 148.24728 
L 526.582188 142.68864 
L 530.088388 161.98488 
L 533.594588 167.92512 
L 537.100788 171.474 
L 540.606987 197.52456 
L 544.113187 187.60296 
L 547.619387 183.37992 
L 551.125586 173.39472 
L 554.631786 140.70432 
L 558.137986 190.41408 
L 561.644186 183.0492 
L 565.150385 165.76272 
L 568.656585 189.51096 
L 572.162785 166.93296 
L 575.668985 149.0232 
L 579.175184 189.76536 
L 582.681384 163.6512 
L 586.187584 188.97672 
L 589.693784 157.81272 
L 593.199983 192.6528 
L 596.706183 199.5216 
L 600.212383 192.43656 
L 603.718582 166.46232 
L 607.224782 166.52592 
L 610.730982 201.09888 
L 614.237182 144.48216 
L 617.743381 149.68464 
L 621.249581 140.41176 
L 621.249581 140.41176 
" style="fill:none;stroke:#00bfbf;stroke-linecap:square;stroke-width:1.2;"/>
   </g>
   <g id="patch_3">
    <path d="M 112.5 324 
L 112.5 36 
" style="fill:none;stroke:#000000;stroke-linecap:square;stroke-linejoin:miter;"/>
   </g>
   <g id="patch_4">
    <path d="M 635.625 324 
L 635.625 36 
" style="fill:none;stroke:#000000;stroke-linecap:square;stroke-linejoin:miter;"/>
   </g>
   <g id="patch_5">
    <path d="M 112.5 324 
L 635.625 324 
" style="fill:none;stroke:#000000;stroke-linecap:square;stroke-linejoin:miter;"/>
   </g>
   <g id="patch_6">
    <path d="M 112.5 36 
L 635.625 36 
" style="fill:none;stroke:#000000;stroke-linecap:square;stroke-linejoin:miter;"/>
   </g>
   <g id="matplotlib.axis_1">
    <g id="xtick_1">
     <g id="line2d_5">
      <defs>
       <path d="M 0 0 
L 0 -4 
" id="md62a08e01b" style="stroke:#000000;stroke-width:0.5;"/>
      </defs>
      <g>
       <use style="stroke:#000000;stroke-width:0.5;" x="112.85062" xlink:href="#md62a08e01b" y="324"/>
      </g>
     </g>
     <g id="line2d_6">
      <defs>
       <path d="M 0 0 
L 0 4 
" id="m69bc7c0ef0" style="stroke:#000000;stroke-width:0.5;"/>
      </defs>
      <g>
       <use style="stroke:#000000;stroke-width:0.5;" x="112.85062" xlink:href="#m69bc7c0ef0" y="36"/>
      </g>
     </g>
     <g id="text_1">
      <!-- 1 -->
      <defs>
       <path d="M 12.40625 8.296875 
L 28.515625 8.296875 
L 28.515625 63.921875 
L 10.984375 60.40625 
L 10.984375 69.390625 
L 28.421875 72.90625 
L 38.28125 72.90625 
L 38.28125 8.296875 
L 54.390625 8.296875 
L 54.390625 0 
L 12.40625 0 
z
" id="DejaVuSans-49"/>
      </defs>
      <g transform="translate(109.03312 337.118125)scale(0.12 -0.12)">
       <use xlink:href="#DejaVuSans-49"/>
      </g>
     </g>
    </g>
    <g id="xtick_2">
     <g id="line2d_7">
      <g>
       <use style="stroke:#000000;stroke-width:0.5;" x="165.443616" xlink:href="#md62a08e01b" y="324"/>
      </g>
     </g>
     <g id="line2d_8">
      <g>
       <use style="stroke:#000000;stroke-width:0.5;" x="165.443616" xlink:href="#m69bc7c0ef0" y="36"/>
      </g>
     </g>
     <g id="text_2">
      <!-- 16 -->
      <defs>
       <path d="M 33.015625 40.375 
Q 26.375 40.375 22.484375 35.828125 
Q 18.609375 31.296875 18.609375 23.390625 
Q 18.609375 15.53125 22.484375 10.953125 
Q 26.375 6.390625 33.015625 6.390625 
Q 39.65625 6.390625 43.53125 10.953125 
Q 47.40625 15.53125 47.40625 23.390625 
Q 47.40625 31.296875 43.53125 35.828125 
Q 39.65625 40.375 33.015625 40.375 
z
M 52.59375 71.296875 
L 52.59375 62.3125 
Q 48.875 64.0625 45.09375 64.984375 
Q 41.3125 65.921875 37.59375 65.921875 
Q 27.828125 65.921875 22.671875 59.328125 
Q 17.53125 52.734375 16.796875 39.40625 
Q 19.671875 43.65625 24.015625 45.921875 
Q 28.375 48.1875 33.59375 48.1875 
Q 44.578125 48.1875 50.953125 41.515625 
Q 57.328125 34.859375 57.328125 23.390625 
Q 57.328125 12.15625 50.6875 5.359375 
Q 44.046875 -1.421875 33.015625 -1.421875 
Q 20.359375 -1.421875 13.671875 8.265625 
Q 6.984375 17.96875 6.984375 36.375 
Q 6.984375 53.65625 15.1875 63.9375 
Q 23.390625 74.21875 37.203125 74.21875 
Q 40.921875 74.21875 44.703125 73.484375 
Q 48.484375 72.75 52.59375 71.296875 
z
" id="DejaVuSans-54"/>
      </defs>
      <g transform="translate(157.808616 337.118125)scale(0.12 -0.12)">
       <use xlink:href="#DejaVuSans-49"/>
       <use x="63.623047" xlink:href="#DejaVuSans-54"/>
      </g>
     </g>
    </g>
    <g id="xtick_3">
     <g id="line2d_9">
      <g>
       <use style="stroke:#000000;stroke-width:0.5;" x="218.036612" xlink:href="#md62a08e01b" y="324"/>
      </g>
     </g>
     <g id="line2d_10">
      <g>
       <use style="stroke:#000000;stroke-width:0.5;" x="218.036612" xlink:href="#m69bc7c0ef0" y="36"/>
      </g>
     </g>
     <g id="text_3">
      <!-- 31 -->
      <defs>
       <path d="M 40.578125 39.3125 
Q 47.65625 37.796875 51.625 33 
Q 55.609375 28.21875 55.609375 21.1875 
Q 55.609375 10.40625 48.1875 4.484375 
Q 40.765625 -1.421875 27.09375 -1.421875 
Q 22.515625 -1.421875 17.65625 -0.515625 
Q 12.796875 0.390625 7.625 2.203125 
L 7.625 11.71875 
Q 11.71875 9.328125 16.59375 8.109375 
Q 21.484375 6.890625 26.8125 6.890625 
Q 36.078125 6.890625 40.9375 10.546875 
Q 45.796875 14.203125 45.796875 21.1875 
Q 45.796875 27.640625 41.28125 31.265625 
Q 36.765625 34.90625 28.71875 34.90625 
L 20.21875 34.90625 
L 20.21875 43.015625 
L 29.109375 43.015625 
Q 36.375 43.015625 40.234375 45.921875 
Q 44.09375 48.828125 44.09375 54.296875 
Q 44.09375 59.90625 40.109375 62.90625 
Q 36.140625 65.921875 28.71875 65.921875 
Q 24.65625 65.921875 20.015625 65.03125 
Q 15.375 64.15625 9.8125 62.3125 
L 9.8125 71.09375 
Q 15.4375 72.65625 20.34375 73.4375 
Q 25.25 74.21875 29.59375 74.21875 
Q 40.828125 74.21875 47.359375 69.109375 
Q 53.90625 64.015625 53.90625 55.328125 
Q 53.90625 49.265625 50.4375 45.09375 
Q 46.96875 40.921875 40.578125 39.3125 
z
" id="DejaVuSans-51"/>
      </defs>
      <g transform="translate(210.401612 337.118125)scale(0.12 -0.12)">
       <use xlink:href="#DejaVuSans-51"/>
       <use x="63.623047" xlink:href="#DejaVuSans-49"/>
      </g>
     </g>
    </g>
    <g id="xtick_4">
     <g id="line2d_11">
      <g>
       <use style="stroke:#000000;stroke-width:0.5;" x="270.629608" xlink:href="#md62a08e01b" y="324"/>
      </g>
     </g>
     <g id="line2d_12">
      <g>
       <use style="stroke:#000000;stroke-width:0.5;" x="270.629608" xlink:href="#m69bc7c0ef0" y="36"/>
      </g>
     </g>
     <g id="text_4">
      <!-- 46 -->
      <defs>
       <path d="M 37.796875 64.3125 
L 12.890625 25.390625 
L 37.796875 25.390625 
z
M 35.203125 72.90625 
L 47.609375 72.90625 
L 47.609375 25.390625 
L 58.015625 25.390625 
L 58.015625 17.1875 
L 47.609375 17.1875 
L 47.609375 0 
L 37.796875 0 
L 37.796875 17.1875 
L 4.890625 17.1875 
L 4.890625 26.703125 
z
" id="DejaVuSans-52"/>
      </defs>
      <g transform="translate(262.994608 337.118125)scale(0.12 -0.12)">
       <use xlink:href="#DejaVuSans-52"/>
       <use x="63.623047" xlink:href="#DejaVuSans-54"/>
      </g>
     </g>
    </g>
    <g id="xtick_5">
     <g id="line2d_13">
      <g>
       <use style="stroke:#000000;stroke-width:0.5;" x="323.222604" xlink:href="#md62a08e01b" y="324"/>
      </g>
     </g>
     <g id="line2d_14">
      <g>
       <use style="stroke:#000000;stroke-width:0.5;" x="323.222604" xlink:href="#m69bc7c0ef0" y="36"/>
      </g>
     </g>
     <g id="text_5">
      <!-- 61 -->
      <g transform="translate(315.587604 337.118125)scale(0.12 -0.12)">
       <use xlink:href="#DejaVuSans-54"/>
       <use x="63.623047" xlink:href="#DejaVuSans-49"/>
      </g>
     </g>
    </g>
    <g id="xtick_6">
     <g id="line2d_15">
      <g>
       <use style="stroke:#000000;stroke-width:0.5;" x="375.8156" xlink:href="#md62a08e01b" y="324"/>
      </g>
     </g>
     <g id="line2d_16">
      <g>
       <use style="stroke:#000000;stroke-width:0.5;" x="375.8156" xlink:href="#m69bc7c0ef0" y="36"/>
      </g>
     </g>
     <g id="text_6">
      <!-- 76 -->
      <defs>
       <path d="M 8.203125 72.90625 
L 55.078125 72.90625 
L 55.078125 68.703125 
L 28.609375 0 
L 18.3125 0 
L 43.21875 64.59375 
L 8.203125 64.59375 
z
" id="DejaVuSans-55"/>
      </defs>
      <g transform="translate(368.1806 337.118125)scale(0.12 -0.12)">
       <use xlink:href="#DejaVuSans-55"/>
       <use x="63.623047" xlink:href="#DejaVuSans-54"/>
      </g>
     </g>
    </g>
    <g id="xtick_7">
     <g id="line2d_17">
      <g>
       <use style="stroke:#000000;stroke-width:0.5;" x="428.408596" xlink:href="#md62a08e01b" y="324"/>
      </g>
     </g>
     <g id="line2d_18">
      <g>
       <use style="stroke:#000000;stroke-width:0.5;" x="428.408596" xlink:href="#m69bc7c0ef0" y="36"/>
      </g>
     </g>
     <g id="text_7">
      <!-- 91 -->
      <defs>
       <path d="M 10.984375 1.515625 
L 10.984375 10.5 
Q 14.703125 8.734375 18.5 7.8125 
Q 22.3125 6.890625 25.984375 6.890625 
Q 35.75 6.890625 40.890625 13.453125 
Q 46.046875 20.015625 46.78125 33.40625 
Q 43.953125 29.203125 39.59375 26.953125 
Q 35.25 24.703125 29.984375 24.703125 
Q 19.046875 24.703125 12.671875 31.3125 
Q 6.296875 37.9375 6.296875 49.421875 
Q 6.296875 60.640625 12.9375 67.421875 
Q 19.578125 74.21875 30.609375 74.21875 
Q 43.265625 74.21875 49.921875 64.515625 
Q 56.59375 54.828125 56.59375 36.375 
Q 56.59375 19.140625 48.40625 8.859375 
Q 40.234375 -1.421875 26.421875 -1.421875 
Q 22.703125 -1.421875 18.890625 -0.6875 
Q 15.09375 0.046875 10.984375 1.515625 
z
M 30.609375 32.421875 
Q 37.25 32.421875 41.125 36.953125 
Q 45.015625 41.5 45.015625 49.421875 
Q 45.015625 57.28125 41.125 61.84375 
Q 37.25 66.40625 30.609375 66.40625 
Q 23.96875 66.40625 20.09375 61.84375 
Q 16.21875 57.28125 16.21875 49.421875 
Q 16.21875 41.5 20.09375 36.953125 
Q 23.96875 32.421875 30.609375 32.421875 
z
" id="DejaVuSans-57"/>
      </defs>
      <g transform="translate(420.773596 337.118125)scale(0.12 -0.12)">
       <use xlink:href="#DejaVuSans-57"/>
       <use x="63.623047" xlink:href="#DejaVuSans-49"/>
      </g>
     </g>
    </g>
    <g id="xtick_8">
     <g id="line2d_19">
      <g>
       <use style="stroke:#000000;stroke-width:0.5;" x="481.001592" xlink:href="#md62a08e01b" y="324"/>
      </g>
     </g>
     <g id="line2d_20">
      <g>
       <use style="stroke:#000000;stroke-width:0.5;" x="481.001592" xlink:href="#m69bc7c0ef0" y="36"/>
      </g>
     </g>
     <g id="text_8">
      <!-- 106 -->
      <defs>
       <path d="M 31.78125 66.40625 
Q 24.171875 66.40625 20.328125 58.90625 
Q 16.5 51.421875 16.5 36.375 
Q 16.5 21.390625 20.328125 13.890625 
Q 24.171875 6.390625 31.78125 6.390625 
Q 39.453125 6.390625 43.28125 13.890625 
Q 47.125 21.390625 47.125 36.375 
Q 47.125 51.421875 43.28125 58.90625 
Q 39.453125 66.40625 31.78125 66.40625 
z
M 31.78125 74.21875 
Q 44.046875 74.21875 50.515625 64.515625 
Q 56.984375 54.828125 56.984375 36.375 
Q 56.984375 17.96875 50.515625 8.265625 
Q 44.046875 -1.421875 31.78125 -1.421875 
Q 19.53125 -1.421875 13.0625 8.265625 
Q 6.59375 17.96875 6.59375 36.375 
Q 6.59375 54.828125 13.0625 64.515625 
Q 19.53125 74.21875 31.78125 74.21875 
z
" id="DejaVuSans-48"/>
      </defs>
      <g transform="translate(469.549092 337.118125)scale(0.12 -0.12)">
       <use xlink:href="#DejaVuSans-49"/>
       <use x="63.623047" xlink:href="#DejaVuSans-48"/>
       <use x="127.246094" xlink:href="#DejaVuSans-54"/>
      </g>
     </g>
    </g>
    <g id="xtick_9">
     <g id="line2d_21">
      <g>
       <use style="stroke:#000000;stroke-width:0.5;" x="533.594588" xlink:href="#md62a08e01b" y="324"/>
      </g>
     </g>
     <g id="line2d_22">
      <g>
       <use style="stroke:#000000;stroke-width:0.5;" x="533.594588" xlink:href="#m69bc7c0ef0" y="36"/>
      </g>
     </g>
     <g id="text_9">
      <!-- 121 -->
      <defs>
       <path d="M 19.1875 8.296875 
L 53.609375 8.296875 
L 53.609375 0 
L 7.328125 0 
L 7.328125 8.296875 
Q 12.9375 14.109375 22.625 23.890625 
Q 32.328125 33.6875 34.8125 36.53125 
Q 39.546875 41.84375 41.421875 45.53125 
Q 43.3125 49.21875 43.3125 52.78125 
Q 43.3125 58.59375 39.234375 62.25 
Q 35.15625 65.921875 28.609375 65.921875 
Q 23.96875 65.921875 18.8125 64.3125 
Q 13.671875 62.703125 7.8125 59.421875 
L 7.8125 69.390625 
Q 13.765625 71.78125 18.9375 73 
Q 24.125 74.21875 28.421875 74.21875 
Q 39.75 74.21875 46.484375 68.546875 
Q 53.21875 62.890625 53.21875 53.421875 
Q 53.21875 48.921875 51.53125 44.890625 
Q 49.859375 40.875 45.40625 35.40625 
Q 44.1875 33.984375 37.640625 27.21875 
Q 31.109375 20.453125 19.1875 8.296875 
z
" id="DejaVuSans-50"/>
      </defs>
      <g transform="translate(522.142088 337.118125)scale(0.12 -0.12)">
       <use xlink:href="#DejaVuSans-49"/>
       <use x="63.623047" xlink:href="#DejaVuSans-50"/>
       <use x="127.246094" xlink:href="#DejaVuSans-49"/>
      </g>
     </g>
    </g>
    <g id="xtick_10">
     <g id="line2d_23">
      <g>
       <use style="stroke:#000000;stroke-width:0.5;" x="586.187584" xlink:href="#md62a08e01b" y="324"/>
      </g>
     </g>
     <g id="line2d_24">
      <g>
       <use style="stroke:#000000;stroke-width:0.5;" x="586.187584" xlink:href="#m69bc7c0ef0" y="36"/>
      </g>
     </g>
     <g id="text_10">
      <!-- 136 -->
      <g transform="translate(574.735084 337.118125)scale(0.12 -0.12)">
       <use xlink:href="#DejaVuSans-49"/>
       <use x="63.623047" xlink:href="#DejaVuSans-51"/>
       <use x="127.246094" xlink:href="#DejaVuSans-54"/>
      </g>
     </g>
    </g>
    <g id="text_11">
     <!-- generation -->
     <defs>
      <path d="M 45.40625 27.984375 
Q 45.40625 37.75 41.375 43.109375 
Q 37.359375 48.484375 30.078125 48.484375 
Q 22.859375 48.484375 18.828125 43.109375 
Q 14.796875 37.75 14.796875 27.984375 
Q 14.796875 18.265625 18.828125 12.890625 
Q 22.859375 7.515625 30.078125 7.515625 
Q 37.359375 7.515625 41.375 12.890625 
Q 45.40625 18.265625 45.40625 27.984375 
z
M 54.390625 6.78125 
Q 54.390625 -7.171875 48.1875 -13.984375 
Q 42 -20.796875 29.203125 -20.796875 
Q 24.46875 -20.796875 20.265625 -20.09375 
Q 16.0625 -19.390625 12.109375 -17.921875 
L 12.109375 -9.1875 
Q 16.0625 -11.328125 19.921875 -12.34375 
Q 23.78125 -13.375 27.78125 -13.375 
Q 36.625 -13.375 41.015625 -8.765625 
Q 45.40625 -4.15625 45.40625 5.171875 
L 45.40625 9.625 
Q 42.625 4.78125 38.28125 2.390625 
Q 33.9375 0 27.875 0 
Q 17.828125 0 11.671875 7.65625 
Q 5.515625 15.328125 5.515625 27.984375 
Q 5.515625 40.671875 11.671875 48.328125 
Q 17.828125 56 27.875 56 
Q 33.9375 56 38.28125 53.609375 
Q 42.625 51.21875 45.40625 46.390625 
L 45.40625 54.6875 
L 54.390625 54.6875 
z
" id="DejaVuSans-103"/>
      <path d="M 56.203125 29.59375 
L 56.203125 25.203125 
L 14.890625 25.203125 
Q 15.484375 15.921875 20.484375 11.0625 
Q 25.484375 6.203125 34.421875 6.203125 
Q 39.59375 6.203125 44.453125 7.46875 
Q 49.3125 8.734375 54.109375 11.28125 
L 54.109375 2.78125 
Q 49.265625 0.734375 44.1875 -0.34375 
Q 39.109375 -1.421875 33.890625 -1.421875 
Q 20.796875 -1.421875 13.15625 6.1875 
Q 5.515625 13.8125 5.515625 26.8125 
Q 5.515625 40.234375 12.765625 48.109375 
Q 20.015625 56 32.328125 56 
Q 43.359375 56 49.78125 48.890625 
Q 56.203125 41.796875 56.203125 29.59375 
z
M 47.21875 32.234375 
Q 47.125 39.59375 43.09375 43.984375 
Q 39.0625 48.390625 32.421875 48.390625 
Q 24.90625 48.390625 20.390625 44.140625 
Q 15.875 39.890625 15.1875 32.171875 
z
" id="DejaVuSans-101"/>
      <path d="M 54.890625 33.015625 
L 54.890625 0 
L 45.90625 0 
L 45.90625 32.71875 
Q 45.90625 40.484375 42.875 44.328125 
Q 39.84375 48.1875 33.796875 48.1875 
Q 26.515625 48.1875 22.3125 43.546875 
Q 18.109375 38.921875 18.109375 30.90625 
L 18.109375 0 
L 9.078125 0 
L 9.078125 54.6875 
L 18.109375 54.6875 
L 18.109375 46.1875 
Q 21.34375 51.125 25.703125 53.5625 
Q 30.078125 56 35.796875 56 
Q 45.21875 56 50.046875 50.171875 
Q 54.890625 44.34375 54.890625 33.015625 
z
" id="DejaVuSans-110"/>
      <path d="M 41.109375 46.296875 
Q 39.59375 47.171875 37.8125 47.578125 
Q 36.03125 48 33.890625 48 
Q 26.265625 48 22.1875 43.046875 
Q 18.109375 38.09375 18.109375 28.8125 
L 18.109375 0 
L 9.078125 0 
L 9.078125 54.6875 
L 18.109375 54.6875 
L 18.109375 46.1875 
Q 20.953125 51.171875 25.484375 53.578125 
Q 30.03125 56 36.53125 56 
Q 37.453125 56 38.578125 55.875 
Q 39.703125 55.765625 41.0625 55.515625 
z
" id="DejaVuSans-114"/>
      <path d="M 34.28125 27.484375 
Q 23.390625 27.484375 19.1875 25 
Q 14.984375 22.515625 14.984375 16.5 
Q 14.984375 11.71875 18.140625 8.90625 
Q 21.296875 6.109375 26.703125 6.109375 
Q 34.1875 6.109375 38.703125 11.40625 
Q 43.21875 16.703125 43.21875 25.484375 
L 43.21875 27.484375 
z
M 52.203125 31.203125 
L 52.203125 0 
L 43.21875 0 
L 43.21875 8.296875 
Q 40.140625 3.328125 35.546875 0.953125 
Q 30.953125 -1.421875 24.3125 -1.421875 
Q 15.921875 -1.421875 10.953125 3.296875 
Q 6 8.015625 6 15.921875 
Q 6 25.140625 12.171875 29.828125 
Q 18.359375 34.515625 30.609375 34.515625 
L 43.21875 34.515625 
L 43.21875 35.40625 
Q 43.21875 41.609375 39.140625 45 
Q 35.0625 48.390625 27.6875 48.390625 
Q 23 48.390625 18.546875 47.265625 
Q 14.109375 46.140625 10.015625 43.890625 
L 10.015625 52.203125 
Q 14.9375 54.109375 19.578125 55.046875 
Q 24.21875 56 28.609375 56 
Q 40.484375 56 46.34375 49.84375 
Q 52.203125 43.703125 52.203125 31.203125 
z
" id="DejaVuSans-97"/>
      <path d="M 18.3125 70.21875 
L 18.3125 54.6875 
L 36.8125 54.6875 
L 36.8125 47.703125 
L 18.3125 47.703125 
L 18.3125 18.015625 
Q 18.3125 11.328125 20.140625 9.421875 
Q 21.96875 7.515625 27.59375 7.515625 
L 36.8125 7.515625 
L 36.8125 0 
L 27.59375 0 
Q 17.1875 0 13.234375 3.875 
Q 9.28125 7.765625 9.28125 18.015625 
L 9.28125 47.703125 
L 2.6875 47.703125 
L 2.6875 54.6875 
L 9.28125 54.6875 
L 9.28125 70.21875 
z
" id="DejaVuSans-116"/>
      <path d="M 9.421875 54.6875 
L 18.40625 54.6875 
L 18.40625 0 
L 9.421875 0 
z
M 9.421875 75.984375 
L 18.40625 75.984375 
L 18.40625 64.59375 
L 9.421875 64.59375 
z
" id="DejaVuSans-105"/>
      <path d="M 30.609375 48.390625 
Q 23.390625 48.390625 19.1875 42.75 
Q 14.984375 37.109375 14.984375 27.296875 
Q 14.984375 17.484375 19.15625 11.84375 
Q 23.34375 6.203125 30.609375 6.203125 
Q 37.796875 6.203125 41.984375 11.859375 
Q 46.1875 17.53125 46.1875 27.296875 
Q 46.1875 37.015625 41.984375 42.703125 
Q 37.796875 48.390625 30.609375 48.390625 
z
M 30.609375 56 
Q 42.328125 56 49.015625 48.375 
Q 55.71875 40.765625 55.71875 27.296875 
Q 55.71875 13.875 49.015625 6.21875 
Q 42.328125 -1.421875 30.609375 -1.421875 
Q 18.84375 -1.421875 12.171875 6.21875 
Q 5.515625 13.875 5.515625 27.296875 
Q 5.515625 40.765625 12.171875 48.375 
Q 18.84375 56 30.609375 56 
z
" id="DejaVuSans-111"/>
     </defs>
     <g transform="translate(341.430938 353.731875)scale(0.12 -0.12)">
      <use xlink:href="#DejaVuSans-103"/>
      <use x="63.476562" xlink:href="#DejaVuSans-101"/>
      <use x="125" xlink:href="#DejaVuSans-110"/>
      <use x="188.378906" xlink:href="#DejaVuSans-101"/>
      <use x="249.902344" xlink:href="#DejaVuSans-114"/>
      <use x="291.015625" xlink:href="#DejaVuSans-97"/>
      <use x="352.294922" xlink:href="#DejaVuSans-116"/>
      <use x="391.503906" xlink:href="#DejaVuSans-105"/>
      <use x="419.287109" xlink:href="#DejaVuSans-111"/>
      <use x="480.46875" xlink:href="#DejaVuSans-110"/>
     </g>
    </g>
   </g>
   <g id="matplotlib.axis_2">
    <g id="ytick_1">
     <g id="line2d_25">
      <defs>
       <path d="M 0 0 
L 4 0 
" id="m547ae540f7" style="stroke:#000000;stroke-width:0.5;"/>
      </defs>
      <g>
       <use style="stroke:#000000;stroke-width:0.5;" x="112.5" xlink:href="#m547ae540f7" y="324"/>
      </g>
     </g>
     <g id="line2d_26">
      <defs>
       <path d="M 0 0 
L -4 0 
" id="m5f22bff15d" style="stroke:#000000;stroke-width:0.5;"/>
      </defs>
      <g>
       <use style="stroke:#000000;stroke-width:0.5;" x="635.625" xlink:href="#m5f22bff15d" y="324"/>
      </g>
     </g>
     <g id="text_12">
      <!-- 0 -->
      <g transform="translate(100.865 327.31125)scale(0.12 -0.12)">
       <use xlink:href="#DejaVuSans-48"/>
      </g>
     </g>
    </g>
    <g id="ytick_2">
     <g id="line2d_27">
      <g>
       <use style="stroke:#000000;stroke-width:0.5;" x="112.5" xlink:href="#m547ae540f7" y="276"/>
      </g>
     </g>
     <g id="line2d_28">
      <g>
       <use style="stroke:#000000;stroke-width:0.5;" x="635.625" xlink:href="#m5f22bff15d" y="276"/>
      </g>
     </g>
     <g id="text_13">
      <!-- 1,000,000 -->
      <defs>
       <path d="M 11.71875 12.40625 
L 22.015625 12.40625 
L 22.015625 4 
L 14.015625 -11.625 
L 7.71875 -11.625 
L 11.71875 4 
z
" id="DejaVuSans-44"/>
      </defs>
      <g transform="translate(47.4275 279.31125)scale(0.12 -0.12)">
       <use xlink:href="#DejaVuSans-49"/>
       <use x="63.623047" xlink:href="#DejaVuSans-44"/>
       <use x="95.410156" xlink:href="#DejaVuSans-48"/>
       <use x="159.033203" xlink:href="#DejaVuSans-48"/>
       <use x="222.65625" xlink:href="#DejaVuSans-48"/>
       <use x="286.279297" xlink:href="#DejaVuSans-44"/>
       <use x="318.066406" xlink:href="#DejaVuSans-48"/>
       <use x="381.689453" xlink:href="#DejaVuSans-48"/>
       <use x="445.3125" xlink:href="#DejaVuSans-48"/>
      </g>
     </g>
    </g>
    <g id="ytick_3">
     <g id="line2d_29">
      <g>
       <use style="stroke:#000000;stroke-width:0.5;" x="112.5" xlink:href="#m547ae540f7" y="228"/>
      </g>
     </g>
     <g id="line2d_30">
      <g>
       <use style="stroke:#000000;stroke-width:0.5;" x="635.625" xlink:href="#m5f22bff15d" y="228"/>
      </g>
     </g>
     <g id="text_14">
      <!-- 2,000,000 -->
      <g transform="translate(47.4275 231.31125)scale(0.12 -0.12)">
       <use xlink:href="#DejaVuSans-50"/>
       <use x="63.623047" xlink:href="#DejaVuSans-44"/>
       <use x="95.410156" xlink:href="#DejaVuSans-48"/>
       <use x="159.033203" xlink:href="#DejaVuSans-48"/>
       <use x="222.65625" xlink:href="#DejaVuSans-48"/>
       <use x="286.279297" xlink:href="#DejaVuSans-44"/>
       <use x="318.066406" xlink:href="#DejaVuSans-48"/>
       <use x="381.689453" xlink:href="#DejaVuSans-48"/>
       <use x="445.3125" xlink:href="#DejaVuSans-48"/>
      </g>
     </g>
    </g>
    <g id="ytick_4">
     <g id="line2d_31">
      <g>
       <use style="stroke:#000000;stroke-width:0.5;" x="112.5" xlink:href="#m547ae540f7" y="180"/>
      </g>
     </g>
     <g id="line2d_32">
      <g>
       <use style="stroke:#000000;stroke-width:0.5;" x="635.625" xlink:href="#m5f22bff15d" y="180"/>
      </g>
     </g>
     <g id="text_15">
      <!-- 3,000,000 -->
      <g transform="translate(47.4275 183.31125)scale(0.12 -0.12)">
       <use xlink:href="#DejaVuSans-51"/>
       <use x="63.623047" xlink:href="#DejaVuSans-44"/>
       <use x="95.410156" xlink:href="#DejaVuSans-48"/>
       <use x="159.033203" xlink:href="#DejaVuSans-48"/>
       <use x="222.65625" xlink:href="#DejaVuSans-48"/>
       <use x="286.279297" xlink:href="#DejaVuSans-44"/>
       <use x="318.066406" xlink:href="#DejaVuSans-48"/>
       <use x="381.689453" xlink:href="#DejaVuSans-48"/>
       <use x="445.3125" xlink:href="#DejaVuSans-48"/>
      </g>
     </g>
    </g>
    <g id="ytick_5">
     <g id="line2d_33">
      <g>
       <use style="stroke:#000000;stroke-width:0.5;" x="112.5" xlink:href="#m547ae540f7" y="132"/>
      </g>
     </g>
     <g id="line2d_34">
      <g>
       <use style="stroke:#000000;stroke-width:0.5;" x="635.625" xlink:href="#m5f22bff15d" y="132"/>
      </g>
     </g>
     <g id="text_16">
      <!-- 4,000,000 -->
      <g transform="translate(47.4275 135.31125)scale(0.12 -0.12)">
       <use xlink:href="#DejaVuSans-52"/>
       <use x="63.623047" xlink:href="#DejaVuSans-44"/>
       <use x="95.410156" xlink:href="#DejaVuSans-48"/>
       <use x="159.033203" xlink:href="#DejaVuSans-48"/>
       <use x="222.65625" xlink:href="#DejaVuSans-48"/>
       <use x="286.279297" xlink:href="#DejaVuSans-44"/>
       <use x="318.066406" xlink:href="#DejaVuSans-48"/>
       <use x="381.689453" xlink:href="#DejaVuSans-48"/>
       <use x="445.3125" xlink:href="#DejaVuSans-48"/>
      </g>
     </g>
    </g>
    <g id="ytick_6">
     <g id="line2d_35">
      <g>
       <use style="stroke:#000000;stroke-width:0.5;" x="112.5" xlink:href="#m547ae540f7" y="84"/>
      </g>
     </g>
     <g id="line2d_36">
      <g>
       <use style="stroke:#000000;stroke-width:0.5;" x="635.625" xlink:href="#m5f22bff15d" y="84"/>
      </g>
     </g>
     <g id="text_17">
      <!-- 5,000,000 -->
      <defs>
       <path d="M 10.796875 72.90625 
L 49.515625 72.90625 
L 49.515625 64.59375 
L 19.828125 64.59375 
L 19.828125 46.734375 
Q 21.96875 47.46875 24.109375 47.828125 
Q 26.265625 48.1875 28.421875 48.1875 
Q 40.625 48.1875 47.75 41.5 
Q 54.890625 34.8125 54.890625 23.390625 
Q 54.890625 11.625 47.5625 5.09375 
Q 40.234375 -1.421875 26.90625 -1.421875 
Q 22.3125 -1.421875 17.546875 -0.640625 
Q 12.796875 0.140625 7.71875 1.703125 
L 7.71875 11.625 
Q 12.109375 9.234375 16.796875 8.0625 
Q 21.484375 6.890625 26.703125 6.890625 
Q 35.15625 6.890625 40.078125 11.328125 
Q 45.015625 15.765625 45.015625 23.390625 
Q 45.015625 31 40.078125 35.4375 
Q 35.15625 39.890625 26.703125 39.890625 
Q 22.75 39.890625 18.8125 39.015625 
Q 14.890625 38.140625 10.796875 36.28125 
z
" id="DejaVuSans-53"/>
      </defs>
      <g transform="translate(47.4275 87.31125)scale(0.12 -0.12)">
       <use xlink:href="#DejaVuSans-53"/>
       <use x="63.623047" xlink:href="#DejaVuSans-44"/>
       <use x="95.410156" xlink:href="#DejaVuSans-48"/>
       <use x="159.033203" xlink:href="#DejaVuSans-48"/>
       <use x="222.65625" xlink:href="#DejaVuSans-48"/>
       <use x="286.279297" xlink:href="#DejaVuSans-44"/>
       <use x="318.066406" xlink:href="#DejaVuSans-48"/>
       <use x="381.689453" xlink:href="#DejaVuSans-48"/>
       <use x="445.3125" xlink:href="#DejaVuSans-48"/>
      </g>
     </g>
    </g>
    <g id="ytick_7">
     <g id="line2d_37">
      <g>
       <use style="stroke:#000000;stroke-width:0.5;" x="112.5" xlink:href="#m547ae540f7" y="36"/>
      </g>
     </g>
     <g id="line2d_38">
      <g>
       <use style="stroke:#000000;stroke-width:0.5;" x="635.625" xlink:href="#m5f22bff15d" y="36"/>
      </g>
     </g>
     <g id="text_18">
      <!-- 6,000,000 -->
      <g transform="translate(47.4275 39.31125)scale(0.12 -0.12)">
       <use xlink:href="#DejaVuSans-54"/>
       <use x="63.623047" xlink:href="#DejaVuSans-44"/>
       <use x="95.410156" xlink:href="#DejaVuSans-48"/>
       <use x="159.033203" xlink:href="#DejaVuSans-48"/>
       <use x="222.65625" xlink:href="#DejaVuSans-48"/>
       <use x="286.279297" xlink:href="#DejaVuSans-44"/>
       <use x="318.066406" xlink:href="#DejaVuSans-48"/>
       <use x="381.689453" xlink:href="#DejaVuSans-48"/>
       <use x="445.3125" xlink:href="#DejaVuSans-48"/>
      </g>
     </g>
    </g>
    <g id="text_19">
     <!-- parameters -->
     <defs>
      <path d="M 18.109375 8.203125 
L 18.109375 -20.796875 
L 9.078125 -20.796875 
L 9.078125 54.6875 
L 18.109375 54.6875 
L 18.109375 46.390625 
Q 20.953125 51.265625 25.265625 53.625 
Q 29.59375 56 35.59375 56 
Q 45.5625 56 51.78125 48.09375 
Q 58.015625 40.1875 58.015625 27.296875 
Q 58.015625 14.40625 51.78125 6.484375 
Q 45.5625 -1.421875 35.59375 -1.421875 
Q 29.59375 -1.421875 25.265625 0.953125 
Q 20.953125 3.328125 18.109375 8.203125 
z
M 48.6875 27.296875 
Q 48.6875 37.203125 44.609375 42.84375 
Q 40.53125 48.484375 33.40625 48.484375 
Q 26.265625 48.484375 22.1875 42.84375 
Q 18.109375 37.203125 18.109375 27.296875 
Q 18.109375 17.390625 22.1875 11.75 
Q 26.265625 6.109375 33.40625 6.109375 
Q 40.53125 6.109375 44.609375 11.75 
Q 48.6875 17.390625 48.6875 27.296875 
z
" id="DejaVuSans-112"/>
      <path d="M 52 44.1875 
Q 55.375 50.25 60.0625 53.125 
Q 64.75 56 71.09375 56 
Q 79.640625 56 84.28125 50.015625 
Q 88.921875 44.046875 88.921875 33.015625 
L 88.921875 0 
L 79.890625 0 
L 79.890625 32.71875 
Q 79.890625 40.578125 77.09375 44.375 
Q 74.3125 48.1875 68.609375 48.1875 
Q 61.625 48.1875 57.5625 43.546875 
Q 53.515625 38.921875 53.515625 30.90625 
L 53.515625 0 
L 44.484375 0 
L 44.484375 32.71875 
Q 44.484375 40.625 41.703125 44.40625 
Q 38.921875 48.1875 33.109375 48.1875 
Q 26.21875 48.1875 22.15625 43.53125 
Q 18.109375 38.875 18.109375 30.90625 
L 18.109375 0 
L 9.078125 0 
L 9.078125 54.6875 
L 18.109375 54.6875 
L 18.109375 46.1875 
Q 21.1875 51.21875 25.484375 53.609375 
Q 29.78125 56 35.6875 56 
Q 41.65625 56 45.828125 52.96875 
Q 50 49.953125 52 44.1875 
z
" id="DejaVuSans-109"/>
      <path d="M 44.28125 53.078125 
L 44.28125 44.578125 
Q 40.484375 46.53125 36.375 47.5 
Q 32.28125 48.484375 27.875 48.484375 
Q 21.1875 48.484375 17.84375 46.4375 
Q 14.5 44.390625 14.5 40.28125 
Q 14.5 37.15625 16.890625 35.375 
Q 19.28125 33.59375 26.515625 31.984375 
L 29.59375 31.296875 
Q 39.15625 29.25 43.1875 25.515625 
Q 47.21875 21.78125 47.21875 15.09375 
Q 47.21875 7.46875 41.1875 3.015625 
Q 35.15625 -1.421875 24.609375 -1.421875 
Q 20.21875 -1.421875 15.453125 -0.5625 
Q 10.6875 0.296875 5.421875 2 
L 5.421875 11.28125 
Q 10.40625 8.6875 15.234375 7.390625 
Q 20.0625 6.109375 24.8125 6.109375 
Q 31.15625 6.109375 34.5625 8.28125 
Q 37.984375 10.453125 37.984375 14.40625 
Q 37.984375 18.0625 35.515625 20.015625 
Q 33.0625 21.96875 24.703125 23.78125 
L 21.578125 24.515625 
Q 13.234375 26.265625 9.515625 29.90625 
Q 5.8125 33.546875 5.8125 39.890625 
Q 5.8125 47.609375 11.28125 51.796875 
Q 16.75 56 26.8125 56 
Q 31.78125 56 36.171875 55.265625 
Q 40.578125 54.546875 44.28125 53.078125 
z
" id="DejaVuSans-115"/>
     </defs>
     <g transform="translate(39.931875 214.801875)rotate(-90)scale(0.12 -0.12)">
      <use xlink:href="#DejaVuSans-112"/>
      <use x="63.476562" xlink:href="#DejaVuSans-97"/>
      <use x="124.755859" xlink:href="#DejaVuSans-114"/>
      <use x="165.869141" xlink:href="#DejaVuSans-97"/>
      <use x="227.148438" xlink:href="#DejaVuSans-109"/>
      <use x="324.560547" xlink:href="#DejaVuSans-101"/>
      <use x="386.083984" xlink:href="#DejaVuSans-116"/>
      <use x="425.292969" xlink:href="#DejaVuSans-101"/>
      <use x="486.816406" xlink:href="#DejaVuSans-114"/>
      <use x="527.929688" xlink:href="#DejaVuSans-115"/>
     </g>
    </g>
   </g>
   <g id="legend_1">
    <g id="patch_7">
     <path d="M 640.623 211.399935 
L 832.043276 211.399935 
L 832.043276 148.600065 
L 640.623 148.600065 
z
" style="fill:#ffffff;stroke:#000000;stroke-linejoin:miter;"/>
    </g>
    <g id="line2d_39">
     <path d="M 647.6202 156.695263 
L 661.6146 156.695263 
" style="fill:none;stroke:#0000ff;stroke-linecap:square;stroke-width:1.2;"/>
    </g>
    <g id="line2d_40"/>
    <g id="text_20">
     <!-- Lonely_Loss_Param_Scale_0.33 -->
     <defs>
      <path d="M 9.8125 72.90625 
L 19.671875 72.90625 
L 19.671875 8.296875 
L 55.171875 8.296875 
L 55.171875 0 
L 9.8125 0 
z
" id="DejaVuSans-76"/>
      <path d="M 9.421875 75.984375 
L 18.40625 75.984375 
L 18.40625 0 
L 9.421875 0 
z
" id="DejaVuSans-108"/>
      <path d="M 32.171875 -5.078125 
Q 28.375 -14.84375 24.75 -17.8125 
Q 21.140625 -20.796875 15.09375 -20.796875 
L 7.90625 -20.796875 
L 7.90625 -13.28125 
L 13.1875 -13.28125 
Q 16.890625 -13.28125 18.9375 -11.515625 
Q 21 -9.765625 23.484375 -3.21875 
L 25.09375 0.875 
L 2.984375 54.6875 
L 12.5 54.6875 
L 29.59375 11.921875 
L 46.6875 54.6875 
L 56.203125 54.6875 
z
" id="DejaVuSans-121"/>
      <path d="M 50.984375 -16.609375 
L 50.984375 -23.578125 
L -0.984375 -23.578125 
L -0.984375 -16.609375 
z
" id="DejaVuSans-95"/>
      <path d="M 19.671875 64.796875 
L 19.671875 37.40625 
L 32.078125 37.40625 
Q 38.96875 37.40625 42.71875 40.96875 
Q 46.484375 44.53125 46.484375 51.125 
Q 46.484375 57.671875 42.71875 61.234375 
Q 38.96875 64.796875 32.078125 64.796875 
z
M 9.8125 72.90625 
L 32.078125 72.90625 
Q 44.34375 72.90625 50.609375 67.359375 
Q 56.890625 61.8125 56.890625 51.125 
Q 56.890625 40.328125 50.609375 34.8125 
Q 44.34375 29.296875 32.078125 29.296875 
L 19.671875 29.296875 
L 19.671875 0 
L 9.8125 0 
z
" id="DejaVuSans-80"/>
      <path d="M 53.515625 70.515625 
L 53.515625 60.890625 
Q 47.90625 63.578125 42.921875 64.890625 
Q 37.9375 66.21875 33.296875 66.21875 
Q 25.25 66.21875 20.875 63.09375 
Q 16.5 59.96875 16.5 54.203125 
Q 16.5 49.359375 19.40625 46.890625 
Q 22.3125 44.4375 30.421875 42.921875 
L 36.375 41.703125 
Q 47.40625 39.59375 52.65625 34.296875 
Q 57.90625 29 57.90625 20.125 
Q 57.90625 9.515625 50.796875 4.046875 
Q 43.703125 -1.421875 29.984375 -1.421875 
Q 24.8125 -1.421875 18.96875 -0.25 
Q 13.140625 0.921875 6.890625 3.21875 
L 6.890625 13.375 
Q 12.890625 10.015625 18.65625 8.296875 
Q 24.421875 6.59375 29.984375 6.59375 
Q 38.421875 6.59375 43.015625 9.90625 
Q 47.609375 13.234375 47.609375 19.390625 
Q 47.609375 24.75 44.3125 27.78125 
Q 41.015625 30.8125 33.5 32.328125 
L 27.484375 33.5 
Q 16.453125 35.6875 11.515625 40.375 
Q 6.59375 45.0625 6.59375 53.421875 
Q 6.59375 63.09375 13.40625 68.65625 
Q 20.21875 74.21875 32.171875 74.21875 
Q 37.3125 74.21875 42.625 73.28125 
Q 47.953125 72.359375 53.515625 70.515625 
z
" id="DejaVuSans-83"/>
      <path d="M 48.78125 52.59375 
L 48.78125 44.1875 
Q 44.96875 46.296875 41.140625 47.34375 
Q 37.3125 48.390625 33.40625 48.390625 
Q 24.65625 48.390625 19.8125 42.84375 
Q 14.984375 37.3125 14.984375 27.296875 
Q 14.984375 17.28125 19.8125 11.734375 
Q 24.65625 6.203125 33.40625 6.203125 
Q 37.3125 6.203125 41.140625 7.25 
Q 44.96875 8.296875 48.78125 10.40625 
L 48.78125 2.09375 
Q 45.015625 0.34375 40.984375 -0.53125 
Q 36.96875 -1.421875 32.421875 -1.421875 
Q 20.0625 -1.421875 12.78125 6.34375 
Q 5.515625 14.109375 5.515625 27.296875 
Q 5.515625 40.671875 12.859375 48.328125 
Q 20.21875 56 33.015625 56 
Q 37.15625 56 41.109375 55.140625 
Q 45.0625 54.296875 48.78125 52.59375 
z
" id="DejaVuSans-99"/>
      <path d="M 10.6875 12.40625 
L 21 12.40625 
L 21 0 
L 10.6875 0 
z
" id="DejaVuSans-46"/>
     </defs>
     <g transform="translate(672.6102 160.193863)scale(0.09996 -0.09996)">
      <use xlink:href="#DejaVuSans-76"/>
      <use x="53.962891" xlink:href="#DejaVuSans-111"/>
      <use x="115.144531" xlink:href="#DejaVuSans-110"/>
      <use x="178.523438" xlink:href="#DejaVuSans-101"/>
      <use x="240.046875" xlink:href="#DejaVuSans-108"/>
      <use x="267.830078" xlink:href="#DejaVuSans-121"/>
      <use x="327.009766" xlink:href="#DejaVuSans-95"/>
      <use x="377.009766" xlink:href="#DejaVuSans-76"/>
      <use x="430.972656" xlink:href="#DejaVuSans-111"/>
      <use x="492.154297" xlink:href="#DejaVuSans-115"/>
      <use x="544.253906" xlink:href="#DejaVuSans-115"/>
      <use x="596.353516" xlink:href="#DejaVuSans-95"/>
      <use x="646.353516" xlink:href="#DejaVuSans-80"/>
      <use x="702.15625" xlink:href="#DejaVuSans-97"/>
      <use x="763.435547" xlink:href="#DejaVuSans-114"/>
      <use x="804.548828" xlink:href="#DejaVuSans-97"/>
      <use x="865.828125" xlink:href="#DejaVuSans-109"/>
      <use x="963.240234" xlink:href="#DejaVuSans-95"/>
      <use x="1013.240234" xlink:href="#DejaVuSans-83"/>
      <use x="1076.716797" xlink:href="#DejaVuSans-99"/>
      <use x="1131.697266" xlink:href="#DejaVuSans-97"/>
      <use x="1192.976562" xlink:href="#DejaVuSans-108"/>
      <use x="1220.759766" xlink:href="#DejaVuSans-101"/>
      <use x="1282.283203" xlink:href="#DejaVuSans-95"/>
      <use x="1332.283203" xlink:href="#DejaVuSans-48"/>
      <use x="1395.90625" xlink:href="#DejaVuSans-46"/>
      <use x="1427.693359" xlink:href="#DejaVuSans-51"/>
      <use x="1491.316406" xlink:href="#DejaVuSans-51"/>
     </g>
    </g>
    <g id="line2d_41">
     <path d="M 647.6202 171.645531 
L 661.6146 171.645531 
" style="fill:none;stroke:#008000;stroke-linecap:square;stroke-width:1.2;"/>
    </g>
    <g id="line2d_42"/>
    <g id="text_21">
     <!-- Lonely_Loss_3 -->
     <g transform="translate(672.6102 175.144131)scale(0.09996 -0.09996)">
      <use xlink:href="#DejaVuSans-76"/>
      <use x="53.962891" xlink:href="#DejaVuSans-111"/>
      <use x="115.144531" xlink:href="#DejaVuSans-110"/>
      <use x="178.523438" xlink:href="#DejaVuSans-101"/>
      <use x="240.046875" xlink:href="#DejaVuSans-108"/>
      <use x="267.830078" xlink:href="#DejaVuSans-121"/>
      <use x="327.009766" xlink:href="#DejaVuSans-95"/>
      <use x="377.009766" xlink:href="#DejaVuSans-76"/>
      <use x="430.972656" xlink:href="#DejaVuSans-111"/>
      <use x="492.154297" xlink:href="#DejaVuSans-115"/>
      <use x="544.253906" xlink:href="#DejaVuSans-115"/>
      <use x="596.353516" xlink:href="#DejaVuSans-95"/>
      <use x="646.353516" xlink:href="#DejaVuSans-51"/>
     </g>
    </g>
    <g id="line2d_43">
     <path d="M 647.6202 186.595798 
L 661.6146 186.595798 
" style="fill:none;stroke:#ff0000;stroke-linecap:square;stroke-width:1.2;"/>
    </g>
    <g id="line2d_44"/>
    <g id="text_22">
     <!-- Lonely_Loss_4 -->
     <g transform="translate(672.6102 190.094398)scale(0.09996 -0.09996)">
      <use xlink:href="#DejaVuSans-76"/>
      <use x="53.962891" xlink:href="#DejaVuSans-111"/>
      <use x="115.144531" xlink:href="#DejaVuSans-110"/>
      <use x="178.523438" xlink:href="#DejaVuSans-101"/>
      <use x="240.046875" xlink:href="#DejaVuSans-108"/>
      <use x="267.830078" xlink:href="#DejaVuSans-121"/>
      <use x="327.009766" xlink:href="#DejaVuSans-95"/>
      <use x="377.009766" xlink:href="#DejaVuSans-76"/>
      <use x="430.972656" xlink:href="#DejaVuSans-111"/>
      <use x="492.154297" xlink:href="#DejaVuSans-115"/>
      <use x="544.253906" xlink:href="#DejaVuSans-115"/>
      <use x="596.353516" xlink:href="#DejaVuSans-95"/>
      <use x="646.353516" xlink:href="#DejaVuSans-52"/>
     </g>
    </g>
    <g id="line2d_45">
     <path d="M 647.6202 201.546066 
L 661.6146 201.546066 
" style="fill:none;stroke:#00bfbf;stroke-linecap:square;stroke-width:1.2;"/>
    </g>
    <g id="line2d_46"/>
    <g id="text_23">
     <!-- Lonely_Loss_5 -->
     <g transform="translate(672.6102 205.044666)scale(0.09996 -0.09996)">
      <use xlink:href="#DejaVuSans-76"/>
      <use x="53.962891" xlink:href="#DejaVuSans-111"/>
      <use x="115.144531" xlink:href="#DejaVuSans-110"/>
      <use x="178.523438" xlink:href="#DejaVuSans-101"/>
      <use x="240.046875" xlink:href="#DejaVuSans-108"/>
      <use x="267.830078" xlink:href="#DejaVuSans-121"/>
      <use x="327.009766" xlink:href="#DejaVuSans-95"/>
      <use x="377.009766" xlink:href="#DejaVuSans-76"/>
      <use x="430.972656" xlink:href="#DejaVuSans-111"/>
      <use x="492.154297" xlink:href="#DejaVuSans-115"/>
      <use x="544.253906" xlink:href="#DejaVuSans-115"/>
      <use x="596.353516" xlink:href="#DejaVuSans-95"/>
      <use x="646.353516" xlink:href="#DejaVuSans-53"/>
     </g>
    </g>
   </g>
  </g>
  <g id="text_24">
   <!-- Average Amount of Parameters -->
   <defs>
    <path d="M 34.1875 63.1875 
L 20.796875 26.90625 
L 47.609375 26.90625 
z
M 28.609375 72.90625 
L 39.796875 72.90625 
L 67.578125 0 
L 57.328125 0 
L 50.6875 18.703125 
L 17.828125 18.703125 
L 11.1875 0 
L 0.78125 0 
z
" id="DejaVuSans-65"/>
    <path d="M 2.984375 54.6875 
L 12.5 54.6875 
L 29.59375 8.796875 
L 46.6875 54.6875 
L 56.203125 54.6875 
L 35.6875 0 
L 23.484375 0 
z
" id="DejaVuSans-118"/>
    <path id="DejaVuSans-32"/>
    <path d="M 8.5 21.578125 
L 8.5 54.6875 
L 17.484375 54.6875 
L 17.484375 21.921875 
Q 17.484375 14.15625 20.5 10.265625 
Q 23.53125 6.390625 29.59375 6.390625 
Q 36.859375 6.390625 41.078125 11.03125 
Q 45.3125 15.671875 45.3125 23.6875 
L 45.3125 54.6875 
L 54.296875 54.6875 
L 54.296875 0 
L 45.3125 0 
L 45.3125 8.40625 
Q 42.046875 3.421875 37.71875 1 
Q 33.40625 -1.421875 27.6875 -1.421875 
Q 18.265625 -1.421875 13.375 4.4375 
Q 8.5 10.296875 8.5 21.578125 
z
M 31.109375 56 
z
" id="DejaVuSans-117"/>
    <path d="M 37.109375 75.984375 
L 37.109375 68.5 
L 28.515625 68.5 
Q 23.6875 68.5 21.796875 66.546875 
Q 19.921875 64.59375 19.921875 59.515625 
L 19.921875 54.6875 
L 34.71875 54.6875 
L 34.71875 47.703125 
L 19.921875 47.703125 
L 19.921875 0 
L 10.890625 0 
L 10.890625 47.703125 
L 2.296875 47.703125 
L 2.296875 54.6875 
L 10.890625 54.6875 
L 10.890625 58.5 
Q 10.890625 67.625 15.140625 71.796875 
Q 19.390625 75.984375 28.609375 75.984375 
z
" id="DejaVuSans-102"/>
   </defs>
   <g transform="translate(355.93875 16.318125)scale(0.12 -0.12)">
    <use xlink:href="#DejaVuSans-65"/>
    <use x="62.533203" xlink:href="#DejaVuSans-118"/>
    <use x="121.712891" xlink:href="#DejaVuSans-101"/>
    <use x="183.236328" xlink:href="#DejaVuSans-114"/>
    <use x="224.349609" xlink:href="#DejaVuSans-97"/>
    <use x="285.628906" xlink:href="#DejaVuSans-103"/>
    <use x="349.105469" xlink:href="#DejaVuSans-101"/>
    <use x="410.628906" xlink:href="#DejaVuSans-32"/>
    <use x="442.416016" xlink:href="#DejaVuSans-65"/>
    <use x="510.824219" xlink:href="#DejaVuSans-109"/>
    <use x="608.236328" xlink:href="#DejaVuSans-111"/>
    <use x="669.417969" xlink:href="#DejaVuSans-117"/>
    <use x="732.796875" xlink:href="#DejaVuSans-110"/>
    <use x="796.175781" xlink:href="#DejaVuSans-116"/>
    <use x="835.384766" xlink:href="#DejaVuSans-32"/>
    <use x="867.171875" xlink:href="#DejaVuSans-111"/>
    <use x="928.353516" xlink:href="#DejaVuSans-102"/>
    <use x="963.558594" xlink:href="#DejaVuSans-32"/>
    <use x="995.345703" xlink:href="#DejaVuSans-80"/>
    <use x="1051.148438" xlink:href="#DejaVuSans-97"/>
    <use x="1112.427734" xlink:href="#DejaVuSans-114"/>
    <use x="1153.541016" xlink:href="#DejaVuSans-97"/>
    <use x="1214.820312" xlink:href="#DejaVuSans-109"/>
    <use x="1312.232422" xlink:href="#DejaVuSans-101"/>
    <use x="1373.755859" xlink:href="#DejaVuSans-116"/>
    <use x="1412.964844" xlink:href="#DejaVuSans-101"/>
    <use x="1474.488281" xlink:href="#DejaVuSans-114"/>
    <use x="1515.601562" xlink:href="#DejaVuSans-115"/>
   </g>
  </g>
 </g>
 <defs>
  <clipPath id="pca5a17ab79">
   <rect height="288" width="523.125" x="112.5" y="36"/>
  </clipPath>
 </defs>
</svg>
