<?xml version="1.0" encoding="utf-8" standalone="no"?>
<!DOCTYPE svg PUBLIC "-//W3C//DTD SVG 1.1//EN"
  "http://www.w3.org/Graphics/SVG/1.1/DTD/svg11.dtd">
<!-- Created with matplotlib (https://matplotlib.org/) -->
<svg height="360pt" version="1.1" viewBox="0 0 900 360" width="900pt" xmlns="http://www.w3.org/2000/svg" xmlns:xlink="http://www.w3.org/1999/xlink">
 <defs>
  <style type="text/css">
*{stroke-linecap:butt;stroke-linejoin:round;}
  </style>
 </defs>
 <g id="figure_1">
  <g id="patch_1">
   <path d="M 0 360 
L 900 360 
L 900 0 
L 0 0 
z
" style="fill:#ffffff;"/>
  </g>
  <g id="axes_1">
   <g id="patch_2">
    <path d="M 112.5 324 
L 635.625 324 
L 635.625 36 
L 112.5 36 
z
" style="fill:#ffffff;"/>
   </g>
   <g id="line2d_1">
    <path clip-path="url(#pe4cc597ba2)" d="M 113.079961 323.18496 
L 118.879573 323.26128 
L 124.679185 323.15952 
L 130.478797 322.87968 
L 136.278409 323.41392 
L 142.078021 322.85424 
L 147.877633 322.87968 
L 153.677245 323.23584 
L 159.476857 322.87968 
L 165.276469 322.85424 
L 171.076081 322.65072 
L 176.875693 322.39632 
L 182.675305 322.14192 
L 188.474917 322.39632 
L 194.274529 322.1928 
L 200.074141 322.4472 
L 205.873753 322.42176 
L 211.673365 321.98928 
L 217.472977 322.11648 
L 223.272589 322.1928 
L 229.072201 322.59984 
L 234.871813 322.24368 
L 240.671425 321.78576 
L 246.471037 321.88752 
L 252.270649 321.91296 
L 258.070261 322.14192 
L 263.869873 322.11648 
L 269.669484 322.32 
L 275.469096 322.5744 
L 281.268708 322.5744 
L 287.06832 322.77792 
L 292.867932 322.5744 
L 298.667544 322.37088 
L 304.467156 322.4472 
L 310.266768 322.62528 
L 316.06638 322.47264 
L 321.865992 322.62528 
L 327.665604 322.59984 
L 333.465216 322.80336 
L 339.264828 322.72704 
L 345.06444 322.62528 
L 350.864052 322.77792 
L 356.663664 323.03232 
L 362.463276 322.98144 
L 368.262888 323.10864 
L 374.0625 322.98144 
L 379.862112 323.13408 
L 385.661724 323.0832 
L 391.461336 323.18496 
L 397.260948 323.05776 
L 403.06056 323.03232 
L 408.860172 322.72704 
L 414.659784 322.80336 
L 420.459396 322.87968 
L 426.259008 322.77792 
L 432.05862 322.85424 
L 437.858232 322.8288 
L 443.657844 322.77792 
L 449.457456 322.62528 
L 455.257068 322.85424 
L 461.05668 322.8288 
L 466.856292 322.7016 
L 472.655904 322.77792 
L 478.455516 322.77792 
L 484.255127 322.8288 
L 490.054739 323.00688 
L 495.854351 322.956 
L 501.653963 322.85424 
L 507.453575 322.49808 
L 513.253187 322.4472 
L 519.052799 322.47264 
L 524.852411 322.59984 
L 530.652023 322.62528 
L 536.451635 322.62528 
L 542.251247 322.47264 
L 548.050859 322.54896 
L 553.850471 322.54896 
L 559.650083 322.59984 
L 565.449695 322.62528 
L 571.249307 322.47264 
L 577.048919 322.8288 
L 582.848531 322.87968 
L 588.648143 322.75248 
L 594.447755 322.80336 
L 600.247367 322.8288 
L 606.046979 322.77792 
L 611.846591 322.956 
L 617.646203 323.03232 
L 623.445815 323.13408 
L 629.245427 323.18496 
L 635.045039 323.36304 
" style="fill:none;stroke:#0000ff;stroke-linecap:square;stroke-width:1.2;"/>
   </g>
   <g id="line2d_2">
    <path clip-path="url(#pe4cc597ba2)" d="M 113.079961 323.4648 
L 118.879573 323.4648 
L 124.679185 323.51568 
L 130.478797 323.56656 
L 136.278409 323.66832 
L 142.078021 323.64288 
L 147.877633 323.66832 
L 153.677245 323.7192 
L 159.476857 323.7192 
L 165.276469 323.77008 
L 171.076081 322.11648 
L 176.875693 322.32 
L 182.675305 322.52352 
L 188.474917 322.80336 
L 194.274529 322.93056 
L 200.074141 323.03232 
L 205.873753 322.85424 
L 211.673365 322.72704 
L 217.472977 322.87968 
L 223.272589 322.98144 
L 229.072201 322.87968 
L 234.871813 322.90512 
L 240.671425 322.90512 
L 246.471037 322.98144 
L 252.270649 322.93056 
L 258.070261 323.10864 
L 263.869873 323.23584 
L 269.669484 323.38848 
L 275.469096 323.36304 
L 281.268708 323.38848 
L 287.06832 323.43936 
L 292.867932 323.51568 
L 298.667544 323.54112 
L 304.467156 323.64288 
L 310.266768 323.66832 
L 316.06638 323.69376 
L 321.865992 323.74464 
L 327.665604 323.77008 
L 333.465216 323.79552 
L 339.264828 323.79552 
L 345.06444 323.82096 
L 350.864052 323.82096 
L 356.663664 323.66832 
L 362.463276 323.8464 
L 368.262888 323.66832 
L 374.0625 323.56656 
L 379.862112 323.89728 
L 385.661724 323.61744 
L 391.461336 323.592 
L 397.260948 323.61744 
L 403.06056 323.61744 
L 408.860172 323.64288 
L 414.659784 323.69376 
L 420.459396 323.7192 
L 426.259008 323.77008 
L 432.05862 323.77008 
L 437.858232 323.82096 
L 443.657844 323.82096 
L 449.457456 323.77008 
L 455.257068 323.82096 
L 461.05668 323.79552 
L 466.856292 323.79552 
L 472.655904 323.82096 
L 478.455516 323.82096 
L 484.255127 323.82096 
L 490.054739 323.8464 
L 495.854351 323.82096 
L 501.653963 323.8464 
L 507.453575 323.8464 
L 513.253187 323.82096 
L 519.052799 323.82096 
L 524.852411 323.82096 
L 530.652023 323.87184 
L 536.451635 323.82096 
L 542.251247 323.82096 
L 548.050859 323.8464 
L 553.850471 323.82096 
L 559.650083 323.87184 
L 565.449695 323.82096 
L 571.249307 323.8464 
L 577.048919 323.8464 
L 582.848531 323.82096 
L 588.648143 323.82096 
L 594.447755 323.82096 
L 600.247367 323.82096 
L 606.046979 323.82096 
L 611.846591 323.82096 
L 617.646203 323.82096 
L 623.445815 323.79552 
L 629.245427 323.8464 
L 635.045039 323.79552 
" style="fill:none;stroke:#008000;stroke-linecap:square;stroke-width:1.2;"/>
   </g>
   <g id="line2d_3">
    <path clip-path="url(#pe4cc597ba2)" d="M 113.079961 320.56464 
L 118.879573 320.2212 
L 124.679185 319.41984 
L 130.478797 319.80144 
L 136.278409 319.458 
L 142.078021 319.458 
L 147.877633 319.00008 
L 153.677245 319.458 
L 159.476857 318.84744 
L 165.276469 318.54216 
L 171.076081 317.66448 
L 176.875693 316.71048 
L 182.675305 317.85528 
L 188.474917 318.504 
L 194.274529 317.66448 
L 200.074141 318.27504 
L 205.873753 317.39736 
L 211.673365 317.39736 
L 217.472977 316.13808 
L 223.272589 316.44336 
L 229.072201 316.55784 
L 234.871813 317.05392 
L 240.671425 317.32104 
L 246.471037 315.87096 
L 252.270649 315.8328 
L 258.070261 313.96296 
L 263.869873 314.45904 
L 269.669484 311.48256 
L 275.469096 308.88768 
L 281.268708 308.27712 
L 287.06832 303.88872 
L 292.867932 302.05704 
L 298.667544 298.39368 
L 304.467156 298.39368 
L 310.266768 294.8448 
L 316.06638 292.70784 
L 321.865992 292.02096 
L 327.665604 283.5876 
L 333.465216 298.20288 
L 339.264828 285.4956 
L 345.06444 278.16888 
L 350.864052 271.71984 
L 356.663664 285.6864 
L 362.463276 280.9164 
L 368.262888 273.74232 
L 374.0625 270.07896 
L 379.862112 261.34032 
L 385.661724 261.49296 
L 391.461336 265.80504 
L 397.260948 253.97544 
L 403.06056 242.03136 
L 408.860172 234.89544 
L 414.659784 244.96968 
L 420.459396 212.11392 
L 426.259008 215.12856 
L 432.05862 172.9236 
L 437.858232 183.37944 
L 443.657844 131.82528 
L 449.457456 160.3308 
L 455.257068 216.96024 
L 461.05668 167.69568 
L 466.856292 166.6272 
L 472.655904 213.14424 
L 478.455516 148.3104 
L 484.255127 217.5708 
L 490.054739 185.40192 
L 495.854351 215.31936 
L 501.653963 174.90792 
L 507.453575 169.64184 
L 513.253187 198.83424 
L 519.052799 124.00248 
L 524.852411 156.7056 
L 530.652023 130.60416 
L 536.451635 156.59112 
L 542.251247 41.61504 
L 548.050859 47.11008 
L 553.850471 136.21368 
L 559.650083 81.45408 
L 565.449695 93.7416 
" style="fill:none;stroke:#ff0000;stroke-linecap:square;stroke-width:1.2;"/>
   </g>
   <g id="line2d_4">
    <path clip-path="url(#pe4cc597ba2)" d="M 113.079961 322.39632 
L 118.879573 321.82392 
L 124.679185 322.1292 
L 130.478797 321.82392 
L 136.278409 321.09888 
L 142.078021 321.25152 
L 147.877633 320.90808 
L 153.677245 321.13704 
L 159.476857 320.90808 
L 165.276469 321.59496 
L 171.076081 322.47264 
L 176.875693 320.412 
L 182.675305 321.1752 
L 188.474917 319.91592 
L 194.274529 321.28968 
L 200.074141 320.83176 
L 205.873753 321.09888 
L 211.673365 319.53432 
L 217.472977 319.38168 
L 223.272589 318.65664 
L 229.072201 319.99224 
L 234.871813 319.6488 
L 240.671425 318.54216 
L 246.471037 316.93944 
L 252.270649 316.71048 
L 258.070261 316.17624 
L 263.869873 316.596 
L 269.669484 312.9708 
L 275.469096 316.55784 
L 281.268708 315.2604 
L 287.06832 311.55888 
L 292.867932 311.10096 
L 298.667544 310.14696 
L 304.467156 312.55104 
L 310.266768 311.13912 
L 316.06638 309.49824 
L 321.865992 309.00216 
L 327.665604 308.27712 
L 333.465216 308.16264 
L 339.264828 307.70472 
L 345.06444 303.73608 
L 350.864052 301.75176 
L 356.663664 298.20288 
L 362.463276 303.24 
L 368.262888 303.65976 
L 374.0625 304.61376 
L 379.862112 302.32416 
L 385.661724 301.94256 
L 391.461336 301.29384 
L 397.260948 298.24104 
L 403.06056 302.01888 
L 408.860172 301.59912 
L 414.659784 295.68432 
L 420.459396 296.7528 
L 426.259008 293.77632 
L 432.05862 291.18144 
L 437.858232 290.0748 
L 443.657844 287.93784 
L 449.457456 290.2656 
L 455.257068 291.10512 
L 461.05668 295.608 
L 466.856292 294.0816 
L 472.655904 292.05912 
L 478.455516 292.89864 
L 484.255127 292.5552 
L 490.054739 295.4172 
L 495.854351 297.1344 
L 501.653963 290.38008 
L 507.453575 284.50344 
L 513.253187 287.17464 
L 519.052799 278.74128 
L 524.852411 274.31472 
L 530.652023 283.09152 
L 536.451635 286.79304 
L 542.251247 278.93208 
L 548.050859 281.6796 
L 553.850471 271.49088 
L 559.650083 273.24624 
L 565.449695 263.51544 
L 571.249307 260.76792 
L 577.048919 258.13488 
L 582.848531 241.95504 
L 588.648143 256.60848 
L 594.447755 261.18768 
" style="fill:none;stroke:#00bfbf;stroke-linecap:square;stroke-width:1.2;"/>
   </g>
   <g id="line2d_5">
    <path clip-path="url(#pe4cc597ba2)" d="M 113.079961 320.2212 
L 118.879573 320.0304 
L 124.679185 318.80928 
L 130.478797 319.0764 
L 136.278409 317.70264 
L 142.078021 318.80928 
L 147.877633 317.39736 
L 153.677245 317.43552 
L 159.476857 317.05392 
L 165.276469 316.55784 
L 171.076081 317.51184 
L 176.875693 316.93944 
L 182.675305 316.93944 
L 188.474917 316.0236 
L 194.274529 316.596 
L 200.074141 316.86312 
L 205.873753 315.29856 
L 211.673365 314.61168 
L 217.472977 314.19192 
L 223.272589 314.15376 
L 229.072201 315.90912 
L 234.871813 315.10776 
L 240.671425 312.93264 
L 246.471037 313.46688 
L 252.270649 312.78 
L 258.070261 313.50504 
L 263.869873 312.66552 
L 269.669484 313.08528 
L 275.469096 311.02464 
L 281.268708 309.95616 
L 287.06832 308.42976 
L 292.867932 304.23216 
L 298.667544 307.20864 
L 304.467156 302.8584 
L 310.266768 304.80456 
L 316.06638 303.46896 
L 321.865992 303.01104 
L 327.665604 296.52384 
L 333.465216 297.55416 
L 339.264828 298.31736 
L 345.06444 296.48568 
L 350.864052 299.65296 
L 356.663664 298.20288 
L 362.463276 288.77736 
L 368.262888 288.01416 
L 374.0625 283.28232 
L 379.862112 287.17464 
L 385.661724 286.41144 
L 391.461336 274.46736 
L 397.260948 262.25616 
L 403.06056 271.60536 
L 408.860172 238.9404 
L 414.659784 240.92472 
L 420.459396 238.9404 
L 426.259008 235.27704 
L 432.05862 217.45632 
L 437.858232 208.6032 
L 443.657844 223.90536 
L 449.457456 213.98376 
L 455.257068 231.23208 
L 461.05668 216.31152 
L 466.856292 198.8724 
L 472.655904 190.24824 
L 478.455516 192.04176 
L 484.255127 163.04016 
L 490.054739 129.84096 
L 495.854351 106.21992 
L 501.653963 135.94656 
L 507.453575 171.0156 
L 513.253187 165.59688 
L 519.052799 194.71296 
L 524.852411 123.01032 
L 530.652023 155.71344 
L 536.451635 111.82944 
L 542.251247 156.24768 
L 548.050859 126.71184 
L 553.850471 138.50328 
L 559.650083 153.69096 
L 565.449695 90.26904 
L 571.249307 81.07248 
L 577.048919 72.79176 
" style="fill:none;stroke:#bf00bf;stroke-linecap:square;stroke-width:1.2;"/>
   </g>
   <g id="line2d_6">
    <path clip-path="url(#pe4cc597ba2)" d="M 113.079961 321.28968 
L 118.879573 319.87776 
L 124.679185 321.51864 
L 130.478797 322.24368 
L 136.278409 319.57248 
L 142.078021 320.56464 
L 147.877633 320.52648 
L 153.677245 321.70944 
L 159.476857 320.71728 
L 165.276469 321.40416 
L 171.076081 321.06072 
L 176.875693 319.22904 
L 182.675305 318.54216 
L 188.474917 317.58816 
L 194.274529 321.09888 
L 200.074141 320.67912 
L 205.873753 319.76328 
L 211.673365 321.02256 
L 217.472977 321.21336 
L 223.272589 321.70944 
L 229.072201 322.39632 
L 234.871813 319.49616 
L 240.671425 319.72512 
L 246.471037 321.78576 
L 252.270649 321.63312 
L 258.070261 320.29752 
L 263.869873 319.72512 
L 269.669484 319.6488 
L 275.469096 320.0304 
L 281.268708 321.28968 
L 287.06832 320.64096 
L 292.867932 320.52648 
L 298.667544 319.19088 
L 304.467156 320.06856 
L 310.266768 320.25936 
L 316.06638 319.87776 
L 321.865992 320.56464 
L 327.665604 320.56464 
L 333.465216 320.33568 
L 339.264828 321.1752 
L 345.06444 319.53432 
L 350.864052 319.19088 
L 356.663664 318.35136 
L 362.463276 317.20656 
L 368.262888 315.56568 
L 374.0625 315.60384 
L 379.862112 314.15376 
L 385.661724 313.04712 
L 391.461336 312.36024 
L 397.260948 314.23008 
L 403.06056 311.97864 
L 408.860172 315.18408 
L 414.659784 310.1088 
L 420.459396 306.90336 
L 426.259008 310.33776 
L 432.05862 306.44544 
L 437.858232 306.90336 
L 443.657844 307.20864 
L 449.457456 306.90336 
L 455.257068 305.30064 
L 461.05668 302.59128 
L 466.856292 304.04136 
L 472.655904 301.98072 
L 478.455516 304.42296 
L 484.255127 297.97392 
L 490.054739 295.76064 
L 495.854351 300.22536 
L 501.653963 298.47 
L 507.453575 289.3116 
L 513.253187 295.64616 
L 519.052799 289.04448 
L 524.852411 298.39368 
L 530.652023 296.40936 
L 536.451635 291.6012 
L 542.251247 285.57192 
L 548.050859 277.36752 
L 553.850471 278.16888 
L 559.650083 279.61896 
L 565.449695 270.804 
L 571.249307 263.28648 
L 577.048919 264.04968 
L 582.848531 263.32464 
L 588.648143 274.54368 
L 594.447755 255.31104 
" style="fill:none;stroke:#bfbf00;stroke-linecap:square;stroke-width:1.2;"/>
   </g>
   <g id="patch_3">
    <path d="M 112.5 324 
L 112.5 36 
" style="fill:none;stroke:#000000;stroke-linecap:square;stroke-linejoin:miter;"/>
   </g>
   <g id="patch_4">
    <path d="M 635.625 324 
L 635.625 36 
" style="fill:none;stroke:#000000;stroke-linecap:square;stroke-linejoin:miter;"/>
   </g>
   <g id="patch_5">
    <path d="M 112.5 324 
L 635.625 324 
" style="fill:none;stroke:#000000;stroke-linecap:square;stroke-linejoin:miter;"/>
   </g>
   <g id="patch_6">
    <path d="M 112.5 36 
L 635.625 36 
" style="fill:none;stroke:#000000;stroke-linecap:square;stroke-linejoin:miter;"/>
   </g>
   <g id="matplotlib.axis_1">
    <g id="xtick_1">
     <g id="line2d_7">
      <defs>
       <path d="M 0 0 
L 0 -4 
" id="m0db5f0cf2c" style="stroke:#000000;stroke-width:0.5;"/>
      </defs>
      <g>
       <use style="stroke:#000000;stroke-width:0.5;" x="113.079961" xlink:href="#m0db5f0cf2c" y="324"/>
      </g>
     </g>
     <g id="line2d_8">
      <defs>
       <path d="M 0 0 
L 0 4 
" id="m10657a6a75" style="stroke:#000000;stroke-width:0.5;"/>
      </defs>
      <g>
       <use style="stroke:#000000;stroke-width:0.5;" x="113.079961" xlink:href="#m10657a6a75" y="36"/>
      </g>
     </g>
     <g id="text_1">
      <!-- 0 -->
      <defs>
       <path d="M 31.78125 66.40625 
Q 24.171875 66.40625 20.328125 58.90625 
Q 16.5 51.421875 16.5 36.375 
Q 16.5 21.390625 20.328125 13.890625 
Q 24.171875 6.390625 31.78125 6.390625 
Q 39.453125 6.390625 43.28125 13.890625 
Q 47.125 21.390625 47.125 36.375 
Q 47.125 51.421875 43.28125 58.90625 
Q 39.453125 66.40625 31.78125 66.40625 
z
M 31.78125 74.21875 
Q 44.046875 74.21875 50.515625 64.515625 
Q 56.984375 54.828125 56.984375 36.375 
Q 56.984375 17.96875 50.515625 8.265625 
Q 44.046875 -1.421875 31.78125 -1.421875 
Q 19.53125 -1.421875 13.0625 8.265625 
Q 6.59375 17.96875 6.59375 36.375 
Q 6.59375 54.828125 13.0625 64.515625 
Q 19.53125 74.21875 31.78125 74.21875 
z
" id="DejaVuSans-48"/>
      </defs>
      <g transform="translate(109.262461 337.118125)scale(0.12 -0.12)">
       <use xlink:href="#DejaVuSans-48"/>
      </g>
     </g>
    </g>
    <g id="xtick_2">
     <g id="line2d_9">
      <g>
       <use style="stroke:#000000;stroke-width:0.5;" x="171.076081" xlink:href="#m0db5f0cf2c" y="324"/>
      </g>
     </g>
     <g id="line2d_10">
      <g>
       <use style="stroke:#000000;stroke-width:0.5;" x="171.076081" xlink:href="#m10657a6a75" y="36"/>
      </g>
     </g>
     <g id="text_2">
      <!-- 10 -->
      <defs>
       <path d="M 12.40625 8.296875 
L 28.515625 8.296875 
L 28.515625 63.921875 
L 10.984375 60.40625 
L 10.984375 69.390625 
L 28.421875 72.90625 
L 38.28125 72.90625 
L 38.28125 8.296875 
L 54.390625 8.296875 
L 54.390625 0 
L 12.40625 0 
z
" id="DejaVuSans-49"/>
      </defs>
      <g transform="translate(163.441081 337.118125)scale(0.12 -0.12)">
       <use xlink:href="#DejaVuSans-49"/>
       <use x="63.623047" xlink:href="#DejaVuSans-48"/>
      </g>
     </g>
    </g>
    <g id="xtick_3">
     <g id="line2d_11">
      <g>
       <use style="stroke:#000000;stroke-width:0.5;" x="229.072201" xlink:href="#m0db5f0cf2c" y="324"/>
      </g>
     </g>
     <g id="line2d_12">
      <g>
       <use style="stroke:#000000;stroke-width:0.5;" x="229.072201" xlink:href="#m10657a6a75" y="36"/>
      </g>
     </g>
     <g id="text_3">
      <!-- 20 -->
      <defs>
       <path d="M 19.1875 8.296875 
L 53.609375 8.296875 
L 53.609375 0 
L 7.328125 0 
L 7.328125 8.296875 
Q 12.9375 14.109375 22.625 23.890625 
Q 32.328125 33.6875 34.8125 36.53125 
Q 39.546875 41.84375 41.421875 45.53125 
Q 43.3125 49.21875 43.3125 52.78125 
Q 43.3125 58.59375 39.234375 62.25 
Q 35.15625 65.921875 28.609375 65.921875 
Q 23.96875 65.921875 18.8125 64.3125 
Q 13.671875 62.703125 7.8125 59.421875 
L 7.8125 69.390625 
Q 13.765625 71.78125 18.9375 73 
Q 24.125 74.21875 28.421875 74.21875 
Q 39.75 74.21875 46.484375 68.546875 
Q 53.21875 62.890625 53.21875 53.421875 
Q 53.21875 48.921875 51.53125 44.890625 
Q 49.859375 40.875 45.40625 35.40625 
Q 44.1875 33.984375 37.640625 27.21875 
Q 31.109375 20.453125 19.1875 8.296875 
z
" id="DejaVuSans-50"/>
      </defs>
      <g transform="translate(221.437201 337.118125)scale(0.12 -0.12)">
       <use xlink:href="#DejaVuSans-50"/>
       <use x="63.623047" xlink:href="#DejaVuSans-48"/>
      </g>
     </g>
    </g>
    <g id="xtick_4">
     <g id="line2d_13">
      <g>
       <use style="stroke:#000000;stroke-width:0.5;" x="287.06832" xlink:href="#m0db5f0cf2c" y="324"/>
      </g>
     </g>
     <g id="line2d_14">
      <g>
       <use style="stroke:#000000;stroke-width:0.5;" x="287.06832" xlink:href="#m10657a6a75" y="36"/>
      </g>
     </g>
     <g id="text_4">
      <!-- 30 -->
      <defs>
       <path d="M 40.578125 39.3125 
Q 47.65625 37.796875 51.625 33 
Q 55.609375 28.21875 55.609375 21.1875 
Q 55.609375 10.40625 48.1875 4.484375 
Q 40.765625 -1.421875 27.09375 -1.421875 
Q 22.515625 -1.421875 17.65625 -0.515625 
Q 12.796875 0.390625 7.625 2.203125 
L 7.625 11.71875 
Q 11.71875 9.328125 16.59375 8.109375 
Q 21.484375 6.890625 26.8125 6.890625 
Q 36.078125 6.890625 40.9375 10.546875 
Q 45.796875 14.203125 45.796875 21.1875 
Q 45.796875 27.640625 41.28125 31.265625 
Q 36.765625 34.90625 28.71875 34.90625 
L 20.21875 34.90625 
L 20.21875 43.015625 
L 29.109375 43.015625 
Q 36.375 43.015625 40.234375 45.921875 
Q 44.09375 48.828125 44.09375 54.296875 
Q 44.09375 59.90625 40.109375 62.90625 
Q 36.140625 65.921875 28.71875 65.921875 
Q 24.65625 65.921875 20.015625 65.03125 
Q 15.375 64.15625 9.8125 62.3125 
L 9.8125 71.09375 
Q 15.4375 72.65625 20.34375 73.4375 
Q 25.25 74.21875 29.59375 74.21875 
Q 40.828125 74.21875 47.359375 69.109375 
Q 53.90625 64.015625 53.90625 55.328125 
Q 53.90625 49.265625 50.4375 45.09375 
Q 46.96875 40.921875 40.578125 39.3125 
z
" id="DejaVuSans-51"/>
      </defs>
      <g transform="translate(279.43332 337.118125)scale(0.12 -0.12)">
       <use xlink:href="#DejaVuSans-51"/>
       <use x="63.623047" xlink:href="#DejaVuSans-48"/>
      </g>
     </g>
    </g>
    <g id="xtick_5">
     <g id="line2d_15">
      <g>
       <use style="stroke:#000000;stroke-width:0.5;" x="345.06444" xlink:href="#m0db5f0cf2c" y="324"/>
      </g>
     </g>
     <g id="line2d_16">
      <g>
       <use style="stroke:#000000;stroke-width:0.5;" x="345.06444" xlink:href="#m10657a6a75" y="36"/>
      </g>
     </g>
     <g id="text_5">
      <!-- 40 -->
      <defs>
       <path d="M 37.796875 64.3125 
L 12.890625 25.390625 
L 37.796875 25.390625 
z
M 35.203125 72.90625 
L 47.609375 72.90625 
L 47.609375 25.390625 
L 58.015625 25.390625 
L 58.015625 17.1875 
L 47.609375 17.1875 
L 47.609375 0 
L 37.796875 0 
L 37.796875 17.1875 
L 4.890625 17.1875 
L 4.890625 26.703125 
z
" id="DejaVuSans-52"/>
      </defs>
      <g transform="translate(337.42944 337.118125)scale(0.12 -0.12)">
       <use xlink:href="#DejaVuSans-52"/>
       <use x="63.623047" xlink:href="#DejaVuSans-48"/>
      </g>
     </g>
    </g>
    <g id="xtick_6">
     <g id="line2d_17">
      <g>
       <use style="stroke:#000000;stroke-width:0.5;" x="403.06056" xlink:href="#m0db5f0cf2c" y="324"/>
      </g>
     </g>
     <g id="line2d_18">
      <g>
       <use style="stroke:#000000;stroke-width:0.5;" x="403.06056" xlink:href="#m10657a6a75" y="36"/>
      </g>
     </g>
     <g id="text_6">
      <!-- 50 -->
      <defs>
       <path d="M 10.796875 72.90625 
L 49.515625 72.90625 
L 49.515625 64.59375 
L 19.828125 64.59375 
L 19.828125 46.734375 
Q 21.96875 47.46875 24.109375 47.828125 
Q 26.265625 48.1875 28.421875 48.1875 
Q 40.625 48.1875 47.75 41.5 
Q 54.890625 34.8125 54.890625 23.390625 
Q 54.890625 11.625 47.5625 5.09375 
Q 40.234375 -1.421875 26.90625 -1.421875 
Q 22.3125 -1.421875 17.546875 -0.640625 
Q 12.796875 0.140625 7.71875 1.703125 
L 7.71875 11.625 
Q 12.109375 9.234375 16.796875 8.0625 
Q 21.484375 6.890625 26.703125 6.890625 
Q 35.15625 6.890625 40.078125 11.328125 
Q 45.015625 15.765625 45.015625 23.390625 
Q 45.015625 31 40.078125 35.4375 
Q 35.15625 39.890625 26.703125 39.890625 
Q 22.75 39.890625 18.8125 39.015625 
Q 14.890625 38.140625 10.796875 36.28125 
z
" id="DejaVuSans-53"/>
      </defs>
      <g transform="translate(395.42556 337.118125)scale(0.12 -0.12)">
       <use xlink:href="#DejaVuSans-53"/>
       <use x="63.623047" xlink:href="#DejaVuSans-48"/>
      </g>
     </g>
    </g>
    <g id="xtick_7">
     <g id="line2d_19">
      <g>
       <use style="stroke:#000000;stroke-width:0.5;" x="461.05668" xlink:href="#m0db5f0cf2c" y="324"/>
      </g>
     </g>
     <g id="line2d_20">
      <g>
       <use style="stroke:#000000;stroke-width:0.5;" x="461.05668" xlink:href="#m10657a6a75" y="36"/>
      </g>
     </g>
     <g id="text_7">
      <!-- 60 -->
      <defs>
       <path d="M 33.015625 40.375 
Q 26.375 40.375 22.484375 35.828125 
Q 18.609375 31.296875 18.609375 23.390625 
Q 18.609375 15.53125 22.484375 10.953125 
Q 26.375 6.390625 33.015625 6.390625 
Q 39.65625 6.390625 43.53125 10.953125 
Q 47.40625 15.53125 47.40625 23.390625 
Q 47.40625 31.296875 43.53125 35.828125 
Q 39.65625 40.375 33.015625 40.375 
z
M 52.59375 71.296875 
L 52.59375 62.3125 
Q 48.875 64.0625 45.09375 64.984375 
Q 41.3125 65.921875 37.59375 65.921875 
Q 27.828125 65.921875 22.671875 59.328125 
Q 17.53125 52.734375 16.796875 39.40625 
Q 19.671875 43.65625 24.015625 45.921875 
Q 28.375 48.1875 33.59375 48.1875 
Q 44.578125 48.1875 50.953125 41.515625 
Q 57.328125 34.859375 57.328125 23.390625 
Q 57.328125 12.15625 50.6875 5.359375 
Q 44.046875 -1.421875 33.015625 -1.421875 
Q 20.359375 -1.421875 13.671875 8.265625 
Q 6.984375 17.96875 6.984375 36.375 
Q 6.984375 53.65625 15.1875 63.9375 
Q 23.390625 74.21875 37.203125 74.21875 
Q 40.921875 74.21875 44.703125 73.484375 
Q 48.484375 72.75 52.59375 71.296875 
z
" id="DejaVuSans-54"/>
      </defs>
      <g transform="translate(453.42168 337.118125)scale(0.12 -0.12)">
       <use xlink:href="#DejaVuSans-54"/>
       <use x="63.623047" xlink:href="#DejaVuSans-48"/>
      </g>
     </g>
    </g>
    <g id="xtick_8">
     <g id="line2d_21">
      <g>
       <use style="stroke:#000000;stroke-width:0.5;" x="519.052799" xlink:href="#m0db5f0cf2c" y="324"/>
      </g>
     </g>
     <g id="line2d_22">
      <g>
       <use style="stroke:#000000;stroke-width:0.5;" x="519.052799" xlink:href="#m10657a6a75" y="36"/>
      </g>
     </g>
     <g id="text_8">
      <!-- 70 -->
      <defs>
       <path d="M 8.203125 72.90625 
L 55.078125 72.90625 
L 55.078125 68.703125 
L 28.609375 0 
L 18.3125 0 
L 43.21875 64.59375 
L 8.203125 64.59375 
z
" id="DejaVuSans-55"/>
      </defs>
      <g transform="translate(511.417799 337.118125)scale(0.12 -0.12)">
       <use xlink:href="#DejaVuSans-55"/>
       <use x="63.623047" xlink:href="#DejaVuSans-48"/>
      </g>
     </g>
    </g>
    <g id="xtick_9">
     <g id="line2d_23">
      <g>
       <use style="stroke:#000000;stroke-width:0.5;" x="577.048919" xlink:href="#m0db5f0cf2c" y="324"/>
      </g>
     </g>
     <g id="line2d_24">
      <g>
       <use style="stroke:#000000;stroke-width:0.5;" x="577.048919" xlink:href="#m10657a6a75" y="36"/>
      </g>
     </g>
     <g id="text_9">
      <!-- 80 -->
      <defs>
       <path d="M 31.78125 34.625 
Q 24.75 34.625 20.71875 30.859375 
Q 16.703125 27.09375 16.703125 20.515625 
Q 16.703125 13.921875 20.71875 10.15625 
Q 24.75 6.390625 31.78125 6.390625 
Q 38.8125 6.390625 42.859375 10.171875 
Q 46.921875 13.96875 46.921875 20.515625 
Q 46.921875 27.09375 42.890625 30.859375 
Q 38.875 34.625 31.78125 34.625 
z
M 21.921875 38.8125 
Q 15.578125 40.375 12.03125 44.71875 
Q 8.5 49.078125 8.5 55.328125 
Q 8.5 64.0625 14.71875 69.140625 
Q 20.953125 74.21875 31.78125 74.21875 
Q 42.671875 74.21875 48.875 69.140625 
Q 55.078125 64.0625 55.078125 55.328125 
Q 55.078125 49.078125 51.53125 44.71875 
Q 48 40.375 41.703125 38.8125 
Q 48.828125 37.15625 52.796875 32.3125 
Q 56.78125 27.484375 56.78125 20.515625 
Q 56.78125 9.90625 50.3125 4.234375 
Q 43.84375 -1.421875 31.78125 -1.421875 
Q 19.734375 -1.421875 13.25 4.234375 
Q 6.78125 9.90625 6.78125 20.515625 
Q 6.78125 27.484375 10.78125 32.3125 
Q 14.796875 37.15625 21.921875 38.8125 
z
M 18.3125 54.390625 
Q 18.3125 48.734375 21.84375 45.5625 
Q 25.390625 42.390625 31.78125 42.390625 
Q 38.140625 42.390625 41.71875 45.5625 
Q 45.3125 48.734375 45.3125 54.390625 
Q 45.3125 60.0625 41.71875 63.234375 
Q 38.140625 66.40625 31.78125 66.40625 
Q 25.390625 66.40625 21.84375 63.234375 
Q 18.3125 60.0625 18.3125 54.390625 
z
" id="DejaVuSans-56"/>
      </defs>
      <g transform="translate(569.413919 337.118125)scale(0.12 -0.12)">
       <use xlink:href="#DejaVuSans-56"/>
       <use x="63.623047" xlink:href="#DejaVuSans-48"/>
      </g>
     </g>
    </g>
    <g id="xtick_10">
     <g id="line2d_25">
      <g>
       <use style="stroke:#000000;stroke-width:0.5;" x="635.045039" xlink:href="#m0db5f0cf2c" y="324"/>
      </g>
     </g>
     <g id="line2d_26">
      <g>
       <use style="stroke:#000000;stroke-width:0.5;" x="635.045039" xlink:href="#m10657a6a75" y="36"/>
      </g>
     </g>
     <g id="text_10">
      <!-- 90 -->
      <defs>
       <path d="M 10.984375 1.515625 
L 10.984375 10.5 
Q 14.703125 8.734375 18.5 7.8125 
Q 22.3125 6.890625 25.984375 6.890625 
Q 35.75 6.890625 40.890625 13.453125 
Q 46.046875 20.015625 46.78125 33.40625 
Q 43.953125 29.203125 39.59375 26.953125 
Q 35.25 24.703125 29.984375 24.703125 
Q 19.046875 24.703125 12.671875 31.3125 
Q 6.296875 37.9375 6.296875 49.421875 
Q 6.296875 60.640625 12.9375 67.421875 
Q 19.578125 74.21875 30.609375 74.21875 
Q 43.265625 74.21875 49.921875 64.515625 
Q 56.59375 54.828125 56.59375 36.375 
Q 56.59375 19.140625 48.40625 8.859375 
Q 40.234375 -1.421875 26.421875 -1.421875 
Q 22.703125 -1.421875 18.890625 -0.6875 
Q 15.09375 0.046875 10.984375 1.515625 
z
M 30.609375 32.421875 
Q 37.25 32.421875 41.125 36.953125 
Q 45.015625 41.5 45.015625 49.421875 
Q 45.015625 57.28125 41.125 61.84375 
Q 37.25 66.40625 30.609375 66.40625 
Q 23.96875 66.40625 20.09375 61.84375 
Q 16.21875 57.28125 16.21875 49.421875 
Q 16.21875 41.5 20.09375 36.953125 
Q 23.96875 32.421875 30.609375 32.421875 
z
" id="DejaVuSans-57"/>
      </defs>
      <g transform="translate(627.410039 337.118125)scale(0.12 -0.12)">
       <use xlink:href="#DejaVuSans-57"/>
       <use x="63.623047" xlink:href="#DejaVuSans-48"/>
      </g>
     </g>
    </g>
    <g id="text_11">
     <!-- generation -->
     <defs>
      <path d="M 45.40625 27.984375 
Q 45.40625 37.75 41.375 43.109375 
Q 37.359375 48.484375 30.078125 48.484375 
Q 22.859375 48.484375 18.828125 43.109375 
Q 14.796875 37.75 14.796875 27.984375 
Q 14.796875 18.265625 18.828125 12.890625 
Q 22.859375 7.515625 30.078125 7.515625 
Q 37.359375 7.515625 41.375 12.890625 
Q 45.40625 18.265625 45.40625 27.984375 
z
M 54.390625 6.78125 
Q 54.390625 -7.171875 48.1875 -13.984375 
Q 42 -20.796875 29.203125 -20.796875 
Q 24.46875 -20.796875 20.265625 -20.09375 
Q 16.0625 -19.390625 12.109375 -17.921875 
L 12.109375 -9.1875 
Q 16.0625 -11.328125 19.921875 -12.34375 
Q 23.78125 -13.375 27.78125 -13.375 
Q 36.625 -13.375 41.015625 -8.765625 
Q 45.40625 -4.15625 45.40625 5.171875 
L 45.40625 9.625 
Q 42.625 4.78125 38.28125 2.390625 
Q 33.9375 0 27.875 0 
Q 17.828125 0 11.671875 7.65625 
Q 5.515625 15.328125 5.515625 27.984375 
Q 5.515625 40.671875 11.671875 48.328125 
Q 17.828125 56 27.875 56 
Q 33.9375 56 38.28125 53.609375 
Q 42.625 51.21875 45.40625 46.390625 
L 45.40625 54.6875 
L 54.390625 54.6875 
z
" id="DejaVuSans-103"/>
      <path d="M 56.203125 29.59375 
L 56.203125 25.203125 
L 14.890625 25.203125 
Q 15.484375 15.921875 20.484375 11.0625 
Q 25.484375 6.203125 34.421875 6.203125 
Q 39.59375 6.203125 44.453125 7.46875 
Q 49.3125 8.734375 54.109375 11.28125 
L 54.109375 2.78125 
Q 49.265625 0.734375 44.1875 -0.34375 
Q 39.109375 -1.421875 33.890625 -1.421875 
Q 20.796875 -1.421875 13.15625 6.1875 
Q 5.515625 13.8125 5.515625 26.8125 
Q 5.515625 40.234375 12.765625 48.109375 
Q 20.015625 56 32.328125 56 
Q 43.359375 56 49.78125 48.890625 
Q 56.203125 41.796875 56.203125 29.59375 
z
M 47.21875 32.234375 
Q 47.125 39.59375 43.09375 43.984375 
Q 39.0625 48.390625 32.421875 48.390625 
Q 24.90625 48.390625 20.390625 44.140625 
Q 15.875 39.890625 15.1875 32.171875 
z
" id="DejaVuSans-101"/>
      <path d="M 54.890625 33.015625 
L 54.890625 0 
L 45.90625 0 
L 45.90625 32.71875 
Q 45.90625 40.484375 42.875 44.328125 
Q 39.84375 48.1875 33.796875 48.1875 
Q 26.515625 48.1875 22.3125 43.546875 
Q 18.109375 38.921875 18.109375 30.90625 
L 18.109375 0 
L 9.078125 0 
L 9.078125 54.6875 
L 18.109375 54.6875 
L 18.109375 46.1875 
Q 21.34375 51.125 25.703125 53.5625 
Q 30.078125 56 35.796875 56 
Q 45.21875 56 50.046875 50.171875 
Q 54.890625 44.34375 54.890625 33.015625 
z
" id="DejaVuSans-110"/>
      <path d="M 41.109375 46.296875 
Q 39.59375 47.171875 37.8125 47.578125 
Q 36.03125 48 33.890625 48 
Q 26.265625 48 22.1875 43.046875 
Q 18.109375 38.09375 18.109375 28.8125 
L 18.109375 0 
L 9.078125 0 
L 9.078125 54.6875 
L 18.109375 54.6875 
L 18.109375 46.1875 
Q 20.953125 51.171875 25.484375 53.578125 
Q 30.03125 56 36.53125 56 
Q 37.453125 56 38.578125 55.875 
Q 39.703125 55.765625 41.0625 55.515625 
z
" id="DejaVuSans-114"/>
      <path d="M 34.28125 27.484375 
Q 23.390625 27.484375 19.1875 25 
Q 14.984375 22.515625 14.984375 16.5 
Q 14.984375 11.71875 18.140625 8.90625 
Q 21.296875 6.109375 26.703125 6.109375 
Q 34.1875 6.109375 38.703125 11.40625 
Q 43.21875 16.703125 43.21875 25.484375 
L 43.21875 27.484375 
z
M 52.203125 31.203125 
L 52.203125 0 
L 43.21875 0 
L 43.21875 8.296875 
Q 40.140625 3.328125 35.546875 0.953125 
Q 30.953125 -1.421875 24.3125 -1.421875 
Q 15.921875 -1.421875 10.953125 3.296875 
Q 6 8.015625 6 15.921875 
Q 6 25.140625 12.171875 29.828125 
Q 18.359375 34.515625 30.609375 34.515625 
L 43.21875 34.515625 
L 43.21875 35.40625 
Q 43.21875 41.609375 39.140625 45 
Q 35.0625 48.390625 27.6875 48.390625 
Q 23 48.390625 18.546875 47.265625 
Q 14.109375 46.140625 10.015625 43.890625 
L 10.015625 52.203125 
Q 14.9375 54.109375 19.578125 55.046875 
Q 24.21875 56 28.609375 56 
Q 40.484375 56 46.34375 49.84375 
Q 52.203125 43.703125 52.203125 31.203125 
z
" id="DejaVuSans-97"/>
      <path d="M 18.3125 70.21875 
L 18.3125 54.6875 
L 36.8125 54.6875 
L 36.8125 47.703125 
L 18.3125 47.703125 
L 18.3125 18.015625 
Q 18.3125 11.328125 20.140625 9.421875 
Q 21.96875 7.515625 27.59375 7.515625 
L 36.8125 7.515625 
L 36.8125 0 
L 27.59375 0 
Q 17.1875 0 13.234375 3.875 
Q 9.28125 7.765625 9.28125 18.015625 
L 9.28125 47.703125 
L 2.6875 47.703125 
L 2.6875 54.6875 
L 9.28125 54.6875 
L 9.28125 70.21875 
z
" id="DejaVuSans-116"/>
      <path d="M 9.421875 54.6875 
L 18.40625 54.6875 
L 18.40625 0 
L 9.421875 0 
z
M 9.421875 75.984375 
L 18.40625 75.984375 
L 18.40625 64.59375 
L 9.421875 64.59375 
z
" id="DejaVuSans-105"/>
      <path d="M 30.609375 48.390625 
Q 23.390625 48.390625 19.1875 42.75 
Q 14.984375 37.109375 14.984375 27.296875 
Q 14.984375 17.484375 19.15625 11.84375 
Q 23.34375 6.203125 30.609375 6.203125 
Q 37.796875 6.203125 41.984375 11.859375 
Q 46.1875 17.53125 46.1875 27.296875 
Q 46.1875 37.015625 41.984375 42.703125 
Q 37.796875 48.390625 30.609375 48.390625 
z
M 30.609375 56 
Q 42.328125 56 49.015625 48.375 
Q 55.71875 40.765625 55.71875 27.296875 
Q 55.71875 13.875 49.015625 6.21875 
Q 42.328125 -1.421875 30.609375 -1.421875 
Q 18.84375 -1.421875 12.171875 6.21875 
Q 5.515625 13.875 5.515625 27.296875 
Q 5.515625 40.765625 12.171875 48.375 
Q 18.84375 56 30.609375 56 
z
" id="DejaVuSans-111"/>
     </defs>
     <g transform="translate(341.430938 353.731875)scale(0.12 -0.12)">
      <use xlink:href="#DejaVuSans-103"/>
      <use x="63.476562" xlink:href="#DejaVuSans-101"/>
      <use x="125" xlink:href="#DejaVuSans-110"/>
      <use x="188.378906" xlink:href="#DejaVuSans-101"/>
      <use x="249.902344" xlink:href="#DejaVuSans-114"/>
      <use x="291.015625" xlink:href="#DejaVuSans-97"/>
      <use x="352.294922" xlink:href="#DejaVuSans-116"/>
      <use x="391.503906" xlink:href="#DejaVuSans-105"/>
      <use x="419.287109" xlink:href="#DejaVuSans-111"/>
      <use x="480.46875" xlink:href="#DejaVuSans-110"/>
     </g>
    </g>
   </g>
   <g id="matplotlib.axis_2">
    <g id="ytick_1">
     <g id="line2d_27">
      <defs>
       <path d="M 0 0 
L 4 0 
" id="mfc1a22d341" style="stroke:#000000;stroke-width:0.5;"/>
      </defs>
      <g>
       <use style="stroke:#000000;stroke-width:0.5;" x="112.5" xlink:href="#mfc1a22d341" y="324"/>
      </g>
     </g>
     <g id="line2d_28">
      <defs>
       <path d="M 0 0 
L -4 0 
" id="m8cf51f72be" style="stroke:#000000;stroke-width:0.5;"/>
      </defs>
      <g>
       <use style="stroke:#000000;stroke-width:0.5;" x="635.625" xlink:href="#m8cf51f72be" y="324"/>
      </g>
     </g>
     <g id="text_12">
      <!-- 0 -->
      <g transform="translate(100.865 327.31125)scale(0.12 -0.12)">
       <use xlink:href="#DejaVuSans-48"/>
      </g>
     </g>
    </g>
    <g id="ytick_2">
     <g id="line2d_29">
      <g>
       <use style="stroke:#000000;stroke-width:0.5;" x="112.5" xlink:href="#mfc1a22d341" y="276"/>
      </g>
     </g>
     <g id="line2d_30">
      <g>
       <use style="stroke:#000000;stroke-width:0.5;" x="635.625" xlink:href="#m8cf51f72be" y="276"/>
      </g>
     </g>
     <g id="text_13">
      <!-- 500,000 -->
      <defs>
       <path d="M 11.71875 12.40625 
L 22.015625 12.40625 
L 22.015625 4 
L 14.015625 -11.625 
L 7.71875 -11.625 
L 11.71875 4 
z
" id="DejaVuSans-44"/>
      </defs>
      <g transform="translate(58.87625 279.31125)scale(0.12 -0.12)">
       <use xlink:href="#DejaVuSans-53"/>
       <use x="63.623047" xlink:href="#DejaVuSans-48"/>
       <use x="127.246094" xlink:href="#DejaVuSans-48"/>
       <use x="190.869141" xlink:href="#DejaVuSans-44"/>
       <use x="222.65625" xlink:href="#DejaVuSans-48"/>
       <use x="286.279297" xlink:href="#DejaVuSans-48"/>
       <use x="349.902344" xlink:href="#DejaVuSans-48"/>
      </g>
     </g>
    </g>
    <g id="ytick_3">
     <g id="line2d_31">
      <g>
       <use style="stroke:#000000;stroke-width:0.5;" x="112.5" xlink:href="#mfc1a22d341" y="228"/>
      </g>
     </g>
     <g id="line2d_32">
      <g>
       <use style="stroke:#000000;stroke-width:0.5;" x="635.625" xlink:href="#m8cf51f72be" y="228"/>
      </g>
     </g>
     <g id="text_14">
      <!-- 1,000,000 -->
      <g transform="translate(47.4275 231.31125)scale(0.12 -0.12)">
       <use xlink:href="#DejaVuSans-49"/>
       <use x="63.623047" xlink:href="#DejaVuSans-44"/>
       <use x="95.410156" xlink:href="#DejaVuSans-48"/>
       <use x="159.033203" xlink:href="#DejaVuSans-48"/>
       <use x="222.65625" xlink:href="#DejaVuSans-48"/>
       <use x="286.279297" xlink:href="#DejaVuSans-44"/>
       <use x="318.066406" xlink:href="#DejaVuSans-48"/>
       <use x="381.689453" xlink:href="#DejaVuSans-48"/>
       <use x="445.3125" xlink:href="#DejaVuSans-48"/>
      </g>
     </g>
    </g>
    <g id="ytick_4">
     <g id="line2d_33">
      <g>
       <use style="stroke:#000000;stroke-width:0.5;" x="112.5" xlink:href="#mfc1a22d341" y="180"/>
      </g>
     </g>
     <g id="line2d_34">
      <g>
       <use style="stroke:#000000;stroke-width:0.5;" x="635.625" xlink:href="#m8cf51f72be" y="180"/>
      </g>
     </g>
     <g id="text_15">
      <!-- 1,500,000 -->
      <g transform="translate(47.4275 183.31125)scale(0.12 -0.12)">
       <use xlink:href="#DejaVuSans-49"/>
       <use x="63.623047" xlink:href="#DejaVuSans-44"/>
       <use x="95.410156" xlink:href="#DejaVuSans-53"/>
       <use x="159.033203" xlink:href="#DejaVuSans-48"/>
       <use x="222.65625" xlink:href="#DejaVuSans-48"/>
       <use x="286.279297" xlink:href="#DejaVuSans-44"/>
       <use x="318.066406" xlink:href="#DejaVuSans-48"/>
       <use x="381.689453" xlink:href="#DejaVuSans-48"/>
       <use x="445.3125" xlink:href="#DejaVuSans-48"/>
      </g>
     </g>
    </g>
    <g id="ytick_5">
     <g id="line2d_35">
      <g>
       <use style="stroke:#000000;stroke-width:0.5;" x="112.5" xlink:href="#mfc1a22d341" y="132"/>
      </g>
     </g>
     <g id="line2d_36">
      <g>
       <use style="stroke:#000000;stroke-width:0.5;" x="635.625" xlink:href="#m8cf51f72be" y="132"/>
      </g>
     </g>
     <g id="text_16">
      <!-- 2,000,000 -->
      <g transform="translate(47.4275 135.31125)scale(0.12 -0.12)">
       <use xlink:href="#DejaVuSans-50"/>
       <use x="63.623047" xlink:href="#DejaVuSans-44"/>
       <use x="95.410156" xlink:href="#DejaVuSans-48"/>
       <use x="159.033203" xlink:href="#DejaVuSans-48"/>
       <use x="222.65625" xlink:href="#DejaVuSans-48"/>
       <use x="286.279297" xlink:href="#DejaVuSans-44"/>
       <use x="318.066406" xlink:href="#DejaVuSans-48"/>
       <use x="381.689453" xlink:href="#DejaVuSans-48"/>
       <use x="445.3125" xlink:href="#DejaVuSans-48"/>
      </g>
     </g>
    </g>
    <g id="ytick_6">
     <g id="line2d_37">
      <g>
       <use style="stroke:#000000;stroke-width:0.5;" x="112.5" xlink:href="#mfc1a22d341" y="84"/>
      </g>
     </g>
     <g id="line2d_38">
      <g>
       <use style="stroke:#000000;stroke-width:0.5;" x="635.625" xlink:href="#m8cf51f72be" y="84"/>
      </g>
     </g>
     <g id="text_17">
      <!-- 2,500,000 -->
      <g transform="translate(47.4275 87.31125)scale(0.12 -0.12)">
       <use xlink:href="#DejaVuSans-50"/>
       <use x="63.623047" xlink:href="#DejaVuSans-44"/>
       <use x="95.410156" xlink:href="#DejaVuSans-53"/>
       <use x="159.033203" xlink:href="#DejaVuSans-48"/>
       <use x="222.65625" xlink:href="#DejaVuSans-48"/>
       <use x="286.279297" xlink:href="#DejaVuSans-44"/>
       <use x="318.066406" xlink:href="#DejaVuSans-48"/>
       <use x="381.689453" xlink:href="#DejaVuSans-48"/>
       <use x="445.3125" xlink:href="#DejaVuSans-48"/>
      </g>
     </g>
    </g>
    <g id="ytick_7">
     <g id="line2d_39">
      <g>
       <use style="stroke:#000000;stroke-width:0.5;" x="112.5" xlink:href="#mfc1a22d341" y="36"/>
      </g>
     </g>
     <g id="line2d_40">
      <g>
       <use style="stroke:#000000;stroke-width:0.5;" x="635.625" xlink:href="#m8cf51f72be" y="36"/>
      </g>
     </g>
     <g id="text_18">
      <!-- 3,000,000 -->
      <g transform="translate(47.4275 39.31125)scale(0.12 -0.12)">
       <use xlink:href="#DejaVuSans-51"/>
       <use x="63.623047" xlink:href="#DejaVuSans-44"/>
       <use x="95.410156" xlink:href="#DejaVuSans-48"/>
       <use x="159.033203" xlink:href="#DejaVuSans-48"/>
       <use x="222.65625" xlink:href="#DejaVuSans-48"/>
       <use x="286.279297" xlink:href="#DejaVuSans-44"/>
       <use x="318.066406" xlink:href="#DejaVuSans-48"/>
       <use x="381.689453" xlink:href="#DejaVuSans-48"/>
       <use x="445.3125" xlink:href="#DejaVuSans-48"/>
      </g>
     </g>
    </g>
    <g id="text_19">
     <!-- parameters -->
     <defs>
      <path d="M 18.109375 8.203125 
L 18.109375 -20.796875 
L 9.078125 -20.796875 
L 9.078125 54.6875 
L 18.109375 54.6875 
L 18.109375 46.390625 
Q 20.953125 51.265625 25.265625 53.625 
Q 29.59375 56 35.59375 56 
Q 45.5625 56 51.78125 48.09375 
Q 58.015625 40.1875 58.015625 27.296875 
Q 58.015625 14.40625 51.78125 6.484375 
Q 45.5625 -1.421875 35.59375 -1.421875 
Q 29.59375 -1.421875 25.265625 0.953125 
Q 20.953125 3.328125 18.109375 8.203125 
z
M 48.6875 27.296875 
Q 48.6875 37.203125 44.609375 42.84375 
Q 40.53125 48.484375 33.40625 48.484375 
Q 26.265625 48.484375 22.1875 42.84375 
Q 18.109375 37.203125 18.109375 27.296875 
Q 18.109375 17.390625 22.1875 11.75 
Q 26.265625 6.109375 33.40625 6.109375 
Q 40.53125 6.109375 44.609375 11.75 
Q 48.6875 17.390625 48.6875 27.296875 
z
" id="DejaVuSans-112"/>
      <path d="M 52 44.1875 
Q 55.375 50.25 60.0625 53.125 
Q 64.75 56 71.09375 56 
Q 79.640625 56 84.28125 50.015625 
Q 88.921875 44.046875 88.921875 33.015625 
L 88.921875 0 
L 79.890625 0 
L 79.890625 32.71875 
Q 79.890625 40.578125 77.09375 44.375 
Q 74.3125 48.1875 68.609375 48.1875 
Q 61.625 48.1875 57.5625 43.546875 
Q 53.515625 38.921875 53.515625 30.90625 
L 53.515625 0 
L 44.484375 0 
L 44.484375 32.71875 
Q 44.484375 40.625 41.703125 44.40625 
Q 38.921875 48.1875 33.109375 48.1875 
Q 26.21875 48.1875 22.15625 43.53125 
Q 18.109375 38.875 18.109375 30.90625 
L 18.109375 0 
L 9.078125 0 
L 9.078125 54.6875 
L 18.109375 54.6875 
L 18.109375 46.1875 
Q 21.1875 51.21875 25.484375 53.609375 
Q 29.78125 56 35.6875 56 
Q 41.65625 56 45.828125 52.96875 
Q 50 49.953125 52 44.1875 
z
" id="DejaVuSans-109"/>
      <path d="M 44.28125 53.078125 
L 44.28125 44.578125 
Q 40.484375 46.53125 36.375 47.5 
Q 32.28125 48.484375 27.875 48.484375 
Q 21.1875 48.484375 17.84375 46.4375 
Q 14.5 44.390625 14.5 40.28125 
Q 14.5 37.15625 16.890625 35.375 
Q 19.28125 33.59375 26.515625 31.984375 
L 29.59375 31.296875 
Q 39.15625 29.25 43.1875 25.515625 
Q 47.21875 21.78125 47.21875 15.09375 
Q 47.21875 7.46875 41.1875 3.015625 
Q 35.15625 -1.421875 24.609375 -1.421875 
Q 20.21875 -1.421875 15.453125 -0.5625 
Q 10.6875 0.296875 5.421875 2 
L 5.421875 11.28125 
Q 10.40625 8.6875 15.234375 7.390625 
Q 20.0625 6.109375 24.8125 6.109375 
Q 31.15625 6.109375 34.5625 8.28125 
Q 37.984375 10.453125 37.984375 14.40625 
Q 37.984375 18.0625 35.515625 20.015625 
Q 33.0625 21.96875 24.703125 23.78125 
L 21.578125 24.515625 
Q 13.234375 26.265625 9.515625 29.90625 
Q 5.8125 33.546875 5.8125 39.890625 
Q 5.8125 47.609375 11.28125 51.796875 
Q 16.75 56 26.8125 56 
Q 31.78125 56 36.171875 55.265625 
Q 40.578125 54.546875 44.28125 53.078125 
z
" id="DejaVuSans-115"/>
     </defs>
     <g transform="translate(39.931875 214.801875)rotate(-90)scale(0.12 -0.12)">
      <use xlink:href="#DejaVuSans-112"/>
      <use x="63.476562" xlink:href="#DejaVuSans-97"/>
      <use x="124.755859" xlink:href="#DejaVuSans-114"/>
      <use x="165.869141" xlink:href="#DejaVuSans-97"/>
      <use x="227.148438" xlink:href="#DejaVuSans-109"/>
      <use x="324.560547" xlink:href="#DejaVuSans-101"/>
      <use x="386.083984" xlink:href="#DejaVuSans-116"/>
      <use x="425.292969" xlink:href="#DejaVuSans-101"/>
      <use x="486.816406" xlink:href="#DejaVuSans-114"/>
      <use x="527.929688" xlink:href="#DejaVuSans-115"/>
     </g>
    </g>
   </g>
   <g id="legend_1">
    <g id="patch_7">
     <path d="M 640.623 226.350203 
L 834.478239 226.350203 
L 834.478239 133.649798 
L 640.623 133.649798 
z
" style="fill:#ffffff;stroke:#000000;stroke-linejoin:miter;"/>
    </g>
    <g id="line2d_41">
     <path d="M 647.6202 141.744996 
L 661.6146 141.744996 
" style="fill:none;stroke:#0000ff;stroke-linecap:square;stroke-width:1.2;"/>
    </g>
    <g id="line2d_42"/>
    <g id="text_20">
     <!-- Lonely_Param_Scale_0.1 -->
     <defs>
      <path d="M 9.8125 72.90625 
L 19.671875 72.90625 
L 19.671875 8.296875 
L 55.171875 8.296875 
L 55.171875 0 
L 9.8125 0 
z
" id="DejaVuSans-76"/>
      <path d="M 9.421875 75.984375 
L 18.40625 75.984375 
L 18.40625 0 
L 9.421875 0 
z
" id="DejaVuSans-108"/>
      <path d="M 32.171875 -5.078125 
Q 28.375 -14.84375 24.75 -17.8125 
Q 21.140625 -20.796875 15.09375 -20.796875 
L 7.90625 -20.796875 
L 7.90625 -13.28125 
L 13.1875 -13.28125 
Q 16.890625 -13.28125 18.9375 -11.515625 
Q 21 -9.765625 23.484375 -3.21875 
L 25.09375 0.875 
L 2.984375 54.6875 
L 12.5 54.6875 
L 29.59375 11.921875 
L 46.6875 54.6875 
L 56.203125 54.6875 
z
" id="DejaVuSans-121"/>
      <path d="M 50.984375 -16.609375 
L 50.984375 -23.578125 
L -0.984375 -23.578125 
L -0.984375 -16.609375 
z
" id="DejaVuSans-95"/>
      <path d="M 19.671875 64.796875 
L 19.671875 37.40625 
L 32.078125 37.40625 
Q 38.96875 37.40625 42.71875 40.96875 
Q 46.484375 44.53125 46.484375 51.125 
Q 46.484375 57.671875 42.71875 61.234375 
Q 38.96875 64.796875 32.078125 64.796875 
z
M 9.8125 72.90625 
L 32.078125 72.90625 
Q 44.34375 72.90625 50.609375 67.359375 
Q 56.890625 61.8125 56.890625 51.125 
Q 56.890625 40.328125 50.609375 34.8125 
Q 44.34375 29.296875 32.078125 29.296875 
L 19.671875 29.296875 
L 19.671875 0 
L 9.8125 0 
z
" id="DejaVuSans-80"/>
      <path d="M 53.515625 70.515625 
L 53.515625 60.890625 
Q 47.90625 63.578125 42.921875 64.890625 
Q 37.9375 66.21875 33.296875 66.21875 
Q 25.25 66.21875 20.875 63.09375 
Q 16.5 59.96875 16.5 54.203125 
Q 16.5 49.359375 19.40625 46.890625 
Q 22.3125 44.4375 30.421875 42.921875 
L 36.375 41.703125 
Q 47.40625 39.59375 52.65625 34.296875 
Q 57.90625 29 57.90625 20.125 
Q 57.90625 9.515625 50.796875 4.046875 
Q 43.703125 -1.421875 29.984375 -1.421875 
Q 24.8125 -1.421875 18.96875 -0.25 
Q 13.140625 0.921875 6.890625 3.21875 
L 6.890625 13.375 
Q 12.890625 10.015625 18.65625 8.296875 
Q 24.421875 6.59375 29.984375 6.59375 
Q 38.421875 6.59375 43.015625 9.90625 
Q 47.609375 13.234375 47.609375 19.390625 
Q 47.609375 24.75 44.3125 27.78125 
Q 41.015625 30.8125 33.5 32.328125 
L 27.484375 33.5 
Q 16.453125 35.6875 11.515625 40.375 
Q 6.59375 45.0625 6.59375 53.421875 
Q 6.59375 63.09375 13.40625 68.65625 
Q 20.21875 74.21875 32.171875 74.21875 
Q 37.3125 74.21875 42.625 73.28125 
Q 47.953125 72.359375 53.515625 70.515625 
z
" id="DejaVuSans-83"/>
      <path d="M 48.78125 52.59375 
L 48.78125 44.1875 
Q 44.96875 46.296875 41.140625 47.34375 
Q 37.3125 48.390625 33.40625 48.390625 
Q 24.65625 48.390625 19.8125 42.84375 
Q 14.984375 37.3125 14.984375 27.296875 
Q 14.984375 17.28125 19.8125 11.734375 
Q 24.65625 6.203125 33.40625 6.203125 
Q 37.3125 6.203125 41.140625 7.25 
Q 44.96875 8.296875 48.78125 10.40625 
L 48.78125 2.09375 
Q 45.015625 0.34375 40.984375 -0.53125 
Q 36.96875 -1.421875 32.421875 -1.421875 
Q 20.0625 -1.421875 12.78125 6.34375 
Q 5.515625 14.109375 5.515625 27.296875 
Q 5.515625 40.671875 12.859375 48.328125 
Q 20.21875 56 33.015625 56 
Q 37.15625 56 41.109375 55.140625 
Q 45.0625 54.296875 48.78125 52.59375 
z
" id="DejaVuSans-99"/>
      <path d="M 10.6875 12.40625 
L 21 12.40625 
L 21 0 
L 10.6875 0 
z
" id="DejaVuSans-46"/>
     </defs>
     <g transform="translate(672.6102 145.243596)scale(0.09996 -0.09996)">
      <use xlink:href="#DejaVuSans-76"/>
      <use x="53.962891" xlink:href="#DejaVuSans-111"/>
      <use x="115.144531" xlink:href="#DejaVuSans-110"/>
      <use x="178.523438" xlink:href="#DejaVuSans-101"/>
      <use x="240.046875" xlink:href="#DejaVuSans-108"/>
      <use x="267.830078" xlink:href="#DejaVuSans-121"/>
      <use x="327.009766" xlink:href="#DejaVuSans-95"/>
      <use x="377.009766" xlink:href="#DejaVuSans-80"/>
      <use x="432.8125" xlink:href="#DejaVuSans-97"/>
      <use x="494.091797" xlink:href="#DejaVuSans-114"/>
      <use x="535.205078" xlink:href="#DejaVuSans-97"/>
      <use x="596.484375" xlink:href="#DejaVuSans-109"/>
      <use x="693.896484" xlink:href="#DejaVuSans-95"/>
      <use x="743.896484" xlink:href="#DejaVuSans-83"/>
      <use x="807.373047" xlink:href="#DejaVuSans-99"/>
      <use x="862.353516" xlink:href="#DejaVuSans-97"/>
      <use x="923.632812" xlink:href="#DejaVuSans-108"/>
      <use x="951.416016" xlink:href="#DejaVuSans-101"/>
      <use x="1012.939453" xlink:href="#DejaVuSans-95"/>
      <use x="1062.939453" xlink:href="#DejaVuSans-48"/>
      <use x="1126.5625" xlink:href="#DejaVuSans-46"/>
      <use x="1158.349609" xlink:href="#DejaVuSans-49"/>
     </g>
    </g>
    <g id="line2d_43">
     <path d="M 647.6202 156.695263 
L 661.6146 156.695263 
" style="fill:none;stroke:#008000;stroke-linecap:square;stroke-width:1.2;"/>
    </g>
    <g id="line2d_44"/>
    <g id="text_21">
     <!-- Lonely_Param_Scale_0.33 -->
     <g transform="translate(672.6102 160.193863)scale(0.09996 -0.09996)">
      <use xlink:href="#DejaVuSans-76"/>
      <use x="53.962891" xlink:href="#DejaVuSans-111"/>
      <use x="115.144531" xlink:href="#DejaVuSans-110"/>
      <use x="178.523438" xlink:href="#DejaVuSans-101"/>
      <use x="240.046875" xlink:href="#DejaVuSans-108"/>
      <use x="267.830078" xlink:href="#DejaVuSans-121"/>
      <use x="327.009766" xlink:href="#DejaVuSans-95"/>
      <use x="377.009766" xlink:href="#DejaVuSans-80"/>
      <use x="432.8125" xlink:href="#DejaVuSans-97"/>
      <use x="494.091797" xlink:href="#DejaVuSans-114"/>
      <use x="535.205078" xlink:href="#DejaVuSans-97"/>
      <use x="596.484375" xlink:href="#DejaVuSans-109"/>
      <use x="693.896484" xlink:href="#DejaVuSans-95"/>
      <use x="743.896484" xlink:href="#DejaVuSans-83"/>
      <use x="807.373047" xlink:href="#DejaVuSans-99"/>
      <use x="862.353516" xlink:href="#DejaVuSans-97"/>
      <use x="923.632812" xlink:href="#DejaVuSans-108"/>
      <use x="951.416016" xlink:href="#DejaVuSans-101"/>
      <use x="1012.939453" xlink:href="#DejaVuSans-95"/>
      <use x="1062.939453" xlink:href="#DejaVuSans-48"/>
      <use x="1126.5625" xlink:href="#DejaVuSans-46"/>
      <use x="1158.349609" xlink:href="#DejaVuSans-51"/>
      <use x="1221.972656" xlink:href="#DejaVuSans-51"/>
     </g>
    </g>
    <g id="line2d_45">
     <path d="M 647.6202 171.645531 
L 661.6146 171.645531 
" style="fill:none;stroke:#ff0000;stroke-linecap:square;stroke-width:1.2;"/>
    </g>
    <g id="line2d_46"/>
    <g id="text_22">
     <!-- Lonely_Loss_Param_Scale_0.1 -->
     <g transform="translate(672.6102 175.144131)scale(0.09996 -0.09996)">
      <use xlink:href="#DejaVuSans-76"/>
      <use x="53.962891" xlink:href="#DejaVuSans-111"/>
      <use x="115.144531" xlink:href="#DejaVuSans-110"/>
      <use x="178.523438" xlink:href="#DejaVuSans-101"/>
      <use x="240.046875" xlink:href="#DejaVuSans-108"/>
      <use x="267.830078" xlink:href="#DejaVuSans-121"/>
      <use x="327.009766" xlink:href="#DejaVuSans-95"/>
      <use x="377.009766" xlink:href="#DejaVuSans-76"/>
      <use x="430.972656" xlink:href="#DejaVuSans-111"/>
      <use x="492.154297" xlink:href="#DejaVuSans-115"/>
      <use x="544.253906" xlink:href="#DejaVuSans-115"/>
      <use x="596.353516" xlink:href="#DejaVuSans-95"/>
      <use x="646.353516" xlink:href="#DejaVuSans-80"/>
      <use x="702.15625" xlink:href="#DejaVuSans-97"/>
      <use x="763.435547" xlink:href="#DejaVuSans-114"/>
      <use x="804.548828" xlink:href="#DejaVuSans-97"/>
      <use x="865.828125" xlink:href="#DejaVuSans-109"/>
      <use x="963.240234" xlink:href="#DejaVuSans-95"/>
      <use x="1013.240234" xlink:href="#DejaVuSans-83"/>
      <use x="1076.716797" xlink:href="#DejaVuSans-99"/>
      <use x="1131.697266" xlink:href="#DejaVuSans-97"/>
      <use x="1192.976562" xlink:href="#DejaVuSans-108"/>
      <use x="1220.759766" xlink:href="#DejaVuSans-101"/>
      <use x="1282.283203" xlink:href="#DejaVuSans-95"/>
      <use x="1332.283203" xlink:href="#DejaVuSans-48"/>
      <use x="1395.90625" xlink:href="#DejaVuSans-46"/>
      <use x="1427.693359" xlink:href="#DejaVuSans-49"/>
     </g>
    </g>
    <g id="line2d_47">
     <path d="M 647.6202 186.595798 
L 661.6146 186.595798 
" style="fill:none;stroke:#00bfbf;stroke-linecap:square;stroke-width:1.2;"/>
    </g>
    <g id="line2d_48"/>
    <g id="text_23">
     <!-- Lonely_Loss_Param_Scale_0.33 -->
     <g transform="translate(672.6102 190.094398)scale(0.09996 -0.09996)">
      <use xlink:href="#DejaVuSans-76"/>
      <use x="53.962891" xlink:href="#DejaVuSans-111"/>
      <use x="115.144531" xlink:href="#DejaVuSans-110"/>
      <use x="178.523438" xlink:href="#DejaVuSans-101"/>
      <use x="240.046875" xlink:href="#DejaVuSans-108"/>
      <use x="267.830078" xlink:href="#DejaVuSans-121"/>
      <use x="327.009766" xlink:href="#DejaVuSans-95"/>
      <use x="377.009766" xlink:href="#DejaVuSans-76"/>
      <use x="430.972656" xlink:href="#DejaVuSans-111"/>
      <use x="492.154297" xlink:href="#DejaVuSans-115"/>
      <use x="544.253906" xlink:href="#DejaVuSans-115"/>
      <use x="596.353516" xlink:href="#DejaVuSans-95"/>
      <use x="646.353516" xlink:href="#DejaVuSans-80"/>
      <use x="702.15625" xlink:href="#DejaVuSans-97"/>
      <use x="763.435547" xlink:href="#DejaVuSans-114"/>
      <use x="804.548828" xlink:href="#DejaVuSans-97"/>
      <use x="865.828125" xlink:href="#DejaVuSans-109"/>
      <use x="963.240234" xlink:href="#DejaVuSans-95"/>
      <use x="1013.240234" xlink:href="#DejaVuSans-83"/>
      <use x="1076.716797" xlink:href="#DejaVuSans-99"/>
      <use x="1131.697266" xlink:href="#DejaVuSans-97"/>
      <use x="1192.976562" xlink:href="#DejaVuSans-108"/>
      <use x="1220.759766" xlink:href="#DejaVuSans-101"/>
      <use x="1282.283203" xlink:href="#DejaVuSans-95"/>
      <use x="1332.283203" xlink:href="#DejaVuSans-48"/>
      <use x="1395.90625" xlink:href="#DejaVuSans-46"/>
      <use x="1427.693359" xlink:href="#DejaVuSans-51"/>
      <use x="1491.316406" xlink:href="#DejaVuSans-51"/>
     </g>
    </g>
    <g id="line2d_49">
     <path d="M 647.6202 201.546066 
L 661.6146 201.546066 
" style="fill:none;stroke:#bf00bf;stroke-linecap:square;stroke-width:1.2;"/>
    </g>
    <g id="line2d_50"/>
    <g id="text_24">
     <!-- Lonely_Error_Param_Scale_0.1 -->
     <defs>
      <path d="M 9.8125 72.90625 
L 55.90625 72.90625 
L 55.90625 64.59375 
L 19.671875 64.59375 
L 19.671875 43.015625 
L 54.390625 43.015625 
L 54.390625 34.71875 
L 19.671875 34.71875 
L 19.671875 8.296875 
L 56.78125 8.296875 
L 56.78125 0 
L 9.8125 0 
z
" id="DejaVuSans-69"/>
     </defs>
     <g transform="translate(672.6102 205.044666)scale(0.09996 -0.09996)">
      <use xlink:href="#DejaVuSans-76"/>
      <use x="53.962891" xlink:href="#DejaVuSans-111"/>
      <use x="115.144531" xlink:href="#DejaVuSans-110"/>
      <use x="178.523438" xlink:href="#DejaVuSans-101"/>
      <use x="240.046875" xlink:href="#DejaVuSans-108"/>
      <use x="267.830078" xlink:href="#DejaVuSans-121"/>
      <use x="327.009766" xlink:href="#DejaVuSans-95"/>
      <use x="377.009766" xlink:href="#DejaVuSans-69"/>
      <use x="440.193359" xlink:href="#DejaVuSans-114"/>
      <use x="479.556641" xlink:href="#DejaVuSans-114"/>
      <use x="518.419922" xlink:href="#DejaVuSans-111"/>
      <use x="579.601562" xlink:href="#DejaVuSans-114"/>
      <use x="620.714844" xlink:href="#DejaVuSans-95"/>
      <use x="670.714844" xlink:href="#DejaVuSans-80"/>
      <use x="726.517578" xlink:href="#DejaVuSans-97"/>
      <use x="787.796875" xlink:href="#DejaVuSans-114"/>
      <use x="828.910156" xlink:href="#DejaVuSans-97"/>
      <use x="890.189453" xlink:href="#DejaVuSans-109"/>
      <use x="987.601562" xlink:href="#DejaVuSans-95"/>
      <use x="1037.601562" xlink:href="#DejaVuSans-83"/>
      <use x="1101.078125" xlink:href="#DejaVuSans-99"/>
      <use x="1156.058594" xlink:href="#DejaVuSans-97"/>
      <use x="1217.337891" xlink:href="#DejaVuSans-108"/>
      <use x="1245.121094" xlink:href="#DejaVuSans-101"/>
      <use x="1306.644531" xlink:href="#DejaVuSans-95"/>
      <use x="1356.644531" xlink:href="#DejaVuSans-48"/>
      <use x="1420.267578" xlink:href="#DejaVuSans-46"/>
      <use x="1452.054688" xlink:href="#DejaVuSans-49"/>
     </g>
    </g>
    <g id="line2d_51">
     <path d="M 647.6202 216.496333 
L 661.6146 216.496333 
" style="fill:none;stroke:#bfbf00;stroke-linecap:square;stroke-width:1.2;"/>
    </g>
    <g id="line2d_52"/>
    <g id="text_25">
     <!-- Lonely_Error_Param_Scale_0.33 -->
     <g transform="translate(672.6102 219.994933)scale(0.09996 -0.09996)">
      <use xlink:href="#DejaVuSans-76"/>
      <use x="53.962891" xlink:href="#DejaVuSans-111"/>
      <use x="115.144531" xlink:href="#DejaVuSans-110"/>
      <use x="178.523438" xlink:href="#DejaVuSans-101"/>
      <use x="240.046875" xlink:href="#DejaVuSans-108"/>
      <use x="267.830078" xlink:href="#DejaVuSans-121"/>
      <use x="327.009766" xlink:href="#DejaVuSans-95"/>
      <use x="377.009766" xlink:href="#DejaVuSans-69"/>
      <use x="440.193359" xlink:href="#DejaVuSans-114"/>
      <use x="479.556641" xlink:href="#DejaVuSans-114"/>
      <use x="518.419922" xlink:href="#DejaVuSans-111"/>
      <use x="579.601562" xlink:href="#DejaVuSans-114"/>
      <use x="620.714844" xlink:href="#DejaVuSans-95"/>
      <use x="670.714844" xlink:href="#DejaVuSans-80"/>
      <use x="726.517578" xlink:href="#DejaVuSans-97"/>
      <use x="787.796875" xlink:href="#DejaVuSans-114"/>
      <use x="828.910156" xlink:href="#DejaVuSans-97"/>
      <use x="890.189453" xlink:href="#DejaVuSans-109"/>
      <use x="987.601562" xlink:href="#DejaVuSans-95"/>
      <use x="1037.601562" xlink:href="#DejaVuSans-83"/>
      <use x="1101.078125" xlink:href="#DejaVuSans-99"/>
      <use x="1156.058594" xlink:href="#DejaVuSans-97"/>
      <use x="1217.337891" xlink:href="#DejaVuSans-108"/>
      <use x="1245.121094" xlink:href="#DejaVuSans-101"/>
      <use x="1306.644531" xlink:href="#DejaVuSans-95"/>
      <use x="1356.644531" xlink:href="#DejaVuSans-48"/>
      <use x="1420.267578" xlink:href="#DejaVuSans-46"/>
      <use x="1452.054688" xlink:href="#DejaVuSans-51"/>
      <use x="1515.677734" xlink:href="#DejaVuSans-51"/>
     </g>
    </g>
   </g>
  </g>
  <g id="text_26">
   <!-- Average Amount of Parameters -->
   <defs>
    <path d="M 34.1875 63.1875 
L 20.796875 26.90625 
L 47.609375 26.90625 
z
M 28.609375 72.90625 
L 39.796875 72.90625 
L 67.578125 0 
L 57.328125 0 
L 50.6875 18.703125 
L 17.828125 18.703125 
L 11.1875 0 
L 0.78125 0 
z
" id="DejaVuSans-65"/>
    <path d="M 2.984375 54.6875 
L 12.5 54.6875 
L 29.59375 8.796875 
L 46.6875 54.6875 
L 56.203125 54.6875 
L 35.6875 0 
L 23.484375 0 
z
" id="DejaVuSans-118"/>
    <path id="DejaVuSans-32"/>
    <path d="M 8.5 21.578125 
L 8.5 54.6875 
L 17.484375 54.6875 
L 17.484375 21.921875 
Q 17.484375 14.15625 20.5 10.265625 
Q 23.53125 6.390625 29.59375 6.390625 
Q 36.859375 6.390625 41.078125 11.03125 
Q 45.3125 15.671875 45.3125 23.6875 
L 45.3125 54.6875 
L 54.296875 54.6875 
L 54.296875 0 
L 45.3125 0 
L 45.3125 8.40625 
Q 42.046875 3.421875 37.71875 1 
Q 33.40625 -1.421875 27.6875 -1.421875 
Q 18.265625 -1.421875 13.375 4.4375 
Q 8.5 10.296875 8.5 21.578125 
z
M 31.109375 56 
z
" id="DejaVuSans-117"/>
    <path d="M 37.109375 75.984375 
L 37.109375 68.5 
L 28.515625 68.5 
Q 23.6875 68.5 21.796875 66.546875 
Q 19.921875 64.59375 19.921875 59.515625 
L 19.921875 54.6875 
L 34.71875 54.6875 
L 34.71875 47.703125 
L 19.921875 47.703125 
L 19.921875 0 
L 10.890625 0 
L 10.890625 47.703125 
L 2.296875 47.703125 
L 2.296875 54.6875 
L 10.890625 54.6875 
L 10.890625 58.5 
Q 10.890625 67.625 15.140625 71.796875 
Q 19.390625 75.984375 28.609375 75.984375 
z
" id="DejaVuSans-102"/>
   </defs>
   <g transform="translate(355.93875 16.318125)scale(0.12 -0.12)">
    <use xlink:href="#DejaVuSans-65"/>
    <use x="62.533203" xlink:href="#DejaVuSans-118"/>
    <use x="121.712891" xlink:href="#DejaVuSans-101"/>
    <use x="183.236328" xlink:href="#DejaVuSans-114"/>
    <use x="224.349609" xlink:href="#DejaVuSans-97"/>
    <use x="285.628906" xlink:href="#DejaVuSans-103"/>
    <use x="349.105469" xlink:href="#DejaVuSans-101"/>
    <use x="410.628906" xlink:href="#DejaVuSans-32"/>
    <use x="442.416016" xlink:href="#DejaVuSans-65"/>
    <use x="510.824219" xlink:href="#DejaVuSans-109"/>
    <use x="608.236328" xlink:href="#DejaVuSans-111"/>
    <use x="669.417969" xlink:href="#DejaVuSans-117"/>
    <use x="732.796875" xlink:href="#DejaVuSans-110"/>
    <use x="796.175781" xlink:href="#DejaVuSans-116"/>
    <use x="835.384766" xlink:href="#DejaVuSans-32"/>
    <use x="867.171875" xlink:href="#DejaVuSans-111"/>
    <use x="928.353516" xlink:href="#DejaVuSans-102"/>
    <use x="963.558594" xlink:href="#DejaVuSans-32"/>
    <use x="995.345703" xlink:href="#DejaVuSans-80"/>
    <use x="1051.148438" xlink:href="#DejaVuSans-97"/>
    <use x="1112.427734" xlink:href="#DejaVuSans-114"/>
    <use x="1153.541016" xlink:href="#DejaVuSans-97"/>
    <use x="1214.820312" xlink:href="#DejaVuSans-109"/>
    <use x="1312.232422" xlink:href="#DejaVuSans-101"/>
    <use x="1373.755859" xlink:href="#DejaVuSans-116"/>
    <use x="1412.964844" xlink:href="#DejaVuSans-101"/>
    <use x="1474.488281" xlink:href="#DejaVuSans-114"/>
    <use x="1515.601562" xlink:href="#DejaVuSans-115"/>
   </g>
  </g>
 </g>
 <defs>
  <clipPath id="pe4cc597ba2">
   <rect height="288" width="523.125" x="112.5" y="36"/>
  </clipPath>
 </defs>
</svg>
