<?xml version="1.0" encoding="utf-8" standalone="no"?>
<!DOCTYPE svg PUBLIC "-//W3C//DTD SVG 1.1//EN"
  "http://www.w3.org/Graphics/SVG/1.1/DTD/svg11.dtd">
<!-- Created with matplotlib (https://matplotlib.org/) -->
<svg height="360pt" version="1.1" viewBox="0 0 900 360" width="900pt" xmlns="http://www.w3.org/2000/svg" xmlns:xlink="http://www.w3.org/1999/xlink">
 <defs>
  <style type="text/css">
*{stroke-linecap:butt;stroke-linejoin:round;}
  </style>
 </defs>
 <g id="figure_1">
  <g id="patch_1">
   <path d="M 0 360 
L 900 360 
L 900 0 
L 0 0 
z
" style="fill:#ffffff;"/>
  </g>
  <g id="axes_1">
   <g id="patch_2">
    <path d="M 112.5 324 
L 635.625 324 
L 635.625 36 
L 112.5 36 
z
" style="fill:#ffffff;"/>
   </g>
   <g id="line2d_1">
    <path clip-path="url(#p0bf92def57)" d="M 112.857815 315.771429 
L 116.435961 308.271428 
L 120.014107 302.138095 
L 123.592254 299.018095 
L 127.1704 292.472641 
L 130.748547 287.072641 
L 134.326693 272.30341 
L 137.904839 260.652024 
L 141.482986 251.635148 
L 145.061132 245.534921 
L 148.639278 238.282369 
L 152.217425 236.513887 
L 155.795571 231.701675 
L 159.373718 230.055387 
L 162.951864 224.009492 
L 166.53001 219.853672 
L 170.108157 216.585883 
L 173.686303 208.455384 
L 177.264449 195.220114 
L 180.842596 184.659994 
L 184.420742 177.844964 
L 187.998889 173.37077 
L 191.577035 166.102854 
L 195.155181 160.004159 
L 198.733328 159.230989 
L 202.311474 155.170286 
L 205.88962 153.640308 
L 209.467767 156.209181 
L 213.045913 153.965982 
L 216.62406 154.324685 
L 220.202206 157.58011 
L 223.780352 150.806966 
L 227.358499 153.794402 
L 230.936645 150.113949 
L 234.514791 144.106623 
L 238.092938 142.055903 
L 241.671084 136.127535 
L 245.249231 125.431183 
L 248.827377 121.817661 
L 252.405523 116.773297 
L 255.98367 122.700939 
L 259.561816 116.438963 
L 263.139962 112.806891 
L 266.718109 112.674534 
L 270.296255 113.908638 
L 273.874402 113.669482 
L 277.452548 109.738419 
L 281.030694 99.879764 
L 284.608841 98.052133 
L 288.186987 97.470998 
L 291.765133 94.08611 
L 295.34328 93.115147 
L 298.921426 92.272506 
L 302.499573 91.852051 
L 306.077719 91.603766 
L 309.655865 90.000045 
L 313.234012 86.47151 
L 316.812158 85.885772 
L 320.390304 82.929666 
L 323.968451 82.580216 
L 327.546597 77.990075 
L 331.124744 77.127483 
L 334.70289 76.137286 
L 338.281036 75.526961 
L 341.859183 73.437822 
L 345.437329 71.969218 
L 349.015475 72.445296 
L 352.593622 75.526467 
L 356.171768 75.218696 
L 359.749915 78.101881 
L 363.328061 75.715337 
L 366.906207 77.367454 
L 370.484354 74.090395 
L 374.0625 70.340018 
L 377.640646 65.694906 
L 381.218793 64.408461 
L 384.796939 62.432044 
L 391.953232 60.367391 
L 395.531378 63.004083 
L 399.109525 61.332088 
L 402.687671 69.304179 
L 406.265817 68.942311 
L 409.843964 67.596946 
L 413.42211 65.303615 
L 417.000256 61.806401 
L 420.578403 60.421964 
L 424.156549 59.982724 
L 427.734696 53.911843 
L 431.312842 52.940269 
L 434.890988 51.812832 
L 438.469135 51.698156 
L 442.047281 56.274446 
L 445.625427 60.201559 
L 449.203574 58.741469 
L 452.78172 58.559133 
L 456.359867 58.068276 
L 459.938013 58.180234 
L 463.516159 65.878855 
L 467.094306 62.740733 
L 470.672452 57.766823 
L 474.250598 60.276466 
L 477.828745 62.070107 
L 481.406891 64.77794 
L 484.985038 69.162379 
L 488.563184 64.799573 
L 492.14133 63.665638 
L 495.719477 65.780931 
L 499.297623 66.573583 
L 502.875769 60.458465 
L 506.453916 56.618506 
L 510.032062 54.730515 
L 513.610209 51.371357 
L 517.188355 48.579489 
L 520.766501 43.933224 
L 524.344648 40.345504 
L 527.922794 43.229122 
L 531.50094 40.537631 
L 535.079087 39.630486 
L 538.657233 39.465804 
L 542.23538 42.641674 
L 545.813526 42.542324 
L 549.391672 42.157464 
L 552.969819 41.336568 
L 556.547965 43.98264 
L 560.126111 40.809729 
L 563.704258 44.051569 
L 570.860551 45.633574 
L 574.438697 45.900967 
L 578.016843 46.621305 
L 581.59499 47.747355 
L 585.173136 51.419481 
L 588.751282 52.170859 
L 592.329429 49.961042 
L 595.907575 53.801616 
L 599.485722 55.701666 
L 603.063868 55.477079 
L 606.642014 54.779365 
L 610.220161 58.360895 
L 613.798307 60.313974 
L 617.376453 63.402883 
L 620.9546 62.621443 
L 624.532746 65.495564 
L 628.110893 69.352681 
L 631.689039 73.54343 
L 635.267185 68.047139 
L 635.267185 68.047139 
" style="fill:none;stroke:#0000ff;stroke-linecap:square;stroke-width:1.2;"/>
   </g>
   <g id="line2d_2">
    <path clip-path="url(#p0bf92def57)" d="M 112.857815 314.057143 
L 116.435961 307.457143 
L 120.014107 303.457143 
L 123.592254 301.297143 
L 127.1704 291.697143 
L 130.748547 290.097142 
L 134.326693 284.558681 
L 137.904839 277.674184 
L 141.482986 282.952418 
L 145.061132 277.682824 
L 148.639278 273.281722 
L 152.217425 273.711305 
L 155.795571 267.650857 
L 159.373718 275.027178 
L 162.951864 275.192793 
L 166.53001 263.149745 
L 170.108157 260.185662 
L 173.686303 253.824426 
L 177.264449 249.894666 
L 180.842596 244.467266 
L 184.420742 243.408811 
L 187.998889 238.933121 
L 191.577035 233.562611 
L 195.155181 233.545454 
L 198.733328 231.062456 
L 202.311474 224.99844 
L 205.88962 220.362377 
L 209.467767 206.220344 
L 213.045913 200.934746 
L 216.62406 192.886448 
L 220.202206 187.728063 
L 223.780352 183.286956 
L 227.358499 177.493765 
L 230.936645 174.750025 
L 234.514791 173.806155 
L 238.092938 175.596263 
L 241.671084 179.804711 
L 245.249231 179.933683 
L 248.827377 177.275739 
L 252.405523 177.258968 
L 255.98367 171.913502 
L 259.561816 170.660221 
L 263.139962 169.911294 
L 266.718109 163.6118 
L 270.296255 161.433194 
L 273.874402 162.799153 
L 277.452548 164.825321 
L 281.030694 171.849307 
L 284.608841 164.556159 
L 288.186987 163.405764 
L 291.765133 166.897608 
L 295.34328 161.779486 
L 298.921426 161.516434 
L 302.499573 156.092674 
L 306.077719 160.234472 
L 309.655865 160.640496 
L 313.234012 154.704706 
L 316.812158 148.782175 
L 320.390304 150.182382 
L 323.968451 148.202839 
L 327.546597 149.072852 
L 331.124744 136.768111 
L 334.70289 141.024082 
L 338.281036 145.510188 
L 341.859183 149.135419 
L 345.437329 148.316422 
L 349.015475 145.555929 
L 352.593622 141.039243 
L 356.171768 142.844715 
L 359.749915 141.877071 
L 363.328061 136.059139 
L 366.906207 138.745579 
L 370.484354 137.824745 
L 374.0625 137.230038 
L 377.640646 137.675484 
L 381.218793 133.770158 
L 384.796939 128.161934 
L 388.375085 121.83138 
L 391.953232 115.176442 
L 395.531378 113.065034 
L 399.109525 116.560034 
L 402.687671 112.535769 
L 406.265817 110.533123 
L 409.843964 110.653983 
L 413.42211 111.640337 
L 417.000256 109.33756 
L 420.578403 105.912369 
L 424.156549 101.216395 
L 427.734696 104.961058 
L 431.312842 106.932438 
L 434.890988 104.43078 
L 438.469135 104.799276 
L 442.047281 120.511716 
L 445.625427 122.373204 
L 449.203574 123.934039 
L 452.78172 125.798313 
L 456.359867 127.064732 
L 459.938013 134.631253 
L 463.516159 144.389156 
L 467.094306 125.912956 
" style="fill:none;stroke:#008000;stroke-linecap:square;stroke-width:1.2;"/>
   </g>
   <g id="line2d_3">
    <path clip-path="url(#p0bf92def57)" d="M 112.857815 266.742857 
L 116.435961 264.642857 
L 120.014107 266.776191 
L 123.592254 265.336191 
L 127.1704 256.608918 
L 130.748547 254.608918 
L 134.326693 252.393533 
L 137.904839 248.520508 
L 141.482986 243.218789 
L 145.061132 235.868219 
L 148.639278 234.709145 
L 152.217425 231.363008 
L 159.373718 215.336739 
L 162.951864 214.630295 
L 166.53001 207.077334 
L 170.108157 200.431882 
L 173.686303 192.99517 
L 177.264449 189.305336 
L 180.842596 185.398213 
L 184.420742 179.956788 
L 187.998889 169.720364 
L 191.577035 164.44675 
L 195.155181 158.355586 
L 198.733328 150.521772 
L 202.311474 149.199959 
L 205.88962 146.784709 
L 209.467767 144.602241 
L 213.045913 141.747001 
L 216.62406 142.031636 
L 220.202206 140.775948 
L 223.780352 146.672423 
L 227.358499 140.75492 
L 230.936645 138.444936 
L 234.514791 136.309759 
L 238.092938 135.522278 
L 241.671084 132.806174 
L 245.249231 133.300807 
L 248.827377 127.841452 
L 252.405523 128.878877 
L 255.98367 126.112257 
L 259.561816 124.404757 
L 263.139962 120.411101 
L 266.718109 117.057634 
L 270.296255 113.038929 
L 273.874402 108.02335 
L 277.452548 102.726771 
L 281.030694 103.512503 
L 284.608841 100.613099 
L 288.186987 103.705561 
L 291.765133 102.493862 
L 295.34328 104.636549 
L 298.921426 104.745257 
L 302.499573 102.685141 
L 306.077719 100.775344 
L 309.655865 99.864747 
L 313.234012 98.646223 
L 316.812158 98.904097 
L 320.390304 95.509293 
L 323.968451 94.060373 
L 327.546597 95.058467 
L 331.124744 93.880246 
L 334.70289 96.373745 
L 338.281036 90.475863 
L 341.859183 88.165999 
L 345.437329 85.57036 
L 349.015475 86.024975 
L 352.593622 87.730091 
L 356.171768 89.103157 
L 359.749915 88.913111 
L 363.328061 87.500592 
L 366.906207 89.110945 
L 370.484354 90.306375 
L 374.0625 93.035713 
L 377.640646 88.828453 
L 381.218793 90.653476 
L 384.796939 93.55658 
L 388.375085 96.23781 
L 391.953232 96.4168 
L 395.531378 101.871448 
L 399.109525 94.981889 
L 402.687671 97.670615 
L 406.265817 100.610395 
L 409.843964 97.276073 
L 413.42211 102.709786 
L 417.000256 103.378477 
L 420.578403 97.955941 
L 424.156549 98.923176 
L 427.734696 100.865681 
L 431.312842 94.239164 
L 434.890988 93.820941 
L 438.469135 89.444876 
L 442.047281 88.926906 
L 445.625427 89.155442 
L 449.203574 91.91177 
L 452.78172 89.376854 
L 456.359867 85.864369 
L 459.938013 83.775401 
L 463.516159 84.631596 
L 467.094306 84.855034 
L 470.672452 86.739618 
L 474.250598 82.649452 
L 477.828745 83.793498 
L 481.406891 84.00343 
L 484.985038 81.25174 
L 488.563184 78.776367 
L 492.14133 79.231854 
L 495.719477 76.80818 
L 499.297623 77.281928 
L 502.875769 70.873346 
L 506.453916 72.26334 
L 510.032062 74.895002 
L 513.610209 75.888743 
L 517.188355 73.046965 
L 520.766501 74.78841 
L 524.344648 79.581216 
L 527.922794 86.158744 
L 531.50094 87.966083 
L 535.079087 92.663859 
L 538.657233 93.954252 
L 542.23538 96.854812 
L 545.813526 93.567613 
L 549.391672 93.351182 
L 552.969819 91.504446 
L 556.547965 90.11509 
L 560.126111 87.51903 
L 563.704258 89.054783 
L 567.282404 88.824011 
L 570.860551 90.859119 
L 574.438697 87.898191 
L 578.016843 89.836171 
L 581.59499 92.953177 
L 585.173136 87.832727 
L 588.751282 88.477184 
L 592.329429 86.419736 
L 595.907575 87.185937 
L 599.485722 87.131149 
L 603.063868 85.166659 
L 606.642014 81.946672 
L 610.220161 87.152733 
L 613.798307 82.289209 
L 617.376453 83.659045 
L 620.9546 82.420781 
L 620.9546 82.420781 
" style="fill:none;stroke:#ff0000;stroke-linecap:square;stroke-width:1.2;"/>
   </g>
   <g id="line2d_4">
    <path clip-path="url(#p0bf92def57)" d="M 112.857815 292.799999 
L 116.435961 284.699999 
L 120.014107 278.566666 
L 123.592254 273.286666 
L 127.1704 264.995757 
L 130.748547 258.395757 
L 134.326693 257.288065 
L 137.904839 247.725609 
L 141.482986 241.373732 
L 145.061132 232.974276 
L 148.639278 228.211784 
L 152.217425 226.120709 
L 155.795571 229.176475 
L 159.373718 221.106353 
L 162.951864 217.027948 
L 166.53001 214.232119 
L 170.108157 215.37503 
L 173.686303 211.064511 
L 177.264449 211.56788 
L 180.842596 202.828758 
L 184.420742 199.945865 
L 187.998889 197.893398 
L 191.577035 195.528881 
L 195.155181 190.494562 
L 198.733328 186.327642 
L 202.311474 178.293778 
L 205.88962 174.191087 
L 209.467767 177.009951 
L 213.045913 175.588147 
L 216.62406 171.285013 
L 220.202206 170.176586 
L 223.780352 166.349582 
L 227.358499 162.846182 
L 230.936645 158.835036 
L 234.514791 147.467735 
L 238.092938 138.658472 
L 241.671084 133.379507 
L 245.249231 130.548963 
L 248.827377 127.425838 
L 252.405523 123.224273 
L 255.98367 120.669599 
L 259.561816 119.531281 
L 263.139962 118.613805 
L 266.718109 116.739519 
L 270.296255 111.800331 
L 273.874402 109.859908 
L 277.452548 104.401111 
L 281.030694 102.041996 
L 284.608841 102.17359 
L 288.186987 102.570496 
L 291.765133 102.588264 
L 295.34328 98.371951 
L 298.921426 98.226724 
L 302.499573 101.628694 
L 306.077719 97.904594 
L 309.655865 89.822363 
L 313.234012 88.472507 
L 316.812158 83.509756 
L 320.390304 81.628049 
L 323.968451 75.920459 
L 327.546597 75.419825 
L 331.124744 75.536381 
L 334.70289 78.498998 
L 338.281036 72.377959 
L 341.859183 75.213975 
L 349.015475 73.492192 
L 352.593622 69.651605 
L 359.749915 62.902475 
L 363.328061 64.573592 
L 366.906207 60.062793 
L 374.0625 60.146686 
L 377.640646 58.12323 
L 381.218793 60.452318 
L 384.796939 62.294614 
L 388.375085 64.334693 
L 391.953232 63.555608 
L 395.531378 62.90055 
L 399.109525 66.435462 
L 402.687671 67.444096 
L 406.265817 68.720386 
L 409.843964 67.368522 
L 413.42211 65.386509 
L 417.000256 69.404271 
L 420.578403 69.166095 
L 424.156549 72.145375 
L 427.734696 72.322397 
L 431.312842 70.014859 
L 434.890988 72.803039 
L 438.469135 68.573541 
L 442.047281 63.70964 
L 445.625427 68.828374 
L 449.203574 62.850142 
L 452.78172 58.983046 
L 456.359867 58.503675 
L 459.938013 54.634493 
L 463.516159 59.285336 
L 467.094306 61.52962 
L 470.672452 55.983562 
L 474.250598 57.670748 
L 477.828745 63.477495 
L 481.406891 64.598558 
L 484.985038 68.688102 
L 488.563184 64.057545 
L 492.14133 68.31354 
L 495.719477 70.185077 
L 499.297623 68.193871 
L 502.875769 59.695131 
L 506.453916 58.210252 
L 510.032062 58.511956 
L 513.610209 58.085372 
L 517.188355 54.529359 
L 520.766501 52.586611 
L 524.344648 52.862976 
L 527.922794 56.583579 
L 531.50094 57.012297 
L 535.079087 53.573861 
L 538.657233 55.442207 
L 542.23538 54.035502 
L 545.813526 55.070033 
L 552.969819 59.35419 
L 556.547965 58.795874 
L 560.126111 58.828336 
L 563.704258 58.165731 
L 567.282404 59.406518 
L 570.860551 57.340094 
L 574.438697 56.237749 
L 578.016843 54.705715 
L 581.59499 54.760319 
L 585.173136 54.447394 
L 588.751282 55.822907 
L 592.329429 54.254936 
L 595.907575 56.602232 
L 599.485722 61.061038 
L 603.063868 59.51914 
L 606.642014 59.146741 
L 613.798307 59.774359 
L 617.376453 60.910158 
L 620.9546 60.711966 
L 624.532746 53.552288 
L 628.110893 55.900468 
L 631.689039 57.593924 
L 631.689039 57.593924 
" style="fill:none;stroke:#00bfbf;stroke-linecap:square;stroke-width:1.2;"/>
   </g>
   <g id="patch_3">
    <path d="M 112.5 324 
L 112.5 36 
" style="fill:none;stroke:#000000;stroke-linecap:square;stroke-linejoin:miter;"/>
   </g>
   <g id="patch_4">
    <path d="M 635.625 324 
L 635.625 36 
" style="fill:none;stroke:#000000;stroke-linecap:square;stroke-linejoin:miter;"/>
   </g>
   <g id="patch_5">
    <path d="M 112.5 324 
L 635.625 324 
" style="fill:none;stroke:#000000;stroke-linecap:square;stroke-linejoin:miter;"/>
   </g>
   <g id="patch_6">
    <path d="M 112.5 36 
L 635.625 36 
" style="fill:none;stroke:#000000;stroke-linecap:square;stroke-linejoin:miter;"/>
   </g>
   <g id="matplotlib.axis_1">
    <g id="xtick_1">
     <g id="line2d_5">
      <defs>
       <path d="M 0 0 
L 0 -4 
" id="m382b969e72" style="stroke:#000000;stroke-width:0.5;"/>
      </defs>
      <g>
       <use style="stroke:#000000;stroke-width:0.5;" x="112.857815" xlink:href="#m382b969e72" y="324"/>
      </g>
     </g>
     <g id="line2d_6">
      <defs>
       <path d="M 0 0 
L 0 4 
" id="mde030b27b5" style="stroke:#000000;stroke-width:0.5;"/>
      </defs>
      <g>
       <use style="stroke:#000000;stroke-width:0.5;" x="112.857815" xlink:href="#mde030b27b5" y="36"/>
      </g>
     </g>
     <g id="text_1">
      <!-- 0 -->
      <defs>
       <path d="M 31.78125 66.40625 
Q 24.171875 66.40625 20.328125 58.90625 
Q 16.5 51.421875 16.5 36.375 
Q 16.5 21.390625 20.328125 13.890625 
Q 24.171875 6.390625 31.78125 6.390625 
Q 39.453125 6.390625 43.28125 13.890625 
Q 47.125 21.390625 47.125 36.375 
Q 47.125 51.421875 43.28125 58.90625 
Q 39.453125 66.40625 31.78125 66.40625 
z
M 31.78125 74.21875 
Q 44.046875 74.21875 50.515625 64.515625 
Q 56.984375 54.828125 56.984375 36.375 
Q 56.984375 17.96875 50.515625 8.265625 
Q 44.046875 -1.421875 31.78125 -1.421875 
Q 19.53125 -1.421875 13.0625 8.265625 
Q 6.59375 17.96875 6.59375 36.375 
Q 6.59375 54.828125 13.0625 64.515625 
Q 19.53125 74.21875 31.78125 74.21875 
z
" id="DejaVuSans-48"/>
      </defs>
      <g transform="translate(109.040315 337.118125)scale(0.12 -0.12)">
       <use xlink:href="#DejaVuSans-48"/>
      </g>
     </g>
    </g>
    <g id="xtick_2">
     <g id="line2d_7">
      <g>
       <use style="stroke:#000000;stroke-width:0.5;" x="166.53001" xlink:href="#m382b969e72" y="324"/>
      </g>
     </g>
     <g id="line2d_8">
      <g>
       <use style="stroke:#000000;stroke-width:0.5;" x="166.53001" xlink:href="#mde030b27b5" y="36"/>
      </g>
     </g>
     <g id="text_2">
      <!-- 15 -->
      <defs>
       <path d="M 12.40625 8.296875 
L 28.515625 8.296875 
L 28.515625 63.921875 
L 10.984375 60.40625 
L 10.984375 69.390625 
L 28.421875 72.90625 
L 38.28125 72.90625 
L 38.28125 8.296875 
L 54.390625 8.296875 
L 54.390625 0 
L 12.40625 0 
z
" id="DejaVuSans-49"/>
       <path d="M 10.796875 72.90625 
L 49.515625 72.90625 
L 49.515625 64.59375 
L 19.828125 64.59375 
L 19.828125 46.734375 
Q 21.96875 47.46875 24.109375 47.828125 
Q 26.265625 48.1875 28.421875 48.1875 
Q 40.625 48.1875 47.75 41.5 
Q 54.890625 34.8125 54.890625 23.390625 
Q 54.890625 11.625 47.5625 5.09375 
Q 40.234375 -1.421875 26.90625 -1.421875 
Q 22.3125 -1.421875 17.546875 -0.640625 
Q 12.796875 0.140625 7.71875 1.703125 
L 7.71875 11.625 
Q 12.109375 9.234375 16.796875 8.0625 
Q 21.484375 6.890625 26.703125 6.890625 
Q 35.15625 6.890625 40.078125 11.328125 
Q 45.015625 15.765625 45.015625 23.390625 
Q 45.015625 31 40.078125 35.4375 
Q 35.15625 39.890625 26.703125 39.890625 
Q 22.75 39.890625 18.8125 39.015625 
Q 14.890625 38.140625 10.796875 36.28125 
z
" id="DejaVuSans-53"/>
      </defs>
      <g transform="translate(158.89501 337.118125)scale(0.12 -0.12)">
       <use xlink:href="#DejaVuSans-49"/>
       <use x="63.623047" xlink:href="#DejaVuSans-53"/>
      </g>
     </g>
    </g>
    <g id="xtick_3">
     <g id="line2d_9">
      <g>
       <use style="stroke:#000000;stroke-width:0.5;" x="220.202206" xlink:href="#m382b969e72" y="324"/>
      </g>
     </g>
     <g id="line2d_10">
      <g>
       <use style="stroke:#000000;stroke-width:0.5;" x="220.202206" xlink:href="#mde030b27b5" y="36"/>
      </g>
     </g>
     <g id="text_3">
      <!-- 30 -->
      <defs>
       <path d="M 40.578125 39.3125 
Q 47.65625 37.796875 51.625 33 
Q 55.609375 28.21875 55.609375 21.1875 
Q 55.609375 10.40625 48.1875 4.484375 
Q 40.765625 -1.421875 27.09375 -1.421875 
Q 22.515625 -1.421875 17.65625 -0.515625 
Q 12.796875 0.390625 7.625 2.203125 
L 7.625 11.71875 
Q 11.71875 9.328125 16.59375 8.109375 
Q 21.484375 6.890625 26.8125 6.890625 
Q 36.078125 6.890625 40.9375 10.546875 
Q 45.796875 14.203125 45.796875 21.1875 
Q 45.796875 27.640625 41.28125 31.265625 
Q 36.765625 34.90625 28.71875 34.90625 
L 20.21875 34.90625 
L 20.21875 43.015625 
L 29.109375 43.015625 
Q 36.375 43.015625 40.234375 45.921875 
Q 44.09375 48.828125 44.09375 54.296875 
Q 44.09375 59.90625 40.109375 62.90625 
Q 36.140625 65.921875 28.71875 65.921875 
Q 24.65625 65.921875 20.015625 65.03125 
Q 15.375 64.15625 9.8125 62.3125 
L 9.8125 71.09375 
Q 15.4375 72.65625 20.34375 73.4375 
Q 25.25 74.21875 29.59375 74.21875 
Q 40.828125 74.21875 47.359375 69.109375 
Q 53.90625 64.015625 53.90625 55.328125 
Q 53.90625 49.265625 50.4375 45.09375 
Q 46.96875 40.921875 40.578125 39.3125 
z
" id="DejaVuSans-51"/>
      </defs>
      <g transform="translate(212.567206 337.118125)scale(0.12 -0.12)">
       <use xlink:href="#DejaVuSans-51"/>
       <use x="63.623047" xlink:href="#DejaVuSans-48"/>
      </g>
     </g>
    </g>
    <g id="xtick_4">
     <g id="line2d_11">
      <g>
       <use style="stroke:#000000;stroke-width:0.5;" x="273.874402" xlink:href="#m382b969e72" y="324"/>
      </g>
     </g>
     <g id="line2d_12">
      <g>
       <use style="stroke:#000000;stroke-width:0.5;" x="273.874402" xlink:href="#mde030b27b5" y="36"/>
      </g>
     </g>
     <g id="text_4">
      <!-- 45 -->
      <defs>
       <path d="M 37.796875 64.3125 
L 12.890625 25.390625 
L 37.796875 25.390625 
z
M 35.203125 72.90625 
L 47.609375 72.90625 
L 47.609375 25.390625 
L 58.015625 25.390625 
L 58.015625 17.1875 
L 47.609375 17.1875 
L 47.609375 0 
L 37.796875 0 
L 37.796875 17.1875 
L 4.890625 17.1875 
L 4.890625 26.703125 
z
" id="DejaVuSans-52"/>
      </defs>
      <g transform="translate(266.239402 337.118125)scale(0.12 -0.12)">
       <use xlink:href="#DejaVuSans-52"/>
       <use x="63.623047" xlink:href="#DejaVuSans-53"/>
      </g>
     </g>
    </g>
    <g id="xtick_5">
     <g id="line2d_13">
      <g>
       <use style="stroke:#000000;stroke-width:0.5;" x="327.546597" xlink:href="#m382b969e72" y="324"/>
      </g>
     </g>
     <g id="line2d_14">
      <g>
       <use style="stroke:#000000;stroke-width:0.5;" x="327.546597" xlink:href="#mde030b27b5" y="36"/>
      </g>
     </g>
     <g id="text_5">
      <!-- 60 -->
      <defs>
       <path d="M 33.015625 40.375 
Q 26.375 40.375 22.484375 35.828125 
Q 18.609375 31.296875 18.609375 23.390625 
Q 18.609375 15.53125 22.484375 10.953125 
Q 26.375 6.390625 33.015625 6.390625 
Q 39.65625 6.390625 43.53125 10.953125 
Q 47.40625 15.53125 47.40625 23.390625 
Q 47.40625 31.296875 43.53125 35.828125 
Q 39.65625 40.375 33.015625 40.375 
z
M 52.59375 71.296875 
L 52.59375 62.3125 
Q 48.875 64.0625 45.09375 64.984375 
Q 41.3125 65.921875 37.59375 65.921875 
Q 27.828125 65.921875 22.671875 59.328125 
Q 17.53125 52.734375 16.796875 39.40625 
Q 19.671875 43.65625 24.015625 45.921875 
Q 28.375 48.1875 33.59375 48.1875 
Q 44.578125 48.1875 50.953125 41.515625 
Q 57.328125 34.859375 57.328125 23.390625 
Q 57.328125 12.15625 50.6875 5.359375 
Q 44.046875 -1.421875 33.015625 -1.421875 
Q 20.359375 -1.421875 13.671875 8.265625 
Q 6.984375 17.96875 6.984375 36.375 
Q 6.984375 53.65625 15.1875 63.9375 
Q 23.390625 74.21875 37.203125 74.21875 
Q 40.921875 74.21875 44.703125 73.484375 
Q 48.484375 72.75 52.59375 71.296875 
z
" id="DejaVuSans-54"/>
      </defs>
      <g transform="translate(319.911597 337.118125)scale(0.12 -0.12)">
       <use xlink:href="#DejaVuSans-54"/>
       <use x="63.623047" xlink:href="#DejaVuSans-48"/>
      </g>
     </g>
    </g>
    <g id="xtick_6">
     <g id="line2d_15">
      <g>
       <use style="stroke:#000000;stroke-width:0.5;" x="381.218793" xlink:href="#m382b969e72" y="324"/>
      </g>
     </g>
     <g id="line2d_16">
      <g>
       <use style="stroke:#000000;stroke-width:0.5;" x="381.218793" xlink:href="#mde030b27b5" y="36"/>
      </g>
     </g>
     <g id="text_6">
      <!-- 75 -->
      <defs>
       <path d="M 8.203125 72.90625 
L 55.078125 72.90625 
L 55.078125 68.703125 
L 28.609375 0 
L 18.3125 0 
L 43.21875 64.59375 
L 8.203125 64.59375 
z
" id="DejaVuSans-55"/>
      </defs>
      <g transform="translate(373.583793 337.118125)scale(0.12 -0.12)">
       <use xlink:href="#DejaVuSans-55"/>
       <use x="63.623047" xlink:href="#DejaVuSans-53"/>
      </g>
     </g>
    </g>
    <g id="xtick_7">
     <g id="line2d_17">
      <g>
       <use style="stroke:#000000;stroke-width:0.5;" x="434.890988" xlink:href="#m382b969e72" y="324"/>
      </g>
     </g>
     <g id="line2d_18">
      <g>
       <use style="stroke:#000000;stroke-width:0.5;" x="434.890988" xlink:href="#mde030b27b5" y="36"/>
      </g>
     </g>
     <g id="text_7">
      <!-- 90 -->
      <defs>
       <path d="M 10.984375 1.515625 
L 10.984375 10.5 
Q 14.703125 8.734375 18.5 7.8125 
Q 22.3125 6.890625 25.984375 6.890625 
Q 35.75 6.890625 40.890625 13.453125 
Q 46.046875 20.015625 46.78125 33.40625 
Q 43.953125 29.203125 39.59375 26.953125 
Q 35.25 24.703125 29.984375 24.703125 
Q 19.046875 24.703125 12.671875 31.3125 
Q 6.296875 37.9375 6.296875 49.421875 
Q 6.296875 60.640625 12.9375 67.421875 
Q 19.578125 74.21875 30.609375 74.21875 
Q 43.265625 74.21875 49.921875 64.515625 
Q 56.59375 54.828125 56.59375 36.375 
Q 56.59375 19.140625 48.40625 8.859375 
Q 40.234375 -1.421875 26.421875 -1.421875 
Q 22.703125 -1.421875 18.890625 -0.6875 
Q 15.09375 0.046875 10.984375 1.515625 
z
M 30.609375 32.421875 
Q 37.25 32.421875 41.125 36.953125 
Q 45.015625 41.5 45.015625 49.421875 
Q 45.015625 57.28125 41.125 61.84375 
Q 37.25 66.40625 30.609375 66.40625 
Q 23.96875 66.40625 20.09375 61.84375 
Q 16.21875 57.28125 16.21875 49.421875 
Q 16.21875 41.5 20.09375 36.953125 
Q 23.96875 32.421875 30.609375 32.421875 
z
" id="DejaVuSans-57"/>
      </defs>
      <g transform="translate(427.255988 337.118125)scale(0.12 -0.12)">
       <use xlink:href="#DejaVuSans-57"/>
       <use x="63.623047" xlink:href="#DejaVuSans-48"/>
      </g>
     </g>
    </g>
    <g id="xtick_8">
     <g id="line2d_19">
      <g>
       <use style="stroke:#000000;stroke-width:0.5;" x="488.563184" xlink:href="#m382b969e72" y="324"/>
      </g>
     </g>
     <g id="line2d_20">
      <g>
       <use style="stroke:#000000;stroke-width:0.5;" x="488.563184" xlink:href="#mde030b27b5" y="36"/>
      </g>
     </g>
     <g id="text_8">
      <!-- 105 -->
      <g transform="translate(477.110684 337.118125)scale(0.12 -0.12)">
       <use xlink:href="#DejaVuSans-49"/>
       <use x="63.623047" xlink:href="#DejaVuSans-48"/>
       <use x="127.246094" xlink:href="#DejaVuSans-53"/>
      </g>
     </g>
    </g>
    <g id="xtick_9">
     <g id="line2d_21">
      <g>
       <use style="stroke:#000000;stroke-width:0.5;" x="542.23538" xlink:href="#m382b969e72" y="324"/>
      </g>
     </g>
     <g id="line2d_22">
      <g>
       <use style="stroke:#000000;stroke-width:0.5;" x="542.23538" xlink:href="#mde030b27b5" y="36"/>
      </g>
     </g>
     <g id="text_9">
      <!-- 120 -->
      <defs>
       <path d="M 19.1875 8.296875 
L 53.609375 8.296875 
L 53.609375 0 
L 7.328125 0 
L 7.328125 8.296875 
Q 12.9375 14.109375 22.625 23.890625 
Q 32.328125 33.6875 34.8125 36.53125 
Q 39.546875 41.84375 41.421875 45.53125 
Q 43.3125 49.21875 43.3125 52.78125 
Q 43.3125 58.59375 39.234375 62.25 
Q 35.15625 65.921875 28.609375 65.921875 
Q 23.96875 65.921875 18.8125 64.3125 
Q 13.671875 62.703125 7.8125 59.421875 
L 7.8125 69.390625 
Q 13.765625 71.78125 18.9375 73 
Q 24.125 74.21875 28.421875 74.21875 
Q 39.75 74.21875 46.484375 68.546875 
Q 53.21875 62.890625 53.21875 53.421875 
Q 53.21875 48.921875 51.53125 44.890625 
Q 49.859375 40.875 45.40625 35.40625 
Q 44.1875 33.984375 37.640625 27.21875 
Q 31.109375 20.453125 19.1875 8.296875 
z
" id="DejaVuSans-50"/>
      </defs>
      <g transform="translate(530.78288 337.118125)scale(0.12 -0.12)">
       <use xlink:href="#DejaVuSans-49"/>
       <use x="63.623047" xlink:href="#DejaVuSans-50"/>
       <use x="127.246094" xlink:href="#DejaVuSans-48"/>
      </g>
     </g>
    </g>
    <g id="xtick_10">
     <g id="line2d_23">
      <g>
       <use style="stroke:#000000;stroke-width:0.5;" x="595.907575" xlink:href="#m382b969e72" y="324"/>
      </g>
     </g>
     <g id="line2d_24">
      <g>
       <use style="stroke:#000000;stroke-width:0.5;" x="595.907575" xlink:href="#mde030b27b5" y="36"/>
      </g>
     </g>
     <g id="text_10">
      <!-- 135 -->
      <g transform="translate(584.455075 337.118125)scale(0.12 -0.12)">
       <use xlink:href="#DejaVuSans-49"/>
       <use x="63.623047" xlink:href="#DejaVuSans-51"/>
       <use x="127.246094" xlink:href="#DejaVuSans-53"/>
      </g>
     </g>
    </g>
    <g id="text_11">
     <!-- generation -->
     <defs>
      <path d="M 45.40625 27.984375 
Q 45.40625 37.75 41.375 43.109375 
Q 37.359375 48.484375 30.078125 48.484375 
Q 22.859375 48.484375 18.828125 43.109375 
Q 14.796875 37.75 14.796875 27.984375 
Q 14.796875 18.265625 18.828125 12.890625 
Q 22.859375 7.515625 30.078125 7.515625 
Q 37.359375 7.515625 41.375 12.890625 
Q 45.40625 18.265625 45.40625 27.984375 
z
M 54.390625 6.78125 
Q 54.390625 -7.171875 48.1875 -13.984375 
Q 42 -20.796875 29.203125 -20.796875 
Q 24.46875 -20.796875 20.265625 -20.09375 
Q 16.0625 -19.390625 12.109375 -17.921875 
L 12.109375 -9.1875 
Q 16.0625 -11.328125 19.921875 -12.34375 
Q 23.78125 -13.375 27.78125 -13.375 
Q 36.625 -13.375 41.015625 -8.765625 
Q 45.40625 -4.15625 45.40625 5.171875 
L 45.40625 9.625 
Q 42.625 4.78125 38.28125 2.390625 
Q 33.9375 0 27.875 0 
Q 17.828125 0 11.671875 7.65625 
Q 5.515625 15.328125 5.515625 27.984375 
Q 5.515625 40.671875 11.671875 48.328125 
Q 17.828125 56 27.875 56 
Q 33.9375 56 38.28125 53.609375 
Q 42.625 51.21875 45.40625 46.390625 
L 45.40625 54.6875 
L 54.390625 54.6875 
z
" id="DejaVuSans-103"/>
      <path d="M 56.203125 29.59375 
L 56.203125 25.203125 
L 14.890625 25.203125 
Q 15.484375 15.921875 20.484375 11.0625 
Q 25.484375 6.203125 34.421875 6.203125 
Q 39.59375 6.203125 44.453125 7.46875 
Q 49.3125 8.734375 54.109375 11.28125 
L 54.109375 2.78125 
Q 49.265625 0.734375 44.1875 -0.34375 
Q 39.109375 -1.421875 33.890625 -1.421875 
Q 20.796875 -1.421875 13.15625 6.1875 
Q 5.515625 13.8125 5.515625 26.8125 
Q 5.515625 40.234375 12.765625 48.109375 
Q 20.015625 56 32.328125 56 
Q 43.359375 56 49.78125 48.890625 
Q 56.203125 41.796875 56.203125 29.59375 
z
M 47.21875 32.234375 
Q 47.125 39.59375 43.09375 43.984375 
Q 39.0625 48.390625 32.421875 48.390625 
Q 24.90625 48.390625 20.390625 44.140625 
Q 15.875 39.890625 15.1875 32.171875 
z
" id="DejaVuSans-101"/>
      <path d="M 54.890625 33.015625 
L 54.890625 0 
L 45.90625 0 
L 45.90625 32.71875 
Q 45.90625 40.484375 42.875 44.328125 
Q 39.84375 48.1875 33.796875 48.1875 
Q 26.515625 48.1875 22.3125 43.546875 
Q 18.109375 38.921875 18.109375 30.90625 
L 18.109375 0 
L 9.078125 0 
L 9.078125 54.6875 
L 18.109375 54.6875 
L 18.109375 46.1875 
Q 21.34375 51.125 25.703125 53.5625 
Q 30.078125 56 35.796875 56 
Q 45.21875 56 50.046875 50.171875 
Q 54.890625 44.34375 54.890625 33.015625 
z
" id="DejaVuSans-110"/>
      <path d="M 41.109375 46.296875 
Q 39.59375 47.171875 37.8125 47.578125 
Q 36.03125 48 33.890625 48 
Q 26.265625 48 22.1875 43.046875 
Q 18.109375 38.09375 18.109375 28.8125 
L 18.109375 0 
L 9.078125 0 
L 9.078125 54.6875 
L 18.109375 54.6875 
L 18.109375 46.1875 
Q 20.953125 51.171875 25.484375 53.578125 
Q 30.03125 56 36.53125 56 
Q 37.453125 56 38.578125 55.875 
Q 39.703125 55.765625 41.0625 55.515625 
z
" id="DejaVuSans-114"/>
      <path d="M 34.28125 27.484375 
Q 23.390625 27.484375 19.1875 25 
Q 14.984375 22.515625 14.984375 16.5 
Q 14.984375 11.71875 18.140625 8.90625 
Q 21.296875 6.109375 26.703125 6.109375 
Q 34.1875 6.109375 38.703125 11.40625 
Q 43.21875 16.703125 43.21875 25.484375 
L 43.21875 27.484375 
z
M 52.203125 31.203125 
L 52.203125 0 
L 43.21875 0 
L 43.21875 8.296875 
Q 40.140625 3.328125 35.546875 0.953125 
Q 30.953125 -1.421875 24.3125 -1.421875 
Q 15.921875 -1.421875 10.953125 3.296875 
Q 6 8.015625 6 15.921875 
Q 6 25.140625 12.171875 29.828125 
Q 18.359375 34.515625 30.609375 34.515625 
L 43.21875 34.515625 
L 43.21875 35.40625 
Q 43.21875 41.609375 39.140625 45 
Q 35.0625 48.390625 27.6875 48.390625 
Q 23 48.390625 18.546875 47.265625 
Q 14.109375 46.140625 10.015625 43.890625 
L 10.015625 52.203125 
Q 14.9375 54.109375 19.578125 55.046875 
Q 24.21875 56 28.609375 56 
Q 40.484375 56 46.34375 49.84375 
Q 52.203125 43.703125 52.203125 31.203125 
z
" id="DejaVuSans-97"/>
      <path d="M 18.3125 70.21875 
L 18.3125 54.6875 
L 36.8125 54.6875 
L 36.8125 47.703125 
L 18.3125 47.703125 
L 18.3125 18.015625 
Q 18.3125 11.328125 20.140625 9.421875 
Q 21.96875 7.515625 27.59375 7.515625 
L 36.8125 7.515625 
L 36.8125 0 
L 27.59375 0 
Q 17.1875 0 13.234375 3.875 
Q 9.28125 7.765625 9.28125 18.015625 
L 9.28125 47.703125 
L 2.6875 47.703125 
L 2.6875 54.6875 
L 9.28125 54.6875 
L 9.28125 70.21875 
z
" id="DejaVuSans-116"/>
      <path d="M 9.421875 54.6875 
L 18.40625 54.6875 
L 18.40625 0 
L 9.421875 0 
z
M 9.421875 75.984375 
L 18.40625 75.984375 
L 18.40625 64.59375 
L 9.421875 64.59375 
z
" id="DejaVuSans-105"/>
      <path d="M 30.609375 48.390625 
Q 23.390625 48.390625 19.1875 42.75 
Q 14.984375 37.109375 14.984375 27.296875 
Q 14.984375 17.484375 19.15625 11.84375 
Q 23.34375 6.203125 30.609375 6.203125 
Q 37.796875 6.203125 41.984375 11.859375 
Q 46.1875 17.53125 46.1875 27.296875 
Q 46.1875 37.015625 41.984375 42.703125 
Q 37.796875 48.390625 30.609375 48.390625 
z
M 30.609375 56 
Q 42.328125 56 49.015625 48.375 
Q 55.71875 40.765625 55.71875 27.296875 
Q 55.71875 13.875 49.015625 6.21875 
Q 42.328125 -1.421875 30.609375 -1.421875 
Q 18.84375 -1.421875 12.171875 6.21875 
Q 5.515625 13.875 5.515625 27.296875 
Q 5.515625 40.765625 12.171875 48.375 
Q 18.84375 56 30.609375 56 
z
" id="DejaVuSans-111"/>
     </defs>
     <g transform="translate(341.430938 353.731875)scale(0.12 -0.12)">
      <use xlink:href="#DejaVuSans-103"/>
      <use x="63.476562" xlink:href="#DejaVuSans-101"/>
      <use x="125" xlink:href="#DejaVuSans-110"/>
      <use x="188.378906" xlink:href="#DejaVuSans-101"/>
      <use x="249.902344" xlink:href="#DejaVuSans-114"/>
      <use x="291.015625" xlink:href="#DejaVuSans-97"/>
      <use x="352.294922" xlink:href="#DejaVuSans-116"/>
      <use x="391.503906" xlink:href="#DejaVuSans-105"/>
      <use x="419.287109" xlink:href="#DejaVuSans-111"/>
      <use x="480.46875" xlink:href="#DejaVuSans-110"/>
     </g>
    </g>
   </g>
   <g id="matplotlib.axis_2">
    <g id="ytick_1">
     <g id="line2d_25">
      <defs>
       <path d="M 0 0 
L 4 0 
" id="m02f2a89868" style="stroke:#000000;stroke-width:0.5;"/>
      </defs>
      <g>
       <use style="stroke:#000000;stroke-width:0.5;" x="112.5" xlink:href="#m02f2a89868" y="324"/>
      </g>
     </g>
     <g id="line2d_26">
      <defs>
       <path d="M 0 0 
L -4 0 
" id="m9c6c0b87a7" style="stroke:#000000;stroke-width:0.5;"/>
      </defs>
      <g>
       <use style="stroke:#000000;stroke-width:0.5;" x="635.625" xlink:href="#m9c6c0b87a7" y="324"/>
      </g>
     </g>
     <g id="text_12">
      <!-- 0.905 -->
      <defs>
       <path d="M 10.6875 12.40625 
L 21 12.40625 
L 21 0 
L 10.6875 0 
z
" id="DejaVuSans-46"/>
      </defs>
      <g transform="translate(74.14625 327.31125)scale(0.12 -0.12)">
       <use xlink:href="#DejaVuSans-48"/>
       <use x="63.623047" xlink:href="#DejaVuSans-46"/>
       <use x="95.410156" xlink:href="#DejaVuSans-57"/>
       <use x="159.033203" xlink:href="#DejaVuSans-48"/>
       <use x="222.65625" xlink:href="#DejaVuSans-53"/>
      </g>
     </g>
    </g>
    <g id="ytick_2">
     <g id="line2d_27">
      <g>
       <use style="stroke:#000000;stroke-width:0.5;" x="112.5" xlink:href="#m02f2a89868" y="288"/>
      </g>
     </g>
     <g id="line2d_28">
      <g>
       <use style="stroke:#000000;stroke-width:0.5;" x="635.625" xlink:href="#m9c6c0b87a7" y="288"/>
      </g>
     </g>
     <g id="text_13">
      <!-- 0.910 -->
      <g transform="translate(74.14625 291.31125)scale(0.12 -0.12)">
       <use xlink:href="#DejaVuSans-48"/>
       <use x="63.623047" xlink:href="#DejaVuSans-46"/>
       <use x="95.410156" xlink:href="#DejaVuSans-57"/>
       <use x="159.033203" xlink:href="#DejaVuSans-49"/>
       <use x="222.65625" xlink:href="#DejaVuSans-48"/>
      </g>
     </g>
    </g>
    <g id="ytick_3">
     <g id="line2d_29">
      <g>
       <use style="stroke:#000000;stroke-width:0.5;" x="112.5" xlink:href="#m02f2a89868" y="252"/>
      </g>
     </g>
     <g id="line2d_30">
      <g>
       <use style="stroke:#000000;stroke-width:0.5;" x="635.625" xlink:href="#m9c6c0b87a7" y="252"/>
      </g>
     </g>
     <g id="text_14">
      <!-- 0.915 -->
      <g transform="translate(74.14625 255.31125)scale(0.12 -0.12)">
       <use xlink:href="#DejaVuSans-48"/>
       <use x="63.623047" xlink:href="#DejaVuSans-46"/>
       <use x="95.410156" xlink:href="#DejaVuSans-57"/>
       <use x="159.033203" xlink:href="#DejaVuSans-49"/>
       <use x="222.65625" xlink:href="#DejaVuSans-53"/>
      </g>
     </g>
    </g>
    <g id="ytick_4">
     <g id="line2d_31">
      <g>
       <use style="stroke:#000000;stroke-width:0.5;" x="112.5" xlink:href="#m02f2a89868" y="216"/>
      </g>
     </g>
     <g id="line2d_32">
      <g>
       <use style="stroke:#000000;stroke-width:0.5;" x="635.625" xlink:href="#m9c6c0b87a7" y="216"/>
      </g>
     </g>
     <g id="text_15">
      <!-- 0.920 -->
      <g transform="translate(74.14625 219.31125)scale(0.12 -0.12)">
       <use xlink:href="#DejaVuSans-48"/>
       <use x="63.623047" xlink:href="#DejaVuSans-46"/>
       <use x="95.410156" xlink:href="#DejaVuSans-57"/>
       <use x="159.033203" xlink:href="#DejaVuSans-50"/>
       <use x="222.65625" xlink:href="#DejaVuSans-48"/>
      </g>
     </g>
    </g>
    <g id="ytick_5">
     <g id="line2d_33">
      <g>
       <use style="stroke:#000000;stroke-width:0.5;" x="112.5" xlink:href="#m02f2a89868" y="180"/>
      </g>
     </g>
     <g id="line2d_34">
      <g>
       <use style="stroke:#000000;stroke-width:0.5;" x="635.625" xlink:href="#m9c6c0b87a7" y="180"/>
      </g>
     </g>
     <g id="text_16">
      <!-- 0.925 -->
      <g transform="translate(74.14625 183.31125)scale(0.12 -0.12)">
       <use xlink:href="#DejaVuSans-48"/>
       <use x="63.623047" xlink:href="#DejaVuSans-46"/>
       <use x="95.410156" xlink:href="#DejaVuSans-57"/>
       <use x="159.033203" xlink:href="#DejaVuSans-50"/>
       <use x="222.65625" xlink:href="#DejaVuSans-53"/>
      </g>
     </g>
    </g>
    <g id="ytick_6">
     <g id="line2d_35">
      <g>
       <use style="stroke:#000000;stroke-width:0.5;" x="112.5" xlink:href="#m02f2a89868" y="144"/>
      </g>
     </g>
     <g id="line2d_36">
      <g>
       <use style="stroke:#000000;stroke-width:0.5;" x="635.625" xlink:href="#m9c6c0b87a7" y="144"/>
      </g>
     </g>
     <g id="text_17">
      <!-- 0.930 -->
      <g transform="translate(74.14625 147.31125)scale(0.12 -0.12)">
       <use xlink:href="#DejaVuSans-48"/>
       <use x="63.623047" xlink:href="#DejaVuSans-46"/>
       <use x="95.410156" xlink:href="#DejaVuSans-57"/>
       <use x="159.033203" xlink:href="#DejaVuSans-51"/>
       <use x="222.65625" xlink:href="#DejaVuSans-48"/>
      </g>
     </g>
    </g>
    <g id="ytick_7">
     <g id="line2d_37">
      <g>
       <use style="stroke:#000000;stroke-width:0.5;" x="112.5" xlink:href="#m02f2a89868" y="108"/>
      </g>
     </g>
     <g id="line2d_38">
      <g>
       <use style="stroke:#000000;stroke-width:0.5;" x="635.625" xlink:href="#m9c6c0b87a7" y="108"/>
      </g>
     </g>
     <g id="text_18">
      <!-- 0.935 -->
      <g transform="translate(74.14625 111.31125)scale(0.12 -0.12)">
       <use xlink:href="#DejaVuSans-48"/>
       <use x="63.623047" xlink:href="#DejaVuSans-46"/>
       <use x="95.410156" xlink:href="#DejaVuSans-57"/>
       <use x="159.033203" xlink:href="#DejaVuSans-51"/>
       <use x="222.65625" xlink:href="#DejaVuSans-53"/>
      </g>
     </g>
    </g>
    <g id="ytick_8">
     <g id="line2d_39">
      <g>
       <use style="stroke:#000000;stroke-width:0.5;" x="112.5" xlink:href="#m02f2a89868" y="72"/>
      </g>
     </g>
     <g id="line2d_40">
      <g>
       <use style="stroke:#000000;stroke-width:0.5;" x="635.625" xlink:href="#m9c6c0b87a7" y="72"/>
      </g>
     </g>
     <g id="text_19">
      <!-- 0.940 -->
      <g transform="translate(74.14625 75.31125)scale(0.12 -0.12)">
       <use xlink:href="#DejaVuSans-48"/>
       <use x="63.623047" xlink:href="#DejaVuSans-46"/>
       <use x="95.410156" xlink:href="#DejaVuSans-57"/>
       <use x="159.033203" xlink:href="#DejaVuSans-52"/>
       <use x="222.65625" xlink:href="#DejaVuSans-48"/>
      </g>
     </g>
    </g>
    <g id="ytick_9">
     <g id="line2d_41">
      <g>
       <use style="stroke:#000000;stroke-width:0.5;" x="112.5" xlink:href="#m02f2a89868" y="36"/>
      </g>
     </g>
     <g id="line2d_42">
      <g>
       <use style="stroke:#000000;stroke-width:0.5;" x="635.625" xlink:href="#m9c6c0b87a7" y="36"/>
      </g>
     </g>
     <g id="text_20">
      <!-- 0.945 -->
      <g transform="translate(74.14625 39.31125)scale(0.12 -0.12)">
       <use xlink:href="#DejaVuSans-48"/>
       <use x="63.623047" xlink:href="#DejaVuSans-46"/>
       <use x="95.410156" xlink:href="#DejaVuSans-57"/>
       <use x="159.033203" xlink:href="#DejaVuSans-52"/>
       <use x="222.65625" xlink:href="#DejaVuSans-53"/>
      </g>
     </g>
    </g>
    <g id="text_21">
     <!-- accuracy -->
     <defs>
      <path d="M 48.78125 52.59375 
L 48.78125 44.1875 
Q 44.96875 46.296875 41.140625 47.34375 
Q 37.3125 48.390625 33.40625 48.390625 
Q 24.65625 48.390625 19.8125 42.84375 
Q 14.984375 37.3125 14.984375 27.296875 
Q 14.984375 17.28125 19.8125 11.734375 
Q 24.65625 6.203125 33.40625 6.203125 
Q 37.3125 6.203125 41.140625 7.25 
Q 44.96875 8.296875 48.78125 10.40625 
L 48.78125 2.09375 
Q 45.015625 0.34375 40.984375 -0.53125 
Q 36.96875 -1.421875 32.421875 -1.421875 
Q 20.0625 -1.421875 12.78125 6.34375 
Q 5.515625 14.109375 5.515625 27.296875 
Q 5.515625 40.671875 12.859375 48.328125 
Q 20.21875 56 33.015625 56 
Q 37.15625 56 41.109375 55.140625 
Q 45.0625 54.296875 48.78125 52.59375 
z
" id="DejaVuSans-99"/>
      <path d="M 8.5 21.578125 
L 8.5 54.6875 
L 17.484375 54.6875 
L 17.484375 21.921875 
Q 17.484375 14.15625 20.5 10.265625 
Q 23.53125 6.390625 29.59375 6.390625 
Q 36.859375 6.390625 41.078125 11.03125 
Q 45.3125 15.671875 45.3125 23.6875 
L 45.3125 54.6875 
L 54.296875 54.6875 
L 54.296875 0 
L 45.3125 0 
L 45.3125 8.40625 
Q 42.046875 3.421875 37.71875 1 
Q 33.40625 -1.421875 27.6875 -1.421875 
Q 18.265625 -1.421875 13.375 4.4375 
Q 8.5 10.296875 8.5 21.578125 
z
M 31.109375 56 
z
" id="DejaVuSans-117"/>
      <path d="M 32.171875 -5.078125 
Q 28.375 -14.84375 24.75 -17.8125 
Q 21.140625 -20.796875 15.09375 -20.796875 
L 7.90625 -20.796875 
L 7.90625 -13.28125 
L 13.1875 -13.28125 
Q 16.890625 -13.28125 18.9375 -11.515625 
Q 21 -9.765625 23.484375 -3.21875 
L 25.09375 0.875 
L 2.984375 54.6875 
L 12.5 54.6875 
L 29.59375 11.921875 
L 46.6875 54.6875 
L 56.203125 54.6875 
z
" id="DejaVuSans-121"/>
     </defs>
     <g transform="translate(66.650625 207.07125)rotate(-90)scale(0.12 -0.12)">
      <use xlink:href="#DejaVuSans-97"/>
      <use x="61.279297" xlink:href="#DejaVuSans-99"/>
      <use x="116.259766" xlink:href="#DejaVuSans-99"/>
      <use x="171.240234" xlink:href="#DejaVuSans-117"/>
      <use x="234.619141" xlink:href="#DejaVuSans-114"/>
      <use x="275.732422" xlink:href="#DejaVuSans-97"/>
      <use x="337.011719" xlink:href="#DejaVuSans-99"/>
      <use x="391.992188" xlink:href="#DejaVuSans-121"/>
     </g>
    </g>
   </g>
   <g id="legend_1">
    <g id="patch_7">
     <path d="M 640.623 211.260928 
L 856.794309 211.260928 
L 856.794309 148.739072 
L 640.623 148.739072 
z
" style="fill:#ffffff;stroke:#000000;stroke-linejoin:miter;"/>
    </g>
    <g id="line2d_43">
     <path d="M 647.6202 156.83427 
L 661.6146 156.83427 
" style="fill:none;stroke:#0000ff;stroke-linecap:square;stroke-width:1.2;"/>
    </g>
    <g id="line2d_44"/>
    <g id="text_22">
     <!-- Crossover -->
     <defs>
      <path d="M 64.40625 67.28125 
L 64.40625 56.890625 
Q 59.421875 61.53125 53.78125 63.8125 
Q 48.140625 66.109375 41.796875 66.109375 
Q 29.296875 66.109375 22.65625 58.46875 
Q 16.015625 50.828125 16.015625 36.375 
Q 16.015625 21.96875 22.65625 14.328125 
Q 29.296875 6.6875 41.796875 6.6875 
Q 48.140625 6.6875 53.78125 8.984375 
Q 59.421875 11.28125 64.40625 15.921875 
L 64.40625 5.609375 
Q 59.234375 2.09375 53.4375 0.328125 
Q 47.65625 -1.421875 41.21875 -1.421875 
Q 24.65625 -1.421875 15.125 8.703125 
Q 5.609375 18.84375 5.609375 36.375 
Q 5.609375 53.953125 15.125 64.078125 
Q 24.65625 74.21875 41.21875 74.21875 
Q 47.75 74.21875 53.53125 72.484375 
Q 59.328125 70.75 64.40625 67.28125 
z
" id="DejaVuSans-67"/>
      <path d="M 44.28125 53.078125 
L 44.28125 44.578125 
Q 40.484375 46.53125 36.375 47.5 
Q 32.28125 48.484375 27.875 48.484375 
Q 21.1875 48.484375 17.84375 46.4375 
Q 14.5 44.390625 14.5 40.28125 
Q 14.5 37.15625 16.890625 35.375 
Q 19.28125 33.59375 26.515625 31.984375 
L 29.59375 31.296875 
Q 39.15625 29.25 43.1875 25.515625 
Q 47.21875 21.78125 47.21875 15.09375 
Q 47.21875 7.46875 41.1875 3.015625 
Q 35.15625 -1.421875 24.609375 -1.421875 
Q 20.21875 -1.421875 15.453125 -0.5625 
Q 10.6875 0.296875 5.421875 2 
L 5.421875 11.28125 
Q 10.40625 8.6875 15.234375 7.390625 
Q 20.0625 6.109375 24.8125 6.109375 
Q 31.15625 6.109375 34.5625 8.28125 
Q 37.984375 10.453125 37.984375 14.40625 
Q 37.984375 18.0625 35.515625 20.015625 
Q 33.0625 21.96875 24.703125 23.78125 
L 21.578125 24.515625 
Q 13.234375 26.265625 9.515625 29.90625 
Q 5.8125 33.546875 5.8125 39.890625 
Q 5.8125 47.609375 11.28125 51.796875 
Q 16.75 56 26.8125 56 
Q 31.78125 56 36.171875 55.265625 
Q 40.578125 54.546875 44.28125 53.078125 
z
" id="DejaVuSans-115"/>
      <path d="M 2.984375 54.6875 
L 12.5 54.6875 
L 29.59375 8.796875 
L 46.6875 54.6875 
L 56.203125 54.6875 
L 35.6875 0 
L 23.484375 0 
z
" id="DejaVuSans-118"/>
     </defs>
     <g transform="translate(672.6102 160.33287)scale(0.09996 -0.09996)">
      <use xlink:href="#DejaVuSans-67"/>
      <use x="69.824219" xlink:href="#DejaVuSans-114"/>
      <use x="108.6875" xlink:href="#DejaVuSans-111"/>
      <use x="169.869141" xlink:href="#DejaVuSans-115"/>
      <use x="221.96875" xlink:href="#DejaVuSans-115"/>
      <use x="274.068359" xlink:href="#DejaVuSans-111"/>
      <use x="335.25" xlink:href="#DejaVuSans-118"/>
      <use x="394.429688" xlink:href="#DejaVuSans-101"/>
      <use x="455.953125" xlink:href="#DejaVuSans-114"/>
     </g>
    </g>
    <g id="line2d_45">
     <path d="M 647.6202 171.506524 
L 661.6146 171.506524 
" style="fill:none;stroke:#008000;stroke-linecap:square;stroke-width:1.2;"/>
    </g>
    <g id="line2d_46"/>
    <g id="text_23">
     <!-- Crossover_activation_optimizer -->
     <defs>
      <path d="M 50.984375 -16.609375 
L 50.984375 -23.578125 
L -0.984375 -23.578125 
L -0.984375 -16.609375 
z
" id="DejaVuSans-95"/>
      <path d="M 18.109375 8.203125 
L 18.109375 -20.796875 
L 9.078125 -20.796875 
L 9.078125 54.6875 
L 18.109375 54.6875 
L 18.109375 46.390625 
Q 20.953125 51.265625 25.265625 53.625 
Q 29.59375 56 35.59375 56 
Q 45.5625 56 51.78125 48.09375 
Q 58.015625 40.1875 58.015625 27.296875 
Q 58.015625 14.40625 51.78125 6.484375 
Q 45.5625 -1.421875 35.59375 -1.421875 
Q 29.59375 -1.421875 25.265625 0.953125 
Q 20.953125 3.328125 18.109375 8.203125 
z
M 48.6875 27.296875 
Q 48.6875 37.203125 44.609375 42.84375 
Q 40.53125 48.484375 33.40625 48.484375 
Q 26.265625 48.484375 22.1875 42.84375 
Q 18.109375 37.203125 18.109375 27.296875 
Q 18.109375 17.390625 22.1875 11.75 
Q 26.265625 6.109375 33.40625 6.109375 
Q 40.53125 6.109375 44.609375 11.75 
Q 48.6875 17.390625 48.6875 27.296875 
z
" id="DejaVuSans-112"/>
      <path d="M 52 44.1875 
Q 55.375 50.25 60.0625 53.125 
Q 64.75 56 71.09375 56 
Q 79.640625 56 84.28125 50.015625 
Q 88.921875 44.046875 88.921875 33.015625 
L 88.921875 0 
L 79.890625 0 
L 79.890625 32.71875 
Q 79.890625 40.578125 77.09375 44.375 
Q 74.3125 48.1875 68.609375 48.1875 
Q 61.625 48.1875 57.5625 43.546875 
Q 53.515625 38.921875 53.515625 30.90625 
L 53.515625 0 
L 44.484375 0 
L 44.484375 32.71875 
Q 44.484375 40.625 41.703125 44.40625 
Q 38.921875 48.1875 33.109375 48.1875 
Q 26.21875 48.1875 22.15625 43.53125 
Q 18.109375 38.875 18.109375 30.90625 
L 18.109375 0 
L 9.078125 0 
L 9.078125 54.6875 
L 18.109375 54.6875 
L 18.109375 46.1875 
Q 21.1875 51.21875 25.484375 53.609375 
Q 29.78125 56 35.6875 56 
Q 41.65625 56 45.828125 52.96875 
Q 50 49.953125 52 44.1875 
z
" id="DejaVuSans-109"/>
      <path d="M 5.515625 54.6875 
L 48.1875 54.6875 
L 48.1875 46.484375 
L 14.40625 7.171875 
L 48.1875 7.171875 
L 48.1875 0 
L 4.296875 0 
L 4.296875 8.203125 
L 38.09375 47.515625 
L 5.515625 47.515625 
z
" id="DejaVuSans-122"/>
     </defs>
     <g transform="translate(672.6102 175.005124)scale(0.09996 -0.09996)">
      <use xlink:href="#DejaVuSans-67"/>
      <use x="69.824219" xlink:href="#DejaVuSans-114"/>
      <use x="108.6875" xlink:href="#DejaVuSans-111"/>
      <use x="169.869141" xlink:href="#DejaVuSans-115"/>
      <use x="221.96875" xlink:href="#DejaVuSans-115"/>
      <use x="274.068359" xlink:href="#DejaVuSans-111"/>
      <use x="335.25" xlink:href="#DejaVuSans-118"/>
      <use x="394.429688" xlink:href="#DejaVuSans-101"/>
      <use x="455.953125" xlink:href="#DejaVuSans-114"/>
      <use x="497.066406" xlink:href="#DejaVuSans-95"/>
      <use x="547.066406" xlink:href="#DejaVuSans-97"/>
      <use x="608.345703" xlink:href="#DejaVuSans-99"/>
      <use x="663.326172" xlink:href="#DejaVuSans-116"/>
      <use x="702.535156" xlink:href="#DejaVuSans-105"/>
      <use x="730.318359" xlink:href="#DejaVuSans-118"/>
      <use x="789.498047" xlink:href="#DejaVuSans-97"/>
      <use x="850.777344" xlink:href="#DejaVuSans-116"/>
      <use x="889.986328" xlink:href="#DejaVuSans-105"/>
      <use x="917.769531" xlink:href="#DejaVuSans-111"/>
      <use x="978.951172" xlink:href="#DejaVuSans-110"/>
      <use x="1042.330078" xlink:href="#DejaVuSans-95"/>
      <use x="1092.330078" xlink:href="#DejaVuSans-111"/>
      <use x="1153.511719" xlink:href="#DejaVuSans-112"/>
      <use x="1216.988281" xlink:href="#DejaVuSans-116"/>
      <use x="1256.197266" xlink:href="#DejaVuSans-105"/>
      <use x="1283.980469" xlink:href="#DejaVuSans-109"/>
      <use x="1381.392578" xlink:href="#DejaVuSans-105"/>
      <use x="1409.175781" xlink:href="#DejaVuSans-122"/>
      <use x="1461.666016" xlink:href="#DejaVuSans-101"/>
      <use x="1523.189453" xlink:href="#DejaVuSans-114"/>
     </g>
    </g>
    <g id="line2d_47">
     <path d="M 647.6202 186.456791 
L 661.6146 186.456791 
" style="fill:none;stroke:#ff0000;stroke-linecap:square;stroke-width:1.2;"/>
    </g>
    <g id="line2d_48"/>
    <g id="text_24">
     <!-- Crossover_Min_Layers -->
     <defs>
      <path d="M 9.8125 72.90625 
L 24.515625 72.90625 
L 43.109375 23.296875 
L 61.8125 72.90625 
L 76.515625 72.90625 
L 76.515625 0 
L 66.890625 0 
L 66.890625 64.015625 
L 48.09375 14.015625 
L 38.1875 14.015625 
L 19.390625 64.015625 
L 19.390625 0 
L 9.8125 0 
z
" id="DejaVuSans-77"/>
      <path d="M 9.8125 72.90625 
L 19.671875 72.90625 
L 19.671875 8.296875 
L 55.171875 8.296875 
L 55.171875 0 
L 9.8125 0 
z
" id="DejaVuSans-76"/>
     </defs>
     <g transform="translate(672.6102 189.955391)scale(0.09996 -0.09996)">
      <use xlink:href="#DejaVuSans-67"/>
      <use x="69.824219" xlink:href="#DejaVuSans-114"/>
      <use x="108.6875" xlink:href="#DejaVuSans-111"/>
      <use x="169.869141" xlink:href="#DejaVuSans-115"/>
      <use x="221.96875" xlink:href="#DejaVuSans-115"/>
      <use x="274.068359" xlink:href="#DejaVuSans-111"/>
      <use x="335.25" xlink:href="#DejaVuSans-118"/>
      <use x="394.429688" xlink:href="#DejaVuSans-101"/>
      <use x="455.953125" xlink:href="#DejaVuSans-114"/>
      <use x="497.066406" xlink:href="#DejaVuSans-95"/>
      <use x="547.066406" xlink:href="#DejaVuSans-77"/>
      <use x="633.345703" xlink:href="#DejaVuSans-105"/>
      <use x="661.128906" xlink:href="#DejaVuSans-110"/>
      <use x="724.507812" xlink:href="#DejaVuSans-95"/>
      <use x="774.507812" xlink:href="#DejaVuSans-76"/>
      <use x="830.220703" xlink:href="#DejaVuSans-97"/>
      <use x="891.5" xlink:href="#DejaVuSans-121"/>
      <use x="950.679688" xlink:href="#DejaVuSans-101"/>
      <use x="1012.203125" xlink:href="#DejaVuSans-114"/>
      <use x="1053.316406" xlink:href="#DejaVuSans-115"/>
     </g>
    </g>
    <g id="line2d_49">
     <path d="M 647.6202 201.407059 
L 661.6146 201.407059 
" style="fill:none;stroke:#00bfbf;stroke-linecap:square;stroke-width:1.2;"/>
    </g>
    <g id="line2d_50"/>
    <g id="text_25">
     <!-- Crossover_Random_Initial_Layer_No -->
     <defs>
      <path d="M 44.390625 34.1875 
Q 47.5625 33.109375 50.5625 29.59375 
Q 53.5625 26.078125 56.59375 19.921875 
L 66.609375 0 
L 56 0 
L 46.6875 18.703125 
Q 43.0625 26.03125 39.671875 28.421875 
Q 36.28125 30.8125 30.421875 30.8125 
L 19.671875 30.8125 
L 19.671875 0 
L 9.8125 0 
L 9.8125 72.90625 
L 32.078125 72.90625 
Q 44.578125 72.90625 50.734375 67.671875 
Q 56.890625 62.453125 56.890625 51.90625 
Q 56.890625 45.015625 53.6875 40.46875 
Q 50.484375 35.9375 44.390625 34.1875 
z
M 19.671875 64.796875 
L 19.671875 38.921875 
L 32.078125 38.921875 
Q 39.203125 38.921875 42.84375 42.21875 
Q 46.484375 45.515625 46.484375 51.90625 
Q 46.484375 58.296875 42.84375 61.546875 
Q 39.203125 64.796875 32.078125 64.796875 
z
" id="DejaVuSans-82"/>
      <path d="M 45.40625 46.390625 
L 45.40625 75.984375 
L 54.390625 75.984375 
L 54.390625 0 
L 45.40625 0 
L 45.40625 8.203125 
Q 42.578125 3.328125 38.25 0.953125 
Q 33.9375 -1.421875 27.875 -1.421875 
Q 17.96875 -1.421875 11.734375 6.484375 
Q 5.515625 14.40625 5.515625 27.296875 
Q 5.515625 40.1875 11.734375 48.09375 
Q 17.96875 56 27.875 56 
Q 33.9375 56 38.25 53.625 
Q 42.578125 51.265625 45.40625 46.390625 
z
M 14.796875 27.296875 
Q 14.796875 17.390625 18.875 11.75 
Q 22.953125 6.109375 30.078125 6.109375 
Q 37.203125 6.109375 41.296875 11.75 
Q 45.40625 17.390625 45.40625 27.296875 
Q 45.40625 37.203125 41.296875 42.84375 
Q 37.203125 48.484375 30.078125 48.484375 
Q 22.953125 48.484375 18.875 42.84375 
Q 14.796875 37.203125 14.796875 27.296875 
z
" id="DejaVuSans-100"/>
      <path d="M 9.8125 72.90625 
L 19.671875 72.90625 
L 19.671875 0 
L 9.8125 0 
z
" id="DejaVuSans-73"/>
      <path d="M 9.421875 75.984375 
L 18.40625 75.984375 
L 18.40625 0 
L 9.421875 0 
z
" id="DejaVuSans-108"/>
      <path d="M 9.8125 72.90625 
L 23.09375 72.90625 
L 55.421875 11.921875 
L 55.421875 72.90625 
L 64.984375 72.90625 
L 64.984375 0 
L 51.703125 0 
L 19.390625 60.984375 
L 19.390625 0 
L 9.8125 0 
z
" id="DejaVuSans-78"/>
     </defs>
     <g transform="translate(672.6102 204.905659)scale(0.09996 -0.09996)">
      <use xlink:href="#DejaVuSans-67"/>
      <use x="69.824219" xlink:href="#DejaVuSans-114"/>
      <use x="108.6875" xlink:href="#DejaVuSans-111"/>
      <use x="169.869141" xlink:href="#DejaVuSans-115"/>
      <use x="221.96875" xlink:href="#DejaVuSans-115"/>
      <use x="274.068359" xlink:href="#DejaVuSans-111"/>
      <use x="335.25" xlink:href="#DejaVuSans-118"/>
      <use x="394.429688" xlink:href="#DejaVuSans-101"/>
      <use x="455.953125" xlink:href="#DejaVuSans-114"/>
      <use x="497.066406" xlink:href="#DejaVuSans-95"/>
      <use x="547.066406" xlink:href="#DejaVuSans-82"/>
      <use x="614.298828" xlink:href="#DejaVuSans-97"/>
      <use x="675.578125" xlink:href="#DejaVuSans-110"/>
      <use x="738.957031" xlink:href="#DejaVuSans-100"/>
      <use x="802.433594" xlink:href="#DejaVuSans-111"/>
      <use x="863.615234" xlink:href="#DejaVuSans-109"/>
      <use x="961.027344" xlink:href="#DejaVuSans-95"/>
      <use x="1011.027344" xlink:href="#DejaVuSans-73"/>
      <use x="1040.519531" xlink:href="#DejaVuSans-110"/>
      <use x="1103.898438" xlink:href="#DejaVuSans-105"/>
      <use x="1131.681641" xlink:href="#DejaVuSans-116"/>
      <use x="1170.890625" xlink:href="#DejaVuSans-105"/>
      <use x="1198.673828" xlink:href="#DejaVuSans-97"/>
      <use x="1259.953125" xlink:href="#DejaVuSans-108"/>
      <use x="1287.736328" xlink:href="#DejaVuSans-95"/>
      <use x="1337.736328" xlink:href="#DejaVuSans-76"/>
      <use x="1393.449219" xlink:href="#DejaVuSans-97"/>
      <use x="1454.728516" xlink:href="#DejaVuSans-121"/>
      <use x="1513.908203" xlink:href="#DejaVuSans-101"/>
      <use x="1575.431641" xlink:href="#DejaVuSans-114"/>
      <use x="1616.544922" xlink:href="#DejaVuSans-95"/>
      <use x="1666.544922" xlink:href="#DejaVuSans-78"/>
      <use x="1741.349609" xlink:href="#DejaVuSans-111"/>
     </g>
    </g>
   </g>
  </g>
  <g id="text_26">
   <!-- Average Accuracy -->
   <defs>
    <path d="M 34.1875 63.1875 
L 20.796875 26.90625 
L 47.609375 26.90625 
z
M 28.609375 72.90625 
L 39.796875 72.90625 
L 67.578125 0 
L 57.328125 0 
L 50.6875 18.703125 
L 17.828125 18.703125 
L 11.1875 0 
L 0.78125 0 
z
" id="DejaVuSans-65"/>
    <path id="DejaVuSans-32"/>
   </defs>
   <g transform="translate(396.06 16.318125)scale(0.12 -0.12)">
    <use xlink:href="#DejaVuSans-65"/>
    <use x="62.533203" xlink:href="#DejaVuSans-118"/>
    <use x="121.712891" xlink:href="#DejaVuSans-101"/>
    <use x="183.236328" xlink:href="#DejaVuSans-114"/>
    <use x="224.349609" xlink:href="#DejaVuSans-97"/>
    <use x="285.628906" xlink:href="#DejaVuSans-103"/>
    <use x="349.105469" xlink:href="#DejaVuSans-101"/>
    <use x="410.628906" xlink:href="#DejaVuSans-32"/>
    <use x="442.416016" xlink:href="#DejaVuSans-65"/>
    <use x="509.074219" xlink:href="#DejaVuSans-99"/>
    <use x="564.054688" xlink:href="#DejaVuSans-99"/>
    <use x="619.035156" xlink:href="#DejaVuSans-117"/>
    <use x="682.414062" xlink:href="#DejaVuSans-114"/>
    <use x="723.527344" xlink:href="#DejaVuSans-97"/>
    <use x="784.806641" xlink:href="#DejaVuSans-99"/>
    <use x="839.787109" xlink:href="#DejaVuSans-121"/>
   </g>
  </g>
 </g>
 <defs>
  <clipPath id="p0bf92def57">
   <rect height="288" width="523.125" x="112.5" y="36"/>
  </clipPath>
 </defs>
</svg>
