<?xml version="1.0" encoding="utf-8" standalone="no"?>
<!DOCTYPE svg PUBLIC "-//W3C//DTD SVG 1.1//EN"
  "http://www.w3.org/Graphics/SVG/1.1/DTD/svg11.dtd">
<!-- Created with matplotlib (https://matplotlib.org/) -->
<svg height="360pt" version="1.1" viewBox="0 0 900 360" width="900pt" xmlns="http://www.w3.org/2000/svg" xmlns:xlink="http://www.w3.org/1999/xlink">
 <defs>
  <style type="text/css">
*{stroke-linecap:butt;stroke-linejoin:round;}
  </style>
 </defs>
 <g id="figure_1">
  <g id="patch_1">
   <path d="M 0 360 
L 900 360 
L 900 0 
L 0 0 
z
" style="fill:#ffffff;"/>
  </g>
  <g id="axes_1">
   <g id="patch_2">
    <path d="M 112.5 324 
L 635.625 324 
L 635.625 36 
L 112.5 36 
z
" style="fill:#ffffff;"/>
   </g>
   <g id="line2d_1">
    <path clip-path="url(#pe169a67e1c)" d="M 112.857815 48.312629 
L 116.435961 54.024511 
L 120.014107 61.795691 
L 123.592254 65.528918 
L 127.1704 71.863246 
L 130.748547 77.691389 
L 134.326693 95.516589 
L 141.482986 121.225522 
L 145.061132 126.440056 
L 148.639278 132.804441 
L 152.217425 132.70462 
L 155.795571 138.931651 
L 159.373718 140.124625 
L 162.951864 148.294775 
L 170.108157 157.798329 
L 173.686303 168.050831 
L 177.264449 183.111268 
L 180.842596 192.305539 
L 184.420742 198.610783 
L 187.998889 199.239999 
L 191.577035 206.216206 
L 195.155181 212.026326 
L 198.733328 211.279155 
L 202.311474 212.875471 
L 205.88962 215.949821 
L 209.467767 216.071492 
L 213.045913 219.408095 
L 216.62406 219.578641 
L 220.202206 216.379159 
L 223.780352 222.819196 
L 227.358499 219.068604 
L 230.936645 222.262012 
L 234.514791 221.385286 
L 238.092938 224.900859 
L 241.671084 226.29409 
L 245.249231 236.587292 
L 248.827377 236.50497 
L 252.405523 239.720687 
L 255.98367 233.045534 
L 259.561816 240.275462 
L 263.139962 239.090659 
L 266.718109 240.008593 
L 270.296255 234.900097 
L 273.874402 237.70151 
L 277.452548 242.41349 
L 281.030694 253.037513 
L 284.608841 253.564019 
L 288.186987 258.81827 
L 291.765133 262.824875 
L 295.34328 265.625061 
L 298.921426 266.536427 
L 302.499573 268.642098 
L 306.077719 263.748485 
L 309.655865 265.496643 
L 313.234012 266.467797 
L 316.812158 267.06141 
L 320.390304 270.620804 
L 327.546597 272.361606 
L 331.124744 276.350225 
L 334.70289 279.482107 
L 338.281036 281.404305 
L 341.859183 284.55237 
L 345.437329 285.845983 
L 349.015475 283.796992 
L 352.593622 284.653863 
L 356.171768 284.764081 
L 359.749915 283.715018 
L 363.328061 283.932231 
L 366.906207 278.807055 
L 370.484354 281.607192 
L 374.0625 285.66983 
L 377.640646 287.225118 
L 381.218793 289.609651 
L 384.796939 289.080335 
L 388.375085 291.133147 
L 391.953232 293.777264 
L 395.531378 291.22536 
L 399.109525 290.672128 
L 402.687671 283.320018 
L 406.265817 282.507557 
L 409.843964 284.721082 
L 413.42211 287.560402 
L 417.000256 289.640641 
L 420.578403 290.864789 
L 424.156549 292.643572 
L 427.734696 299.013707 
L 431.312842 301.646375 
L 434.890988 302.738163 
L 438.469135 301.17703 
L 442.047281 295.103685 
L 445.625427 291.3419 
L 449.203574 291.130527 
L 452.78172 291.728063 
L 456.359867 288.200235 
L 459.938013 286.588951 
L 463.516159 282.438023 
L 467.094306 289.276201 
L 470.672452 291.380161 
L 474.250598 290.317028 
L 477.828745 288.258667 
L 481.406891 288.263083 
L 484.985038 287.338585 
L 488.563184 288.799417 
L 492.14133 287.634314 
L 495.719477 289.132062 
L 499.297623 288.226513 
L 502.875769 292.706098 
L 506.453916 294.703191 
L 510.032062 294.706615 
L 513.610209 296.86161 
L 520.766501 303.592463 
L 524.344648 308.099023 
L 527.922794 304.353645 
L 531.50094 306.903358 
L 535.079087 306.993498 
L 538.657233 307.27333 
L 542.23538 304.45261 
L 545.813526 302.272643 
L 549.391672 300.614578 
L 552.969819 303.393858 
L 556.547965 299.673281 
L 560.126111 300.002548 
L 563.704258 294.707597 
L 567.282404 293.388932 
L 570.860551 292.600391 
L 574.438697 293.935917 
L 578.016843 294.4952 
L 581.59499 294.147029 
L 585.173136 295.235447 
L 592.329429 301.023137 
L 595.907575 299.362418 
L 599.485722 296.337589 
L 603.063868 295.3149 
L 606.642014 295.355425 
L 610.220161 289.933486 
L 613.798307 287.689588 
L 617.376453 283.890466 
L 620.9546 284.077625 
L 624.532746 282.225471 
L 628.110893 278.388883 
L 631.689039 276.772686 
L 635.267185 281.83032 
L 635.267185 281.83032 
" style="fill:none;stroke:#0000ff;stroke-linecap:square;stroke-width:1.2;"/>
   </g>
   <g id="line2d_2">
    <path clip-path="url(#pe169a67e1c)" d="M 112.857815 48.741687 
L 116.435961 60.382641 
L 120.014107 71.329752 
L 123.592254 70.316375 
L 127.1704 76.561051 
L 130.748547 71.47919 
L 134.326693 75.144644 
L 137.904839 81.687128 
L 141.482986 70.989464 
L 145.061132 73.391939 
L 148.639278 79.067561 
L 152.217425 74.339862 
L 155.795571 78.02018 
L 159.373718 67.442825 
L 162.951864 67.232717 
L 166.53001 78.375657 
L 170.108157 82.826954 
L 173.686303 85.181079 
L 177.264449 92.497407 
L 180.842596 100.710872 
L 184.420742 95.583804 
L 187.998889 99.277277 
L 191.577035 107.017469 
L 195.155181 101.683074 
L 198.733328 110.077169 
L 202.311474 116.892077 
L 205.88962 120.91275 
L 209.467767 145.995493 
L 213.045913 148.959309 
L 216.62406 154.305649 
L 220.202206 162.971796 
L 223.780352 164.166354 
L 227.358499 168.874046 
L 230.936645 171.205458 
L 234.514791 167.845838 
L 238.092938 168.022397 
L 241.671084 168.395101 
L 245.249231 170.845355 
L 248.827377 172.091476 
L 252.405523 173.6169 
L 255.98367 178.14818 
L 259.561816 182.132294 
L 263.139962 181.764473 
L 266.718109 187.19564 
L 270.296255 185.602596 
L 273.874402 186.497868 
L 277.452548 182.087832 
L 281.030694 176.093613 
L 284.608841 181.527539 
L 288.186987 183.053238 
L 291.765133 177.016209 
L 295.34328 182.830194 
L 298.921426 181.157271 
L 302.499573 185.963927 
L 306.077719 177.41863 
L 309.655865 179.601314 
L 313.234012 183.332843 
L 316.812158 188.072877 
L 320.390304 185.562649 
L 323.968451 190.255727 
L 327.546597 186.509405 
L 331.124744 204.105211 
L 334.70289 195.774074 
L 338.281036 191.570497 
L 341.859183 189.668602 
L 345.437329 191.284379 
L 349.015475 192.464237 
L 352.593622 198.427217 
L 356.171768 196.051128 
L 359.749915 195.309795 
L 363.328061 199.266327 
L 366.906207 194.550701 
L 370.484354 194.200774 
L 374.0625 194.796947 
L 377.640646 191.949051 
L 381.218793 194.634347 
L 384.796939 205.60808 
L 388.375085 213.532152 
L 391.953232 221.710958 
L 395.531378 225.842021 
L 399.109525 222.098478 
L 402.687671 230.161438 
L 406.265817 231.476391 
L 409.843964 231.040716 
L 413.42211 231.35025 
L 417.000256 234.451196 
L 420.578403 237.578962 
L 424.156549 239.182382 
L 427.734696 236.013854 
L 431.312842 233.116274 
L 434.890988 236.927847 
L 438.469135 238.60334 
L 442.047281 216.461814 
L 445.625427 212.863348 
L 449.203574 212.896577 
L 452.78172 209.54443 
L 456.359867 209.382333 
L 459.938013 197.249432 
L 463.516159 182.112652 
L 467.094306 208.685786 
" style="fill:none;stroke:#008000;stroke-linecap:square;stroke-width:1.2;"/>
   </g>
   <g id="line2d_3">
    <path clip-path="url(#pe169a67e1c)" d="M 112.857815 104.187347 
L 116.435961 110.216849 
L 120.014107 108.840647 
L 123.592254 109.46576 
L 127.1704 118.007096 
L 130.748547 123.122154 
L 134.326693 125.32098 
L 137.904839 130.656044 
L 145.061132 140.468939 
L 148.639278 142.163461 
L 152.217425 145.659853 
L 155.795571 150.564961 
L 162.951864 157.269892 
L 166.53001 165.851201 
L 173.686303 183.4399 
L 177.264449 186.296034 
L 180.842596 192.107652 
L 184.420742 196.638093 
L 187.998889 204.92221 
L 191.577035 207.788922 
L 195.155181 214.334057 
L 198.733328 220.316976 
L 202.311474 220.082087 
L 205.88962 224.313384 
L 209.467767 229.361085 
L 216.62406 232.694725 
L 220.202206 230.548048 
L 223.780352 227.696518 
L 227.358499 235.548806 
L 230.936645 237.55262 
L 234.514791 239.216243 
L 238.092938 239.912778 
L 241.671084 243.108907 
L 245.249231 240.721958 
L 248.827377 242.391227 
L 252.405523 241.273828 
L 255.98367 239.78779 
L 259.561816 242.219962 
L 263.139962 245.112688 
L 266.718109 243.868328 
L 270.296255 250.166484 
L 273.874402 254.269832 
L 277.452548 257.152349 
L 281.030694 259.723526 
L 284.608841 260.820427 
L 288.186987 257.214649 
L 291.765133 259.071497 
L 295.34328 255.18051 
L 298.921426 255.859851 
L 302.499573 258.876749 
L 306.077719 258.72975 
L 309.655865 259.004972 
L 313.234012 258.899668 
L 316.812158 257.344255 
L 320.390304 262.69395 
L 323.968451 263.614001 
L 327.546597 259.467499 
L 331.124744 257.972909 
L 334.70289 256.310033 
L 338.281036 263.226111 
L 341.859183 265.292923 
L 345.437329 265.694702 
L 349.015475 262.93742 
L 352.593622 260.961208 
L 356.171768 257.671217 
L 363.328061 254.476802 
L 366.906207 255.628824 
L 370.484354 253.36095 
L 374.0625 253.506704 
L 377.640646 255.760293 
L 381.218793 257.860374 
L 384.796939 252.212745 
L 388.375085 249.431442 
L 391.953232 244.168772 
L 395.531378 233.420622 
L 399.109525 236.55261 
L 402.687671 236.995638 
L 406.265817 230.265949 
L 409.843964 231.791984 
L 413.42211 228.263974 
L 417.000256 228.156523 
L 420.578403 238.559192 
L 424.156549 236.0375 
L 427.734696 231.989089 
L 431.312842 236.778927 
L 434.890988 240.000204 
L 438.469135 244.655701 
L 442.047281 243.135278 
L 445.625427 241.802905 
L 449.203574 241.830714 
L 452.78172 244.893085 
L 456.359867 247.276918 
L 459.938013 249.114417 
L 463.516159 244.758817 
L 467.094306 245.884442 
L 470.672452 246.050313 
L 474.250598 245.509854 
L 477.828745 242.519027 
L 481.406891 242.854107 
L 484.985038 245.413342 
L 488.563184 250.101833 
L 492.14133 249.118152 
L 495.719477 249.876235 
L 499.297623 253.078811 
L 502.875769 259.373598 
L 506.453916 257.272995 
L 510.032062 254.6912 
L 513.610209 255.078503 
L 517.188355 260.389238 
L 520.766501 256.391084 
L 524.344648 250.311853 
L 527.922794 245.071691 
L 531.50094 244.367865 
L 535.079087 239.065112 
L 538.657233 229.526228 
L 542.23538 224.356624 
L 545.813526 228.601857 
L 549.391672 227.77402 
L 552.969819 227.503313 
L 556.547965 227.397049 
L 560.126111 224.486343 
L 563.704258 228.351597 
L 567.282404 231.818004 
L 570.860551 229.803232 
L 574.438697 231.473039 
L 578.016843 231.089881 
L 581.59499 231.290531 
L 585.173136 238.463175 
L 588.751282 238.841241 
L 592.329429 237.320528 
L 595.907575 233.649551 
L 599.485722 234.716546 
L 603.063868 235.145844 
L 606.642014 235.705847 
L 610.220161 233.046133 
L 613.798307 234.408809 
L 617.376453 232.111324 
L 620.9546 236.042883 
L 620.9546 236.042883 
" style="fill:none;stroke:#ff0000;stroke-linecap:square;stroke-width:1.2;"/>
   </g>
   <g id="line2d_4">
    <path clip-path="url(#pe169a67e1c)" d="M 112.857815 71.265365 
L 116.435961 85.367992 
L 120.014107 93.925988 
L 123.592254 100.723256 
L 130.748547 116.874023 
L 134.326693 120.675616 
L 137.904839 128.950579 
L 141.482986 133.113737 
L 145.061132 141.106988 
L 148.639278 145.713459 
L 152.217425 150.81797 
L 155.795571 150.433851 
L 159.373718 160.590274 
L 162.951864 167.862633 
L 166.53001 172.035594 
L 170.108157 174.68258 
L 173.686303 179.118926 
L 177.264449 174.824594 
L 180.842596 180.833192 
L 184.420742 179.384575 
L 187.998889 181.141306 
L 191.577035 181.119368 
L 195.155181 181.361596 
L 198.733328 185.514577 
L 202.311474 196.631818 
L 205.88962 202.354926 
L 209.467767 197.016445 
L 213.045913 197.668751 
L 216.62406 203.784502 
L 220.202206 207.928892 
L 223.780352 210.574763 
L 227.358499 212.679287 
L 230.936645 213.811885 
L 234.514791 226.022348 
L 238.092938 233.387951 
L 241.671084 237.008597 
L 245.249231 237.265855 
L 248.827377 239.357726 
L 252.405523 245.486091 
L 255.98367 247.054791 
L 259.561816 252.799582 
L 263.139962 250.867101 
L 266.718109 251.741144 
L 270.296255 256.537553 
L 273.874402 257.684171 
L 277.452548 257.616677 
L 281.030694 261.062426 
L 284.608841 254.705895 
L 288.186987 253.635506 
L 291.765133 254.985993 
L 295.34328 258.268478 
L 298.921426 253.917029 
L 302.499573 251.124409 
L 306.077719 251.356996 
L 309.655865 258.497443 
L 313.234012 259.144109 
L 316.812158 261.542247 
L 320.390304 259.910623 
L 323.968451 266.068617 
L 327.546597 263.408752 
L 334.70289 257.502316 
L 338.281036 262.929525 
L 341.859183 261.303262 
L 345.437329 263.750161 
L 349.015475 265.614514 
L 352.593622 269.546175 
L 356.171768 275.682323 
L 359.749915 280.015034 
L 363.328061 281.501973 
L 366.906207 285.256262 
L 370.484354 283.246353 
L 374.0625 283.436462 
L 377.640646 288.17047 
L 381.218793 284.977247 
L 384.796939 284.720859 
L 388.375085 282.579468 
L 391.953232 280.611018 
L 395.531378 283.83239 
L 399.109525 281.18443 
L 402.687671 281.203158 
L 406.265817 282.289993 
L 409.843964 281.788811 
L 413.42211 279.801523 
L 417.000256 276.82507 
L 420.578403 277.592519 
L 424.156549 275.240092 
L 427.734696 273.938338 
L 431.312842 274.661677 
L 434.890988 273.05929 
L 438.469135 278.641684 
L 442.047281 287.340162 
L 445.625427 281.458875 
L 449.203574 287.285049 
L 452.78172 290.583388 
L 456.359867 290.966549 
L 459.938013 293.828989 
L 463.516159 291.052843 
L 467.094306 287.166584 
L 470.672452 293.986884 
L 474.250598 291.962351 
L 477.828745 287.514115 
L 481.406891 286.292437 
L 484.985038 285.359999 
L 488.563184 288.02586 
L 492.14133 283.080725 
L 495.719477 280.098607 
L 499.297623 280.833402 
L 502.875769 287.000221 
L 506.453916 291.608776 
L 510.032062 290.963736 
L 513.610209 292.972212 
L 517.188355 296.423193 
L 520.766501 299.343362 
L 524.344648 299.715546 
L 527.922794 296.775021 
L 531.50094 294.098476 
L 535.079087 295.426977 
L 538.657233 294.27366 
L 542.23538 296.21527 
L 549.391672 293.039595 
L 552.969819 292.400989 
L 556.547965 292.451253 
L 560.126111 291.927841 
L 563.704258 292.058662 
L 567.282404 290.222671 
L 570.860551 292.653178 
L 574.438697 294.496542 
L 578.016843 296.547117 
L 581.59499 299.609693 
L 585.173136 299.985788 
L 588.751282 300.19039 
L 592.329429 300.776384 
L 595.907575 298.346493 
L 599.485722 295.648651 
L 603.063868 296.084529 
L 606.642014 295.46464 
L 610.220161 296.253837 
L 613.798307 294.560003 
L 617.376453 296.112515 
L 620.9546 296.421798 
L 624.532746 301.457351 
L 628.110893 299.893996 
L 631.689039 297.476286 
L 631.689039 297.476286 
" style="fill:none;stroke:#00bfbf;stroke-linecap:square;stroke-width:1.2;"/>
   </g>
   <g id="patch_3">
    <path d="M 112.5 324 
L 112.5 36 
" style="fill:none;stroke:#000000;stroke-linecap:square;stroke-linejoin:miter;"/>
   </g>
   <g id="patch_4">
    <path d="M 635.625 324 
L 635.625 36 
" style="fill:none;stroke:#000000;stroke-linecap:square;stroke-linejoin:miter;"/>
   </g>
   <g id="patch_5">
    <path d="M 112.5 324 
L 635.625 324 
" style="fill:none;stroke:#000000;stroke-linecap:square;stroke-linejoin:miter;"/>
   </g>
   <g id="patch_6">
    <path d="M 112.5 36 
L 635.625 36 
" style="fill:none;stroke:#000000;stroke-linecap:square;stroke-linejoin:miter;"/>
   </g>
   <g id="matplotlib.axis_1">
    <g id="xtick_1">
     <g id="line2d_5">
      <defs>
       <path d="M 0 0 
L 0 -4 
" id="m85b71c4c76" style="stroke:#000000;stroke-width:0.5;"/>
      </defs>
      <g>
       <use style="stroke:#000000;stroke-width:0.5;" x="112.857815" xlink:href="#m85b71c4c76" y="324"/>
      </g>
     </g>
     <g id="line2d_6">
      <defs>
       <path d="M 0 0 
L 0 4 
" id="m534452318d" style="stroke:#000000;stroke-width:0.5;"/>
      </defs>
      <g>
       <use style="stroke:#000000;stroke-width:0.5;" x="112.857815" xlink:href="#m534452318d" y="36"/>
      </g>
     </g>
     <g id="text_1">
      <!-- 0 -->
      <defs>
       <path d="M 31.78125 66.40625 
Q 24.171875 66.40625 20.328125 58.90625 
Q 16.5 51.421875 16.5 36.375 
Q 16.5 21.390625 20.328125 13.890625 
Q 24.171875 6.390625 31.78125 6.390625 
Q 39.453125 6.390625 43.28125 13.890625 
Q 47.125 21.390625 47.125 36.375 
Q 47.125 51.421875 43.28125 58.90625 
Q 39.453125 66.40625 31.78125 66.40625 
z
M 31.78125 74.21875 
Q 44.046875 74.21875 50.515625 64.515625 
Q 56.984375 54.828125 56.984375 36.375 
Q 56.984375 17.96875 50.515625 8.265625 
Q 44.046875 -1.421875 31.78125 -1.421875 
Q 19.53125 -1.421875 13.0625 8.265625 
Q 6.59375 17.96875 6.59375 36.375 
Q 6.59375 54.828125 13.0625 64.515625 
Q 19.53125 74.21875 31.78125 74.21875 
z
" id="DejaVuSans-48"/>
      </defs>
      <g transform="translate(109.040315 337.118125)scale(0.12 -0.12)">
       <use xlink:href="#DejaVuSans-48"/>
      </g>
     </g>
    </g>
    <g id="xtick_2">
     <g id="line2d_7">
      <g>
       <use style="stroke:#000000;stroke-width:0.5;" x="166.53001" xlink:href="#m85b71c4c76" y="324"/>
      </g>
     </g>
     <g id="line2d_8">
      <g>
       <use style="stroke:#000000;stroke-width:0.5;" x="166.53001" xlink:href="#m534452318d" y="36"/>
      </g>
     </g>
     <g id="text_2">
      <!-- 15 -->
      <defs>
       <path d="M 12.40625 8.296875 
L 28.515625 8.296875 
L 28.515625 63.921875 
L 10.984375 60.40625 
L 10.984375 69.390625 
L 28.421875 72.90625 
L 38.28125 72.90625 
L 38.28125 8.296875 
L 54.390625 8.296875 
L 54.390625 0 
L 12.40625 0 
z
" id="DejaVuSans-49"/>
       <path d="M 10.796875 72.90625 
L 49.515625 72.90625 
L 49.515625 64.59375 
L 19.828125 64.59375 
L 19.828125 46.734375 
Q 21.96875 47.46875 24.109375 47.828125 
Q 26.265625 48.1875 28.421875 48.1875 
Q 40.625 48.1875 47.75 41.5 
Q 54.890625 34.8125 54.890625 23.390625 
Q 54.890625 11.625 47.5625 5.09375 
Q 40.234375 -1.421875 26.90625 -1.421875 
Q 22.3125 -1.421875 17.546875 -0.640625 
Q 12.796875 0.140625 7.71875 1.703125 
L 7.71875 11.625 
Q 12.109375 9.234375 16.796875 8.0625 
Q 21.484375 6.890625 26.703125 6.890625 
Q 35.15625 6.890625 40.078125 11.328125 
Q 45.015625 15.765625 45.015625 23.390625 
Q 45.015625 31 40.078125 35.4375 
Q 35.15625 39.890625 26.703125 39.890625 
Q 22.75 39.890625 18.8125 39.015625 
Q 14.890625 38.140625 10.796875 36.28125 
z
" id="DejaVuSans-53"/>
      </defs>
      <g transform="translate(158.89501 337.118125)scale(0.12 -0.12)">
       <use xlink:href="#DejaVuSans-49"/>
       <use x="63.623047" xlink:href="#DejaVuSans-53"/>
      </g>
     </g>
    </g>
    <g id="xtick_3">
     <g id="line2d_9">
      <g>
       <use style="stroke:#000000;stroke-width:0.5;" x="220.202206" xlink:href="#m85b71c4c76" y="324"/>
      </g>
     </g>
     <g id="line2d_10">
      <g>
       <use style="stroke:#000000;stroke-width:0.5;" x="220.202206" xlink:href="#m534452318d" y="36"/>
      </g>
     </g>
     <g id="text_3">
      <!-- 30 -->
      <defs>
       <path d="M 40.578125 39.3125 
Q 47.65625 37.796875 51.625 33 
Q 55.609375 28.21875 55.609375 21.1875 
Q 55.609375 10.40625 48.1875 4.484375 
Q 40.765625 -1.421875 27.09375 -1.421875 
Q 22.515625 -1.421875 17.65625 -0.515625 
Q 12.796875 0.390625 7.625 2.203125 
L 7.625 11.71875 
Q 11.71875 9.328125 16.59375 8.109375 
Q 21.484375 6.890625 26.8125 6.890625 
Q 36.078125 6.890625 40.9375 10.546875 
Q 45.796875 14.203125 45.796875 21.1875 
Q 45.796875 27.640625 41.28125 31.265625 
Q 36.765625 34.90625 28.71875 34.90625 
L 20.21875 34.90625 
L 20.21875 43.015625 
L 29.109375 43.015625 
Q 36.375 43.015625 40.234375 45.921875 
Q 44.09375 48.828125 44.09375 54.296875 
Q 44.09375 59.90625 40.109375 62.90625 
Q 36.140625 65.921875 28.71875 65.921875 
Q 24.65625 65.921875 20.015625 65.03125 
Q 15.375 64.15625 9.8125 62.3125 
L 9.8125 71.09375 
Q 15.4375 72.65625 20.34375 73.4375 
Q 25.25 74.21875 29.59375 74.21875 
Q 40.828125 74.21875 47.359375 69.109375 
Q 53.90625 64.015625 53.90625 55.328125 
Q 53.90625 49.265625 50.4375 45.09375 
Q 46.96875 40.921875 40.578125 39.3125 
z
" id="DejaVuSans-51"/>
      </defs>
      <g transform="translate(212.567206 337.118125)scale(0.12 -0.12)">
       <use xlink:href="#DejaVuSans-51"/>
       <use x="63.623047" xlink:href="#DejaVuSans-48"/>
      </g>
     </g>
    </g>
    <g id="xtick_4">
     <g id="line2d_11">
      <g>
       <use style="stroke:#000000;stroke-width:0.5;" x="273.874402" xlink:href="#m85b71c4c76" y="324"/>
      </g>
     </g>
     <g id="line2d_12">
      <g>
       <use style="stroke:#000000;stroke-width:0.5;" x="273.874402" xlink:href="#m534452318d" y="36"/>
      </g>
     </g>
     <g id="text_4">
      <!-- 45 -->
      <defs>
       <path d="M 37.796875 64.3125 
L 12.890625 25.390625 
L 37.796875 25.390625 
z
M 35.203125 72.90625 
L 47.609375 72.90625 
L 47.609375 25.390625 
L 58.015625 25.390625 
L 58.015625 17.1875 
L 47.609375 17.1875 
L 47.609375 0 
L 37.796875 0 
L 37.796875 17.1875 
L 4.890625 17.1875 
L 4.890625 26.703125 
z
" id="DejaVuSans-52"/>
      </defs>
      <g transform="translate(266.239402 337.118125)scale(0.12 -0.12)">
       <use xlink:href="#DejaVuSans-52"/>
       <use x="63.623047" xlink:href="#DejaVuSans-53"/>
      </g>
     </g>
    </g>
    <g id="xtick_5">
     <g id="line2d_13">
      <g>
       <use style="stroke:#000000;stroke-width:0.5;" x="327.546597" xlink:href="#m85b71c4c76" y="324"/>
      </g>
     </g>
     <g id="line2d_14">
      <g>
       <use style="stroke:#000000;stroke-width:0.5;" x="327.546597" xlink:href="#m534452318d" y="36"/>
      </g>
     </g>
     <g id="text_5">
      <!-- 60 -->
      <defs>
       <path d="M 33.015625 40.375 
Q 26.375 40.375 22.484375 35.828125 
Q 18.609375 31.296875 18.609375 23.390625 
Q 18.609375 15.53125 22.484375 10.953125 
Q 26.375 6.390625 33.015625 6.390625 
Q 39.65625 6.390625 43.53125 10.953125 
Q 47.40625 15.53125 47.40625 23.390625 
Q 47.40625 31.296875 43.53125 35.828125 
Q 39.65625 40.375 33.015625 40.375 
z
M 52.59375 71.296875 
L 52.59375 62.3125 
Q 48.875 64.0625 45.09375 64.984375 
Q 41.3125 65.921875 37.59375 65.921875 
Q 27.828125 65.921875 22.671875 59.328125 
Q 17.53125 52.734375 16.796875 39.40625 
Q 19.671875 43.65625 24.015625 45.921875 
Q 28.375 48.1875 33.59375 48.1875 
Q 44.578125 48.1875 50.953125 41.515625 
Q 57.328125 34.859375 57.328125 23.390625 
Q 57.328125 12.15625 50.6875 5.359375 
Q 44.046875 -1.421875 33.015625 -1.421875 
Q 20.359375 -1.421875 13.671875 8.265625 
Q 6.984375 17.96875 6.984375 36.375 
Q 6.984375 53.65625 15.1875 63.9375 
Q 23.390625 74.21875 37.203125 74.21875 
Q 40.921875 74.21875 44.703125 73.484375 
Q 48.484375 72.75 52.59375 71.296875 
z
" id="DejaVuSans-54"/>
      </defs>
      <g transform="translate(319.911597 337.118125)scale(0.12 -0.12)">
       <use xlink:href="#DejaVuSans-54"/>
       <use x="63.623047" xlink:href="#DejaVuSans-48"/>
      </g>
     </g>
    </g>
    <g id="xtick_6">
     <g id="line2d_15">
      <g>
       <use style="stroke:#000000;stroke-width:0.5;" x="381.218793" xlink:href="#m85b71c4c76" y="324"/>
      </g>
     </g>
     <g id="line2d_16">
      <g>
       <use style="stroke:#000000;stroke-width:0.5;" x="381.218793" xlink:href="#m534452318d" y="36"/>
      </g>
     </g>
     <g id="text_6">
      <!-- 75 -->
      <defs>
       <path d="M 8.203125 72.90625 
L 55.078125 72.90625 
L 55.078125 68.703125 
L 28.609375 0 
L 18.3125 0 
L 43.21875 64.59375 
L 8.203125 64.59375 
z
" id="DejaVuSans-55"/>
      </defs>
      <g transform="translate(373.583793 337.118125)scale(0.12 -0.12)">
       <use xlink:href="#DejaVuSans-55"/>
       <use x="63.623047" xlink:href="#DejaVuSans-53"/>
      </g>
     </g>
    </g>
    <g id="xtick_7">
     <g id="line2d_17">
      <g>
       <use style="stroke:#000000;stroke-width:0.5;" x="434.890988" xlink:href="#m85b71c4c76" y="324"/>
      </g>
     </g>
     <g id="line2d_18">
      <g>
       <use style="stroke:#000000;stroke-width:0.5;" x="434.890988" xlink:href="#m534452318d" y="36"/>
      </g>
     </g>
     <g id="text_7">
      <!-- 90 -->
      <defs>
       <path d="M 10.984375 1.515625 
L 10.984375 10.5 
Q 14.703125 8.734375 18.5 7.8125 
Q 22.3125 6.890625 25.984375 6.890625 
Q 35.75 6.890625 40.890625 13.453125 
Q 46.046875 20.015625 46.78125 33.40625 
Q 43.953125 29.203125 39.59375 26.953125 
Q 35.25 24.703125 29.984375 24.703125 
Q 19.046875 24.703125 12.671875 31.3125 
Q 6.296875 37.9375 6.296875 49.421875 
Q 6.296875 60.640625 12.9375 67.421875 
Q 19.578125 74.21875 30.609375 74.21875 
Q 43.265625 74.21875 49.921875 64.515625 
Q 56.59375 54.828125 56.59375 36.375 
Q 56.59375 19.140625 48.40625 8.859375 
Q 40.234375 -1.421875 26.421875 -1.421875 
Q 22.703125 -1.421875 18.890625 -0.6875 
Q 15.09375 0.046875 10.984375 1.515625 
z
M 30.609375 32.421875 
Q 37.25 32.421875 41.125 36.953125 
Q 45.015625 41.5 45.015625 49.421875 
Q 45.015625 57.28125 41.125 61.84375 
Q 37.25 66.40625 30.609375 66.40625 
Q 23.96875 66.40625 20.09375 61.84375 
Q 16.21875 57.28125 16.21875 49.421875 
Q 16.21875 41.5 20.09375 36.953125 
Q 23.96875 32.421875 30.609375 32.421875 
z
" id="DejaVuSans-57"/>
      </defs>
      <g transform="translate(427.255988 337.118125)scale(0.12 -0.12)">
       <use xlink:href="#DejaVuSans-57"/>
       <use x="63.623047" xlink:href="#DejaVuSans-48"/>
      </g>
     </g>
    </g>
    <g id="xtick_8">
     <g id="line2d_19">
      <g>
       <use style="stroke:#000000;stroke-width:0.5;" x="488.563184" xlink:href="#m85b71c4c76" y="324"/>
      </g>
     </g>
     <g id="line2d_20">
      <g>
       <use style="stroke:#000000;stroke-width:0.5;" x="488.563184" xlink:href="#m534452318d" y="36"/>
      </g>
     </g>
     <g id="text_8">
      <!-- 105 -->
      <g transform="translate(477.110684 337.118125)scale(0.12 -0.12)">
       <use xlink:href="#DejaVuSans-49"/>
       <use x="63.623047" xlink:href="#DejaVuSans-48"/>
       <use x="127.246094" xlink:href="#DejaVuSans-53"/>
      </g>
     </g>
    </g>
    <g id="xtick_9">
     <g id="line2d_21">
      <g>
       <use style="stroke:#000000;stroke-width:0.5;" x="542.23538" xlink:href="#m85b71c4c76" y="324"/>
      </g>
     </g>
     <g id="line2d_22">
      <g>
       <use style="stroke:#000000;stroke-width:0.5;" x="542.23538" xlink:href="#m534452318d" y="36"/>
      </g>
     </g>
     <g id="text_9">
      <!-- 120 -->
      <defs>
       <path d="M 19.1875 8.296875 
L 53.609375 8.296875 
L 53.609375 0 
L 7.328125 0 
L 7.328125 8.296875 
Q 12.9375 14.109375 22.625 23.890625 
Q 32.328125 33.6875 34.8125 36.53125 
Q 39.546875 41.84375 41.421875 45.53125 
Q 43.3125 49.21875 43.3125 52.78125 
Q 43.3125 58.59375 39.234375 62.25 
Q 35.15625 65.921875 28.609375 65.921875 
Q 23.96875 65.921875 18.8125 64.3125 
Q 13.671875 62.703125 7.8125 59.421875 
L 7.8125 69.390625 
Q 13.765625 71.78125 18.9375 73 
Q 24.125 74.21875 28.421875 74.21875 
Q 39.75 74.21875 46.484375 68.546875 
Q 53.21875 62.890625 53.21875 53.421875 
Q 53.21875 48.921875 51.53125 44.890625 
Q 49.859375 40.875 45.40625 35.40625 
Q 44.1875 33.984375 37.640625 27.21875 
Q 31.109375 20.453125 19.1875 8.296875 
z
" id="DejaVuSans-50"/>
      </defs>
      <g transform="translate(530.78288 337.118125)scale(0.12 -0.12)">
       <use xlink:href="#DejaVuSans-49"/>
       <use x="63.623047" xlink:href="#DejaVuSans-50"/>
       <use x="127.246094" xlink:href="#DejaVuSans-48"/>
      </g>
     </g>
    </g>
    <g id="xtick_10">
     <g id="line2d_23">
      <g>
       <use style="stroke:#000000;stroke-width:0.5;" x="595.907575" xlink:href="#m85b71c4c76" y="324"/>
      </g>
     </g>
     <g id="line2d_24">
      <g>
       <use style="stroke:#000000;stroke-width:0.5;" x="595.907575" xlink:href="#m534452318d" y="36"/>
      </g>
     </g>
     <g id="text_10">
      <!-- 135 -->
      <g transform="translate(584.455075 337.118125)scale(0.12 -0.12)">
       <use xlink:href="#DejaVuSans-49"/>
       <use x="63.623047" xlink:href="#DejaVuSans-51"/>
       <use x="127.246094" xlink:href="#DejaVuSans-53"/>
      </g>
     </g>
    </g>
    <g id="text_11">
     <!-- generation -->
     <defs>
      <path d="M 45.40625 27.984375 
Q 45.40625 37.75 41.375 43.109375 
Q 37.359375 48.484375 30.078125 48.484375 
Q 22.859375 48.484375 18.828125 43.109375 
Q 14.796875 37.75 14.796875 27.984375 
Q 14.796875 18.265625 18.828125 12.890625 
Q 22.859375 7.515625 30.078125 7.515625 
Q 37.359375 7.515625 41.375 12.890625 
Q 45.40625 18.265625 45.40625 27.984375 
z
M 54.390625 6.78125 
Q 54.390625 -7.171875 48.1875 -13.984375 
Q 42 -20.796875 29.203125 -20.796875 
Q 24.46875 -20.796875 20.265625 -20.09375 
Q 16.0625 -19.390625 12.109375 -17.921875 
L 12.109375 -9.1875 
Q 16.0625 -11.328125 19.921875 -12.34375 
Q 23.78125 -13.375 27.78125 -13.375 
Q 36.625 -13.375 41.015625 -8.765625 
Q 45.40625 -4.15625 45.40625 5.171875 
L 45.40625 9.625 
Q 42.625 4.78125 38.28125 2.390625 
Q 33.9375 0 27.875 0 
Q 17.828125 0 11.671875 7.65625 
Q 5.515625 15.328125 5.515625 27.984375 
Q 5.515625 40.671875 11.671875 48.328125 
Q 17.828125 56 27.875 56 
Q 33.9375 56 38.28125 53.609375 
Q 42.625 51.21875 45.40625 46.390625 
L 45.40625 54.6875 
L 54.390625 54.6875 
z
" id="DejaVuSans-103"/>
      <path d="M 56.203125 29.59375 
L 56.203125 25.203125 
L 14.890625 25.203125 
Q 15.484375 15.921875 20.484375 11.0625 
Q 25.484375 6.203125 34.421875 6.203125 
Q 39.59375 6.203125 44.453125 7.46875 
Q 49.3125 8.734375 54.109375 11.28125 
L 54.109375 2.78125 
Q 49.265625 0.734375 44.1875 -0.34375 
Q 39.109375 -1.421875 33.890625 -1.421875 
Q 20.796875 -1.421875 13.15625 6.1875 
Q 5.515625 13.8125 5.515625 26.8125 
Q 5.515625 40.234375 12.765625 48.109375 
Q 20.015625 56 32.328125 56 
Q 43.359375 56 49.78125 48.890625 
Q 56.203125 41.796875 56.203125 29.59375 
z
M 47.21875 32.234375 
Q 47.125 39.59375 43.09375 43.984375 
Q 39.0625 48.390625 32.421875 48.390625 
Q 24.90625 48.390625 20.390625 44.140625 
Q 15.875 39.890625 15.1875 32.171875 
z
" id="DejaVuSans-101"/>
      <path d="M 54.890625 33.015625 
L 54.890625 0 
L 45.90625 0 
L 45.90625 32.71875 
Q 45.90625 40.484375 42.875 44.328125 
Q 39.84375 48.1875 33.796875 48.1875 
Q 26.515625 48.1875 22.3125 43.546875 
Q 18.109375 38.921875 18.109375 30.90625 
L 18.109375 0 
L 9.078125 0 
L 9.078125 54.6875 
L 18.109375 54.6875 
L 18.109375 46.1875 
Q 21.34375 51.125 25.703125 53.5625 
Q 30.078125 56 35.796875 56 
Q 45.21875 56 50.046875 50.171875 
Q 54.890625 44.34375 54.890625 33.015625 
z
" id="DejaVuSans-110"/>
      <path d="M 41.109375 46.296875 
Q 39.59375 47.171875 37.8125 47.578125 
Q 36.03125 48 33.890625 48 
Q 26.265625 48 22.1875 43.046875 
Q 18.109375 38.09375 18.109375 28.8125 
L 18.109375 0 
L 9.078125 0 
L 9.078125 54.6875 
L 18.109375 54.6875 
L 18.109375 46.1875 
Q 20.953125 51.171875 25.484375 53.578125 
Q 30.03125 56 36.53125 56 
Q 37.453125 56 38.578125 55.875 
Q 39.703125 55.765625 41.0625 55.515625 
z
" id="DejaVuSans-114"/>
      <path d="M 34.28125 27.484375 
Q 23.390625 27.484375 19.1875 25 
Q 14.984375 22.515625 14.984375 16.5 
Q 14.984375 11.71875 18.140625 8.90625 
Q 21.296875 6.109375 26.703125 6.109375 
Q 34.1875 6.109375 38.703125 11.40625 
Q 43.21875 16.703125 43.21875 25.484375 
L 43.21875 27.484375 
z
M 52.203125 31.203125 
L 52.203125 0 
L 43.21875 0 
L 43.21875 8.296875 
Q 40.140625 3.328125 35.546875 0.953125 
Q 30.953125 -1.421875 24.3125 -1.421875 
Q 15.921875 -1.421875 10.953125 3.296875 
Q 6 8.015625 6 15.921875 
Q 6 25.140625 12.171875 29.828125 
Q 18.359375 34.515625 30.609375 34.515625 
L 43.21875 34.515625 
L 43.21875 35.40625 
Q 43.21875 41.609375 39.140625 45 
Q 35.0625 48.390625 27.6875 48.390625 
Q 23 48.390625 18.546875 47.265625 
Q 14.109375 46.140625 10.015625 43.890625 
L 10.015625 52.203125 
Q 14.9375 54.109375 19.578125 55.046875 
Q 24.21875 56 28.609375 56 
Q 40.484375 56 46.34375 49.84375 
Q 52.203125 43.703125 52.203125 31.203125 
z
" id="DejaVuSans-97"/>
      <path d="M 18.3125 70.21875 
L 18.3125 54.6875 
L 36.8125 54.6875 
L 36.8125 47.703125 
L 18.3125 47.703125 
L 18.3125 18.015625 
Q 18.3125 11.328125 20.140625 9.421875 
Q 21.96875 7.515625 27.59375 7.515625 
L 36.8125 7.515625 
L 36.8125 0 
L 27.59375 0 
Q 17.1875 0 13.234375 3.875 
Q 9.28125 7.765625 9.28125 18.015625 
L 9.28125 47.703125 
L 2.6875 47.703125 
L 2.6875 54.6875 
L 9.28125 54.6875 
L 9.28125 70.21875 
z
" id="DejaVuSans-116"/>
      <path d="M 9.421875 54.6875 
L 18.40625 54.6875 
L 18.40625 0 
L 9.421875 0 
z
M 9.421875 75.984375 
L 18.40625 75.984375 
L 18.40625 64.59375 
L 9.421875 64.59375 
z
" id="DejaVuSans-105"/>
      <path d="M 30.609375 48.390625 
Q 23.390625 48.390625 19.1875 42.75 
Q 14.984375 37.109375 14.984375 27.296875 
Q 14.984375 17.484375 19.15625 11.84375 
Q 23.34375 6.203125 30.609375 6.203125 
Q 37.796875 6.203125 41.984375 11.859375 
Q 46.1875 17.53125 46.1875 27.296875 
Q 46.1875 37.015625 41.984375 42.703125 
Q 37.796875 48.390625 30.609375 48.390625 
z
M 30.609375 56 
Q 42.328125 56 49.015625 48.375 
Q 55.71875 40.765625 55.71875 27.296875 
Q 55.71875 13.875 49.015625 6.21875 
Q 42.328125 -1.421875 30.609375 -1.421875 
Q 18.84375 -1.421875 12.171875 6.21875 
Q 5.515625 13.875 5.515625 27.296875 
Q 5.515625 40.765625 12.171875 48.375 
Q 18.84375 56 30.609375 56 
z
" id="DejaVuSans-111"/>
     </defs>
     <g transform="translate(341.430938 353.731875)scale(0.12 -0.12)">
      <use xlink:href="#DejaVuSans-103"/>
      <use x="63.476562" xlink:href="#DejaVuSans-101"/>
      <use x="125" xlink:href="#DejaVuSans-110"/>
      <use x="188.378906" xlink:href="#DejaVuSans-101"/>
      <use x="249.902344" xlink:href="#DejaVuSans-114"/>
      <use x="291.015625" xlink:href="#DejaVuSans-97"/>
      <use x="352.294922" xlink:href="#DejaVuSans-116"/>
      <use x="391.503906" xlink:href="#DejaVuSans-105"/>
      <use x="419.287109" xlink:href="#DejaVuSans-111"/>
      <use x="480.46875" xlink:href="#DejaVuSans-110"/>
     </g>
    </g>
   </g>
   <g id="matplotlib.axis_2">
    <g id="ytick_1">
     <g id="line2d_25">
      <defs>
       <path d="M 0 0 
L 4 0 
" id="m94d9fe19e3" style="stroke:#000000;stroke-width:0.5;"/>
      </defs>
      <g>
       <use style="stroke:#000000;stroke-width:0.5;" x="112.5" xlink:href="#m94d9fe19e3" y="324"/>
      </g>
     </g>
     <g id="line2d_26">
      <defs>
       <path d="M 0 0 
L -4 0 
" id="m82b20cf777" style="stroke:#000000;stroke-width:0.5;"/>
      </defs>
      <g>
       <use style="stroke:#000000;stroke-width:0.5;" x="635.625" xlink:href="#m82b20cf777" y="324"/>
      </g>
     </g>
     <g id="text_12">
      <!-- 0.18 -->
      <defs>
       <path d="M 10.6875 12.40625 
L 21 12.40625 
L 21 0 
L 10.6875 0 
z
" id="DejaVuSans-46"/>
       <path d="M 31.78125 34.625 
Q 24.75 34.625 20.71875 30.859375 
Q 16.703125 27.09375 16.703125 20.515625 
Q 16.703125 13.921875 20.71875 10.15625 
Q 24.75 6.390625 31.78125 6.390625 
Q 38.8125 6.390625 42.859375 10.171875 
Q 46.921875 13.96875 46.921875 20.515625 
Q 46.921875 27.09375 42.890625 30.859375 
Q 38.875 34.625 31.78125 34.625 
z
M 21.921875 38.8125 
Q 15.578125 40.375 12.03125 44.71875 
Q 8.5 49.078125 8.5 55.328125 
Q 8.5 64.0625 14.71875 69.140625 
Q 20.953125 74.21875 31.78125 74.21875 
Q 42.671875 74.21875 48.875 69.140625 
Q 55.078125 64.0625 55.078125 55.328125 
Q 55.078125 49.078125 51.53125 44.71875 
Q 48 40.375 41.703125 38.8125 
Q 48.828125 37.15625 52.796875 32.3125 
Q 56.78125 27.484375 56.78125 20.515625 
Q 56.78125 9.90625 50.3125 4.234375 
Q 43.84375 -1.421875 31.78125 -1.421875 
Q 19.734375 -1.421875 13.25 4.234375 
Q 6.78125 9.90625 6.78125 20.515625 
Q 6.78125 27.484375 10.78125 32.3125 
Q 14.796875 37.15625 21.921875 38.8125 
z
M 18.3125 54.390625 
Q 18.3125 48.734375 21.84375 45.5625 
Q 25.390625 42.390625 31.78125 42.390625 
Q 38.140625 42.390625 41.71875 45.5625 
Q 45.3125 48.734375 45.3125 54.390625 
Q 45.3125 60.0625 41.71875 63.234375 
Q 38.140625 66.40625 31.78125 66.40625 
Q 25.390625 66.40625 21.84375 63.234375 
Q 18.3125 60.0625 18.3125 54.390625 
z
" id="DejaVuSans-56"/>
      </defs>
      <g transform="translate(81.78125 327.31125)scale(0.12 -0.12)">
       <use xlink:href="#DejaVuSans-48"/>
       <use x="63.623047" xlink:href="#DejaVuSans-46"/>
       <use x="95.410156" xlink:href="#DejaVuSans-49"/>
       <use x="159.033203" xlink:href="#DejaVuSans-56"/>
      </g>
     </g>
    </g>
    <g id="ytick_2">
     <g id="line2d_27">
      <g>
       <use style="stroke:#000000;stroke-width:0.5;" x="112.5" xlink:href="#m94d9fe19e3" y="276"/>
      </g>
     </g>
     <g id="line2d_28">
      <g>
       <use style="stroke:#000000;stroke-width:0.5;" x="635.625" xlink:href="#m82b20cf777" y="276"/>
      </g>
     </g>
     <g id="text_13">
      <!-- 0.20 -->
      <g transform="translate(81.78125 279.31125)scale(0.12 -0.12)">
       <use xlink:href="#DejaVuSans-48"/>
       <use x="63.623047" xlink:href="#DejaVuSans-46"/>
       <use x="95.410156" xlink:href="#DejaVuSans-50"/>
       <use x="159.033203" xlink:href="#DejaVuSans-48"/>
      </g>
     </g>
    </g>
    <g id="ytick_3">
     <g id="line2d_29">
      <g>
       <use style="stroke:#000000;stroke-width:0.5;" x="112.5" xlink:href="#m94d9fe19e3" y="228"/>
      </g>
     </g>
     <g id="line2d_30">
      <g>
       <use style="stroke:#000000;stroke-width:0.5;" x="635.625" xlink:href="#m82b20cf777" y="228"/>
      </g>
     </g>
     <g id="text_14">
      <!-- 0.22 -->
      <g transform="translate(81.78125 231.31125)scale(0.12 -0.12)">
       <use xlink:href="#DejaVuSans-48"/>
       <use x="63.623047" xlink:href="#DejaVuSans-46"/>
       <use x="95.410156" xlink:href="#DejaVuSans-50"/>
       <use x="159.033203" xlink:href="#DejaVuSans-50"/>
      </g>
     </g>
    </g>
    <g id="ytick_4">
     <g id="line2d_31">
      <g>
       <use style="stroke:#000000;stroke-width:0.5;" x="112.5" xlink:href="#m94d9fe19e3" y="180"/>
      </g>
     </g>
     <g id="line2d_32">
      <g>
       <use style="stroke:#000000;stroke-width:0.5;" x="635.625" xlink:href="#m82b20cf777" y="180"/>
      </g>
     </g>
     <g id="text_15">
      <!-- 0.24 -->
      <g transform="translate(81.78125 183.31125)scale(0.12 -0.12)">
       <use xlink:href="#DejaVuSans-48"/>
       <use x="63.623047" xlink:href="#DejaVuSans-46"/>
       <use x="95.410156" xlink:href="#DejaVuSans-50"/>
       <use x="159.033203" xlink:href="#DejaVuSans-52"/>
      </g>
     </g>
    </g>
    <g id="ytick_5">
     <g id="line2d_33">
      <g>
       <use style="stroke:#000000;stroke-width:0.5;" x="112.5" xlink:href="#m94d9fe19e3" y="132"/>
      </g>
     </g>
     <g id="line2d_34">
      <g>
       <use style="stroke:#000000;stroke-width:0.5;" x="635.625" xlink:href="#m82b20cf777" y="132"/>
      </g>
     </g>
     <g id="text_16">
      <!-- 0.26 -->
      <g transform="translate(81.78125 135.31125)scale(0.12 -0.12)">
       <use xlink:href="#DejaVuSans-48"/>
       <use x="63.623047" xlink:href="#DejaVuSans-46"/>
       <use x="95.410156" xlink:href="#DejaVuSans-50"/>
       <use x="159.033203" xlink:href="#DejaVuSans-54"/>
      </g>
     </g>
    </g>
    <g id="ytick_6">
     <g id="line2d_35">
      <g>
       <use style="stroke:#000000;stroke-width:0.5;" x="112.5" xlink:href="#m94d9fe19e3" y="84"/>
      </g>
     </g>
     <g id="line2d_36">
      <g>
       <use style="stroke:#000000;stroke-width:0.5;" x="635.625" xlink:href="#m82b20cf777" y="84"/>
      </g>
     </g>
     <g id="text_17">
      <!-- 0.28 -->
      <g transform="translate(81.78125 87.31125)scale(0.12 -0.12)">
       <use xlink:href="#DejaVuSans-48"/>
       <use x="63.623047" xlink:href="#DejaVuSans-46"/>
       <use x="95.410156" xlink:href="#DejaVuSans-50"/>
       <use x="159.033203" xlink:href="#DejaVuSans-56"/>
      </g>
     </g>
    </g>
    <g id="ytick_7">
     <g id="line2d_37">
      <g>
       <use style="stroke:#000000;stroke-width:0.5;" x="112.5" xlink:href="#m94d9fe19e3" y="36"/>
      </g>
     </g>
     <g id="line2d_38">
      <g>
       <use style="stroke:#000000;stroke-width:0.5;" x="635.625" xlink:href="#m82b20cf777" y="36"/>
      </g>
     </g>
     <g id="text_18">
      <!-- 0.30 -->
      <g transform="translate(81.78125 39.31125)scale(0.12 -0.12)">
       <use xlink:href="#DejaVuSans-48"/>
       <use x="63.623047" xlink:href="#DejaVuSans-46"/>
       <use x="95.410156" xlink:href="#DejaVuSans-51"/>
       <use x="159.033203" xlink:href="#DejaVuSans-48"/>
      </g>
     </g>
    </g>
    <g id="text_19">
     <!-- los -->
     <defs>
      <path d="M 9.421875 75.984375 
L 18.40625 75.984375 
L 18.40625 0 
L 9.421875 0 
z
" id="DejaVuSans-108"/>
      <path d="M 44.28125 53.078125 
L 44.28125 44.578125 
Q 40.484375 46.53125 36.375 47.5 
Q 32.28125 48.484375 27.875 48.484375 
Q 21.1875 48.484375 17.84375 46.4375 
Q 14.5 44.390625 14.5 40.28125 
Q 14.5 37.15625 16.890625 35.375 
Q 19.28125 33.59375 26.515625 31.984375 
L 29.59375 31.296875 
Q 39.15625 29.25 43.1875 25.515625 
Q 47.21875 21.78125 47.21875 15.09375 
Q 47.21875 7.46875 41.1875 3.015625 
Q 35.15625 -1.421875 24.609375 -1.421875 
Q 20.21875 -1.421875 15.453125 -0.5625 
Q 10.6875 0.296875 5.421875 2 
L 5.421875 11.28125 
Q 10.40625 8.6875 15.234375 7.390625 
Q 20.0625 6.109375 24.8125 6.109375 
Q 31.15625 6.109375 34.5625 8.28125 
Q 37.984375 10.453125 37.984375 14.40625 
Q 37.984375 18.0625 35.515625 20.015625 
Q 33.0625 21.96875 24.703125 23.78125 
L 21.578125 24.515625 
Q 13.234375 26.265625 9.515625 29.90625 
Q 5.8125 33.546875 5.8125 39.890625 
Q 5.8125 47.609375 11.28125 51.796875 
Q 16.75 56 26.8125 56 
Q 31.78125 56 36.171875 55.265625 
Q 40.578125 54.546875 44.28125 53.078125 
z
" id="DejaVuSans-115"/>
     </defs>
     <g transform="translate(74.285625 188.46375)rotate(-90)scale(0.12 -0.12)">
      <use xlink:href="#DejaVuSans-108"/>
      <use x="27.783203" xlink:href="#DejaVuSans-111"/>
      <use x="88.964844" xlink:href="#DejaVuSans-115"/>
     </g>
    </g>
   </g>
   <g id="legend_1">
    <g id="patch_7">
     <path d="M 640.623 211.260928 
L 856.794309 211.260928 
L 856.794309 148.739072 
L 640.623 148.739072 
z
" style="fill:#ffffff;stroke:#000000;stroke-linejoin:miter;"/>
    </g>
    <g id="line2d_39">
     <path d="M 647.6202 156.83427 
L 661.6146 156.83427 
" style="fill:none;stroke:#0000ff;stroke-linecap:square;stroke-width:1.2;"/>
    </g>
    <g id="line2d_40"/>
    <g id="text_20">
     <!-- Crossover -->
     <defs>
      <path d="M 64.40625 67.28125 
L 64.40625 56.890625 
Q 59.421875 61.53125 53.78125 63.8125 
Q 48.140625 66.109375 41.796875 66.109375 
Q 29.296875 66.109375 22.65625 58.46875 
Q 16.015625 50.828125 16.015625 36.375 
Q 16.015625 21.96875 22.65625 14.328125 
Q 29.296875 6.6875 41.796875 6.6875 
Q 48.140625 6.6875 53.78125 8.984375 
Q 59.421875 11.28125 64.40625 15.921875 
L 64.40625 5.609375 
Q 59.234375 2.09375 53.4375 0.328125 
Q 47.65625 -1.421875 41.21875 -1.421875 
Q 24.65625 -1.421875 15.125 8.703125 
Q 5.609375 18.84375 5.609375 36.375 
Q 5.609375 53.953125 15.125 64.078125 
Q 24.65625 74.21875 41.21875 74.21875 
Q 47.75 74.21875 53.53125 72.484375 
Q 59.328125 70.75 64.40625 67.28125 
z
" id="DejaVuSans-67"/>
      <path d="M 2.984375 54.6875 
L 12.5 54.6875 
L 29.59375 8.796875 
L 46.6875 54.6875 
L 56.203125 54.6875 
L 35.6875 0 
L 23.484375 0 
z
" id="DejaVuSans-118"/>
     </defs>
     <g transform="translate(672.6102 160.33287)scale(0.09996 -0.09996)">
      <use xlink:href="#DejaVuSans-67"/>
      <use x="69.824219" xlink:href="#DejaVuSans-114"/>
      <use x="108.6875" xlink:href="#DejaVuSans-111"/>
      <use x="169.869141" xlink:href="#DejaVuSans-115"/>
      <use x="221.96875" xlink:href="#DejaVuSans-115"/>
      <use x="274.068359" xlink:href="#DejaVuSans-111"/>
      <use x="335.25" xlink:href="#DejaVuSans-118"/>
      <use x="394.429688" xlink:href="#DejaVuSans-101"/>
      <use x="455.953125" xlink:href="#DejaVuSans-114"/>
     </g>
    </g>
    <g id="line2d_41">
     <path d="M 647.6202 171.506524 
L 661.6146 171.506524 
" style="fill:none;stroke:#008000;stroke-linecap:square;stroke-width:1.2;"/>
    </g>
    <g id="line2d_42"/>
    <g id="text_21">
     <!-- Crossover_activation_optimizer -->
     <defs>
      <path d="M 50.984375 -16.609375 
L 50.984375 -23.578125 
L -0.984375 -23.578125 
L -0.984375 -16.609375 
z
" id="DejaVuSans-95"/>
      <path d="M 48.78125 52.59375 
L 48.78125 44.1875 
Q 44.96875 46.296875 41.140625 47.34375 
Q 37.3125 48.390625 33.40625 48.390625 
Q 24.65625 48.390625 19.8125 42.84375 
Q 14.984375 37.3125 14.984375 27.296875 
Q 14.984375 17.28125 19.8125 11.734375 
Q 24.65625 6.203125 33.40625 6.203125 
Q 37.3125 6.203125 41.140625 7.25 
Q 44.96875 8.296875 48.78125 10.40625 
L 48.78125 2.09375 
Q 45.015625 0.34375 40.984375 -0.53125 
Q 36.96875 -1.421875 32.421875 -1.421875 
Q 20.0625 -1.421875 12.78125 6.34375 
Q 5.515625 14.109375 5.515625 27.296875 
Q 5.515625 40.671875 12.859375 48.328125 
Q 20.21875 56 33.015625 56 
Q 37.15625 56 41.109375 55.140625 
Q 45.0625 54.296875 48.78125 52.59375 
z
" id="DejaVuSans-99"/>
      <path d="M 18.109375 8.203125 
L 18.109375 -20.796875 
L 9.078125 -20.796875 
L 9.078125 54.6875 
L 18.109375 54.6875 
L 18.109375 46.390625 
Q 20.953125 51.265625 25.265625 53.625 
Q 29.59375 56 35.59375 56 
Q 45.5625 56 51.78125 48.09375 
Q 58.015625 40.1875 58.015625 27.296875 
Q 58.015625 14.40625 51.78125 6.484375 
Q 45.5625 -1.421875 35.59375 -1.421875 
Q 29.59375 -1.421875 25.265625 0.953125 
Q 20.953125 3.328125 18.109375 8.203125 
z
M 48.6875 27.296875 
Q 48.6875 37.203125 44.609375 42.84375 
Q 40.53125 48.484375 33.40625 48.484375 
Q 26.265625 48.484375 22.1875 42.84375 
Q 18.109375 37.203125 18.109375 27.296875 
Q 18.109375 17.390625 22.1875 11.75 
Q 26.265625 6.109375 33.40625 6.109375 
Q 40.53125 6.109375 44.609375 11.75 
Q 48.6875 17.390625 48.6875 27.296875 
z
" id="DejaVuSans-112"/>
      <path d="M 52 44.1875 
Q 55.375 50.25 60.0625 53.125 
Q 64.75 56 71.09375 56 
Q 79.640625 56 84.28125 50.015625 
Q 88.921875 44.046875 88.921875 33.015625 
L 88.921875 0 
L 79.890625 0 
L 79.890625 32.71875 
Q 79.890625 40.578125 77.09375 44.375 
Q 74.3125 48.1875 68.609375 48.1875 
Q 61.625 48.1875 57.5625 43.546875 
Q 53.515625 38.921875 53.515625 30.90625 
L 53.515625 0 
L 44.484375 0 
L 44.484375 32.71875 
Q 44.484375 40.625 41.703125 44.40625 
Q 38.921875 48.1875 33.109375 48.1875 
Q 26.21875 48.1875 22.15625 43.53125 
Q 18.109375 38.875 18.109375 30.90625 
L 18.109375 0 
L 9.078125 0 
L 9.078125 54.6875 
L 18.109375 54.6875 
L 18.109375 46.1875 
Q 21.1875 51.21875 25.484375 53.609375 
Q 29.78125 56 35.6875 56 
Q 41.65625 56 45.828125 52.96875 
Q 50 49.953125 52 44.1875 
z
" id="DejaVuSans-109"/>
      <path d="M 5.515625 54.6875 
L 48.1875 54.6875 
L 48.1875 46.484375 
L 14.40625 7.171875 
L 48.1875 7.171875 
L 48.1875 0 
L 4.296875 0 
L 4.296875 8.203125 
L 38.09375 47.515625 
L 5.515625 47.515625 
z
" id="DejaVuSans-122"/>
     </defs>
     <g transform="translate(672.6102 175.005124)scale(0.09996 -0.09996)">
      <use xlink:href="#DejaVuSans-67"/>
      <use x="69.824219" xlink:href="#DejaVuSans-114"/>
      <use x="108.6875" xlink:href="#DejaVuSans-111"/>
      <use x="169.869141" xlink:href="#DejaVuSans-115"/>
      <use x="221.96875" xlink:href="#DejaVuSans-115"/>
      <use x="274.068359" xlink:href="#DejaVuSans-111"/>
      <use x="335.25" xlink:href="#DejaVuSans-118"/>
      <use x="394.429688" xlink:href="#DejaVuSans-101"/>
      <use x="455.953125" xlink:href="#DejaVuSans-114"/>
      <use x="497.066406" xlink:href="#DejaVuSans-95"/>
      <use x="547.066406" xlink:href="#DejaVuSans-97"/>
      <use x="608.345703" xlink:href="#DejaVuSans-99"/>
      <use x="663.326172" xlink:href="#DejaVuSans-116"/>
      <use x="702.535156" xlink:href="#DejaVuSans-105"/>
      <use x="730.318359" xlink:href="#DejaVuSans-118"/>
      <use x="789.498047" xlink:href="#DejaVuSans-97"/>
      <use x="850.777344" xlink:href="#DejaVuSans-116"/>
      <use x="889.986328" xlink:href="#DejaVuSans-105"/>
      <use x="917.769531" xlink:href="#DejaVuSans-111"/>
      <use x="978.951172" xlink:href="#DejaVuSans-110"/>
      <use x="1042.330078" xlink:href="#DejaVuSans-95"/>
      <use x="1092.330078" xlink:href="#DejaVuSans-111"/>
      <use x="1153.511719" xlink:href="#DejaVuSans-112"/>
      <use x="1216.988281" xlink:href="#DejaVuSans-116"/>
      <use x="1256.197266" xlink:href="#DejaVuSans-105"/>
      <use x="1283.980469" xlink:href="#DejaVuSans-109"/>
      <use x="1381.392578" xlink:href="#DejaVuSans-105"/>
      <use x="1409.175781" xlink:href="#DejaVuSans-122"/>
      <use x="1461.666016" xlink:href="#DejaVuSans-101"/>
      <use x="1523.189453" xlink:href="#DejaVuSans-114"/>
     </g>
    </g>
    <g id="line2d_43">
     <path d="M 647.6202 186.456791 
L 661.6146 186.456791 
" style="fill:none;stroke:#ff0000;stroke-linecap:square;stroke-width:1.2;"/>
    </g>
    <g id="line2d_44"/>
    <g id="text_22">
     <!-- Crossover_Min_Layers -->
     <defs>
      <path d="M 9.8125 72.90625 
L 24.515625 72.90625 
L 43.109375 23.296875 
L 61.8125 72.90625 
L 76.515625 72.90625 
L 76.515625 0 
L 66.890625 0 
L 66.890625 64.015625 
L 48.09375 14.015625 
L 38.1875 14.015625 
L 19.390625 64.015625 
L 19.390625 0 
L 9.8125 0 
z
" id="DejaVuSans-77"/>
      <path d="M 9.8125 72.90625 
L 19.671875 72.90625 
L 19.671875 8.296875 
L 55.171875 8.296875 
L 55.171875 0 
L 9.8125 0 
z
" id="DejaVuSans-76"/>
      <path d="M 32.171875 -5.078125 
Q 28.375 -14.84375 24.75 -17.8125 
Q 21.140625 -20.796875 15.09375 -20.796875 
L 7.90625 -20.796875 
L 7.90625 -13.28125 
L 13.1875 -13.28125 
Q 16.890625 -13.28125 18.9375 -11.515625 
Q 21 -9.765625 23.484375 -3.21875 
L 25.09375 0.875 
L 2.984375 54.6875 
L 12.5 54.6875 
L 29.59375 11.921875 
L 46.6875 54.6875 
L 56.203125 54.6875 
z
" id="DejaVuSans-121"/>
     </defs>
     <g transform="translate(672.6102 189.955391)scale(0.09996 -0.09996)">
      <use xlink:href="#DejaVuSans-67"/>
      <use x="69.824219" xlink:href="#DejaVuSans-114"/>
      <use x="108.6875" xlink:href="#DejaVuSans-111"/>
      <use x="169.869141" xlink:href="#DejaVuSans-115"/>
      <use x="221.96875" xlink:href="#DejaVuSans-115"/>
      <use x="274.068359" xlink:href="#DejaVuSans-111"/>
      <use x="335.25" xlink:href="#DejaVuSans-118"/>
      <use x="394.429688" xlink:href="#DejaVuSans-101"/>
      <use x="455.953125" xlink:href="#DejaVuSans-114"/>
      <use x="497.066406" xlink:href="#DejaVuSans-95"/>
      <use x="547.066406" xlink:href="#DejaVuSans-77"/>
      <use x="633.345703" xlink:href="#DejaVuSans-105"/>
      <use x="661.128906" xlink:href="#DejaVuSans-110"/>
      <use x="724.507812" xlink:href="#DejaVuSans-95"/>
      <use x="774.507812" xlink:href="#DejaVuSans-76"/>
      <use x="830.220703" xlink:href="#DejaVuSans-97"/>
      <use x="891.5" xlink:href="#DejaVuSans-121"/>
      <use x="950.679688" xlink:href="#DejaVuSans-101"/>
      <use x="1012.203125" xlink:href="#DejaVuSans-114"/>
      <use x="1053.316406" xlink:href="#DejaVuSans-115"/>
     </g>
    </g>
    <g id="line2d_45">
     <path d="M 647.6202 201.407059 
L 661.6146 201.407059 
" style="fill:none;stroke:#00bfbf;stroke-linecap:square;stroke-width:1.2;"/>
    </g>
    <g id="line2d_46"/>
    <g id="text_23">
     <!-- Crossover_Random_Initial_Layer_No -->
     <defs>
      <path d="M 44.390625 34.1875 
Q 47.5625 33.109375 50.5625 29.59375 
Q 53.5625 26.078125 56.59375 19.921875 
L 66.609375 0 
L 56 0 
L 46.6875 18.703125 
Q 43.0625 26.03125 39.671875 28.421875 
Q 36.28125 30.8125 30.421875 30.8125 
L 19.671875 30.8125 
L 19.671875 0 
L 9.8125 0 
L 9.8125 72.90625 
L 32.078125 72.90625 
Q 44.578125 72.90625 50.734375 67.671875 
Q 56.890625 62.453125 56.890625 51.90625 
Q 56.890625 45.015625 53.6875 40.46875 
Q 50.484375 35.9375 44.390625 34.1875 
z
M 19.671875 64.796875 
L 19.671875 38.921875 
L 32.078125 38.921875 
Q 39.203125 38.921875 42.84375 42.21875 
Q 46.484375 45.515625 46.484375 51.90625 
Q 46.484375 58.296875 42.84375 61.546875 
Q 39.203125 64.796875 32.078125 64.796875 
z
" id="DejaVuSans-82"/>
      <path d="M 45.40625 46.390625 
L 45.40625 75.984375 
L 54.390625 75.984375 
L 54.390625 0 
L 45.40625 0 
L 45.40625 8.203125 
Q 42.578125 3.328125 38.25 0.953125 
Q 33.9375 -1.421875 27.875 -1.421875 
Q 17.96875 -1.421875 11.734375 6.484375 
Q 5.515625 14.40625 5.515625 27.296875 
Q 5.515625 40.1875 11.734375 48.09375 
Q 17.96875 56 27.875 56 
Q 33.9375 56 38.25 53.625 
Q 42.578125 51.265625 45.40625 46.390625 
z
M 14.796875 27.296875 
Q 14.796875 17.390625 18.875 11.75 
Q 22.953125 6.109375 30.078125 6.109375 
Q 37.203125 6.109375 41.296875 11.75 
Q 45.40625 17.390625 45.40625 27.296875 
Q 45.40625 37.203125 41.296875 42.84375 
Q 37.203125 48.484375 30.078125 48.484375 
Q 22.953125 48.484375 18.875 42.84375 
Q 14.796875 37.203125 14.796875 27.296875 
z
" id="DejaVuSans-100"/>
      <path d="M 9.8125 72.90625 
L 19.671875 72.90625 
L 19.671875 0 
L 9.8125 0 
z
" id="DejaVuSans-73"/>
      <path d="M 9.8125 72.90625 
L 23.09375 72.90625 
L 55.421875 11.921875 
L 55.421875 72.90625 
L 64.984375 72.90625 
L 64.984375 0 
L 51.703125 0 
L 19.390625 60.984375 
L 19.390625 0 
L 9.8125 0 
z
" id="DejaVuSans-78"/>
     </defs>
     <g transform="translate(672.6102 204.905659)scale(0.09996 -0.09996)">
      <use xlink:href="#DejaVuSans-67"/>
      <use x="69.824219" xlink:href="#DejaVuSans-114"/>
      <use x="108.6875" xlink:href="#DejaVuSans-111"/>
      <use x="169.869141" xlink:href="#DejaVuSans-115"/>
      <use x="221.96875" xlink:href="#DejaVuSans-115"/>
      <use x="274.068359" xlink:href="#DejaVuSans-111"/>
      <use x="335.25" xlink:href="#DejaVuSans-118"/>
      <use x="394.429688" xlink:href="#DejaVuSans-101"/>
      <use x="455.953125" xlink:href="#DejaVuSans-114"/>
      <use x="497.066406" xlink:href="#DejaVuSans-95"/>
      <use x="547.066406" xlink:href="#DejaVuSans-82"/>
      <use x="614.298828" xlink:href="#DejaVuSans-97"/>
      <use x="675.578125" xlink:href="#DejaVuSans-110"/>
      <use x="738.957031" xlink:href="#DejaVuSans-100"/>
      <use x="802.433594" xlink:href="#DejaVuSans-111"/>
      <use x="863.615234" xlink:href="#DejaVuSans-109"/>
      <use x="961.027344" xlink:href="#DejaVuSans-95"/>
      <use x="1011.027344" xlink:href="#DejaVuSans-73"/>
      <use x="1040.519531" xlink:href="#DejaVuSans-110"/>
      <use x="1103.898438" xlink:href="#DejaVuSans-105"/>
      <use x="1131.681641" xlink:href="#DejaVuSans-116"/>
      <use x="1170.890625" xlink:href="#DejaVuSans-105"/>
      <use x="1198.673828" xlink:href="#DejaVuSans-97"/>
      <use x="1259.953125" xlink:href="#DejaVuSans-108"/>
      <use x="1287.736328" xlink:href="#DejaVuSans-95"/>
      <use x="1337.736328" xlink:href="#DejaVuSans-76"/>
      <use x="1393.449219" xlink:href="#DejaVuSans-97"/>
      <use x="1454.728516" xlink:href="#DejaVuSans-121"/>
      <use x="1513.908203" xlink:href="#DejaVuSans-101"/>
      <use x="1575.431641" xlink:href="#DejaVuSans-114"/>
      <use x="1616.544922" xlink:href="#DejaVuSans-95"/>
      <use x="1666.544922" xlink:href="#DejaVuSans-78"/>
      <use x="1741.349609" xlink:href="#DejaVuSans-111"/>
     </g>
    </g>
   </g>
  </g>
  <g id="text_24">
   <!-- Average Loss -->
   <defs>
    <path d="M 34.1875 63.1875 
L 20.796875 26.90625 
L 47.609375 26.90625 
z
M 28.609375 72.90625 
L 39.796875 72.90625 
L 67.578125 0 
L 57.328125 0 
L 50.6875 18.703125 
L 17.828125 18.703125 
L 11.1875 0 
L 0.78125 0 
z
" id="DejaVuSans-65"/>
    <path id="DejaVuSans-32"/>
   </defs>
   <g transform="translate(410.293125 16.318125)scale(0.12 -0.12)">
    <use xlink:href="#DejaVuSans-65"/>
    <use x="62.533203" xlink:href="#DejaVuSans-118"/>
    <use x="121.712891" xlink:href="#DejaVuSans-101"/>
    <use x="183.236328" xlink:href="#DejaVuSans-114"/>
    <use x="224.349609" xlink:href="#DejaVuSans-97"/>
    <use x="285.628906" xlink:href="#DejaVuSans-103"/>
    <use x="349.105469" xlink:href="#DejaVuSans-101"/>
    <use x="410.628906" xlink:href="#DejaVuSans-32"/>
    <use x="442.416016" xlink:href="#DejaVuSans-76"/>
    <use x="496.378906" xlink:href="#DejaVuSans-111"/>
    <use x="557.560547" xlink:href="#DejaVuSans-115"/>
    <use x="609.660156" xlink:href="#DejaVuSans-115"/>
   </g>
  </g>
 </g>
 <defs>
  <clipPath id="pe169a67e1c">
   <rect height="288" width="523.125" x="112.5" y="36"/>
  </clipPath>
 </defs>
</svg>
