<?xml version="1.0" encoding="utf-8" standalone="no"?>
<!DOCTYPE svg PUBLIC "-//W3C//DTD SVG 1.1//EN"
  "http://www.w3.org/Graphics/SVG/1.1/DTD/svg11.dtd">
<!-- Created with matplotlib (https://matplotlib.org/) -->
<svg height="360pt" version="1.1" viewBox="0 0 900 360" width="900pt" xmlns="http://www.w3.org/2000/svg" xmlns:xlink="http://www.w3.org/1999/xlink">
 <defs>
  <style type="text/css">
*{stroke-linecap:butt;stroke-linejoin:round;}
  </style>
 </defs>
 <g id="figure_1">
  <g id="patch_1">
   <path d="M 0 360 
L 900 360 
L 900 0 
L 0 0 
z
" style="fill:#ffffff;"/>
  </g>
  <g id="axes_1">
   <g id="patch_2">
    <path d="M 112.5 324 
L 635.625 324 
L 635.625 36 
L 112.5 36 
z
" style="fill:#ffffff;"/>
   </g>
   <g id="line2d_1">
    <path clip-path="url(#pca230d8b82)" d="M 112.837065 49.918432 
L 116.207716 47.017289 
L 119.578367 40.230926 
L 122.949017 37.5662 
L 126.319668 39.323287 
L 129.690319 42.781069 
L 133.06097 44.686055 
L 136.43162 46.347716 
L 139.802271 51.768102 
L 143.172922 58.115153 
L 146.543573 65.32097 
L 149.914224 72.180716 
L 153.284874 78.081119 
L 156.655525 84.55439 
L 160.026176 96.023918 
L 163.396827 103.050233 
L 166.767477 112.918698 
L 173.508779 133.293211 
L 176.87943 144.237508 
L 180.250081 154.496951 
L 186.991382 172.708514 
L 190.362033 183.301142 
L 193.732684 190.90676 
L 197.103334 200.332741 
L 200.473985 205.516469 
L 203.844636 213.05525 
L 207.215287 217.65623 
L 210.585938 224.812861 
L 213.956588 227.357401 
L 217.327239 232.122563 
L 220.69789 232.954963 
L 224.068541 237.819031 
L 227.439191 240.499261 
L 230.809842 242.791508 
L 234.180493 245.866481 
L 237.551144 250.973013 
L 240.921794 254.019472 
L 244.292445 260.033911 
L 247.663096 263.295001 
L 251.033747 266.133019 
L 254.404398 273.15336 
L 257.775048 276.687695 
L 261.145699 279.212712 
L 264.51635 284.161962 
L 267.887001 287.133885 
L 271.257651 290.566363 
L 274.628302 290.497507 
L 277.998953 291.305797 
L 281.369604 288.666956 
L 284.740255 290.221329 
L 288.110905 291.125365 
L 291.481556 289.07709 
L 294.852207 289.387151 
L 298.222858 293.453501 
L 301.593508 293.998213 
L 304.964159 300.606744 
L 308.33481 304.190943 
L 311.705461 304.720957 
L 315.076111 308.332206 
L 318.446762 307.926461 
L 321.817413 307.02587 
L 325.188064 308.975426 
L 328.558715 306.706178 
L 331.929365 303.450788 
L 335.300016 302.096718 
L 338.670667 302.753782 
L 345.411968 303.780375 
L 352.15327 303.6569 
L 355.523921 306.086524 
L 358.894572 307.295124 
L 362.265222 306.18051 
L 365.635873 307.653326 
L 369.006524 308.424493 
L 372.377175 301.517376 
L 375.747825 299.941631 
L 379.118476 297.814001 
L 382.489127 297.091864 
L 385.859778 299.277638 
L 389.230428 296.954718 
L 392.601079 295.948312 
L 395.97173 301.016624 
L 399.342381 302.325601 
L 402.713032 297.821995 
L 406.083682 297.444631 
L 409.454333 292.024548 
L 412.824984 293.504678 
L 416.195635 292.094242 
L 419.566285 289.483341 
L 422.936936 288.260561 
L 426.307587 288.29026 
L 429.678238 287.793463 
L 433.048889 282.871998 
L 436.419539 276.955481 
L 439.79019 276.373305 
L 443.160841 278.445565 
L 446.531492 281.2486 
L 449.902142 281.452525 
L 453.272793 279.269993 
L 456.643444 286.918867 
L 460.014095 290.812363 
L 463.384745 292.78008 
L 466.755396 291.411958 
L 470.126047 288.213589 
L 473.496698 288.893703 
L 476.867349 291.790079 
L 480.237999 290.65128 
L 483.60865 292.279532 
L 486.979301 291.97864 
L 490.349952 293.145461 
L 493.720602 296.517402 
L 497.091253 302.162749 
L 503.832555 305.541791 
L 507.203206 305.417844 
L 510.573856 307.521786 
L 513.944507 310.685273 
L 517.315158 307.540329 
L 520.685809 301.535647 
L 524.056459 300.932188 
L 527.42711 291.962325 
L 530.797761 292.624469 
L 534.168412 289.938881 
L 537.539062 288.258015 
L 540.909713 288.177773 
L 544.280364 290.309259 
L 547.651015 290.056574 
L 551.021666 300.344147 
L 554.392316 300.997744 
L 557.762967 300.890383 
L 561.133618 296.995078 
L 564.504269 301.396641 
L 567.874919 302.49281 
L 571.24557 301.321972 
L 574.616221 298.813679 
L 577.986872 295.309324 
L 581.357523 293.999641 
L 584.728173 293.874406 
L 588.098824 292.948801 
L 591.469475 290.759516 
L 594.840126 286.76557 
L 598.210776 288.687708 
L 601.581427 287.518366 
L 608.322729 288.648436 
L 611.69338 285.251045 
L 615.06403 286.608647 
L 618.434681 290.141937 
L 621.805332 285.000743 
L 625.175983 286.957944 
L 625.175983 286.957944 
" style="fill:none;stroke:#0000ff;stroke-linecap:square;stroke-width:1.2;"/>
   </g>
   <g id="line2d_2">
    <path clip-path="url(#pca230d8b82)" d="M 112.837065 70.219054 
L 116.207716 76.372979 
L 119.578367 80.407707 
L 126.319668 87.551949 
L 129.690319 93.084808 
L 133.06097 93.537546 
L 136.43162 101.699972 
L 139.802271 105.831061 
L 143.172922 110.657263 
L 146.543573 117.456288 
L 149.914224 121.514609 
L 153.284874 125.109146 
L 156.655525 131.879106 
L 160.026176 134.148723 
L 163.396827 138.309254 
L 166.767477 145.309739 
L 170.138128 149.155199 
L 173.508779 153.363886 
L 176.87943 155.401841 
L 180.250081 159.097218 
L 186.991382 168.806101 
L 190.362033 173.383913 
L 193.732684 176.935542 
L 197.103334 183.582658 
L 200.473985 192.174873 
L 203.844636 197.921704 
L 207.215287 203.305378 
L 210.585938 210.37207 
L 213.956588 213.628553 
L 217.327239 221.750869 
L 220.69789 226.539424 
L 227.439191 237.005168 
L 230.809842 240.491187 
L 234.180493 243.75368 
L 237.551144 248.055319 
L 240.921794 252.961959 
L 244.292445 258.398438 
L 247.663096 262.754141 
L 251.033747 266.37407 
L 254.404398 271.08691 
L 257.775048 273.86275 
L 261.145699 279.949331 
L 264.51635 278.666474 
L 267.887001 280.977285 
L 271.257651 281.446308 
L 274.628302 284.012186 
L 277.998953 288.163855 
L 281.369604 286.697512 
L 284.740255 281.992634 
L 288.110905 288.309096 
L 291.481556 285.794774 
L 294.852207 287.055047 
L 298.222858 289.212708 
L 301.593508 287.462076 
L 304.964159 291.066297 
L 308.33481 294.870158 
L 311.705461 292.774725 
L 315.076111 298.94053 
L 318.446762 300.031646 
L 321.817413 297.506734 
L 325.188064 298.405157 
L 328.558715 296.818626 
L 331.929365 295.793353 
L 335.300016 299.321677 
L 338.670667 295.545399 
L 342.041318 290.35754 
L 345.411968 291.790666 
L 348.782619 290.456794 
L 352.15327 290.238853 
L 355.523921 293.537967 
L 358.894572 290.996486 
L 362.265222 290.832988 
L 365.635873 294.981608 
L 372.377175 296.696528 
L 375.747825 299.222673 
L 379.118476 299.970514 
L 385.859778 303.686952 
L 389.230428 304.135138 
L 392.601079 307.040079 
L 395.97173 308.009142 
L 399.342381 309.45391 
L 402.713032 306.053138 
L 406.083682 305.43371 
L 409.454333 306.117323 
L 412.824984 308.613756 
L 416.195635 302.910691 
L 419.566285 302.364203 
L 422.936936 299.124669 
L 426.307587 302.961774 
L 429.678238 302.577907 
L 433.048889 303.711172 
L 436.419539 305.908654 
L 439.79019 306.249659 
L 443.160841 305.111214 
L 446.531492 307.052232 
L 449.902142 304.386742 
L 453.272793 303.857132 
L 456.643444 301.341215 
L 460.014095 298.031015 
L 463.384745 298.888752 
L 470.126047 302.160571 
L 473.496698 305.33879 
L 476.867349 305.683091 
L 480.237999 303.776713 
L 483.60865 302.470074 
L 486.979301 303.507817 
L 490.349952 306.365513 
L 493.720602 304.073487 
L 497.091253 304.018007 
L 500.461904 303.338286 
L 503.832555 305.750052 
L 507.203206 301.038266 
L 510.573856 297.528208 
L 513.944507 289.479928 
L 517.315158 290.689143 
L 520.685809 283.255832 
L 524.056459 282.790627 
L 527.42711 278.410589 
L 530.797761 281.320118 
L 534.168412 283.228802 
L 537.539062 283.678054 
L 540.909713 281.360958 
L 544.280364 286.58841 
L 547.651015 282.497623 
L 551.021666 286.319341 
L 554.392316 287.410619 
L 561.133618 291.305932 
L 567.874919 293.598028 
L 571.24557 296.158397 
L 574.616221 296.000447 
L 577.986872 297.714823 
L 581.357523 297.435718 
L 584.728173 301.186506 
L 588.098824 302.158187 
L 591.469475 301.259586 
L 594.840126 303.939623 
L 598.210776 307.567211 
L 601.581427 306.203752 
L 604.952078 306.517506 
L 608.322729 305.548302 
L 611.69338 304.829469 
L 615.06403 306.313147 
L 618.434681 306.136735 
L 621.805332 302.966383 
L 625.175983 303.978197 
L 628.546633 303.746652 
L 631.917284 303.660152 
L 635.287935 305.82911 
L 635.287935 305.82911 
" style="fill:none;stroke:#008000;stroke-linecap:square;stroke-width:1.2;"/>
   </g>
   <g id="line2d_3">
    <path clip-path="url(#pca230d8b82)" d="M 112.837065 78.182995 
L 119.578367 90.476955 
L 122.949017 91.385803 
L 126.319668 93.732757 
L 129.690319 92.511461 
L 133.06097 94.97966 
L 139.802271 104.791297 
L 143.172922 110.274978 
L 146.543573 117.014559 
L 149.914224 125.392515 
L 153.284874 134.177996 
L 156.655525 140.033997 
L 160.026176 145.090589 
L 163.396827 152.952827 
L 166.767477 159.256987 
L 170.138128 166.297451 
L 173.508779 174.291197 
L 176.87943 180.540028 
L 180.250081 189.634493 
L 183.620731 199.17604 
L 186.991382 205.022979 
L 190.362033 209.800297 
L 193.732684 215.185472 
L 200.473985 226.751547 
L 203.844636 228.55033 
L 207.215287 232.727032 
L 210.585938 236.087669 
L 213.956588 242.384707 
L 217.327239 246.389968 
L 220.69789 247.408858 
L 224.068541 248.061016 
L 227.439191 252.986388 
L 230.809842 253.161012 
L 234.180493 257.563035 
L 237.551144 259.583295 
L 240.921794 261.256193 
L 244.292445 264.852155 
L 247.663096 270.381266 
L 251.033747 273.138799 
L 254.404398 276.394012 
L 257.775048 277.893979 
L 261.145699 280.71346 
L 264.51635 284.764195 
L 267.887001 289.233695 
L 271.257651 290.970294 
L 274.628302 292.996914 
L 277.998953 295.458999 
L 281.369604 299.00336 
L 284.740255 298.20706 
L 288.110905 299.427485 
L 291.481556 301.137085 
L 294.852207 299.659031 
L 298.222858 302.0706 
L 301.593508 300.44218 
L 304.964159 299.185995 
L 308.33481 300.721345 
L 311.705461 302.540084 
L 315.076111 293.154651 
L 318.446762 296.150947 
L 325.188064 291.645807 
L 328.558715 290.864494 
L 331.929365 288.549096 
L 335.300016 285.892452 
L 338.670667 294.415341 
L 342.041318 294.010622 
L 345.411968 293.953298 
L 348.782619 300.81384 
L 352.15327 302.454988 
L 355.523921 305.728792 
L 358.894572 306.947738 
L 362.265222 303.84718 
L 365.635873 297.701962 
L 369.006524 300.244727 
L 372.377175 293.881617 
L 375.747825 292.633289 
L 379.118476 292.272506 
L 382.489127 294.818456 
L 385.859778 294.661736 
L 389.230428 296.825927 
L 392.601079 294.215647 
L 395.97173 299.494938 
L 399.342381 302.900177 
L 402.713032 305.510529 
L 406.083682 298.056479 
L 409.454333 295.339349 
L 412.824984 299.442505 
L 416.195635 298.515576 
L 419.566285 299.946688 
L 422.936936 298.221326 
L 426.307587 295.620165 
L 429.678238 295.386508 
L 433.048889 299.563943 
L 436.419539 298.877701 
L 439.79019 300.862771 
L 446.531492 295.557396 
L 449.902142 293.439992 
L 453.272793 296.755707 
L 456.643444 295.377778 
L 463.384745 295.80279 
L 466.755396 294.456942 
L 470.126047 294.579875 
L 473.496698 293.994158 
L 476.867349 292.546747 
L 480.237999 295.449379 
L 483.60865 296.988506 
L 486.979301 293.766873 
L 490.349952 294.613747 
L 493.720602 296.76871 
L 497.091253 295.680132 
L 500.461904 299.752985 
L 503.832555 298.489321 
L 507.203206 299.472708 
L 510.573856 298.281801 
L 513.944507 296.501396 
L 517.315158 297.761347 
L 520.685809 299.706932 
L 524.056459 297.880101 
L 527.42711 297.008898 
L 530.797761 295.090681 
L 534.168412 296.716096 
L 537.539062 296.993767 
L 540.909713 295.910766 
L 544.280364 296.937712 
L 547.651015 296.604463 
L 551.021666 297.262554 
L 554.392316 293.828813 
L 557.762967 298.569377 
L 561.133618 293.853894 
L 564.504269 288.1642 
L 567.874919 288.258046 
L 571.24557 287.658104 
L 574.616221 284.572218 
L 577.986872 286.667374 
L 581.357523 281.909821 
L 584.728173 284.094261 
L 588.098824 289.89749 
L 591.469475 285.5333 
L 594.840126 287.048201 
L 598.210776 289.043278 
L 601.581427 287.937415 
L 604.952078 287.472062 
L 608.322729 291.434446 
L 611.69338 286.921183 
L 615.06403 292.492072 
L 615.06403 292.492072 
" style="fill:none;stroke:#ff0000;stroke-linecap:square;stroke-width:1.2;"/>
   </g>
   <g id="line2d_4">
    <path clip-path="url(#pca230d8b82)" d="M 112.837065 59.520331 
L 116.207716 64.862192 
L 119.578367 69.536317 
L 122.949017 73.802702 
L 126.319668 75.587926 
L 129.690319 77.968029 
L 133.06097 82.323523 
L 136.43162 89.614162 
L 139.802271 97.998807 
L 143.172922 105.057556 
L 146.543573 110.305276 
L 149.914224 116.364311 
L 153.284874 121.967846 
L 156.655525 126.550968 
L 160.026176 128.227001 
L 163.396827 129.531822 
L 166.767477 135.061454 
L 170.138128 139.220292 
L 173.508779 143.981741 
L 176.87943 148.024626 
L 180.250081 153.525575 
L 183.620731 162.368229 
L 186.991382 170.728806 
L 193.732684 178.746037 
L 200.473985 191.791445 
L 203.844636 195.578156 
L 207.215287 198.105363 
L 210.585938 202.395818 
L 213.956588 207.481381 
L 217.327239 213.679788 
L 220.69789 218.080274 
L 227.439191 231.294864 
L 230.809842 240.112202 
L 234.180493 246.582649 
L 237.551144 251.906454 
L 240.921794 257.560635 
L 244.292445 263.799675 
L 247.663096 268.052223 
L 251.033747 271.434885 
L 254.404398 273.240674 
L 257.775048 276.825986 
L 261.145699 281.046584 
L 264.51635 285.049705 
L 267.887001 286.107862 
L 271.257651 289.197589 
L 274.628302 291.580179 
L 277.998953 295.170292 
L 281.369604 296.292452 
L 284.740255 298.622569 
L 288.110905 300.576437 
L 291.481556 303.007406 
L 298.222858 301.661107 
L 301.593508 302.80999 
L 304.964159 301.360007 
L 308.33481 300.161208 
L 311.705461 299.24019 
L 315.076111 299.673924 
L 318.446762 299.990832 
L 321.817413 300.654181 
L 325.188064 298.872261 
L 328.558715 300.883158 
L 331.929365 301.415464 
L 335.300016 304.502125 
L 338.670667 303.183343 
L 342.041318 304.643093 
L 345.411968 303.943436 
L 348.782619 304.504251 
L 352.15327 306.160547 
L 355.523921 305.791308 
L 358.894572 302.231792 
L 362.265222 302.64265 
L 369.006524 301.336894 
L 372.377175 299.395715 
L 375.747825 299.185794 
L 379.118476 300.008913 
L 382.489127 302.138211 
L 385.859778 300.842269 
L 389.230428 299.989733 
L 392.601079 304.864446 
L 395.97173 302.389255 
L 399.342381 300.075001 
L 402.713032 291.867173 
L 406.083682 285.931622 
L 409.454333 286.146589 
L 412.824984 283.94612 
L 416.195635 277.706424 
L 419.566285 274.881785 
L 422.936936 272.659895 
L 426.307587 281.596927 
L 429.678238 284.853345 
L 433.048889 283.966084 
L 436.419539 279.488893 
L 439.79019 279.309271 
L 443.160841 283.476088 
L 446.531492 286.947682 
L 449.902142 286.944502 
L 453.272793 281.790165 
L 456.643444 280.032008 
L 460.014095 285.069983 
L 463.384745 291.051283 
L 466.755396 292.678427 
L 470.126047 291.307522 
L 473.496698 288.155734 
L 476.867349 292.152177 
L 480.237999 291.522357 
L 483.60865 287.532619 
L 486.979301 281.649808 
L 490.349952 275.485366 
L 493.720602 274.734348 
L 497.091253 275.480266 
L 500.461904 275.088243 
L 503.832555 278.731967 
L 507.203206 278.774742 
L 510.573856 284.358547 
L 513.944507 290.246602 
L 517.315158 293.476934 
L 520.685809 294.380724 
L 524.056459 294.795577 
L 527.42711 296.503152 
L 530.797761 303.306707 
L 534.168412 301.238458 
L 537.539062 304.231811 
L 540.909713 304.891114 
L 544.280364 305.207337 
L 547.651015 307.437441 
L 554.392316 304.190628 
L 557.762967 303.93735 
L 561.133618 302.008882 
L 564.504269 295.304103 
L 567.874919 294.832488 
L 571.24557 294.645121 
L 574.616221 294.916306 
L 577.986872 295.355829 
L 581.357523 288.622865 
L 584.728173 284.815841 
L 588.098824 287.064212 
L 591.469475 285.06787 
L 594.840126 281.668529 
L 598.210776 277.640278 
L 601.581427 272.076741 
L 604.952078 278.454573 
L 604.952078 278.454573 
" style="fill:none;stroke:#00bfbf;stroke-linecap:square;stroke-width:1.2;"/>
   </g>
   <g id="patch_3">
    <path d="M 112.5 324 
L 112.5 36 
" style="fill:none;stroke:#000000;stroke-linecap:square;stroke-linejoin:miter;"/>
   </g>
   <g id="patch_4">
    <path d="M 635.625 324 
L 635.625 36 
" style="fill:none;stroke:#000000;stroke-linecap:square;stroke-linejoin:miter;"/>
   </g>
   <g id="patch_5">
    <path d="M 112.5 324 
L 635.625 324 
" style="fill:none;stroke:#000000;stroke-linecap:square;stroke-linejoin:miter;"/>
   </g>
   <g id="patch_6">
    <path d="M 112.5 36 
L 635.625 36 
" style="fill:none;stroke:#000000;stroke-linecap:square;stroke-linejoin:miter;"/>
   </g>
   <g id="matplotlib.axis_1">
    <g id="xtick_1">
     <g id="line2d_5">
      <defs>
       <path d="M 0 0 
L 0 -4 
" id="m5441e75ff7" style="stroke:#000000;stroke-width:0.5;"/>
      </defs>
      <g>
       <use style="stroke:#000000;stroke-width:0.5;" x="112.837065" xlink:href="#m5441e75ff7" y="324"/>
      </g>
     </g>
     <g id="line2d_6">
      <defs>
       <path d="M 0 0 
L 0 4 
" id="m5c16e0b80e" style="stroke:#000000;stroke-width:0.5;"/>
      </defs>
      <g>
       <use style="stroke:#000000;stroke-width:0.5;" x="112.837065" xlink:href="#m5c16e0b80e" y="36"/>
      </g>
     </g>
     <g id="text_1">
      <!-- 0 -->
      <defs>
       <path d="M 31.78125 66.40625 
Q 24.171875 66.40625 20.328125 58.90625 
Q 16.5 51.421875 16.5 36.375 
Q 16.5 21.390625 20.328125 13.890625 
Q 24.171875 6.390625 31.78125 6.390625 
Q 39.453125 6.390625 43.28125 13.890625 
Q 47.125 21.390625 47.125 36.375 
Q 47.125 51.421875 43.28125 58.90625 
Q 39.453125 66.40625 31.78125 66.40625 
z
M 31.78125 74.21875 
Q 44.046875 74.21875 50.515625 64.515625 
Q 56.984375 54.828125 56.984375 36.375 
Q 56.984375 17.96875 50.515625 8.265625 
Q 44.046875 -1.421875 31.78125 -1.421875 
Q 19.53125 -1.421875 13.0625 8.265625 
Q 6.59375 17.96875 6.59375 36.375 
Q 6.59375 54.828125 13.0625 64.515625 
Q 19.53125 74.21875 31.78125 74.21875 
z
" id="DejaVuSans-48"/>
      </defs>
      <g transform="translate(109.019565 337.118125)scale(0.12 -0.12)">
       <use xlink:href="#DejaVuSans-48"/>
      </g>
     </g>
    </g>
    <g id="xtick_2">
     <g id="line2d_7">
      <g>
       <use style="stroke:#000000;stroke-width:0.5;" x="166.767477" xlink:href="#m5441e75ff7" y="324"/>
      </g>
     </g>
     <g id="line2d_8">
      <g>
       <use style="stroke:#000000;stroke-width:0.5;" x="166.767477" xlink:href="#m5c16e0b80e" y="36"/>
      </g>
     </g>
     <g id="text_2">
      <!-- 16 -->
      <defs>
       <path d="M 12.40625 8.296875 
L 28.515625 8.296875 
L 28.515625 63.921875 
L 10.984375 60.40625 
L 10.984375 69.390625 
L 28.421875 72.90625 
L 38.28125 72.90625 
L 38.28125 8.296875 
L 54.390625 8.296875 
L 54.390625 0 
L 12.40625 0 
z
" id="DejaVuSans-49"/>
       <path d="M 33.015625 40.375 
Q 26.375 40.375 22.484375 35.828125 
Q 18.609375 31.296875 18.609375 23.390625 
Q 18.609375 15.53125 22.484375 10.953125 
Q 26.375 6.390625 33.015625 6.390625 
Q 39.65625 6.390625 43.53125 10.953125 
Q 47.40625 15.53125 47.40625 23.390625 
Q 47.40625 31.296875 43.53125 35.828125 
Q 39.65625 40.375 33.015625 40.375 
z
M 52.59375 71.296875 
L 52.59375 62.3125 
Q 48.875 64.0625 45.09375 64.984375 
Q 41.3125 65.921875 37.59375 65.921875 
Q 27.828125 65.921875 22.671875 59.328125 
Q 17.53125 52.734375 16.796875 39.40625 
Q 19.671875 43.65625 24.015625 45.921875 
Q 28.375 48.1875 33.59375 48.1875 
Q 44.578125 48.1875 50.953125 41.515625 
Q 57.328125 34.859375 57.328125 23.390625 
Q 57.328125 12.15625 50.6875 5.359375 
Q 44.046875 -1.421875 33.015625 -1.421875 
Q 20.359375 -1.421875 13.671875 8.265625 
Q 6.984375 17.96875 6.984375 36.375 
Q 6.984375 53.65625 15.1875 63.9375 
Q 23.390625 74.21875 37.203125 74.21875 
Q 40.921875 74.21875 44.703125 73.484375 
Q 48.484375 72.75 52.59375 71.296875 
z
" id="DejaVuSans-54"/>
      </defs>
      <g transform="translate(159.132477 337.118125)scale(0.12 -0.12)">
       <use xlink:href="#DejaVuSans-49"/>
       <use x="63.623047" xlink:href="#DejaVuSans-54"/>
      </g>
     </g>
    </g>
    <g id="xtick_3">
     <g id="line2d_9">
      <g>
       <use style="stroke:#000000;stroke-width:0.5;" x="220.69789" xlink:href="#m5441e75ff7" y="324"/>
      </g>
     </g>
     <g id="line2d_10">
      <g>
       <use style="stroke:#000000;stroke-width:0.5;" x="220.69789" xlink:href="#m5c16e0b80e" y="36"/>
      </g>
     </g>
     <g id="text_3">
      <!-- 32 -->
      <defs>
       <path d="M 40.578125 39.3125 
Q 47.65625 37.796875 51.625 33 
Q 55.609375 28.21875 55.609375 21.1875 
Q 55.609375 10.40625 48.1875 4.484375 
Q 40.765625 -1.421875 27.09375 -1.421875 
Q 22.515625 -1.421875 17.65625 -0.515625 
Q 12.796875 0.390625 7.625 2.203125 
L 7.625 11.71875 
Q 11.71875 9.328125 16.59375 8.109375 
Q 21.484375 6.890625 26.8125 6.890625 
Q 36.078125 6.890625 40.9375 10.546875 
Q 45.796875 14.203125 45.796875 21.1875 
Q 45.796875 27.640625 41.28125 31.265625 
Q 36.765625 34.90625 28.71875 34.90625 
L 20.21875 34.90625 
L 20.21875 43.015625 
L 29.109375 43.015625 
Q 36.375 43.015625 40.234375 45.921875 
Q 44.09375 48.828125 44.09375 54.296875 
Q 44.09375 59.90625 40.109375 62.90625 
Q 36.140625 65.921875 28.71875 65.921875 
Q 24.65625 65.921875 20.015625 65.03125 
Q 15.375 64.15625 9.8125 62.3125 
L 9.8125 71.09375 
Q 15.4375 72.65625 20.34375 73.4375 
Q 25.25 74.21875 29.59375 74.21875 
Q 40.828125 74.21875 47.359375 69.109375 
Q 53.90625 64.015625 53.90625 55.328125 
Q 53.90625 49.265625 50.4375 45.09375 
Q 46.96875 40.921875 40.578125 39.3125 
z
" id="DejaVuSans-51"/>
       <path d="M 19.1875 8.296875 
L 53.609375 8.296875 
L 53.609375 0 
L 7.328125 0 
L 7.328125 8.296875 
Q 12.9375 14.109375 22.625 23.890625 
Q 32.328125 33.6875 34.8125 36.53125 
Q 39.546875 41.84375 41.421875 45.53125 
Q 43.3125 49.21875 43.3125 52.78125 
Q 43.3125 58.59375 39.234375 62.25 
Q 35.15625 65.921875 28.609375 65.921875 
Q 23.96875 65.921875 18.8125 64.3125 
Q 13.671875 62.703125 7.8125 59.421875 
L 7.8125 69.390625 
Q 13.765625 71.78125 18.9375 73 
Q 24.125 74.21875 28.421875 74.21875 
Q 39.75 74.21875 46.484375 68.546875 
Q 53.21875 62.890625 53.21875 53.421875 
Q 53.21875 48.921875 51.53125 44.890625 
Q 49.859375 40.875 45.40625 35.40625 
Q 44.1875 33.984375 37.640625 27.21875 
Q 31.109375 20.453125 19.1875 8.296875 
z
" id="DejaVuSans-50"/>
      </defs>
      <g transform="translate(213.06289 337.118125)scale(0.12 -0.12)">
       <use xlink:href="#DejaVuSans-51"/>
       <use x="63.623047" xlink:href="#DejaVuSans-50"/>
      </g>
     </g>
    </g>
    <g id="xtick_4">
     <g id="line2d_11">
      <g>
       <use style="stroke:#000000;stroke-width:0.5;" x="274.628302" xlink:href="#m5441e75ff7" y="324"/>
      </g>
     </g>
     <g id="line2d_12">
      <g>
       <use style="stroke:#000000;stroke-width:0.5;" x="274.628302" xlink:href="#m5c16e0b80e" y="36"/>
      </g>
     </g>
     <g id="text_4">
      <!-- 48 -->
      <defs>
       <path d="M 37.796875 64.3125 
L 12.890625 25.390625 
L 37.796875 25.390625 
z
M 35.203125 72.90625 
L 47.609375 72.90625 
L 47.609375 25.390625 
L 58.015625 25.390625 
L 58.015625 17.1875 
L 47.609375 17.1875 
L 47.609375 0 
L 37.796875 0 
L 37.796875 17.1875 
L 4.890625 17.1875 
L 4.890625 26.703125 
z
" id="DejaVuSans-52"/>
       <path d="M 31.78125 34.625 
Q 24.75 34.625 20.71875 30.859375 
Q 16.703125 27.09375 16.703125 20.515625 
Q 16.703125 13.921875 20.71875 10.15625 
Q 24.75 6.390625 31.78125 6.390625 
Q 38.8125 6.390625 42.859375 10.171875 
Q 46.921875 13.96875 46.921875 20.515625 
Q 46.921875 27.09375 42.890625 30.859375 
Q 38.875 34.625 31.78125 34.625 
z
M 21.921875 38.8125 
Q 15.578125 40.375 12.03125 44.71875 
Q 8.5 49.078125 8.5 55.328125 
Q 8.5 64.0625 14.71875 69.140625 
Q 20.953125 74.21875 31.78125 74.21875 
Q 42.671875 74.21875 48.875 69.140625 
Q 55.078125 64.0625 55.078125 55.328125 
Q 55.078125 49.078125 51.53125 44.71875 
Q 48 40.375 41.703125 38.8125 
Q 48.828125 37.15625 52.796875 32.3125 
Q 56.78125 27.484375 56.78125 20.515625 
Q 56.78125 9.90625 50.3125 4.234375 
Q 43.84375 -1.421875 31.78125 -1.421875 
Q 19.734375 -1.421875 13.25 4.234375 
Q 6.78125 9.90625 6.78125 20.515625 
Q 6.78125 27.484375 10.78125 32.3125 
Q 14.796875 37.15625 21.921875 38.8125 
z
M 18.3125 54.390625 
Q 18.3125 48.734375 21.84375 45.5625 
Q 25.390625 42.390625 31.78125 42.390625 
Q 38.140625 42.390625 41.71875 45.5625 
Q 45.3125 48.734375 45.3125 54.390625 
Q 45.3125 60.0625 41.71875 63.234375 
Q 38.140625 66.40625 31.78125 66.40625 
Q 25.390625 66.40625 21.84375 63.234375 
Q 18.3125 60.0625 18.3125 54.390625 
z
" id="DejaVuSans-56"/>
      </defs>
      <g transform="translate(266.993302 337.118125)scale(0.12 -0.12)">
       <use xlink:href="#DejaVuSans-52"/>
       <use x="63.623047" xlink:href="#DejaVuSans-56"/>
      </g>
     </g>
    </g>
    <g id="xtick_5">
     <g id="line2d_13">
      <g>
       <use style="stroke:#000000;stroke-width:0.5;" x="328.558715" xlink:href="#m5441e75ff7" y="324"/>
      </g>
     </g>
     <g id="line2d_14">
      <g>
       <use style="stroke:#000000;stroke-width:0.5;" x="328.558715" xlink:href="#m5c16e0b80e" y="36"/>
      </g>
     </g>
     <g id="text_5">
      <!-- 64 -->
      <g transform="translate(320.923715 337.118125)scale(0.12 -0.12)">
       <use xlink:href="#DejaVuSans-54"/>
       <use x="63.623047" xlink:href="#DejaVuSans-52"/>
      </g>
     </g>
    </g>
    <g id="xtick_6">
     <g id="line2d_15">
      <g>
       <use style="stroke:#000000;stroke-width:0.5;" x="382.489127" xlink:href="#m5441e75ff7" y="324"/>
      </g>
     </g>
     <g id="line2d_16">
      <g>
       <use style="stroke:#000000;stroke-width:0.5;" x="382.489127" xlink:href="#m5c16e0b80e" y="36"/>
      </g>
     </g>
     <g id="text_6">
      <!-- 80 -->
      <g transform="translate(374.854127 337.118125)scale(0.12 -0.12)">
       <use xlink:href="#DejaVuSans-56"/>
       <use x="63.623047" xlink:href="#DejaVuSans-48"/>
      </g>
     </g>
    </g>
    <g id="xtick_7">
     <g id="line2d_17">
      <g>
       <use style="stroke:#000000;stroke-width:0.5;" x="436.419539" xlink:href="#m5441e75ff7" y="324"/>
      </g>
     </g>
     <g id="line2d_18">
      <g>
       <use style="stroke:#000000;stroke-width:0.5;" x="436.419539" xlink:href="#m5c16e0b80e" y="36"/>
      </g>
     </g>
     <g id="text_7">
      <!-- 96 -->
      <defs>
       <path d="M 10.984375 1.515625 
L 10.984375 10.5 
Q 14.703125 8.734375 18.5 7.8125 
Q 22.3125 6.890625 25.984375 6.890625 
Q 35.75 6.890625 40.890625 13.453125 
Q 46.046875 20.015625 46.78125 33.40625 
Q 43.953125 29.203125 39.59375 26.953125 
Q 35.25 24.703125 29.984375 24.703125 
Q 19.046875 24.703125 12.671875 31.3125 
Q 6.296875 37.9375 6.296875 49.421875 
Q 6.296875 60.640625 12.9375 67.421875 
Q 19.578125 74.21875 30.609375 74.21875 
Q 43.265625 74.21875 49.921875 64.515625 
Q 56.59375 54.828125 56.59375 36.375 
Q 56.59375 19.140625 48.40625 8.859375 
Q 40.234375 -1.421875 26.421875 -1.421875 
Q 22.703125 -1.421875 18.890625 -0.6875 
Q 15.09375 0.046875 10.984375 1.515625 
z
M 30.609375 32.421875 
Q 37.25 32.421875 41.125 36.953125 
Q 45.015625 41.5 45.015625 49.421875 
Q 45.015625 57.28125 41.125 61.84375 
Q 37.25 66.40625 30.609375 66.40625 
Q 23.96875 66.40625 20.09375 61.84375 
Q 16.21875 57.28125 16.21875 49.421875 
Q 16.21875 41.5 20.09375 36.953125 
Q 23.96875 32.421875 30.609375 32.421875 
z
" id="DejaVuSans-57"/>
      </defs>
      <g transform="translate(428.784539 337.118125)scale(0.12 -0.12)">
       <use xlink:href="#DejaVuSans-57"/>
       <use x="63.623047" xlink:href="#DejaVuSans-54"/>
      </g>
     </g>
    </g>
    <g id="xtick_8">
     <g id="line2d_19">
      <g>
       <use style="stroke:#000000;stroke-width:0.5;" x="490.349952" xlink:href="#m5441e75ff7" y="324"/>
      </g>
     </g>
     <g id="line2d_20">
      <g>
       <use style="stroke:#000000;stroke-width:0.5;" x="490.349952" xlink:href="#m5c16e0b80e" y="36"/>
      </g>
     </g>
     <g id="text_8">
      <!-- 112 -->
      <g transform="translate(478.897452 337.118125)scale(0.12 -0.12)">
       <use xlink:href="#DejaVuSans-49"/>
       <use x="63.623047" xlink:href="#DejaVuSans-49"/>
       <use x="127.246094" xlink:href="#DejaVuSans-50"/>
      </g>
     </g>
    </g>
    <g id="xtick_9">
     <g id="line2d_21">
      <g>
       <use style="stroke:#000000;stroke-width:0.5;" x="544.280364" xlink:href="#m5441e75ff7" y="324"/>
      </g>
     </g>
     <g id="line2d_22">
      <g>
       <use style="stroke:#000000;stroke-width:0.5;" x="544.280364" xlink:href="#m5c16e0b80e" y="36"/>
      </g>
     </g>
     <g id="text_9">
      <!-- 128 -->
      <g transform="translate(532.827864 337.118125)scale(0.12 -0.12)">
       <use xlink:href="#DejaVuSans-49"/>
       <use x="63.623047" xlink:href="#DejaVuSans-50"/>
       <use x="127.246094" xlink:href="#DejaVuSans-56"/>
      </g>
     </g>
    </g>
    <g id="xtick_10">
     <g id="line2d_23">
      <g>
       <use style="stroke:#000000;stroke-width:0.5;" x="598.210776" xlink:href="#m5441e75ff7" y="324"/>
      </g>
     </g>
     <g id="line2d_24">
      <g>
       <use style="stroke:#000000;stroke-width:0.5;" x="598.210776" xlink:href="#m5c16e0b80e" y="36"/>
      </g>
     </g>
     <g id="text_10">
      <!-- 144 -->
      <g transform="translate(586.758276 337.118125)scale(0.12 -0.12)">
       <use xlink:href="#DejaVuSans-49"/>
       <use x="63.623047" xlink:href="#DejaVuSans-52"/>
       <use x="127.246094" xlink:href="#DejaVuSans-52"/>
      </g>
     </g>
    </g>
    <g id="text_11">
     <!-- generation -->
     <defs>
      <path d="M 45.40625 27.984375 
Q 45.40625 37.75 41.375 43.109375 
Q 37.359375 48.484375 30.078125 48.484375 
Q 22.859375 48.484375 18.828125 43.109375 
Q 14.796875 37.75 14.796875 27.984375 
Q 14.796875 18.265625 18.828125 12.890625 
Q 22.859375 7.515625 30.078125 7.515625 
Q 37.359375 7.515625 41.375 12.890625 
Q 45.40625 18.265625 45.40625 27.984375 
z
M 54.390625 6.78125 
Q 54.390625 -7.171875 48.1875 -13.984375 
Q 42 -20.796875 29.203125 -20.796875 
Q 24.46875 -20.796875 20.265625 -20.09375 
Q 16.0625 -19.390625 12.109375 -17.921875 
L 12.109375 -9.1875 
Q 16.0625 -11.328125 19.921875 -12.34375 
Q 23.78125 -13.375 27.78125 -13.375 
Q 36.625 -13.375 41.015625 -8.765625 
Q 45.40625 -4.15625 45.40625 5.171875 
L 45.40625 9.625 
Q 42.625 4.78125 38.28125 2.390625 
Q 33.9375 0 27.875 0 
Q 17.828125 0 11.671875 7.65625 
Q 5.515625 15.328125 5.515625 27.984375 
Q 5.515625 40.671875 11.671875 48.328125 
Q 17.828125 56 27.875 56 
Q 33.9375 56 38.28125 53.609375 
Q 42.625 51.21875 45.40625 46.390625 
L 45.40625 54.6875 
L 54.390625 54.6875 
z
" id="DejaVuSans-103"/>
      <path d="M 56.203125 29.59375 
L 56.203125 25.203125 
L 14.890625 25.203125 
Q 15.484375 15.921875 20.484375 11.0625 
Q 25.484375 6.203125 34.421875 6.203125 
Q 39.59375 6.203125 44.453125 7.46875 
Q 49.3125 8.734375 54.109375 11.28125 
L 54.109375 2.78125 
Q 49.265625 0.734375 44.1875 -0.34375 
Q 39.109375 -1.421875 33.890625 -1.421875 
Q 20.796875 -1.421875 13.15625 6.1875 
Q 5.515625 13.8125 5.515625 26.8125 
Q 5.515625 40.234375 12.765625 48.109375 
Q 20.015625 56 32.328125 56 
Q 43.359375 56 49.78125 48.890625 
Q 56.203125 41.796875 56.203125 29.59375 
z
M 47.21875 32.234375 
Q 47.125 39.59375 43.09375 43.984375 
Q 39.0625 48.390625 32.421875 48.390625 
Q 24.90625 48.390625 20.390625 44.140625 
Q 15.875 39.890625 15.1875 32.171875 
z
" id="DejaVuSans-101"/>
      <path d="M 54.890625 33.015625 
L 54.890625 0 
L 45.90625 0 
L 45.90625 32.71875 
Q 45.90625 40.484375 42.875 44.328125 
Q 39.84375 48.1875 33.796875 48.1875 
Q 26.515625 48.1875 22.3125 43.546875 
Q 18.109375 38.921875 18.109375 30.90625 
L 18.109375 0 
L 9.078125 0 
L 9.078125 54.6875 
L 18.109375 54.6875 
L 18.109375 46.1875 
Q 21.34375 51.125 25.703125 53.5625 
Q 30.078125 56 35.796875 56 
Q 45.21875 56 50.046875 50.171875 
Q 54.890625 44.34375 54.890625 33.015625 
z
" id="DejaVuSans-110"/>
      <path d="M 41.109375 46.296875 
Q 39.59375 47.171875 37.8125 47.578125 
Q 36.03125 48 33.890625 48 
Q 26.265625 48 22.1875 43.046875 
Q 18.109375 38.09375 18.109375 28.8125 
L 18.109375 0 
L 9.078125 0 
L 9.078125 54.6875 
L 18.109375 54.6875 
L 18.109375 46.1875 
Q 20.953125 51.171875 25.484375 53.578125 
Q 30.03125 56 36.53125 56 
Q 37.453125 56 38.578125 55.875 
Q 39.703125 55.765625 41.0625 55.515625 
z
" id="DejaVuSans-114"/>
      <path d="M 34.28125 27.484375 
Q 23.390625 27.484375 19.1875 25 
Q 14.984375 22.515625 14.984375 16.5 
Q 14.984375 11.71875 18.140625 8.90625 
Q 21.296875 6.109375 26.703125 6.109375 
Q 34.1875 6.109375 38.703125 11.40625 
Q 43.21875 16.703125 43.21875 25.484375 
L 43.21875 27.484375 
z
M 52.203125 31.203125 
L 52.203125 0 
L 43.21875 0 
L 43.21875 8.296875 
Q 40.140625 3.328125 35.546875 0.953125 
Q 30.953125 -1.421875 24.3125 -1.421875 
Q 15.921875 -1.421875 10.953125 3.296875 
Q 6 8.015625 6 15.921875 
Q 6 25.140625 12.171875 29.828125 
Q 18.359375 34.515625 30.609375 34.515625 
L 43.21875 34.515625 
L 43.21875 35.40625 
Q 43.21875 41.609375 39.140625 45 
Q 35.0625 48.390625 27.6875 48.390625 
Q 23 48.390625 18.546875 47.265625 
Q 14.109375 46.140625 10.015625 43.890625 
L 10.015625 52.203125 
Q 14.9375 54.109375 19.578125 55.046875 
Q 24.21875 56 28.609375 56 
Q 40.484375 56 46.34375 49.84375 
Q 52.203125 43.703125 52.203125 31.203125 
z
" id="DejaVuSans-97"/>
      <path d="M 18.3125 70.21875 
L 18.3125 54.6875 
L 36.8125 54.6875 
L 36.8125 47.703125 
L 18.3125 47.703125 
L 18.3125 18.015625 
Q 18.3125 11.328125 20.140625 9.421875 
Q 21.96875 7.515625 27.59375 7.515625 
L 36.8125 7.515625 
L 36.8125 0 
L 27.59375 0 
Q 17.1875 0 13.234375 3.875 
Q 9.28125 7.765625 9.28125 18.015625 
L 9.28125 47.703125 
L 2.6875 47.703125 
L 2.6875 54.6875 
L 9.28125 54.6875 
L 9.28125 70.21875 
z
" id="DejaVuSans-116"/>
      <path d="M 9.421875 54.6875 
L 18.40625 54.6875 
L 18.40625 0 
L 9.421875 0 
z
M 9.421875 75.984375 
L 18.40625 75.984375 
L 18.40625 64.59375 
L 9.421875 64.59375 
z
" id="DejaVuSans-105"/>
      <path d="M 30.609375 48.390625 
Q 23.390625 48.390625 19.1875 42.75 
Q 14.984375 37.109375 14.984375 27.296875 
Q 14.984375 17.484375 19.15625 11.84375 
Q 23.34375 6.203125 30.609375 6.203125 
Q 37.796875 6.203125 41.984375 11.859375 
Q 46.1875 17.53125 46.1875 27.296875 
Q 46.1875 37.015625 41.984375 42.703125 
Q 37.796875 48.390625 30.609375 48.390625 
z
M 30.609375 56 
Q 42.328125 56 49.015625 48.375 
Q 55.71875 40.765625 55.71875 27.296875 
Q 55.71875 13.875 49.015625 6.21875 
Q 42.328125 -1.421875 30.609375 -1.421875 
Q 18.84375 -1.421875 12.171875 6.21875 
Q 5.515625 13.875 5.515625 27.296875 
Q 5.515625 40.765625 12.171875 48.375 
Q 18.84375 56 30.609375 56 
z
" id="DejaVuSans-111"/>
     </defs>
     <g transform="translate(341.430938 353.731875)scale(0.12 -0.12)">
      <use xlink:href="#DejaVuSans-103"/>
      <use x="63.476562" xlink:href="#DejaVuSans-101"/>
      <use x="125" xlink:href="#DejaVuSans-110"/>
      <use x="188.378906" xlink:href="#DejaVuSans-101"/>
      <use x="249.902344" xlink:href="#DejaVuSans-114"/>
      <use x="291.015625" xlink:href="#DejaVuSans-97"/>
      <use x="352.294922" xlink:href="#DejaVuSans-116"/>
      <use x="391.503906" xlink:href="#DejaVuSans-105"/>
      <use x="419.287109" xlink:href="#DejaVuSans-111"/>
      <use x="480.46875" xlink:href="#DejaVuSans-110"/>
     </g>
    </g>
   </g>
   <g id="matplotlib.axis_2">
    <g id="ytick_1">
     <g id="line2d_25">
      <defs>
       <path d="M 0 0 
L 4 0 
" id="m1beb92d950" style="stroke:#000000;stroke-width:0.5;"/>
      </defs>
      <g>
       <use style="stroke:#000000;stroke-width:0.5;" x="112.5" xlink:href="#m1beb92d950" y="324"/>
      </g>
     </g>
     <g id="line2d_26">
      <defs>
       <path d="M 0 0 
L -4 0 
" id="mcce3d01ad7" style="stroke:#000000;stroke-width:0.5;"/>
      </defs>
      <g>
       <use style="stroke:#000000;stroke-width:0.5;" x="635.625" xlink:href="#mcce3d01ad7" y="324"/>
      </g>
     </g>
     <g id="text_12">
      <!-- 0.18 -->
      <defs>
       <path d="M 10.6875 12.40625 
L 21 12.40625 
L 21 0 
L 10.6875 0 
z
" id="DejaVuSans-46"/>
      </defs>
      <g transform="translate(81.78125 327.31125)scale(0.12 -0.12)">
       <use xlink:href="#DejaVuSans-48"/>
       <use x="63.623047" xlink:href="#DejaVuSans-46"/>
       <use x="95.410156" xlink:href="#DejaVuSans-49"/>
       <use x="159.033203" xlink:href="#DejaVuSans-56"/>
      </g>
     </g>
    </g>
    <g id="ytick_2">
     <g id="line2d_27">
      <g>
       <use style="stroke:#000000;stroke-width:0.5;" x="112.5" xlink:href="#m1beb92d950" y="276"/>
      </g>
     </g>
     <g id="line2d_28">
      <g>
       <use style="stroke:#000000;stroke-width:0.5;" x="635.625" xlink:href="#mcce3d01ad7" y="276"/>
      </g>
     </g>
     <g id="text_13">
      <!-- 0.20 -->
      <g transform="translate(81.78125 279.31125)scale(0.12 -0.12)">
       <use xlink:href="#DejaVuSans-48"/>
       <use x="63.623047" xlink:href="#DejaVuSans-46"/>
       <use x="95.410156" xlink:href="#DejaVuSans-50"/>
       <use x="159.033203" xlink:href="#DejaVuSans-48"/>
      </g>
     </g>
    </g>
    <g id="ytick_3">
     <g id="line2d_29">
      <g>
       <use style="stroke:#000000;stroke-width:0.5;" x="112.5" xlink:href="#m1beb92d950" y="228"/>
      </g>
     </g>
     <g id="line2d_30">
      <g>
       <use style="stroke:#000000;stroke-width:0.5;" x="635.625" xlink:href="#mcce3d01ad7" y="228"/>
      </g>
     </g>
     <g id="text_14">
      <!-- 0.22 -->
      <g transform="translate(81.78125 231.31125)scale(0.12 -0.12)">
       <use xlink:href="#DejaVuSans-48"/>
       <use x="63.623047" xlink:href="#DejaVuSans-46"/>
       <use x="95.410156" xlink:href="#DejaVuSans-50"/>
       <use x="159.033203" xlink:href="#DejaVuSans-50"/>
      </g>
     </g>
    </g>
    <g id="ytick_4">
     <g id="line2d_31">
      <g>
       <use style="stroke:#000000;stroke-width:0.5;" x="112.5" xlink:href="#m1beb92d950" y="180"/>
      </g>
     </g>
     <g id="line2d_32">
      <g>
       <use style="stroke:#000000;stroke-width:0.5;" x="635.625" xlink:href="#mcce3d01ad7" y="180"/>
      </g>
     </g>
     <g id="text_15">
      <!-- 0.24 -->
      <g transform="translate(81.78125 183.31125)scale(0.12 -0.12)">
       <use xlink:href="#DejaVuSans-48"/>
       <use x="63.623047" xlink:href="#DejaVuSans-46"/>
       <use x="95.410156" xlink:href="#DejaVuSans-50"/>
       <use x="159.033203" xlink:href="#DejaVuSans-52"/>
      </g>
     </g>
    </g>
    <g id="ytick_5">
     <g id="line2d_33">
      <g>
       <use style="stroke:#000000;stroke-width:0.5;" x="112.5" xlink:href="#m1beb92d950" y="132"/>
      </g>
     </g>
     <g id="line2d_34">
      <g>
       <use style="stroke:#000000;stroke-width:0.5;" x="635.625" xlink:href="#mcce3d01ad7" y="132"/>
      </g>
     </g>
     <g id="text_16">
      <!-- 0.26 -->
      <g transform="translate(81.78125 135.31125)scale(0.12 -0.12)">
       <use xlink:href="#DejaVuSans-48"/>
       <use x="63.623047" xlink:href="#DejaVuSans-46"/>
       <use x="95.410156" xlink:href="#DejaVuSans-50"/>
       <use x="159.033203" xlink:href="#DejaVuSans-54"/>
      </g>
     </g>
    </g>
    <g id="ytick_6">
     <g id="line2d_35">
      <g>
       <use style="stroke:#000000;stroke-width:0.5;" x="112.5" xlink:href="#m1beb92d950" y="84"/>
      </g>
     </g>
     <g id="line2d_36">
      <g>
       <use style="stroke:#000000;stroke-width:0.5;" x="635.625" xlink:href="#mcce3d01ad7" y="84"/>
      </g>
     </g>
     <g id="text_17">
      <!-- 0.28 -->
      <g transform="translate(81.78125 87.31125)scale(0.12 -0.12)">
       <use xlink:href="#DejaVuSans-48"/>
       <use x="63.623047" xlink:href="#DejaVuSans-46"/>
       <use x="95.410156" xlink:href="#DejaVuSans-50"/>
       <use x="159.033203" xlink:href="#DejaVuSans-56"/>
      </g>
     </g>
    </g>
    <g id="ytick_7">
     <g id="line2d_37">
      <g>
       <use style="stroke:#000000;stroke-width:0.5;" x="112.5" xlink:href="#m1beb92d950" y="36"/>
      </g>
     </g>
     <g id="line2d_38">
      <g>
       <use style="stroke:#000000;stroke-width:0.5;" x="635.625" xlink:href="#mcce3d01ad7" y="36"/>
      </g>
     </g>
     <g id="text_18">
      <!-- 0.30 -->
      <g transform="translate(81.78125 39.31125)scale(0.12 -0.12)">
       <use xlink:href="#DejaVuSans-48"/>
       <use x="63.623047" xlink:href="#DejaVuSans-46"/>
       <use x="95.410156" xlink:href="#DejaVuSans-51"/>
       <use x="159.033203" xlink:href="#DejaVuSans-48"/>
      </g>
     </g>
    </g>
    <g id="text_19">
     <!-- los -->
     <defs>
      <path d="M 9.421875 75.984375 
L 18.40625 75.984375 
L 18.40625 0 
L 9.421875 0 
z
" id="DejaVuSans-108"/>
      <path d="M 44.28125 53.078125 
L 44.28125 44.578125 
Q 40.484375 46.53125 36.375 47.5 
Q 32.28125 48.484375 27.875 48.484375 
Q 21.1875 48.484375 17.84375 46.4375 
Q 14.5 44.390625 14.5 40.28125 
Q 14.5 37.15625 16.890625 35.375 
Q 19.28125 33.59375 26.515625 31.984375 
L 29.59375 31.296875 
Q 39.15625 29.25 43.1875 25.515625 
Q 47.21875 21.78125 47.21875 15.09375 
Q 47.21875 7.46875 41.1875 3.015625 
Q 35.15625 -1.421875 24.609375 -1.421875 
Q 20.21875 -1.421875 15.453125 -0.5625 
Q 10.6875 0.296875 5.421875 2 
L 5.421875 11.28125 
Q 10.40625 8.6875 15.234375 7.390625 
Q 20.0625 6.109375 24.8125 6.109375 
Q 31.15625 6.109375 34.5625 8.28125 
Q 37.984375 10.453125 37.984375 14.40625 
Q 37.984375 18.0625 35.515625 20.015625 
Q 33.0625 21.96875 24.703125 23.78125 
L 21.578125 24.515625 
Q 13.234375 26.265625 9.515625 29.90625 
Q 5.8125 33.546875 5.8125 39.890625 
Q 5.8125 47.609375 11.28125 51.796875 
Q 16.75 56 26.8125 56 
Q 31.78125 56 36.171875 55.265625 
Q 40.578125 54.546875 44.28125 53.078125 
z
" id="DejaVuSans-115"/>
     </defs>
     <g transform="translate(74.285625 188.46375)rotate(-90)scale(0.12 -0.12)">
      <use xlink:href="#DejaVuSans-108"/>
      <use x="27.783203" xlink:href="#DejaVuSans-111"/>
      <use x="88.964844" xlink:href="#DejaVuSans-115"/>
     </g>
    </g>
   </g>
   <g id="legend_1">
    <g id="patch_7">
     <path d="M 640.623 211.399935 
L 774.197674 211.399935 
L 774.197674 148.600065 
L 640.623 148.600065 
z
" style="fill:#ffffff;stroke:#000000;stroke-linejoin:miter;"/>
    </g>
    <g id="line2d_39">
     <path d="M 647.6202 156.695263 
L 661.6146 156.695263 
" style="fill:none;stroke:#0000ff;stroke-linecap:square;stroke-width:1.2;"/>
    </g>
    <g id="line2d_40"/>
    <g id="text_20">
     <!-- Error_par_scale_0.1 -->
     <defs>
      <path d="M 9.8125 72.90625 
L 55.90625 72.90625 
L 55.90625 64.59375 
L 19.671875 64.59375 
L 19.671875 43.015625 
L 54.390625 43.015625 
L 54.390625 34.71875 
L 19.671875 34.71875 
L 19.671875 8.296875 
L 56.78125 8.296875 
L 56.78125 0 
L 9.8125 0 
z
" id="DejaVuSans-69"/>
      <path d="M 50.984375 -16.609375 
L 50.984375 -23.578125 
L -0.984375 -23.578125 
L -0.984375 -16.609375 
z
" id="DejaVuSans-95"/>
      <path d="M 18.109375 8.203125 
L 18.109375 -20.796875 
L 9.078125 -20.796875 
L 9.078125 54.6875 
L 18.109375 54.6875 
L 18.109375 46.390625 
Q 20.953125 51.265625 25.265625 53.625 
Q 29.59375 56 35.59375 56 
Q 45.5625 56 51.78125 48.09375 
Q 58.015625 40.1875 58.015625 27.296875 
Q 58.015625 14.40625 51.78125 6.484375 
Q 45.5625 -1.421875 35.59375 -1.421875 
Q 29.59375 -1.421875 25.265625 0.953125 
Q 20.953125 3.328125 18.109375 8.203125 
z
M 48.6875 27.296875 
Q 48.6875 37.203125 44.609375 42.84375 
Q 40.53125 48.484375 33.40625 48.484375 
Q 26.265625 48.484375 22.1875 42.84375 
Q 18.109375 37.203125 18.109375 27.296875 
Q 18.109375 17.390625 22.1875 11.75 
Q 26.265625 6.109375 33.40625 6.109375 
Q 40.53125 6.109375 44.609375 11.75 
Q 48.6875 17.390625 48.6875 27.296875 
z
" id="DejaVuSans-112"/>
      <path d="M 48.78125 52.59375 
L 48.78125 44.1875 
Q 44.96875 46.296875 41.140625 47.34375 
Q 37.3125 48.390625 33.40625 48.390625 
Q 24.65625 48.390625 19.8125 42.84375 
Q 14.984375 37.3125 14.984375 27.296875 
Q 14.984375 17.28125 19.8125 11.734375 
Q 24.65625 6.203125 33.40625 6.203125 
Q 37.3125 6.203125 41.140625 7.25 
Q 44.96875 8.296875 48.78125 10.40625 
L 48.78125 2.09375 
Q 45.015625 0.34375 40.984375 -0.53125 
Q 36.96875 -1.421875 32.421875 -1.421875 
Q 20.0625 -1.421875 12.78125 6.34375 
Q 5.515625 14.109375 5.515625 27.296875 
Q 5.515625 40.671875 12.859375 48.328125 
Q 20.21875 56 33.015625 56 
Q 37.15625 56 41.109375 55.140625 
Q 45.0625 54.296875 48.78125 52.59375 
z
" id="DejaVuSans-99"/>
     </defs>
     <g transform="translate(672.6102 160.193863)scale(0.09996 -0.09996)">
      <use xlink:href="#DejaVuSans-69"/>
      <use x="63.183594" xlink:href="#DejaVuSans-114"/>
      <use x="102.546875" xlink:href="#DejaVuSans-114"/>
      <use x="141.410156" xlink:href="#DejaVuSans-111"/>
      <use x="202.591797" xlink:href="#DejaVuSans-114"/>
      <use x="243.705078" xlink:href="#DejaVuSans-95"/>
      <use x="293.705078" xlink:href="#DejaVuSans-112"/>
      <use x="357.181641" xlink:href="#DejaVuSans-97"/>
      <use x="418.460938" xlink:href="#DejaVuSans-114"/>
      <use x="459.574219" xlink:href="#DejaVuSans-95"/>
      <use x="509.574219" xlink:href="#DejaVuSans-115"/>
      <use x="561.673828" xlink:href="#DejaVuSans-99"/>
      <use x="616.654297" xlink:href="#DejaVuSans-97"/>
      <use x="677.933594" xlink:href="#DejaVuSans-108"/>
      <use x="705.716797" xlink:href="#DejaVuSans-101"/>
      <use x="767.240234" xlink:href="#DejaVuSans-95"/>
      <use x="817.240234" xlink:href="#DejaVuSans-48"/>
      <use x="880.863281" xlink:href="#DejaVuSans-46"/>
      <use x="912.650391" xlink:href="#DejaVuSans-49"/>
     </g>
    </g>
    <g id="line2d_41">
     <path d="M 647.6202 171.645531 
L 661.6146 171.645531 
" style="fill:none;stroke:#008000;stroke-linecap:square;stroke-width:1.2;"/>
    </g>
    <g id="line2d_42"/>
    <g id="text_21">
     <!-- Error_no_par_scale -->
     <g transform="translate(672.6102 175.144131)scale(0.09996 -0.09996)">
      <use xlink:href="#DejaVuSans-69"/>
      <use x="63.183594" xlink:href="#DejaVuSans-114"/>
      <use x="102.546875" xlink:href="#DejaVuSans-114"/>
      <use x="141.410156" xlink:href="#DejaVuSans-111"/>
      <use x="202.591797" xlink:href="#DejaVuSans-114"/>
      <use x="243.705078" xlink:href="#DejaVuSans-95"/>
      <use x="293.705078" xlink:href="#DejaVuSans-110"/>
      <use x="357.083984" xlink:href="#DejaVuSans-111"/>
      <use x="418.265625" xlink:href="#DejaVuSans-95"/>
      <use x="468.265625" xlink:href="#DejaVuSans-112"/>
      <use x="531.742188" xlink:href="#DejaVuSans-97"/>
      <use x="593.021484" xlink:href="#DejaVuSans-114"/>
      <use x="634.134766" xlink:href="#DejaVuSans-95"/>
      <use x="684.134766" xlink:href="#DejaVuSans-115"/>
      <use x="736.234375" xlink:href="#DejaVuSans-99"/>
      <use x="791.214844" xlink:href="#DejaVuSans-97"/>
      <use x="852.494141" xlink:href="#DejaVuSans-108"/>
      <use x="880.277344" xlink:href="#DejaVuSans-101"/>
     </g>
    </g>
    <g id="line2d_43">
     <path d="M 647.6202 186.595798 
L 661.6146 186.595798 
" style="fill:none;stroke:#ff0000;stroke-linecap:square;stroke-width:1.2;"/>
    </g>
    <g id="line2d_44"/>
    <g id="text_22">
     <!-- Loss_par_scale_0.1 -->
     <defs>
      <path d="M 9.8125 72.90625 
L 19.671875 72.90625 
L 19.671875 8.296875 
L 55.171875 8.296875 
L 55.171875 0 
L 9.8125 0 
z
" id="DejaVuSans-76"/>
     </defs>
     <g transform="translate(672.6102 190.094398)scale(0.09996 -0.09996)">
      <use xlink:href="#DejaVuSans-76"/>
      <use x="53.962891" xlink:href="#DejaVuSans-111"/>
      <use x="115.144531" xlink:href="#DejaVuSans-115"/>
      <use x="167.244141" xlink:href="#DejaVuSans-115"/>
      <use x="219.34375" xlink:href="#DejaVuSans-95"/>
      <use x="269.34375" xlink:href="#DejaVuSans-112"/>
      <use x="332.820312" xlink:href="#DejaVuSans-97"/>
      <use x="394.099609" xlink:href="#DejaVuSans-114"/>
      <use x="435.212891" xlink:href="#DejaVuSans-95"/>
      <use x="485.212891" xlink:href="#DejaVuSans-115"/>
      <use x="537.3125" xlink:href="#DejaVuSans-99"/>
      <use x="592.292969" xlink:href="#DejaVuSans-97"/>
      <use x="653.572266" xlink:href="#DejaVuSans-108"/>
      <use x="681.355469" xlink:href="#DejaVuSans-101"/>
      <use x="742.878906" xlink:href="#DejaVuSans-95"/>
      <use x="792.878906" xlink:href="#DejaVuSans-48"/>
      <use x="856.501953" xlink:href="#DejaVuSans-46"/>
      <use x="888.289062" xlink:href="#DejaVuSans-49"/>
     </g>
    </g>
    <g id="line2d_45">
     <path d="M 647.6202 201.546066 
L 661.6146 201.546066 
" style="fill:none;stroke:#00bfbf;stroke-linecap:square;stroke-width:1.2;"/>
    </g>
    <g id="line2d_46"/>
    <g id="text_23">
     <!-- Loss_no_par_scale -->
     <g transform="translate(672.6102 205.044666)scale(0.09996 -0.09996)">
      <use xlink:href="#DejaVuSans-76"/>
      <use x="53.962891" xlink:href="#DejaVuSans-111"/>
      <use x="115.144531" xlink:href="#DejaVuSans-115"/>
      <use x="167.244141" xlink:href="#DejaVuSans-115"/>
      <use x="219.34375" xlink:href="#DejaVuSans-95"/>
      <use x="269.34375" xlink:href="#DejaVuSans-110"/>
      <use x="332.722656" xlink:href="#DejaVuSans-111"/>
      <use x="393.904297" xlink:href="#DejaVuSans-95"/>
      <use x="443.904297" xlink:href="#DejaVuSans-112"/>
      <use x="507.380859" xlink:href="#DejaVuSans-97"/>
      <use x="568.660156" xlink:href="#DejaVuSans-114"/>
      <use x="609.773438" xlink:href="#DejaVuSans-95"/>
      <use x="659.773438" xlink:href="#DejaVuSans-115"/>
      <use x="711.873047" xlink:href="#DejaVuSans-99"/>
      <use x="766.853516" xlink:href="#DejaVuSans-97"/>
      <use x="828.132812" xlink:href="#DejaVuSans-108"/>
      <use x="855.916016" xlink:href="#DejaVuSans-101"/>
     </g>
    </g>
   </g>
  </g>
  <g id="text_24">
   <!-- Average Loss -->
   <defs>
    <path d="M 34.1875 63.1875 
L 20.796875 26.90625 
L 47.609375 26.90625 
z
M 28.609375 72.90625 
L 39.796875 72.90625 
L 67.578125 0 
L 57.328125 0 
L 50.6875 18.703125 
L 17.828125 18.703125 
L 11.1875 0 
L 0.78125 0 
z
" id="DejaVuSans-65"/>
    <path d="M 2.984375 54.6875 
L 12.5 54.6875 
L 29.59375 8.796875 
L 46.6875 54.6875 
L 56.203125 54.6875 
L 35.6875 0 
L 23.484375 0 
z
" id="DejaVuSans-118"/>
    <path id="DejaVuSans-32"/>
   </defs>
   <g transform="translate(410.293125 16.318125)scale(0.12 -0.12)">
    <use xlink:href="#DejaVuSans-65"/>
    <use x="62.533203" xlink:href="#DejaVuSans-118"/>
    <use x="121.712891" xlink:href="#DejaVuSans-101"/>
    <use x="183.236328" xlink:href="#DejaVuSans-114"/>
    <use x="224.349609" xlink:href="#DejaVuSans-97"/>
    <use x="285.628906" xlink:href="#DejaVuSans-103"/>
    <use x="349.105469" xlink:href="#DejaVuSans-101"/>
    <use x="410.628906" xlink:href="#DejaVuSans-32"/>
    <use x="442.416016" xlink:href="#DejaVuSans-76"/>
    <use x="496.378906" xlink:href="#DejaVuSans-111"/>
    <use x="557.560547" xlink:href="#DejaVuSans-115"/>
    <use x="609.660156" xlink:href="#DejaVuSans-115"/>
   </g>
  </g>
 </g>
 <defs>
  <clipPath id="pca230d8b82">
   <rect height="288" width="523.125" x="112.5" y="36"/>
  </clipPath>
 </defs>
</svg>
