<?xml version="1.0" encoding="utf-8" standalone="no"?>
<!DOCTYPE svg PUBLIC "-//W3C//DTD SVG 1.1//EN"
  "http://www.w3.org/Graphics/SVG/1.1/DTD/svg11.dtd">
<!-- Created with matplotlib (https://matplotlib.org/) -->
<svg height="360pt" version="1.1" viewBox="0 0 900 360" width="900pt" xmlns="http://www.w3.org/2000/svg" xmlns:xlink="http://www.w3.org/1999/xlink">
 <defs>
  <style type="text/css">
*{stroke-linecap:butt;stroke-linejoin:round;}
  </style>
 </defs>
 <g id="figure_1">
  <g id="patch_1">
   <path d="M 0 360 
L 900 360 
L 900 0 
L 0 0 
z
" style="fill:#ffffff;"/>
  </g>
  <g id="axes_1">
   <g id="patch_2">
    <path d="M 112.5 324 
L 635.625 324 
L 635.625 36 
L 112.5 36 
z
" style="fill:#ffffff;"/>
   </g>
   <g id="line2d_1">
    <path clip-path="url(#p1b77d0fcb3)" d="M 112.85062 288.800002 
L 116.35682 271.2 
L 119.863019 300 
L 123.369219 277.599998 
L 126.875419 301.599998 
L 130.381619 228 
L 133.887818 277.599998 
L 137.394018 255.200002 
L 140.900218 239.199998 
L 147.912617 264.800002 
L 151.418817 226.400002 
L 154.925017 252 
L 158.431216 256.8 
L 161.937416 242.4 
L 165.443616 243.999998 
L 168.949816 247.2 
L 172.456015 237.6 
L 175.962215 236.000002 
L 179.468415 239.199998 
L 182.974615 232.8 
L 186.480814 212.000002 
L 189.987014 194.4 
L 193.493214 224.799998 
L 200.505613 221.600002 
L 204.011813 207.200002 
L 207.518013 194.4 
L 211.024212 200.799998 
L 214.530412 205.599998 
L 218.036612 195.999998 
L 221.542812 213.6 
L 225.049011 208.8 
L 228.555211 205.599998 
L 232.061411 213.6 
L 235.567611 184.8 
L 239.07381 212.000002 
L 242.58001 188.000002 
L 246.08621 165.6 
L 249.59241 205.599998 
L 253.098609 191.199998 
L 256.604809 171.999998 
L 260.111009 167.199998 
L 263.617208 178.400002 
L 267.123408 178.400002 
L 270.629608 181.599998 
L 274.135808 160.8 
L 277.642007 164.000002 
L 281.148207 143.199998 
L 284.654407 168.800002 
L 288.160607 164.000002 
L 291.666806 194.4 
L 295.173006 157.599998 
L 298.679206 162.399998 
L 305.691605 143.199998 
L 309.197805 162.399998 
L 312.704005 154.400002 
L 316.210204 167.199998 
L 319.716404 140.000002 
L 323.222604 156 
L 326.728804 147.999998 
L 330.235003 136.8 
L 333.741203 143.199998 
L 337.247403 160.8 
L 340.753603 133.599998 
L 344.259802 122.4 
L 347.766002 135.200002 
L 351.272202 138.399998 
L 354.778401 125.600002 
L 358.284601 141.6 
L 361.790801 151.2 
L 365.297001 136.8 
L 368.8032 128.799998 
L 372.3094 128.799998 
L 375.8156 149.600002 
L 379.3218 133.599998 
L 382.827999 116.000002 
L 386.334199 103.2 
L 389.840399 160.8 
L 393.346599 136.8 
L 396.852798 119.199998 
L 400.358998 114.399998 
L 403.865198 144.800002 
L 407.371397 106.400002 
L 410.877597 133.599998 
L 414.383797 80.799998 
L 417.889997 96.800002 
L 421.396196 120.800002 
L 424.902396 106.400002 
L 428.408596 128.799998 
L 431.914796 120.800002 
L 435.420995 143.199998 
L 438.927195 152.799998 
L 442.433395 109.599998 
L 445.939595 88.8 
L 449.445794 111.200002 
L 452.951994 103.2 
L 456.458194 119.199998 
L 459.964393 162.399998 
L 463.470593 95.199998 
L 466.976793 123.999998 
L 473.989192 146.4 
L 477.495392 106.400002 
L 481.001592 125.600002 
L 484.507792 156 
L 488.013991 160.8 
L 491.520191 117.6 
L 495.026391 104.799998 
L 498.53259 133.599998 
L 502.03879 87.200002 
L 505.54499 125.600002 
L 509.05119 133.599998 
L 512.557389 116.000002 
L 519.569789 103.2 
L 523.075989 130.400002 
L 526.582188 127.2 
L 530.088388 146.4 
L 533.594588 98.4 
L 537.100788 144.800002 
L 540.606987 116.000002 
L 544.113187 96.800002 
L 547.619387 116.000002 
L 551.125586 95.199998 
L 554.631786 112.8 
L 558.137986 117.6 
L 561.644186 135.200002 
L 565.150385 108 
L 568.656585 103.2 
L 572.162785 116.000002 
L 575.668985 85.599998 
L 579.175184 127.2 
L 582.681384 173.600002 
L 586.187584 125.600002 
L 589.693784 140.000002 
L 593.199983 133.599998 
L 596.706183 128.799998 
L 600.212383 135.200002 
L 603.718582 132 
L 607.224782 103.2 
L 610.730982 127.2 
L 610.730982 127.2 
" style="fill:none;stroke:#0000ff;stroke-linecap:square;stroke-width:1.2;"/>
   </g>
   <g id="line2d_2">
    <path clip-path="url(#p1b77d0fcb3)" d="M 112.85062 309.6 
L 116.35682 280.8 
L 119.863019 248.799998 
L 123.369219 309.6 
L 126.875419 276 
L 130.381619 243.999998 
L 133.887818 221.600002 
L 137.394018 271.2 
L 140.900218 266.4 
L 144.406418 231.200002 
L 147.912617 250.400002 
L 151.418817 245.600002 
L 154.925017 253.599998 
L 158.431216 216.800002 
L 161.937416 237.6 
L 165.443616 210.399998 
L 168.949816 197.600002 
L 172.456015 236.000002 
L 175.962215 226.400002 
L 179.468415 165.6 
L 182.974615 181.599998 
L 186.480814 194.4 
L 189.987014 175.2 
L 193.493214 171.999998 
L 196.999414 170.4 
L 200.505613 171.999998 
L 204.011813 156 
L 207.518013 149.600002 
L 211.024212 147.999998 
L 214.530412 154.400002 
L 218.036612 165.6 
L 221.542812 154.400002 
L 225.049011 127.2 
L 228.555211 159.200002 
L 232.061411 125.600002 
L 235.567611 140.000002 
L 239.07381 130.400002 
L 242.58001 130.400002 
L 246.08621 92.000002 
L 249.59241 140.000002 
L 253.098609 133.599998 
L 256.604809 125.600002 
L 260.111009 140.000002 
L 263.617208 135.200002 
L 267.123408 117.6 
L 270.629608 112.8 
L 274.135808 130.400002 
L 277.642007 127.2 
L 281.148207 117.6 
L 284.654407 114.399998 
L 288.160607 149.600002 
L 291.666806 138.399998 
L 295.173006 141.6 
L 298.679206 116.000002 
L 302.185405 112.8 
L 305.691605 93.6 
L 309.197805 123.999998 
L 312.704005 116.000002 
L 316.210204 80.799998 
L 319.716404 103.2 
L 323.222604 136.8 
L 326.728804 109.599998 
L 330.235003 138.399998 
L 333.741203 103.2 
L 337.247403 117.6 
L 344.259802 136.8 
L 347.766002 132 
L 351.272202 178.400002 
L 354.778401 108 
L 358.284601 116.000002 
L 361.790801 144.800002 
L 365.297001 101.600002 
L 368.8032 152.799998 
L 372.3094 135.200002 
L 375.8156 104.799998 
L 379.3218 138.399998 
L 382.827999 125.600002 
L 386.334199 135.200002 
L 389.840399 96.800002 
L 393.346599 133.599998 
L 396.852798 143.199998 
L 400.358998 133.599998 
L 403.865198 87.200002 
L 407.371397 133.599998 
L 410.877597 122.4 
L 414.383797 88.8 
L 417.889997 117.6 
L 421.396196 135.200002 
L 424.902396 125.600002 
L 428.408596 156 
L 431.914796 117.6 
L 435.420995 138.399998 
L 438.927195 101.600002 
L 442.433395 127.2 
L 445.939595 116.000002 
L 449.445794 114.399998 
L 452.951994 128.799998 
L 459.964393 119.199998 
L 463.470593 93.6 
L 466.976793 125.600002 
L 470.482993 120.800002 
L 473.989192 117.6 
L 477.495392 116.000002 
L 481.001592 125.600002 
L 484.507792 125.600002 
L 488.013991 112.8 
L 491.520191 119.199998 
L 495.026391 127.2 
L 498.53259 108 
L 502.03879 95.199998 
L 505.54499 125.600002 
L 509.05119 108 
L 512.557389 119.199998 
L 516.063589 160.8 
L 519.569789 103.2 
L 523.075989 119.199998 
L 526.582188 106.400002 
L 530.088388 130.400002 
L 533.594588 84 
L 537.100788 111.200002 
L 540.606987 125.600002 
L 544.113187 101.600002 
L 547.619387 125.600002 
L 551.125586 101.600002 
L 558.137986 117.6 
L 561.644186 122.4 
L 565.150385 116.000002 
L 568.656585 130.400002 
L 572.162785 106.400002 
L 575.668985 140.000002 
L 579.175184 80.799998 
L 582.681384 125.600002 
L 586.187584 112.8 
L 589.693784 117.6 
L 593.199983 125.600002 
L 600.212383 122.4 
L 603.718582 133.599998 
L 607.224782 96.800002 
L 610.730982 112.8 
L 614.237182 117.6 
L 617.743381 178.400002 
L 621.249581 106.400002 
L 624.755781 133.599998 
L 628.261981 106.400002 
L 631.76818 106.400002 
L 635.27438 119.199998 
L 635.27438 119.199998 
" style="fill:none;stroke:#008000;stroke-linecap:square;stroke-width:1.2;"/>
   </g>
   <g id="line2d_3">
    <path clip-path="url(#p1b77d0fcb3)" d="M 112.85062 282.399998 
L 116.35682 276 
L 119.863019 258.399998 
L 123.369219 285.6 
L 126.875419 255.200002 
L 130.381619 260.000002 
L 133.887818 263.199998 
L 137.394018 248.799998 
L 140.900218 256.8 
L 144.406418 234.399998 
L 147.912617 247.2 
L 151.418817 223.2 
L 154.925017 202.400002 
L 158.431216 226.400002 
L 161.937416 213.6 
L 165.443616 218.4 
L 168.949816 202.400002 
L 172.456015 205.599998 
L 175.962215 184.8 
L 179.468415 181.599998 
L 182.974615 170.4 
L 186.480814 154.400002 
L 189.987014 176.799998 
L 193.493214 175.2 
L 196.999414 165.6 
L 200.505613 144.800002 
L 204.011813 168.800002 
L 207.518013 144.800002 
L 211.024212 127.2 
L 214.530412 116.000002 
L 218.036612 120.800002 
L 221.542812 147.999998 
L 225.049011 125.600002 
L 228.555211 147.999998 
L 232.061411 116.000002 
L 235.567611 140.000002 
L 239.07381 123.999998 
L 242.58001 106.400002 
L 246.08621 128.799998 
L 249.59241 112.8 
L 253.098609 122.4 
L 256.604809 104.799998 
L 260.111009 147.999998 
L 263.617208 136.8 
L 267.123408 132 
L 270.629608 112.8 
L 274.135808 149.600002 
L 277.642007 96.800002 
L 281.148207 106.400002 
L 284.654407 128.799998 
L 288.160607 117.6 
L 291.666806 135.200002 
L 295.173006 132 
L 298.679206 103.2 
L 302.185405 103.2 
L 305.691605 112.8 
L 309.197805 112.8 
L 312.704005 116.000002 
L 316.210204 132 
L 319.716404 120.800002 
L 323.222604 92.000002 
L 326.728804 114.399998 
L 330.235003 99.999998 
L 333.741203 96.800002 
L 337.247403 141.6 
L 340.753603 114.399998 
L 344.259802 127.2 
L 347.766002 122.4 
L 351.272202 111.200002 
L 354.778401 141.6 
L 358.284601 128.799998 
L 361.790801 119.199998 
L 365.297001 103.2 
L 368.8032 114.399998 
L 372.3094 116.000002 
L 375.8156 120.800002 
L 379.3218 130.400002 
L 386.334199 127.2 
L 389.840399 127.2 
L 393.346599 117.6 
L 396.852798 103.2 
L 400.358998 120.800002 
L 403.865198 120.800002 
L 407.371397 132 
L 410.877597 157.599998 
L 414.383797 130.400002 
L 417.889997 125.600002 
L 421.396196 135.200002 
L 424.902396 117.6 
L 428.408596 120.800002 
L 431.914796 117.6 
L 435.420995 96.800002 
L 438.927195 135.200002 
L 442.433395 106.400002 
L 445.939595 128.799998 
L 449.445794 116.000002 
L 452.951994 138.399998 
L 456.458194 112.8 
L 459.964393 135.200002 
L 463.470593 141.6 
L 466.976793 123.999998 
L 470.482993 127.2 
L 473.989192 95.199998 
L 477.495392 119.199998 
L 481.001592 133.599998 
L 484.507792 152.799998 
L 488.013991 119.199998 
L 491.520191 136.8 
L 495.026391 122.4 
L 498.53259 111.200002 
L 502.03879 138.399998 
L 505.54499 116.000002 
L 509.05119 154.400002 
L 512.557389 104.799998 
L 516.063589 123.999998 
L 519.569789 135.200002 
L 523.075989 84 
L 526.582188 111.200002 
L 530.088388 120.800002 
L 533.594588 136.8 
L 537.100788 120.800002 
L 540.606987 135.200002 
L 544.113187 108 
L 547.619387 138.399998 
L 551.125586 123.999998 
L 554.631786 119.199998 
L 558.137986 128.799998 
L 561.644186 116.000002 
L 565.150385 128.799998 
L 568.656585 123.999998 
L 572.162785 143.199998 
L 575.668985 135.200002 
L 579.175184 119.199998 
L 582.681384 132 
L 586.187584 117.6 
L 589.693784 101.600002 
L 593.199983 144.800002 
L 596.706183 106.400002 
L 600.212383 93.6 
L 603.718582 125.600002 
L 607.224782 125.600002 
L 610.730982 120.800002 
L 614.237182 130.400002 
L 617.743381 109.599998 
L 621.249581 99.999998 
L 628.261981 119.199998 
L 628.261981 119.199998 
" style="fill:none;stroke:#ff0000;stroke-linecap:square;stroke-width:1.2;"/>
   </g>
   <g id="line2d_4">
    <path clip-path="url(#p1b77d0fcb3)" d="M 112.85062 284.000002 
L 116.35682 317.600002 
L 119.863019 276 
L 123.369219 250.400002 
L 126.875419 287.199998 
L 130.381619 253.599998 
L 133.887818 258.399998 
L 137.394018 229.599998 
L 140.900218 221.600002 
L 144.406418 231.200002 
L 147.912617 213.6 
L 151.418817 223.2 
L 154.925017 210.399998 
L 158.431216 195.999998 
L 161.937416 184.8 
L 165.443616 181.599998 
L 168.949816 210.399998 
L 172.456015 195.999998 
L 175.962215 180 
L 179.468415 165.6 
L 182.974615 186.399998 
L 186.480814 135.200002 
L 189.987014 138.399998 
L 193.493214 146.4 
L 196.999414 160.8 
L 200.505613 147.999998 
L 204.011813 125.600002 
L 207.518013 127.2 
L 211.024212 143.199998 
L 214.530412 140.000002 
L 218.036612 151.2 
L 221.542812 128.799998 
L 225.049011 144.800002 
L 228.555211 119.199998 
L 232.061411 99.999998 
L 235.567611 116.000002 
L 239.07381 127.2 
L 242.58001 140.000002 
L 246.08621 125.600002 
L 249.59241 136.8 
L 253.098609 109.599998 
L 256.604809 96.800002 
L 260.111009 146.4 
L 263.617208 116.000002 
L 267.123408 92.000002 
L 270.629608 116.000002 
L 274.135808 106.400002 
L 277.642007 116.000002 
L 281.148207 133.599998 
L 284.654407 120.800002 
L 288.160607 144.800002 
L 291.666806 119.199998 
L 295.173006 119.199998 
L 298.679206 133.599998 
L 305.691605 95.199998 
L 309.197805 123.999998 
L 312.704005 140.000002 
L 316.210204 132 
L 319.716404 108 
L 323.222604 117.6 
L 326.728804 96.800002 
L 330.235003 106.400002 
L 333.741203 103.2 
L 337.247403 140.000002 
L 340.753603 165.6 
L 344.259802 138.399998 
L 347.766002 112.8 
L 351.272202 114.399998 
L 354.778401 157.599998 
L 358.284601 133.599998 
L 361.790801 125.600002 
L 365.297001 96.800002 
L 368.8032 111.200002 
L 372.3094 138.399998 
L 375.8156 143.199998 
L 379.3218 132 
L 382.827999 141.6 
L 386.334199 116.000002 
L 389.840399 132 
L 393.346599 123.999998 
L 396.852798 154.400002 
L 400.358998 99.999998 
L 403.865198 144.800002 
L 407.371397 116.000002 
L 410.877597 92.000002 
L 414.383797 122.4 
L 417.889997 112.8 
L 421.396196 72.800002 
L 424.902396 95.199998 
L 428.408596 111.200002 
L 431.914796 117.6 
L 435.420995 125.600002 
L 438.927195 167.199998 
L 442.433395 138.399998 
L 445.939595 152.799998 
L 449.445794 120.800002 
L 452.951994 104.799998 
L 456.458194 128.799998 
L 459.964393 103.2 
L 463.470593 132 
L 466.976793 127.2 
L 470.482993 117.6 
L 473.989192 146.4 
L 477.495392 116.000002 
L 481.001592 159.200002 
L 484.507792 152.799998 
L 488.013991 109.599998 
L 491.520191 117.6 
L 495.026391 119.199998 
L 498.53259 106.400002 
L 502.03879 130.400002 
L 505.54499 138.399998 
L 509.05119 108 
L 512.557389 149.600002 
L 516.063589 109.599998 
L 519.569789 104.799998 
L 523.075989 112.8 
L 526.582188 122.4 
L 530.088388 149.600002 
L 533.594588 99.999998 
L 537.100788 127.2 
L 540.606987 111.200002 
L 547.619387 130.400002 
L 551.125586 111.200002 
L 554.631786 133.599998 
L 558.137986 109.599998 
L 561.644186 127.2 
L 565.150385 135.200002 
L 568.656585 128.799998 
L 572.162785 114.399998 
L 575.668985 128.799998 
L 579.175184 108 
L 582.681384 119.199998 
L 586.187584 108 
L 589.693784 140.000002 
L 593.199983 116.000002 
L 596.706183 136.8 
L 600.212383 130.400002 
L 603.718582 108 
L 607.224782 103.2 
L 610.730982 120.800002 
L 614.237182 88.8 
L 617.743381 122.4 
L 621.249581 149.600002 
L 621.249581 149.600002 
" style="fill:none;stroke:#00bfbf;stroke-linecap:square;stroke-width:1.2;"/>
   </g>
   <g id="patch_3">
    <path d="M 112.5 324 
L 112.5 36 
" style="fill:none;stroke:#000000;stroke-linecap:square;stroke-linejoin:miter;"/>
   </g>
   <g id="patch_4">
    <path d="M 635.625 324 
L 635.625 36 
" style="fill:none;stroke:#000000;stroke-linecap:square;stroke-linejoin:miter;"/>
   </g>
   <g id="patch_5">
    <path d="M 112.5 324 
L 635.625 324 
" style="fill:none;stroke:#000000;stroke-linecap:square;stroke-linejoin:miter;"/>
   </g>
   <g id="patch_6">
    <path d="M 112.5 36 
L 635.625 36 
" style="fill:none;stroke:#000000;stroke-linecap:square;stroke-linejoin:miter;"/>
   </g>
   <g id="matplotlib.axis_1">
    <g id="xtick_1">
     <g id="line2d_5">
      <defs>
       <path d="M 0 0 
L 0 -4 
" id="m0254c55503" style="stroke:#000000;stroke-width:0.5;"/>
      </defs>
      <g>
       <use style="stroke:#000000;stroke-width:0.5;" x="112.85062" xlink:href="#m0254c55503" y="324"/>
      </g>
     </g>
     <g id="line2d_6">
      <defs>
       <path d="M 0 0 
L 0 4 
" id="mf8a51f0da5" style="stroke:#000000;stroke-width:0.5;"/>
      </defs>
      <g>
       <use style="stroke:#000000;stroke-width:0.5;" x="112.85062" xlink:href="#mf8a51f0da5" y="36"/>
      </g>
     </g>
     <g id="text_1">
      <!-- 1 -->
      <defs>
       <path d="M 12.40625 8.296875 
L 28.515625 8.296875 
L 28.515625 63.921875 
L 10.984375 60.40625 
L 10.984375 69.390625 
L 28.421875 72.90625 
L 38.28125 72.90625 
L 38.28125 8.296875 
L 54.390625 8.296875 
L 54.390625 0 
L 12.40625 0 
z
" id="DejaVuSans-49"/>
      </defs>
      <g transform="translate(109.03312 337.118125)scale(0.12 -0.12)">
       <use xlink:href="#DejaVuSans-49"/>
      </g>
     </g>
    </g>
    <g id="xtick_2">
     <g id="line2d_7">
      <g>
       <use style="stroke:#000000;stroke-width:0.5;" x="165.443616" xlink:href="#m0254c55503" y="324"/>
      </g>
     </g>
     <g id="line2d_8">
      <g>
       <use style="stroke:#000000;stroke-width:0.5;" x="165.443616" xlink:href="#mf8a51f0da5" y="36"/>
      </g>
     </g>
     <g id="text_2">
      <!-- 16 -->
      <defs>
       <path d="M 33.015625 40.375 
Q 26.375 40.375 22.484375 35.828125 
Q 18.609375 31.296875 18.609375 23.390625 
Q 18.609375 15.53125 22.484375 10.953125 
Q 26.375 6.390625 33.015625 6.390625 
Q 39.65625 6.390625 43.53125 10.953125 
Q 47.40625 15.53125 47.40625 23.390625 
Q 47.40625 31.296875 43.53125 35.828125 
Q 39.65625 40.375 33.015625 40.375 
z
M 52.59375 71.296875 
L 52.59375 62.3125 
Q 48.875 64.0625 45.09375 64.984375 
Q 41.3125 65.921875 37.59375 65.921875 
Q 27.828125 65.921875 22.671875 59.328125 
Q 17.53125 52.734375 16.796875 39.40625 
Q 19.671875 43.65625 24.015625 45.921875 
Q 28.375 48.1875 33.59375 48.1875 
Q 44.578125 48.1875 50.953125 41.515625 
Q 57.328125 34.859375 57.328125 23.390625 
Q 57.328125 12.15625 50.6875 5.359375 
Q 44.046875 -1.421875 33.015625 -1.421875 
Q 20.359375 -1.421875 13.671875 8.265625 
Q 6.984375 17.96875 6.984375 36.375 
Q 6.984375 53.65625 15.1875 63.9375 
Q 23.390625 74.21875 37.203125 74.21875 
Q 40.921875 74.21875 44.703125 73.484375 
Q 48.484375 72.75 52.59375 71.296875 
z
" id="DejaVuSans-54"/>
      </defs>
      <g transform="translate(157.808616 337.118125)scale(0.12 -0.12)">
       <use xlink:href="#DejaVuSans-49"/>
       <use x="63.623047" xlink:href="#DejaVuSans-54"/>
      </g>
     </g>
    </g>
    <g id="xtick_3">
     <g id="line2d_9">
      <g>
       <use style="stroke:#000000;stroke-width:0.5;" x="218.036612" xlink:href="#m0254c55503" y="324"/>
      </g>
     </g>
     <g id="line2d_10">
      <g>
       <use style="stroke:#000000;stroke-width:0.5;" x="218.036612" xlink:href="#mf8a51f0da5" y="36"/>
      </g>
     </g>
     <g id="text_3">
      <!-- 31 -->
      <defs>
       <path d="M 40.578125 39.3125 
Q 47.65625 37.796875 51.625 33 
Q 55.609375 28.21875 55.609375 21.1875 
Q 55.609375 10.40625 48.1875 4.484375 
Q 40.765625 -1.421875 27.09375 -1.421875 
Q 22.515625 -1.421875 17.65625 -0.515625 
Q 12.796875 0.390625 7.625 2.203125 
L 7.625 11.71875 
Q 11.71875 9.328125 16.59375 8.109375 
Q 21.484375 6.890625 26.8125 6.890625 
Q 36.078125 6.890625 40.9375 10.546875 
Q 45.796875 14.203125 45.796875 21.1875 
Q 45.796875 27.640625 41.28125 31.265625 
Q 36.765625 34.90625 28.71875 34.90625 
L 20.21875 34.90625 
L 20.21875 43.015625 
L 29.109375 43.015625 
Q 36.375 43.015625 40.234375 45.921875 
Q 44.09375 48.828125 44.09375 54.296875 
Q 44.09375 59.90625 40.109375 62.90625 
Q 36.140625 65.921875 28.71875 65.921875 
Q 24.65625 65.921875 20.015625 65.03125 
Q 15.375 64.15625 9.8125 62.3125 
L 9.8125 71.09375 
Q 15.4375 72.65625 20.34375 73.4375 
Q 25.25 74.21875 29.59375 74.21875 
Q 40.828125 74.21875 47.359375 69.109375 
Q 53.90625 64.015625 53.90625 55.328125 
Q 53.90625 49.265625 50.4375 45.09375 
Q 46.96875 40.921875 40.578125 39.3125 
z
" id="DejaVuSans-51"/>
      </defs>
      <g transform="translate(210.401612 337.118125)scale(0.12 -0.12)">
       <use xlink:href="#DejaVuSans-51"/>
       <use x="63.623047" xlink:href="#DejaVuSans-49"/>
      </g>
     </g>
    </g>
    <g id="xtick_4">
     <g id="line2d_11">
      <g>
       <use style="stroke:#000000;stroke-width:0.5;" x="270.629608" xlink:href="#m0254c55503" y="324"/>
      </g>
     </g>
     <g id="line2d_12">
      <g>
       <use style="stroke:#000000;stroke-width:0.5;" x="270.629608" xlink:href="#mf8a51f0da5" y="36"/>
      </g>
     </g>
     <g id="text_4">
      <!-- 46 -->
      <defs>
       <path d="M 37.796875 64.3125 
L 12.890625 25.390625 
L 37.796875 25.390625 
z
M 35.203125 72.90625 
L 47.609375 72.90625 
L 47.609375 25.390625 
L 58.015625 25.390625 
L 58.015625 17.1875 
L 47.609375 17.1875 
L 47.609375 0 
L 37.796875 0 
L 37.796875 17.1875 
L 4.890625 17.1875 
L 4.890625 26.703125 
z
" id="DejaVuSans-52"/>
      </defs>
      <g transform="translate(262.994608 337.118125)scale(0.12 -0.12)">
       <use xlink:href="#DejaVuSans-52"/>
       <use x="63.623047" xlink:href="#DejaVuSans-54"/>
      </g>
     </g>
    </g>
    <g id="xtick_5">
     <g id="line2d_13">
      <g>
       <use style="stroke:#000000;stroke-width:0.5;" x="323.222604" xlink:href="#m0254c55503" y="324"/>
      </g>
     </g>
     <g id="line2d_14">
      <g>
       <use style="stroke:#000000;stroke-width:0.5;" x="323.222604" xlink:href="#mf8a51f0da5" y="36"/>
      </g>
     </g>
     <g id="text_5">
      <!-- 61 -->
      <g transform="translate(315.587604 337.118125)scale(0.12 -0.12)">
       <use xlink:href="#DejaVuSans-54"/>
       <use x="63.623047" xlink:href="#DejaVuSans-49"/>
      </g>
     </g>
    </g>
    <g id="xtick_6">
     <g id="line2d_15">
      <g>
       <use style="stroke:#000000;stroke-width:0.5;" x="375.8156" xlink:href="#m0254c55503" y="324"/>
      </g>
     </g>
     <g id="line2d_16">
      <g>
       <use style="stroke:#000000;stroke-width:0.5;" x="375.8156" xlink:href="#mf8a51f0da5" y="36"/>
      </g>
     </g>
     <g id="text_6">
      <!-- 76 -->
      <defs>
       <path d="M 8.203125 72.90625 
L 55.078125 72.90625 
L 55.078125 68.703125 
L 28.609375 0 
L 18.3125 0 
L 43.21875 64.59375 
L 8.203125 64.59375 
z
" id="DejaVuSans-55"/>
      </defs>
      <g transform="translate(368.1806 337.118125)scale(0.12 -0.12)">
       <use xlink:href="#DejaVuSans-55"/>
       <use x="63.623047" xlink:href="#DejaVuSans-54"/>
      </g>
     </g>
    </g>
    <g id="xtick_7">
     <g id="line2d_17">
      <g>
       <use style="stroke:#000000;stroke-width:0.5;" x="428.408596" xlink:href="#m0254c55503" y="324"/>
      </g>
     </g>
     <g id="line2d_18">
      <g>
       <use style="stroke:#000000;stroke-width:0.5;" x="428.408596" xlink:href="#mf8a51f0da5" y="36"/>
      </g>
     </g>
     <g id="text_7">
      <!-- 91 -->
      <defs>
       <path d="M 10.984375 1.515625 
L 10.984375 10.5 
Q 14.703125 8.734375 18.5 7.8125 
Q 22.3125 6.890625 25.984375 6.890625 
Q 35.75 6.890625 40.890625 13.453125 
Q 46.046875 20.015625 46.78125 33.40625 
Q 43.953125 29.203125 39.59375 26.953125 
Q 35.25 24.703125 29.984375 24.703125 
Q 19.046875 24.703125 12.671875 31.3125 
Q 6.296875 37.9375 6.296875 49.421875 
Q 6.296875 60.640625 12.9375 67.421875 
Q 19.578125 74.21875 30.609375 74.21875 
Q 43.265625 74.21875 49.921875 64.515625 
Q 56.59375 54.828125 56.59375 36.375 
Q 56.59375 19.140625 48.40625 8.859375 
Q 40.234375 -1.421875 26.421875 -1.421875 
Q 22.703125 -1.421875 18.890625 -0.6875 
Q 15.09375 0.046875 10.984375 1.515625 
z
M 30.609375 32.421875 
Q 37.25 32.421875 41.125 36.953125 
Q 45.015625 41.5 45.015625 49.421875 
Q 45.015625 57.28125 41.125 61.84375 
Q 37.25 66.40625 30.609375 66.40625 
Q 23.96875 66.40625 20.09375 61.84375 
Q 16.21875 57.28125 16.21875 49.421875 
Q 16.21875 41.5 20.09375 36.953125 
Q 23.96875 32.421875 30.609375 32.421875 
z
" id="DejaVuSans-57"/>
      </defs>
      <g transform="translate(420.773596 337.118125)scale(0.12 -0.12)">
       <use xlink:href="#DejaVuSans-57"/>
       <use x="63.623047" xlink:href="#DejaVuSans-49"/>
      </g>
     </g>
    </g>
    <g id="xtick_8">
     <g id="line2d_19">
      <g>
       <use style="stroke:#000000;stroke-width:0.5;" x="481.001592" xlink:href="#m0254c55503" y="324"/>
      </g>
     </g>
     <g id="line2d_20">
      <g>
       <use style="stroke:#000000;stroke-width:0.5;" x="481.001592" xlink:href="#mf8a51f0da5" y="36"/>
      </g>
     </g>
     <g id="text_8">
      <!-- 106 -->
      <defs>
       <path d="M 31.78125 66.40625 
Q 24.171875 66.40625 20.328125 58.90625 
Q 16.5 51.421875 16.5 36.375 
Q 16.5 21.390625 20.328125 13.890625 
Q 24.171875 6.390625 31.78125 6.390625 
Q 39.453125 6.390625 43.28125 13.890625 
Q 47.125 21.390625 47.125 36.375 
Q 47.125 51.421875 43.28125 58.90625 
Q 39.453125 66.40625 31.78125 66.40625 
z
M 31.78125 74.21875 
Q 44.046875 74.21875 50.515625 64.515625 
Q 56.984375 54.828125 56.984375 36.375 
Q 56.984375 17.96875 50.515625 8.265625 
Q 44.046875 -1.421875 31.78125 -1.421875 
Q 19.53125 -1.421875 13.0625 8.265625 
Q 6.59375 17.96875 6.59375 36.375 
Q 6.59375 54.828125 13.0625 64.515625 
Q 19.53125 74.21875 31.78125 74.21875 
z
" id="DejaVuSans-48"/>
      </defs>
      <g transform="translate(469.549092 337.118125)scale(0.12 -0.12)">
       <use xlink:href="#DejaVuSans-49"/>
       <use x="63.623047" xlink:href="#DejaVuSans-48"/>
       <use x="127.246094" xlink:href="#DejaVuSans-54"/>
      </g>
     </g>
    </g>
    <g id="xtick_9">
     <g id="line2d_21">
      <g>
       <use style="stroke:#000000;stroke-width:0.5;" x="533.594588" xlink:href="#m0254c55503" y="324"/>
      </g>
     </g>
     <g id="line2d_22">
      <g>
       <use style="stroke:#000000;stroke-width:0.5;" x="533.594588" xlink:href="#mf8a51f0da5" y="36"/>
      </g>
     </g>
     <g id="text_9">
      <!-- 121 -->
      <defs>
       <path d="M 19.1875 8.296875 
L 53.609375 8.296875 
L 53.609375 0 
L 7.328125 0 
L 7.328125 8.296875 
Q 12.9375 14.109375 22.625 23.890625 
Q 32.328125 33.6875 34.8125 36.53125 
Q 39.546875 41.84375 41.421875 45.53125 
Q 43.3125 49.21875 43.3125 52.78125 
Q 43.3125 58.59375 39.234375 62.25 
Q 35.15625 65.921875 28.609375 65.921875 
Q 23.96875 65.921875 18.8125 64.3125 
Q 13.671875 62.703125 7.8125 59.421875 
L 7.8125 69.390625 
Q 13.765625 71.78125 18.9375 73 
Q 24.125 74.21875 28.421875 74.21875 
Q 39.75 74.21875 46.484375 68.546875 
Q 53.21875 62.890625 53.21875 53.421875 
Q 53.21875 48.921875 51.53125 44.890625 
Q 49.859375 40.875 45.40625 35.40625 
Q 44.1875 33.984375 37.640625 27.21875 
Q 31.109375 20.453125 19.1875 8.296875 
z
" id="DejaVuSans-50"/>
      </defs>
      <g transform="translate(522.142088 337.118125)scale(0.12 -0.12)">
       <use xlink:href="#DejaVuSans-49"/>
       <use x="63.623047" xlink:href="#DejaVuSans-50"/>
       <use x="127.246094" xlink:href="#DejaVuSans-49"/>
      </g>
     </g>
    </g>
    <g id="xtick_10">
     <g id="line2d_23">
      <g>
       <use style="stroke:#000000;stroke-width:0.5;" x="586.187584" xlink:href="#m0254c55503" y="324"/>
      </g>
     </g>
     <g id="line2d_24">
      <g>
       <use style="stroke:#000000;stroke-width:0.5;" x="586.187584" xlink:href="#mf8a51f0da5" y="36"/>
      </g>
     </g>
     <g id="text_10">
      <!-- 136 -->
      <g transform="translate(574.735084 337.118125)scale(0.12 -0.12)">
       <use xlink:href="#DejaVuSans-49"/>
       <use x="63.623047" xlink:href="#DejaVuSans-51"/>
       <use x="127.246094" xlink:href="#DejaVuSans-54"/>
      </g>
     </g>
    </g>
    <g id="text_11">
     <!-- generation -->
     <defs>
      <path d="M 45.40625 27.984375 
Q 45.40625 37.75 41.375 43.109375 
Q 37.359375 48.484375 30.078125 48.484375 
Q 22.859375 48.484375 18.828125 43.109375 
Q 14.796875 37.75 14.796875 27.984375 
Q 14.796875 18.265625 18.828125 12.890625 
Q 22.859375 7.515625 30.078125 7.515625 
Q 37.359375 7.515625 41.375 12.890625 
Q 45.40625 18.265625 45.40625 27.984375 
z
M 54.390625 6.78125 
Q 54.390625 -7.171875 48.1875 -13.984375 
Q 42 -20.796875 29.203125 -20.796875 
Q 24.46875 -20.796875 20.265625 -20.09375 
Q 16.0625 -19.390625 12.109375 -17.921875 
L 12.109375 -9.1875 
Q 16.0625 -11.328125 19.921875 -12.34375 
Q 23.78125 -13.375 27.78125 -13.375 
Q 36.625 -13.375 41.015625 -8.765625 
Q 45.40625 -4.15625 45.40625 5.171875 
L 45.40625 9.625 
Q 42.625 4.78125 38.28125 2.390625 
Q 33.9375 0 27.875 0 
Q 17.828125 0 11.671875 7.65625 
Q 5.515625 15.328125 5.515625 27.984375 
Q 5.515625 40.671875 11.671875 48.328125 
Q 17.828125 56 27.875 56 
Q 33.9375 56 38.28125 53.609375 
Q 42.625 51.21875 45.40625 46.390625 
L 45.40625 54.6875 
L 54.390625 54.6875 
z
" id="DejaVuSans-103"/>
      <path d="M 56.203125 29.59375 
L 56.203125 25.203125 
L 14.890625 25.203125 
Q 15.484375 15.921875 20.484375 11.0625 
Q 25.484375 6.203125 34.421875 6.203125 
Q 39.59375 6.203125 44.453125 7.46875 
Q 49.3125 8.734375 54.109375 11.28125 
L 54.109375 2.78125 
Q 49.265625 0.734375 44.1875 -0.34375 
Q 39.109375 -1.421875 33.890625 -1.421875 
Q 20.796875 -1.421875 13.15625 6.1875 
Q 5.515625 13.8125 5.515625 26.8125 
Q 5.515625 40.234375 12.765625 48.109375 
Q 20.015625 56 32.328125 56 
Q 43.359375 56 49.78125 48.890625 
Q 56.203125 41.796875 56.203125 29.59375 
z
M 47.21875 32.234375 
Q 47.125 39.59375 43.09375 43.984375 
Q 39.0625 48.390625 32.421875 48.390625 
Q 24.90625 48.390625 20.390625 44.140625 
Q 15.875 39.890625 15.1875 32.171875 
z
" id="DejaVuSans-101"/>
      <path d="M 54.890625 33.015625 
L 54.890625 0 
L 45.90625 0 
L 45.90625 32.71875 
Q 45.90625 40.484375 42.875 44.328125 
Q 39.84375 48.1875 33.796875 48.1875 
Q 26.515625 48.1875 22.3125 43.546875 
Q 18.109375 38.921875 18.109375 30.90625 
L 18.109375 0 
L 9.078125 0 
L 9.078125 54.6875 
L 18.109375 54.6875 
L 18.109375 46.1875 
Q 21.34375 51.125 25.703125 53.5625 
Q 30.078125 56 35.796875 56 
Q 45.21875 56 50.046875 50.171875 
Q 54.890625 44.34375 54.890625 33.015625 
z
" id="DejaVuSans-110"/>
      <path d="M 41.109375 46.296875 
Q 39.59375 47.171875 37.8125 47.578125 
Q 36.03125 48 33.890625 48 
Q 26.265625 48 22.1875 43.046875 
Q 18.109375 38.09375 18.109375 28.8125 
L 18.109375 0 
L 9.078125 0 
L 9.078125 54.6875 
L 18.109375 54.6875 
L 18.109375 46.1875 
Q 20.953125 51.171875 25.484375 53.578125 
Q 30.03125 56 36.53125 56 
Q 37.453125 56 38.578125 55.875 
Q 39.703125 55.765625 41.0625 55.515625 
z
" id="DejaVuSans-114"/>
      <path d="M 34.28125 27.484375 
Q 23.390625 27.484375 19.1875 25 
Q 14.984375 22.515625 14.984375 16.5 
Q 14.984375 11.71875 18.140625 8.90625 
Q 21.296875 6.109375 26.703125 6.109375 
Q 34.1875 6.109375 38.703125 11.40625 
Q 43.21875 16.703125 43.21875 25.484375 
L 43.21875 27.484375 
z
M 52.203125 31.203125 
L 52.203125 0 
L 43.21875 0 
L 43.21875 8.296875 
Q 40.140625 3.328125 35.546875 0.953125 
Q 30.953125 -1.421875 24.3125 -1.421875 
Q 15.921875 -1.421875 10.953125 3.296875 
Q 6 8.015625 6 15.921875 
Q 6 25.140625 12.171875 29.828125 
Q 18.359375 34.515625 30.609375 34.515625 
L 43.21875 34.515625 
L 43.21875 35.40625 
Q 43.21875 41.609375 39.140625 45 
Q 35.0625 48.390625 27.6875 48.390625 
Q 23 48.390625 18.546875 47.265625 
Q 14.109375 46.140625 10.015625 43.890625 
L 10.015625 52.203125 
Q 14.9375 54.109375 19.578125 55.046875 
Q 24.21875 56 28.609375 56 
Q 40.484375 56 46.34375 49.84375 
Q 52.203125 43.703125 52.203125 31.203125 
z
" id="DejaVuSans-97"/>
      <path d="M 18.3125 70.21875 
L 18.3125 54.6875 
L 36.8125 54.6875 
L 36.8125 47.703125 
L 18.3125 47.703125 
L 18.3125 18.015625 
Q 18.3125 11.328125 20.140625 9.421875 
Q 21.96875 7.515625 27.59375 7.515625 
L 36.8125 7.515625 
L 36.8125 0 
L 27.59375 0 
Q 17.1875 0 13.234375 3.875 
Q 9.28125 7.765625 9.28125 18.015625 
L 9.28125 47.703125 
L 2.6875 47.703125 
L 2.6875 54.6875 
L 9.28125 54.6875 
L 9.28125 70.21875 
z
" id="DejaVuSans-116"/>
      <path d="M 9.421875 54.6875 
L 18.40625 54.6875 
L 18.40625 0 
L 9.421875 0 
z
M 9.421875 75.984375 
L 18.40625 75.984375 
L 18.40625 64.59375 
L 9.421875 64.59375 
z
" id="DejaVuSans-105"/>
      <path d="M 30.609375 48.390625 
Q 23.390625 48.390625 19.1875 42.75 
Q 14.984375 37.109375 14.984375 27.296875 
Q 14.984375 17.484375 19.15625 11.84375 
Q 23.34375 6.203125 30.609375 6.203125 
Q 37.796875 6.203125 41.984375 11.859375 
Q 46.1875 17.53125 46.1875 27.296875 
Q 46.1875 37.015625 41.984375 42.703125 
Q 37.796875 48.390625 30.609375 48.390625 
z
M 30.609375 56 
Q 42.328125 56 49.015625 48.375 
Q 55.71875 40.765625 55.71875 27.296875 
Q 55.71875 13.875 49.015625 6.21875 
Q 42.328125 -1.421875 30.609375 -1.421875 
Q 18.84375 -1.421875 12.171875 6.21875 
Q 5.515625 13.875 5.515625 27.296875 
Q 5.515625 40.765625 12.171875 48.375 
Q 18.84375 56 30.609375 56 
z
" id="DejaVuSans-111"/>
     </defs>
     <g transform="translate(341.430938 353.731875)scale(0.12 -0.12)">
      <use xlink:href="#DejaVuSans-103"/>
      <use x="63.476562" xlink:href="#DejaVuSans-101"/>
      <use x="125" xlink:href="#DejaVuSans-110"/>
      <use x="188.378906" xlink:href="#DejaVuSans-101"/>
      <use x="249.902344" xlink:href="#DejaVuSans-114"/>
      <use x="291.015625" xlink:href="#DejaVuSans-97"/>
      <use x="352.294922" xlink:href="#DejaVuSans-116"/>
      <use x="391.503906" xlink:href="#DejaVuSans-105"/>
      <use x="419.287109" xlink:href="#DejaVuSans-111"/>
      <use x="480.46875" xlink:href="#DejaVuSans-110"/>
     </g>
    </g>
   </g>
   <g id="matplotlib.axis_2">
    <g id="ytick_1">
     <g id="line2d_25">
      <defs>
       <path d="M 0 0 
L 4 0 
" id="mbbf002e94e" style="stroke:#000000;stroke-width:0.5;"/>
      </defs>
      <g>
       <use style="stroke:#000000;stroke-width:0.5;" x="112.5" xlink:href="#mbbf002e94e" y="324"/>
      </g>
     </g>
     <g id="line2d_26">
      <defs>
       <path d="M 0 0 
L -4 0 
" id="m36fdbc1e2f" style="stroke:#000000;stroke-width:0.5;"/>
      </defs>
      <g>
       <use style="stroke:#000000;stroke-width:0.5;" x="635.625" xlink:href="#m36fdbc1e2f" y="324"/>
      </g>
     </g>
     <g id="text_12">
      <!-- 0.90 -->
      <defs>
       <path d="M 10.6875 12.40625 
L 21 12.40625 
L 21 0 
L 10.6875 0 
z
" id="DejaVuSans-46"/>
      </defs>
      <g transform="translate(81.78125 327.31125)scale(0.12 -0.12)">
       <use xlink:href="#DejaVuSans-48"/>
       <use x="63.623047" xlink:href="#DejaVuSans-46"/>
       <use x="95.410156" xlink:href="#DejaVuSans-57"/>
       <use x="159.033203" xlink:href="#DejaVuSans-48"/>
      </g>
     </g>
    </g>
    <g id="ytick_2">
     <g id="line2d_27">
      <g>
       <use style="stroke:#000000;stroke-width:0.5;" x="112.5" xlink:href="#mbbf002e94e" y="276"/>
      </g>
     </g>
     <g id="line2d_28">
      <g>
       <use style="stroke:#000000;stroke-width:0.5;" x="635.625" xlink:href="#m36fdbc1e2f" y="276"/>
      </g>
     </g>
     <g id="text_13">
      <!-- 0.91 -->
      <g transform="translate(81.78125 279.31125)scale(0.12 -0.12)">
       <use xlink:href="#DejaVuSans-48"/>
       <use x="63.623047" xlink:href="#DejaVuSans-46"/>
       <use x="95.410156" xlink:href="#DejaVuSans-57"/>
       <use x="159.033203" xlink:href="#DejaVuSans-49"/>
      </g>
     </g>
    </g>
    <g id="ytick_3">
     <g id="line2d_29">
      <g>
       <use style="stroke:#000000;stroke-width:0.5;" x="112.5" xlink:href="#mbbf002e94e" y="228"/>
      </g>
     </g>
     <g id="line2d_30">
      <g>
       <use style="stroke:#000000;stroke-width:0.5;" x="635.625" xlink:href="#m36fdbc1e2f" y="228"/>
      </g>
     </g>
     <g id="text_14">
      <!-- 0.92 -->
      <g transform="translate(81.78125 231.31125)scale(0.12 -0.12)">
       <use xlink:href="#DejaVuSans-48"/>
       <use x="63.623047" xlink:href="#DejaVuSans-46"/>
       <use x="95.410156" xlink:href="#DejaVuSans-57"/>
       <use x="159.033203" xlink:href="#DejaVuSans-50"/>
      </g>
     </g>
    </g>
    <g id="ytick_4">
     <g id="line2d_31">
      <g>
       <use style="stroke:#000000;stroke-width:0.5;" x="112.5" xlink:href="#mbbf002e94e" y="180"/>
      </g>
     </g>
     <g id="line2d_32">
      <g>
       <use style="stroke:#000000;stroke-width:0.5;" x="635.625" xlink:href="#m36fdbc1e2f" y="180"/>
      </g>
     </g>
     <g id="text_15">
      <!-- 0.93 -->
      <g transform="translate(81.78125 183.31125)scale(0.12 -0.12)">
       <use xlink:href="#DejaVuSans-48"/>
       <use x="63.623047" xlink:href="#DejaVuSans-46"/>
       <use x="95.410156" xlink:href="#DejaVuSans-57"/>
       <use x="159.033203" xlink:href="#DejaVuSans-51"/>
      </g>
     </g>
    </g>
    <g id="ytick_5">
     <g id="line2d_33">
      <g>
       <use style="stroke:#000000;stroke-width:0.5;" x="112.5" xlink:href="#mbbf002e94e" y="132"/>
      </g>
     </g>
     <g id="line2d_34">
      <g>
       <use style="stroke:#000000;stroke-width:0.5;" x="635.625" xlink:href="#m36fdbc1e2f" y="132"/>
      </g>
     </g>
     <g id="text_16">
      <!-- 0.94 -->
      <g transform="translate(81.78125 135.31125)scale(0.12 -0.12)">
       <use xlink:href="#DejaVuSans-48"/>
       <use x="63.623047" xlink:href="#DejaVuSans-46"/>
       <use x="95.410156" xlink:href="#DejaVuSans-57"/>
       <use x="159.033203" xlink:href="#DejaVuSans-52"/>
      </g>
     </g>
    </g>
    <g id="ytick_6">
     <g id="line2d_35">
      <g>
       <use style="stroke:#000000;stroke-width:0.5;" x="112.5" xlink:href="#mbbf002e94e" y="84"/>
      </g>
     </g>
     <g id="line2d_36">
      <g>
       <use style="stroke:#000000;stroke-width:0.5;" x="635.625" xlink:href="#m36fdbc1e2f" y="84"/>
      </g>
     </g>
     <g id="text_17">
      <!-- 0.95 -->
      <defs>
       <path d="M 10.796875 72.90625 
L 49.515625 72.90625 
L 49.515625 64.59375 
L 19.828125 64.59375 
L 19.828125 46.734375 
Q 21.96875 47.46875 24.109375 47.828125 
Q 26.265625 48.1875 28.421875 48.1875 
Q 40.625 48.1875 47.75 41.5 
Q 54.890625 34.8125 54.890625 23.390625 
Q 54.890625 11.625 47.5625 5.09375 
Q 40.234375 -1.421875 26.90625 -1.421875 
Q 22.3125 -1.421875 17.546875 -0.640625 
Q 12.796875 0.140625 7.71875 1.703125 
L 7.71875 11.625 
Q 12.109375 9.234375 16.796875 8.0625 
Q 21.484375 6.890625 26.703125 6.890625 
Q 35.15625 6.890625 40.078125 11.328125 
Q 45.015625 15.765625 45.015625 23.390625 
Q 45.015625 31 40.078125 35.4375 
Q 35.15625 39.890625 26.703125 39.890625 
Q 22.75 39.890625 18.8125 39.015625 
Q 14.890625 38.140625 10.796875 36.28125 
z
" id="DejaVuSans-53"/>
      </defs>
      <g transform="translate(81.78125 87.31125)scale(0.12 -0.12)">
       <use xlink:href="#DejaVuSans-48"/>
       <use x="63.623047" xlink:href="#DejaVuSans-46"/>
       <use x="95.410156" xlink:href="#DejaVuSans-57"/>
       <use x="159.033203" xlink:href="#DejaVuSans-53"/>
      </g>
     </g>
    </g>
    <g id="ytick_7">
     <g id="line2d_37">
      <g>
       <use style="stroke:#000000;stroke-width:0.5;" x="112.5" xlink:href="#mbbf002e94e" y="36"/>
      </g>
     </g>
     <g id="line2d_38">
      <g>
       <use style="stroke:#000000;stroke-width:0.5;" x="635.625" xlink:href="#m36fdbc1e2f" y="36"/>
      </g>
     </g>
     <g id="text_18">
      <!-- 0.96 -->
      <g transform="translate(81.78125 39.31125)scale(0.12 -0.12)">
       <use xlink:href="#DejaVuSans-48"/>
       <use x="63.623047" xlink:href="#DejaVuSans-46"/>
       <use x="95.410156" xlink:href="#DejaVuSans-57"/>
       <use x="159.033203" xlink:href="#DejaVuSans-54"/>
      </g>
     </g>
    </g>
    <g id="text_19">
     <!-- accuracy -->
     <defs>
      <path d="M 48.78125 52.59375 
L 48.78125 44.1875 
Q 44.96875 46.296875 41.140625 47.34375 
Q 37.3125 48.390625 33.40625 48.390625 
Q 24.65625 48.390625 19.8125 42.84375 
Q 14.984375 37.3125 14.984375 27.296875 
Q 14.984375 17.28125 19.8125 11.734375 
Q 24.65625 6.203125 33.40625 6.203125 
Q 37.3125 6.203125 41.140625 7.25 
Q 44.96875 8.296875 48.78125 10.40625 
L 48.78125 2.09375 
Q 45.015625 0.34375 40.984375 -0.53125 
Q 36.96875 -1.421875 32.421875 -1.421875 
Q 20.0625 -1.421875 12.78125 6.34375 
Q 5.515625 14.109375 5.515625 27.296875 
Q 5.515625 40.671875 12.859375 48.328125 
Q 20.21875 56 33.015625 56 
Q 37.15625 56 41.109375 55.140625 
Q 45.0625 54.296875 48.78125 52.59375 
z
" id="DejaVuSans-99"/>
      <path d="M 8.5 21.578125 
L 8.5 54.6875 
L 17.484375 54.6875 
L 17.484375 21.921875 
Q 17.484375 14.15625 20.5 10.265625 
Q 23.53125 6.390625 29.59375 6.390625 
Q 36.859375 6.390625 41.078125 11.03125 
Q 45.3125 15.671875 45.3125 23.6875 
L 45.3125 54.6875 
L 54.296875 54.6875 
L 54.296875 0 
L 45.3125 0 
L 45.3125 8.40625 
Q 42.046875 3.421875 37.71875 1 
Q 33.40625 -1.421875 27.6875 -1.421875 
Q 18.265625 -1.421875 13.375 4.4375 
Q 8.5 10.296875 8.5 21.578125 
z
M 31.109375 56 
z
" id="DejaVuSans-117"/>
      <path d="M 32.171875 -5.078125 
Q 28.375 -14.84375 24.75 -17.8125 
Q 21.140625 -20.796875 15.09375 -20.796875 
L 7.90625 -20.796875 
L 7.90625 -13.28125 
L 13.1875 -13.28125 
Q 16.890625 -13.28125 18.9375 -11.515625 
Q 21 -9.765625 23.484375 -3.21875 
L 25.09375 0.875 
L 2.984375 54.6875 
L 12.5 54.6875 
L 29.59375 11.921875 
L 46.6875 54.6875 
L 56.203125 54.6875 
z
" id="DejaVuSans-121"/>
     </defs>
     <g transform="translate(74.285625 207.07125)rotate(-90)scale(0.12 -0.12)">
      <use xlink:href="#DejaVuSans-97"/>
      <use x="61.279297" xlink:href="#DejaVuSans-99"/>
      <use x="116.259766" xlink:href="#DejaVuSans-99"/>
      <use x="171.240234" xlink:href="#DejaVuSans-117"/>
      <use x="234.619141" xlink:href="#DejaVuSans-114"/>
      <use x="275.732422" xlink:href="#DejaVuSans-97"/>
      <use x="337.011719" xlink:href="#DejaVuSans-99"/>
      <use x="391.992188" xlink:href="#DejaVuSans-121"/>
     </g>
    </g>
   </g>
   <g id="legend_1">
    <g id="patch_7">
     <path d="M 640.623 211.399935 
L 764.493744 211.399935 
L 764.493744 148.600065 
L 640.623 148.600065 
z
" style="fill:#ffffff;stroke:#000000;stroke-linejoin:miter;"/>
    </g>
    <g id="line2d_39">
     <path d="M 647.6202 156.695263 
L 661.6146 156.695263 
" style="fill:none;stroke:#0000ff;stroke-linecap:square;stroke-width:1.2;"/>
    </g>
    <g id="line2d_40"/>
    <g id="text_20">
     <!-- Lonely_Loss_LS_2 -->
     <defs>
      <path d="M 9.8125 72.90625 
L 19.671875 72.90625 
L 19.671875 8.296875 
L 55.171875 8.296875 
L 55.171875 0 
L 9.8125 0 
z
" id="DejaVuSans-76"/>
      <path d="M 9.421875 75.984375 
L 18.40625 75.984375 
L 18.40625 0 
L 9.421875 0 
z
" id="DejaVuSans-108"/>
      <path d="M 50.984375 -16.609375 
L 50.984375 -23.578125 
L -0.984375 -23.578125 
L -0.984375 -16.609375 
z
" id="DejaVuSans-95"/>
      <path d="M 44.28125 53.078125 
L 44.28125 44.578125 
Q 40.484375 46.53125 36.375 47.5 
Q 32.28125 48.484375 27.875 48.484375 
Q 21.1875 48.484375 17.84375 46.4375 
Q 14.5 44.390625 14.5 40.28125 
Q 14.5 37.15625 16.890625 35.375 
Q 19.28125 33.59375 26.515625 31.984375 
L 29.59375 31.296875 
Q 39.15625 29.25 43.1875 25.515625 
Q 47.21875 21.78125 47.21875 15.09375 
Q 47.21875 7.46875 41.1875 3.015625 
Q 35.15625 -1.421875 24.609375 -1.421875 
Q 20.21875 -1.421875 15.453125 -0.5625 
Q 10.6875 0.296875 5.421875 2 
L 5.421875 11.28125 
Q 10.40625 8.6875 15.234375 7.390625 
Q 20.0625 6.109375 24.8125 6.109375 
Q 31.15625 6.109375 34.5625 8.28125 
Q 37.984375 10.453125 37.984375 14.40625 
Q 37.984375 18.0625 35.515625 20.015625 
Q 33.0625 21.96875 24.703125 23.78125 
L 21.578125 24.515625 
Q 13.234375 26.265625 9.515625 29.90625 
Q 5.8125 33.546875 5.8125 39.890625 
Q 5.8125 47.609375 11.28125 51.796875 
Q 16.75 56 26.8125 56 
Q 31.78125 56 36.171875 55.265625 
Q 40.578125 54.546875 44.28125 53.078125 
z
" id="DejaVuSans-115"/>
      <path d="M 53.515625 70.515625 
L 53.515625 60.890625 
Q 47.90625 63.578125 42.921875 64.890625 
Q 37.9375 66.21875 33.296875 66.21875 
Q 25.25 66.21875 20.875 63.09375 
Q 16.5 59.96875 16.5 54.203125 
Q 16.5 49.359375 19.40625 46.890625 
Q 22.3125 44.4375 30.421875 42.921875 
L 36.375 41.703125 
Q 47.40625 39.59375 52.65625 34.296875 
Q 57.90625 29 57.90625 20.125 
Q 57.90625 9.515625 50.796875 4.046875 
Q 43.703125 -1.421875 29.984375 -1.421875 
Q 24.8125 -1.421875 18.96875 -0.25 
Q 13.140625 0.921875 6.890625 3.21875 
L 6.890625 13.375 
Q 12.890625 10.015625 18.65625 8.296875 
Q 24.421875 6.59375 29.984375 6.59375 
Q 38.421875 6.59375 43.015625 9.90625 
Q 47.609375 13.234375 47.609375 19.390625 
Q 47.609375 24.75 44.3125 27.78125 
Q 41.015625 30.8125 33.5 32.328125 
L 27.484375 33.5 
Q 16.453125 35.6875 11.515625 40.375 
Q 6.59375 45.0625 6.59375 53.421875 
Q 6.59375 63.09375 13.40625 68.65625 
Q 20.21875 74.21875 32.171875 74.21875 
Q 37.3125 74.21875 42.625 73.28125 
Q 47.953125 72.359375 53.515625 70.515625 
z
" id="DejaVuSans-83"/>
     </defs>
     <g transform="translate(672.6102 160.193863)scale(0.09996 -0.09996)">
      <use xlink:href="#DejaVuSans-76"/>
      <use x="53.962891" xlink:href="#DejaVuSans-111"/>
      <use x="115.144531" xlink:href="#DejaVuSans-110"/>
      <use x="178.523438" xlink:href="#DejaVuSans-101"/>
      <use x="240.046875" xlink:href="#DejaVuSans-108"/>
      <use x="267.830078" xlink:href="#DejaVuSans-121"/>
      <use x="327.009766" xlink:href="#DejaVuSans-95"/>
      <use x="377.009766" xlink:href="#DejaVuSans-76"/>
      <use x="430.972656" xlink:href="#DejaVuSans-111"/>
      <use x="492.154297" xlink:href="#DejaVuSans-115"/>
      <use x="544.253906" xlink:href="#DejaVuSans-115"/>
      <use x="596.353516" xlink:href="#DejaVuSans-95"/>
      <use x="646.353516" xlink:href="#DejaVuSans-76"/>
      <use x="702.066406" xlink:href="#DejaVuSans-83"/>
      <use x="765.542969" xlink:href="#DejaVuSans-95"/>
      <use x="815.542969" xlink:href="#DejaVuSans-50"/>
     </g>
    </g>
    <g id="line2d_41">
     <path d="M 647.6202 171.645531 
L 661.6146 171.645531 
" style="fill:none;stroke:#008000;stroke-linecap:square;stroke-width:1.2;"/>
    </g>
    <g id="line2d_42"/>
    <g id="text_21">
     <!-- Lonely_Loss_LS_3 -->
     <g transform="translate(672.6102 175.144131)scale(0.09996 -0.09996)">
      <use xlink:href="#DejaVuSans-76"/>
      <use x="53.962891" xlink:href="#DejaVuSans-111"/>
      <use x="115.144531" xlink:href="#DejaVuSans-110"/>
      <use x="178.523438" xlink:href="#DejaVuSans-101"/>
      <use x="240.046875" xlink:href="#DejaVuSans-108"/>
      <use x="267.830078" xlink:href="#DejaVuSans-121"/>
      <use x="327.009766" xlink:href="#DejaVuSans-95"/>
      <use x="377.009766" xlink:href="#DejaVuSans-76"/>
      <use x="430.972656" xlink:href="#DejaVuSans-111"/>
      <use x="492.154297" xlink:href="#DejaVuSans-115"/>
      <use x="544.253906" xlink:href="#DejaVuSans-115"/>
      <use x="596.353516" xlink:href="#DejaVuSans-95"/>
      <use x="646.353516" xlink:href="#DejaVuSans-76"/>
      <use x="702.066406" xlink:href="#DejaVuSans-83"/>
      <use x="765.542969" xlink:href="#DejaVuSans-95"/>
      <use x="815.542969" xlink:href="#DejaVuSans-51"/>
     </g>
    </g>
    <g id="line2d_43">
     <path d="M 647.6202 186.595798 
L 661.6146 186.595798 
" style="fill:none;stroke:#ff0000;stroke-linecap:square;stroke-width:1.2;"/>
    </g>
    <g id="line2d_44"/>
    <g id="text_22">
     <!-- Lonely_Loss_LS_4 -->
     <g transform="translate(672.6102 190.094398)scale(0.09996 -0.09996)">
      <use xlink:href="#DejaVuSans-76"/>
      <use x="53.962891" xlink:href="#DejaVuSans-111"/>
      <use x="115.144531" xlink:href="#DejaVuSans-110"/>
      <use x="178.523438" xlink:href="#DejaVuSans-101"/>
      <use x="240.046875" xlink:href="#DejaVuSans-108"/>
      <use x="267.830078" xlink:href="#DejaVuSans-121"/>
      <use x="327.009766" xlink:href="#DejaVuSans-95"/>
      <use x="377.009766" xlink:href="#DejaVuSans-76"/>
      <use x="430.972656" xlink:href="#DejaVuSans-111"/>
      <use x="492.154297" xlink:href="#DejaVuSans-115"/>
      <use x="544.253906" xlink:href="#DejaVuSans-115"/>
      <use x="596.353516" xlink:href="#DejaVuSans-95"/>
      <use x="646.353516" xlink:href="#DejaVuSans-76"/>
      <use x="702.066406" xlink:href="#DejaVuSans-83"/>
      <use x="765.542969" xlink:href="#DejaVuSans-95"/>
      <use x="815.542969" xlink:href="#DejaVuSans-52"/>
     </g>
    </g>
    <g id="line2d_45">
     <path d="M 647.6202 201.546066 
L 661.6146 201.546066 
" style="fill:none;stroke:#00bfbf;stroke-linecap:square;stroke-width:1.2;"/>
    </g>
    <g id="line2d_46"/>
    <g id="text_23">
     <!-- Lonely_Loss_LS_5 -->
     <g transform="translate(672.6102 205.044666)scale(0.09996 -0.09996)">
      <use xlink:href="#DejaVuSans-76"/>
      <use x="53.962891" xlink:href="#DejaVuSans-111"/>
      <use x="115.144531" xlink:href="#DejaVuSans-110"/>
      <use x="178.523438" xlink:href="#DejaVuSans-101"/>
      <use x="240.046875" xlink:href="#DejaVuSans-108"/>
      <use x="267.830078" xlink:href="#DejaVuSans-121"/>
      <use x="327.009766" xlink:href="#DejaVuSans-95"/>
      <use x="377.009766" xlink:href="#DejaVuSans-76"/>
      <use x="430.972656" xlink:href="#DejaVuSans-111"/>
      <use x="492.154297" xlink:href="#DejaVuSans-115"/>
      <use x="544.253906" xlink:href="#DejaVuSans-115"/>
      <use x="596.353516" xlink:href="#DejaVuSans-95"/>
      <use x="646.353516" xlink:href="#DejaVuSans-76"/>
      <use x="702.066406" xlink:href="#DejaVuSans-83"/>
      <use x="765.542969" xlink:href="#DejaVuSans-95"/>
      <use x="815.542969" xlink:href="#DejaVuSans-53"/>
     </g>
    </g>
   </g>
  </g>
  <g id="text_24">
   <!-- Average Accuracy -->
   <defs>
    <path d="M 34.1875 63.1875 
L 20.796875 26.90625 
L 47.609375 26.90625 
z
M 28.609375 72.90625 
L 39.796875 72.90625 
L 67.578125 0 
L 57.328125 0 
L 50.6875 18.703125 
L 17.828125 18.703125 
L 11.1875 0 
L 0.78125 0 
z
" id="DejaVuSans-65"/>
    <path d="M 2.984375 54.6875 
L 12.5 54.6875 
L 29.59375 8.796875 
L 46.6875 54.6875 
L 56.203125 54.6875 
L 35.6875 0 
L 23.484375 0 
z
" id="DejaVuSans-118"/>
    <path id="DejaVuSans-32"/>
   </defs>
   <g transform="translate(396.06 16.318125)scale(0.12 -0.12)">
    <use xlink:href="#DejaVuSans-65"/>
    <use x="62.533203" xlink:href="#DejaVuSans-118"/>
    <use x="121.712891" xlink:href="#DejaVuSans-101"/>
    <use x="183.236328" xlink:href="#DejaVuSans-114"/>
    <use x="224.349609" xlink:href="#DejaVuSans-97"/>
    <use x="285.628906" xlink:href="#DejaVuSans-103"/>
    <use x="349.105469" xlink:href="#DejaVuSans-101"/>
    <use x="410.628906" xlink:href="#DejaVuSans-32"/>
    <use x="442.416016" xlink:href="#DejaVuSans-65"/>
    <use x="509.074219" xlink:href="#DejaVuSans-99"/>
    <use x="564.054688" xlink:href="#DejaVuSans-99"/>
    <use x="619.035156" xlink:href="#DejaVuSans-117"/>
    <use x="682.414062" xlink:href="#DejaVuSans-114"/>
    <use x="723.527344" xlink:href="#DejaVuSans-97"/>
    <use x="784.806641" xlink:href="#DejaVuSans-99"/>
    <use x="839.787109" xlink:href="#DejaVuSans-121"/>
   </g>
  </g>
 </g>
 <defs>
  <clipPath id="p1b77d0fcb3">
   <rect height="288" width="523.125" x="112.5" y="36"/>
  </clipPath>
 </defs>
</svg>
