<?xml version="1.0" encoding="utf-8" standalone="no"?>
<!DOCTYPE svg PUBLIC "-//W3C//DTD SVG 1.1//EN"
  "http://www.w3.org/Graphics/SVG/1.1/DTD/svg11.dtd">
<!-- Created with matplotlib (https://matplotlib.org/) -->
<svg height="360pt" version="1.1" viewBox="0 0 900 360" width="900pt" xmlns="http://www.w3.org/2000/svg" xmlns:xlink="http://www.w3.org/1999/xlink">
 <defs>
  <style type="text/css">
*{stroke-linecap:butt;stroke-linejoin:round;}
  </style>
 </defs>
 <g id="figure_1">
  <g id="patch_1">
   <path d="M 0 360 
L 900 360 
L 900 0 
L 0 0 
z
" style="fill:#ffffff;"/>
  </g>
  <g id="axes_1">
   <g id="patch_2">
    <path d="M 112.5 324 
L 635.625 324 
L 635.625 36 
L 112.5 36 
z
" style="fill:#ffffff;"/>
   </g>
   <g id="line2d_1">
    <path clip-path="url(#p453ac79ab9)" d="M 112.860279 84.634443 
L 116.463068 97.314708 
L 120.065857 107.079044 
L 123.668647 115.7942 
L 127.271436 120.956772 
L 134.477014 132.224842 
L 138.079804 141.319781 
L 145.285382 156.100239 
L 148.888171 164.096757 
L 152.490961 174.232698 
L 156.09375 183.567067 
L 159.696539 193.245644 
L 163.299329 201.797626 
L 166.902118 211.411021 
L 170.504907 219.311294 
L 174.107696 229.014812 
L 177.710486 234.175999 
L 181.313275 234.379791 
L 184.916064 239.489826 
L 188.518853 244.400443 
L 192.121643 247.270974 
L 195.724432 251.1645 
L 199.327221 251.632699 
L 202.93001 255.249259 
L 206.5328 265.861095 
L 210.135589 268.749438 
L 213.738378 273.980294 
L 220.943957 278.209297 
L 224.546746 281.756768 
L 231.752324 286.015652 
L 235.355114 287.94344 
L 238.957903 287.353537 
L 246.163481 293.444242 
L 249.766271 293.510919 
L 256.971849 290.1317 
L 260.574638 292.093659 
L 264.177428 292.30359 
L 267.780217 294.160191 
L 271.383006 291.936696 
L 274.985795 291.194046 
L 278.588585 290.784804 
L 282.191374 291.316092 
L 285.794163 289.42257 
L 289.396952 289.925455 
L 292.999742 285.410528 
L 296.602531 281.825252 
L 300.20532 283.929315 
L 307.410899 285.582156 
L 311.013688 286.960485 
L 314.616477 288.156735 
L 318.219267 290.729955 
L 321.822056 296.375883 
L 325.424845 295.877232 
L 329.027634 297.536728 
L 332.630424 298.796553 
L 336.233213 298.639607 
L 339.836002 291.723181 
L 343.438791 290.697364 
L 347.041581 284.550603 
L 350.64437 285.381852 
L 354.247159 285.070185 
L 357.849948 271.320138 
L 361.452738 267.485528 
L 365.055527 272.527498 
L 368.658316 272.899136 
L 372.261105 277.774072 
L 375.863895 275.889671 
L 379.466684 274.640141 
L 383.069473 288.316062 
L 386.672262 289.748237 
L 390.275052 279.39037 
L 393.877841 279.838474 
L 397.48063 284.066416 
L 401.083419 282.739518 
L 404.686209 284.87599 
L 408.288998 283.540685 
L 411.891787 282.326868 
L 415.494576 293.227677 
L 419.097366 292.470635 
L 422.700155 289.168847 
L 426.302944 292.743944 
L 433.508523 286.404789 
L 437.111312 290.638768 
L 440.714101 291.051941 
L 444.31689 293.045032 
L 447.91968 292.554475 
L 451.522469 293.379567 
L 455.125258 293.772935 
L 458.728048 295.609498 
L 462.330837 297.213584 
L 465.933626 295.932795 
L 469.536415 294.847875 
L 473.139205 296.942857 
L 476.741994 296.38988 
L 480.344783 298.657341 
L 483.947572 296.892366 
L 491.153151 291.922416 
L 494.75594 290.02985 
L 498.358729 291.367664 
L 501.961519 289.46618 
L 505.564308 290.38738 
L 509.167097 292.960994 
L 512.769886 296.462717 
L 516.372676 298.781003 
L 519.975465 302.31179 
L 523.578254 302.232944 
L 527.181043 304.529384 
L 530.783833 307.821178 
L 534.386622 310.162902 
L 537.989411 309.704006 
L 541.5922 308.006712 
L 545.19499 309.646555 
L 548.797779 310.050166 
L 552.400568 309.296681 
L 556.003357 308.698668 
L 559.606147 311.808921 
L 563.208936 309.311914 
L 566.811725 315.791234 
L 574.017304 308.641116 
L 577.620093 308.840583 
L 581.222882 308.88466 
L 584.825671 304.001678 
L 588.428461 304.973045 
L 592.03125 303.107823 
L 595.634039 307.59632 
L 599.236829 311.304947 
L 602.839618 309.980812 
L 606.442407 308.146119 
L 610.045196 309.920986 
L 613.647986 310.355961 
L 617.250775 310.402966 
L 620.853564 307.590849 
L 624.456353 305.00902 
L 628.059143 307.869053 
L 628.059143 307.869053 
" style="fill:none;stroke:#0000ff;stroke-linecap:square;stroke-width:1.2;"/>
   </g>
   <g id="line2d_2">
    <path clip-path="url(#p453ac79ab9)" d="M 112.860279 94.486854 
L 116.463068 104.155246 
L 120.065857 112.819549 
L 123.668647 120.625338 
L 127.271436 125.551539 
L 130.874225 131.832007 
L 134.477014 135.025705 
L 138.079804 141.628651 
L 141.682593 147.079347 
L 145.285382 152.781278 
L 148.888171 157.952852 
L 152.490961 164.30793 
L 156.09375 170.360146 
L 159.696539 174.070766 
L 166.902118 186.642336 
L 170.504907 192.852647 
L 174.107696 197.820944 
L 177.710486 204.735264 
L 181.313275 210.252809 
L 184.916064 218.55346 
L 188.518853 224.313708 
L 192.121643 233.266637 
L 195.724432 239.827975 
L 199.327221 249.0607 
L 202.93001 256.779742 
L 206.5328 263.770859 
L 210.135589 266.041854 
L 213.738378 272.85242 
L 217.341167 278.848305 
L 220.943957 281.464439 
L 224.546746 286.144508 
L 228.149535 288.448422 
L 231.752324 288.903631 
L 235.355114 296.540203 
L 238.957903 298.238503 
L 242.560692 298.594387 
L 246.163481 297.734945 
L 249.766271 290.84226 
L 253.36906 287.848414 
L 256.971849 291.517477 
L 260.574638 290.410941 
L 264.177428 290.53184 
L 267.780217 288.828576 
L 271.383006 291.638218 
L 274.985795 299.163711 
L 278.588585 304.34314 
L 282.191374 302.499041 
L 285.794163 298.775484 
L 289.396952 295.647088 
L 292.999742 295.473555 
L 296.602531 293.872658 
L 300.20532 293.204216 
L 307.410899 290.16349 
L 311.013688 293.840929 
L 314.616477 295.107501 
L 318.219267 295.099656 
L 321.822056 297.926689 
L 325.424845 299.86241 
L 329.027634 300.231985 
L 332.630424 303.785013 
L 336.233213 306.054233 
L 339.836002 306.910244 
L 343.438791 306.758719 
L 347.041581 309.544691 
L 350.64437 307.850419 
L 354.247159 306.297553 
L 357.849948 305.220963 
L 361.452738 302.92939 
L 365.055527 298.107826 
L 368.658316 298.488725 
L 372.261105 292.079987 
L 375.863895 289.659174 
L 379.466684 292.018299 
L 383.069473 287.75534 
L 386.672262 288.948496 
L 390.275052 292.115103 
L 393.877841 292.436816 
L 397.48063 297.996736 
L 401.083419 295.489916 
L 404.686209 292.633426 
L 408.288998 296.817589 
L 411.891787 295.622605 
L 415.494576 292.735518 
L 419.097366 291.969577 
L 422.700155 287.810596 
L 426.302944 288.243653 
L 429.905733 290.426488 
L 433.508523 291.902914 
L 437.111312 292.1949 
L 440.714101 297.332188 
L 444.31689 299.939788 
L 447.91968 305.34058 
L 451.522469 311.457737 
L 455.125258 311.253667 
L 458.728048 312.774451 
L 462.330837 316.620207 
L 465.933626 317.900802 
L 469.536415 318.993671 
L 473.139205 315.197097 
L 476.741994 312.125089 
L 480.344783 311.056179 
L 483.947572 311.975431 
L 487.550362 306.745599 
L 491.153151 308.23259 
L 494.75594 308.418433 
L 498.358729 310.412394 
L 501.961519 312.61277 
L 505.564308 312.560218 
L 509.167097 305.445543 
L 512.769886 307.153068 
L 519.975465 298.533231 
L 523.578254 297.572172 
L 527.181043 297.224456 
L 530.783833 297.268366 
L 534.386622 302.329677 
L 537.989411 304.627764 
L 541.5922 306.332871 
L 545.19499 306.450024 
L 548.797779 303.928956 
L 552.400568 303.773035 
L 556.003357 301.862915 
L 559.606147 300.103984 
L 563.208936 292.138629 
L 566.811725 290.758564 
L 570.414514 294.030177 
L 574.017304 295.90623 
L 577.620093 293.597649 
L 581.222882 296.310748 
L 584.825671 296.679084 
L 588.428461 303.691353 
L 592.03125 305.766906 
L 595.634039 301.833777 
L 599.236829 300.590276 
L 602.839618 304.470176 
L 606.442407 304.982102 
L 610.045196 304.31156 
L 613.647986 302.749084 
L 617.250775 301.053443 
L 624.456353 306.852324 
L 628.059143 303.024197 
L 631.661932 302.821624 
L 631.661932 302.821624 
" style="fill:none;stroke:#008000;stroke-linecap:square;stroke-width:1.2;"/>
   </g>
   <g id="line2d_3">
    <path clip-path="url(#p453ac79ab9)" d="M 112.860279 68.297534 
L 116.463068 81.370173 
L 120.065857 92.305614 
L 123.668647 102.388088 
L 127.271436 114.000958 
L 130.874225 123.049425 
L 134.477014 131.690559 
L 138.079804 145.892217 
L 141.682593 156.571148 
L 145.285382 166.473169 
L 148.888171 173.857278 
L 152.490961 182.672473 
L 156.09375 192.345751 
L 159.696539 199.248327 
L 163.299329 204.733185 
L 166.902118 211.031079 
L 170.504907 220.916768 
L 174.107696 231.875442 
L 177.710486 239.794768 
L 181.313275 243.25341 
L 184.916064 252.184922 
L 192.121643 271.2757 
L 195.724432 274.311802 
L 199.327221 274.243207 
L 202.93001 280.460952 
L 206.5328 282.720477 
L 210.135589 287.232134 
L 213.738378 289.212648 
L 217.341167 290.34824 
L 220.943957 295.655557 
L 224.546746 301.903401 
L 228.149535 298.762293 
L 231.752324 302.878743 
L 235.355114 302.677413 
L 238.957903 300.64326 
L 242.560692 297.737292 
L 246.163481 296.018605 
L 249.766271 293.210693 
L 253.36906 293.321841 
L 256.971849 295.01888 
L 260.574638 294.08306 
L 264.177428 298.007549 
L 267.780217 298.840744 
L 271.383006 300.431624 
L 274.985795 302.743301 
L 278.588585 300.709299 
L 282.191374 296.367102 
L 285.794163 293.769718 
L 289.396952 292.911958 
L 292.999742 291.22318 
L 296.602531 288.145263 
L 300.20532 289.579317 
L 303.80811 292.154217 
L 307.410899 293.898952 
L 311.013688 293.297242 
L 314.616477 291.812141 
L 318.219267 295.001903 
L 321.822056 293.805783 
L 325.424845 288.861341 
L 329.027634 290.567428 
L 332.630424 292.659631 
L 336.233213 293.73978 
L 339.836002 293.638234 
L 343.438791 287.616701 
L 347.041581 287.044986 
L 350.64437 286.861708 
L 354.247159 285.106826 
L 357.849948 283.54253 
L 361.452738 280.620963 
L 365.055527 281.11083 
L 368.658316 285.515216 
L 372.261105 287.722244 
L 375.863895 290.733505 
L 379.466684 287.549592 
L 383.069473 286.3456 
L 386.672262 287.614649 
L 390.275052 284.895884 
L 393.877841 280.918902 
L 397.48063 275.926307 
L 401.083419 276.277301 
L 404.686209 281.959888 
L 408.288998 279.783759 
L 411.891787 282.649452 
L 415.494576 286.858796 
L 419.097366 293.928225 
L 422.700155 298.765912 
L 426.302944 292.844065 
L 429.905733 289.400928 
L 433.508523 289.60944 
L 437.111312 287.453176 
L 440.714101 282.992809 
L 444.31689 281.5804 
L 447.91968 277.863479 
L 451.522469 282.546465 
L 455.125258 284.767789 
L 458.728048 286.006684 
L 462.330837 286.910131 
L 465.933626 289.744586 
L 469.536415 289.861841 
L 473.139205 296.057889 
L 476.741994 300.066105 
L 480.344783 298.250088 
L 483.947572 301.593913 
L 487.550362 305.133978 
L 491.153151 303.021291 
L 494.75594 303.981897 
L 498.358729 302.914937 
L 501.961519 296.15804 
L 505.564308 296.893485 
L 509.167097 299.309961 
L 512.769886 297.212347 
L 516.372676 302.97743 
L 519.975465 302.884563 
L 523.578254 303.939133 
L 527.181043 305.540613 
L 530.783833 307.29311 
L 534.386622 303.36752 
L 537.989411 304.901479 
L 541.5922 302.522505 
L 545.19499 301.532827 
L 548.797779 298.975302 
L 552.400568 299.523254 
L 556.003357 299.87128 
L 559.606147 302.379829 
L 563.208936 301.177521 
L 566.811725 299.690312 
L 570.414514 301.115889 
L 574.017304 299.193234 
L 577.620093 298.991845 
L 581.222882 297.857287 
L 584.825671 296.542649 
L 588.428461 293.734924 
L 592.03125 288.563404 
L 595.634039 288.381792 
L 599.236829 290.534319 
L 602.839618 291.064764 
L 606.442407 289.437356 
L 610.045196 287.393925 
L 613.647986 289.109274 
L 617.250775 296.571249 
L 617.250775 296.571249 
" style="fill:none;stroke:#ff0000;stroke-linecap:square;stroke-width:1.2;"/>
   </g>
   <g id="line2d_4">
    <path clip-path="url(#p453ac79ab9)" d="M 112.860279 79.721995 
L 116.463068 90.893361 
L 120.065857 96.447582 
L 123.668647 103.814403 
L 127.271436 110.206528 
L 130.874225 115.342118 
L 134.477014 118.536109 
L 138.079804 125.436124 
L 141.682593 133.921121 
L 145.285382 143.441741 
L 152.490961 159.848096 
L 156.09375 170.556774 
L 159.696539 179.916243 
L 163.299329 190.708174 
L 166.902118 198.524296 
L 170.504907 208.132245 
L 174.107696 213.902412 
L 177.710486 220.834507 
L 181.313275 223.546719 
L 184.916064 233.028411 
L 188.518853 239.179885 
L 192.121643 240.873962 
L 195.724432 242.409203 
L 199.327221 249.170223 
L 202.93001 255.438665 
L 206.5328 260.712747 
L 210.135589 263.657171 
L 213.738378 266.416609 
L 217.341167 273.989712 
L 220.943957 278.295342 
L 224.546746 280.614082 
L 228.149535 281.785013 
L 231.752324 283.401334 
L 235.355114 285.601378 
L 238.957903 283.395853 
L 242.560692 282.893431 
L 246.163481 283.98612 
L 253.36906 288.388108 
L 256.971849 294.782072 
L 260.574638 297.630412 
L 264.177428 300.651842 
L 267.780217 304.847215 
L 271.383006 308.010033 
L 274.985795 309.079993 
L 278.588585 308.168829 
L 282.191374 304.733136 
L 285.794163 302.030979 
L 289.396952 304.938017 
L 292.999742 304.843198 
L 296.602531 305.936828 
L 300.20532 305.289663 
L 303.80811 307.02431 
L 307.410899 307.73955 
L 311.013688 305.879512 
L 314.616477 300.742791 
L 318.219267 299.142616 
L 321.822056 295.72658 
L 325.424845 295.160498 
L 329.027634 291.398916 
L 332.630424 293.480459 
L 336.233213 297.892508 
L 339.836002 302.669482 
L 343.438791 302.621008 
L 347.041581 304.490165 
L 350.64437 304.027428 
L 354.247159 307.180781 
L 357.849948 309.116194 
L 361.452738 304.43457 
L 365.055527 297.375219 
L 368.658316 298.037861 
L 372.261105 288.778087 
L 375.863895 287.351754 
L 379.466684 289.365957 
L 383.069473 282.534994 
L 386.672262 283.210932 
L 390.275052 291.268364 
L 393.877841 289.392839 
L 397.48063 301.256193 
L 401.083419 301.702797 
L 408.288998 299.775219 
L 411.891787 297.420019 
L 415.494576 296.515539 
L 419.097366 295.000096 
L 422.700155 283.965899 
L 426.302944 282.591265 
L 429.905733 273.677209 
L 433.508523 279.49445 
L 437.111312 281.566134 
L 440.714101 279.539097 
L 444.31689 282.793189 
L 447.91968 288.763712 
L 451.522469 293.374196 
L 455.125258 302.874134 
L 458.728048 301.101455 
L 462.330837 303.751853 
L 465.933626 303.904114 
L 469.536415 305.952178 
L 473.139205 309.982974 
L 476.741994 308.721362 
L 480.344783 306.939863 
L 483.947572 304.985329 
L 487.550362 306.834031 
L 491.153151 310.282621 
L 494.75594 309.262029 
L 498.358729 303.849655 
L 501.961519 296.71826 
L 505.564308 295.447133 
L 509.167097 299.677749 
L 512.769886 297.160713 
L 516.372676 295.260755 
L 519.975465 296.000475 
L 523.578254 300.11987 
L 527.181043 306.778232 
L 530.783833 308.444617 
L 537.989411 302.982305 
L 541.5922 305.162629 
L 545.19499 304.182804 
L 548.797779 301.714147 
L 552.400568 300.113016 
L 556.003357 298.670373 
L 559.606147 302.950719 
L 563.208936 306.440122 
L 566.811725 303.956542 
L 570.414514 299.878169 
L 574.017304 295.993238 
L 577.620093 294.01306 
L 581.222882 291.768231 
L 584.825671 288.494088 
L 588.428461 283.852024 
L 592.03125 278.469489 
L 595.634039 275.684314 
L 599.236829 280.159824 
L 602.839618 282.222873 
L 606.442407 281.941661 
L 610.045196 276.104822 
L 613.647986 281.284445 
L 617.250775 283.803856 
L 620.853564 288.113733 
L 624.456353 286.321137 
L 628.059143 285.173407 
L 631.661932 286.704554 
L 635.264721 293.931854 
L 635.264721 293.931854 
" style="fill:none;stroke:#00bfbf;stroke-linecap:square;stroke-width:1.2;"/>
   </g>
   <g id="patch_3">
    <path d="M 112.5 324 
L 112.5 36 
" style="fill:none;stroke:#000000;stroke-linecap:square;stroke-linejoin:miter;"/>
   </g>
   <g id="patch_4">
    <path d="M 635.625 324 
L 635.625 36 
" style="fill:none;stroke:#000000;stroke-linecap:square;stroke-linejoin:miter;"/>
   </g>
   <g id="patch_5">
    <path d="M 112.5 324 
L 635.625 324 
" style="fill:none;stroke:#000000;stroke-linecap:square;stroke-linejoin:miter;"/>
   </g>
   <g id="patch_6">
    <path d="M 112.5 36 
L 635.625 36 
" style="fill:none;stroke:#000000;stroke-linecap:square;stroke-linejoin:miter;"/>
   </g>
   <g id="matplotlib.axis_1">
    <g id="xtick_1">
     <g id="line2d_5">
      <defs>
       <path d="M 0 0 
L 0 -4 
" id="m158b3620e3" style="stroke:#000000;stroke-width:0.5;"/>
      </defs>
      <g>
       <use style="stroke:#000000;stroke-width:0.5;" x="112.860279" xlink:href="#m158b3620e3" y="324"/>
      </g>
     </g>
     <g id="line2d_6">
      <defs>
       <path d="M 0 0 
L 0 4 
" id="m602270f8bb" style="stroke:#000000;stroke-width:0.5;"/>
      </defs>
      <g>
       <use style="stroke:#000000;stroke-width:0.5;" x="112.860279" xlink:href="#m602270f8bb" y="36"/>
      </g>
     </g>
     <g id="text_1">
      <!-- 0 -->
      <defs>
       <path d="M 31.78125 66.40625 
Q 24.171875 66.40625 20.328125 58.90625 
Q 16.5 51.421875 16.5 36.375 
Q 16.5 21.390625 20.328125 13.890625 
Q 24.171875 6.390625 31.78125 6.390625 
Q 39.453125 6.390625 43.28125 13.890625 
Q 47.125 21.390625 47.125 36.375 
Q 47.125 51.421875 43.28125 58.90625 
Q 39.453125 66.40625 31.78125 66.40625 
z
M 31.78125 74.21875 
Q 44.046875 74.21875 50.515625 64.515625 
Q 56.984375 54.828125 56.984375 36.375 
Q 56.984375 17.96875 50.515625 8.265625 
Q 44.046875 -1.421875 31.78125 -1.421875 
Q 19.53125 -1.421875 13.0625 8.265625 
Q 6.59375 17.96875 6.59375 36.375 
Q 6.59375 54.828125 13.0625 64.515625 
Q 19.53125 74.21875 31.78125 74.21875 
z
" id="DejaVuSans-48"/>
      </defs>
      <g transform="translate(109.042779 337.118125)scale(0.12 -0.12)">
       <use xlink:href="#DejaVuSans-48"/>
      </g>
     </g>
    </g>
    <g id="xtick_2">
     <g id="line2d_7">
      <g>
       <use style="stroke:#000000;stroke-width:0.5;" x="166.902118" xlink:href="#m158b3620e3" y="324"/>
      </g>
     </g>
     <g id="line2d_8">
      <g>
       <use style="stroke:#000000;stroke-width:0.5;" x="166.902118" xlink:href="#m602270f8bb" y="36"/>
      </g>
     </g>
     <g id="text_2">
      <!-- 15 -->
      <defs>
       <path d="M 12.40625 8.296875 
L 28.515625 8.296875 
L 28.515625 63.921875 
L 10.984375 60.40625 
L 10.984375 69.390625 
L 28.421875 72.90625 
L 38.28125 72.90625 
L 38.28125 8.296875 
L 54.390625 8.296875 
L 54.390625 0 
L 12.40625 0 
z
" id="DejaVuSans-49"/>
       <path d="M 10.796875 72.90625 
L 49.515625 72.90625 
L 49.515625 64.59375 
L 19.828125 64.59375 
L 19.828125 46.734375 
Q 21.96875 47.46875 24.109375 47.828125 
Q 26.265625 48.1875 28.421875 48.1875 
Q 40.625 48.1875 47.75 41.5 
Q 54.890625 34.8125 54.890625 23.390625 
Q 54.890625 11.625 47.5625 5.09375 
Q 40.234375 -1.421875 26.90625 -1.421875 
Q 22.3125 -1.421875 17.546875 -0.640625 
Q 12.796875 0.140625 7.71875 1.703125 
L 7.71875 11.625 
Q 12.109375 9.234375 16.796875 8.0625 
Q 21.484375 6.890625 26.703125 6.890625 
Q 35.15625 6.890625 40.078125 11.328125 
Q 45.015625 15.765625 45.015625 23.390625 
Q 45.015625 31 40.078125 35.4375 
Q 35.15625 39.890625 26.703125 39.890625 
Q 22.75 39.890625 18.8125 39.015625 
Q 14.890625 38.140625 10.796875 36.28125 
z
" id="DejaVuSans-53"/>
      </defs>
      <g transform="translate(159.267118 337.118125)scale(0.12 -0.12)">
       <use xlink:href="#DejaVuSans-49"/>
       <use x="63.623047" xlink:href="#DejaVuSans-53"/>
      </g>
     </g>
    </g>
    <g id="xtick_3">
     <g id="line2d_9">
      <g>
       <use style="stroke:#000000;stroke-width:0.5;" x="220.943957" xlink:href="#m158b3620e3" y="324"/>
      </g>
     </g>
     <g id="line2d_10">
      <g>
       <use style="stroke:#000000;stroke-width:0.5;" x="220.943957" xlink:href="#m602270f8bb" y="36"/>
      </g>
     </g>
     <g id="text_3">
      <!-- 30 -->
      <defs>
       <path d="M 40.578125 39.3125 
Q 47.65625 37.796875 51.625 33 
Q 55.609375 28.21875 55.609375 21.1875 
Q 55.609375 10.40625 48.1875 4.484375 
Q 40.765625 -1.421875 27.09375 -1.421875 
Q 22.515625 -1.421875 17.65625 -0.515625 
Q 12.796875 0.390625 7.625 2.203125 
L 7.625 11.71875 
Q 11.71875 9.328125 16.59375 8.109375 
Q 21.484375 6.890625 26.8125 6.890625 
Q 36.078125 6.890625 40.9375 10.546875 
Q 45.796875 14.203125 45.796875 21.1875 
Q 45.796875 27.640625 41.28125 31.265625 
Q 36.765625 34.90625 28.71875 34.90625 
L 20.21875 34.90625 
L 20.21875 43.015625 
L 29.109375 43.015625 
Q 36.375 43.015625 40.234375 45.921875 
Q 44.09375 48.828125 44.09375 54.296875 
Q 44.09375 59.90625 40.109375 62.90625 
Q 36.140625 65.921875 28.71875 65.921875 
Q 24.65625 65.921875 20.015625 65.03125 
Q 15.375 64.15625 9.8125 62.3125 
L 9.8125 71.09375 
Q 15.4375 72.65625 20.34375 73.4375 
Q 25.25 74.21875 29.59375 74.21875 
Q 40.828125 74.21875 47.359375 69.109375 
Q 53.90625 64.015625 53.90625 55.328125 
Q 53.90625 49.265625 50.4375 45.09375 
Q 46.96875 40.921875 40.578125 39.3125 
z
" id="DejaVuSans-51"/>
      </defs>
      <g transform="translate(213.308957 337.118125)scale(0.12 -0.12)">
       <use xlink:href="#DejaVuSans-51"/>
       <use x="63.623047" xlink:href="#DejaVuSans-48"/>
      </g>
     </g>
    </g>
    <g id="xtick_4">
     <g id="line2d_11">
      <g>
       <use style="stroke:#000000;stroke-width:0.5;" x="274.985795" xlink:href="#m158b3620e3" y="324"/>
      </g>
     </g>
     <g id="line2d_12">
      <g>
       <use style="stroke:#000000;stroke-width:0.5;" x="274.985795" xlink:href="#m602270f8bb" y="36"/>
      </g>
     </g>
     <g id="text_4">
      <!-- 45 -->
      <defs>
       <path d="M 37.796875 64.3125 
L 12.890625 25.390625 
L 37.796875 25.390625 
z
M 35.203125 72.90625 
L 47.609375 72.90625 
L 47.609375 25.390625 
L 58.015625 25.390625 
L 58.015625 17.1875 
L 47.609375 17.1875 
L 47.609375 0 
L 37.796875 0 
L 37.796875 17.1875 
L 4.890625 17.1875 
L 4.890625 26.703125 
z
" id="DejaVuSans-52"/>
      </defs>
      <g transform="translate(267.350795 337.118125)scale(0.12 -0.12)">
       <use xlink:href="#DejaVuSans-52"/>
       <use x="63.623047" xlink:href="#DejaVuSans-53"/>
      </g>
     </g>
    </g>
    <g id="xtick_5">
     <g id="line2d_13">
      <g>
       <use style="stroke:#000000;stroke-width:0.5;" x="329.027634" xlink:href="#m158b3620e3" y="324"/>
      </g>
     </g>
     <g id="line2d_14">
      <g>
       <use style="stroke:#000000;stroke-width:0.5;" x="329.027634" xlink:href="#m602270f8bb" y="36"/>
      </g>
     </g>
     <g id="text_5">
      <!-- 60 -->
      <defs>
       <path d="M 33.015625 40.375 
Q 26.375 40.375 22.484375 35.828125 
Q 18.609375 31.296875 18.609375 23.390625 
Q 18.609375 15.53125 22.484375 10.953125 
Q 26.375 6.390625 33.015625 6.390625 
Q 39.65625 6.390625 43.53125 10.953125 
Q 47.40625 15.53125 47.40625 23.390625 
Q 47.40625 31.296875 43.53125 35.828125 
Q 39.65625 40.375 33.015625 40.375 
z
M 52.59375 71.296875 
L 52.59375 62.3125 
Q 48.875 64.0625 45.09375 64.984375 
Q 41.3125 65.921875 37.59375 65.921875 
Q 27.828125 65.921875 22.671875 59.328125 
Q 17.53125 52.734375 16.796875 39.40625 
Q 19.671875 43.65625 24.015625 45.921875 
Q 28.375 48.1875 33.59375 48.1875 
Q 44.578125 48.1875 50.953125 41.515625 
Q 57.328125 34.859375 57.328125 23.390625 
Q 57.328125 12.15625 50.6875 5.359375 
Q 44.046875 -1.421875 33.015625 -1.421875 
Q 20.359375 -1.421875 13.671875 8.265625 
Q 6.984375 17.96875 6.984375 36.375 
Q 6.984375 53.65625 15.1875 63.9375 
Q 23.390625 74.21875 37.203125 74.21875 
Q 40.921875 74.21875 44.703125 73.484375 
Q 48.484375 72.75 52.59375 71.296875 
z
" id="DejaVuSans-54"/>
      </defs>
      <g transform="translate(321.392634 337.118125)scale(0.12 -0.12)">
       <use xlink:href="#DejaVuSans-54"/>
       <use x="63.623047" xlink:href="#DejaVuSans-48"/>
      </g>
     </g>
    </g>
    <g id="xtick_6">
     <g id="line2d_15">
      <g>
       <use style="stroke:#000000;stroke-width:0.5;" x="383.069473" xlink:href="#m158b3620e3" y="324"/>
      </g>
     </g>
     <g id="line2d_16">
      <g>
       <use style="stroke:#000000;stroke-width:0.5;" x="383.069473" xlink:href="#m602270f8bb" y="36"/>
      </g>
     </g>
     <g id="text_6">
      <!-- 75 -->
      <defs>
       <path d="M 8.203125 72.90625 
L 55.078125 72.90625 
L 55.078125 68.703125 
L 28.609375 0 
L 18.3125 0 
L 43.21875 64.59375 
L 8.203125 64.59375 
z
" id="DejaVuSans-55"/>
      </defs>
      <g transform="translate(375.434473 337.118125)scale(0.12 -0.12)">
       <use xlink:href="#DejaVuSans-55"/>
       <use x="63.623047" xlink:href="#DejaVuSans-53"/>
      </g>
     </g>
    </g>
    <g id="xtick_7">
     <g id="line2d_17">
      <g>
       <use style="stroke:#000000;stroke-width:0.5;" x="437.111312" xlink:href="#m158b3620e3" y="324"/>
      </g>
     </g>
     <g id="line2d_18">
      <g>
       <use style="stroke:#000000;stroke-width:0.5;" x="437.111312" xlink:href="#m602270f8bb" y="36"/>
      </g>
     </g>
     <g id="text_7">
      <!-- 90 -->
      <defs>
       <path d="M 10.984375 1.515625 
L 10.984375 10.5 
Q 14.703125 8.734375 18.5 7.8125 
Q 22.3125 6.890625 25.984375 6.890625 
Q 35.75 6.890625 40.890625 13.453125 
Q 46.046875 20.015625 46.78125 33.40625 
Q 43.953125 29.203125 39.59375 26.953125 
Q 35.25 24.703125 29.984375 24.703125 
Q 19.046875 24.703125 12.671875 31.3125 
Q 6.296875 37.9375 6.296875 49.421875 
Q 6.296875 60.640625 12.9375 67.421875 
Q 19.578125 74.21875 30.609375 74.21875 
Q 43.265625 74.21875 49.921875 64.515625 
Q 56.59375 54.828125 56.59375 36.375 
Q 56.59375 19.140625 48.40625 8.859375 
Q 40.234375 -1.421875 26.421875 -1.421875 
Q 22.703125 -1.421875 18.890625 -0.6875 
Q 15.09375 0.046875 10.984375 1.515625 
z
M 30.609375 32.421875 
Q 37.25 32.421875 41.125 36.953125 
Q 45.015625 41.5 45.015625 49.421875 
Q 45.015625 57.28125 41.125 61.84375 
Q 37.25 66.40625 30.609375 66.40625 
Q 23.96875 66.40625 20.09375 61.84375 
Q 16.21875 57.28125 16.21875 49.421875 
Q 16.21875 41.5 20.09375 36.953125 
Q 23.96875 32.421875 30.609375 32.421875 
z
" id="DejaVuSans-57"/>
      </defs>
      <g transform="translate(429.476312 337.118125)scale(0.12 -0.12)">
       <use xlink:href="#DejaVuSans-57"/>
       <use x="63.623047" xlink:href="#DejaVuSans-48"/>
      </g>
     </g>
    </g>
    <g id="xtick_8">
     <g id="line2d_19">
      <g>
       <use style="stroke:#000000;stroke-width:0.5;" x="491.153151" xlink:href="#m158b3620e3" y="324"/>
      </g>
     </g>
     <g id="line2d_20">
      <g>
       <use style="stroke:#000000;stroke-width:0.5;" x="491.153151" xlink:href="#m602270f8bb" y="36"/>
      </g>
     </g>
     <g id="text_8">
      <!-- 105 -->
      <g transform="translate(479.700651 337.118125)scale(0.12 -0.12)">
       <use xlink:href="#DejaVuSans-49"/>
       <use x="63.623047" xlink:href="#DejaVuSans-48"/>
       <use x="127.246094" xlink:href="#DejaVuSans-53"/>
      </g>
     </g>
    </g>
    <g id="xtick_9">
     <g id="line2d_21">
      <g>
       <use style="stroke:#000000;stroke-width:0.5;" x="545.19499" xlink:href="#m158b3620e3" y="324"/>
      </g>
     </g>
     <g id="line2d_22">
      <g>
       <use style="stroke:#000000;stroke-width:0.5;" x="545.19499" xlink:href="#m602270f8bb" y="36"/>
      </g>
     </g>
     <g id="text_9">
      <!-- 120 -->
      <defs>
       <path d="M 19.1875 8.296875 
L 53.609375 8.296875 
L 53.609375 0 
L 7.328125 0 
L 7.328125 8.296875 
Q 12.9375 14.109375 22.625 23.890625 
Q 32.328125 33.6875 34.8125 36.53125 
Q 39.546875 41.84375 41.421875 45.53125 
Q 43.3125 49.21875 43.3125 52.78125 
Q 43.3125 58.59375 39.234375 62.25 
Q 35.15625 65.921875 28.609375 65.921875 
Q 23.96875 65.921875 18.8125 64.3125 
Q 13.671875 62.703125 7.8125 59.421875 
L 7.8125 69.390625 
Q 13.765625 71.78125 18.9375 73 
Q 24.125 74.21875 28.421875 74.21875 
Q 39.75 74.21875 46.484375 68.546875 
Q 53.21875 62.890625 53.21875 53.421875 
Q 53.21875 48.921875 51.53125 44.890625 
Q 49.859375 40.875 45.40625 35.40625 
Q 44.1875 33.984375 37.640625 27.21875 
Q 31.109375 20.453125 19.1875 8.296875 
z
" id="DejaVuSans-50"/>
      </defs>
      <g transform="translate(533.74249 337.118125)scale(0.12 -0.12)">
       <use xlink:href="#DejaVuSans-49"/>
       <use x="63.623047" xlink:href="#DejaVuSans-50"/>
       <use x="127.246094" xlink:href="#DejaVuSans-48"/>
      </g>
     </g>
    </g>
    <g id="xtick_10">
     <g id="line2d_23">
      <g>
       <use style="stroke:#000000;stroke-width:0.5;" x="599.236829" xlink:href="#m158b3620e3" y="324"/>
      </g>
     </g>
     <g id="line2d_24">
      <g>
       <use style="stroke:#000000;stroke-width:0.5;" x="599.236829" xlink:href="#m602270f8bb" y="36"/>
      </g>
     </g>
     <g id="text_10">
      <!-- 135 -->
      <g transform="translate(587.784329 337.118125)scale(0.12 -0.12)">
       <use xlink:href="#DejaVuSans-49"/>
       <use x="63.623047" xlink:href="#DejaVuSans-51"/>
       <use x="127.246094" xlink:href="#DejaVuSans-53"/>
      </g>
     </g>
    </g>
    <g id="text_11">
     <!-- generation -->
     <defs>
      <path d="M 45.40625 27.984375 
Q 45.40625 37.75 41.375 43.109375 
Q 37.359375 48.484375 30.078125 48.484375 
Q 22.859375 48.484375 18.828125 43.109375 
Q 14.796875 37.75 14.796875 27.984375 
Q 14.796875 18.265625 18.828125 12.890625 
Q 22.859375 7.515625 30.078125 7.515625 
Q 37.359375 7.515625 41.375 12.890625 
Q 45.40625 18.265625 45.40625 27.984375 
z
M 54.390625 6.78125 
Q 54.390625 -7.171875 48.1875 -13.984375 
Q 42 -20.796875 29.203125 -20.796875 
Q 24.46875 -20.796875 20.265625 -20.09375 
Q 16.0625 -19.390625 12.109375 -17.921875 
L 12.109375 -9.1875 
Q 16.0625 -11.328125 19.921875 -12.34375 
Q 23.78125 -13.375 27.78125 -13.375 
Q 36.625 -13.375 41.015625 -8.765625 
Q 45.40625 -4.15625 45.40625 5.171875 
L 45.40625 9.625 
Q 42.625 4.78125 38.28125 2.390625 
Q 33.9375 0 27.875 0 
Q 17.828125 0 11.671875 7.65625 
Q 5.515625 15.328125 5.515625 27.984375 
Q 5.515625 40.671875 11.671875 48.328125 
Q 17.828125 56 27.875 56 
Q 33.9375 56 38.28125 53.609375 
Q 42.625 51.21875 45.40625 46.390625 
L 45.40625 54.6875 
L 54.390625 54.6875 
z
" id="DejaVuSans-103"/>
      <path d="M 56.203125 29.59375 
L 56.203125 25.203125 
L 14.890625 25.203125 
Q 15.484375 15.921875 20.484375 11.0625 
Q 25.484375 6.203125 34.421875 6.203125 
Q 39.59375 6.203125 44.453125 7.46875 
Q 49.3125 8.734375 54.109375 11.28125 
L 54.109375 2.78125 
Q 49.265625 0.734375 44.1875 -0.34375 
Q 39.109375 -1.421875 33.890625 -1.421875 
Q 20.796875 -1.421875 13.15625 6.1875 
Q 5.515625 13.8125 5.515625 26.8125 
Q 5.515625 40.234375 12.765625 48.109375 
Q 20.015625 56 32.328125 56 
Q 43.359375 56 49.78125 48.890625 
Q 56.203125 41.796875 56.203125 29.59375 
z
M 47.21875 32.234375 
Q 47.125 39.59375 43.09375 43.984375 
Q 39.0625 48.390625 32.421875 48.390625 
Q 24.90625 48.390625 20.390625 44.140625 
Q 15.875 39.890625 15.1875 32.171875 
z
" id="DejaVuSans-101"/>
      <path d="M 54.890625 33.015625 
L 54.890625 0 
L 45.90625 0 
L 45.90625 32.71875 
Q 45.90625 40.484375 42.875 44.328125 
Q 39.84375 48.1875 33.796875 48.1875 
Q 26.515625 48.1875 22.3125 43.546875 
Q 18.109375 38.921875 18.109375 30.90625 
L 18.109375 0 
L 9.078125 0 
L 9.078125 54.6875 
L 18.109375 54.6875 
L 18.109375 46.1875 
Q 21.34375 51.125 25.703125 53.5625 
Q 30.078125 56 35.796875 56 
Q 45.21875 56 50.046875 50.171875 
Q 54.890625 44.34375 54.890625 33.015625 
z
" id="DejaVuSans-110"/>
      <path d="M 41.109375 46.296875 
Q 39.59375 47.171875 37.8125 47.578125 
Q 36.03125 48 33.890625 48 
Q 26.265625 48 22.1875 43.046875 
Q 18.109375 38.09375 18.109375 28.8125 
L 18.109375 0 
L 9.078125 0 
L 9.078125 54.6875 
L 18.109375 54.6875 
L 18.109375 46.1875 
Q 20.953125 51.171875 25.484375 53.578125 
Q 30.03125 56 36.53125 56 
Q 37.453125 56 38.578125 55.875 
Q 39.703125 55.765625 41.0625 55.515625 
z
" id="DejaVuSans-114"/>
      <path d="M 34.28125 27.484375 
Q 23.390625 27.484375 19.1875 25 
Q 14.984375 22.515625 14.984375 16.5 
Q 14.984375 11.71875 18.140625 8.90625 
Q 21.296875 6.109375 26.703125 6.109375 
Q 34.1875 6.109375 38.703125 11.40625 
Q 43.21875 16.703125 43.21875 25.484375 
L 43.21875 27.484375 
z
M 52.203125 31.203125 
L 52.203125 0 
L 43.21875 0 
L 43.21875 8.296875 
Q 40.140625 3.328125 35.546875 0.953125 
Q 30.953125 -1.421875 24.3125 -1.421875 
Q 15.921875 -1.421875 10.953125 3.296875 
Q 6 8.015625 6 15.921875 
Q 6 25.140625 12.171875 29.828125 
Q 18.359375 34.515625 30.609375 34.515625 
L 43.21875 34.515625 
L 43.21875 35.40625 
Q 43.21875 41.609375 39.140625 45 
Q 35.0625 48.390625 27.6875 48.390625 
Q 23 48.390625 18.546875 47.265625 
Q 14.109375 46.140625 10.015625 43.890625 
L 10.015625 52.203125 
Q 14.9375 54.109375 19.578125 55.046875 
Q 24.21875 56 28.609375 56 
Q 40.484375 56 46.34375 49.84375 
Q 52.203125 43.703125 52.203125 31.203125 
z
" id="DejaVuSans-97"/>
      <path d="M 18.3125 70.21875 
L 18.3125 54.6875 
L 36.8125 54.6875 
L 36.8125 47.703125 
L 18.3125 47.703125 
L 18.3125 18.015625 
Q 18.3125 11.328125 20.140625 9.421875 
Q 21.96875 7.515625 27.59375 7.515625 
L 36.8125 7.515625 
L 36.8125 0 
L 27.59375 0 
Q 17.1875 0 13.234375 3.875 
Q 9.28125 7.765625 9.28125 18.015625 
L 9.28125 47.703125 
L 2.6875 47.703125 
L 2.6875 54.6875 
L 9.28125 54.6875 
L 9.28125 70.21875 
z
" id="DejaVuSans-116"/>
      <path d="M 9.421875 54.6875 
L 18.40625 54.6875 
L 18.40625 0 
L 9.421875 0 
z
M 9.421875 75.984375 
L 18.40625 75.984375 
L 18.40625 64.59375 
L 9.421875 64.59375 
z
" id="DejaVuSans-105"/>
      <path d="M 30.609375 48.390625 
Q 23.390625 48.390625 19.1875 42.75 
Q 14.984375 37.109375 14.984375 27.296875 
Q 14.984375 17.484375 19.15625 11.84375 
Q 23.34375 6.203125 30.609375 6.203125 
Q 37.796875 6.203125 41.984375 11.859375 
Q 46.1875 17.53125 46.1875 27.296875 
Q 46.1875 37.015625 41.984375 42.703125 
Q 37.796875 48.390625 30.609375 48.390625 
z
M 30.609375 56 
Q 42.328125 56 49.015625 48.375 
Q 55.71875 40.765625 55.71875 27.296875 
Q 55.71875 13.875 49.015625 6.21875 
Q 42.328125 -1.421875 30.609375 -1.421875 
Q 18.84375 -1.421875 12.171875 6.21875 
Q 5.515625 13.875 5.515625 27.296875 
Q 5.515625 40.765625 12.171875 48.375 
Q 18.84375 56 30.609375 56 
z
" id="DejaVuSans-111"/>
     </defs>
     <g transform="translate(341.430938 353.731875)scale(0.12 -0.12)">
      <use xlink:href="#DejaVuSans-103"/>
      <use x="63.476562" xlink:href="#DejaVuSans-101"/>
      <use x="125" xlink:href="#DejaVuSans-110"/>
      <use x="188.378906" xlink:href="#DejaVuSans-101"/>
      <use x="249.902344" xlink:href="#DejaVuSans-114"/>
      <use x="291.015625" xlink:href="#DejaVuSans-97"/>
      <use x="352.294922" xlink:href="#DejaVuSans-116"/>
      <use x="391.503906" xlink:href="#DejaVuSans-105"/>
      <use x="419.287109" xlink:href="#DejaVuSans-111"/>
      <use x="480.46875" xlink:href="#DejaVuSans-110"/>
     </g>
    </g>
   </g>
   <g id="matplotlib.axis_2">
    <g id="ytick_1">
     <g id="line2d_25">
      <defs>
       <path d="M 0 0 
L 4 0 
" id="m24e5f981d3" style="stroke:#000000;stroke-width:0.5;"/>
      </defs>
      <g>
       <use style="stroke:#000000;stroke-width:0.5;" x="112.5" xlink:href="#m24e5f981d3" y="324"/>
      </g>
     </g>
     <g id="line2d_26">
      <defs>
       <path d="M 0 0 
L -4 0 
" id="m469560c2c4" style="stroke:#000000;stroke-width:0.5;"/>
      </defs>
      <g>
       <use style="stroke:#000000;stroke-width:0.5;" x="635.625" xlink:href="#m469560c2c4" y="324"/>
      </g>
     </g>
     <g id="text_12">
      <!-- 0.18 -->
      <defs>
       <path d="M 10.6875 12.40625 
L 21 12.40625 
L 21 0 
L 10.6875 0 
z
" id="DejaVuSans-46"/>
       <path d="M 31.78125 34.625 
Q 24.75 34.625 20.71875 30.859375 
Q 16.703125 27.09375 16.703125 20.515625 
Q 16.703125 13.921875 20.71875 10.15625 
Q 24.75 6.390625 31.78125 6.390625 
Q 38.8125 6.390625 42.859375 10.171875 
Q 46.921875 13.96875 46.921875 20.515625 
Q 46.921875 27.09375 42.890625 30.859375 
Q 38.875 34.625 31.78125 34.625 
z
M 21.921875 38.8125 
Q 15.578125 40.375 12.03125 44.71875 
Q 8.5 49.078125 8.5 55.328125 
Q 8.5 64.0625 14.71875 69.140625 
Q 20.953125 74.21875 31.78125 74.21875 
Q 42.671875 74.21875 48.875 69.140625 
Q 55.078125 64.0625 55.078125 55.328125 
Q 55.078125 49.078125 51.53125 44.71875 
Q 48 40.375 41.703125 38.8125 
Q 48.828125 37.15625 52.796875 32.3125 
Q 56.78125 27.484375 56.78125 20.515625 
Q 56.78125 9.90625 50.3125 4.234375 
Q 43.84375 -1.421875 31.78125 -1.421875 
Q 19.734375 -1.421875 13.25 4.234375 
Q 6.78125 9.90625 6.78125 20.515625 
Q 6.78125 27.484375 10.78125 32.3125 
Q 14.796875 37.15625 21.921875 38.8125 
z
M 18.3125 54.390625 
Q 18.3125 48.734375 21.84375 45.5625 
Q 25.390625 42.390625 31.78125 42.390625 
Q 38.140625 42.390625 41.71875 45.5625 
Q 45.3125 48.734375 45.3125 54.390625 
Q 45.3125 60.0625 41.71875 63.234375 
Q 38.140625 66.40625 31.78125 66.40625 
Q 25.390625 66.40625 21.84375 63.234375 
Q 18.3125 60.0625 18.3125 54.390625 
z
" id="DejaVuSans-56"/>
      </defs>
      <g transform="translate(81.78125 327.31125)scale(0.12 -0.12)">
       <use xlink:href="#DejaVuSans-48"/>
       <use x="63.623047" xlink:href="#DejaVuSans-46"/>
       <use x="95.410156" xlink:href="#DejaVuSans-49"/>
       <use x="159.033203" xlink:href="#DejaVuSans-56"/>
      </g>
     </g>
    </g>
    <g id="ytick_2">
     <g id="line2d_27">
      <g>
       <use style="stroke:#000000;stroke-width:0.5;" x="112.5" xlink:href="#m24e5f981d3" y="276"/>
      </g>
     </g>
     <g id="line2d_28">
      <g>
       <use style="stroke:#000000;stroke-width:0.5;" x="635.625" xlink:href="#m469560c2c4" y="276"/>
      </g>
     </g>
     <g id="text_13">
      <!-- 0.20 -->
      <g transform="translate(81.78125 279.31125)scale(0.12 -0.12)">
       <use xlink:href="#DejaVuSans-48"/>
       <use x="63.623047" xlink:href="#DejaVuSans-46"/>
       <use x="95.410156" xlink:href="#DejaVuSans-50"/>
       <use x="159.033203" xlink:href="#DejaVuSans-48"/>
      </g>
     </g>
    </g>
    <g id="ytick_3">
     <g id="line2d_29">
      <g>
       <use style="stroke:#000000;stroke-width:0.5;" x="112.5" xlink:href="#m24e5f981d3" y="228"/>
      </g>
     </g>
     <g id="line2d_30">
      <g>
       <use style="stroke:#000000;stroke-width:0.5;" x="635.625" xlink:href="#m469560c2c4" y="228"/>
      </g>
     </g>
     <g id="text_14">
      <!-- 0.22 -->
      <g transform="translate(81.78125 231.31125)scale(0.12 -0.12)">
       <use xlink:href="#DejaVuSans-48"/>
       <use x="63.623047" xlink:href="#DejaVuSans-46"/>
       <use x="95.410156" xlink:href="#DejaVuSans-50"/>
       <use x="159.033203" xlink:href="#DejaVuSans-50"/>
      </g>
     </g>
    </g>
    <g id="ytick_4">
     <g id="line2d_31">
      <g>
       <use style="stroke:#000000;stroke-width:0.5;" x="112.5" xlink:href="#m24e5f981d3" y="180"/>
      </g>
     </g>
     <g id="line2d_32">
      <g>
       <use style="stroke:#000000;stroke-width:0.5;" x="635.625" xlink:href="#m469560c2c4" y="180"/>
      </g>
     </g>
     <g id="text_15">
      <!-- 0.24 -->
      <g transform="translate(81.78125 183.31125)scale(0.12 -0.12)">
       <use xlink:href="#DejaVuSans-48"/>
       <use x="63.623047" xlink:href="#DejaVuSans-46"/>
       <use x="95.410156" xlink:href="#DejaVuSans-50"/>
       <use x="159.033203" xlink:href="#DejaVuSans-52"/>
      </g>
     </g>
    </g>
    <g id="ytick_5">
     <g id="line2d_33">
      <g>
       <use style="stroke:#000000;stroke-width:0.5;" x="112.5" xlink:href="#m24e5f981d3" y="132"/>
      </g>
     </g>
     <g id="line2d_34">
      <g>
       <use style="stroke:#000000;stroke-width:0.5;" x="635.625" xlink:href="#m469560c2c4" y="132"/>
      </g>
     </g>
     <g id="text_16">
      <!-- 0.26 -->
      <g transform="translate(81.78125 135.31125)scale(0.12 -0.12)">
       <use xlink:href="#DejaVuSans-48"/>
       <use x="63.623047" xlink:href="#DejaVuSans-46"/>
       <use x="95.410156" xlink:href="#DejaVuSans-50"/>
       <use x="159.033203" xlink:href="#DejaVuSans-54"/>
      </g>
     </g>
    </g>
    <g id="ytick_6">
     <g id="line2d_35">
      <g>
       <use style="stroke:#000000;stroke-width:0.5;" x="112.5" xlink:href="#m24e5f981d3" y="84"/>
      </g>
     </g>
     <g id="line2d_36">
      <g>
       <use style="stroke:#000000;stroke-width:0.5;" x="635.625" xlink:href="#m469560c2c4" y="84"/>
      </g>
     </g>
     <g id="text_17">
      <!-- 0.28 -->
      <g transform="translate(81.78125 87.31125)scale(0.12 -0.12)">
       <use xlink:href="#DejaVuSans-48"/>
       <use x="63.623047" xlink:href="#DejaVuSans-46"/>
       <use x="95.410156" xlink:href="#DejaVuSans-50"/>
       <use x="159.033203" xlink:href="#DejaVuSans-56"/>
      </g>
     </g>
    </g>
    <g id="ytick_7">
     <g id="line2d_37">
      <g>
       <use style="stroke:#000000;stroke-width:0.5;" x="112.5" xlink:href="#m24e5f981d3" y="36"/>
      </g>
     </g>
     <g id="line2d_38">
      <g>
       <use style="stroke:#000000;stroke-width:0.5;" x="635.625" xlink:href="#m469560c2c4" y="36"/>
      </g>
     </g>
     <g id="text_18">
      <!-- 0.30 -->
      <g transform="translate(81.78125 39.31125)scale(0.12 -0.12)">
       <use xlink:href="#DejaVuSans-48"/>
       <use x="63.623047" xlink:href="#DejaVuSans-46"/>
       <use x="95.410156" xlink:href="#DejaVuSans-51"/>
       <use x="159.033203" xlink:href="#DejaVuSans-48"/>
      </g>
     </g>
    </g>
    <g id="text_19">
     <!-- los -->
     <defs>
      <path d="M 9.421875 75.984375 
L 18.40625 75.984375 
L 18.40625 0 
L 9.421875 0 
z
" id="DejaVuSans-108"/>
      <path d="M 44.28125 53.078125 
L 44.28125 44.578125 
Q 40.484375 46.53125 36.375 47.5 
Q 32.28125 48.484375 27.875 48.484375 
Q 21.1875 48.484375 17.84375 46.4375 
Q 14.5 44.390625 14.5 40.28125 
Q 14.5 37.15625 16.890625 35.375 
Q 19.28125 33.59375 26.515625 31.984375 
L 29.59375 31.296875 
Q 39.15625 29.25 43.1875 25.515625 
Q 47.21875 21.78125 47.21875 15.09375 
Q 47.21875 7.46875 41.1875 3.015625 
Q 35.15625 -1.421875 24.609375 -1.421875 
Q 20.21875 -1.421875 15.453125 -0.5625 
Q 10.6875 0.296875 5.421875 2 
L 5.421875 11.28125 
Q 10.40625 8.6875 15.234375 7.390625 
Q 20.0625 6.109375 24.8125 6.109375 
Q 31.15625 6.109375 34.5625 8.28125 
Q 37.984375 10.453125 37.984375 14.40625 
Q 37.984375 18.0625 35.515625 20.015625 
Q 33.0625 21.96875 24.703125 23.78125 
L 21.578125 24.515625 
Q 13.234375 26.265625 9.515625 29.90625 
Q 5.8125 33.546875 5.8125 39.890625 
Q 5.8125 47.609375 11.28125 51.796875 
Q 16.75 56 26.8125 56 
Q 31.78125 56 36.171875 55.265625 
Q 40.578125 54.546875 44.28125 53.078125 
z
" id="DejaVuSans-115"/>
     </defs>
     <g transform="translate(74.285625 188.46375)rotate(-90)scale(0.12 -0.12)">
      <use xlink:href="#DejaVuSans-108"/>
      <use x="27.783203" xlink:href="#DejaVuSans-111"/>
      <use x="88.964844" xlink:href="#DejaVuSans-115"/>
     </g>
    </g>
   </g>
   <g id="legend_1">
    <g id="patch_7">
     <path d="M 640.623 211.399935 
L 792.873013 211.399935 
L 792.873013 148.600065 
L 640.623 148.600065 
z
" style="fill:#ffffff;stroke:#000000;stroke-linejoin:miter;"/>
    </g>
    <g id="line2d_39">
     <path d="M 647.6202 156.695263 
L 661.6146 156.695263 
" style="fill:none;stroke:#0000ff;stroke-linecap:square;stroke-width:1.2;"/>
    </g>
    <g id="line2d_40"/>
    <g id="text_20">
     <!-- Lonely_Los_Exp_Loss_2 -->
     <defs>
      <path d="M 9.8125 72.90625 
L 19.671875 72.90625 
L 19.671875 8.296875 
L 55.171875 8.296875 
L 55.171875 0 
L 9.8125 0 
z
" id="DejaVuSans-76"/>
      <path d="M 32.171875 -5.078125 
Q 28.375 -14.84375 24.75 -17.8125 
Q 21.140625 -20.796875 15.09375 -20.796875 
L 7.90625 -20.796875 
L 7.90625 -13.28125 
L 13.1875 -13.28125 
Q 16.890625 -13.28125 18.9375 -11.515625 
Q 21 -9.765625 23.484375 -3.21875 
L 25.09375 0.875 
L 2.984375 54.6875 
L 12.5 54.6875 
L 29.59375 11.921875 
L 46.6875 54.6875 
L 56.203125 54.6875 
z
" id="DejaVuSans-121"/>
      <path d="M 50.984375 -16.609375 
L 50.984375 -23.578125 
L -0.984375 -23.578125 
L -0.984375 -16.609375 
z
" id="DejaVuSans-95"/>
      <path d="M 9.8125 72.90625 
L 55.90625 72.90625 
L 55.90625 64.59375 
L 19.671875 64.59375 
L 19.671875 43.015625 
L 54.390625 43.015625 
L 54.390625 34.71875 
L 19.671875 34.71875 
L 19.671875 8.296875 
L 56.78125 8.296875 
L 56.78125 0 
L 9.8125 0 
z
" id="DejaVuSans-69"/>
      <path d="M 54.890625 54.6875 
L 35.109375 28.078125 
L 55.90625 0 
L 45.3125 0 
L 29.390625 21.484375 
L 13.484375 0 
L 2.875 0 
L 24.125 28.609375 
L 4.6875 54.6875 
L 15.28125 54.6875 
L 29.78125 35.203125 
L 44.28125 54.6875 
z
" id="DejaVuSans-120"/>
      <path d="M 18.109375 8.203125 
L 18.109375 -20.796875 
L 9.078125 -20.796875 
L 9.078125 54.6875 
L 18.109375 54.6875 
L 18.109375 46.390625 
Q 20.953125 51.265625 25.265625 53.625 
Q 29.59375 56 35.59375 56 
Q 45.5625 56 51.78125 48.09375 
Q 58.015625 40.1875 58.015625 27.296875 
Q 58.015625 14.40625 51.78125 6.484375 
Q 45.5625 -1.421875 35.59375 -1.421875 
Q 29.59375 -1.421875 25.265625 0.953125 
Q 20.953125 3.328125 18.109375 8.203125 
z
M 48.6875 27.296875 
Q 48.6875 37.203125 44.609375 42.84375 
Q 40.53125 48.484375 33.40625 48.484375 
Q 26.265625 48.484375 22.1875 42.84375 
Q 18.109375 37.203125 18.109375 27.296875 
Q 18.109375 17.390625 22.1875 11.75 
Q 26.265625 6.109375 33.40625 6.109375 
Q 40.53125 6.109375 44.609375 11.75 
Q 48.6875 17.390625 48.6875 27.296875 
z
" id="DejaVuSans-112"/>
     </defs>
     <g transform="translate(672.6102 160.193863)scale(0.09996 -0.09996)">
      <use xlink:href="#DejaVuSans-76"/>
      <use x="53.962891" xlink:href="#DejaVuSans-111"/>
      <use x="115.144531" xlink:href="#DejaVuSans-110"/>
      <use x="178.523438" xlink:href="#DejaVuSans-101"/>
      <use x="240.046875" xlink:href="#DejaVuSans-108"/>
      <use x="267.830078" xlink:href="#DejaVuSans-121"/>
      <use x="327.009766" xlink:href="#DejaVuSans-95"/>
      <use x="377.009766" xlink:href="#DejaVuSans-76"/>
      <use x="430.972656" xlink:href="#DejaVuSans-111"/>
      <use x="492.154297" xlink:href="#DejaVuSans-115"/>
      <use x="544.253906" xlink:href="#DejaVuSans-95"/>
      <use x="594.253906" xlink:href="#DejaVuSans-69"/>
      <use x="657.4375" xlink:href="#DejaVuSans-120"/>
      <use x="716.617188" xlink:href="#DejaVuSans-112"/>
      <use x="780.09375" xlink:href="#DejaVuSans-95"/>
      <use x="830.09375" xlink:href="#DejaVuSans-76"/>
      <use x="884.056641" xlink:href="#DejaVuSans-111"/>
      <use x="945.238281" xlink:href="#DejaVuSans-115"/>
      <use x="997.337891" xlink:href="#DejaVuSans-115"/>
      <use x="1049.4375" xlink:href="#DejaVuSans-95"/>
      <use x="1099.4375" xlink:href="#DejaVuSans-50"/>
     </g>
    </g>
    <g id="line2d_41">
     <path d="M 647.6202 171.645531 
L 661.6146 171.645531 
" style="fill:none;stroke:#008000;stroke-linecap:square;stroke-width:1.2;"/>
    </g>
    <g id="line2d_42"/>
    <g id="text_21">
     <!-- Lonely_Los_Exp_Loss_3 -->
     <g transform="translate(672.6102 175.144131)scale(0.09996 -0.09996)">
      <use xlink:href="#DejaVuSans-76"/>
      <use x="53.962891" xlink:href="#DejaVuSans-111"/>
      <use x="115.144531" xlink:href="#DejaVuSans-110"/>
      <use x="178.523438" xlink:href="#DejaVuSans-101"/>
      <use x="240.046875" xlink:href="#DejaVuSans-108"/>
      <use x="267.830078" xlink:href="#DejaVuSans-121"/>
      <use x="327.009766" xlink:href="#DejaVuSans-95"/>
      <use x="377.009766" xlink:href="#DejaVuSans-76"/>
      <use x="430.972656" xlink:href="#DejaVuSans-111"/>
      <use x="492.154297" xlink:href="#DejaVuSans-115"/>
      <use x="544.253906" xlink:href="#DejaVuSans-95"/>
      <use x="594.253906" xlink:href="#DejaVuSans-69"/>
      <use x="657.4375" xlink:href="#DejaVuSans-120"/>
      <use x="716.617188" xlink:href="#DejaVuSans-112"/>
      <use x="780.09375" xlink:href="#DejaVuSans-95"/>
      <use x="830.09375" xlink:href="#DejaVuSans-76"/>
      <use x="884.056641" xlink:href="#DejaVuSans-111"/>
      <use x="945.238281" xlink:href="#DejaVuSans-115"/>
      <use x="997.337891" xlink:href="#DejaVuSans-115"/>
      <use x="1049.4375" xlink:href="#DejaVuSans-95"/>
      <use x="1099.4375" xlink:href="#DejaVuSans-51"/>
     </g>
    </g>
    <g id="line2d_43">
     <path d="M 647.6202 186.595798 
L 661.6146 186.595798 
" style="fill:none;stroke:#ff0000;stroke-linecap:square;stroke-width:1.2;"/>
    </g>
    <g id="line2d_44"/>
    <g id="text_22">
     <!-- Lonely_Los_Exp_Loss_4 -->
     <g transform="translate(672.6102 190.094398)scale(0.09996 -0.09996)">
      <use xlink:href="#DejaVuSans-76"/>
      <use x="53.962891" xlink:href="#DejaVuSans-111"/>
      <use x="115.144531" xlink:href="#DejaVuSans-110"/>
      <use x="178.523438" xlink:href="#DejaVuSans-101"/>
      <use x="240.046875" xlink:href="#DejaVuSans-108"/>
      <use x="267.830078" xlink:href="#DejaVuSans-121"/>
      <use x="327.009766" xlink:href="#DejaVuSans-95"/>
      <use x="377.009766" xlink:href="#DejaVuSans-76"/>
      <use x="430.972656" xlink:href="#DejaVuSans-111"/>
      <use x="492.154297" xlink:href="#DejaVuSans-115"/>
      <use x="544.253906" xlink:href="#DejaVuSans-95"/>
      <use x="594.253906" xlink:href="#DejaVuSans-69"/>
      <use x="657.4375" xlink:href="#DejaVuSans-120"/>
      <use x="716.617188" xlink:href="#DejaVuSans-112"/>
      <use x="780.09375" xlink:href="#DejaVuSans-95"/>
      <use x="830.09375" xlink:href="#DejaVuSans-76"/>
      <use x="884.056641" xlink:href="#DejaVuSans-111"/>
      <use x="945.238281" xlink:href="#DejaVuSans-115"/>
      <use x="997.337891" xlink:href="#DejaVuSans-115"/>
      <use x="1049.4375" xlink:href="#DejaVuSans-95"/>
      <use x="1099.4375" xlink:href="#DejaVuSans-52"/>
     </g>
    </g>
    <g id="line2d_45">
     <path d="M 647.6202 201.546066 
L 661.6146 201.546066 
" style="fill:none;stroke:#00bfbf;stroke-linecap:square;stroke-width:1.2;"/>
    </g>
    <g id="line2d_46"/>
    <g id="text_23">
     <!-- Lonely_Los_Exp_Loss_5 -->
     <g transform="translate(672.6102 205.044666)scale(0.09996 -0.09996)">
      <use xlink:href="#DejaVuSans-76"/>
      <use x="53.962891" xlink:href="#DejaVuSans-111"/>
      <use x="115.144531" xlink:href="#DejaVuSans-110"/>
      <use x="178.523438" xlink:href="#DejaVuSans-101"/>
      <use x="240.046875" xlink:href="#DejaVuSans-108"/>
      <use x="267.830078" xlink:href="#DejaVuSans-121"/>
      <use x="327.009766" xlink:href="#DejaVuSans-95"/>
      <use x="377.009766" xlink:href="#DejaVuSans-76"/>
      <use x="430.972656" xlink:href="#DejaVuSans-111"/>
      <use x="492.154297" xlink:href="#DejaVuSans-115"/>
      <use x="544.253906" xlink:href="#DejaVuSans-95"/>
      <use x="594.253906" xlink:href="#DejaVuSans-69"/>
      <use x="657.4375" xlink:href="#DejaVuSans-120"/>
      <use x="716.617188" xlink:href="#DejaVuSans-112"/>
      <use x="780.09375" xlink:href="#DejaVuSans-95"/>
      <use x="830.09375" xlink:href="#DejaVuSans-76"/>
      <use x="884.056641" xlink:href="#DejaVuSans-111"/>
      <use x="945.238281" xlink:href="#DejaVuSans-115"/>
      <use x="997.337891" xlink:href="#DejaVuSans-115"/>
      <use x="1049.4375" xlink:href="#DejaVuSans-95"/>
      <use x="1099.4375" xlink:href="#DejaVuSans-53"/>
     </g>
    </g>
   </g>
  </g>
  <g id="text_24">
   <!-- Average Loss -->
   <defs>
    <path d="M 34.1875 63.1875 
L 20.796875 26.90625 
L 47.609375 26.90625 
z
M 28.609375 72.90625 
L 39.796875 72.90625 
L 67.578125 0 
L 57.328125 0 
L 50.6875 18.703125 
L 17.828125 18.703125 
L 11.1875 0 
L 0.78125 0 
z
" id="DejaVuSans-65"/>
    <path d="M 2.984375 54.6875 
L 12.5 54.6875 
L 29.59375 8.796875 
L 46.6875 54.6875 
L 56.203125 54.6875 
L 35.6875 0 
L 23.484375 0 
z
" id="DejaVuSans-118"/>
    <path id="DejaVuSans-32"/>
   </defs>
   <g transform="translate(410.293125 16.318125)scale(0.12 -0.12)">
    <use xlink:href="#DejaVuSans-65"/>
    <use x="62.533203" xlink:href="#DejaVuSans-118"/>
    <use x="121.712891" xlink:href="#DejaVuSans-101"/>
    <use x="183.236328" xlink:href="#DejaVuSans-114"/>
    <use x="224.349609" xlink:href="#DejaVuSans-97"/>
    <use x="285.628906" xlink:href="#DejaVuSans-103"/>
    <use x="349.105469" xlink:href="#DejaVuSans-101"/>
    <use x="410.628906" xlink:href="#DejaVuSans-32"/>
    <use x="442.416016" xlink:href="#DejaVuSans-76"/>
    <use x="496.378906" xlink:href="#DejaVuSans-111"/>
    <use x="557.560547" xlink:href="#DejaVuSans-115"/>
    <use x="609.660156" xlink:href="#DejaVuSans-115"/>
   </g>
  </g>
 </g>
 <defs>
  <clipPath id="p453ac79ab9">
   <rect height="288" width="523.125" x="112.5" y="36"/>
  </clipPath>
 </defs>
</svg>
