<?xml version="1.0" encoding="utf-8" standalone="no"?>
<!DOCTYPE svg PUBLIC "-//W3C//DTD SVG 1.1//EN"
  "http://www.w3.org/Graphics/SVG/1.1/DTD/svg11.dtd">
<!-- Created with matplotlib (https://matplotlib.org/) -->
<svg height="360pt" version="1.1" viewBox="0 0 900 360" width="900pt" xmlns="http://www.w3.org/2000/svg" xmlns:xlink="http://www.w3.org/1999/xlink">
 <defs>
  <style type="text/css">
*{stroke-linecap:butt;stroke-linejoin:round;}
  </style>
 </defs>
 <g id="figure_1">
  <g id="patch_1">
   <path d="M 0 360 
L 900 360 
L 900 0 
L 0 0 
z
" style="fill:#ffffff;"/>
  </g>
  <g id="axes_1">
   <g id="patch_2">
    <path d="M 112.5 324 
L 635.625 324 
L 635.625 36 
L 112.5 36 
z
" style="fill:#ffffff;"/>
   </g>
   <g id="line2d_1">
    <path clip-path="url(#p74e91a0ad8)" d="M 112.793561 192.800002 
L 115.729167 183.200002 
L 118.664773 200.799998 
L 121.600379 180 
L 124.535985 188.000002 
L 127.471591 176.799998 
L 130.407197 194.4 
L 133.342803 165.6 
L 136.278409 168.800002 
L 139.214015 170.4 
L 142.149621 138.399998 
L 145.085227 165.6 
L 148.020833 170.4 
L 150.956439 147.999998 
L 153.892045 132 
L 156.827652 151.2 
L 159.763258 152.799998 
L 162.698864 164.000002 
L 165.63447 162.399998 
L 168.570076 141.6 
L 171.505682 143.199998 
L 174.441288 140.000002 
L 177.376894 144.800002 
L 180.3125 144.800002 
L 183.248106 151.2 
L 186.183712 135.200002 
L 189.119318 143.199998 
L 192.054924 117.6 
L 194.99053 125.600002 
L 197.926136 132 
L 200.861742 122.4 
L 203.797348 136.8 
L 206.732955 156 
L 209.668561 146.4 
L 212.604167 151.2 
L 215.539773 132 
L 218.475379 123.999998 
L 221.410985 130.400002 
L 224.346591 154.400002 
L 227.282197 128.799998 
L 230.217803 146.4 
L 233.153409 167.199998 
L 236.089015 128.799998 
L 239.024621 135.200002 
L 241.960227 167.199998 
L 244.895833 144.800002 
L 247.831439 136.8 
L 250.767045 130.400002 
L 253.702652 128.799998 
L 256.638258 149.600002 
L 259.573864 111.200002 
L 262.50947 127.2 
L 265.445076 122.4 
L 268.380682 103.2 
L 271.316288 112.8 
L 274.251894 98.4 
L 277.1875 127.2 
L 280.123106 147.999998 
L 283.058712 122.4 
L 285.994318 152.799998 
L 288.929924 108 
L 291.86553 125.600002 
L 294.801136 119.199998 
L 297.736742 128.799998 
L 300.672348 120.800002 
L 303.607955 109.599998 
L 306.543561 117.6 
L 309.479167 101.600002 
L 312.414773 99.999998 
L 315.350379 96.800002 
L 318.285985 88.8 
L 321.221591 116.000002 
L 324.157197 104.799998 
L 327.092803 103.2 
L 330.028409 117.6 
L 332.964015 116.000002 
L 335.899621 112.8 
L 338.835227 123.999998 
L 341.770833 133.599998 
L 344.706439 122.4 
L 347.642045 140.000002 
L 350.577652 143.199998 
L 353.513258 119.199998 
L 356.448864 109.599998 
L 359.38447 87.200002 
L 362.320076 112.8 
L 365.255682 82.400002 
L 368.191288 108 
L 371.126894 55.2 
L 374.0625 99.999998 
L 376.998106 114.399998 
L 379.933712 104.799998 
L 382.869318 106.400002 
L 385.804924 120.800002 
L 388.74053 87.200002 
L 391.676136 98.4 
L 394.611742 112.8 
L 397.547348 101.600002 
L 400.482955 101.600002 
L 403.418561 95.199998 
L 406.354167 92.000002 
L 409.289773 99.999998 
L 412.225379 95.199998 
L 415.160985 82.400002 
L 418.096591 95.199998 
L 421.032197 87.200002 
L 423.967803 90.399998 
L 426.903409 68.000002 
L 429.839015 90.399998 
L 432.774621 77.600002 
L 435.710227 74.4 
L 438.645833 77.600002 
L 441.581439 77.600002 
L 444.517045 92.000002 
L 447.452652 80.799998 
L 450.388258 77.600002 
L 453.323864 72.800002 
L 456.25947 66.399998 
L 459.195076 63.200002 
L 462.130682 84 
L 465.066288 68.000002 
L 468.001894 56.799998 
L 470.9375 71.199998 
L 473.873106 98.4 
L 476.808712 72.800002 
L 479.744318 56.799998 
L 482.679924 82.400002 
L 488.551136 53.600002 
L 491.486742 98.4 
L 494.422348 77.600002 
L 497.357955 95.199998 
L 500.293561 98.4 
L 503.229167 96.800002 
L 506.164773 80.799998 
L 509.100379 60 
L 512.035985 71.199998 
L 514.971591 85.599998 
L 517.907197 74.4 
L 520.842803 120.800002 
L 523.778409 61.599998 
L 526.714015 69.6 
L 529.649621 74.4 
L 532.585227 92.000002 
L 535.520833 93.6 
L 538.456439 88.8 
L 541.392045 92.000002 
L 544.327652 61.599998 
L 547.263258 66.399998 
L 553.13447 82.400002 
L 556.070076 74.4 
L 559.005682 72.800002 
L 561.941288 85.599998 
L 564.876894 71.199998 
L 567.8125 79.2 
L 570.748106 95.199998 
L 573.683712 92.000002 
L 576.619318 71.199998 
L 579.554924 88.8 
L 582.49053 101.600002 
L 585.426136 66.399998 
L 588.361742 79.2 
L 591.297348 75.999998 
L 594.232955 68.000002 
L 597.168561 71.199998 
L 600.104167 45.6 
L 603.039773 50.4 
L 605.975379 79.2 
L 608.910985 93.6 
L 611.846591 87.200002 
L 614.782197 84 
L 617.717803 84 
L 620.653409 90.399998 
L 623.589015 87.200002 
L 629.460227 71.199998 
L 632.395833 82.400002 
L 635.331439 71.199998 
L 635.331439 71.199998 
" style="fill:none;stroke:#0000ff;stroke-linecap:square;stroke-width:1.2;"/>
   </g>
   <g id="line2d_2">
    <path clip-path="url(#p74e91a0ad8)" d="M 112.793561 192.800002 
L 115.729167 204 
L 118.664773 204 
L 121.600379 197.600002 
L 124.535985 205.599998 
L 127.471591 207.200002 
L 130.407197 210.399998 
L 133.342803 205.599998 
L 136.278409 202.400002 
L 139.214015 221.600002 
L 142.149621 176.799998 
L 145.085227 231.200002 
L 148.020833 223.2 
L 150.956439 218.4 
L 153.892045 236.000002 
L 159.763258 216.800002 
L 162.698864 200.799998 
L 165.63447 231.200002 
L 168.570076 239.199998 
L 171.505682 218.4 
L 174.441288 236.000002 
L 177.376894 191.199998 
L 180.3125 223.2 
L 183.248106 223.2 
L 186.183712 205.599998 
L 189.119318 191.199998 
L 192.054924 224.799998 
L 194.99053 173.600002 
L 197.926136 215.199998 
L 200.861742 192.800002 
L 203.797348 183.200002 
L 206.732955 175.2 
L 209.668561 210.399998 
L 212.604167 195.999998 
L 215.539773 204 
L 218.475379 189.6 
L 221.410985 188.000002 
L 224.346591 171.999998 
L 227.282197 192.800002 
L 233.153409 132 
L 236.089015 159.200002 
L 239.024621 143.199998 
L 241.960227 157.599998 
L 247.831439 180 
L 250.767045 183.200002 
L 253.702652 181.599998 
L 256.638258 183.200002 
L 259.573864 192.800002 
L 262.50947 171.999998 
L 265.445076 159.200002 
L 268.380682 154.400002 
L 271.316288 184.8 
L 274.251894 181.599998 
L 277.1875 173.600002 
L 280.123106 154.400002 
L 283.058712 171.999998 
L 285.994318 164.000002 
L 288.929924 165.6 
L 291.86553 152.799998 
L 294.801136 173.600002 
L 297.736742 138.399998 
L 300.672348 186.399998 
L 303.607955 152.799998 
L 306.543561 168.800002 
L 309.479167 146.4 
L 312.414773 157.599998 
L 315.350379 164.000002 
L 318.285985 128.799998 
L 321.221591 136.8 
L 324.157197 128.799998 
L 327.092803 160.8 
L 330.028409 143.199998 
L 332.964015 133.599998 
L 335.899621 152.799998 
L 338.835227 143.199998 
L 341.770833 160.8 
L 344.706439 160.8 
L 347.642045 136.8 
L 350.577652 123.999998 
L 353.513258 157.599998 
L 356.448864 164.000002 
L 359.38447 135.200002 
L 362.320076 133.599998 
L 365.255682 154.400002 
L 368.191288 151.2 
L 371.126894 189.6 
L 374.0625 141.6 
L 376.998106 123.999998 
L 379.933712 152.799998 
L 382.869318 159.200002 
L 385.804924 123.999998 
L 388.74053 132 
L 391.676136 151.2 
L 394.611742 151.2 
L 397.547348 132 
L 400.482955 130.400002 
L 403.418561 135.200002 
L 406.354167 112.8 
L 409.289773 119.199998 
L 412.225379 140.000002 
L 415.160985 146.4 
L 421.032197 143.199998 
L 423.967803 133.599998 
L 426.903409 175.2 
L 429.839015 132 
L 432.774621 156 
L 435.710227 152.799998 
L 438.645833 138.399998 
L 441.581439 133.599998 
L 444.517045 149.600002 
L 447.452652 141.6 
L 450.388258 152.799998 
L 453.323864 156 
L 456.25947 146.4 
L 459.195076 141.6 
L 462.130682 112.8 
L 465.066288 114.399998 
L 468.001894 114.399998 
L 470.9375 152.799998 
L 473.873106 147.999998 
L 476.808712 133.599998 
L 479.744318 143.199998 
L 482.679924 120.800002 
L 485.61553 171.999998 
L 488.551136 119.199998 
L 491.486742 112.8 
L 494.422348 112.8 
L 497.357955 141.6 
L 500.293561 141.6 
L 500.293561 141.6 
" style="fill:none;stroke:#008000;stroke-linecap:square;stroke-width:1.2;"/>
   </g>
   <g id="line2d_3">
    <path clip-path="url(#p74e91a0ad8)" d="M 112.793561 296.799998 
L 115.729167 319.2 
L 118.664773 312.800002 
L 121.600379 296.799998 
L 124.535985 290.4 
L 127.471591 285.6 
L 130.407197 291.999998 
L 133.342803 306.399998 
L 136.278409 274.400002 
L 139.214015 272.799998 
L 142.149621 290.4 
L 145.085227 256.8 
L 148.020833 288.800002 
L 150.956439 260.000002 
L 153.892045 261.6 
L 156.827652 284.000002 
L 159.763258 288.800002 
L 162.698864 263.199998 
L 165.63447 263.199998 
L 168.570076 266.4 
L 171.505682 282.399998 
L 174.441288 258.399998 
L 177.376894 276 
L 180.3125 267.999998 
L 183.248106 264.800002 
L 186.183712 252 
L 189.119318 266.4 
L 194.99053 256.8 
L 197.926136 267.999998 
L 200.861742 253.599998 
L 203.797348 252 
L 206.732955 236.000002 
L 209.668561 304.8 
L 212.604167 290.4 
L 215.539773 255.200002 
L 218.475379 277.599998 
L 221.410985 237.6 
L 224.346591 252 
L 227.282197 269.600002 
L 230.217803 250.400002 
L 233.153409 264.800002 
L 236.089015 231.200002 
L 239.024621 243.999998 
L 241.960227 258.399998 
L 244.895833 256.8 
L 247.831439 232.8 
L 250.767045 267.999998 
L 253.702652 232.8 
L 256.638258 252 
L 259.573864 239.199998 
L 262.50947 219.999998 
L 265.445076 242.4 
L 268.380682 207.200002 
L 271.316288 256.8 
L 274.251894 242.4 
L 277.1875 221.600002 
L 280.123106 228 
L 283.058712 236.000002 
L 285.994318 229.599998 
L 291.86553 219.999998 
L 294.801136 250.400002 
L 297.736742 243.999998 
L 300.672348 255.200002 
L 303.607955 224.799998 
L 306.543561 240.800002 
L 309.479167 212.000002 
L 312.414773 208.8 
L 315.350379 210.399998 
L 318.285985 218.4 
L 321.221591 223.2 
L 324.157197 200.799998 
L 327.092803 194.4 
L 330.028409 202.400002 
L 332.964015 184.8 
L 335.899621 188.000002 
L 338.835227 202.400002 
L 341.770833 168.800002 
L 344.706439 171.999998 
L 347.642045 173.600002 
L 350.577652 205.599998 
L 353.513258 224.799998 
L 356.448864 200.799998 
L 359.38447 202.400002 
L 362.320076 197.600002 
L 365.255682 210.399998 
L 368.191288 178.400002 
L 371.126894 210.399998 
L 374.0625 210.399998 
L 376.998106 195.999998 
L 379.933712 197.600002 
L 382.869318 181.599998 
L 385.804924 204 
L 388.74053 213.6 
L 391.676136 181.599998 
L 394.611742 183.200002 
L 397.547348 191.199998 
L 400.482955 194.4 
L 403.418561 188.000002 
L 406.354167 199.2 
L 409.289773 178.400002 
L 412.225379 175.2 
L 415.160985 221.600002 
L 418.096591 215.199998 
L 421.032197 207.200002 
L 423.967803 200.799998 
L 426.903409 210.399998 
L 429.839015 229.599998 
L 432.774621 184.8 
L 435.710227 202.400002 
L 438.645833 197.600002 
L 441.581439 178.400002 
L 444.517045 191.199998 
L 447.452652 178.400002 
L 450.388258 157.599998 
L 453.323864 205.599998 
L 456.25947 186.399998 
L 459.195076 192.800002 
L 462.130682 159.200002 
L 465.066288 164.000002 
L 468.001894 184.8 
L 470.9375 186.399998 
L 473.873106 168.800002 
L 476.808712 167.199998 
L 479.744318 186.399998 
L 482.679924 171.999998 
L 485.61553 189.6 
L 488.551136 162.399998 
L 491.486742 173.600002 
L 494.422348 138.399998 
L 497.357955 173.600002 
L 500.293561 154.400002 
L 503.229167 160.8 
L 506.164773 159.200002 
L 509.100379 159.200002 
L 512.035985 152.799998 
L 514.971591 165.6 
L 517.907197 171.999998 
L 520.842803 152.799998 
L 523.778409 135.200002 
L 526.714015 143.199998 
L 529.649621 144.800002 
L 529.649621 144.800002 
" style="fill:none;stroke:#ff0000;stroke-linecap:square;stroke-width:1.2;"/>
   </g>
   <g id="line2d_4">
    <path clip-path="url(#p74e91a0ad8)" d="M 112.793561 231.200002 
L 115.729167 207.200002 
L 118.664773 189.6 
L 121.600379 199.2 
L 124.535985 223.2 
L 127.471591 189.6 
L 130.407197 210.399998 
L 133.342803 210.399998 
L 136.278409 223.2 
L 139.214015 215.199998 
L 142.149621 226.400002 
L 145.085227 234.399998 
L 148.020833 234.399998 
L 150.956439 247.2 
L 153.892045 207.200002 
L 156.827652 207.200002 
L 159.763258 218.4 
L 162.698864 224.799998 
L 165.63447 213.6 
L 168.570076 221.600002 
L 171.505682 236.000002 
L 174.441288 223.2 
L 177.376894 247.2 
L 180.3125 212.000002 
L 183.248106 226.400002 
L 186.183712 207.200002 
L 189.119318 226.400002 
L 192.054924 231.200002 
L 194.99053 218.4 
L 197.926136 192.800002 
L 200.861742 205.599998 
L 203.797348 183.200002 
L 206.732955 181.599998 
L 209.668561 261.6 
L 212.604167 204 
L 215.539773 165.6 
L 218.475379 173.600002 
L 221.410985 178.400002 
L 224.346591 191.199998 
L 227.282197 170.4 
L 230.217803 178.400002 
L 233.153409 154.400002 
L 236.089015 183.200002 
L 239.024621 207.200002 
L 241.960227 176.799998 
L 244.895833 204 
L 247.831439 186.399998 
L 250.767045 195.999998 
L 253.702652 181.599998 
L 256.638258 192.800002 
L 259.573864 188.000002 
L 262.50947 176.799998 
L 265.445076 197.600002 
L 268.380682 204 
L 271.316288 208.8 
L 274.251894 208.8 
L 277.1875 223.2 
L 280.123106 171.999998 
L 283.058712 175.2 
L 285.994318 205.599998 
L 288.929924 195.999998 
L 291.86553 189.6 
L 294.801136 202.400002 
L 297.736742 181.599998 
L 300.672348 207.200002 
L 303.607955 171.999998 
L 306.543561 162.399998 
L 309.479167 184.8 
L 312.414773 156 
L 315.350379 159.200002 
L 318.285985 181.599998 
L 321.221591 178.400002 
L 324.157197 146.4 
L 327.092803 186.399998 
L 330.028409 164.000002 
L 332.964015 160.8 
L 335.899621 164.000002 
L 338.835227 194.4 
L 341.770833 168.800002 
L 344.706439 151.2 
L 347.642045 189.6 
L 350.577652 183.200002 
L 353.513258 170.4 
L 356.448864 173.600002 
L 359.38447 207.200002 
L 362.320076 144.800002 
L 365.255682 168.800002 
L 368.191288 178.400002 
L 371.126894 128.799998 
L 374.0625 151.2 
L 376.998106 141.6 
L 379.933712 144.800002 
L 382.869318 128.799998 
L 385.804924 108 
L 388.74053 119.199998 
L 391.676136 104.799998 
L 394.611742 125.600002 
L 397.547348 141.6 
L 400.482955 101.600002 
L 403.418561 117.6 
L 406.354167 138.399998 
L 409.289773 157.599998 
L 412.225379 111.200002 
L 415.160985 116.000002 
L 418.096591 136.8 
L 421.032197 136.8 
L 423.967803 157.599998 
L 426.903409 85.599998 
L 429.839015 162.399998 
L 432.774621 117.6 
L 435.710227 141.6 
L 438.645833 138.399998 
L 441.581439 133.599998 
L 444.517045 135.200002 
L 447.452652 152.799998 
L 450.388258 147.999998 
L 453.323864 144.800002 
L 456.25947 138.399998 
L 459.195076 130.400002 
L 462.130682 130.400002 
L 465.066288 123.999998 
L 468.001894 144.800002 
L 470.9375 98.4 
L 473.873106 112.8 
L 476.808712 99.999998 
L 479.744318 103.2 
L 482.679924 108 
L 485.61553 101.600002 
L 488.551136 98.4 
L 491.486742 104.799998 
L 494.422348 108 
L 497.357955 109.599998 
L 500.293561 123.999998 
L 503.229167 125.600002 
L 506.164773 85.599998 
L 509.100379 95.199998 
L 512.035985 95.199998 
L 514.971591 82.400002 
L 517.907197 77.600002 
L 520.842803 90.399998 
L 523.778409 128.799998 
L 526.714015 140.000002 
L 529.649621 99.999998 
L 532.585227 120.800002 
L 538.456439 82.400002 
L 541.392045 109.599998 
L 544.327652 171.999998 
L 547.263258 92.000002 
L 550.198864 90.399998 
L 553.13447 140.000002 
L 556.070076 80.799998 
L 559.005682 79.2 
L 561.941288 87.200002 
L 561.941288 87.200002 
" style="fill:none;stroke:#00bfbf;stroke-linecap:square;stroke-width:1.2;"/>
   </g>
   <g id="patch_3">
    <path d="M 112.5 324 
L 112.5 36 
" style="fill:none;stroke:#000000;stroke-linecap:square;stroke-linejoin:miter;"/>
   </g>
   <g id="patch_4">
    <path d="M 635.625 324 
L 635.625 36 
" style="fill:none;stroke:#000000;stroke-linecap:square;stroke-linejoin:miter;"/>
   </g>
   <g id="patch_5">
    <path d="M 112.5 324 
L 635.625 324 
" style="fill:none;stroke:#000000;stroke-linecap:square;stroke-linejoin:miter;"/>
   </g>
   <g id="patch_6">
    <path d="M 112.5 36 
L 635.625 36 
" style="fill:none;stroke:#000000;stroke-linecap:square;stroke-linejoin:miter;"/>
   </g>
   <g id="matplotlib.axis_1">
    <g id="xtick_1">
     <g id="line2d_5">
      <defs>
       <path d="M 0 0 
L 0 -4 
" id="m3f7b4297c1" style="stroke:#000000;stroke-width:0.5;"/>
      </defs>
      <g>
       <use style="stroke:#000000;stroke-width:0.5;" x="112.793561" xlink:href="#m3f7b4297c1" y="324"/>
      </g>
     </g>
     <g id="line2d_6">
      <defs>
       <path d="M 0 0 
L 0 4 
" id="ma0ad387932" style="stroke:#000000;stroke-width:0.5;"/>
      </defs>
      <g>
       <use style="stroke:#000000;stroke-width:0.5;" x="112.793561" xlink:href="#ma0ad387932" y="36"/>
      </g>
     </g>
     <g id="text_1">
      <!-- 0 -->
      <defs>
       <path d="M 31.78125 66.40625 
Q 24.171875 66.40625 20.328125 58.90625 
Q 16.5 51.421875 16.5 36.375 
Q 16.5 21.390625 20.328125 13.890625 
Q 24.171875 6.390625 31.78125 6.390625 
Q 39.453125 6.390625 43.28125 13.890625 
Q 47.125 21.390625 47.125 36.375 
Q 47.125 51.421875 43.28125 58.90625 
Q 39.453125 66.40625 31.78125 66.40625 
z
M 31.78125 74.21875 
Q 44.046875 74.21875 50.515625 64.515625 
Q 56.984375 54.828125 56.984375 36.375 
Q 56.984375 17.96875 50.515625 8.265625 
Q 44.046875 -1.421875 31.78125 -1.421875 
Q 19.53125 -1.421875 13.0625 8.265625 
Q 6.59375 17.96875 6.59375 36.375 
Q 6.59375 54.828125 13.0625 64.515625 
Q 19.53125 74.21875 31.78125 74.21875 
z
" id="DejaVuSans-48"/>
      </defs>
      <g transform="translate(108.976061 337.118125)scale(0.12 -0.12)">
       <use xlink:href="#DejaVuSans-48"/>
      </g>
     </g>
    </g>
    <g id="xtick_2">
     <g id="line2d_7">
      <g>
       <use style="stroke:#000000;stroke-width:0.5;" x="165.63447" xlink:href="#m3f7b4297c1" y="324"/>
      </g>
     </g>
     <g id="line2d_8">
      <g>
       <use style="stroke:#000000;stroke-width:0.5;" x="165.63447" xlink:href="#ma0ad387932" y="36"/>
      </g>
     </g>
     <g id="text_2">
      <!-- 18 -->
      <defs>
       <path d="M 12.40625 8.296875 
L 28.515625 8.296875 
L 28.515625 63.921875 
L 10.984375 60.40625 
L 10.984375 69.390625 
L 28.421875 72.90625 
L 38.28125 72.90625 
L 38.28125 8.296875 
L 54.390625 8.296875 
L 54.390625 0 
L 12.40625 0 
z
" id="DejaVuSans-49"/>
       <path d="M 31.78125 34.625 
Q 24.75 34.625 20.71875 30.859375 
Q 16.703125 27.09375 16.703125 20.515625 
Q 16.703125 13.921875 20.71875 10.15625 
Q 24.75 6.390625 31.78125 6.390625 
Q 38.8125 6.390625 42.859375 10.171875 
Q 46.921875 13.96875 46.921875 20.515625 
Q 46.921875 27.09375 42.890625 30.859375 
Q 38.875 34.625 31.78125 34.625 
z
M 21.921875 38.8125 
Q 15.578125 40.375 12.03125 44.71875 
Q 8.5 49.078125 8.5 55.328125 
Q 8.5 64.0625 14.71875 69.140625 
Q 20.953125 74.21875 31.78125 74.21875 
Q 42.671875 74.21875 48.875 69.140625 
Q 55.078125 64.0625 55.078125 55.328125 
Q 55.078125 49.078125 51.53125 44.71875 
Q 48 40.375 41.703125 38.8125 
Q 48.828125 37.15625 52.796875 32.3125 
Q 56.78125 27.484375 56.78125 20.515625 
Q 56.78125 9.90625 50.3125 4.234375 
Q 43.84375 -1.421875 31.78125 -1.421875 
Q 19.734375 -1.421875 13.25 4.234375 
Q 6.78125 9.90625 6.78125 20.515625 
Q 6.78125 27.484375 10.78125 32.3125 
Q 14.796875 37.15625 21.921875 38.8125 
z
M 18.3125 54.390625 
Q 18.3125 48.734375 21.84375 45.5625 
Q 25.390625 42.390625 31.78125 42.390625 
Q 38.140625 42.390625 41.71875 45.5625 
Q 45.3125 48.734375 45.3125 54.390625 
Q 45.3125 60.0625 41.71875 63.234375 
Q 38.140625 66.40625 31.78125 66.40625 
Q 25.390625 66.40625 21.84375 63.234375 
Q 18.3125 60.0625 18.3125 54.390625 
z
" id="DejaVuSans-56"/>
      </defs>
      <g transform="translate(157.99947 337.118125)scale(0.12 -0.12)">
       <use xlink:href="#DejaVuSans-49"/>
       <use x="63.623047" xlink:href="#DejaVuSans-56"/>
      </g>
     </g>
    </g>
    <g id="xtick_3">
     <g id="line2d_9">
      <g>
       <use style="stroke:#000000;stroke-width:0.5;" x="218.475379" xlink:href="#m3f7b4297c1" y="324"/>
      </g>
     </g>
     <g id="line2d_10">
      <g>
       <use style="stroke:#000000;stroke-width:0.5;" x="218.475379" xlink:href="#ma0ad387932" y="36"/>
      </g>
     </g>
     <g id="text_3">
      <!-- 36 -->
      <defs>
       <path d="M 40.578125 39.3125 
Q 47.65625 37.796875 51.625 33 
Q 55.609375 28.21875 55.609375 21.1875 
Q 55.609375 10.40625 48.1875 4.484375 
Q 40.765625 -1.421875 27.09375 -1.421875 
Q 22.515625 -1.421875 17.65625 -0.515625 
Q 12.796875 0.390625 7.625 2.203125 
L 7.625 11.71875 
Q 11.71875 9.328125 16.59375 8.109375 
Q 21.484375 6.890625 26.8125 6.890625 
Q 36.078125 6.890625 40.9375 10.546875 
Q 45.796875 14.203125 45.796875 21.1875 
Q 45.796875 27.640625 41.28125 31.265625 
Q 36.765625 34.90625 28.71875 34.90625 
L 20.21875 34.90625 
L 20.21875 43.015625 
L 29.109375 43.015625 
Q 36.375 43.015625 40.234375 45.921875 
Q 44.09375 48.828125 44.09375 54.296875 
Q 44.09375 59.90625 40.109375 62.90625 
Q 36.140625 65.921875 28.71875 65.921875 
Q 24.65625 65.921875 20.015625 65.03125 
Q 15.375 64.15625 9.8125 62.3125 
L 9.8125 71.09375 
Q 15.4375 72.65625 20.34375 73.4375 
Q 25.25 74.21875 29.59375 74.21875 
Q 40.828125 74.21875 47.359375 69.109375 
Q 53.90625 64.015625 53.90625 55.328125 
Q 53.90625 49.265625 50.4375 45.09375 
Q 46.96875 40.921875 40.578125 39.3125 
z
" id="DejaVuSans-51"/>
       <path d="M 33.015625 40.375 
Q 26.375 40.375 22.484375 35.828125 
Q 18.609375 31.296875 18.609375 23.390625 
Q 18.609375 15.53125 22.484375 10.953125 
Q 26.375 6.390625 33.015625 6.390625 
Q 39.65625 6.390625 43.53125 10.953125 
Q 47.40625 15.53125 47.40625 23.390625 
Q 47.40625 31.296875 43.53125 35.828125 
Q 39.65625 40.375 33.015625 40.375 
z
M 52.59375 71.296875 
L 52.59375 62.3125 
Q 48.875 64.0625 45.09375 64.984375 
Q 41.3125 65.921875 37.59375 65.921875 
Q 27.828125 65.921875 22.671875 59.328125 
Q 17.53125 52.734375 16.796875 39.40625 
Q 19.671875 43.65625 24.015625 45.921875 
Q 28.375 48.1875 33.59375 48.1875 
Q 44.578125 48.1875 50.953125 41.515625 
Q 57.328125 34.859375 57.328125 23.390625 
Q 57.328125 12.15625 50.6875 5.359375 
Q 44.046875 -1.421875 33.015625 -1.421875 
Q 20.359375 -1.421875 13.671875 8.265625 
Q 6.984375 17.96875 6.984375 36.375 
Q 6.984375 53.65625 15.1875 63.9375 
Q 23.390625 74.21875 37.203125 74.21875 
Q 40.921875 74.21875 44.703125 73.484375 
Q 48.484375 72.75 52.59375 71.296875 
z
" id="DejaVuSans-54"/>
      </defs>
      <g transform="translate(210.840379 337.118125)scale(0.12 -0.12)">
       <use xlink:href="#DejaVuSans-51"/>
       <use x="63.623047" xlink:href="#DejaVuSans-54"/>
      </g>
     </g>
    </g>
    <g id="xtick_4">
     <g id="line2d_11">
      <g>
       <use style="stroke:#000000;stroke-width:0.5;" x="271.316288" xlink:href="#m3f7b4297c1" y="324"/>
      </g>
     </g>
     <g id="line2d_12">
      <g>
       <use style="stroke:#000000;stroke-width:0.5;" x="271.316288" xlink:href="#ma0ad387932" y="36"/>
      </g>
     </g>
     <g id="text_4">
      <!-- 54 -->
      <defs>
       <path d="M 10.796875 72.90625 
L 49.515625 72.90625 
L 49.515625 64.59375 
L 19.828125 64.59375 
L 19.828125 46.734375 
Q 21.96875 47.46875 24.109375 47.828125 
Q 26.265625 48.1875 28.421875 48.1875 
Q 40.625 48.1875 47.75 41.5 
Q 54.890625 34.8125 54.890625 23.390625 
Q 54.890625 11.625 47.5625 5.09375 
Q 40.234375 -1.421875 26.90625 -1.421875 
Q 22.3125 -1.421875 17.546875 -0.640625 
Q 12.796875 0.140625 7.71875 1.703125 
L 7.71875 11.625 
Q 12.109375 9.234375 16.796875 8.0625 
Q 21.484375 6.890625 26.703125 6.890625 
Q 35.15625 6.890625 40.078125 11.328125 
Q 45.015625 15.765625 45.015625 23.390625 
Q 45.015625 31 40.078125 35.4375 
Q 35.15625 39.890625 26.703125 39.890625 
Q 22.75 39.890625 18.8125 39.015625 
Q 14.890625 38.140625 10.796875 36.28125 
z
" id="DejaVuSans-53"/>
       <path d="M 37.796875 64.3125 
L 12.890625 25.390625 
L 37.796875 25.390625 
z
M 35.203125 72.90625 
L 47.609375 72.90625 
L 47.609375 25.390625 
L 58.015625 25.390625 
L 58.015625 17.1875 
L 47.609375 17.1875 
L 47.609375 0 
L 37.796875 0 
L 37.796875 17.1875 
L 4.890625 17.1875 
L 4.890625 26.703125 
z
" id="DejaVuSans-52"/>
      </defs>
      <g transform="translate(263.681288 337.118125)scale(0.12 -0.12)">
       <use xlink:href="#DejaVuSans-53"/>
       <use x="63.623047" xlink:href="#DejaVuSans-52"/>
      </g>
     </g>
    </g>
    <g id="xtick_5">
     <g id="line2d_13">
      <g>
       <use style="stroke:#000000;stroke-width:0.5;" x="324.157197" xlink:href="#m3f7b4297c1" y="324"/>
      </g>
     </g>
     <g id="line2d_14">
      <g>
       <use style="stroke:#000000;stroke-width:0.5;" x="324.157197" xlink:href="#ma0ad387932" y="36"/>
      </g>
     </g>
     <g id="text_5">
      <!-- 72 -->
      <defs>
       <path d="M 8.203125 72.90625 
L 55.078125 72.90625 
L 55.078125 68.703125 
L 28.609375 0 
L 18.3125 0 
L 43.21875 64.59375 
L 8.203125 64.59375 
z
" id="DejaVuSans-55"/>
       <path d="M 19.1875 8.296875 
L 53.609375 8.296875 
L 53.609375 0 
L 7.328125 0 
L 7.328125 8.296875 
Q 12.9375 14.109375 22.625 23.890625 
Q 32.328125 33.6875 34.8125 36.53125 
Q 39.546875 41.84375 41.421875 45.53125 
Q 43.3125 49.21875 43.3125 52.78125 
Q 43.3125 58.59375 39.234375 62.25 
Q 35.15625 65.921875 28.609375 65.921875 
Q 23.96875 65.921875 18.8125 64.3125 
Q 13.671875 62.703125 7.8125 59.421875 
L 7.8125 69.390625 
Q 13.765625 71.78125 18.9375 73 
Q 24.125 74.21875 28.421875 74.21875 
Q 39.75 74.21875 46.484375 68.546875 
Q 53.21875 62.890625 53.21875 53.421875 
Q 53.21875 48.921875 51.53125 44.890625 
Q 49.859375 40.875 45.40625 35.40625 
Q 44.1875 33.984375 37.640625 27.21875 
Q 31.109375 20.453125 19.1875 8.296875 
z
" id="DejaVuSans-50"/>
      </defs>
      <g transform="translate(316.522197 337.118125)scale(0.12 -0.12)">
       <use xlink:href="#DejaVuSans-55"/>
       <use x="63.623047" xlink:href="#DejaVuSans-50"/>
      </g>
     </g>
    </g>
    <g id="xtick_6">
     <g id="line2d_15">
      <g>
       <use style="stroke:#000000;stroke-width:0.5;" x="376.998106" xlink:href="#m3f7b4297c1" y="324"/>
      </g>
     </g>
     <g id="line2d_16">
      <g>
       <use style="stroke:#000000;stroke-width:0.5;" x="376.998106" xlink:href="#ma0ad387932" y="36"/>
      </g>
     </g>
     <g id="text_6">
      <!-- 90 -->
      <defs>
       <path d="M 10.984375 1.515625 
L 10.984375 10.5 
Q 14.703125 8.734375 18.5 7.8125 
Q 22.3125 6.890625 25.984375 6.890625 
Q 35.75 6.890625 40.890625 13.453125 
Q 46.046875 20.015625 46.78125 33.40625 
Q 43.953125 29.203125 39.59375 26.953125 
Q 35.25 24.703125 29.984375 24.703125 
Q 19.046875 24.703125 12.671875 31.3125 
Q 6.296875 37.9375 6.296875 49.421875 
Q 6.296875 60.640625 12.9375 67.421875 
Q 19.578125 74.21875 30.609375 74.21875 
Q 43.265625 74.21875 49.921875 64.515625 
Q 56.59375 54.828125 56.59375 36.375 
Q 56.59375 19.140625 48.40625 8.859375 
Q 40.234375 -1.421875 26.421875 -1.421875 
Q 22.703125 -1.421875 18.890625 -0.6875 
Q 15.09375 0.046875 10.984375 1.515625 
z
M 30.609375 32.421875 
Q 37.25 32.421875 41.125 36.953125 
Q 45.015625 41.5 45.015625 49.421875 
Q 45.015625 57.28125 41.125 61.84375 
Q 37.25 66.40625 30.609375 66.40625 
Q 23.96875 66.40625 20.09375 61.84375 
Q 16.21875 57.28125 16.21875 49.421875 
Q 16.21875 41.5 20.09375 36.953125 
Q 23.96875 32.421875 30.609375 32.421875 
z
" id="DejaVuSans-57"/>
      </defs>
      <g transform="translate(369.363106 337.118125)scale(0.12 -0.12)">
       <use xlink:href="#DejaVuSans-57"/>
       <use x="63.623047" xlink:href="#DejaVuSans-48"/>
      </g>
     </g>
    </g>
    <g id="xtick_7">
     <g id="line2d_17">
      <g>
       <use style="stroke:#000000;stroke-width:0.5;" x="429.839015" xlink:href="#m3f7b4297c1" y="324"/>
      </g>
     </g>
     <g id="line2d_18">
      <g>
       <use style="stroke:#000000;stroke-width:0.5;" x="429.839015" xlink:href="#ma0ad387932" y="36"/>
      </g>
     </g>
     <g id="text_7">
      <!-- 108 -->
      <g transform="translate(418.386515 337.118125)scale(0.12 -0.12)">
       <use xlink:href="#DejaVuSans-49"/>
       <use x="63.623047" xlink:href="#DejaVuSans-48"/>
       <use x="127.246094" xlink:href="#DejaVuSans-56"/>
      </g>
     </g>
    </g>
    <g id="xtick_8">
     <g id="line2d_19">
      <g>
       <use style="stroke:#000000;stroke-width:0.5;" x="482.679924" xlink:href="#m3f7b4297c1" y="324"/>
      </g>
     </g>
     <g id="line2d_20">
      <g>
       <use style="stroke:#000000;stroke-width:0.5;" x="482.679924" xlink:href="#ma0ad387932" y="36"/>
      </g>
     </g>
     <g id="text_8">
      <!-- 126 -->
      <g transform="translate(471.227424 337.118125)scale(0.12 -0.12)">
       <use xlink:href="#DejaVuSans-49"/>
       <use x="63.623047" xlink:href="#DejaVuSans-50"/>
       <use x="127.246094" xlink:href="#DejaVuSans-54"/>
      </g>
     </g>
    </g>
    <g id="xtick_9">
     <g id="line2d_21">
      <g>
       <use style="stroke:#000000;stroke-width:0.5;" x="535.520833" xlink:href="#m3f7b4297c1" y="324"/>
      </g>
     </g>
     <g id="line2d_22">
      <g>
       <use style="stroke:#000000;stroke-width:0.5;" x="535.520833" xlink:href="#ma0ad387932" y="36"/>
      </g>
     </g>
     <g id="text_9">
      <!-- 144 -->
      <g transform="translate(524.068333 337.118125)scale(0.12 -0.12)">
       <use xlink:href="#DejaVuSans-49"/>
       <use x="63.623047" xlink:href="#DejaVuSans-52"/>
       <use x="127.246094" xlink:href="#DejaVuSans-52"/>
      </g>
     </g>
    </g>
    <g id="xtick_10">
     <g id="line2d_23">
      <g>
       <use style="stroke:#000000;stroke-width:0.5;" x="588.361742" xlink:href="#m3f7b4297c1" y="324"/>
      </g>
     </g>
     <g id="line2d_24">
      <g>
       <use style="stroke:#000000;stroke-width:0.5;" x="588.361742" xlink:href="#ma0ad387932" y="36"/>
      </g>
     </g>
     <g id="text_10">
      <!-- 162 -->
      <g transform="translate(576.909242 337.118125)scale(0.12 -0.12)">
       <use xlink:href="#DejaVuSans-49"/>
       <use x="63.623047" xlink:href="#DejaVuSans-54"/>
       <use x="127.246094" xlink:href="#DejaVuSans-50"/>
      </g>
     </g>
    </g>
    <g id="text_11">
     <!-- generation -->
     <defs>
      <path d="M 45.40625 27.984375 
Q 45.40625 37.75 41.375 43.109375 
Q 37.359375 48.484375 30.078125 48.484375 
Q 22.859375 48.484375 18.828125 43.109375 
Q 14.796875 37.75 14.796875 27.984375 
Q 14.796875 18.265625 18.828125 12.890625 
Q 22.859375 7.515625 30.078125 7.515625 
Q 37.359375 7.515625 41.375 12.890625 
Q 45.40625 18.265625 45.40625 27.984375 
z
M 54.390625 6.78125 
Q 54.390625 -7.171875 48.1875 -13.984375 
Q 42 -20.796875 29.203125 -20.796875 
Q 24.46875 -20.796875 20.265625 -20.09375 
Q 16.0625 -19.390625 12.109375 -17.921875 
L 12.109375 -9.1875 
Q 16.0625 -11.328125 19.921875 -12.34375 
Q 23.78125 -13.375 27.78125 -13.375 
Q 36.625 -13.375 41.015625 -8.765625 
Q 45.40625 -4.15625 45.40625 5.171875 
L 45.40625 9.625 
Q 42.625 4.78125 38.28125 2.390625 
Q 33.9375 0 27.875 0 
Q 17.828125 0 11.671875 7.65625 
Q 5.515625 15.328125 5.515625 27.984375 
Q 5.515625 40.671875 11.671875 48.328125 
Q 17.828125 56 27.875 56 
Q 33.9375 56 38.28125 53.609375 
Q 42.625 51.21875 45.40625 46.390625 
L 45.40625 54.6875 
L 54.390625 54.6875 
z
" id="DejaVuSans-103"/>
      <path d="M 56.203125 29.59375 
L 56.203125 25.203125 
L 14.890625 25.203125 
Q 15.484375 15.921875 20.484375 11.0625 
Q 25.484375 6.203125 34.421875 6.203125 
Q 39.59375 6.203125 44.453125 7.46875 
Q 49.3125 8.734375 54.109375 11.28125 
L 54.109375 2.78125 
Q 49.265625 0.734375 44.1875 -0.34375 
Q 39.109375 -1.421875 33.890625 -1.421875 
Q 20.796875 -1.421875 13.15625 6.1875 
Q 5.515625 13.8125 5.515625 26.8125 
Q 5.515625 40.234375 12.765625 48.109375 
Q 20.015625 56 32.328125 56 
Q 43.359375 56 49.78125 48.890625 
Q 56.203125 41.796875 56.203125 29.59375 
z
M 47.21875 32.234375 
Q 47.125 39.59375 43.09375 43.984375 
Q 39.0625 48.390625 32.421875 48.390625 
Q 24.90625 48.390625 20.390625 44.140625 
Q 15.875 39.890625 15.1875 32.171875 
z
" id="DejaVuSans-101"/>
      <path d="M 54.890625 33.015625 
L 54.890625 0 
L 45.90625 0 
L 45.90625 32.71875 
Q 45.90625 40.484375 42.875 44.328125 
Q 39.84375 48.1875 33.796875 48.1875 
Q 26.515625 48.1875 22.3125 43.546875 
Q 18.109375 38.921875 18.109375 30.90625 
L 18.109375 0 
L 9.078125 0 
L 9.078125 54.6875 
L 18.109375 54.6875 
L 18.109375 46.1875 
Q 21.34375 51.125 25.703125 53.5625 
Q 30.078125 56 35.796875 56 
Q 45.21875 56 50.046875 50.171875 
Q 54.890625 44.34375 54.890625 33.015625 
z
" id="DejaVuSans-110"/>
      <path d="M 41.109375 46.296875 
Q 39.59375 47.171875 37.8125 47.578125 
Q 36.03125 48 33.890625 48 
Q 26.265625 48 22.1875 43.046875 
Q 18.109375 38.09375 18.109375 28.8125 
L 18.109375 0 
L 9.078125 0 
L 9.078125 54.6875 
L 18.109375 54.6875 
L 18.109375 46.1875 
Q 20.953125 51.171875 25.484375 53.578125 
Q 30.03125 56 36.53125 56 
Q 37.453125 56 38.578125 55.875 
Q 39.703125 55.765625 41.0625 55.515625 
z
" id="DejaVuSans-114"/>
      <path d="M 34.28125 27.484375 
Q 23.390625 27.484375 19.1875 25 
Q 14.984375 22.515625 14.984375 16.5 
Q 14.984375 11.71875 18.140625 8.90625 
Q 21.296875 6.109375 26.703125 6.109375 
Q 34.1875 6.109375 38.703125 11.40625 
Q 43.21875 16.703125 43.21875 25.484375 
L 43.21875 27.484375 
z
M 52.203125 31.203125 
L 52.203125 0 
L 43.21875 0 
L 43.21875 8.296875 
Q 40.140625 3.328125 35.546875 0.953125 
Q 30.953125 -1.421875 24.3125 -1.421875 
Q 15.921875 -1.421875 10.953125 3.296875 
Q 6 8.015625 6 15.921875 
Q 6 25.140625 12.171875 29.828125 
Q 18.359375 34.515625 30.609375 34.515625 
L 43.21875 34.515625 
L 43.21875 35.40625 
Q 43.21875 41.609375 39.140625 45 
Q 35.0625 48.390625 27.6875 48.390625 
Q 23 48.390625 18.546875 47.265625 
Q 14.109375 46.140625 10.015625 43.890625 
L 10.015625 52.203125 
Q 14.9375 54.109375 19.578125 55.046875 
Q 24.21875 56 28.609375 56 
Q 40.484375 56 46.34375 49.84375 
Q 52.203125 43.703125 52.203125 31.203125 
z
" id="DejaVuSans-97"/>
      <path d="M 18.3125 70.21875 
L 18.3125 54.6875 
L 36.8125 54.6875 
L 36.8125 47.703125 
L 18.3125 47.703125 
L 18.3125 18.015625 
Q 18.3125 11.328125 20.140625 9.421875 
Q 21.96875 7.515625 27.59375 7.515625 
L 36.8125 7.515625 
L 36.8125 0 
L 27.59375 0 
Q 17.1875 0 13.234375 3.875 
Q 9.28125 7.765625 9.28125 18.015625 
L 9.28125 47.703125 
L 2.6875 47.703125 
L 2.6875 54.6875 
L 9.28125 54.6875 
L 9.28125 70.21875 
z
" id="DejaVuSans-116"/>
      <path d="M 9.421875 54.6875 
L 18.40625 54.6875 
L 18.40625 0 
L 9.421875 0 
z
M 9.421875 75.984375 
L 18.40625 75.984375 
L 18.40625 64.59375 
L 9.421875 64.59375 
z
" id="DejaVuSans-105"/>
      <path d="M 30.609375 48.390625 
Q 23.390625 48.390625 19.1875 42.75 
Q 14.984375 37.109375 14.984375 27.296875 
Q 14.984375 17.484375 19.15625 11.84375 
Q 23.34375 6.203125 30.609375 6.203125 
Q 37.796875 6.203125 41.984375 11.859375 
Q 46.1875 17.53125 46.1875 27.296875 
Q 46.1875 37.015625 41.984375 42.703125 
Q 37.796875 48.390625 30.609375 48.390625 
z
M 30.609375 56 
Q 42.328125 56 49.015625 48.375 
Q 55.71875 40.765625 55.71875 27.296875 
Q 55.71875 13.875 49.015625 6.21875 
Q 42.328125 -1.421875 30.609375 -1.421875 
Q 18.84375 -1.421875 12.171875 6.21875 
Q 5.515625 13.875 5.515625 27.296875 
Q 5.515625 40.765625 12.171875 48.375 
Q 18.84375 56 30.609375 56 
z
" id="DejaVuSans-111"/>
     </defs>
     <g transform="translate(341.430938 353.731875)scale(0.12 -0.12)">
      <use xlink:href="#DejaVuSans-103"/>
      <use x="63.476562" xlink:href="#DejaVuSans-101"/>
      <use x="125" xlink:href="#DejaVuSans-110"/>
      <use x="188.378906" xlink:href="#DejaVuSans-101"/>
      <use x="249.902344" xlink:href="#DejaVuSans-114"/>
      <use x="291.015625" xlink:href="#DejaVuSans-97"/>
      <use x="352.294922" xlink:href="#DejaVuSans-116"/>
      <use x="391.503906" xlink:href="#DejaVuSans-105"/>
      <use x="419.287109" xlink:href="#DejaVuSans-111"/>
      <use x="480.46875" xlink:href="#DejaVuSans-110"/>
     </g>
    </g>
   </g>
   <g id="matplotlib.axis_2">
    <g id="ytick_1">
     <g id="line2d_25">
      <defs>
       <path d="M 0 0 
L 4 0 
" id="m4a98bb175b" style="stroke:#000000;stroke-width:0.5;"/>
      </defs>
      <g>
       <use style="stroke:#000000;stroke-width:0.5;" x="112.5" xlink:href="#m4a98bb175b" y="324"/>
      </g>
     </g>
     <g id="line2d_26">
      <defs>
       <path d="M 0 0 
L -4 0 
" id="m3bfa1ebfce" style="stroke:#000000;stroke-width:0.5;"/>
      </defs>
      <g>
       <use style="stroke:#000000;stroke-width:0.5;" x="635.625" xlink:href="#m3bfa1ebfce" y="324"/>
      </g>
     </g>
     <g id="text_12">
      <!-- 0.88 -->
      <defs>
       <path d="M 10.6875 12.40625 
L 21 12.40625 
L 21 0 
L 10.6875 0 
z
" id="DejaVuSans-46"/>
      </defs>
      <g transform="translate(81.78125 327.31125)scale(0.12 -0.12)">
       <use xlink:href="#DejaVuSans-48"/>
       <use x="63.623047" xlink:href="#DejaVuSans-46"/>
       <use x="95.410156" xlink:href="#DejaVuSans-56"/>
       <use x="159.033203" xlink:href="#DejaVuSans-56"/>
      </g>
     </g>
    </g>
    <g id="ytick_2">
     <g id="line2d_27">
      <g>
       <use style="stroke:#000000;stroke-width:0.5;" x="112.5" xlink:href="#m4a98bb175b" y="276"/>
      </g>
     </g>
     <g id="line2d_28">
      <g>
       <use style="stroke:#000000;stroke-width:0.5;" x="635.625" xlink:href="#m3bfa1ebfce" y="276"/>
      </g>
     </g>
     <g id="text_13">
      <!-- 0.89 -->
      <g transform="translate(81.78125 279.31125)scale(0.12 -0.12)">
       <use xlink:href="#DejaVuSans-48"/>
       <use x="63.623047" xlink:href="#DejaVuSans-46"/>
       <use x="95.410156" xlink:href="#DejaVuSans-56"/>
       <use x="159.033203" xlink:href="#DejaVuSans-57"/>
      </g>
     </g>
    </g>
    <g id="ytick_3">
     <g id="line2d_29">
      <g>
       <use style="stroke:#000000;stroke-width:0.5;" x="112.5" xlink:href="#m4a98bb175b" y="228"/>
      </g>
     </g>
     <g id="line2d_30">
      <g>
       <use style="stroke:#000000;stroke-width:0.5;" x="635.625" xlink:href="#m3bfa1ebfce" y="228"/>
      </g>
     </g>
     <g id="text_14">
      <!-- 0.90 -->
      <g transform="translate(81.78125 231.31125)scale(0.12 -0.12)">
       <use xlink:href="#DejaVuSans-48"/>
       <use x="63.623047" xlink:href="#DejaVuSans-46"/>
       <use x="95.410156" xlink:href="#DejaVuSans-57"/>
       <use x="159.033203" xlink:href="#DejaVuSans-48"/>
      </g>
     </g>
    </g>
    <g id="ytick_4">
     <g id="line2d_31">
      <g>
       <use style="stroke:#000000;stroke-width:0.5;" x="112.5" xlink:href="#m4a98bb175b" y="180"/>
      </g>
     </g>
     <g id="line2d_32">
      <g>
       <use style="stroke:#000000;stroke-width:0.5;" x="635.625" xlink:href="#m3bfa1ebfce" y="180"/>
      </g>
     </g>
     <g id="text_15">
      <!-- 0.91 -->
      <g transform="translate(81.78125 183.31125)scale(0.12 -0.12)">
       <use xlink:href="#DejaVuSans-48"/>
       <use x="63.623047" xlink:href="#DejaVuSans-46"/>
       <use x="95.410156" xlink:href="#DejaVuSans-57"/>
       <use x="159.033203" xlink:href="#DejaVuSans-49"/>
      </g>
     </g>
    </g>
    <g id="ytick_5">
     <g id="line2d_33">
      <g>
       <use style="stroke:#000000;stroke-width:0.5;" x="112.5" xlink:href="#m4a98bb175b" y="132"/>
      </g>
     </g>
     <g id="line2d_34">
      <g>
       <use style="stroke:#000000;stroke-width:0.5;" x="635.625" xlink:href="#m3bfa1ebfce" y="132"/>
      </g>
     </g>
     <g id="text_16">
      <!-- 0.92 -->
      <g transform="translate(81.78125 135.31125)scale(0.12 -0.12)">
       <use xlink:href="#DejaVuSans-48"/>
       <use x="63.623047" xlink:href="#DejaVuSans-46"/>
       <use x="95.410156" xlink:href="#DejaVuSans-57"/>
       <use x="159.033203" xlink:href="#DejaVuSans-50"/>
      </g>
     </g>
    </g>
    <g id="ytick_6">
     <g id="line2d_35">
      <g>
       <use style="stroke:#000000;stroke-width:0.5;" x="112.5" xlink:href="#m4a98bb175b" y="84"/>
      </g>
     </g>
     <g id="line2d_36">
      <g>
       <use style="stroke:#000000;stroke-width:0.5;" x="635.625" xlink:href="#m3bfa1ebfce" y="84"/>
      </g>
     </g>
     <g id="text_17">
      <!-- 0.93 -->
      <g transform="translate(81.78125 87.31125)scale(0.12 -0.12)">
       <use xlink:href="#DejaVuSans-48"/>
       <use x="63.623047" xlink:href="#DejaVuSans-46"/>
       <use x="95.410156" xlink:href="#DejaVuSans-57"/>
       <use x="159.033203" xlink:href="#DejaVuSans-51"/>
      </g>
     </g>
    </g>
    <g id="ytick_7">
     <g id="line2d_37">
      <g>
       <use style="stroke:#000000;stroke-width:0.5;" x="112.5" xlink:href="#m4a98bb175b" y="36"/>
      </g>
     </g>
     <g id="line2d_38">
      <g>
       <use style="stroke:#000000;stroke-width:0.5;" x="635.625" xlink:href="#m3bfa1ebfce" y="36"/>
      </g>
     </g>
     <g id="text_18">
      <!-- 0.94 -->
      <g transform="translate(81.78125 39.31125)scale(0.12 -0.12)">
       <use xlink:href="#DejaVuSans-48"/>
       <use x="63.623047" xlink:href="#DejaVuSans-46"/>
       <use x="95.410156" xlink:href="#DejaVuSans-57"/>
       <use x="159.033203" xlink:href="#DejaVuSans-52"/>
      </g>
     </g>
    </g>
    <g id="text_19">
     <!-- accuracy -->
     <defs>
      <path d="M 48.78125 52.59375 
L 48.78125 44.1875 
Q 44.96875 46.296875 41.140625 47.34375 
Q 37.3125 48.390625 33.40625 48.390625 
Q 24.65625 48.390625 19.8125 42.84375 
Q 14.984375 37.3125 14.984375 27.296875 
Q 14.984375 17.28125 19.8125 11.734375 
Q 24.65625 6.203125 33.40625 6.203125 
Q 37.3125 6.203125 41.140625 7.25 
Q 44.96875 8.296875 48.78125 10.40625 
L 48.78125 2.09375 
Q 45.015625 0.34375 40.984375 -0.53125 
Q 36.96875 -1.421875 32.421875 -1.421875 
Q 20.0625 -1.421875 12.78125 6.34375 
Q 5.515625 14.109375 5.515625 27.296875 
Q 5.515625 40.671875 12.859375 48.328125 
Q 20.21875 56 33.015625 56 
Q 37.15625 56 41.109375 55.140625 
Q 45.0625 54.296875 48.78125 52.59375 
z
" id="DejaVuSans-99"/>
      <path d="M 8.5 21.578125 
L 8.5 54.6875 
L 17.484375 54.6875 
L 17.484375 21.921875 
Q 17.484375 14.15625 20.5 10.265625 
Q 23.53125 6.390625 29.59375 6.390625 
Q 36.859375 6.390625 41.078125 11.03125 
Q 45.3125 15.671875 45.3125 23.6875 
L 45.3125 54.6875 
L 54.296875 54.6875 
L 54.296875 0 
L 45.3125 0 
L 45.3125 8.40625 
Q 42.046875 3.421875 37.71875 1 
Q 33.40625 -1.421875 27.6875 -1.421875 
Q 18.265625 -1.421875 13.375 4.4375 
Q 8.5 10.296875 8.5 21.578125 
z
M 31.109375 56 
z
" id="DejaVuSans-117"/>
      <path d="M 32.171875 -5.078125 
Q 28.375 -14.84375 24.75 -17.8125 
Q 21.140625 -20.796875 15.09375 -20.796875 
L 7.90625 -20.796875 
L 7.90625 -13.28125 
L 13.1875 -13.28125 
Q 16.890625 -13.28125 18.9375 -11.515625 
Q 21 -9.765625 23.484375 -3.21875 
L 25.09375 0.875 
L 2.984375 54.6875 
L 12.5 54.6875 
L 29.59375 11.921875 
L 46.6875 54.6875 
L 56.203125 54.6875 
z
" id="DejaVuSans-121"/>
     </defs>
     <g transform="translate(74.285625 207.07125)rotate(-90)scale(0.12 -0.12)">
      <use xlink:href="#DejaVuSans-97"/>
      <use x="61.279297" xlink:href="#DejaVuSans-99"/>
      <use x="116.259766" xlink:href="#DejaVuSans-99"/>
      <use x="171.240234" xlink:href="#DejaVuSans-117"/>
      <use x="234.619141" xlink:href="#DejaVuSans-114"/>
      <use x="275.732422" xlink:href="#DejaVuSans-97"/>
      <use x="337.011719" xlink:href="#DejaVuSans-99"/>
      <use x="391.992188" xlink:href="#DejaVuSans-121"/>
     </g>
    </g>
   </g>
   <g id="legend_1">
    <g id="patch_7">
     <path d="M 640.623 210.843908 
L 720.723759 210.843908 
L 720.723759 149.156092 
L 640.623 149.156092 
z
" style="fill:#ffffff;stroke:#000000;stroke-linejoin:miter;"/>
    </g>
    <g id="line2d_39">
     <path d="M 647.6202 157.251291 
L 661.6146 157.251291 
" style="fill:none;stroke:#0000ff;stroke-linecap:square;stroke-width:1.2;"/>
    </g>
    <g id="line2d_40"/>
    <g id="text_20">
     <!-- Adam -->
     <defs>
      <path d="M 34.1875 63.1875 
L 20.796875 26.90625 
L 47.609375 26.90625 
z
M 28.609375 72.90625 
L 39.796875 72.90625 
L 67.578125 0 
L 57.328125 0 
L 50.6875 18.703125 
L 17.828125 18.703125 
L 11.1875 0 
L 0.78125 0 
z
" id="DejaVuSans-65"/>
      <path d="M 45.40625 46.390625 
L 45.40625 75.984375 
L 54.390625 75.984375 
L 54.390625 0 
L 45.40625 0 
L 45.40625 8.203125 
Q 42.578125 3.328125 38.25 0.953125 
Q 33.9375 -1.421875 27.875 -1.421875 
Q 17.96875 -1.421875 11.734375 6.484375 
Q 5.515625 14.40625 5.515625 27.296875 
Q 5.515625 40.1875 11.734375 48.09375 
Q 17.96875 56 27.875 56 
Q 33.9375 56 38.25 53.625 
Q 42.578125 51.265625 45.40625 46.390625 
z
M 14.796875 27.296875 
Q 14.796875 17.390625 18.875 11.75 
Q 22.953125 6.109375 30.078125 6.109375 
Q 37.203125 6.109375 41.296875 11.75 
Q 45.40625 17.390625 45.40625 27.296875 
Q 45.40625 37.203125 41.296875 42.84375 
Q 37.203125 48.484375 30.078125 48.484375 
Q 22.953125 48.484375 18.875 42.84375 
Q 14.796875 37.203125 14.796875 27.296875 
z
" id="DejaVuSans-100"/>
      <path d="M 52 44.1875 
Q 55.375 50.25 60.0625 53.125 
Q 64.75 56 71.09375 56 
Q 79.640625 56 84.28125 50.015625 
Q 88.921875 44.046875 88.921875 33.015625 
L 88.921875 0 
L 79.890625 0 
L 79.890625 32.71875 
Q 79.890625 40.578125 77.09375 44.375 
Q 74.3125 48.1875 68.609375 48.1875 
Q 61.625 48.1875 57.5625 43.546875 
Q 53.515625 38.921875 53.515625 30.90625 
L 53.515625 0 
L 44.484375 0 
L 44.484375 32.71875 
Q 44.484375 40.625 41.703125 44.40625 
Q 38.921875 48.1875 33.109375 48.1875 
Q 26.21875 48.1875 22.15625 43.53125 
Q 18.109375 38.875 18.109375 30.90625 
L 18.109375 0 
L 9.078125 0 
L 9.078125 54.6875 
L 18.109375 54.6875 
L 18.109375 46.1875 
Q 21.1875 51.21875 25.484375 53.609375 
Q 29.78125 56 35.6875 56 
Q 41.65625 56 45.828125 52.96875 
Q 50 49.953125 52 44.1875 
z
" id="DejaVuSans-109"/>
     </defs>
     <g transform="translate(672.6102 160.749891)scale(0.09996 -0.09996)">
      <use xlink:href="#DejaVuSans-65"/>
      <use x="66.658203" xlink:href="#DejaVuSans-100"/>
      <use x="130.134766" xlink:href="#DejaVuSans-97"/>
      <use x="191.414062" xlink:href="#DejaVuSans-109"/>
     </g>
    </g>
    <g id="line2d_41">
     <path d="M 647.6202 171.923544 
L 661.6146 171.923544 
" style="fill:none;stroke:#008000;stroke-linecap:square;stroke-width:1.2;"/>
    </g>
    <g id="line2d_42"/>
    <g id="text_21">
     <!-- Nadam -->
     <defs>
      <path d="M 9.8125 72.90625 
L 23.09375 72.90625 
L 55.421875 11.921875 
L 55.421875 72.90625 
L 64.984375 72.90625 
L 64.984375 0 
L 51.703125 0 
L 19.390625 60.984375 
L 19.390625 0 
L 9.8125 0 
z
" id="DejaVuSans-78"/>
     </defs>
     <g transform="translate(672.6102 175.422144)scale(0.09996 -0.09996)">
      <use xlink:href="#DejaVuSans-78"/>
      <use x="74.804688" xlink:href="#DejaVuSans-97"/>
      <use x="136.083984" xlink:href="#DejaVuSans-100"/>
      <use x="199.560547" xlink:href="#DejaVuSans-97"/>
      <use x="260.839844" xlink:href="#DejaVuSans-109"/>
     </g>
    </g>
    <g id="line2d_43">
     <path d="M 647.6202 186.595798 
L 661.6146 186.595798 
" style="fill:none;stroke:#ff0000;stroke-linecap:square;stroke-width:1.2;"/>
    </g>
    <g id="line2d_44"/>
    <g id="text_22">
     <!-- Adamax -->
     <defs>
      <path d="M 54.890625 54.6875 
L 35.109375 28.078125 
L 55.90625 0 
L 45.3125 0 
L 29.390625 21.484375 
L 13.484375 0 
L 2.875 0 
L 24.125 28.609375 
L 4.6875 54.6875 
L 15.28125 54.6875 
L 29.78125 35.203125 
L 44.28125 54.6875 
z
" id="DejaVuSans-120"/>
     </defs>
     <g transform="translate(672.6102 190.094398)scale(0.09996 -0.09996)">
      <use xlink:href="#DejaVuSans-65"/>
      <use x="66.658203" xlink:href="#DejaVuSans-100"/>
      <use x="130.134766" xlink:href="#DejaVuSans-97"/>
      <use x="191.414062" xlink:href="#DejaVuSans-109"/>
      <use x="288.826172" xlink:href="#DejaVuSans-97"/>
      <use x="350.105469" xlink:href="#DejaVuSans-120"/>
     </g>
    </g>
    <g id="line2d_45">
     <path d="M 647.6202 201.268052 
L 661.6146 201.268052 
" style="fill:none;stroke:#00bfbf;stroke-linecap:square;stroke-width:1.2;"/>
    </g>
    <g id="line2d_46"/>
    <g id="text_23">
     <!-- RMSProp -->
     <defs>
      <path d="M 44.390625 34.1875 
Q 47.5625 33.109375 50.5625 29.59375 
Q 53.5625 26.078125 56.59375 19.921875 
L 66.609375 0 
L 56 0 
L 46.6875 18.703125 
Q 43.0625 26.03125 39.671875 28.421875 
Q 36.28125 30.8125 30.421875 30.8125 
L 19.671875 30.8125 
L 19.671875 0 
L 9.8125 0 
L 9.8125 72.90625 
L 32.078125 72.90625 
Q 44.578125 72.90625 50.734375 67.671875 
Q 56.890625 62.453125 56.890625 51.90625 
Q 56.890625 45.015625 53.6875 40.46875 
Q 50.484375 35.9375 44.390625 34.1875 
z
M 19.671875 64.796875 
L 19.671875 38.921875 
L 32.078125 38.921875 
Q 39.203125 38.921875 42.84375 42.21875 
Q 46.484375 45.515625 46.484375 51.90625 
Q 46.484375 58.296875 42.84375 61.546875 
Q 39.203125 64.796875 32.078125 64.796875 
z
" id="DejaVuSans-82"/>
      <path d="M 9.8125 72.90625 
L 24.515625 72.90625 
L 43.109375 23.296875 
L 61.8125 72.90625 
L 76.515625 72.90625 
L 76.515625 0 
L 66.890625 0 
L 66.890625 64.015625 
L 48.09375 14.015625 
L 38.1875 14.015625 
L 19.390625 64.015625 
L 19.390625 0 
L 9.8125 0 
z
" id="DejaVuSans-77"/>
      <path d="M 53.515625 70.515625 
L 53.515625 60.890625 
Q 47.90625 63.578125 42.921875 64.890625 
Q 37.9375 66.21875 33.296875 66.21875 
Q 25.25 66.21875 20.875 63.09375 
Q 16.5 59.96875 16.5 54.203125 
Q 16.5 49.359375 19.40625 46.890625 
Q 22.3125 44.4375 30.421875 42.921875 
L 36.375 41.703125 
Q 47.40625 39.59375 52.65625 34.296875 
Q 57.90625 29 57.90625 20.125 
Q 57.90625 9.515625 50.796875 4.046875 
Q 43.703125 -1.421875 29.984375 -1.421875 
Q 24.8125 -1.421875 18.96875 -0.25 
Q 13.140625 0.921875 6.890625 3.21875 
L 6.890625 13.375 
Q 12.890625 10.015625 18.65625 8.296875 
Q 24.421875 6.59375 29.984375 6.59375 
Q 38.421875 6.59375 43.015625 9.90625 
Q 47.609375 13.234375 47.609375 19.390625 
Q 47.609375 24.75 44.3125 27.78125 
Q 41.015625 30.8125 33.5 32.328125 
L 27.484375 33.5 
Q 16.453125 35.6875 11.515625 40.375 
Q 6.59375 45.0625 6.59375 53.421875 
Q 6.59375 63.09375 13.40625 68.65625 
Q 20.21875 74.21875 32.171875 74.21875 
Q 37.3125 74.21875 42.625 73.28125 
Q 47.953125 72.359375 53.515625 70.515625 
z
" id="DejaVuSans-83"/>
      <path d="M 19.671875 64.796875 
L 19.671875 37.40625 
L 32.078125 37.40625 
Q 38.96875 37.40625 42.71875 40.96875 
Q 46.484375 44.53125 46.484375 51.125 
Q 46.484375 57.671875 42.71875 61.234375 
Q 38.96875 64.796875 32.078125 64.796875 
z
M 9.8125 72.90625 
L 32.078125 72.90625 
Q 44.34375 72.90625 50.609375 67.359375 
Q 56.890625 61.8125 56.890625 51.125 
Q 56.890625 40.328125 50.609375 34.8125 
Q 44.34375 29.296875 32.078125 29.296875 
L 19.671875 29.296875 
L 19.671875 0 
L 9.8125 0 
z
" id="DejaVuSans-80"/>
      <path d="M 18.109375 8.203125 
L 18.109375 -20.796875 
L 9.078125 -20.796875 
L 9.078125 54.6875 
L 18.109375 54.6875 
L 18.109375 46.390625 
Q 20.953125 51.265625 25.265625 53.625 
Q 29.59375 56 35.59375 56 
Q 45.5625 56 51.78125 48.09375 
Q 58.015625 40.1875 58.015625 27.296875 
Q 58.015625 14.40625 51.78125 6.484375 
Q 45.5625 -1.421875 35.59375 -1.421875 
Q 29.59375 -1.421875 25.265625 0.953125 
Q 20.953125 3.328125 18.109375 8.203125 
z
M 48.6875 27.296875 
Q 48.6875 37.203125 44.609375 42.84375 
Q 40.53125 48.484375 33.40625 48.484375 
Q 26.265625 48.484375 22.1875 42.84375 
Q 18.109375 37.203125 18.109375 27.296875 
Q 18.109375 17.390625 22.1875 11.75 
Q 26.265625 6.109375 33.40625 6.109375 
Q 40.53125 6.109375 44.609375 11.75 
Q 48.6875 17.390625 48.6875 27.296875 
z
" id="DejaVuSans-112"/>
     </defs>
     <g transform="translate(672.6102 204.766652)scale(0.09996 -0.09996)">
      <use xlink:href="#DejaVuSans-82"/>
      <use x="69.482422" xlink:href="#DejaVuSans-77"/>
      <use x="155.761719" xlink:href="#DejaVuSans-83"/>
      <use x="219.238281" xlink:href="#DejaVuSans-80"/>
      <use x="277.791016" xlink:href="#DejaVuSans-114"/>
      <use x="316.654297" xlink:href="#DejaVuSans-111"/>
      <use x="377.835938" xlink:href="#DejaVuSans-112"/>
     </g>
    </g>
   </g>
  </g>
  <g id="text_24">
   <!-- Average Accuracy -->
   <defs>
    <path d="M 2.984375 54.6875 
L 12.5 54.6875 
L 29.59375 8.796875 
L 46.6875 54.6875 
L 56.203125 54.6875 
L 35.6875 0 
L 23.484375 0 
z
" id="DejaVuSans-118"/>
    <path id="DejaVuSans-32"/>
   </defs>
   <g transform="translate(396.06 16.318125)scale(0.12 -0.12)">
    <use xlink:href="#DejaVuSans-65"/>
    <use x="62.533203" xlink:href="#DejaVuSans-118"/>
    <use x="121.712891" xlink:href="#DejaVuSans-101"/>
    <use x="183.236328" xlink:href="#DejaVuSans-114"/>
    <use x="224.349609" xlink:href="#DejaVuSans-97"/>
    <use x="285.628906" xlink:href="#DejaVuSans-103"/>
    <use x="349.105469" xlink:href="#DejaVuSans-101"/>
    <use x="410.628906" xlink:href="#DejaVuSans-32"/>
    <use x="442.416016" xlink:href="#DejaVuSans-65"/>
    <use x="509.074219" xlink:href="#DejaVuSans-99"/>
    <use x="564.054688" xlink:href="#DejaVuSans-99"/>
    <use x="619.035156" xlink:href="#DejaVuSans-117"/>
    <use x="682.414062" xlink:href="#DejaVuSans-114"/>
    <use x="723.527344" xlink:href="#DejaVuSans-97"/>
    <use x="784.806641" xlink:href="#DejaVuSans-99"/>
    <use x="839.787109" xlink:href="#DejaVuSans-121"/>
   </g>
  </g>
 </g>
 <defs>
  <clipPath id="p74e91a0ad8">
   <rect height="288" width="523.125" x="112.5" y="36"/>
  </clipPath>
 </defs>
</svg>
