<?xml version="1.0" encoding="utf-8" standalone="no"?>
<!DOCTYPE svg PUBLIC "-//W3C//DTD SVG 1.1//EN"
  "http://www.w3.org/Graphics/SVG/1.1/DTD/svg11.dtd">
<!-- Created with matplotlib (https://matplotlib.org/) -->
<svg height="360pt" version="1.1" viewBox="0 0 900 360" width="900pt" xmlns="http://www.w3.org/2000/svg" xmlns:xlink="http://www.w3.org/1999/xlink">
 <defs>
  <style type="text/css">
*{stroke-linecap:butt;stroke-linejoin:round;}
  </style>
 </defs>
 <g id="figure_1">
  <g id="patch_1">
   <path d="M 0 360 
L 900 360 
L 900 0 
L 0 0 
z
" style="fill:#ffffff;"/>
  </g>
  <g id="axes_1">
   <g id="patch_2">
    <path d="M 112.5 324 
L 635.625 324 
L 635.625 36 
L 112.5 36 
z
" style="fill:#ffffff;"/>
   </g>
   <g id="line2d_1">
    <path clip-path="url(#pb279ac4c2e)" d="M 112.886927 286.514287 
L 116.756195 264.914287 
L 120.625462 258.98836 
L 124.49473 260.055027 
L 128.363998 265.291391 
L 132.233266 262.980279 
L 136.102533 259.698228 
L 139.971801 262.230326 
L 143.841069 258.577713 
L 147.710337 256.412792 
L 151.579604 255.148005 
L 155.448872 244.849795 
L 159.31814 243.126938 
L 163.187408 240.539402 
L 167.056675 234.440101 
L 170.925943 234.880797 
L 174.795211 235.029618 
L 178.664479 233.317947 
L 182.533746 234.728318 
L 186.403014 230.964321 
L 190.272282 229.243161 
L 194.14155 228.186987 
L 198.010817 224.390027 
L 201.880085 221.27416 
L 205.749353 217.557972 
L 209.618621 213.119228 
L 213.487888 215.356785 
L 217.357156 212.647577 
L 221.226424 210.795827 
L 225.095692 206.796273 
L 228.964959 207.159513 
L 232.834227 203.241682 
L 236.703495 202.317768 
L 240.572763 195.571177 
L 244.44203 194.257608 
L 248.311298 189.703386 
L 252.180566 189.865471 
L 256.049834 183.612084 
L 259.919101 183.250833 
L 263.788369 180.14312 
L 267.657637 177.807628 
L 271.526905 172.275579 
L 275.396172 169.293953 
L 279.26544 170.665374 
L 283.134708 166.551525 
L 287.003976 164.938758 
L 290.873243 161.307653 
L 294.742511 161.843552 
L 298.611779 163.010319 
L 302.481047 163.511578 
L 306.350314 161.32026 
L 310.219582 165.512727 
L 314.08885 166.049186 
L 317.958118 165.757509 
L 321.827385 164.089352 
L 325.696653 166.305688 
L 329.565921 165.043697 
L 333.435189 159.750628 
L 337.304456 153.5638 
L 341.173724 151.126463 
L 345.042992 150.82151 
L 348.91226 148.652189 
L 352.781527 147.130124 
L 356.650795 143.947029 
L 360.520063 140.926239 
L 364.389331 141.102837 
L 368.258598 138.362558 
L 372.127866 138.716998 
L 375.997134 139.757881 
L 379.866402 135.416427 
L 383.735669 134.760227 
L 387.604937 135.434636 
L 391.474205 133.193492 
L 399.21274 127.732905 
L 403.082008 124.018163 
L 406.951276 123.141374 
L 410.820544 121.098898 
L 414.689811 120.324354 
L 418.559079 122.780574 
L 422.428347 123.499713 
L 426.297615 121.861263 
L 430.166882 118.249193 
L 434.03615 117.708769 
L 437.905418 115.314656 
L 441.774686 115.749808 
L 445.643953 112.255133 
L 449.513221 109.420935 
L 453.382489 106.822961 
L 457.251757 106.764533 
L 461.121024 102.14831 
L 464.990292 101.46372 
L 468.85956 96.754533 
L 472.728828 96.710897 
L 476.598095 96.225509 
L 480.467363 98.528269 
L 484.336631 100.356249 
L 488.205899 101.859424 
L 492.075166 101.06935 
L 495.944434 102.714079 
L 499.813702 102.683555 
L 503.68297 102.03161 
L 507.552237 98.854944 
L 511.421505 92.995869 
L 515.290773 92.478159 
L 519.160041 92.801914 
L 523.029308 89.085593 
L 526.898576 86.562673 
L 530.767844 85.865063 
L 534.637112 83.881226 
L 538.506379 87.610868 
L 542.375647 86.744154 
L 546.244915 83.816634 
L 550.114183 86.857483 
L 553.98345 86.716058 
L 557.852718 85.961007 
L 561.721986 86.941503 
L 565.591254 85.248988 
L 569.460521 83.821155 
L 573.329789 84.970221 
L 577.199057 83.019918 
L 581.068325 82.07919 
L 584.937592 81.616486 
L 588.80686 79.565843 
L 592.676128 79.456883 
L 596.545396 79.941682 
L 600.414663 78.406154 
L 604.283931 76.738428 
L 608.153199 75.599345 
L 612.022467 74.773484 
L 615.891734 75.398264 
L 619.761002 74.110077 
L 623.63027 72.278219 
L 627.499538 72.623498 
L 627.499538 72.623498 
" style="fill:none;stroke:#0000ff;stroke-linecap:square;stroke-width:1.2;"/>
   </g>
   <g id="line2d_2">
    <path clip-path="url(#pb279ac4c2e)" d="M 112.886927 306.32381 
L 116.756195 300.990477 
L 120.625462 297.908995 
L 124.49473 292.148995 
L 128.363998 295.445964 
L 132.233266 287.090409 
L 136.102533 282.495537 
L 139.971801 278.201054 
L 143.841069 267.422381 
L 147.710337 262.287513 
L 155.448872 247.682066 
L 159.31814 242.517321 
L 163.187408 239.934382 
L 167.056675 234.201048 
L 170.925943 233.942997 
L 174.795211 228.316496 
L 178.664479 230.373922 
L 182.533746 225.760475 
L 186.403014 223.486871 
L 190.272282 220.580653 
L 194.14155 217.071391 
L 198.010817 215.117166 
L 201.880085 212.296704 
L 205.749353 207.624097 
L 209.618621 205.244376 
L 213.487888 205.810338 
L 217.357156 200.243391 
L 221.226424 199.113031 
L 225.095692 195.584508 
L 228.964959 193.150237 
L 232.834227 190.067632 
L 236.703495 186.27455 
L 240.572763 184.935899 
L 244.44203 187.040451 
L 248.311298 183.48615 
L 252.180566 179.273455 
L 256.049834 180.339344 
L 259.919101 178.606398 
L 263.788369 180.149874 
L 267.657637 175.843256 
L 271.526905 171.863985 
L 275.396172 170.969973 
L 279.26544 171.315859 
L 283.134708 165.042257 
L 287.003976 162.029631 
L 290.873243 154.563972 
L 294.742511 150.465565 
L 298.611779 149.475943 
L 302.481047 145.52512 
L 306.350314 140.095063 
L 310.219582 136.042714 
L 314.08885 128.956541 
L 317.958118 126.330329 
L 321.827385 123.160952 
L 325.696653 117.362363 
L 333.435189 107.322499 
L 337.304456 103.144021 
L 341.173724 100.666134 
L 345.042992 95.574017 
L 348.91226 90.005791 
L 352.781527 85.439901 
L 356.650795 81.560438 
L 360.520063 81.712075 
L 364.389331 79.407053 
L 368.258598 80.39738 
L 372.127866 82.01969 
L 375.997134 80.584862 
L 379.866402 82.180629 
L 383.735669 82.556541 
L 387.604937 79.50355 
L 391.474205 79.510973 
L 395.343473 77.801763 
L 399.21274 75.343974 
L 403.082008 75.761341 
L 406.951276 73.462421 
L 410.820544 73.255181 
L 414.689811 73.59505 
L 418.559079 72.483569 
L 422.428347 70.925759 
L 426.297615 70.421793 
L 430.166882 71.32388 
L 434.03615 71.651684 
L 437.905418 70.215518 
L 441.774686 70.283759 
L 445.643953 71.099159 
L 449.513221 71.440702 
L 453.382489 72.503695 
L 457.251757 70.461117 
L 461.121024 70.861843 
L 464.990292 72.880791 
L 468.85956 72.752357 
L 472.728828 78.130808 
L 484.336631 79.088526 
L 488.205899 79.885451 
L 492.075166 78.290937 
L 495.944434 79.373392 
L 499.813702 73.889488 
L 503.68297 73.372166 
L 507.552237 71.643586 
L 511.421505 73.532437 
L 515.290773 73.207846 
L 519.160041 73.145044 
L 523.029308 71.024915 
L 526.898576 71.132769 
L 534.637112 72.107174 
L 538.506379 70.356513 
L 542.375647 70.957693 
L 546.244915 71.77405 
L 550.114183 71.995778 
L 553.98345 70.585241 
L 565.591254 70.915867 
L 569.460521 69.435727 
L 573.329789 68.927651 
L 577.199057 70.660872 
L 581.068325 70.502587 
L 584.937592 70.982018 
L 588.80686 70.673696 
L 592.676128 69.998657 
L 596.545396 70.370165 
L 600.414663 70.152923 
L 604.283931 68.965132 
L 608.153199 70.339661 
L 612.022467 69.330325 
L 615.891734 69.32902 
L 619.761002 70.350433 
L 623.63027 69.84177 
L 627.499538 70.365191 
L 627.499538 70.365191 
" style="fill:none;stroke:#008000;stroke-linecap:square;stroke-width:1.2;"/>
   </g>
   <g id="line2d_3">
    <path clip-path="url(#pb279ac4c2e)" d="M 112.886927 281.638096 
L 116.756195 267.238096 
L 120.625462 258.230689 
L 124.49473 246.497355 
L 128.363998 243.782203 
L 132.233266 238.982203 
L 136.102533 231.925793 
L 139.971801 227.117154 
L 143.841069 224.523235 
L 147.710337 218.648303 
L 151.579604 221.75735 
L 155.448872 215.960567 
L 159.31814 208.117877 
L 163.187408 200.871114 
L 167.056675 195.898342 
L 170.925943 189.922069 
L 174.795211 185.25082 
L 178.664479 175.386215 
L 182.533746 170.131777 
L 186.403014 170.655924 
L 190.272282 169.316293 
L 194.14155 166.286905 
L 198.010817 167.258559 
L 201.880085 168.828385 
L 205.749353 167.175218 
L 209.618621 167.932406 
L 213.487888 165.097263 
L 217.357156 159.193235 
L 221.226424 158.155261 
L 225.095692 151.383212 
L 228.964959 146.102815 
L 232.834227 142.184425 
L 236.703495 135.937145 
L 240.572763 129.263289 
L 244.44203 126.632781 
L 248.311298 121.746436 
L 252.180566 119.794889 
L 256.049834 115.145562 
L 259.919101 113.722059 
L 263.788369 112.505514 
L 267.657637 109.083121 
L 271.526905 107.569045 
L 275.396172 103.196425 
L 279.26544 101.26321 
L 283.134708 100.031234 
L 287.003976 98.157581 
L 290.873243 95.905175 
L 294.742511 95.219692 
L 298.611779 90.495383 
L 302.481047 88.533764 
L 306.350314 87.554576 
L 310.219582 86.430731 
L 314.08885 83.559434 
L 317.958118 81.461044 
L 321.827385 80.894994 
L 325.696653 82.289837 
L 329.565921 81.645432 
L 333.435189 79.878062 
L 337.304456 77.240678 
L 341.173724 76.918722 
L 345.042992 74.928288 
L 348.91226 73.977002 
L 352.781527 72.517041 
L 356.650795 72.471267 
L 360.520063 69.932283 
L 364.389331 69.370098 
L 368.258598 67.476614 
L 372.127866 67.723921 
L 375.997134 66.422402 
L 379.866402 65.297173 
L 383.735669 63.432499 
L 387.604937 61.947901 
L 391.474205 63.838501 
L 395.343473 62.902236 
L 399.21274 61.382619 
L 403.082008 60.502636 
L 406.951276 58.985107 
L 410.820544 58.643 
L 414.689811 59.701597 
L 418.559079 56.59363 
L 422.428347 58.569891 
L 426.297615 58.51763 
L 430.166882 58.693142 
L 437.905418 60.553681 
L 441.774686 59.142303 
L 445.643953 59.994765 
L 449.513221 59.776165 
L 453.382489 59.216566 
L 457.251757 58.108111 
L 461.121024 58.809609 
L 464.990292 58.511348 
L 468.85956 60.432043 
L 472.728828 59.645167 
L 476.598095 59.142783 
L 480.467363 60.285825 
L 484.336631 62.586675 
L 488.205899 61.892603 
L 492.075166 62.480905 
L 495.944434 61.325689 
L 499.813702 61.126755 
L 503.68297 60.13065 
L 507.552237 61.75974 
L 511.421505 60.055103 
L 515.290773 60.570167 
L 523.029308 61.212146 
L 526.898576 65.97769 
L 534.637112 67.809003 
L 538.506379 69.225969 
L 542.375647 67.430262 
L 546.244915 66.12627 
L 550.114183 68.801715 
L 553.98345 65.080487 
L 557.852718 67.728747 
L 561.721986 65.261035 
L 565.591254 65.776553 
L 569.460521 68.60319 
L 573.329789 68.465517 
L 577.199057 66.470425 
L 581.068325 67.233754 
L 584.937592 62.108498 
L 588.80686 62.030098 
L 596.545396 57.957313 
L 600.414663 57.313092 
L 604.283931 55.459964 
L 608.153199 54.882493 
L 612.022467 56.952288 
L 615.891734 56.675161 
L 619.761002 56.512756 
L 623.63027 56.712909 
L 627.499538 57.999508 
L 631.368805 58.933556 
L 635.238073 58.217073 
L 635.238073 58.217073 
" style="fill:none;stroke:#ff0000;stroke-linecap:square;stroke-width:1.2;"/>
   </g>
   <g id="line2d_4">
    <path clip-path="url(#pb279ac4c2e)" d="M 112.886927 303.27619 
L 116.756195 284.342857 
L 120.625462 279.128042 
L 124.49473 263.981375 
L 128.363998 257.969254 
L 132.233266 248.902587 
L 136.102533 240.697459 
L 139.971801 232.109351 
L 143.841069 225.137543 
L 147.710337 210.810069 
L 155.448872 191.530379 
L 159.31814 185.640209 
L 163.187408 176.974267 
L 167.056675 170.763876 
L 170.925943 161.165901 
L 174.795211 154.065068 
L 178.664479 147.477412 
L 182.533746 143.104107 
L 186.403014 133.596202 
L 190.272282 129.11071 
L 194.14155 119.998928 
L 198.010817 115.355315 
L 201.880085 110.900719 
L 205.749353 107.758922 
L 209.618621 101.429806 
L 213.487888 98.791364 
L 217.357156 93.997569 
L 221.226424 92.653874 
L 225.095692 90.415302 
L 228.964959 90.644629 
L 232.834227 89.656349 
L 236.703495 89.407109 
L 240.572763 88.685243 
L 244.44203 87.620193 
L 248.311298 87.232987 
L 252.180566 87.152295 
L 256.049834 86.883654 
L 259.919101 86.178063 
L 263.788369 86.25788 
L 267.657637 85.250647 
L 271.526905 86.381194 
L 275.396172 87.300287 
L 279.26544 87.968081 
L 283.134708 87.559191 
L 287.003976 85.039791 
L 294.742511 84.417733 
L 298.611779 85.087211 
L 302.481047 84.752872 
L 306.350314 82.208112 
L 310.219582 80.811876 
L 314.08885 81.143062 
L 317.958118 78.237503 
L 321.827385 77.269793 
L 325.696653 74.371017 
L 333.435189 74.788995 
L 337.304456 73.176979 
L 341.173724 73.548818 
L 345.042992 75.157381 
L 348.91226 75.323093 
L 352.781527 75.888638 
L 356.650795 74.021838 
L 360.520063 75.111544 
L 364.389331 75.42446 
L 368.258598 74.748228 
L 372.127866 74.880857 
L 375.997134 74.026326 
L 379.866402 74.211277 
L 383.735669 73.733541 
L 387.604937 71.65831 
L 391.474205 72.517324 
L 395.343473 72.838024 
L 399.21274 69.891139 
L 403.082008 69.573048 
L 406.951276 67.411133 
L 410.820544 65.119665 
L 414.689811 63.139769 
L 418.559079 60.120983 
L 422.428347 58.650441 
L 426.297615 57.785772 
L 430.166882 53.597007 
L 434.03615 53.847203 
L 437.905418 53.144193 
L 441.774686 52.211199 
L 445.643953 53.079678 
L 449.513221 51.010131 
L 453.382489 50.981236 
L 457.251757 51.764638 
L 461.121024 50.948031 
L 464.990292 53.732941 
L 468.85956 53.849998 
L 472.728828 53.581049 
L 476.598095 54.92753 
L 480.467363 55.395194 
L 484.336631 56.002673 
L 488.205899 55.735081 
L 492.075166 51.95063 
L 495.944434 53.44555 
L 499.813702 52.450512 
L 503.68297 51.931767 
L 507.552237 52.814068 
L 511.421505 53.389303 
L 515.290773 53.701167 
L 519.160041 55.640952 
L 523.029308 53.020085 
L 526.898576 53.063898 
L 530.767844 52.658678 
L 534.637112 53.139032 
L 538.506379 52.299268 
L 542.375647 51.863225 
L 546.244915 52.557246 
L 550.114183 53.834463 
L 553.98345 53.729635 
L 557.852718 53.483811 
L 561.721986 51.376998 
L 565.591254 51.306054 
L 569.460521 51.919605 
L 573.329789 51.378248 
L 577.199057 51.681616 
L 581.068325 52.836897 
L 584.937592 53.607648 
L 588.80686 55.256159 
L 592.676128 57.201039 
L 596.545396 55.802175 
L 600.414663 55.687683 
L 604.283931 56.290145 
L 608.153199 56.744484 
L 612.022467 56.55352 
L 615.891734 55.818213 
L 619.761002 53.57565 
L 619.761002 53.57565 
" style="fill:none;stroke:#00bfbf;stroke-linecap:square;stroke-width:1.2;"/>
   </g>
   <g id="patch_3">
    <path d="M 112.5 324 
L 112.5 36 
" style="fill:none;stroke:#000000;stroke-linecap:square;stroke-linejoin:miter;"/>
   </g>
   <g id="patch_4">
    <path d="M 635.625 324 
L 635.625 36 
" style="fill:none;stroke:#000000;stroke-linecap:square;stroke-linejoin:miter;"/>
   </g>
   <g id="patch_5">
    <path d="M 112.5 324 
L 635.625 324 
" style="fill:none;stroke:#000000;stroke-linecap:square;stroke-linejoin:miter;"/>
   </g>
   <g id="patch_6">
    <path d="M 112.5 36 
L 635.625 36 
" style="fill:none;stroke:#000000;stroke-linecap:square;stroke-linejoin:miter;"/>
   </g>
   <g id="matplotlib.axis_1">
    <g id="xtick_1">
     <g id="line2d_5">
      <defs>
       <path d="M 0 0 
L 0 -4 
" id="m2b79af96d8" style="stroke:#000000;stroke-width:0.5;"/>
      </defs>
      <g>
       <use style="stroke:#000000;stroke-width:0.5;" x="112.886927" xlink:href="#m2b79af96d8" y="324"/>
      </g>
     </g>
     <g id="line2d_6">
      <defs>
       <path d="M 0 0 
L 0 4 
" id="m2a28e0001e" style="stroke:#000000;stroke-width:0.5;"/>
      </defs>
      <g>
       <use style="stroke:#000000;stroke-width:0.5;" x="112.886927" xlink:href="#m2a28e0001e" y="36"/>
      </g>
     </g>
     <g id="text_1">
      <!-- 0 -->
      <defs>
       <path d="M 31.78125 66.40625 
Q 24.171875 66.40625 20.328125 58.90625 
Q 16.5 51.421875 16.5 36.375 
Q 16.5 21.390625 20.328125 13.890625 
Q 24.171875 6.390625 31.78125 6.390625 
Q 39.453125 6.390625 43.28125 13.890625 
Q 47.125 21.390625 47.125 36.375 
Q 47.125 51.421875 43.28125 58.90625 
Q 39.453125 66.40625 31.78125 66.40625 
z
M 31.78125 74.21875 
Q 44.046875 74.21875 50.515625 64.515625 
Q 56.984375 54.828125 56.984375 36.375 
Q 56.984375 17.96875 50.515625 8.265625 
Q 44.046875 -1.421875 31.78125 -1.421875 
Q 19.53125 -1.421875 13.0625 8.265625 
Q 6.59375 17.96875 6.59375 36.375 
Q 6.59375 54.828125 13.0625 64.515625 
Q 19.53125 74.21875 31.78125 74.21875 
z
" id="DejaVuSans-48"/>
      </defs>
      <g transform="translate(109.069427 337.118125)scale(0.12 -0.12)">
       <use xlink:href="#DejaVuSans-48"/>
      </g>
     </g>
    </g>
    <g id="xtick_2">
     <g id="line2d_7">
      <g>
       <use style="stroke:#000000;stroke-width:0.5;" x="167.056675" xlink:href="#m2b79af96d8" y="324"/>
      </g>
     </g>
     <g id="line2d_8">
      <g>
       <use style="stroke:#000000;stroke-width:0.5;" x="167.056675" xlink:href="#m2a28e0001e" y="36"/>
      </g>
     </g>
     <g id="text_2">
      <!-- 14 -->
      <defs>
       <path d="M 12.40625 8.296875 
L 28.515625 8.296875 
L 28.515625 63.921875 
L 10.984375 60.40625 
L 10.984375 69.390625 
L 28.421875 72.90625 
L 38.28125 72.90625 
L 38.28125 8.296875 
L 54.390625 8.296875 
L 54.390625 0 
L 12.40625 0 
z
" id="DejaVuSans-49"/>
       <path d="M 37.796875 64.3125 
L 12.890625 25.390625 
L 37.796875 25.390625 
z
M 35.203125 72.90625 
L 47.609375 72.90625 
L 47.609375 25.390625 
L 58.015625 25.390625 
L 58.015625 17.1875 
L 47.609375 17.1875 
L 47.609375 0 
L 37.796875 0 
L 37.796875 17.1875 
L 4.890625 17.1875 
L 4.890625 26.703125 
z
" id="DejaVuSans-52"/>
      </defs>
      <g transform="translate(159.421675 337.118125)scale(0.12 -0.12)">
       <use xlink:href="#DejaVuSans-49"/>
       <use x="63.623047" xlink:href="#DejaVuSans-52"/>
      </g>
     </g>
    </g>
    <g id="xtick_3">
     <g id="line2d_9">
      <g>
       <use style="stroke:#000000;stroke-width:0.5;" x="221.226424" xlink:href="#m2b79af96d8" y="324"/>
      </g>
     </g>
     <g id="line2d_10">
      <g>
       <use style="stroke:#000000;stroke-width:0.5;" x="221.226424" xlink:href="#m2a28e0001e" y="36"/>
      </g>
     </g>
     <g id="text_3">
      <!-- 28 -->
      <defs>
       <path d="M 19.1875 8.296875 
L 53.609375 8.296875 
L 53.609375 0 
L 7.328125 0 
L 7.328125 8.296875 
Q 12.9375 14.109375 22.625 23.890625 
Q 32.328125 33.6875 34.8125 36.53125 
Q 39.546875 41.84375 41.421875 45.53125 
Q 43.3125 49.21875 43.3125 52.78125 
Q 43.3125 58.59375 39.234375 62.25 
Q 35.15625 65.921875 28.609375 65.921875 
Q 23.96875 65.921875 18.8125 64.3125 
Q 13.671875 62.703125 7.8125 59.421875 
L 7.8125 69.390625 
Q 13.765625 71.78125 18.9375 73 
Q 24.125 74.21875 28.421875 74.21875 
Q 39.75 74.21875 46.484375 68.546875 
Q 53.21875 62.890625 53.21875 53.421875 
Q 53.21875 48.921875 51.53125 44.890625 
Q 49.859375 40.875 45.40625 35.40625 
Q 44.1875 33.984375 37.640625 27.21875 
Q 31.109375 20.453125 19.1875 8.296875 
z
" id="DejaVuSans-50"/>
       <path d="M 31.78125 34.625 
Q 24.75 34.625 20.71875 30.859375 
Q 16.703125 27.09375 16.703125 20.515625 
Q 16.703125 13.921875 20.71875 10.15625 
Q 24.75 6.390625 31.78125 6.390625 
Q 38.8125 6.390625 42.859375 10.171875 
Q 46.921875 13.96875 46.921875 20.515625 
Q 46.921875 27.09375 42.890625 30.859375 
Q 38.875 34.625 31.78125 34.625 
z
M 21.921875 38.8125 
Q 15.578125 40.375 12.03125 44.71875 
Q 8.5 49.078125 8.5 55.328125 
Q 8.5 64.0625 14.71875 69.140625 
Q 20.953125 74.21875 31.78125 74.21875 
Q 42.671875 74.21875 48.875 69.140625 
Q 55.078125 64.0625 55.078125 55.328125 
Q 55.078125 49.078125 51.53125 44.71875 
Q 48 40.375 41.703125 38.8125 
Q 48.828125 37.15625 52.796875 32.3125 
Q 56.78125 27.484375 56.78125 20.515625 
Q 56.78125 9.90625 50.3125 4.234375 
Q 43.84375 -1.421875 31.78125 -1.421875 
Q 19.734375 -1.421875 13.25 4.234375 
Q 6.78125 9.90625 6.78125 20.515625 
Q 6.78125 27.484375 10.78125 32.3125 
Q 14.796875 37.15625 21.921875 38.8125 
z
M 18.3125 54.390625 
Q 18.3125 48.734375 21.84375 45.5625 
Q 25.390625 42.390625 31.78125 42.390625 
Q 38.140625 42.390625 41.71875 45.5625 
Q 45.3125 48.734375 45.3125 54.390625 
Q 45.3125 60.0625 41.71875 63.234375 
Q 38.140625 66.40625 31.78125 66.40625 
Q 25.390625 66.40625 21.84375 63.234375 
Q 18.3125 60.0625 18.3125 54.390625 
z
" id="DejaVuSans-56"/>
      </defs>
      <g transform="translate(213.591424 337.118125)scale(0.12 -0.12)">
       <use xlink:href="#DejaVuSans-50"/>
       <use x="63.623047" xlink:href="#DejaVuSans-56"/>
      </g>
     </g>
    </g>
    <g id="xtick_4">
     <g id="line2d_11">
      <g>
       <use style="stroke:#000000;stroke-width:0.5;" x="275.396172" xlink:href="#m2b79af96d8" y="324"/>
      </g>
     </g>
     <g id="line2d_12">
      <g>
       <use style="stroke:#000000;stroke-width:0.5;" x="275.396172" xlink:href="#m2a28e0001e" y="36"/>
      </g>
     </g>
     <g id="text_4">
      <!-- 42 -->
      <g transform="translate(267.761172 337.118125)scale(0.12 -0.12)">
       <use xlink:href="#DejaVuSans-52"/>
       <use x="63.623047" xlink:href="#DejaVuSans-50"/>
      </g>
     </g>
    </g>
    <g id="xtick_5">
     <g id="line2d_13">
      <g>
       <use style="stroke:#000000;stroke-width:0.5;" x="329.565921" xlink:href="#m2b79af96d8" y="324"/>
      </g>
     </g>
     <g id="line2d_14">
      <g>
       <use style="stroke:#000000;stroke-width:0.5;" x="329.565921" xlink:href="#m2a28e0001e" y="36"/>
      </g>
     </g>
     <g id="text_5">
      <!-- 56 -->
      <defs>
       <path d="M 10.796875 72.90625 
L 49.515625 72.90625 
L 49.515625 64.59375 
L 19.828125 64.59375 
L 19.828125 46.734375 
Q 21.96875 47.46875 24.109375 47.828125 
Q 26.265625 48.1875 28.421875 48.1875 
Q 40.625 48.1875 47.75 41.5 
Q 54.890625 34.8125 54.890625 23.390625 
Q 54.890625 11.625 47.5625 5.09375 
Q 40.234375 -1.421875 26.90625 -1.421875 
Q 22.3125 -1.421875 17.546875 -0.640625 
Q 12.796875 0.140625 7.71875 1.703125 
L 7.71875 11.625 
Q 12.109375 9.234375 16.796875 8.0625 
Q 21.484375 6.890625 26.703125 6.890625 
Q 35.15625 6.890625 40.078125 11.328125 
Q 45.015625 15.765625 45.015625 23.390625 
Q 45.015625 31 40.078125 35.4375 
Q 35.15625 39.890625 26.703125 39.890625 
Q 22.75 39.890625 18.8125 39.015625 
Q 14.890625 38.140625 10.796875 36.28125 
z
" id="DejaVuSans-53"/>
       <path d="M 33.015625 40.375 
Q 26.375 40.375 22.484375 35.828125 
Q 18.609375 31.296875 18.609375 23.390625 
Q 18.609375 15.53125 22.484375 10.953125 
Q 26.375 6.390625 33.015625 6.390625 
Q 39.65625 6.390625 43.53125 10.953125 
Q 47.40625 15.53125 47.40625 23.390625 
Q 47.40625 31.296875 43.53125 35.828125 
Q 39.65625 40.375 33.015625 40.375 
z
M 52.59375 71.296875 
L 52.59375 62.3125 
Q 48.875 64.0625 45.09375 64.984375 
Q 41.3125 65.921875 37.59375 65.921875 
Q 27.828125 65.921875 22.671875 59.328125 
Q 17.53125 52.734375 16.796875 39.40625 
Q 19.671875 43.65625 24.015625 45.921875 
Q 28.375 48.1875 33.59375 48.1875 
Q 44.578125 48.1875 50.953125 41.515625 
Q 57.328125 34.859375 57.328125 23.390625 
Q 57.328125 12.15625 50.6875 5.359375 
Q 44.046875 -1.421875 33.015625 -1.421875 
Q 20.359375 -1.421875 13.671875 8.265625 
Q 6.984375 17.96875 6.984375 36.375 
Q 6.984375 53.65625 15.1875 63.9375 
Q 23.390625 74.21875 37.203125 74.21875 
Q 40.921875 74.21875 44.703125 73.484375 
Q 48.484375 72.75 52.59375 71.296875 
z
" id="DejaVuSans-54"/>
      </defs>
      <g transform="translate(321.930921 337.118125)scale(0.12 -0.12)">
       <use xlink:href="#DejaVuSans-53"/>
       <use x="63.623047" xlink:href="#DejaVuSans-54"/>
      </g>
     </g>
    </g>
    <g id="xtick_6">
     <g id="line2d_15">
      <g>
       <use style="stroke:#000000;stroke-width:0.5;" x="383.735669" xlink:href="#m2b79af96d8" y="324"/>
      </g>
     </g>
     <g id="line2d_16">
      <g>
       <use style="stroke:#000000;stroke-width:0.5;" x="383.735669" xlink:href="#m2a28e0001e" y="36"/>
      </g>
     </g>
     <g id="text_6">
      <!-- 70 -->
      <defs>
       <path d="M 8.203125 72.90625 
L 55.078125 72.90625 
L 55.078125 68.703125 
L 28.609375 0 
L 18.3125 0 
L 43.21875 64.59375 
L 8.203125 64.59375 
z
" id="DejaVuSans-55"/>
      </defs>
      <g transform="translate(376.100669 337.118125)scale(0.12 -0.12)">
       <use xlink:href="#DejaVuSans-55"/>
       <use x="63.623047" xlink:href="#DejaVuSans-48"/>
      </g>
     </g>
    </g>
    <g id="xtick_7">
     <g id="line2d_17">
      <g>
       <use style="stroke:#000000;stroke-width:0.5;" x="437.905418" xlink:href="#m2b79af96d8" y="324"/>
      </g>
     </g>
     <g id="line2d_18">
      <g>
       <use style="stroke:#000000;stroke-width:0.5;" x="437.905418" xlink:href="#m2a28e0001e" y="36"/>
      </g>
     </g>
     <g id="text_7">
      <!-- 84 -->
      <g transform="translate(430.270418 337.118125)scale(0.12 -0.12)">
       <use xlink:href="#DejaVuSans-56"/>
       <use x="63.623047" xlink:href="#DejaVuSans-52"/>
      </g>
     </g>
    </g>
    <g id="xtick_8">
     <g id="line2d_19">
      <g>
       <use style="stroke:#000000;stroke-width:0.5;" x="492.075166" xlink:href="#m2b79af96d8" y="324"/>
      </g>
     </g>
     <g id="line2d_20">
      <g>
       <use style="stroke:#000000;stroke-width:0.5;" x="492.075166" xlink:href="#m2a28e0001e" y="36"/>
      </g>
     </g>
     <g id="text_8">
      <!-- 98 -->
      <defs>
       <path d="M 10.984375 1.515625 
L 10.984375 10.5 
Q 14.703125 8.734375 18.5 7.8125 
Q 22.3125 6.890625 25.984375 6.890625 
Q 35.75 6.890625 40.890625 13.453125 
Q 46.046875 20.015625 46.78125 33.40625 
Q 43.953125 29.203125 39.59375 26.953125 
Q 35.25 24.703125 29.984375 24.703125 
Q 19.046875 24.703125 12.671875 31.3125 
Q 6.296875 37.9375 6.296875 49.421875 
Q 6.296875 60.640625 12.9375 67.421875 
Q 19.578125 74.21875 30.609375 74.21875 
Q 43.265625 74.21875 49.921875 64.515625 
Q 56.59375 54.828125 56.59375 36.375 
Q 56.59375 19.140625 48.40625 8.859375 
Q 40.234375 -1.421875 26.421875 -1.421875 
Q 22.703125 -1.421875 18.890625 -0.6875 
Q 15.09375 0.046875 10.984375 1.515625 
z
M 30.609375 32.421875 
Q 37.25 32.421875 41.125 36.953125 
Q 45.015625 41.5 45.015625 49.421875 
Q 45.015625 57.28125 41.125 61.84375 
Q 37.25 66.40625 30.609375 66.40625 
Q 23.96875 66.40625 20.09375 61.84375 
Q 16.21875 57.28125 16.21875 49.421875 
Q 16.21875 41.5 20.09375 36.953125 
Q 23.96875 32.421875 30.609375 32.421875 
z
" id="DejaVuSans-57"/>
      </defs>
      <g transform="translate(484.440166 337.118125)scale(0.12 -0.12)">
       <use xlink:href="#DejaVuSans-57"/>
       <use x="63.623047" xlink:href="#DejaVuSans-56"/>
      </g>
     </g>
    </g>
    <g id="xtick_9">
     <g id="line2d_21">
      <g>
       <use style="stroke:#000000;stroke-width:0.5;" x="546.244915" xlink:href="#m2b79af96d8" y="324"/>
      </g>
     </g>
     <g id="line2d_22">
      <g>
       <use style="stroke:#000000;stroke-width:0.5;" x="546.244915" xlink:href="#m2a28e0001e" y="36"/>
      </g>
     </g>
     <g id="text_9">
      <!-- 112 -->
      <g transform="translate(534.792415 337.118125)scale(0.12 -0.12)">
       <use xlink:href="#DejaVuSans-49"/>
       <use x="63.623047" xlink:href="#DejaVuSans-49"/>
       <use x="127.246094" xlink:href="#DejaVuSans-50"/>
      </g>
     </g>
    </g>
    <g id="xtick_10">
     <g id="line2d_23">
      <g>
       <use style="stroke:#000000;stroke-width:0.5;" x="600.414663" xlink:href="#m2b79af96d8" y="324"/>
      </g>
     </g>
     <g id="line2d_24">
      <g>
       <use style="stroke:#000000;stroke-width:0.5;" x="600.414663" xlink:href="#m2a28e0001e" y="36"/>
      </g>
     </g>
     <g id="text_10">
      <!-- 126 -->
      <g transform="translate(588.962163 337.118125)scale(0.12 -0.12)">
       <use xlink:href="#DejaVuSans-49"/>
       <use x="63.623047" xlink:href="#DejaVuSans-50"/>
       <use x="127.246094" xlink:href="#DejaVuSans-54"/>
      </g>
     </g>
    </g>
    <g id="text_11">
     <!-- generation -->
     <defs>
      <path d="M 45.40625 27.984375 
Q 45.40625 37.75 41.375 43.109375 
Q 37.359375 48.484375 30.078125 48.484375 
Q 22.859375 48.484375 18.828125 43.109375 
Q 14.796875 37.75 14.796875 27.984375 
Q 14.796875 18.265625 18.828125 12.890625 
Q 22.859375 7.515625 30.078125 7.515625 
Q 37.359375 7.515625 41.375 12.890625 
Q 45.40625 18.265625 45.40625 27.984375 
z
M 54.390625 6.78125 
Q 54.390625 -7.171875 48.1875 -13.984375 
Q 42 -20.796875 29.203125 -20.796875 
Q 24.46875 -20.796875 20.265625 -20.09375 
Q 16.0625 -19.390625 12.109375 -17.921875 
L 12.109375 -9.1875 
Q 16.0625 -11.328125 19.921875 -12.34375 
Q 23.78125 -13.375 27.78125 -13.375 
Q 36.625 -13.375 41.015625 -8.765625 
Q 45.40625 -4.15625 45.40625 5.171875 
L 45.40625 9.625 
Q 42.625 4.78125 38.28125 2.390625 
Q 33.9375 0 27.875 0 
Q 17.828125 0 11.671875 7.65625 
Q 5.515625 15.328125 5.515625 27.984375 
Q 5.515625 40.671875 11.671875 48.328125 
Q 17.828125 56 27.875 56 
Q 33.9375 56 38.28125 53.609375 
Q 42.625 51.21875 45.40625 46.390625 
L 45.40625 54.6875 
L 54.390625 54.6875 
z
" id="DejaVuSans-103"/>
      <path d="M 56.203125 29.59375 
L 56.203125 25.203125 
L 14.890625 25.203125 
Q 15.484375 15.921875 20.484375 11.0625 
Q 25.484375 6.203125 34.421875 6.203125 
Q 39.59375 6.203125 44.453125 7.46875 
Q 49.3125 8.734375 54.109375 11.28125 
L 54.109375 2.78125 
Q 49.265625 0.734375 44.1875 -0.34375 
Q 39.109375 -1.421875 33.890625 -1.421875 
Q 20.796875 -1.421875 13.15625 6.1875 
Q 5.515625 13.8125 5.515625 26.8125 
Q 5.515625 40.234375 12.765625 48.109375 
Q 20.015625 56 32.328125 56 
Q 43.359375 56 49.78125 48.890625 
Q 56.203125 41.796875 56.203125 29.59375 
z
M 47.21875 32.234375 
Q 47.125 39.59375 43.09375 43.984375 
Q 39.0625 48.390625 32.421875 48.390625 
Q 24.90625 48.390625 20.390625 44.140625 
Q 15.875 39.890625 15.1875 32.171875 
z
" id="DejaVuSans-101"/>
      <path d="M 54.890625 33.015625 
L 54.890625 0 
L 45.90625 0 
L 45.90625 32.71875 
Q 45.90625 40.484375 42.875 44.328125 
Q 39.84375 48.1875 33.796875 48.1875 
Q 26.515625 48.1875 22.3125 43.546875 
Q 18.109375 38.921875 18.109375 30.90625 
L 18.109375 0 
L 9.078125 0 
L 9.078125 54.6875 
L 18.109375 54.6875 
L 18.109375 46.1875 
Q 21.34375 51.125 25.703125 53.5625 
Q 30.078125 56 35.796875 56 
Q 45.21875 56 50.046875 50.171875 
Q 54.890625 44.34375 54.890625 33.015625 
z
" id="DejaVuSans-110"/>
      <path d="M 41.109375 46.296875 
Q 39.59375 47.171875 37.8125 47.578125 
Q 36.03125 48 33.890625 48 
Q 26.265625 48 22.1875 43.046875 
Q 18.109375 38.09375 18.109375 28.8125 
L 18.109375 0 
L 9.078125 0 
L 9.078125 54.6875 
L 18.109375 54.6875 
L 18.109375 46.1875 
Q 20.953125 51.171875 25.484375 53.578125 
Q 30.03125 56 36.53125 56 
Q 37.453125 56 38.578125 55.875 
Q 39.703125 55.765625 41.0625 55.515625 
z
" id="DejaVuSans-114"/>
      <path d="M 34.28125 27.484375 
Q 23.390625 27.484375 19.1875 25 
Q 14.984375 22.515625 14.984375 16.5 
Q 14.984375 11.71875 18.140625 8.90625 
Q 21.296875 6.109375 26.703125 6.109375 
Q 34.1875 6.109375 38.703125 11.40625 
Q 43.21875 16.703125 43.21875 25.484375 
L 43.21875 27.484375 
z
M 52.203125 31.203125 
L 52.203125 0 
L 43.21875 0 
L 43.21875 8.296875 
Q 40.140625 3.328125 35.546875 0.953125 
Q 30.953125 -1.421875 24.3125 -1.421875 
Q 15.921875 -1.421875 10.953125 3.296875 
Q 6 8.015625 6 15.921875 
Q 6 25.140625 12.171875 29.828125 
Q 18.359375 34.515625 30.609375 34.515625 
L 43.21875 34.515625 
L 43.21875 35.40625 
Q 43.21875 41.609375 39.140625 45 
Q 35.0625 48.390625 27.6875 48.390625 
Q 23 48.390625 18.546875 47.265625 
Q 14.109375 46.140625 10.015625 43.890625 
L 10.015625 52.203125 
Q 14.9375 54.109375 19.578125 55.046875 
Q 24.21875 56 28.609375 56 
Q 40.484375 56 46.34375 49.84375 
Q 52.203125 43.703125 52.203125 31.203125 
z
" id="DejaVuSans-97"/>
      <path d="M 18.3125 70.21875 
L 18.3125 54.6875 
L 36.8125 54.6875 
L 36.8125 47.703125 
L 18.3125 47.703125 
L 18.3125 18.015625 
Q 18.3125 11.328125 20.140625 9.421875 
Q 21.96875 7.515625 27.59375 7.515625 
L 36.8125 7.515625 
L 36.8125 0 
L 27.59375 0 
Q 17.1875 0 13.234375 3.875 
Q 9.28125 7.765625 9.28125 18.015625 
L 9.28125 47.703125 
L 2.6875 47.703125 
L 2.6875 54.6875 
L 9.28125 54.6875 
L 9.28125 70.21875 
z
" id="DejaVuSans-116"/>
      <path d="M 9.421875 54.6875 
L 18.40625 54.6875 
L 18.40625 0 
L 9.421875 0 
z
M 9.421875 75.984375 
L 18.40625 75.984375 
L 18.40625 64.59375 
L 9.421875 64.59375 
z
" id="DejaVuSans-105"/>
      <path d="M 30.609375 48.390625 
Q 23.390625 48.390625 19.1875 42.75 
Q 14.984375 37.109375 14.984375 27.296875 
Q 14.984375 17.484375 19.15625 11.84375 
Q 23.34375 6.203125 30.609375 6.203125 
Q 37.796875 6.203125 41.984375 11.859375 
Q 46.1875 17.53125 46.1875 27.296875 
Q 46.1875 37.015625 41.984375 42.703125 
Q 37.796875 48.390625 30.609375 48.390625 
z
M 30.609375 56 
Q 42.328125 56 49.015625 48.375 
Q 55.71875 40.765625 55.71875 27.296875 
Q 55.71875 13.875 49.015625 6.21875 
Q 42.328125 -1.421875 30.609375 -1.421875 
Q 18.84375 -1.421875 12.171875 6.21875 
Q 5.515625 13.875 5.515625 27.296875 
Q 5.515625 40.765625 12.171875 48.375 
Q 18.84375 56 30.609375 56 
z
" id="DejaVuSans-111"/>
     </defs>
     <g transform="translate(341.430938 353.731875)scale(0.12 -0.12)">
      <use xlink:href="#DejaVuSans-103"/>
      <use x="63.476562" xlink:href="#DejaVuSans-101"/>
      <use x="125" xlink:href="#DejaVuSans-110"/>
      <use x="188.378906" xlink:href="#DejaVuSans-101"/>
      <use x="249.902344" xlink:href="#DejaVuSans-114"/>
      <use x="291.015625" xlink:href="#DejaVuSans-97"/>
      <use x="352.294922" xlink:href="#DejaVuSans-116"/>
      <use x="391.503906" xlink:href="#DejaVuSans-105"/>
      <use x="419.287109" xlink:href="#DejaVuSans-111"/>
      <use x="480.46875" xlink:href="#DejaVuSans-110"/>
     </g>
    </g>
   </g>
   <g id="matplotlib.axis_2">
    <g id="ytick_1">
     <g id="line2d_25">
      <defs>
       <path d="M 0 0 
L 4 0 
" id="m421610720b" style="stroke:#000000;stroke-width:0.5;"/>
      </defs>
      <g>
       <use style="stroke:#000000;stroke-width:0.5;" x="112.5" xlink:href="#m421610720b" y="324"/>
      </g>
     </g>
     <g id="line2d_26">
      <defs>
       <path d="M 0 0 
L -4 0 
" id="mc9422f6830" style="stroke:#000000;stroke-width:0.5;"/>
      </defs>
      <g>
       <use style="stroke:#000000;stroke-width:0.5;" x="635.625" xlink:href="#mc9422f6830" y="324"/>
      </g>
     </g>
     <g id="text_12">
      <!-- 0.91 -->
      <defs>
       <path d="M 10.6875 12.40625 
L 21 12.40625 
L 21 0 
L 10.6875 0 
z
" id="DejaVuSans-46"/>
      </defs>
      <g transform="translate(81.78125 327.31125)scale(0.12 -0.12)">
       <use xlink:href="#DejaVuSans-48"/>
       <use x="63.623047" xlink:href="#DejaVuSans-46"/>
       <use x="95.410156" xlink:href="#DejaVuSans-57"/>
       <use x="159.033203" xlink:href="#DejaVuSans-49"/>
      </g>
     </g>
    </g>
    <g id="ytick_2">
     <g id="line2d_27">
      <g>
       <use style="stroke:#000000;stroke-width:0.5;" x="112.5" xlink:href="#m421610720b" y="260"/>
      </g>
     </g>
     <g id="line2d_28">
      <g>
       <use style="stroke:#000000;stroke-width:0.5;" x="635.625" xlink:href="#mc9422f6830" y="260"/>
      </g>
     </g>
     <g id="text_13">
      <!-- 0.92 -->
      <g transform="translate(81.78125 263.31125)scale(0.12 -0.12)">
       <use xlink:href="#DejaVuSans-48"/>
       <use x="63.623047" xlink:href="#DejaVuSans-46"/>
       <use x="95.410156" xlink:href="#DejaVuSans-57"/>
       <use x="159.033203" xlink:href="#DejaVuSans-50"/>
      </g>
     </g>
    </g>
    <g id="ytick_3">
     <g id="line2d_29">
      <g>
       <use style="stroke:#000000;stroke-width:0.5;" x="112.5" xlink:href="#m421610720b" y="196"/>
      </g>
     </g>
     <g id="line2d_30">
      <g>
       <use style="stroke:#000000;stroke-width:0.5;" x="635.625" xlink:href="#mc9422f6830" y="196"/>
      </g>
     </g>
     <g id="text_14">
      <!-- 0.93 -->
      <defs>
       <path d="M 40.578125 39.3125 
Q 47.65625 37.796875 51.625 33 
Q 55.609375 28.21875 55.609375 21.1875 
Q 55.609375 10.40625 48.1875 4.484375 
Q 40.765625 -1.421875 27.09375 -1.421875 
Q 22.515625 -1.421875 17.65625 -0.515625 
Q 12.796875 0.390625 7.625 2.203125 
L 7.625 11.71875 
Q 11.71875 9.328125 16.59375 8.109375 
Q 21.484375 6.890625 26.8125 6.890625 
Q 36.078125 6.890625 40.9375 10.546875 
Q 45.796875 14.203125 45.796875 21.1875 
Q 45.796875 27.640625 41.28125 31.265625 
Q 36.765625 34.90625 28.71875 34.90625 
L 20.21875 34.90625 
L 20.21875 43.015625 
L 29.109375 43.015625 
Q 36.375 43.015625 40.234375 45.921875 
Q 44.09375 48.828125 44.09375 54.296875 
Q 44.09375 59.90625 40.109375 62.90625 
Q 36.140625 65.921875 28.71875 65.921875 
Q 24.65625 65.921875 20.015625 65.03125 
Q 15.375 64.15625 9.8125 62.3125 
L 9.8125 71.09375 
Q 15.4375 72.65625 20.34375 73.4375 
Q 25.25 74.21875 29.59375 74.21875 
Q 40.828125 74.21875 47.359375 69.109375 
Q 53.90625 64.015625 53.90625 55.328125 
Q 53.90625 49.265625 50.4375 45.09375 
Q 46.96875 40.921875 40.578125 39.3125 
z
" id="DejaVuSans-51"/>
      </defs>
      <g transform="translate(81.78125 199.31125)scale(0.12 -0.12)">
       <use xlink:href="#DejaVuSans-48"/>
       <use x="63.623047" xlink:href="#DejaVuSans-46"/>
       <use x="95.410156" xlink:href="#DejaVuSans-57"/>
       <use x="159.033203" xlink:href="#DejaVuSans-51"/>
      </g>
     </g>
    </g>
    <g id="ytick_4">
     <g id="line2d_31">
      <g>
       <use style="stroke:#000000;stroke-width:0.5;" x="112.5" xlink:href="#m421610720b" y="132"/>
      </g>
     </g>
     <g id="line2d_32">
      <g>
       <use style="stroke:#000000;stroke-width:0.5;" x="635.625" xlink:href="#mc9422f6830" y="132"/>
      </g>
     </g>
     <g id="text_15">
      <!-- 0.94 -->
      <g transform="translate(81.78125 135.31125)scale(0.12 -0.12)">
       <use xlink:href="#DejaVuSans-48"/>
       <use x="63.623047" xlink:href="#DejaVuSans-46"/>
       <use x="95.410156" xlink:href="#DejaVuSans-57"/>
       <use x="159.033203" xlink:href="#DejaVuSans-52"/>
      </g>
     </g>
    </g>
    <g id="ytick_5">
     <g id="line2d_33">
      <g>
       <use style="stroke:#000000;stroke-width:0.5;" x="112.5" xlink:href="#m421610720b" y="68"/>
      </g>
     </g>
     <g id="line2d_34">
      <g>
       <use style="stroke:#000000;stroke-width:0.5;" x="635.625" xlink:href="#mc9422f6830" y="68"/>
      </g>
     </g>
     <g id="text_16">
      <!-- 0.95 -->
      <g transform="translate(81.78125 71.31125)scale(0.12 -0.12)">
       <use xlink:href="#DejaVuSans-48"/>
       <use x="63.623047" xlink:href="#DejaVuSans-46"/>
       <use x="95.410156" xlink:href="#DejaVuSans-57"/>
       <use x="159.033203" xlink:href="#DejaVuSans-53"/>
      </g>
     </g>
    </g>
    <g id="text_17">
     <!-- accuracy -->
     <defs>
      <path d="M 48.78125 52.59375 
L 48.78125 44.1875 
Q 44.96875 46.296875 41.140625 47.34375 
Q 37.3125 48.390625 33.40625 48.390625 
Q 24.65625 48.390625 19.8125 42.84375 
Q 14.984375 37.3125 14.984375 27.296875 
Q 14.984375 17.28125 19.8125 11.734375 
Q 24.65625 6.203125 33.40625 6.203125 
Q 37.3125 6.203125 41.140625 7.25 
Q 44.96875 8.296875 48.78125 10.40625 
L 48.78125 2.09375 
Q 45.015625 0.34375 40.984375 -0.53125 
Q 36.96875 -1.421875 32.421875 -1.421875 
Q 20.0625 -1.421875 12.78125 6.34375 
Q 5.515625 14.109375 5.515625 27.296875 
Q 5.515625 40.671875 12.859375 48.328125 
Q 20.21875 56 33.015625 56 
Q 37.15625 56 41.109375 55.140625 
Q 45.0625 54.296875 48.78125 52.59375 
z
" id="DejaVuSans-99"/>
      <path d="M 8.5 21.578125 
L 8.5 54.6875 
L 17.484375 54.6875 
L 17.484375 21.921875 
Q 17.484375 14.15625 20.5 10.265625 
Q 23.53125 6.390625 29.59375 6.390625 
Q 36.859375 6.390625 41.078125 11.03125 
Q 45.3125 15.671875 45.3125 23.6875 
L 45.3125 54.6875 
L 54.296875 54.6875 
L 54.296875 0 
L 45.3125 0 
L 45.3125 8.40625 
Q 42.046875 3.421875 37.71875 1 
Q 33.40625 -1.421875 27.6875 -1.421875 
Q 18.265625 -1.421875 13.375 4.4375 
Q 8.5 10.296875 8.5 21.578125 
z
M 31.109375 56 
z
" id="DejaVuSans-117"/>
      <path d="M 32.171875 -5.078125 
Q 28.375 -14.84375 24.75 -17.8125 
Q 21.140625 -20.796875 15.09375 -20.796875 
L 7.90625 -20.796875 
L 7.90625 -13.28125 
L 13.1875 -13.28125 
Q 16.890625 -13.28125 18.9375 -11.515625 
Q 21 -9.765625 23.484375 -3.21875 
L 25.09375 0.875 
L 2.984375 54.6875 
L 12.5 54.6875 
L 29.59375 11.921875 
L 46.6875 54.6875 
L 56.203125 54.6875 
z
" id="DejaVuSans-121"/>
     </defs>
     <g transform="translate(74.285625 207.07125)rotate(-90)scale(0.12 -0.12)">
      <use xlink:href="#DejaVuSans-97"/>
      <use x="61.279297" xlink:href="#DejaVuSans-99"/>
      <use x="116.259766" xlink:href="#DejaVuSans-99"/>
      <use x="171.240234" xlink:href="#DejaVuSans-117"/>
      <use x="234.619141" xlink:href="#DejaVuSans-114"/>
      <use x="275.732422" xlink:href="#DejaVuSans-97"/>
      <use x="337.011719" xlink:href="#DejaVuSans-99"/>
      <use x="391.992188" xlink:href="#DejaVuSans-121"/>
     </g>
    </g>
   </g>
   <g id="legend_1">
    <g id="patch_7">
     <path d="M 640.623 211.399935 
L 797.452431 211.399935 
L 797.452431 148.600065 
L 640.623 148.600065 
z
" style="fill:#ffffff;stroke:#000000;stroke-linejoin:miter;"/>
    </g>
    <g id="line2d_35">
     <path d="M 647.6202 156.695263 
L 661.6146 156.695263 
" style="fill:none;stroke:#0000ff;stroke-linecap:square;stroke-width:1.2;"/>
    </g>
    <g id="line2d_36"/>
    <g id="text_18">
     <!-- Crossover_mutation_0.2 -->
     <defs>
      <path d="M 64.40625 67.28125 
L 64.40625 56.890625 
Q 59.421875 61.53125 53.78125 63.8125 
Q 48.140625 66.109375 41.796875 66.109375 
Q 29.296875 66.109375 22.65625 58.46875 
Q 16.015625 50.828125 16.015625 36.375 
Q 16.015625 21.96875 22.65625 14.328125 
Q 29.296875 6.6875 41.796875 6.6875 
Q 48.140625 6.6875 53.78125 8.984375 
Q 59.421875 11.28125 64.40625 15.921875 
L 64.40625 5.609375 
Q 59.234375 2.09375 53.4375 0.328125 
Q 47.65625 -1.421875 41.21875 -1.421875 
Q 24.65625 -1.421875 15.125 8.703125 
Q 5.609375 18.84375 5.609375 36.375 
Q 5.609375 53.953125 15.125 64.078125 
Q 24.65625 74.21875 41.21875 74.21875 
Q 47.75 74.21875 53.53125 72.484375 
Q 59.328125 70.75 64.40625 67.28125 
z
" id="DejaVuSans-67"/>
      <path d="M 44.28125 53.078125 
L 44.28125 44.578125 
Q 40.484375 46.53125 36.375 47.5 
Q 32.28125 48.484375 27.875 48.484375 
Q 21.1875 48.484375 17.84375 46.4375 
Q 14.5 44.390625 14.5 40.28125 
Q 14.5 37.15625 16.890625 35.375 
Q 19.28125 33.59375 26.515625 31.984375 
L 29.59375 31.296875 
Q 39.15625 29.25 43.1875 25.515625 
Q 47.21875 21.78125 47.21875 15.09375 
Q 47.21875 7.46875 41.1875 3.015625 
Q 35.15625 -1.421875 24.609375 -1.421875 
Q 20.21875 -1.421875 15.453125 -0.5625 
Q 10.6875 0.296875 5.421875 2 
L 5.421875 11.28125 
Q 10.40625 8.6875 15.234375 7.390625 
Q 20.0625 6.109375 24.8125 6.109375 
Q 31.15625 6.109375 34.5625 8.28125 
Q 37.984375 10.453125 37.984375 14.40625 
Q 37.984375 18.0625 35.515625 20.015625 
Q 33.0625 21.96875 24.703125 23.78125 
L 21.578125 24.515625 
Q 13.234375 26.265625 9.515625 29.90625 
Q 5.8125 33.546875 5.8125 39.890625 
Q 5.8125 47.609375 11.28125 51.796875 
Q 16.75 56 26.8125 56 
Q 31.78125 56 36.171875 55.265625 
Q 40.578125 54.546875 44.28125 53.078125 
z
" id="DejaVuSans-115"/>
      <path d="M 2.984375 54.6875 
L 12.5 54.6875 
L 29.59375 8.796875 
L 46.6875 54.6875 
L 56.203125 54.6875 
L 35.6875 0 
L 23.484375 0 
z
" id="DejaVuSans-118"/>
      <path d="M 50.984375 -16.609375 
L 50.984375 -23.578125 
L -0.984375 -23.578125 
L -0.984375 -16.609375 
z
" id="DejaVuSans-95"/>
      <path d="M 52 44.1875 
Q 55.375 50.25 60.0625 53.125 
Q 64.75 56 71.09375 56 
Q 79.640625 56 84.28125 50.015625 
Q 88.921875 44.046875 88.921875 33.015625 
L 88.921875 0 
L 79.890625 0 
L 79.890625 32.71875 
Q 79.890625 40.578125 77.09375 44.375 
Q 74.3125 48.1875 68.609375 48.1875 
Q 61.625 48.1875 57.5625 43.546875 
Q 53.515625 38.921875 53.515625 30.90625 
L 53.515625 0 
L 44.484375 0 
L 44.484375 32.71875 
Q 44.484375 40.625 41.703125 44.40625 
Q 38.921875 48.1875 33.109375 48.1875 
Q 26.21875 48.1875 22.15625 43.53125 
Q 18.109375 38.875 18.109375 30.90625 
L 18.109375 0 
L 9.078125 0 
L 9.078125 54.6875 
L 18.109375 54.6875 
L 18.109375 46.1875 
Q 21.1875 51.21875 25.484375 53.609375 
Q 29.78125 56 35.6875 56 
Q 41.65625 56 45.828125 52.96875 
Q 50 49.953125 52 44.1875 
z
" id="DejaVuSans-109"/>
     </defs>
     <g transform="translate(672.6102 160.193863)scale(0.09996 -0.09996)">
      <use xlink:href="#DejaVuSans-67"/>
      <use x="69.824219" xlink:href="#DejaVuSans-114"/>
      <use x="108.6875" xlink:href="#DejaVuSans-111"/>
      <use x="169.869141" xlink:href="#DejaVuSans-115"/>
      <use x="221.96875" xlink:href="#DejaVuSans-115"/>
      <use x="274.068359" xlink:href="#DejaVuSans-111"/>
      <use x="335.25" xlink:href="#DejaVuSans-118"/>
      <use x="394.429688" xlink:href="#DejaVuSans-101"/>
      <use x="455.953125" xlink:href="#DejaVuSans-114"/>
      <use x="497.066406" xlink:href="#DejaVuSans-95"/>
      <use x="547.066406" xlink:href="#DejaVuSans-109"/>
      <use x="644.478516" xlink:href="#DejaVuSans-117"/>
      <use x="707.857422" xlink:href="#DejaVuSans-116"/>
      <use x="747.066406" xlink:href="#DejaVuSans-97"/>
      <use x="808.345703" xlink:href="#DejaVuSans-116"/>
      <use x="847.554688" xlink:href="#DejaVuSans-105"/>
      <use x="875.337891" xlink:href="#DejaVuSans-111"/>
      <use x="936.519531" xlink:href="#DejaVuSans-110"/>
      <use x="999.898438" xlink:href="#DejaVuSans-95"/>
      <use x="1049.898438" xlink:href="#DejaVuSans-48"/>
      <use x="1113.521484" xlink:href="#DejaVuSans-46"/>
      <use x="1145.308594" xlink:href="#DejaVuSans-50"/>
     </g>
    </g>
    <g id="line2d_37">
     <path d="M 647.6202 171.645531 
L 661.6146 171.645531 
" style="fill:none;stroke:#008000;stroke-linecap:square;stroke-width:1.2;"/>
    </g>
    <g id="line2d_38"/>
    <g id="text_19">
     <!-- Crossover_mutation_0.4 -->
     <g transform="translate(672.6102 175.144131)scale(0.09996 -0.09996)">
      <use xlink:href="#DejaVuSans-67"/>
      <use x="69.824219" xlink:href="#DejaVuSans-114"/>
      <use x="108.6875" xlink:href="#DejaVuSans-111"/>
      <use x="169.869141" xlink:href="#DejaVuSans-115"/>
      <use x="221.96875" xlink:href="#DejaVuSans-115"/>
      <use x="274.068359" xlink:href="#DejaVuSans-111"/>
      <use x="335.25" xlink:href="#DejaVuSans-118"/>
      <use x="394.429688" xlink:href="#DejaVuSans-101"/>
      <use x="455.953125" xlink:href="#DejaVuSans-114"/>
      <use x="497.066406" xlink:href="#DejaVuSans-95"/>
      <use x="547.066406" xlink:href="#DejaVuSans-109"/>
      <use x="644.478516" xlink:href="#DejaVuSans-117"/>
      <use x="707.857422" xlink:href="#DejaVuSans-116"/>
      <use x="747.066406" xlink:href="#DejaVuSans-97"/>
      <use x="808.345703" xlink:href="#DejaVuSans-116"/>
      <use x="847.554688" xlink:href="#DejaVuSans-105"/>
      <use x="875.337891" xlink:href="#DejaVuSans-111"/>
      <use x="936.519531" xlink:href="#DejaVuSans-110"/>
      <use x="999.898438" xlink:href="#DejaVuSans-95"/>
      <use x="1049.898438" xlink:href="#DejaVuSans-48"/>
      <use x="1113.521484" xlink:href="#DejaVuSans-46"/>
      <use x="1145.308594" xlink:href="#DejaVuSans-52"/>
     </g>
    </g>
    <g id="line2d_39">
     <path d="M 647.6202 186.595798 
L 661.6146 186.595798 
" style="fill:none;stroke:#ff0000;stroke-linecap:square;stroke-width:1.2;"/>
    </g>
    <g id="line2d_40"/>
    <g id="text_20">
     <!-- Crossover_mutation_0.6 -->
     <g transform="translate(672.6102 190.094398)scale(0.09996 -0.09996)">
      <use xlink:href="#DejaVuSans-67"/>
      <use x="69.824219" xlink:href="#DejaVuSans-114"/>
      <use x="108.6875" xlink:href="#DejaVuSans-111"/>
      <use x="169.869141" xlink:href="#DejaVuSans-115"/>
      <use x="221.96875" xlink:href="#DejaVuSans-115"/>
      <use x="274.068359" xlink:href="#DejaVuSans-111"/>
      <use x="335.25" xlink:href="#DejaVuSans-118"/>
      <use x="394.429688" xlink:href="#DejaVuSans-101"/>
      <use x="455.953125" xlink:href="#DejaVuSans-114"/>
      <use x="497.066406" xlink:href="#DejaVuSans-95"/>
      <use x="547.066406" xlink:href="#DejaVuSans-109"/>
      <use x="644.478516" xlink:href="#DejaVuSans-117"/>
      <use x="707.857422" xlink:href="#DejaVuSans-116"/>
      <use x="747.066406" xlink:href="#DejaVuSans-97"/>
      <use x="808.345703" xlink:href="#DejaVuSans-116"/>
      <use x="847.554688" xlink:href="#DejaVuSans-105"/>
      <use x="875.337891" xlink:href="#DejaVuSans-111"/>
      <use x="936.519531" xlink:href="#DejaVuSans-110"/>
      <use x="999.898438" xlink:href="#DejaVuSans-95"/>
      <use x="1049.898438" xlink:href="#DejaVuSans-48"/>
      <use x="1113.521484" xlink:href="#DejaVuSans-46"/>
      <use x="1145.308594" xlink:href="#DejaVuSans-54"/>
     </g>
    </g>
    <g id="line2d_41">
     <path d="M 647.6202 201.546066 
L 661.6146 201.546066 
" style="fill:none;stroke:#00bfbf;stroke-linecap:square;stroke-width:1.2;"/>
    </g>
    <g id="line2d_42"/>
    <g id="text_21">
     <!-- Crossover_mutation_0.8 -->
     <g transform="translate(672.6102 205.044666)scale(0.09996 -0.09996)">
      <use xlink:href="#DejaVuSans-67"/>
      <use x="69.824219" xlink:href="#DejaVuSans-114"/>
      <use x="108.6875" xlink:href="#DejaVuSans-111"/>
      <use x="169.869141" xlink:href="#DejaVuSans-115"/>
      <use x="221.96875" xlink:href="#DejaVuSans-115"/>
      <use x="274.068359" xlink:href="#DejaVuSans-111"/>
      <use x="335.25" xlink:href="#DejaVuSans-118"/>
      <use x="394.429688" xlink:href="#DejaVuSans-101"/>
      <use x="455.953125" xlink:href="#DejaVuSans-114"/>
      <use x="497.066406" xlink:href="#DejaVuSans-95"/>
      <use x="547.066406" xlink:href="#DejaVuSans-109"/>
      <use x="644.478516" xlink:href="#DejaVuSans-117"/>
      <use x="707.857422" xlink:href="#DejaVuSans-116"/>
      <use x="747.066406" xlink:href="#DejaVuSans-97"/>
      <use x="808.345703" xlink:href="#DejaVuSans-116"/>
      <use x="847.554688" xlink:href="#DejaVuSans-105"/>
      <use x="875.337891" xlink:href="#DejaVuSans-111"/>
      <use x="936.519531" xlink:href="#DejaVuSans-110"/>
      <use x="999.898438" xlink:href="#DejaVuSans-95"/>
      <use x="1049.898438" xlink:href="#DejaVuSans-48"/>
      <use x="1113.521484" xlink:href="#DejaVuSans-46"/>
      <use x="1145.308594" xlink:href="#DejaVuSans-56"/>
     </g>
    </g>
   </g>
  </g>
  <g id="text_22">
   <!-- Average Accuracy -->
   <defs>
    <path d="M 34.1875 63.1875 
L 20.796875 26.90625 
L 47.609375 26.90625 
z
M 28.609375 72.90625 
L 39.796875 72.90625 
L 67.578125 0 
L 57.328125 0 
L 50.6875 18.703125 
L 17.828125 18.703125 
L 11.1875 0 
L 0.78125 0 
z
" id="DejaVuSans-65"/>
    <path id="DejaVuSans-32"/>
   </defs>
   <g transform="translate(396.06 16.318125)scale(0.12 -0.12)">
    <use xlink:href="#DejaVuSans-65"/>
    <use x="62.533203" xlink:href="#DejaVuSans-118"/>
    <use x="121.712891" xlink:href="#DejaVuSans-101"/>
    <use x="183.236328" xlink:href="#DejaVuSans-114"/>
    <use x="224.349609" xlink:href="#DejaVuSans-97"/>
    <use x="285.628906" xlink:href="#DejaVuSans-103"/>
    <use x="349.105469" xlink:href="#DejaVuSans-101"/>
    <use x="410.628906" xlink:href="#DejaVuSans-32"/>
    <use x="442.416016" xlink:href="#DejaVuSans-65"/>
    <use x="509.074219" xlink:href="#DejaVuSans-99"/>
    <use x="564.054688" xlink:href="#DejaVuSans-99"/>
    <use x="619.035156" xlink:href="#DejaVuSans-117"/>
    <use x="682.414062" xlink:href="#DejaVuSans-114"/>
    <use x="723.527344" xlink:href="#DejaVuSans-97"/>
    <use x="784.806641" xlink:href="#DejaVuSans-99"/>
    <use x="839.787109" xlink:href="#DejaVuSans-121"/>
   </g>
  </g>
 </g>
 <defs>
  <clipPath id="pb279ac4c2e">
   <rect height="288" width="523.125" x="112.5" y="36"/>
  </clipPath>
 </defs>
</svg>
