<?xml version="1.0" encoding="utf-8" standalone="no"?>
<!DOCTYPE svg PUBLIC "-//W3C//DTD SVG 1.1//EN"
  "http://www.w3.org/Graphics/SVG/1.1/DTD/svg11.dtd">
<!-- Created with matplotlib (https://matplotlib.org/) -->
<svg height="360pt" version="1.1" viewBox="0 0 900 360" width="900pt" xmlns="http://www.w3.org/2000/svg" xmlns:xlink="http://www.w3.org/1999/xlink">
 <defs>
  <style type="text/css">
*{stroke-linecap:butt;stroke-linejoin:round;}
  </style>
 </defs>
 <g id="figure_1">
  <g id="patch_1">
   <path d="M 0 360 
L 900 360 
L 900 0 
L 0 0 
z
" style="fill:#ffffff;"/>
  </g>
  <g id="axes_1">
   <g id="patch_2">
    <path d="M 112.5 324 
L 635.625 324 
L 635.625 36 
L 112.5 36 
z
" style="fill:#ffffff;"/>
   </g>
   <g id="line2d_1">
    <path clip-path="url(#p25eb392d3f)" d="M 112.860279 279.2 
L 116.463068 273.8 
L 120.065857 269.71111 
L 123.668647 266.191111 
L 127.271436 260.663838 
L 130.874225 256.263838 
L 134.477014 255.525377 
L 138.079804 249.150406 
L 141.682593 244.915821 
L 145.285382 239.316184 
L 148.888171 236.141189 
L 152.490961 234.747139 
L 156.09375 236.784316 
L 159.696539 231.404235 
L 163.299329 228.685299 
L 166.902118 226.821413 
L 170.504907 227.583353 
L 174.107696 224.709674 
L 177.710486 225.045253 
L 181.313275 219.219172 
L 184.916064 217.297244 
L 188.518853 215.928932 
L 192.121643 214.352587 
L 195.724432 210.996374 
L 199.327221 208.218428 
L 202.93001 202.862519 
L 206.5328 200.127391 
L 210.135589 202.006634 
L 213.738378 201.058764 
L 217.341167 198.190009 
L 220.943957 197.451057 
L 224.546746 194.899721 
L 228.149535 192.564122 
L 231.752324 189.890024 
L 235.355114 182.311823 
L 238.957903 176.438981 
L 242.560692 172.919672 
L 246.163481 171.032642 
L 249.766271 168.950559 
L 253.36906 166.149516 
L 256.971849 164.4464 
L 260.574638 163.687521 
L 264.177428 163.07587 
L 267.780217 161.826346 
L 271.383006 158.533554 
L 274.985795 157.239939 
L 278.588585 153.60074 
L 282.191374 152.027997 
L 285.794163 152.115727 
L 289.396952 152.380331 
L 292.999742 152.392176 
L 296.602531 149.581301 
L 300.20532 149.484482 
L 303.80811 151.752462 
L 307.410899 149.269729 
L 311.013688 143.881576 
L 314.616477 142.981671 
L 318.219267 139.673171 
L 321.822056 138.4187 
L 325.424845 134.613639 
L 329.027634 134.279883 
L 332.630424 134.357587 
L 336.233213 136.332665 
L 339.836002 132.251973 
L 343.438791 134.14265 
L 350.64437 132.994794 
L 354.247159 130.434403 
L 361.452738 125.934983 
L 365.055527 127.049061 
L 368.658316 124.041862 
L 375.863895 124.097791 
L 379.466684 122.74882 
L 383.069473 124.301546 
L 386.672262 125.529743 
L 390.275052 126.889795 
L 397.48063 125.9337 
L 401.083419 128.290308 
L 404.686209 128.962731 
L 408.288998 129.813591 
L 411.891787 128.912348 
L 415.494576 127.591006 
L 419.097366 130.269514 
L 422.700155 130.11073 
L 426.302944 132.096917 
L 429.905733 132.214931 
L 433.508523 130.676573 
L 437.111312 132.53536 
L 440.714101 129.715694 
L 444.31689 126.473093 
L 447.91968 129.885582 
L 451.522469 125.900095 
L 455.125258 123.322031 
L 458.728048 123.00245 
L 462.330837 120.422996 
L 465.933626 123.523557 
L 469.536415 125.019747 
L 473.139205 121.322375 
L 476.741994 122.447166 
L 480.344783 126.31833 
L 483.947572 127.065706 
L 487.550362 129.792068 
L 491.153151 126.70503 
L 494.75594 129.54236 
L 498.358729 130.790051 
L 501.961519 129.462581 
L 505.564308 123.796754 
L 509.167097 122.806835 
L 512.769886 123.007971 
L 516.372676 122.723581 
L 519.975465 120.352906 
L 523.578254 119.057741 
L 527.181043 119.241984 
L 530.783833 121.722386 
L 534.386622 122.008198 
L 537.989411 119.715908 
L 541.5922 120.961471 
L 545.19499 120.023668 
L 548.797779 120.713355 
L 556.003357 123.56946 
L 559.606147 123.197249 
L 563.208936 123.218891 
L 566.811725 122.777154 
L 570.414514 123.604345 
L 574.017304 122.226729 
L 577.620093 121.491833 
L 581.222882 120.470477 
L 584.825671 120.506879 
L 588.428461 120.298263 
L 592.03125 121.215271 
L 595.634039 120.169958 
L 599.236829 121.734821 
L 602.839618 124.707359 
L 606.442407 123.679426 
L 610.045196 123.431161 
L 617.250775 123.849573 
L 620.853564 124.606772 
L 624.456353 124.474644 
L 628.059143 119.701525 
L 631.661932 121.266979 
L 635.264721 122.395949 
L 635.264721 122.395949 
" style="fill:none;stroke:#0000ff;stroke-linecap:square;stroke-width:1.2;"/>
   </g>
   <g id="line2d_2">
    <path clip-path="url(#p25eb392d3f)" d="M 112.860279 309.6 
L 116.463068 302 
L 120.065857 299.688889 
L 123.668647 291.848889 
L 127.271436 286.467071 
L 130.874225 287.667071 
L 134.477014 286.190147 
L 138.079804 287.58939 
L 141.682593 281.31165 
L 145.285382 276.944171 
L 148.888171 275.059192 
L 152.490961 273.197048 
L 156.09375 269.376277 
L 159.696539 265.621364 
L 163.299329 261.839208 
L 166.902118 258.987481 
L 170.504907 259.329274 
L 174.107696 256.15005 
L 177.710486 253.115665 
L 181.313275 253.095618 
L 184.916064 251.885945 
L 188.518853 248.658772 
L 192.121643 248.848871 
L 195.724432 243.365763 
L 199.327221 242.874664 
L 202.93001 242.086894 
L 206.5328 235.701608 
L 210.135589 234.333582 
L 213.738378 233.847029 
L 217.341167 231.093041 
L 220.943957 231.502832 
L 224.546746 228.658845 
L 228.149535 225.533611 
L 231.752324 221.674534 
L 235.355114 217.377684 
L 238.957903 212.418504 
L 242.560692 208.151232 
L 246.163481 201.431878 
L 249.766271 199.829803 
L 253.36906 197.237202 
L 256.971849 198.926638 
L 260.574638 196.399635 
L 264.177428 197.875107 
L 267.780217 199.423097 
L 271.383006 203.453191 
L 274.985795 201.516529 
L 278.588585 199.876477 
L 282.191374 201.180311 
L 285.794163 202.778824 
L 289.396952 200.07911 
L 292.999742 196.068034 
L 296.602531 194.269175 
L 300.20532 192.973225 
L 303.80811 194.65759 
L 307.410899 193.294304 
L 311.013688 192.564726 
L 314.616477 191.002081 
L 318.219267 190.489315 
L 321.822056 187.737019 
L 325.424845 186.718849 
L 329.027634 183.646638 
L 332.630424 178.596818 
L 336.233213 179.122364 
L 339.836002 178.57777 
L 343.438791 179.876882 
L 347.041581 178.533794 
L 350.64437 179.011867 
L 354.247159 180.747654 
L 357.849948 181.282334 
L 361.452738 178.740793 
L 365.055527 181.953333 
L 368.658316 183.959214 
L 372.261105 186.468861 
L 375.863895 188.519399 
L 379.466684 184.93261 
L 383.069473 186.321093 
L 386.672262 186.781116 
L 390.275052 184.321715 
L 393.877841 182.134215 
L 397.48063 182.170011 
L 401.083419 176.75852 
L 404.686209 178.837436 
L 408.288998 177.523309 
L 411.891787 176.318862 
L 415.494576 174.349412 
L 419.097366 173.258273 
L 422.700155 171.218909 
L 426.302944 171.900477 
L 429.905733 169.520711 
L 433.508523 170.38205 
L 437.111312 170.663834 
L 440.714101 174.68802 
L 444.31689 174.921077 
L 447.91968 173.359706 
L 451.522469 175.195031 
L 455.125258 179.077671 
L 458.728048 179.008103 
L 462.330837 179.403816 
L 465.933626 173.858878 
L 469.536415 170.700247 
L 473.139205 177.141827 
L 476.741994 178.153119 
L 480.344783 175.743538 
L 483.947572 172.538571 
L 487.550362 172.62586 
L 491.153151 172.284859 
L 494.75594 175.852906 
L 498.358729 169.107604 
L 501.961519 165.82718 
L 505.564308 169.248999 
L 509.167097 174.534416 
L 512.769886 173.942767 
L 516.372676 177.147221 
L 519.975465 178.477553 
L 523.578254 182.064844 
L 527.181043 186.201436 
L 530.783833 184.196824 
L 534.386622 180.936738 
L 537.989411 181.528077 
L 541.5922 183.515067 
" style="fill:none;stroke:#008000;stroke-linecap:square;stroke-width:1.2;"/>
   </g>
   <g id="line2d_3">
    <path clip-path="url(#p25eb392d3f)" d="M 112.860279 281.714285 
L 116.463068 275.914285 
L 120.065857 275.380952 
L 123.668647 276.500952 
L 127.271436 275.919134 
L 130.874225 271.785801 
L 134.477014 272.155031 
L 138.079804 271.17355 
L 141.682593 269.701186 
L 145.285382 265.32582 
L 148.888171 261.02004 
L 152.490961 256.92011 
L 156.09375 254.915057 
L 159.696539 250.388905 
L 163.299329 248.667009 
L 166.902118 245.572072 
L 170.504907 239.991015 
L 174.107696 235.788782 
L 177.710486 231.701757 
L 181.313275 227.946888 
L 184.916064 223.512886 
L 188.518853 218.993338 
L 192.121643 215.225743 
L 195.724432 215.536107 
L 199.327221 212.255132 
L 202.93001 209.774622 
L 206.5328 206.776756 
L 210.135589 205.981669 
L 213.738378 204.611541 
L 217.341167 201.579679 
L 220.943957 200.259954 
L 224.546746 199.583402 
L 228.149535 199.168692 
L 231.752324 199.814226 
L 235.355114 201.432114 
L 238.957903 201.926005 
L 242.560692 199.983415 
L 246.163481 197.869835 
L 249.766271 194.784176 
L 253.36906 191.246905 
L 256.971849 186.895572 
L 260.574638 184.177377 
L 264.177428 178.135175 
L 267.780217 178.054541 
L 271.383006 173.207211 
L 274.985795 170.316675 
L 278.588585 168.952812 
L 282.191374 166.711061 
L 285.794163 161.059806 
L 289.396952 159.746316 
L 292.999742 156.122606 
L 296.602531 154.193021 
L 300.20532 154.921971 
L 303.80811 154.334983 
L 307.410899 155.598361 
L 311.013688 154.439789 
L 314.616477 155.139287 
L 318.219267 156.786724 
L 321.822056 160.801624 
L 325.424845 161.500059 
L 329.027634 164.512757 
L 332.630424 163.475403 
L 336.233213 166.385835 
L 339.836002 166.635569 
L 343.438791 165.177788 
L 347.041581 162.191339 
L 350.64437 158.182976 
L 354.247159 152.89607 
L 357.849948 152.205352 
L 361.452738 153.083777 
L 365.055527 149.70287 
L 368.658316 149.620184 
L 372.261105 148.160864 
L 375.863895 149.236086 
L 379.466684 149.200703 
L 383.069473 149.584961 
L 386.672262 146.977359 
L 390.275052 148.12155 
L 393.877841 146.160117 
L 397.48063 145.76006 
L 401.083419 146.846519 
L 404.686209 149.496197 
L 408.288998 148.750908 
L 411.891787 149.010412 
L 415.494576 149.69417 
L 419.097366 151.073713 
L 422.700155 151.728609 
L 426.302944 148.534924 
L 429.905733 145.26098 
L 433.508523 143.515601 
L 437.111312 139.769846 
L 440.714101 138.637206 
L 444.31689 137.803628 
L 447.91968 137.594014 
L 451.522469 140.075483 
L 455.125258 143.491983 
L 458.728048 143.73632 
L 462.330837 147.241433 
L 465.933626 148.641759 
L 469.536415 149.598538 
L 473.139205 149.41427 
L 476.741994 151.978792 
L 480.344783 151.523932 
L 483.947572 152.492209 
L 487.550362 149.819192 
L 491.153151 147.940534 
L 494.75594 148.674533 
L 498.358729 149.109938 
L 501.961519 146.796949 
L 505.564308 143.479489 
L 509.167097 143.27851 
L 512.769886 144.252304 
L 516.372676 145.32244 
L 519.975465 143.587664 
L 523.578254 141.316719 
L 527.181043 142.864394 
L 530.783833 149.094002 
L 534.386622 147.818271 
L 537.989411 147.107961 
L 541.5922 146.782418 
L 545.19499 147.689433 
L 548.797779 151.335648 
L 552.400568 148.736415 
L 556.003357 140.583768 
L 559.606147 143.747949 
" style="fill:none;stroke:#ff0000;stroke-linecap:square;stroke-width:1.2;"/>
   </g>
   <g id="line2d_4">
    <path clip-path="url(#p25eb392d3f)" d="M 112.860279 260.457143 
L 116.463068 246.257143 
L 120.065857 242.346032 
L 123.668647 230.986031 
L 127.271436 226.47694 
L 130.874225 219.67694 
L 134.477014 213.523094 
L 138.079804 207.082014 
L 141.682593 201.853157 
L 145.285382 191.107552 
L 152.490961 176.647784 
L 156.09375 172.230157 
L 159.696539 165.7307 
L 163.299329 161.072907 
L 166.902118 153.874426 
L 170.504907 148.548801 
L 174.107696 143.608059 
L 177.710486 140.32808 
L 181.313275 133.197152 
L 184.916064 129.833033 
L 188.518853 122.999196 
L 195.724432 116.175539 
L 199.327221 113.819192 
L 202.93001 109.072354 
L 206.5328 107.093523 
L 210.135589 103.498176 
L 213.738378 102.490406 
L 217.341167 100.811476 
L 220.943957 100.983472 
L 224.546746 100.242262 
L 228.149535 100.055332 
L 231.752324 99.513932 
L 235.355114 98.715145 
L 238.957903 98.42474 
L 242.560692 98.364222 
L 246.163481 98.162741 
L 249.766271 97.633547 
L 253.36906 97.69341 
L 256.971849 96.937985 
L 260.574638 97.785896 
L 264.177428 98.475215 
L 267.780217 98.976061 
L 271.383006 98.669393 
L 274.985795 96.779843 
L 282.191374 96.3133 
L 285.794163 96.815408 
L 289.396952 96.564654 
L 292.999742 94.656084 
L 296.602531 93.608907 
L 300.20532 93.857296 
L 303.80811 91.678127 
L 307.410899 90.952344 
L 311.013688 88.778263 
L 318.219267 89.091747 
L 321.822056 87.882734 
L 325.424845 88.161614 
L 329.027634 89.368036 
L 332.630424 89.49232 
L 336.233213 89.916478 
L 339.836002 88.516379 
L 343.438791 89.333658 
L 347.041581 89.568345 
L 350.64437 89.061171 
L 354.247159 89.160643 
L 357.849948 88.519745 
L 361.452738 88.658458 
L 365.055527 88.300156 
L 368.658316 86.743733 
L 372.261105 87.387993 
L 375.863895 87.628518 
L 379.466684 85.418354 
L 383.069473 85.179786 
L 393.877841 80.354827 
L 397.48063 78.090737 
L 401.083419 76.987831 
L 404.686209 76.339329 
L 408.288998 73.197755 
L 411.891787 73.385402 
L 415.494576 72.858145 
L 419.097366 72.1584 
L 422.700155 72.809758 
L 426.302944 71.257599 
L 429.905733 71.235927 
L 433.508523 71.823479 
L 437.111312 71.211023 
L 440.714101 73.299706 
L 444.31689 73.387499 
L 447.91968 73.185787 
L 451.522469 74.195648 
L 458.728048 75.002004 
L 462.330837 74.80131 
L 465.933626 71.962972 
L 469.536415 73.084163 
L 473.139205 72.337884 
L 476.741994 71.948825 
L 480.344783 72.610551 
L 483.947572 73.041978 
L 487.550362 73.275875 
L 491.153151 74.730714 
L 494.75594 72.765064 
L 498.358729 72.797924 
L 501.961519 72.494008 
L 505.564308 72.854274 
L 509.167097 72.224451 
L 512.769886 71.897418 
L 516.372676 72.417934 
L 519.975465 73.375847 
L 527.181043 73.112858 
L 530.783833 71.532749 
L 534.386622 71.479541 
L 537.989411 71.939704 
L 541.5922 71.533686 
L 545.19499 71.761212 
L 548.797779 72.627673 
L 552.400568 73.205736 
L 556.003357 74.442119 
L 559.606147 75.900779 
L 563.208936 74.851631 
L 566.811725 74.765762 
L 574.017304 75.558363 
L 577.620093 75.41514 
L 581.222882 74.86366 
L 584.825671 73.181738 
L 584.825671 73.181738 
" style="fill:none;stroke:#00bfbf;stroke-linecap:square;stroke-width:1.2;"/>
   </g>
   <g id="patch_3">
    <path d="M 112.5 324 
L 112.5 36 
" style="fill:none;stroke:#000000;stroke-linecap:square;stroke-linejoin:miter;"/>
   </g>
   <g id="patch_4">
    <path d="M 635.625 324 
L 635.625 36 
" style="fill:none;stroke:#000000;stroke-linecap:square;stroke-linejoin:miter;"/>
   </g>
   <g id="patch_5">
    <path d="M 112.5 324 
L 635.625 324 
" style="fill:none;stroke:#000000;stroke-linecap:square;stroke-linejoin:miter;"/>
   </g>
   <g id="patch_6">
    <path d="M 112.5 36 
L 635.625 36 
" style="fill:none;stroke:#000000;stroke-linecap:square;stroke-linejoin:miter;"/>
   </g>
   <g id="matplotlib.axis_1">
    <g id="xtick_1">
     <g id="line2d_5">
      <defs>
       <path d="M 0 0 
L 0 -4 
" id="m478d7876b6" style="stroke:#000000;stroke-width:0.5;"/>
      </defs>
      <g>
       <use style="stroke:#000000;stroke-width:0.5;" x="112.860279" xlink:href="#m478d7876b6" y="324"/>
      </g>
     </g>
     <g id="line2d_6">
      <defs>
       <path d="M 0 0 
L 0 4 
" id="m527631b80e" style="stroke:#000000;stroke-width:0.5;"/>
      </defs>
      <g>
       <use style="stroke:#000000;stroke-width:0.5;" x="112.860279" xlink:href="#m527631b80e" y="36"/>
      </g>
     </g>
     <g id="text_1">
      <!-- 0 -->
      <defs>
       <path d="M 31.78125 66.40625 
Q 24.171875 66.40625 20.328125 58.90625 
Q 16.5 51.421875 16.5 36.375 
Q 16.5 21.390625 20.328125 13.890625 
Q 24.171875 6.390625 31.78125 6.390625 
Q 39.453125 6.390625 43.28125 13.890625 
Q 47.125 21.390625 47.125 36.375 
Q 47.125 51.421875 43.28125 58.90625 
Q 39.453125 66.40625 31.78125 66.40625 
z
M 31.78125 74.21875 
Q 44.046875 74.21875 50.515625 64.515625 
Q 56.984375 54.828125 56.984375 36.375 
Q 56.984375 17.96875 50.515625 8.265625 
Q 44.046875 -1.421875 31.78125 -1.421875 
Q 19.53125 -1.421875 13.0625 8.265625 
Q 6.59375 17.96875 6.59375 36.375 
Q 6.59375 54.828125 13.0625 64.515625 
Q 19.53125 74.21875 31.78125 74.21875 
z
" id="DejaVuSans-48"/>
      </defs>
      <g transform="translate(109.042779 337.118125)scale(0.12 -0.12)">
       <use xlink:href="#DejaVuSans-48"/>
      </g>
     </g>
    </g>
    <g id="xtick_2">
     <g id="line2d_7">
      <g>
       <use style="stroke:#000000;stroke-width:0.5;" x="166.902118" xlink:href="#m478d7876b6" y="324"/>
      </g>
     </g>
     <g id="line2d_8">
      <g>
       <use style="stroke:#000000;stroke-width:0.5;" x="166.902118" xlink:href="#m527631b80e" y="36"/>
      </g>
     </g>
     <g id="text_2">
      <!-- 15 -->
      <defs>
       <path d="M 12.40625 8.296875 
L 28.515625 8.296875 
L 28.515625 63.921875 
L 10.984375 60.40625 
L 10.984375 69.390625 
L 28.421875 72.90625 
L 38.28125 72.90625 
L 38.28125 8.296875 
L 54.390625 8.296875 
L 54.390625 0 
L 12.40625 0 
z
" id="DejaVuSans-49"/>
       <path d="M 10.796875 72.90625 
L 49.515625 72.90625 
L 49.515625 64.59375 
L 19.828125 64.59375 
L 19.828125 46.734375 
Q 21.96875 47.46875 24.109375 47.828125 
Q 26.265625 48.1875 28.421875 48.1875 
Q 40.625 48.1875 47.75 41.5 
Q 54.890625 34.8125 54.890625 23.390625 
Q 54.890625 11.625 47.5625 5.09375 
Q 40.234375 -1.421875 26.90625 -1.421875 
Q 22.3125 -1.421875 17.546875 -0.640625 
Q 12.796875 0.140625 7.71875 1.703125 
L 7.71875 11.625 
Q 12.109375 9.234375 16.796875 8.0625 
Q 21.484375 6.890625 26.703125 6.890625 
Q 35.15625 6.890625 40.078125 11.328125 
Q 45.015625 15.765625 45.015625 23.390625 
Q 45.015625 31 40.078125 35.4375 
Q 35.15625 39.890625 26.703125 39.890625 
Q 22.75 39.890625 18.8125 39.015625 
Q 14.890625 38.140625 10.796875 36.28125 
z
" id="DejaVuSans-53"/>
      </defs>
      <g transform="translate(159.267118 337.118125)scale(0.12 -0.12)">
       <use xlink:href="#DejaVuSans-49"/>
       <use x="63.623047" xlink:href="#DejaVuSans-53"/>
      </g>
     </g>
    </g>
    <g id="xtick_3">
     <g id="line2d_9">
      <g>
       <use style="stroke:#000000;stroke-width:0.5;" x="220.943957" xlink:href="#m478d7876b6" y="324"/>
      </g>
     </g>
     <g id="line2d_10">
      <g>
       <use style="stroke:#000000;stroke-width:0.5;" x="220.943957" xlink:href="#m527631b80e" y="36"/>
      </g>
     </g>
     <g id="text_3">
      <!-- 30 -->
      <defs>
       <path d="M 40.578125 39.3125 
Q 47.65625 37.796875 51.625 33 
Q 55.609375 28.21875 55.609375 21.1875 
Q 55.609375 10.40625 48.1875 4.484375 
Q 40.765625 -1.421875 27.09375 -1.421875 
Q 22.515625 -1.421875 17.65625 -0.515625 
Q 12.796875 0.390625 7.625 2.203125 
L 7.625 11.71875 
Q 11.71875 9.328125 16.59375 8.109375 
Q 21.484375 6.890625 26.8125 6.890625 
Q 36.078125 6.890625 40.9375 10.546875 
Q 45.796875 14.203125 45.796875 21.1875 
Q 45.796875 27.640625 41.28125 31.265625 
Q 36.765625 34.90625 28.71875 34.90625 
L 20.21875 34.90625 
L 20.21875 43.015625 
L 29.109375 43.015625 
Q 36.375 43.015625 40.234375 45.921875 
Q 44.09375 48.828125 44.09375 54.296875 
Q 44.09375 59.90625 40.109375 62.90625 
Q 36.140625 65.921875 28.71875 65.921875 
Q 24.65625 65.921875 20.015625 65.03125 
Q 15.375 64.15625 9.8125 62.3125 
L 9.8125 71.09375 
Q 15.4375 72.65625 20.34375 73.4375 
Q 25.25 74.21875 29.59375 74.21875 
Q 40.828125 74.21875 47.359375 69.109375 
Q 53.90625 64.015625 53.90625 55.328125 
Q 53.90625 49.265625 50.4375 45.09375 
Q 46.96875 40.921875 40.578125 39.3125 
z
" id="DejaVuSans-51"/>
      </defs>
      <g transform="translate(213.308957 337.118125)scale(0.12 -0.12)">
       <use xlink:href="#DejaVuSans-51"/>
       <use x="63.623047" xlink:href="#DejaVuSans-48"/>
      </g>
     </g>
    </g>
    <g id="xtick_4">
     <g id="line2d_11">
      <g>
       <use style="stroke:#000000;stroke-width:0.5;" x="274.985795" xlink:href="#m478d7876b6" y="324"/>
      </g>
     </g>
     <g id="line2d_12">
      <g>
       <use style="stroke:#000000;stroke-width:0.5;" x="274.985795" xlink:href="#m527631b80e" y="36"/>
      </g>
     </g>
     <g id="text_4">
      <!-- 45 -->
      <defs>
       <path d="M 37.796875 64.3125 
L 12.890625 25.390625 
L 37.796875 25.390625 
z
M 35.203125 72.90625 
L 47.609375 72.90625 
L 47.609375 25.390625 
L 58.015625 25.390625 
L 58.015625 17.1875 
L 47.609375 17.1875 
L 47.609375 0 
L 37.796875 0 
L 37.796875 17.1875 
L 4.890625 17.1875 
L 4.890625 26.703125 
z
" id="DejaVuSans-52"/>
      </defs>
      <g transform="translate(267.350795 337.118125)scale(0.12 -0.12)">
       <use xlink:href="#DejaVuSans-52"/>
       <use x="63.623047" xlink:href="#DejaVuSans-53"/>
      </g>
     </g>
    </g>
    <g id="xtick_5">
     <g id="line2d_13">
      <g>
       <use style="stroke:#000000;stroke-width:0.5;" x="329.027634" xlink:href="#m478d7876b6" y="324"/>
      </g>
     </g>
     <g id="line2d_14">
      <g>
       <use style="stroke:#000000;stroke-width:0.5;" x="329.027634" xlink:href="#m527631b80e" y="36"/>
      </g>
     </g>
     <g id="text_5">
      <!-- 60 -->
      <defs>
       <path d="M 33.015625 40.375 
Q 26.375 40.375 22.484375 35.828125 
Q 18.609375 31.296875 18.609375 23.390625 
Q 18.609375 15.53125 22.484375 10.953125 
Q 26.375 6.390625 33.015625 6.390625 
Q 39.65625 6.390625 43.53125 10.953125 
Q 47.40625 15.53125 47.40625 23.390625 
Q 47.40625 31.296875 43.53125 35.828125 
Q 39.65625 40.375 33.015625 40.375 
z
M 52.59375 71.296875 
L 52.59375 62.3125 
Q 48.875 64.0625 45.09375 64.984375 
Q 41.3125 65.921875 37.59375 65.921875 
Q 27.828125 65.921875 22.671875 59.328125 
Q 17.53125 52.734375 16.796875 39.40625 
Q 19.671875 43.65625 24.015625 45.921875 
Q 28.375 48.1875 33.59375 48.1875 
Q 44.578125 48.1875 50.953125 41.515625 
Q 57.328125 34.859375 57.328125 23.390625 
Q 57.328125 12.15625 50.6875 5.359375 
Q 44.046875 -1.421875 33.015625 -1.421875 
Q 20.359375 -1.421875 13.671875 8.265625 
Q 6.984375 17.96875 6.984375 36.375 
Q 6.984375 53.65625 15.1875 63.9375 
Q 23.390625 74.21875 37.203125 74.21875 
Q 40.921875 74.21875 44.703125 73.484375 
Q 48.484375 72.75 52.59375 71.296875 
z
" id="DejaVuSans-54"/>
      </defs>
      <g transform="translate(321.392634 337.118125)scale(0.12 -0.12)">
       <use xlink:href="#DejaVuSans-54"/>
       <use x="63.623047" xlink:href="#DejaVuSans-48"/>
      </g>
     </g>
    </g>
    <g id="xtick_6">
     <g id="line2d_15">
      <g>
       <use style="stroke:#000000;stroke-width:0.5;" x="383.069473" xlink:href="#m478d7876b6" y="324"/>
      </g>
     </g>
     <g id="line2d_16">
      <g>
       <use style="stroke:#000000;stroke-width:0.5;" x="383.069473" xlink:href="#m527631b80e" y="36"/>
      </g>
     </g>
     <g id="text_6">
      <!-- 75 -->
      <defs>
       <path d="M 8.203125 72.90625 
L 55.078125 72.90625 
L 55.078125 68.703125 
L 28.609375 0 
L 18.3125 0 
L 43.21875 64.59375 
L 8.203125 64.59375 
z
" id="DejaVuSans-55"/>
      </defs>
      <g transform="translate(375.434473 337.118125)scale(0.12 -0.12)">
       <use xlink:href="#DejaVuSans-55"/>
       <use x="63.623047" xlink:href="#DejaVuSans-53"/>
      </g>
     </g>
    </g>
    <g id="xtick_7">
     <g id="line2d_17">
      <g>
       <use style="stroke:#000000;stroke-width:0.5;" x="437.111312" xlink:href="#m478d7876b6" y="324"/>
      </g>
     </g>
     <g id="line2d_18">
      <g>
       <use style="stroke:#000000;stroke-width:0.5;" x="437.111312" xlink:href="#m527631b80e" y="36"/>
      </g>
     </g>
     <g id="text_7">
      <!-- 90 -->
      <defs>
       <path d="M 10.984375 1.515625 
L 10.984375 10.5 
Q 14.703125 8.734375 18.5 7.8125 
Q 22.3125 6.890625 25.984375 6.890625 
Q 35.75 6.890625 40.890625 13.453125 
Q 46.046875 20.015625 46.78125 33.40625 
Q 43.953125 29.203125 39.59375 26.953125 
Q 35.25 24.703125 29.984375 24.703125 
Q 19.046875 24.703125 12.671875 31.3125 
Q 6.296875 37.9375 6.296875 49.421875 
Q 6.296875 60.640625 12.9375 67.421875 
Q 19.578125 74.21875 30.609375 74.21875 
Q 43.265625 74.21875 49.921875 64.515625 
Q 56.59375 54.828125 56.59375 36.375 
Q 56.59375 19.140625 48.40625 8.859375 
Q 40.234375 -1.421875 26.421875 -1.421875 
Q 22.703125 -1.421875 18.890625 -0.6875 
Q 15.09375 0.046875 10.984375 1.515625 
z
M 30.609375 32.421875 
Q 37.25 32.421875 41.125 36.953125 
Q 45.015625 41.5 45.015625 49.421875 
Q 45.015625 57.28125 41.125 61.84375 
Q 37.25 66.40625 30.609375 66.40625 
Q 23.96875 66.40625 20.09375 61.84375 
Q 16.21875 57.28125 16.21875 49.421875 
Q 16.21875 41.5 20.09375 36.953125 
Q 23.96875 32.421875 30.609375 32.421875 
z
" id="DejaVuSans-57"/>
      </defs>
      <g transform="translate(429.476312 337.118125)scale(0.12 -0.12)">
       <use xlink:href="#DejaVuSans-57"/>
       <use x="63.623047" xlink:href="#DejaVuSans-48"/>
      </g>
     </g>
    </g>
    <g id="xtick_8">
     <g id="line2d_19">
      <g>
       <use style="stroke:#000000;stroke-width:0.5;" x="491.153151" xlink:href="#m478d7876b6" y="324"/>
      </g>
     </g>
     <g id="line2d_20">
      <g>
       <use style="stroke:#000000;stroke-width:0.5;" x="491.153151" xlink:href="#m527631b80e" y="36"/>
      </g>
     </g>
     <g id="text_8">
      <!-- 105 -->
      <g transform="translate(479.700651 337.118125)scale(0.12 -0.12)">
       <use xlink:href="#DejaVuSans-49"/>
       <use x="63.623047" xlink:href="#DejaVuSans-48"/>
       <use x="127.246094" xlink:href="#DejaVuSans-53"/>
      </g>
     </g>
    </g>
    <g id="xtick_9">
     <g id="line2d_21">
      <g>
       <use style="stroke:#000000;stroke-width:0.5;" x="545.19499" xlink:href="#m478d7876b6" y="324"/>
      </g>
     </g>
     <g id="line2d_22">
      <g>
       <use style="stroke:#000000;stroke-width:0.5;" x="545.19499" xlink:href="#m527631b80e" y="36"/>
      </g>
     </g>
     <g id="text_9">
      <!-- 120 -->
      <defs>
       <path d="M 19.1875 8.296875 
L 53.609375 8.296875 
L 53.609375 0 
L 7.328125 0 
L 7.328125 8.296875 
Q 12.9375 14.109375 22.625 23.890625 
Q 32.328125 33.6875 34.8125 36.53125 
Q 39.546875 41.84375 41.421875 45.53125 
Q 43.3125 49.21875 43.3125 52.78125 
Q 43.3125 58.59375 39.234375 62.25 
Q 35.15625 65.921875 28.609375 65.921875 
Q 23.96875 65.921875 18.8125 64.3125 
Q 13.671875 62.703125 7.8125 59.421875 
L 7.8125 69.390625 
Q 13.765625 71.78125 18.9375 73 
Q 24.125 74.21875 28.421875 74.21875 
Q 39.75 74.21875 46.484375 68.546875 
Q 53.21875 62.890625 53.21875 53.421875 
Q 53.21875 48.921875 51.53125 44.890625 
Q 49.859375 40.875 45.40625 35.40625 
Q 44.1875 33.984375 37.640625 27.21875 
Q 31.109375 20.453125 19.1875 8.296875 
z
" id="DejaVuSans-50"/>
      </defs>
      <g transform="translate(533.74249 337.118125)scale(0.12 -0.12)">
       <use xlink:href="#DejaVuSans-49"/>
       <use x="63.623047" xlink:href="#DejaVuSans-50"/>
       <use x="127.246094" xlink:href="#DejaVuSans-48"/>
      </g>
     </g>
    </g>
    <g id="xtick_10">
     <g id="line2d_23">
      <g>
       <use style="stroke:#000000;stroke-width:0.5;" x="599.236829" xlink:href="#m478d7876b6" y="324"/>
      </g>
     </g>
     <g id="line2d_24">
      <g>
       <use style="stroke:#000000;stroke-width:0.5;" x="599.236829" xlink:href="#m527631b80e" y="36"/>
      </g>
     </g>
     <g id="text_10">
      <!-- 135 -->
      <g transform="translate(587.784329 337.118125)scale(0.12 -0.12)">
       <use xlink:href="#DejaVuSans-49"/>
       <use x="63.623047" xlink:href="#DejaVuSans-51"/>
       <use x="127.246094" xlink:href="#DejaVuSans-53"/>
      </g>
     </g>
    </g>
    <g id="text_11">
     <!-- generation -->
     <defs>
      <path d="M 45.40625 27.984375 
Q 45.40625 37.75 41.375 43.109375 
Q 37.359375 48.484375 30.078125 48.484375 
Q 22.859375 48.484375 18.828125 43.109375 
Q 14.796875 37.75 14.796875 27.984375 
Q 14.796875 18.265625 18.828125 12.890625 
Q 22.859375 7.515625 30.078125 7.515625 
Q 37.359375 7.515625 41.375 12.890625 
Q 45.40625 18.265625 45.40625 27.984375 
z
M 54.390625 6.78125 
Q 54.390625 -7.171875 48.1875 -13.984375 
Q 42 -20.796875 29.203125 -20.796875 
Q 24.46875 -20.796875 20.265625 -20.09375 
Q 16.0625 -19.390625 12.109375 -17.921875 
L 12.109375 -9.1875 
Q 16.0625 -11.328125 19.921875 -12.34375 
Q 23.78125 -13.375 27.78125 -13.375 
Q 36.625 -13.375 41.015625 -8.765625 
Q 45.40625 -4.15625 45.40625 5.171875 
L 45.40625 9.625 
Q 42.625 4.78125 38.28125 2.390625 
Q 33.9375 0 27.875 0 
Q 17.828125 0 11.671875 7.65625 
Q 5.515625 15.328125 5.515625 27.984375 
Q 5.515625 40.671875 11.671875 48.328125 
Q 17.828125 56 27.875 56 
Q 33.9375 56 38.28125 53.609375 
Q 42.625 51.21875 45.40625 46.390625 
L 45.40625 54.6875 
L 54.390625 54.6875 
z
" id="DejaVuSans-103"/>
      <path d="M 56.203125 29.59375 
L 56.203125 25.203125 
L 14.890625 25.203125 
Q 15.484375 15.921875 20.484375 11.0625 
Q 25.484375 6.203125 34.421875 6.203125 
Q 39.59375 6.203125 44.453125 7.46875 
Q 49.3125 8.734375 54.109375 11.28125 
L 54.109375 2.78125 
Q 49.265625 0.734375 44.1875 -0.34375 
Q 39.109375 -1.421875 33.890625 -1.421875 
Q 20.796875 -1.421875 13.15625 6.1875 
Q 5.515625 13.8125 5.515625 26.8125 
Q 5.515625 40.234375 12.765625 48.109375 
Q 20.015625 56 32.328125 56 
Q 43.359375 56 49.78125 48.890625 
Q 56.203125 41.796875 56.203125 29.59375 
z
M 47.21875 32.234375 
Q 47.125 39.59375 43.09375 43.984375 
Q 39.0625 48.390625 32.421875 48.390625 
Q 24.90625 48.390625 20.390625 44.140625 
Q 15.875 39.890625 15.1875 32.171875 
z
" id="DejaVuSans-101"/>
      <path d="M 54.890625 33.015625 
L 54.890625 0 
L 45.90625 0 
L 45.90625 32.71875 
Q 45.90625 40.484375 42.875 44.328125 
Q 39.84375 48.1875 33.796875 48.1875 
Q 26.515625 48.1875 22.3125 43.546875 
Q 18.109375 38.921875 18.109375 30.90625 
L 18.109375 0 
L 9.078125 0 
L 9.078125 54.6875 
L 18.109375 54.6875 
L 18.109375 46.1875 
Q 21.34375 51.125 25.703125 53.5625 
Q 30.078125 56 35.796875 56 
Q 45.21875 56 50.046875 50.171875 
Q 54.890625 44.34375 54.890625 33.015625 
z
" id="DejaVuSans-110"/>
      <path d="M 41.109375 46.296875 
Q 39.59375 47.171875 37.8125 47.578125 
Q 36.03125 48 33.890625 48 
Q 26.265625 48 22.1875 43.046875 
Q 18.109375 38.09375 18.109375 28.8125 
L 18.109375 0 
L 9.078125 0 
L 9.078125 54.6875 
L 18.109375 54.6875 
L 18.109375 46.1875 
Q 20.953125 51.171875 25.484375 53.578125 
Q 30.03125 56 36.53125 56 
Q 37.453125 56 38.578125 55.875 
Q 39.703125 55.765625 41.0625 55.515625 
z
" id="DejaVuSans-114"/>
      <path d="M 34.28125 27.484375 
Q 23.390625 27.484375 19.1875 25 
Q 14.984375 22.515625 14.984375 16.5 
Q 14.984375 11.71875 18.140625 8.90625 
Q 21.296875 6.109375 26.703125 6.109375 
Q 34.1875 6.109375 38.703125 11.40625 
Q 43.21875 16.703125 43.21875 25.484375 
L 43.21875 27.484375 
z
M 52.203125 31.203125 
L 52.203125 0 
L 43.21875 0 
L 43.21875 8.296875 
Q 40.140625 3.328125 35.546875 0.953125 
Q 30.953125 -1.421875 24.3125 -1.421875 
Q 15.921875 -1.421875 10.953125 3.296875 
Q 6 8.015625 6 15.921875 
Q 6 25.140625 12.171875 29.828125 
Q 18.359375 34.515625 30.609375 34.515625 
L 43.21875 34.515625 
L 43.21875 35.40625 
Q 43.21875 41.609375 39.140625 45 
Q 35.0625 48.390625 27.6875 48.390625 
Q 23 48.390625 18.546875 47.265625 
Q 14.109375 46.140625 10.015625 43.890625 
L 10.015625 52.203125 
Q 14.9375 54.109375 19.578125 55.046875 
Q 24.21875 56 28.609375 56 
Q 40.484375 56 46.34375 49.84375 
Q 52.203125 43.703125 52.203125 31.203125 
z
" id="DejaVuSans-97"/>
      <path d="M 18.3125 70.21875 
L 18.3125 54.6875 
L 36.8125 54.6875 
L 36.8125 47.703125 
L 18.3125 47.703125 
L 18.3125 18.015625 
Q 18.3125 11.328125 20.140625 9.421875 
Q 21.96875 7.515625 27.59375 7.515625 
L 36.8125 7.515625 
L 36.8125 0 
L 27.59375 0 
Q 17.1875 0 13.234375 3.875 
Q 9.28125 7.765625 9.28125 18.015625 
L 9.28125 47.703125 
L 2.6875 47.703125 
L 2.6875 54.6875 
L 9.28125 54.6875 
L 9.28125 70.21875 
z
" id="DejaVuSans-116"/>
      <path d="M 9.421875 54.6875 
L 18.40625 54.6875 
L 18.40625 0 
L 9.421875 0 
z
M 9.421875 75.984375 
L 18.40625 75.984375 
L 18.40625 64.59375 
L 9.421875 64.59375 
z
" id="DejaVuSans-105"/>
      <path d="M 30.609375 48.390625 
Q 23.390625 48.390625 19.1875 42.75 
Q 14.984375 37.109375 14.984375 27.296875 
Q 14.984375 17.484375 19.15625 11.84375 
Q 23.34375 6.203125 30.609375 6.203125 
Q 37.796875 6.203125 41.984375 11.859375 
Q 46.1875 17.53125 46.1875 27.296875 
Q 46.1875 37.015625 41.984375 42.703125 
Q 37.796875 48.390625 30.609375 48.390625 
z
M 30.609375 56 
Q 42.328125 56 49.015625 48.375 
Q 55.71875 40.765625 55.71875 27.296875 
Q 55.71875 13.875 49.015625 6.21875 
Q 42.328125 -1.421875 30.609375 -1.421875 
Q 18.84375 -1.421875 12.171875 6.21875 
Q 5.515625 13.875 5.515625 27.296875 
Q 5.515625 40.765625 12.171875 48.375 
Q 18.84375 56 30.609375 56 
z
" id="DejaVuSans-111"/>
     </defs>
     <g transform="translate(341.430938 353.731875)scale(0.12 -0.12)">
      <use xlink:href="#DejaVuSans-103"/>
      <use x="63.476562" xlink:href="#DejaVuSans-101"/>
      <use x="125" xlink:href="#DejaVuSans-110"/>
      <use x="188.378906" xlink:href="#DejaVuSans-101"/>
      <use x="249.902344" xlink:href="#DejaVuSans-114"/>
      <use x="291.015625" xlink:href="#DejaVuSans-97"/>
      <use x="352.294922" xlink:href="#DejaVuSans-116"/>
      <use x="391.503906" xlink:href="#DejaVuSans-105"/>
      <use x="419.287109" xlink:href="#DejaVuSans-111"/>
      <use x="480.46875" xlink:href="#DejaVuSans-110"/>
     </g>
    </g>
   </g>
   <g id="matplotlib.axis_2">
    <g id="ytick_1">
     <g id="line2d_25">
      <defs>
       <path d="M 0 0 
L 4 0 
" id="m7b5163b2f3" style="stroke:#000000;stroke-width:0.5;"/>
      </defs>
      <g>
       <use style="stroke:#000000;stroke-width:0.5;" x="112.5" xlink:href="#m7b5163b2f3" y="324"/>
      </g>
     </g>
     <g id="line2d_26">
      <defs>
       <path d="M 0 0 
L -4 0 
" id="m1ba8834411" style="stroke:#000000;stroke-width:0.5;"/>
      </defs>
      <g>
       <use style="stroke:#000000;stroke-width:0.5;" x="635.625" xlink:href="#m1ba8834411" y="324"/>
      </g>
     </g>
     <g id="text_12">
      <!-- 0.90 -->
      <defs>
       <path d="M 10.6875 12.40625 
L 21 12.40625 
L 21 0 
L 10.6875 0 
z
" id="DejaVuSans-46"/>
      </defs>
      <g transform="translate(81.78125 327.31125)scale(0.12 -0.12)">
       <use xlink:href="#DejaVuSans-48"/>
       <use x="63.623047" xlink:href="#DejaVuSans-46"/>
       <use x="95.410156" xlink:href="#DejaVuSans-57"/>
       <use x="159.033203" xlink:href="#DejaVuSans-48"/>
      </g>
     </g>
    </g>
    <g id="ytick_2">
     <g id="line2d_27">
      <g>
       <use style="stroke:#000000;stroke-width:0.5;" x="112.5" xlink:href="#m7b5163b2f3" y="276"/>
      </g>
     </g>
     <g id="line2d_28">
      <g>
       <use style="stroke:#000000;stroke-width:0.5;" x="635.625" xlink:href="#m1ba8834411" y="276"/>
      </g>
     </g>
     <g id="text_13">
      <!-- 0.91 -->
      <g transform="translate(81.78125 279.31125)scale(0.12 -0.12)">
       <use xlink:href="#DejaVuSans-48"/>
       <use x="63.623047" xlink:href="#DejaVuSans-46"/>
       <use x="95.410156" xlink:href="#DejaVuSans-57"/>
       <use x="159.033203" xlink:href="#DejaVuSans-49"/>
      </g>
     </g>
    </g>
    <g id="ytick_3">
     <g id="line2d_29">
      <g>
       <use style="stroke:#000000;stroke-width:0.5;" x="112.5" xlink:href="#m7b5163b2f3" y="228"/>
      </g>
     </g>
     <g id="line2d_30">
      <g>
       <use style="stroke:#000000;stroke-width:0.5;" x="635.625" xlink:href="#m1ba8834411" y="228"/>
      </g>
     </g>
     <g id="text_14">
      <!-- 0.92 -->
      <g transform="translate(81.78125 231.31125)scale(0.12 -0.12)">
       <use xlink:href="#DejaVuSans-48"/>
       <use x="63.623047" xlink:href="#DejaVuSans-46"/>
       <use x="95.410156" xlink:href="#DejaVuSans-57"/>
       <use x="159.033203" xlink:href="#DejaVuSans-50"/>
      </g>
     </g>
    </g>
    <g id="ytick_4">
     <g id="line2d_31">
      <g>
       <use style="stroke:#000000;stroke-width:0.5;" x="112.5" xlink:href="#m7b5163b2f3" y="180"/>
      </g>
     </g>
     <g id="line2d_32">
      <g>
       <use style="stroke:#000000;stroke-width:0.5;" x="635.625" xlink:href="#m1ba8834411" y="180"/>
      </g>
     </g>
     <g id="text_15">
      <!-- 0.93 -->
      <g transform="translate(81.78125 183.31125)scale(0.12 -0.12)">
       <use xlink:href="#DejaVuSans-48"/>
       <use x="63.623047" xlink:href="#DejaVuSans-46"/>
       <use x="95.410156" xlink:href="#DejaVuSans-57"/>
       <use x="159.033203" xlink:href="#DejaVuSans-51"/>
      </g>
     </g>
    </g>
    <g id="ytick_5">
     <g id="line2d_33">
      <g>
       <use style="stroke:#000000;stroke-width:0.5;" x="112.5" xlink:href="#m7b5163b2f3" y="132"/>
      </g>
     </g>
     <g id="line2d_34">
      <g>
       <use style="stroke:#000000;stroke-width:0.5;" x="635.625" xlink:href="#m1ba8834411" y="132"/>
      </g>
     </g>
     <g id="text_16">
      <!-- 0.94 -->
      <g transform="translate(81.78125 135.31125)scale(0.12 -0.12)">
       <use xlink:href="#DejaVuSans-48"/>
       <use x="63.623047" xlink:href="#DejaVuSans-46"/>
       <use x="95.410156" xlink:href="#DejaVuSans-57"/>
       <use x="159.033203" xlink:href="#DejaVuSans-52"/>
      </g>
     </g>
    </g>
    <g id="ytick_6">
     <g id="line2d_35">
      <g>
       <use style="stroke:#000000;stroke-width:0.5;" x="112.5" xlink:href="#m7b5163b2f3" y="84"/>
      </g>
     </g>
     <g id="line2d_36">
      <g>
       <use style="stroke:#000000;stroke-width:0.5;" x="635.625" xlink:href="#m1ba8834411" y="84"/>
      </g>
     </g>
     <g id="text_17">
      <!-- 0.95 -->
      <g transform="translate(81.78125 87.31125)scale(0.12 -0.12)">
       <use xlink:href="#DejaVuSans-48"/>
       <use x="63.623047" xlink:href="#DejaVuSans-46"/>
       <use x="95.410156" xlink:href="#DejaVuSans-57"/>
       <use x="159.033203" xlink:href="#DejaVuSans-53"/>
      </g>
     </g>
    </g>
    <g id="ytick_7">
     <g id="line2d_37">
      <g>
       <use style="stroke:#000000;stroke-width:0.5;" x="112.5" xlink:href="#m7b5163b2f3" y="36"/>
      </g>
     </g>
     <g id="line2d_38">
      <g>
       <use style="stroke:#000000;stroke-width:0.5;" x="635.625" xlink:href="#m1ba8834411" y="36"/>
      </g>
     </g>
     <g id="text_18">
      <!-- 0.96 -->
      <g transform="translate(81.78125 39.31125)scale(0.12 -0.12)">
       <use xlink:href="#DejaVuSans-48"/>
       <use x="63.623047" xlink:href="#DejaVuSans-46"/>
       <use x="95.410156" xlink:href="#DejaVuSans-57"/>
       <use x="159.033203" xlink:href="#DejaVuSans-54"/>
      </g>
     </g>
    </g>
    <g id="text_19">
     <!-- accuracy -->
     <defs>
      <path d="M 48.78125 52.59375 
L 48.78125 44.1875 
Q 44.96875 46.296875 41.140625 47.34375 
Q 37.3125 48.390625 33.40625 48.390625 
Q 24.65625 48.390625 19.8125 42.84375 
Q 14.984375 37.3125 14.984375 27.296875 
Q 14.984375 17.28125 19.8125 11.734375 
Q 24.65625 6.203125 33.40625 6.203125 
Q 37.3125 6.203125 41.140625 7.25 
Q 44.96875 8.296875 48.78125 10.40625 
L 48.78125 2.09375 
Q 45.015625 0.34375 40.984375 -0.53125 
Q 36.96875 -1.421875 32.421875 -1.421875 
Q 20.0625 -1.421875 12.78125 6.34375 
Q 5.515625 14.109375 5.515625 27.296875 
Q 5.515625 40.671875 12.859375 48.328125 
Q 20.21875 56 33.015625 56 
Q 37.15625 56 41.109375 55.140625 
Q 45.0625 54.296875 48.78125 52.59375 
z
" id="DejaVuSans-99"/>
      <path d="M 8.5 21.578125 
L 8.5 54.6875 
L 17.484375 54.6875 
L 17.484375 21.921875 
Q 17.484375 14.15625 20.5 10.265625 
Q 23.53125 6.390625 29.59375 6.390625 
Q 36.859375 6.390625 41.078125 11.03125 
Q 45.3125 15.671875 45.3125 23.6875 
L 45.3125 54.6875 
L 54.296875 54.6875 
L 54.296875 0 
L 45.3125 0 
L 45.3125 8.40625 
Q 42.046875 3.421875 37.71875 1 
Q 33.40625 -1.421875 27.6875 -1.421875 
Q 18.265625 -1.421875 13.375 4.4375 
Q 8.5 10.296875 8.5 21.578125 
z
M 31.109375 56 
z
" id="DejaVuSans-117"/>
      <path d="M 32.171875 -5.078125 
Q 28.375 -14.84375 24.75 -17.8125 
Q 21.140625 -20.796875 15.09375 -20.796875 
L 7.90625 -20.796875 
L 7.90625 -13.28125 
L 13.1875 -13.28125 
Q 16.890625 -13.28125 18.9375 -11.515625 
Q 21 -9.765625 23.484375 -3.21875 
L 25.09375 0.875 
L 2.984375 54.6875 
L 12.5 54.6875 
L 29.59375 11.921875 
L 46.6875 54.6875 
L 56.203125 54.6875 
z
" id="DejaVuSans-121"/>
     </defs>
     <g transform="translate(74.285625 207.07125)rotate(-90)scale(0.12 -0.12)">
      <use xlink:href="#DejaVuSans-97"/>
      <use x="61.279297" xlink:href="#DejaVuSans-99"/>
      <use x="116.259766" xlink:href="#DejaVuSans-99"/>
      <use x="171.240234" xlink:href="#DejaVuSans-117"/>
      <use x="234.619141" xlink:href="#DejaVuSans-114"/>
      <use x="275.732422" xlink:href="#DejaVuSans-97"/>
      <use x="337.011719" xlink:href="#DejaVuSans-99"/>
      <use x="391.992188" xlink:href="#DejaVuSans-121"/>
     </g>
    </g>
   </g>
   <g id="legend_1">
    <g id="patch_7">
     <path d="M 640.623 211.399935 
L 844.21653 211.399935 
L 844.21653 148.600065 
L 640.623 148.600065 
z
" style="fill:#ffffff;stroke:#000000;stroke-linejoin:miter;"/>
    </g>
    <g id="line2d_39">
     <path d="M 647.6202 156.695263 
L 661.6146 156.695263 
" style="fill:none;stroke:#0000ff;stroke-linecap:square;stroke-width:1.2;"/>
    </g>
    <g id="line2d_40"/>
    <g id="text_20">
     <!-- Crossover_epochs5_population10 -->
     <defs>
      <path d="M 64.40625 67.28125 
L 64.40625 56.890625 
Q 59.421875 61.53125 53.78125 63.8125 
Q 48.140625 66.109375 41.796875 66.109375 
Q 29.296875 66.109375 22.65625 58.46875 
Q 16.015625 50.828125 16.015625 36.375 
Q 16.015625 21.96875 22.65625 14.328125 
Q 29.296875 6.6875 41.796875 6.6875 
Q 48.140625 6.6875 53.78125 8.984375 
Q 59.421875 11.28125 64.40625 15.921875 
L 64.40625 5.609375 
Q 59.234375 2.09375 53.4375 0.328125 
Q 47.65625 -1.421875 41.21875 -1.421875 
Q 24.65625 -1.421875 15.125 8.703125 
Q 5.609375 18.84375 5.609375 36.375 
Q 5.609375 53.953125 15.125 64.078125 
Q 24.65625 74.21875 41.21875 74.21875 
Q 47.75 74.21875 53.53125 72.484375 
Q 59.328125 70.75 64.40625 67.28125 
z
" id="DejaVuSans-67"/>
      <path d="M 44.28125 53.078125 
L 44.28125 44.578125 
Q 40.484375 46.53125 36.375 47.5 
Q 32.28125 48.484375 27.875 48.484375 
Q 21.1875 48.484375 17.84375 46.4375 
Q 14.5 44.390625 14.5 40.28125 
Q 14.5 37.15625 16.890625 35.375 
Q 19.28125 33.59375 26.515625 31.984375 
L 29.59375 31.296875 
Q 39.15625 29.25 43.1875 25.515625 
Q 47.21875 21.78125 47.21875 15.09375 
Q 47.21875 7.46875 41.1875 3.015625 
Q 35.15625 -1.421875 24.609375 -1.421875 
Q 20.21875 -1.421875 15.453125 -0.5625 
Q 10.6875 0.296875 5.421875 2 
L 5.421875 11.28125 
Q 10.40625 8.6875 15.234375 7.390625 
Q 20.0625 6.109375 24.8125 6.109375 
Q 31.15625 6.109375 34.5625 8.28125 
Q 37.984375 10.453125 37.984375 14.40625 
Q 37.984375 18.0625 35.515625 20.015625 
Q 33.0625 21.96875 24.703125 23.78125 
L 21.578125 24.515625 
Q 13.234375 26.265625 9.515625 29.90625 
Q 5.8125 33.546875 5.8125 39.890625 
Q 5.8125 47.609375 11.28125 51.796875 
Q 16.75 56 26.8125 56 
Q 31.78125 56 36.171875 55.265625 
Q 40.578125 54.546875 44.28125 53.078125 
z
" id="DejaVuSans-115"/>
      <path d="M 2.984375 54.6875 
L 12.5 54.6875 
L 29.59375 8.796875 
L 46.6875 54.6875 
L 56.203125 54.6875 
L 35.6875 0 
L 23.484375 0 
z
" id="DejaVuSans-118"/>
      <path d="M 50.984375 -16.609375 
L 50.984375 -23.578125 
L -0.984375 -23.578125 
L -0.984375 -16.609375 
z
" id="DejaVuSans-95"/>
      <path d="M 18.109375 8.203125 
L 18.109375 -20.796875 
L 9.078125 -20.796875 
L 9.078125 54.6875 
L 18.109375 54.6875 
L 18.109375 46.390625 
Q 20.953125 51.265625 25.265625 53.625 
Q 29.59375 56 35.59375 56 
Q 45.5625 56 51.78125 48.09375 
Q 58.015625 40.1875 58.015625 27.296875 
Q 58.015625 14.40625 51.78125 6.484375 
Q 45.5625 -1.421875 35.59375 -1.421875 
Q 29.59375 -1.421875 25.265625 0.953125 
Q 20.953125 3.328125 18.109375 8.203125 
z
M 48.6875 27.296875 
Q 48.6875 37.203125 44.609375 42.84375 
Q 40.53125 48.484375 33.40625 48.484375 
Q 26.265625 48.484375 22.1875 42.84375 
Q 18.109375 37.203125 18.109375 27.296875 
Q 18.109375 17.390625 22.1875 11.75 
Q 26.265625 6.109375 33.40625 6.109375 
Q 40.53125 6.109375 44.609375 11.75 
Q 48.6875 17.390625 48.6875 27.296875 
z
" id="DejaVuSans-112"/>
      <path d="M 54.890625 33.015625 
L 54.890625 0 
L 45.90625 0 
L 45.90625 32.71875 
Q 45.90625 40.484375 42.875 44.328125 
Q 39.84375 48.1875 33.796875 48.1875 
Q 26.515625 48.1875 22.3125 43.546875 
Q 18.109375 38.921875 18.109375 30.90625 
L 18.109375 0 
L 9.078125 0 
L 9.078125 75.984375 
L 18.109375 75.984375 
L 18.109375 46.1875 
Q 21.34375 51.125 25.703125 53.5625 
Q 30.078125 56 35.796875 56 
Q 45.21875 56 50.046875 50.171875 
Q 54.890625 44.34375 54.890625 33.015625 
z
" id="DejaVuSans-104"/>
      <path d="M 9.421875 75.984375 
L 18.40625 75.984375 
L 18.40625 0 
L 9.421875 0 
z
" id="DejaVuSans-108"/>
     </defs>
     <g transform="translate(672.6102 160.193863)scale(0.09996 -0.09996)">
      <use xlink:href="#DejaVuSans-67"/>
      <use x="69.824219" xlink:href="#DejaVuSans-114"/>
      <use x="108.6875" xlink:href="#DejaVuSans-111"/>
      <use x="169.869141" xlink:href="#DejaVuSans-115"/>
      <use x="221.96875" xlink:href="#DejaVuSans-115"/>
      <use x="274.068359" xlink:href="#DejaVuSans-111"/>
      <use x="335.25" xlink:href="#DejaVuSans-118"/>
      <use x="394.429688" xlink:href="#DejaVuSans-101"/>
      <use x="455.953125" xlink:href="#DejaVuSans-114"/>
      <use x="497.066406" xlink:href="#DejaVuSans-95"/>
      <use x="547.066406" xlink:href="#DejaVuSans-101"/>
      <use x="608.589844" xlink:href="#DejaVuSans-112"/>
      <use x="672.066406" xlink:href="#DejaVuSans-111"/>
      <use x="733.248047" xlink:href="#DejaVuSans-99"/>
      <use x="788.228516" xlink:href="#DejaVuSans-104"/>
      <use x="851.607422" xlink:href="#DejaVuSans-115"/>
      <use x="903.707031" xlink:href="#DejaVuSans-53"/>
      <use x="967.330078" xlink:href="#DejaVuSans-95"/>
      <use x="1017.330078" xlink:href="#DejaVuSans-112"/>
      <use x="1080.806641" xlink:href="#DejaVuSans-111"/>
      <use x="1141.988281" xlink:href="#DejaVuSans-112"/>
      <use x="1205.464844" xlink:href="#DejaVuSans-117"/>
      <use x="1268.84375" xlink:href="#DejaVuSans-108"/>
      <use x="1296.626953" xlink:href="#DejaVuSans-97"/>
      <use x="1357.90625" xlink:href="#DejaVuSans-116"/>
      <use x="1397.115234" xlink:href="#DejaVuSans-105"/>
      <use x="1424.898438" xlink:href="#DejaVuSans-111"/>
      <use x="1486.080078" xlink:href="#DejaVuSans-110"/>
      <use x="1549.458984" xlink:href="#DejaVuSans-49"/>
      <use x="1613.082031" xlink:href="#DejaVuSans-48"/>
     </g>
    </g>
    <g id="line2d_41">
     <path d="M 647.6202 171.645531 
L 661.6146 171.645531 
" style="fill:none;stroke:#008000;stroke-linecap:square;stroke-width:1.2;"/>
    </g>
    <g id="line2d_42"/>
    <g id="text_21">
     <!-- Crossover_epochs3_population17 -->
     <g transform="translate(672.6102 175.144131)scale(0.09996 -0.09996)">
      <use xlink:href="#DejaVuSans-67"/>
      <use x="69.824219" xlink:href="#DejaVuSans-114"/>
      <use x="108.6875" xlink:href="#DejaVuSans-111"/>
      <use x="169.869141" xlink:href="#DejaVuSans-115"/>
      <use x="221.96875" xlink:href="#DejaVuSans-115"/>
      <use x="274.068359" xlink:href="#DejaVuSans-111"/>
      <use x="335.25" xlink:href="#DejaVuSans-118"/>
      <use x="394.429688" xlink:href="#DejaVuSans-101"/>
      <use x="455.953125" xlink:href="#DejaVuSans-114"/>
      <use x="497.066406" xlink:href="#DejaVuSans-95"/>
      <use x="547.066406" xlink:href="#DejaVuSans-101"/>
      <use x="608.589844" xlink:href="#DejaVuSans-112"/>
      <use x="672.066406" xlink:href="#DejaVuSans-111"/>
      <use x="733.248047" xlink:href="#DejaVuSans-99"/>
      <use x="788.228516" xlink:href="#DejaVuSans-104"/>
      <use x="851.607422" xlink:href="#DejaVuSans-115"/>
      <use x="903.707031" xlink:href="#DejaVuSans-51"/>
      <use x="967.330078" xlink:href="#DejaVuSans-95"/>
      <use x="1017.330078" xlink:href="#DejaVuSans-112"/>
      <use x="1080.806641" xlink:href="#DejaVuSans-111"/>
      <use x="1141.988281" xlink:href="#DejaVuSans-112"/>
      <use x="1205.464844" xlink:href="#DejaVuSans-117"/>
      <use x="1268.84375" xlink:href="#DejaVuSans-108"/>
      <use x="1296.626953" xlink:href="#DejaVuSans-97"/>
      <use x="1357.90625" xlink:href="#DejaVuSans-116"/>
      <use x="1397.115234" xlink:href="#DejaVuSans-105"/>
      <use x="1424.898438" xlink:href="#DejaVuSans-111"/>
      <use x="1486.080078" xlink:href="#DejaVuSans-110"/>
      <use x="1549.458984" xlink:href="#DejaVuSans-49"/>
      <use x="1613.082031" xlink:href="#DejaVuSans-55"/>
     </g>
    </g>
    <g id="line2d_43">
     <path d="M 647.6202 186.595798 
L 661.6146 186.595798 
" style="fill:none;stroke:#ff0000;stroke-linecap:square;stroke-width:1.2;"/>
    </g>
    <g id="line2d_44"/>
    <g id="text_22">
     <!-- Crossover_epochs4_population13 -->
     <g transform="translate(672.6102 190.094398)scale(0.09996 -0.09996)">
      <use xlink:href="#DejaVuSans-67"/>
      <use x="69.824219" xlink:href="#DejaVuSans-114"/>
      <use x="108.6875" xlink:href="#DejaVuSans-111"/>
      <use x="169.869141" xlink:href="#DejaVuSans-115"/>
      <use x="221.96875" xlink:href="#DejaVuSans-115"/>
      <use x="274.068359" xlink:href="#DejaVuSans-111"/>
      <use x="335.25" xlink:href="#DejaVuSans-118"/>
      <use x="394.429688" xlink:href="#DejaVuSans-101"/>
      <use x="455.953125" xlink:href="#DejaVuSans-114"/>
      <use x="497.066406" xlink:href="#DejaVuSans-95"/>
      <use x="547.066406" xlink:href="#DejaVuSans-101"/>
      <use x="608.589844" xlink:href="#DejaVuSans-112"/>
      <use x="672.066406" xlink:href="#DejaVuSans-111"/>
      <use x="733.248047" xlink:href="#DejaVuSans-99"/>
      <use x="788.228516" xlink:href="#DejaVuSans-104"/>
      <use x="851.607422" xlink:href="#DejaVuSans-115"/>
      <use x="903.707031" xlink:href="#DejaVuSans-52"/>
      <use x="967.330078" xlink:href="#DejaVuSans-95"/>
      <use x="1017.330078" xlink:href="#DejaVuSans-112"/>
      <use x="1080.806641" xlink:href="#DejaVuSans-111"/>
      <use x="1141.988281" xlink:href="#DejaVuSans-112"/>
      <use x="1205.464844" xlink:href="#DejaVuSans-117"/>
      <use x="1268.84375" xlink:href="#DejaVuSans-108"/>
      <use x="1296.626953" xlink:href="#DejaVuSans-97"/>
      <use x="1357.90625" xlink:href="#DejaVuSans-116"/>
      <use x="1397.115234" xlink:href="#DejaVuSans-105"/>
      <use x="1424.898438" xlink:href="#DejaVuSans-111"/>
      <use x="1486.080078" xlink:href="#DejaVuSans-110"/>
      <use x="1549.458984" xlink:href="#DejaVuSans-49"/>
      <use x="1613.082031" xlink:href="#DejaVuSans-51"/>
     </g>
    </g>
    <g id="line2d_45">
     <path d="M 647.6202 201.546066 
L 661.6146 201.546066 
" style="fill:none;stroke:#00bfbf;stroke-linecap:square;stroke-width:1.2;"/>
    </g>
    <g id="line2d_46"/>
    <g id="text_23">
     <!-- Crossover_epochs10_population5 -->
     <g transform="translate(672.6102 205.044666)scale(0.09996 -0.09996)">
      <use xlink:href="#DejaVuSans-67"/>
      <use x="69.824219" xlink:href="#DejaVuSans-114"/>
      <use x="108.6875" xlink:href="#DejaVuSans-111"/>
      <use x="169.869141" xlink:href="#DejaVuSans-115"/>
      <use x="221.96875" xlink:href="#DejaVuSans-115"/>
      <use x="274.068359" xlink:href="#DejaVuSans-111"/>
      <use x="335.25" xlink:href="#DejaVuSans-118"/>
      <use x="394.429688" xlink:href="#DejaVuSans-101"/>
      <use x="455.953125" xlink:href="#DejaVuSans-114"/>
      <use x="497.066406" xlink:href="#DejaVuSans-95"/>
      <use x="547.066406" xlink:href="#DejaVuSans-101"/>
      <use x="608.589844" xlink:href="#DejaVuSans-112"/>
      <use x="672.066406" xlink:href="#DejaVuSans-111"/>
      <use x="733.248047" xlink:href="#DejaVuSans-99"/>
      <use x="788.228516" xlink:href="#DejaVuSans-104"/>
      <use x="851.607422" xlink:href="#DejaVuSans-115"/>
      <use x="903.707031" xlink:href="#DejaVuSans-49"/>
      <use x="967.330078" xlink:href="#DejaVuSans-48"/>
      <use x="1030.953125" xlink:href="#DejaVuSans-95"/>
      <use x="1080.953125" xlink:href="#DejaVuSans-112"/>
      <use x="1144.429688" xlink:href="#DejaVuSans-111"/>
      <use x="1205.611328" xlink:href="#DejaVuSans-112"/>
      <use x="1269.087891" xlink:href="#DejaVuSans-117"/>
      <use x="1332.466797" xlink:href="#DejaVuSans-108"/>
      <use x="1360.25" xlink:href="#DejaVuSans-97"/>
      <use x="1421.529297" xlink:href="#DejaVuSans-116"/>
      <use x="1460.738281" xlink:href="#DejaVuSans-105"/>
      <use x="1488.521484" xlink:href="#DejaVuSans-111"/>
      <use x="1549.703125" xlink:href="#DejaVuSans-110"/>
      <use x="1613.082031" xlink:href="#DejaVuSans-53"/>
     </g>
    </g>
   </g>
  </g>
  <g id="text_24">
   <!-- Average Accuracy -->
   <defs>
    <path d="M 34.1875 63.1875 
L 20.796875 26.90625 
L 47.609375 26.90625 
z
M 28.609375 72.90625 
L 39.796875 72.90625 
L 67.578125 0 
L 57.328125 0 
L 50.6875 18.703125 
L 17.828125 18.703125 
L 11.1875 0 
L 0.78125 0 
z
" id="DejaVuSans-65"/>
    <path id="DejaVuSans-32"/>
   </defs>
   <g transform="translate(396.06 16.318125)scale(0.12 -0.12)">
    <use xlink:href="#DejaVuSans-65"/>
    <use x="62.533203" xlink:href="#DejaVuSans-118"/>
    <use x="121.712891" xlink:href="#DejaVuSans-101"/>
    <use x="183.236328" xlink:href="#DejaVuSans-114"/>
    <use x="224.349609" xlink:href="#DejaVuSans-97"/>
    <use x="285.628906" xlink:href="#DejaVuSans-103"/>
    <use x="349.105469" xlink:href="#DejaVuSans-101"/>
    <use x="410.628906" xlink:href="#DejaVuSans-32"/>
    <use x="442.416016" xlink:href="#DejaVuSans-65"/>
    <use x="509.074219" xlink:href="#DejaVuSans-99"/>
    <use x="564.054688" xlink:href="#DejaVuSans-99"/>
    <use x="619.035156" xlink:href="#DejaVuSans-117"/>
    <use x="682.414062" xlink:href="#DejaVuSans-114"/>
    <use x="723.527344" xlink:href="#DejaVuSans-97"/>
    <use x="784.806641" xlink:href="#DejaVuSans-99"/>
    <use x="839.787109" xlink:href="#DejaVuSans-121"/>
   </g>
  </g>
 </g>
 <defs>
  <clipPath id="p25eb392d3f">
   <rect height="288" width="523.125" x="112.5" y="36"/>
  </clipPath>
 </defs>
</svg>
