<?xml version="1.0" encoding="utf-8" standalone="no"?>
<!DOCTYPE svg PUBLIC "-//W3C//DTD SVG 1.1//EN"
  "http://www.w3.org/Graphics/SVG/1.1/DTD/svg11.dtd">
<!-- Created with matplotlib (https://matplotlib.org/) -->
<svg height="360pt" version="1.1" viewBox="0 0 900 360" width="900pt" xmlns="http://www.w3.org/2000/svg" xmlns:xlink="http://www.w3.org/1999/xlink">
 <defs>
  <style type="text/css">
*{stroke-linecap:butt;stroke-linejoin:round;}
  </style>
 </defs>
 <g id="figure_1">
  <g id="patch_1">
   <path d="M 0 360 
L 900 360 
L 900 0 
L 0 0 
z
" style="fill:#ffffff;"/>
  </g>
  <g id="axes_1">
   <g id="patch_2">
    <path d="M 112.5 324 
L 635.625 324 
L 635.625 36 
L 112.5 36 
z
" style="fill:#ffffff;"/>
   </g>
   <g id="line2d_1">
    <path clip-path="url(#p2a765c9687)" d="M 112.793561 159.167091 
L 118.664773 162.960913 
L 121.600379 164.851367 
L 124.535985 169.953794 
L 127.471591 171.80085 
L 130.407197 165.725442 
L 133.342803 182.66525 
L 136.278409 181.348203 
L 139.214015 181.860257 
L 142.149621 198.953391 
L 145.085227 184.194856 
L 148.020833 186.885942 
L 150.956439 194.656693 
L 153.892045 211.693313 
L 156.827652 194.129605 
L 159.763258 186.781204 
L 162.698864 193.234461 
L 165.63447 192.449049 
L 168.570076 194.267104 
L 171.505682 211.654094 
L 174.441288 209.381451 
L 177.376894 199.956612 
L 180.3125 212.270481 
L 183.248106 207.339765 
L 186.183712 209.795102 
L 189.119318 214.70362 
L 192.054924 223.219996 
L 194.99053 218.327795 
L 197.926136 210.482816 
L 200.861742 207.812069 
L 203.797348 211.518673 
L 206.732955 199.373977 
L 209.668561 196.982557 
L 212.604167 204.920097 
L 215.539773 200.375202 
L 218.475379 208.324168 
L 221.410985 193.417051 
L 224.346591 210.533128 
L 227.282197 212.602802 
L 230.217803 198.926584 
L 233.153409 196.818967 
L 236.089015 215.771333 
L 239.024621 195.88563 
L 241.960227 198.297873 
L 244.895833 207.767411 
L 247.831439 222.440595 
L 250.767045 216.011947 
L 253.702652 201.330729 
L 256.638258 219.84874 
L 259.573864 220.285318 
L 262.50947 222.649199 
L 265.445076 226.389647 
L 268.380682 224.39499 
L 271.316288 228.664962 
L 274.251894 244.592408 
L 277.1875 207.040641 
L 280.123106 209.590803 
L 283.058712 210.987511 
L 285.994318 210.81587 
L 288.929924 214.469241 
L 291.86553 222.91867 
L 294.801136 220.487547 
L 297.736742 222.169569 
L 300.672348 219.929105 
L 303.607955 226.564333 
L 306.543561 228.68334 
L 312.414773 235.249497 
L 315.350379 233.187327 
L 318.285985 235.209487 
L 321.221591 231.446246 
L 324.157197 237.811352 
L 327.092803 236.727948 
L 330.028409 224.066624 
L 332.964015 233.57 
L 335.899621 224.406931 
L 338.835227 226.224939 
L 341.770833 208.137523 
L 344.706439 213.126482 
L 347.642045 211.127889 
L 350.577652 209.564411 
L 353.513258 224.16302 
L 356.448864 228.223837 
L 359.38447 228.522944 
L 362.320076 234.729945 
L 365.255682 230.978729 
L 368.191288 241.395224 
L 371.126894 252.501228 
L 374.0625 245.981967 
L 376.998106 238.078155 
L 379.933712 237.74542 
L 382.869318 248.375998 
L 385.804924 236.111246 
L 388.74053 247.525792 
L 391.676136 250.503226 
L 394.611742 232.10143 
L 397.547348 234.264786 
L 400.482955 241.11782 
L 403.418561 249.441656 
L 406.354167 246.128135 
L 409.289773 243.743239 
L 412.225379 252.055206 
L 415.160985 252.536712 
L 418.096591 251.195876 
L 421.032197 247.872803 
L 423.967803 248.914112 
L 426.903409 265.485163 
L 429.839015 254.112735 
L 432.774621 252.922562 
L 435.710227 261.507042 
L 438.645833 259.427503 
L 441.581439 246.029848 
L 444.517045 251.441795 
L 447.452652 262.071554 
L 450.388258 257.599715 
L 453.323864 262.91247 
L 456.25947 269.433831 
L 459.195076 265.861675 
L 462.130682 256.072655 
L 465.066288 259.09297 
L 468.001894 266.016291 
L 470.9375 256.594547 
L 473.873106 257.487102 
L 476.808712 254.353094 
L 479.744318 272.305723 
L 482.679924 252.539997 
L 485.61553 252.015023 
L 488.551136 255.005924 
L 491.486742 244.286082 
L 494.422348 260.26825 
L 497.357955 246.540554 
L 500.293561 255.753522 
L 503.229167 239.578914 
L 506.164773 247.253337 
L 509.100379 250.600552 
L 512.035985 244.005751 
L 514.971591 252.045074 
L 517.907197 252.666634 
L 520.842803 225.829455 
L 523.778409 256.189095 
L 526.714015 257.620156 
L 529.649621 255.154161 
L 532.585227 247.861448 
L 535.520833 245.408005 
L 538.456439 255.725175 
L 541.392045 250.336146 
L 544.327652 253.923883 
L 547.263258 255.752437 
L 550.198864 246.670388 
L 553.13447 254.095576 
L 556.070076 255.227117 
L 559.005682 257.513511 
L 561.941288 240.756251 
L 564.876894 248.77087 
L 567.8125 248.830419 
L 570.748106 240.425074 
L 573.683712 249.464996 
L 576.619318 248.191824 
L 579.554924 241.415512 
L 582.49053 246.052557 
L 585.426136 257.992423 
L 588.361742 251.143458 
L 591.297348 257.854932 
L 594.232955 254.928136 
L 597.168561 251.425105 
L 600.104167 259.129197 
L 603.039773 251.237549 
L 605.975379 257.028851 
L 608.910985 244.230194 
L 611.846591 248.009469 
L 614.782197 237.73016 
L 617.717803 252.622757 
L 620.653409 240.91958 
L 623.589015 246.724963 
L 626.524621 246.768834 
L 629.460227 251.065465 
L 632.395833 243.542271 
L 635.331439 251.889208 
L 635.331439 251.889208 
" style="fill:none;stroke:#0000ff;stroke-linecap:square;stroke-width:1.2;"/>
   </g>
   <g id="line2d_2">
    <path clip-path="url(#p2a765c9687)" d="M 112.793561 153.483773 
L 115.729167 140.126744 
L 118.664773 138.341363 
L 121.600379 154.79962 
L 124.535985 132.515702 
L 127.471591 151.953619 
L 130.407197 154.704919 
L 133.342803 154.376081 
L 136.278409 156.197898 
L 139.214015 160.703136 
L 142.149621 161.714401 
L 145.085227 146.340065 
L 148.020833 143.126324 
L 150.956439 154.097093 
L 153.892045 148.39872 
L 156.827652 133.822145 
L 159.763258 152.729201 
L 162.698864 161.883089 
L 165.63447 138.550484 
L 168.570076 159.970903 
L 171.505682 152.226463 
L 174.441288 149.405169 
L 177.376894 154.297334 
L 180.3125 165.655261 
L 183.248106 166.298284 
L 186.183712 157.482187 
L 189.119318 147.455332 
L 192.054924 159.682935 
L 194.99053 161.581777 
L 197.926136 159.382589 
L 200.861742 150.821332 
L 203.797348 149.103752 
L 206.732955 151.567344 
L 209.668561 153.775142 
L 212.604167 168.822158 
L 215.539773 148.254876 
L 218.475379 155.491951 
L 221.410985 137.932205 
L 224.346591 150.943265 
L 227.282197 141.411553 
L 230.217803 149.799835 
L 233.153409 145.093445 
L 236.089015 154.051899 
L 239.024621 156.537587 
L 241.960227 166.274065 
L 244.895833 153.587661 
L 247.831439 161.931296 
L 250.767045 155.005555 
L 253.702652 149.487134 
L 256.638258 162.830576 
L 259.573864 169.271432 
L 262.50947 183.437722 
L 265.445076 179.757626 
L 268.380682 171.719657 
L 271.316288 172.890225 
L 274.251894 189.20837 
L 277.1875 175.889894 
L 280.123106 178.393852 
L 283.058712 172.087876 
L 285.994318 168.080104 
L 288.929924 172.172301 
L 291.86553 164.423261 
L 294.801136 172.332695 
L 297.736742 168.581707 
L 300.672348 181.029383 
L 303.607955 154.189139 
L 306.543561 163.372436 
L 312.414773 184.56317 
L 315.350379 176.299781 
L 318.285985 192.507739 
L 321.221591 188.18016 
L 324.157197 194.171801 
L 327.092803 189.741615 
L 330.028409 192.187172 
L 332.964015 165.343506 
L 335.899621 187.252166 
L 338.835227 155.464244 
L 341.770833 177.476854 
L 344.706439 165.329561 
L 347.642045 171.564845 
L 350.577652 170.046259 
L 353.513258 181.297015 
L 356.448864 173.504483 
L 359.38447 164.859773 
L 362.320076 178.944005 
L 365.255682 180.728587 
L 368.191288 187.300009 
L 371.126894 184.25881 
L 374.0625 189.244687 
L 376.998106 185.297625 
L 379.933712 190.795135 
L 382.869318 185.231391 
L 385.804924 183.545093 
L 388.74053 181.183861 
L 391.676136 203.99215 
L 394.611742 211.910166 
L 397.547348 199.640825 
L 400.482955 198.478884 
L 403.418561 182.085665 
L 406.354167 197.599667 
L 409.289773 187.788031 
L 412.225379 196.850873 
L 415.160985 204.216566 
L 418.096591 177.536862 
L 421.032197 198.467637 
L 423.967803 207.548593 
L 426.903409 205.746004 
L 429.839015 196.965016 
L 432.774621 199.387875 
L 435.710227 204.559821 
L 438.645833 206.528827 
L 441.581439 218.39037 
L 444.517045 227.707561 
L 447.452652 203.7822 
L 450.388258 217.329068 
L 453.323864 226.403245 
L 456.25947 220.426522 
L 459.195076 218.717917 
L 462.130682 216.446133 
L 465.066288 210.311468 
L 468.001894 230.580475 
L 470.9375 213.699174 
L 473.873106 202.803553 
L 476.808712 206.506298 
L 479.744318 211.3953 
L 482.679924 212.361786 
L 485.61553 217.200775 
L 488.551136 213.270641 
L 491.486742 214.943909 
L 494.422348 210.458086 
L 497.357955 186.440075 
L 500.293561 208.937012 
L 503.229167 207.26213 
L 506.164773 204.041002 
L 509.100379 210.157841 
L 512.035985 173.597151 
L 514.971591 186.723405 
L 517.907197 197.466177 
L 520.842803 195.074486 
L 523.778409 181.753229 
L 526.714015 190.001224 
L 529.649621 187.570942 
L 532.585227 198.029546 
L 535.520833 198.066814 
L 538.456439 187.736467 
L 541.392045 199.512457 
L 544.327652 207.019502 
L 547.263258 197.431936 
L 550.198864 204.197168 
L 553.13447 193.643713 
L 556.070076 188.160962 
L 559.005682 202.5418 
L 561.941288 205.755443 
L 564.876894 201.923306 
L 567.8125 195.452282 
L 570.748106 210.807378 
L 573.683712 209.672877 
L 576.619318 200.15335 
L 579.554924 213.111022 
L 582.49053 205.58609 
L 585.426136 203.834571 
L 588.361742 214.936885 
L 588.361742 214.936885 
" style="fill:none;stroke:#008000;stroke-linecap:square;stroke-width:1.2;"/>
   </g>
   <g id="line2d_3">
    <path clip-path="url(#p2a765c9687)" d="M 112.793561 155.179915 
L 115.729167 151.288413 
L 118.664773 158.92087 
L 121.600379 168.028674 
L 124.535985 136.157435 
L 127.471591 129.903002 
L 130.407197 128.024271 
L 133.342803 133.251597 
L 136.278409 153.521306 
L 139.214015 135.62471 
L 142.149621 159.185366 
L 145.085227 144.893913 
L 148.020833 148.880976 
L 150.956439 137.34908 
L 153.892045 145.001249 
L 156.827652 133.401229 
L 159.763258 153.301807 
L 162.698864 140.494586 
L 165.63447 137.372491 
L 168.570076 146.788004 
L 171.505682 150.595056 
L 174.441288 144.647713 
L 177.376894 138.980621 
L 180.3125 136.96009 
L 183.248106 154.258366 
L 186.183712 148.679523 
L 189.119318 148.287936 
L 192.054924 141.656906 
L 194.99053 150.287785 
L 197.926136 159.328161 
L 200.861742 150.701169 
L 203.797348 161.999345 
L 206.732955 153.23201 
L 209.668561 152.462993 
L 212.604167 154.487441 
L 215.539773 150.385936 
L 218.475379 149.54603 
L 221.410985 153.973911 
L 224.346591 143.686799 
L 227.282197 141.848107 
L 230.217803 148.199245 
L 233.153409 137.833521 
L 236.089015 145.394094 
L 239.024621 148.717203 
L 241.960227 145.958446 
L 244.895833 147.378431 
L 247.831439 150.441869 
L 250.767045 160.138007 
L 253.702652 162.142782 
L 256.638258 154.685874 
L 259.573864 176.219494 
L 262.50947 154.837949 
L 265.445076 161.700944 
L 268.380682 162.667659 
L 271.316288 156.410172 
L 274.251894 166.999189 
L 277.1875 153.839042 
L 280.123106 143.005196 
L 283.058712 158.677551 
L 285.994318 154.180653 
L 288.929924 122.039389 
L 291.86553 129.651333 
L 294.801136 135.258038 
L 297.736742 125.299021 
L 300.672348 130.896364 
L 303.607955 125.333851 
L 306.543561 109.496286 
L 309.479167 127.833264 
L 312.414773 124.21289 
L 315.350379 136.558055 
L 318.285985 119.084011 
L 321.221591 139.720531 
L 324.157197 143.035209 
L 327.092803 129.105222 
L 330.028409 145.910017 
L 332.964015 141.66256 
L 335.899621 127.750859 
L 338.835227 143.810821 
L 341.770833 147.0336 
L 344.706439 147.968312 
L 347.642045 134.526851 
L 350.577652 141.378959 
L 353.513258 129.56203 
L 356.448864 144.484531 
L 359.38447 134.178069 
L 362.320076 118.760212 
L 365.255682 120.357976 
L 368.191288 137.54274 
L 371.126894 77.026981 
L 374.0625 117.821089 
L 376.998106 140.831038 
L 379.933712 119.784381 
L 382.869318 116.289774 
L 385.804924 102.673448 
L 388.74053 82.281608 
L 391.676136 107.287121 
L 394.611742 97.315761 
L 397.547348 133.730981 
L 400.482955 133.460929 
L 403.418561 144.507197 
L 406.354167 148.812988 
L 409.289773 164.480447 
L 412.225379 146.389943 
L 415.160985 158.943334 
L 418.096591 129.478464 
L 421.032197 151.110073 
L 423.967803 155.192678 
L 426.903409 147.811524 
L 429.839015 147.681463 
L 432.774621 162.905753 
L 435.710227 160.850313 
L 438.645833 138.939211 
L 441.581439 141.625736 
L 444.517045 132.035801 
L 447.452652 147.244901 
L 450.388258 149.016657 
L 453.323864 149.978113 
L 456.25947 130.343182 
L 459.195076 143.681917 
L 462.130682 113.57077 
L 465.066288 141.696381 
L 470.9375 87.125455 
L 473.873106 85.170421 
L 476.808712 76.493344 
L 479.744318 122.52527 
L 482.679924 130.978125 
L 485.61553 132.838257 
L 488.551136 137.907271 
L 491.486742 157.433464 
L 494.422348 154.731284 
L 497.357955 153.810726 
L 500.293561 147.423865 
L 503.229167 147.959188 
L 506.164773 141.436465 
L 509.100379 122.792911 
L 512.035985 127.709856 
L 514.971591 104.938831 
L 517.907197 113.857062 
L 520.842803 136.067155 
L 523.778409 142.522401 
L 526.714015 134.573663 
L 529.649621 133.988991 
L 532.585227 119.677118 
L 535.520833 119.964996 
L 538.456439 118.006154 
L 541.392045 98.704376 
L 544.327652 141.662995 
L 547.263258 123.9653 
L 550.198864 133.205268 
L 553.13447 124.370085 
L 556.070076 135.68942 
L 559.005682 128.753088 
L 561.941288 132.959892 
L 564.876894 136.906892 
L 567.8125 144.448622 
L 570.748106 142.952084 
L 573.683712 150.583355 
L 576.619318 140.279498 
L 579.554924 142.449026 
L 582.49053 152.919312 
L 585.426136 150.726372 
L 591.297348 147.3074 
L 594.232955 149.883208 
L 597.168561 169.363748 
L 600.104167 167.380404 
L 603.039773 163.205609 
L 605.975379 161.786875 
L 608.910985 156.39483 
L 611.846591 172.654407 
L 614.782197 184.903577 
L 617.717803 171.735607 
L 620.653409 169.659513 
L 620.653409 169.659513 
" style="fill:none;stroke:#ff0000;stroke-linecap:square;stroke-width:1.2;"/>
   </g>
   <g id="line2d_4">
    <path clip-path="url(#p2a765c9687)" d="M 112.793561 136.934057 
L 115.729167 146.556438 
L 118.664773 161.574562 
L 121.600379 145.521741 
L 124.535985 143.359667 
L 127.471591 127.816076 
L 130.407197 142.100427 
L 133.342803 139.833461 
L 136.278409 154.637495 
L 139.214015 142.152794 
L 142.149621 155.466143 
L 145.085227 152.544697 
L 148.020833 154.073992 
L 150.956439 145.93959 
L 153.892045 147.292144 
L 156.827652 162.386271 
L 159.763258 152.777594 
L 162.698864 146.661516 
L 165.63447 144.136673 
L 168.570076 126.590799 
L 174.441288 144.532408 
L 177.376894 138.962294 
L 180.3125 132.005629 
L 183.248106 135.888031 
L 186.183712 119.184906 
L 189.119318 138.140087 
L 192.054924 142.543054 
L 194.99053 149.602959 
L 197.926136 126.468259 
L 200.861742 125.592482 
L 203.797348 114.989963 
L 206.732955 113.644809 
L 209.668561 127.845569 
L 212.604167 132.289687 
L 215.539773 130.495266 
L 218.475379 123.66477 
L 221.410985 113.525319 
L 227.282197 133.703071 
L 230.217803 135.817547 
L 233.153409 125.910223 
L 236.089015 144.618668 
L 239.024621 140.00383 
L 241.960227 123.398069 
L 244.895833 124.366626 
L 247.831439 136.952208 
L 250.767045 133.241774 
L 253.702652 145.581585 
L 256.638258 140.649741 
L 259.573864 145.806862 
L 262.50947 128.904763 
L 265.445076 145.491673 
L 268.380682 138.973607 
L 271.316288 147.654856 
L 274.251894 136.009768 
L 277.1875 144.259327 
L 280.123106 140.140886 
L 283.058712 149.844003 
L 285.994318 150.348157 
L 288.929924 141.135234 
L 291.86553 156.131065 
L 294.801136 142.499253 
L 297.736742 133.568937 
L 300.672348 139.101584 
L 303.607955 154.459411 
L 306.543561 141.507795 
L 309.479167 136.117547 
L 312.414773 133.308223 
L 315.350379 137.180322 
L 318.285985 155.058705 
L 321.221591 137.580247 
L 324.157197 123.779154 
L 327.092803 140.877987 
L 330.028409 138.163347 
L 332.964015 146.432242 
L 335.899621 145.317368 
L 338.835227 157.817548 
L 341.770833 152.233293 
L 344.706439 160.324288 
L 347.642045 157.660284 
L 350.577652 142.014121 
L 353.513258 129.527627 
L 356.448864 130.788828 
L 359.38447 149.001899 
L 362.320076 147.580468 
L 365.255682 139.581927 
L 368.191288 136.967107 
L 371.126894 151.682075 
L 374.0625 153.564864 
L 376.998106 145.971681 
L 379.933712 151.166566 
L 382.869318 149.360515 
L 385.804924 153.282265 
L 388.74053 140.964276 
L 391.676136 145.721745 
L 394.611742 139.951591 
L 397.547348 150.490983 
L 400.482955 140.585927 
L 403.418561 154.866596 
L 406.354167 152.098864 
L 409.289773 153.777889 
L 412.225379 146.193908 
L 415.160985 144.705974 
L 418.096591 148.186553 
L 421.032197 168.809636 
L 423.967803 167.79557 
L 426.903409 161.040379 
L 429.839015 165.017346 
L 432.774621 152.459283 
L 435.710227 152.626417 
L 438.645833 162.757471 
L 441.581439 167.806915 
L 444.517045 177.490333 
L 447.452652 156.957379 
L 450.388258 142.931681 
L 453.323864 174.980875 
L 456.25947 142.211602 
L 459.195076 155.132243 
L 462.130682 157.490789 
L 465.066288 163.211989 
L 468.001894 170.567707 
L 470.9375 165.812804 
L 473.873106 159.562184 
L 476.808712 169.209543 
L 479.744318 177.94434 
L 482.679924 167.652167 
L 485.61553 175.950495 
L 488.551136 154.376905 
L 491.486742 156.835501 
L 494.422348 162.126859 
L 497.357955 166.476136 
L 500.293561 165.627701 
L 503.229167 166.768675 
L 506.164773 154.216498 
L 509.100379 160.802996 
L 512.035985 156.728097 
L 514.971591 159.81672 
L 517.907197 176.248608 
L 520.842803 147.578066 
L 523.778409 160.012224 
L 526.714015 162.533485 
L 529.649621 167.600911 
L 532.585227 166.511057 
L 535.520833 185.845793 
L 538.456439 185.742217 
L 541.392045 170.174974 
L 544.327652 172.30668 
L 547.263258 168.440825 
L 550.198864 163.392685 
L 553.13447 175.836332 
L 556.070076 171.041768 
L 559.005682 177.721707 
L 561.941288 155.507565 
L 564.876894 170.083938 
L 567.8125 168.087333 
L 570.748106 177.235428 
L 573.683712 162.734011 
L 576.619318 165.950312 
L 579.554924 161.353217 
L 582.49053 172.652999 
L 585.426136 179.913773 
L 588.361742 182.331754 
L 591.297348 167.608408 
L 594.232955 180.778896 
L 597.168561 184.479319 
L 600.104167 186.822601 
L 603.039773 184.810841 
L 605.975379 166.297114 
L 608.910985 179.425665 
L 611.846591 181.387462 
L 614.782197 168.751561 
L 617.717803 184.516986 
L 620.653409 179.941007 
L 623.589015 154.593347 
L 623.589015 154.593347 
" style="fill:none;stroke:#00bfbf;stroke-linecap:square;stroke-width:1.2;"/>
   </g>
   <g id="patch_3">
    <path d="M 112.5 324 
L 112.5 36 
" style="fill:none;stroke:#000000;stroke-linecap:square;stroke-linejoin:miter;"/>
   </g>
   <g id="patch_4">
    <path d="M 635.625 324 
L 635.625 36 
" style="fill:none;stroke:#000000;stroke-linecap:square;stroke-linejoin:miter;"/>
   </g>
   <g id="patch_5">
    <path d="M 112.5 324 
L 635.625 324 
" style="fill:none;stroke:#000000;stroke-linecap:square;stroke-linejoin:miter;"/>
   </g>
   <g id="patch_6">
    <path d="M 112.5 36 
L 635.625 36 
" style="fill:none;stroke:#000000;stroke-linecap:square;stroke-linejoin:miter;"/>
   </g>
   <g id="matplotlib.axis_1">
    <g id="xtick_1">
     <g id="line2d_5">
      <defs>
       <path d="M 0 0 
L 0 -4 
" id="m54361183c1" style="stroke:#000000;stroke-width:0.5;"/>
      </defs>
      <g>
       <use style="stroke:#000000;stroke-width:0.5;" x="112.793561" xlink:href="#m54361183c1" y="324"/>
      </g>
     </g>
     <g id="line2d_6">
      <defs>
       <path d="M 0 0 
L 0 4 
" id="me7e421bd22" style="stroke:#000000;stroke-width:0.5;"/>
      </defs>
      <g>
       <use style="stroke:#000000;stroke-width:0.5;" x="112.793561" xlink:href="#me7e421bd22" y="36"/>
      </g>
     </g>
     <g id="text_1">
      <!-- 0 -->
      <defs>
       <path d="M 31.78125 66.40625 
Q 24.171875 66.40625 20.328125 58.90625 
Q 16.5 51.421875 16.5 36.375 
Q 16.5 21.390625 20.328125 13.890625 
Q 24.171875 6.390625 31.78125 6.390625 
Q 39.453125 6.390625 43.28125 13.890625 
Q 47.125 21.390625 47.125 36.375 
Q 47.125 51.421875 43.28125 58.90625 
Q 39.453125 66.40625 31.78125 66.40625 
z
M 31.78125 74.21875 
Q 44.046875 74.21875 50.515625 64.515625 
Q 56.984375 54.828125 56.984375 36.375 
Q 56.984375 17.96875 50.515625 8.265625 
Q 44.046875 -1.421875 31.78125 -1.421875 
Q 19.53125 -1.421875 13.0625 8.265625 
Q 6.59375 17.96875 6.59375 36.375 
Q 6.59375 54.828125 13.0625 64.515625 
Q 19.53125 74.21875 31.78125 74.21875 
z
" id="DejaVuSans-48"/>
      </defs>
      <g transform="translate(108.976061 337.118125)scale(0.12 -0.12)">
       <use xlink:href="#DejaVuSans-48"/>
      </g>
     </g>
    </g>
    <g id="xtick_2">
     <g id="line2d_7">
      <g>
       <use style="stroke:#000000;stroke-width:0.5;" x="165.63447" xlink:href="#m54361183c1" y="324"/>
      </g>
     </g>
     <g id="line2d_8">
      <g>
       <use style="stroke:#000000;stroke-width:0.5;" x="165.63447" xlink:href="#me7e421bd22" y="36"/>
      </g>
     </g>
     <g id="text_2">
      <!-- 18 -->
      <defs>
       <path d="M 12.40625 8.296875 
L 28.515625 8.296875 
L 28.515625 63.921875 
L 10.984375 60.40625 
L 10.984375 69.390625 
L 28.421875 72.90625 
L 38.28125 72.90625 
L 38.28125 8.296875 
L 54.390625 8.296875 
L 54.390625 0 
L 12.40625 0 
z
" id="DejaVuSans-49"/>
       <path d="M 31.78125 34.625 
Q 24.75 34.625 20.71875 30.859375 
Q 16.703125 27.09375 16.703125 20.515625 
Q 16.703125 13.921875 20.71875 10.15625 
Q 24.75 6.390625 31.78125 6.390625 
Q 38.8125 6.390625 42.859375 10.171875 
Q 46.921875 13.96875 46.921875 20.515625 
Q 46.921875 27.09375 42.890625 30.859375 
Q 38.875 34.625 31.78125 34.625 
z
M 21.921875 38.8125 
Q 15.578125 40.375 12.03125 44.71875 
Q 8.5 49.078125 8.5 55.328125 
Q 8.5 64.0625 14.71875 69.140625 
Q 20.953125 74.21875 31.78125 74.21875 
Q 42.671875 74.21875 48.875 69.140625 
Q 55.078125 64.0625 55.078125 55.328125 
Q 55.078125 49.078125 51.53125 44.71875 
Q 48 40.375 41.703125 38.8125 
Q 48.828125 37.15625 52.796875 32.3125 
Q 56.78125 27.484375 56.78125 20.515625 
Q 56.78125 9.90625 50.3125 4.234375 
Q 43.84375 -1.421875 31.78125 -1.421875 
Q 19.734375 -1.421875 13.25 4.234375 
Q 6.78125 9.90625 6.78125 20.515625 
Q 6.78125 27.484375 10.78125 32.3125 
Q 14.796875 37.15625 21.921875 38.8125 
z
M 18.3125 54.390625 
Q 18.3125 48.734375 21.84375 45.5625 
Q 25.390625 42.390625 31.78125 42.390625 
Q 38.140625 42.390625 41.71875 45.5625 
Q 45.3125 48.734375 45.3125 54.390625 
Q 45.3125 60.0625 41.71875 63.234375 
Q 38.140625 66.40625 31.78125 66.40625 
Q 25.390625 66.40625 21.84375 63.234375 
Q 18.3125 60.0625 18.3125 54.390625 
z
" id="DejaVuSans-56"/>
      </defs>
      <g transform="translate(157.99947 337.118125)scale(0.12 -0.12)">
       <use xlink:href="#DejaVuSans-49"/>
       <use x="63.623047" xlink:href="#DejaVuSans-56"/>
      </g>
     </g>
    </g>
    <g id="xtick_3">
     <g id="line2d_9">
      <g>
       <use style="stroke:#000000;stroke-width:0.5;" x="218.475379" xlink:href="#m54361183c1" y="324"/>
      </g>
     </g>
     <g id="line2d_10">
      <g>
       <use style="stroke:#000000;stroke-width:0.5;" x="218.475379" xlink:href="#me7e421bd22" y="36"/>
      </g>
     </g>
     <g id="text_3">
      <!-- 36 -->
      <defs>
       <path d="M 40.578125 39.3125 
Q 47.65625 37.796875 51.625 33 
Q 55.609375 28.21875 55.609375 21.1875 
Q 55.609375 10.40625 48.1875 4.484375 
Q 40.765625 -1.421875 27.09375 -1.421875 
Q 22.515625 -1.421875 17.65625 -0.515625 
Q 12.796875 0.390625 7.625 2.203125 
L 7.625 11.71875 
Q 11.71875 9.328125 16.59375 8.109375 
Q 21.484375 6.890625 26.8125 6.890625 
Q 36.078125 6.890625 40.9375 10.546875 
Q 45.796875 14.203125 45.796875 21.1875 
Q 45.796875 27.640625 41.28125 31.265625 
Q 36.765625 34.90625 28.71875 34.90625 
L 20.21875 34.90625 
L 20.21875 43.015625 
L 29.109375 43.015625 
Q 36.375 43.015625 40.234375 45.921875 
Q 44.09375 48.828125 44.09375 54.296875 
Q 44.09375 59.90625 40.109375 62.90625 
Q 36.140625 65.921875 28.71875 65.921875 
Q 24.65625 65.921875 20.015625 65.03125 
Q 15.375 64.15625 9.8125 62.3125 
L 9.8125 71.09375 
Q 15.4375 72.65625 20.34375 73.4375 
Q 25.25 74.21875 29.59375 74.21875 
Q 40.828125 74.21875 47.359375 69.109375 
Q 53.90625 64.015625 53.90625 55.328125 
Q 53.90625 49.265625 50.4375 45.09375 
Q 46.96875 40.921875 40.578125 39.3125 
z
" id="DejaVuSans-51"/>
       <path d="M 33.015625 40.375 
Q 26.375 40.375 22.484375 35.828125 
Q 18.609375 31.296875 18.609375 23.390625 
Q 18.609375 15.53125 22.484375 10.953125 
Q 26.375 6.390625 33.015625 6.390625 
Q 39.65625 6.390625 43.53125 10.953125 
Q 47.40625 15.53125 47.40625 23.390625 
Q 47.40625 31.296875 43.53125 35.828125 
Q 39.65625 40.375 33.015625 40.375 
z
M 52.59375 71.296875 
L 52.59375 62.3125 
Q 48.875 64.0625 45.09375 64.984375 
Q 41.3125 65.921875 37.59375 65.921875 
Q 27.828125 65.921875 22.671875 59.328125 
Q 17.53125 52.734375 16.796875 39.40625 
Q 19.671875 43.65625 24.015625 45.921875 
Q 28.375 48.1875 33.59375 48.1875 
Q 44.578125 48.1875 50.953125 41.515625 
Q 57.328125 34.859375 57.328125 23.390625 
Q 57.328125 12.15625 50.6875 5.359375 
Q 44.046875 -1.421875 33.015625 -1.421875 
Q 20.359375 -1.421875 13.671875 8.265625 
Q 6.984375 17.96875 6.984375 36.375 
Q 6.984375 53.65625 15.1875 63.9375 
Q 23.390625 74.21875 37.203125 74.21875 
Q 40.921875 74.21875 44.703125 73.484375 
Q 48.484375 72.75 52.59375 71.296875 
z
" id="DejaVuSans-54"/>
      </defs>
      <g transform="translate(210.840379 337.118125)scale(0.12 -0.12)">
       <use xlink:href="#DejaVuSans-51"/>
       <use x="63.623047" xlink:href="#DejaVuSans-54"/>
      </g>
     </g>
    </g>
    <g id="xtick_4">
     <g id="line2d_11">
      <g>
       <use style="stroke:#000000;stroke-width:0.5;" x="271.316288" xlink:href="#m54361183c1" y="324"/>
      </g>
     </g>
     <g id="line2d_12">
      <g>
       <use style="stroke:#000000;stroke-width:0.5;" x="271.316288" xlink:href="#me7e421bd22" y="36"/>
      </g>
     </g>
     <g id="text_4">
      <!-- 54 -->
      <defs>
       <path d="M 10.796875 72.90625 
L 49.515625 72.90625 
L 49.515625 64.59375 
L 19.828125 64.59375 
L 19.828125 46.734375 
Q 21.96875 47.46875 24.109375 47.828125 
Q 26.265625 48.1875 28.421875 48.1875 
Q 40.625 48.1875 47.75 41.5 
Q 54.890625 34.8125 54.890625 23.390625 
Q 54.890625 11.625 47.5625 5.09375 
Q 40.234375 -1.421875 26.90625 -1.421875 
Q 22.3125 -1.421875 17.546875 -0.640625 
Q 12.796875 0.140625 7.71875 1.703125 
L 7.71875 11.625 
Q 12.109375 9.234375 16.796875 8.0625 
Q 21.484375 6.890625 26.703125 6.890625 
Q 35.15625 6.890625 40.078125 11.328125 
Q 45.015625 15.765625 45.015625 23.390625 
Q 45.015625 31 40.078125 35.4375 
Q 35.15625 39.890625 26.703125 39.890625 
Q 22.75 39.890625 18.8125 39.015625 
Q 14.890625 38.140625 10.796875 36.28125 
z
" id="DejaVuSans-53"/>
       <path d="M 37.796875 64.3125 
L 12.890625 25.390625 
L 37.796875 25.390625 
z
M 35.203125 72.90625 
L 47.609375 72.90625 
L 47.609375 25.390625 
L 58.015625 25.390625 
L 58.015625 17.1875 
L 47.609375 17.1875 
L 47.609375 0 
L 37.796875 0 
L 37.796875 17.1875 
L 4.890625 17.1875 
L 4.890625 26.703125 
z
" id="DejaVuSans-52"/>
      </defs>
      <g transform="translate(263.681288 337.118125)scale(0.12 -0.12)">
       <use xlink:href="#DejaVuSans-53"/>
       <use x="63.623047" xlink:href="#DejaVuSans-52"/>
      </g>
     </g>
    </g>
    <g id="xtick_5">
     <g id="line2d_13">
      <g>
       <use style="stroke:#000000;stroke-width:0.5;" x="324.157197" xlink:href="#m54361183c1" y="324"/>
      </g>
     </g>
     <g id="line2d_14">
      <g>
       <use style="stroke:#000000;stroke-width:0.5;" x="324.157197" xlink:href="#me7e421bd22" y="36"/>
      </g>
     </g>
     <g id="text_5">
      <!-- 72 -->
      <defs>
       <path d="M 8.203125 72.90625 
L 55.078125 72.90625 
L 55.078125 68.703125 
L 28.609375 0 
L 18.3125 0 
L 43.21875 64.59375 
L 8.203125 64.59375 
z
" id="DejaVuSans-55"/>
       <path d="M 19.1875 8.296875 
L 53.609375 8.296875 
L 53.609375 0 
L 7.328125 0 
L 7.328125 8.296875 
Q 12.9375 14.109375 22.625 23.890625 
Q 32.328125 33.6875 34.8125 36.53125 
Q 39.546875 41.84375 41.421875 45.53125 
Q 43.3125 49.21875 43.3125 52.78125 
Q 43.3125 58.59375 39.234375 62.25 
Q 35.15625 65.921875 28.609375 65.921875 
Q 23.96875 65.921875 18.8125 64.3125 
Q 13.671875 62.703125 7.8125 59.421875 
L 7.8125 69.390625 
Q 13.765625 71.78125 18.9375 73 
Q 24.125 74.21875 28.421875 74.21875 
Q 39.75 74.21875 46.484375 68.546875 
Q 53.21875 62.890625 53.21875 53.421875 
Q 53.21875 48.921875 51.53125 44.890625 
Q 49.859375 40.875 45.40625 35.40625 
Q 44.1875 33.984375 37.640625 27.21875 
Q 31.109375 20.453125 19.1875 8.296875 
z
" id="DejaVuSans-50"/>
      </defs>
      <g transform="translate(316.522197 337.118125)scale(0.12 -0.12)">
       <use xlink:href="#DejaVuSans-55"/>
       <use x="63.623047" xlink:href="#DejaVuSans-50"/>
      </g>
     </g>
    </g>
    <g id="xtick_6">
     <g id="line2d_15">
      <g>
       <use style="stroke:#000000;stroke-width:0.5;" x="376.998106" xlink:href="#m54361183c1" y="324"/>
      </g>
     </g>
     <g id="line2d_16">
      <g>
       <use style="stroke:#000000;stroke-width:0.5;" x="376.998106" xlink:href="#me7e421bd22" y="36"/>
      </g>
     </g>
     <g id="text_6">
      <!-- 90 -->
      <defs>
       <path d="M 10.984375 1.515625 
L 10.984375 10.5 
Q 14.703125 8.734375 18.5 7.8125 
Q 22.3125 6.890625 25.984375 6.890625 
Q 35.75 6.890625 40.890625 13.453125 
Q 46.046875 20.015625 46.78125 33.40625 
Q 43.953125 29.203125 39.59375 26.953125 
Q 35.25 24.703125 29.984375 24.703125 
Q 19.046875 24.703125 12.671875 31.3125 
Q 6.296875 37.9375 6.296875 49.421875 
Q 6.296875 60.640625 12.9375 67.421875 
Q 19.578125 74.21875 30.609375 74.21875 
Q 43.265625 74.21875 49.921875 64.515625 
Q 56.59375 54.828125 56.59375 36.375 
Q 56.59375 19.140625 48.40625 8.859375 
Q 40.234375 -1.421875 26.421875 -1.421875 
Q 22.703125 -1.421875 18.890625 -0.6875 
Q 15.09375 0.046875 10.984375 1.515625 
z
M 30.609375 32.421875 
Q 37.25 32.421875 41.125 36.953125 
Q 45.015625 41.5 45.015625 49.421875 
Q 45.015625 57.28125 41.125 61.84375 
Q 37.25 66.40625 30.609375 66.40625 
Q 23.96875 66.40625 20.09375 61.84375 
Q 16.21875 57.28125 16.21875 49.421875 
Q 16.21875 41.5 20.09375 36.953125 
Q 23.96875 32.421875 30.609375 32.421875 
z
" id="DejaVuSans-57"/>
      </defs>
      <g transform="translate(369.363106 337.118125)scale(0.12 -0.12)">
       <use xlink:href="#DejaVuSans-57"/>
       <use x="63.623047" xlink:href="#DejaVuSans-48"/>
      </g>
     </g>
    </g>
    <g id="xtick_7">
     <g id="line2d_17">
      <g>
       <use style="stroke:#000000;stroke-width:0.5;" x="429.839015" xlink:href="#m54361183c1" y="324"/>
      </g>
     </g>
     <g id="line2d_18">
      <g>
       <use style="stroke:#000000;stroke-width:0.5;" x="429.839015" xlink:href="#me7e421bd22" y="36"/>
      </g>
     </g>
     <g id="text_7">
      <!-- 108 -->
      <g transform="translate(418.386515 337.118125)scale(0.12 -0.12)">
       <use xlink:href="#DejaVuSans-49"/>
       <use x="63.623047" xlink:href="#DejaVuSans-48"/>
       <use x="127.246094" xlink:href="#DejaVuSans-56"/>
      </g>
     </g>
    </g>
    <g id="xtick_8">
     <g id="line2d_19">
      <g>
       <use style="stroke:#000000;stroke-width:0.5;" x="482.679924" xlink:href="#m54361183c1" y="324"/>
      </g>
     </g>
     <g id="line2d_20">
      <g>
       <use style="stroke:#000000;stroke-width:0.5;" x="482.679924" xlink:href="#me7e421bd22" y="36"/>
      </g>
     </g>
     <g id="text_8">
      <!-- 126 -->
      <g transform="translate(471.227424 337.118125)scale(0.12 -0.12)">
       <use xlink:href="#DejaVuSans-49"/>
       <use x="63.623047" xlink:href="#DejaVuSans-50"/>
       <use x="127.246094" xlink:href="#DejaVuSans-54"/>
      </g>
     </g>
    </g>
    <g id="xtick_9">
     <g id="line2d_21">
      <g>
       <use style="stroke:#000000;stroke-width:0.5;" x="535.520833" xlink:href="#m54361183c1" y="324"/>
      </g>
     </g>
     <g id="line2d_22">
      <g>
       <use style="stroke:#000000;stroke-width:0.5;" x="535.520833" xlink:href="#me7e421bd22" y="36"/>
      </g>
     </g>
     <g id="text_9">
      <!-- 144 -->
      <g transform="translate(524.068333 337.118125)scale(0.12 -0.12)">
       <use xlink:href="#DejaVuSans-49"/>
       <use x="63.623047" xlink:href="#DejaVuSans-52"/>
       <use x="127.246094" xlink:href="#DejaVuSans-52"/>
      </g>
     </g>
    </g>
    <g id="xtick_10">
     <g id="line2d_23">
      <g>
       <use style="stroke:#000000;stroke-width:0.5;" x="588.361742" xlink:href="#m54361183c1" y="324"/>
      </g>
     </g>
     <g id="line2d_24">
      <g>
       <use style="stroke:#000000;stroke-width:0.5;" x="588.361742" xlink:href="#me7e421bd22" y="36"/>
      </g>
     </g>
     <g id="text_10">
      <!-- 162 -->
      <g transform="translate(576.909242 337.118125)scale(0.12 -0.12)">
       <use xlink:href="#DejaVuSans-49"/>
       <use x="63.623047" xlink:href="#DejaVuSans-54"/>
       <use x="127.246094" xlink:href="#DejaVuSans-50"/>
      </g>
     </g>
    </g>
    <g id="text_11">
     <!-- generation -->
     <defs>
      <path d="M 45.40625 27.984375 
Q 45.40625 37.75 41.375 43.109375 
Q 37.359375 48.484375 30.078125 48.484375 
Q 22.859375 48.484375 18.828125 43.109375 
Q 14.796875 37.75 14.796875 27.984375 
Q 14.796875 18.265625 18.828125 12.890625 
Q 22.859375 7.515625 30.078125 7.515625 
Q 37.359375 7.515625 41.375 12.890625 
Q 45.40625 18.265625 45.40625 27.984375 
z
M 54.390625 6.78125 
Q 54.390625 -7.171875 48.1875 -13.984375 
Q 42 -20.796875 29.203125 -20.796875 
Q 24.46875 -20.796875 20.265625 -20.09375 
Q 16.0625 -19.390625 12.109375 -17.921875 
L 12.109375 -9.1875 
Q 16.0625 -11.328125 19.921875 -12.34375 
Q 23.78125 -13.375 27.78125 -13.375 
Q 36.625 -13.375 41.015625 -8.765625 
Q 45.40625 -4.15625 45.40625 5.171875 
L 45.40625 9.625 
Q 42.625 4.78125 38.28125 2.390625 
Q 33.9375 0 27.875 0 
Q 17.828125 0 11.671875 7.65625 
Q 5.515625 15.328125 5.515625 27.984375 
Q 5.515625 40.671875 11.671875 48.328125 
Q 17.828125 56 27.875 56 
Q 33.9375 56 38.28125 53.609375 
Q 42.625 51.21875 45.40625 46.390625 
L 45.40625 54.6875 
L 54.390625 54.6875 
z
" id="DejaVuSans-103"/>
      <path d="M 56.203125 29.59375 
L 56.203125 25.203125 
L 14.890625 25.203125 
Q 15.484375 15.921875 20.484375 11.0625 
Q 25.484375 6.203125 34.421875 6.203125 
Q 39.59375 6.203125 44.453125 7.46875 
Q 49.3125 8.734375 54.109375 11.28125 
L 54.109375 2.78125 
Q 49.265625 0.734375 44.1875 -0.34375 
Q 39.109375 -1.421875 33.890625 -1.421875 
Q 20.796875 -1.421875 13.15625 6.1875 
Q 5.515625 13.8125 5.515625 26.8125 
Q 5.515625 40.234375 12.765625 48.109375 
Q 20.015625 56 32.328125 56 
Q 43.359375 56 49.78125 48.890625 
Q 56.203125 41.796875 56.203125 29.59375 
z
M 47.21875 32.234375 
Q 47.125 39.59375 43.09375 43.984375 
Q 39.0625 48.390625 32.421875 48.390625 
Q 24.90625 48.390625 20.390625 44.140625 
Q 15.875 39.890625 15.1875 32.171875 
z
" id="DejaVuSans-101"/>
      <path d="M 54.890625 33.015625 
L 54.890625 0 
L 45.90625 0 
L 45.90625 32.71875 
Q 45.90625 40.484375 42.875 44.328125 
Q 39.84375 48.1875 33.796875 48.1875 
Q 26.515625 48.1875 22.3125 43.546875 
Q 18.109375 38.921875 18.109375 30.90625 
L 18.109375 0 
L 9.078125 0 
L 9.078125 54.6875 
L 18.109375 54.6875 
L 18.109375 46.1875 
Q 21.34375 51.125 25.703125 53.5625 
Q 30.078125 56 35.796875 56 
Q 45.21875 56 50.046875 50.171875 
Q 54.890625 44.34375 54.890625 33.015625 
z
" id="DejaVuSans-110"/>
      <path d="M 41.109375 46.296875 
Q 39.59375 47.171875 37.8125 47.578125 
Q 36.03125 48 33.890625 48 
Q 26.265625 48 22.1875 43.046875 
Q 18.109375 38.09375 18.109375 28.8125 
L 18.109375 0 
L 9.078125 0 
L 9.078125 54.6875 
L 18.109375 54.6875 
L 18.109375 46.1875 
Q 20.953125 51.171875 25.484375 53.578125 
Q 30.03125 56 36.53125 56 
Q 37.453125 56 38.578125 55.875 
Q 39.703125 55.765625 41.0625 55.515625 
z
" id="DejaVuSans-114"/>
      <path d="M 34.28125 27.484375 
Q 23.390625 27.484375 19.1875 25 
Q 14.984375 22.515625 14.984375 16.5 
Q 14.984375 11.71875 18.140625 8.90625 
Q 21.296875 6.109375 26.703125 6.109375 
Q 34.1875 6.109375 38.703125 11.40625 
Q 43.21875 16.703125 43.21875 25.484375 
L 43.21875 27.484375 
z
M 52.203125 31.203125 
L 52.203125 0 
L 43.21875 0 
L 43.21875 8.296875 
Q 40.140625 3.328125 35.546875 0.953125 
Q 30.953125 -1.421875 24.3125 -1.421875 
Q 15.921875 -1.421875 10.953125 3.296875 
Q 6 8.015625 6 15.921875 
Q 6 25.140625 12.171875 29.828125 
Q 18.359375 34.515625 30.609375 34.515625 
L 43.21875 34.515625 
L 43.21875 35.40625 
Q 43.21875 41.609375 39.140625 45 
Q 35.0625 48.390625 27.6875 48.390625 
Q 23 48.390625 18.546875 47.265625 
Q 14.109375 46.140625 10.015625 43.890625 
L 10.015625 52.203125 
Q 14.9375 54.109375 19.578125 55.046875 
Q 24.21875 56 28.609375 56 
Q 40.484375 56 46.34375 49.84375 
Q 52.203125 43.703125 52.203125 31.203125 
z
" id="DejaVuSans-97"/>
      <path d="M 18.3125 70.21875 
L 18.3125 54.6875 
L 36.8125 54.6875 
L 36.8125 47.703125 
L 18.3125 47.703125 
L 18.3125 18.015625 
Q 18.3125 11.328125 20.140625 9.421875 
Q 21.96875 7.515625 27.59375 7.515625 
L 36.8125 7.515625 
L 36.8125 0 
L 27.59375 0 
Q 17.1875 0 13.234375 3.875 
Q 9.28125 7.765625 9.28125 18.015625 
L 9.28125 47.703125 
L 2.6875 47.703125 
L 2.6875 54.6875 
L 9.28125 54.6875 
L 9.28125 70.21875 
z
" id="DejaVuSans-116"/>
      <path d="M 9.421875 54.6875 
L 18.40625 54.6875 
L 18.40625 0 
L 9.421875 0 
z
M 9.421875 75.984375 
L 18.40625 75.984375 
L 18.40625 64.59375 
L 9.421875 64.59375 
z
" id="DejaVuSans-105"/>
      <path d="M 30.609375 48.390625 
Q 23.390625 48.390625 19.1875 42.75 
Q 14.984375 37.109375 14.984375 27.296875 
Q 14.984375 17.484375 19.15625 11.84375 
Q 23.34375 6.203125 30.609375 6.203125 
Q 37.796875 6.203125 41.984375 11.859375 
Q 46.1875 17.53125 46.1875 27.296875 
Q 46.1875 37.015625 41.984375 42.703125 
Q 37.796875 48.390625 30.609375 48.390625 
z
M 30.609375 56 
Q 42.328125 56 49.015625 48.375 
Q 55.71875 40.765625 55.71875 27.296875 
Q 55.71875 13.875 49.015625 6.21875 
Q 42.328125 -1.421875 30.609375 -1.421875 
Q 18.84375 -1.421875 12.171875 6.21875 
Q 5.515625 13.875 5.515625 27.296875 
Q 5.515625 40.765625 12.171875 48.375 
Q 18.84375 56 30.609375 56 
z
" id="DejaVuSans-111"/>
     </defs>
     <g transform="translate(341.430938 353.731875)scale(0.12 -0.12)">
      <use xlink:href="#DejaVuSans-103"/>
      <use x="63.476562" xlink:href="#DejaVuSans-101"/>
      <use x="125" xlink:href="#DejaVuSans-110"/>
      <use x="188.378906" xlink:href="#DejaVuSans-101"/>
      <use x="249.902344" xlink:href="#DejaVuSans-114"/>
      <use x="291.015625" xlink:href="#DejaVuSans-97"/>
      <use x="352.294922" xlink:href="#DejaVuSans-116"/>
      <use x="391.503906" xlink:href="#DejaVuSans-105"/>
      <use x="419.287109" xlink:href="#DejaVuSans-111"/>
      <use x="480.46875" xlink:href="#DejaVuSans-110"/>
     </g>
    </g>
   </g>
   <g id="matplotlib.axis_2">
    <g id="ytick_1">
     <g id="line2d_25">
      <defs>
       <path d="M 0 0 
L 4 0 
" id="me597d0a158" style="stroke:#000000;stroke-width:0.5;"/>
      </defs>
      <g>
       <use style="stroke:#000000;stroke-width:0.5;" x="112.5" xlink:href="#me597d0a158" y="324"/>
      </g>
     </g>
     <g id="line2d_26">
      <defs>
       <path d="M 0 0 
L -4 0 
" id="m3b02b235cb" style="stroke:#000000;stroke-width:0.5;"/>
      </defs>
      <g>
       <use style="stroke:#000000;stroke-width:0.5;" x="635.625" xlink:href="#m3b02b235cb" y="324"/>
      </g>
     </g>
     <g id="text_12">
      <!-- 0.15 -->
      <defs>
       <path d="M 10.6875 12.40625 
L 21 12.40625 
L 21 0 
L 10.6875 0 
z
" id="DejaVuSans-46"/>
      </defs>
      <g transform="translate(81.78125 327.31125)scale(0.12 -0.12)">
       <use xlink:href="#DejaVuSans-48"/>
       <use x="63.623047" xlink:href="#DejaVuSans-46"/>
       <use x="95.410156" xlink:href="#DejaVuSans-49"/>
       <use x="159.033203" xlink:href="#DejaVuSans-53"/>
      </g>
     </g>
    </g>
    <g id="ytick_2">
     <g id="line2d_27">
      <g>
       <use style="stroke:#000000;stroke-width:0.5;" x="112.5" xlink:href="#me597d0a158" y="266.4"/>
      </g>
     </g>
     <g id="line2d_28">
      <g>
       <use style="stroke:#000000;stroke-width:0.5;" x="635.625" xlink:href="#m3b02b235cb" y="266.4"/>
      </g>
     </g>
     <g id="text_13">
      <!-- 0.20 -->
      <g transform="translate(81.78125 269.71125)scale(0.12 -0.12)">
       <use xlink:href="#DejaVuSans-48"/>
       <use x="63.623047" xlink:href="#DejaVuSans-46"/>
       <use x="95.410156" xlink:href="#DejaVuSans-50"/>
       <use x="159.033203" xlink:href="#DejaVuSans-48"/>
      </g>
     </g>
    </g>
    <g id="ytick_3">
     <g id="line2d_29">
      <g>
       <use style="stroke:#000000;stroke-width:0.5;" x="112.5" xlink:href="#me597d0a158" y="208.8"/>
      </g>
     </g>
     <g id="line2d_30">
      <g>
       <use style="stroke:#000000;stroke-width:0.5;" x="635.625" xlink:href="#m3b02b235cb" y="208.8"/>
      </g>
     </g>
     <g id="text_14">
      <!-- 0.25 -->
      <g transform="translate(81.78125 212.11125)scale(0.12 -0.12)">
       <use xlink:href="#DejaVuSans-48"/>
       <use x="63.623047" xlink:href="#DejaVuSans-46"/>
       <use x="95.410156" xlink:href="#DejaVuSans-50"/>
       <use x="159.033203" xlink:href="#DejaVuSans-53"/>
      </g>
     </g>
    </g>
    <g id="ytick_4">
     <g id="line2d_31">
      <g>
       <use style="stroke:#000000;stroke-width:0.5;" x="112.5" xlink:href="#me597d0a158" y="151.2"/>
      </g>
     </g>
     <g id="line2d_32">
      <g>
       <use style="stroke:#000000;stroke-width:0.5;" x="635.625" xlink:href="#m3b02b235cb" y="151.2"/>
      </g>
     </g>
     <g id="text_15">
      <!-- 0.30 -->
      <g transform="translate(81.78125 154.51125)scale(0.12 -0.12)">
       <use xlink:href="#DejaVuSans-48"/>
       <use x="63.623047" xlink:href="#DejaVuSans-46"/>
       <use x="95.410156" xlink:href="#DejaVuSans-51"/>
       <use x="159.033203" xlink:href="#DejaVuSans-48"/>
      </g>
     </g>
    </g>
    <g id="ytick_5">
     <g id="line2d_33">
      <g>
       <use style="stroke:#000000;stroke-width:0.5;" x="112.5" xlink:href="#me597d0a158" y="93.6"/>
      </g>
     </g>
     <g id="line2d_34">
      <g>
       <use style="stroke:#000000;stroke-width:0.5;" x="635.625" xlink:href="#m3b02b235cb" y="93.6"/>
      </g>
     </g>
     <g id="text_16">
      <!-- 0.35 -->
      <g transform="translate(81.78125 96.91125)scale(0.12 -0.12)">
       <use xlink:href="#DejaVuSans-48"/>
       <use x="63.623047" xlink:href="#DejaVuSans-46"/>
       <use x="95.410156" xlink:href="#DejaVuSans-51"/>
       <use x="159.033203" xlink:href="#DejaVuSans-53"/>
      </g>
     </g>
    </g>
    <g id="ytick_6">
     <g id="line2d_35">
      <g>
       <use style="stroke:#000000;stroke-width:0.5;" x="112.5" xlink:href="#me597d0a158" y="36"/>
      </g>
     </g>
     <g id="line2d_36">
      <g>
       <use style="stroke:#000000;stroke-width:0.5;" x="635.625" xlink:href="#m3b02b235cb" y="36"/>
      </g>
     </g>
     <g id="text_17">
      <!-- 0.40 -->
      <g transform="translate(81.78125 39.31125)scale(0.12 -0.12)">
       <use xlink:href="#DejaVuSans-48"/>
       <use x="63.623047" xlink:href="#DejaVuSans-46"/>
       <use x="95.410156" xlink:href="#DejaVuSans-52"/>
       <use x="159.033203" xlink:href="#DejaVuSans-48"/>
      </g>
     </g>
    </g>
    <g id="text_18">
     <!-- los -->
     <defs>
      <path d="M 9.421875 75.984375 
L 18.40625 75.984375 
L 18.40625 0 
L 9.421875 0 
z
" id="DejaVuSans-108"/>
      <path d="M 44.28125 53.078125 
L 44.28125 44.578125 
Q 40.484375 46.53125 36.375 47.5 
Q 32.28125 48.484375 27.875 48.484375 
Q 21.1875 48.484375 17.84375 46.4375 
Q 14.5 44.390625 14.5 40.28125 
Q 14.5 37.15625 16.890625 35.375 
Q 19.28125 33.59375 26.515625 31.984375 
L 29.59375 31.296875 
Q 39.15625 29.25 43.1875 25.515625 
Q 47.21875 21.78125 47.21875 15.09375 
Q 47.21875 7.46875 41.1875 3.015625 
Q 35.15625 -1.421875 24.609375 -1.421875 
Q 20.21875 -1.421875 15.453125 -0.5625 
Q 10.6875 0.296875 5.421875 2 
L 5.421875 11.28125 
Q 10.40625 8.6875 15.234375 7.390625 
Q 20.0625 6.109375 24.8125 6.109375 
Q 31.15625 6.109375 34.5625 8.28125 
Q 37.984375 10.453125 37.984375 14.40625 
Q 37.984375 18.0625 35.515625 20.015625 
Q 33.0625 21.96875 24.703125 23.78125 
L 21.578125 24.515625 
Q 13.234375 26.265625 9.515625 29.90625 
Q 5.8125 33.546875 5.8125 39.890625 
Q 5.8125 47.609375 11.28125 51.796875 
Q 16.75 56 26.8125 56 
Q 31.78125 56 36.171875 55.265625 
Q 40.578125 54.546875 44.28125 53.078125 
z
" id="DejaVuSans-115"/>
     </defs>
     <g transform="translate(74.285625 188.46375)rotate(-90)scale(0.12 -0.12)">
      <use xlink:href="#DejaVuSans-108"/>
      <use x="27.783203" xlink:href="#DejaVuSans-111"/>
      <use x="88.964844" xlink:href="#DejaVuSans-115"/>
     </g>
    </g>
   </g>
   <g id="legend_1">
    <g id="patch_7">
     <path d="M 640.623 210.843908 
L 739.8333 210.843908 
L 739.8333 149.156092 
L 640.623 149.156092 
z
" style="fill:#ffffff;stroke:#000000;stroke-linejoin:miter;"/>
    </g>
    <g id="line2d_37">
     <path d="M 647.6202 157.251291 
L 661.6146 157.251291 
" style="fill:none;stroke:#0000ff;stroke-linecap:square;stroke-width:1.2;"/>
    </g>
    <g id="line2d_38"/>
    <g id="text_19">
     <!-- Mutation 0.8 -->
     <defs>
      <path d="M 9.8125 72.90625 
L 24.515625 72.90625 
L 43.109375 23.296875 
L 61.8125 72.90625 
L 76.515625 72.90625 
L 76.515625 0 
L 66.890625 0 
L 66.890625 64.015625 
L 48.09375 14.015625 
L 38.1875 14.015625 
L 19.390625 64.015625 
L 19.390625 0 
L 9.8125 0 
z
" id="DejaVuSans-77"/>
      <path d="M 8.5 21.578125 
L 8.5 54.6875 
L 17.484375 54.6875 
L 17.484375 21.921875 
Q 17.484375 14.15625 20.5 10.265625 
Q 23.53125 6.390625 29.59375 6.390625 
Q 36.859375 6.390625 41.078125 11.03125 
Q 45.3125 15.671875 45.3125 23.6875 
L 45.3125 54.6875 
L 54.296875 54.6875 
L 54.296875 0 
L 45.3125 0 
L 45.3125 8.40625 
Q 42.046875 3.421875 37.71875 1 
Q 33.40625 -1.421875 27.6875 -1.421875 
Q 18.265625 -1.421875 13.375 4.4375 
Q 8.5 10.296875 8.5 21.578125 
z
M 31.109375 56 
z
" id="DejaVuSans-117"/>
      <path id="DejaVuSans-32"/>
     </defs>
     <g transform="translate(672.6102 160.749891)scale(0.09996 -0.09996)">
      <use xlink:href="#DejaVuSans-77"/>
      <use x="86.279297" xlink:href="#DejaVuSans-117"/>
      <use x="149.658203" xlink:href="#DejaVuSans-116"/>
      <use x="188.867188" xlink:href="#DejaVuSans-97"/>
      <use x="250.146484" xlink:href="#DejaVuSans-116"/>
      <use x="289.355469" xlink:href="#DejaVuSans-105"/>
      <use x="317.138672" xlink:href="#DejaVuSans-111"/>
      <use x="378.320312" xlink:href="#DejaVuSans-110"/>
      <use x="441.699219" xlink:href="#DejaVuSans-32"/>
      <use x="473.486328" xlink:href="#DejaVuSans-48"/>
      <use x="537.109375" xlink:href="#DejaVuSans-46"/>
      <use x="568.896484" xlink:href="#DejaVuSans-56"/>
     </g>
    </g>
    <g id="line2d_39">
     <path d="M 647.6202 171.923544 
L 661.6146 171.923544 
" style="fill:none;stroke:#008000;stroke-linecap:square;stroke-width:1.2;"/>
    </g>
    <g id="line2d_40"/>
    <g id="text_20">
     <!-- Mutation 0.6 -->
     <g transform="translate(672.6102 175.422144)scale(0.09996 -0.09996)">
      <use xlink:href="#DejaVuSans-77"/>
      <use x="86.279297" xlink:href="#DejaVuSans-117"/>
      <use x="149.658203" xlink:href="#DejaVuSans-116"/>
      <use x="188.867188" xlink:href="#DejaVuSans-97"/>
      <use x="250.146484" xlink:href="#DejaVuSans-116"/>
      <use x="289.355469" xlink:href="#DejaVuSans-105"/>
      <use x="317.138672" xlink:href="#DejaVuSans-111"/>
      <use x="378.320312" xlink:href="#DejaVuSans-110"/>
      <use x="441.699219" xlink:href="#DejaVuSans-32"/>
      <use x="473.486328" xlink:href="#DejaVuSans-48"/>
      <use x="537.109375" xlink:href="#DejaVuSans-46"/>
      <use x="568.896484" xlink:href="#DejaVuSans-54"/>
     </g>
    </g>
    <g id="line2d_41">
     <path d="M 647.6202 186.595798 
L 661.6146 186.595798 
" style="fill:none;stroke:#ff0000;stroke-linecap:square;stroke-width:1.2;"/>
    </g>
    <g id="line2d_42"/>
    <g id="text_21">
     <!-- Mutation 0.4 -->
     <g transform="translate(672.6102 190.094398)scale(0.09996 -0.09996)">
      <use xlink:href="#DejaVuSans-77"/>
      <use x="86.279297" xlink:href="#DejaVuSans-117"/>
      <use x="149.658203" xlink:href="#DejaVuSans-116"/>
      <use x="188.867188" xlink:href="#DejaVuSans-97"/>
      <use x="250.146484" xlink:href="#DejaVuSans-116"/>
      <use x="289.355469" xlink:href="#DejaVuSans-105"/>
      <use x="317.138672" xlink:href="#DejaVuSans-111"/>
      <use x="378.320312" xlink:href="#DejaVuSans-110"/>
      <use x="441.699219" xlink:href="#DejaVuSans-32"/>
      <use x="473.486328" xlink:href="#DejaVuSans-48"/>
      <use x="537.109375" xlink:href="#DejaVuSans-46"/>
      <use x="568.896484" xlink:href="#DejaVuSans-52"/>
     </g>
    </g>
    <g id="line2d_43">
     <path d="M 647.6202 201.268052 
L 661.6146 201.268052 
" style="fill:none;stroke:#00bfbf;stroke-linecap:square;stroke-width:1.2;"/>
    </g>
    <g id="line2d_44"/>
    <g id="text_22">
     <!-- Mutation 0.2 -->
     <g transform="translate(672.6102 204.766652)scale(0.09996 -0.09996)">
      <use xlink:href="#DejaVuSans-77"/>
      <use x="86.279297" xlink:href="#DejaVuSans-117"/>
      <use x="149.658203" xlink:href="#DejaVuSans-116"/>
      <use x="188.867188" xlink:href="#DejaVuSans-97"/>
      <use x="250.146484" xlink:href="#DejaVuSans-116"/>
      <use x="289.355469" xlink:href="#DejaVuSans-105"/>
      <use x="317.138672" xlink:href="#DejaVuSans-111"/>
      <use x="378.320312" xlink:href="#DejaVuSans-110"/>
      <use x="441.699219" xlink:href="#DejaVuSans-32"/>
      <use x="473.486328" xlink:href="#DejaVuSans-48"/>
      <use x="537.109375" xlink:href="#DejaVuSans-46"/>
      <use x="568.896484" xlink:href="#DejaVuSans-50"/>
     </g>
    </g>
   </g>
  </g>
  <g id="text_23">
   <!-- Average Loss -->
   <defs>
    <path d="M 34.1875 63.1875 
L 20.796875 26.90625 
L 47.609375 26.90625 
z
M 28.609375 72.90625 
L 39.796875 72.90625 
L 67.578125 0 
L 57.328125 0 
L 50.6875 18.703125 
L 17.828125 18.703125 
L 11.1875 0 
L 0.78125 0 
z
" id="DejaVuSans-65"/>
    <path d="M 2.984375 54.6875 
L 12.5 54.6875 
L 29.59375 8.796875 
L 46.6875 54.6875 
L 56.203125 54.6875 
L 35.6875 0 
L 23.484375 0 
z
" id="DejaVuSans-118"/>
    <path d="M 9.8125 72.90625 
L 19.671875 72.90625 
L 19.671875 8.296875 
L 55.171875 8.296875 
L 55.171875 0 
L 9.8125 0 
z
" id="DejaVuSans-76"/>
   </defs>
   <g transform="translate(410.293125 16.318125)scale(0.12 -0.12)">
    <use xlink:href="#DejaVuSans-65"/>
    <use x="62.533203" xlink:href="#DejaVuSans-118"/>
    <use x="121.712891" xlink:href="#DejaVuSans-101"/>
    <use x="183.236328" xlink:href="#DejaVuSans-114"/>
    <use x="224.349609" xlink:href="#DejaVuSans-97"/>
    <use x="285.628906" xlink:href="#DejaVuSans-103"/>
    <use x="349.105469" xlink:href="#DejaVuSans-101"/>
    <use x="410.628906" xlink:href="#DejaVuSans-32"/>
    <use x="442.416016" xlink:href="#DejaVuSans-76"/>
    <use x="496.378906" xlink:href="#DejaVuSans-111"/>
    <use x="557.560547" xlink:href="#DejaVuSans-115"/>
    <use x="609.660156" xlink:href="#DejaVuSans-115"/>
   </g>
  </g>
 </g>
 <defs>
  <clipPath id="p2a765c9687">
   <rect height="288" width="523.125" x="112.5" y="36"/>
  </clipPath>
 </defs>
</svg>
