<?xml version="1.0" encoding="utf-8" standalone="no"?>
<!DOCTYPE svg PUBLIC "-//W3C//DTD SVG 1.1//EN"
  "http://www.w3.org/Graphics/SVG/1.1/DTD/svg11.dtd">
<!-- Created with matplotlib (https://matplotlib.org/) -->
<svg height="360pt" version="1.1" viewBox="0 0 900 360" width="900pt" xmlns="http://www.w3.org/2000/svg" xmlns:xlink="http://www.w3.org/1999/xlink">
 <defs>
  <style type="text/css">
*{stroke-linecap:butt;stroke-linejoin:round;}
  </style>
 </defs>
 <g id="figure_1">
  <g id="patch_1">
   <path d="M 0 360 
L 900 360 
L 900 0 
L 0 0 
z
" style="fill:#ffffff;"/>
  </g>
  <g id="axes_1">
   <g id="patch_2">
    <path d="M 112.5 324 
L 635.625 324 
L 635.625 36 
L 112.5 36 
z
" style="fill:#ffffff;"/>
   </g>
   <g id="line2d_1">
    <path clip-path="url(#p7d05e60b5e)" d="M 112.782465 320.51376 
L 115.607114 319.95408 
L 118.431763 319.9032 
L 121.256412 319.31808 
L 124.081061 319.0128 
L 126.90571 319.14 
L 129.730359 319.08912 
L 132.555008 318.3768 
L 135.379657 318.70752 
L 141.028955 317.68992 
L 143.853604 317.68992 
L 146.678253 317.89344 
L 149.502902 317.25744 
L 152.327551 315.324 
L 155.1522 315.62928 
L 157.976849 317.79168 
L 160.801498 316.79952 
L 163.626147 316.57056 
L 166.450796 316.69776 
L 169.275445 315.75648 
L 172.100094 316.11264 
L 174.924744 315.42576 
L 177.749393 314.86608 
L 183.398691 314.45904 
L 186.22334 313.1616 
L 189.047989 313.6704 
L 191.872638 313.82304 
L 194.697287 314.23008 
L 197.521936 314.4336 
L 200.346585 313.31424 
L 203.171234 313.11072 
L 205.995883 311.30448 
L 208.820532 311.60976 
L 211.645181 313.61952 
L 214.46983 310.26144 
L 217.294479 309.95616 
L 220.119128 310.05792 
L 222.943777 309.54912 
L 225.768426 310.6176 
L 228.593075 312.16944 
L 231.417724 310.236 
L 234.242373 309.39648 
L 237.067022 309.26928 
L 239.891671 308.37888 
L 242.71632 307.36128 
L 245.540969 308.5824 
L 248.365618 307.23408 
L 251.190267 309.26928 
L 254.014916 308.30256 
L 256.839565 308.50608 
L 259.664214 304.48656 
L 262.488863 304.1304 
L 265.313512 305.12256 
L 268.138161 303.03648 
L 270.96281 312.22032 
L 273.78746 311.10096 
L 279.436758 309.77808 
L 282.261407 308.60784 
L 285.086056 308.55696 
L 287.910705 303.64704 
L 290.735354 302.88384 
L 293.560003 303.57072 
L 296.384652 302.14608 
L 299.209301 304.61376 
L 302.03395 304.30848 
L 304.858599 303.26544 
L 307.683248 304.41024 
L 310.507897 303.46896 
L 313.332546 303.3672 
L 316.157195 296.77824 
L 318.981844 302.90928 
L 321.806493 306.57264 
L 324.631142 307.00512 
L 327.455791 304.74096 
L 330.28044 308.76048 
L 333.105089 309.39648 
L 335.929738 308.93856 
L 338.754387 308.68416 
L 341.579036 311.68608 
L 347.228334 307.84464 
L 350.052983 307.15776 
L 352.877632 304.512 
L 355.702281 304.61376 
L 358.52693 300.23808 
L 361.351579 295.3536 
L 364.176228 295.70976 
L 367.000877 294.0816 
L 369.825526 297.61776 
L 372.650175 294.99744 
L 375.474825 293.01312 
L 378.299474 292.35168 
L 381.124123 283.7784 
L 383.948772 291.89376 
L 386.773421 295.07376 
L 392.422719 292.8096 
L 395.247368 292.35168 
L 398.072017 288.33216 
L 400.896666 288.8664 
L 403.721315 288.28128 
L 406.545964 286.3224 
L 409.370613 289.47696 
L 412.195262 280.0896 
L 415.019911 279.75888 
L 417.84456 290.6472 
L 420.669209 295.76064 
L 423.493858 291.2832 
L 426.318507 282.27744 
L 429.143156 284.77056 
L 431.967805 285.40656 
L 434.792454 287.16192 
L 437.617103 278.99568 
L 440.441752 283.11696 
L 443.266401 281.7432 
L 446.09105 280.80192 
L 448.915699 282.83712 
L 451.740348 285.91536 
L 454.564997 287.2128 
L 457.389646 280.19136 
L 460.214295 261.67104 
L 463.038944 268.84512 
L 465.863593 254.03904 
L 468.688242 269.32848 
L 471.512891 257.37168 
L 474.33754 260.67888 
L 477.16219 268.33632 
L 479.986839 275.05248 
L 482.811488 264.59664 
L 485.636137 281.31072 
L 488.460786 282.73536 
L 491.285435 279.5808 
L 494.110084 285.27936 
L 496.934733 275.68848 
L 499.759382 284.64336 
L 502.584031 277.9272 
L 505.40868 290.11296 
L 508.233329 279.27552 
L 511.057978 270.34608 
L 513.882627 280.0896 
L 516.707276 283.88016 
L 519.531925 277.5456 
L 522.356574 276.7824 
L 525.181223 279.78432 
L 528.005872 278.89392 
L 530.830521 270.168 
L 533.65517 277.44384 
L 536.479819 272.53392 
L 539.304468 275.3832 
L 542.129117 277.62192 
L 544.953766 281.4888 
L 547.778415 273.29712 
L 550.603064 272.5848 
L 553.427713 277.62192 
L 556.252362 282.43008 
L 559.077011 261.79824 
L 561.90166 279.1992 
L 564.726309 270.70224 
L 567.550958 257.88048 
L 570.375607 249.20544 
L 573.200256 244.4736 
L 576.024906 245.82192 
L 578.849555 258.18576 
L 581.674204 243.5832 
L 584.498853 262.94304 
L 587.323502 263.88432 
L 590.148151 281.20896 
L 592.9728 273.83136 
L 595.797449 253.58112 
L 598.622098 261.08592 
L 601.446747 262.81584 
L 604.271396 267.1152 
L 607.096045 258.9744 
L 609.920694 241.14096 
L 612.745343 224.35056 
L 615.569992 216.64224 
L 615.569992 216.64224 
" style="fill:none;stroke:#0000ff;stroke-linecap:square;stroke-width:1.2;"/>
   </g>
   <g id="line2d_2">
    <path clip-path="url(#p7d05e60b5e)" d="M 112.782465 320.51376 
L 115.607114 320.18304 
L 121.256412 319.776 
L 124.081061 319.08912 
L 126.90571 319.14 
L 129.730359 318.47856 
L 132.555008 319.47072 
L 135.379657 321.02256 
L 138.204306 320.56464 
L 141.028955 320.46288 
L 143.853604 320.61552 
L 152.327551 320.46288 
L 155.1522 320.23392 
L 157.976849 320.18304 
L 160.801498 319.9032 
L 163.626147 319.49616 
L 166.450796 319.87776 
L 172.100094 319.85232 
L 174.924744 318.47856 
L 177.749393 319.82688 
L 180.574042 319.87776 
L 183.398691 319.44528 
L 186.22334 317.79168 
L 189.047989 316.4688 
L 194.697287 320.0304 
L 197.521936 320.05584 
L 200.346585 319.08912 
L 203.171234 318.68208 
L 205.995883 317.53728 
L 208.820532 317.91888 
L 211.645181 318.42768 
L 214.46983 318.78384 
L 217.294479 320.08128 
L 220.119128 319.75056 
L 222.943777 319.72512 
L 225.768426 318.80928 
L 228.593075 320.43744 
L 231.417724 318.65664 
L 234.242373 317.46096 
L 237.067022 316.44336 
L 239.891671 315.65472 
L 242.71632 318.68208 
L 245.540969 318.35136 
L 248.365618 318.19872 
L 251.190267 318.78384 
L 254.014916 318.17328 
L 256.839565 318.30048 
L 259.664214 317.68992 
L 262.488863 317.71536 
L 265.313512 317.33376 
L 268.138161 318.96192 
L 270.96281 320.99712 
L 273.78746 320.48832 
L 276.612109 319.67424 
L 279.436758 319.11456 
L 285.086056 317.68992 
L 287.910705 317.1048 
L 290.735354 318.1224 
L 293.560003 318.60576 
L 296.384652 316.69776 
L 299.209301 316.95216 
L 302.03395 317.76624 
L 304.858599 314.15376 
L 307.683248 318.35136 
L 310.507897 316.36704 
L 313.332546 316.82496 
L 316.157195 315.5784 
L 318.981844 316.18896 
L 321.806493 317.02848 
L 324.631142 314.71344 
L 327.455791 316.62144 
L 330.28044 316.87584 
L 333.105089 314.45904 
L 335.929738 315.62928 
L 338.754387 314.3064 
L 341.579036 314.99328 
L 344.403685 312.47472 
L 347.228334 316.18896 
L 350.052983 312.62736 
L 352.877632 316.90128 
L 355.702281 314.63712 
L 358.52693 320.05584 
L 361.351579 319.72512 
L 364.176228 318.73296 
L 367.000877 320.05584 
L 372.650175 318.47856 
L 381.124123 318.91104 
L 383.948772 318.8856 
L 386.773421 318.1224 
L 389.59807 317.89344 
L 392.422719 318.2496 
L 395.247368 318.30048 
L 398.072017 317.76624 
L 400.896666 317.07936 
L 403.721315 317.38464 
L 406.545964 317.33376 
L 409.370613 316.36704 
L 412.195262 317.84256 
L 415.019911 316.16352 
L 417.84456 315.88368 
L 420.669209 316.2144 
L 423.493858 314.3064 
L 426.318507 312.19488 
L 429.143156 313.2888 
L 431.967805 313.11072 
L 434.792454 313.89936 
L 437.617103 313.26336 
L 440.441752 312.50016 
L 443.266401 311.60976 
L 446.09105 313.33968 
L 448.915699 311.94048 
L 451.740348 304.53744 
L 454.564997 307.692 
L 457.389646 303.08736 
L 460.214295 306.1656 
L 463.038944 307.41216 
L 465.863593 307.03056 
L 468.688242 296.39664 
L 471.512891 298.63536 
L 474.33754 300.03456 
L 477.16219 307.9464 
L 479.986839 303.90144 
L 482.811488 303.26544 
L 485.636137 307.8192 
L 488.460786 304.3848 
L 491.285435 298.5336 
L 494.110084 303.85056 
L 496.934733 305.4024 
L 499.759382 307.23408 
L 508.233329 300.77232 
L 511.057978 308.8368 
L 513.882627 309.2184 
L 516.707276 301.48464 
L 519.531925 308.78592 
L 522.356574 309.39648 
L 525.181223 308.53152 
L 528.005872 309.04032 
L 530.830521 311.6352 
L 533.65517 309.8544 
L 536.479819 304.96992 
L 539.304468 308.91312 
L 542.129117 307.46304 
L 544.953766 302.32416 
L 547.778415 299.32224 
L 550.603064 302.65488 
L 553.427713 307.15776 
L 556.252362 298.96608 
L 559.077011 299.88192 
L 561.90166 302.17152 
L 564.726309 303.29088 
L 567.550958 306.19104 
L 570.375607 295.4808 
L 573.200256 291.86832 
L 576.024906 306.62352 
L 578.849555 299.9328 
L 581.674204 300.23808 
L 584.498853 303.54528 
L 587.323502 299.65296 
L 590.148151 303.06192 
L 592.9728 293.62368 
L 595.797449 295.93872 
L 598.622098 302.24784 
L 601.446747 288.05232 
L 604.271396 296.88 
L 607.096045 280.54752 
L 609.920694 282.3792 
L 612.745343 298.35552 
L 615.569992 298.76256 
L 618.394641 299.72928 
L 621.21929 287.87424 
L 624.043939 291.94464 
L 624.043939 291.94464 
" style="fill:none;stroke:#008000;stroke-linecap:square;stroke-width:1.2;"/>
   </g>
   <g id="line2d_3">
    <path clip-path="url(#p7d05e60b5e)" d="M 112.782465 320.99712 
L 115.607114 321.50592 
L 118.431763 321.12432 
L 121.256412 321.4296 
L 126.90571 321.60768 
L 129.730359 321.45504 
L 132.555008 321.60768 
L 135.379657 320.86992 
L 138.204306 321.12432 
L 141.028955 320.71728 
L 143.853604 320.97168 
L 149.502902 321.09888 
L 152.327551 320.48832 
L 157.976849 320.2848 
L 160.801498 319.6488 
L 163.626147 319.9032 
L 166.450796 319.36896 
L 169.275445 320.18304 
L 172.100094 320.0304 
L 174.924744 320.10672 
L 177.749393 318.65664 
L 180.574042 319.9032 
L 183.398691 318.6312 
L 189.047989 318.98736 
L 194.697287 318.02064 
L 197.521936 318.60576 
L 200.346585 318.65664 
L 205.995883 318.19872 
L 208.820532 318.65664 
L 211.645181 317.6136 
L 214.46983 317.71536 
L 217.294479 317.96976 
L 220.119128 318.68208 
L 222.943777 319.21632 
L 225.768426 317.96976 
L 231.417724 318.3768 
L 237.067022 317.51184 
L 239.891671 317.81712 
L 242.71632 317.43552 
L 245.540969 317.25744 
L 248.365618 317.25744 
L 251.190267 318.22416 
L 254.014916 318.60576 
L 256.839565 318.19872 
L 259.664214 319.11456 
L 262.488863 317.25744 
L 265.313512 317.28288 
L 268.138161 318.07152 
L 270.96281 317.02848 
L 273.78746 316.36704 
L 276.612109 314.33184 
L 279.436758 317.6136 
L 282.261407 315.85824 
L 285.086056 313.416 
L 287.910705 317.79168 
L 293.560003 314.89152 
L 296.384652 314.8152 
L 299.209301 313.97568 
L 302.03395 313.56864 
L 304.858599 315.7056 
L 307.683248 313.13616 
L 310.507897 313.33968 
L 313.332546 314.1792 
L 316.157195 312.44928 
L 318.981844 317.1048 
L 321.806493 313.2888 
L 324.631142 313.2888 
L 327.455791 316.51968 
L 330.28044 314.84064 
L 333.105089 317.96976 
L 335.929738 316.79952 
L 338.754387 314.1792 
L 341.579036 313.69584 
L 344.403685 314.23008 
L 347.228334 316.16352 
L 350.052983 314.3064 
L 352.877632 315.68016 
L 355.702281 311.508 
L 358.52693 313.13616 
L 361.351579 310.77024 
L 364.176228 315.8328 
L 367.000877 314.99328 
L 369.825526 310.31232 
L 372.650175 313.97568 
L 375.474825 313.13616 
L 378.299474 312.55104 
L 381.124123 310.13424 
L 383.948772 308.2008 
L 386.773421 307.51392 
L 389.59807 312.75456 
L 392.422719 312.09312 
L 395.247368 306.49632 
L 398.072017 307.64112 
L 400.896666 310.3632 
L 403.721315 311.15184 
L 406.545964 312.70368 
L 409.370613 312.42384 
L 412.195262 311.35536 
L 415.019911 313.31424 
L 417.84456 309.2184 
L 420.669209 311.32992 
L 423.493858 307.59024 
L 426.318507 310.82112 
L 429.143156 313.11072 
L 431.967805 307.9464 
L 434.792454 311.02464 
L 437.617103 313.31424 
L 440.441752 310.1088 
L 443.266401 308.964 
L 446.09105 310.18512 
L 448.915699 309.90528 
L 451.740348 309.29472 
L 454.564997 310.236 
L 457.389646 310.4904 
L 460.214295 308.68416 
L 463.038944 312.6528 
L 465.863593 311.02464 
L 468.688242 311.45712 
L 471.512891 307.61568 
L 474.33754 313.56864 
L 477.16219 308.55696 
L 479.986839 304.20672 
L 482.811488 303.72336 
L 485.636137 302.604 
L 488.460786 306.47088 
L 491.285435 305.45328 
L 494.110084 303.34176 
L 496.934733 297.6432 
L 499.759382 299.1696 
L 502.584031 308.328 
L 505.40868 296.95632 
L 508.233329 304.86816 
L 511.057978 299.32224 
L 513.882627 302.90928 
L 516.707276 302.57856 
L 519.531925 297.36336 
L 522.356574 304.0032 
L 525.181223 294.2088 
L 528.005872 295.17552 
L 530.830521 300.46704 
L 533.65517 294.28512 
L 536.479819 293.67456 
L 539.304468 289.57872 
L 542.129117 294.2088 
L 544.953766 295.27728 
L 547.778415 293.67456 
L 550.603064 294.99744 
L 553.427713 297.2616 
L 556.252362 289.34976 
L 559.077011 294.51408 
L 561.90166 288.51024 
L 564.726309 298.4064 
L 567.550958 294.13248 
L 570.375607 297.54144 
L 573.200256 291.00336 
L 576.024906 288.28128 
L 578.849555 298.25376 
L 581.674204 293.85264 
L 584.498853 279.86064 
L 587.323502 293.29296 
L 590.148151 291.89376 
L 592.9728 300.28896 
L 595.797449 293.85264 
L 598.622098 291.05424 
L 601.446747 291.10512 
L 604.271396 290.69808 
L 607.096045 291.86832 
L 609.920694 290.74896 
L 612.745343 280.49664 
L 615.569992 292.32624 
L 618.394641 278.86848 
L 621.21929 294.28512 
L 624.043939 300.696 
L 624.043939 300.696 
" style="fill:none;stroke:#ff0000;stroke-linecap:square;stroke-width:1.2;"/>
   </g>
   <g id="line2d_4">
    <path clip-path="url(#p7d05e60b5e)" d="M 112.782465 320.64096 
L 115.607114 319.69968 
L 118.431763 320.31024 
L 121.256412 320.64096 
L 124.081061 320.46288 
L 126.90571 320.412 
L 129.730359 320.9208 
L 132.555008 320.23392 
L 135.379657 321.53136 
L 138.204306 321.37872 
L 141.028955 321.5568 
L 143.853604 321.91296 
L 146.678253 322.04016 
L 149.502902 321.40416 
L 152.327551 321.9384 
L 155.1522 321.70944 
L 157.976849 321.63312 
L 160.801498 321.35328 
L 163.626147 321.78576 
L 166.450796 321.684 
L 169.275445 321.88752 
L 172.100094 321.35328 
L 174.924744 321.22608 
L 177.749393 320.59008 
L 180.574042 320.48832 
L 183.398691 320.69184 
L 186.22334 320.56464 
L 189.047989 320.18304 
L 191.872638 320.412 
L 194.697287 321.37872 
L 197.521936 320.13216 
L 200.346585 320.5392 
L 203.171234 320.18304 
L 205.995883 320.05584 
L 208.820532 318.86016 
L 211.645181 320.64096 
L 214.46983 320.43744 
L 217.294479 319.97952 
L 220.119128 320.38656 
L 222.943777 319.08912 
L 225.768426 320.33568 
L 231.417724 318.45312 
L 237.067022 320.13216 
L 239.891671 319.29264 
L 242.71632 319.08912 
L 245.540969 320.23392 
L 248.365618 320.05584 
L 251.190267 320.23392 
L 254.014916 320.20848 
L 259.664214 321.07344 
L 262.488863 320.2848 
L 265.313512 320.89536 
L 268.138161 321.25152 
L 273.78746 319.87776 
L 276.612109 319.72512 
L 279.436758 319.24176 
L 282.261407 320.2848 
L 285.086056 319.29264 
L 287.910705 318.78384 
L 290.735354 318.7584 
L 293.560003 318.45312 
L 296.384652 318.35136 
L 299.209301 316.13808 
L 302.03395 319.41984 
L 307.683248 318.32592 
L 310.507897 316.7232 
L 313.332546 316.57056 
L 316.157195 317.00304 
L 318.981844 316.596 
L 321.806493 316.7232 
L 324.631142 316.11264 
L 327.455791 319.14 
L 330.28044 314.91696 
L 333.105089 313.18704 
L 335.929738 318.27504 
L 338.754387 318.42768 
L 341.579036 319.87776 
L 344.403685 317.6136 
L 347.228334 319.19088 
L 350.052983 317.63904 
L 352.877632 316.69776 
L 358.52693 320.74272 
L 361.351579 319.59792 
L 364.176228 318.17328 
L 367.000877 319.2672 
L 369.825526 318.09696 
L 372.650175 319.6488 
L 375.474825 319.87776 
L 378.299474 318.19872 
L 381.124123 317.00304 
L 383.948772 318.73296 
L 386.773421 318.2496 
L 389.59807 317.15568 
L 392.422719 317.28288 
L 395.247368 318.96192 
L 398.072017 316.3416 
L 400.896666 316.23984 
L 403.721315 315.0696 
L 406.545964 315.62928 
L 409.370613 315.62928 
L 412.195262 317.3592 
L 417.84456 314.48448 
L 420.669209 313.82304 
L 426.318507 314.63712 
L 429.143156 313.26336 
L 431.967805 314.10288 
L 434.792454 314.4336 
L 437.617103 308.73504 
L 440.441752 311.17728 
L 443.266401 317.53728 
L 446.09105 312.83088 
L 448.915699 311.6352 
L 451.740348 314.25552 
L 454.564997 315.52752 
L 457.389646 308.37888 
L 463.038944 307.38672 
L 465.863593 307.8192 
L 471.512891 309.54912 
L 474.33754 309.80352 
L 477.16219 307.4376 
L 479.986839 309.0912 
L 482.811488 304.02864 
L 485.636137 303.67248 
L 488.460786 303.92688 
L 491.285435 306.06384 
L 494.110084 294.64128 
L 496.934733 300.8232 
L 499.759382 305.19888 
L 502.584031 306.75072 
L 505.40868 310.9992 
L 508.233329 294.92112 
L 511.057978 295.93872 
L 513.882627 303.82512 
L 516.707276 309.26928 
L 519.531925 300.41616 
L 522.356574 307.36128 
L 525.181223 310.872 
L 528.005872 309.82896 
L 530.830521 307.87008 
L 533.65517 313.31424 
L 536.479819 301.10304 
L 539.304468 303.6216 
L 542.129117 303.29088 
L 544.953766 307.66656 
L 547.778415 307.79376 
L 550.603064 303.24 
L 553.427713 299.8056 
L 556.252362 292.73328 
L 559.077011 295.12464 
L 561.90166 288.28128 
L 564.726309 283.98192 
L 567.550958 283.32048 
L 570.375607 267.34416 
L 573.200256 284.36352 
L 576.024906 287.44176 
L 578.849555 305.07168 
L 581.674204 302.01888 
L 584.498853 295.12464 
L 587.323502 281.92128 
L 590.148151 287.69616 
L 592.9728 299.9328 
L 598.622098 290.52 
L 601.446747 292.37712 
L 604.271396 292.22448 
L 607.096045 280.5984 
L 609.920694 281.15808 
L 612.745343 294.69216 
L 615.569992 280.82736 
L 618.394641 278.10528 
L 621.21929 287.4672 
L 624.043939 286.50048 
L 626.868588 285.83904 
L 629.693237 293.52192 
L 632.517886 287.92512 
L 635.342535 298.20288 
L 635.342535 298.20288 
" style="fill:none;stroke:#00bfbf;stroke-linecap:square;stroke-width:1.2;"/>
   </g>
   <g id="line2d_5">
    <path clip-path="url(#p7d05e60b5e)" d="M 112.782465 320.99712 
L 115.607114 321.37872 
L 121.256412 320.74272 
L 124.081061 320.31024 
L 126.90571 321.60768 
L 132.555008 321.048 
L 135.379657 319.75056 
L 138.204306 320.56464 
L 141.028955 321.02256 
L 143.853604 320.7936 
L 146.678253 319.0128 
L 149.502902 319.08912 
L 152.327551 317.9952 
L 155.1522 320.20848 
L 157.976849 320.71728 
L 160.801498 318.8856 
L 163.626147 319.72512 
L 166.450796 319.69968 
L 169.275445 318.55488 
L 172.100094 318.8856 
L 174.924744 315.98544 
L 177.749393 318.58032 
L 180.574042 318.68208 
L 183.398691 320.2848 
L 186.22334 318.45312 
L 189.047989 316.29072 
L 191.872638 319.9032 
L 194.697287 317.56272 
L 197.521936 320.25936 
L 200.346585 317.58816 
L 203.171234 317.89344 
L 205.995883 313.84848 
L 208.820532 318.1224 
L 211.645181 317.41008 
L 214.46983 315.24768 
L 217.294479 314.12832 
L 220.119128 314.48448 
L 222.943777 313.00896 
L 225.768426 312.04224 
L 228.593075 313.1616 
L 231.417724 309.87984 
L 234.242373 311.40624 
L 237.067022 312.32208 
L 239.891671 313.5432 
L 242.71632 311.07552 
L 245.540969 308.42976 
L 248.365618 307.59024 
L 251.190267 310.28688 
L 254.014916 310.38864 
L 256.839565 308.55696 
L 259.664214 310.236 
L 262.488863 309.57456 
L 265.313512 306.5472 
L 268.138161 311.10096 
L 270.96281 305.22432 
L 273.78746 297.516 
L 279.436758 301.81536 
L 282.261407 313.7976 
L 285.086056 294.336 
L 287.910705 289.60416 
L 290.735354 289.47696 
L 293.560003 291.6648 
L 296.384652 289.98576 
L 299.209301 300.00912 
L 302.03395 302.62944 
L 304.858599 287.49264 
L 307.683248 277.31664 
L 310.507897 271.5672 
L 313.332546 295.17552 
L 316.157195 296.09136 
L 318.981844 283.16784 
L 321.806493 289.96032 
L 324.631142 309.87984 
L 327.455791 266.80992 
L 330.28044 298.35552 
L 333.105089 276.19728 
L 335.929738 294.61584 
L 338.754387 261.16224 
L 341.579036 261.41664 
L 344.403685 288.12864 
L 347.228334 274.67088 
L 350.052983 267.54768 
L 352.877632 278.35968 
L 355.702281 266.96256 
L 358.52693 279.68256 
L 361.351579 282.53184 
L 364.176228 294.38688 
L 367.000877 276.04464 
L 369.825526 277.8 
L 372.650175 282.15024 
L 375.474825 280.14048 
L 378.299474 280.77648 
L 381.124123 272.38128 
L 383.948772 288.63744 
L 386.773421 289.19712 
L 389.59807 292.32624 
L 392.422719 259.94112 
L 395.247368 291.56304 
L 398.072017 288.12864 
L 400.896666 299.57664 
L 403.721315 282.7608 
L 406.545964 288.56112 
L 412.195262 280.75104 
L 415.019911 280.03872 
L 417.84456 276.6552 
L 420.669209 276.2736 
L 423.493858 289.06992 
L 426.318507 287.23824 
L 429.143156 289.34976 
L 431.967805 293.87808 
L 434.792454 291.97008 
L 437.617103 290.36736 
L 440.441752 290.08752 
L 443.266401 248.97648 
L 446.09105 278.5632 
L 448.915699 289.47696 
L 451.740348 294.41232 
L 454.564997 295.40448 
L 457.389646 279.25008 
L 460.214295 274.56912 
L 463.038944 287.56896 
L 465.863593 274.62 
L 468.688242 285.07584 
L 471.512891 286.27152 
L 474.33754 283.11696 
L 477.16219 288.63744 
L 479.986839 286.09344 
L 482.811488 287.0856 
L 485.636137 279.5808 
L 488.460786 285.99168 
L 491.285435 283.47312 
L 494.110084 283.32048 
L 496.934733 281.00544 
L 499.759382 276.88416 
L 502.584031 258.51648 
L 505.40868 265.18176 
L 508.233329 259.68672 
L 511.057978 244.2192 
L 513.882627 264.74928 
L 516.707276 226.6656 
L 519.531925 265.53792 
L 522.356574 258.44016 
L 525.181223 265.51248 
L 528.005872 269.81184 
L 530.830521 264.0624 
L 533.65517 242.48928 
L 536.479819 245.03328 
L 539.304468 263.98608 
L 542.129117 264.0624 
L 544.953766 263.22288 
L 547.778415 220.20384 
L 550.603064 213.79296 
L 553.427713 241.39536 
L 556.252362 241.06464 
L 559.077011 221.80656 
L 561.90166 263.96064 
L 564.726309 277.39296 
L 567.550958 272.076 
L 570.375607 198.73248 
L 573.200256 261.95088 
L 576.024906 198.57984 
L 578.849555 232.56768 
L 581.674204 239.004 
L 584.498853 147.26736 
L 587.323502 214.50528 
L 590.148151 152.94048 
L 592.9728 75.39936 
L 595.797449 123.15024 
L 598.622098 195.90864 
L 601.446747 200.7168 
L 604.271396 168.76416 
L 604.271396 168.76416 
" style="fill:none;stroke:#bf00bf;stroke-linecap:square;stroke-width:1.2;"/>
   </g>
   <g id="patch_3">
    <path d="M 112.5 324 
L 112.5 36 
" style="fill:none;stroke:#000000;stroke-linecap:square;stroke-linejoin:miter;"/>
   </g>
   <g id="patch_4">
    <path d="M 635.625 324 
L 635.625 36 
" style="fill:none;stroke:#000000;stroke-linecap:square;stroke-linejoin:miter;"/>
   </g>
   <g id="patch_5">
    <path d="M 112.5 324 
L 635.625 324 
" style="fill:none;stroke:#000000;stroke-linecap:square;stroke-linejoin:miter;"/>
   </g>
   <g id="patch_6">
    <path d="M 112.5 36 
L 635.625 36 
" style="fill:none;stroke:#000000;stroke-linecap:square;stroke-linejoin:miter;"/>
   </g>
   <g id="matplotlib.axis_1">
    <g id="xtick_1">
     <g id="line2d_6">
      <defs>
       <path d="M 0 0 
L 0 -4 
" id="mb4c8c2da97" style="stroke:#000000;stroke-width:0.5;"/>
      </defs>
      <g>
       <use style="stroke:#000000;stroke-width:0.5;" x="112.782465" xlink:href="#mb4c8c2da97" y="324"/>
      </g>
     </g>
     <g id="line2d_7">
      <defs>
       <path d="M 0 0 
L 0 4 
" id="m0371c76d84" style="stroke:#000000;stroke-width:0.5;"/>
      </defs>
      <g>
       <use style="stroke:#000000;stroke-width:0.5;" x="112.782465" xlink:href="#m0371c76d84" y="36"/>
      </g>
     </g>
     <g id="text_1">
      <!-- 0 -->
      <defs>
       <path d="M 31.78125 66.40625 
Q 24.171875 66.40625 20.328125 58.90625 
Q 16.5 51.421875 16.5 36.375 
Q 16.5 21.390625 20.328125 13.890625 
Q 24.171875 6.390625 31.78125 6.390625 
Q 39.453125 6.390625 43.28125 13.890625 
Q 47.125 21.390625 47.125 36.375 
Q 47.125 51.421875 43.28125 58.90625 
Q 39.453125 66.40625 31.78125 66.40625 
z
M 31.78125 74.21875 
Q 44.046875 74.21875 50.515625 64.515625 
Q 56.984375 54.828125 56.984375 36.375 
Q 56.984375 17.96875 50.515625 8.265625 
Q 44.046875 -1.421875 31.78125 -1.421875 
Q 19.53125 -1.421875 13.0625 8.265625 
Q 6.59375 17.96875 6.59375 36.375 
Q 6.59375 54.828125 13.0625 64.515625 
Q 19.53125 74.21875 31.78125 74.21875 
z
" id="DejaVuSans-48"/>
      </defs>
      <g transform="translate(108.964965 337.118125)scale(0.12 -0.12)">
       <use xlink:href="#DejaVuSans-48"/>
      </g>
     </g>
    </g>
    <g id="xtick_2">
     <g id="line2d_8">
      <g>
       <use style="stroke:#000000;stroke-width:0.5;" x="166.450796" xlink:href="#mb4c8c2da97" y="324"/>
      </g>
     </g>
     <g id="line2d_9">
      <g>
       <use style="stroke:#000000;stroke-width:0.5;" x="166.450796" xlink:href="#m0371c76d84" y="36"/>
      </g>
     </g>
     <g id="text_2">
      <!-- 19 -->
      <defs>
       <path d="M 12.40625 8.296875 
L 28.515625 8.296875 
L 28.515625 63.921875 
L 10.984375 60.40625 
L 10.984375 69.390625 
L 28.421875 72.90625 
L 38.28125 72.90625 
L 38.28125 8.296875 
L 54.390625 8.296875 
L 54.390625 0 
L 12.40625 0 
z
" id="DejaVuSans-49"/>
       <path d="M 10.984375 1.515625 
L 10.984375 10.5 
Q 14.703125 8.734375 18.5 7.8125 
Q 22.3125 6.890625 25.984375 6.890625 
Q 35.75 6.890625 40.890625 13.453125 
Q 46.046875 20.015625 46.78125 33.40625 
Q 43.953125 29.203125 39.59375 26.953125 
Q 35.25 24.703125 29.984375 24.703125 
Q 19.046875 24.703125 12.671875 31.3125 
Q 6.296875 37.9375 6.296875 49.421875 
Q 6.296875 60.640625 12.9375 67.421875 
Q 19.578125 74.21875 30.609375 74.21875 
Q 43.265625 74.21875 49.921875 64.515625 
Q 56.59375 54.828125 56.59375 36.375 
Q 56.59375 19.140625 48.40625 8.859375 
Q 40.234375 -1.421875 26.421875 -1.421875 
Q 22.703125 -1.421875 18.890625 -0.6875 
Q 15.09375 0.046875 10.984375 1.515625 
z
M 30.609375 32.421875 
Q 37.25 32.421875 41.125 36.953125 
Q 45.015625 41.5 45.015625 49.421875 
Q 45.015625 57.28125 41.125 61.84375 
Q 37.25 66.40625 30.609375 66.40625 
Q 23.96875 66.40625 20.09375 61.84375 
Q 16.21875 57.28125 16.21875 49.421875 
Q 16.21875 41.5 20.09375 36.953125 
Q 23.96875 32.421875 30.609375 32.421875 
z
" id="DejaVuSans-57"/>
      </defs>
      <g transform="translate(158.815796 337.118125)scale(0.12 -0.12)">
       <use xlink:href="#DejaVuSans-49"/>
       <use x="63.623047" xlink:href="#DejaVuSans-57"/>
      </g>
     </g>
    </g>
    <g id="xtick_3">
     <g id="line2d_10">
      <g>
       <use style="stroke:#000000;stroke-width:0.5;" x="220.119128" xlink:href="#mb4c8c2da97" y="324"/>
      </g>
     </g>
     <g id="line2d_11">
      <g>
       <use style="stroke:#000000;stroke-width:0.5;" x="220.119128" xlink:href="#m0371c76d84" y="36"/>
      </g>
     </g>
     <g id="text_3">
      <!-- 38 -->
      <defs>
       <path d="M 40.578125 39.3125 
Q 47.65625 37.796875 51.625 33 
Q 55.609375 28.21875 55.609375 21.1875 
Q 55.609375 10.40625 48.1875 4.484375 
Q 40.765625 -1.421875 27.09375 -1.421875 
Q 22.515625 -1.421875 17.65625 -0.515625 
Q 12.796875 0.390625 7.625 2.203125 
L 7.625 11.71875 
Q 11.71875 9.328125 16.59375 8.109375 
Q 21.484375 6.890625 26.8125 6.890625 
Q 36.078125 6.890625 40.9375 10.546875 
Q 45.796875 14.203125 45.796875 21.1875 
Q 45.796875 27.640625 41.28125 31.265625 
Q 36.765625 34.90625 28.71875 34.90625 
L 20.21875 34.90625 
L 20.21875 43.015625 
L 29.109375 43.015625 
Q 36.375 43.015625 40.234375 45.921875 
Q 44.09375 48.828125 44.09375 54.296875 
Q 44.09375 59.90625 40.109375 62.90625 
Q 36.140625 65.921875 28.71875 65.921875 
Q 24.65625 65.921875 20.015625 65.03125 
Q 15.375 64.15625 9.8125 62.3125 
L 9.8125 71.09375 
Q 15.4375 72.65625 20.34375 73.4375 
Q 25.25 74.21875 29.59375 74.21875 
Q 40.828125 74.21875 47.359375 69.109375 
Q 53.90625 64.015625 53.90625 55.328125 
Q 53.90625 49.265625 50.4375 45.09375 
Q 46.96875 40.921875 40.578125 39.3125 
z
" id="DejaVuSans-51"/>
       <path d="M 31.78125 34.625 
Q 24.75 34.625 20.71875 30.859375 
Q 16.703125 27.09375 16.703125 20.515625 
Q 16.703125 13.921875 20.71875 10.15625 
Q 24.75 6.390625 31.78125 6.390625 
Q 38.8125 6.390625 42.859375 10.171875 
Q 46.921875 13.96875 46.921875 20.515625 
Q 46.921875 27.09375 42.890625 30.859375 
Q 38.875 34.625 31.78125 34.625 
z
M 21.921875 38.8125 
Q 15.578125 40.375 12.03125 44.71875 
Q 8.5 49.078125 8.5 55.328125 
Q 8.5 64.0625 14.71875 69.140625 
Q 20.953125 74.21875 31.78125 74.21875 
Q 42.671875 74.21875 48.875 69.140625 
Q 55.078125 64.0625 55.078125 55.328125 
Q 55.078125 49.078125 51.53125 44.71875 
Q 48 40.375 41.703125 38.8125 
Q 48.828125 37.15625 52.796875 32.3125 
Q 56.78125 27.484375 56.78125 20.515625 
Q 56.78125 9.90625 50.3125 4.234375 
Q 43.84375 -1.421875 31.78125 -1.421875 
Q 19.734375 -1.421875 13.25 4.234375 
Q 6.78125 9.90625 6.78125 20.515625 
Q 6.78125 27.484375 10.78125 32.3125 
Q 14.796875 37.15625 21.921875 38.8125 
z
M 18.3125 54.390625 
Q 18.3125 48.734375 21.84375 45.5625 
Q 25.390625 42.390625 31.78125 42.390625 
Q 38.140625 42.390625 41.71875 45.5625 
Q 45.3125 48.734375 45.3125 54.390625 
Q 45.3125 60.0625 41.71875 63.234375 
Q 38.140625 66.40625 31.78125 66.40625 
Q 25.390625 66.40625 21.84375 63.234375 
Q 18.3125 60.0625 18.3125 54.390625 
z
" id="DejaVuSans-56"/>
      </defs>
      <g transform="translate(212.484128 337.118125)scale(0.12 -0.12)">
       <use xlink:href="#DejaVuSans-51"/>
       <use x="63.623047" xlink:href="#DejaVuSans-56"/>
      </g>
     </g>
    </g>
    <g id="xtick_4">
     <g id="line2d_12">
      <g>
       <use style="stroke:#000000;stroke-width:0.5;" x="273.78746" xlink:href="#mb4c8c2da97" y="324"/>
      </g>
     </g>
     <g id="line2d_13">
      <g>
       <use style="stroke:#000000;stroke-width:0.5;" x="273.78746" xlink:href="#m0371c76d84" y="36"/>
      </g>
     </g>
     <g id="text_4">
      <!-- 57 -->
      <defs>
       <path d="M 10.796875 72.90625 
L 49.515625 72.90625 
L 49.515625 64.59375 
L 19.828125 64.59375 
L 19.828125 46.734375 
Q 21.96875 47.46875 24.109375 47.828125 
Q 26.265625 48.1875 28.421875 48.1875 
Q 40.625 48.1875 47.75 41.5 
Q 54.890625 34.8125 54.890625 23.390625 
Q 54.890625 11.625 47.5625 5.09375 
Q 40.234375 -1.421875 26.90625 -1.421875 
Q 22.3125 -1.421875 17.546875 -0.640625 
Q 12.796875 0.140625 7.71875 1.703125 
L 7.71875 11.625 
Q 12.109375 9.234375 16.796875 8.0625 
Q 21.484375 6.890625 26.703125 6.890625 
Q 35.15625 6.890625 40.078125 11.328125 
Q 45.015625 15.765625 45.015625 23.390625 
Q 45.015625 31 40.078125 35.4375 
Q 35.15625 39.890625 26.703125 39.890625 
Q 22.75 39.890625 18.8125 39.015625 
Q 14.890625 38.140625 10.796875 36.28125 
z
" id="DejaVuSans-53"/>
       <path d="M 8.203125 72.90625 
L 55.078125 72.90625 
L 55.078125 68.703125 
L 28.609375 0 
L 18.3125 0 
L 43.21875 64.59375 
L 8.203125 64.59375 
z
" id="DejaVuSans-55"/>
      </defs>
      <g transform="translate(266.15246 337.118125)scale(0.12 -0.12)">
       <use xlink:href="#DejaVuSans-53"/>
       <use x="63.623047" xlink:href="#DejaVuSans-55"/>
      </g>
     </g>
    </g>
    <g id="xtick_5">
     <g id="line2d_14">
      <g>
       <use style="stroke:#000000;stroke-width:0.5;" x="327.455791" xlink:href="#mb4c8c2da97" y="324"/>
      </g>
     </g>
     <g id="line2d_15">
      <g>
       <use style="stroke:#000000;stroke-width:0.5;" x="327.455791" xlink:href="#m0371c76d84" y="36"/>
      </g>
     </g>
     <g id="text_5">
      <!-- 76 -->
      <defs>
       <path d="M 33.015625 40.375 
Q 26.375 40.375 22.484375 35.828125 
Q 18.609375 31.296875 18.609375 23.390625 
Q 18.609375 15.53125 22.484375 10.953125 
Q 26.375 6.390625 33.015625 6.390625 
Q 39.65625 6.390625 43.53125 10.953125 
Q 47.40625 15.53125 47.40625 23.390625 
Q 47.40625 31.296875 43.53125 35.828125 
Q 39.65625 40.375 33.015625 40.375 
z
M 52.59375 71.296875 
L 52.59375 62.3125 
Q 48.875 64.0625 45.09375 64.984375 
Q 41.3125 65.921875 37.59375 65.921875 
Q 27.828125 65.921875 22.671875 59.328125 
Q 17.53125 52.734375 16.796875 39.40625 
Q 19.671875 43.65625 24.015625 45.921875 
Q 28.375 48.1875 33.59375 48.1875 
Q 44.578125 48.1875 50.953125 41.515625 
Q 57.328125 34.859375 57.328125 23.390625 
Q 57.328125 12.15625 50.6875 5.359375 
Q 44.046875 -1.421875 33.015625 -1.421875 
Q 20.359375 -1.421875 13.671875 8.265625 
Q 6.984375 17.96875 6.984375 36.375 
Q 6.984375 53.65625 15.1875 63.9375 
Q 23.390625 74.21875 37.203125 74.21875 
Q 40.921875 74.21875 44.703125 73.484375 
Q 48.484375 72.75 52.59375 71.296875 
z
" id="DejaVuSans-54"/>
      </defs>
      <g transform="translate(319.820791 337.118125)scale(0.12 -0.12)">
       <use xlink:href="#DejaVuSans-55"/>
       <use x="63.623047" xlink:href="#DejaVuSans-54"/>
      </g>
     </g>
    </g>
    <g id="xtick_6">
     <g id="line2d_16">
      <g>
       <use style="stroke:#000000;stroke-width:0.5;" x="381.124123" xlink:href="#mb4c8c2da97" y="324"/>
      </g>
     </g>
     <g id="line2d_17">
      <g>
       <use style="stroke:#000000;stroke-width:0.5;" x="381.124123" xlink:href="#m0371c76d84" y="36"/>
      </g>
     </g>
     <g id="text_6">
      <!-- 95 -->
      <g transform="translate(373.489123 337.118125)scale(0.12 -0.12)">
       <use xlink:href="#DejaVuSans-57"/>
       <use x="63.623047" xlink:href="#DejaVuSans-53"/>
      </g>
     </g>
    </g>
    <g id="xtick_7">
     <g id="line2d_18">
      <g>
       <use style="stroke:#000000;stroke-width:0.5;" x="434.792454" xlink:href="#mb4c8c2da97" y="324"/>
      </g>
     </g>
     <g id="line2d_19">
      <g>
       <use style="stroke:#000000;stroke-width:0.5;" x="434.792454" xlink:href="#m0371c76d84" y="36"/>
      </g>
     </g>
     <g id="text_7">
      <!-- 114 -->
      <defs>
       <path d="M 37.796875 64.3125 
L 12.890625 25.390625 
L 37.796875 25.390625 
z
M 35.203125 72.90625 
L 47.609375 72.90625 
L 47.609375 25.390625 
L 58.015625 25.390625 
L 58.015625 17.1875 
L 47.609375 17.1875 
L 47.609375 0 
L 37.796875 0 
L 37.796875 17.1875 
L 4.890625 17.1875 
L 4.890625 26.703125 
z
" id="DejaVuSans-52"/>
      </defs>
      <g transform="translate(423.339954 337.118125)scale(0.12 -0.12)">
       <use xlink:href="#DejaVuSans-49"/>
       <use x="63.623047" xlink:href="#DejaVuSans-49"/>
       <use x="127.246094" xlink:href="#DejaVuSans-52"/>
      </g>
     </g>
    </g>
    <g id="xtick_8">
     <g id="line2d_20">
      <g>
       <use style="stroke:#000000;stroke-width:0.5;" x="488.460786" xlink:href="#mb4c8c2da97" y="324"/>
      </g>
     </g>
     <g id="line2d_21">
      <g>
       <use style="stroke:#000000;stroke-width:0.5;" x="488.460786" xlink:href="#m0371c76d84" y="36"/>
      </g>
     </g>
     <g id="text_8">
      <!-- 133 -->
      <g transform="translate(477.008286 337.118125)scale(0.12 -0.12)">
       <use xlink:href="#DejaVuSans-49"/>
       <use x="63.623047" xlink:href="#DejaVuSans-51"/>
       <use x="127.246094" xlink:href="#DejaVuSans-51"/>
      </g>
     </g>
    </g>
    <g id="xtick_9">
     <g id="line2d_22">
      <g>
       <use style="stroke:#000000;stroke-width:0.5;" x="542.129117" xlink:href="#mb4c8c2da97" y="324"/>
      </g>
     </g>
     <g id="line2d_23">
      <g>
       <use style="stroke:#000000;stroke-width:0.5;" x="542.129117" xlink:href="#m0371c76d84" y="36"/>
      </g>
     </g>
     <g id="text_9">
      <!-- 152 -->
      <defs>
       <path d="M 19.1875 8.296875 
L 53.609375 8.296875 
L 53.609375 0 
L 7.328125 0 
L 7.328125 8.296875 
Q 12.9375 14.109375 22.625 23.890625 
Q 32.328125 33.6875 34.8125 36.53125 
Q 39.546875 41.84375 41.421875 45.53125 
Q 43.3125 49.21875 43.3125 52.78125 
Q 43.3125 58.59375 39.234375 62.25 
Q 35.15625 65.921875 28.609375 65.921875 
Q 23.96875 65.921875 18.8125 64.3125 
Q 13.671875 62.703125 7.8125 59.421875 
L 7.8125 69.390625 
Q 13.765625 71.78125 18.9375 73 
Q 24.125 74.21875 28.421875 74.21875 
Q 39.75 74.21875 46.484375 68.546875 
Q 53.21875 62.890625 53.21875 53.421875 
Q 53.21875 48.921875 51.53125 44.890625 
Q 49.859375 40.875 45.40625 35.40625 
Q 44.1875 33.984375 37.640625 27.21875 
Q 31.109375 20.453125 19.1875 8.296875 
z
" id="DejaVuSans-50"/>
      </defs>
      <g transform="translate(530.676617 337.118125)scale(0.12 -0.12)">
       <use xlink:href="#DejaVuSans-49"/>
       <use x="63.623047" xlink:href="#DejaVuSans-53"/>
       <use x="127.246094" xlink:href="#DejaVuSans-50"/>
      </g>
     </g>
    </g>
    <g id="xtick_10">
     <g id="line2d_24">
      <g>
       <use style="stroke:#000000;stroke-width:0.5;" x="595.797449" xlink:href="#mb4c8c2da97" y="324"/>
      </g>
     </g>
     <g id="line2d_25">
      <g>
       <use style="stroke:#000000;stroke-width:0.5;" x="595.797449" xlink:href="#m0371c76d84" y="36"/>
      </g>
     </g>
     <g id="text_10">
      <!-- 171 -->
      <g transform="translate(584.344949 337.118125)scale(0.12 -0.12)">
       <use xlink:href="#DejaVuSans-49"/>
       <use x="63.623047" xlink:href="#DejaVuSans-55"/>
       <use x="127.246094" xlink:href="#DejaVuSans-49"/>
      </g>
     </g>
    </g>
    <g id="text_11">
     <!-- generation -->
     <defs>
      <path d="M 45.40625 27.984375 
Q 45.40625 37.75 41.375 43.109375 
Q 37.359375 48.484375 30.078125 48.484375 
Q 22.859375 48.484375 18.828125 43.109375 
Q 14.796875 37.75 14.796875 27.984375 
Q 14.796875 18.265625 18.828125 12.890625 
Q 22.859375 7.515625 30.078125 7.515625 
Q 37.359375 7.515625 41.375 12.890625 
Q 45.40625 18.265625 45.40625 27.984375 
z
M 54.390625 6.78125 
Q 54.390625 -7.171875 48.1875 -13.984375 
Q 42 -20.796875 29.203125 -20.796875 
Q 24.46875 -20.796875 20.265625 -20.09375 
Q 16.0625 -19.390625 12.109375 -17.921875 
L 12.109375 -9.1875 
Q 16.0625 -11.328125 19.921875 -12.34375 
Q 23.78125 -13.375 27.78125 -13.375 
Q 36.625 -13.375 41.015625 -8.765625 
Q 45.40625 -4.15625 45.40625 5.171875 
L 45.40625 9.625 
Q 42.625 4.78125 38.28125 2.390625 
Q 33.9375 0 27.875 0 
Q 17.828125 0 11.671875 7.65625 
Q 5.515625 15.328125 5.515625 27.984375 
Q 5.515625 40.671875 11.671875 48.328125 
Q 17.828125 56 27.875 56 
Q 33.9375 56 38.28125 53.609375 
Q 42.625 51.21875 45.40625 46.390625 
L 45.40625 54.6875 
L 54.390625 54.6875 
z
" id="DejaVuSans-103"/>
      <path d="M 56.203125 29.59375 
L 56.203125 25.203125 
L 14.890625 25.203125 
Q 15.484375 15.921875 20.484375 11.0625 
Q 25.484375 6.203125 34.421875 6.203125 
Q 39.59375 6.203125 44.453125 7.46875 
Q 49.3125 8.734375 54.109375 11.28125 
L 54.109375 2.78125 
Q 49.265625 0.734375 44.1875 -0.34375 
Q 39.109375 -1.421875 33.890625 -1.421875 
Q 20.796875 -1.421875 13.15625 6.1875 
Q 5.515625 13.8125 5.515625 26.8125 
Q 5.515625 40.234375 12.765625 48.109375 
Q 20.015625 56 32.328125 56 
Q 43.359375 56 49.78125 48.890625 
Q 56.203125 41.796875 56.203125 29.59375 
z
M 47.21875 32.234375 
Q 47.125 39.59375 43.09375 43.984375 
Q 39.0625 48.390625 32.421875 48.390625 
Q 24.90625 48.390625 20.390625 44.140625 
Q 15.875 39.890625 15.1875 32.171875 
z
" id="DejaVuSans-101"/>
      <path d="M 54.890625 33.015625 
L 54.890625 0 
L 45.90625 0 
L 45.90625 32.71875 
Q 45.90625 40.484375 42.875 44.328125 
Q 39.84375 48.1875 33.796875 48.1875 
Q 26.515625 48.1875 22.3125 43.546875 
Q 18.109375 38.921875 18.109375 30.90625 
L 18.109375 0 
L 9.078125 0 
L 9.078125 54.6875 
L 18.109375 54.6875 
L 18.109375 46.1875 
Q 21.34375 51.125 25.703125 53.5625 
Q 30.078125 56 35.796875 56 
Q 45.21875 56 50.046875 50.171875 
Q 54.890625 44.34375 54.890625 33.015625 
z
" id="DejaVuSans-110"/>
      <path d="M 41.109375 46.296875 
Q 39.59375 47.171875 37.8125 47.578125 
Q 36.03125 48 33.890625 48 
Q 26.265625 48 22.1875 43.046875 
Q 18.109375 38.09375 18.109375 28.8125 
L 18.109375 0 
L 9.078125 0 
L 9.078125 54.6875 
L 18.109375 54.6875 
L 18.109375 46.1875 
Q 20.953125 51.171875 25.484375 53.578125 
Q 30.03125 56 36.53125 56 
Q 37.453125 56 38.578125 55.875 
Q 39.703125 55.765625 41.0625 55.515625 
z
" id="DejaVuSans-114"/>
      <path d="M 34.28125 27.484375 
Q 23.390625 27.484375 19.1875 25 
Q 14.984375 22.515625 14.984375 16.5 
Q 14.984375 11.71875 18.140625 8.90625 
Q 21.296875 6.109375 26.703125 6.109375 
Q 34.1875 6.109375 38.703125 11.40625 
Q 43.21875 16.703125 43.21875 25.484375 
L 43.21875 27.484375 
z
M 52.203125 31.203125 
L 52.203125 0 
L 43.21875 0 
L 43.21875 8.296875 
Q 40.140625 3.328125 35.546875 0.953125 
Q 30.953125 -1.421875 24.3125 -1.421875 
Q 15.921875 -1.421875 10.953125 3.296875 
Q 6 8.015625 6 15.921875 
Q 6 25.140625 12.171875 29.828125 
Q 18.359375 34.515625 30.609375 34.515625 
L 43.21875 34.515625 
L 43.21875 35.40625 
Q 43.21875 41.609375 39.140625 45 
Q 35.0625 48.390625 27.6875 48.390625 
Q 23 48.390625 18.546875 47.265625 
Q 14.109375 46.140625 10.015625 43.890625 
L 10.015625 52.203125 
Q 14.9375 54.109375 19.578125 55.046875 
Q 24.21875 56 28.609375 56 
Q 40.484375 56 46.34375 49.84375 
Q 52.203125 43.703125 52.203125 31.203125 
z
" id="DejaVuSans-97"/>
      <path d="M 18.3125 70.21875 
L 18.3125 54.6875 
L 36.8125 54.6875 
L 36.8125 47.703125 
L 18.3125 47.703125 
L 18.3125 18.015625 
Q 18.3125 11.328125 20.140625 9.421875 
Q 21.96875 7.515625 27.59375 7.515625 
L 36.8125 7.515625 
L 36.8125 0 
L 27.59375 0 
Q 17.1875 0 13.234375 3.875 
Q 9.28125 7.765625 9.28125 18.015625 
L 9.28125 47.703125 
L 2.6875 47.703125 
L 2.6875 54.6875 
L 9.28125 54.6875 
L 9.28125 70.21875 
z
" id="DejaVuSans-116"/>
      <path d="M 9.421875 54.6875 
L 18.40625 54.6875 
L 18.40625 0 
L 9.421875 0 
z
M 9.421875 75.984375 
L 18.40625 75.984375 
L 18.40625 64.59375 
L 9.421875 64.59375 
z
" id="DejaVuSans-105"/>
      <path d="M 30.609375 48.390625 
Q 23.390625 48.390625 19.1875 42.75 
Q 14.984375 37.109375 14.984375 27.296875 
Q 14.984375 17.484375 19.15625 11.84375 
Q 23.34375 6.203125 30.609375 6.203125 
Q 37.796875 6.203125 41.984375 11.859375 
Q 46.1875 17.53125 46.1875 27.296875 
Q 46.1875 37.015625 41.984375 42.703125 
Q 37.796875 48.390625 30.609375 48.390625 
z
M 30.609375 56 
Q 42.328125 56 49.015625 48.375 
Q 55.71875 40.765625 55.71875 27.296875 
Q 55.71875 13.875 49.015625 6.21875 
Q 42.328125 -1.421875 30.609375 -1.421875 
Q 18.84375 -1.421875 12.171875 6.21875 
Q 5.515625 13.875 5.515625 27.296875 
Q 5.515625 40.765625 12.171875 48.375 
Q 18.84375 56 30.609375 56 
z
" id="DejaVuSans-111"/>
     </defs>
     <g transform="translate(341.430938 353.731875)scale(0.12 -0.12)">
      <use xlink:href="#DejaVuSans-103"/>
      <use x="63.476562" xlink:href="#DejaVuSans-101"/>
      <use x="125" xlink:href="#DejaVuSans-110"/>
      <use x="188.378906" xlink:href="#DejaVuSans-101"/>
      <use x="249.902344" xlink:href="#DejaVuSans-114"/>
      <use x="291.015625" xlink:href="#DejaVuSans-97"/>
      <use x="352.294922" xlink:href="#DejaVuSans-116"/>
      <use x="391.503906" xlink:href="#DejaVuSans-105"/>
      <use x="419.287109" xlink:href="#DejaVuSans-111"/>
      <use x="480.46875" xlink:href="#DejaVuSans-110"/>
     </g>
    </g>
   </g>
   <g id="matplotlib.axis_2">
    <g id="ytick_1">
     <g id="line2d_26">
      <defs>
       <path d="M 0 0 
L 4 0 
" id="m3ed3966e79" style="stroke:#000000;stroke-width:0.5;"/>
      </defs>
      <g>
       <use style="stroke:#000000;stroke-width:0.5;" x="112.5" xlink:href="#m3ed3966e79" y="324"/>
      </g>
     </g>
     <g id="line2d_27">
      <defs>
       <path d="M 0 0 
L -4 0 
" id="m90ae876abf" style="stroke:#000000;stroke-width:0.5;"/>
      </defs>
      <g>
       <use style="stroke:#000000;stroke-width:0.5;" x="635.625" xlink:href="#m90ae876abf" y="324"/>
      </g>
     </g>
     <g id="text_12">
      <!-- 0 -->
      <g transform="translate(100.865 327.31125)scale(0.12 -0.12)">
       <use xlink:href="#DejaVuSans-48"/>
      </g>
     </g>
    </g>
    <g id="ytick_2">
     <g id="line2d_28">
      <g>
       <use style="stroke:#000000;stroke-width:0.5;" x="112.5" xlink:href="#m3ed3966e79" y="276"/>
      </g>
     </g>
     <g id="line2d_29">
      <g>
       <use style="stroke:#000000;stroke-width:0.5;" x="635.625" xlink:href="#m90ae876abf" y="276"/>
      </g>
     </g>
     <g id="text_13">
      <!-- 500,000 -->
      <defs>
       <path d="M 11.71875 12.40625 
L 22.015625 12.40625 
L 22.015625 4 
L 14.015625 -11.625 
L 7.71875 -11.625 
L 11.71875 4 
z
" id="DejaVuSans-44"/>
      </defs>
      <g transform="translate(58.87625 279.31125)scale(0.12 -0.12)">
       <use xlink:href="#DejaVuSans-53"/>
       <use x="63.623047" xlink:href="#DejaVuSans-48"/>
       <use x="127.246094" xlink:href="#DejaVuSans-48"/>
       <use x="190.869141" xlink:href="#DejaVuSans-44"/>
       <use x="222.65625" xlink:href="#DejaVuSans-48"/>
       <use x="286.279297" xlink:href="#DejaVuSans-48"/>
       <use x="349.902344" xlink:href="#DejaVuSans-48"/>
      </g>
     </g>
    </g>
    <g id="ytick_3">
     <g id="line2d_30">
      <g>
       <use style="stroke:#000000;stroke-width:0.5;" x="112.5" xlink:href="#m3ed3966e79" y="228"/>
      </g>
     </g>
     <g id="line2d_31">
      <g>
       <use style="stroke:#000000;stroke-width:0.5;" x="635.625" xlink:href="#m90ae876abf" y="228"/>
      </g>
     </g>
     <g id="text_14">
      <!-- 1,000,000 -->
      <g transform="translate(47.4275 231.31125)scale(0.12 -0.12)">
       <use xlink:href="#DejaVuSans-49"/>
       <use x="63.623047" xlink:href="#DejaVuSans-44"/>
       <use x="95.410156" xlink:href="#DejaVuSans-48"/>
       <use x="159.033203" xlink:href="#DejaVuSans-48"/>
       <use x="222.65625" xlink:href="#DejaVuSans-48"/>
       <use x="286.279297" xlink:href="#DejaVuSans-44"/>
       <use x="318.066406" xlink:href="#DejaVuSans-48"/>
       <use x="381.689453" xlink:href="#DejaVuSans-48"/>
       <use x="445.3125" xlink:href="#DejaVuSans-48"/>
      </g>
     </g>
    </g>
    <g id="ytick_4">
     <g id="line2d_32">
      <g>
       <use style="stroke:#000000;stroke-width:0.5;" x="112.5" xlink:href="#m3ed3966e79" y="180"/>
      </g>
     </g>
     <g id="line2d_33">
      <g>
       <use style="stroke:#000000;stroke-width:0.5;" x="635.625" xlink:href="#m90ae876abf" y="180"/>
      </g>
     </g>
     <g id="text_15">
      <!-- 1,500,000 -->
      <g transform="translate(47.4275 183.31125)scale(0.12 -0.12)">
       <use xlink:href="#DejaVuSans-49"/>
       <use x="63.623047" xlink:href="#DejaVuSans-44"/>
       <use x="95.410156" xlink:href="#DejaVuSans-53"/>
       <use x="159.033203" xlink:href="#DejaVuSans-48"/>
       <use x="222.65625" xlink:href="#DejaVuSans-48"/>
       <use x="286.279297" xlink:href="#DejaVuSans-44"/>
       <use x="318.066406" xlink:href="#DejaVuSans-48"/>
       <use x="381.689453" xlink:href="#DejaVuSans-48"/>
       <use x="445.3125" xlink:href="#DejaVuSans-48"/>
      </g>
     </g>
    </g>
    <g id="ytick_5">
     <g id="line2d_34">
      <g>
       <use style="stroke:#000000;stroke-width:0.5;" x="112.5" xlink:href="#m3ed3966e79" y="132"/>
      </g>
     </g>
     <g id="line2d_35">
      <g>
       <use style="stroke:#000000;stroke-width:0.5;" x="635.625" xlink:href="#m90ae876abf" y="132"/>
      </g>
     </g>
     <g id="text_16">
      <!-- 2,000,000 -->
      <g transform="translate(47.4275 135.31125)scale(0.12 -0.12)">
       <use xlink:href="#DejaVuSans-50"/>
       <use x="63.623047" xlink:href="#DejaVuSans-44"/>
       <use x="95.410156" xlink:href="#DejaVuSans-48"/>
       <use x="159.033203" xlink:href="#DejaVuSans-48"/>
       <use x="222.65625" xlink:href="#DejaVuSans-48"/>
       <use x="286.279297" xlink:href="#DejaVuSans-44"/>
       <use x="318.066406" xlink:href="#DejaVuSans-48"/>
       <use x="381.689453" xlink:href="#DejaVuSans-48"/>
       <use x="445.3125" xlink:href="#DejaVuSans-48"/>
      </g>
     </g>
    </g>
    <g id="ytick_6">
     <g id="line2d_36">
      <g>
       <use style="stroke:#000000;stroke-width:0.5;" x="112.5" xlink:href="#m3ed3966e79" y="84"/>
      </g>
     </g>
     <g id="line2d_37">
      <g>
       <use style="stroke:#000000;stroke-width:0.5;" x="635.625" xlink:href="#m90ae876abf" y="84"/>
      </g>
     </g>
     <g id="text_17">
      <!-- 2,500,000 -->
      <g transform="translate(47.4275 87.31125)scale(0.12 -0.12)">
       <use xlink:href="#DejaVuSans-50"/>
       <use x="63.623047" xlink:href="#DejaVuSans-44"/>
       <use x="95.410156" xlink:href="#DejaVuSans-53"/>
       <use x="159.033203" xlink:href="#DejaVuSans-48"/>
       <use x="222.65625" xlink:href="#DejaVuSans-48"/>
       <use x="286.279297" xlink:href="#DejaVuSans-44"/>
       <use x="318.066406" xlink:href="#DejaVuSans-48"/>
       <use x="381.689453" xlink:href="#DejaVuSans-48"/>
       <use x="445.3125" xlink:href="#DejaVuSans-48"/>
      </g>
     </g>
    </g>
    <g id="ytick_7">
     <g id="line2d_38">
      <g>
       <use style="stroke:#000000;stroke-width:0.5;" x="112.5" xlink:href="#m3ed3966e79" y="36"/>
      </g>
     </g>
     <g id="line2d_39">
      <g>
       <use style="stroke:#000000;stroke-width:0.5;" x="635.625" xlink:href="#m90ae876abf" y="36"/>
      </g>
     </g>
     <g id="text_18">
      <!-- 3,000,000 -->
      <g transform="translate(47.4275 39.31125)scale(0.12 -0.12)">
       <use xlink:href="#DejaVuSans-51"/>
       <use x="63.623047" xlink:href="#DejaVuSans-44"/>
       <use x="95.410156" xlink:href="#DejaVuSans-48"/>
       <use x="159.033203" xlink:href="#DejaVuSans-48"/>
       <use x="222.65625" xlink:href="#DejaVuSans-48"/>
       <use x="286.279297" xlink:href="#DejaVuSans-44"/>
       <use x="318.066406" xlink:href="#DejaVuSans-48"/>
       <use x="381.689453" xlink:href="#DejaVuSans-48"/>
       <use x="445.3125" xlink:href="#DejaVuSans-48"/>
      </g>
     </g>
    </g>
    <g id="text_19">
     <!-- parameters -->
     <defs>
      <path d="M 18.109375 8.203125 
L 18.109375 -20.796875 
L 9.078125 -20.796875 
L 9.078125 54.6875 
L 18.109375 54.6875 
L 18.109375 46.390625 
Q 20.953125 51.265625 25.265625 53.625 
Q 29.59375 56 35.59375 56 
Q 45.5625 56 51.78125 48.09375 
Q 58.015625 40.1875 58.015625 27.296875 
Q 58.015625 14.40625 51.78125 6.484375 
Q 45.5625 -1.421875 35.59375 -1.421875 
Q 29.59375 -1.421875 25.265625 0.953125 
Q 20.953125 3.328125 18.109375 8.203125 
z
M 48.6875 27.296875 
Q 48.6875 37.203125 44.609375 42.84375 
Q 40.53125 48.484375 33.40625 48.484375 
Q 26.265625 48.484375 22.1875 42.84375 
Q 18.109375 37.203125 18.109375 27.296875 
Q 18.109375 17.390625 22.1875 11.75 
Q 26.265625 6.109375 33.40625 6.109375 
Q 40.53125 6.109375 44.609375 11.75 
Q 48.6875 17.390625 48.6875 27.296875 
z
" id="DejaVuSans-112"/>
      <path d="M 52 44.1875 
Q 55.375 50.25 60.0625 53.125 
Q 64.75 56 71.09375 56 
Q 79.640625 56 84.28125 50.015625 
Q 88.921875 44.046875 88.921875 33.015625 
L 88.921875 0 
L 79.890625 0 
L 79.890625 32.71875 
Q 79.890625 40.578125 77.09375 44.375 
Q 74.3125 48.1875 68.609375 48.1875 
Q 61.625 48.1875 57.5625 43.546875 
Q 53.515625 38.921875 53.515625 30.90625 
L 53.515625 0 
L 44.484375 0 
L 44.484375 32.71875 
Q 44.484375 40.625 41.703125 44.40625 
Q 38.921875 48.1875 33.109375 48.1875 
Q 26.21875 48.1875 22.15625 43.53125 
Q 18.109375 38.875 18.109375 30.90625 
L 18.109375 0 
L 9.078125 0 
L 9.078125 54.6875 
L 18.109375 54.6875 
L 18.109375 46.1875 
Q 21.1875 51.21875 25.484375 53.609375 
Q 29.78125 56 35.6875 56 
Q 41.65625 56 45.828125 52.96875 
Q 50 49.953125 52 44.1875 
z
" id="DejaVuSans-109"/>
      <path d="M 44.28125 53.078125 
L 44.28125 44.578125 
Q 40.484375 46.53125 36.375 47.5 
Q 32.28125 48.484375 27.875 48.484375 
Q 21.1875 48.484375 17.84375 46.4375 
Q 14.5 44.390625 14.5 40.28125 
Q 14.5 37.15625 16.890625 35.375 
Q 19.28125 33.59375 26.515625 31.984375 
L 29.59375 31.296875 
Q 39.15625 29.25 43.1875 25.515625 
Q 47.21875 21.78125 47.21875 15.09375 
Q 47.21875 7.46875 41.1875 3.015625 
Q 35.15625 -1.421875 24.609375 -1.421875 
Q 20.21875 -1.421875 15.453125 -0.5625 
Q 10.6875 0.296875 5.421875 2 
L 5.421875 11.28125 
Q 10.40625 8.6875 15.234375 7.390625 
Q 20.0625 6.109375 24.8125 6.109375 
Q 31.15625 6.109375 34.5625 8.28125 
Q 37.984375 10.453125 37.984375 14.40625 
Q 37.984375 18.0625 35.515625 20.015625 
Q 33.0625 21.96875 24.703125 23.78125 
L 21.578125 24.515625 
Q 13.234375 26.265625 9.515625 29.90625 
Q 5.8125 33.546875 5.8125 39.890625 
Q 5.8125 47.609375 11.28125 51.796875 
Q 16.75 56 26.8125 56 
Q 31.78125 56 36.171875 55.265625 
Q 40.578125 54.546875 44.28125 53.078125 
z
" id="DejaVuSans-115"/>
     </defs>
     <g transform="translate(39.931875 214.801875)rotate(-90)scale(0.12 -0.12)">
      <use xlink:href="#DejaVuSans-112"/>
      <use x="63.476562" xlink:href="#DejaVuSans-97"/>
      <use x="124.755859" xlink:href="#DejaVuSans-114"/>
      <use x="165.869141" xlink:href="#DejaVuSans-97"/>
      <use x="227.148438" xlink:href="#DejaVuSans-109"/>
      <use x="324.560547" xlink:href="#DejaVuSans-101"/>
      <use x="386.083984" xlink:href="#DejaVuSans-116"/>
      <use x="425.292969" xlink:href="#DejaVuSans-101"/>
      <use x="486.816406" xlink:href="#DejaVuSans-114"/>
      <use x="527.929688" xlink:href="#DejaVuSans-115"/>
     </g>
    </g>
   </g>
   <g id="legend_1">
    <g id="patch_7">
     <path d="M 640.623 218.180034 
L 718.112304 218.180034 
L 718.112304 141.819966 
L 640.623 141.819966 
z
" style="fill:#ffffff;stroke:#000000;stroke-linejoin:miter;"/>
    </g>
    <g id="line2d_40">
     <path d="M 647.6202 149.915164 
L 661.6146 149.915164 
" style="fill:none;stroke:#0000ff;stroke-linecap:square;stroke-width:1.2;"/>
    </g>
    <g id="line2d_41"/>
    <g id="text_20">
     <!-- Relu -->
     <defs>
      <path d="M 44.390625 34.1875 
Q 47.5625 33.109375 50.5625 29.59375 
Q 53.5625 26.078125 56.59375 19.921875 
L 66.609375 0 
L 56 0 
L 46.6875 18.703125 
Q 43.0625 26.03125 39.671875 28.421875 
Q 36.28125 30.8125 30.421875 30.8125 
L 19.671875 30.8125 
L 19.671875 0 
L 9.8125 0 
L 9.8125 72.90625 
L 32.078125 72.90625 
Q 44.578125 72.90625 50.734375 67.671875 
Q 56.890625 62.453125 56.890625 51.90625 
Q 56.890625 45.015625 53.6875 40.46875 
Q 50.484375 35.9375 44.390625 34.1875 
z
M 19.671875 64.796875 
L 19.671875 38.921875 
L 32.078125 38.921875 
Q 39.203125 38.921875 42.84375 42.21875 
Q 46.484375 45.515625 46.484375 51.90625 
Q 46.484375 58.296875 42.84375 61.546875 
Q 39.203125 64.796875 32.078125 64.796875 
z
" id="DejaVuSans-82"/>
      <path d="M 9.421875 75.984375 
L 18.40625 75.984375 
L 18.40625 0 
L 9.421875 0 
z
" id="DejaVuSans-108"/>
      <path d="M 8.5 21.578125 
L 8.5 54.6875 
L 17.484375 54.6875 
L 17.484375 21.921875 
Q 17.484375 14.15625 20.5 10.265625 
Q 23.53125 6.390625 29.59375 6.390625 
Q 36.859375 6.390625 41.078125 11.03125 
Q 45.3125 15.671875 45.3125 23.6875 
L 45.3125 54.6875 
L 54.296875 54.6875 
L 54.296875 0 
L 45.3125 0 
L 45.3125 8.40625 
Q 42.046875 3.421875 37.71875 1 
Q 33.40625 -1.421875 27.6875 -1.421875 
Q 18.265625 -1.421875 13.375 4.4375 
Q 8.5 10.296875 8.5 21.578125 
z
M 31.109375 56 
z
" id="DejaVuSans-117"/>
     </defs>
     <g transform="translate(672.6102 153.413764)scale(0.09996 -0.09996)">
      <use xlink:href="#DejaVuSans-82"/>
      <use x="64.982422" xlink:href="#DejaVuSans-101"/>
      <use x="126.505859" xlink:href="#DejaVuSans-108"/>
      <use x="154.289062" xlink:href="#DejaVuSans-117"/>
     </g>
    </g>
    <g id="line2d_42">
     <path d="M 647.6202 164.587417 
L 661.6146 164.587417 
" style="fill:none;stroke:#008000;stroke-linecap:square;stroke-width:1.2;"/>
    </g>
    <g id="line2d_43"/>
    <g id="text_21">
     <!-- Elu -->
     <defs>
      <path d="M 9.8125 72.90625 
L 55.90625 72.90625 
L 55.90625 64.59375 
L 19.671875 64.59375 
L 19.671875 43.015625 
L 54.390625 43.015625 
L 54.390625 34.71875 
L 19.671875 34.71875 
L 19.671875 8.296875 
L 56.78125 8.296875 
L 56.78125 0 
L 9.8125 0 
z
" id="DejaVuSans-69"/>
     </defs>
     <g transform="translate(672.6102 168.086017)scale(0.09996 -0.09996)">
      <use xlink:href="#DejaVuSans-69"/>
      <use x="63.183594" xlink:href="#DejaVuSans-108"/>
      <use x="90.966797" xlink:href="#DejaVuSans-117"/>
     </g>
    </g>
    <g id="line2d_44">
     <path d="M 647.6202 179.259671 
L 661.6146 179.259671 
" style="fill:none;stroke:#ff0000;stroke-linecap:square;stroke-width:1.2;"/>
    </g>
    <g id="line2d_45"/>
    <g id="text_22">
     <!-- Selu -->
     <defs>
      <path d="M 53.515625 70.515625 
L 53.515625 60.890625 
Q 47.90625 63.578125 42.921875 64.890625 
Q 37.9375 66.21875 33.296875 66.21875 
Q 25.25 66.21875 20.875 63.09375 
Q 16.5 59.96875 16.5 54.203125 
Q 16.5 49.359375 19.40625 46.890625 
Q 22.3125 44.4375 30.421875 42.921875 
L 36.375 41.703125 
Q 47.40625 39.59375 52.65625 34.296875 
Q 57.90625 29 57.90625 20.125 
Q 57.90625 9.515625 50.796875 4.046875 
Q 43.703125 -1.421875 29.984375 -1.421875 
Q 24.8125 -1.421875 18.96875 -0.25 
Q 13.140625 0.921875 6.890625 3.21875 
L 6.890625 13.375 
Q 12.890625 10.015625 18.65625 8.296875 
Q 24.421875 6.59375 29.984375 6.59375 
Q 38.421875 6.59375 43.015625 9.90625 
Q 47.609375 13.234375 47.609375 19.390625 
Q 47.609375 24.75 44.3125 27.78125 
Q 41.015625 30.8125 33.5 32.328125 
L 27.484375 33.5 
Q 16.453125 35.6875 11.515625 40.375 
Q 6.59375 45.0625 6.59375 53.421875 
Q 6.59375 63.09375 13.40625 68.65625 
Q 20.21875 74.21875 32.171875 74.21875 
Q 37.3125 74.21875 42.625 73.28125 
Q 47.953125 72.359375 53.515625 70.515625 
z
" id="DejaVuSans-83"/>
     </defs>
     <g transform="translate(672.6102 182.758271)scale(0.09996 -0.09996)">
      <use xlink:href="#DejaVuSans-83"/>
      <use x="63.476562" xlink:href="#DejaVuSans-101"/>
      <use x="125" xlink:href="#DejaVuSans-108"/>
      <use x="152.783203" xlink:href="#DejaVuSans-117"/>
     </g>
    </g>
    <g id="line2d_46">
     <path d="M 647.6202 193.931925 
L 661.6146 193.931925 
" style="fill:none;stroke:#00bfbf;stroke-linecap:square;stroke-width:1.2;"/>
    </g>
    <g id="line2d_47"/>
    <g id="text_23">
     <!-- SGD -->
     <defs>
      <path d="M 59.515625 10.40625 
L 59.515625 29.984375 
L 43.40625 29.984375 
L 43.40625 38.09375 
L 69.28125 38.09375 
L 69.28125 6.78125 
Q 63.578125 2.734375 56.6875 0.65625 
Q 49.8125 -1.421875 42 -1.421875 
Q 24.90625 -1.421875 15.25 8.5625 
Q 5.609375 18.5625 5.609375 36.375 
Q 5.609375 54.25 15.25 64.234375 
Q 24.90625 74.21875 42 74.21875 
Q 49.125 74.21875 55.546875 72.453125 
Q 61.96875 70.703125 67.390625 67.28125 
L 67.390625 56.78125 
Q 61.921875 61.421875 55.765625 63.765625 
Q 49.609375 66.109375 42.828125 66.109375 
Q 29.4375 66.109375 22.71875 58.640625 
Q 16.015625 51.171875 16.015625 36.375 
Q 16.015625 21.625 22.71875 14.15625 
Q 29.4375 6.6875 42.828125 6.6875 
Q 48.046875 6.6875 52.140625 7.59375 
Q 56.25 8.5 59.515625 10.40625 
z
" id="DejaVuSans-71"/>
      <path d="M 19.671875 64.796875 
L 19.671875 8.109375 
L 31.59375 8.109375 
Q 46.6875 8.109375 53.6875 14.9375 
Q 60.6875 21.78125 60.6875 36.53125 
Q 60.6875 51.171875 53.6875 57.984375 
Q 46.6875 64.796875 31.59375 64.796875 
z
M 9.8125 72.90625 
L 30.078125 72.90625 
Q 51.265625 72.90625 61.171875 64.09375 
Q 71.09375 55.28125 71.09375 36.53125 
Q 71.09375 17.671875 61.125 8.828125 
Q 51.171875 0 30.078125 0 
L 9.8125 0 
z
" id="DejaVuSans-68"/>
     </defs>
     <g transform="translate(672.6102 197.430525)scale(0.09996 -0.09996)">
      <use xlink:href="#DejaVuSans-83"/>
      <use x="63.476562" xlink:href="#DejaVuSans-71"/>
      <use x="140.966797" xlink:href="#DejaVuSans-68"/>
     </g>
    </g>
    <g id="line2d_48">
     <path d="M 647.6202 208.604179 
L 661.6146 208.604179 
" style="fill:none;stroke:#bf00bf;stroke-linecap:square;stroke-width:1.2;"/>
    </g>
    <g id="line2d_49"/>
    <g id="text_24">
     <!-- Softmax -->
     <defs>
      <path d="M 37.109375 75.984375 
L 37.109375 68.5 
L 28.515625 68.5 
Q 23.6875 68.5 21.796875 66.546875 
Q 19.921875 64.59375 19.921875 59.515625 
L 19.921875 54.6875 
L 34.71875 54.6875 
L 34.71875 47.703125 
L 19.921875 47.703125 
L 19.921875 0 
L 10.890625 0 
L 10.890625 47.703125 
L 2.296875 47.703125 
L 2.296875 54.6875 
L 10.890625 54.6875 
L 10.890625 58.5 
Q 10.890625 67.625 15.140625 71.796875 
Q 19.390625 75.984375 28.609375 75.984375 
z
" id="DejaVuSans-102"/>
      <path d="M 54.890625 54.6875 
L 35.109375 28.078125 
L 55.90625 0 
L 45.3125 0 
L 29.390625 21.484375 
L 13.484375 0 
L 2.875 0 
L 24.125 28.609375 
L 4.6875 54.6875 
L 15.28125 54.6875 
L 29.78125 35.203125 
L 44.28125 54.6875 
z
" id="DejaVuSans-120"/>
     </defs>
     <g transform="translate(672.6102 212.102779)scale(0.09996 -0.09996)">
      <use xlink:href="#DejaVuSans-83"/>
      <use x="63.476562" xlink:href="#DejaVuSans-111"/>
      <use x="124.658203" xlink:href="#DejaVuSans-102"/>
      <use x="158.113281" xlink:href="#DejaVuSans-116"/>
      <use x="197.322266" xlink:href="#DejaVuSans-109"/>
      <use x="294.734375" xlink:href="#DejaVuSans-97"/>
      <use x="356.013672" xlink:href="#DejaVuSans-120"/>
     </g>
    </g>
   </g>
  </g>
  <g id="text_25">
   <!-- Average Amount of Parameters -->
   <defs>
    <path d="M 34.1875 63.1875 
L 20.796875 26.90625 
L 47.609375 26.90625 
z
M 28.609375 72.90625 
L 39.796875 72.90625 
L 67.578125 0 
L 57.328125 0 
L 50.6875 18.703125 
L 17.828125 18.703125 
L 11.1875 0 
L 0.78125 0 
z
" id="DejaVuSans-65"/>
    <path d="M 2.984375 54.6875 
L 12.5 54.6875 
L 29.59375 8.796875 
L 46.6875 54.6875 
L 56.203125 54.6875 
L 35.6875 0 
L 23.484375 0 
z
" id="DejaVuSans-118"/>
    <path id="DejaVuSans-32"/>
    <path d="M 19.671875 64.796875 
L 19.671875 37.40625 
L 32.078125 37.40625 
Q 38.96875 37.40625 42.71875 40.96875 
Q 46.484375 44.53125 46.484375 51.125 
Q 46.484375 57.671875 42.71875 61.234375 
Q 38.96875 64.796875 32.078125 64.796875 
z
M 9.8125 72.90625 
L 32.078125 72.90625 
Q 44.34375 72.90625 50.609375 67.359375 
Q 56.890625 61.8125 56.890625 51.125 
Q 56.890625 40.328125 50.609375 34.8125 
Q 44.34375 29.296875 32.078125 29.296875 
L 19.671875 29.296875 
L 19.671875 0 
L 9.8125 0 
z
" id="DejaVuSans-80"/>
   </defs>
   <g transform="translate(355.93875 16.318125)scale(0.12 -0.12)">
    <use xlink:href="#DejaVuSans-65"/>
    <use x="62.533203" xlink:href="#DejaVuSans-118"/>
    <use x="121.712891" xlink:href="#DejaVuSans-101"/>
    <use x="183.236328" xlink:href="#DejaVuSans-114"/>
    <use x="224.349609" xlink:href="#DejaVuSans-97"/>
    <use x="285.628906" xlink:href="#DejaVuSans-103"/>
    <use x="349.105469" xlink:href="#DejaVuSans-101"/>
    <use x="410.628906" xlink:href="#DejaVuSans-32"/>
    <use x="442.416016" xlink:href="#DejaVuSans-65"/>
    <use x="510.824219" xlink:href="#DejaVuSans-109"/>
    <use x="608.236328" xlink:href="#DejaVuSans-111"/>
    <use x="669.417969" xlink:href="#DejaVuSans-117"/>
    <use x="732.796875" xlink:href="#DejaVuSans-110"/>
    <use x="796.175781" xlink:href="#DejaVuSans-116"/>
    <use x="835.384766" xlink:href="#DejaVuSans-32"/>
    <use x="867.171875" xlink:href="#DejaVuSans-111"/>
    <use x="928.353516" xlink:href="#DejaVuSans-102"/>
    <use x="963.558594" xlink:href="#DejaVuSans-32"/>
    <use x="995.345703" xlink:href="#DejaVuSans-80"/>
    <use x="1051.148438" xlink:href="#DejaVuSans-97"/>
    <use x="1112.427734" xlink:href="#DejaVuSans-114"/>
    <use x="1153.541016" xlink:href="#DejaVuSans-97"/>
    <use x="1214.820312" xlink:href="#DejaVuSans-109"/>
    <use x="1312.232422" xlink:href="#DejaVuSans-101"/>
    <use x="1373.755859" xlink:href="#DejaVuSans-116"/>
    <use x="1412.964844" xlink:href="#DejaVuSans-101"/>
    <use x="1474.488281" xlink:href="#DejaVuSans-114"/>
    <use x="1515.601562" xlink:href="#DejaVuSans-115"/>
   </g>
  </g>
 </g>
 <defs>
  <clipPath id="p7d05e60b5e">
   <rect height="288" width="523.125" x="112.5" y="36"/>
  </clipPath>
 </defs>
</svg>
