<?xml version="1.0" encoding="utf-8" standalone="no"?>
<!DOCTYPE svg PUBLIC "-//W3C//DTD SVG 1.1//EN"
  "http://www.w3.org/Graphics/SVG/1.1/DTD/svg11.dtd">
<!-- Created with matplotlib (https://matplotlib.org/) -->
<svg height="360pt" version="1.1" viewBox="0 0 900 360" width="900pt" xmlns="http://www.w3.org/2000/svg" xmlns:xlink="http://www.w3.org/1999/xlink">
 <defs>
  <style type="text/css">
*{stroke-linecap:butt;stroke-linejoin:round;}
  </style>
 </defs>
 <g id="figure_1">
  <g id="patch_1">
   <path d="M 0 360 
L 900 360 
L 900 0 
L 0 0 
z
" style="fill:#ffffff;"/>
  </g>
  <g id="axes_1">
   <g id="patch_2">
    <path d="M 112.5 324 
L 635.625 324 
L 635.625 36 
L 112.5 36 
z
" style="fill:#ffffff;"/>
   </g>
   <g id="line2d_1">
    <path clip-path="url(#p6280a7173f)" d="M 112.793561 186.639243 
L 118.664773 189.800761 
L 121.600379 191.376139 
L 124.535985 195.628162 
L 127.471591 197.167375 
L 130.407197 192.104535 
L 133.342803 206.221042 
L 136.278409 205.123502 
L 139.214015 205.550214 
L 142.149621 219.794492 
L 145.085227 207.495713 
L 148.020833 209.738285 
L 150.956439 216.213911 
L 153.892045 230.411094 
L 156.827652 215.774671 
L 159.763258 209.651004 
L 162.698864 215.028717 
L 165.63447 214.374207 
L 168.570076 215.889253 
L 171.505682 230.378412 
L 174.441288 228.484543 
L 177.376894 220.63051 
L 180.3125 230.892067 
L 183.248106 226.783138 
L 186.183712 228.829252 
L 189.119318 232.919683 
L 192.054924 240.016664 
L 194.99053 235.939829 
L 197.926136 229.402347 
L 200.861742 227.176724 
L 203.797348 230.265561 
L 206.732955 220.14498 
L 209.668561 218.152131 
L 212.604167 224.766748 
L 215.539773 220.979335 
L 218.475379 227.603473 
L 221.410985 215.180876 
L 224.346591 229.444273 
L 227.282197 231.169001 
L 230.217803 219.772153 
L 233.153409 218.015806 
L 236.089015 233.809444 
L 239.024621 217.238025 
L 241.960227 219.248227 
L 244.895833 227.139509 
L 247.831439 239.367162 
L 250.767045 234.009956 
L 253.702652 221.775608 
L 256.638258 237.207283 
L 259.573864 237.571098 
L 262.50947 239.540999 
L 265.445076 242.658039 
L 268.380682 240.995825 
L 271.316288 244.554135 
L 274.251894 257.827007 
L 277.1875 226.533868 
L 280.123106 228.659003 
L 283.058712 229.822926 
L 285.994318 229.679892 
L 288.929924 232.724367 
L 291.86553 239.765558 
L 294.801136 237.739622 
L 297.736742 239.141308 
L 300.672348 237.274254 
L 303.607955 242.803611 
L 306.543561 244.56945 
L 312.414773 250.041248 
L 315.350379 248.322773 
L 318.285985 250.007906 
L 321.221591 246.871872 
L 324.157197 252.176126 
L 327.092803 251.27329 
L 330.028409 240.722187 
L 332.964015 248.641667 
L 335.899621 241.005776 
L 338.835227 242.520782 
L 341.770833 227.447936 
L 344.706439 231.605402 
L 347.642045 229.939908 
L 350.577652 228.637009 
L 353.513258 240.802517 
L 356.448864 244.186531 
L 359.38447 244.435787 
L 362.320076 249.608288 
L 365.255682 246.482274 
L 368.191288 255.162686 
L 371.126894 264.41769 
L 374.0625 258.984972 
L 376.998106 252.398462 
L 379.933712 252.121184 
L 382.869318 260.979998 
L 385.804924 250.759372 
L 388.74053 260.271493 
L 391.676136 262.752688 
L 394.611742 247.417859 
L 397.547348 249.220655 
L 400.482955 254.931516 
L 403.418561 261.868046 
L 406.354167 259.106779 
L 409.289773 257.119366 
L 412.225379 264.046005 
L 415.160985 264.44726 
L 418.096591 263.329897 
L 421.032197 260.560669 
L 423.967803 261.428427 
L 426.903409 275.237636 
L 429.839015 265.760612 
L 432.774621 264.768802 
L 435.710227 271.922535 
L 438.645833 270.189586 
L 441.581439 259.024873 
L 444.517045 263.534829 
L 447.452652 272.392961 
L 450.388258 268.666429 
L 453.323864 273.093725 
L 456.25947 278.528193 
L 459.195076 275.551396 
L 462.130682 267.393879 
L 465.066288 269.910808 
L 468.001894 275.680242 
L 470.9375 267.828789 
L 473.873106 268.572585 
L 476.808712 265.960911 
L 479.744318 280.921436 
L 482.679924 264.449997 
L 485.61553 264.012519 
L 488.551136 266.504937 
L 491.486742 257.571735 
L 494.422348 270.890208 
L 497.357955 259.450462 
L 500.293561 267.127935 
L 503.229167 253.649095 
L 506.164773 260.044448 
L 509.100379 262.833793 
L 512.035985 257.338126 
L 514.971591 264.037562 
L 517.907197 264.555528 
L 520.842803 242.191212 
L 523.778409 267.490912 
L 526.714015 268.683464 
L 529.649621 266.628468 
L 532.585227 260.551207 
L 535.520833 258.506671 
L 538.456439 267.104313 
L 541.392045 262.613455 
L 544.327652 265.603236 
L 547.263258 267.127031 
L 550.198864 259.558657 
L 553.13447 265.746313 
L 556.070076 266.689264 
L 559.005682 268.594593 
L 561.941288 254.630209 
L 564.876894 261.309059 
L 567.8125 261.358683 
L 570.748106 254.354228 
L 573.683712 261.887497 
L 576.619318 260.82652 
L 579.554924 255.179593 
L 582.49053 259.043797 
L 585.426136 268.993686 
L 588.361742 263.286215 
L 591.297348 268.87911 
L 594.232955 266.440114 
L 597.168561 263.520921 
L 600.104167 269.940997 
L 603.039773 263.364624 
L 605.975379 268.190709 
L 608.910985 257.525162 
L 611.846591 260.674557 
L 614.782197 252.108467 
L 617.717803 264.518964 
L 620.653409 254.766317 
L 623.589015 259.604136 
L 626.524621 259.640695 
L 629.460227 263.221221 
L 632.395833 256.951892 
L 635.331439 263.907673 
L 635.331439 263.907673 
" style="fill:none;stroke:#0000ff;stroke-linecap:square;stroke-width:1.2;"/>
   </g>
   <g id="line2d_2">
    <path clip-path="url(#p6280a7173f)" d="M 112.793561 177.302599 
L 115.729167 179.19531 
L 118.664773 178.417006 
L 121.600379 175.119454 
L 124.535985 172.110895 
L 127.471591 174.645895 
L 130.407197 168.520666 
L 133.342803 172.870841 
L 136.278409 166.017857 
L 139.214015 166.662348 
L 142.149621 178.346302 
L 145.085227 152.019164 
L 148.020833 156.16789 
L 150.956439 164.82853 
L 153.892045 154.742865 
L 156.827652 161.7751 
L 159.763258 158.948463 
L 162.698864 156.611639 
L 165.63447 155.636701 
L 168.570076 154.283441 
L 171.505682 160.311689 
L 174.441288 159.907393 
L 177.376894 174.153795 
L 180.3125 159.925433 
L 183.248106 171.258394 
L 186.183712 184.762515 
L 189.119318 185.026981 
L 192.054924 175.739744 
L 194.99053 191.305113 
L 197.926136 182.451287 
L 200.861742 182.030972 
L 203.797348 189.556153 
L 206.732955 187.040349 
L 209.668561 168.807496 
L 212.604167 181.775125 
L 215.539773 187.356599 
L 218.475379 188.894524 
L 221.410985 187.725612 
L 224.346591 196.767111 
L 227.282197 193.65375 
L 230.217803 211.490468 
L 233.153409 218.548782 
L 236.089015 217.978182 
L 239.024621 223.720497 
L 241.960227 197.249747 
L 244.895833 198.548372 
L 247.831439 188.22186 
L 250.767045 193.100748 
L 253.702652 189.899565 
L 256.638258 183.60272 
L 259.573864 183.598746 
L 262.50947 188.513172 
L 265.445076 205.438752 
L 268.380682 201.961937 
L 271.316288 197.541516 
L 274.251894 198.565625 
L 277.1875 192.611286 
L 280.123106 204.506207 
L 283.058712 206.68536 
L 285.994318 202.173118 
L 288.929924 198.976724 
L 291.86553 212.478136 
L 294.801136 204.795924 
L 297.736742 211.295584 
L 300.672348 187.317704 
L 303.607955 204.768762 
L 306.543561 203.495173 
L 309.479167 217.588366 
L 312.414773 219.412212 
L 315.350379 216.821236 
L 318.285985 226.696217 
L 321.221591 229.257444 
L 327.092803 223.399301 
L 330.028409 222.149471 
L 332.964015 225.535723 
L 335.899621 228.44695 
L 338.835227 226.239881 
L 341.770833 210.955566 
L 344.706439 213.768719 
L 347.642045 217.208696 
L 350.577652 223.945785 
L 353.513258 214.802172 
L 356.448864 209.313072 
L 359.38447 219.671354 
L 362.320076 214.876892 
L 365.255682 207.04012 
L 368.191288 212.771464 
L 371.126894 200.148497 
L 374.0625 220.074284 
L 376.998106 228.877034 
L 379.933712 229.109916 
L 382.869318 216.374937 
L 385.804924 235.661487 
L 388.74053 230.596574 
L 391.676136 214.532204 
L 394.611742 221.236534 
L 397.547348 234.232908 
L 400.482955 232.170603 
L 403.418561 230.932202 
L 406.354167 239.594792 
L 409.289773 239.345969 
L 412.225379 215.345964 
L 415.160985 218.571536 
L 418.096591 217.13486 
L 421.032197 216.282658 
L 423.967803 212.80381 
L 426.903409 184.394152 
L 429.839015 222.288138 
L 432.774621 207.489651 
L 435.710227 206.356245 
L 438.645833 222.30736 
L 441.581439 220.067667 
L 444.517045 220.818102 
L 447.452652 216.541808 
L 450.388258 218.007813 
L 453.323864 217.972598 
L 456.25947 213.416065 
L 459.195076 220.434265 
L 462.130682 233.426799 
L 465.066288 238.000337 
L 468.001894 241.529854 
L 470.9375 209.350106 
L 473.873106 219.270284 
L 476.808712 226.972534 
L 479.744318 227.637229 
L 482.679924 233.68395 
L 485.61553 226.280608 
L 488.551136 229.98639 
L 491.486742 231.548679 
L 494.422348 238.907457 
L 497.357955 230.229139 
L 500.293561 234.003442 
L 500.293561 234.003442 
" style="fill:none;stroke:#008000;stroke-linecap:square;stroke-width:1.2;"/>
   </g>
   <g id="line2d_3">
    <path clip-path="url(#p6280a7173f)" d="M 112.793561 79.731253 
L 115.729167 77.029908 
L 118.664773 71.487174 
L 121.600379 82.378559 
L 124.535985 87.017589 
L 127.471591 92.744796 
L 130.407197 89.418053 
L 133.342803 102.473881 
L 136.278409 102.584004 
L 139.214015 110.687449 
L 142.149621 91.817335 
L 145.085227 118.443132 
L 148.020833 100.029498 
L 150.956439 109.406776 
L 153.892045 101.57429 
L 156.827652 98.438049 
L 159.763258 96.745844 
L 162.698864 114.971092 
L 165.63447 108.264661 
L 168.570076 119.246433 
L 171.505682 115.655358 
L 174.441288 117.978144 
L 177.376894 104.294868 
L 180.3125 104.806521 
L 183.248106 97.794573 
L 186.183712 114.852733 
L 189.119318 117.686348 
L 192.054924 125.819876 
L 194.99053 124.681817 
L 197.926136 115.335567 
L 200.861742 115.617031 
L 203.797348 119.375877 
L 206.732955 126.7442 
L 209.668561 93.615359 
L 212.604167 101.471383 
L 215.539773 112.367998 
L 218.475379 116.346648 
L 221.410985 124.328014 
L 224.346591 123.551974 
L 227.282197 113.576945 
L 230.217803 124.250685 
L 233.153409 122.502152 
L 236.089015 134.998998 
L 239.024621 129.314814 
L 241.960227 118.671385 
L 244.895833 120.416635 
L 247.831439 125.537388 
L 250.767045 120.860442 
L 253.702652 131.036102 
L 256.638258 129.822662 
L 259.573864 150.30782 
L 262.50947 149.695194 
L 265.445076 135.649413 
L 268.380682 145.912819 
L 271.316288 129.460513 
L 274.251894 132.231942 
L 277.1875 149.091653 
L 280.123106 147.872405 
L 283.058712 142.958572 
L 285.994318 141.233474 
L 288.929924 155.218709 
L 291.86553 151.0895 
L 294.801136 137.402621 
L 297.736742 137.197073 
L 300.672348 132.569473 
L 303.607955 143.687613 
L 306.543561 133.45342 
L 309.479167 154.175797 
L 312.414773 152.518404 
L 315.350379 156.181499 
L 318.285985 162.310887 
L 321.221591 155.066146 
L 324.157197 168.518145 
L 327.092803 178.262556 
L 330.028409 173.222527 
L 332.964015 185.151757 
L 335.899621 179.166107 
L 338.835227 180.107295 
L 341.770833 196.407858 
L 347.642045 186.852214 
L 350.577652 166.692844 
L 353.513258 151.92933 
L 356.448864 165.341631 
L 359.38447 172.023909 
L 362.320076 174.235496 
L 365.255682 173.051251 
L 368.191288 175.194458 
L 371.126894 169.938094 
L 374.0625 165.070608 
L 376.998106 175.37628 
L 379.933712 177.1707 
L 382.869318 181.596814 
L 385.804924 175.39602 
L 388.74053 167.516993 
L 391.676136 181.326444 
L 394.611742 184.719701 
L 397.547348 185.207256 
L 400.482955 182.138745 
L 403.418561 191.623944 
L 406.354167 189.220609 
L 409.289773 182.128658 
L 412.225379 181.624291 
L 415.160985 150.562667 
L 418.096591 163.213117 
L 421.032197 165.609956 
L 423.967803 172.732974 
L 426.903409 179.443653 
L 429.839015 163.048839 
L 432.774621 175.883786 
L 435.710227 175.32452 
L 438.645833 174.630485 
L 441.581439 180.565586 
L 444.517045 181.0908 
L 447.452652 191.860322 
L 450.388258 190.563731 
L 453.323864 177.173056 
L 456.25947 196.015831 
L 459.195076 190.431914 
L 462.130682 196.801343 
L 465.066288 199.997081 
L 468.001894 192.265004 
L 470.9375 194.3 
L 473.873106 191.585466 
L 476.808712 190.074588 
L 479.744318 186.565714 
L 482.679924 197.232986 
L 485.61553 190.694522 
L 488.551136 199.902741 
L 491.486742 200.732266 
L 494.422348 211.572957 
L 497.357955 201.158884 
L 500.293561 206.525956 
L 503.229167 214.015384 
L 506.164773 209.214929 
L 509.100379 209.95647 
L 512.035985 211.439329 
L 514.971591 200.69856 
L 517.907197 204.033909 
L 520.842803 216.531765 
L 523.778409 217.917596 
L 526.714015 217.853807 
L 529.649621 212.824246 
L 529.649621 212.824246 
" style="fill:none;stroke:#ff0000;stroke-linecap:square;stroke-width:1.2;"/>
   </g>
   <g id="line2d_4">
    <path clip-path="url(#p6280a7173f)" d="M 112.793561 166.430487 
L 115.729167 175.308304 
L 118.664773 188.335591 
L 121.600379 171.294227 
L 124.535985 173.514899 
L 127.471591 182.989222 
L 130.407197 169.503119 
L 133.342803 174.948301 
L 136.278409 180.990435 
L 139.214015 164.284901 
L 142.149621 144.052774 
L 145.085227 166.637141 
L 148.020833 162.932925 
L 150.956439 147.5298 
L 153.892045 173.285527 
L 156.827652 177.434643 
L 159.763258 168.832213 
L 162.698864 162.975961 
L 165.63447 171.128813 
L 168.570076 174.327182 
L 171.505682 158.334717 
L 174.441288 169.577208 
L 177.376894 156.66103 
L 180.3125 168.729536 
L 183.248106 162.573178 
L 186.183712 171.098463 
L 189.119318 171.616476 
L 192.054924 176.678354 
L 194.99053 174.477381 
L 197.926136 178.514302 
L 200.861742 178.70194 
L 203.797348 194.900671 
L 206.732955 185.475181 
L 209.668561 163.735457 
L 212.604167 189.647175 
L 215.539773 203.067127 
L 218.475379 196.507811 
L 221.410985 203.64902 
L 224.346591 195.044159 
L 227.282197 202.26911 
L 230.217803 180.372957 
L 233.153409 211.235905 
L 236.089015 197.890322 
L 239.024621 174.592524 
L 241.960227 202.696842 
L 244.895833 181.80981 
L 247.831439 203.889656 
L 250.767045 198.380424 
L 253.702652 204.368549 
L 256.638258 199.692279 
L 259.573864 186.150022 
L 262.50947 202.213981 
L 265.445076 190.158992 
L 268.380682 176.909367 
L 271.316288 183.962622 
L 274.251894 182.663274 
L 277.1875 171.567173 
L 280.123106 197.565173 
L 283.058712 190.947242 
L 285.994318 186.693767 
L 288.929924 200.790392 
L 291.86553 184.979548 
L 294.801136 189.970606 
L 297.736742 194.65359 
L 300.672348 187.66658 
L 303.607955 207.425499 
L 306.543561 214.73394 
L 309.479167 195.913492 
L 312.414773 204.552211 
L 315.350379 208.377646 
L 318.285985 199.613027 
L 321.221591 199.549333 
L 324.157197 219.889916 
L 327.092803 202.478315 
L 330.028409 204.002157 
L 332.964015 212.291964 
L 335.899621 188.252604 
L 338.835227 190.450777 
L 341.770833 204.936134 
L 344.706439 204.736898 
L 347.642045 187.145147 
L 350.577652 206.345696 
L 353.513258 206.282245 
L 356.448864 205.373004 
L 359.38447 196.811822 
L 362.320076 200.334485 
L 365.255682 201.397179 
L 368.191288 206.661337 
L 371.126894 227.600345 
L 374.0625 215.853556 
L 376.998106 222.153598 
L 379.933712 221.419235 
L 382.869318 222.04898 
L 385.804924 228.490215 
L 388.74053 237.872088 
L 391.676136 242.093934 
L 394.611742 235.289913 
L 397.547348 220.42815 
L 400.482955 245.601451 
L 403.418561 224.865402 
L 406.354167 223.969131 
L 409.289773 226.924406 
L 412.225379 226.270049 
L 415.160985 222.915775 
L 418.096591 215.988181 
L 421.032197 221.41254 
L 423.967803 216.032724 
L 426.903409 236.073232 
L 429.839015 209.726622 
L 432.774621 222.069265 
L 435.710227 233.277004 
L 438.645833 212.831978 
L 441.581439 214.536813 
L 444.517045 236.030504 
L 447.452652 200.801591 
L 450.388258 213.25011 
L 453.323864 219.696128 
L 456.25947 223.307466 
L 459.195076 222.250533 
L 462.130682 223.139932 
L 465.066288 225.460376 
L 468.001894 223.254531 
L 470.9375 246.791155 
L 473.873106 237.172716 
L 476.808712 245.899111 
L 479.744318 236.334841 
L 482.679924 236.827757 
L 485.61553 244.417364 
L 488.551136 256.428738 
L 491.486742 233.266836 
L 494.422348 234.606495 
L 497.357955 228.529483 
L 500.293561 242.493867 
L 503.229167 241.205163 
L 506.164773 249.059204 
L 509.100379 249.184965 
L 512.035985 251.556836 
L 514.971591 250.453665 
L 517.907197 246.892585 
L 520.842803 254.132284 
L 523.778409 223.594122 
L 526.714015 200.567932 
L 529.649621 224.383014 
L 532.585227 239.535145 
L 535.520833 246.413471 
L 538.456439 247.838993 
L 541.392045 223.840677 
L 544.327652 167.180483 
L 547.263258 233.110226 
L 550.198864 246.278633 
L 553.13447 194.191496 
L 556.070076 224.097868 
L 559.005682 249.004035 
L 561.941288 245.546364 
L 561.941288 245.546364 
" style="fill:none;stroke:#00bfbf;stroke-linecap:square;stroke-width:1.2;"/>
   </g>
   <g id="patch_3">
    <path d="M 112.5 324 
L 112.5 36 
" style="fill:none;stroke:#000000;stroke-linecap:square;stroke-linejoin:miter;"/>
   </g>
   <g id="patch_4">
    <path d="M 635.625 324 
L 635.625 36 
" style="fill:none;stroke:#000000;stroke-linecap:square;stroke-linejoin:miter;"/>
   </g>
   <g id="patch_5">
    <path d="M 112.5 324 
L 635.625 324 
" style="fill:none;stroke:#000000;stroke-linecap:square;stroke-linejoin:miter;"/>
   </g>
   <g id="patch_6">
    <path d="M 112.5 36 
L 635.625 36 
" style="fill:none;stroke:#000000;stroke-linecap:square;stroke-linejoin:miter;"/>
   </g>
   <g id="matplotlib.axis_1">
    <g id="xtick_1">
     <g id="line2d_5">
      <defs>
       <path d="M 0 0 
L 0 -4 
" id="m1054039a0f" style="stroke:#000000;stroke-width:0.5;"/>
      </defs>
      <g>
       <use style="stroke:#000000;stroke-width:0.5;" x="112.793561" xlink:href="#m1054039a0f" y="324"/>
      </g>
     </g>
     <g id="line2d_6">
      <defs>
       <path d="M 0 0 
L 0 4 
" id="m6f61057247" style="stroke:#000000;stroke-width:0.5;"/>
      </defs>
      <g>
       <use style="stroke:#000000;stroke-width:0.5;" x="112.793561" xlink:href="#m6f61057247" y="36"/>
      </g>
     </g>
     <g id="text_1">
      <!-- 0 -->
      <defs>
       <path d="M 31.78125 66.40625 
Q 24.171875 66.40625 20.328125 58.90625 
Q 16.5 51.421875 16.5 36.375 
Q 16.5 21.390625 20.328125 13.890625 
Q 24.171875 6.390625 31.78125 6.390625 
Q 39.453125 6.390625 43.28125 13.890625 
Q 47.125 21.390625 47.125 36.375 
Q 47.125 51.421875 43.28125 58.90625 
Q 39.453125 66.40625 31.78125 66.40625 
z
M 31.78125 74.21875 
Q 44.046875 74.21875 50.515625 64.515625 
Q 56.984375 54.828125 56.984375 36.375 
Q 56.984375 17.96875 50.515625 8.265625 
Q 44.046875 -1.421875 31.78125 -1.421875 
Q 19.53125 -1.421875 13.0625 8.265625 
Q 6.59375 17.96875 6.59375 36.375 
Q 6.59375 54.828125 13.0625 64.515625 
Q 19.53125 74.21875 31.78125 74.21875 
z
" id="DejaVuSans-48"/>
      </defs>
      <g transform="translate(108.976061 337.118125)scale(0.12 -0.12)">
       <use xlink:href="#DejaVuSans-48"/>
      </g>
     </g>
    </g>
    <g id="xtick_2">
     <g id="line2d_7">
      <g>
       <use style="stroke:#000000;stroke-width:0.5;" x="165.63447" xlink:href="#m1054039a0f" y="324"/>
      </g>
     </g>
     <g id="line2d_8">
      <g>
       <use style="stroke:#000000;stroke-width:0.5;" x="165.63447" xlink:href="#m6f61057247" y="36"/>
      </g>
     </g>
     <g id="text_2">
      <!-- 18 -->
      <defs>
       <path d="M 12.40625 8.296875 
L 28.515625 8.296875 
L 28.515625 63.921875 
L 10.984375 60.40625 
L 10.984375 69.390625 
L 28.421875 72.90625 
L 38.28125 72.90625 
L 38.28125 8.296875 
L 54.390625 8.296875 
L 54.390625 0 
L 12.40625 0 
z
" id="DejaVuSans-49"/>
       <path d="M 31.78125 34.625 
Q 24.75 34.625 20.71875 30.859375 
Q 16.703125 27.09375 16.703125 20.515625 
Q 16.703125 13.921875 20.71875 10.15625 
Q 24.75 6.390625 31.78125 6.390625 
Q 38.8125 6.390625 42.859375 10.171875 
Q 46.921875 13.96875 46.921875 20.515625 
Q 46.921875 27.09375 42.890625 30.859375 
Q 38.875 34.625 31.78125 34.625 
z
M 21.921875 38.8125 
Q 15.578125 40.375 12.03125 44.71875 
Q 8.5 49.078125 8.5 55.328125 
Q 8.5 64.0625 14.71875 69.140625 
Q 20.953125 74.21875 31.78125 74.21875 
Q 42.671875 74.21875 48.875 69.140625 
Q 55.078125 64.0625 55.078125 55.328125 
Q 55.078125 49.078125 51.53125 44.71875 
Q 48 40.375 41.703125 38.8125 
Q 48.828125 37.15625 52.796875 32.3125 
Q 56.78125 27.484375 56.78125 20.515625 
Q 56.78125 9.90625 50.3125 4.234375 
Q 43.84375 -1.421875 31.78125 -1.421875 
Q 19.734375 -1.421875 13.25 4.234375 
Q 6.78125 9.90625 6.78125 20.515625 
Q 6.78125 27.484375 10.78125 32.3125 
Q 14.796875 37.15625 21.921875 38.8125 
z
M 18.3125 54.390625 
Q 18.3125 48.734375 21.84375 45.5625 
Q 25.390625 42.390625 31.78125 42.390625 
Q 38.140625 42.390625 41.71875 45.5625 
Q 45.3125 48.734375 45.3125 54.390625 
Q 45.3125 60.0625 41.71875 63.234375 
Q 38.140625 66.40625 31.78125 66.40625 
Q 25.390625 66.40625 21.84375 63.234375 
Q 18.3125 60.0625 18.3125 54.390625 
z
" id="DejaVuSans-56"/>
      </defs>
      <g transform="translate(157.99947 337.118125)scale(0.12 -0.12)">
       <use xlink:href="#DejaVuSans-49"/>
       <use x="63.623047" xlink:href="#DejaVuSans-56"/>
      </g>
     </g>
    </g>
    <g id="xtick_3">
     <g id="line2d_9">
      <g>
       <use style="stroke:#000000;stroke-width:0.5;" x="218.475379" xlink:href="#m1054039a0f" y="324"/>
      </g>
     </g>
     <g id="line2d_10">
      <g>
       <use style="stroke:#000000;stroke-width:0.5;" x="218.475379" xlink:href="#m6f61057247" y="36"/>
      </g>
     </g>
     <g id="text_3">
      <!-- 36 -->
      <defs>
       <path d="M 40.578125 39.3125 
Q 47.65625 37.796875 51.625 33 
Q 55.609375 28.21875 55.609375 21.1875 
Q 55.609375 10.40625 48.1875 4.484375 
Q 40.765625 -1.421875 27.09375 -1.421875 
Q 22.515625 -1.421875 17.65625 -0.515625 
Q 12.796875 0.390625 7.625 2.203125 
L 7.625 11.71875 
Q 11.71875 9.328125 16.59375 8.109375 
Q 21.484375 6.890625 26.8125 6.890625 
Q 36.078125 6.890625 40.9375 10.546875 
Q 45.796875 14.203125 45.796875 21.1875 
Q 45.796875 27.640625 41.28125 31.265625 
Q 36.765625 34.90625 28.71875 34.90625 
L 20.21875 34.90625 
L 20.21875 43.015625 
L 29.109375 43.015625 
Q 36.375 43.015625 40.234375 45.921875 
Q 44.09375 48.828125 44.09375 54.296875 
Q 44.09375 59.90625 40.109375 62.90625 
Q 36.140625 65.921875 28.71875 65.921875 
Q 24.65625 65.921875 20.015625 65.03125 
Q 15.375 64.15625 9.8125 62.3125 
L 9.8125 71.09375 
Q 15.4375 72.65625 20.34375 73.4375 
Q 25.25 74.21875 29.59375 74.21875 
Q 40.828125 74.21875 47.359375 69.109375 
Q 53.90625 64.015625 53.90625 55.328125 
Q 53.90625 49.265625 50.4375 45.09375 
Q 46.96875 40.921875 40.578125 39.3125 
z
" id="DejaVuSans-51"/>
       <path d="M 33.015625 40.375 
Q 26.375 40.375 22.484375 35.828125 
Q 18.609375 31.296875 18.609375 23.390625 
Q 18.609375 15.53125 22.484375 10.953125 
Q 26.375 6.390625 33.015625 6.390625 
Q 39.65625 6.390625 43.53125 10.953125 
Q 47.40625 15.53125 47.40625 23.390625 
Q 47.40625 31.296875 43.53125 35.828125 
Q 39.65625 40.375 33.015625 40.375 
z
M 52.59375 71.296875 
L 52.59375 62.3125 
Q 48.875 64.0625 45.09375 64.984375 
Q 41.3125 65.921875 37.59375 65.921875 
Q 27.828125 65.921875 22.671875 59.328125 
Q 17.53125 52.734375 16.796875 39.40625 
Q 19.671875 43.65625 24.015625 45.921875 
Q 28.375 48.1875 33.59375 48.1875 
Q 44.578125 48.1875 50.953125 41.515625 
Q 57.328125 34.859375 57.328125 23.390625 
Q 57.328125 12.15625 50.6875 5.359375 
Q 44.046875 -1.421875 33.015625 -1.421875 
Q 20.359375 -1.421875 13.671875 8.265625 
Q 6.984375 17.96875 6.984375 36.375 
Q 6.984375 53.65625 15.1875 63.9375 
Q 23.390625 74.21875 37.203125 74.21875 
Q 40.921875 74.21875 44.703125 73.484375 
Q 48.484375 72.75 52.59375 71.296875 
z
" id="DejaVuSans-54"/>
      </defs>
      <g transform="translate(210.840379 337.118125)scale(0.12 -0.12)">
       <use xlink:href="#DejaVuSans-51"/>
       <use x="63.623047" xlink:href="#DejaVuSans-54"/>
      </g>
     </g>
    </g>
    <g id="xtick_4">
     <g id="line2d_11">
      <g>
       <use style="stroke:#000000;stroke-width:0.5;" x="271.316288" xlink:href="#m1054039a0f" y="324"/>
      </g>
     </g>
     <g id="line2d_12">
      <g>
       <use style="stroke:#000000;stroke-width:0.5;" x="271.316288" xlink:href="#m6f61057247" y="36"/>
      </g>
     </g>
     <g id="text_4">
      <!-- 54 -->
      <defs>
       <path d="M 10.796875 72.90625 
L 49.515625 72.90625 
L 49.515625 64.59375 
L 19.828125 64.59375 
L 19.828125 46.734375 
Q 21.96875 47.46875 24.109375 47.828125 
Q 26.265625 48.1875 28.421875 48.1875 
Q 40.625 48.1875 47.75 41.5 
Q 54.890625 34.8125 54.890625 23.390625 
Q 54.890625 11.625 47.5625 5.09375 
Q 40.234375 -1.421875 26.90625 -1.421875 
Q 22.3125 -1.421875 17.546875 -0.640625 
Q 12.796875 0.140625 7.71875 1.703125 
L 7.71875 11.625 
Q 12.109375 9.234375 16.796875 8.0625 
Q 21.484375 6.890625 26.703125 6.890625 
Q 35.15625 6.890625 40.078125 11.328125 
Q 45.015625 15.765625 45.015625 23.390625 
Q 45.015625 31 40.078125 35.4375 
Q 35.15625 39.890625 26.703125 39.890625 
Q 22.75 39.890625 18.8125 39.015625 
Q 14.890625 38.140625 10.796875 36.28125 
z
" id="DejaVuSans-53"/>
       <path d="M 37.796875 64.3125 
L 12.890625 25.390625 
L 37.796875 25.390625 
z
M 35.203125 72.90625 
L 47.609375 72.90625 
L 47.609375 25.390625 
L 58.015625 25.390625 
L 58.015625 17.1875 
L 47.609375 17.1875 
L 47.609375 0 
L 37.796875 0 
L 37.796875 17.1875 
L 4.890625 17.1875 
L 4.890625 26.703125 
z
" id="DejaVuSans-52"/>
      </defs>
      <g transform="translate(263.681288 337.118125)scale(0.12 -0.12)">
       <use xlink:href="#DejaVuSans-53"/>
       <use x="63.623047" xlink:href="#DejaVuSans-52"/>
      </g>
     </g>
    </g>
    <g id="xtick_5">
     <g id="line2d_13">
      <g>
       <use style="stroke:#000000;stroke-width:0.5;" x="324.157197" xlink:href="#m1054039a0f" y="324"/>
      </g>
     </g>
     <g id="line2d_14">
      <g>
       <use style="stroke:#000000;stroke-width:0.5;" x="324.157197" xlink:href="#m6f61057247" y="36"/>
      </g>
     </g>
     <g id="text_5">
      <!-- 72 -->
      <defs>
       <path d="M 8.203125 72.90625 
L 55.078125 72.90625 
L 55.078125 68.703125 
L 28.609375 0 
L 18.3125 0 
L 43.21875 64.59375 
L 8.203125 64.59375 
z
" id="DejaVuSans-55"/>
       <path d="M 19.1875 8.296875 
L 53.609375 8.296875 
L 53.609375 0 
L 7.328125 0 
L 7.328125 8.296875 
Q 12.9375 14.109375 22.625 23.890625 
Q 32.328125 33.6875 34.8125 36.53125 
Q 39.546875 41.84375 41.421875 45.53125 
Q 43.3125 49.21875 43.3125 52.78125 
Q 43.3125 58.59375 39.234375 62.25 
Q 35.15625 65.921875 28.609375 65.921875 
Q 23.96875 65.921875 18.8125 64.3125 
Q 13.671875 62.703125 7.8125 59.421875 
L 7.8125 69.390625 
Q 13.765625 71.78125 18.9375 73 
Q 24.125 74.21875 28.421875 74.21875 
Q 39.75 74.21875 46.484375 68.546875 
Q 53.21875 62.890625 53.21875 53.421875 
Q 53.21875 48.921875 51.53125 44.890625 
Q 49.859375 40.875 45.40625 35.40625 
Q 44.1875 33.984375 37.640625 27.21875 
Q 31.109375 20.453125 19.1875 8.296875 
z
" id="DejaVuSans-50"/>
      </defs>
      <g transform="translate(316.522197 337.118125)scale(0.12 -0.12)">
       <use xlink:href="#DejaVuSans-55"/>
       <use x="63.623047" xlink:href="#DejaVuSans-50"/>
      </g>
     </g>
    </g>
    <g id="xtick_6">
     <g id="line2d_15">
      <g>
       <use style="stroke:#000000;stroke-width:0.5;" x="376.998106" xlink:href="#m1054039a0f" y="324"/>
      </g>
     </g>
     <g id="line2d_16">
      <g>
       <use style="stroke:#000000;stroke-width:0.5;" x="376.998106" xlink:href="#m6f61057247" y="36"/>
      </g>
     </g>
     <g id="text_6">
      <!-- 90 -->
      <defs>
       <path d="M 10.984375 1.515625 
L 10.984375 10.5 
Q 14.703125 8.734375 18.5 7.8125 
Q 22.3125 6.890625 25.984375 6.890625 
Q 35.75 6.890625 40.890625 13.453125 
Q 46.046875 20.015625 46.78125 33.40625 
Q 43.953125 29.203125 39.59375 26.953125 
Q 35.25 24.703125 29.984375 24.703125 
Q 19.046875 24.703125 12.671875 31.3125 
Q 6.296875 37.9375 6.296875 49.421875 
Q 6.296875 60.640625 12.9375 67.421875 
Q 19.578125 74.21875 30.609375 74.21875 
Q 43.265625 74.21875 49.921875 64.515625 
Q 56.59375 54.828125 56.59375 36.375 
Q 56.59375 19.140625 48.40625 8.859375 
Q 40.234375 -1.421875 26.421875 -1.421875 
Q 22.703125 -1.421875 18.890625 -0.6875 
Q 15.09375 0.046875 10.984375 1.515625 
z
M 30.609375 32.421875 
Q 37.25 32.421875 41.125 36.953125 
Q 45.015625 41.5 45.015625 49.421875 
Q 45.015625 57.28125 41.125 61.84375 
Q 37.25 66.40625 30.609375 66.40625 
Q 23.96875 66.40625 20.09375 61.84375 
Q 16.21875 57.28125 16.21875 49.421875 
Q 16.21875 41.5 20.09375 36.953125 
Q 23.96875 32.421875 30.609375 32.421875 
z
" id="DejaVuSans-57"/>
      </defs>
      <g transform="translate(369.363106 337.118125)scale(0.12 -0.12)">
       <use xlink:href="#DejaVuSans-57"/>
       <use x="63.623047" xlink:href="#DejaVuSans-48"/>
      </g>
     </g>
    </g>
    <g id="xtick_7">
     <g id="line2d_17">
      <g>
       <use style="stroke:#000000;stroke-width:0.5;" x="429.839015" xlink:href="#m1054039a0f" y="324"/>
      </g>
     </g>
     <g id="line2d_18">
      <g>
       <use style="stroke:#000000;stroke-width:0.5;" x="429.839015" xlink:href="#m6f61057247" y="36"/>
      </g>
     </g>
     <g id="text_7">
      <!-- 108 -->
      <g transform="translate(418.386515 337.118125)scale(0.12 -0.12)">
       <use xlink:href="#DejaVuSans-49"/>
       <use x="63.623047" xlink:href="#DejaVuSans-48"/>
       <use x="127.246094" xlink:href="#DejaVuSans-56"/>
      </g>
     </g>
    </g>
    <g id="xtick_8">
     <g id="line2d_19">
      <g>
       <use style="stroke:#000000;stroke-width:0.5;" x="482.679924" xlink:href="#m1054039a0f" y="324"/>
      </g>
     </g>
     <g id="line2d_20">
      <g>
       <use style="stroke:#000000;stroke-width:0.5;" x="482.679924" xlink:href="#m6f61057247" y="36"/>
      </g>
     </g>
     <g id="text_8">
      <!-- 126 -->
      <g transform="translate(471.227424 337.118125)scale(0.12 -0.12)">
       <use xlink:href="#DejaVuSans-49"/>
       <use x="63.623047" xlink:href="#DejaVuSans-50"/>
       <use x="127.246094" xlink:href="#DejaVuSans-54"/>
      </g>
     </g>
    </g>
    <g id="xtick_9">
     <g id="line2d_21">
      <g>
       <use style="stroke:#000000;stroke-width:0.5;" x="535.520833" xlink:href="#m1054039a0f" y="324"/>
      </g>
     </g>
     <g id="line2d_22">
      <g>
       <use style="stroke:#000000;stroke-width:0.5;" x="535.520833" xlink:href="#m6f61057247" y="36"/>
      </g>
     </g>
     <g id="text_9">
      <!-- 144 -->
      <g transform="translate(524.068333 337.118125)scale(0.12 -0.12)">
       <use xlink:href="#DejaVuSans-49"/>
       <use x="63.623047" xlink:href="#DejaVuSans-52"/>
       <use x="127.246094" xlink:href="#DejaVuSans-52"/>
      </g>
     </g>
    </g>
    <g id="xtick_10">
     <g id="line2d_23">
      <g>
       <use style="stroke:#000000;stroke-width:0.5;" x="588.361742" xlink:href="#m1054039a0f" y="324"/>
      </g>
     </g>
     <g id="line2d_24">
      <g>
       <use style="stroke:#000000;stroke-width:0.5;" x="588.361742" xlink:href="#m6f61057247" y="36"/>
      </g>
     </g>
     <g id="text_10">
      <!-- 162 -->
      <g transform="translate(576.909242 337.118125)scale(0.12 -0.12)">
       <use xlink:href="#DejaVuSans-49"/>
       <use x="63.623047" xlink:href="#DejaVuSans-54"/>
       <use x="127.246094" xlink:href="#DejaVuSans-50"/>
      </g>
     </g>
    </g>
    <g id="text_11">
     <!-- generation -->
     <defs>
      <path d="M 45.40625 27.984375 
Q 45.40625 37.75 41.375 43.109375 
Q 37.359375 48.484375 30.078125 48.484375 
Q 22.859375 48.484375 18.828125 43.109375 
Q 14.796875 37.75 14.796875 27.984375 
Q 14.796875 18.265625 18.828125 12.890625 
Q 22.859375 7.515625 30.078125 7.515625 
Q 37.359375 7.515625 41.375 12.890625 
Q 45.40625 18.265625 45.40625 27.984375 
z
M 54.390625 6.78125 
Q 54.390625 -7.171875 48.1875 -13.984375 
Q 42 -20.796875 29.203125 -20.796875 
Q 24.46875 -20.796875 20.265625 -20.09375 
Q 16.0625 -19.390625 12.109375 -17.921875 
L 12.109375 -9.1875 
Q 16.0625 -11.328125 19.921875 -12.34375 
Q 23.78125 -13.375 27.78125 -13.375 
Q 36.625 -13.375 41.015625 -8.765625 
Q 45.40625 -4.15625 45.40625 5.171875 
L 45.40625 9.625 
Q 42.625 4.78125 38.28125 2.390625 
Q 33.9375 0 27.875 0 
Q 17.828125 0 11.671875 7.65625 
Q 5.515625 15.328125 5.515625 27.984375 
Q 5.515625 40.671875 11.671875 48.328125 
Q 17.828125 56 27.875 56 
Q 33.9375 56 38.28125 53.609375 
Q 42.625 51.21875 45.40625 46.390625 
L 45.40625 54.6875 
L 54.390625 54.6875 
z
" id="DejaVuSans-103"/>
      <path d="M 56.203125 29.59375 
L 56.203125 25.203125 
L 14.890625 25.203125 
Q 15.484375 15.921875 20.484375 11.0625 
Q 25.484375 6.203125 34.421875 6.203125 
Q 39.59375 6.203125 44.453125 7.46875 
Q 49.3125 8.734375 54.109375 11.28125 
L 54.109375 2.78125 
Q 49.265625 0.734375 44.1875 -0.34375 
Q 39.109375 -1.421875 33.890625 -1.421875 
Q 20.796875 -1.421875 13.15625 6.1875 
Q 5.515625 13.8125 5.515625 26.8125 
Q 5.515625 40.234375 12.765625 48.109375 
Q 20.015625 56 32.328125 56 
Q 43.359375 56 49.78125 48.890625 
Q 56.203125 41.796875 56.203125 29.59375 
z
M 47.21875 32.234375 
Q 47.125 39.59375 43.09375 43.984375 
Q 39.0625 48.390625 32.421875 48.390625 
Q 24.90625 48.390625 20.390625 44.140625 
Q 15.875 39.890625 15.1875 32.171875 
z
" id="DejaVuSans-101"/>
      <path d="M 54.890625 33.015625 
L 54.890625 0 
L 45.90625 0 
L 45.90625 32.71875 
Q 45.90625 40.484375 42.875 44.328125 
Q 39.84375 48.1875 33.796875 48.1875 
Q 26.515625 48.1875 22.3125 43.546875 
Q 18.109375 38.921875 18.109375 30.90625 
L 18.109375 0 
L 9.078125 0 
L 9.078125 54.6875 
L 18.109375 54.6875 
L 18.109375 46.1875 
Q 21.34375 51.125 25.703125 53.5625 
Q 30.078125 56 35.796875 56 
Q 45.21875 56 50.046875 50.171875 
Q 54.890625 44.34375 54.890625 33.015625 
z
" id="DejaVuSans-110"/>
      <path d="M 41.109375 46.296875 
Q 39.59375 47.171875 37.8125 47.578125 
Q 36.03125 48 33.890625 48 
Q 26.265625 48 22.1875 43.046875 
Q 18.109375 38.09375 18.109375 28.8125 
L 18.109375 0 
L 9.078125 0 
L 9.078125 54.6875 
L 18.109375 54.6875 
L 18.109375 46.1875 
Q 20.953125 51.171875 25.484375 53.578125 
Q 30.03125 56 36.53125 56 
Q 37.453125 56 38.578125 55.875 
Q 39.703125 55.765625 41.0625 55.515625 
z
" id="DejaVuSans-114"/>
      <path d="M 34.28125 27.484375 
Q 23.390625 27.484375 19.1875 25 
Q 14.984375 22.515625 14.984375 16.5 
Q 14.984375 11.71875 18.140625 8.90625 
Q 21.296875 6.109375 26.703125 6.109375 
Q 34.1875 6.109375 38.703125 11.40625 
Q 43.21875 16.703125 43.21875 25.484375 
L 43.21875 27.484375 
z
M 52.203125 31.203125 
L 52.203125 0 
L 43.21875 0 
L 43.21875 8.296875 
Q 40.140625 3.328125 35.546875 0.953125 
Q 30.953125 -1.421875 24.3125 -1.421875 
Q 15.921875 -1.421875 10.953125 3.296875 
Q 6 8.015625 6 15.921875 
Q 6 25.140625 12.171875 29.828125 
Q 18.359375 34.515625 30.609375 34.515625 
L 43.21875 34.515625 
L 43.21875 35.40625 
Q 43.21875 41.609375 39.140625 45 
Q 35.0625 48.390625 27.6875 48.390625 
Q 23 48.390625 18.546875 47.265625 
Q 14.109375 46.140625 10.015625 43.890625 
L 10.015625 52.203125 
Q 14.9375 54.109375 19.578125 55.046875 
Q 24.21875 56 28.609375 56 
Q 40.484375 56 46.34375 49.84375 
Q 52.203125 43.703125 52.203125 31.203125 
z
" id="DejaVuSans-97"/>
      <path d="M 18.3125 70.21875 
L 18.3125 54.6875 
L 36.8125 54.6875 
L 36.8125 47.703125 
L 18.3125 47.703125 
L 18.3125 18.015625 
Q 18.3125 11.328125 20.140625 9.421875 
Q 21.96875 7.515625 27.59375 7.515625 
L 36.8125 7.515625 
L 36.8125 0 
L 27.59375 0 
Q 17.1875 0 13.234375 3.875 
Q 9.28125 7.765625 9.28125 18.015625 
L 9.28125 47.703125 
L 2.6875 47.703125 
L 2.6875 54.6875 
L 9.28125 54.6875 
L 9.28125 70.21875 
z
" id="DejaVuSans-116"/>
      <path d="M 9.421875 54.6875 
L 18.40625 54.6875 
L 18.40625 0 
L 9.421875 0 
z
M 9.421875 75.984375 
L 18.40625 75.984375 
L 18.40625 64.59375 
L 9.421875 64.59375 
z
" id="DejaVuSans-105"/>
      <path d="M 30.609375 48.390625 
Q 23.390625 48.390625 19.1875 42.75 
Q 14.984375 37.109375 14.984375 27.296875 
Q 14.984375 17.484375 19.15625 11.84375 
Q 23.34375 6.203125 30.609375 6.203125 
Q 37.796875 6.203125 41.984375 11.859375 
Q 46.1875 17.53125 46.1875 27.296875 
Q 46.1875 37.015625 41.984375 42.703125 
Q 37.796875 48.390625 30.609375 48.390625 
z
M 30.609375 56 
Q 42.328125 56 49.015625 48.375 
Q 55.71875 40.765625 55.71875 27.296875 
Q 55.71875 13.875 49.015625 6.21875 
Q 42.328125 -1.421875 30.609375 -1.421875 
Q 18.84375 -1.421875 12.171875 6.21875 
Q 5.515625 13.875 5.515625 27.296875 
Q 5.515625 40.765625 12.171875 48.375 
Q 18.84375 56 30.609375 56 
z
" id="DejaVuSans-111"/>
     </defs>
     <g transform="translate(341.430938 353.731875)scale(0.12 -0.12)">
      <use xlink:href="#DejaVuSans-103"/>
      <use x="63.476562" xlink:href="#DejaVuSans-101"/>
      <use x="125" xlink:href="#DejaVuSans-110"/>
      <use x="188.378906" xlink:href="#DejaVuSans-101"/>
      <use x="249.902344" xlink:href="#DejaVuSans-114"/>
      <use x="291.015625" xlink:href="#DejaVuSans-97"/>
      <use x="352.294922" xlink:href="#DejaVuSans-116"/>
      <use x="391.503906" xlink:href="#DejaVuSans-105"/>
      <use x="419.287109" xlink:href="#DejaVuSans-111"/>
      <use x="480.46875" xlink:href="#DejaVuSans-110"/>
     </g>
    </g>
   </g>
   <g id="matplotlib.axis_2">
    <g id="ytick_1">
     <g id="line2d_25">
      <defs>
       <path d="M 0 0 
L 4 0 
" id="mdd4b0a1ab2" style="stroke:#000000;stroke-width:0.5;"/>
      </defs>
      <g>
       <use style="stroke:#000000;stroke-width:0.5;" x="112.5" xlink:href="#mdd4b0a1ab2" y="324"/>
      </g>
     </g>
     <g id="line2d_26">
      <defs>
       <path d="M 0 0 
L -4 0 
" id="m7ac6b65dde" style="stroke:#000000;stroke-width:0.5;"/>
      </defs>
      <g>
       <use style="stroke:#000000;stroke-width:0.5;" x="635.625" xlink:href="#m7ac6b65dde" y="324"/>
      </g>
     </g>
     <g id="text_12">
      <!-- 0.15 -->
      <defs>
       <path d="M 10.6875 12.40625 
L 21 12.40625 
L 21 0 
L 10.6875 0 
z
" id="DejaVuSans-46"/>
      </defs>
      <g transform="translate(81.78125 327.31125)scale(0.12 -0.12)">
       <use xlink:href="#DejaVuSans-48"/>
       <use x="63.623047" xlink:href="#DejaVuSans-46"/>
       <use x="95.410156" xlink:href="#DejaVuSans-49"/>
       <use x="159.033203" xlink:href="#DejaVuSans-53"/>
      </g>
     </g>
    </g>
    <g id="ytick_2">
     <g id="line2d_27">
      <g>
       <use style="stroke:#000000;stroke-width:0.5;" x="112.5" xlink:href="#mdd4b0a1ab2" y="276"/>
      </g>
     </g>
     <g id="line2d_28">
      <g>
       <use style="stroke:#000000;stroke-width:0.5;" x="635.625" xlink:href="#m7ac6b65dde" y="276"/>
      </g>
     </g>
     <g id="text_13">
      <!-- 0.20 -->
      <g transform="translate(81.78125 279.31125)scale(0.12 -0.12)">
       <use xlink:href="#DejaVuSans-48"/>
       <use x="63.623047" xlink:href="#DejaVuSans-46"/>
       <use x="95.410156" xlink:href="#DejaVuSans-50"/>
       <use x="159.033203" xlink:href="#DejaVuSans-48"/>
      </g>
     </g>
    </g>
    <g id="ytick_3">
     <g id="line2d_29">
      <g>
       <use style="stroke:#000000;stroke-width:0.5;" x="112.5" xlink:href="#mdd4b0a1ab2" y="228"/>
      </g>
     </g>
     <g id="line2d_30">
      <g>
       <use style="stroke:#000000;stroke-width:0.5;" x="635.625" xlink:href="#m7ac6b65dde" y="228"/>
      </g>
     </g>
     <g id="text_14">
      <!-- 0.25 -->
      <g transform="translate(81.78125 231.31125)scale(0.12 -0.12)">
       <use xlink:href="#DejaVuSans-48"/>
       <use x="63.623047" xlink:href="#DejaVuSans-46"/>
       <use x="95.410156" xlink:href="#DejaVuSans-50"/>
       <use x="159.033203" xlink:href="#DejaVuSans-53"/>
      </g>
     </g>
    </g>
    <g id="ytick_4">
     <g id="line2d_31">
      <g>
       <use style="stroke:#000000;stroke-width:0.5;" x="112.5" xlink:href="#mdd4b0a1ab2" y="180"/>
      </g>
     </g>
     <g id="line2d_32">
      <g>
       <use style="stroke:#000000;stroke-width:0.5;" x="635.625" xlink:href="#m7ac6b65dde" y="180"/>
      </g>
     </g>
     <g id="text_15">
      <!-- 0.30 -->
      <g transform="translate(81.78125 183.31125)scale(0.12 -0.12)">
       <use xlink:href="#DejaVuSans-48"/>
       <use x="63.623047" xlink:href="#DejaVuSans-46"/>
       <use x="95.410156" xlink:href="#DejaVuSans-51"/>
       <use x="159.033203" xlink:href="#DejaVuSans-48"/>
      </g>
     </g>
    </g>
    <g id="ytick_5">
     <g id="line2d_33">
      <g>
       <use style="stroke:#000000;stroke-width:0.5;" x="112.5" xlink:href="#mdd4b0a1ab2" y="132"/>
      </g>
     </g>
     <g id="line2d_34">
      <g>
       <use style="stroke:#000000;stroke-width:0.5;" x="635.625" xlink:href="#m7ac6b65dde" y="132"/>
      </g>
     </g>
     <g id="text_16">
      <!-- 0.35 -->
      <g transform="translate(81.78125 135.31125)scale(0.12 -0.12)">
       <use xlink:href="#DejaVuSans-48"/>
       <use x="63.623047" xlink:href="#DejaVuSans-46"/>
       <use x="95.410156" xlink:href="#DejaVuSans-51"/>
       <use x="159.033203" xlink:href="#DejaVuSans-53"/>
      </g>
     </g>
    </g>
    <g id="ytick_6">
     <g id="line2d_35">
      <g>
       <use style="stroke:#000000;stroke-width:0.5;" x="112.5" xlink:href="#mdd4b0a1ab2" y="84"/>
      </g>
     </g>
     <g id="line2d_36">
      <g>
       <use style="stroke:#000000;stroke-width:0.5;" x="635.625" xlink:href="#m7ac6b65dde" y="84"/>
      </g>
     </g>
     <g id="text_17">
      <!-- 0.40 -->
      <g transform="translate(81.78125 87.31125)scale(0.12 -0.12)">
       <use xlink:href="#DejaVuSans-48"/>
       <use x="63.623047" xlink:href="#DejaVuSans-46"/>
       <use x="95.410156" xlink:href="#DejaVuSans-52"/>
       <use x="159.033203" xlink:href="#DejaVuSans-48"/>
      </g>
     </g>
    </g>
    <g id="ytick_7">
     <g id="line2d_37">
      <g>
       <use style="stroke:#000000;stroke-width:0.5;" x="112.5" xlink:href="#mdd4b0a1ab2" y="36"/>
      </g>
     </g>
     <g id="line2d_38">
      <g>
       <use style="stroke:#000000;stroke-width:0.5;" x="635.625" xlink:href="#m7ac6b65dde" y="36"/>
      </g>
     </g>
     <g id="text_18">
      <!-- 0.45 -->
      <g transform="translate(81.78125 39.31125)scale(0.12 -0.12)">
       <use xlink:href="#DejaVuSans-48"/>
       <use x="63.623047" xlink:href="#DejaVuSans-46"/>
       <use x="95.410156" xlink:href="#DejaVuSans-52"/>
       <use x="159.033203" xlink:href="#DejaVuSans-53"/>
      </g>
     </g>
    </g>
    <g id="text_19">
     <!-- los -->
     <defs>
      <path d="M 9.421875 75.984375 
L 18.40625 75.984375 
L 18.40625 0 
L 9.421875 0 
z
" id="DejaVuSans-108"/>
      <path d="M 44.28125 53.078125 
L 44.28125 44.578125 
Q 40.484375 46.53125 36.375 47.5 
Q 32.28125 48.484375 27.875 48.484375 
Q 21.1875 48.484375 17.84375 46.4375 
Q 14.5 44.390625 14.5 40.28125 
Q 14.5 37.15625 16.890625 35.375 
Q 19.28125 33.59375 26.515625 31.984375 
L 29.59375 31.296875 
Q 39.15625 29.25 43.1875 25.515625 
Q 47.21875 21.78125 47.21875 15.09375 
Q 47.21875 7.46875 41.1875 3.015625 
Q 35.15625 -1.421875 24.609375 -1.421875 
Q 20.21875 -1.421875 15.453125 -0.5625 
Q 10.6875 0.296875 5.421875 2 
L 5.421875 11.28125 
Q 10.40625 8.6875 15.234375 7.390625 
Q 20.0625 6.109375 24.8125 6.109375 
Q 31.15625 6.109375 34.5625 8.28125 
Q 37.984375 10.453125 37.984375 14.40625 
Q 37.984375 18.0625 35.515625 20.015625 
Q 33.0625 21.96875 24.703125 23.78125 
L 21.578125 24.515625 
Q 13.234375 26.265625 9.515625 29.90625 
Q 5.8125 33.546875 5.8125 39.890625 
Q 5.8125 47.609375 11.28125 51.796875 
Q 16.75 56 26.8125 56 
Q 31.78125 56 36.171875 55.265625 
Q 40.578125 54.546875 44.28125 53.078125 
z
" id="DejaVuSans-115"/>
     </defs>
     <g transform="translate(74.285625 188.46375)rotate(-90)scale(0.12 -0.12)">
      <use xlink:href="#DejaVuSans-108"/>
      <use x="27.783203" xlink:href="#DejaVuSans-111"/>
      <use x="88.964844" xlink:href="#DejaVuSans-115"/>
     </g>
    </g>
   </g>
   <g id="legend_1">
    <g id="patch_7">
     <path d="M 640.623 210.843908 
L 720.723759 210.843908 
L 720.723759 149.156092 
L 640.623 149.156092 
z
" style="fill:#ffffff;stroke:#000000;stroke-linejoin:miter;"/>
    </g>
    <g id="line2d_39">
     <path d="M 647.6202 157.251291 
L 661.6146 157.251291 
" style="fill:none;stroke:#0000ff;stroke-linecap:square;stroke-width:1.2;"/>
    </g>
    <g id="line2d_40"/>
    <g id="text_20">
     <!-- Adam -->
     <defs>
      <path d="M 34.1875 63.1875 
L 20.796875 26.90625 
L 47.609375 26.90625 
z
M 28.609375 72.90625 
L 39.796875 72.90625 
L 67.578125 0 
L 57.328125 0 
L 50.6875 18.703125 
L 17.828125 18.703125 
L 11.1875 0 
L 0.78125 0 
z
" id="DejaVuSans-65"/>
      <path d="M 45.40625 46.390625 
L 45.40625 75.984375 
L 54.390625 75.984375 
L 54.390625 0 
L 45.40625 0 
L 45.40625 8.203125 
Q 42.578125 3.328125 38.25 0.953125 
Q 33.9375 -1.421875 27.875 -1.421875 
Q 17.96875 -1.421875 11.734375 6.484375 
Q 5.515625 14.40625 5.515625 27.296875 
Q 5.515625 40.1875 11.734375 48.09375 
Q 17.96875 56 27.875 56 
Q 33.9375 56 38.25 53.625 
Q 42.578125 51.265625 45.40625 46.390625 
z
M 14.796875 27.296875 
Q 14.796875 17.390625 18.875 11.75 
Q 22.953125 6.109375 30.078125 6.109375 
Q 37.203125 6.109375 41.296875 11.75 
Q 45.40625 17.390625 45.40625 27.296875 
Q 45.40625 37.203125 41.296875 42.84375 
Q 37.203125 48.484375 30.078125 48.484375 
Q 22.953125 48.484375 18.875 42.84375 
Q 14.796875 37.203125 14.796875 27.296875 
z
" id="DejaVuSans-100"/>
      <path d="M 52 44.1875 
Q 55.375 50.25 60.0625 53.125 
Q 64.75 56 71.09375 56 
Q 79.640625 56 84.28125 50.015625 
Q 88.921875 44.046875 88.921875 33.015625 
L 88.921875 0 
L 79.890625 0 
L 79.890625 32.71875 
Q 79.890625 40.578125 77.09375 44.375 
Q 74.3125 48.1875 68.609375 48.1875 
Q 61.625 48.1875 57.5625 43.546875 
Q 53.515625 38.921875 53.515625 30.90625 
L 53.515625 0 
L 44.484375 0 
L 44.484375 32.71875 
Q 44.484375 40.625 41.703125 44.40625 
Q 38.921875 48.1875 33.109375 48.1875 
Q 26.21875 48.1875 22.15625 43.53125 
Q 18.109375 38.875 18.109375 30.90625 
L 18.109375 0 
L 9.078125 0 
L 9.078125 54.6875 
L 18.109375 54.6875 
L 18.109375 46.1875 
Q 21.1875 51.21875 25.484375 53.609375 
Q 29.78125 56 35.6875 56 
Q 41.65625 56 45.828125 52.96875 
Q 50 49.953125 52 44.1875 
z
" id="DejaVuSans-109"/>
     </defs>
     <g transform="translate(672.6102 160.749891)scale(0.09996 -0.09996)">
      <use xlink:href="#DejaVuSans-65"/>
      <use x="66.658203" xlink:href="#DejaVuSans-100"/>
      <use x="130.134766" xlink:href="#DejaVuSans-97"/>
      <use x="191.414062" xlink:href="#DejaVuSans-109"/>
     </g>
    </g>
    <g id="line2d_41">
     <path d="M 647.6202 171.923544 
L 661.6146 171.923544 
" style="fill:none;stroke:#008000;stroke-linecap:square;stroke-width:1.2;"/>
    </g>
    <g id="line2d_42"/>
    <g id="text_21">
     <!-- Nadam -->
     <defs>
      <path d="M 9.8125 72.90625 
L 23.09375 72.90625 
L 55.421875 11.921875 
L 55.421875 72.90625 
L 64.984375 72.90625 
L 64.984375 0 
L 51.703125 0 
L 19.390625 60.984375 
L 19.390625 0 
L 9.8125 0 
z
" id="DejaVuSans-78"/>
     </defs>
     <g transform="translate(672.6102 175.422144)scale(0.09996 -0.09996)">
      <use xlink:href="#DejaVuSans-78"/>
      <use x="74.804688" xlink:href="#DejaVuSans-97"/>
      <use x="136.083984" xlink:href="#DejaVuSans-100"/>
      <use x="199.560547" xlink:href="#DejaVuSans-97"/>
      <use x="260.839844" xlink:href="#DejaVuSans-109"/>
     </g>
    </g>
    <g id="line2d_43">
     <path d="M 647.6202 186.595798 
L 661.6146 186.595798 
" style="fill:none;stroke:#ff0000;stroke-linecap:square;stroke-width:1.2;"/>
    </g>
    <g id="line2d_44"/>
    <g id="text_22">
     <!-- Adamax -->
     <defs>
      <path d="M 54.890625 54.6875 
L 35.109375 28.078125 
L 55.90625 0 
L 45.3125 0 
L 29.390625 21.484375 
L 13.484375 0 
L 2.875 0 
L 24.125 28.609375 
L 4.6875 54.6875 
L 15.28125 54.6875 
L 29.78125 35.203125 
L 44.28125 54.6875 
z
" id="DejaVuSans-120"/>
     </defs>
     <g transform="translate(672.6102 190.094398)scale(0.09996 -0.09996)">
      <use xlink:href="#DejaVuSans-65"/>
      <use x="66.658203" xlink:href="#DejaVuSans-100"/>
      <use x="130.134766" xlink:href="#DejaVuSans-97"/>
      <use x="191.414062" xlink:href="#DejaVuSans-109"/>
      <use x="288.826172" xlink:href="#DejaVuSans-97"/>
      <use x="350.105469" xlink:href="#DejaVuSans-120"/>
     </g>
    </g>
    <g id="line2d_45">
     <path d="M 647.6202 201.268052 
L 661.6146 201.268052 
" style="fill:none;stroke:#00bfbf;stroke-linecap:square;stroke-width:1.2;"/>
    </g>
    <g id="line2d_46"/>
    <g id="text_23">
     <!-- RMSProp -->
     <defs>
      <path d="M 44.390625 34.1875 
Q 47.5625 33.109375 50.5625 29.59375 
Q 53.5625 26.078125 56.59375 19.921875 
L 66.609375 0 
L 56 0 
L 46.6875 18.703125 
Q 43.0625 26.03125 39.671875 28.421875 
Q 36.28125 30.8125 30.421875 30.8125 
L 19.671875 30.8125 
L 19.671875 0 
L 9.8125 0 
L 9.8125 72.90625 
L 32.078125 72.90625 
Q 44.578125 72.90625 50.734375 67.671875 
Q 56.890625 62.453125 56.890625 51.90625 
Q 56.890625 45.015625 53.6875 40.46875 
Q 50.484375 35.9375 44.390625 34.1875 
z
M 19.671875 64.796875 
L 19.671875 38.921875 
L 32.078125 38.921875 
Q 39.203125 38.921875 42.84375 42.21875 
Q 46.484375 45.515625 46.484375 51.90625 
Q 46.484375 58.296875 42.84375 61.546875 
Q 39.203125 64.796875 32.078125 64.796875 
z
" id="DejaVuSans-82"/>
      <path d="M 9.8125 72.90625 
L 24.515625 72.90625 
L 43.109375 23.296875 
L 61.8125 72.90625 
L 76.515625 72.90625 
L 76.515625 0 
L 66.890625 0 
L 66.890625 64.015625 
L 48.09375 14.015625 
L 38.1875 14.015625 
L 19.390625 64.015625 
L 19.390625 0 
L 9.8125 0 
z
" id="DejaVuSans-77"/>
      <path d="M 53.515625 70.515625 
L 53.515625 60.890625 
Q 47.90625 63.578125 42.921875 64.890625 
Q 37.9375 66.21875 33.296875 66.21875 
Q 25.25 66.21875 20.875 63.09375 
Q 16.5 59.96875 16.5 54.203125 
Q 16.5 49.359375 19.40625 46.890625 
Q 22.3125 44.4375 30.421875 42.921875 
L 36.375 41.703125 
Q 47.40625 39.59375 52.65625 34.296875 
Q 57.90625 29 57.90625 20.125 
Q 57.90625 9.515625 50.796875 4.046875 
Q 43.703125 -1.421875 29.984375 -1.421875 
Q 24.8125 -1.421875 18.96875 -0.25 
Q 13.140625 0.921875 6.890625 3.21875 
L 6.890625 13.375 
Q 12.890625 10.015625 18.65625 8.296875 
Q 24.421875 6.59375 29.984375 6.59375 
Q 38.421875 6.59375 43.015625 9.90625 
Q 47.609375 13.234375 47.609375 19.390625 
Q 47.609375 24.75 44.3125 27.78125 
Q 41.015625 30.8125 33.5 32.328125 
L 27.484375 33.5 
Q 16.453125 35.6875 11.515625 40.375 
Q 6.59375 45.0625 6.59375 53.421875 
Q 6.59375 63.09375 13.40625 68.65625 
Q 20.21875 74.21875 32.171875 74.21875 
Q 37.3125 74.21875 42.625 73.28125 
Q 47.953125 72.359375 53.515625 70.515625 
z
" id="DejaVuSans-83"/>
      <path d="M 19.671875 64.796875 
L 19.671875 37.40625 
L 32.078125 37.40625 
Q 38.96875 37.40625 42.71875 40.96875 
Q 46.484375 44.53125 46.484375 51.125 
Q 46.484375 57.671875 42.71875 61.234375 
Q 38.96875 64.796875 32.078125 64.796875 
z
M 9.8125 72.90625 
L 32.078125 72.90625 
Q 44.34375 72.90625 50.609375 67.359375 
Q 56.890625 61.8125 56.890625 51.125 
Q 56.890625 40.328125 50.609375 34.8125 
Q 44.34375 29.296875 32.078125 29.296875 
L 19.671875 29.296875 
L 19.671875 0 
L 9.8125 0 
z
" id="DejaVuSans-80"/>
      <path d="M 18.109375 8.203125 
L 18.109375 -20.796875 
L 9.078125 -20.796875 
L 9.078125 54.6875 
L 18.109375 54.6875 
L 18.109375 46.390625 
Q 20.953125 51.265625 25.265625 53.625 
Q 29.59375 56 35.59375 56 
Q 45.5625 56 51.78125 48.09375 
Q 58.015625 40.1875 58.015625 27.296875 
Q 58.015625 14.40625 51.78125 6.484375 
Q 45.5625 -1.421875 35.59375 -1.421875 
Q 29.59375 -1.421875 25.265625 0.953125 
Q 20.953125 3.328125 18.109375 8.203125 
z
M 48.6875 27.296875 
Q 48.6875 37.203125 44.609375 42.84375 
Q 40.53125 48.484375 33.40625 48.484375 
Q 26.265625 48.484375 22.1875 42.84375 
Q 18.109375 37.203125 18.109375 27.296875 
Q 18.109375 17.390625 22.1875 11.75 
Q 26.265625 6.109375 33.40625 6.109375 
Q 40.53125 6.109375 44.609375 11.75 
Q 48.6875 17.390625 48.6875 27.296875 
z
" id="DejaVuSans-112"/>
     </defs>
     <g transform="translate(672.6102 204.766652)scale(0.09996 -0.09996)">
      <use xlink:href="#DejaVuSans-82"/>
      <use x="69.482422" xlink:href="#DejaVuSans-77"/>
      <use x="155.761719" xlink:href="#DejaVuSans-83"/>
      <use x="219.238281" xlink:href="#DejaVuSans-80"/>
      <use x="277.791016" xlink:href="#DejaVuSans-114"/>
      <use x="316.654297" xlink:href="#DejaVuSans-111"/>
      <use x="377.835938" xlink:href="#DejaVuSans-112"/>
     </g>
    </g>
   </g>
  </g>
  <g id="text_24">
   <!-- Average Loss -->
   <defs>
    <path d="M 2.984375 54.6875 
L 12.5 54.6875 
L 29.59375 8.796875 
L 46.6875 54.6875 
L 56.203125 54.6875 
L 35.6875 0 
L 23.484375 0 
z
" id="DejaVuSans-118"/>
    <path id="DejaVuSans-32"/>
    <path d="M 9.8125 72.90625 
L 19.671875 72.90625 
L 19.671875 8.296875 
L 55.171875 8.296875 
L 55.171875 0 
L 9.8125 0 
z
" id="DejaVuSans-76"/>
   </defs>
   <g transform="translate(410.293125 16.318125)scale(0.12 -0.12)">
    <use xlink:href="#DejaVuSans-65"/>
    <use x="62.533203" xlink:href="#DejaVuSans-118"/>
    <use x="121.712891" xlink:href="#DejaVuSans-101"/>
    <use x="183.236328" xlink:href="#DejaVuSans-114"/>
    <use x="224.349609" xlink:href="#DejaVuSans-97"/>
    <use x="285.628906" xlink:href="#DejaVuSans-103"/>
    <use x="349.105469" xlink:href="#DejaVuSans-101"/>
    <use x="410.628906" xlink:href="#DejaVuSans-32"/>
    <use x="442.416016" xlink:href="#DejaVuSans-76"/>
    <use x="496.378906" xlink:href="#DejaVuSans-111"/>
    <use x="557.560547" xlink:href="#DejaVuSans-115"/>
    <use x="609.660156" xlink:href="#DejaVuSans-115"/>
   </g>
  </g>
 </g>
 <defs>
  <clipPath id="p6280a7173f">
   <rect height="288" width="523.125" x="112.5" y="36"/>
  </clipPath>
 </defs>
</svg>
