<?xml version="1.0" encoding="utf-8" standalone="no"?>
<!DOCTYPE svg PUBLIC "-//W3C//DTD SVG 1.1//EN"
  "http://www.w3.org/Graphics/SVG/1.1/DTD/svg11.dtd">
<!-- Created with matplotlib (https://matplotlib.org/) -->
<svg height="360pt" version="1.1" viewBox="0 0 900 360" width="900pt" xmlns="http://www.w3.org/2000/svg" xmlns:xlink="http://www.w3.org/1999/xlink">
 <defs>
  <style type="text/css">
*{stroke-linecap:butt;stroke-linejoin:round;}
  </style>
 </defs>
 <g id="figure_1">
  <g id="patch_1">
   <path d="M 0 360 
L 900 360 
L 900 0 
L 0 0 
z
" style="fill:#ffffff;"/>
  </g>
  <g id="axes_1">
   <g id="patch_2">
    <path d="M 112.5 324 
L 635.625 324 
L 635.625 36 
L 112.5 36 
z
" style="fill:#ffffff;"/>
   </g>
   <g id="line2d_1">
    <path clip-path="url(#pdb2d6c083c)" d="M 112.793561 315.2844 
L 115.729167 313.8852 
L 118.664773 313.758 
L 121.600379 312.2952 
L 124.535985 311.532 
L 127.471591 311.85 
L 130.407197 311.7228 
L 133.342803 309.942 
L 136.278409 310.7688 
L 139.214015 309.4332 
L 142.149621 308.2248 
L 145.085227 308.2248 
L 148.020833 308.7336 
L 150.956439 307.1436 
L 153.892045 302.31 
L 156.827652 303.0732 
L 159.763258 308.4792 
L 162.698864 305.9988 
L 165.63447 305.4264 
L 168.570076 305.7444 
L 171.505682 303.3912 
L 174.441288 304.2816 
L 177.376894 302.5644 
L 180.3125 301.1652 
L 183.248106 300.5292 
L 186.183712 300.1476 
L 189.119318 296.904 
L 192.054924 298.176 
L 194.99053 298.5576 
L 197.926136 299.5752 
L 200.861742 300.084 
L 203.797348 297.2856 
L 206.732955 296.7768 
L 209.668561 292.2612 
L 212.604167 293.0244 
L 215.539773 298.0488 
L 218.475379 289.6536 
L 221.410985 288.8904 
L 224.346591 289.1448 
L 227.282197 287.8728 
L 230.217803 290.544 
L 233.153409 294.4236 
L 236.089015 289.59 
L 239.024621 287.4912 
L 241.960227 287.1732 
L 244.895833 284.9472 
L 247.831439 282.4032 
L 250.767045 285.456 
L 253.702652 282.0852 
L 256.638258 287.1732 
L 259.573864 284.7564 
L 262.50947 285.2652 
L 265.445076 275.2164 
L 268.380682 274.326 
L 271.316288 276.8064 
L 274.251894 271.5912 
L 277.1875 294.5508 
L 280.123106 291.7524 
L 285.994318 288.4452 
L 288.929924 285.5196 
L 291.86553 285.3924 
L 294.801136 273.1176 
L 297.736742 271.2096 
L 300.672348 272.9268 
L 303.607955 269.3652 
L 306.543561 275.5344 
L 309.479167 274.7712 
L 312.414773 272.1636 
L 315.350379 275.0256 
L 318.285985 272.6724 
L 321.221591 272.418 
L 324.157197 255.9456 
L 327.092803 271.2732 
L 330.028409 280.4316 
L 332.964015 281.5128 
L 335.899621 275.8524 
L 338.835227 285.9012 
L 341.770833 287.4912 
L 344.706439 286.3464 
L 347.642045 285.7104 
L 350.577652 293.2152 
L 353.513258 288.5724 
L 356.448864 283.6116 
L 359.38447 281.8944 
L 362.320076 275.28 
L 365.255682 275.5344 
L 368.191288 264.5952 
L 371.126894 252.384 
L 374.0625 253.2744 
L 376.998106 249.204 
L 379.933712 258.0444 
L 382.869318 251.4936 
L 385.804924 246.5328 
L 388.74053 244.8792 
L 391.676136 223.446 
L 394.611742 243.7344 
L 397.547348 251.6844 
L 403.418561 246.024 
L 406.354167 244.8792 
L 409.289773 234.8304 
L 412.225379 236.166 
L 415.160985 234.7032 
L 418.096591 229.806 
L 421.032197 237.6924 
L 423.967803 214.224 
L 426.903409 213.3972 
L 429.839015 240.618 
L 432.774621 253.4016 
L 435.710227 242.208 
L 438.645833 219.6936 
L 441.581439 225.9264 
L 444.517045 227.5164 
L 447.452652 231.9048 
L 450.388258 211.4892 
L 453.323864 221.7924 
L 456.25947 218.358 
L 459.195076 216.0048 
L 462.130682 221.0928 
L 465.066288 228.7884 
L 468.001894 232.032 
L 470.9375 214.4784 
L 473.873106 168.1776 
L 476.808712 186.1128 
L 479.744318 149.0976 
L 482.679924 187.3212 
L 485.61553 157.4292 
L 488.551136 165.6972 
L 491.486742 184.8408 
L 494.422348 201.6312 
L 497.357955 175.4916 
L 500.293561 217.2768 
L 503.229167 220.8384 
L 506.164773 212.952 
L 509.100379 227.1984 
L 512.035985 203.2212 
L 514.971591 225.6084 
L 517.907197 208.818 
L 520.842803 239.2824 
L 523.778409 212.1888 
L 526.714015 189.8652 
L 529.649621 214.224 
L 532.585227 223.7004 
L 535.520833 207.864 
L 538.456439 205.956 
L 541.392045 213.4608 
L 544.327652 211.2348 
L 547.263258 189.42 
L 550.198864 207.6096 
L 553.13447 195.3348 
L 556.070076 202.458 
L 559.005682 208.0548 
L 561.941288 217.722 
L 564.876894 197.2428 
L 567.8125 195.462 
L 570.748106 208.0548 
L 573.683712 220.0752 
L 576.619318 168.4956 
L 579.554924 211.998 
L 582.49053 190.7556 
L 585.426136 158.7012 
L 588.361742 137.0136 
L 591.297348 125.184 
L 594.232955 128.5548 
L 597.168561 159.4644 
L 600.104167 122.958 
L 603.039773 171.3576 
L 605.975379 173.7108 
L 608.910985 217.0224 
L 611.846591 198.5784 
L 614.782197 147.9528 
L 617.717803 166.7148 
L 620.653409 171.0396 
L 623.589015 181.788 
L 626.524621 161.436 
L 629.460227 116.8524 
L 632.395833 74.8764 
L 635.331439 55.6056 
L 635.331439 55.6056 
" style="fill:none;stroke:#0000ff;stroke-linecap:square;stroke-width:1.2;"/>
   </g>
   <g id="line2d_2">
    <path clip-path="url(#pdb2d6c083c)" d="M 112.793561 314.712 
L 115.729167 316.1748 
L 118.664773 315.666 
L 121.600379 314.3304 
L 127.471591 314.0124 
L 130.407197 314.5212 
L 133.342803 314.712 
L 136.278409 313.8216 
L 139.214015 314.3304 
L 142.149621 313.1856 
L 145.085227 315.4752 
L 148.020833 316.302 
L 150.956439 313.6308 
L 153.892045 316.0476 
L 156.827652 316.4292 
L 159.763258 315.4752 
L 162.698864 313.3128 
L 165.63447 315.2844 
L 168.570076 314.4576 
L 171.505682 315.9204 
L 174.441288 315.7932 
L 177.376894 315.8568 
L 180.3125 313.8852 
L 183.248106 312.1044 
L 186.183712 315.8568 
L 189.119318 315.0936 
L 192.054924 315.348 
L 194.99053 316.6836 
L 197.926136 315.1572 
L 200.861742 315.5388 
L 203.797348 315.5388 
L 206.732955 315.666 
L 209.668561 314.8392 
L 212.604167 314.9664 
L 215.539773 314.2032 
L 218.475379 313.2492 
L 221.410985 316.302 
L 224.346591 316.1112 
L 227.282197 315.0936 
L 230.217803 315.984 
L 233.153409 315.03 
L 236.089015 315.2208 
L 239.024621 312.804 
L 241.960227 312.804 
L 244.895833 313.1856 
L 247.831439 311.0868 
L 250.767045 312.3588 
L 253.702652 311.7228 
L 256.638258 312.0408 
L 259.573864 308.9244 
L 262.50947 305.2992 
L 265.445076 303.7728 
L 268.380682 308.9244 
L 271.316288 307.9068 
L 274.251894 307.1436 
L 277.1875 306.0624 
L 280.123106 307.9068 
L 283.058712 308.4792 
L 285.994318 308.5428 
L 288.929924 309.4968 
L 291.86553 307.08 
L 294.801136 305.1084 
L 297.736742 305.9352 
L 300.672348 306.126 
L 303.607955 307.0164 
L 306.543561 307.5888 
L 309.479167 305.0448 
L 312.414773 304.218 
L 315.350379 300.9744 
L 318.285985 303.582 
L 321.221591 305.9988 
L 324.157197 298.9392 
L 327.092803 299.1936 
L 330.028409 300.7836 
L 332.964015 298.7484 
L 335.899621 301.992 
L 338.835227 304.5996 
L 341.770833 301.992 
L 344.706439 302.5644 
L 347.642045 298.8756 
L 350.577652 298.494 
L 353.513258 303.2004 
L 356.448864 302.946 
L 359.38447 299.1936 
L 362.320076 302.5644 
L 365.255682 302.1192 
L 368.191288 299.8296 
L 371.126894 297.2856 
L 374.0625 297.222 
L 376.998106 301.356 
L 379.933712 296.904 
L 382.869318 298.494 
L 385.804924 294.1692 
L 388.74053 291.3708 
L 391.676136 291.2436 
L 394.611742 285.2016 
L 397.547348 292.6428 
L 400.482955 285.9648 
L 403.418561 287.2368 
L 406.354167 283.6116 
L 409.289773 282.7212 
L 412.225379 290.9892 
L 415.160985 292.0068 
L 418.096591 287.364 
L 421.032197 285.5196 
L 423.967803 284.184 
L 426.903409 284.184 
L 429.839015 282.9756 
L 432.774621 292.8972 
L 435.710227 280.368 
L 438.645833 282.1488 
L 441.581439 274.3896 
L 444.517045 279.6684 
L 447.452652 275.7252 
L 450.388258 272.6724 
L 453.323864 275.3436 
L 456.25947 278.7144 
L 459.195076 270.51 
L 462.130682 270.2556 
L 465.066288 254.5464 
L 468.001894 253.1472 
L 470.9375 241.9536 
L 473.873106 221.1564 
L 476.808712 215.8776 
L 479.744318 259.2528 
L 482.679924 251.748 
L 485.61553 261.1608 
L 488.551136 259.7616 
L 491.486742 253.974 
L 494.422348 256.7724 
L 497.357955 261.8604 
L 500.293561 259.1892 
L 503.229167 250.4124 
L 506.164773 240.8088 
L 509.100379 241.89 
L 512.035985 244.5612 
L 514.971591 268.92 
L 517.907197 254.6736 
L 520.842803 272.2908 
L 523.778409 256.0092 
L 526.714015 264.468 
L 529.649621 252.5112 
L 532.585227 274.8348 
L 535.520833 244.1796 
L 538.456439 244.5612 
L 541.392045 225.6084 
L 544.327652 202.9668 
L 547.263258 178.6716 
L 550.198864 253.5924 
L 553.13447 253.7196 
L 556.070076 235.5936 
L 559.005682 235.0848 
L 561.941288 234.1308 
L 564.876894 230.2512 
L 567.8125 236.1024 
L 570.748106 255.5004 
L 573.683712 251.5572 
L 576.619318 202.14 
L 579.554924 193.0452 
L 582.49053 172.884 
L 585.426136 189.9288 
L 588.361742 204.366 
L 588.361742 204.366 
" style="fill:none;stroke:#008000;stroke-linecap:square;stroke-width:1.2;"/>
   </g>
   <g id="line2d_3">
    <path clip-path="url(#pdb2d6c083c)" d="M 112.793561 315.5388 
L 115.729167 314.9664 
L 118.664773 314.7756 
L 121.600379 313.9488 
L 124.535985 316.4292 
L 127.471591 317.0016 
L 130.407197 316.8108 
L 133.342803 315.2844 
L 139.214015 313.8216 
L 142.149621 313.2492 
L 145.085227 315.1572 
L 148.020833 316.3656 
L 150.956439 315.984 
L 153.892045 316.62 
L 156.827652 316.1112 
L 159.763258 316.8108 
L 162.698864 316.302 
L 165.63447 316.62 
L 168.570076 316.3656 
L 171.505682 316.3656 
L 174.441288 316.4928 
L 177.376894 316.0476 
L 180.3125 317.256 
L 183.248106 316.1112 
L 186.183712 315.7932 
L 189.119318 315.2208 
L 192.054924 315.5388 
L 194.99053 313.8852 
L 200.861742 314.712 
L 203.797348 313.758 
L 206.732955 314.394 
L 209.668561 313.6308 
L 212.604167 312.7404 
L 215.539773 313.5672 
L 218.475379 312.9312 
L 221.410985 315.5388 
L 224.346591 316.4928 
L 227.282197 314.712 
L 230.217803 314.394 
L 233.153409 315.2844 
L 236.089015 314.076 
L 239.024621 314.1396 
L 241.960227 312.8676 
L 244.895833 313.758 
L 247.831439 313.2492 
L 250.767045 311.7864 
L 253.702652 311.3412 
L 256.638258 312.2316 
L 259.573864 311.4684 
L 262.50947 312.2952 
L 265.445076 309.306 
L 268.380682 310.7688 
L 271.316288 311.4048 
L 274.251894 311.3412 
L 277.1875 310.0056 
L 280.123106 312.7404 
L 283.058712 311.2776 
L 285.994318 311.4048 
L 288.929924 315.984 
L 291.86553 315.5388 
L 294.801136 315.2844 
L 297.736742 313.8216 
L 300.672348 315.4116 
L 303.607955 313.8216 
L 306.543561 314.712 
L 309.479167 314.8392 
L 312.414773 314.5212 
L 315.350379 312.6132 
L 318.285985 312.8676 
L 321.221591 309.8148 
L 324.157197 311.6592 
L 327.092803 309.8784 
L 330.028409 309.8784 
L 332.964015 311.5956 
L 335.899621 309.306 
L 338.835227 309.1788 
L 341.770833 307.716 
L 344.706439 307.0164 
L 350.577652 307.08 
L 353.513258 307.3344 
L 356.448864 307.398 
L 359.38447 308.352 
L 362.320076 309.942 
L 365.255682 307.9068 
L 368.191288 305.2992 
L 371.126894 308.0976 
L 374.0625 306.2532 
L 376.998106 303.3912 
L 379.933712 302.8824 
L 382.869318 299.8296 
L 385.804924 302.8824 
L 388.74053 298.3668 
L 391.676136 300.1476 
L 394.611742 300.1476 
L 397.547348 304.1544 
L 400.482955 293.9784 
L 403.418561 294.7416 
L 406.354167 296.0772 
L 409.289773 294.2964 
L 412.225379 293.2152 
L 415.160985 294.2328 
L 418.096591 296.0772 
L 421.032197 287.4276 
L 423.967803 279.1596 
L 426.903409 278.8416 
L 429.839015 278.8416 
L 432.774621 277.7604 
L 435.710227 277.8876 
L 438.645833 287.4276 
L 441.581439 284.8836 
L 444.517045 284.3748 
L 447.452652 290.4804 
L 450.388258 289.272 
L 453.323864 283.23 
L 456.25947 288.8904 
L 459.195076 280.4316 
L 462.130682 279.4776 
L 465.066288 277.7604 
L 468.001894 275.2164 
L 470.9375 274.1988 
L 473.873106 274.1988 
L 476.808712 273.1812 
L 479.744318 273.2448 
L 482.679924 277.6332 
L 485.61553 276.6156 
L 488.551136 276.1704 
L 491.486742 272.1636 
L 494.422348 267.7752 
L 497.357955 273.1176 
L 500.293561 260.5248 
L 503.229167 266.3124 
L 506.164773 259.5072 
L 509.100379 248.1864 
L 512.035985 261.6696 
L 514.971591 266.3124 
L 517.907197 261.6696 
L 520.842803 265.422 
L 523.778409 265.0404 
L 526.714015 249.84 
L 529.649621 296.268 
L 532.585227 296.904 
L 535.520833 298.1124 
L 538.456439 300.7836 
L 544.327652 295.95 
L 547.263258 294.6144 
L 550.198864 293.5968 
L 553.13447 287.8092 
L 556.070076 297.858 
L 559.005682 298.812 
L 561.941288 298.5576 
L 564.876894 298.494 
L 567.8125 297.7944 
L 570.748106 295.4412 
L 573.683712 296.3952 
L 576.619318 290.6712 
L 579.554924 290.9892 
L 582.49053 283.9296 
L 585.426136 282.4668 
L 588.361742 286.9824 
L 591.297348 276.87 
L 594.232955 278.3328 
L 597.168561 271.464 
L 600.104167 270.7644 
L 603.039773 277.6968 
L 605.975379 277.8876 
L 608.910985 266.4396 
L 611.846591 277.2516 
L 614.782197 257.7264 
L 617.717803 260.334 
L 620.653409 249.0132 
L 620.653409 249.0132 
" style="fill:none;stroke:#ff0000;stroke-linecap:square;stroke-width:1.2;"/>
   </g>
   <g id="line2d_4">
    <path clip-path="url(#pdb2d6c083c)" d="M 112.793561 316.302 
L 115.729167 315.7296 
L 118.664773 315.984 
L 121.600379 317.4468 
L 124.535985 317.1288 
L 127.471591 316.938 
L 130.407197 315.7932 
L 133.342803 316.0476 
L 136.278409 316.1112 
L 139.214015 316.4928 
L 142.149621 314.3304 
L 145.085227 315.1572 
L 150.956439 315.666 
L 153.892045 315.1572 
L 159.763258 315.2208 
L 162.698864 315.03 
L 165.63447 316.0476 
L 168.570076 318.21 
L 174.441288 315.7932 
L 177.376894 315.2208 
L 180.3125 317.4468 
L 183.248106 317.1288 
L 186.183712 318.0828 
L 189.119318 317.8284 
L 192.054924 316.938 
L 194.99053 316.6836 
L 197.926136 317.6376 
L 200.861742 317.3196 
L 203.797348 317.3196 
L 206.732955 317.6376 
L 209.668561 317.5104 
L 212.604167 317.1924 
L 215.539773 317.1924 
L 218.475379 318.2736 
L 221.410985 317.7012 
L 224.346591 317.5104 
L 227.282197 317.892 
L 230.217803 317.1924 
L 233.153409 317.1924 
L 236.089015 316.938 
L 239.024621 317.0652 
L 241.960227 318.4644 
L 244.895833 318.0192 
L 250.767045 317.7012 
L 253.702652 317.3196 
L 256.638258 317.4468 
L 259.573864 317.3196 
L 262.50947 316.5564 
L 265.445076 316.4928 
L 268.380682 316.0476 
L 271.316288 317.3196 
L 274.251894 316.4292 
L 277.1875 316.302 
L 280.123106 316.8744 
L 283.058712 315.8568 
L 285.994318 316.62 
L 288.929924 316.2384 
L 291.86553 315.666 
L 294.801136 315.984 
L 297.736742 317.8284 
L 300.672348 316.8108 
L 303.607955 316.7472 
L 306.543561 316.8744 
L 312.414773 316.6836 
L 315.350379 316.938 
L 318.285985 315.7932 
L 321.221591 316.6836 
L 324.157197 316.938 
L 327.092803 316.4928 
L 330.028409 317.1924 
L 332.964015 316.0476 
L 335.899621 315.7296 
L 338.835227 316.0476 
L 341.770833 315.1572 
L 344.706439 315.0936 
L 347.642045 316.62 
L 350.577652 316.5564 
L 353.513258 317.574 
L 356.448864 317.3196 
L 359.38447 317.7012 
L 362.320076 317.1924 
L 365.255682 317.1288 
L 368.191288 316.6836 
L 371.126894 317.1924 
L 374.0625 316.6836 
L 376.998106 316.7472 
L 379.933712 316.5564 
L 382.869318 316.1748 
L 385.804924 316.5564 
L 388.74053 317.892 
L 391.676136 317.574 
L 394.611742 317.1288 
L 397.547348 315.348 
L 400.482955 316.4292 
L 403.418561 315.7296 
L 406.354167 315.348 
L 409.289773 316.0476 
L 412.225379 315.2844 
L 415.160985 315.7932 
L 418.096591 315.0936 
L 421.032197 313.9488 
L 423.967803 314.0124 
L 426.903409 314.394 
L 429.839015 313.3764 
L 432.774621 314.8392 
L 435.710227 315.2208 
L 441.581439 313.3764 
L 444.517045 311.4048 
L 447.452652 315.0936 
L 450.388258 315.348 
L 453.323864 314.9028 
L 456.25947 315.7296 
L 459.195076 315.0936 
L 462.130682 314.3304 
L 468.001894 314.2668 
L 470.9375 313.5036 
L 473.873106 314.3304 
L 476.808712 313.6944 
L 479.744318 311.2776 
L 482.679924 312.7404 
L 485.61553 311.6592 
L 488.551136 312.486 
L 491.486742 312.6132 
L 494.422348 313.758 
L 497.357955 314.3304 
L 500.293561 312.8676 
L 503.229167 313.5036 
L 506.164773 314.5848 
L 509.100379 313.758 
L 514.971591 313.2492 
L 517.907197 314.394 
L 520.842803 312.3588 
L 523.778409 311.85 
L 526.714015 311.5956 
L 529.649621 310.896 
L 532.585227 309.7512 
L 538.456439 307.8432 
L 541.392045 307.716 
L 547.263258 307.7796 
L 550.198864 311.0868 
L 553.13447 310.0056 
L 556.070076 308.4156 
L 559.005682 307.9068 
L 561.941288 308.034 
L 564.876894 309.8148 
L 567.8125 310.1328 
L 570.748106 309.4968 
L 573.683712 309.3696 
L 576.619318 310.3236 
L 579.554924 308.9244 
L 582.49053 309.4968 
L 585.426136 310.578 
L 588.361742 310.6416 
L 591.297348 308.988 
L 594.232955 307.5888 
L 597.168561 307.8432 
L 600.104167 306.444 
L 603.039773 309.2424 
L 605.975379 308.0976 
L 608.910985 310.896 
L 611.846591 308.9244 
L 614.782197 308.5428 
L 617.717803 308.9244 
L 620.653409 307.1436 
L 623.589015 306.9528 
L 623.589015 306.9528 
" style="fill:none;stroke:#00bfbf;stroke-linecap:square;stroke-width:1.2;"/>
   </g>
   <g id="patch_3">
    <path d="M 112.5 324 
L 112.5 36 
" style="fill:none;stroke:#000000;stroke-linecap:square;stroke-linejoin:miter;"/>
   </g>
   <g id="patch_4">
    <path d="M 635.625 324 
L 635.625 36 
" style="fill:none;stroke:#000000;stroke-linecap:square;stroke-linejoin:miter;"/>
   </g>
   <g id="patch_5">
    <path d="M 112.5 324 
L 635.625 324 
" style="fill:none;stroke:#000000;stroke-linecap:square;stroke-linejoin:miter;"/>
   </g>
   <g id="patch_6">
    <path d="M 112.5 36 
L 635.625 36 
" style="fill:none;stroke:#000000;stroke-linecap:square;stroke-linejoin:miter;"/>
   </g>
   <g id="matplotlib.axis_1">
    <g id="xtick_1">
     <g id="line2d_5">
      <defs>
       <path d="M 0 0 
L 0 -4 
" id="m016f51f7bd" style="stroke:#000000;stroke-width:0.5;"/>
      </defs>
      <g>
       <use style="stroke:#000000;stroke-width:0.5;" x="112.793561" xlink:href="#m016f51f7bd" y="324"/>
      </g>
     </g>
     <g id="line2d_6">
      <defs>
       <path d="M 0 0 
L 0 4 
" id="m6a729d4464" style="stroke:#000000;stroke-width:0.5;"/>
      </defs>
      <g>
       <use style="stroke:#000000;stroke-width:0.5;" x="112.793561" xlink:href="#m6a729d4464" y="36"/>
      </g>
     </g>
     <g id="text_1">
      <!-- 0 -->
      <defs>
       <path d="M 31.78125 66.40625 
Q 24.171875 66.40625 20.328125 58.90625 
Q 16.5 51.421875 16.5 36.375 
Q 16.5 21.390625 20.328125 13.890625 
Q 24.171875 6.390625 31.78125 6.390625 
Q 39.453125 6.390625 43.28125 13.890625 
Q 47.125 21.390625 47.125 36.375 
Q 47.125 51.421875 43.28125 58.90625 
Q 39.453125 66.40625 31.78125 66.40625 
z
M 31.78125 74.21875 
Q 44.046875 74.21875 50.515625 64.515625 
Q 56.984375 54.828125 56.984375 36.375 
Q 56.984375 17.96875 50.515625 8.265625 
Q 44.046875 -1.421875 31.78125 -1.421875 
Q 19.53125 -1.421875 13.0625 8.265625 
Q 6.59375 17.96875 6.59375 36.375 
Q 6.59375 54.828125 13.0625 64.515625 
Q 19.53125 74.21875 31.78125 74.21875 
z
" id="DejaVuSans-48"/>
      </defs>
      <g transform="translate(108.976061 337.118125)scale(0.12 -0.12)">
       <use xlink:href="#DejaVuSans-48"/>
      </g>
     </g>
    </g>
    <g id="xtick_2">
     <g id="line2d_7">
      <g>
       <use style="stroke:#000000;stroke-width:0.5;" x="165.63447" xlink:href="#m016f51f7bd" y="324"/>
      </g>
     </g>
     <g id="line2d_8">
      <g>
       <use style="stroke:#000000;stroke-width:0.5;" x="165.63447" xlink:href="#m6a729d4464" y="36"/>
      </g>
     </g>
     <g id="text_2">
      <!-- 18 -->
      <defs>
       <path d="M 12.40625 8.296875 
L 28.515625 8.296875 
L 28.515625 63.921875 
L 10.984375 60.40625 
L 10.984375 69.390625 
L 28.421875 72.90625 
L 38.28125 72.90625 
L 38.28125 8.296875 
L 54.390625 8.296875 
L 54.390625 0 
L 12.40625 0 
z
" id="DejaVuSans-49"/>
       <path d="M 31.78125 34.625 
Q 24.75 34.625 20.71875 30.859375 
Q 16.703125 27.09375 16.703125 20.515625 
Q 16.703125 13.921875 20.71875 10.15625 
Q 24.75 6.390625 31.78125 6.390625 
Q 38.8125 6.390625 42.859375 10.171875 
Q 46.921875 13.96875 46.921875 20.515625 
Q 46.921875 27.09375 42.890625 30.859375 
Q 38.875 34.625 31.78125 34.625 
z
M 21.921875 38.8125 
Q 15.578125 40.375 12.03125 44.71875 
Q 8.5 49.078125 8.5 55.328125 
Q 8.5 64.0625 14.71875 69.140625 
Q 20.953125 74.21875 31.78125 74.21875 
Q 42.671875 74.21875 48.875 69.140625 
Q 55.078125 64.0625 55.078125 55.328125 
Q 55.078125 49.078125 51.53125 44.71875 
Q 48 40.375 41.703125 38.8125 
Q 48.828125 37.15625 52.796875 32.3125 
Q 56.78125 27.484375 56.78125 20.515625 
Q 56.78125 9.90625 50.3125 4.234375 
Q 43.84375 -1.421875 31.78125 -1.421875 
Q 19.734375 -1.421875 13.25 4.234375 
Q 6.78125 9.90625 6.78125 20.515625 
Q 6.78125 27.484375 10.78125 32.3125 
Q 14.796875 37.15625 21.921875 38.8125 
z
M 18.3125 54.390625 
Q 18.3125 48.734375 21.84375 45.5625 
Q 25.390625 42.390625 31.78125 42.390625 
Q 38.140625 42.390625 41.71875 45.5625 
Q 45.3125 48.734375 45.3125 54.390625 
Q 45.3125 60.0625 41.71875 63.234375 
Q 38.140625 66.40625 31.78125 66.40625 
Q 25.390625 66.40625 21.84375 63.234375 
Q 18.3125 60.0625 18.3125 54.390625 
z
" id="DejaVuSans-56"/>
      </defs>
      <g transform="translate(157.99947 337.118125)scale(0.12 -0.12)">
       <use xlink:href="#DejaVuSans-49"/>
       <use x="63.623047" xlink:href="#DejaVuSans-56"/>
      </g>
     </g>
    </g>
    <g id="xtick_3">
     <g id="line2d_9">
      <g>
       <use style="stroke:#000000;stroke-width:0.5;" x="218.475379" xlink:href="#m016f51f7bd" y="324"/>
      </g>
     </g>
     <g id="line2d_10">
      <g>
       <use style="stroke:#000000;stroke-width:0.5;" x="218.475379" xlink:href="#m6a729d4464" y="36"/>
      </g>
     </g>
     <g id="text_3">
      <!-- 36 -->
      <defs>
       <path d="M 40.578125 39.3125 
Q 47.65625 37.796875 51.625 33 
Q 55.609375 28.21875 55.609375 21.1875 
Q 55.609375 10.40625 48.1875 4.484375 
Q 40.765625 -1.421875 27.09375 -1.421875 
Q 22.515625 -1.421875 17.65625 -0.515625 
Q 12.796875 0.390625 7.625 2.203125 
L 7.625 11.71875 
Q 11.71875 9.328125 16.59375 8.109375 
Q 21.484375 6.890625 26.8125 6.890625 
Q 36.078125 6.890625 40.9375 10.546875 
Q 45.796875 14.203125 45.796875 21.1875 
Q 45.796875 27.640625 41.28125 31.265625 
Q 36.765625 34.90625 28.71875 34.90625 
L 20.21875 34.90625 
L 20.21875 43.015625 
L 29.109375 43.015625 
Q 36.375 43.015625 40.234375 45.921875 
Q 44.09375 48.828125 44.09375 54.296875 
Q 44.09375 59.90625 40.109375 62.90625 
Q 36.140625 65.921875 28.71875 65.921875 
Q 24.65625 65.921875 20.015625 65.03125 
Q 15.375 64.15625 9.8125 62.3125 
L 9.8125 71.09375 
Q 15.4375 72.65625 20.34375 73.4375 
Q 25.25 74.21875 29.59375 74.21875 
Q 40.828125 74.21875 47.359375 69.109375 
Q 53.90625 64.015625 53.90625 55.328125 
Q 53.90625 49.265625 50.4375 45.09375 
Q 46.96875 40.921875 40.578125 39.3125 
z
" id="DejaVuSans-51"/>
       <path d="M 33.015625 40.375 
Q 26.375 40.375 22.484375 35.828125 
Q 18.609375 31.296875 18.609375 23.390625 
Q 18.609375 15.53125 22.484375 10.953125 
Q 26.375 6.390625 33.015625 6.390625 
Q 39.65625 6.390625 43.53125 10.953125 
Q 47.40625 15.53125 47.40625 23.390625 
Q 47.40625 31.296875 43.53125 35.828125 
Q 39.65625 40.375 33.015625 40.375 
z
M 52.59375 71.296875 
L 52.59375 62.3125 
Q 48.875 64.0625 45.09375 64.984375 
Q 41.3125 65.921875 37.59375 65.921875 
Q 27.828125 65.921875 22.671875 59.328125 
Q 17.53125 52.734375 16.796875 39.40625 
Q 19.671875 43.65625 24.015625 45.921875 
Q 28.375 48.1875 33.59375 48.1875 
Q 44.578125 48.1875 50.953125 41.515625 
Q 57.328125 34.859375 57.328125 23.390625 
Q 57.328125 12.15625 50.6875 5.359375 
Q 44.046875 -1.421875 33.015625 -1.421875 
Q 20.359375 -1.421875 13.671875 8.265625 
Q 6.984375 17.96875 6.984375 36.375 
Q 6.984375 53.65625 15.1875 63.9375 
Q 23.390625 74.21875 37.203125 74.21875 
Q 40.921875 74.21875 44.703125 73.484375 
Q 48.484375 72.75 52.59375 71.296875 
z
" id="DejaVuSans-54"/>
      </defs>
      <g transform="translate(210.840379 337.118125)scale(0.12 -0.12)">
       <use xlink:href="#DejaVuSans-51"/>
       <use x="63.623047" xlink:href="#DejaVuSans-54"/>
      </g>
     </g>
    </g>
    <g id="xtick_4">
     <g id="line2d_11">
      <g>
       <use style="stroke:#000000;stroke-width:0.5;" x="271.316288" xlink:href="#m016f51f7bd" y="324"/>
      </g>
     </g>
     <g id="line2d_12">
      <g>
       <use style="stroke:#000000;stroke-width:0.5;" x="271.316288" xlink:href="#m6a729d4464" y="36"/>
      </g>
     </g>
     <g id="text_4">
      <!-- 54 -->
      <defs>
       <path d="M 10.796875 72.90625 
L 49.515625 72.90625 
L 49.515625 64.59375 
L 19.828125 64.59375 
L 19.828125 46.734375 
Q 21.96875 47.46875 24.109375 47.828125 
Q 26.265625 48.1875 28.421875 48.1875 
Q 40.625 48.1875 47.75 41.5 
Q 54.890625 34.8125 54.890625 23.390625 
Q 54.890625 11.625 47.5625 5.09375 
Q 40.234375 -1.421875 26.90625 -1.421875 
Q 22.3125 -1.421875 17.546875 -0.640625 
Q 12.796875 0.140625 7.71875 1.703125 
L 7.71875 11.625 
Q 12.109375 9.234375 16.796875 8.0625 
Q 21.484375 6.890625 26.703125 6.890625 
Q 35.15625 6.890625 40.078125 11.328125 
Q 45.015625 15.765625 45.015625 23.390625 
Q 45.015625 31 40.078125 35.4375 
Q 35.15625 39.890625 26.703125 39.890625 
Q 22.75 39.890625 18.8125 39.015625 
Q 14.890625 38.140625 10.796875 36.28125 
z
" id="DejaVuSans-53"/>
       <path d="M 37.796875 64.3125 
L 12.890625 25.390625 
L 37.796875 25.390625 
z
M 35.203125 72.90625 
L 47.609375 72.90625 
L 47.609375 25.390625 
L 58.015625 25.390625 
L 58.015625 17.1875 
L 47.609375 17.1875 
L 47.609375 0 
L 37.796875 0 
L 37.796875 17.1875 
L 4.890625 17.1875 
L 4.890625 26.703125 
z
" id="DejaVuSans-52"/>
      </defs>
      <g transform="translate(263.681288 337.118125)scale(0.12 -0.12)">
       <use xlink:href="#DejaVuSans-53"/>
       <use x="63.623047" xlink:href="#DejaVuSans-52"/>
      </g>
     </g>
    </g>
    <g id="xtick_5">
     <g id="line2d_13">
      <g>
       <use style="stroke:#000000;stroke-width:0.5;" x="324.157197" xlink:href="#m016f51f7bd" y="324"/>
      </g>
     </g>
     <g id="line2d_14">
      <g>
       <use style="stroke:#000000;stroke-width:0.5;" x="324.157197" xlink:href="#m6a729d4464" y="36"/>
      </g>
     </g>
     <g id="text_5">
      <!-- 72 -->
      <defs>
       <path d="M 8.203125 72.90625 
L 55.078125 72.90625 
L 55.078125 68.703125 
L 28.609375 0 
L 18.3125 0 
L 43.21875 64.59375 
L 8.203125 64.59375 
z
" id="DejaVuSans-55"/>
       <path d="M 19.1875 8.296875 
L 53.609375 8.296875 
L 53.609375 0 
L 7.328125 0 
L 7.328125 8.296875 
Q 12.9375 14.109375 22.625 23.890625 
Q 32.328125 33.6875 34.8125 36.53125 
Q 39.546875 41.84375 41.421875 45.53125 
Q 43.3125 49.21875 43.3125 52.78125 
Q 43.3125 58.59375 39.234375 62.25 
Q 35.15625 65.921875 28.609375 65.921875 
Q 23.96875 65.921875 18.8125 64.3125 
Q 13.671875 62.703125 7.8125 59.421875 
L 7.8125 69.390625 
Q 13.765625 71.78125 18.9375 73 
Q 24.125 74.21875 28.421875 74.21875 
Q 39.75 74.21875 46.484375 68.546875 
Q 53.21875 62.890625 53.21875 53.421875 
Q 53.21875 48.921875 51.53125 44.890625 
Q 49.859375 40.875 45.40625 35.40625 
Q 44.1875 33.984375 37.640625 27.21875 
Q 31.109375 20.453125 19.1875 8.296875 
z
" id="DejaVuSans-50"/>
      </defs>
      <g transform="translate(316.522197 337.118125)scale(0.12 -0.12)">
       <use xlink:href="#DejaVuSans-55"/>
       <use x="63.623047" xlink:href="#DejaVuSans-50"/>
      </g>
     </g>
    </g>
    <g id="xtick_6">
     <g id="line2d_15">
      <g>
       <use style="stroke:#000000;stroke-width:0.5;" x="376.998106" xlink:href="#m016f51f7bd" y="324"/>
      </g>
     </g>
     <g id="line2d_16">
      <g>
       <use style="stroke:#000000;stroke-width:0.5;" x="376.998106" xlink:href="#m6a729d4464" y="36"/>
      </g>
     </g>
     <g id="text_6">
      <!-- 90 -->
      <defs>
       <path d="M 10.984375 1.515625 
L 10.984375 10.5 
Q 14.703125 8.734375 18.5 7.8125 
Q 22.3125 6.890625 25.984375 6.890625 
Q 35.75 6.890625 40.890625 13.453125 
Q 46.046875 20.015625 46.78125 33.40625 
Q 43.953125 29.203125 39.59375 26.953125 
Q 35.25 24.703125 29.984375 24.703125 
Q 19.046875 24.703125 12.671875 31.3125 
Q 6.296875 37.9375 6.296875 49.421875 
Q 6.296875 60.640625 12.9375 67.421875 
Q 19.578125 74.21875 30.609375 74.21875 
Q 43.265625 74.21875 49.921875 64.515625 
Q 56.59375 54.828125 56.59375 36.375 
Q 56.59375 19.140625 48.40625 8.859375 
Q 40.234375 -1.421875 26.421875 -1.421875 
Q 22.703125 -1.421875 18.890625 -0.6875 
Q 15.09375 0.046875 10.984375 1.515625 
z
M 30.609375 32.421875 
Q 37.25 32.421875 41.125 36.953125 
Q 45.015625 41.5 45.015625 49.421875 
Q 45.015625 57.28125 41.125 61.84375 
Q 37.25 66.40625 30.609375 66.40625 
Q 23.96875 66.40625 20.09375 61.84375 
Q 16.21875 57.28125 16.21875 49.421875 
Q 16.21875 41.5 20.09375 36.953125 
Q 23.96875 32.421875 30.609375 32.421875 
z
" id="DejaVuSans-57"/>
      </defs>
      <g transform="translate(369.363106 337.118125)scale(0.12 -0.12)">
       <use xlink:href="#DejaVuSans-57"/>
       <use x="63.623047" xlink:href="#DejaVuSans-48"/>
      </g>
     </g>
    </g>
    <g id="xtick_7">
     <g id="line2d_17">
      <g>
       <use style="stroke:#000000;stroke-width:0.5;" x="429.839015" xlink:href="#m016f51f7bd" y="324"/>
      </g>
     </g>
     <g id="line2d_18">
      <g>
       <use style="stroke:#000000;stroke-width:0.5;" x="429.839015" xlink:href="#m6a729d4464" y="36"/>
      </g>
     </g>
     <g id="text_7">
      <!-- 108 -->
      <g transform="translate(418.386515 337.118125)scale(0.12 -0.12)">
       <use xlink:href="#DejaVuSans-49"/>
       <use x="63.623047" xlink:href="#DejaVuSans-48"/>
       <use x="127.246094" xlink:href="#DejaVuSans-56"/>
      </g>
     </g>
    </g>
    <g id="xtick_8">
     <g id="line2d_19">
      <g>
       <use style="stroke:#000000;stroke-width:0.5;" x="482.679924" xlink:href="#m016f51f7bd" y="324"/>
      </g>
     </g>
     <g id="line2d_20">
      <g>
       <use style="stroke:#000000;stroke-width:0.5;" x="482.679924" xlink:href="#m6a729d4464" y="36"/>
      </g>
     </g>
     <g id="text_8">
      <!-- 126 -->
      <g transform="translate(471.227424 337.118125)scale(0.12 -0.12)">
       <use xlink:href="#DejaVuSans-49"/>
       <use x="63.623047" xlink:href="#DejaVuSans-50"/>
       <use x="127.246094" xlink:href="#DejaVuSans-54"/>
      </g>
     </g>
    </g>
    <g id="xtick_9">
     <g id="line2d_21">
      <g>
       <use style="stroke:#000000;stroke-width:0.5;" x="535.520833" xlink:href="#m016f51f7bd" y="324"/>
      </g>
     </g>
     <g id="line2d_22">
      <g>
       <use style="stroke:#000000;stroke-width:0.5;" x="535.520833" xlink:href="#m6a729d4464" y="36"/>
      </g>
     </g>
     <g id="text_9">
      <!-- 144 -->
      <g transform="translate(524.068333 337.118125)scale(0.12 -0.12)">
       <use xlink:href="#DejaVuSans-49"/>
       <use x="63.623047" xlink:href="#DejaVuSans-52"/>
       <use x="127.246094" xlink:href="#DejaVuSans-52"/>
      </g>
     </g>
    </g>
    <g id="xtick_10">
     <g id="line2d_23">
      <g>
       <use style="stroke:#000000;stroke-width:0.5;" x="588.361742" xlink:href="#m016f51f7bd" y="324"/>
      </g>
     </g>
     <g id="line2d_24">
      <g>
       <use style="stroke:#000000;stroke-width:0.5;" x="588.361742" xlink:href="#m6a729d4464" y="36"/>
      </g>
     </g>
     <g id="text_10">
      <!-- 162 -->
      <g transform="translate(576.909242 337.118125)scale(0.12 -0.12)">
       <use xlink:href="#DejaVuSans-49"/>
       <use x="63.623047" xlink:href="#DejaVuSans-54"/>
       <use x="127.246094" xlink:href="#DejaVuSans-50"/>
      </g>
     </g>
    </g>
    <g id="text_11">
     <!-- generation -->
     <defs>
      <path d="M 45.40625 27.984375 
Q 45.40625 37.75 41.375 43.109375 
Q 37.359375 48.484375 30.078125 48.484375 
Q 22.859375 48.484375 18.828125 43.109375 
Q 14.796875 37.75 14.796875 27.984375 
Q 14.796875 18.265625 18.828125 12.890625 
Q 22.859375 7.515625 30.078125 7.515625 
Q 37.359375 7.515625 41.375 12.890625 
Q 45.40625 18.265625 45.40625 27.984375 
z
M 54.390625 6.78125 
Q 54.390625 -7.171875 48.1875 -13.984375 
Q 42 -20.796875 29.203125 -20.796875 
Q 24.46875 -20.796875 20.265625 -20.09375 
Q 16.0625 -19.390625 12.109375 -17.921875 
L 12.109375 -9.1875 
Q 16.0625 -11.328125 19.921875 -12.34375 
Q 23.78125 -13.375 27.78125 -13.375 
Q 36.625 -13.375 41.015625 -8.765625 
Q 45.40625 -4.15625 45.40625 5.171875 
L 45.40625 9.625 
Q 42.625 4.78125 38.28125 2.390625 
Q 33.9375 0 27.875 0 
Q 17.828125 0 11.671875 7.65625 
Q 5.515625 15.328125 5.515625 27.984375 
Q 5.515625 40.671875 11.671875 48.328125 
Q 17.828125 56 27.875 56 
Q 33.9375 56 38.28125 53.609375 
Q 42.625 51.21875 45.40625 46.390625 
L 45.40625 54.6875 
L 54.390625 54.6875 
z
" id="DejaVuSans-103"/>
      <path d="M 56.203125 29.59375 
L 56.203125 25.203125 
L 14.890625 25.203125 
Q 15.484375 15.921875 20.484375 11.0625 
Q 25.484375 6.203125 34.421875 6.203125 
Q 39.59375 6.203125 44.453125 7.46875 
Q 49.3125 8.734375 54.109375 11.28125 
L 54.109375 2.78125 
Q 49.265625 0.734375 44.1875 -0.34375 
Q 39.109375 -1.421875 33.890625 -1.421875 
Q 20.796875 -1.421875 13.15625 6.1875 
Q 5.515625 13.8125 5.515625 26.8125 
Q 5.515625 40.234375 12.765625 48.109375 
Q 20.015625 56 32.328125 56 
Q 43.359375 56 49.78125 48.890625 
Q 56.203125 41.796875 56.203125 29.59375 
z
M 47.21875 32.234375 
Q 47.125 39.59375 43.09375 43.984375 
Q 39.0625 48.390625 32.421875 48.390625 
Q 24.90625 48.390625 20.390625 44.140625 
Q 15.875 39.890625 15.1875 32.171875 
z
" id="DejaVuSans-101"/>
      <path d="M 54.890625 33.015625 
L 54.890625 0 
L 45.90625 0 
L 45.90625 32.71875 
Q 45.90625 40.484375 42.875 44.328125 
Q 39.84375 48.1875 33.796875 48.1875 
Q 26.515625 48.1875 22.3125 43.546875 
Q 18.109375 38.921875 18.109375 30.90625 
L 18.109375 0 
L 9.078125 0 
L 9.078125 54.6875 
L 18.109375 54.6875 
L 18.109375 46.1875 
Q 21.34375 51.125 25.703125 53.5625 
Q 30.078125 56 35.796875 56 
Q 45.21875 56 50.046875 50.171875 
Q 54.890625 44.34375 54.890625 33.015625 
z
" id="DejaVuSans-110"/>
      <path d="M 41.109375 46.296875 
Q 39.59375 47.171875 37.8125 47.578125 
Q 36.03125 48 33.890625 48 
Q 26.265625 48 22.1875 43.046875 
Q 18.109375 38.09375 18.109375 28.8125 
L 18.109375 0 
L 9.078125 0 
L 9.078125 54.6875 
L 18.109375 54.6875 
L 18.109375 46.1875 
Q 20.953125 51.171875 25.484375 53.578125 
Q 30.03125 56 36.53125 56 
Q 37.453125 56 38.578125 55.875 
Q 39.703125 55.765625 41.0625 55.515625 
z
" id="DejaVuSans-114"/>
      <path d="M 34.28125 27.484375 
Q 23.390625 27.484375 19.1875 25 
Q 14.984375 22.515625 14.984375 16.5 
Q 14.984375 11.71875 18.140625 8.90625 
Q 21.296875 6.109375 26.703125 6.109375 
Q 34.1875 6.109375 38.703125 11.40625 
Q 43.21875 16.703125 43.21875 25.484375 
L 43.21875 27.484375 
z
M 52.203125 31.203125 
L 52.203125 0 
L 43.21875 0 
L 43.21875 8.296875 
Q 40.140625 3.328125 35.546875 0.953125 
Q 30.953125 -1.421875 24.3125 -1.421875 
Q 15.921875 -1.421875 10.953125 3.296875 
Q 6 8.015625 6 15.921875 
Q 6 25.140625 12.171875 29.828125 
Q 18.359375 34.515625 30.609375 34.515625 
L 43.21875 34.515625 
L 43.21875 35.40625 
Q 43.21875 41.609375 39.140625 45 
Q 35.0625 48.390625 27.6875 48.390625 
Q 23 48.390625 18.546875 47.265625 
Q 14.109375 46.140625 10.015625 43.890625 
L 10.015625 52.203125 
Q 14.9375 54.109375 19.578125 55.046875 
Q 24.21875 56 28.609375 56 
Q 40.484375 56 46.34375 49.84375 
Q 52.203125 43.703125 52.203125 31.203125 
z
" id="DejaVuSans-97"/>
      <path d="M 18.3125 70.21875 
L 18.3125 54.6875 
L 36.8125 54.6875 
L 36.8125 47.703125 
L 18.3125 47.703125 
L 18.3125 18.015625 
Q 18.3125 11.328125 20.140625 9.421875 
Q 21.96875 7.515625 27.59375 7.515625 
L 36.8125 7.515625 
L 36.8125 0 
L 27.59375 0 
Q 17.1875 0 13.234375 3.875 
Q 9.28125 7.765625 9.28125 18.015625 
L 9.28125 47.703125 
L 2.6875 47.703125 
L 2.6875 54.6875 
L 9.28125 54.6875 
L 9.28125 70.21875 
z
" id="DejaVuSans-116"/>
      <path d="M 9.421875 54.6875 
L 18.40625 54.6875 
L 18.40625 0 
L 9.421875 0 
z
M 9.421875 75.984375 
L 18.40625 75.984375 
L 18.40625 64.59375 
L 9.421875 64.59375 
z
" id="DejaVuSans-105"/>
      <path d="M 30.609375 48.390625 
Q 23.390625 48.390625 19.1875 42.75 
Q 14.984375 37.109375 14.984375 27.296875 
Q 14.984375 17.484375 19.15625 11.84375 
Q 23.34375 6.203125 30.609375 6.203125 
Q 37.796875 6.203125 41.984375 11.859375 
Q 46.1875 17.53125 46.1875 27.296875 
Q 46.1875 37.015625 41.984375 42.703125 
Q 37.796875 48.390625 30.609375 48.390625 
z
M 30.609375 56 
Q 42.328125 56 49.015625 48.375 
Q 55.71875 40.765625 55.71875 27.296875 
Q 55.71875 13.875 49.015625 6.21875 
Q 42.328125 -1.421875 30.609375 -1.421875 
Q 18.84375 -1.421875 12.171875 6.21875 
Q 5.515625 13.875 5.515625 27.296875 
Q 5.515625 40.765625 12.171875 48.375 
Q 18.84375 56 30.609375 56 
z
" id="DejaVuSans-111"/>
     </defs>
     <g transform="translate(341.430938 353.731875)scale(0.12 -0.12)">
      <use xlink:href="#DejaVuSans-103"/>
      <use x="63.476562" xlink:href="#DejaVuSans-101"/>
      <use x="125" xlink:href="#DejaVuSans-110"/>
      <use x="188.378906" xlink:href="#DejaVuSans-101"/>
      <use x="249.902344" xlink:href="#DejaVuSans-114"/>
      <use x="291.015625" xlink:href="#DejaVuSans-97"/>
      <use x="352.294922" xlink:href="#DejaVuSans-116"/>
      <use x="391.503906" xlink:href="#DejaVuSans-105"/>
      <use x="419.287109" xlink:href="#DejaVuSans-111"/>
      <use x="480.46875" xlink:href="#DejaVuSans-110"/>
     </g>
    </g>
   </g>
   <g id="matplotlib.axis_2">
    <g id="ytick_1">
     <g id="line2d_25">
      <defs>
       <path d="M 0 0 
L 4 0 
" id="m5465aa986c" style="stroke:#000000;stroke-width:0.5;"/>
      </defs>
      <g>
       <use style="stroke:#000000;stroke-width:0.5;" x="112.5" xlink:href="#m5465aa986c" y="324"/>
      </g>
     </g>
     <g id="line2d_26">
      <defs>
       <path d="M 0 0 
L -4 0 
" id="m64a5961a02" style="stroke:#000000;stroke-width:0.5;"/>
      </defs>
      <g>
       <use style="stroke:#000000;stroke-width:0.5;" x="635.625" xlink:href="#m64a5961a02" y="324"/>
      </g>
     </g>
     <g id="text_12">
      <!-- 0 -->
      <g transform="translate(100.865 327.31125)scale(0.12 -0.12)">
       <use xlink:href="#DejaVuSans-48"/>
      </g>
     </g>
    </g>
    <g id="ytick_2">
     <g id="line2d_27">
      <g>
       <use style="stroke:#000000;stroke-width:0.5;" x="112.5" xlink:href="#m5465aa986c" y="276"/>
      </g>
     </g>
     <g id="line2d_28">
      <g>
       <use style="stroke:#000000;stroke-width:0.5;" x="635.625" xlink:href="#m64a5961a02" y="276"/>
      </g>
     </g>
     <g id="text_13">
      <!-- 200,000 -->
      <defs>
       <path d="M 11.71875 12.40625 
L 22.015625 12.40625 
L 22.015625 4 
L 14.015625 -11.625 
L 7.71875 -11.625 
L 11.71875 4 
z
" id="DejaVuSans-44"/>
      </defs>
      <g transform="translate(58.87625 279.31125)scale(0.12 -0.12)">
       <use xlink:href="#DejaVuSans-50"/>
       <use x="63.623047" xlink:href="#DejaVuSans-48"/>
       <use x="127.246094" xlink:href="#DejaVuSans-48"/>
       <use x="190.869141" xlink:href="#DejaVuSans-44"/>
       <use x="222.65625" xlink:href="#DejaVuSans-48"/>
       <use x="286.279297" xlink:href="#DejaVuSans-48"/>
       <use x="349.902344" xlink:href="#DejaVuSans-48"/>
      </g>
     </g>
    </g>
    <g id="ytick_3">
     <g id="line2d_29">
      <g>
       <use style="stroke:#000000;stroke-width:0.5;" x="112.5" xlink:href="#m5465aa986c" y="228"/>
      </g>
     </g>
     <g id="line2d_30">
      <g>
       <use style="stroke:#000000;stroke-width:0.5;" x="635.625" xlink:href="#m64a5961a02" y="228"/>
      </g>
     </g>
     <g id="text_14">
      <!-- 400,000 -->
      <g transform="translate(58.87625 231.31125)scale(0.12 -0.12)">
       <use xlink:href="#DejaVuSans-52"/>
       <use x="63.623047" xlink:href="#DejaVuSans-48"/>
       <use x="127.246094" xlink:href="#DejaVuSans-48"/>
       <use x="190.869141" xlink:href="#DejaVuSans-44"/>
       <use x="222.65625" xlink:href="#DejaVuSans-48"/>
       <use x="286.279297" xlink:href="#DejaVuSans-48"/>
       <use x="349.902344" xlink:href="#DejaVuSans-48"/>
      </g>
     </g>
    </g>
    <g id="ytick_4">
     <g id="line2d_31">
      <g>
       <use style="stroke:#000000;stroke-width:0.5;" x="112.5" xlink:href="#m5465aa986c" y="180"/>
      </g>
     </g>
     <g id="line2d_32">
      <g>
       <use style="stroke:#000000;stroke-width:0.5;" x="635.625" xlink:href="#m64a5961a02" y="180"/>
      </g>
     </g>
     <g id="text_15">
      <!-- 600,000 -->
      <g transform="translate(58.87625 183.31125)scale(0.12 -0.12)">
       <use xlink:href="#DejaVuSans-54"/>
       <use x="63.623047" xlink:href="#DejaVuSans-48"/>
       <use x="127.246094" xlink:href="#DejaVuSans-48"/>
       <use x="190.869141" xlink:href="#DejaVuSans-44"/>
       <use x="222.65625" xlink:href="#DejaVuSans-48"/>
       <use x="286.279297" xlink:href="#DejaVuSans-48"/>
       <use x="349.902344" xlink:href="#DejaVuSans-48"/>
      </g>
     </g>
    </g>
    <g id="ytick_5">
     <g id="line2d_33">
      <g>
       <use style="stroke:#000000;stroke-width:0.5;" x="112.5" xlink:href="#m5465aa986c" y="132"/>
      </g>
     </g>
     <g id="line2d_34">
      <g>
       <use style="stroke:#000000;stroke-width:0.5;" x="635.625" xlink:href="#m64a5961a02" y="132"/>
      </g>
     </g>
     <g id="text_16">
      <!-- 800,000 -->
      <g transform="translate(58.87625 135.31125)scale(0.12 -0.12)">
       <use xlink:href="#DejaVuSans-56"/>
       <use x="63.623047" xlink:href="#DejaVuSans-48"/>
       <use x="127.246094" xlink:href="#DejaVuSans-48"/>
       <use x="190.869141" xlink:href="#DejaVuSans-44"/>
       <use x="222.65625" xlink:href="#DejaVuSans-48"/>
       <use x="286.279297" xlink:href="#DejaVuSans-48"/>
       <use x="349.902344" xlink:href="#DejaVuSans-48"/>
      </g>
     </g>
    </g>
    <g id="ytick_6">
     <g id="line2d_35">
      <g>
       <use style="stroke:#000000;stroke-width:0.5;" x="112.5" xlink:href="#m5465aa986c" y="84"/>
      </g>
     </g>
     <g id="line2d_36">
      <g>
       <use style="stroke:#000000;stroke-width:0.5;" x="635.625" xlink:href="#m64a5961a02" y="84"/>
      </g>
     </g>
     <g id="text_17">
      <!-- 1,000,000 -->
      <g transform="translate(47.4275 87.31125)scale(0.12 -0.12)">
       <use xlink:href="#DejaVuSans-49"/>
       <use x="63.623047" xlink:href="#DejaVuSans-44"/>
       <use x="95.410156" xlink:href="#DejaVuSans-48"/>
       <use x="159.033203" xlink:href="#DejaVuSans-48"/>
       <use x="222.65625" xlink:href="#DejaVuSans-48"/>
       <use x="286.279297" xlink:href="#DejaVuSans-44"/>
       <use x="318.066406" xlink:href="#DejaVuSans-48"/>
       <use x="381.689453" xlink:href="#DejaVuSans-48"/>
       <use x="445.3125" xlink:href="#DejaVuSans-48"/>
      </g>
     </g>
    </g>
    <g id="ytick_7">
     <g id="line2d_37">
      <g>
       <use style="stroke:#000000;stroke-width:0.5;" x="112.5" xlink:href="#m5465aa986c" y="36"/>
      </g>
     </g>
     <g id="line2d_38">
      <g>
       <use style="stroke:#000000;stroke-width:0.5;" x="635.625" xlink:href="#m64a5961a02" y="36"/>
      </g>
     </g>
     <g id="text_18">
      <!-- 1,200,000 -->
      <g transform="translate(47.4275 39.31125)scale(0.12 -0.12)">
       <use xlink:href="#DejaVuSans-49"/>
       <use x="63.623047" xlink:href="#DejaVuSans-44"/>
       <use x="95.410156" xlink:href="#DejaVuSans-50"/>
       <use x="159.033203" xlink:href="#DejaVuSans-48"/>
       <use x="222.65625" xlink:href="#DejaVuSans-48"/>
       <use x="286.279297" xlink:href="#DejaVuSans-44"/>
       <use x="318.066406" xlink:href="#DejaVuSans-48"/>
       <use x="381.689453" xlink:href="#DejaVuSans-48"/>
       <use x="445.3125" xlink:href="#DejaVuSans-48"/>
      </g>
     </g>
    </g>
    <g id="text_19">
     <!-- parameters -->
     <defs>
      <path d="M 18.109375 8.203125 
L 18.109375 -20.796875 
L 9.078125 -20.796875 
L 9.078125 54.6875 
L 18.109375 54.6875 
L 18.109375 46.390625 
Q 20.953125 51.265625 25.265625 53.625 
Q 29.59375 56 35.59375 56 
Q 45.5625 56 51.78125 48.09375 
Q 58.015625 40.1875 58.015625 27.296875 
Q 58.015625 14.40625 51.78125 6.484375 
Q 45.5625 -1.421875 35.59375 -1.421875 
Q 29.59375 -1.421875 25.265625 0.953125 
Q 20.953125 3.328125 18.109375 8.203125 
z
M 48.6875 27.296875 
Q 48.6875 37.203125 44.609375 42.84375 
Q 40.53125 48.484375 33.40625 48.484375 
Q 26.265625 48.484375 22.1875 42.84375 
Q 18.109375 37.203125 18.109375 27.296875 
Q 18.109375 17.390625 22.1875 11.75 
Q 26.265625 6.109375 33.40625 6.109375 
Q 40.53125 6.109375 44.609375 11.75 
Q 48.6875 17.390625 48.6875 27.296875 
z
" id="DejaVuSans-112"/>
      <path d="M 52 44.1875 
Q 55.375 50.25 60.0625 53.125 
Q 64.75 56 71.09375 56 
Q 79.640625 56 84.28125 50.015625 
Q 88.921875 44.046875 88.921875 33.015625 
L 88.921875 0 
L 79.890625 0 
L 79.890625 32.71875 
Q 79.890625 40.578125 77.09375 44.375 
Q 74.3125 48.1875 68.609375 48.1875 
Q 61.625 48.1875 57.5625 43.546875 
Q 53.515625 38.921875 53.515625 30.90625 
L 53.515625 0 
L 44.484375 0 
L 44.484375 32.71875 
Q 44.484375 40.625 41.703125 44.40625 
Q 38.921875 48.1875 33.109375 48.1875 
Q 26.21875 48.1875 22.15625 43.53125 
Q 18.109375 38.875 18.109375 30.90625 
L 18.109375 0 
L 9.078125 0 
L 9.078125 54.6875 
L 18.109375 54.6875 
L 18.109375 46.1875 
Q 21.1875 51.21875 25.484375 53.609375 
Q 29.78125 56 35.6875 56 
Q 41.65625 56 45.828125 52.96875 
Q 50 49.953125 52 44.1875 
z
" id="DejaVuSans-109"/>
      <path d="M 44.28125 53.078125 
L 44.28125 44.578125 
Q 40.484375 46.53125 36.375 47.5 
Q 32.28125 48.484375 27.875 48.484375 
Q 21.1875 48.484375 17.84375 46.4375 
Q 14.5 44.390625 14.5 40.28125 
Q 14.5 37.15625 16.890625 35.375 
Q 19.28125 33.59375 26.515625 31.984375 
L 29.59375 31.296875 
Q 39.15625 29.25 43.1875 25.515625 
Q 47.21875 21.78125 47.21875 15.09375 
Q 47.21875 7.46875 41.1875 3.015625 
Q 35.15625 -1.421875 24.609375 -1.421875 
Q 20.21875 -1.421875 15.453125 -0.5625 
Q 10.6875 0.296875 5.421875 2 
L 5.421875 11.28125 
Q 10.40625 8.6875 15.234375 7.390625 
Q 20.0625 6.109375 24.8125 6.109375 
Q 31.15625 6.109375 34.5625 8.28125 
Q 37.984375 10.453125 37.984375 14.40625 
Q 37.984375 18.0625 35.515625 20.015625 
Q 33.0625 21.96875 24.703125 23.78125 
L 21.578125 24.515625 
Q 13.234375 26.265625 9.515625 29.90625 
Q 5.8125 33.546875 5.8125 39.890625 
Q 5.8125 47.609375 11.28125 51.796875 
Q 16.75 56 26.8125 56 
Q 31.78125 56 36.171875 55.265625 
Q 40.578125 54.546875 44.28125 53.078125 
z
" id="DejaVuSans-115"/>
     </defs>
     <g transform="translate(39.931875 214.801875)rotate(-90)scale(0.12 -0.12)">
      <use xlink:href="#DejaVuSans-112"/>
      <use x="63.476562" xlink:href="#DejaVuSans-97"/>
      <use x="124.755859" xlink:href="#DejaVuSans-114"/>
      <use x="165.869141" xlink:href="#DejaVuSans-97"/>
      <use x="227.148438" xlink:href="#DejaVuSans-109"/>
      <use x="324.560547" xlink:href="#DejaVuSans-101"/>
      <use x="386.083984" xlink:href="#DejaVuSans-116"/>
      <use x="425.292969" xlink:href="#DejaVuSans-101"/>
      <use x="486.816406" xlink:href="#DejaVuSans-114"/>
      <use x="527.929688" xlink:href="#DejaVuSans-115"/>
     </g>
    </g>
   </g>
   <g id="legend_1">
    <g id="patch_7">
     <path d="M 640.623 210.843908 
L 739.8333 210.843908 
L 739.8333 149.156092 
L 640.623 149.156092 
z
" style="fill:#ffffff;stroke:#000000;stroke-linejoin:miter;"/>
    </g>
    <g id="line2d_39">
     <path d="M 647.6202 157.251291 
L 661.6146 157.251291 
" style="fill:none;stroke:#0000ff;stroke-linecap:square;stroke-width:1.2;"/>
    </g>
    <g id="line2d_40"/>
    <g id="text_20">
     <!-- Mutation 0.8 -->
     <defs>
      <path d="M 9.8125 72.90625 
L 24.515625 72.90625 
L 43.109375 23.296875 
L 61.8125 72.90625 
L 76.515625 72.90625 
L 76.515625 0 
L 66.890625 0 
L 66.890625 64.015625 
L 48.09375 14.015625 
L 38.1875 14.015625 
L 19.390625 64.015625 
L 19.390625 0 
L 9.8125 0 
z
" id="DejaVuSans-77"/>
      <path d="M 8.5 21.578125 
L 8.5 54.6875 
L 17.484375 54.6875 
L 17.484375 21.921875 
Q 17.484375 14.15625 20.5 10.265625 
Q 23.53125 6.390625 29.59375 6.390625 
Q 36.859375 6.390625 41.078125 11.03125 
Q 45.3125 15.671875 45.3125 23.6875 
L 45.3125 54.6875 
L 54.296875 54.6875 
L 54.296875 0 
L 45.3125 0 
L 45.3125 8.40625 
Q 42.046875 3.421875 37.71875 1 
Q 33.40625 -1.421875 27.6875 -1.421875 
Q 18.265625 -1.421875 13.375 4.4375 
Q 8.5 10.296875 8.5 21.578125 
z
M 31.109375 56 
z
" id="DejaVuSans-117"/>
      <path id="DejaVuSans-32"/>
      <path d="M 10.6875 12.40625 
L 21 12.40625 
L 21 0 
L 10.6875 0 
z
" id="DejaVuSans-46"/>
     </defs>
     <g transform="translate(672.6102 160.749891)scale(0.09996 -0.09996)">
      <use xlink:href="#DejaVuSans-77"/>
      <use x="86.279297" xlink:href="#DejaVuSans-117"/>
      <use x="149.658203" xlink:href="#DejaVuSans-116"/>
      <use x="188.867188" xlink:href="#DejaVuSans-97"/>
      <use x="250.146484" xlink:href="#DejaVuSans-116"/>
      <use x="289.355469" xlink:href="#DejaVuSans-105"/>
      <use x="317.138672" xlink:href="#DejaVuSans-111"/>
      <use x="378.320312" xlink:href="#DejaVuSans-110"/>
      <use x="441.699219" xlink:href="#DejaVuSans-32"/>
      <use x="473.486328" xlink:href="#DejaVuSans-48"/>
      <use x="537.109375" xlink:href="#DejaVuSans-46"/>
      <use x="568.896484" xlink:href="#DejaVuSans-56"/>
     </g>
    </g>
    <g id="line2d_41">
     <path d="M 647.6202 171.923544 
L 661.6146 171.923544 
" style="fill:none;stroke:#008000;stroke-linecap:square;stroke-width:1.2;"/>
    </g>
    <g id="line2d_42"/>
    <g id="text_21">
     <!-- Mutation 0.6 -->
     <g transform="translate(672.6102 175.422144)scale(0.09996 -0.09996)">
      <use xlink:href="#DejaVuSans-77"/>
      <use x="86.279297" xlink:href="#DejaVuSans-117"/>
      <use x="149.658203" xlink:href="#DejaVuSans-116"/>
      <use x="188.867188" xlink:href="#DejaVuSans-97"/>
      <use x="250.146484" xlink:href="#DejaVuSans-116"/>
      <use x="289.355469" xlink:href="#DejaVuSans-105"/>
      <use x="317.138672" xlink:href="#DejaVuSans-111"/>
      <use x="378.320312" xlink:href="#DejaVuSans-110"/>
      <use x="441.699219" xlink:href="#DejaVuSans-32"/>
      <use x="473.486328" xlink:href="#DejaVuSans-48"/>
      <use x="537.109375" xlink:href="#DejaVuSans-46"/>
      <use x="568.896484" xlink:href="#DejaVuSans-54"/>
     </g>
    </g>
    <g id="line2d_43">
     <path d="M 647.6202 186.595798 
L 661.6146 186.595798 
" style="fill:none;stroke:#ff0000;stroke-linecap:square;stroke-width:1.2;"/>
    </g>
    <g id="line2d_44"/>
    <g id="text_22">
     <!-- Mutation 0.4 -->
     <g transform="translate(672.6102 190.094398)scale(0.09996 -0.09996)">
      <use xlink:href="#DejaVuSans-77"/>
      <use x="86.279297" xlink:href="#DejaVuSans-117"/>
      <use x="149.658203" xlink:href="#DejaVuSans-116"/>
      <use x="188.867188" xlink:href="#DejaVuSans-97"/>
      <use x="250.146484" xlink:href="#DejaVuSans-116"/>
      <use x="289.355469" xlink:href="#DejaVuSans-105"/>
      <use x="317.138672" xlink:href="#DejaVuSans-111"/>
      <use x="378.320312" xlink:href="#DejaVuSans-110"/>
      <use x="441.699219" xlink:href="#DejaVuSans-32"/>
      <use x="473.486328" xlink:href="#DejaVuSans-48"/>
      <use x="537.109375" xlink:href="#DejaVuSans-46"/>
      <use x="568.896484" xlink:href="#DejaVuSans-52"/>
     </g>
    </g>
    <g id="line2d_45">
     <path d="M 647.6202 201.268052 
L 661.6146 201.268052 
" style="fill:none;stroke:#00bfbf;stroke-linecap:square;stroke-width:1.2;"/>
    </g>
    <g id="line2d_46"/>
    <g id="text_23">
     <!-- Mutation 0.2 -->
     <g transform="translate(672.6102 204.766652)scale(0.09996 -0.09996)">
      <use xlink:href="#DejaVuSans-77"/>
      <use x="86.279297" xlink:href="#DejaVuSans-117"/>
      <use x="149.658203" xlink:href="#DejaVuSans-116"/>
      <use x="188.867188" xlink:href="#DejaVuSans-97"/>
      <use x="250.146484" xlink:href="#DejaVuSans-116"/>
      <use x="289.355469" xlink:href="#DejaVuSans-105"/>
      <use x="317.138672" xlink:href="#DejaVuSans-111"/>
      <use x="378.320312" xlink:href="#DejaVuSans-110"/>
      <use x="441.699219" xlink:href="#DejaVuSans-32"/>
      <use x="473.486328" xlink:href="#DejaVuSans-48"/>
      <use x="537.109375" xlink:href="#DejaVuSans-46"/>
      <use x="568.896484" xlink:href="#DejaVuSans-50"/>
     </g>
    </g>
   </g>
  </g>
  <g id="text_24">
   <!-- Average Amount of Parameters -->
   <defs>
    <path d="M 34.1875 63.1875 
L 20.796875 26.90625 
L 47.609375 26.90625 
z
M 28.609375 72.90625 
L 39.796875 72.90625 
L 67.578125 0 
L 57.328125 0 
L 50.6875 18.703125 
L 17.828125 18.703125 
L 11.1875 0 
L 0.78125 0 
z
" id="DejaVuSans-65"/>
    <path d="M 2.984375 54.6875 
L 12.5 54.6875 
L 29.59375 8.796875 
L 46.6875 54.6875 
L 56.203125 54.6875 
L 35.6875 0 
L 23.484375 0 
z
" id="DejaVuSans-118"/>
    <path d="M 37.109375 75.984375 
L 37.109375 68.5 
L 28.515625 68.5 
Q 23.6875 68.5 21.796875 66.546875 
Q 19.921875 64.59375 19.921875 59.515625 
L 19.921875 54.6875 
L 34.71875 54.6875 
L 34.71875 47.703125 
L 19.921875 47.703125 
L 19.921875 0 
L 10.890625 0 
L 10.890625 47.703125 
L 2.296875 47.703125 
L 2.296875 54.6875 
L 10.890625 54.6875 
L 10.890625 58.5 
Q 10.890625 67.625 15.140625 71.796875 
Q 19.390625 75.984375 28.609375 75.984375 
z
" id="DejaVuSans-102"/>
    <path d="M 19.671875 64.796875 
L 19.671875 37.40625 
L 32.078125 37.40625 
Q 38.96875 37.40625 42.71875 40.96875 
Q 46.484375 44.53125 46.484375 51.125 
Q 46.484375 57.671875 42.71875 61.234375 
Q 38.96875 64.796875 32.078125 64.796875 
z
M 9.8125 72.90625 
L 32.078125 72.90625 
Q 44.34375 72.90625 50.609375 67.359375 
Q 56.890625 61.8125 56.890625 51.125 
Q 56.890625 40.328125 50.609375 34.8125 
Q 44.34375 29.296875 32.078125 29.296875 
L 19.671875 29.296875 
L 19.671875 0 
L 9.8125 0 
z
" id="DejaVuSans-80"/>
   </defs>
   <g transform="translate(355.93875 16.318125)scale(0.12 -0.12)">
    <use xlink:href="#DejaVuSans-65"/>
    <use x="62.533203" xlink:href="#DejaVuSans-118"/>
    <use x="121.712891" xlink:href="#DejaVuSans-101"/>
    <use x="183.236328" xlink:href="#DejaVuSans-114"/>
    <use x="224.349609" xlink:href="#DejaVuSans-97"/>
    <use x="285.628906" xlink:href="#DejaVuSans-103"/>
    <use x="349.105469" xlink:href="#DejaVuSans-101"/>
    <use x="410.628906" xlink:href="#DejaVuSans-32"/>
    <use x="442.416016" xlink:href="#DejaVuSans-65"/>
    <use x="510.824219" xlink:href="#DejaVuSans-109"/>
    <use x="608.236328" xlink:href="#DejaVuSans-111"/>
    <use x="669.417969" xlink:href="#DejaVuSans-117"/>
    <use x="732.796875" xlink:href="#DejaVuSans-110"/>
    <use x="796.175781" xlink:href="#DejaVuSans-116"/>
    <use x="835.384766" xlink:href="#DejaVuSans-32"/>
    <use x="867.171875" xlink:href="#DejaVuSans-111"/>
    <use x="928.353516" xlink:href="#DejaVuSans-102"/>
    <use x="963.558594" xlink:href="#DejaVuSans-32"/>
    <use x="995.345703" xlink:href="#DejaVuSans-80"/>
    <use x="1051.148438" xlink:href="#DejaVuSans-97"/>
    <use x="1112.427734" xlink:href="#DejaVuSans-114"/>
    <use x="1153.541016" xlink:href="#DejaVuSans-97"/>
    <use x="1214.820312" xlink:href="#DejaVuSans-109"/>
    <use x="1312.232422" xlink:href="#DejaVuSans-101"/>
    <use x="1373.755859" xlink:href="#DejaVuSans-116"/>
    <use x="1412.964844" xlink:href="#DejaVuSans-101"/>
    <use x="1474.488281" xlink:href="#DejaVuSans-114"/>
    <use x="1515.601562" xlink:href="#DejaVuSans-115"/>
   </g>
  </g>
 </g>
 <defs>
  <clipPath id="pdb2d6c083c">
   <rect height="288" width="523.125" x="112.5" y="36"/>
  </clipPath>
 </defs>
</svg>
