<?xml version="1.0" encoding="utf-8" standalone="no"?>
<!DOCTYPE svg PUBLIC "-//W3C//DTD SVG 1.1//EN"
  "http://www.w3.org/Graphics/SVG/1.1/DTD/svg11.dtd">
<!-- Created with matplotlib (https://matplotlib.org/) -->
<svg height="360pt" version="1.1" viewBox="0 0 900 360" width="900pt" xmlns="http://www.w3.org/2000/svg" xmlns:xlink="http://www.w3.org/1999/xlink">
 <defs>
  <style type="text/css">
*{stroke-linecap:butt;stroke-linejoin:round;}
  </style>
 </defs>
 <g id="figure_1">
  <g id="patch_1">
   <path d="M 0 360 
L 900 360 
L 900 0 
L 0 0 
z
" style="fill:#ffffff;"/>
  </g>
  <g id="axes_1">
   <g id="patch_2">
    <path d="M 112.5 324 
L 635.625 324 
L 635.625 36 
L 112.5 36 
z
" style="fill:#ffffff;"/>
   </g>
   <g id="line2d_1">
    <path clip-path="url(#p0b4c613354)" d="M 112.782465 253.659811 
L 121.256412 254.844035 
L 124.081061 255.90704 
L 126.90571 256.291844 
L 129.730359 255.026134 
L 132.555008 258.55526 
L 135.379657 258.280876 
L 138.204306 258.387553 
L 141.028955 261.948623 
L 143.853604 258.873928 
L 146.678253 259.434571 
L 149.502902 261.053478 
L 152.327551 264.602773 
L 155.1522 260.943668 
L 157.976849 259.412751 
L 160.801498 260.757179 
L 163.626147 260.593552 
L 166.450796 260.972313 
L 169.275445 264.594603 
L 172.100094 264.121136 
L 174.924744 262.157628 
L 177.749393 264.723017 
L 180.574042 263.695784 
L 183.398691 264.207313 
L 186.22334 265.229921 
L 189.047989 267.004166 
L 191.872638 265.984957 
L 194.697287 264.350587 
L 197.521936 263.794181 
L 200.346585 264.56639 
L 203.171234 262.036245 
L 205.995883 261.538033 
L 208.820532 263.191687 
L 211.645181 262.244834 
L 214.46983 263.900868 
L 217.294479 260.795219 
L 220.119128 264.361068 
L 222.943777 264.79225 
L 225.768426 261.943038 
L 228.593075 261.503952 
L 231.417724 265.452361 
L 234.242373 261.309506 
L 237.067022 261.812057 
L 239.891671 263.784877 
L 242.71632 266.841791 
L 245.540969 265.502489 
L 248.365618 262.443902 
L 251.190267 266.301821 
L 254.014916 266.392775 
L 256.839565 266.88525 
L 259.664214 267.66451 
L 262.488863 267.248956 
L 265.313512 268.138534 
L 268.138161 271.456752 
L 270.96281 263.633467 
L 273.78746 264.164751 
L 276.612109 264.455731 
L 279.436758 264.419973 
L 282.261407 265.181092 
L 285.086056 266.94139 
L 287.910705 266.434906 
L 290.735354 266.785327 
L 293.560003 266.318563 
L 296.384652 267.700903 
L 299.209301 268.142363 
L 304.858599 269.510312 
L 307.683248 269.080693 
L 310.507897 269.501976 
L 313.332546 268.717968 
L 316.157195 270.044032 
L 318.981844 269.818322 
L 321.806493 267.180547 
L 324.631142 269.160417 
L 327.455791 267.251444 
L 330.28044 267.630196 
L 333.105089 263.861984 
L 335.929738 264.90135 
L 341.579036 264.159252 
L 344.403685 267.200629 
L 347.228334 268.046633 
L 350.052983 268.108947 
L 352.877632 269.402072 
L 355.702281 268.620569 
L 358.52693 270.790672 
L 361.351579 273.104423 
L 364.176228 271.746243 
L 367.000877 270.099616 
L 369.825526 270.030296 
L 372.650175 272.245 
L 375.474825 269.689843 
L 378.299474 272.067873 
L 381.124123 272.688172 
L 383.948772 268.854465 
L 386.773421 269.305164 
L 389.59807 270.732879 
L 392.422719 272.467012 
L 395.247368 271.776695 
L 398.072017 271.279842 
L 400.896666 273.011501 
L 403.721315 273.111815 
L 406.545964 272.832474 
L 409.370613 272.140167 
L 412.195262 272.357107 
L 415.019911 275.809409 
L 417.84456 273.440153 
L 420.669209 273.1922 
L 423.493858 274.980634 
L 426.318507 274.547396 
L 429.143156 271.756218 
L 431.967805 272.883707 
L 434.792454 275.09824 
L 437.617103 274.166607 
L 440.441752 275.273431 
L 443.266401 276.632048 
L 446.09105 275.887849 
L 448.915699 273.84847 
L 451.740348 274.477702 
L 454.564997 275.920061 
L 457.389646 273.957197 
L 460.214295 274.143146 
L 463.038944 273.490228 
L 465.863593 277.230359 
L 468.688242 273.112499 
L 471.512891 273.00313 
L 474.33754 273.626234 
L 477.16219 271.392934 
L 479.986839 274.722552 
L 482.811488 271.862616 
L 485.636137 273.781984 
L 488.460786 270.412274 
L 491.285435 272.011112 
L 494.110084 272.708448 
L 496.934733 271.334532 
L 499.759382 273.00939 
L 502.584031 273.138882 
L 505.40868 267.547803 
L 508.233329 273.872728 
L 511.057978 274.170866 
L 513.882627 273.657117 
L 516.707276 272.137802 
L 519.531925 271.626668 
L 522.356574 273.776078 
L 525.181223 272.653364 
L 528.005872 273.400809 
L 530.830521 273.781758 
L 533.65517 271.889664 
L 536.479819 273.436578 
L 539.304468 273.672316 
L 542.129117 274.148648 
L 544.953766 270.657552 
L 547.778415 272.327265 
L 550.603064 272.339671 
L 553.427713 270.588557 
L 556.252362 272.471874 
L 559.077011 272.20663 
L 561.90166 270.794898 
L 564.726309 271.760949 
L 567.550958 274.248421 
L 570.375607 272.821554 
L 573.200256 274.219777 
L 576.024906 273.610028 
L 578.849555 272.88023 
L 581.674204 274.485249 
L 584.498853 272.841156 
L 587.323502 274.047677 
L 590.148151 271.38129 
L 592.9728 272.168639 
L 595.797449 270.027117 
L 598.622098 273.129741 
L 601.446747 270.691579 
L 604.271396 271.901034 
L 607.096045 271.910174 
L 609.920694 272.805305 
L 612.745343 271.237973 
L 615.569992 272.976918 
L 615.569992 272.976918 
" style="fill:none;stroke:#0000ff;stroke-linecap:square;stroke-width:1.2;"/>
   </g>
   <g id="line2d_2">
    <path clip-path="url(#p0b4c613354)" d="M 112.782465 245.341894 
L 115.607114 245.911308 
L 118.431763 246.071693 
L 121.256412 243.50123 
L 124.081061 245.670617 
L 126.90571 246.11046 
L 129.730359 247.600947 
L 132.555008 245.665607 
L 135.379657 245.380483 
L 138.204306 246.13227 
L 141.028955 243.050456 
L 143.853604 245.793301 
L 146.678253 244.80162 
L 149.502902 244.997291 
L 152.327551 246.356369 
L 157.976849 245.245695 
L 160.801498 247.363773 
L 163.626147 246.879051 
L 166.450796 243.765928 
L 169.275445 245.854185 
L 174.924744 246.773996 
L 177.749393 244.456537 
L 180.574042 245.904911 
L 183.398691 246.538538 
L 186.22334 243.684421 
L 189.047989 246.198337 
L 191.872638 245.018162 
L 194.697287 244.277042 
L 197.521936 243.25767 
L 200.346585 246.552828 
L 203.171234 249.164636 
L 205.995883 248.328657 
L 208.820532 249.208984 
L 211.645181 246.239046 
L 214.46983 246.341625 
L 217.294479 246.795732 
L 220.119128 243.262012 
L 222.943777 244.461174 
L 225.768426 246.692453 
L 228.593075 245.793745 
L 231.417724 246.019677 
L 237.067022 245.674186 
L 239.891671 247.273778 
L 242.71632 248.545368 
L 245.540969 247.697003 
L 248.365618 245.446033 
L 251.190267 246.112883 
L 254.014916 247.224438 
L 256.839565 244.270128 
L 259.664214 249.058966 
L 262.488863 247.621375 
L 265.313512 243.983291 
L 268.138161 245.819688 
L 270.96281 243.466741 
L 273.78746 244.21833 
L 276.612109 242.977632 
L 279.436758 244.717414 
L 282.261407 245.54515 
L 285.086056 246.03338 
L 287.910705 247.752478 
L 290.735354 245.825737 
L 293.560003 244.57477 
L 296.384652 246.616894 
L 299.209301 244.314807 
L 302.03395 242.807271 
L 304.858599 247.986443 
L 307.683248 247.066298 
L 310.507897 246.825112 
L 313.332546 245.676459 
L 316.157195 245.069633 
L 321.806493 245.961258 
L 324.631142 242.519941 
L 327.455791 244.229986 
L 330.28044 242.718396 
L 333.105089 244.965873 
L 335.929738 245.036101 
L 338.754387 244.108474 
L 341.579036 240.736891 
L 344.403685 243.581602 
L 347.228334 234.793354 
L 350.052983 239.520952 
L 352.877632 240.376814 
L 355.702281 242.614359 
L 358.52693 239.729089 
L 361.351579 241.082973 
L 364.176228 242.999946 
L 367.000877 240.39406 
L 369.825526 236.743804 
L 372.650175 241.017393 
L 375.474825 239.522039 
L 378.299474 236.326479 
L 381.124123 236.712717 
L 386.773421 237.137353 
L 389.59807 242.056959 
L 392.422719 237.466421 
L 395.247368 239.398923 
L 398.072017 239.095335 
L 400.896666 228.669933 
L 403.721315 235.885662 
L 406.545964 234.410273 
L 409.370613 237.680869 
L 412.195262 237.600282 
L 415.019911 240.626187 
L 417.84456 240.679817 
L 420.669209 244.290892 
L 423.493858 246.818839 
L 426.318507 248.128142 
L 429.143156 245.792936 
L 431.967805 244.995767 
L 434.792454 245.803595 
L 437.617103 246.740922 
L 440.441752 245.53325 
L 443.266401 246.253636 
L 446.09105 244.767151 
L 448.915699 244.291772 
L 451.740348 245.602462 
L 454.564997 244.614609 
L 457.389646 244.066803 
L 460.214295 244.918177 
L 463.038944 242.339736 
L 465.863593 240.943397 
L 468.688242 243.910517 
L 471.512891 239.02266 
L 474.33754 234.90345 
L 477.16219 241.555034 
L 479.986839 246.110609 
L 482.811488 236.421324 
L 485.636137 243.853064 
L 488.460786 245.516434 
L 491.285435 244.106777 
L 494.110084 246.066051 
L 496.934733 235.552387 
L 499.759382 234.85171 
L 502.584031 236.201399 
L 505.40868 224.733318 
L 508.233329 235.254867 
L 511.057978 228.580521 
L 513.882627 237.350411 
L 516.707276 236.368561 
L 519.531925 232.577881 
L 522.356574 234.784648 
L 525.181223 233.100531 
L 528.005872 230.79861 
L 530.830521 228.060145 
L 536.479819 231.865362 
L 539.304468 225.903386 
L 542.129117 227.677791 
L 544.953766 227.441977 
L 547.778415 214.83189 
L 550.603064 231.713005 
L 553.427713 219.394667 
L 556.252362 222.633678 
L 559.077011 235.441584 
L 561.90166 234.788696 
L 564.726309 234.819825 
L 567.550958 233.911585 
L 570.375607 223.014561 
L 573.200256 181.767673 
L 576.024906 182.870411 
L 578.849555 183.791878 
L 581.674204 194.453866 
L 584.498853 194.999976 
L 587.323502 159.538029 
L 590.148151 159.228088 
L 592.9728 159.388543 
L 595.797449 158.892815 
L 598.622098 157.360123 
L 601.446747 152.023094 
L 604.271396 167.797257 
L 607.096045 156.510717 
L 609.920694 152.787178 
L 612.745343 154.810343 
L 615.569992 160.615793 
L 618.394641 121.118822 
L 621.21929 120.024399 
L 624.043939 129.926424 
L 624.043939 129.926424 
" style="fill:none;stroke:#008000;stroke-linecap:square;stroke-width:1.2;"/>
   </g>
   <g id="line2d_3">
    <path clip-path="url(#p0b4c613354)" d="M 112.782465 241.785975 
L 115.607114 241.707217 
L 118.431763 243.331937 
L 121.256412 238.843624 
L 124.081061 241.279319 
L 126.90571 242.85289 
L 129.730359 240.330402 
L 132.555008 241.314543 
L 135.379657 243.359023 
L 138.204306 244.393499 
L 141.028955 243.459813 
L 143.853604 243.307851 
L 146.678253 242.528161 
L 149.502902 241.881979 
L 152.327551 243.524286 
L 155.1522 244.780533 
L 157.976849 244.809104 
L 160.801498 242.890964 
L 163.626147 242.44555 
L 166.450796 243.60779 
L 169.275445 243.914945 
L 172.100094 243.090265 
L 174.924744 244.233049 
L 177.749393 243.646278 
L 180.574042 244.77179 
L 183.398691 243.9842 
L 186.22334 244.410964 
L 189.047989 245.48474 
L 191.872638 245.526692 
L 194.697287 245.709575 
L 197.521936 242.99136 
L 200.346585 243.877716 
L 203.171234 243.58011 
L 205.995883 245.21838 
L 208.820532 243.526269 
L 211.645181 243.944705 
L 214.46983 239.581589 
L 217.294479 243.841881 
L 220.119128 243.28985 
L 222.943777 243.107057 
L 225.768426 243.650598 
L 228.593075 243.627171 
L 231.417724 244.168646 
L 234.242373 242.762379 
L 237.067022 244.407778 
L 239.891671 241.528986 
L 242.71632 244.373973 
L 245.540969 241.073426 
L 248.365618 245.026765 
L 251.190267 244.564635 
L 254.014916 245.203386 
L 256.839565 246.322971 
L 262.488863 240.873597 
L 265.313512 243.277756 
L 268.138161 242.164228 
L 270.96281 244.731632 
L 273.78746 241.703455 
L 276.612109 242.063221 
L 279.436758 241.966342 
L 282.261407 243.867361 
L 285.086056 243.373147 
L 287.910705 243.324093 
L 290.735354 245.54863 
L 293.560003 241.77391 
L 296.384652 240.407721 
L 299.209301 245.198952 
L 302.03395 243.643469 
L 304.858599 242.987324 
L 307.683248 238.760112 
L 310.507897 242.925315 
L 313.332546 243.501907 
L 316.157195 246.440528 
L 318.981844 245.459976 
L 321.806493 237.139951 
L 324.631142 243.907735 
L 327.455791 243.840448 
L 330.28044 245.882982 
L 333.105089 245.694165 
L 335.929738 241.535518 
L 341.579036 239.31727 
L 344.403685 235.6471 
L 347.228334 247.554407 
L 350.052983 245.440107 
L 352.877632 244.490887 
L 355.702281 242.793956 
L 358.52693 243.03002 
L 361.351579 239.39052 
L 364.176228 245.44334 
L 367.000877 245.686652 
L 369.825526 241.334181 
L 372.650175 243.196752 
L 375.474825 241.988556 
L 378.299474 241.359699 
L 381.124123 240.15923 
L 383.948772 242.532493 
L 386.773421 241.816822 
L 389.59807 240.319742 
L 392.422719 243.440011 
L 395.247368 239.927418 
L 398.072017 239.996092 
L 400.896666 240.460028 
L 403.721315 243.290724 
L 406.545964 244.162416 
L 409.370613 236.896409 
L 412.195262 242.155393 
L 415.019911 236.941187 
L 417.84456 241.971951 
L 420.669209 241.864522 
L 423.493858 237.007311 
L 426.318507 242.195056 
L 429.143156 242.243507 
L 431.967805 237.847837 
L 434.792454 239.706278 
L 440.441752 242.186782 
L 443.266401 241.816949 
L 446.09105 243.306898 
L 448.915699 242.057098 
L 451.740348 239.06008 
L 454.564997 243.353141 
L 457.389646 242.271249 
L 460.214295 236.260237 
L 463.038944 243.445625 
L 465.863593 234.533402 
L 468.688242 241.381872 
L 474.33754 237.989846 
L 477.16219 237.559326 
L 479.986839 239.289694 
L 482.811488 234.843731 
L 485.636137 235.524028 
L 488.460786 241.051578 
L 491.285435 240.105935 
L 494.110084 238.022574 
L 496.934733 234.880089 
L 499.759382 233.838967 
L 502.584031 238.014005 
L 505.40868 234.714385 
L 508.233329 240.36755 
L 511.057978 238.357043 
L 513.882627 233.199517 
L 516.707276 237.993212 
L 519.531925 239.167883 
L 522.356574 235.870181 
L 525.181223 233.947308 
L 528.005872 234.540132 
L 530.830521 236.615231 
L 533.65517 233.981756 
L 536.479819 237.112876 
L 539.304468 236.49073 
L 542.129117 233.459801 
L 544.953766 235.859382 
L 547.778415 234.123708 
L 550.603064 234.880008 
L 553.427713 234.026819 
L 556.252362 236.705478 
L 559.077011 233.075354 
L 561.90166 231.401041 
L 564.726309 237.069627 
L 567.550958 233.047856 
L 570.375607 234.906899 
L 573.200256 229.898757 
L 576.024906 238.854326 
L 578.849555 242.148321 
L 581.674204 237.16408 
L 584.498853 233.838901 
L 587.323502 235.764852 
L 590.148151 235.966924 
L 592.9728 234.656448 
L 595.797449 235.277627 
L 598.622098 231.995568 
L 601.446747 232.335896 
L 604.271396 233.249183 
L 607.096045 227.207586 
L 609.920694 232.115151 
L 612.745343 233.581639 
L 615.569992 235.542162 
L 618.394641 237.18042 
L 621.21929 238.215727 
L 624.043939 241.616714 
L 624.043939 241.616714 
" style="fill:none;stroke:#ff0000;stroke-linecap:square;stroke-width:1.2;"/>
   </g>
   <g id="line2d_4">
    <path clip-path="url(#p0b4c613354)" d="M 112.782465 190.94108 
L 115.607114 191.561706 
L 118.431763 189.44445 
L 121.256412 189.656631 
L 124.081061 190.521862 
L 126.90571 186.483107 
L 129.730359 188.917146 
L 132.555008 188.470099 
L 135.379657 179.214914 
L 138.204306 186.352329 
L 141.028955 183.265155 
L 143.853604 185.606916 
L 146.678253 184.391948 
L 149.502902 186.132266 
L 152.327551 179.992424 
L 155.1522 183.53113 
L 157.976849 184.751544 
L 160.801498 184.326514 
L 163.626147 188.284832 
L 166.450796 184.759813 
L 169.275445 182.577572 
L 172.100094 185.423958 
L 174.924744 189.04294 
L 177.749393 189.326892 
L 180.574042 188.179422 
L 183.398691 185.321571 
L 186.22334 185.647482 
L 189.047989 187.429647 
L 191.872638 190.9292 
L 194.697287 184.275019 
L 197.521936 189.76417 
L 200.346585 190.004316 
L 203.171234 189.391293 
L 205.995883 188.902276 
L 208.820532 190.4607 
L 211.645181 188.214923 
L 214.46983 188.172964 
L 217.294479 189.014399 
L 220.119128 190.518811 
L 222.943777 191.408887 
L 225.768426 188.863575 
L 228.593075 193.090692 
L 231.417724 193.106881 
L 234.242373 192.229566 
L 237.067022 189.71605 
L 239.891671 189.688029 
L 242.71632 185.905916 
L 245.540969 186.136643 
L 248.365618 187.01895 
L 251.190267 185.478084 
L 254.014916 188.824402 
L 256.839565 187.596917 
L 262.488863 189.770414 
L 265.313512 188.437313 
L 268.138161 189.480007 
L 270.96281 191.625886 
L 273.78746 189.2644 
L 276.612109 187.929126 
L 279.436758 190.446577 
L 282.261407 191.162581 
L 285.086056 190.556112 
L 287.910705 190.573817 
L 290.735354 187.28807 
L 293.560003 193.322217 
L 296.384652 189.652389 
L 299.209301 192.555965 
L 302.03395 190.023809 
L 304.858599 190.332229 
L 307.683248 189.828426 
L 310.507897 189.62991 
L 313.332546 193.347452 
L 316.157195 188.934462 
L 318.981844 190.331927 
L 321.806493 189.939348 
L 324.631142 193.202843 
L 327.455791 190.209739 
L 330.28044 192.641211 
L 333.105089 190.4344 
L 335.929738 189.111655 
L 338.754387 188.437634 
L 341.579036 186.140015 
L 344.403685 186.397825 
L 347.228334 184.476085 
L 350.052983 189.32174 
L 352.877632 188.758151 
L 355.702281 185.500665 
L 358.52693 184.954382 
L 361.351579 186.603228 
L 364.176228 189.250954 
L 367.000877 186.003414 
L 369.825526 185.333369 
L 372.650175 191.841616 
L 375.474825 189.686211 
L 378.299474 189.305058 
L 381.124123 187.806629 
L 383.948772 186.532264 
L 386.773421 190.061941 
L 389.59807 189.762084 
L 392.422719 187.173086 
L 395.247368 188.660048 
L 398.072017 190.91522 
L 400.896666 192.71965 
L 403.721315 193.158679 
L 406.545964 190.441392 
L 409.370613 193.039217 
L 412.195262 191.066994 
L 415.019911 193.981076 
L 417.84456 191.708757 
L 420.669209 188.605306 
L 423.493858 192.203894 
L 426.318507 192.144272 
L 429.143156 194.123989 
L 431.967805 193.11681 
L 434.792454 193.262265 
L 437.617103 195.194263 
L 440.441752 193.580704 
L 443.266401 191.277797 
L 446.09105 194.816016 
L 448.915699 197.044812 
L 451.740348 194.469705 
L 454.564997 194.807763 
L 457.389646 196.452522 
L 460.214295 195.723245 
L 463.038944 195.40023 
L 465.863593 196.007561 
L 468.688242 193.814652 
L 471.512891 196.986416 
L 474.33754 195.311713 
L 477.16219 196.543736 
L 479.986839 194.022813 
L 482.811488 194.15361 
L 485.636137 194.128684 
L 488.460786 194.474117 
L 491.285435 196.421928 
L 494.110084 197.063714 
L 496.934733 194.724708 
L 499.759382 195.768261 
L 502.584031 193.748471 
L 505.40868 196.732886 
L 508.233329 194.278874 
L 511.057978 196.614035 
L 513.882627 194.825213 
L 516.707276 196.229623 
L 519.531925 196.285795 
L 522.356574 196.780072 
L 525.181223 195.51928 
L 528.005872 194.101626 
L 530.830521 194.95885 
L 533.65517 194.834462 
L 536.479819 196.941552 
L 539.304468 195.862853 
L 542.129117 197.307933 
L 544.953766 197.89067 
L 547.778415 193.935872 
L 550.603064 195.38899 
L 553.427713 195.144693 
L 556.252362 197.85791 
L 561.90166 197.841056 
L 564.726309 198.920586 
L 567.550958 199.627194 
L 570.375607 199.062028 
L 573.200256 198.362815 
L 576.024906 201.045774 
L 578.849555 196.242816 
L 581.674204 199.53819 
L 584.498853 197.307207 
L 587.323502 200.344804 
L 592.9728 198.536678 
L 598.622098 196.62384 
L 601.446747 197.111697 
L 604.271396 197.303463 
L 607.096045 198.667614 
L 609.920694 197.759999 
L 612.745343 196.085774 
L 615.569992 198.743799 
L 618.394641 197.745964 
L 621.21929 197.596787 
L 624.043939 196.601512 
L 626.868588 197.180356 
L 629.693237 197.56087 
L 632.517886 197.260531 
L 635.342535 197.558864 
L 635.342535 197.558864 
" style="fill:none;stroke:#00bfbf;stroke-linecap:square;stroke-width:1.2;"/>
   </g>
   <g id="line2d_5">
    <path clip-path="url(#p0b4c613354)" d="M 112.782465 53.981898 
L 115.607114 65.094449 
L 118.431763 50.625292 
L 121.256412 57.540903 
L 124.081061 61.16196 
L 126.90571 57.7504 
L 129.730359 51.572084 
L 132.555008 58.892357 
L 135.379657 62.354119 
L 138.204306 58.795926 
L 141.028955 58.691318 
L 143.853604 48.814852 
L 146.678253 56.220712 
L 149.502902 52.973694 
L 152.327551 63.456344 
L 155.1522 56.520432 
L 157.976849 56.977532 
L 160.801498 56.262538 
L 163.626147 60.736886 
L 166.450796 62.012839 
L 169.275445 60.903102 
L 172.100094 55.566765 
L 174.924744 59.806511 
L 177.749393 64.281966 
L 180.574042 54.580797 
L 183.398691 60.130161 
L 186.22334 52.21173 
L 189.047989 59.885285 
L 191.872638 54.890073 
L 194.697287 55.971897 
L 197.521936 56.101643 
L 200.346585 59.003659 
L 203.171234 60.809358 
L 205.995883 53.861173 
L 208.820532 54.625617 
L 211.645181 60.472357 
L 214.46983 51.933436 
L 217.294479 59.915544 
L 220.119128 54.078369 
L 222.943777 52.856024 
L 225.768426 60.109858 
L 228.593075 58.326061 
L 231.417724 57.10668 
L 234.242373 54.440467 
L 237.067022 62.725131 
L 239.891671 57.401229 
L 242.71632 59.159223 
L 245.540969 66.247128 
L 248.365618 63.237196 
L 251.190267 55.262117 
L 254.014916 54.589579 
L 256.839565 60.972919 
L 259.664214 61.148504 
L 262.488863 55.468912 
L 265.313512 55.182255 
L 268.138161 57.063044 
L 270.96281 51.630931 
L 273.78746 62.589156 
L 276.612109 60.814518 
L 279.436758 67.447389 
L 282.261407 54.353053 
L 285.086056 61.676466 
L 287.910705 58.808971 
L 290.735354 58.23528 
L 293.560003 55.861232 
L 296.384652 61.404156 
L 299.209301 59.131045 
L 302.03395 57.840083 
L 304.858599 62.337295 
L 307.683248 59.077683 
L 310.507897 60.447306 
L 313.332546 65.660781 
L 316.157195 62.433717 
L 318.981844 59.54269 
L 321.806493 54.760035 
L 324.631142 56.942304 
L 327.455791 58.300069 
L 330.28044 58.409548 
L 333.105089 54.598885 
L 335.929738 62.301992 
L 338.754387 60.972998 
L 341.579036 64.245206 
L 344.403685 57.312934 
L 347.228334 63.681763 
L 350.052983 61.049426 
L 352.877632 54.753959 
L 355.702281 59.795983 
L 358.52693 55.57283 
L 361.351579 57.365106 
L 364.176228 56.280006 
L 367.000877 64.170934 
L 369.825526 62.734022 
L 372.650175 54.547494 
L 375.474825 58.498033 
L 378.299474 54.674165 
L 381.124123 61.924477 
L 383.948772 53.751267 
L 386.773421 60.394186 
L 389.59807 55.956485 
L 392.422719 59.067656 
L 395.247368 60.90975 
L 398.072017 60.387503 
L 400.896666 51.384481 
L 403.721315 57.954555 
L 406.545964 57.544102 
L 409.370613 61.680799 
L 412.195262 63.309592 
L 415.019911 55.528888 
L 417.84456 56.728859 
L 420.669209 64.991273 
L 423.493858 62.515645 
L 426.318507 58.171303 
L 429.143156 53.349421 
L 431.967805 60.558786 
L 434.792454 59.823305 
L 437.617103 59.486288 
L 440.441752 60.195624 
L 443.266401 65.832943 
L 446.09105 62.202079 
L 448.915699 61.834005 
L 451.740348 59.470957 
L 454.564997 63.37425 
L 457.389646 55.434928 
L 460.214295 55.476375 
L 463.038944 62.861324 
L 465.863593 59.022133 
L 468.688242 55.764047 
L 471.512891 53.834827 
L 474.33754 58.114927 
L 477.16219 51.824704 
L 479.986839 59.361807 
L 482.811488 68.041781 
L 485.636137 57.394419 
L 488.460786 59.753225 
L 491.285435 61.390636 
L 494.110084 55.300563 
L 496.934733 59.816943 
L 499.759382 60.507622 
L 502.584031 58.983279 
L 505.40868 61.867955 
L 508.233329 60.981783 
L 511.057978 61.681326 
L 513.882627 53.35799 
L 516.707276 57.566791 
L 519.531925 63.700579 
L 522.356574 54.916082 
L 525.181223 53.076037 
L 528.005872 59.625781 
L 530.830521 58.807367 
L 533.65517 59.265936 
L 536.479819 61.685383 
L 539.304468 55.704413 
L 542.129117 58.642902 
L 544.953766 61.095049 
L 550.603064 63.957978 
L 553.427713 64.424987 
L 556.252362 63.025733 
L 559.077011 59.914642 
L 561.90166 58.196435 
L 564.726309 63.559337 
L 567.550958 53.255375 
L 573.200256 56.079427 
L 576.024906 59.547972 
L 578.849555 60.775009 
L 581.674204 56.35294 
L 584.498853 60.879113 
L 587.323502 60.883042 
L 590.148151 62.56394 
L 592.9728 67.156666 
L 595.797449 62.260794 
L 598.622098 58.651933 
L 601.446747 61.253734 
L 604.271396 62.847808 
L 604.271396 62.847808 
" style="fill:none;stroke:#bf00bf;stroke-linecap:square;stroke-width:1.2;"/>
   </g>
   <g id="patch_3">
    <path d="M 112.5 324 
L 112.5 36 
" style="fill:none;stroke:#000000;stroke-linecap:square;stroke-linejoin:miter;"/>
   </g>
   <g id="patch_4">
    <path d="M 635.625 324 
L 635.625 36 
" style="fill:none;stroke:#000000;stroke-linecap:square;stroke-linejoin:miter;"/>
   </g>
   <g id="patch_5">
    <path d="M 112.5 324 
L 635.625 324 
" style="fill:none;stroke:#000000;stroke-linecap:square;stroke-linejoin:miter;"/>
   </g>
   <g id="patch_6">
    <path d="M 112.5 36 
L 635.625 36 
" style="fill:none;stroke:#000000;stroke-linecap:square;stroke-linejoin:miter;"/>
   </g>
   <g id="matplotlib.axis_1">
    <g id="xtick_1">
     <g id="line2d_6">
      <defs>
       <path d="M 0 0 
L 0 -4 
" id="mec62b67f05" style="stroke:#000000;stroke-width:0.5;"/>
      </defs>
      <g>
       <use style="stroke:#000000;stroke-width:0.5;" x="112.782465" xlink:href="#mec62b67f05" y="324"/>
      </g>
     </g>
     <g id="line2d_7">
      <defs>
       <path d="M 0 0 
L 0 4 
" id="me852461109" style="stroke:#000000;stroke-width:0.5;"/>
      </defs>
      <g>
       <use style="stroke:#000000;stroke-width:0.5;" x="112.782465" xlink:href="#me852461109" y="36"/>
      </g>
     </g>
     <g id="text_1">
      <!-- 0 -->
      <defs>
       <path d="M 31.78125 66.40625 
Q 24.171875 66.40625 20.328125 58.90625 
Q 16.5 51.421875 16.5 36.375 
Q 16.5 21.390625 20.328125 13.890625 
Q 24.171875 6.390625 31.78125 6.390625 
Q 39.453125 6.390625 43.28125 13.890625 
Q 47.125 21.390625 47.125 36.375 
Q 47.125 51.421875 43.28125 58.90625 
Q 39.453125 66.40625 31.78125 66.40625 
z
M 31.78125 74.21875 
Q 44.046875 74.21875 50.515625 64.515625 
Q 56.984375 54.828125 56.984375 36.375 
Q 56.984375 17.96875 50.515625 8.265625 
Q 44.046875 -1.421875 31.78125 -1.421875 
Q 19.53125 -1.421875 13.0625 8.265625 
Q 6.59375 17.96875 6.59375 36.375 
Q 6.59375 54.828125 13.0625 64.515625 
Q 19.53125 74.21875 31.78125 74.21875 
z
" id="DejaVuSans-48"/>
      </defs>
      <g transform="translate(108.964965 337.118125)scale(0.12 -0.12)">
       <use xlink:href="#DejaVuSans-48"/>
      </g>
     </g>
    </g>
    <g id="xtick_2">
     <g id="line2d_8">
      <g>
       <use style="stroke:#000000;stroke-width:0.5;" x="166.450796" xlink:href="#mec62b67f05" y="324"/>
      </g>
     </g>
     <g id="line2d_9">
      <g>
       <use style="stroke:#000000;stroke-width:0.5;" x="166.450796" xlink:href="#me852461109" y="36"/>
      </g>
     </g>
     <g id="text_2">
      <!-- 19 -->
      <defs>
       <path d="M 12.40625 8.296875 
L 28.515625 8.296875 
L 28.515625 63.921875 
L 10.984375 60.40625 
L 10.984375 69.390625 
L 28.421875 72.90625 
L 38.28125 72.90625 
L 38.28125 8.296875 
L 54.390625 8.296875 
L 54.390625 0 
L 12.40625 0 
z
" id="DejaVuSans-49"/>
       <path d="M 10.984375 1.515625 
L 10.984375 10.5 
Q 14.703125 8.734375 18.5 7.8125 
Q 22.3125 6.890625 25.984375 6.890625 
Q 35.75 6.890625 40.890625 13.453125 
Q 46.046875 20.015625 46.78125 33.40625 
Q 43.953125 29.203125 39.59375 26.953125 
Q 35.25 24.703125 29.984375 24.703125 
Q 19.046875 24.703125 12.671875 31.3125 
Q 6.296875 37.9375 6.296875 49.421875 
Q 6.296875 60.640625 12.9375 67.421875 
Q 19.578125 74.21875 30.609375 74.21875 
Q 43.265625 74.21875 49.921875 64.515625 
Q 56.59375 54.828125 56.59375 36.375 
Q 56.59375 19.140625 48.40625 8.859375 
Q 40.234375 -1.421875 26.421875 -1.421875 
Q 22.703125 -1.421875 18.890625 -0.6875 
Q 15.09375 0.046875 10.984375 1.515625 
z
M 30.609375 32.421875 
Q 37.25 32.421875 41.125 36.953125 
Q 45.015625 41.5 45.015625 49.421875 
Q 45.015625 57.28125 41.125 61.84375 
Q 37.25 66.40625 30.609375 66.40625 
Q 23.96875 66.40625 20.09375 61.84375 
Q 16.21875 57.28125 16.21875 49.421875 
Q 16.21875 41.5 20.09375 36.953125 
Q 23.96875 32.421875 30.609375 32.421875 
z
" id="DejaVuSans-57"/>
      </defs>
      <g transform="translate(158.815796 337.118125)scale(0.12 -0.12)">
       <use xlink:href="#DejaVuSans-49"/>
       <use x="63.623047" xlink:href="#DejaVuSans-57"/>
      </g>
     </g>
    </g>
    <g id="xtick_3">
     <g id="line2d_10">
      <g>
       <use style="stroke:#000000;stroke-width:0.5;" x="220.119128" xlink:href="#mec62b67f05" y="324"/>
      </g>
     </g>
     <g id="line2d_11">
      <g>
       <use style="stroke:#000000;stroke-width:0.5;" x="220.119128" xlink:href="#me852461109" y="36"/>
      </g>
     </g>
     <g id="text_3">
      <!-- 38 -->
      <defs>
       <path d="M 40.578125 39.3125 
Q 47.65625 37.796875 51.625 33 
Q 55.609375 28.21875 55.609375 21.1875 
Q 55.609375 10.40625 48.1875 4.484375 
Q 40.765625 -1.421875 27.09375 -1.421875 
Q 22.515625 -1.421875 17.65625 -0.515625 
Q 12.796875 0.390625 7.625 2.203125 
L 7.625 11.71875 
Q 11.71875 9.328125 16.59375 8.109375 
Q 21.484375 6.890625 26.8125 6.890625 
Q 36.078125 6.890625 40.9375 10.546875 
Q 45.796875 14.203125 45.796875 21.1875 
Q 45.796875 27.640625 41.28125 31.265625 
Q 36.765625 34.90625 28.71875 34.90625 
L 20.21875 34.90625 
L 20.21875 43.015625 
L 29.109375 43.015625 
Q 36.375 43.015625 40.234375 45.921875 
Q 44.09375 48.828125 44.09375 54.296875 
Q 44.09375 59.90625 40.109375 62.90625 
Q 36.140625 65.921875 28.71875 65.921875 
Q 24.65625 65.921875 20.015625 65.03125 
Q 15.375 64.15625 9.8125 62.3125 
L 9.8125 71.09375 
Q 15.4375 72.65625 20.34375 73.4375 
Q 25.25 74.21875 29.59375 74.21875 
Q 40.828125 74.21875 47.359375 69.109375 
Q 53.90625 64.015625 53.90625 55.328125 
Q 53.90625 49.265625 50.4375 45.09375 
Q 46.96875 40.921875 40.578125 39.3125 
z
" id="DejaVuSans-51"/>
       <path d="M 31.78125 34.625 
Q 24.75 34.625 20.71875 30.859375 
Q 16.703125 27.09375 16.703125 20.515625 
Q 16.703125 13.921875 20.71875 10.15625 
Q 24.75 6.390625 31.78125 6.390625 
Q 38.8125 6.390625 42.859375 10.171875 
Q 46.921875 13.96875 46.921875 20.515625 
Q 46.921875 27.09375 42.890625 30.859375 
Q 38.875 34.625 31.78125 34.625 
z
M 21.921875 38.8125 
Q 15.578125 40.375 12.03125 44.71875 
Q 8.5 49.078125 8.5 55.328125 
Q 8.5 64.0625 14.71875 69.140625 
Q 20.953125 74.21875 31.78125 74.21875 
Q 42.671875 74.21875 48.875 69.140625 
Q 55.078125 64.0625 55.078125 55.328125 
Q 55.078125 49.078125 51.53125 44.71875 
Q 48 40.375 41.703125 38.8125 
Q 48.828125 37.15625 52.796875 32.3125 
Q 56.78125 27.484375 56.78125 20.515625 
Q 56.78125 9.90625 50.3125 4.234375 
Q 43.84375 -1.421875 31.78125 -1.421875 
Q 19.734375 -1.421875 13.25 4.234375 
Q 6.78125 9.90625 6.78125 20.515625 
Q 6.78125 27.484375 10.78125 32.3125 
Q 14.796875 37.15625 21.921875 38.8125 
z
M 18.3125 54.390625 
Q 18.3125 48.734375 21.84375 45.5625 
Q 25.390625 42.390625 31.78125 42.390625 
Q 38.140625 42.390625 41.71875 45.5625 
Q 45.3125 48.734375 45.3125 54.390625 
Q 45.3125 60.0625 41.71875 63.234375 
Q 38.140625 66.40625 31.78125 66.40625 
Q 25.390625 66.40625 21.84375 63.234375 
Q 18.3125 60.0625 18.3125 54.390625 
z
" id="DejaVuSans-56"/>
      </defs>
      <g transform="translate(212.484128 337.118125)scale(0.12 -0.12)">
       <use xlink:href="#DejaVuSans-51"/>
       <use x="63.623047" xlink:href="#DejaVuSans-56"/>
      </g>
     </g>
    </g>
    <g id="xtick_4">
     <g id="line2d_12">
      <g>
       <use style="stroke:#000000;stroke-width:0.5;" x="273.78746" xlink:href="#mec62b67f05" y="324"/>
      </g>
     </g>
     <g id="line2d_13">
      <g>
       <use style="stroke:#000000;stroke-width:0.5;" x="273.78746" xlink:href="#me852461109" y="36"/>
      </g>
     </g>
     <g id="text_4">
      <!-- 57 -->
      <defs>
       <path d="M 10.796875 72.90625 
L 49.515625 72.90625 
L 49.515625 64.59375 
L 19.828125 64.59375 
L 19.828125 46.734375 
Q 21.96875 47.46875 24.109375 47.828125 
Q 26.265625 48.1875 28.421875 48.1875 
Q 40.625 48.1875 47.75 41.5 
Q 54.890625 34.8125 54.890625 23.390625 
Q 54.890625 11.625 47.5625 5.09375 
Q 40.234375 -1.421875 26.90625 -1.421875 
Q 22.3125 -1.421875 17.546875 -0.640625 
Q 12.796875 0.140625 7.71875 1.703125 
L 7.71875 11.625 
Q 12.109375 9.234375 16.796875 8.0625 
Q 21.484375 6.890625 26.703125 6.890625 
Q 35.15625 6.890625 40.078125 11.328125 
Q 45.015625 15.765625 45.015625 23.390625 
Q 45.015625 31 40.078125 35.4375 
Q 35.15625 39.890625 26.703125 39.890625 
Q 22.75 39.890625 18.8125 39.015625 
Q 14.890625 38.140625 10.796875 36.28125 
z
" id="DejaVuSans-53"/>
       <path d="M 8.203125 72.90625 
L 55.078125 72.90625 
L 55.078125 68.703125 
L 28.609375 0 
L 18.3125 0 
L 43.21875 64.59375 
L 8.203125 64.59375 
z
" id="DejaVuSans-55"/>
      </defs>
      <g transform="translate(266.15246 337.118125)scale(0.12 -0.12)">
       <use xlink:href="#DejaVuSans-53"/>
       <use x="63.623047" xlink:href="#DejaVuSans-55"/>
      </g>
     </g>
    </g>
    <g id="xtick_5">
     <g id="line2d_14">
      <g>
       <use style="stroke:#000000;stroke-width:0.5;" x="327.455791" xlink:href="#mec62b67f05" y="324"/>
      </g>
     </g>
     <g id="line2d_15">
      <g>
       <use style="stroke:#000000;stroke-width:0.5;" x="327.455791" xlink:href="#me852461109" y="36"/>
      </g>
     </g>
     <g id="text_5">
      <!-- 76 -->
      <defs>
       <path d="M 33.015625 40.375 
Q 26.375 40.375 22.484375 35.828125 
Q 18.609375 31.296875 18.609375 23.390625 
Q 18.609375 15.53125 22.484375 10.953125 
Q 26.375 6.390625 33.015625 6.390625 
Q 39.65625 6.390625 43.53125 10.953125 
Q 47.40625 15.53125 47.40625 23.390625 
Q 47.40625 31.296875 43.53125 35.828125 
Q 39.65625 40.375 33.015625 40.375 
z
M 52.59375 71.296875 
L 52.59375 62.3125 
Q 48.875 64.0625 45.09375 64.984375 
Q 41.3125 65.921875 37.59375 65.921875 
Q 27.828125 65.921875 22.671875 59.328125 
Q 17.53125 52.734375 16.796875 39.40625 
Q 19.671875 43.65625 24.015625 45.921875 
Q 28.375 48.1875 33.59375 48.1875 
Q 44.578125 48.1875 50.953125 41.515625 
Q 57.328125 34.859375 57.328125 23.390625 
Q 57.328125 12.15625 50.6875 5.359375 
Q 44.046875 -1.421875 33.015625 -1.421875 
Q 20.359375 -1.421875 13.671875 8.265625 
Q 6.984375 17.96875 6.984375 36.375 
Q 6.984375 53.65625 15.1875 63.9375 
Q 23.390625 74.21875 37.203125 74.21875 
Q 40.921875 74.21875 44.703125 73.484375 
Q 48.484375 72.75 52.59375 71.296875 
z
" id="DejaVuSans-54"/>
      </defs>
      <g transform="translate(319.820791 337.118125)scale(0.12 -0.12)">
       <use xlink:href="#DejaVuSans-55"/>
       <use x="63.623047" xlink:href="#DejaVuSans-54"/>
      </g>
     </g>
    </g>
    <g id="xtick_6">
     <g id="line2d_16">
      <g>
       <use style="stroke:#000000;stroke-width:0.5;" x="381.124123" xlink:href="#mec62b67f05" y="324"/>
      </g>
     </g>
     <g id="line2d_17">
      <g>
       <use style="stroke:#000000;stroke-width:0.5;" x="381.124123" xlink:href="#me852461109" y="36"/>
      </g>
     </g>
     <g id="text_6">
      <!-- 95 -->
      <g transform="translate(373.489123 337.118125)scale(0.12 -0.12)">
       <use xlink:href="#DejaVuSans-57"/>
       <use x="63.623047" xlink:href="#DejaVuSans-53"/>
      </g>
     </g>
    </g>
    <g id="xtick_7">
     <g id="line2d_18">
      <g>
       <use style="stroke:#000000;stroke-width:0.5;" x="434.792454" xlink:href="#mec62b67f05" y="324"/>
      </g>
     </g>
     <g id="line2d_19">
      <g>
       <use style="stroke:#000000;stroke-width:0.5;" x="434.792454" xlink:href="#me852461109" y="36"/>
      </g>
     </g>
     <g id="text_7">
      <!-- 114 -->
      <defs>
       <path d="M 37.796875 64.3125 
L 12.890625 25.390625 
L 37.796875 25.390625 
z
M 35.203125 72.90625 
L 47.609375 72.90625 
L 47.609375 25.390625 
L 58.015625 25.390625 
L 58.015625 17.1875 
L 47.609375 17.1875 
L 47.609375 0 
L 37.796875 0 
L 37.796875 17.1875 
L 4.890625 17.1875 
L 4.890625 26.703125 
z
" id="DejaVuSans-52"/>
      </defs>
      <g transform="translate(423.339954 337.118125)scale(0.12 -0.12)">
       <use xlink:href="#DejaVuSans-49"/>
       <use x="63.623047" xlink:href="#DejaVuSans-49"/>
       <use x="127.246094" xlink:href="#DejaVuSans-52"/>
      </g>
     </g>
    </g>
    <g id="xtick_8">
     <g id="line2d_20">
      <g>
       <use style="stroke:#000000;stroke-width:0.5;" x="488.460786" xlink:href="#mec62b67f05" y="324"/>
      </g>
     </g>
     <g id="line2d_21">
      <g>
       <use style="stroke:#000000;stroke-width:0.5;" x="488.460786" xlink:href="#me852461109" y="36"/>
      </g>
     </g>
     <g id="text_8">
      <!-- 133 -->
      <g transform="translate(477.008286 337.118125)scale(0.12 -0.12)">
       <use xlink:href="#DejaVuSans-49"/>
       <use x="63.623047" xlink:href="#DejaVuSans-51"/>
       <use x="127.246094" xlink:href="#DejaVuSans-51"/>
      </g>
     </g>
    </g>
    <g id="xtick_9">
     <g id="line2d_22">
      <g>
       <use style="stroke:#000000;stroke-width:0.5;" x="542.129117" xlink:href="#mec62b67f05" y="324"/>
      </g>
     </g>
     <g id="line2d_23">
      <g>
       <use style="stroke:#000000;stroke-width:0.5;" x="542.129117" xlink:href="#me852461109" y="36"/>
      </g>
     </g>
     <g id="text_9">
      <!-- 152 -->
      <defs>
       <path d="M 19.1875 8.296875 
L 53.609375 8.296875 
L 53.609375 0 
L 7.328125 0 
L 7.328125 8.296875 
Q 12.9375 14.109375 22.625 23.890625 
Q 32.328125 33.6875 34.8125 36.53125 
Q 39.546875 41.84375 41.421875 45.53125 
Q 43.3125 49.21875 43.3125 52.78125 
Q 43.3125 58.59375 39.234375 62.25 
Q 35.15625 65.921875 28.609375 65.921875 
Q 23.96875 65.921875 18.8125 64.3125 
Q 13.671875 62.703125 7.8125 59.421875 
L 7.8125 69.390625 
Q 13.765625 71.78125 18.9375 73 
Q 24.125 74.21875 28.421875 74.21875 
Q 39.75 74.21875 46.484375 68.546875 
Q 53.21875 62.890625 53.21875 53.421875 
Q 53.21875 48.921875 51.53125 44.890625 
Q 49.859375 40.875 45.40625 35.40625 
Q 44.1875 33.984375 37.640625 27.21875 
Q 31.109375 20.453125 19.1875 8.296875 
z
" id="DejaVuSans-50"/>
      </defs>
      <g transform="translate(530.676617 337.118125)scale(0.12 -0.12)">
       <use xlink:href="#DejaVuSans-49"/>
       <use x="63.623047" xlink:href="#DejaVuSans-53"/>
       <use x="127.246094" xlink:href="#DejaVuSans-50"/>
      </g>
     </g>
    </g>
    <g id="xtick_10">
     <g id="line2d_24">
      <g>
       <use style="stroke:#000000;stroke-width:0.5;" x="595.797449" xlink:href="#mec62b67f05" y="324"/>
      </g>
     </g>
     <g id="line2d_25">
      <g>
       <use style="stroke:#000000;stroke-width:0.5;" x="595.797449" xlink:href="#me852461109" y="36"/>
      </g>
     </g>
     <g id="text_10">
      <!-- 171 -->
      <g transform="translate(584.344949 337.118125)scale(0.12 -0.12)">
       <use xlink:href="#DejaVuSans-49"/>
       <use x="63.623047" xlink:href="#DejaVuSans-55"/>
       <use x="127.246094" xlink:href="#DejaVuSans-49"/>
      </g>
     </g>
    </g>
    <g id="text_11">
     <!-- generation -->
     <defs>
      <path d="M 45.40625 27.984375 
Q 45.40625 37.75 41.375 43.109375 
Q 37.359375 48.484375 30.078125 48.484375 
Q 22.859375 48.484375 18.828125 43.109375 
Q 14.796875 37.75 14.796875 27.984375 
Q 14.796875 18.265625 18.828125 12.890625 
Q 22.859375 7.515625 30.078125 7.515625 
Q 37.359375 7.515625 41.375 12.890625 
Q 45.40625 18.265625 45.40625 27.984375 
z
M 54.390625 6.78125 
Q 54.390625 -7.171875 48.1875 -13.984375 
Q 42 -20.796875 29.203125 -20.796875 
Q 24.46875 -20.796875 20.265625 -20.09375 
Q 16.0625 -19.390625 12.109375 -17.921875 
L 12.109375 -9.1875 
Q 16.0625 -11.328125 19.921875 -12.34375 
Q 23.78125 -13.375 27.78125 -13.375 
Q 36.625 -13.375 41.015625 -8.765625 
Q 45.40625 -4.15625 45.40625 5.171875 
L 45.40625 9.625 
Q 42.625 4.78125 38.28125 2.390625 
Q 33.9375 0 27.875 0 
Q 17.828125 0 11.671875 7.65625 
Q 5.515625 15.328125 5.515625 27.984375 
Q 5.515625 40.671875 11.671875 48.328125 
Q 17.828125 56 27.875 56 
Q 33.9375 56 38.28125 53.609375 
Q 42.625 51.21875 45.40625 46.390625 
L 45.40625 54.6875 
L 54.390625 54.6875 
z
" id="DejaVuSans-103"/>
      <path d="M 56.203125 29.59375 
L 56.203125 25.203125 
L 14.890625 25.203125 
Q 15.484375 15.921875 20.484375 11.0625 
Q 25.484375 6.203125 34.421875 6.203125 
Q 39.59375 6.203125 44.453125 7.46875 
Q 49.3125 8.734375 54.109375 11.28125 
L 54.109375 2.78125 
Q 49.265625 0.734375 44.1875 -0.34375 
Q 39.109375 -1.421875 33.890625 -1.421875 
Q 20.796875 -1.421875 13.15625 6.1875 
Q 5.515625 13.8125 5.515625 26.8125 
Q 5.515625 40.234375 12.765625 48.109375 
Q 20.015625 56 32.328125 56 
Q 43.359375 56 49.78125 48.890625 
Q 56.203125 41.796875 56.203125 29.59375 
z
M 47.21875 32.234375 
Q 47.125 39.59375 43.09375 43.984375 
Q 39.0625 48.390625 32.421875 48.390625 
Q 24.90625 48.390625 20.390625 44.140625 
Q 15.875 39.890625 15.1875 32.171875 
z
" id="DejaVuSans-101"/>
      <path d="M 54.890625 33.015625 
L 54.890625 0 
L 45.90625 0 
L 45.90625 32.71875 
Q 45.90625 40.484375 42.875 44.328125 
Q 39.84375 48.1875 33.796875 48.1875 
Q 26.515625 48.1875 22.3125 43.546875 
Q 18.109375 38.921875 18.109375 30.90625 
L 18.109375 0 
L 9.078125 0 
L 9.078125 54.6875 
L 18.109375 54.6875 
L 18.109375 46.1875 
Q 21.34375 51.125 25.703125 53.5625 
Q 30.078125 56 35.796875 56 
Q 45.21875 56 50.046875 50.171875 
Q 54.890625 44.34375 54.890625 33.015625 
z
" id="DejaVuSans-110"/>
      <path d="M 41.109375 46.296875 
Q 39.59375 47.171875 37.8125 47.578125 
Q 36.03125 48 33.890625 48 
Q 26.265625 48 22.1875 43.046875 
Q 18.109375 38.09375 18.109375 28.8125 
L 18.109375 0 
L 9.078125 0 
L 9.078125 54.6875 
L 18.109375 54.6875 
L 18.109375 46.1875 
Q 20.953125 51.171875 25.484375 53.578125 
Q 30.03125 56 36.53125 56 
Q 37.453125 56 38.578125 55.875 
Q 39.703125 55.765625 41.0625 55.515625 
z
" id="DejaVuSans-114"/>
      <path d="M 34.28125 27.484375 
Q 23.390625 27.484375 19.1875 25 
Q 14.984375 22.515625 14.984375 16.5 
Q 14.984375 11.71875 18.140625 8.90625 
Q 21.296875 6.109375 26.703125 6.109375 
Q 34.1875 6.109375 38.703125 11.40625 
Q 43.21875 16.703125 43.21875 25.484375 
L 43.21875 27.484375 
z
M 52.203125 31.203125 
L 52.203125 0 
L 43.21875 0 
L 43.21875 8.296875 
Q 40.140625 3.328125 35.546875 0.953125 
Q 30.953125 -1.421875 24.3125 -1.421875 
Q 15.921875 -1.421875 10.953125 3.296875 
Q 6 8.015625 6 15.921875 
Q 6 25.140625 12.171875 29.828125 
Q 18.359375 34.515625 30.609375 34.515625 
L 43.21875 34.515625 
L 43.21875 35.40625 
Q 43.21875 41.609375 39.140625 45 
Q 35.0625 48.390625 27.6875 48.390625 
Q 23 48.390625 18.546875 47.265625 
Q 14.109375 46.140625 10.015625 43.890625 
L 10.015625 52.203125 
Q 14.9375 54.109375 19.578125 55.046875 
Q 24.21875 56 28.609375 56 
Q 40.484375 56 46.34375 49.84375 
Q 52.203125 43.703125 52.203125 31.203125 
z
" id="DejaVuSans-97"/>
      <path d="M 18.3125 70.21875 
L 18.3125 54.6875 
L 36.8125 54.6875 
L 36.8125 47.703125 
L 18.3125 47.703125 
L 18.3125 18.015625 
Q 18.3125 11.328125 20.140625 9.421875 
Q 21.96875 7.515625 27.59375 7.515625 
L 36.8125 7.515625 
L 36.8125 0 
L 27.59375 0 
Q 17.1875 0 13.234375 3.875 
Q 9.28125 7.765625 9.28125 18.015625 
L 9.28125 47.703125 
L 2.6875 47.703125 
L 2.6875 54.6875 
L 9.28125 54.6875 
L 9.28125 70.21875 
z
" id="DejaVuSans-116"/>
      <path d="M 9.421875 54.6875 
L 18.40625 54.6875 
L 18.40625 0 
L 9.421875 0 
z
M 9.421875 75.984375 
L 18.40625 75.984375 
L 18.40625 64.59375 
L 9.421875 64.59375 
z
" id="DejaVuSans-105"/>
      <path d="M 30.609375 48.390625 
Q 23.390625 48.390625 19.1875 42.75 
Q 14.984375 37.109375 14.984375 27.296875 
Q 14.984375 17.484375 19.15625 11.84375 
Q 23.34375 6.203125 30.609375 6.203125 
Q 37.796875 6.203125 41.984375 11.859375 
Q 46.1875 17.53125 46.1875 27.296875 
Q 46.1875 37.015625 41.984375 42.703125 
Q 37.796875 48.390625 30.609375 48.390625 
z
M 30.609375 56 
Q 42.328125 56 49.015625 48.375 
Q 55.71875 40.765625 55.71875 27.296875 
Q 55.71875 13.875 49.015625 6.21875 
Q 42.328125 -1.421875 30.609375 -1.421875 
Q 18.84375 -1.421875 12.171875 6.21875 
Q 5.515625 13.875 5.515625 27.296875 
Q 5.515625 40.765625 12.171875 48.375 
Q 18.84375 56 30.609375 56 
z
" id="DejaVuSans-111"/>
     </defs>
     <g transform="translate(341.430938 353.731875)scale(0.12 -0.12)">
      <use xlink:href="#DejaVuSans-103"/>
      <use x="63.476562" xlink:href="#DejaVuSans-101"/>
      <use x="125" xlink:href="#DejaVuSans-110"/>
      <use x="188.378906" xlink:href="#DejaVuSans-101"/>
      <use x="249.902344" xlink:href="#DejaVuSans-114"/>
      <use x="291.015625" xlink:href="#DejaVuSans-97"/>
      <use x="352.294922" xlink:href="#DejaVuSans-116"/>
      <use x="391.503906" xlink:href="#DejaVuSans-105"/>
      <use x="419.287109" xlink:href="#DejaVuSans-111"/>
      <use x="480.46875" xlink:href="#DejaVuSans-110"/>
     </g>
    </g>
   </g>
   <g id="matplotlib.axis_2">
    <g id="ytick_1">
     <g id="line2d_26">
      <defs>
       <path d="M 0 0 
L 4 0 
" id="m6be816f949" style="stroke:#000000;stroke-width:0.5;"/>
      </defs>
      <g>
       <use style="stroke:#000000;stroke-width:0.5;" x="112.5" xlink:href="#m6be816f949" y="324"/>
      </g>
     </g>
     <g id="line2d_27">
      <defs>
       <path d="M 0 0 
L -4 0 
" id="m17d94e70a0" style="stroke:#000000;stroke-width:0.5;"/>
      </defs>
      <g>
       <use style="stroke:#000000;stroke-width:0.5;" x="635.625" xlink:href="#m17d94e70a0" y="324"/>
      </g>
     </g>
     <g id="text_12">
      <!-- 0.0 -->
      <defs>
       <path d="M 10.6875 12.40625 
L 21 12.40625 
L 21 0 
L 10.6875 0 
z
" id="DejaVuSans-46"/>
      </defs>
      <g transform="translate(89.41625 327.31125)scale(0.12 -0.12)">
       <use xlink:href="#DejaVuSans-48"/>
       <use x="63.623047" xlink:href="#DejaVuSans-46"/>
       <use x="95.410156" xlink:href="#DejaVuSans-48"/>
      </g>
     </g>
    </g>
    <g id="ytick_2">
     <g id="line2d_28">
      <g>
       <use style="stroke:#000000;stroke-width:0.5;" x="112.5" xlink:href="#m6be816f949" y="276"/>
      </g>
     </g>
     <g id="line2d_29">
      <g>
       <use style="stroke:#000000;stroke-width:0.5;" x="635.625" xlink:href="#m17d94e70a0" y="276"/>
      </g>
     </g>
     <g id="text_13">
      <!-- 0.2 -->
      <g transform="translate(89.41625 279.31125)scale(0.12 -0.12)">
       <use xlink:href="#DejaVuSans-48"/>
       <use x="63.623047" xlink:href="#DejaVuSans-46"/>
       <use x="95.410156" xlink:href="#DejaVuSans-50"/>
      </g>
     </g>
    </g>
    <g id="ytick_3">
     <g id="line2d_30">
      <g>
       <use style="stroke:#000000;stroke-width:0.5;" x="112.5" xlink:href="#m6be816f949" y="228"/>
      </g>
     </g>
     <g id="line2d_31">
      <g>
       <use style="stroke:#000000;stroke-width:0.5;" x="635.625" xlink:href="#m17d94e70a0" y="228"/>
      </g>
     </g>
     <g id="text_14">
      <!-- 0.4 -->
      <g transform="translate(89.41625 231.31125)scale(0.12 -0.12)">
       <use xlink:href="#DejaVuSans-48"/>
       <use x="63.623047" xlink:href="#DejaVuSans-46"/>
       <use x="95.410156" xlink:href="#DejaVuSans-52"/>
      </g>
     </g>
    </g>
    <g id="ytick_4">
     <g id="line2d_32">
      <g>
       <use style="stroke:#000000;stroke-width:0.5;" x="112.5" xlink:href="#m6be816f949" y="180"/>
      </g>
     </g>
     <g id="line2d_33">
      <g>
       <use style="stroke:#000000;stroke-width:0.5;" x="635.625" xlink:href="#m17d94e70a0" y="180"/>
      </g>
     </g>
     <g id="text_15">
      <!-- 0.6 -->
      <g transform="translate(89.41625 183.31125)scale(0.12 -0.12)">
       <use xlink:href="#DejaVuSans-48"/>
       <use x="63.623047" xlink:href="#DejaVuSans-46"/>
       <use x="95.410156" xlink:href="#DejaVuSans-54"/>
      </g>
     </g>
    </g>
    <g id="ytick_5">
     <g id="line2d_34">
      <g>
       <use style="stroke:#000000;stroke-width:0.5;" x="112.5" xlink:href="#m6be816f949" y="132"/>
      </g>
     </g>
     <g id="line2d_35">
      <g>
       <use style="stroke:#000000;stroke-width:0.5;" x="635.625" xlink:href="#m17d94e70a0" y="132"/>
      </g>
     </g>
     <g id="text_16">
      <!-- 0.8 -->
      <g transform="translate(89.41625 135.31125)scale(0.12 -0.12)">
       <use xlink:href="#DejaVuSans-48"/>
       <use x="63.623047" xlink:href="#DejaVuSans-46"/>
       <use x="95.410156" xlink:href="#DejaVuSans-56"/>
      </g>
     </g>
    </g>
    <g id="ytick_6">
     <g id="line2d_36">
      <g>
       <use style="stroke:#000000;stroke-width:0.5;" x="112.5" xlink:href="#m6be816f949" y="84"/>
      </g>
     </g>
     <g id="line2d_37">
      <g>
       <use style="stroke:#000000;stroke-width:0.5;" x="635.625" xlink:href="#m17d94e70a0" y="84"/>
      </g>
     </g>
     <g id="text_17">
      <!-- 1.0 -->
      <g transform="translate(89.41625 87.31125)scale(0.12 -0.12)">
       <use xlink:href="#DejaVuSans-49"/>
       <use x="63.623047" xlink:href="#DejaVuSans-46"/>
       <use x="95.410156" xlink:href="#DejaVuSans-48"/>
      </g>
     </g>
    </g>
    <g id="ytick_7">
     <g id="line2d_38">
      <g>
       <use style="stroke:#000000;stroke-width:0.5;" x="112.5" xlink:href="#m6be816f949" y="36"/>
      </g>
     </g>
     <g id="line2d_39">
      <g>
       <use style="stroke:#000000;stroke-width:0.5;" x="635.625" xlink:href="#m17d94e70a0" y="36"/>
      </g>
     </g>
     <g id="text_18">
      <!-- 1.2 -->
      <g transform="translate(89.41625 39.31125)scale(0.12 -0.12)">
       <use xlink:href="#DejaVuSans-49"/>
       <use x="63.623047" xlink:href="#DejaVuSans-46"/>
       <use x="95.410156" xlink:href="#DejaVuSans-50"/>
      </g>
     </g>
    </g>
    <g id="text_19">
     <!-- los -->
     <defs>
      <path d="M 9.421875 75.984375 
L 18.40625 75.984375 
L 18.40625 0 
L 9.421875 0 
z
" id="DejaVuSans-108"/>
      <path d="M 44.28125 53.078125 
L 44.28125 44.578125 
Q 40.484375 46.53125 36.375 47.5 
Q 32.28125 48.484375 27.875 48.484375 
Q 21.1875 48.484375 17.84375 46.4375 
Q 14.5 44.390625 14.5 40.28125 
Q 14.5 37.15625 16.890625 35.375 
Q 19.28125 33.59375 26.515625 31.984375 
L 29.59375 31.296875 
Q 39.15625 29.25 43.1875 25.515625 
Q 47.21875 21.78125 47.21875 15.09375 
Q 47.21875 7.46875 41.1875 3.015625 
Q 35.15625 -1.421875 24.609375 -1.421875 
Q 20.21875 -1.421875 15.453125 -0.5625 
Q 10.6875 0.296875 5.421875 2 
L 5.421875 11.28125 
Q 10.40625 8.6875 15.234375 7.390625 
Q 20.0625 6.109375 24.8125 6.109375 
Q 31.15625 6.109375 34.5625 8.28125 
Q 37.984375 10.453125 37.984375 14.40625 
Q 37.984375 18.0625 35.515625 20.015625 
Q 33.0625 21.96875 24.703125 23.78125 
L 21.578125 24.515625 
Q 13.234375 26.265625 9.515625 29.90625 
Q 5.8125 33.546875 5.8125 39.890625 
Q 5.8125 47.609375 11.28125 51.796875 
Q 16.75 56 26.8125 56 
Q 31.78125 56 36.171875 55.265625 
Q 40.578125 54.546875 44.28125 53.078125 
z
" id="DejaVuSans-115"/>
     </defs>
     <g transform="translate(81.920625 188.46375)rotate(-90)scale(0.12 -0.12)">
      <use xlink:href="#DejaVuSans-108"/>
      <use x="27.783203" xlink:href="#DejaVuSans-111"/>
      <use x="88.964844" xlink:href="#DejaVuSans-115"/>
     </g>
    </g>
   </g>
   <g id="legend_1">
    <g id="patch_7">
     <path d="M 640.623 218.180034 
L 718.112304 218.180034 
L 718.112304 141.819966 
L 640.623 141.819966 
z
" style="fill:#ffffff;stroke:#000000;stroke-linejoin:miter;"/>
    </g>
    <g id="line2d_40">
     <path d="M 647.6202 149.915164 
L 661.6146 149.915164 
" style="fill:none;stroke:#0000ff;stroke-linecap:square;stroke-width:1.2;"/>
    </g>
    <g id="line2d_41"/>
    <g id="text_20">
     <!-- Relu -->
     <defs>
      <path d="M 44.390625 34.1875 
Q 47.5625 33.109375 50.5625 29.59375 
Q 53.5625 26.078125 56.59375 19.921875 
L 66.609375 0 
L 56 0 
L 46.6875 18.703125 
Q 43.0625 26.03125 39.671875 28.421875 
Q 36.28125 30.8125 30.421875 30.8125 
L 19.671875 30.8125 
L 19.671875 0 
L 9.8125 0 
L 9.8125 72.90625 
L 32.078125 72.90625 
Q 44.578125 72.90625 50.734375 67.671875 
Q 56.890625 62.453125 56.890625 51.90625 
Q 56.890625 45.015625 53.6875 40.46875 
Q 50.484375 35.9375 44.390625 34.1875 
z
M 19.671875 64.796875 
L 19.671875 38.921875 
L 32.078125 38.921875 
Q 39.203125 38.921875 42.84375 42.21875 
Q 46.484375 45.515625 46.484375 51.90625 
Q 46.484375 58.296875 42.84375 61.546875 
Q 39.203125 64.796875 32.078125 64.796875 
z
" id="DejaVuSans-82"/>
      <path d="M 8.5 21.578125 
L 8.5 54.6875 
L 17.484375 54.6875 
L 17.484375 21.921875 
Q 17.484375 14.15625 20.5 10.265625 
Q 23.53125 6.390625 29.59375 6.390625 
Q 36.859375 6.390625 41.078125 11.03125 
Q 45.3125 15.671875 45.3125 23.6875 
L 45.3125 54.6875 
L 54.296875 54.6875 
L 54.296875 0 
L 45.3125 0 
L 45.3125 8.40625 
Q 42.046875 3.421875 37.71875 1 
Q 33.40625 -1.421875 27.6875 -1.421875 
Q 18.265625 -1.421875 13.375 4.4375 
Q 8.5 10.296875 8.5 21.578125 
z
M 31.109375 56 
z
" id="DejaVuSans-117"/>
     </defs>
     <g transform="translate(672.6102 153.413764)scale(0.09996 -0.09996)">
      <use xlink:href="#DejaVuSans-82"/>
      <use x="64.982422" xlink:href="#DejaVuSans-101"/>
      <use x="126.505859" xlink:href="#DejaVuSans-108"/>
      <use x="154.289062" xlink:href="#DejaVuSans-117"/>
     </g>
    </g>
    <g id="line2d_42">
     <path d="M 647.6202 164.587417 
L 661.6146 164.587417 
" style="fill:none;stroke:#008000;stroke-linecap:square;stroke-width:1.2;"/>
    </g>
    <g id="line2d_43"/>
    <g id="text_21">
     <!-- Elu -->
     <defs>
      <path d="M 9.8125 72.90625 
L 55.90625 72.90625 
L 55.90625 64.59375 
L 19.671875 64.59375 
L 19.671875 43.015625 
L 54.390625 43.015625 
L 54.390625 34.71875 
L 19.671875 34.71875 
L 19.671875 8.296875 
L 56.78125 8.296875 
L 56.78125 0 
L 9.8125 0 
z
" id="DejaVuSans-69"/>
     </defs>
     <g transform="translate(672.6102 168.086017)scale(0.09996 -0.09996)">
      <use xlink:href="#DejaVuSans-69"/>
      <use x="63.183594" xlink:href="#DejaVuSans-108"/>
      <use x="90.966797" xlink:href="#DejaVuSans-117"/>
     </g>
    </g>
    <g id="line2d_44">
     <path d="M 647.6202 179.259671 
L 661.6146 179.259671 
" style="fill:none;stroke:#ff0000;stroke-linecap:square;stroke-width:1.2;"/>
    </g>
    <g id="line2d_45"/>
    <g id="text_22">
     <!-- Selu -->
     <defs>
      <path d="M 53.515625 70.515625 
L 53.515625 60.890625 
Q 47.90625 63.578125 42.921875 64.890625 
Q 37.9375 66.21875 33.296875 66.21875 
Q 25.25 66.21875 20.875 63.09375 
Q 16.5 59.96875 16.5 54.203125 
Q 16.5 49.359375 19.40625 46.890625 
Q 22.3125 44.4375 30.421875 42.921875 
L 36.375 41.703125 
Q 47.40625 39.59375 52.65625 34.296875 
Q 57.90625 29 57.90625 20.125 
Q 57.90625 9.515625 50.796875 4.046875 
Q 43.703125 -1.421875 29.984375 -1.421875 
Q 24.8125 -1.421875 18.96875 -0.25 
Q 13.140625 0.921875 6.890625 3.21875 
L 6.890625 13.375 
Q 12.890625 10.015625 18.65625 8.296875 
Q 24.421875 6.59375 29.984375 6.59375 
Q 38.421875 6.59375 43.015625 9.90625 
Q 47.609375 13.234375 47.609375 19.390625 
Q 47.609375 24.75 44.3125 27.78125 
Q 41.015625 30.8125 33.5 32.328125 
L 27.484375 33.5 
Q 16.453125 35.6875 11.515625 40.375 
Q 6.59375 45.0625 6.59375 53.421875 
Q 6.59375 63.09375 13.40625 68.65625 
Q 20.21875 74.21875 32.171875 74.21875 
Q 37.3125 74.21875 42.625 73.28125 
Q 47.953125 72.359375 53.515625 70.515625 
z
" id="DejaVuSans-83"/>
     </defs>
     <g transform="translate(672.6102 182.758271)scale(0.09996 -0.09996)">
      <use xlink:href="#DejaVuSans-83"/>
      <use x="63.476562" xlink:href="#DejaVuSans-101"/>
      <use x="125" xlink:href="#DejaVuSans-108"/>
      <use x="152.783203" xlink:href="#DejaVuSans-117"/>
     </g>
    </g>
    <g id="line2d_46">
     <path d="M 647.6202 193.931925 
L 661.6146 193.931925 
" style="fill:none;stroke:#00bfbf;stroke-linecap:square;stroke-width:1.2;"/>
    </g>
    <g id="line2d_47"/>
    <g id="text_23">
     <!-- SGD -->
     <defs>
      <path d="M 59.515625 10.40625 
L 59.515625 29.984375 
L 43.40625 29.984375 
L 43.40625 38.09375 
L 69.28125 38.09375 
L 69.28125 6.78125 
Q 63.578125 2.734375 56.6875 0.65625 
Q 49.8125 -1.421875 42 -1.421875 
Q 24.90625 -1.421875 15.25 8.5625 
Q 5.609375 18.5625 5.609375 36.375 
Q 5.609375 54.25 15.25 64.234375 
Q 24.90625 74.21875 42 74.21875 
Q 49.125 74.21875 55.546875 72.453125 
Q 61.96875 70.703125 67.390625 67.28125 
L 67.390625 56.78125 
Q 61.921875 61.421875 55.765625 63.765625 
Q 49.609375 66.109375 42.828125 66.109375 
Q 29.4375 66.109375 22.71875 58.640625 
Q 16.015625 51.171875 16.015625 36.375 
Q 16.015625 21.625 22.71875 14.15625 
Q 29.4375 6.6875 42.828125 6.6875 
Q 48.046875 6.6875 52.140625 7.59375 
Q 56.25 8.5 59.515625 10.40625 
z
" id="DejaVuSans-71"/>
      <path d="M 19.671875 64.796875 
L 19.671875 8.109375 
L 31.59375 8.109375 
Q 46.6875 8.109375 53.6875 14.9375 
Q 60.6875 21.78125 60.6875 36.53125 
Q 60.6875 51.171875 53.6875 57.984375 
Q 46.6875 64.796875 31.59375 64.796875 
z
M 9.8125 72.90625 
L 30.078125 72.90625 
Q 51.265625 72.90625 61.171875 64.09375 
Q 71.09375 55.28125 71.09375 36.53125 
Q 71.09375 17.671875 61.125 8.828125 
Q 51.171875 0 30.078125 0 
L 9.8125 0 
z
" id="DejaVuSans-68"/>
     </defs>
     <g transform="translate(672.6102 197.430525)scale(0.09996 -0.09996)">
      <use xlink:href="#DejaVuSans-83"/>
      <use x="63.476562" xlink:href="#DejaVuSans-71"/>
      <use x="140.966797" xlink:href="#DejaVuSans-68"/>
     </g>
    </g>
    <g id="line2d_48">
     <path d="M 647.6202 208.604179 
L 661.6146 208.604179 
" style="fill:none;stroke:#bf00bf;stroke-linecap:square;stroke-width:1.2;"/>
    </g>
    <g id="line2d_49"/>
    <g id="text_24">
     <!-- Softmax -->
     <defs>
      <path d="M 37.109375 75.984375 
L 37.109375 68.5 
L 28.515625 68.5 
Q 23.6875 68.5 21.796875 66.546875 
Q 19.921875 64.59375 19.921875 59.515625 
L 19.921875 54.6875 
L 34.71875 54.6875 
L 34.71875 47.703125 
L 19.921875 47.703125 
L 19.921875 0 
L 10.890625 0 
L 10.890625 47.703125 
L 2.296875 47.703125 
L 2.296875 54.6875 
L 10.890625 54.6875 
L 10.890625 58.5 
Q 10.890625 67.625 15.140625 71.796875 
Q 19.390625 75.984375 28.609375 75.984375 
z
" id="DejaVuSans-102"/>
      <path d="M 52 44.1875 
Q 55.375 50.25 60.0625 53.125 
Q 64.75 56 71.09375 56 
Q 79.640625 56 84.28125 50.015625 
Q 88.921875 44.046875 88.921875 33.015625 
L 88.921875 0 
L 79.890625 0 
L 79.890625 32.71875 
Q 79.890625 40.578125 77.09375 44.375 
Q 74.3125 48.1875 68.609375 48.1875 
Q 61.625 48.1875 57.5625 43.546875 
Q 53.515625 38.921875 53.515625 30.90625 
L 53.515625 0 
L 44.484375 0 
L 44.484375 32.71875 
Q 44.484375 40.625 41.703125 44.40625 
Q 38.921875 48.1875 33.109375 48.1875 
Q 26.21875 48.1875 22.15625 43.53125 
Q 18.109375 38.875 18.109375 30.90625 
L 18.109375 0 
L 9.078125 0 
L 9.078125 54.6875 
L 18.109375 54.6875 
L 18.109375 46.1875 
Q 21.1875 51.21875 25.484375 53.609375 
Q 29.78125 56 35.6875 56 
Q 41.65625 56 45.828125 52.96875 
Q 50 49.953125 52 44.1875 
z
" id="DejaVuSans-109"/>
      <path d="M 54.890625 54.6875 
L 35.109375 28.078125 
L 55.90625 0 
L 45.3125 0 
L 29.390625 21.484375 
L 13.484375 0 
L 2.875 0 
L 24.125 28.609375 
L 4.6875 54.6875 
L 15.28125 54.6875 
L 29.78125 35.203125 
L 44.28125 54.6875 
z
" id="DejaVuSans-120"/>
     </defs>
     <g transform="translate(672.6102 212.102779)scale(0.09996 -0.09996)">
      <use xlink:href="#DejaVuSans-83"/>
      <use x="63.476562" xlink:href="#DejaVuSans-111"/>
      <use x="124.658203" xlink:href="#DejaVuSans-102"/>
      <use x="158.113281" xlink:href="#DejaVuSans-116"/>
      <use x="197.322266" xlink:href="#DejaVuSans-109"/>
      <use x="294.734375" xlink:href="#DejaVuSans-97"/>
      <use x="356.013672" xlink:href="#DejaVuSans-120"/>
     </g>
    </g>
   </g>
  </g>
  <g id="text_25">
   <!-- Average Loss -->
   <defs>
    <path d="M 34.1875 63.1875 
L 20.796875 26.90625 
L 47.609375 26.90625 
z
M 28.609375 72.90625 
L 39.796875 72.90625 
L 67.578125 0 
L 57.328125 0 
L 50.6875 18.703125 
L 17.828125 18.703125 
L 11.1875 0 
L 0.78125 0 
z
" id="DejaVuSans-65"/>
    <path d="M 2.984375 54.6875 
L 12.5 54.6875 
L 29.59375 8.796875 
L 46.6875 54.6875 
L 56.203125 54.6875 
L 35.6875 0 
L 23.484375 0 
z
" id="DejaVuSans-118"/>
    <path id="DejaVuSans-32"/>
    <path d="M 9.8125 72.90625 
L 19.671875 72.90625 
L 19.671875 8.296875 
L 55.171875 8.296875 
L 55.171875 0 
L 9.8125 0 
z
" id="DejaVuSans-76"/>
   </defs>
   <g transform="translate(410.293125 16.318125)scale(0.12 -0.12)">
    <use xlink:href="#DejaVuSans-65"/>
    <use x="62.533203" xlink:href="#DejaVuSans-118"/>
    <use x="121.712891" xlink:href="#DejaVuSans-101"/>
    <use x="183.236328" xlink:href="#DejaVuSans-114"/>
    <use x="224.349609" xlink:href="#DejaVuSans-97"/>
    <use x="285.628906" xlink:href="#DejaVuSans-103"/>
    <use x="349.105469" xlink:href="#DejaVuSans-101"/>
    <use x="410.628906" xlink:href="#DejaVuSans-32"/>
    <use x="442.416016" xlink:href="#DejaVuSans-76"/>
    <use x="496.378906" xlink:href="#DejaVuSans-111"/>
    <use x="557.560547" xlink:href="#DejaVuSans-115"/>
    <use x="609.660156" xlink:href="#DejaVuSans-115"/>
   </g>
  </g>
 </g>
 <defs>
  <clipPath id="p0b4c613354">
   <rect height="288" width="523.125" x="112.5" y="36"/>
  </clipPath>
 </defs>
</svg>
