<?xml version="1.0" encoding="utf-8" standalone="no"?>
<!DOCTYPE svg PUBLIC "-//W3C//DTD SVG 1.1//EN"
  "http://www.w3.org/Graphics/SVG/1.1/DTD/svg11.dtd">
<!-- Created with matplotlib (https://matplotlib.org/) -->
<svg height="360pt" version="1.1" viewBox="0 0 900 360" width="900pt" xmlns="http://www.w3.org/2000/svg" xmlns:xlink="http://www.w3.org/1999/xlink">
 <defs>
  <style type="text/css">
*{stroke-linecap:butt;stroke-linejoin:round;}
  </style>
 </defs>
 <g id="figure_1">
  <g id="patch_1">
   <path d="M 0 360 
L 900 360 
L 900 0 
L 0 0 
z
" style="fill:#ffffff;"/>
  </g>
  <g id="axes_1">
   <g id="patch_2">
    <path d="M 112.5 324 
L 635.625 324 
L 635.625 36 
L 112.5 36 
z
" style="fill:#ffffff;"/>
   </g>
   <g id="line2d_1">
    <path clip-path="url(#p647fc497c1)" d="M 112.793561 60.788877 
L 115.729167 66.034002 
L 118.664773 70.048935 
L 121.600379 73.423818 
L 124.535985 78.95986 
L 130.407197 83.151194 
L 136.278409 94.587543 
L 139.214015 98.230815 
L 142.149621 100.815 
L 145.085227 101.710597 
L 150.956439 107.082295 
L 153.892045 110.819937 
L 156.827652 111.75102 
L 159.763258 113.591449 
L 162.698864 118.075527 
L 165.63447 121.271909 
L 168.570076 124.950028 
L 171.505682 129.131683 
L 174.441288 132.129002 
L 177.376894 134.925432 
L 180.3125 138.012415 
L 183.248106 138.933602 
L 186.183712 140.86622 
L 189.119318 140.659069 
L 192.054924 139.111579 
L 194.99053 137.134978 
L 197.926136 134.838928 
L 200.861742 134.298296 
L 203.797348 131.964396 
L 206.732955 131.144263 
L 209.668561 132.229501 
L 212.604167 131.967148 
L 215.539773 130.456829 
L 218.475379 132.234598 
L 221.410985 130.367262 
L 224.346591 130.914848 
L 227.282197 130.517294 
L 230.217803 131.736931 
L 233.153409 134.066113 
L 236.089015 134.963498 
L 239.024621 135.733496 
L 241.960227 139.497889 
L 244.895833 143.503085 
L 247.831439 147.059992 
L 250.767045 148.50715 
L 253.702652 151.356051 
L 256.638258 158.559554 
L 262.50947 158.553037 
L 265.445076 158.108845 
L 268.380682 156.819502 
L 271.316288 156.095486 
L 274.251894 155.670732 
L 277.1875 152.137408 
L 280.123106 153.721815 
L 283.058712 154.770279 
L 285.994318 156.65314 
L 288.929924 159.094666 
L 291.86553 161.730595 
L 294.801136 163.890533 
L 300.672348 169.316237 
L 306.543561 174.743951 
L 309.479167 177.052771 
L 312.414773 177.144499 
L 315.350379 177.933335 
L 318.285985 177.603716 
L 321.221591 177.007073 
L 324.157197 174.189163 
L 327.092803 170.755709 
L 330.028409 166.754828 
L 332.964015 163.96356 
L 335.899621 161.596794 
L 338.835227 160.889793 
L 341.770833 159.965662 
L 344.706439 162.524352 
L 347.642045 164.343402 
L 350.577652 168.315509 
L 353.513258 174.548189 
L 356.448864 178.541558 
L 359.38447 181.253001 
L 362.320076 184.157312 
L 365.255682 187.695844 
L 371.126894 192.72252 
L 374.0625 193.846095 
L 376.998106 193.1167 
L 379.933712 193.505477 
L 382.869318 194.687809 
L 385.804924 195.372034 
L 388.74053 197.146044 
L 391.676136 196.966734 
L 394.611742 197.419967 
L 397.547348 200.558032 
L 400.482955 203.426235 
L 403.418561 205.026304 
L 406.354167 205.696475 
L 409.289773 209.013133 
L 412.225379 211.364161 
L 415.160985 212.555933 
L 418.096591 214.711037 
L 421.032197 216.709817 
L 423.967803 217.355395 
L 426.903409 218.599444 
L 429.839015 218.86795 
L 432.774621 219.924146 
L 435.710227 221.863171 
L 438.645833 223.50218 
L 441.581439 224.908485 
L 444.517045 226.868998 
L 447.452652 228.556103 
L 450.388258 229.843205 
L 453.323864 230.468137 
L 456.25947 230.384815 
L 459.195076 228.842718 
L 462.130682 230.030523 
L 465.066288 229.788462 
L 468.001894 228.911013 
L 470.9375 227.326893 
L 473.873106 225.394536 
L 476.808712 225.392694 
L 479.744318 224.054157 
L 482.679924 221.320782 
L 485.61553 218.889054 
L 491.486742 216.100243 
L 494.422348 215.34679 
L 497.357955 213.444471 
L 500.293561 213.469836 
L 503.229167 208.755468 
L 506.164773 210.25758 
L 509.100379 211.127249 
L 514.971591 211.593945 
L 517.907197 210.539911 
L 520.842803 210.734662 
L 523.778409 214.253211 
L 529.649621 214.233023 
L 532.585227 213.287886 
L 535.520833 214.274526 
L 538.456439 215.910583 
L 541.392045 216.554381 
L 544.327652 215.415475 
L 547.263258 214.797341 
L 553.13447 213.078361 
L 556.070076 212.35028 
L 559.005682 211.110024 
L 561.941288 208.479963 
L 564.876894 208.673977 
L 567.8125 209.469646 
L 570.748106 209.447349 
L 573.683712 211.562252 
L 576.619318 212.252066 
L 579.554924 212.784047 
L 582.49053 215.548329 
L 585.426136 216.78935 
L 588.361742 217.220045 
L 591.297348 216.868321 
L 594.232955 215.924081 
L 597.168561 213.844184 
L 600.104167 214.090246 
L 603.039773 211.476765 
L 605.975379 210.448244 
L 608.910985 208.517993 
L 611.846591 208.814571 
L 614.782197 207.654059 
L 617.717803 209.12282 
L 620.653409 208.043097 
L 623.589015 208.80636 
L 626.524621 208.864779 
L 629.460227 209.148438 
L 632.395833 208.542328 
L 635.331439 209.761425 
L 635.331439 209.761425 
" style="fill:none;stroke:#0000ff;stroke-linecap:square;stroke-width:1.2;"/>
   </g>
   <g id="line2d_2">
    <path clip-path="url(#p647fc497c1)" d="M 112.793561 86.131589 
L 115.729167 94.418783 
L 118.664773 101.845328 
L 121.600379 108.536004 
L 124.535985 112.758462 
L 127.471591 118.141721 
L 130.407197 120.879176 
L 133.342803 126.538843 
L 136.278409 131.210869 
L 139.214015 136.098238 
L 142.149621 140.531016 
L 145.085227 145.978226 
L 148.020833 151.165839 
L 150.956439 154.346371 
L 159.763258 170.445126 
L 162.698864 174.703667 
L 165.63447 180.630227 
L 168.570076 185.35955 
L 171.505682 192.474394 
L 174.441288 197.41175 
L 177.376894 205.085689 
L 180.3125 210.709693 
L 183.248106 218.623457 
L 186.183712 225.239779 
L 189.119318 231.232165 
L 192.054924 233.178732 
L 194.99053 239.01636 
L 197.926136 244.15569 
L 200.861742 246.39809 
L 203.797348 250.409578 
L 206.732955 252.384361 
L 209.668561 252.77454 
L 212.604167 259.320174 
L 215.539773 260.77586 
L 218.475379 261.080903 
L 221.410985 260.344238 
L 224.346591 254.436223 
L 227.282197 251.870069 
L 230.217803 255.01498 
L 233.153409 254.066521 
L 236.089015 254.170148 
L 239.024621 252.710208 
L 241.960227 255.118473 
L 244.895833 261.568896 
L 247.831439 266.008406 
L 250.767045 264.42775 
L 253.702652 261.236129 
L 256.638258 258.554647 
L 259.573864 258.405904 
L 262.50947 257.033707 
L 265.445076 256.460756 
L 271.316288 253.85442 
L 274.251894 257.00651 
L 277.1875 258.092144 
L 280.123106 258.085419 
L 283.058712 260.508591 
L 285.994318 262.16778 
L 288.929924 262.484559 
L 291.86553 265.530012 
L 294.801136 267.475056 
L 297.736742 268.208781 
L 300.672348 268.078902 
L 303.607955 270.466878 
L 309.479167 267.683616 
L 312.414773 266.760826 
L 315.350379 264.79662 
L 318.285985 260.663851 
L 321.221591 260.990336 
L 324.157197 255.497132 
L 327.092803 253.422149 
L 330.028409 255.444256 
L 332.964015 251.790291 
L 335.899621 252.812996 
L 338.835227 255.527231 
L 341.770833 255.802985 
L 344.706439 260.568631 
L 347.642045 258.419928 
L 350.577652 255.971508 
L 353.513258 259.557933 
L 356.448864 258.533661 
L 359.38447 256.059016 
L 362.320076 255.402494 
L 365.255682 251.837654 
L 368.191288 252.208845 
L 371.126894 254.079847 
L 374.0625 255.345355 
L 376.998106 255.595628 
L 379.933712 259.999019 
L 382.869318 262.234104 
L 385.804924 266.863354 
L 388.74053 272.106632 
L 391.676136 271.931715 
L 394.611742 273.235244 
L 397.547348 276.531606 
L 400.482955 277.629259 
L 403.418561 278.566004 
L 406.354167 275.311797 
L 409.289773 272.678648 
L 412.225379 271.762439 
L 415.160985 272.55037 
L 418.096591 268.067657 
L 421.032197 269.34222 
L 423.967803 269.501514 
L 426.903409 271.210624 
L 429.839015 273.09666 
L 432.774621 273.051616 
L 435.710227 266.953323 
L 438.645833 268.416916 
L 444.517045 261.028484 
L 447.452652 260.204719 
L 450.388258 259.906677 
L 453.323864 259.944314 
L 456.25947 264.28258 
L 459.195076 266.252369 
L 462.130682 267.713889 
L 465.066288 267.814306 
L 468.001894 265.653391 
L 470.9375 265.519745 
L 473.873106 263.882498 
L 476.808712 262.374843 
L 479.744318 255.547396 
L 482.679924 254.364483 
L 485.61553 257.168723 
L 488.551136 258.776768 
L 491.486742 256.797985 
L 494.422348 259.123498 
L 497.357955 259.439215 
L 500.293561 265.449731 
L 503.229167 267.228776 
L 506.164773 263.857523 
L 509.100379 262.791665 
L 512.035985 266.117293 
L 514.971591 266.556087 
L 517.907197 265.981337 
L 523.778409 263.188666 
L 529.649621 268.159135 
L 532.585227 264.877884 
L 535.520833 264.704249 
L 535.520833 264.704249 
" style="fill:none;stroke:#008000;stroke-linecap:square;stroke-width:1.2;"/>
   </g>
   <g id="line2d_3">
    <path clip-path="url(#p647fc497c1)" d="M 112.793561 133.193421 
L 115.729167 135.028212 
L 118.664773 130.732472 
L 121.600379 137.581167 
L 124.535985 138.219257 
L 127.471591 138.995803 
L 130.407197 137.241035 
L 133.342803 139.351858 
L 136.278409 141.909842 
L 139.214015 143.902833 
L 142.149621 150.239569 
L 145.085227 157.259084 
L 148.020833 161.631894 
L 150.956439 170.549061 
L 153.892045 173.094599 
L 156.827652 176.550297 
L 159.763258 181.175704 
L 162.698864 178.798049 
L 165.63447 180.044957 
L 168.570076 188.222411 
L 171.505682 189.330604 
L 174.441288 194.368022 
L 177.376894 196.876458 
L 180.3125 202.135474 
L 183.248106 212.682831 
L 186.183712 215.66553 
L 189.119318 216.220891 
L 192.054924 219.634186 
L 194.99053 221.179838 
L 197.926136 224.824262 
L 200.861742 226.716137 
L 203.797348 228.026075 
L 206.732955 230.735361 
L 209.668561 232.184443 
L 212.604167 231.880425 
L 215.539773 236.699339 
L 218.475379 239.821316 
L 221.410985 243.896605 
L 224.346591 244.076734 
L 227.282197 245.677111 
L 230.217803 247.932916 
L 233.153409 251.129994 
L 236.089015 247.059699 
L 239.024621 245.026123 
L 241.960227 242.570365 
L 244.895833 242.733717 
L 247.831439 238.981775 
L 250.767045 239.599479 
L 256.638258 244.383963 
L 259.573864 249.094516 
L 262.50947 250.787818 
L 265.445076 250.025598 
L 268.380682 252.445656 
L 274.251894 251.319161 
L 277.1875 254.421038 
L 283.058712 253.382795 
L 285.994318 258.170062 
L 288.929924 261.153425 
L 291.86553 262.1449 
L 294.801136 264.063206 
L 300.672348 264.104509 
L 303.607955 268.174398 
L 306.543561 268.87264 
L 309.479167 269.034822 
L 312.414773 269.82388 
L 315.350379 268.794672 
L 318.285985 271.184802 
L 321.221591 274.005288 
L 324.157197 273.020331 
L 327.092803 273.806815 
L 330.028409 276.497037 
L 332.964015 279.987931 
L 335.899621 283.129616 
L 338.835227 284.386062 
L 341.770833 284.35129 
L 344.706439 286.447722 
L 347.642045 287.098652 
L 350.577652 287.336524 
L 353.513258 286.242799 
L 356.448864 285.66417 
L 359.38447 283.513459 
L 362.320076 279.075718 
L 365.255682 278.447265 
L 368.191288 279.159795 
L 371.126894 277.830307 
L 374.0625 277.025593 
L 376.998106 277.435193 
L 379.933712 279.724096 
L 382.869318 285.496093 
L 385.804924 285.134606 
L 388.74053 285.803206 
L 391.676136 287.872228 
L 394.611742 289.502336 
L 397.547348 287.90715 
L 400.482955 287.9651 
L 403.418561 287.242532 
L 406.354167 285.551033 
L 409.289773 282.697678 
L 412.225379 281.671783 
L 415.160985 281.516264 
L 418.096591 282.870096 
L 421.032197 282.587119 
L 423.967803 282.715418 
L 426.903409 285.845079 
L 429.839015 288.605559 
L 432.774621 291.110257 
L 435.710227 292.127599 
L 438.645833 292.312933 
L 441.581439 289.327993 
L 444.517045 287.493777 
L 447.452652 282.991124 
L 450.388258 282.192739 
L 456.25947 277.10027 
L 459.195076 268.142658 
L 462.130682 269.248618 
L 465.066288 270.114253 
L 468.001894 272.102925 
L 473.873106 270.614102 
L 476.808712 271.418494 
L 479.744318 279.147981 
L 482.679924 279.930493 
L 485.61553 279.49182 
L 488.551136 280.442595 
L 491.486742 280.503922 
L 494.422348 280.431896 
L 494.422348 280.431896 
" style="fill:none;stroke:#ff0000;stroke-linecap:square;stroke-width:1.2;"/>
   </g>
   <g id="patch_3">
    <path d="M 112.5 324 
L 112.5 36 
" style="fill:none;stroke:#000000;stroke-linecap:square;stroke-linejoin:miter;"/>
   </g>
   <g id="patch_4">
    <path d="M 635.625 324 
L 635.625 36 
" style="fill:none;stroke:#000000;stroke-linecap:square;stroke-linejoin:miter;"/>
   </g>
   <g id="patch_5">
    <path d="M 112.5 324 
L 635.625 324 
" style="fill:none;stroke:#000000;stroke-linecap:square;stroke-linejoin:miter;"/>
   </g>
   <g id="patch_6">
    <path d="M 112.5 36 
L 635.625 36 
" style="fill:none;stroke:#000000;stroke-linecap:square;stroke-linejoin:miter;"/>
   </g>
   <g id="matplotlib.axis_1">
    <g id="xtick_1">
     <g id="line2d_4">
      <defs>
       <path d="M 0 0 
L 0 -4 
" id="mc5c1c767b3" style="stroke:#000000;stroke-width:0.5;"/>
      </defs>
      <g>
       <use style="stroke:#000000;stroke-width:0.5;" x="112.793561" xlink:href="#mc5c1c767b3" y="324"/>
      </g>
     </g>
     <g id="line2d_5">
      <defs>
       <path d="M 0 0 
L 0 4 
" id="me5a82228bc" style="stroke:#000000;stroke-width:0.5;"/>
      </defs>
      <g>
       <use style="stroke:#000000;stroke-width:0.5;" x="112.793561" xlink:href="#me5a82228bc" y="36"/>
      </g>
     </g>
     <g id="text_1">
      <!-- 0 -->
      <defs>
       <path d="M 31.78125 66.40625 
Q 24.171875 66.40625 20.328125 58.90625 
Q 16.5 51.421875 16.5 36.375 
Q 16.5 21.390625 20.328125 13.890625 
Q 24.171875 6.390625 31.78125 6.390625 
Q 39.453125 6.390625 43.28125 13.890625 
Q 47.125 21.390625 47.125 36.375 
Q 47.125 51.421875 43.28125 58.90625 
Q 39.453125 66.40625 31.78125 66.40625 
z
M 31.78125 74.21875 
Q 44.046875 74.21875 50.515625 64.515625 
Q 56.984375 54.828125 56.984375 36.375 
Q 56.984375 17.96875 50.515625 8.265625 
Q 44.046875 -1.421875 31.78125 -1.421875 
Q 19.53125 -1.421875 13.0625 8.265625 
Q 6.59375 17.96875 6.59375 36.375 
Q 6.59375 54.828125 13.0625 64.515625 
Q 19.53125 74.21875 31.78125 74.21875 
z
" id="DejaVuSans-48"/>
      </defs>
      <g transform="translate(108.976061 337.118125)scale(0.12 -0.12)">
       <use xlink:href="#DejaVuSans-48"/>
      </g>
     </g>
    </g>
    <g id="xtick_2">
     <g id="line2d_6">
      <g>
       <use style="stroke:#000000;stroke-width:0.5;" x="165.63447" xlink:href="#mc5c1c767b3" y="324"/>
      </g>
     </g>
     <g id="line2d_7">
      <g>
       <use style="stroke:#000000;stroke-width:0.5;" x="165.63447" xlink:href="#me5a82228bc" y="36"/>
      </g>
     </g>
     <g id="text_2">
      <!-- 18 -->
      <defs>
       <path d="M 12.40625 8.296875 
L 28.515625 8.296875 
L 28.515625 63.921875 
L 10.984375 60.40625 
L 10.984375 69.390625 
L 28.421875 72.90625 
L 38.28125 72.90625 
L 38.28125 8.296875 
L 54.390625 8.296875 
L 54.390625 0 
L 12.40625 0 
z
" id="DejaVuSans-49"/>
       <path d="M 31.78125 34.625 
Q 24.75 34.625 20.71875 30.859375 
Q 16.703125 27.09375 16.703125 20.515625 
Q 16.703125 13.921875 20.71875 10.15625 
Q 24.75 6.390625 31.78125 6.390625 
Q 38.8125 6.390625 42.859375 10.171875 
Q 46.921875 13.96875 46.921875 20.515625 
Q 46.921875 27.09375 42.890625 30.859375 
Q 38.875 34.625 31.78125 34.625 
z
M 21.921875 38.8125 
Q 15.578125 40.375 12.03125 44.71875 
Q 8.5 49.078125 8.5 55.328125 
Q 8.5 64.0625 14.71875 69.140625 
Q 20.953125 74.21875 31.78125 74.21875 
Q 42.671875 74.21875 48.875 69.140625 
Q 55.078125 64.0625 55.078125 55.328125 
Q 55.078125 49.078125 51.53125 44.71875 
Q 48 40.375 41.703125 38.8125 
Q 48.828125 37.15625 52.796875 32.3125 
Q 56.78125 27.484375 56.78125 20.515625 
Q 56.78125 9.90625 50.3125 4.234375 
Q 43.84375 -1.421875 31.78125 -1.421875 
Q 19.734375 -1.421875 13.25 4.234375 
Q 6.78125 9.90625 6.78125 20.515625 
Q 6.78125 27.484375 10.78125 32.3125 
Q 14.796875 37.15625 21.921875 38.8125 
z
M 18.3125 54.390625 
Q 18.3125 48.734375 21.84375 45.5625 
Q 25.390625 42.390625 31.78125 42.390625 
Q 38.140625 42.390625 41.71875 45.5625 
Q 45.3125 48.734375 45.3125 54.390625 
Q 45.3125 60.0625 41.71875 63.234375 
Q 38.140625 66.40625 31.78125 66.40625 
Q 25.390625 66.40625 21.84375 63.234375 
Q 18.3125 60.0625 18.3125 54.390625 
z
" id="DejaVuSans-56"/>
      </defs>
      <g transform="translate(157.99947 337.118125)scale(0.12 -0.12)">
       <use xlink:href="#DejaVuSans-49"/>
       <use x="63.623047" xlink:href="#DejaVuSans-56"/>
      </g>
     </g>
    </g>
    <g id="xtick_3">
     <g id="line2d_8">
      <g>
       <use style="stroke:#000000;stroke-width:0.5;" x="218.475379" xlink:href="#mc5c1c767b3" y="324"/>
      </g>
     </g>
     <g id="line2d_9">
      <g>
       <use style="stroke:#000000;stroke-width:0.5;" x="218.475379" xlink:href="#me5a82228bc" y="36"/>
      </g>
     </g>
     <g id="text_3">
      <!-- 36 -->
      <defs>
       <path d="M 40.578125 39.3125 
Q 47.65625 37.796875 51.625 33 
Q 55.609375 28.21875 55.609375 21.1875 
Q 55.609375 10.40625 48.1875 4.484375 
Q 40.765625 -1.421875 27.09375 -1.421875 
Q 22.515625 -1.421875 17.65625 -0.515625 
Q 12.796875 0.390625 7.625 2.203125 
L 7.625 11.71875 
Q 11.71875 9.328125 16.59375 8.109375 
Q 21.484375 6.890625 26.8125 6.890625 
Q 36.078125 6.890625 40.9375 10.546875 
Q 45.796875 14.203125 45.796875 21.1875 
Q 45.796875 27.640625 41.28125 31.265625 
Q 36.765625 34.90625 28.71875 34.90625 
L 20.21875 34.90625 
L 20.21875 43.015625 
L 29.109375 43.015625 
Q 36.375 43.015625 40.234375 45.921875 
Q 44.09375 48.828125 44.09375 54.296875 
Q 44.09375 59.90625 40.109375 62.90625 
Q 36.140625 65.921875 28.71875 65.921875 
Q 24.65625 65.921875 20.015625 65.03125 
Q 15.375 64.15625 9.8125 62.3125 
L 9.8125 71.09375 
Q 15.4375 72.65625 20.34375 73.4375 
Q 25.25 74.21875 29.59375 74.21875 
Q 40.828125 74.21875 47.359375 69.109375 
Q 53.90625 64.015625 53.90625 55.328125 
Q 53.90625 49.265625 50.4375 45.09375 
Q 46.96875 40.921875 40.578125 39.3125 
z
" id="DejaVuSans-51"/>
       <path d="M 33.015625 40.375 
Q 26.375 40.375 22.484375 35.828125 
Q 18.609375 31.296875 18.609375 23.390625 
Q 18.609375 15.53125 22.484375 10.953125 
Q 26.375 6.390625 33.015625 6.390625 
Q 39.65625 6.390625 43.53125 10.953125 
Q 47.40625 15.53125 47.40625 23.390625 
Q 47.40625 31.296875 43.53125 35.828125 
Q 39.65625 40.375 33.015625 40.375 
z
M 52.59375 71.296875 
L 52.59375 62.3125 
Q 48.875 64.0625 45.09375 64.984375 
Q 41.3125 65.921875 37.59375 65.921875 
Q 27.828125 65.921875 22.671875 59.328125 
Q 17.53125 52.734375 16.796875 39.40625 
Q 19.671875 43.65625 24.015625 45.921875 
Q 28.375 48.1875 33.59375 48.1875 
Q 44.578125 48.1875 50.953125 41.515625 
Q 57.328125 34.859375 57.328125 23.390625 
Q 57.328125 12.15625 50.6875 5.359375 
Q 44.046875 -1.421875 33.015625 -1.421875 
Q 20.359375 -1.421875 13.671875 8.265625 
Q 6.984375 17.96875 6.984375 36.375 
Q 6.984375 53.65625 15.1875 63.9375 
Q 23.390625 74.21875 37.203125 74.21875 
Q 40.921875 74.21875 44.703125 73.484375 
Q 48.484375 72.75 52.59375 71.296875 
z
" id="DejaVuSans-54"/>
      </defs>
      <g transform="translate(210.840379 337.118125)scale(0.12 -0.12)">
       <use xlink:href="#DejaVuSans-51"/>
       <use x="63.623047" xlink:href="#DejaVuSans-54"/>
      </g>
     </g>
    </g>
    <g id="xtick_4">
     <g id="line2d_10">
      <g>
       <use style="stroke:#000000;stroke-width:0.5;" x="271.316288" xlink:href="#mc5c1c767b3" y="324"/>
      </g>
     </g>
     <g id="line2d_11">
      <g>
       <use style="stroke:#000000;stroke-width:0.5;" x="271.316288" xlink:href="#me5a82228bc" y="36"/>
      </g>
     </g>
     <g id="text_4">
      <!-- 54 -->
      <defs>
       <path d="M 10.796875 72.90625 
L 49.515625 72.90625 
L 49.515625 64.59375 
L 19.828125 64.59375 
L 19.828125 46.734375 
Q 21.96875 47.46875 24.109375 47.828125 
Q 26.265625 48.1875 28.421875 48.1875 
Q 40.625 48.1875 47.75 41.5 
Q 54.890625 34.8125 54.890625 23.390625 
Q 54.890625 11.625 47.5625 5.09375 
Q 40.234375 -1.421875 26.90625 -1.421875 
Q 22.3125 -1.421875 17.546875 -0.640625 
Q 12.796875 0.140625 7.71875 1.703125 
L 7.71875 11.625 
Q 12.109375 9.234375 16.796875 8.0625 
Q 21.484375 6.890625 26.703125 6.890625 
Q 35.15625 6.890625 40.078125 11.328125 
Q 45.015625 15.765625 45.015625 23.390625 
Q 45.015625 31 40.078125 35.4375 
Q 35.15625 39.890625 26.703125 39.890625 
Q 22.75 39.890625 18.8125 39.015625 
Q 14.890625 38.140625 10.796875 36.28125 
z
" id="DejaVuSans-53"/>
       <path d="M 37.796875 64.3125 
L 12.890625 25.390625 
L 37.796875 25.390625 
z
M 35.203125 72.90625 
L 47.609375 72.90625 
L 47.609375 25.390625 
L 58.015625 25.390625 
L 58.015625 17.1875 
L 47.609375 17.1875 
L 47.609375 0 
L 37.796875 0 
L 37.796875 17.1875 
L 4.890625 17.1875 
L 4.890625 26.703125 
z
" id="DejaVuSans-52"/>
      </defs>
      <g transform="translate(263.681288 337.118125)scale(0.12 -0.12)">
       <use xlink:href="#DejaVuSans-53"/>
       <use x="63.623047" xlink:href="#DejaVuSans-52"/>
      </g>
     </g>
    </g>
    <g id="xtick_5">
     <g id="line2d_12">
      <g>
       <use style="stroke:#000000;stroke-width:0.5;" x="324.157197" xlink:href="#mc5c1c767b3" y="324"/>
      </g>
     </g>
     <g id="line2d_13">
      <g>
       <use style="stroke:#000000;stroke-width:0.5;" x="324.157197" xlink:href="#me5a82228bc" y="36"/>
      </g>
     </g>
     <g id="text_5">
      <!-- 72 -->
      <defs>
       <path d="M 8.203125 72.90625 
L 55.078125 72.90625 
L 55.078125 68.703125 
L 28.609375 0 
L 18.3125 0 
L 43.21875 64.59375 
L 8.203125 64.59375 
z
" id="DejaVuSans-55"/>
       <path d="M 19.1875 8.296875 
L 53.609375 8.296875 
L 53.609375 0 
L 7.328125 0 
L 7.328125 8.296875 
Q 12.9375 14.109375 22.625 23.890625 
Q 32.328125 33.6875 34.8125 36.53125 
Q 39.546875 41.84375 41.421875 45.53125 
Q 43.3125 49.21875 43.3125 52.78125 
Q 43.3125 58.59375 39.234375 62.25 
Q 35.15625 65.921875 28.609375 65.921875 
Q 23.96875 65.921875 18.8125 64.3125 
Q 13.671875 62.703125 7.8125 59.421875 
L 7.8125 69.390625 
Q 13.765625 71.78125 18.9375 73 
Q 24.125 74.21875 28.421875 74.21875 
Q 39.75 74.21875 46.484375 68.546875 
Q 53.21875 62.890625 53.21875 53.421875 
Q 53.21875 48.921875 51.53125 44.890625 
Q 49.859375 40.875 45.40625 35.40625 
Q 44.1875 33.984375 37.640625 27.21875 
Q 31.109375 20.453125 19.1875 8.296875 
z
" id="DejaVuSans-50"/>
      </defs>
      <g transform="translate(316.522197 337.118125)scale(0.12 -0.12)">
       <use xlink:href="#DejaVuSans-55"/>
       <use x="63.623047" xlink:href="#DejaVuSans-50"/>
      </g>
     </g>
    </g>
    <g id="xtick_6">
     <g id="line2d_14">
      <g>
       <use style="stroke:#000000;stroke-width:0.5;" x="376.998106" xlink:href="#mc5c1c767b3" y="324"/>
      </g>
     </g>
     <g id="line2d_15">
      <g>
       <use style="stroke:#000000;stroke-width:0.5;" x="376.998106" xlink:href="#me5a82228bc" y="36"/>
      </g>
     </g>
     <g id="text_6">
      <!-- 90 -->
      <defs>
       <path d="M 10.984375 1.515625 
L 10.984375 10.5 
Q 14.703125 8.734375 18.5 7.8125 
Q 22.3125 6.890625 25.984375 6.890625 
Q 35.75 6.890625 40.890625 13.453125 
Q 46.046875 20.015625 46.78125 33.40625 
Q 43.953125 29.203125 39.59375 26.953125 
Q 35.25 24.703125 29.984375 24.703125 
Q 19.046875 24.703125 12.671875 31.3125 
Q 6.296875 37.9375 6.296875 49.421875 
Q 6.296875 60.640625 12.9375 67.421875 
Q 19.578125 74.21875 30.609375 74.21875 
Q 43.265625 74.21875 49.921875 64.515625 
Q 56.59375 54.828125 56.59375 36.375 
Q 56.59375 19.140625 48.40625 8.859375 
Q 40.234375 -1.421875 26.421875 -1.421875 
Q 22.703125 -1.421875 18.890625 -0.6875 
Q 15.09375 0.046875 10.984375 1.515625 
z
M 30.609375 32.421875 
Q 37.25 32.421875 41.125 36.953125 
Q 45.015625 41.5 45.015625 49.421875 
Q 45.015625 57.28125 41.125 61.84375 
Q 37.25 66.40625 30.609375 66.40625 
Q 23.96875 66.40625 20.09375 61.84375 
Q 16.21875 57.28125 16.21875 49.421875 
Q 16.21875 41.5 20.09375 36.953125 
Q 23.96875 32.421875 30.609375 32.421875 
z
" id="DejaVuSans-57"/>
      </defs>
      <g transform="translate(369.363106 337.118125)scale(0.12 -0.12)">
       <use xlink:href="#DejaVuSans-57"/>
       <use x="63.623047" xlink:href="#DejaVuSans-48"/>
      </g>
     </g>
    </g>
    <g id="xtick_7">
     <g id="line2d_16">
      <g>
       <use style="stroke:#000000;stroke-width:0.5;" x="429.839015" xlink:href="#mc5c1c767b3" y="324"/>
      </g>
     </g>
     <g id="line2d_17">
      <g>
       <use style="stroke:#000000;stroke-width:0.5;" x="429.839015" xlink:href="#me5a82228bc" y="36"/>
      </g>
     </g>
     <g id="text_7">
      <!-- 108 -->
      <g transform="translate(418.386515 337.118125)scale(0.12 -0.12)">
       <use xlink:href="#DejaVuSans-49"/>
       <use x="63.623047" xlink:href="#DejaVuSans-48"/>
       <use x="127.246094" xlink:href="#DejaVuSans-56"/>
      </g>
     </g>
    </g>
    <g id="xtick_8">
     <g id="line2d_18">
      <g>
       <use style="stroke:#000000;stroke-width:0.5;" x="482.679924" xlink:href="#mc5c1c767b3" y="324"/>
      </g>
     </g>
     <g id="line2d_19">
      <g>
       <use style="stroke:#000000;stroke-width:0.5;" x="482.679924" xlink:href="#me5a82228bc" y="36"/>
      </g>
     </g>
     <g id="text_8">
      <!-- 126 -->
      <g transform="translate(471.227424 337.118125)scale(0.12 -0.12)">
       <use xlink:href="#DejaVuSans-49"/>
       <use x="63.623047" xlink:href="#DejaVuSans-50"/>
       <use x="127.246094" xlink:href="#DejaVuSans-54"/>
      </g>
     </g>
    </g>
    <g id="xtick_9">
     <g id="line2d_20">
      <g>
       <use style="stroke:#000000;stroke-width:0.5;" x="535.520833" xlink:href="#mc5c1c767b3" y="324"/>
      </g>
     </g>
     <g id="line2d_21">
      <g>
       <use style="stroke:#000000;stroke-width:0.5;" x="535.520833" xlink:href="#me5a82228bc" y="36"/>
      </g>
     </g>
     <g id="text_9">
      <!-- 144 -->
      <g transform="translate(524.068333 337.118125)scale(0.12 -0.12)">
       <use xlink:href="#DejaVuSans-49"/>
       <use x="63.623047" xlink:href="#DejaVuSans-52"/>
       <use x="127.246094" xlink:href="#DejaVuSans-52"/>
      </g>
     </g>
    </g>
    <g id="xtick_10">
     <g id="line2d_22">
      <g>
       <use style="stroke:#000000;stroke-width:0.5;" x="588.361742" xlink:href="#mc5c1c767b3" y="324"/>
      </g>
     </g>
     <g id="line2d_23">
      <g>
       <use style="stroke:#000000;stroke-width:0.5;" x="588.361742" xlink:href="#me5a82228bc" y="36"/>
      </g>
     </g>
     <g id="text_10">
      <!-- 162 -->
      <g transform="translate(576.909242 337.118125)scale(0.12 -0.12)">
       <use xlink:href="#DejaVuSans-49"/>
       <use x="63.623047" xlink:href="#DejaVuSans-54"/>
       <use x="127.246094" xlink:href="#DejaVuSans-50"/>
      </g>
     </g>
    </g>
    <g id="text_11">
     <!-- generation -->
     <defs>
      <path d="M 45.40625 27.984375 
Q 45.40625 37.75 41.375 43.109375 
Q 37.359375 48.484375 30.078125 48.484375 
Q 22.859375 48.484375 18.828125 43.109375 
Q 14.796875 37.75 14.796875 27.984375 
Q 14.796875 18.265625 18.828125 12.890625 
Q 22.859375 7.515625 30.078125 7.515625 
Q 37.359375 7.515625 41.375 12.890625 
Q 45.40625 18.265625 45.40625 27.984375 
z
M 54.390625 6.78125 
Q 54.390625 -7.171875 48.1875 -13.984375 
Q 42 -20.796875 29.203125 -20.796875 
Q 24.46875 -20.796875 20.265625 -20.09375 
Q 16.0625 -19.390625 12.109375 -17.921875 
L 12.109375 -9.1875 
Q 16.0625 -11.328125 19.921875 -12.34375 
Q 23.78125 -13.375 27.78125 -13.375 
Q 36.625 -13.375 41.015625 -8.765625 
Q 45.40625 -4.15625 45.40625 5.171875 
L 45.40625 9.625 
Q 42.625 4.78125 38.28125 2.390625 
Q 33.9375 0 27.875 0 
Q 17.828125 0 11.671875 7.65625 
Q 5.515625 15.328125 5.515625 27.984375 
Q 5.515625 40.671875 11.671875 48.328125 
Q 17.828125 56 27.875 56 
Q 33.9375 56 38.28125 53.609375 
Q 42.625 51.21875 45.40625 46.390625 
L 45.40625 54.6875 
L 54.390625 54.6875 
z
" id="DejaVuSans-103"/>
      <path d="M 56.203125 29.59375 
L 56.203125 25.203125 
L 14.890625 25.203125 
Q 15.484375 15.921875 20.484375 11.0625 
Q 25.484375 6.203125 34.421875 6.203125 
Q 39.59375 6.203125 44.453125 7.46875 
Q 49.3125 8.734375 54.109375 11.28125 
L 54.109375 2.78125 
Q 49.265625 0.734375 44.1875 -0.34375 
Q 39.109375 -1.421875 33.890625 -1.421875 
Q 20.796875 -1.421875 13.15625 6.1875 
Q 5.515625 13.8125 5.515625 26.8125 
Q 5.515625 40.234375 12.765625 48.109375 
Q 20.015625 56 32.328125 56 
Q 43.359375 56 49.78125 48.890625 
Q 56.203125 41.796875 56.203125 29.59375 
z
M 47.21875 32.234375 
Q 47.125 39.59375 43.09375 43.984375 
Q 39.0625 48.390625 32.421875 48.390625 
Q 24.90625 48.390625 20.390625 44.140625 
Q 15.875 39.890625 15.1875 32.171875 
z
" id="DejaVuSans-101"/>
      <path d="M 54.890625 33.015625 
L 54.890625 0 
L 45.90625 0 
L 45.90625 32.71875 
Q 45.90625 40.484375 42.875 44.328125 
Q 39.84375 48.1875 33.796875 48.1875 
Q 26.515625 48.1875 22.3125 43.546875 
Q 18.109375 38.921875 18.109375 30.90625 
L 18.109375 0 
L 9.078125 0 
L 9.078125 54.6875 
L 18.109375 54.6875 
L 18.109375 46.1875 
Q 21.34375 51.125 25.703125 53.5625 
Q 30.078125 56 35.796875 56 
Q 45.21875 56 50.046875 50.171875 
Q 54.890625 44.34375 54.890625 33.015625 
z
" id="DejaVuSans-110"/>
      <path d="M 41.109375 46.296875 
Q 39.59375 47.171875 37.8125 47.578125 
Q 36.03125 48 33.890625 48 
Q 26.265625 48 22.1875 43.046875 
Q 18.109375 38.09375 18.109375 28.8125 
L 18.109375 0 
L 9.078125 0 
L 9.078125 54.6875 
L 18.109375 54.6875 
L 18.109375 46.1875 
Q 20.953125 51.171875 25.484375 53.578125 
Q 30.03125 56 36.53125 56 
Q 37.453125 56 38.578125 55.875 
Q 39.703125 55.765625 41.0625 55.515625 
z
" id="DejaVuSans-114"/>
      <path d="M 34.28125 27.484375 
Q 23.390625 27.484375 19.1875 25 
Q 14.984375 22.515625 14.984375 16.5 
Q 14.984375 11.71875 18.140625 8.90625 
Q 21.296875 6.109375 26.703125 6.109375 
Q 34.1875 6.109375 38.703125 11.40625 
Q 43.21875 16.703125 43.21875 25.484375 
L 43.21875 27.484375 
z
M 52.203125 31.203125 
L 52.203125 0 
L 43.21875 0 
L 43.21875 8.296875 
Q 40.140625 3.328125 35.546875 0.953125 
Q 30.953125 -1.421875 24.3125 -1.421875 
Q 15.921875 -1.421875 10.953125 3.296875 
Q 6 8.015625 6 15.921875 
Q 6 25.140625 12.171875 29.828125 
Q 18.359375 34.515625 30.609375 34.515625 
L 43.21875 34.515625 
L 43.21875 35.40625 
Q 43.21875 41.609375 39.140625 45 
Q 35.0625 48.390625 27.6875 48.390625 
Q 23 48.390625 18.546875 47.265625 
Q 14.109375 46.140625 10.015625 43.890625 
L 10.015625 52.203125 
Q 14.9375 54.109375 19.578125 55.046875 
Q 24.21875 56 28.609375 56 
Q 40.484375 56 46.34375 49.84375 
Q 52.203125 43.703125 52.203125 31.203125 
z
" id="DejaVuSans-97"/>
      <path d="M 18.3125 70.21875 
L 18.3125 54.6875 
L 36.8125 54.6875 
L 36.8125 47.703125 
L 18.3125 47.703125 
L 18.3125 18.015625 
Q 18.3125 11.328125 20.140625 9.421875 
Q 21.96875 7.515625 27.59375 7.515625 
L 36.8125 7.515625 
L 36.8125 0 
L 27.59375 0 
Q 17.1875 0 13.234375 3.875 
Q 9.28125 7.765625 9.28125 18.015625 
L 9.28125 47.703125 
L 2.6875 47.703125 
L 2.6875 54.6875 
L 9.28125 54.6875 
L 9.28125 70.21875 
z
" id="DejaVuSans-116"/>
      <path d="M 9.421875 54.6875 
L 18.40625 54.6875 
L 18.40625 0 
L 9.421875 0 
z
M 9.421875 75.984375 
L 18.40625 75.984375 
L 18.40625 64.59375 
L 9.421875 64.59375 
z
" id="DejaVuSans-105"/>
      <path d="M 30.609375 48.390625 
Q 23.390625 48.390625 19.1875 42.75 
Q 14.984375 37.109375 14.984375 27.296875 
Q 14.984375 17.484375 19.15625 11.84375 
Q 23.34375 6.203125 30.609375 6.203125 
Q 37.796875 6.203125 41.984375 11.859375 
Q 46.1875 17.53125 46.1875 27.296875 
Q 46.1875 37.015625 41.984375 42.703125 
Q 37.796875 48.390625 30.609375 48.390625 
z
M 30.609375 56 
Q 42.328125 56 49.015625 48.375 
Q 55.71875 40.765625 55.71875 27.296875 
Q 55.71875 13.875 49.015625 6.21875 
Q 42.328125 -1.421875 30.609375 -1.421875 
Q 18.84375 -1.421875 12.171875 6.21875 
Q 5.515625 13.875 5.515625 27.296875 
Q 5.515625 40.765625 12.171875 48.375 
Q 18.84375 56 30.609375 56 
z
" id="DejaVuSans-111"/>
     </defs>
     <g transform="translate(341.430938 353.731875)scale(0.12 -0.12)">
      <use xlink:href="#DejaVuSans-103"/>
      <use x="63.476562" xlink:href="#DejaVuSans-101"/>
      <use x="125" xlink:href="#DejaVuSans-110"/>
      <use x="188.378906" xlink:href="#DejaVuSans-101"/>
      <use x="249.902344" xlink:href="#DejaVuSans-114"/>
      <use x="291.015625" xlink:href="#DejaVuSans-97"/>
      <use x="352.294922" xlink:href="#DejaVuSans-116"/>
      <use x="391.503906" xlink:href="#DejaVuSans-105"/>
      <use x="419.287109" xlink:href="#DejaVuSans-111"/>
      <use x="480.46875" xlink:href="#DejaVuSans-110"/>
     </g>
    </g>
   </g>
   <g id="matplotlib.axis_2">
    <g id="ytick_1">
     <g id="line2d_24">
      <defs>
       <path d="M 0 0 
L 4 0 
" id="m5b49d9c309" style="stroke:#000000;stroke-width:0.5;"/>
      </defs>
      <g>
       <use style="stroke:#000000;stroke-width:0.5;" x="112.5" xlink:href="#m5b49d9c309" y="324"/>
      </g>
     </g>
     <g id="line2d_25">
      <defs>
       <path d="M 0 0 
L -4 0 
" id="m924f86c305" style="stroke:#000000;stroke-width:0.5;"/>
      </defs>
      <g>
       <use style="stroke:#000000;stroke-width:0.5;" x="635.625" xlink:href="#m924f86c305" y="324"/>
      </g>
     </g>
     <g id="text_12">
      <!-- 0.16 -->
      <defs>
       <path d="M 10.6875 12.40625 
L 21 12.40625 
L 21 0 
L 10.6875 0 
z
" id="DejaVuSans-46"/>
      </defs>
      <g transform="translate(81.78125 327.31125)scale(0.12 -0.12)">
       <use xlink:href="#DejaVuSans-48"/>
       <use x="63.623047" xlink:href="#DejaVuSans-46"/>
       <use x="95.410156" xlink:href="#DejaVuSans-49"/>
       <use x="159.033203" xlink:href="#DejaVuSans-54"/>
      </g>
     </g>
    </g>
    <g id="ytick_2">
     <g id="line2d_26">
      <g>
       <use style="stroke:#000000;stroke-width:0.5;" x="112.5" xlink:href="#m5b49d9c309" y="282.857143"/>
      </g>
     </g>
     <g id="line2d_27">
      <g>
       <use style="stroke:#000000;stroke-width:0.5;" x="635.625" xlink:href="#m924f86c305" y="282.857143"/>
      </g>
     </g>
     <g id="text_13">
      <!-- 0.18 -->
      <g transform="translate(81.78125 286.168393)scale(0.12 -0.12)">
       <use xlink:href="#DejaVuSans-48"/>
       <use x="63.623047" xlink:href="#DejaVuSans-46"/>
       <use x="95.410156" xlink:href="#DejaVuSans-49"/>
       <use x="159.033203" xlink:href="#DejaVuSans-56"/>
      </g>
     </g>
    </g>
    <g id="ytick_3">
     <g id="line2d_28">
      <g>
       <use style="stroke:#000000;stroke-width:0.5;" x="112.5" xlink:href="#m5b49d9c309" y="241.714286"/>
      </g>
     </g>
     <g id="line2d_29">
      <g>
       <use style="stroke:#000000;stroke-width:0.5;" x="635.625" xlink:href="#m924f86c305" y="241.714286"/>
      </g>
     </g>
     <g id="text_14">
      <!-- 0.20 -->
      <g transform="translate(81.78125 245.025536)scale(0.12 -0.12)">
       <use xlink:href="#DejaVuSans-48"/>
       <use x="63.623047" xlink:href="#DejaVuSans-46"/>
       <use x="95.410156" xlink:href="#DejaVuSans-50"/>
       <use x="159.033203" xlink:href="#DejaVuSans-48"/>
      </g>
     </g>
    </g>
    <g id="ytick_4">
     <g id="line2d_30">
      <g>
       <use style="stroke:#000000;stroke-width:0.5;" x="112.5" xlink:href="#m5b49d9c309" y="200.571429"/>
      </g>
     </g>
     <g id="line2d_31">
      <g>
       <use style="stroke:#000000;stroke-width:0.5;" x="635.625" xlink:href="#m924f86c305" y="200.571429"/>
      </g>
     </g>
     <g id="text_15">
      <!-- 0.22 -->
      <g transform="translate(81.78125 203.882679)scale(0.12 -0.12)">
       <use xlink:href="#DejaVuSans-48"/>
       <use x="63.623047" xlink:href="#DejaVuSans-46"/>
       <use x="95.410156" xlink:href="#DejaVuSans-50"/>
       <use x="159.033203" xlink:href="#DejaVuSans-50"/>
      </g>
     </g>
    </g>
    <g id="ytick_5">
     <g id="line2d_32">
      <g>
       <use style="stroke:#000000;stroke-width:0.5;" x="112.5" xlink:href="#m5b49d9c309" y="159.428571"/>
      </g>
     </g>
     <g id="line2d_33">
      <g>
       <use style="stroke:#000000;stroke-width:0.5;" x="635.625" xlink:href="#m924f86c305" y="159.428571"/>
      </g>
     </g>
     <g id="text_16">
      <!-- 0.24 -->
      <g transform="translate(81.78125 162.739821)scale(0.12 -0.12)">
       <use xlink:href="#DejaVuSans-48"/>
       <use x="63.623047" xlink:href="#DejaVuSans-46"/>
       <use x="95.410156" xlink:href="#DejaVuSans-50"/>
       <use x="159.033203" xlink:href="#DejaVuSans-52"/>
      </g>
     </g>
    </g>
    <g id="ytick_6">
     <g id="line2d_34">
      <g>
       <use style="stroke:#000000;stroke-width:0.5;" x="112.5" xlink:href="#m5b49d9c309" y="118.285714"/>
      </g>
     </g>
     <g id="line2d_35">
      <g>
       <use style="stroke:#000000;stroke-width:0.5;" x="635.625" xlink:href="#m924f86c305" y="118.285714"/>
      </g>
     </g>
     <g id="text_17">
      <!-- 0.26 -->
      <g transform="translate(81.78125 121.596964)scale(0.12 -0.12)">
       <use xlink:href="#DejaVuSans-48"/>
       <use x="63.623047" xlink:href="#DejaVuSans-46"/>
       <use x="95.410156" xlink:href="#DejaVuSans-50"/>
       <use x="159.033203" xlink:href="#DejaVuSans-54"/>
      </g>
     </g>
    </g>
    <g id="ytick_7">
     <g id="line2d_36">
      <g>
       <use style="stroke:#000000;stroke-width:0.5;" x="112.5" xlink:href="#m5b49d9c309" y="77.142857"/>
      </g>
     </g>
     <g id="line2d_37">
      <g>
       <use style="stroke:#000000;stroke-width:0.5;" x="635.625" xlink:href="#m924f86c305" y="77.142857"/>
      </g>
     </g>
     <g id="text_18">
      <!-- 0.28 -->
      <g transform="translate(81.78125 80.454107)scale(0.12 -0.12)">
       <use xlink:href="#DejaVuSans-48"/>
       <use x="63.623047" xlink:href="#DejaVuSans-46"/>
       <use x="95.410156" xlink:href="#DejaVuSans-50"/>
       <use x="159.033203" xlink:href="#DejaVuSans-56"/>
      </g>
     </g>
    </g>
    <g id="ytick_8">
     <g id="line2d_38">
      <g>
       <use style="stroke:#000000;stroke-width:0.5;" x="112.5" xlink:href="#m5b49d9c309" y="36"/>
      </g>
     </g>
     <g id="line2d_39">
      <g>
       <use style="stroke:#000000;stroke-width:0.5;" x="635.625" xlink:href="#m924f86c305" y="36"/>
      </g>
     </g>
     <g id="text_19">
      <!-- 0.30 -->
      <g transform="translate(81.78125 39.31125)scale(0.12 -0.12)">
       <use xlink:href="#DejaVuSans-48"/>
       <use x="63.623047" xlink:href="#DejaVuSans-46"/>
       <use x="95.410156" xlink:href="#DejaVuSans-51"/>
       <use x="159.033203" xlink:href="#DejaVuSans-48"/>
      </g>
     </g>
    </g>
    <g id="text_20">
     <!-- los -->
     <defs>
      <path d="M 9.421875 75.984375 
L 18.40625 75.984375 
L 18.40625 0 
L 9.421875 0 
z
" id="DejaVuSans-108"/>
      <path d="M 44.28125 53.078125 
L 44.28125 44.578125 
Q 40.484375 46.53125 36.375 47.5 
Q 32.28125 48.484375 27.875 48.484375 
Q 21.1875 48.484375 17.84375 46.4375 
Q 14.5 44.390625 14.5 40.28125 
Q 14.5 37.15625 16.890625 35.375 
Q 19.28125 33.59375 26.515625 31.984375 
L 29.59375 31.296875 
Q 39.15625 29.25 43.1875 25.515625 
Q 47.21875 21.78125 47.21875 15.09375 
Q 47.21875 7.46875 41.1875 3.015625 
Q 35.15625 -1.421875 24.609375 -1.421875 
Q 20.21875 -1.421875 15.453125 -0.5625 
Q 10.6875 0.296875 5.421875 2 
L 5.421875 11.28125 
Q 10.40625 8.6875 15.234375 7.390625 
Q 20.0625 6.109375 24.8125 6.109375 
Q 31.15625 6.109375 34.5625 8.28125 
Q 37.984375 10.453125 37.984375 14.40625 
Q 37.984375 18.0625 35.515625 20.015625 
Q 33.0625 21.96875 24.703125 23.78125 
L 21.578125 24.515625 
Q 13.234375 26.265625 9.515625 29.90625 
Q 5.8125 33.546875 5.8125 39.890625 
Q 5.8125 47.609375 11.28125 51.796875 
Q 16.75 56 26.8125 56 
Q 31.78125 56 36.171875 55.265625 
Q 40.578125 54.546875 44.28125 53.078125 
z
" id="DejaVuSans-115"/>
     </defs>
     <g transform="translate(74.285625 188.46375)rotate(-90)scale(0.12 -0.12)">
      <use xlink:href="#DejaVuSans-108"/>
      <use x="27.783203" xlink:href="#DejaVuSans-111"/>
      <use x="88.964844" xlink:href="#DejaVuSans-115"/>
     </g>
    </g>
   </g>
   <g id="legend_1">
    <g id="patch_7">
     <path d="M 640.623 203.924801 
L 813.864613 203.924801 
L 813.864613 156.075199 
L 640.623 156.075199 
z
" style="fill:#ffffff;stroke:#000000;stroke-linejoin:miter;"/>
    </g>
    <g id="line2d_40">
     <path d="M 647.6202 164.170397 
L 661.6146 164.170397 
" style="fill:none;stroke:#0000ff;stroke-linecap:square;stroke-width:1.2;"/>
    </g>
    <g id="line2d_41"/>
    <g id="text_21">
     <!-- Lonely_GA_baseline(10%) -->
     <defs>
      <path d="M 9.8125 72.90625 
L 19.671875 72.90625 
L 19.671875 8.296875 
L 55.171875 8.296875 
L 55.171875 0 
L 9.8125 0 
z
" id="DejaVuSans-76"/>
      <path d="M 32.171875 -5.078125 
Q 28.375 -14.84375 24.75 -17.8125 
Q 21.140625 -20.796875 15.09375 -20.796875 
L 7.90625 -20.796875 
L 7.90625 -13.28125 
L 13.1875 -13.28125 
Q 16.890625 -13.28125 18.9375 -11.515625 
Q 21 -9.765625 23.484375 -3.21875 
L 25.09375 0.875 
L 2.984375 54.6875 
L 12.5 54.6875 
L 29.59375 11.921875 
L 46.6875 54.6875 
L 56.203125 54.6875 
z
" id="DejaVuSans-121"/>
      <path d="M 50.984375 -16.609375 
L 50.984375 -23.578125 
L -0.984375 -23.578125 
L -0.984375 -16.609375 
z
" id="DejaVuSans-95"/>
      <path d="M 59.515625 10.40625 
L 59.515625 29.984375 
L 43.40625 29.984375 
L 43.40625 38.09375 
L 69.28125 38.09375 
L 69.28125 6.78125 
Q 63.578125 2.734375 56.6875 0.65625 
Q 49.8125 -1.421875 42 -1.421875 
Q 24.90625 -1.421875 15.25 8.5625 
Q 5.609375 18.5625 5.609375 36.375 
Q 5.609375 54.25 15.25 64.234375 
Q 24.90625 74.21875 42 74.21875 
Q 49.125 74.21875 55.546875 72.453125 
Q 61.96875 70.703125 67.390625 67.28125 
L 67.390625 56.78125 
Q 61.921875 61.421875 55.765625 63.765625 
Q 49.609375 66.109375 42.828125 66.109375 
Q 29.4375 66.109375 22.71875 58.640625 
Q 16.015625 51.171875 16.015625 36.375 
Q 16.015625 21.625 22.71875 14.15625 
Q 29.4375 6.6875 42.828125 6.6875 
Q 48.046875 6.6875 52.140625 7.59375 
Q 56.25 8.5 59.515625 10.40625 
z
" id="DejaVuSans-71"/>
      <path d="M 34.1875 63.1875 
L 20.796875 26.90625 
L 47.609375 26.90625 
z
M 28.609375 72.90625 
L 39.796875 72.90625 
L 67.578125 0 
L 57.328125 0 
L 50.6875 18.703125 
L 17.828125 18.703125 
L 11.1875 0 
L 0.78125 0 
z
" id="DejaVuSans-65"/>
      <path d="M 48.6875 27.296875 
Q 48.6875 37.203125 44.609375 42.84375 
Q 40.53125 48.484375 33.40625 48.484375 
Q 26.265625 48.484375 22.1875 42.84375 
Q 18.109375 37.203125 18.109375 27.296875 
Q 18.109375 17.390625 22.1875 11.75 
Q 26.265625 6.109375 33.40625 6.109375 
Q 40.53125 6.109375 44.609375 11.75 
Q 48.6875 17.390625 48.6875 27.296875 
z
M 18.109375 46.390625 
Q 20.953125 51.265625 25.265625 53.625 
Q 29.59375 56 35.59375 56 
Q 45.5625 56 51.78125 48.09375 
Q 58.015625 40.1875 58.015625 27.296875 
Q 58.015625 14.40625 51.78125 6.484375 
Q 45.5625 -1.421875 35.59375 -1.421875 
Q 29.59375 -1.421875 25.265625 0.953125 
Q 20.953125 3.328125 18.109375 8.203125 
L 18.109375 0 
L 9.078125 0 
L 9.078125 75.984375 
L 18.109375 75.984375 
z
" id="DejaVuSans-98"/>
      <path d="M 31 75.875 
Q 24.46875 64.65625 21.28125 53.65625 
Q 18.109375 42.671875 18.109375 31.390625 
Q 18.109375 20.125 21.3125 9.0625 
Q 24.515625 -2 31 -13.1875 
L 23.1875 -13.1875 
Q 15.875 -1.703125 12.234375 9.375 
Q 8.59375 20.453125 8.59375 31.390625 
Q 8.59375 42.28125 12.203125 53.3125 
Q 15.828125 64.359375 23.1875 75.875 
z
" id="DejaVuSans-40"/>
      <path d="M 72.703125 32.078125 
Q 68.453125 32.078125 66.03125 28.46875 
Q 63.625 24.859375 63.625 18.40625 
Q 63.625 12.0625 66.03125 8.421875 
Q 68.453125 4.78125 72.703125 4.78125 
Q 76.859375 4.78125 79.265625 8.421875 
Q 81.6875 12.0625 81.6875 18.40625 
Q 81.6875 24.8125 79.265625 28.4375 
Q 76.859375 32.078125 72.703125 32.078125 
z
M 72.703125 38.28125 
Q 80.421875 38.28125 84.953125 32.90625 
Q 89.5 27.546875 89.5 18.40625 
Q 89.5 9.28125 84.9375 3.921875 
Q 80.375 -1.421875 72.703125 -1.421875 
Q 64.890625 -1.421875 60.34375 3.921875 
Q 55.8125 9.28125 55.8125 18.40625 
Q 55.8125 27.59375 60.375 32.9375 
Q 64.9375 38.28125 72.703125 38.28125 
z
M 22.3125 68.015625 
Q 18.109375 68.015625 15.6875 64.375 
Q 13.28125 60.75 13.28125 54.390625 
Q 13.28125 47.953125 15.671875 44.328125 
Q 18.0625 40.71875 22.3125 40.71875 
Q 26.5625 40.71875 28.96875 44.328125 
Q 31.390625 47.953125 31.390625 54.390625 
Q 31.390625 60.6875 28.953125 64.34375 
Q 26.515625 68.015625 22.3125 68.015625 
z
M 66.40625 74.21875 
L 74.21875 74.21875 
L 28.609375 -1.421875 
L 20.796875 -1.421875 
z
M 22.3125 74.21875 
Q 30.03125 74.21875 34.609375 68.875 
Q 39.203125 63.53125 39.203125 54.390625 
Q 39.203125 45.171875 34.640625 39.84375 
Q 30.078125 34.515625 22.3125 34.515625 
Q 14.546875 34.515625 10.03125 39.859375 
Q 5.515625 45.21875 5.515625 54.390625 
Q 5.515625 63.484375 10.046875 68.84375 
Q 14.59375 74.21875 22.3125 74.21875 
z
" id="DejaVuSans-37"/>
      <path d="M 8.015625 75.875 
L 15.828125 75.875 
Q 23.140625 64.359375 26.78125 53.3125 
Q 30.421875 42.28125 30.421875 31.390625 
Q 30.421875 20.453125 26.78125 9.375 
Q 23.140625 -1.703125 15.828125 -13.1875 
L 8.015625 -13.1875 
Q 14.5 -2 17.703125 9.0625 
Q 20.90625 20.125 20.90625 31.390625 
Q 20.90625 42.671875 17.703125 53.65625 
Q 14.5 64.65625 8.015625 75.875 
z
" id="DejaVuSans-41"/>
     </defs>
     <g transform="translate(672.6102 167.668997)scale(0.09996 -0.09996)">
      <use xlink:href="#DejaVuSans-76"/>
      <use x="53.962891" xlink:href="#DejaVuSans-111"/>
      <use x="115.144531" xlink:href="#DejaVuSans-110"/>
      <use x="178.523438" xlink:href="#DejaVuSans-101"/>
      <use x="240.046875" xlink:href="#DejaVuSans-108"/>
      <use x="267.830078" xlink:href="#DejaVuSans-121"/>
      <use x="327.009766" xlink:href="#DejaVuSans-95"/>
      <use x="377.009766" xlink:href="#DejaVuSans-71"/>
      <use x="454.5" xlink:href="#DejaVuSans-65"/>
      <use x="522.908203" xlink:href="#DejaVuSans-95"/>
      <use x="572.908203" xlink:href="#DejaVuSans-98"/>
      <use x="636.384766" xlink:href="#DejaVuSans-97"/>
      <use x="697.664062" xlink:href="#DejaVuSans-115"/>
      <use x="749.763672" xlink:href="#DejaVuSans-101"/>
      <use x="811.287109" xlink:href="#DejaVuSans-108"/>
      <use x="839.070312" xlink:href="#DejaVuSans-105"/>
      <use x="866.853516" xlink:href="#DejaVuSans-110"/>
      <use x="930.232422" xlink:href="#DejaVuSans-101"/>
      <use x="991.755859" xlink:href="#DejaVuSans-40"/>
      <use x="1030.769531" xlink:href="#DejaVuSans-49"/>
      <use x="1094.392578" xlink:href="#DejaVuSans-48"/>
      <use x="1158.015625" xlink:href="#DejaVuSans-37"/>
      <use x="1253.035156" xlink:href="#DejaVuSans-41"/>
     </g>
    </g>
    <g id="line2d_42">
     <path d="M 647.6202 179.120664 
L 661.6146 179.120664 
" style="fill:none;stroke:#008000;stroke-linecap:square;stroke-width:1.2;"/>
    </g>
    <g id="line2d_43"/>
    <g id="text_22">
     <!-- Lonely_los_exp_loss(10%) -->
     <defs>
      <path d="M 54.890625 54.6875 
L 35.109375 28.078125 
L 55.90625 0 
L 45.3125 0 
L 29.390625 21.484375 
L 13.484375 0 
L 2.875 0 
L 24.125 28.609375 
L 4.6875 54.6875 
L 15.28125 54.6875 
L 29.78125 35.203125 
L 44.28125 54.6875 
z
" id="DejaVuSans-120"/>
      <path d="M 18.109375 8.203125 
L 18.109375 -20.796875 
L 9.078125 -20.796875 
L 9.078125 54.6875 
L 18.109375 54.6875 
L 18.109375 46.390625 
Q 20.953125 51.265625 25.265625 53.625 
Q 29.59375 56 35.59375 56 
Q 45.5625 56 51.78125 48.09375 
Q 58.015625 40.1875 58.015625 27.296875 
Q 58.015625 14.40625 51.78125 6.484375 
Q 45.5625 -1.421875 35.59375 -1.421875 
Q 29.59375 -1.421875 25.265625 0.953125 
Q 20.953125 3.328125 18.109375 8.203125 
z
M 48.6875 27.296875 
Q 48.6875 37.203125 44.609375 42.84375 
Q 40.53125 48.484375 33.40625 48.484375 
Q 26.265625 48.484375 22.1875 42.84375 
Q 18.109375 37.203125 18.109375 27.296875 
Q 18.109375 17.390625 22.1875 11.75 
Q 26.265625 6.109375 33.40625 6.109375 
Q 40.53125 6.109375 44.609375 11.75 
Q 48.6875 17.390625 48.6875 27.296875 
z
" id="DejaVuSans-112"/>
     </defs>
     <g transform="translate(672.6102 182.619264)scale(0.09996 -0.09996)">
      <use xlink:href="#DejaVuSans-76"/>
      <use x="53.962891" xlink:href="#DejaVuSans-111"/>
      <use x="115.144531" xlink:href="#DejaVuSans-110"/>
      <use x="178.523438" xlink:href="#DejaVuSans-101"/>
      <use x="240.046875" xlink:href="#DejaVuSans-108"/>
      <use x="267.830078" xlink:href="#DejaVuSans-121"/>
      <use x="327.009766" xlink:href="#DejaVuSans-95"/>
      <use x="377.009766" xlink:href="#DejaVuSans-108"/>
      <use x="404.792969" xlink:href="#DejaVuSans-111"/>
      <use x="465.974609" xlink:href="#DejaVuSans-115"/>
      <use x="518.074219" xlink:href="#DejaVuSans-95"/>
      <use x="568.074219" xlink:href="#DejaVuSans-101"/>
      <use x="627.847656" xlink:href="#DejaVuSans-120"/>
      <use x="687.027344" xlink:href="#DejaVuSans-112"/>
      <use x="750.503906" xlink:href="#DejaVuSans-95"/>
      <use x="800.503906" xlink:href="#DejaVuSans-108"/>
      <use x="828.287109" xlink:href="#DejaVuSans-111"/>
      <use x="889.46875" xlink:href="#DejaVuSans-115"/>
      <use x="941.568359" xlink:href="#DejaVuSans-115"/>
      <use x="993.667969" xlink:href="#DejaVuSans-40"/>
      <use x="1032.681641" xlink:href="#DejaVuSans-49"/>
      <use x="1096.304688" xlink:href="#DejaVuSans-48"/>
      <use x="1159.927734" xlink:href="#DejaVuSans-37"/>
      <use x="1254.947266" xlink:href="#DejaVuSans-41"/>
     </g>
    </g>
    <g id="line2d_44">
     <path d="M 647.6202 194.070932 
L 661.6146 194.070932 
" style="fill:none;stroke:#ff0000;stroke-linecap:square;stroke-width:1.2;"/>
    </g>
    <g id="line2d_45"/>
    <g id="text_23">
     <!-- Final_implementation(10%) -->
     <defs>
      <path d="M 9.8125 72.90625 
L 51.703125 72.90625 
L 51.703125 64.59375 
L 19.671875 64.59375 
L 19.671875 43.109375 
L 48.578125 43.109375 
L 48.578125 34.8125 
L 19.671875 34.8125 
L 19.671875 0 
L 9.8125 0 
z
" id="DejaVuSans-70"/>
      <path d="M 52 44.1875 
Q 55.375 50.25 60.0625 53.125 
Q 64.75 56 71.09375 56 
Q 79.640625 56 84.28125 50.015625 
Q 88.921875 44.046875 88.921875 33.015625 
L 88.921875 0 
L 79.890625 0 
L 79.890625 32.71875 
Q 79.890625 40.578125 77.09375 44.375 
Q 74.3125 48.1875 68.609375 48.1875 
Q 61.625 48.1875 57.5625 43.546875 
Q 53.515625 38.921875 53.515625 30.90625 
L 53.515625 0 
L 44.484375 0 
L 44.484375 32.71875 
Q 44.484375 40.625 41.703125 44.40625 
Q 38.921875 48.1875 33.109375 48.1875 
Q 26.21875 48.1875 22.15625 43.53125 
Q 18.109375 38.875 18.109375 30.90625 
L 18.109375 0 
L 9.078125 0 
L 9.078125 54.6875 
L 18.109375 54.6875 
L 18.109375 46.1875 
Q 21.1875 51.21875 25.484375 53.609375 
Q 29.78125 56 35.6875 56 
Q 41.65625 56 45.828125 52.96875 
Q 50 49.953125 52 44.1875 
z
" id="DejaVuSans-109"/>
     </defs>
     <g transform="translate(672.6102 197.569532)scale(0.09996 -0.09996)">
      <use xlink:href="#DejaVuSans-70"/>
      <use x="50.269531" xlink:href="#DejaVuSans-105"/>
      <use x="78.052734" xlink:href="#DejaVuSans-110"/>
      <use x="141.431641" xlink:href="#DejaVuSans-97"/>
      <use x="202.710938" xlink:href="#DejaVuSans-108"/>
      <use x="230.494141" xlink:href="#DejaVuSans-95"/>
      <use x="280.494141" xlink:href="#DejaVuSans-105"/>
      <use x="308.277344" xlink:href="#DejaVuSans-109"/>
      <use x="405.689453" xlink:href="#DejaVuSans-112"/>
      <use x="469.166016" xlink:href="#DejaVuSans-108"/>
      <use x="496.949219" xlink:href="#DejaVuSans-101"/>
      <use x="558.472656" xlink:href="#DejaVuSans-109"/>
      <use x="655.884766" xlink:href="#DejaVuSans-101"/>
      <use x="717.408203" xlink:href="#DejaVuSans-110"/>
      <use x="780.787109" xlink:href="#DejaVuSans-116"/>
      <use x="819.996094" xlink:href="#DejaVuSans-97"/>
      <use x="881.275391" xlink:href="#DejaVuSans-116"/>
      <use x="920.484375" xlink:href="#DejaVuSans-105"/>
      <use x="948.267578" xlink:href="#DejaVuSans-111"/>
      <use x="1009.449219" xlink:href="#DejaVuSans-110"/>
      <use x="1072.828125" xlink:href="#DejaVuSans-40"/>
      <use x="1111.841797" xlink:href="#DejaVuSans-49"/>
      <use x="1175.464844" xlink:href="#DejaVuSans-48"/>
      <use x="1239.087891" xlink:href="#DejaVuSans-37"/>
      <use x="1334.107422" xlink:href="#DejaVuSans-41"/>
     </g>
    </g>
   </g>
  </g>
  <g id="text_24">
   <!-- Average Loss -->
   <defs>
    <path d="M 2.984375 54.6875 
L 12.5 54.6875 
L 29.59375 8.796875 
L 46.6875 54.6875 
L 56.203125 54.6875 
L 35.6875 0 
L 23.484375 0 
z
" id="DejaVuSans-118"/>
    <path id="DejaVuSans-32"/>
   </defs>
   <g transform="translate(410.293125 16.318125)scale(0.12 -0.12)">
    <use xlink:href="#DejaVuSans-65"/>
    <use x="62.533203" xlink:href="#DejaVuSans-118"/>
    <use x="121.712891" xlink:href="#DejaVuSans-101"/>
    <use x="183.236328" xlink:href="#DejaVuSans-114"/>
    <use x="224.349609" xlink:href="#DejaVuSans-97"/>
    <use x="285.628906" xlink:href="#DejaVuSans-103"/>
    <use x="349.105469" xlink:href="#DejaVuSans-101"/>
    <use x="410.628906" xlink:href="#DejaVuSans-32"/>
    <use x="442.416016" xlink:href="#DejaVuSans-76"/>
    <use x="496.378906" xlink:href="#DejaVuSans-111"/>
    <use x="557.560547" xlink:href="#DejaVuSans-115"/>
    <use x="609.660156" xlink:href="#DejaVuSans-115"/>
   </g>
  </g>
 </g>
 <defs>
  <clipPath id="p647fc497c1">
   <rect height="288" width="523.125" x="112.5" y="36"/>
  </clipPath>
 </defs>
</svg>
