<?xml version="1.0" encoding="utf-8" standalone="no"?>
<!DOCTYPE svg PUBLIC "-//W3C//DTD SVG 1.1//EN"
  "http://www.w3.org/Graphics/SVG/1.1/DTD/svg11.dtd">
<!-- Created with matplotlib (https://matplotlib.org/) -->
<svg height="360pt" version="1.1" viewBox="0 0 900 360" width="900pt" xmlns="http://www.w3.org/2000/svg" xmlns:xlink="http://www.w3.org/1999/xlink">
 <defs>
  <style type="text/css">
*{stroke-linecap:butt;stroke-linejoin:round;}
  </style>
 </defs>
 <g id="figure_1">
  <g id="patch_1">
   <path d="M 0 360 
L 900 360 
L 900 0 
L 0 0 
z
" style="fill:#ffffff;"/>
  </g>
  <g id="axes_1">
   <g id="patch_2">
    <path d="M 112.5 324 
L 635.625 324 
L 635.625 36 
L 112.5 36 
z
" style="fill:#ffffff;"/>
   </g>
   <g id="line2d_1">
    <path clip-path="url(#p47d062c525)" d="M 112.86788 245.600002 
L 116.546677 215.199998 
L 120.225475 223.2 
L 123.904272 237.6 
L 127.58307 216.800002 
L 131.261867 216.800002 
L 134.940665 218.4 
L 138.619462 194.4 
L 142.298259 218.4 
L 145.977057 200.799998 
L 149.655854 219.999998 
L 153.334652 210.399998 
L 157.013449 221.600002 
L 160.692247 213.6 
L 164.371044 208.8 
L 168.049842 228 
L 171.728639 210.399998 
L 175.407437 202.400002 
L 179.086234 191.199998 
L 182.765032 212.000002 
L 186.443829 167.199998 
L 190.122627 181.599998 
L 197.480222 200.799998 
L 201.159019 168.800002 
L 204.837816 212.000002 
L 208.516614 195.999998 
L 212.195411 186.399998 
L 215.874209 189.6 
L 219.553006 180 
L 223.231804 154.400002 
L 226.910601 192.800002 
L 230.589399 152.799998 
L 234.268196 149.600002 
L 237.946994 194.4 
L 241.625791 157.599998 
L 245.304589 138.399998 
L 248.983386 157.599998 
L 252.662184 130.400002 
L 256.340981 159.200002 
L 260.019778 154.400002 
L 263.698576 168.800002 
L 267.377373 173.600002 
L 271.056171 156 
L 274.734968 164.000002 
L 278.413766 140.000002 
L 282.092563 152.799998 
L 285.771361 149.600002 
L 289.450158 140.000002 
L 293.128956 151.2 
L 296.807753 151.2 
L 300.486551 143.199998 
L 304.165348 180 
L 307.844146 140.000002 
L 311.522943 135.200002 
L 315.201741 159.200002 
L 318.880538 141.6 
L 322.559335 151.2 
L 326.238133 143.199998 
L 329.91693 160.8 
L 333.595728 157.599998 
L 337.274525 133.599998 
L 340.953323 112.8 
L 344.63212 192.800002 
L 348.310918 140.000002 
L 351.989715 156 
L 355.668513 164.000002 
L 359.34731 164.000002 
L 363.026108 135.200002 
L 366.704905 171.999998 
L 370.383703 157.599998 
L 374.0625 157.599998 
L 377.741297 127.2 
L 381.420095 173.600002 
L 385.098892 151.2 
L 388.77769 156 
L 392.456487 149.600002 
L 396.135285 135.200002 
L 399.814082 147.999998 
L 403.49288 165.6 
L 407.171677 152.799998 
L 410.850475 122.4 
L 414.529272 138.399998 
L 418.20807 119.199998 
L 421.886867 144.800002 
L 429.244462 157.599998 
L 432.923259 133.599998 
L 436.602057 138.399998 
L 440.280854 130.400002 
L 443.959652 140.000002 
L 447.638449 127.2 
L 451.317247 194.4 
L 454.996044 111.200002 
L 458.674842 133.599998 
L 462.353639 133.599998 
L 466.032437 154.400002 
L 469.711234 138.399998 
L 473.390032 104.799998 
L 477.068829 120.800002 
L 480.747627 117.6 
L 484.426424 141.6 
L 488.105222 111.200002 
L 491.784019 130.400002 
L 495.462816 135.200002 
L 499.141614 120.800002 
L 502.820411 140.000002 
L 506.499209 116.000002 
L 510.178006 103.2 
L 513.856804 136.8 
L 517.535601 112.8 
L 521.214399 106.400002 
L 524.893196 138.399998 
L 528.571994 156 
L 532.250791 119.199998 
L 535.929589 109.599998 
L 539.608386 112.8 
L 543.287184 114.399998 
L 546.965981 127.2 
L 550.644778 104.799998 
L 554.323576 117.6 
L 558.002373 138.399998 
L 561.681171 125.600002 
L 565.359968 136.8 
L 569.038766 114.399998 
L 572.717563 116.000002 
L 576.396361 103.2 
L 580.075158 96.800002 
L 583.753956 103.2 
L 587.432753 111.200002 
L 591.111551 101.600002 
L 594.790348 101.600002 
L 598.469146 104.799998 
L 602.147943 125.600002 
L 605.826741 96.800002 
L 609.505538 123.999998 
L 613.184335 95.199998 
L 616.863133 96.800002 
L 620.54193 112.8 
L 624.220728 104.799998 
L 624.220728 104.799998 
" style="fill:none;stroke:#0000ff;stroke-linecap:square;stroke-width:1.2;"/>
   </g>
   <g id="line2d_2">
    <path clip-path="url(#p47d062c525)" d="M 112.86788 279.200002 
L 116.546677 272.799998 
L 120.225475 237.6 
L 123.904272 245.600002 
L 127.58307 242.4 
L 131.261867 192.800002 
L 134.940665 229.599998 
L 138.619462 237.6 
L 142.298259 229.599998 
L 145.977057 223.2 
L 149.655854 219.999998 
L 153.334652 250.400002 
L 157.013449 195.999998 
L 160.692247 228 
L 164.371044 210.399998 
L 168.049842 216.800002 
L 171.728639 204 
L 175.407437 194.4 
L 179.086234 212.000002 
L 182.765032 184.8 
L 186.443829 191.199998 
L 190.122627 223.2 
L 193.801424 170.4 
L 197.480222 171.999998 
L 201.159019 189.6 
L 204.837816 242.4 
L 208.516614 167.199998 
L 212.195411 218.4 
L 215.874209 180 
L 219.553006 199.2 
L 223.231804 192.800002 
L 226.910601 180 
L 230.589399 156 
L 234.268196 212.000002 
L 237.946994 168.800002 
L 241.625791 175.2 
L 245.304589 168.800002 
L 248.983386 136.8 
L 252.662184 223.2 
L 256.340981 180 
L 260.019778 165.6 
L 263.698576 132 
L 267.377373 146.4 
L 271.056171 152.799998 
L 274.734968 116.000002 
L 278.413766 152.799998 
L 282.092563 152.799998 
L 285.771361 146.4 
L 289.450158 173.600002 
L 293.128956 144.800002 
L 296.807753 133.599998 
L 300.486551 156 
L 304.165348 133.599998 
L 307.844146 144.800002 
L 311.522943 157.599998 
L 315.201741 116.000002 
L 318.880538 120.800002 
L 322.559335 146.4 
L 326.238133 133.599998 
L 329.91693 130.400002 
L 333.595728 141.6 
L 337.274525 125.600002 
L 340.953323 125.600002 
L 344.63212 133.599998 
L 348.310918 141.6 
L 351.989715 117.6 
L 355.668513 114.399998 
L 359.34731 128.799998 
L 363.026108 144.800002 
L 366.704905 135.200002 
L 370.383703 125.600002 
L 374.0625 114.399998 
L 377.741297 116.000002 
L 381.420095 103.2 
L 385.098892 96.800002 
L 388.77769 138.399998 
L 392.456487 109.599998 
L 396.135285 106.400002 
L 399.814082 106.400002 
L 403.49288 109.599998 
L 407.171677 99.999998 
L 410.850475 103.2 
L 414.529272 111.200002 
L 418.20807 80.799998 
L 421.886867 80.799998 
L 425.565665 87.200002 
L 429.244462 82.400002 
L 432.923259 96.800002 
L 436.602057 90.399998 
L 440.280854 85.599998 
L 443.959652 88.8 
L 447.638449 80.799998 
L 451.317247 87.200002 
L 454.996044 90.399998 
L 458.674842 82.400002 
L 462.353639 108 
L 466.032437 79.2 
L 469.711234 96.800002 
L 473.390032 84 
L 477.068829 123.999998 
L 480.747627 95.199998 
L 484.426424 92.000002 
L 488.105222 85.599998 
L 491.784019 85.599998 
L 495.462816 108 
L 499.141614 98.4 
L 502.820411 80.799998 
L 506.499209 106.400002 
L 510.178006 104.799998 
L 513.856804 92.000002 
L 517.535601 85.599998 
L 521.214399 92.000002 
L 524.893196 109.599998 
L 528.571994 84 
L 532.250791 98.4 
L 535.929589 154.400002 
L 539.608386 85.599998 
L 543.287184 90.399998 
L 546.965981 82.400002 
L 550.644778 82.400002 
L 554.323576 132 
L 558.002373 84 
L 561.681171 99.999998 
L 565.359968 95.199998 
L 569.038766 108 
L 572.717563 104.799998 
L 576.396361 165.6 
" style="fill:none;stroke:#008000;stroke-linecap:square;stroke-width:1.2;"/>
   </g>
   <g id="line2d_3">
    <path clip-path="url(#p47d062c525)" d="M 112.86788 253.599998 
L 116.546677 240.800002 
L 120.225475 208.8 
L 123.904272 223.2 
L 127.58307 212.000002 
L 131.261867 216.800002 
L 134.940665 173.600002 
L 138.619462 253.599998 
L 142.298259 210.399998 
L 145.977057 202.400002 
L 149.655854 210.399998 
L 153.334652 213.6 
L 157.013449 219.999998 
L 160.692247 215.199998 
L 164.371044 195.999998 
L 168.049842 197.600002 
L 171.728639 195.999998 
L 175.407437 195.999998 
L 179.086234 138.399998 
L 182.765032 164.000002 
L 186.443829 162.399998 
L 190.122627 171.999998 
L 193.801424 146.4 
L 197.480222 173.600002 
L 201.159019 133.599998 
L 208.516614 143.199998 
L 212.195411 133.599998 
L 215.874209 168.800002 
L 219.553006 111.200002 
L 223.231804 125.600002 
L 226.910601 151.2 
L 230.589399 165.6 
L 234.268196 111.200002 
L 237.946994 120.800002 
L 241.625791 106.400002 
L 245.304589 114.399998 
L 252.662184 101.600002 
L 256.340981 130.400002 
L 260.019778 128.799998 
L 263.698576 119.199998 
L 267.377373 84 
L 271.056171 99.999998 
L 274.734968 111.200002 
L 278.413766 104.799998 
L 282.092563 106.400002 
L 285.771361 101.600002 
L 293.128956 82.400002 
L 296.807753 90.399998 
L 300.486551 77.600002 
L 304.165348 77.600002 
L 307.844146 87.200002 
L 311.522943 101.600002 
L 315.201741 85.599998 
L 318.880538 82.400002 
L 322.559335 82.400002 
L 326.238133 133.599998 
L 329.91693 101.600002 
L 333.595728 68.000002 
L 337.274525 79.2 
L 340.953323 85.599998 
L 344.63212 88.8 
L 348.310918 85.599998 
L 351.989715 61.599998 
L 355.668513 95.199998 
L 359.34731 82.400002 
L 363.026108 99.999998 
L 366.704905 109.599998 
L 370.383703 82.400002 
L 374.0625 92.000002 
L 377.741297 109.599998 
L 381.420095 120.800002 
L 385.098892 120.800002 
L 388.77769 95.199998 
L 392.456487 82.400002 
L 396.135285 85.599998 
L 399.814082 99.999998 
L 403.49288 92.000002 
L 407.171677 80.799998 
L 410.850475 93.6 
L 414.529272 95.199998 
L 418.20807 95.199998 
L 421.886867 80.799998 
L 425.565665 93.6 
L 429.244462 101.600002 
L 432.923259 93.6 
L 436.602057 122.4 
L 440.280854 95.199998 
L 443.959652 103.2 
L 447.638449 87.200002 
L 451.317247 85.599998 
L 454.996044 93.6 
L 458.674842 95.199998 
L 462.353639 98.4 
L 466.032437 69.6 
L 469.711234 87.200002 
L 473.390032 72.800002 
L 477.068829 90.399998 
L 480.747627 96.800002 
L 484.426424 87.200002 
L 488.105222 98.4 
L 491.784019 90.399998 
L 495.462816 80.799998 
L 499.141614 85.599998 
L 502.820411 96.800002 
L 506.499209 92.000002 
L 510.178006 50.4 
L 513.856804 74.4 
L 517.535601 84 
L 521.214399 85.599998 
L 524.893196 64.8 
L 528.571994 103.2 
L 532.250791 61.599998 
L 535.929589 72.800002 
L 539.608386 82.400002 
L 543.287184 79.2 
L 546.965981 68.000002 
L 550.644778 66.399998 
L 554.323576 90.399998 
L 558.002373 72.800002 
L 561.681171 87.200002 
L 565.359968 74.4 
L 569.038766 80.799998 
L 572.717563 77.600002 
L 576.396361 66.399998 
L 580.075158 68.000002 
L 583.753956 84 
L 587.432753 71.199998 
L 591.111551 75.999998 
L 594.790348 64.8 
L 598.469146 88.8 
L 602.147943 74.4 
L 605.826741 58.400002 
L 609.505538 61.599998 
L 613.184335 72.800002 
L 616.863133 85.599998 
L 620.54193 88.8 
L 624.220728 95.199998 
L 627.899525 84 
L 631.578323 71.199998 
L 635.25712 68.000002 
L 635.25712 68.000002 
" style="fill:none;stroke:#ff0000;stroke-linecap:square;stroke-width:1.2;"/>
   </g>
   <g id="line2d_4">
    <path clip-path="url(#p47d062c525)" d="M 112.86788 277.599998 
L 116.546677 223.2 
L 120.225475 236.000002 
L 123.904272 242.4 
L 127.58307 191.199998 
L 131.261867 188.000002 
L 134.940665 207.200002 
L 138.619462 218.4 
L 142.298259 208.8 
L 145.977057 210.399998 
L 149.655854 218.4 
L 153.334652 219.999998 
L 157.013449 195.999998 
L 160.692247 202.400002 
L 164.371044 180 
L 168.049842 215.199998 
L 171.728639 138.399998 
L 175.407437 173.600002 
L 179.086234 171.999998 
L 182.765032 186.399998 
L 190.122627 167.199998 
L 193.801424 159.200002 
L 197.480222 157.599998 
L 201.159019 157.599998 
L 204.837816 135.200002 
L 208.516614 156 
L 212.195411 160.8 
L 215.874209 160.8 
L 219.553006 123.999998 
L 223.231804 152.799998 
L 226.910601 140.000002 
L 230.589399 133.599998 
L 234.268196 130.400002 
L 237.946994 125.600002 
L 241.625791 133.599998 
L 245.304589 152.799998 
L 248.983386 104.799998 
L 252.662184 111.200002 
L 256.340981 119.199998 
L 260.019778 108 
L 263.698576 112.8 
L 267.377373 112.8 
L 271.056171 104.799998 
L 274.734968 98.4 
L 278.413766 88.8 
L 282.092563 87.200002 
L 285.771361 109.599998 
L 289.450158 119.199998 
L 293.128956 116.000002 
L 296.807753 120.800002 
L 300.486551 127.2 
L 304.165348 123.999998 
L 307.844146 101.600002 
L 311.522943 111.200002 
L 315.201741 108 
L 318.880538 93.6 
L 322.559335 106.400002 
L 326.238133 96.800002 
L 329.91693 82.400002 
L 333.595728 99.999998 
L 337.274525 122.4 
L 340.953323 128.799998 
L 344.63212 92.000002 
L 348.310918 90.399998 
L 351.989715 96.800002 
L 355.668513 93.6 
L 359.34731 95.199998 
L 363.026108 66.399998 
L 366.704905 93.6 
L 370.383703 75.999998 
L 374.0625 85.599998 
L 377.741297 84 
L 381.420095 75.999998 
L 385.098892 93.6 
L 388.77769 80.799998 
L 392.456487 85.599998 
L 396.135285 80.799998 
L 399.814082 122.4 
L 403.49288 69.6 
L 407.171677 80.799998 
L 410.850475 90.399998 
L 414.529272 68.000002 
L 418.20807 80.799998 
L 421.886867 72.800002 
L 425.565665 95.199998 
L 429.244462 69.6 
L 432.923259 85.599998 
L 436.602057 75.999998 
L 440.280854 80.799998 
L 443.959652 75.999998 
L 447.638449 88.8 
L 454.996044 79.2 
L 458.674842 77.600002 
L 462.353639 82.400002 
L 466.032437 88.8 
L 469.711234 85.599998 
L 473.390032 87.200002 
L 477.068829 84 
L 480.747627 90.399998 
L 484.426424 85.599998 
L 488.105222 85.599998 
L 491.784019 72.800002 
L 495.462816 82.400002 
L 499.141614 68.000002 
L 502.820411 68.000002 
L 506.499209 80.799998 
L 513.856804 71.199998 
L 517.535601 80.799998 
L 521.214399 108 
L 524.893196 132 
L 528.571994 101.600002 
L 532.250791 111.200002 
L 535.929589 138.399998 
L 539.608386 122.4 
L 543.287184 120.800002 
L 546.965981 58.400002 
L 550.644778 116.000002 
L 554.323576 85.599998 
L 558.002373 132 
L 561.681171 123.999998 
L 565.359968 120.800002 
L 569.038766 92.000002 
L 572.717563 72.800002 
L 576.396361 90.399998 
L 580.075158 101.600002 
L 583.753956 84 
L 587.432753 85.599998 
L 587.432753 85.599998 
" style="fill:none;stroke:#00bfbf;stroke-linecap:square;stroke-width:1.2;"/>
   </g>
   <g id="patch_3">
    <path d="M 112.5 324 
L 112.5 36 
" style="fill:none;stroke:#000000;stroke-linecap:square;stroke-linejoin:miter;"/>
   </g>
   <g id="patch_4">
    <path d="M 635.625 324 
L 635.625 36 
" style="fill:none;stroke:#000000;stroke-linecap:square;stroke-linejoin:miter;"/>
   </g>
   <g id="patch_5">
    <path d="M 112.5 324 
L 635.625 324 
" style="fill:none;stroke:#000000;stroke-linecap:square;stroke-linejoin:miter;"/>
   </g>
   <g id="patch_6">
    <path d="M 112.5 36 
L 635.625 36 
" style="fill:none;stroke:#000000;stroke-linecap:square;stroke-linejoin:miter;"/>
   </g>
   <g id="matplotlib.axis_1">
    <g id="xtick_1">
     <g id="line2d_5">
      <defs>
       <path d="M 0 0 
L 0 -4 
" id="m00cde8863e" style="stroke:#000000;stroke-width:0.5;"/>
      </defs>
      <g>
       <use style="stroke:#000000;stroke-width:0.5;" x="112.86788" xlink:href="#m00cde8863e" y="324"/>
      </g>
     </g>
     <g id="line2d_6">
      <defs>
       <path d="M 0 0 
L 0 4 
" id="m59badd0dd6" style="stroke:#000000;stroke-width:0.5;"/>
      </defs>
      <g>
       <use style="stroke:#000000;stroke-width:0.5;" x="112.86788" xlink:href="#m59badd0dd6" y="36"/>
      </g>
     </g>
     <g id="text_1">
      <!-- 0 -->
      <defs>
       <path d="M 31.78125 66.40625 
Q 24.171875 66.40625 20.328125 58.90625 
Q 16.5 51.421875 16.5 36.375 
Q 16.5 21.390625 20.328125 13.890625 
Q 24.171875 6.390625 31.78125 6.390625 
Q 39.453125 6.390625 43.28125 13.890625 
Q 47.125 21.390625 47.125 36.375 
Q 47.125 51.421875 43.28125 58.90625 
Q 39.453125 66.40625 31.78125 66.40625 
z
M 31.78125 74.21875 
Q 44.046875 74.21875 50.515625 64.515625 
Q 56.984375 54.828125 56.984375 36.375 
Q 56.984375 17.96875 50.515625 8.265625 
Q 44.046875 -1.421875 31.78125 -1.421875 
Q 19.53125 -1.421875 13.0625 8.265625 
Q 6.59375 17.96875 6.59375 36.375 
Q 6.59375 54.828125 13.0625 64.515625 
Q 19.53125 74.21875 31.78125 74.21875 
z
" id="DejaVuSans-48"/>
      </defs>
      <g transform="translate(109.05038 337.118125)scale(0.12 -0.12)">
       <use xlink:href="#DejaVuSans-48"/>
      </g>
     </g>
    </g>
    <g id="xtick_2">
     <g id="line2d_7">
      <g>
       <use style="stroke:#000000;stroke-width:0.5;" x="168.049842" xlink:href="#m00cde8863e" y="324"/>
      </g>
     </g>
     <g id="line2d_8">
      <g>
       <use style="stroke:#000000;stroke-width:0.5;" x="168.049842" xlink:href="#m59badd0dd6" y="36"/>
      </g>
     </g>
     <g id="text_2">
      <!-- 15 -->
      <defs>
       <path d="M 12.40625 8.296875 
L 28.515625 8.296875 
L 28.515625 63.921875 
L 10.984375 60.40625 
L 10.984375 69.390625 
L 28.421875 72.90625 
L 38.28125 72.90625 
L 38.28125 8.296875 
L 54.390625 8.296875 
L 54.390625 0 
L 12.40625 0 
z
" id="DejaVuSans-49"/>
       <path d="M 10.796875 72.90625 
L 49.515625 72.90625 
L 49.515625 64.59375 
L 19.828125 64.59375 
L 19.828125 46.734375 
Q 21.96875 47.46875 24.109375 47.828125 
Q 26.265625 48.1875 28.421875 48.1875 
Q 40.625 48.1875 47.75 41.5 
Q 54.890625 34.8125 54.890625 23.390625 
Q 54.890625 11.625 47.5625 5.09375 
Q 40.234375 -1.421875 26.90625 -1.421875 
Q 22.3125 -1.421875 17.546875 -0.640625 
Q 12.796875 0.140625 7.71875 1.703125 
L 7.71875 11.625 
Q 12.109375 9.234375 16.796875 8.0625 
Q 21.484375 6.890625 26.703125 6.890625 
Q 35.15625 6.890625 40.078125 11.328125 
Q 45.015625 15.765625 45.015625 23.390625 
Q 45.015625 31 40.078125 35.4375 
Q 35.15625 39.890625 26.703125 39.890625 
Q 22.75 39.890625 18.8125 39.015625 
Q 14.890625 38.140625 10.796875 36.28125 
z
" id="DejaVuSans-53"/>
      </defs>
      <g transform="translate(160.414842 337.118125)scale(0.12 -0.12)">
       <use xlink:href="#DejaVuSans-49"/>
       <use x="63.623047" xlink:href="#DejaVuSans-53"/>
      </g>
     </g>
    </g>
    <g id="xtick_3">
     <g id="line2d_9">
      <g>
       <use style="stroke:#000000;stroke-width:0.5;" x="223.231804" xlink:href="#m00cde8863e" y="324"/>
      </g>
     </g>
     <g id="line2d_10">
      <g>
       <use style="stroke:#000000;stroke-width:0.5;" x="223.231804" xlink:href="#m59badd0dd6" y="36"/>
      </g>
     </g>
     <g id="text_3">
      <!-- 30 -->
      <defs>
       <path d="M 40.578125 39.3125 
Q 47.65625 37.796875 51.625 33 
Q 55.609375 28.21875 55.609375 21.1875 
Q 55.609375 10.40625 48.1875 4.484375 
Q 40.765625 -1.421875 27.09375 -1.421875 
Q 22.515625 -1.421875 17.65625 -0.515625 
Q 12.796875 0.390625 7.625 2.203125 
L 7.625 11.71875 
Q 11.71875 9.328125 16.59375 8.109375 
Q 21.484375 6.890625 26.8125 6.890625 
Q 36.078125 6.890625 40.9375 10.546875 
Q 45.796875 14.203125 45.796875 21.1875 
Q 45.796875 27.640625 41.28125 31.265625 
Q 36.765625 34.90625 28.71875 34.90625 
L 20.21875 34.90625 
L 20.21875 43.015625 
L 29.109375 43.015625 
Q 36.375 43.015625 40.234375 45.921875 
Q 44.09375 48.828125 44.09375 54.296875 
Q 44.09375 59.90625 40.109375 62.90625 
Q 36.140625 65.921875 28.71875 65.921875 
Q 24.65625 65.921875 20.015625 65.03125 
Q 15.375 64.15625 9.8125 62.3125 
L 9.8125 71.09375 
Q 15.4375 72.65625 20.34375 73.4375 
Q 25.25 74.21875 29.59375 74.21875 
Q 40.828125 74.21875 47.359375 69.109375 
Q 53.90625 64.015625 53.90625 55.328125 
Q 53.90625 49.265625 50.4375 45.09375 
Q 46.96875 40.921875 40.578125 39.3125 
z
" id="DejaVuSans-51"/>
      </defs>
      <g transform="translate(215.596804 337.118125)scale(0.12 -0.12)">
       <use xlink:href="#DejaVuSans-51"/>
       <use x="63.623047" xlink:href="#DejaVuSans-48"/>
      </g>
     </g>
    </g>
    <g id="xtick_4">
     <g id="line2d_11">
      <g>
       <use style="stroke:#000000;stroke-width:0.5;" x="278.413766" xlink:href="#m00cde8863e" y="324"/>
      </g>
     </g>
     <g id="line2d_12">
      <g>
       <use style="stroke:#000000;stroke-width:0.5;" x="278.413766" xlink:href="#m59badd0dd6" y="36"/>
      </g>
     </g>
     <g id="text_4">
      <!-- 45 -->
      <defs>
       <path d="M 37.796875 64.3125 
L 12.890625 25.390625 
L 37.796875 25.390625 
z
M 35.203125 72.90625 
L 47.609375 72.90625 
L 47.609375 25.390625 
L 58.015625 25.390625 
L 58.015625 17.1875 
L 47.609375 17.1875 
L 47.609375 0 
L 37.796875 0 
L 37.796875 17.1875 
L 4.890625 17.1875 
L 4.890625 26.703125 
z
" id="DejaVuSans-52"/>
      </defs>
      <g transform="translate(270.778766 337.118125)scale(0.12 -0.12)">
       <use xlink:href="#DejaVuSans-52"/>
       <use x="63.623047" xlink:href="#DejaVuSans-53"/>
      </g>
     </g>
    </g>
    <g id="xtick_5">
     <g id="line2d_13">
      <g>
       <use style="stroke:#000000;stroke-width:0.5;" x="333.595728" xlink:href="#m00cde8863e" y="324"/>
      </g>
     </g>
     <g id="line2d_14">
      <g>
       <use style="stroke:#000000;stroke-width:0.5;" x="333.595728" xlink:href="#m59badd0dd6" y="36"/>
      </g>
     </g>
     <g id="text_5">
      <!-- 60 -->
      <defs>
       <path d="M 33.015625 40.375 
Q 26.375 40.375 22.484375 35.828125 
Q 18.609375 31.296875 18.609375 23.390625 
Q 18.609375 15.53125 22.484375 10.953125 
Q 26.375 6.390625 33.015625 6.390625 
Q 39.65625 6.390625 43.53125 10.953125 
Q 47.40625 15.53125 47.40625 23.390625 
Q 47.40625 31.296875 43.53125 35.828125 
Q 39.65625 40.375 33.015625 40.375 
z
M 52.59375 71.296875 
L 52.59375 62.3125 
Q 48.875 64.0625 45.09375 64.984375 
Q 41.3125 65.921875 37.59375 65.921875 
Q 27.828125 65.921875 22.671875 59.328125 
Q 17.53125 52.734375 16.796875 39.40625 
Q 19.671875 43.65625 24.015625 45.921875 
Q 28.375 48.1875 33.59375 48.1875 
Q 44.578125 48.1875 50.953125 41.515625 
Q 57.328125 34.859375 57.328125 23.390625 
Q 57.328125 12.15625 50.6875 5.359375 
Q 44.046875 -1.421875 33.015625 -1.421875 
Q 20.359375 -1.421875 13.671875 8.265625 
Q 6.984375 17.96875 6.984375 36.375 
Q 6.984375 53.65625 15.1875 63.9375 
Q 23.390625 74.21875 37.203125 74.21875 
Q 40.921875 74.21875 44.703125 73.484375 
Q 48.484375 72.75 52.59375 71.296875 
z
" id="DejaVuSans-54"/>
      </defs>
      <g transform="translate(325.960728 337.118125)scale(0.12 -0.12)">
       <use xlink:href="#DejaVuSans-54"/>
       <use x="63.623047" xlink:href="#DejaVuSans-48"/>
      </g>
     </g>
    </g>
    <g id="xtick_6">
     <g id="line2d_15">
      <g>
       <use style="stroke:#000000;stroke-width:0.5;" x="388.77769" xlink:href="#m00cde8863e" y="324"/>
      </g>
     </g>
     <g id="line2d_16">
      <g>
       <use style="stroke:#000000;stroke-width:0.5;" x="388.77769" xlink:href="#m59badd0dd6" y="36"/>
      </g>
     </g>
     <g id="text_6">
      <!-- 75 -->
      <defs>
       <path d="M 8.203125 72.90625 
L 55.078125 72.90625 
L 55.078125 68.703125 
L 28.609375 0 
L 18.3125 0 
L 43.21875 64.59375 
L 8.203125 64.59375 
z
" id="DejaVuSans-55"/>
      </defs>
      <g transform="translate(381.14269 337.118125)scale(0.12 -0.12)">
       <use xlink:href="#DejaVuSans-55"/>
       <use x="63.623047" xlink:href="#DejaVuSans-53"/>
      </g>
     </g>
    </g>
    <g id="xtick_7">
     <g id="line2d_17">
      <g>
       <use style="stroke:#000000;stroke-width:0.5;" x="443.959652" xlink:href="#m00cde8863e" y="324"/>
      </g>
     </g>
     <g id="line2d_18">
      <g>
       <use style="stroke:#000000;stroke-width:0.5;" x="443.959652" xlink:href="#m59badd0dd6" y="36"/>
      </g>
     </g>
     <g id="text_7">
      <!-- 90 -->
      <defs>
       <path d="M 10.984375 1.515625 
L 10.984375 10.5 
Q 14.703125 8.734375 18.5 7.8125 
Q 22.3125 6.890625 25.984375 6.890625 
Q 35.75 6.890625 40.890625 13.453125 
Q 46.046875 20.015625 46.78125 33.40625 
Q 43.953125 29.203125 39.59375 26.953125 
Q 35.25 24.703125 29.984375 24.703125 
Q 19.046875 24.703125 12.671875 31.3125 
Q 6.296875 37.9375 6.296875 49.421875 
Q 6.296875 60.640625 12.9375 67.421875 
Q 19.578125 74.21875 30.609375 74.21875 
Q 43.265625 74.21875 49.921875 64.515625 
Q 56.59375 54.828125 56.59375 36.375 
Q 56.59375 19.140625 48.40625 8.859375 
Q 40.234375 -1.421875 26.421875 -1.421875 
Q 22.703125 -1.421875 18.890625 -0.6875 
Q 15.09375 0.046875 10.984375 1.515625 
z
M 30.609375 32.421875 
Q 37.25 32.421875 41.125 36.953125 
Q 45.015625 41.5 45.015625 49.421875 
Q 45.015625 57.28125 41.125 61.84375 
Q 37.25 66.40625 30.609375 66.40625 
Q 23.96875 66.40625 20.09375 61.84375 
Q 16.21875 57.28125 16.21875 49.421875 
Q 16.21875 41.5 20.09375 36.953125 
Q 23.96875 32.421875 30.609375 32.421875 
z
" id="DejaVuSans-57"/>
      </defs>
      <g transform="translate(436.324652 337.118125)scale(0.12 -0.12)">
       <use xlink:href="#DejaVuSans-57"/>
       <use x="63.623047" xlink:href="#DejaVuSans-48"/>
      </g>
     </g>
    </g>
    <g id="xtick_8">
     <g id="line2d_19">
      <g>
       <use style="stroke:#000000;stroke-width:0.5;" x="499.141614" xlink:href="#m00cde8863e" y="324"/>
      </g>
     </g>
     <g id="line2d_20">
      <g>
       <use style="stroke:#000000;stroke-width:0.5;" x="499.141614" xlink:href="#m59badd0dd6" y="36"/>
      </g>
     </g>
     <g id="text_8">
      <!-- 105 -->
      <g transform="translate(487.689114 337.118125)scale(0.12 -0.12)">
       <use xlink:href="#DejaVuSans-49"/>
       <use x="63.623047" xlink:href="#DejaVuSans-48"/>
       <use x="127.246094" xlink:href="#DejaVuSans-53"/>
      </g>
     </g>
    </g>
    <g id="xtick_9">
     <g id="line2d_21">
      <g>
       <use style="stroke:#000000;stroke-width:0.5;" x="554.323576" xlink:href="#m00cde8863e" y="324"/>
      </g>
     </g>
     <g id="line2d_22">
      <g>
       <use style="stroke:#000000;stroke-width:0.5;" x="554.323576" xlink:href="#m59badd0dd6" y="36"/>
      </g>
     </g>
     <g id="text_9">
      <!-- 120 -->
      <defs>
       <path d="M 19.1875 8.296875 
L 53.609375 8.296875 
L 53.609375 0 
L 7.328125 0 
L 7.328125 8.296875 
Q 12.9375 14.109375 22.625 23.890625 
Q 32.328125 33.6875 34.8125 36.53125 
Q 39.546875 41.84375 41.421875 45.53125 
Q 43.3125 49.21875 43.3125 52.78125 
Q 43.3125 58.59375 39.234375 62.25 
Q 35.15625 65.921875 28.609375 65.921875 
Q 23.96875 65.921875 18.8125 64.3125 
Q 13.671875 62.703125 7.8125 59.421875 
L 7.8125 69.390625 
Q 13.765625 71.78125 18.9375 73 
Q 24.125 74.21875 28.421875 74.21875 
Q 39.75 74.21875 46.484375 68.546875 
Q 53.21875 62.890625 53.21875 53.421875 
Q 53.21875 48.921875 51.53125 44.890625 
Q 49.859375 40.875 45.40625 35.40625 
Q 44.1875 33.984375 37.640625 27.21875 
Q 31.109375 20.453125 19.1875 8.296875 
z
" id="DejaVuSans-50"/>
      </defs>
      <g transform="translate(542.871076 337.118125)scale(0.12 -0.12)">
       <use xlink:href="#DejaVuSans-49"/>
       <use x="63.623047" xlink:href="#DejaVuSans-50"/>
       <use x="127.246094" xlink:href="#DejaVuSans-48"/>
      </g>
     </g>
    </g>
    <g id="xtick_10">
     <g id="line2d_23">
      <g>
       <use style="stroke:#000000;stroke-width:0.5;" x="609.505538" xlink:href="#m00cde8863e" y="324"/>
      </g>
     </g>
     <g id="line2d_24">
      <g>
       <use style="stroke:#000000;stroke-width:0.5;" x="609.505538" xlink:href="#m59badd0dd6" y="36"/>
      </g>
     </g>
     <g id="text_10">
      <!-- 135 -->
      <g transform="translate(598.053038 337.118125)scale(0.12 -0.12)">
       <use xlink:href="#DejaVuSans-49"/>
       <use x="63.623047" xlink:href="#DejaVuSans-51"/>
       <use x="127.246094" xlink:href="#DejaVuSans-53"/>
      </g>
     </g>
    </g>
    <g id="text_11">
     <!-- generation -->
     <defs>
      <path d="M 45.40625 27.984375 
Q 45.40625 37.75 41.375 43.109375 
Q 37.359375 48.484375 30.078125 48.484375 
Q 22.859375 48.484375 18.828125 43.109375 
Q 14.796875 37.75 14.796875 27.984375 
Q 14.796875 18.265625 18.828125 12.890625 
Q 22.859375 7.515625 30.078125 7.515625 
Q 37.359375 7.515625 41.375 12.890625 
Q 45.40625 18.265625 45.40625 27.984375 
z
M 54.390625 6.78125 
Q 54.390625 -7.171875 48.1875 -13.984375 
Q 42 -20.796875 29.203125 -20.796875 
Q 24.46875 -20.796875 20.265625 -20.09375 
Q 16.0625 -19.390625 12.109375 -17.921875 
L 12.109375 -9.1875 
Q 16.0625 -11.328125 19.921875 -12.34375 
Q 23.78125 -13.375 27.78125 -13.375 
Q 36.625 -13.375 41.015625 -8.765625 
Q 45.40625 -4.15625 45.40625 5.171875 
L 45.40625 9.625 
Q 42.625 4.78125 38.28125 2.390625 
Q 33.9375 0 27.875 0 
Q 17.828125 0 11.671875 7.65625 
Q 5.515625 15.328125 5.515625 27.984375 
Q 5.515625 40.671875 11.671875 48.328125 
Q 17.828125 56 27.875 56 
Q 33.9375 56 38.28125 53.609375 
Q 42.625 51.21875 45.40625 46.390625 
L 45.40625 54.6875 
L 54.390625 54.6875 
z
" id="DejaVuSans-103"/>
      <path d="M 56.203125 29.59375 
L 56.203125 25.203125 
L 14.890625 25.203125 
Q 15.484375 15.921875 20.484375 11.0625 
Q 25.484375 6.203125 34.421875 6.203125 
Q 39.59375 6.203125 44.453125 7.46875 
Q 49.3125 8.734375 54.109375 11.28125 
L 54.109375 2.78125 
Q 49.265625 0.734375 44.1875 -0.34375 
Q 39.109375 -1.421875 33.890625 -1.421875 
Q 20.796875 -1.421875 13.15625 6.1875 
Q 5.515625 13.8125 5.515625 26.8125 
Q 5.515625 40.234375 12.765625 48.109375 
Q 20.015625 56 32.328125 56 
Q 43.359375 56 49.78125 48.890625 
Q 56.203125 41.796875 56.203125 29.59375 
z
M 47.21875 32.234375 
Q 47.125 39.59375 43.09375 43.984375 
Q 39.0625 48.390625 32.421875 48.390625 
Q 24.90625 48.390625 20.390625 44.140625 
Q 15.875 39.890625 15.1875 32.171875 
z
" id="DejaVuSans-101"/>
      <path d="M 54.890625 33.015625 
L 54.890625 0 
L 45.90625 0 
L 45.90625 32.71875 
Q 45.90625 40.484375 42.875 44.328125 
Q 39.84375 48.1875 33.796875 48.1875 
Q 26.515625 48.1875 22.3125 43.546875 
Q 18.109375 38.921875 18.109375 30.90625 
L 18.109375 0 
L 9.078125 0 
L 9.078125 54.6875 
L 18.109375 54.6875 
L 18.109375 46.1875 
Q 21.34375 51.125 25.703125 53.5625 
Q 30.078125 56 35.796875 56 
Q 45.21875 56 50.046875 50.171875 
Q 54.890625 44.34375 54.890625 33.015625 
z
" id="DejaVuSans-110"/>
      <path d="M 41.109375 46.296875 
Q 39.59375 47.171875 37.8125 47.578125 
Q 36.03125 48 33.890625 48 
Q 26.265625 48 22.1875 43.046875 
Q 18.109375 38.09375 18.109375 28.8125 
L 18.109375 0 
L 9.078125 0 
L 9.078125 54.6875 
L 18.109375 54.6875 
L 18.109375 46.1875 
Q 20.953125 51.171875 25.484375 53.578125 
Q 30.03125 56 36.53125 56 
Q 37.453125 56 38.578125 55.875 
Q 39.703125 55.765625 41.0625 55.515625 
z
" id="DejaVuSans-114"/>
      <path d="M 34.28125 27.484375 
Q 23.390625 27.484375 19.1875 25 
Q 14.984375 22.515625 14.984375 16.5 
Q 14.984375 11.71875 18.140625 8.90625 
Q 21.296875 6.109375 26.703125 6.109375 
Q 34.1875 6.109375 38.703125 11.40625 
Q 43.21875 16.703125 43.21875 25.484375 
L 43.21875 27.484375 
z
M 52.203125 31.203125 
L 52.203125 0 
L 43.21875 0 
L 43.21875 8.296875 
Q 40.140625 3.328125 35.546875 0.953125 
Q 30.953125 -1.421875 24.3125 -1.421875 
Q 15.921875 -1.421875 10.953125 3.296875 
Q 6 8.015625 6 15.921875 
Q 6 25.140625 12.171875 29.828125 
Q 18.359375 34.515625 30.609375 34.515625 
L 43.21875 34.515625 
L 43.21875 35.40625 
Q 43.21875 41.609375 39.140625 45 
Q 35.0625 48.390625 27.6875 48.390625 
Q 23 48.390625 18.546875 47.265625 
Q 14.109375 46.140625 10.015625 43.890625 
L 10.015625 52.203125 
Q 14.9375 54.109375 19.578125 55.046875 
Q 24.21875 56 28.609375 56 
Q 40.484375 56 46.34375 49.84375 
Q 52.203125 43.703125 52.203125 31.203125 
z
" id="DejaVuSans-97"/>
      <path d="M 18.3125 70.21875 
L 18.3125 54.6875 
L 36.8125 54.6875 
L 36.8125 47.703125 
L 18.3125 47.703125 
L 18.3125 18.015625 
Q 18.3125 11.328125 20.140625 9.421875 
Q 21.96875 7.515625 27.59375 7.515625 
L 36.8125 7.515625 
L 36.8125 0 
L 27.59375 0 
Q 17.1875 0 13.234375 3.875 
Q 9.28125 7.765625 9.28125 18.015625 
L 9.28125 47.703125 
L 2.6875 47.703125 
L 2.6875 54.6875 
L 9.28125 54.6875 
L 9.28125 70.21875 
z
" id="DejaVuSans-116"/>
      <path d="M 9.421875 54.6875 
L 18.40625 54.6875 
L 18.40625 0 
L 9.421875 0 
z
M 9.421875 75.984375 
L 18.40625 75.984375 
L 18.40625 64.59375 
L 9.421875 64.59375 
z
" id="DejaVuSans-105"/>
      <path d="M 30.609375 48.390625 
Q 23.390625 48.390625 19.1875 42.75 
Q 14.984375 37.109375 14.984375 27.296875 
Q 14.984375 17.484375 19.15625 11.84375 
Q 23.34375 6.203125 30.609375 6.203125 
Q 37.796875 6.203125 41.984375 11.859375 
Q 46.1875 17.53125 46.1875 27.296875 
Q 46.1875 37.015625 41.984375 42.703125 
Q 37.796875 48.390625 30.609375 48.390625 
z
M 30.609375 56 
Q 42.328125 56 49.015625 48.375 
Q 55.71875 40.765625 55.71875 27.296875 
Q 55.71875 13.875 49.015625 6.21875 
Q 42.328125 -1.421875 30.609375 -1.421875 
Q 18.84375 -1.421875 12.171875 6.21875 
Q 5.515625 13.875 5.515625 27.296875 
Q 5.515625 40.765625 12.171875 48.375 
Q 18.84375 56 30.609375 56 
z
" id="DejaVuSans-111"/>
     </defs>
     <g transform="translate(341.430938 353.731875)scale(0.12 -0.12)">
      <use xlink:href="#DejaVuSans-103"/>
      <use x="63.476562" xlink:href="#DejaVuSans-101"/>
      <use x="125" xlink:href="#DejaVuSans-110"/>
      <use x="188.378906" xlink:href="#DejaVuSans-101"/>
      <use x="249.902344" xlink:href="#DejaVuSans-114"/>
      <use x="291.015625" xlink:href="#DejaVuSans-97"/>
      <use x="352.294922" xlink:href="#DejaVuSans-116"/>
      <use x="391.503906" xlink:href="#DejaVuSans-105"/>
      <use x="419.287109" xlink:href="#DejaVuSans-111"/>
      <use x="480.46875" xlink:href="#DejaVuSans-110"/>
     </g>
    </g>
   </g>
   <g id="matplotlib.axis_2">
    <g id="ytick_1">
     <g id="line2d_25">
      <defs>
       <path d="M 0 0 
L 4 0 
" id="m69aa6fb3a7" style="stroke:#000000;stroke-width:0.5;"/>
      </defs>
      <g>
       <use style="stroke:#000000;stroke-width:0.5;" x="112.5" xlink:href="#m69aa6fb3a7" y="324"/>
      </g>
     </g>
     <g id="line2d_26">
      <defs>
       <path d="M 0 0 
L -4 0 
" id="mfecc8e6165" style="stroke:#000000;stroke-width:0.5;"/>
      </defs>
      <g>
       <use style="stroke:#000000;stroke-width:0.5;" x="635.625" xlink:href="#mfecc8e6165" y="324"/>
      </g>
     </g>
     <g id="text_12">
      <!-- 0.90 -->
      <defs>
       <path d="M 10.6875 12.40625 
L 21 12.40625 
L 21 0 
L 10.6875 0 
z
" id="DejaVuSans-46"/>
      </defs>
      <g transform="translate(81.78125 327.31125)scale(0.12 -0.12)">
       <use xlink:href="#DejaVuSans-48"/>
       <use x="63.623047" xlink:href="#DejaVuSans-46"/>
       <use x="95.410156" xlink:href="#DejaVuSans-57"/>
       <use x="159.033203" xlink:href="#DejaVuSans-48"/>
      </g>
     </g>
    </g>
    <g id="ytick_2">
     <g id="line2d_27">
      <g>
       <use style="stroke:#000000;stroke-width:0.5;" x="112.5" xlink:href="#m69aa6fb3a7" y="276"/>
      </g>
     </g>
     <g id="line2d_28">
      <g>
       <use style="stroke:#000000;stroke-width:0.5;" x="635.625" xlink:href="#mfecc8e6165" y="276"/>
      </g>
     </g>
     <g id="text_13">
      <!-- 0.91 -->
      <g transform="translate(81.78125 279.31125)scale(0.12 -0.12)">
       <use xlink:href="#DejaVuSans-48"/>
       <use x="63.623047" xlink:href="#DejaVuSans-46"/>
       <use x="95.410156" xlink:href="#DejaVuSans-57"/>
       <use x="159.033203" xlink:href="#DejaVuSans-49"/>
      </g>
     </g>
    </g>
    <g id="ytick_3">
     <g id="line2d_29">
      <g>
       <use style="stroke:#000000;stroke-width:0.5;" x="112.5" xlink:href="#m69aa6fb3a7" y="228"/>
      </g>
     </g>
     <g id="line2d_30">
      <g>
       <use style="stroke:#000000;stroke-width:0.5;" x="635.625" xlink:href="#mfecc8e6165" y="228"/>
      </g>
     </g>
     <g id="text_14">
      <!-- 0.92 -->
      <g transform="translate(81.78125 231.31125)scale(0.12 -0.12)">
       <use xlink:href="#DejaVuSans-48"/>
       <use x="63.623047" xlink:href="#DejaVuSans-46"/>
       <use x="95.410156" xlink:href="#DejaVuSans-57"/>
       <use x="159.033203" xlink:href="#DejaVuSans-50"/>
      </g>
     </g>
    </g>
    <g id="ytick_4">
     <g id="line2d_31">
      <g>
       <use style="stroke:#000000;stroke-width:0.5;" x="112.5" xlink:href="#m69aa6fb3a7" y="180"/>
      </g>
     </g>
     <g id="line2d_32">
      <g>
       <use style="stroke:#000000;stroke-width:0.5;" x="635.625" xlink:href="#mfecc8e6165" y="180"/>
      </g>
     </g>
     <g id="text_15">
      <!-- 0.93 -->
      <g transform="translate(81.78125 183.31125)scale(0.12 -0.12)">
       <use xlink:href="#DejaVuSans-48"/>
       <use x="63.623047" xlink:href="#DejaVuSans-46"/>
       <use x="95.410156" xlink:href="#DejaVuSans-57"/>
       <use x="159.033203" xlink:href="#DejaVuSans-51"/>
      </g>
     </g>
    </g>
    <g id="ytick_5">
     <g id="line2d_33">
      <g>
       <use style="stroke:#000000;stroke-width:0.5;" x="112.5" xlink:href="#m69aa6fb3a7" y="132"/>
      </g>
     </g>
     <g id="line2d_34">
      <g>
       <use style="stroke:#000000;stroke-width:0.5;" x="635.625" xlink:href="#mfecc8e6165" y="132"/>
      </g>
     </g>
     <g id="text_16">
      <!-- 0.94 -->
      <g transform="translate(81.78125 135.31125)scale(0.12 -0.12)">
       <use xlink:href="#DejaVuSans-48"/>
       <use x="63.623047" xlink:href="#DejaVuSans-46"/>
       <use x="95.410156" xlink:href="#DejaVuSans-57"/>
       <use x="159.033203" xlink:href="#DejaVuSans-52"/>
      </g>
     </g>
    </g>
    <g id="ytick_6">
     <g id="line2d_35">
      <g>
       <use style="stroke:#000000;stroke-width:0.5;" x="112.5" xlink:href="#m69aa6fb3a7" y="84"/>
      </g>
     </g>
     <g id="line2d_36">
      <g>
       <use style="stroke:#000000;stroke-width:0.5;" x="635.625" xlink:href="#mfecc8e6165" y="84"/>
      </g>
     </g>
     <g id="text_17">
      <!-- 0.95 -->
      <g transform="translate(81.78125 87.31125)scale(0.12 -0.12)">
       <use xlink:href="#DejaVuSans-48"/>
       <use x="63.623047" xlink:href="#DejaVuSans-46"/>
       <use x="95.410156" xlink:href="#DejaVuSans-57"/>
       <use x="159.033203" xlink:href="#DejaVuSans-53"/>
      </g>
     </g>
    </g>
    <g id="ytick_7">
     <g id="line2d_37">
      <g>
       <use style="stroke:#000000;stroke-width:0.5;" x="112.5" xlink:href="#m69aa6fb3a7" y="36"/>
      </g>
     </g>
     <g id="line2d_38">
      <g>
       <use style="stroke:#000000;stroke-width:0.5;" x="635.625" xlink:href="#mfecc8e6165" y="36"/>
      </g>
     </g>
     <g id="text_18">
      <!-- 0.96 -->
      <g transform="translate(81.78125 39.31125)scale(0.12 -0.12)">
       <use xlink:href="#DejaVuSans-48"/>
       <use x="63.623047" xlink:href="#DejaVuSans-46"/>
       <use x="95.410156" xlink:href="#DejaVuSans-57"/>
       <use x="159.033203" xlink:href="#DejaVuSans-54"/>
      </g>
     </g>
    </g>
    <g id="text_19">
     <!-- accuracy -->
     <defs>
      <path d="M 48.78125 52.59375 
L 48.78125 44.1875 
Q 44.96875 46.296875 41.140625 47.34375 
Q 37.3125 48.390625 33.40625 48.390625 
Q 24.65625 48.390625 19.8125 42.84375 
Q 14.984375 37.3125 14.984375 27.296875 
Q 14.984375 17.28125 19.8125 11.734375 
Q 24.65625 6.203125 33.40625 6.203125 
Q 37.3125 6.203125 41.140625 7.25 
Q 44.96875 8.296875 48.78125 10.40625 
L 48.78125 2.09375 
Q 45.015625 0.34375 40.984375 -0.53125 
Q 36.96875 -1.421875 32.421875 -1.421875 
Q 20.0625 -1.421875 12.78125 6.34375 
Q 5.515625 14.109375 5.515625 27.296875 
Q 5.515625 40.671875 12.859375 48.328125 
Q 20.21875 56 33.015625 56 
Q 37.15625 56 41.109375 55.140625 
Q 45.0625 54.296875 48.78125 52.59375 
z
" id="DejaVuSans-99"/>
      <path d="M 8.5 21.578125 
L 8.5 54.6875 
L 17.484375 54.6875 
L 17.484375 21.921875 
Q 17.484375 14.15625 20.5 10.265625 
Q 23.53125 6.390625 29.59375 6.390625 
Q 36.859375 6.390625 41.078125 11.03125 
Q 45.3125 15.671875 45.3125 23.6875 
L 45.3125 54.6875 
L 54.296875 54.6875 
L 54.296875 0 
L 45.3125 0 
L 45.3125 8.40625 
Q 42.046875 3.421875 37.71875 1 
Q 33.40625 -1.421875 27.6875 -1.421875 
Q 18.265625 -1.421875 13.375 4.4375 
Q 8.5 10.296875 8.5 21.578125 
z
M 31.109375 56 
z
" id="DejaVuSans-117"/>
      <path d="M 32.171875 -5.078125 
Q 28.375 -14.84375 24.75 -17.8125 
Q 21.140625 -20.796875 15.09375 -20.796875 
L 7.90625 -20.796875 
L 7.90625 -13.28125 
L 13.1875 -13.28125 
Q 16.890625 -13.28125 18.9375 -11.515625 
Q 21 -9.765625 23.484375 -3.21875 
L 25.09375 0.875 
L 2.984375 54.6875 
L 12.5 54.6875 
L 29.59375 11.921875 
L 46.6875 54.6875 
L 56.203125 54.6875 
z
" id="DejaVuSans-121"/>
     </defs>
     <g transform="translate(74.285625 207.07125)rotate(-90)scale(0.12 -0.12)">
      <use xlink:href="#DejaVuSans-97"/>
      <use x="61.279297" xlink:href="#DejaVuSans-99"/>
      <use x="116.259766" xlink:href="#DejaVuSans-99"/>
      <use x="171.240234" xlink:href="#DejaVuSans-117"/>
      <use x="234.619141" xlink:href="#DejaVuSans-114"/>
      <use x="275.732422" xlink:href="#DejaVuSans-97"/>
      <use x="337.011719" xlink:href="#DejaVuSans-99"/>
      <use x="391.992188" xlink:href="#DejaVuSans-121"/>
     </g>
    </g>
   </g>
   <g id="legend_1">
    <g id="patch_7">
     <path d="M 640.623 211.399935 
L 741.654446 211.399935 
L 741.654446 148.600065 
L 640.623 148.600065 
z
" style="fill:#ffffff;stroke:#000000;stroke-linejoin:miter;"/>
    </g>
    <g id="line2d_39">
     <path d="M 647.6202 156.695263 
L 661.6146 156.695263 
" style="fill:none;stroke:#0000ff;stroke-linecap:square;stroke-width:1.2;"/>
    </g>
    <g id="line2d_40"/>
    <g id="text_20">
     <!-- Mutation_0.2 -->
     <defs>
      <path d="M 9.8125 72.90625 
L 24.515625 72.90625 
L 43.109375 23.296875 
L 61.8125 72.90625 
L 76.515625 72.90625 
L 76.515625 0 
L 66.890625 0 
L 66.890625 64.015625 
L 48.09375 14.015625 
L 38.1875 14.015625 
L 19.390625 64.015625 
L 19.390625 0 
L 9.8125 0 
z
" id="DejaVuSans-77"/>
      <path d="M 50.984375 -16.609375 
L 50.984375 -23.578125 
L -0.984375 -23.578125 
L -0.984375 -16.609375 
z
" id="DejaVuSans-95"/>
     </defs>
     <g transform="translate(672.6102 160.193863)scale(0.09996 -0.09996)">
      <use xlink:href="#DejaVuSans-77"/>
      <use x="86.279297" xlink:href="#DejaVuSans-117"/>
      <use x="149.658203" xlink:href="#DejaVuSans-116"/>
      <use x="188.867188" xlink:href="#DejaVuSans-97"/>
      <use x="250.146484" xlink:href="#DejaVuSans-116"/>
      <use x="289.355469" xlink:href="#DejaVuSans-105"/>
      <use x="317.138672" xlink:href="#DejaVuSans-111"/>
      <use x="378.320312" xlink:href="#DejaVuSans-110"/>
      <use x="441.699219" xlink:href="#DejaVuSans-95"/>
      <use x="491.699219" xlink:href="#DejaVuSans-48"/>
      <use x="555.322266" xlink:href="#DejaVuSans-46"/>
      <use x="587.109375" xlink:href="#DejaVuSans-50"/>
     </g>
    </g>
    <g id="line2d_41">
     <path d="M 647.6202 171.645531 
L 661.6146 171.645531 
" style="fill:none;stroke:#008000;stroke-linecap:square;stroke-width:1.2;"/>
    </g>
    <g id="line2d_42"/>
    <g id="text_21">
     <!-- Mutation_0.4 -->
     <g transform="translate(672.6102 175.144131)scale(0.09996 -0.09996)">
      <use xlink:href="#DejaVuSans-77"/>
      <use x="86.279297" xlink:href="#DejaVuSans-117"/>
      <use x="149.658203" xlink:href="#DejaVuSans-116"/>
      <use x="188.867188" xlink:href="#DejaVuSans-97"/>
      <use x="250.146484" xlink:href="#DejaVuSans-116"/>
      <use x="289.355469" xlink:href="#DejaVuSans-105"/>
      <use x="317.138672" xlink:href="#DejaVuSans-111"/>
      <use x="378.320312" xlink:href="#DejaVuSans-110"/>
      <use x="441.699219" xlink:href="#DejaVuSans-95"/>
      <use x="491.699219" xlink:href="#DejaVuSans-48"/>
      <use x="555.322266" xlink:href="#DejaVuSans-46"/>
      <use x="587.109375" xlink:href="#DejaVuSans-52"/>
     </g>
    </g>
    <g id="line2d_43">
     <path d="M 647.6202 186.595798 
L 661.6146 186.595798 
" style="fill:none;stroke:#ff0000;stroke-linecap:square;stroke-width:1.2;"/>
    </g>
    <g id="line2d_44"/>
    <g id="text_22">
     <!-- Mutation_0.6 -->
     <g transform="translate(672.6102 190.094398)scale(0.09996 -0.09996)">
      <use xlink:href="#DejaVuSans-77"/>
      <use x="86.279297" xlink:href="#DejaVuSans-117"/>
      <use x="149.658203" xlink:href="#DejaVuSans-116"/>
      <use x="188.867188" xlink:href="#DejaVuSans-97"/>
      <use x="250.146484" xlink:href="#DejaVuSans-116"/>
      <use x="289.355469" xlink:href="#DejaVuSans-105"/>
      <use x="317.138672" xlink:href="#DejaVuSans-111"/>
      <use x="378.320312" xlink:href="#DejaVuSans-110"/>
      <use x="441.699219" xlink:href="#DejaVuSans-95"/>
      <use x="491.699219" xlink:href="#DejaVuSans-48"/>
      <use x="555.322266" xlink:href="#DejaVuSans-46"/>
      <use x="587.109375" xlink:href="#DejaVuSans-54"/>
     </g>
    </g>
    <g id="line2d_45">
     <path d="M 647.6202 201.546066 
L 661.6146 201.546066 
" style="fill:none;stroke:#00bfbf;stroke-linecap:square;stroke-width:1.2;"/>
    </g>
    <g id="line2d_46"/>
    <g id="text_23">
     <!-- Mutation_0.8 -->
     <defs>
      <path d="M 31.78125 34.625 
Q 24.75 34.625 20.71875 30.859375 
Q 16.703125 27.09375 16.703125 20.515625 
Q 16.703125 13.921875 20.71875 10.15625 
Q 24.75 6.390625 31.78125 6.390625 
Q 38.8125 6.390625 42.859375 10.171875 
Q 46.921875 13.96875 46.921875 20.515625 
Q 46.921875 27.09375 42.890625 30.859375 
Q 38.875 34.625 31.78125 34.625 
z
M 21.921875 38.8125 
Q 15.578125 40.375 12.03125 44.71875 
Q 8.5 49.078125 8.5 55.328125 
Q 8.5 64.0625 14.71875 69.140625 
Q 20.953125 74.21875 31.78125 74.21875 
Q 42.671875 74.21875 48.875 69.140625 
Q 55.078125 64.0625 55.078125 55.328125 
Q 55.078125 49.078125 51.53125 44.71875 
Q 48 40.375 41.703125 38.8125 
Q 48.828125 37.15625 52.796875 32.3125 
Q 56.78125 27.484375 56.78125 20.515625 
Q 56.78125 9.90625 50.3125 4.234375 
Q 43.84375 -1.421875 31.78125 -1.421875 
Q 19.734375 -1.421875 13.25 4.234375 
Q 6.78125 9.90625 6.78125 20.515625 
Q 6.78125 27.484375 10.78125 32.3125 
Q 14.796875 37.15625 21.921875 38.8125 
z
M 18.3125 54.390625 
Q 18.3125 48.734375 21.84375 45.5625 
Q 25.390625 42.390625 31.78125 42.390625 
Q 38.140625 42.390625 41.71875 45.5625 
Q 45.3125 48.734375 45.3125 54.390625 
Q 45.3125 60.0625 41.71875 63.234375 
Q 38.140625 66.40625 31.78125 66.40625 
Q 25.390625 66.40625 21.84375 63.234375 
Q 18.3125 60.0625 18.3125 54.390625 
z
" id="DejaVuSans-56"/>
     </defs>
     <g transform="translate(672.6102 205.044666)scale(0.09996 -0.09996)">
      <use xlink:href="#DejaVuSans-77"/>
      <use x="86.279297" xlink:href="#DejaVuSans-117"/>
      <use x="149.658203" xlink:href="#DejaVuSans-116"/>
      <use x="188.867188" xlink:href="#DejaVuSans-97"/>
      <use x="250.146484" xlink:href="#DejaVuSans-116"/>
      <use x="289.355469" xlink:href="#DejaVuSans-105"/>
      <use x="317.138672" xlink:href="#DejaVuSans-111"/>
      <use x="378.320312" xlink:href="#DejaVuSans-110"/>
      <use x="441.699219" xlink:href="#DejaVuSans-95"/>
      <use x="491.699219" xlink:href="#DejaVuSans-48"/>
      <use x="555.322266" xlink:href="#DejaVuSans-46"/>
      <use x="587.109375" xlink:href="#DejaVuSans-56"/>
     </g>
    </g>
   </g>
  </g>
  <g id="text_24">
   <!-- Average Accuracy -->
   <defs>
    <path d="M 34.1875 63.1875 
L 20.796875 26.90625 
L 47.609375 26.90625 
z
M 28.609375 72.90625 
L 39.796875 72.90625 
L 67.578125 0 
L 57.328125 0 
L 50.6875 18.703125 
L 17.828125 18.703125 
L 11.1875 0 
L 0.78125 0 
z
" id="DejaVuSans-65"/>
    <path d="M 2.984375 54.6875 
L 12.5 54.6875 
L 29.59375 8.796875 
L 46.6875 54.6875 
L 56.203125 54.6875 
L 35.6875 0 
L 23.484375 0 
z
" id="DejaVuSans-118"/>
    <path id="DejaVuSans-32"/>
   </defs>
   <g transform="translate(396.06 16.318125)scale(0.12 -0.12)">
    <use xlink:href="#DejaVuSans-65"/>
    <use x="62.533203" xlink:href="#DejaVuSans-118"/>
    <use x="121.712891" xlink:href="#DejaVuSans-101"/>
    <use x="183.236328" xlink:href="#DejaVuSans-114"/>
    <use x="224.349609" xlink:href="#DejaVuSans-97"/>
    <use x="285.628906" xlink:href="#DejaVuSans-103"/>
    <use x="349.105469" xlink:href="#DejaVuSans-101"/>
    <use x="410.628906" xlink:href="#DejaVuSans-32"/>
    <use x="442.416016" xlink:href="#DejaVuSans-65"/>
    <use x="509.074219" xlink:href="#DejaVuSans-99"/>
    <use x="564.054688" xlink:href="#DejaVuSans-99"/>
    <use x="619.035156" xlink:href="#DejaVuSans-117"/>
    <use x="682.414062" xlink:href="#DejaVuSans-114"/>
    <use x="723.527344" xlink:href="#DejaVuSans-97"/>
    <use x="784.806641" xlink:href="#DejaVuSans-99"/>
    <use x="839.787109" xlink:href="#DejaVuSans-121"/>
   </g>
  </g>
 </g>
 <defs>
  <clipPath id="p47d062c525">
   <rect height="288" width="523.125" x="112.5" y="36"/>
  </clipPath>
 </defs>
</svg>
