<?xml version="1.0" encoding="utf-8" standalone="no"?>
<!DOCTYPE svg PUBLIC "-//W3C//DTD SVG 1.1//EN"
  "http://www.w3.org/Graphics/SVG/1.1/DTD/svg11.dtd">
<!-- Created with matplotlib (https://matplotlib.org/) -->
<svg height="360pt" version="1.1" viewBox="0 0 900 360" width="900pt" xmlns="http://www.w3.org/2000/svg" xmlns:xlink="http://www.w3.org/1999/xlink">
 <defs>
  <style type="text/css">
*{stroke-linecap:butt;stroke-linejoin:round;}
  </style>
 </defs>
 <g id="figure_1">
  <g id="patch_1">
   <path d="M 0 360 
L 900 360 
L 900 0 
L 0 0 
z
" style="fill:#ffffff;"/>
  </g>
  <g id="axes_1">
   <g id="patch_2">
    <path d="M 112.5 324 
L 635.625 324 
L 635.625 36 
L 112.5 36 
z
" style="fill:#ffffff;"/>
   </g>
   <g id="line2d_1">
    <path clip-path="url(#pdfc9d9189a)" d="M 112.86788 322.205088 
L 116.546677 322.005773 
L 120.225475 322.12199 
L 123.904272 321.994598 
L 127.58307 322.112102 
L 131.261867 321.790637 
L 153.334652 321.784973 
L 157.013449 321.16825 
L 160.692247 321.499104 
L 164.371044 321.038515 
L 168.049842 321.306816 
L 175.407437 321.158822 
L 179.086234 321.17447 
L 182.765032 321.025594 
L 190.122627 320.959776 
L 193.801424 320.781869 
L 201.159019 320.789338 
L 204.837816 320.781677 
L 208.516614 320.633894 
L 212.195411 320.312314 
L 219.553006 320.247629 
L 223.231804 319.971264 
L 226.910601 319.971264 
L 230.589399 319.452883 
L 234.268196 319.60871 
L 237.946994 318.139776 
L 241.625791 318.349939 
L 245.304589 318.349939 
L 248.983386 318.668333 
L 263.698576 318.66048 
L 267.377373 318.069312 
L 274.734968 318.075456 
L 278.413766 317.620896 
L 282.092563 318.044448 
L 293.128956 317.775418 
L 296.807753 318.250387 
L 307.844146 318.087533 
L 311.522943 318.333907 
L 322.559335 318.438835 
L 326.238133 318.650477 
L 329.91693 318.650477 
L 333.595728 317.891654 
L 337.274525 317.832346 
L 344.63212 317.334912 
L 348.310918 317.515066 
L 370.383703 317.351117 
L 374.0625 316.479341 
L 377.741297 316.423296 
L 381.420095 317.35872 
L 385.098892 316.762598 
L 388.77769 317.467046 
L 396.135285 317.467046 
L 399.814082 317.316941 
L 403.49288 316.945056 
L 407.171677 317.051213 
L 410.850475 315.759994 
L 414.529272 316.051469 
L 418.20807 315.759994 
L 421.886867 316.040582 
L 425.565665 315.46441 
L 429.244462 315.759763 
L 432.923259 315.526848 
L 436.602057 315.465446 
L 440.280854 314.725018 
L 443.959652 315.654701 
L 447.638449 314.874547 
L 451.317247 314.219866 
L 454.996044 314.692608 
L 458.674842 313.636243 
L 462.353639 313.676141 
L 466.032437 313.122394 
L 469.711234 313.217875 
L 477.068829 312.913958 
L 480.747627 313.192243 
L 484.426424 312.845376 
L 488.105222 313.119667 
L 495.462816 312.555686 
L 499.141614 313.205626 
L 502.820411 310.832928 
L 506.499209 310.871962 
L 510.178006 310.575494 
L 513.856804 310.971245 
L 517.535601 310.848115 
L 521.214399 311.105894 
L 524.893196 310.896787 
L 528.571994 310.95001 
L 532.250791 311.319936 
L 535.929589 311.338752 
L 539.608386 310.624627 
L 543.287184 310.74 
L 546.965981 311.032051 
L 550.644778 310.635418 
L 569.038766 310.594714 
L 572.717563 310.232774 
L 576.396361 310.634419 
L 580.075158 310.222483 
L 583.753956 310.222483 
L 587.432753 310.831546 
L 591.111551 311.119315 
L 594.790348 310.055309 
L 598.469146 310.295443 
L 602.147943 310.324416 
L 605.826741 307.586765 
L 613.184335 307.659398 
L 616.863133 307.967424 
L 620.54193 307.967424 
L 624.220728 307.533754 
L 624.220728 307.533754 
" style="fill:none;stroke:#0000ff;stroke-linecap:square;stroke-width:1.2;"/>
   </g>
   <g id="line2d_2">
    <path clip-path="url(#pdfc9d9189a)" d="M 112.86788 321.877402 
L 116.546677 321.720557 
L 120.225475 321.733306 
L 123.904272 321.799066 
L 127.58307 321.746822 
L 131.261867 321.656813 
L 134.940665 321.546278 
L 138.619462 321.488621 
L 142.298259 321.374765 
L 145.977057 320.791661 
L 149.655854 321.032525 
L 153.334652 320.890694 
L 157.013449 320.691994 
L 160.692247 320.742106 
L 164.371044 320.686598 
L 168.049842 320.626771 
L 171.728639 320.544192 
L 175.407437 320.098176 
L 179.086234 319.86265 
L 182.765032 320.207539 
L 186.443829 319.895635 
L 190.122627 320.103437 
L 193.801424 319.925722 
L 197.480222 320.155546 
L 201.159019 319.581523 
L 204.837816 319.413293 
L 208.516614 319.351776 
L 212.195411 319.497523 
L 215.874209 318.714298 
L 219.553006 318.851405 
L 223.231804 318.557645 
L 226.910601 318.666278 
L 230.589399 318.161587 
L 234.268196 318.61177 
L 237.946994 318.647846 
L 241.625791 318.520877 
L 245.304589 317.980493 
L 248.983386 318.172666 
L 252.662184 317.794675 
L 256.340981 317.174112 
L 260.019778 316.666253 
L 263.698576 317.210189 
L 267.377373 317.450496 
L 271.056171 317.781984 
L 274.734968 317.649965 
L 278.413766 317.349811 
L 282.092563 317.061907 
L 285.771361 315.83015 
L 289.450158 315.83015 
L 293.128956 315.880109 
L 296.807753 315.760301 
L 300.486551 316.524442 
L 304.165348 315.738336 
L 307.844146 316.65264 
L 311.522943 316.443514 
L 315.201741 316.17095 
L 318.880538 315.775123 
L 322.559335 315.74039 
L 326.238133 315.881357 
L 329.91693 315.352243 
L 333.595728 315.904666 
L 337.274525 316.186694 
L 340.953323 315.929376 
L 344.63212 315.892358 
L 348.310918 314.509344 
L 351.989715 314.249318 
L 355.668513 314.249318 
L 359.34731 314.249318 
L 363.026108 314.159098 
L 366.704905 313.581638 
L 370.383703 312.515904 
L 374.0625 311.920915 
L 377.741297 312.299866 
L 381.420095 311.365114 
L 385.098892 310.250918 
L 388.77769 310.250918 
L 392.456487 310.133414 
L 396.135285 310.123565 
L 399.814082 309.081427 
L 403.49288 309.089914 
L 407.171677 306.810317 
L 410.850475 305.703494 
L 414.529272 305.619974 
L 418.20807 305.652192 
L 421.886867 303.739949 
L 425.565665 303.739949 
L 429.244462 303.739949 
L 432.923259 303.739949 
L 436.602057 303.739949 
L 440.280854 303.739949 
L 443.959652 303.739949 
L 447.638449 303.683962 
L 451.317247 303.739949 
L 454.996044 300.359789 
L 458.674842 299.887834 
L 462.353639 300.367603 
L 466.032437 302.006323 
L 469.711234 301.950682 
L 473.390032 302.138438 
L 477.068829 303.339053 
L 480.747627 302.903405 
L 484.426424 304.739923 
L 488.105222 304.375891 
L 491.784019 304.375891 
L 495.462816 305.291386 
L 499.141614 305.213664 
L 502.820411 304.692653 
L 506.499209 303.573946 
L 510.178006 302.935085 
L 513.856804 302.720006 
L 517.535601 300.249043 
L 521.214399 299.387078 
L 524.893196 299.846995 
L 528.571994 299.996986 
L 532.250791 299.376115 
L 535.929589 299.385082 
L 539.608386 297.131731 
L 543.287184 297.397536 
L 546.965981 297.380064 
L 550.644778 297.591187 
L 554.323576 299.302675 
L 558.002373 298.899514 
L 561.681171 298.506874 
L 565.359968 299.233171 
L 569.038766 297.628627 
L 572.717563 296.606554 
L 576.396361 296.722618 
" style="fill:none;stroke:#008000;stroke-linecap:square;stroke-width:1.2;"/>
   </g>
   <g id="line2d_3">
    <path clip-path="url(#pdfc9d9189a)" d="M 112.86788 321.962957 
L 120.225475 321.414989 
L 123.904272 321.372154 
L 127.58307 321.18601 
L 131.261867 321.223891 
L 134.940665 321.148013 
L 138.619462 320.946701 
L 142.298259 321.02089 
L 145.977057 320.898067 
L 149.655854 321.003091 
L 153.334652 320.34839 
L 157.013449 320.172576 
L 160.692247 320.333933 
L 164.371044 319.887994 
L 168.049842 319.803629 
L 171.728639 319.35024 
L 179.086234 318.910829 
L 190.122627 318.864672 
L 193.801424 318.071923 
L 197.480222 316.640237 
L 201.159019 317.341018 
L 204.837816 316.331194 
L 208.516614 316.724218 
L 215.874209 314.63113 
L 219.553006 313.969421 
L 223.231804 315.10656 
L 226.910601 313.409376 
L 230.589399 312.658022 
L 234.268196 311.01408 
L 237.946994 310.012896 
L 245.304589 309.295258 
L 248.983386 309.266266 
L 252.662184 309.470074 
L 256.340981 308.842714 
L 260.019778 310.003066 
L 263.698576 310.003066 
L 267.377373 309.865478 
L 271.056171 308.753587 
L 274.734968 307.781376 
L 278.413766 306.637786 
L 282.092563 308.186189 
L 285.771361 306.515558 
L 289.450158 304.241952 
L 293.128956 301.507987 
L 296.807753 302.878157 
L 300.486551 303.750893 
L 304.165348 303.750893 
L 307.844146 299.773152 
L 311.522943 298.853165 
L 315.201741 293.994317 
L 318.880538 296.671469 
L 322.559335 291.394368 
L 326.238133 293.128435 
L 329.91693 297.376243 
L 333.595728 297.446285 
L 337.274525 298.407821 
L 340.953323 297.097536 
L 344.63212 297.537792 
L 348.310918 295.135757 
L 351.989715 295.475366 
L 363.026108 293.679898 
L 366.704905 292.130496 
L 370.383703 294.266189 
L 374.0625 294.231437 
L 377.741297 288.541018 
L 381.420095 289.342752 
L 385.098892 289.158758 
L 388.77769 280.81776 
L 392.456487 284.651002 
L 396.135285 284.884339 
L 399.814082 282.012077 
L 403.49288 276.554688 
L 407.171677 276.16752 
L 410.850475 279.798912 
L 414.529272 276.257664 
L 418.20807 271.352621 
L 421.886867 274.069133 
L 425.565665 264.125261 
L 429.244462 278.24016 
L 436.602057 278.222822 
L 440.280854 274.912877 
L 443.959652 276.375168 
L 447.638449 269.735328 
L 451.317247 264.778944 
L 454.996044 260.343245 
L 458.674842 268.202611 
L 462.353639 269.049466 
L 466.032437 262.613299 
L 469.711234 261.076819 
L 473.390032 267.666816 
L 477.068829 266.784518 
L 480.747627 264.753043 
L 484.426424 269.741798 
L 488.105222 265.584 
L 491.784019 265.665024 
L 495.462816 257.403648 
L 499.141614 249.89376 
L 502.820411 241.590144 
L 506.499209 232.95072 
L 510.178006 224.805888 
L 513.856804 222.992294 
L 517.535601 221.889216 
L 521.214399 225.231648 
L 524.893196 205.255219 
L 528.571994 208.181952 
L 532.250791 206.401171 
L 535.929589 194.136346 
L 539.608386 230.525722 
L 543.287184 230.518714 
L 546.965981 210.83449 
L 550.644778 205.699699 
L 554.323576 216.821683 
L 558.002373 211.78201 
L 561.681171 219.855283 
L 565.359968 214.016525 
L 569.038766 214.484909 
L 572.717563 214.396435 
L 576.396361 190.202995 
L 580.075158 182.35321 
L 583.753956 190.046266 
L 587.432753 192.368314 
L 591.111551 192.976915 
L 594.790348 169.638259 
L 598.469146 184.762829 
L 602.147943 177.222413 
L 605.826741 164.33879 
L 609.505538 174.584582 
L 613.184335 171.289286 
L 616.863133 178.31904 
L 620.54193 197.51424 
L 624.220728 200.472883 
L 627.899525 195.130483 
L 631.578323 206.573472 
L 635.25712 205.031808 
L 635.25712 205.031808 
" style="fill:none;stroke:#ff0000;stroke-linecap:square;stroke-width:1.2;"/>
   </g>
   <g id="line2d_4">
    <path clip-path="url(#pdfc9d9189a)" d="M 112.86788 322.59625 
L 131.261867 321.77449 
L 134.940665 321.660864 
L 138.619462 321.758976 
L 149.655854 321.024461 
L 153.334652 321.214579 
L 160.692247 320.58361 
L 164.371044 320.1312 
L 168.049842 320.21063 
L 171.728639 319.437293 
L 175.407437 319.248787 
L 179.086234 319.629178 
L 182.765032 319.11385 
L 186.443829 318.326534 
L 190.122627 318.506016 
L 193.801424 317.601254 
L 201.159019 317.457965 
L 204.837816 317.141472 
L 208.516614 317.48761 
L 212.195411 317.109466 
L 215.874209 315.353184 
L 219.553006 314.190931 
L 223.231804 313.176192 
L 226.910601 313.147565 
L 230.589399 314.45328 
L 234.268196 311.953421 
L 237.946994 311.965421 
L 241.625791 313.43257 
L 245.304589 311.510323 
L 248.983386 310.905235 
L 252.662184 307.826035 
L 256.340981 307.253357 
L 260.019778 306.42889 
L 263.698576 304.226362 
L 267.377373 300.365146 
L 271.056171 301.721856 
L 278.413766 299.190739 
L 282.092563 297.422342 
L 285.771361 296.042496 
L 289.450158 295.371898 
L 293.128956 299.04048 
L 296.807753 301.306656 
L 300.486551 300.908602 
L 304.165348 302.555462 
L 307.844146 298.244371 
L 311.522943 294.300019 
L 315.201741 299.06473 
L 318.880538 298.628986 
L 322.559335 294.300864 
L 326.238133 294.116122 
L 329.91693 292.086317 
L 333.595728 291.641914 
L 337.274525 292.971322 
L 340.953323 295.354637 
L 344.63212 289.718458 
L 348.310918 287.84519 
L 351.989715 289.104634 
L 355.668513 286.877491 
L 359.34731 285.599136 
L 363.026108 287.545939 
L 366.704905 282.513734 
L 370.383703 281.633222 
L 374.0625 281.277984 
L 377.741297 282.221395 
L 381.420095 276.201062 
L 385.098892 281.805869 
L 388.77769 276.4464 
L 392.456487 269.804102 
L 396.135285 261.874368 
L 399.814082 256.295846 
L 403.49288 248.416838 
L 407.171677 242.560262 
L 410.850475 237.034867 
L 414.529272 244.076659 
L 418.20807 248.724422 
L 421.886867 245.952192 
L 425.565665 237.551059 
L 429.244462 233.47657 
L 432.923259 221.480256 
L 436.602057 221.098656 
L 440.280854 210.398304 
L 443.959652 204.10199 
L 447.638449 205.566662 
L 451.317247 200.022643 
L 454.996044 225.916954 
L 458.674842 221.55145 
L 462.353639 209.013043 
L 466.032437 205.609171 
L 469.711234 188.647411 
L 473.390032 190.812979 
L 477.068829 199.441574 
L 480.747627 194.202413 
L 484.426424 196.611091 
L 488.105222 194.352518 
L 491.784019 197.969299 
L 495.462816 176.492141 
L 499.141614 200.01984 
L 502.820411 200.366688 
L 506.499209 203.937811 
L 510.178006 188.108544 
L 513.856804 170.69833 
L 517.535601 144.821798 
L 521.214399 142.745971 
L 524.893196 112.723757 
L 528.571994 104.290714 
L 532.250791 97.305773 
L 535.929589 91.338797 
L 539.608386 86.77417 
L 543.287184 85.563494 
L 546.965981 109.236365 
L 550.644778 74.569978 
L 554.323576 115.193357 
L 558.002373 58.797581 
L 561.681171 64.677638 
L 565.359968 97.478842 
L 569.038766 117.947616 
L 572.717563 62.974483 
L 576.396361 58.550803 
L 580.075158 69.121382 
L 583.753956 76.424467 
L 587.432753 83.135462 
L 587.432753 83.135462 
" style="fill:none;stroke:#00bfbf;stroke-linecap:square;stroke-width:1.2;"/>
   </g>
   <g id="patch_3">
    <path d="M 112.5 324 
L 112.5 36 
" style="fill:none;stroke:#000000;stroke-linecap:square;stroke-linejoin:miter;"/>
   </g>
   <g id="patch_4">
    <path d="M 635.625 324 
L 635.625 36 
" style="fill:none;stroke:#000000;stroke-linecap:square;stroke-linejoin:miter;"/>
   </g>
   <g id="patch_5">
    <path d="M 112.5 324 
L 635.625 324 
" style="fill:none;stroke:#000000;stroke-linecap:square;stroke-linejoin:miter;"/>
   </g>
   <g id="patch_6">
    <path d="M 112.5 36 
L 635.625 36 
" style="fill:none;stroke:#000000;stroke-linecap:square;stroke-linejoin:miter;"/>
   </g>
   <g id="matplotlib.axis_1">
    <g id="xtick_1">
     <g id="line2d_5">
      <defs>
       <path d="M 0 0 
L 0 -4 
" id="m0ec2e1ab84" style="stroke:#000000;stroke-width:0.5;"/>
      </defs>
      <g>
       <use style="stroke:#000000;stroke-width:0.5;" x="112.86788" xlink:href="#m0ec2e1ab84" y="324"/>
      </g>
     </g>
     <g id="line2d_6">
      <defs>
       <path d="M 0 0 
L 0 4 
" id="m2a62e73810" style="stroke:#000000;stroke-width:0.5;"/>
      </defs>
      <g>
       <use style="stroke:#000000;stroke-width:0.5;" x="112.86788" xlink:href="#m2a62e73810" y="36"/>
      </g>
     </g>
     <g id="text_1">
      <!-- 0 -->
      <defs>
       <path d="M 31.78125 66.40625 
Q 24.171875 66.40625 20.328125 58.90625 
Q 16.5 51.421875 16.5 36.375 
Q 16.5 21.390625 20.328125 13.890625 
Q 24.171875 6.390625 31.78125 6.390625 
Q 39.453125 6.390625 43.28125 13.890625 
Q 47.125 21.390625 47.125 36.375 
Q 47.125 51.421875 43.28125 58.90625 
Q 39.453125 66.40625 31.78125 66.40625 
z
M 31.78125 74.21875 
Q 44.046875 74.21875 50.515625 64.515625 
Q 56.984375 54.828125 56.984375 36.375 
Q 56.984375 17.96875 50.515625 8.265625 
Q 44.046875 -1.421875 31.78125 -1.421875 
Q 19.53125 -1.421875 13.0625 8.265625 
Q 6.59375 17.96875 6.59375 36.375 
Q 6.59375 54.828125 13.0625 64.515625 
Q 19.53125 74.21875 31.78125 74.21875 
z
" id="DejaVuSans-48"/>
      </defs>
      <g transform="translate(109.05038 337.118125)scale(0.12 -0.12)">
       <use xlink:href="#DejaVuSans-48"/>
      </g>
     </g>
    </g>
    <g id="xtick_2">
     <g id="line2d_7">
      <g>
       <use style="stroke:#000000;stroke-width:0.5;" x="168.049842" xlink:href="#m0ec2e1ab84" y="324"/>
      </g>
     </g>
     <g id="line2d_8">
      <g>
       <use style="stroke:#000000;stroke-width:0.5;" x="168.049842" xlink:href="#m2a62e73810" y="36"/>
      </g>
     </g>
     <g id="text_2">
      <!-- 15 -->
      <defs>
       <path d="M 12.40625 8.296875 
L 28.515625 8.296875 
L 28.515625 63.921875 
L 10.984375 60.40625 
L 10.984375 69.390625 
L 28.421875 72.90625 
L 38.28125 72.90625 
L 38.28125 8.296875 
L 54.390625 8.296875 
L 54.390625 0 
L 12.40625 0 
z
" id="DejaVuSans-49"/>
       <path d="M 10.796875 72.90625 
L 49.515625 72.90625 
L 49.515625 64.59375 
L 19.828125 64.59375 
L 19.828125 46.734375 
Q 21.96875 47.46875 24.109375 47.828125 
Q 26.265625 48.1875 28.421875 48.1875 
Q 40.625 48.1875 47.75 41.5 
Q 54.890625 34.8125 54.890625 23.390625 
Q 54.890625 11.625 47.5625 5.09375 
Q 40.234375 -1.421875 26.90625 -1.421875 
Q 22.3125 -1.421875 17.546875 -0.640625 
Q 12.796875 0.140625 7.71875 1.703125 
L 7.71875 11.625 
Q 12.109375 9.234375 16.796875 8.0625 
Q 21.484375 6.890625 26.703125 6.890625 
Q 35.15625 6.890625 40.078125 11.328125 
Q 45.015625 15.765625 45.015625 23.390625 
Q 45.015625 31 40.078125 35.4375 
Q 35.15625 39.890625 26.703125 39.890625 
Q 22.75 39.890625 18.8125 39.015625 
Q 14.890625 38.140625 10.796875 36.28125 
z
" id="DejaVuSans-53"/>
      </defs>
      <g transform="translate(160.414842 337.118125)scale(0.12 -0.12)">
       <use xlink:href="#DejaVuSans-49"/>
       <use x="63.623047" xlink:href="#DejaVuSans-53"/>
      </g>
     </g>
    </g>
    <g id="xtick_3">
     <g id="line2d_9">
      <g>
       <use style="stroke:#000000;stroke-width:0.5;" x="223.231804" xlink:href="#m0ec2e1ab84" y="324"/>
      </g>
     </g>
     <g id="line2d_10">
      <g>
       <use style="stroke:#000000;stroke-width:0.5;" x="223.231804" xlink:href="#m2a62e73810" y="36"/>
      </g>
     </g>
     <g id="text_3">
      <!-- 30 -->
      <defs>
       <path d="M 40.578125 39.3125 
Q 47.65625 37.796875 51.625 33 
Q 55.609375 28.21875 55.609375 21.1875 
Q 55.609375 10.40625 48.1875 4.484375 
Q 40.765625 -1.421875 27.09375 -1.421875 
Q 22.515625 -1.421875 17.65625 -0.515625 
Q 12.796875 0.390625 7.625 2.203125 
L 7.625 11.71875 
Q 11.71875 9.328125 16.59375 8.109375 
Q 21.484375 6.890625 26.8125 6.890625 
Q 36.078125 6.890625 40.9375 10.546875 
Q 45.796875 14.203125 45.796875 21.1875 
Q 45.796875 27.640625 41.28125 31.265625 
Q 36.765625 34.90625 28.71875 34.90625 
L 20.21875 34.90625 
L 20.21875 43.015625 
L 29.109375 43.015625 
Q 36.375 43.015625 40.234375 45.921875 
Q 44.09375 48.828125 44.09375 54.296875 
Q 44.09375 59.90625 40.109375 62.90625 
Q 36.140625 65.921875 28.71875 65.921875 
Q 24.65625 65.921875 20.015625 65.03125 
Q 15.375 64.15625 9.8125 62.3125 
L 9.8125 71.09375 
Q 15.4375 72.65625 20.34375 73.4375 
Q 25.25 74.21875 29.59375 74.21875 
Q 40.828125 74.21875 47.359375 69.109375 
Q 53.90625 64.015625 53.90625 55.328125 
Q 53.90625 49.265625 50.4375 45.09375 
Q 46.96875 40.921875 40.578125 39.3125 
z
" id="DejaVuSans-51"/>
      </defs>
      <g transform="translate(215.596804 337.118125)scale(0.12 -0.12)">
       <use xlink:href="#DejaVuSans-51"/>
       <use x="63.623047" xlink:href="#DejaVuSans-48"/>
      </g>
     </g>
    </g>
    <g id="xtick_4">
     <g id="line2d_11">
      <g>
       <use style="stroke:#000000;stroke-width:0.5;" x="278.413766" xlink:href="#m0ec2e1ab84" y="324"/>
      </g>
     </g>
     <g id="line2d_12">
      <g>
       <use style="stroke:#000000;stroke-width:0.5;" x="278.413766" xlink:href="#m2a62e73810" y="36"/>
      </g>
     </g>
     <g id="text_4">
      <!-- 45 -->
      <defs>
       <path d="M 37.796875 64.3125 
L 12.890625 25.390625 
L 37.796875 25.390625 
z
M 35.203125 72.90625 
L 47.609375 72.90625 
L 47.609375 25.390625 
L 58.015625 25.390625 
L 58.015625 17.1875 
L 47.609375 17.1875 
L 47.609375 0 
L 37.796875 0 
L 37.796875 17.1875 
L 4.890625 17.1875 
L 4.890625 26.703125 
z
" id="DejaVuSans-52"/>
      </defs>
      <g transform="translate(270.778766 337.118125)scale(0.12 -0.12)">
       <use xlink:href="#DejaVuSans-52"/>
       <use x="63.623047" xlink:href="#DejaVuSans-53"/>
      </g>
     </g>
    </g>
    <g id="xtick_5">
     <g id="line2d_13">
      <g>
       <use style="stroke:#000000;stroke-width:0.5;" x="333.595728" xlink:href="#m0ec2e1ab84" y="324"/>
      </g>
     </g>
     <g id="line2d_14">
      <g>
       <use style="stroke:#000000;stroke-width:0.5;" x="333.595728" xlink:href="#m2a62e73810" y="36"/>
      </g>
     </g>
     <g id="text_5">
      <!-- 60 -->
      <defs>
       <path d="M 33.015625 40.375 
Q 26.375 40.375 22.484375 35.828125 
Q 18.609375 31.296875 18.609375 23.390625 
Q 18.609375 15.53125 22.484375 10.953125 
Q 26.375 6.390625 33.015625 6.390625 
Q 39.65625 6.390625 43.53125 10.953125 
Q 47.40625 15.53125 47.40625 23.390625 
Q 47.40625 31.296875 43.53125 35.828125 
Q 39.65625 40.375 33.015625 40.375 
z
M 52.59375 71.296875 
L 52.59375 62.3125 
Q 48.875 64.0625 45.09375 64.984375 
Q 41.3125 65.921875 37.59375 65.921875 
Q 27.828125 65.921875 22.671875 59.328125 
Q 17.53125 52.734375 16.796875 39.40625 
Q 19.671875 43.65625 24.015625 45.921875 
Q 28.375 48.1875 33.59375 48.1875 
Q 44.578125 48.1875 50.953125 41.515625 
Q 57.328125 34.859375 57.328125 23.390625 
Q 57.328125 12.15625 50.6875 5.359375 
Q 44.046875 -1.421875 33.015625 -1.421875 
Q 20.359375 -1.421875 13.671875 8.265625 
Q 6.984375 17.96875 6.984375 36.375 
Q 6.984375 53.65625 15.1875 63.9375 
Q 23.390625 74.21875 37.203125 74.21875 
Q 40.921875 74.21875 44.703125 73.484375 
Q 48.484375 72.75 52.59375 71.296875 
z
" id="DejaVuSans-54"/>
      </defs>
      <g transform="translate(325.960728 337.118125)scale(0.12 -0.12)">
       <use xlink:href="#DejaVuSans-54"/>
       <use x="63.623047" xlink:href="#DejaVuSans-48"/>
      </g>
     </g>
    </g>
    <g id="xtick_6">
     <g id="line2d_15">
      <g>
       <use style="stroke:#000000;stroke-width:0.5;" x="388.77769" xlink:href="#m0ec2e1ab84" y="324"/>
      </g>
     </g>
     <g id="line2d_16">
      <g>
       <use style="stroke:#000000;stroke-width:0.5;" x="388.77769" xlink:href="#m2a62e73810" y="36"/>
      </g>
     </g>
     <g id="text_6">
      <!-- 75 -->
      <defs>
       <path d="M 8.203125 72.90625 
L 55.078125 72.90625 
L 55.078125 68.703125 
L 28.609375 0 
L 18.3125 0 
L 43.21875 64.59375 
L 8.203125 64.59375 
z
" id="DejaVuSans-55"/>
      </defs>
      <g transform="translate(381.14269 337.118125)scale(0.12 -0.12)">
       <use xlink:href="#DejaVuSans-55"/>
       <use x="63.623047" xlink:href="#DejaVuSans-53"/>
      </g>
     </g>
    </g>
    <g id="xtick_7">
     <g id="line2d_17">
      <g>
       <use style="stroke:#000000;stroke-width:0.5;" x="443.959652" xlink:href="#m0ec2e1ab84" y="324"/>
      </g>
     </g>
     <g id="line2d_18">
      <g>
       <use style="stroke:#000000;stroke-width:0.5;" x="443.959652" xlink:href="#m2a62e73810" y="36"/>
      </g>
     </g>
     <g id="text_7">
      <!-- 90 -->
      <defs>
       <path d="M 10.984375 1.515625 
L 10.984375 10.5 
Q 14.703125 8.734375 18.5 7.8125 
Q 22.3125 6.890625 25.984375 6.890625 
Q 35.75 6.890625 40.890625 13.453125 
Q 46.046875 20.015625 46.78125 33.40625 
Q 43.953125 29.203125 39.59375 26.953125 
Q 35.25 24.703125 29.984375 24.703125 
Q 19.046875 24.703125 12.671875 31.3125 
Q 6.296875 37.9375 6.296875 49.421875 
Q 6.296875 60.640625 12.9375 67.421875 
Q 19.578125 74.21875 30.609375 74.21875 
Q 43.265625 74.21875 49.921875 64.515625 
Q 56.59375 54.828125 56.59375 36.375 
Q 56.59375 19.140625 48.40625 8.859375 
Q 40.234375 -1.421875 26.421875 -1.421875 
Q 22.703125 -1.421875 18.890625 -0.6875 
Q 15.09375 0.046875 10.984375 1.515625 
z
M 30.609375 32.421875 
Q 37.25 32.421875 41.125 36.953125 
Q 45.015625 41.5 45.015625 49.421875 
Q 45.015625 57.28125 41.125 61.84375 
Q 37.25 66.40625 30.609375 66.40625 
Q 23.96875 66.40625 20.09375 61.84375 
Q 16.21875 57.28125 16.21875 49.421875 
Q 16.21875 41.5 20.09375 36.953125 
Q 23.96875 32.421875 30.609375 32.421875 
z
" id="DejaVuSans-57"/>
      </defs>
      <g transform="translate(436.324652 337.118125)scale(0.12 -0.12)">
       <use xlink:href="#DejaVuSans-57"/>
       <use x="63.623047" xlink:href="#DejaVuSans-48"/>
      </g>
     </g>
    </g>
    <g id="xtick_8">
     <g id="line2d_19">
      <g>
       <use style="stroke:#000000;stroke-width:0.5;" x="499.141614" xlink:href="#m0ec2e1ab84" y="324"/>
      </g>
     </g>
     <g id="line2d_20">
      <g>
       <use style="stroke:#000000;stroke-width:0.5;" x="499.141614" xlink:href="#m2a62e73810" y="36"/>
      </g>
     </g>
     <g id="text_8">
      <!-- 105 -->
      <g transform="translate(487.689114 337.118125)scale(0.12 -0.12)">
       <use xlink:href="#DejaVuSans-49"/>
       <use x="63.623047" xlink:href="#DejaVuSans-48"/>
       <use x="127.246094" xlink:href="#DejaVuSans-53"/>
      </g>
     </g>
    </g>
    <g id="xtick_9">
     <g id="line2d_21">
      <g>
       <use style="stroke:#000000;stroke-width:0.5;" x="554.323576" xlink:href="#m0ec2e1ab84" y="324"/>
      </g>
     </g>
     <g id="line2d_22">
      <g>
       <use style="stroke:#000000;stroke-width:0.5;" x="554.323576" xlink:href="#m2a62e73810" y="36"/>
      </g>
     </g>
     <g id="text_9">
      <!-- 120 -->
      <defs>
       <path d="M 19.1875 8.296875 
L 53.609375 8.296875 
L 53.609375 0 
L 7.328125 0 
L 7.328125 8.296875 
Q 12.9375 14.109375 22.625 23.890625 
Q 32.328125 33.6875 34.8125 36.53125 
Q 39.546875 41.84375 41.421875 45.53125 
Q 43.3125 49.21875 43.3125 52.78125 
Q 43.3125 58.59375 39.234375 62.25 
Q 35.15625 65.921875 28.609375 65.921875 
Q 23.96875 65.921875 18.8125 64.3125 
Q 13.671875 62.703125 7.8125 59.421875 
L 7.8125 69.390625 
Q 13.765625 71.78125 18.9375 73 
Q 24.125 74.21875 28.421875 74.21875 
Q 39.75 74.21875 46.484375 68.546875 
Q 53.21875 62.890625 53.21875 53.421875 
Q 53.21875 48.921875 51.53125 44.890625 
Q 49.859375 40.875 45.40625 35.40625 
Q 44.1875 33.984375 37.640625 27.21875 
Q 31.109375 20.453125 19.1875 8.296875 
z
" id="DejaVuSans-50"/>
      </defs>
      <g transform="translate(542.871076 337.118125)scale(0.12 -0.12)">
       <use xlink:href="#DejaVuSans-49"/>
       <use x="63.623047" xlink:href="#DejaVuSans-50"/>
       <use x="127.246094" xlink:href="#DejaVuSans-48"/>
      </g>
     </g>
    </g>
    <g id="xtick_10">
     <g id="line2d_23">
      <g>
       <use style="stroke:#000000;stroke-width:0.5;" x="609.505538" xlink:href="#m0ec2e1ab84" y="324"/>
      </g>
     </g>
     <g id="line2d_24">
      <g>
       <use style="stroke:#000000;stroke-width:0.5;" x="609.505538" xlink:href="#m2a62e73810" y="36"/>
      </g>
     </g>
     <g id="text_10">
      <!-- 135 -->
      <g transform="translate(598.053038 337.118125)scale(0.12 -0.12)">
       <use xlink:href="#DejaVuSans-49"/>
       <use x="63.623047" xlink:href="#DejaVuSans-51"/>
       <use x="127.246094" xlink:href="#DejaVuSans-53"/>
      </g>
     </g>
    </g>
    <g id="text_11">
     <!-- generation -->
     <defs>
      <path d="M 45.40625 27.984375 
Q 45.40625 37.75 41.375 43.109375 
Q 37.359375 48.484375 30.078125 48.484375 
Q 22.859375 48.484375 18.828125 43.109375 
Q 14.796875 37.75 14.796875 27.984375 
Q 14.796875 18.265625 18.828125 12.890625 
Q 22.859375 7.515625 30.078125 7.515625 
Q 37.359375 7.515625 41.375 12.890625 
Q 45.40625 18.265625 45.40625 27.984375 
z
M 54.390625 6.78125 
Q 54.390625 -7.171875 48.1875 -13.984375 
Q 42 -20.796875 29.203125 -20.796875 
Q 24.46875 -20.796875 20.265625 -20.09375 
Q 16.0625 -19.390625 12.109375 -17.921875 
L 12.109375 -9.1875 
Q 16.0625 -11.328125 19.921875 -12.34375 
Q 23.78125 -13.375 27.78125 -13.375 
Q 36.625 -13.375 41.015625 -8.765625 
Q 45.40625 -4.15625 45.40625 5.171875 
L 45.40625 9.625 
Q 42.625 4.78125 38.28125 2.390625 
Q 33.9375 0 27.875 0 
Q 17.828125 0 11.671875 7.65625 
Q 5.515625 15.328125 5.515625 27.984375 
Q 5.515625 40.671875 11.671875 48.328125 
Q 17.828125 56 27.875 56 
Q 33.9375 56 38.28125 53.609375 
Q 42.625 51.21875 45.40625 46.390625 
L 45.40625 54.6875 
L 54.390625 54.6875 
z
" id="DejaVuSans-103"/>
      <path d="M 56.203125 29.59375 
L 56.203125 25.203125 
L 14.890625 25.203125 
Q 15.484375 15.921875 20.484375 11.0625 
Q 25.484375 6.203125 34.421875 6.203125 
Q 39.59375 6.203125 44.453125 7.46875 
Q 49.3125 8.734375 54.109375 11.28125 
L 54.109375 2.78125 
Q 49.265625 0.734375 44.1875 -0.34375 
Q 39.109375 -1.421875 33.890625 -1.421875 
Q 20.796875 -1.421875 13.15625 6.1875 
Q 5.515625 13.8125 5.515625 26.8125 
Q 5.515625 40.234375 12.765625 48.109375 
Q 20.015625 56 32.328125 56 
Q 43.359375 56 49.78125 48.890625 
Q 56.203125 41.796875 56.203125 29.59375 
z
M 47.21875 32.234375 
Q 47.125 39.59375 43.09375 43.984375 
Q 39.0625 48.390625 32.421875 48.390625 
Q 24.90625 48.390625 20.390625 44.140625 
Q 15.875 39.890625 15.1875 32.171875 
z
" id="DejaVuSans-101"/>
      <path d="M 54.890625 33.015625 
L 54.890625 0 
L 45.90625 0 
L 45.90625 32.71875 
Q 45.90625 40.484375 42.875 44.328125 
Q 39.84375 48.1875 33.796875 48.1875 
Q 26.515625 48.1875 22.3125 43.546875 
Q 18.109375 38.921875 18.109375 30.90625 
L 18.109375 0 
L 9.078125 0 
L 9.078125 54.6875 
L 18.109375 54.6875 
L 18.109375 46.1875 
Q 21.34375 51.125 25.703125 53.5625 
Q 30.078125 56 35.796875 56 
Q 45.21875 56 50.046875 50.171875 
Q 54.890625 44.34375 54.890625 33.015625 
z
" id="DejaVuSans-110"/>
      <path d="M 41.109375 46.296875 
Q 39.59375 47.171875 37.8125 47.578125 
Q 36.03125 48 33.890625 48 
Q 26.265625 48 22.1875 43.046875 
Q 18.109375 38.09375 18.109375 28.8125 
L 18.109375 0 
L 9.078125 0 
L 9.078125 54.6875 
L 18.109375 54.6875 
L 18.109375 46.1875 
Q 20.953125 51.171875 25.484375 53.578125 
Q 30.03125 56 36.53125 56 
Q 37.453125 56 38.578125 55.875 
Q 39.703125 55.765625 41.0625 55.515625 
z
" id="DejaVuSans-114"/>
      <path d="M 34.28125 27.484375 
Q 23.390625 27.484375 19.1875 25 
Q 14.984375 22.515625 14.984375 16.5 
Q 14.984375 11.71875 18.140625 8.90625 
Q 21.296875 6.109375 26.703125 6.109375 
Q 34.1875 6.109375 38.703125 11.40625 
Q 43.21875 16.703125 43.21875 25.484375 
L 43.21875 27.484375 
z
M 52.203125 31.203125 
L 52.203125 0 
L 43.21875 0 
L 43.21875 8.296875 
Q 40.140625 3.328125 35.546875 0.953125 
Q 30.953125 -1.421875 24.3125 -1.421875 
Q 15.921875 -1.421875 10.953125 3.296875 
Q 6 8.015625 6 15.921875 
Q 6 25.140625 12.171875 29.828125 
Q 18.359375 34.515625 30.609375 34.515625 
L 43.21875 34.515625 
L 43.21875 35.40625 
Q 43.21875 41.609375 39.140625 45 
Q 35.0625 48.390625 27.6875 48.390625 
Q 23 48.390625 18.546875 47.265625 
Q 14.109375 46.140625 10.015625 43.890625 
L 10.015625 52.203125 
Q 14.9375 54.109375 19.578125 55.046875 
Q 24.21875 56 28.609375 56 
Q 40.484375 56 46.34375 49.84375 
Q 52.203125 43.703125 52.203125 31.203125 
z
" id="DejaVuSans-97"/>
      <path d="M 18.3125 70.21875 
L 18.3125 54.6875 
L 36.8125 54.6875 
L 36.8125 47.703125 
L 18.3125 47.703125 
L 18.3125 18.015625 
Q 18.3125 11.328125 20.140625 9.421875 
Q 21.96875 7.515625 27.59375 7.515625 
L 36.8125 7.515625 
L 36.8125 0 
L 27.59375 0 
Q 17.1875 0 13.234375 3.875 
Q 9.28125 7.765625 9.28125 18.015625 
L 9.28125 47.703125 
L 2.6875 47.703125 
L 2.6875 54.6875 
L 9.28125 54.6875 
L 9.28125 70.21875 
z
" id="DejaVuSans-116"/>
      <path d="M 9.421875 54.6875 
L 18.40625 54.6875 
L 18.40625 0 
L 9.421875 0 
z
M 9.421875 75.984375 
L 18.40625 75.984375 
L 18.40625 64.59375 
L 9.421875 64.59375 
z
" id="DejaVuSans-105"/>
      <path d="M 30.609375 48.390625 
Q 23.390625 48.390625 19.1875 42.75 
Q 14.984375 37.109375 14.984375 27.296875 
Q 14.984375 17.484375 19.15625 11.84375 
Q 23.34375 6.203125 30.609375 6.203125 
Q 37.796875 6.203125 41.984375 11.859375 
Q 46.1875 17.53125 46.1875 27.296875 
Q 46.1875 37.015625 41.984375 42.703125 
Q 37.796875 48.390625 30.609375 48.390625 
z
M 30.609375 56 
Q 42.328125 56 49.015625 48.375 
Q 55.71875 40.765625 55.71875 27.296875 
Q 55.71875 13.875 49.015625 6.21875 
Q 42.328125 -1.421875 30.609375 -1.421875 
Q 18.84375 -1.421875 12.171875 6.21875 
Q 5.515625 13.875 5.515625 27.296875 
Q 5.515625 40.765625 12.171875 48.375 
Q 18.84375 56 30.609375 56 
z
" id="DejaVuSans-111"/>
     </defs>
     <g transform="translate(341.430938 353.731875)scale(0.12 -0.12)">
      <use xlink:href="#DejaVuSans-103"/>
      <use x="63.476562" xlink:href="#DejaVuSans-101"/>
      <use x="125" xlink:href="#DejaVuSans-110"/>
      <use x="188.378906" xlink:href="#DejaVuSans-101"/>
      <use x="249.902344" xlink:href="#DejaVuSans-114"/>
      <use x="291.015625" xlink:href="#DejaVuSans-97"/>
      <use x="352.294922" xlink:href="#DejaVuSans-116"/>
      <use x="391.503906" xlink:href="#DejaVuSans-105"/>
      <use x="419.287109" xlink:href="#DejaVuSans-111"/>
      <use x="480.46875" xlink:href="#DejaVuSans-110"/>
     </g>
    </g>
   </g>
   <g id="matplotlib.axis_2">
    <g id="ytick_1">
     <g id="line2d_25">
      <defs>
       <path d="M 0 0 
L 4 0 
" id="m9e96b02908" style="stroke:#000000;stroke-width:0.5;"/>
      </defs>
      <g>
       <use style="stroke:#000000;stroke-width:0.5;" x="112.5" xlink:href="#m9e96b02908" y="324"/>
      </g>
     </g>
     <g id="line2d_26">
      <defs>
       <path d="M 0 0 
L -4 0 
" id="m149ab54b55" style="stroke:#000000;stroke-width:0.5;"/>
      </defs>
      <g>
       <use style="stroke:#000000;stroke-width:0.5;" x="635.625" xlink:href="#m149ab54b55" y="324"/>
      </g>
     </g>
     <g id="text_12">
      <!-- 0 -->
      <g transform="translate(100.865 327.31125)scale(0.12 -0.12)">
       <use xlink:href="#DejaVuSans-48"/>
      </g>
     </g>
    </g>
    <g id="ytick_2">
     <g id="line2d_27">
      <g>
       <use style="stroke:#000000;stroke-width:0.5;" x="112.5" xlink:href="#m9e96b02908" y="266.4"/>
      </g>
     </g>
     <g id="line2d_28">
      <g>
       <use style="stroke:#000000;stroke-width:0.5;" x="635.625" xlink:href="#m149ab54b55" y="266.4"/>
      </g>
     </g>
     <g id="text_13">
      <!-- 1,000,000 -->
      <defs>
       <path d="M 11.71875 12.40625 
L 22.015625 12.40625 
L 22.015625 4 
L 14.015625 -11.625 
L 7.71875 -11.625 
L 11.71875 4 
z
" id="DejaVuSans-44"/>
      </defs>
      <g transform="translate(47.4275 269.71125)scale(0.12 -0.12)">
       <use xlink:href="#DejaVuSans-49"/>
       <use x="63.623047" xlink:href="#DejaVuSans-44"/>
       <use x="95.410156" xlink:href="#DejaVuSans-48"/>
       <use x="159.033203" xlink:href="#DejaVuSans-48"/>
       <use x="222.65625" xlink:href="#DejaVuSans-48"/>
       <use x="286.279297" xlink:href="#DejaVuSans-44"/>
       <use x="318.066406" xlink:href="#DejaVuSans-48"/>
       <use x="381.689453" xlink:href="#DejaVuSans-48"/>
       <use x="445.3125" xlink:href="#DejaVuSans-48"/>
      </g>
     </g>
    </g>
    <g id="ytick_3">
     <g id="line2d_29">
      <g>
       <use style="stroke:#000000;stroke-width:0.5;" x="112.5" xlink:href="#m9e96b02908" y="208.8"/>
      </g>
     </g>
     <g id="line2d_30">
      <g>
       <use style="stroke:#000000;stroke-width:0.5;" x="635.625" xlink:href="#m149ab54b55" y="208.8"/>
      </g>
     </g>
     <g id="text_14">
      <!-- 2,000,000 -->
      <g transform="translate(47.4275 212.11125)scale(0.12 -0.12)">
       <use xlink:href="#DejaVuSans-50"/>
       <use x="63.623047" xlink:href="#DejaVuSans-44"/>
       <use x="95.410156" xlink:href="#DejaVuSans-48"/>
       <use x="159.033203" xlink:href="#DejaVuSans-48"/>
       <use x="222.65625" xlink:href="#DejaVuSans-48"/>
       <use x="286.279297" xlink:href="#DejaVuSans-44"/>
       <use x="318.066406" xlink:href="#DejaVuSans-48"/>
       <use x="381.689453" xlink:href="#DejaVuSans-48"/>
       <use x="445.3125" xlink:href="#DejaVuSans-48"/>
      </g>
     </g>
    </g>
    <g id="ytick_4">
     <g id="line2d_31">
      <g>
       <use style="stroke:#000000;stroke-width:0.5;" x="112.5" xlink:href="#m9e96b02908" y="151.2"/>
      </g>
     </g>
     <g id="line2d_32">
      <g>
       <use style="stroke:#000000;stroke-width:0.5;" x="635.625" xlink:href="#m149ab54b55" y="151.2"/>
      </g>
     </g>
     <g id="text_15">
      <!-- 3,000,000 -->
      <g transform="translate(47.4275 154.51125)scale(0.12 -0.12)">
       <use xlink:href="#DejaVuSans-51"/>
       <use x="63.623047" xlink:href="#DejaVuSans-44"/>
       <use x="95.410156" xlink:href="#DejaVuSans-48"/>
       <use x="159.033203" xlink:href="#DejaVuSans-48"/>
       <use x="222.65625" xlink:href="#DejaVuSans-48"/>
       <use x="286.279297" xlink:href="#DejaVuSans-44"/>
       <use x="318.066406" xlink:href="#DejaVuSans-48"/>
       <use x="381.689453" xlink:href="#DejaVuSans-48"/>
       <use x="445.3125" xlink:href="#DejaVuSans-48"/>
      </g>
     </g>
    </g>
    <g id="ytick_5">
     <g id="line2d_33">
      <g>
       <use style="stroke:#000000;stroke-width:0.5;" x="112.5" xlink:href="#m9e96b02908" y="93.6"/>
      </g>
     </g>
     <g id="line2d_34">
      <g>
       <use style="stroke:#000000;stroke-width:0.5;" x="635.625" xlink:href="#m149ab54b55" y="93.6"/>
      </g>
     </g>
     <g id="text_16">
      <!-- 4,000,000 -->
      <g transform="translate(47.4275 96.91125)scale(0.12 -0.12)">
       <use xlink:href="#DejaVuSans-52"/>
       <use x="63.623047" xlink:href="#DejaVuSans-44"/>
       <use x="95.410156" xlink:href="#DejaVuSans-48"/>
       <use x="159.033203" xlink:href="#DejaVuSans-48"/>
       <use x="222.65625" xlink:href="#DejaVuSans-48"/>
       <use x="286.279297" xlink:href="#DejaVuSans-44"/>
       <use x="318.066406" xlink:href="#DejaVuSans-48"/>
       <use x="381.689453" xlink:href="#DejaVuSans-48"/>
       <use x="445.3125" xlink:href="#DejaVuSans-48"/>
      </g>
     </g>
    </g>
    <g id="ytick_6">
     <g id="line2d_35">
      <g>
       <use style="stroke:#000000;stroke-width:0.5;" x="112.5" xlink:href="#m9e96b02908" y="36"/>
      </g>
     </g>
     <g id="line2d_36">
      <g>
       <use style="stroke:#000000;stroke-width:0.5;" x="635.625" xlink:href="#m149ab54b55" y="36"/>
      </g>
     </g>
     <g id="text_17">
      <!-- 5,000,000 -->
      <g transform="translate(47.4275 39.31125)scale(0.12 -0.12)">
       <use xlink:href="#DejaVuSans-53"/>
       <use x="63.623047" xlink:href="#DejaVuSans-44"/>
       <use x="95.410156" xlink:href="#DejaVuSans-48"/>
       <use x="159.033203" xlink:href="#DejaVuSans-48"/>
       <use x="222.65625" xlink:href="#DejaVuSans-48"/>
       <use x="286.279297" xlink:href="#DejaVuSans-44"/>
       <use x="318.066406" xlink:href="#DejaVuSans-48"/>
       <use x="381.689453" xlink:href="#DejaVuSans-48"/>
       <use x="445.3125" xlink:href="#DejaVuSans-48"/>
      </g>
     </g>
    </g>
    <g id="text_18">
     <!-- parameters -->
     <defs>
      <path d="M 18.109375 8.203125 
L 18.109375 -20.796875 
L 9.078125 -20.796875 
L 9.078125 54.6875 
L 18.109375 54.6875 
L 18.109375 46.390625 
Q 20.953125 51.265625 25.265625 53.625 
Q 29.59375 56 35.59375 56 
Q 45.5625 56 51.78125 48.09375 
Q 58.015625 40.1875 58.015625 27.296875 
Q 58.015625 14.40625 51.78125 6.484375 
Q 45.5625 -1.421875 35.59375 -1.421875 
Q 29.59375 -1.421875 25.265625 0.953125 
Q 20.953125 3.328125 18.109375 8.203125 
z
M 48.6875 27.296875 
Q 48.6875 37.203125 44.609375 42.84375 
Q 40.53125 48.484375 33.40625 48.484375 
Q 26.265625 48.484375 22.1875 42.84375 
Q 18.109375 37.203125 18.109375 27.296875 
Q 18.109375 17.390625 22.1875 11.75 
Q 26.265625 6.109375 33.40625 6.109375 
Q 40.53125 6.109375 44.609375 11.75 
Q 48.6875 17.390625 48.6875 27.296875 
z
" id="DejaVuSans-112"/>
      <path d="M 52 44.1875 
Q 55.375 50.25 60.0625 53.125 
Q 64.75 56 71.09375 56 
Q 79.640625 56 84.28125 50.015625 
Q 88.921875 44.046875 88.921875 33.015625 
L 88.921875 0 
L 79.890625 0 
L 79.890625 32.71875 
Q 79.890625 40.578125 77.09375 44.375 
Q 74.3125 48.1875 68.609375 48.1875 
Q 61.625 48.1875 57.5625 43.546875 
Q 53.515625 38.921875 53.515625 30.90625 
L 53.515625 0 
L 44.484375 0 
L 44.484375 32.71875 
Q 44.484375 40.625 41.703125 44.40625 
Q 38.921875 48.1875 33.109375 48.1875 
Q 26.21875 48.1875 22.15625 43.53125 
Q 18.109375 38.875 18.109375 30.90625 
L 18.109375 0 
L 9.078125 0 
L 9.078125 54.6875 
L 18.109375 54.6875 
L 18.109375 46.1875 
Q 21.1875 51.21875 25.484375 53.609375 
Q 29.78125 56 35.6875 56 
Q 41.65625 56 45.828125 52.96875 
Q 50 49.953125 52 44.1875 
z
" id="DejaVuSans-109"/>
      <path d="M 44.28125 53.078125 
L 44.28125 44.578125 
Q 40.484375 46.53125 36.375 47.5 
Q 32.28125 48.484375 27.875 48.484375 
Q 21.1875 48.484375 17.84375 46.4375 
Q 14.5 44.390625 14.5 40.28125 
Q 14.5 37.15625 16.890625 35.375 
Q 19.28125 33.59375 26.515625 31.984375 
L 29.59375 31.296875 
Q 39.15625 29.25 43.1875 25.515625 
Q 47.21875 21.78125 47.21875 15.09375 
Q 47.21875 7.46875 41.1875 3.015625 
Q 35.15625 -1.421875 24.609375 -1.421875 
Q 20.21875 -1.421875 15.453125 -0.5625 
Q 10.6875 0.296875 5.421875 2 
L 5.421875 11.28125 
Q 10.40625 8.6875 15.234375 7.390625 
Q 20.0625 6.109375 24.8125 6.109375 
Q 31.15625 6.109375 34.5625 8.28125 
Q 37.984375 10.453125 37.984375 14.40625 
Q 37.984375 18.0625 35.515625 20.015625 
Q 33.0625 21.96875 24.703125 23.78125 
L 21.578125 24.515625 
Q 13.234375 26.265625 9.515625 29.90625 
Q 5.8125 33.546875 5.8125 39.890625 
Q 5.8125 47.609375 11.28125 51.796875 
Q 16.75 56 26.8125 56 
Q 31.78125 56 36.171875 55.265625 
Q 40.578125 54.546875 44.28125 53.078125 
z
" id="DejaVuSans-115"/>
     </defs>
     <g transform="translate(39.931875 214.801875)rotate(-90)scale(0.12 -0.12)">
      <use xlink:href="#DejaVuSans-112"/>
      <use x="63.476562" xlink:href="#DejaVuSans-97"/>
      <use x="124.755859" xlink:href="#DejaVuSans-114"/>
      <use x="165.869141" xlink:href="#DejaVuSans-97"/>
      <use x="227.148438" xlink:href="#DejaVuSans-109"/>
      <use x="324.560547" xlink:href="#DejaVuSans-101"/>
      <use x="386.083984" xlink:href="#DejaVuSans-116"/>
      <use x="425.292969" xlink:href="#DejaVuSans-101"/>
      <use x="486.816406" xlink:href="#DejaVuSans-114"/>
      <use x="527.929688" xlink:href="#DejaVuSans-115"/>
     </g>
    </g>
   </g>
   <g id="legend_1">
    <g id="patch_7">
     <path d="M 640.623 211.399935 
L 741.654446 211.399935 
L 741.654446 148.600065 
L 640.623 148.600065 
z
" style="fill:#ffffff;stroke:#000000;stroke-linejoin:miter;"/>
    </g>
    <g id="line2d_37">
     <path d="M 647.6202 156.695263 
L 661.6146 156.695263 
" style="fill:none;stroke:#0000ff;stroke-linecap:square;stroke-width:1.2;"/>
    </g>
    <g id="line2d_38"/>
    <g id="text_19">
     <!-- Mutation_0.2 -->
     <defs>
      <path d="M 9.8125 72.90625 
L 24.515625 72.90625 
L 43.109375 23.296875 
L 61.8125 72.90625 
L 76.515625 72.90625 
L 76.515625 0 
L 66.890625 0 
L 66.890625 64.015625 
L 48.09375 14.015625 
L 38.1875 14.015625 
L 19.390625 64.015625 
L 19.390625 0 
L 9.8125 0 
z
" id="DejaVuSans-77"/>
      <path d="M 8.5 21.578125 
L 8.5 54.6875 
L 17.484375 54.6875 
L 17.484375 21.921875 
Q 17.484375 14.15625 20.5 10.265625 
Q 23.53125 6.390625 29.59375 6.390625 
Q 36.859375 6.390625 41.078125 11.03125 
Q 45.3125 15.671875 45.3125 23.6875 
L 45.3125 54.6875 
L 54.296875 54.6875 
L 54.296875 0 
L 45.3125 0 
L 45.3125 8.40625 
Q 42.046875 3.421875 37.71875 1 
Q 33.40625 -1.421875 27.6875 -1.421875 
Q 18.265625 -1.421875 13.375 4.4375 
Q 8.5 10.296875 8.5 21.578125 
z
M 31.109375 56 
z
" id="DejaVuSans-117"/>
      <path d="M 50.984375 -16.609375 
L 50.984375 -23.578125 
L -0.984375 -23.578125 
L -0.984375 -16.609375 
z
" id="DejaVuSans-95"/>
      <path d="M 10.6875 12.40625 
L 21 12.40625 
L 21 0 
L 10.6875 0 
z
" id="DejaVuSans-46"/>
     </defs>
     <g transform="translate(672.6102 160.193863)scale(0.09996 -0.09996)">
      <use xlink:href="#DejaVuSans-77"/>
      <use x="86.279297" xlink:href="#DejaVuSans-117"/>
      <use x="149.658203" xlink:href="#DejaVuSans-116"/>
      <use x="188.867188" xlink:href="#DejaVuSans-97"/>
      <use x="250.146484" xlink:href="#DejaVuSans-116"/>
      <use x="289.355469" xlink:href="#DejaVuSans-105"/>
      <use x="317.138672" xlink:href="#DejaVuSans-111"/>
      <use x="378.320312" xlink:href="#DejaVuSans-110"/>
      <use x="441.699219" xlink:href="#DejaVuSans-95"/>
      <use x="491.699219" xlink:href="#DejaVuSans-48"/>
      <use x="555.322266" xlink:href="#DejaVuSans-46"/>
      <use x="587.109375" xlink:href="#DejaVuSans-50"/>
     </g>
    </g>
    <g id="line2d_39">
     <path d="M 647.6202 171.645531 
L 661.6146 171.645531 
" style="fill:none;stroke:#008000;stroke-linecap:square;stroke-width:1.2;"/>
    </g>
    <g id="line2d_40"/>
    <g id="text_20">
     <!-- Mutation_0.4 -->
     <g transform="translate(672.6102 175.144131)scale(0.09996 -0.09996)">
      <use xlink:href="#DejaVuSans-77"/>
      <use x="86.279297" xlink:href="#DejaVuSans-117"/>
      <use x="149.658203" xlink:href="#DejaVuSans-116"/>
      <use x="188.867188" xlink:href="#DejaVuSans-97"/>
      <use x="250.146484" xlink:href="#DejaVuSans-116"/>
      <use x="289.355469" xlink:href="#DejaVuSans-105"/>
      <use x="317.138672" xlink:href="#DejaVuSans-111"/>
      <use x="378.320312" xlink:href="#DejaVuSans-110"/>
      <use x="441.699219" xlink:href="#DejaVuSans-95"/>
      <use x="491.699219" xlink:href="#DejaVuSans-48"/>
      <use x="555.322266" xlink:href="#DejaVuSans-46"/>
      <use x="587.109375" xlink:href="#DejaVuSans-52"/>
     </g>
    </g>
    <g id="line2d_41">
     <path d="M 647.6202 186.595798 
L 661.6146 186.595798 
" style="fill:none;stroke:#ff0000;stroke-linecap:square;stroke-width:1.2;"/>
    </g>
    <g id="line2d_42"/>
    <g id="text_21">
     <!-- Mutation_0.6 -->
     <g transform="translate(672.6102 190.094398)scale(0.09996 -0.09996)">
      <use xlink:href="#DejaVuSans-77"/>
      <use x="86.279297" xlink:href="#DejaVuSans-117"/>
      <use x="149.658203" xlink:href="#DejaVuSans-116"/>
      <use x="188.867188" xlink:href="#DejaVuSans-97"/>
      <use x="250.146484" xlink:href="#DejaVuSans-116"/>
      <use x="289.355469" xlink:href="#DejaVuSans-105"/>
      <use x="317.138672" xlink:href="#DejaVuSans-111"/>
      <use x="378.320312" xlink:href="#DejaVuSans-110"/>
      <use x="441.699219" xlink:href="#DejaVuSans-95"/>
      <use x="491.699219" xlink:href="#DejaVuSans-48"/>
      <use x="555.322266" xlink:href="#DejaVuSans-46"/>
      <use x="587.109375" xlink:href="#DejaVuSans-54"/>
     </g>
    </g>
    <g id="line2d_43">
     <path d="M 647.6202 201.546066 
L 661.6146 201.546066 
" style="fill:none;stroke:#00bfbf;stroke-linecap:square;stroke-width:1.2;"/>
    </g>
    <g id="line2d_44"/>
    <g id="text_22">
     <!-- Mutation_0.8 -->
     <defs>
      <path d="M 31.78125 34.625 
Q 24.75 34.625 20.71875 30.859375 
Q 16.703125 27.09375 16.703125 20.515625 
Q 16.703125 13.921875 20.71875 10.15625 
Q 24.75 6.390625 31.78125 6.390625 
Q 38.8125 6.390625 42.859375 10.171875 
Q 46.921875 13.96875 46.921875 20.515625 
Q 46.921875 27.09375 42.890625 30.859375 
Q 38.875 34.625 31.78125 34.625 
z
M 21.921875 38.8125 
Q 15.578125 40.375 12.03125 44.71875 
Q 8.5 49.078125 8.5 55.328125 
Q 8.5 64.0625 14.71875 69.140625 
Q 20.953125 74.21875 31.78125 74.21875 
Q 42.671875 74.21875 48.875 69.140625 
Q 55.078125 64.0625 55.078125 55.328125 
Q 55.078125 49.078125 51.53125 44.71875 
Q 48 40.375 41.703125 38.8125 
Q 48.828125 37.15625 52.796875 32.3125 
Q 56.78125 27.484375 56.78125 20.515625 
Q 56.78125 9.90625 50.3125 4.234375 
Q 43.84375 -1.421875 31.78125 -1.421875 
Q 19.734375 -1.421875 13.25 4.234375 
Q 6.78125 9.90625 6.78125 20.515625 
Q 6.78125 27.484375 10.78125 32.3125 
Q 14.796875 37.15625 21.921875 38.8125 
z
M 18.3125 54.390625 
Q 18.3125 48.734375 21.84375 45.5625 
Q 25.390625 42.390625 31.78125 42.390625 
Q 38.140625 42.390625 41.71875 45.5625 
Q 45.3125 48.734375 45.3125 54.390625 
Q 45.3125 60.0625 41.71875 63.234375 
Q 38.140625 66.40625 31.78125 66.40625 
Q 25.390625 66.40625 21.84375 63.234375 
Q 18.3125 60.0625 18.3125 54.390625 
z
" id="DejaVuSans-56"/>
     </defs>
     <g transform="translate(672.6102 205.044666)scale(0.09996 -0.09996)">
      <use xlink:href="#DejaVuSans-77"/>
      <use x="86.279297" xlink:href="#DejaVuSans-117"/>
      <use x="149.658203" xlink:href="#DejaVuSans-116"/>
      <use x="188.867188" xlink:href="#DejaVuSans-97"/>
      <use x="250.146484" xlink:href="#DejaVuSans-116"/>
      <use x="289.355469" xlink:href="#DejaVuSans-105"/>
      <use x="317.138672" xlink:href="#DejaVuSans-111"/>
      <use x="378.320312" xlink:href="#DejaVuSans-110"/>
      <use x="441.699219" xlink:href="#DejaVuSans-95"/>
      <use x="491.699219" xlink:href="#DejaVuSans-48"/>
      <use x="555.322266" xlink:href="#DejaVuSans-46"/>
      <use x="587.109375" xlink:href="#DejaVuSans-56"/>
     </g>
    </g>
   </g>
  </g>
  <g id="text_23">
   <!-- Average Amount of Parameters -->
   <defs>
    <path d="M 34.1875 63.1875 
L 20.796875 26.90625 
L 47.609375 26.90625 
z
M 28.609375 72.90625 
L 39.796875 72.90625 
L 67.578125 0 
L 57.328125 0 
L 50.6875 18.703125 
L 17.828125 18.703125 
L 11.1875 0 
L 0.78125 0 
z
" id="DejaVuSans-65"/>
    <path d="M 2.984375 54.6875 
L 12.5 54.6875 
L 29.59375 8.796875 
L 46.6875 54.6875 
L 56.203125 54.6875 
L 35.6875 0 
L 23.484375 0 
z
" id="DejaVuSans-118"/>
    <path id="DejaVuSans-32"/>
    <path d="M 37.109375 75.984375 
L 37.109375 68.5 
L 28.515625 68.5 
Q 23.6875 68.5 21.796875 66.546875 
Q 19.921875 64.59375 19.921875 59.515625 
L 19.921875 54.6875 
L 34.71875 54.6875 
L 34.71875 47.703125 
L 19.921875 47.703125 
L 19.921875 0 
L 10.890625 0 
L 10.890625 47.703125 
L 2.296875 47.703125 
L 2.296875 54.6875 
L 10.890625 54.6875 
L 10.890625 58.5 
Q 10.890625 67.625 15.140625 71.796875 
Q 19.390625 75.984375 28.609375 75.984375 
z
" id="DejaVuSans-102"/>
    <path d="M 19.671875 64.796875 
L 19.671875 37.40625 
L 32.078125 37.40625 
Q 38.96875 37.40625 42.71875 40.96875 
Q 46.484375 44.53125 46.484375 51.125 
Q 46.484375 57.671875 42.71875 61.234375 
Q 38.96875 64.796875 32.078125 64.796875 
z
M 9.8125 72.90625 
L 32.078125 72.90625 
Q 44.34375 72.90625 50.609375 67.359375 
Q 56.890625 61.8125 56.890625 51.125 
Q 56.890625 40.328125 50.609375 34.8125 
Q 44.34375 29.296875 32.078125 29.296875 
L 19.671875 29.296875 
L 19.671875 0 
L 9.8125 0 
z
" id="DejaVuSans-80"/>
   </defs>
   <g transform="translate(355.93875 16.318125)scale(0.12 -0.12)">
    <use xlink:href="#DejaVuSans-65"/>
    <use x="62.533203" xlink:href="#DejaVuSans-118"/>
    <use x="121.712891" xlink:href="#DejaVuSans-101"/>
    <use x="183.236328" xlink:href="#DejaVuSans-114"/>
    <use x="224.349609" xlink:href="#DejaVuSans-97"/>
    <use x="285.628906" xlink:href="#DejaVuSans-103"/>
    <use x="349.105469" xlink:href="#DejaVuSans-101"/>
    <use x="410.628906" xlink:href="#DejaVuSans-32"/>
    <use x="442.416016" xlink:href="#DejaVuSans-65"/>
    <use x="510.824219" xlink:href="#DejaVuSans-109"/>
    <use x="608.236328" xlink:href="#DejaVuSans-111"/>
    <use x="669.417969" xlink:href="#DejaVuSans-117"/>
    <use x="732.796875" xlink:href="#DejaVuSans-110"/>
    <use x="796.175781" xlink:href="#DejaVuSans-116"/>
    <use x="835.384766" xlink:href="#DejaVuSans-32"/>
    <use x="867.171875" xlink:href="#DejaVuSans-111"/>
    <use x="928.353516" xlink:href="#DejaVuSans-102"/>
    <use x="963.558594" xlink:href="#DejaVuSans-32"/>
    <use x="995.345703" xlink:href="#DejaVuSans-80"/>
    <use x="1051.148438" xlink:href="#DejaVuSans-97"/>
    <use x="1112.427734" xlink:href="#DejaVuSans-114"/>
    <use x="1153.541016" xlink:href="#DejaVuSans-97"/>
    <use x="1214.820312" xlink:href="#DejaVuSans-109"/>
    <use x="1312.232422" xlink:href="#DejaVuSans-101"/>
    <use x="1373.755859" xlink:href="#DejaVuSans-116"/>
    <use x="1412.964844" xlink:href="#DejaVuSans-101"/>
    <use x="1474.488281" xlink:href="#DejaVuSans-114"/>
    <use x="1515.601562" xlink:href="#DejaVuSans-115"/>
   </g>
  </g>
 </g>
 <defs>
  <clipPath id="pdfc9d9189a">
   <rect height="288" width="523.125" x="112.5" y="36"/>
  </clipPath>
 </defs>
</svg>
