<?xml version="1.0" encoding="utf-8" standalone="no"?>
<!DOCTYPE svg PUBLIC "-//W3C//DTD SVG 1.1//EN"
  "http://www.w3.org/Graphics/SVG/1.1/DTD/svg11.dtd">
<!-- Created with matplotlib (https://matplotlib.org/) -->
<svg height="360pt" version="1.1" viewBox="0 0 900 360" width="900pt" xmlns="http://www.w3.org/2000/svg" xmlns:xlink="http://www.w3.org/1999/xlink">
 <defs>
  <style type="text/css">
*{stroke-linecap:butt;stroke-linejoin:round;}
  </style>
 </defs>
 <g id="figure_1">
  <g id="patch_1">
   <path d="M 0 360 
L 900 360 
L 900 0 
L 0 0 
z
" style="fill:#ffffff;"/>
  </g>
  <g id="axes_1">
   <g id="patch_2">
    <path d="M 112.5 324 
L 635.625 324 
L 635.625 36 
L 112.5 36 
z
" style="fill:#ffffff;"/>
   </g>
   <g id="line2d_1">
    <path clip-path="url(#p0209847de0)" d="M 112.86788 131.656334 
L 116.546677 179.077124 
L 120.225475 154.889361 
L 123.904272 155.706764 
L 127.58307 154.141024 
L 131.261867 185.055598 
L 134.940665 152.859488 
L 138.619462 177.961519 
L 142.298259 165.942081 
L 145.977057 204.637028 
L 149.655854 156.40775 
L 153.334652 161.245728 
L 157.013449 152.712842 
L 160.692247 173.463849 
L 164.371044 167.699481 
L 168.049842 177.488653 
L 171.728639 175.220587 
L 175.407437 184.624374 
L 179.086234 172.40685 
L 182.765032 189.811115 
L 186.443829 219.966055 
L 190.122627 192.415087 
L 193.801424 207.415627 
L 197.480222 164.583121 
L 201.159019 184.130195 
L 204.837816 189.977903 
L 208.516614 178.227353 
L 212.195411 180.021794 
L 215.874209 206.651321 
L 219.553006 172.480712 
L 223.231804 205.711877 
L 226.910601 173.817935 
L 230.589399 224.070731 
L 234.268196 212.80272 
L 237.946994 183.113412 
L 241.625791 195.492452 
L 245.304589 204.492856 
L 248.983386 207.858113 
L 252.662184 233.688946 
L 256.340981 205.060306 
L 260.019778 218.833777 
L 263.698576 203.34458 
L 267.377373 155.793423 
L 271.056171 208.384836 
L 274.734968 206.741281 
L 278.413766 239.332278 
L 282.092563 207.759489 
L 285.771361 228.780661 
L 289.450158 226.127046 
L 293.128956 198.389991 
L 296.807753 189.070289 
L 300.486551 226.589423 
L 304.165348 191.144301 
L 307.844146 234.425532 
L 311.522943 232.15298 
L 315.201741 198.48695 
L 318.880538 258.67319 
L 322.559335 209.714524 
L 326.238133 198.112622 
L 329.91693 189.711654 
L 333.595728 201.313875 
L 337.274525 220.835932 
L 340.953323 235.012884 
L 344.63212 149.353772 
L 348.310918 219.67811 
L 351.989715 201.004451 
L 355.668513 210.55659 
L 359.34731 198.490913 
L 363.026108 224.703135 
L 366.704905 188.795517 
L 370.383703 200.810343 
L 374.0625 177.780275 
L 377.741297 212.652878 
L 381.420095 200.03564 
L 385.098892 192.238396 
L 388.77769 224.679977 
L 392.456487 232.200477 
L 396.135285 208.005517 
L 399.814082 220.881793 
L 403.49288 204.000479 
L 407.171677 200.647761 
L 410.850475 230.612211 
L 414.529272 220.495572 
L 418.20807 233.654239 
L 421.886867 222.785581 
L 425.565665 208.624445 
L 429.244462 193.056221 
L 432.923259 234.620323 
L 436.602057 210.985613 
L 440.280854 238.461186 
L 443.959652 211.991178 
L 447.638449 235.280367 
L 451.317247 131.973572 
L 454.996044 229.575462 
L 458.674842 228.917759 
L 462.353639 225.928066 
L 466.032437 211.680484 
L 469.711234 252.965344 
L 473.390032 262.984723 
L 477.068829 233.432736 
L 480.747627 237.050703 
L 484.426424 218.52433 
L 488.105222 259.272033 
L 491.784019 239.203853 
L 495.462816 229.387317 
L 499.141614 234.408093 
L 502.820411 192.783129 
L 510.178006 260.828575 
L 513.856804 199.439519 
L 517.535601 259.274251 
L 521.214399 264.812242 
L 524.893196 205.836912 
L 528.571994 208.092672 
L 532.250791 237.355897 
L 535.929589 238.545779 
L 539.608386 246.833575 
L 543.287184 258.276066 
L 546.965981 232.45851 
L 550.644778 262.074986 
L 554.323576 229.778947 
L 558.002373 224.841221 
L 561.681171 242.534811 
L 565.359968 242.541272 
L 569.038766 240.084965 
L 572.717563 249.326702 
L 576.396361 264.798312 
L 580.075158 267.047204 
L 583.753956 255.354708 
L 587.432753 248.083096 
L 591.111551 255.993695 
L 594.790348 245.470933 
L 598.469146 236.572606 
L 602.147943 230.415136 
L 605.826741 266.750834 
L 609.505538 238.369039 
L 613.184335 259.199914 
L 616.863133 266.959411 
L 620.54193 276.655837 
L 624.220728 250.606259 
L 624.220728 250.606259 
" style="fill:none;stroke:#0000ff;stroke-linecap:square;stroke-width:1.2;"/>
   </g>
   <g id="line2d_2">
    <path clip-path="url(#p0209847de0)" d="M 112.86788 76.009769 
L 116.546677 96.656486 
L 120.225475 113.162456 
L 123.904272 98.642964 
L 127.58307 128.688127 
L 131.261867 168.191356 
L 134.940665 155.00375 
L 138.619462 122.115989 
L 142.298259 122.767845 
L 145.977057 135.293088 
L 149.655854 125.061153 
L 153.334652 123.879342 
L 157.013449 159.004002 
L 160.692247 42.081227 
L 164.371044 106.696535 
L 168.049842 83.007818 
L 171.728639 151.974222 
L 175.407437 157.222833 
L 179.086234 122.109313 
L 182.765032 151.373045 
L 186.443829 132.855065 
L 190.122627 115.742765 
L 193.801424 178.112061 
L 197.480222 170.132597 
L 201.159019 157.228246 
L 204.837816 96.473206 
L 208.516614 141.949015 
L 212.195411 124.207811 
L 215.874209 179.141522 
L 219.553006 141.593849 
L 223.231804 136.54722 
L 226.910601 157.481434 
L 230.589399 213.091926 
L 234.268196 152.89883 
L 237.946994 216.940378 
L 241.625791 173.91978 
L 245.304589 209.910502 
L 248.983386 222.544051 
L 252.662184 110.082322 
L 256.340981 207.510453 
L 260.019778 226.118117 
L 263.698576 224.5462 
L 267.377373 240.526233 
L 271.056171 213.264361 
L 274.734968 236.054183 
L 278.413766 219.105249 
L 282.092563 196.256637 
L 285.771361 216.711084 
L 289.450158 186.579779 
L 293.128956 232.027849 
L 296.807753 233.179561 
L 300.486551 212.209896 
L 304.165348 215.23215 
L 307.844146 238.65967 
L 311.522943 236.866308 
L 315.201741 242.675597 
L 318.880538 205.142645 
L 322.559335 195.984733 
L 326.238133 223.644781 
L 329.91693 225.257982 
L 333.595728 226.434699 
L 337.274525 247.315028 
L 340.953323 232.668678 
L 344.63212 222.058328 
L 348.310918 213.451592 
L 351.989715 230.974805 
L 355.668513 226.141116 
L 359.34731 233.905762 
L 363.026108 204.882509 
L 366.704905 231.485344 
L 370.383703 220.130902 
L 374.0625 229.843382 
L 377.741297 241.121364 
L 381.420095 256.423856 
L 385.098892 242.065308 
L 388.77769 184.452372 
L 392.456487 234.723614 
L 396.135285 223.846394 
L 399.814082 257.287543 
L 403.49288 242.459725 
L 407.171677 247.399547 
L 410.850475 259.313839 
L 414.529272 229.342771 
L 418.20807 278.076799 
L 421.886867 277.352869 
L 425.565665 270.059972 
L 429.244462 261.095017 
L 432.923259 257.624191 
L 436.602057 259.97909 
L 440.280854 274.891689 
L 443.959652 253.370337 
L 447.638449 261.155743 
L 451.317247 282.820126 
L 454.996044 277.190009 
L 458.674842 262.77933 
L 462.353639 224.837277 
L 466.032437 264.258134 
L 469.711234 260.420288 
L 473.390032 269.881 
L 477.068829 225.763521 
L 480.747627 266.922386 
L 484.426424 269.834792 
L 488.105222 280.86748 
L 491.784019 255.037288 
L 495.462816 235.792758 
L 499.141614 262.165032 
L 502.820411 280.629393 
L 506.499209 263.315026 
L 510.178006 263.276194 
L 513.856804 273.50677 
L 517.535601 260.51276 
L 521.214399 248.072008 
L 524.893196 240.746518 
L 528.571994 239.441532 
L 532.250791 201.914162 
L 535.929589 164.240628 
L 539.608386 258.047548 
L 543.287184 250.022487 
L 546.965981 257.30707 
L 550.644778 260.367949 
L 554.323576 201.153421 
L 558.002373 244.20799 
L 561.681171 220.490297 
L 565.359968 244.725771 
L 569.038766 230.561752 
L 572.717563 223.986951 
L 576.396361 153.769285 
" style="fill:none;stroke:#008000;stroke-linecap:square;stroke-width:1.2;"/>
   </g>
   <g id="line2d_3">
    <path clip-path="url(#p0209847de0)" d="M 112.86788 141.531739 
L 116.546677 131.167325 
L 120.225475 168.145557 
L 123.904272 149.727266 
L 127.58307 147.107843 
L 131.261867 163.496376 
L 134.940665 171.40698 
L 138.619462 84.660348 
L 142.298259 140.571082 
L 145.977057 153.837017 
L 149.655854 144.460649 
L 153.334652 124.518783 
L 157.013449 140.157222 
L 160.692247 156.407532 
L 164.371044 195.011113 
L 168.049842 200.442542 
L 171.728639 160.509993 
L 175.407437 117.865748 
L 179.086234 229.138775 
L 182.765032 189.668183 
L 186.443829 221.845085 
L 190.122627 213.743258 
L 193.801424 194.344165 
L 197.480222 184.2325 
L 201.159019 222.377219 
L 204.837816 209.370227 
L 208.516614 206.293072 
L 212.195411 241.968816 
L 215.874209 210.467919 
L 219.553006 239.54866 
L 223.231804 226.663512 
L 226.910601 227.228844 
L 230.589399 179.853827 
L 234.268196 187.148654 
L 237.946994 219.443185 
L 241.625791 247.371756 
L 245.304589 234.700276 
L 248.983386 250.641739 
L 252.662184 244.139561 
L 256.340981 238.491481 
L 260.019778 225.504733 
L 263.698576 247.67293 
L 267.377373 270.798666 
L 271.056171 244.2666 
L 274.734968 252.718237 
L 278.413766 276.601756 
L 282.092563 251.979202 
L 285.771361 262.385616 
L 289.450158 256.643086 
L 293.128956 273.918718 
L 296.807753 265.713309 
L 300.486551 272.424568 
L 304.165348 269.980959 
L 307.844146 288.5899 
L 311.522943 273.23726 
L 315.201741 275.368311 
L 318.880538 262.028578 
L 322.559335 283.501153 
L 326.238133 234.130232 
L 333.595728 289.919605 
L 337.274525 269.64612 
L 340.953323 271.872636 
L 344.63212 261.819645 
L 348.310918 252.705348 
L 351.989715 271.469434 
L 355.668513 269.896458 
L 359.34731 280.385453 
L 363.026108 260.187594 
L 366.704905 263.229012 
L 370.383703 277.816166 
L 374.0625 263.329551 
L 377.741297 197.255794 
L 381.420095 207.496385 
L 385.098892 251.341335 
L 388.77769 240.628628 
L 392.456487 280.849484 
L 396.135285 293.460175 
L 399.814082 275.668691 
L 403.49288 263.908073 
L 407.171677 282.067448 
L 410.850475 274.148189 
L 414.529272 280.25745 
L 418.20807 267.911425 
L 421.886867 281.205963 
L 425.565665 269.448493 
L 429.244462 281.970444 
L 432.923259 281.289002 
L 436.602057 260.853638 
L 440.280854 276.562434 
L 443.959652 270.729207 
L 447.638449 286.975653 
L 451.317247 289.597759 
L 454.996044 283.022315 
L 458.674842 277.462845 
L 462.353639 273.373953 
L 466.032437 280.513333 
L 469.711234 279.800528 
L 473.390032 290.327505 
L 477.068829 263.555646 
L 480.747627 282.655502 
L 484.426424 281.465961 
L 488.105222 281.555633 
L 491.784019 282.757726 
L 495.462816 288.643546 
L 499.141614 289.456789 
L 502.820411 287.285174 
L 506.499209 292.610523 
L 510.178006 283.360781 
L 513.856804 286.139824 
L 517.535601 275.878244 
L 521.214399 266.047217 
L 524.893196 293.417214 
L 528.571994 238.233717 
L 532.250791 287.159057 
L 535.929589 294.862313 
L 539.608386 277.647775 
L 543.287184 296.395505 
L 546.965981 291.177122 
L 550.644778 295.385937 
L 554.323576 284.643844 
L 558.002373 288.561586 
L 561.681171 265.645657 
L 565.359968 282.260281 
L 569.038766 277.20288 
L 572.717563 295.119907 
L 576.396361 301.563033 
L 580.075158 297.303267 
L 583.753956 285.513938 
L 587.432753 275.512679 
L 591.111551 278.086677 
L 594.790348 288.247401 
L 598.469146 286.996969 
L 602.147943 286.856139 
L 605.826741 291.252128 
L 609.505538 296.718915 
L 613.184335 277.231192 
L 616.863133 276.592128 
L 620.54193 264.60725 
L 624.220728 273.587855 
L 627.899525 286.640666 
L 631.578323 293.537432 
L 635.25712 304.152372 
L 635.25712 304.152372 
" style="fill:none;stroke:#ff0000;stroke-linecap:square;stroke-width:1.2;"/>
   </g>
   <g id="line2d_4">
    <path clip-path="url(#p0209847de0)" d="M 112.86788 116.232697 
L 116.546677 144.666469 
L 120.225475 111.893551 
L 123.904272 133.960221 
L 127.58307 195.438689 
L 131.261867 204.175352 
L 134.940665 155.680402 
L 138.619462 141.960744 
L 142.298259 164.729752 
L 145.977057 191.642917 
L 149.655854 144.650612 
L 153.334652 155.314477 
L 157.013449 190.218607 
L 160.692247 173.13826 
L 164.371044 215.873571 
L 168.049842 208.095149 
L 171.728639 231.508175 
L 175.407437 178.372354 
L 179.086234 198.372547 
L 182.765032 184.920212 
L 186.443829 194.411526 
L 190.122627 192.473817 
L 193.801424 177.304212 
L 197.480222 206.332109 
L 201.159019 224.163387 
L 204.837816 238.470506 
L 208.516614 221.530988 
L 212.195411 200.420425 
L 215.874209 191.336473 
L 219.553006 227.078382 
L 223.231804 180.530487 
L 226.910601 234.440578 
L 230.589399 224.174876 
L 234.268196 229.442638 
L 237.946994 233.522004 
L 241.625791 231.971704 
L 245.304589 229.406416 
L 248.983386 249.136379 
L 252.662184 265.482356 
L 256.340981 250.475413 
L 260.019778 267.157205 
L 263.698576 252.262457 
L 267.377373 240.629164 
L 271.056171 265.995387 
L 274.734968 245.498517 
L 278.413766 261.300272 
L 282.092563 247.107093 
L 285.771361 213.510236 
L 289.450158 234.379359 
L 293.128956 244.110756 
L 296.807753 257.250345 
L 300.486551 231.018991 
L 304.165348 242.703233 
L 307.844146 271.8762 
L 311.522943 219.862911 
L 315.201741 234.580566 
L 318.880538 270.16362 
L 322.559335 280.849746 
L 326.238133 281.136447 
L 329.91693 264.458555 
L 333.595728 262.256023 
L 337.274525 245.063484 
L 340.953323 240.383748 
L 344.63212 268.761249 
L 348.310918 272.008447 
L 351.989715 272.885606 
L 355.668513 273.595863 
L 359.34731 251.934409 
L 363.026108 280.7113 
L 366.704905 257.11735 
L 370.383703 265.346968 
L 374.0625 278.493539 
L 377.741297 276.544184 
L 381.420095 278.801086 
L 385.098892 267.148116 
L 388.77769 268.778989 
L 392.456487 270.81563 
L 396.135285 256.565864 
L 399.814082 241.299668 
L 403.49288 286.417659 
L 407.171677 284.812343 
L 410.850475 256.451642 
L 414.529272 283.692113 
L 418.20807 275.507273 
L 421.886867 285.608982 
L 425.565665 272.424871 
L 429.244462 290.381129 
L 432.923259 273.558734 
L 436.602057 292.78578 
L 440.280854 297.403815 
L 443.959652 288.89264 
L 447.638449 275.040396 
L 451.317247 281.111016 
L 454.996044 278.809298 
L 458.674842 279.300826 
L 462.353639 288.928427 
L 466.032437 276.732386 
L 469.711234 285.727481 
L 473.390032 245.748915 
L 477.068829 269.849588 
L 480.747627 272.335271 
L 484.426424 241.441387 
L 488.105222 265.898022 
L 491.784019 276.866945 
L 495.462816 238.771727 
L 499.141614 290.548214 
L 502.820411 290.321404 
L 506.499209 288.48386 
L 510.178006 287.411865 
L 513.856804 279.404031 
L 517.535601 270.175307 
L 521.214399 210.993107 
L 524.893196 184.287362 
L 528.571994 181.582834 
L 532.250791 215.27571 
L 535.929589 171.692688 
L 539.608386 178.707959 
L 543.287184 177.591959 
L 546.965981 277.849614 
L 550.644778 193.785288 
L 554.323576 231.353614 
L 558.002373 154.949442 
L 561.681171 218.391759 
L 565.359968 220.285417 
L 569.038766 260.658307 
L 572.717563 260.291786 
L 576.396361 254.489799 
L 580.075158 213.867651 
L 583.753956 239.894965 
L 587.432753 251.225055 
L 587.432753 251.225055 
" style="fill:none;stroke:#00bfbf;stroke-linecap:square;stroke-width:1.2;"/>
   </g>
   <g id="patch_3">
    <path d="M 112.5 324 
L 112.5 36 
" style="fill:none;stroke:#000000;stroke-linecap:square;stroke-linejoin:miter;"/>
   </g>
   <g id="patch_4">
    <path d="M 635.625 324 
L 635.625 36 
" style="fill:none;stroke:#000000;stroke-linecap:square;stroke-linejoin:miter;"/>
   </g>
   <g id="patch_5">
    <path d="M 112.5 324 
L 635.625 324 
" style="fill:none;stroke:#000000;stroke-linecap:square;stroke-linejoin:miter;"/>
   </g>
   <g id="patch_6">
    <path d="M 112.5 36 
L 635.625 36 
" style="fill:none;stroke:#000000;stroke-linecap:square;stroke-linejoin:miter;"/>
   </g>
   <g id="matplotlib.axis_1">
    <g id="xtick_1">
     <g id="line2d_5">
      <defs>
       <path d="M 0 0 
L 0 -4 
" id="mcd24a77b27" style="stroke:#000000;stroke-width:0.5;"/>
      </defs>
      <g>
       <use style="stroke:#000000;stroke-width:0.5;" x="112.86788" xlink:href="#mcd24a77b27" y="324"/>
      </g>
     </g>
     <g id="line2d_6">
      <defs>
       <path d="M 0 0 
L 0 4 
" id="m99c5266e47" style="stroke:#000000;stroke-width:0.5;"/>
      </defs>
      <g>
       <use style="stroke:#000000;stroke-width:0.5;" x="112.86788" xlink:href="#m99c5266e47" y="36"/>
      </g>
     </g>
     <g id="text_1">
      <!-- 0 -->
      <defs>
       <path d="M 31.78125 66.40625 
Q 24.171875 66.40625 20.328125 58.90625 
Q 16.5 51.421875 16.5 36.375 
Q 16.5 21.390625 20.328125 13.890625 
Q 24.171875 6.390625 31.78125 6.390625 
Q 39.453125 6.390625 43.28125 13.890625 
Q 47.125 21.390625 47.125 36.375 
Q 47.125 51.421875 43.28125 58.90625 
Q 39.453125 66.40625 31.78125 66.40625 
z
M 31.78125 74.21875 
Q 44.046875 74.21875 50.515625 64.515625 
Q 56.984375 54.828125 56.984375 36.375 
Q 56.984375 17.96875 50.515625 8.265625 
Q 44.046875 -1.421875 31.78125 -1.421875 
Q 19.53125 -1.421875 13.0625 8.265625 
Q 6.59375 17.96875 6.59375 36.375 
Q 6.59375 54.828125 13.0625 64.515625 
Q 19.53125 74.21875 31.78125 74.21875 
z
" id="DejaVuSans-48"/>
      </defs>
      <g transform="translate(109.05038 337.118125)scale(0.12 -0.12)">
       <use xlink:href="#DejaVuSans-48"/>
      </g>
     </g>
    </g>
    <g id="xtick_2">
     <g id="line2d_7">
      <g>
       <use style="stroke:#000000;stroke-width:0.5;" x="168.049842" xlink:href="#mcd24a77b27" y="324"/>
      </g>
     </g>
     <g id="line2d_8">
      <g>
       <use style="stroke:#000000;stroke-width:0.5;" x="168.049842" xlink:href="#m99c5266e47" y="36"/>
      </g>
     </g>
     <g id="text_2">
      <!-- 15 -->
      <defs>
       <path d="M 12.40625 8.296875 
L 28.515625 8.296875 
L 28.515625 63.921875 
L 10.984375 60.40625 
L 10.984375 69.390625 
L 28.421875 72.90625 
L 38.28125 72.90625 
L 38.28125 8.296875 
L 54.390625 8.296875 
L 54.390625 0 
L 12.40625 0 
z
" id="DejaVuSans-49"/>
       <path d="M 10.796875 72.90625 
L 49.515625 72.90625 
L 49.515625 64.59375 
L 19.828125 64.59375 
L 19.828125 46.734375 
Q 21.96875 47.46875 24.109375 47.828125 
Q 26.265625 48.1875 28.421875 48.1875 
Q 40.625 48.1875 47.75 41.5 
Q 54.890625 34.8125 54.890625 23.390625 
Q 54.890625 11.625 47.5625 5.09375 
Q 40.234375 -1.421875 26.90625 -1.421875 
Q 22.3125 -1.421875 17.546875 -0.640625 
Q 12.796875 0.140625 7.71875 1.703125 
L 7.71875 11.625 
Q 12.109375 9.234375 16.796875 8.0625 
Q 21.484375 6.890625 26.703125 6.890625 
Q 35.15625 6.890625 40.078125 11.328125 
Q 45.015625 15.765625 45.015625 23.390625 
Q 45.015625 31 40.078125 35.4375 
Q 35.15625 39.890625 26.703125 39.890625 
Q 22.75 39.890625 18.8125 39.015625 
Q 14.890625 38.140625 10.796875 36.28125 
z
" id="DejaVuSans-53"/>
      </defs>
      <g transform="translate(160.414842 337.118125)scale(0.12 -0.12)">
       <use xlink:href="#DejaVuSans-49"/>
       <use x="63.623047" xlink:href="#DejaVuSans-53"/>
      </g>
     </g>
    </g>
    <g id="xtick_3">
     <g id="line2d_9">
      <g>
       <use style="stroke:#000000;stroke-width:0.5;" x="223.231804" xlink:href="#mcd24a77b27" y="324"/>
      </g>
     </g>
     <g id="line2d_10">
      <g>
       <use style="stroke:#000000;stroke-width:0.5;" x="223.231804" xlink:href="#m99c5266e47" y="36"/>
      </g>
     </g>
     <g id="text_3">
      <!-- 30 -->
      <defs>
       <path d="M 40.578125 39.3125 
Q 47.65625 37.796875 51.625 33 
Q 55.609375 28.21875 55.609375 21.1875 
Q 55.609375 10.40625 48.1875 4.484375 
Q 40.765625 -1.421875 27.09375 -1.421875 
Q 22.515625 -1.421875 17.65625 -0.515625 
Q 12.796875 0.390625 7.625 2.203125 
L 7.625 11.71875 
Q 11.71875 9.328125 16.59375 8.109375 
Q 21.484375 6.890625 26.8125 6.890625 
Q 36.078125 6.890625 40.9375 10.546875 
Q 45.796875 14.203125 45.796875 21.1875 
Q 45.796875 27.640625 41.28125 31.265625 
Q 36.765625 34.90625 28.71875 34.90625 
L 20.21875 34.90625 
L 20.21875 43.015625 
L 29.109375 43.015625 
Q 36.375 43.015625 40.234375 45.921875 
Q 44.09375 48.828125 44.09375 54.296875 
Q 44.09375 59.90625 40.109375 62.90625 
Q 36.140625 65.921875 28.71875 65.921875 
Q 24.65625 65.921875 20.015625 65.03125 
Q 15.375 64.15625 9.8125 62.3125 
L 9.8125 71.09375 
Q 15.4375 72.65625 20.34375 73.4375 
Q 25.25 74.21875 29.59375 74.21875 
Q 40.828125 74.21875 47.359375 69.109375 
Q 53.90625 64.015625 53.90625 55.328125 
Q 53.90625 49.265625 50.4375 45.09375 
Q 46.96875 40.921875 40.578125 39.3125 
z
" id="DejaVuSans-51"/>
      </defs>
      <g transform="translate(215.596804 337.118125)scale(0.12 -0.12)">
       <use xlink:href="#DejaVuSans-51"/>
       <use x="63.623047" xlink:href="#DejaVuSans-48"/>
      </g>
     </g>
    </g>
    <g id="xtick_4">
     <g id="line2d_11">
      <g>
       <use style="stroke:#000000;stroke-width:0.5;" x="278.413766" xlink:href="#mcd24a77b27" y="324"/>
      </g>
     </g>
     <g id="line2d_12">
      <g>
       <use style="stroke:#000000;stroke-width:0.5;" x="278.413766" xlink:href="#m99c5266e47" y="36"/>
      </g>
     </g>
     <g id="text_4">
      <!-- 45 -->
      <defs>
       <path d="M 37.796875 64.3125 
L 12.890625 25.390625 
L 37.796875 25.390625 
z
M 35.203125 72.90625 
L 47.609375 72.90625 
L 47.609375 25.390625 
L 58.015625 25.390625 
L 58.015625 17.1875 
L 47.609375 17.1875 
L 47.609375 0 
L 37.796875 0 
L 37.796875 17.1875 
L 4.890625 17.1875 
L 4.890625 26.703125 
z
" id="DejaVuSans-52"/>
      </defs>
      <g transform="translate(270.778766 337.118125)scale(0.12 -0.12)">
       <use xlink:href="#DejaVuSans-52"/>
       <use x="63.623047" xlink:href="#DejaVuSans-53"/>
      </g>
     </g>
    </g>
    <g id="xtick_5">
     <g id="line2d_13">
      <g>
       <use style="stroke:#000000;stroke-width:0.5;" x="333.595728" xlink:href="#mcd24a77b27" y="324"/>
      </g>
     </g>
     <g id="line2d_14">
      <g>
       <use style="stroke:#000000;stroke-width:0.5;" x="333.595728" xlink:href="#m99c5266e47" y="36"/>
      </g>
     </g>
     <g id="text_5">
      <!-- 60 -->
      <defs>
       <path d="M 33.015625 40.375 
Q 26.375 40.375 22.484375 35.828125 
Q 18.609375 31.296875 18.609375 23.390625 
Q 18.609375 15.53125 22.484375 10.953125 
Q 26.375 6.390625 33.015625 6.390625 
Q 39.65625 6.390625 43.53125 10.953125 
Q 47.40625 15.53125 47.40625 23.390625 
Q 47.40625 31.296875 43.53125 35.828125 
Q 39.65625 40.375 33.015625 40.375 
z
M 52.59375 71.296875 
L 52.59375 62.3125 
Q 48.875 64.0625 45.09375 64.984375 
Q 41.3125 65.921875 37.59375 65.921875 
Q 27.828125 65.921875 22.671875 59.328125 
Q 17.53125 52.734375 16.796875 39.40625 
Q 19.671875 43.65625 24.015625 45.921875 
Q 28.375 48.1875 33.59375 48.1875 
Q 44.578125 48.1875 50.953125 41.515625 
Q 57.328125 34.859375 57.328125 23.390625 
Q 57.328125 12.15625 50.6875 5.359375 
Q 44.046875 -1.421875 33.015625 -1.421875 
Q 20.359375 -1.421875 13.671875 8.265625 
Q 6.984375 17.96875 6.984375 36.375 
Q 6.984375 53.65625 15.1875 63.9375 
Q 23.390625 74.21875 37.203125 74.21875 
Q 40.921875 74.21875 44.703125 73.484375 
Q 48.484375 72.75 52.59375 71.296875 
z
" id="DejaVuSans-54"/>
      </defs>
      <g transform="translate(325.960728 337.118125)scale(0.12 -0.12)">
       <use xlink:href="#DejaVuSans-54"/>
       <use x="63.623047" xlink:href="#DejaVuSans-48"/>
      </g>
     </g>
    </g>
    <g id="xtick_6">
     <g id="line2d_15">
      <g>
       <use style="stroke:#000000;stroke-width:0.5;" x="388.77769" xlink:href="#mcd24a77b27" y="324"/>
      </g>
     </g>
     <g id="line2d_16">
      <g>
       <use style="stroke:#000000;stroke-width:0.5;" x="388.77769" xlink:href="#m99c5266e47" y="36"/>
      </g>
     </g>
     <g id="text_6">
      <!-- 75 -->
      <defs>
       <path d="M 8.203125 72.90625 
L 55.078125 72.90625 
L 55.078125 68.703125 
L 28.609375 0 
L 18.3125 0 
L 43.21875 64.59375 
L 8.203125 64.59375 
z
" id="DejaVuSans-55"/>
      </defs>
      <g transform="translate(381.14269 337.118125)scale(0.12 -0.12)">
       <use xlink:href="#DejaVuSans-55"/>
       <use x="63.623047" xlink:href="#DejaVuSans-53"/>
      </g>
     </g>
    </g>
    <g id="xtick_7">
     <g id="line2d_17">
      <g>
       <use style="stroke:#000000;stroke-width:0.5;" x="443.959652" xlink:href="#mcd24a77b27" y="324"/>
      </g>
     </g>
     <g id="line2d_18">
      <g>
       <use style="stroke:#000000;stroke-width:0.5;" x="443.959652" xlink:href="#m99c5266e47" y="36"/>
      </g>
     </g>
     <g id="text_7">
      <!-- 90 -->
      <defs>
       <path d="M 10.984375 1.515625 
L 10.984375 10.5 
Q 14.703125 8.734375 18.5 7.8125 
Q 22.3125 6.890625 25.984375 6.890625 
Q 35.75 6.890625 40.890625 13.453125 
Q 46.046875 20.015625 46.78125 33.40625 
Q 43.953125 29.203125 39.59375 26.953125 
Q 35.25 24.703125 29.984375 24.703125 
Q 19.046875 24.703125 12.671875 31.3125 
Q 6.296875 37.9375 6.296875 49.421875 
Q 6.296875 60.640625 12.9375 67.421875 
Q 19.578125 74.21875 30.609375 74.21875 
Q 43.265625 74.21875 49.921875 64.515625 
Q 56.59375 54.828125 56.59375 36.375 
Q 56.59375 19.140625 48.40625 8.859375 
Q 40.234375 -1.421875 26.421875 -1.421875 
Q 22.703125 -1.421875 18.890625 -0.6875 
Q 15.09375 0.046875 10.984375 1.515625 
z
M 30.609375 32.421875 
Q 37.25 32.421875 41.125 36.953125 
Q 45.015625 41.5 45.015625 49.421875 
Q 45.015625 57.28125 41.125 61.84375 
Q 37.25 66.40625 30.609375 66.40625 
Q 23.96875 66.40625 20.09375 61.84375 
Q 16.21875 57.28125 16.21875 49.421875 
Q 16.21875 41.5 20.09375 36.953125 
Q 23.96875 32.421875 30.609375 32.421875 
z
" id="DejaVuSans-57"/>
      </defs>
      <g transform="translate(436.324652 337.118125)scale(0.12 -0.12)">
       <use xlink:href="#DejaVuSans-57"/>
       <use x="63.623047" xlink:href="#DejaVuSans-48"/>
      </g>
     </g>
    </g>
    <g id="xtick_8">
     <g id="line2d_19">
      <g>
       <use style="stroke:#000000;stroke-width:0.5;" x="499.141614" xlink:href="#mcd24a77b27" y="324"/>
      </g>
     </g>
     <g id="line2d_20">
      <g>
       <use style="stroke:#000000;stroke-width:0.5;" x="499.141614" xlink:href="#m99c5266e47" y="36"/>
      </g>
     </g>
     <g id="text_8">
      <!-- 105 -->
      <g transform="translate(487.689114 337.118125)scale(0.12 -0.12)">
       <use xlink:href="#DejaVuSans-49"/>
       <use x="63.623047" xlink:href="#DejaVuSans-48"/>
       <use x="127.246094" xlink:href="#DejaVuSans-53"/>
      </g>
     </g>
    </g>
    <g id="xtick_9">
     <g id="line2d_21">
      <g>
       <use style="stroke:#000000;stroke-width:0.5;" x="554.323576" xlink:href="#mcd24a77b27" y="324"/>
      </g>
     </g>
     <g id="line2d_22">
      <g>
       <use style="stroke:#000000;stroke-width:0.5;" x="554.323576" xlink:href="#m99c5266e47" y="36"/>
      </g>
     </g>
     <g id="text_9">
      <!-- 120 -->
      <defs>
       <path d="M 19.1875 8.296875 
L 53.609375 8.296875 
L 53.609375 0 
L 7.328125 0 
L 7.328125 8.296875 
Q 12.9375 14.109375 22.625 23.890625 
Q 32.328125 33.6875 34.8125 36.53125 
Q 39.546875 41.84375 41.421875 45.53125 
Q 43.3125 49.21875 43.3125 52.78125 
Q 43.3125 58.59375 39.234375 62.25 
Q 35.15625 65.921875 28.609375 65.921875 
Q 23.96875 65.921875 18.8125 64.3125 
Q 13.671875 62.703125 7.8125 59.421875 
L 7.8125 69.390625 
Q 13.765625 71.78125 18.9375 73 
Q 24.125 74.21875 28.421875 74.21875 
Q 39.75 74.21875 46.484375 68.546875 
Q 53.21875 62.890625 53.21875 53.421875 
Q 53.21875 48.921875 51.53125 44.890625 
Q 49.859375 40.875 45.40625 35.40625 
Q 44.1875 33.984375 37.640625 27.21875 
Q 31.109375 20.453125 19.1875 8.296875 
z
" id="DejaVuSans-50"/>
      </defs>
      <g transform="translate(542.871076 337.118125)scale(0.12 -0.12)">
       <use xlink:href="#DejaVuSans-49"/>
       <use x="63.623047" xlink:href="#DejaVuSans-50"/>
       <use x="127.246094" xlink:href="#DejaVuSans-48"/>
      </g>
     </g>
    </g>
    <g id="xtick_10">
     <g id="line2d_23">
      <g>
       <use style="stroke:#000000;stroke-width:0.5;" x="609.505538" xlink:href="#mcd24a77b27" y="324"/>
      </g>
     </g>
     <g id="line2d_24">
      <g>
       <use style="stroke:#000000;stroke-width:0.5;" x="609.505538" xlink:href="#m99c5266e47" y="36"/>
      </g>
     </g>
     <g id="text_10">
      <!-- 135 -->
      <g transform="translate(598.053038 337.118125)scale(0.12 -0.12)">
       <use xlink:href="#DejaVuSans-49"/>
       <use x="63.623047" xlink:href="#DejaVuSans-51"/>
       <use x="127.246094" xlink:href="#DejaVuSans-53"/>
      </g>
     </g>
    </g>
    <g id="text_11">
     <!-- generation -->
     <defs>
      <path d="M 45.40625 27.984375 
Q 45.40625 37.75 41.375 43.109375 
Q 37.359375 48.484375 30.078125 48.484375 
Q 22.859375 48.484375 18.828125 43.109375 
Q 14.796875 37.75 14.796875 27.984375 
Q 14.796875 18.265625 18.828125 12.890625 
Q 22.859375 7.515625 30.078125 7.515625 
Q 37.359375 7.515625 41.375 12.890625 
Q 45.40625 18.265625 45.40625 27.984375 
z
M 54.390625 6.78125 
Q 54.390625 -7.171875 48.1875 -13.984375 
Q 42 -20.796875 29.203125 -20.796875 
Q 24.46875 -20.796875 20.265625 -20.09375 
Q 16.0625 -19.390625 12.109375 -17.921875 
L 12.109375 -9.1875 
Q 16.0625 -11.328125 19.921875 -12.34375 
Q 23.78125 -13.375 27.78125 -13.375 
Q 36.625 -13.375 41.015625 -8.765625 
Q 45.40625 -4.15625 45.40625 5.171875 
L 45.40625 9.625 
Q 42.625 4.78125 38.28125 2.390625 
Q 33.9375 0 27.875 0 
Q 17.828125 0 11.671875 7.65625 
Q 5.515625 15.328125 5.515625 27.984375 
Q 5.515625 40.671875 11.671875 48.328125 
Q 17.828125 56 27.875 56 
Q 33.9375 56 38.28125 53.609375 
Q 42.625 51.21875 45.40625 46.390625 
L 45.40625 54.6875 
L 54.390625 54.6875 
z
" id="DejaVuSans-103"/>
      <path d="M 56.203125 29.59375 
L 56.203125 25.203125 
L 14.890625 25.203125 
Q 15.484375 15.921875 20.484375 11.0625 
Q 25.484375 6.203125 34.421875 6.203125 
Q 39.59375 6.203125 44.453125 7.46875 
Q 49.3125 8.734375 54.109375 11.28125 
L 54.109375 2.78125 
Q 49.265625 0.734375 44.1875 -0.34375 
Q 39.109375 -1.421875 33.890625 -1.421875 
Q 20.796875 -1.421875 13.15625 6.1875 
Q 5.515625 13.8125 5.515625 26.8125 
Q 5.515625 40.234375 12.765625 48.109375 
Q 20.015625 56 32.328125 56 
Q 43.359375 56 49.78125 48.890625 
Q 56.203125 41.796875 56.203125 29.59375 
z
M 47.21875 32.234375 
Q 47.125 39.59375 43.09375 43.984375 
Q 39.0625 48.390625 32.421875 48.390625 
Q 24.90625 48.390625 20.390625 44.140625 
Q 15.875 39.890625 15.1875 32.171875 
z
" id="DejaVuSans-101"/>
      <path d="M 54.890625 33.015625 
L 54.890625 0 
L 45.90625 0 
L 45.90625 32.71875 
Q 45.90625 40.484375 42.875 44.328125 
Q 39.84375 48.1875 33.796875 48.1875 
Q 26.515625 48.1875 22.3125 43.546875 
Q 18.109375 38.921875 18.109375 30.90625 
L 18.109375 0 
L 9.078125 0 
L 9.078125 54.6875 
L 18.109375 54.6875 
L 18.109375 46.1875 
Q 21.34375 51.125 25.703125 53.5625 
Q 30.078125 56 35.796875 56 
Q 45.21875 56 50.046875 50.171875 
Q 54.890625 44.34375 54.890625 33.015625 
z
" id="DejaVuSans-110"/>
      <path d="M 41.109375 46.296875 
Q 39.59375 47.171875 37.8125 47.578125 
Q 36.03125 48 33.890625 48 
Q 26.265625 48 22.1875 43.046875 
Q 18.109375 38.09375 18.109375 28.8125 
L 18.109375 0 
L 9.078125 0 
L 9.078125 54.6875 
L 18.109375 54.6875 
L 18.109375 46.1875 
Q 20.953125 51.171875 25.484375 53.578125 
Q 30.03125 56 36.53125 56 
Q 37.453125 56 38.578125 55.875 
Q 39.703125 55.765625 41.0625 55.515625 
z
" id="DejaVuSans-114"/>
      <path d="M 34.28125 27.484375 
Q 23.390625 27.484375 19.1875 25 
Q 14.984375 22.515625 14.984375 16.5 
Q 14.984375 11.71875 18.140625 8.90625 
Q 21.296875 6.109375 26.703125 6.109375 
Q 34.1875 6.109375 38.703125 11.40625 
Q 43.21875 16.703125 43.21875 25.484375 
L 43.21875 27.484375 
z
M 52.203125 31.203125 
L 52.203125 0 
L 43.21875 0 
L 43.21875 8.296875 
Q 40.140625 3.328125 35.546875 0.953125 
Q 30.953125 -1.421875 24.3125 -1.421875 
Q 15.921875 -1.421875 10.953125 3.296875 
Q 6 8.015625 6 15.921875 
Q 6 25.140625 12.171875 29.828125 
Q 18.359375 34.515625 30.609375 34.515625 
L 43.21875 34.515625 
L 43.21875 35.40625 
Q 43.21875 41.609375 39.140625 45 
Q 35.0625 48.390625 27.6875 48.390625 
Q 23 48.390625 18.546875 47.265625 
Q 14.109375 46.140625 10.015625 43.890625 
L 10.015625 52.203125 
Q 14.9375 54.109375 19.578125 55.046875 
Q 24.21875 56 28.609375 56 
Q 40.484375 56 46.34375 49.84375 
Q 52.203125 43.703125 52.203125 31.203125 
z
" id="DejaVuSans-97"/>
      <path d="M 18.3125 70.21875 
L 18.3125 54.6875 
L 36.8125 54.6875 
L 36.8125 47.703125 
L 18.3125 47.703125 
L 18.3125 18.015625 
Q 18.3125 11.328125 20.140625 9.421875 
Q 21.96875 7.515625 27.59375 7.515625 
L 36.8125 7.515625 
L 36.8125 0 
L 27.59375 0 
Q 17.1875 0 13.234375 3.875 
Q 9.28125 7.765625 9.28125 18.015625 
L 9.28125 47.703125 
L 2.6875 47.703125 
L 2.6875 54.6875 
L 9.28125 54.6875 
L 9.28125 70.21875 
z
" id="DejaVuSans-116"/>
      <path d="M 9.421875 54.6875 
L 18.40625 54.6875 
L 18.40625 0 
L 9.421875 0 
z
M 9.421875 75.984375 
L 18.40625 75.984375 
L 18.40625 64.59375 
L 9.421875 64.59375 
z
" id="DejaVuSans-105"/>
      <path d="M 30.609375 48.390625 
Q 23.390625 48.390625 19.1875 42.75 
Q 14.984375 37.109375 14.984375 27.296875 
Q 14.984375 17.484375 19.15625 11.84375 
Q 23.34375 6.203125 30.609375 6.203125 
Q 37.796875 6.203125 41.984375 11.859375 
Q 46.1875 17.53125 46.1875 27.296875 
Q 46.1875 37.015625 41.984375 42.703125 
Q 37.796875 48.390625 30.609375 48.390625 
z
M 30.609375 56 
Q 42.328125 56 49.015625 48.375 
Q 55.71875 40.765625 55.71875 27.296875 
Q 55.71875 13.875 49.015625 6.21875 
Q 42.328125 -1.421875 30.609375 -1.421875 
Q 18.84375 -1.421875 12.171875 6.21875 
Q 5.515625 13.875 5.515625 27.296875 
Q 5.515625 40.765625 12.171875 48.375 
Q 18.84375 56 30.609375 56 
z
" id="DejaVuSans-111"/>
     </defs>
     <g transform="translate(341.430938 353.731875)scale(0.12 -0.12)">
      <use xlink:href="#DejaVuSans-103"/>
      <use x="63.476562" xlink:href="#DejaVuSans-101"/>
      <use x="125" xlink:href="#DejaVuSans-110"/>
      <use x="188.378906" xlink:href="#DejaVuSans-101"/>
      <use x="249.902344" xlink:href="#DejaVuSans-114"/>
      <use x="291.015625" xlink:href="#DejaVuSans-97"/>
      <use x="352.294922" xlink:href="#DejaVuSans-116"/>
      <use x="391.503906" xlink:href="#DejaVuSans-105"/>
      <use x="419.287109" xlink:href="#DejaVuSans-111"/>
      <use x="480.46875" xlink:href="#DejaVuSans-110"/>
     </g>
    </g>
   </g>
   <g id="matplotlib.axis_2">
    <g id="ytick_1">
     <g id="line2d_25">
      <defs>
       <path d="M 0 0 
L 4 0 
" id="m0567437118" style="stroke:#000000;stroke-width:0.5;"/>
      </defs>
      <g>
       <use style="stroke:#000000;stroke-width:0.5;" x="112.5" xlink:href="#m0567437118" y="324"/>
      </g>
     </g>
     <g id="line2d_26">
      <defs>
       <path d="M 0 0 
L -4 0 
" id="m98effd220a" style="stroke:#000000;stroke-width:0.5;"/>
      </defs>
      <g>
       <use style="stroke:#000000;stroke-width:0.5;" x="635.625" xlink:href="#m98effd220a" y="324"/>
      </g>
     </g>
     <g id="text_12">
      <!-- 0.15 -->
      <defs>
       <path d="M 10.6875 12.40625 
L 21 12.40625 
L 21 0 
L 10.6875 0 
z
" id="DejaVuSans-46"/>
      </defs>
      <g transform="translate(81.78125 327.31125)scale(0.12 -0.12)">
       <use xlink:href="#DejaVuSans-48"/>
       <use x="63.623047" xlink:href="#DejaVuSans-46"/>
       <use x="95.410156" xlink:href="#DejaVuSans-49"/>
       <use x="159.033203" xlink:href="#DejaVuSans-53"/>
      </g>
     </g>
    </g>
    <g id="ytick_2">
     <g id="line2d_27">
      <g>
       <use style="stroke:#000000;stroke-width:0.5;" x="112.5" xlink:href="#m0567437118" y="252"/>
      </g>
     </g>
     <g id="line2d_28">
      <g>
       <use style="stroke:#000000;stroke-width:0.5;" x="635.625" xlink:href="#m98effd220a" y="252"/>
      </g>
     </g>
     <g id="text_13">
      <!-- 0.20 -->
      <g transform="translate(81.78125 255.31125)scale(0.12 -0.12)">
       <use xlink:href="#DejaVuSans-48"/>
       <use x="63.623047" xlink:href="#DejaVuSans-46"/>
       <use x="95.410156" xlink:href="#DejaVuSans-50"/>
       <use x="159.033203" xlink:href="#DejaVuSans-48"/>
      </g>
     </g>
    </g>
    <g id="ytick_3">
     <g id="line2d_29">
      <g>
       <use style="stroke:#000000;stroke-width:0.5;" x="112.5" xlink:href="#m0567437118" y="180"/>
      </g>
     </g>
     <g id="line2d_30">
      <g>
       <use style="stroke:#000000;stroke-width:0.5;" x="635.625" xlink:href="#m98effd220a" y="180"/>
      </g>
     </g>
     <g id="text_14">
      <!-- 0.25 -->
      <g transform="translate(81.78125 183.31125)scale(0.12 -0.12)">
       <use xlink:href="#DejaVuSans-48"/>
       <use x="63.623047" xlink:href="#DejaVuSans-46"/>
       <use x="95.410156" xlink:href="#DejaVuSans-50"/>
       <use x="159.033203" xlink:href="#DejaVuSans-53"/>
      </g>
     </g>
    </g>
    <g id="ytick_4">
     <g id="line2d_31">
      <g>
       <use style="stroke:#000000;stroke-width:0.5;" x="112.5" xlink:href="#m0567437118" y="108"/>
      </g>
     </g>
     <g id="line2d_32">
      <g>
       <use style="stroke:#000000;stroke-width:0.5;" x="635.625" xlink:href="#m98effd220a" y="108"/>
      </g>
     </g>
     <g id="text_15">
      <!-- 0.30 -->
      <g transform="translate(81.78125 111.31125)scale(0.12 -0.12)">
       <use xlink:href="#DejaVuSans-48"/>
       <use x="63.623047" xlink:href="#DejaVuSans-46"/>
       <use x="95.410156" xlink:href="#DejaVuSans-51"/>
       <use x="159.033203" xlink:href="#DejaVuSans-48"/>
      </g>
     </g>
    </g>
    <g id="ytick_5">
     <g id="line2d_33">
      <g>
       <use style="stroke:#000000;stroke-width:0.5;" x="112.5" xlink:href="#m0567437118" y="36"/>
      </g>
     </g>
     <g id="line2d_34">
      <g>
       <use style="stroke:#000000;stroke-width:0.5;" x="635.625" xlink:href="#m98effd220a" y="36"/>
      </g>
     </g>
     <g id="text_16">
      <!-- 0.35 -->
      <g transform="translate(81.78125 39.31125)scale(0.12 -0.12)">
       <use xlink:href="#DejaVuSans-48"/>
       <use x="63.623047" xlink:href="#DejaVuSans-46"/>
       <use x="95.410156" xlink:href="#DejaVuSans-51"/>
       <use x="159.033203" xlink:href="#DejaVuSans-53"/>
      </g>
     </g>
    </g>
    <g id="text_17">
     <!-- los -->
     <defs>
      <path d="M 9.421875 75.984375 
L 18.40625 75.984375 
L 18.40625 0 
L 9.421875 0 
z
" id="DejaVuSans-108"/>
      <path d="M 44.28125 53.078125 
L 44.28125 44.578125 
Q 40.484375 46.53125 36.375 47.5 
Q 32.28125 48.484375 27.875 48.484375 
Q 21.1875 48.484375 17.84375 46.4375 
Q 14.5 44.390625 14.5 40.28125 
Q 14.5 37.15625 16.890625 35.375 
Q 19.28125 33.59375 26.515625 31.984375 
L 29.59375 31.296875 
Q 39.15625 29.25 43.1875 25.515625 
Q 47.21875 21.78125 47.21875 15.09375 
Q 47.21875 7.46875 41.1875 3.015625 
Q 35.15625 -1.421875 24.609375 -1.421875 
Q 20.21875 -1.421875 15.453125 -0.5625 
Q 10.6875 0.296875 5.421875 2 
L 5.421875 11.28125 
Q 10.40625 8.6875 15.234375 7.390625 
Q 20.0625 6.109375 24.8125 6.109375 
Q 31.15625 6.109375 34.5625 8.28125 
Q 37.984375 10.453125 37.984375 14.40625 
Q 37.984375 18.0625 35.515625 20.015625 
Q 33.0625 21.96875 24.703125 23.78125 
L 21.578125 24.515625 
Q 13.234375 26.265625 9.515625 29.90625 
Q 5.8125 33.546875 5.8125 39.890625 
Q 5.8125 47.609375 11.28125 51.796875 
Q 16.75 56 26.8125 56 
Q 31.78125 56 36.171875 55.265625 
Q 40.578125 54.546875 44.28125 53.078125 
z
" id="DejaVuSans-115"/>
     </defs>
     <g transform="translate(74.285625 188.46375)rotate(-90)scale(0.12 -0.12)">
      <use xlink:href="#DejaVuSans-108"/>
      <use x="27.783203" xlink:href="#DejaVuSans-111"/>
      <use x="88.964844" xlink:href="#DejaVuSans-115"/>
     </g>
    </g>
   </g>
   <g id="legend_1">
    <g id="patch_7">
     <path d="M 640.623 211.399935 
L 741.654446 211.399935 
L 741.654446 148.600065 
L 640.623 148.600065 
z
" style="fill:#ffffff;stroke:#000000;stroke-linejoin:miter;"/>
    </g>
    <g id="line2d_35">
     <path d="M 647.6202 156.695263 
L 661.6146 156.695263 
" style="fill:none;stroke:#0000ff;stroke-linecap:square;stroke-width:1.2;"/>
    </g>
    <g id="line2d_36"/>
    <g id="text_18">
     <!-- Mutation_0.2 -->
     <defs>
      <path d="M 9.8125 72.90625 
L 24.515625 72.90625 
L 43.109375 23.296875 
L 61.8125 72.90625 
L 76.515625 72.90625 
L 76.515625 0 
L 66.890625 0 
L 66.890625 64.015625 
L 48.09375 14.015625 
L 38.1875 14.015625 
L 19.390625 64.015625 
L 19.390625 0 
L 9.8125 0 
z
" id="DejaVuSans-77"/>
      <path d="M 8.5 21.578125 
L 8.5 54.6875 
L 17.484375 54.6875 
L 17.484375 21.921875 
Q 17.484375 14.15625 20.5 10.265625 
Q 23.53125 6.390625 29.59375 6.390625 
Q 36.859375 6.390625 41.078125 11.03125 
Q 45.3125 15.671875 45.3125 23.6875 
L 45.3125 54.6875 
L 54.296875 54.6875 
L 54.296875 0 
L 45.3125 0 
L 45.3125 8.40625 
Q 42.046875 3.421875 37.71875 1 
Q 33.40625 -1.421875 27.6875 -1.421875 
Q 18.265625 -1.421875 13.375 4.4375 
Q 8.5 10.296875 8.5 21.578125 
z
M 31.109375 56 
z
" id="DejaVuSans-117"/>
      <path d="M 50.984375 -16.609375 
L 50.984375 -23.578125 
L -0.984375 -23.578125 
L -0.984375 -16.609375 
z
" id="DejaVuSans-95"/>
     </defs>
     <g transform="translate(672.6102 160.193863)scale(0.09996 -0.09996)">
      <use xlink:href="#DejaVuSans-77"/>
      <use x="86.279297" xlink:href="#DejaVuSans-117"/>
      <use x="149.658203" xlink:href="#DejaVuSans-116"/>
      <use x="188.867188" xlink:href="#DejaVuSans-97"/>
      <use x="250.146484" xlink:href="#DejaVuSans-116"/>
      <use x="289.355469" xlink:href="#DejaVuSans-105"/>
      <use x="317.138672" xlink:href="#DejaVuSans-111"/>
      <use x="378.320312" xlink:href="#DejaVuSans-110"/>
      <use x="441.699219" xlink:href="#DejaVuSans-95"/>
      <use x="491.699219" xlink:href="#DejaVuSans-48"/>
      <use x="555.322266" xlink:href="#DejaVuSans-46"/>
      <use x="587.109375" xlink:href="#DejaVuSans-50"/>
     </g>
    </g>
    <g id="line2d_37">
     <path d="M 647.6202 171.645531 
L 661.6146 171.645531 
" style="fill:none;stroke:#008000;stroke-linecap:square;stroke-width:1.2;"/>
    </g>
    <g id="line2d_38"/>
    <g id="text_19">
     <!-- Mutation_0.4 -->
     <g transform="translate(672.6102 175.144131)scale(0.09996 -0.09996)">
      <use xlink:href="#DejaVuSans-77"/>
      <use x="86.279297" xlink:href="#DejaVuSans-117"/>
      <use x="149.658203" xlink:href="#DejaVuSans-116"/>
      <use x="188.867188" xlink:href="#DejaVuSans-97"/>
      <use x="250.146484" xlink:href="#DejaVuSans-116"/>
      <use x="289.355469" xlink:href="#DejaVuSans-105"/>
      <use x="317.138672" xlink:href="#DejaVuSans-111"/>
      <use x="378.320312" xlink:href="#DejaVuSans-110"/>
      <use x="441.699219" xlink:href="#DejaVuSans-95"/>
      <use x="491.699219" xlink:href="#DejaVuSans-48"/>
      <use x="555.322266" xlink:href="#DejaVuSans-46"/>
      <use x="587.109375" xlink:href="#DejaVuSans-52"/>
     </g>
    </g>
    <g id="line2d_39">
     <path d="M 647.6202 186.595798 
L 661.6146 186.595798 
" style="fill:none;stroke:#ff0000;stroke-linecap:square;stroke-width:1.2;"/>
    </g>
    <g id="line2d_40"/>
    <g id="text_20">
     <!-- Mutation_0.6 -->
     <g transform="translate(672.6102 190.094398)scale(0.09996 -0.09996)">
      <use xlink:href="#DejaVuSans-77"/>
      <use x="86.279297" xlink:href="#DejaVuSans-117"/>
      <use x="149.658203" xlink:href="#DejaVuSans-116"/>
      <use x="188.867188" xlink:href="#DejaVuSans-97"/>
      <use x="250.146484" xlink:href="#DejaVuSans-116"/>
      <use x="289.355469" xlink:href="#DejaVuSans-105"/>
      <use x="317.138672" xlink:href="#DejaVuSans-111"/>
      <use x="378.320312" xlink:href="#DejaVuSans-110"/>
      <use x="441.699219" xlink:href="#DejaVuSans-95"/>
      <use x="491.699219" xlink:href="#DejaVuSans-48"/>
      <use x="555.322266" xlink:href="#DejaVuSans-46"/>
      <use x="587.109375" xlink:href="#DejaVuSans-54"/>
     </g>
    </g>
    <g id="line2d_41">
     <path d="M 647.6202 201.546066 
L 661.6146 201.546066 
" style="fill:none;stroke:#00bfbf;stroke-linecap:square;stroke-width:1.2;"/>
    </g>
    <g id="line2d_42"/>
    <g id="text_21">
     <!-- Mutation_0.8 -->
     <defs>
      <path d="M 31.78125 34.625 
Q 24.75 34.625 20.71875 30.859375 
Q 16.703125 27.09375 16.703125 20.515625 
Q 16.703125 13.921875 20.71875 10.15625 
Q 24.75 6.390625 31.78125 6.390625 
Q 38.8125 6.390625 42.859375 10.171875 
Q 46.921875 13.96875 46.921875 20.515625 
Q 46.921875 27.09375 42.890625 30.859375 
Q 38.875 34.625 31.78125 34.625 
z
M 21.921875 38.8125 
Q 15.578125 40.375 12.03125 44.71875 
Q 8.5 49.078125 8.5 55.328125 
Q 8.5 64.0625 14.71875 69.140625 
Q 20.953125 74.21875 31.78125 74.21875 
Q 42.671875 74.21875 48.875 69.140625 
Q 55.078125 64.0625 55.078125 55.328125 
Q 55.078125 49.078125 51.53125 44.71875 
Q 48 40.375 41.703125 38.8125 
Q 48.828125 37.15625 52.796875 32.3125 
Q 56.78125 27.484375 56.78125 20.515625 
Q 56.78125 9.90625 50.3125 4.234375 
Q 43.84375 -1.421875 31.78125 -1.421875 
Q 19.734375 -1.421875 13.25 4.234375 
Q 6.78125 9.90625 6.78125 20.515625 
Q 6.78125 27.484375 10.78125 32.3125 
Q 14.796875 37.15625 21.921875 38.8125 
z
M 18.3125 54.390625 
Q 18.3125 48.734375 21.84375 45.5625 
Q 25.390625 42.390625 31.78125 42.390625 
Q 38.140625 42.390625 41.71875 45.5625 
Q 45.3125 48.734375 45.3125 54.390625 
Q 45.3125 60.0625 41.71875 63.234375 
Q 38.140625 66.40625 31.78125 66.40625 
Q 25.390625 66.40625 21.84375 63.234375 
Q 18.3125 60.0625 18.3125 54.390625 
z
" id="DejaVuSans-56"/>
     </defs>
     <g transform="translate(672.6102 205.044666)scale(0.09996 -0.09996)">
      <use xlink:href="#DejaVuSans-77"/>
      <use x="86.279297" xlink:href="#DejaVuSans-117"/>
      <use x="149.658203" xlink:href="#DejaVuSans-116"/>
      <use x="188.867188" xlink:href="#DejaVuSans-97"/>
      <use x="250.146484" xlink:href="#DejaVuSans-116"/>
      <use x="289.355469" xlink:href="#DejaVuSans-105"/>
      <use x="317.138672" xlink:href="#DejaVuSans-111"/>
      <use x="378.320312" xlink:href="#DejaVuSans-110"/>
      <use x="441.699219" xlink:href="#DejaVuSans-95"/>
      <use x="491.699219" xlink:href="#DejaVuSans-48"/>
      <use x="555.322266" xlink:href="#DejaVuSans-46"/>
      <use x="587.109375" xlink:href="#DejaVuSans-56"/>
     </g>
    </g>
   </g>
  </g>
  <g id="text_22">
   <!-- Average Loss -->
   <defs>
    <path d="M 34.1875 63.1875 
L 20.796875 26.90625 
L 47.609375 26.90625 
z
M 28.609375 72.90625 
L 39.796875 72.90625 
L 67.578125 0 
L 57.328125 0 
L 50.6875 18.703125 
L 17.828125 18.703125 
L 11.1875 0 
L 0.78125 0 
z
" id="DejaVuSans-65"/>
    <path d="M 2.984375 54.6875 
L 12.5 54.6875 
L 29.59375 8.796875 
L 46.6875 54.6875 
L 56.203125 54.6875 
L 35.6875 0 
L 23.484375 0 
z
" id="DejaVuSans-118"/>
    <path id="DejaVuSans-32"/>
    <path d="M 9.8125 72.90625 
L 19.671875 72.90625 
L 19.671875 8.296875 
L 55.171875 8.296875 
L 55.171875 0 
L 9.8125 0 
z
" id="DejaVuSans-76"/>
   </defs>
   <g transform="translate(410.293125 16.318125)scale(0.12 -0.12)">
    <use xlink:href="#DejaVuSans-65"/>
    <use x="62.533203" xlink:href="#DejaVuSans-118"/>
    <use x="121.712891" xlink:href="#DejaVuSans-101"/>
    <use x="183.236328" xlink:href="#DejaVuSans-114"/>
    <use x="224.349609" xlink:href="#DejaVuSans-97"/>
    <use x="285.628906" xlink:href="#DejaVuSans-103"/>
    <use x="349.105469" xlink:href="#DejaVuSans-101"/>
    <use x="410.628906" xlink:href="#DejaVuSans-32"/>
    <use x="442.416016" xlink:href="#DejaVuSans-76"/>
    <use x="496.378906" xlink:href="#DejaVuSans-111"/>
    <use x="557.560547" xlink:href="#DejaVuSans-115"/>
    <use x="609.660156" xlink:href="#DejaVuSans-115"/>
   </g>
  </g>
 </g>
 <defs>
  <clipPath id="p0209847de0">
   <rect height="288" width="523.125" x="112.5" y="36"/>
  </clipPath>
 </defs>
</svg>
