<?xml version="1.0" encoding="utf-8" standalone="no"?>
<!DOCTYPE svg PUBLIC "-//W3C//DTD SVG 1.1//EN"
  "http://www.w3.org/Graphics/SVG/1.1/DTD/svg11.dtd">
<!-- Created with matplotlib (https://matplotlib.org/) -->
<svg height="360pt" version="1.1" viewBox="0 0 900 360" width="900pt" xmlns="http://www.w3.org/2000/svg" xmlns:xlink="http://www.w3.org/1999/xlink">
 <defs>
  <style type="text/css">
*{stroke-linecap:butt;stroke-linejoin:round;}
  </style>
 </defs>
 <g id="figure_1">
  <g id="patch_1">
   <path d="M 0 360 
L 900 360 
L 900 0 
L 0 0 
z
" style="fill:#ffffff;"/>
  </g>
  <g id="axes_1">
   <g id="patch_2">
    <path d="M 112.5 324 
L 635.625 324 
L 635.625 36 
L 112.5 36 
z
" style="fill:#ffffff;"/>
   </g>
   <g id="line2d_1">
    <path clip-path="url(#p382d4c9034)" d="M 112.860279 98.449024 
L 116.463068 109.025994 
L 120.065857 115.444491 
L 123.668647 120.542442 
L 130.874225 132.655517 
L 134.477014 135.506712 
L 138.079804 141.712934 
L 141.682593 144.835303 
L 145.285382 150.830241 
L 148.888171 154.285094 
L 152.490961 158.113477 
L 156.09375 157.825388 
L 159.696539 165.442705 
L 163.299329 170.896975 
L 166.902118 174.026696 
L 170.504907 176.011935 
L 174.107696 179.339195 
L 177.710486 176.118445 
L 181.313275 180.624894 
L 184.916064 179.538431 
L 188.518853 180.855979 
L 192.121643 180.839526 
L 195.724432 181.021197 
L 199.327221 184.135932 
L 202.93001 192.473863 
L 206.5328 196.766194 
L 210.135589 192.762333 
L 213.738378 193.251563 
L 217.341167 197.838377 
L 220.943957 200.946669 
L 224.546746 202.931072 
L 228.149535 204.509465 
L 231.752324 205.358913 
L 235.355114 214.516761 
L 238.957903 220.040963 
L 242.560692 222.756448 
L 246.163481 222.949391 
L 249.766271 224.518294 
L 253.36906 229.114568 
L 256.971849 230.291093 
L 260.574638 234.599686 
L 264.177428 233.150326 
L 267.780217 233.805858 
L 271.383006 237.403165 
L 274.985795 238.263128 
L 278.588585 238.212508 
L 282.191374 240.79682 
L 285.794163 236.029421 
L 289.396952 235.226629 
L 292.999742 236.239495 
L 296.602531 238.701358 
L 300.20532 235.437772 
L 303.80811 233.343307 
L 307.410899 233.517747 
L 311.013688 238.873082 
L 314.616477 239.358082 
L 318.219267 241.156685 
L 321.822056 239.932968 
L 325.424845 244.551463 
L 329.027634 242.556564 
L 336.233213 238.126737 
L 339.836002 242.197144 
L 343.438791 240.977446 
L 347.041581 242.81262 
L 350.64437 244.210886 
L 354.247159 247.159631 
L 357.849948 251.761742 
L 361.452738 255.011275 
L 365.055527 256.12648 
L 368.658316 258.942197 
L 372.261105 257.434765 
L 375.863895 257.577347 
L 379.466684 261.127853 
L 383.069473 258.732935 
L 386.672262 258.540644 
L 390.275052 256.934601 
L 393.877841 255.458263 
L 397.48063 257.874293 
L 401.083419 255.888323 
L 404.686209 255.902369 
L 408.288998 256.717495 
L 411.891787 256.341608 
L 415.494576 254.851142 
L 419.097366 252.618803 
L 422.700155 253.194389 
L 426.302944 251.430069 
L 429.905733 250.453753 
L 433.508523 250.996258 
L 437.111312 249.794467 
L 440.714101 253.981263 
L 444.31689 260.505122 
L 447.91968 256.094157 
L 451.522469 260.463787 
L 455.125258 262.937541 
L 458.728048 263.224912 
L 462.330837 265.371742 
L 465.933626 263.289632 
L 469.536415 260.374938 
L 473.139205 265.490163 
L 476.741994 263.971763 
L 480.344783 260.635587 
L 483.947572 259.719328 
L 487.550362 259.019999 
L 491.153151 261.019395 
L 494.75594 257.310543 
L 498.358729 255.073955 
L 501.961519 255.625052 
L 505.564308 260.250166 
L 509.167097 263.706582 
L 512.769886 263.222802 
L 516.372676 264.729159 
L 519.975465 267.317395 
L 523.578254 269.507522 
L 527.181043 269.78666 
L 530.783833 267.581266 
L 534.386622 265.573857 
L 537.989411 266.570232 
L 541.5922 265.705245 
L 545.19499 267.161453 
L 552.400568 264.779696 
L 556.003357 264.300742 
L 559.606147 264.33844 
L 563.208936 263.945881 
L 566.811725 264.043996 
L 570.414514 262.667003 
L 574.017304 264.489883 
L 577.620093 265.872406 
L 581.222882 267.410338 
L 584.825671 269.707269 
L 588.428461 269.989341 
L 592.03125 270.142793 
L 595.634039 270.582288 
L 599.236829 268.75987 
L 602.839618 266.736488 
L 606.442407 267.063397 
L 610.045196 266.59848 
L 613.647986 267.190378 
L 617.250775 265.920002 
L 620.853564 267.084387 
L 624.456353 267.316349 
L 628.059143 271.093013 
L 631.661932 269.920497 
L 635.264721 268.107214 
L 635.264721 268.107214 
" style="fill:none;stroke:#0000ff;stroke-linecap:square;stroke-width:1.2;"/>
   </g>
   <g id="line2d_2">
    <path clip-path="url(#p382d4c9034)" d="M 112.860279 56.925569 
L 116.463068 66.826418 
L 120.065857 72.205683 
L 123.668647 81.067891 
L 127.271436 86.202039 
L 130.874225 87.234909 
L 134.477014 90.399842 
L 138.079804 92.876104 
L 141.682593 101.269358 
L 145.285382 107.616376 
L 148.888171 110.213793 
L 152.490961 115.562589 
L 156.09375 123.595468 
L 159.696539 131.883465 
L 163.299329 135.450037 
L 166.902118 138.776735 
L 170.504907 137.960243 
L 174.107696 139.320614 
L 177.710486 139.562756 
L 181.313275 136.5656 
L 184.916064 135.261821 
L 188.518853 138.237055 
L 192.121643 137.363649 
L 195.724432 143.083464 
L 199.327221 147.136108 
L 202.93001 149.600652 
L 206.5328 157.629666 
L 210.135589 158.581838 
L 213.738378 157.479002 
L 217.341167 162.693892 
L 220.943957 163.774145 
L 224.546746 167.786041 
L 228.149535 170.267483 
L 231.752324 174.371014 
L 235.355114 180.706892 
L 238.957903 187.67582 
L 242.560692 191.479605 
L 246.163481 196.599446 
L 249.766271 198.690647 
L 253.36906 203.796683 
L 256.971849 203.1006 
L 260.574638 206.308137 
L 264.177428 205.09196 
L 267.780217 205.248368 
L 271.383006 204.464368 
L 274.985795 206.796111 
L 278.588585 206.596387 
L 282.191374 207.108353 
L 285.794163 206.371359 
L 289.396952 209.128158 
L 292.999742 212.287983 
L 296.602531 212.1778 
L 300.20532 212.315178 
L 303.80811 211.974799 
L 307.410899 213.600345 
L 311.013688 216.072157 
L 314.616477 215.930679 
L 318.219267 216.27862 
L 321.822056 219.799973 
L 325.424845 221.819649 
L 329.027634 225.113505 
L 332.630424 228.258404 
L 336.233213 223.215659 
L 339.836002 225.616832 
L 343.438791 223.64524 
L 347.041581 224.194437 
L 350.64437 222.274089 
L 354.247159 222.219974 
L 357.849948 223.229525 
L 361.452738 225.582889 
L 365.055527 220.351258 
L 368.658316 215.901468 
L 372.261105 212.362719 
L 375.863895 211.895798 
L 379.466684 213.357828 
L 383.069473 210.886281 
L 386.672262 211.283928 
L 390.275052 214.889512 
L 393.877841 219.218285 
L 397.48063 218.524303 
L 401.083419 221.940669 
L 404.686209 220.081166 
L 408.288998 219.774799 
L 411.891787 219.308187 
L 415.494576 219.684195 
L 419.097366 220.182361 
L 422.700155 223.616984 
L 426.302944 221.018422 
L 429.905733 222.375969 
L 433.508523 221.08747 
L 437.111312 221.912499 
L 440.714101 215.947829 
L 444.31689 216.278088 
L 447.91968 216.050704 
L 451.522469 214.190642 
L 455.125258 209.192824 
L 458.728048 209.388548 
L 462.330837 209.620717 
L 465.933626 218.374613 
L 469.536415 221.271391 
L 473.139205 216.534002 
L 476.741994 216.681702 
L 480.344783 219.347624 
L 483.947572 222.776354 
L 487.550362 222.2892 
L 491.153151 223.078116 
L 494.75594 218.390652 
L 498.358729 224.998273 
L 501.961519 228.220575 
L 505.564308 226.62334 
L 509.167097 221.012849 
L 512.769886 223.559654 
L 516.372676 218.227123 
L 519.975465 217.038274 
L 523.578254 212.672531 
L 527.181043 208.711084 
L 530.783833 209.30613 
L 534.386622 213.307245 
L 537.989411 209.137411 
L 541.5922 208.850665 
" style="fill:none;stroke:#008000;stroke-linecap:square;stroke-width:1.2;"/>
   </g>
   <g id="line2d_3">
    <path clip-path="url(#p382d4c9034)" d="M 112.860279 101.2485 
L 116.463068 106.299916 
L 120.065857 109.702305 
L 123.668647 105.874708 
L 127.271436 105.955583 
L 130.874225 109.101957 
L 134.477014 108.465499 
L 138.079804 111.23508 
L 141.682593 113.462454 
L 145.285382 118.388349 
L 148.888171 125.410717 
L 152.490961 131.145492 
L 156.09375 135.109878 
L 159.696539 142.518326 
L 163.299329 141.157254 
L 166.902118 147.547887 
L 170.504907 153.170047 
L 174.107696 159.195251 
L 177.710486 161.422432 
L 181.313275 165.51235 
L 184.916064 167.875895 
L 188.518853 177.379955 
L 192.121643 180.514785 
L 195.724432 181.410342 
L 199.327221 182.872221 
L 202.93001 186.487257 
L 206.5328 189.395629 
L 210.135589 192.426639 
L 213.738378 192.871726 
L 217.341167 196.138135 
L 220.943957 196.983355 
L 224.546746 197.466773 
L 228.149535 199.255134 
L 231.752324 198.528628 
L 235.355114 194.765307 
L 238.957903 193.402366 
L 242.560692 196.638938 
L 246.163481 196.406549 
L 249.766271 199.02942 
L 253.36906 201.364268 
L 256.971849 206.463724 
L 260.574638 209.894231 
L 264.177428 216.503155 
L 267.780217 216.339388 
L 271.383006 221.318111 
L 274.985795 226.526138 
L 278.588585 228.139582 
L 282.191374 228.332419 
L 285.794163 235.180574 
L 289.396952 235.253282 
L 292.999742 238.698074 
L 296.602531 243.261899 
L 300.20532 241.610787 
L 303.80811 241.739668 
L 307.410899 241.812376 
L 311.013688 241.073776 
L 314.616477 238.021504 
L 318.219267 235.997725 
L 321.822056 230.854802 
L 325.424845 231.315586 
L 329.027634 229.172304 
L 332.630424 227.879831 
L 336.233213 227.144262 
L 339.836002 229.559826 
L 343.438791 228.8993 
L 347.041581 232.870086 
L 350.64437 234.65511 
L 354.247159 239.173636 
L 357.849948 242.31892 
L 361.452738 240.63394 
L 365.055527 244.576055 
L 368.658316 243.861938 
L 372.261105 244.397167 
L 375.863895 244.723526 
L 379.466684 246.674589 
L 383.069473 247.618487 
L 386.672262 248.865123 
L 390.275052 249.122703 
L 393.877841 255.82463 
L 397.48063 257.10378 
L 401.083419 256.49894 
L 404.686209 252.179248 
L 408.288998 252.622752 
L 411.891787 252.607328 
L 415.494576 250.649479 
L 419.097366 246.984562 
L 422.700155 245.369365 
L 426.302944 250.35126 
L 429.905733 255.151003 
L 433.508523 255.883919 
L 437.111312 260.361525 
L 440.714101 261.52491 
L 444.31689 261.405045 
L 447.91968 263.539914 
L 451.522469 258.97171 
L 455.125258 253.316591 
L 458.728048 252.678448 
L 462.330837 248.991919 
L 465.933626 246.669051 
L 469.536415 247.308298 
L 473.139205 245.809479 
L 476.741994 242.517704 
L 480.344783 243.811034 
L 483.947572 241.412599 
L 487.550362 243.441713 
L 491.153151 244.930544 
L 494.75594 242.37786 
L 498.358729 241.330323 
L 501.961519 242.189344 
L 505.564308 245.145079 
L 509.167097 245.32563 
L 512.769886 244.665689 
L 516.372676 244.056363 
L 519.975465 246.627736 
L 523.578254 247.638538 
L 527.181043 247.153555 
L 530.783833 240.461075 
L 534.386622 240.191216 
L 537.989411 239.797447 
L 541.5922 239.067982 
L 545.19499 236.634102 
L 548.797779 233.509998 
L 552.400568 235.161667 
L 556.003357 242.015646 
L 559.606147 241.764534 
" style="fill:none;stroke:#ff0000;stroke-linecap:square;stroke-width:1.2;"/>
   </g>
   <g id="line2d_4">
    <path clip-path="url(#p382d4c9034)" d="M 112.860279 55.801261 
L 116.463068 79.933883 
L 120.065857 85.879884 
L 123.668647 107.586724 
L 127.271436 115.096846 
L 130.874225 124.813387 
L 134.477014 132.765686 
L 138.079804 143.941069 
L 141.682593 152.611688 
L 145.285382 165.58744 
L 148.888171 176.192993 
L 152.490961 183.518117 
L 156.09375 188.876559 
L 159.696539 196.982519 
L 163.299329 202.004554 
L 166.902118 210.723931 
L 170.504907 214.932963 
L 174.107696 219.651826 
L 177.710486 226.401899 
L 181.313275 234.999879 
L 184.916064 237.860095 
L 188.518853 244.005595 
L 192.121643 248.417417 
L 195.724432 253.614447 
L 199.327221 256.200138 
L 202.93001 260.125894 
L 206.5328 260.468965 
L 210.135589 266.044797 
L 213.738378 268.738395 
L 217.341167 268.068868 
L 220.943957 265.034557 
L 224.546746 266.105311 
L 228.149535 266.059201 
L 231.752324 266.613311 
L 235.355114 264.8606 
L 238.957903 265.143275 
L 242.560692 265.9621 
L 246.163481 268.271543 
L 249.766271 270.2974 
L 253.36906 272.033678 
L 256.971849 275.990926 
L 260.574638 278.623344 
L 264.177428 276.286397 
L 267.780217 278.262532 
L 271.383006 280.100852 
L 274.985795 280.36098 
L 278.588585 280.99566 
L 282.191374 279.936462 
L 285.794163 277.827502 
L 289.396952 281.214093 
L 292.999742 279.900149 
L 296.602531 280.302967 
L 300.20532 279.812225 
L 303.80811 279.705166 
L 307.410899 280.905253 
L 311.013688 281.358525 
L 314.616477 280.579274 
L 318.219267 282.622287 
L 321.822056 281.323529 
L 325.424845 282.712116 
L 329.027634 282.459417 
L 332.630424 280.44496 
L 336.233213 280.550697 
L 339.836002 278.967987 
L 343.438791 274.593856 
L 347.041581 274.254574 
L 350.64437 272.150679 
L 354.247159 272.440785 
L 357.849948 274.180067 
L 361.452738 274.947168 
L 365.055527 276.362834 
L 368.658316 280.133182 
L 372.261105 281.826104 
L 375.863895 283.893151 
L 379.466684 285.588578 
L 383.069473 285.298956 
L 386.672262 287.633371 
L 390.275052 290.483536 
L 393.877841 291.494448 
L 397.48063 292.374027 
L 401.083419 290.985221 
L 404.686209 289.24708 
L 408.288998 291.431144 
L 411.891787 286.252919 
L 415.494576 285.945912 
L 419.097366 284.729221 
L 422.700155 283.156736 
L 426.302944 284.617486 
L 429.905733 285.010348 
L 433.508523 284.301918 
L 437.111312 284.916321 
L 440.714101 280.23968 
L 444.31689 281.073298 
L 447.91968 282.198003 
L 451.522469 281.019185 
L 455.125258 282.011993 
L 458.728048 281.637521 
L 462.330837 284.914474 
L 465.933626 289.716308 
L 473.139205 292.799269 
L 476.741994 295.735141 
L 480.344783 296.118875 
L 483.947572 298.129134 
L 487.550362 299.295209 
L 491.153151 299.703306 
L 494.75594 301.252268 
L 498.358729 301.697942 
L 501.961519 301.10249 
L 505.564308 300.236849 
L 509.167097 299.840426 
L 512.769886 297.339511 
L 516.372676 296.462936 
L 519.975465 294.46188 
L 523.578254 294.106678 
L 527.181043 294.03776 
L 530.783833 294.534171 
L 534.386622 294.325103 
L 537.989411 296.01005 
L 541.5922 296.653713 
L 545.19499 296.483493 
L 548.797779 296.455241 
L 552.400568 296.875322 
L 556.003357 297.984297 
L 559.606147 297.468389 
L 563.208936 298.85396 
L 566.811725 298.812672 
L 570.414514 299.688705 
L 574.017304 299.555274 
L 581.222882 298.941029 
L 584.825671 300.131166 
L 584.825671 300.131166 
" style="fill:none;stroke:#00bfbf;stroke-linecap:square;stroke-width:1.2;"/>
   </g>
   <g id="patch_3">
    <path d="M 112.5 324 
L 112.5 36 
" style="fill:none;stroke:#000000;stroke-linecap:square;stroke-linejoin:miter;"/>
   </g>
   <g id="patch_4">
    <path d="M 635.625 324 
L 635.625 36 
" style="fill:none;stroke:#000000;stroke-linecap:square;stroke-linejoin:miter;"/>
   </g>
   <g id="patch_5">
    <path d="M 112.5 324 
L 635.625 324 
" style="fill:none;stroke:#000000;stroke-linecap:square;stroke-linejoin:miter;"/>
   </g>
   <g id="patch_6">
    <path d="M 112.5 36 
L 635.625 36 
" style="fill:none;stroke:#000000;stroke-linecap:square;stroke-linejoin:miter;"/>
   </g>
   <g id="matplotlib.axis_1">
    <g id="xtick_1">
     <g id="line2d_5">
      <defs>
       <path d="M 0 0 
L 0 -4 
" id="m474fc59bb6" style="stroke:#000000;stroke-width:0.5;"/>
      </defs>
      <g>
       <use style="stroke:#000000;stroke-width:0.5;" x="112.860279" xlink:href="#m474fc59bb6" y="324"/>
      </g>
     </g>
     <g id="line2d_6">
      <defs>
       <path d="M 0 0 
L 0 4 
" id="m20d13ef479" style="stroke:#000000;stroke-width:0.5;"/>
      </defs>
      <g>
       <use style="stroke:#000000;stroke-width:0.5;" x="112.860279" xlink:href="#m20d13ef479" y="36"/>
      </g>
     </g>
     <g id="text_1">
      <!-- 0 -->
      <defs>
       <path d="M 31.78125 66.40625 
Q 24.171875 66.40625 20.328125 58.90625 
Q 16.5 51.421875 16.5 36.375 
Q 16.5 21.390625 20.328125 13.890625 
Q 24.171875 6.390625 31.78125 6.390625 
Q 39.453125 6.390625 43.28125 13.890625 
Q 47.125 21.390625 47.125 36.375 
Q 47.125 51.421875 43.28125 58.90625 
Q 39.453125 66.40625 31.78125 66.40625 
z
M 31.78125 74.21875 
Q 44.046875 74.21875 50.515625 64.515625 
Q 56.984375 54.828125 56.984375 36.375 
Q 56.984375 17.96875 50.515625 8.265625 
Q 44.046875 -1.421875 31.78125 -1.421875 
Q 19.53125 -1.421875 13.0625 8.265625 
Q 6.59375 17.96875 6.59375 36.375 
Q 6.59375 54.828125 13.0625 64.515625 
Q 19.53125 74.21875 31.78125 74.21875 
z
" id="DejaVuSans-48"/>
      </defs>
      <g transform="translate(109.042779 337.118125)scale(0.12 -0.12)">
       <use xlink:href="#DejaVuSans-48"/>
      </g>
     </g>
    </g>
    <g id="xtick_2">
     <g id="line2d_7">
      <g>
       <use style="stroke:#000000;stroke-width:0.5;" x="166.902118" xlink:href="#m474fc59bb6" y="324"/>
      </g>
     </g>
     <g id="line2d_8">
      <g>
       <use style="stroke:#000000;stroke-width:0.5;" x="166.902118" xlink:href="#m20d13ef479" y="36"/>
      </g>
     </g>
     <g id="text_2">
      <!-- 15 -->
      <defs>
       <path d="M 12.40625 8.296875 
L 28.515625 8.296875 
L 28.515625 63.921875 
L 10.984375 60.40625 
L 10.984375 69.390625 
L 28.421875 72.90625 
L 38.28125 72.90625 
L 38.28125 8.296875 
L 54.390625 8.296875 
L 54.390625 0 
L 12.40625 0 
z
" id="DejaVuSans-49"/>
       <path d="M 10.796875 72.90625 
L 49.515625 72.90625 
L 49.515625 64.59375 
L 19.828125 64.59375 
L 19.828125 46.734375 
Q 21.96875 47.46875 24.109375 47.828125 
Q 26.265625 48.1875 28.421875 48.1875 
Q 40.625 48.1875 47.75 41.5 
Q 54.890625 34.8125 54.890625 23.390625 
Q 54.890625 11.625 47.5625 5.09375 
Q 40.234375 -1.421875 26.90625 -1.421875 
Q 22.3125 -1.421875 17.546875 -0.640625 
Q 12.796875 0.140625 7.71875 1.703125 
L 7.71875 11.625 
Q 12.109375 9.234375 16.796875 8.0625 
Q 21.484375 6.890625 26.703125 6.890625 
Q 35.15625 6.890625 40.078125 11.328125 
Q 45.015625 15.765625 45.015625 23.390625 
Q 45.015625 31 40.078125 35.4375 
Q 35.15625 39.890625 26.703125 39.890625 
Q 22.75 39.890625 18.8125 39.015625 
Q 14.890625 38.140625 10.796875 36.28125 
z
" id="DejaVuSans-53"/>
      </defs>
      <g transform="translate(159.267118 337.118125)scale(0.12 -0.12)">
       <use xlink:href="#DejaVuSans-49"/>
       <use x="63.623047" xlink:href="#DejaVuSans-53"/>
      </g>
     </g>
    </g>
    <g id="xtick_3">
     <g id="line2d_9">
      <g>
       <use style="stroke:#000000;stroke-width:0.5;" x="220.943957" xlink:href="#m474fc59bb6" y="324"/>
      </g>
     </g>
     <g id="line2d_10">
      <g>
       <use style="stroke:#000000;stroke-width:0.5;" x="220.943957" xlink:href="#m20d13ef479" y="36"/>
      </g>
     </g>
     <g id="text_3">
      <!-- 30 -->
      <defs>
       <path d="M 40.578125 39.3125 
Q 47.65625 37.796875 51.625 33 
Q 55.609375 28.21875 55.609375 21.1875 
Q 55.609375 10.40625 48.1875 4.484375 
Q 40.765625 -1.421875 27.09375 -1.421875 
Q 22.515625 -1.421875 17.65625 -0.515625 
Q 12.796875 0.390625 7.625 2.203125 
L 7.625 11.71875 
Q 11.71875 9.328125 16.59375 8.109375 
Q 21.484375 6.890625 26.8125 6.890625 
Q 36.078125 6.890625 40.9375 10.546875 
Q 45.796875 14.203125 45.796875 21.1875 
Q 45.796875 27.640625 41.28125 31.265625 
Q 36.765625 34.90625 28.71875 34.90625 
L 20.21875 34.90625 
L 20.21875 43.015625 
L 29.109375 43.015625 
Q 36.375 43.015625 40.234375 45.921875 
Q 44.09375 48.828125 44.09375 54.296875 
Q 44.09375 59.90625 40.109375 62.90625 
Q 36.140625 65.921875 28.71875 65.921875 
Q 24.65625 65.921875 20.015625 65.03125 
Q 15.375 64.15625 9.8125 62.3125 
L 9.8125 71.09375 
Q 15.4375 72.65625 20.34375 73.4375 
Q 25.25 74.21875 29.59375 74.21875 
Q 40.828125 74.21875 47.359375 69.109375 
Q 53.90625 64.015625 53.90625 55.328125 
Q 53.90625 49.265625 50.4375 45.09375 
Q 46.96875 40.921875 40.578125 39.3125 
z
" id="DejaVuSans-51"/>
      </defs>
      <g transform="translate(213.308957 337.118125)scale(0.12 -0.12)">
       <use xlink:href="#DejaVuSans-51"/>
       <use x="63.623047" xlink:href="#DejaVuSans-48"/>
      </g>
     </g>
    </g>
    <g id="xtick_4">
     <g id="line2d_11">
      <g>
       <use style="stroke:#000000;stroke-width:0.5;" x="274.985795" xlink:href="#m474fc59bb6" y="324"/>
      </g>
     </g>
     <g id="line2d_12">
      <g>
       <use style="stroke:#000000;stroke-width:0.5;" x="274.985795" xlink:href="#m20d13ef479" y="36"/>
      </g>
     </g>
     <g id="text_4">
      <!-- 45 -->
      <defs>
       <path d="M 37.796875 64.3125 
L 12.890625 25.390625 
L 37.796875 25.390625 
z
M 35.203125 72.90625 
L 47.609375 72.90625 
L 47.609375 25.390625 
L 58.015625 25.390625 
L 58.015625 17.1875 
L 47.609375 17.1875 
L 47.609375 0 
L 37.796875 0 
L 37.796875 17.1875 
L 4.890625 17.1875 
L 4.890625 26.703125 
z
" id="DejaVuSans-52"/>
      </defs>
      <g transform="translate(267.350795 337.118125)scale(0.12 -0.12)">
       <use xlink:href="#DejaVuSans-52"/>
       <use x="63.623047" xlink:href="#DejaVuSans-53"/>
      </g>
     </g>
    </g>
    <g id="xtick_5">
     <g id="line2d_13">
      <g>
       <use style="stroke:#000000;stroke-width:0.5;" x="329.027634" xlink:href="#m474fc59bb6" y="324"/>
      </g>
     </g>
     <g id="line2d_14">
      <g>
       <use style="stroke:#000000;stroke-width:0.5;" x="329.027634" xlink:href="#m20d13ef479" y="36"/>
      </g>
     </g>
     <g id="text_5">
      <!-- 60 -->
      <defs>
       <path d="M 33.015625 40.375 
Q 26.375 40.375 22.484375 35.828125 
Q 18.609375 31.296875 18.609375 23.390625 
Q 18.609375 15.53125 22.484375 10.953125 
Q 26.375 6.390625 33.015625 6.390625 
Q 39.65625 6.390625 43.53125 10.953125 
Q 47.40625 15.53125 47.40625 23.390625 
Q 47.40625 31.296875 43.53125 35.828125 
Q 39.65625 40.375 33.015625 40.375 
z
M 52.59375 71.296875 
L 52.59375 62.3125 
Q 48.875 64.0625 45.09375 64.984375 
Q 41.3125 65.921875 37.59375 65.921875 
Q 27.828125 65.921875 22.671875 59.328125 
Q 17.53125 52.734375 16.796875 39.40625 
Q 19.671875 43.65625 24.015625 45.921875 
Q 28.375 48.1875 33.59375 48.1875 
Q 44.578125 48.1875 50.953125 41.515625 
Q 57.328125 34.859375 57.328125 23.390625 
Q 57.328125 12.15625 50.6875 5.359375 
Q 44.046875 -1.421875 33.015625 -1.421875 
Q 20.359375 -1.421875 13.671875 8.265625 
Q 6.984375 17.96875 6.984375 36.375 
Q 6.984375 53.65625 15.1875 63.9375 
Q 23.390625 74.21875 37.203125 74.21875 
Q 40.921875 74.21875 44.703125 73.484375 
Q 48.484375 72.75 52.59375 71.296875 
z
" id="DejaVuSans-54"/>
      </defs>
      <g transform="translate(321.392634 337.118125)scale(0.12 -0.12)">
       <use xlink:href="#DejaVuSans-54"/>
       <use x="63.623047" xlink:href="#DejaVuSans-48"/>
      </g>
     </g>
    </g>
    <g id="xtick_6">
     <g id="line2d_15">
      <g>
       <use style="stroke:#000000;stroke-width:0.5;" x="383.069473" xlink:href="#m474fc59bb6" y="324"/>
      </g>
     </g>
     <g id="line2d_16">
      <g>
       <use style="stroke:#000000;stroke-width:0.5;" x="383.069473" xlink:href="#m20d13ef479" y="36"/>
      </g>
     </g>
     <g id="text_6">
      <!-- 75 -->
      <defs>
       <path d="M 8.203125 72.90625 
L 55.078125 72.90625 
L 55.078125 68.703125 
L 28.609375 0 
L 18.3125 0 
L 43.21875 64.59375 
L 8.203125 64.59375 
z
" id="DejaVuSans-55"/>
      </defs>
      <g transform="translate(375.434473 337.118125)scale(0.12 -0.12)">
       <use xlink:href="#DejaVuSans-55"/>
       <use x="63.623047" xlink:href="#DejaVuSans-53"/>
      </g>
     </g>
    </g>
    <g id="xtick_7">
     <g id="line2d_17">
      <g>
       <use style="stroke:#000000;stroke-width:0.5;" x="437.111312" xlink:href="#m474fc59bb6" y="324"/>
      </g>
     </g>
     <g id="line2d_18">
      <g>
       <use style="stroke:#000000;stroke-width:0.5;" x="437.111312" xlink:href="#m20d13ef479" y="36"/>
      </g>
     </g>
     <g id="text_7">
      <!-- 90 -->
      <defs>
       <path d="M 10.984375 1.515625 
L 10.984375 10.5 
Q 14.703125 8.734375 18.5 7.8125 
Q 22.3125 6.890625 25.984375 6.890625 
Q 35.75 6.890625 40.890625 13.453125 
Q 46.046875 20.015625 46.78125 33.40625 
Q 43.953125 29.203125 39.59375 26.953125 
Q 35.25 24.703125 29.984375 24.703125 
Q 19.046875 24.703125 12.671875 31.3125 
Q 6.296875 37.9375 6.296875 49.421875 
Q 6.296875 60.640625 12.9375 67.421875 
Q 19.578125 74.21875 30.609375 74.21875 
Q 43.265625 74.21875 49.921875 64.515625 
Q 56.59375 54.828125 56.59375 36.375 
Q 56.59375 19.140625 48.40625 8.859375 
Q 40.234375 -1.421875 26.421875 -1.421875 
Q 22.703125 -1.421875 18.890625 -0.6875 
Q 15.09375 0.046875 10.984375 1.515625 
z
M 30.609375 32.421875 
Q 37.25 32.421875 41.125 36.953125 
Q 45.015625 41.5 45.015625 49.421875 
Q 45.015625 57.28125 41.125 61.84375 
Q 37.25 66.40625 30.609375 66.40625 
Q 23.96875 66.40625 20.09375 61.84375 
Q 16.21875 57.28125 16.21875 49.421875 
Q 16.21875 41.5 20.09375 36.953125 
Q 23.96875 32.421875 30.609375 32.421875 
z
" id="DejaVuSans-57"/>
      </defs>
      <g transform="translate(429.476312 337.118125)scale(0.12 -0.12)">
       <use xlink:href="#DejaVuSans-57"/>
       <use x="63.623047" xlink:href="#DejaVuSans-48"/>
      </g>
     </g>
    </g>
    <g id="xtick_8">
     <g id="line2d_19">
      <g>
       <use style="stroke:#000000;stroke-width:0.5;" x="491.153151" xlink:href="#m474fc59bb6" y="324"/>
      </g>
     </g>
     <g id="line2d_20">
      <g>
       <use style="stroke:#000000;stroke-width:0.5;" x="491.153151" xlink:href="#m20d13ef479" y="36"/>
      </g>
     </g>
     <g id="text_8">
      <!-- 105 -->
      <g transform="translate(479.700651 337.118125)scale(0.12 -0.12)">
       <use xlink:href="#DejaVuSans-49"/>
       <use x="63.623047" xlink:href="#DejaVuSans-48"/>
       <use x="127.246094" xlink:href="#DejaVuSans-53"/>
      </g>
     </g>
    </g>
    <g id="xtick_9">
     <g id="line2d_21">
      <g>
       <use style="stroke:#000000;stroke-width:0.5;" x="545.19499" xlink:href="#m474fc59bb6" y="324"/>
      </g>
     </g>
     <g id="line2d_22">
      <g>
       <use style="stroke:#000000;stroke-width:0.5;" x="545.19499" xlink:href="#m20d13ef479" y="36"/>
      </g>
     </g>
     <g id="text_9">
      <!-- 120 -->
      <defs>
       <path d="M 19.1875 8.296875 
L 53.609375 8.296875 
L 53.609375 0 
L 7.328125 0 
L 7.328125 8.296875 
Q 12.9375 14.109375 22.625 23.890625 
Q 32.328125 33.6875 34.8125 36.53125 
Q 39.546875 41.84375 41.421875 45.53125 
Q 43.3125 49.21875 43.3125 52.78125 
Q 43.3125 58.59375 39.234375 62.25 
Q 35.15625 65.921875 28.609375 65.921875 
Q 23.96875 65.921875 18.8125 64.3125 
Q 13.671875 62.703125 7.8125 59.421875 
L 7.8125 69.390625 
Q 13.765625 71.78125 18.9375 73 
Q 24.125 74.21875 28.421875 74.21875 
Q 39.75 74.21875 46.484375 68.546875 
Q 53.21875 62.890625 53.21875 53.421875 
Q 53.21875 48.921875 51.53125 44.890625 
Q 49.859375 40.875 45.40625 35.40625 
Q 44.1875 33.984375 37.640625 27.21875 
Q 31.109375 20.453125 19.1875 8.296875 
z
" id="DejaVuSans-50"/>
      </defs>
      <g transform="translate(533.74249 337.118125)scale(0.12 -0.12)">
       <use xlink:href="#DejaVuSans-49"/>
       <use x="63.623047" xlink:href="#DejaVuSans-50"/>
       <use x="127.246094" xlink:href="#DejaVuSans-48"/>
      </g>
     </g>
    </g>
    <g id="xtick_10">
     <g id="line2d_23">
      <g>
       <use style="stroke:#000000;stroke-width:0.5;" x="599.236829" xlink:href="#m474fc59bb6" y="324"/>
      </g>
     </g>
     <g id="line2d_24">
      <g>
       <use style="stroke:#000000;stroke-width:0.5;" x="599.236829" xlink:href="#m20d13ef479" y="36"/>
      </g>
     </g>
     <g id="text_10">
      <!-- 135 -->
      <g transform="translate(587.784329 337.118125)scale(0.12 -0.12)">
       <use xlink:href="#DejaVuSans-49"/>
       <use x="63.623047" xlink:href="#DejaVuSans-51"/>
       <use x="127.246094" xlink:href="#DejaVuSans-53"/>
      </g>
     </g>
    </g>
    <g id="text_11">
     <!-- generation -->
     <defs>
      <path d="M 45.40625 27.984375 
Q 45.40625 37.75 41.375 43.109375 
Q 37.359375 48.484375 30.078125 48.484375 
Q 22.859375 48.484375 18.828125 43.109375 
Q 14.796875 37.75 14.796875 27.984375 
Q 14.796875 18.265625 18.828125 12.890625 
Q 22.859375 7.515625 30.078125 7.515625 
Q 37.359375 7.515625 41.375 12.890625 
Q 45.40625 18.265625 45.40625 27.984375 
z
M 54.390625 6.78125 
Q 54.390625 -7.171875 48.1875 -13.984375 
Q 42 -20.796875 29.203125 -20.796875 
Q 24.46875 -20.796875 20.265625 -20.09375 
Q 16.0625 -19.390625 12.109375 -17.921875 
L 12.109375 -9.1875 
Q 16.0625 -11.328125 19.921875 -12.34375 
Q 23.78125 -13.375 27.78125 -13.375 
Q 36.625 -13.375 41.015625 -8.765625 
Q 45.40625 -4.15625 45.40625 5.171875 
L 45.40625 9.625 
Q 42.625 4.78125 38.28125 2.390625 
Q 33.9375 0 27.875 0 
Q 17.828125 0 11.671875 7.65625 
Q 5.515625 15.328125 5.515625 27.984375 
Q 5.515625 40.671875 11.671875 48.328125 
Q 17.828125 56 27.875 56 
Q 33.9375 56 38.28125 53.609375 
Q 42.625 51.21875 45.40625 46.390625 
L 45.40625 54.6875 
L 54.390625 54.6875 
z
" id="DejaVuSans-103"/>
      <path d="M 56.203125 29.59375 
L 56.203125 25.203125 
L 14.890625 25.203125 
Q 15.484375 15.921875 20.484375 11.0625 
Q 25.484375 6.203125 34.421875 6.203125 
Q 39.59375 6.203125 44.453125 7.46875 
Q 49.3125 8.734375 54.109375 11.28125 
L 54.109375 2.78125 
Q 49.265625 0.734375 44.1875 -0.34375 
Q 39.109375 -1.421875 33.890625 -1.421875 
Q 20.796875 -1.421875 13.15625 6.1875 
Q 5.515625 13.8125 5.515625 26.8125 
Q 5.515625 40.234375 12.765625 48.109375 
Q 20.015625 56 32.328125 56 
Q 43.359375 56 49.78125 48.890625 
Q 56.203125 41.796875 56.203125 29.59375 
z
M 47.21875 32.234375 
Q 47.125 39.59375 43.09375 43.984375 
Q 39.0625 48.390625 32.421875 48.390625 
Q 24.90625 48.390625 20.390625 44.140625 
Q 15.875 39.890625 15.1875 32.171875 
z
" id="DejaVuSans-101"/>
      <path d="M 54.890625 33.015625 
L 54.890625 0 
L 45.90625 0 
L 45.90625 32.71875 
Q 45.90625 40.484375 42.875 44.328125 
Q 39.84375 48.1875 33.796875 48.1875 
Q 26.515625 48.1875 22.3125 43.546875 
Q 18.109375 38.921875 18.109375 30.90625 
L 18.109375 0 
L 9.078125 0 
L 9.078125 54.6875 
L 18.109375 54.6875 
L 18.109375 46.1875 
Q 21.34375 51.125 25.703125 53.5625 
Q 30.078125 56 35.796875 56 
Q 45.21875 56 50.046875 50.171875 
Q 54.890625 44.34375 54.890625 33.015625 
z
" id="DejaVuSans-110"/>
      <path d="M 41.109375 46.296875 
Q 39.59375 47.171875 37.8125 47.578125 
Q 36.03125 48 33.890625 48 
Q 26.265625 48 22.1875 43.046875 
Q 18.109375 38.09375 18.109375 28.8125 
L 18.109375 0 
L 9.078125 0 
L 9.078125 54.6875 
L 18.109375 54.6875 
L 18.109375 46.1875 
Q 20.953125 51.171875 25.484375 53.578125 
Q 30.03125 56 36.53125 56 
Q 37.453125 56 38.578125 55.875 
Q 39.703125 55.765625 41.0625 55.515625 
z
" id="DejaVuSans-114"/>
      <path d="M 34.28125 27.484375 
Q 23.390625 27.484375 19.1875 25 
Q 14.984375 22.515625 14.984375 16.5 
Q 14.984375 11.71875 18.140625 8.90625 
Q 21.296875 6.109375 26.703125 6.109375 
Q 34.1875 6.109375 38.703125 11.40625 
Q 43.21875 16.703125 43.21875 25.484375 
L 43.21875 27.484375 
z
M 52.203125 31.203125 
L 52.203125 0 
L 43.21875 0 
L 43.21875 8.296875 
Q 40.140625 3.328125 35.546875 0.953125 
Q 30.953125 -1.421875 24.3125 -1.421875 
Q 15.921875 -1.421875 10.953125 3.296875 
Q 6 8.015625 6 15.921875 
Q 6 25.140625 12.171875 29.828125 
Q 18.359375 34.515625 30.609375 34.515625 
L 43.21875 34.515625 
L 43.21875 35.40625 
Q 43.21875 41.609375 39.140625 45 
Q 35.0625 48.390625 27.6875 48.390625 
Q 23 48.390625 18.546875 47.265625 
Q 14.109375 46.140625 10.015625 43.890625 
L 10.015625 52.203125 
Q 14.9375 54.109375 19.578125 55.046875 
Q 24.21875 56 28.609375 56 
Q 40.484375 56 46.34375 49.84375 
Q 52.203125 43.703125 52.203125 31.203125 
z
" id="DejaVuSans-97"/>
      <path d="M 18.3125 70.21875 
L 18.3125 54.6875 
L 36.8125 54.6875 
L 36.8125 47.703125 
L 18.3125 47.703125 
L 18.3125 18.015625 
Q 18.3125 11.328125 20.140625 9.421875 
Q 21.96875 7.515625 27.59375 7.515625 
L 36.8125 7.515625 
L 36.8125 0 
L 27.59375 0 
Q 17.1875 0 13.234375 3.875 
Q 9.28125 7.765625 9.28125 18.015625 
L 9.28125 47.703125 
L 2.6875 47.703125 
L 2.6875 54.6875 
L 9.28125 54.6875 
L 9.28125 70.21875 
z
" id="DejaVuSans-116"/>
      <path d="M 9.421875 54.6875 
L 18.40625 54.6875 
L 18.40625 0 
L 9.421875 0 
z
M 9.421875 75.984375 
L 18.40625 75.984375 
L 18.40625 64.59375 
L 9.421875 64.59375 
z
" id="DejaVuSans-105"/>
      <path d="M 30.609375 48.390625 
Q 23.390625 48.390625 19.1875 42.75 
Q 14.984375 37.109375 14.984375 27.296875 
Q 14.984375 17.484375 19.15625 11.84375 
Q 23.34375 6.203125 30.609375 6.203125 
Q 37.796875 6.203125 41.984375 11.859375 
Q 46.1875 17.53125 46.1875 27.296875 
Q 46.1875 37.015625 41.984375 42.703125 
Q 37.796875 48.390625 30.609375 48.390625 
z
M 30.609375 56 
Q 42.328125 56 49.015625 48.375 
Q 55.71875 40.765625 55.71875 27.296875 
Q 55.71875 13.875 49.015625 6.21875 
Q 42.328125 -1.421875 30.609375 -1.421875 
Q 18.84375 -1.421875 12.171875 6.21875 
Q 5.515625 13.875 5.515625 27.296875 
Q 5.515625 40.765625 12.171875 48.375 
Q 18.84375 56 30.609375 56 
z
" id="DejaVuSans-111"/>
     </defs>
     <g transform="translate(341.430938 353.731875)scale(0.12 -0.12)">
      <use xlink:href="#DejaVuSans-103"/>
      <use x="63.476562" xlink:href="#DejaVuSans-101"/>
      <use x="125" xlink:href="#DejaVuSans-110"/>
      <use x="188.378906" xlink:href="#DejaVuSans-101"/>
      <use x="249.902344" xlink:href="#DejaVuSans-114"/>
      <use x="291.015625" xlink:href="#DejaVuSans-97"/>
      <use x="352.294922" xlink:href="#DejaVuSans-116"/>
      <use x="391.503906" xlink:href="#DejaVuSans-105"/>
      <use x="419.287109" xlink:href="#DejaVuSans-111"/>
      <use x="480.46875" xlink:href="#DejaVuSans-110"/>
     </g>
    </g>
   </g>
   <g id="matplotlib.axis_2">
    <g id="ytick_1">
     <g id="line2d_25">
      <defs>
       <path d="M 0 0 
L 4 0 
" id="mc758872c7e" style="stroke:#000000;stroke-width:0.5;"/>
      </defs>
      <g>
       <use style="stroke:#000000;stroke-width:0.5;" x="112.5" xlink:href="#mc758872c7e" y="324"/>
      </g>
     </g>
     <g id="line2d_26">
      <defs>
       <path d="M 0 0 
L -4 0 
" id="ma73f94f89e" style="stroke:#000000;stroke-width:0.5;"/>
      </defs>
      <g>
       <use style="stroke:#000000;stroke-width:0.5;" x="635.625" xlink:href="#ma73f94f89e" y="324"/>
      </g>
     </g>
     <g id="text_12">
      <!-- 0.16 -->
      <defs>
       <path d="M 10.6875 12.40625 
L 21 12.40625 
L 21 0 
L 10.6875 0 
z
" id="DejaVuSans-46"/>
      </defs>
      <g transform="translate(81.78125 327.31125)scale(0.12 -0.12)">
       <use xlink:href="#DejaVuSans-48"/>
       <use x="63.623047" xlink:href="#DejaVuSans-46"/>
       <use x="95.410156" xlink:href="#DejaVuSans-49"/>
       <use x="159.033203" xlink:href="#DejaVuSans-54"/>
      </g>
     </g>
    </g>
    <g id="ytick_2">
     <g id="line2d_27">
      <g>
       <use style="stroke:#000000;stroke-width:0.5;" x="112.5" xlink:href="#mc758872c7e" y="288"/>
      </g>
     </g>
     <g id="line2d_28">
      <g>
       <use style="stroke:#000000;stroke-width:0.5;" x="635.625" xlink:href="#ma73f94f89e" y="288"/>
      </g>
     </g>
     <g id="text_13">
      <!-- 0.18 -->
      <defs>
       <path d="M 31.78125 34.625 
Q 24.75 34.625 20.71875 30.859375 
Q 16.703125 27.09375 16.703125 20.515625 
Q 16.703125 13.921875 20.71875 10.15625 
Q 24.75 6.390625 31.78125 6.390625 
Q 38.8125 6.390625 42.859375 10.171875 
Q 46.921875 13.96875 46.921875 20.515625 
Q 46.921875 27.09375 42.890625 30.859375 
Q 38.875 34.625 31.78125 34.625 
z
M 21.921875 38.8125 
Q 15.578125 40.375 12.03125 44.71875 
Q 8.5 49.078125 8.5 55.328125 
Q 8.5 64.0625 14.71875 69.140625 
Q 20.953125 74.21875 31.78125 74.21875 
Q 42.671875 74.21875 48.875 69.140625 
Q 55.078125 64.0625 55.078125 55.328125 
Q 55.078125 49.078125 51.53125 44.71875 
Q 48 40.375 41.703125 38.8125 
Q 48.828125 37.15625 52.796875 32.3125 
Q 56.78125 27.484375 56.78125 20.515625 
Q 56.78125 9.90625 50.3125 4.234375 
Q 43.84375 -1.421875 31.78125 -1.421875 
Q 19.734375 -1.421875 13.25 4.234375 
Q 6.78125 9.90625 6.78125 20.515625 
Q 6.78125 27.484375 10.78125 32.3125 
Q 14.796875 37.15625 21.921875 38.8125 
z
M 18.3125 54.390625 
Q 18.3125 48.734375 21.84375 45.5625 
Q 25.390625 42.390625 31.78125 42.390625 
Q 38.140625 42.390625 41.71875 45.5625 
Q 45.3125 48.734375 45.3125 54.390625 
Q 45.3125 60.0625 41.71875 63.234375 
Q 38.140625 66.40625 31.78125 66.40625 
Q 25.390625 66.40625 21.84375 63.234375 
Q 18.3125 60.0625 18.3125 54.390625 
z
" id="DejaVuSans-56"/>
      </defs>
      <g transform="translate(81.78125 291.31125)scale(0.12 -0.12)">
       <use xlink:href="#DejaVuSans-48"/>
       <use x="63.623047" xlink:href="#DejaVuSans-46"/>
       <use x="95.410156" xlink:href="#DejaVuSans-49"/>
       <use x="159.033203" xlink:href="#DejaVuSans-56"/>
      </g>
     </g>
    </g>
    <g id="ytick_3">
     <g id="line2d_29">
      <g>
       <use style="stroke:#000000;stroke-width:0.5;" x="112.5" xlink:href="#mc758872c7e" y="252"/>
      </g>
     </g>
     <g id="line2d_30">
      <g>
       <use style="stroke:#000000;stroke-width:0.5;" x="635.625" xlink:href="#ma73f94f89e" y="252"/>
      </g>
     </g>
     <g id="text_14">
      <!-- 0.20 -->
      <g transform="translate(81.78125 255.31125)scale(0.12 -0.12)">
       <use xlink:href="#DejaVuSans-48"/>
       <use x="63.623047" xlink:href="#DejaVuSans-46"/>
       <use x="95.410156" xlink:href="#DejaVuSans-50"/>
       <use x="159.033203" xlink:href="#DejaVuSans-48"/>
      </g>
     </g>
    </g>
    <g id="ytick_4">
     <g id="line2d_31">
      <g>
       <use style="stroke:#000000;stroke-width:0.5;" x="112.5" xlink:href="#mc758872c7e" y="216"/>
      </g>
     </g>
     <g id="line2d_32">
      <g>
       <use style="stroke:#000000;stroke-width:0.5;" x="635.625" xlink:href="#ma73f94f89e" y="216"/>
      </g>
     </g>
     <g id="text_15">
      <!-- 0.22 -->
      <g transform="translate(81.78125 219.31125)scale(0.12 -0.12)">
       <use xlink:href="#DejaVuSans-48"/>
       <use x="63.623047" xlink:href="#DejaVuSans-46"/>
       <use x="95.410156" xlink:href="#DejaVuSans-50"/>
       <use x="159.033203" xlink:href="#DejaVuSans-50"/>
      </g>
     </g>
    </g>
    <g id="ytick_5">
     <g id="line2d_33">
      <g>
       <use style="stroke:#000000;stroke-width:0.5;" x="112.5" xlink:href="#mc758872c7e" y="180"/>
      </g>
     </g>
     <g id="line2d_34">
      <g>
       <use style="stroke:#000000;stroke-width:0.5;" x="635.625" xlink:href="#ma73f94f89e" y="180"/>
      </g>
     </g>
     <g id="text_16">
      <!-- 0.24 -->
      <g transform="translate(81.78125 183.31125)scale(0.12 -0.12)">
       <use xlink:href="#DejaVuSans-48"/>
       <use x="63.623047" xlink:href="#DejaVuSans-46"/>
       <use x="95.410156" xlink:href="#DejaVuSans-50"/>
       <use x="159.033203" xlink:href="#DejaVuSans-52"/>
      </g>
     </g>
    </g>
    <g id="ytick_6">
     <g id="line2d_35">
      <g>
       <use style="stroke:#000000;stroke-width:0.5;" x="112.5" xlink:href="#mc758872c7e" y="144"/>
      </g>
     </g>
     <g id="line2d_36">
      <g>
       <use style="stroke:#000000;stroke-width:0.5;" x="635.625" xlink:href="#ma73f94f89e" y="144"/>
      </g>
     </g>
     <g id="text_17">
      <!-- 0.26 -->
      <g transform="translate(81.78125 147.31125)scale(0.12 -0.12)">
       <use xlink:href="#DejaVuSans-48"/>
       <use x="63.623047" xlink:href="#DejaVuSans-46"/>
       <use x="95.410156" xlink:href="#DejaVuSans-50"/>
       <use x="159.033203" xlink:href="#DejaVuSans-54"/>
      </g>
     </g>
    </g>
    <g id="ytick_7">
     <g id="line2d_37">
      <g>
       <use style="stroke:#000000;stroke-width:0.5;" x="112.5" xlink:href="#mc758872c7e" y="108"/>
      </g>
     </g>
     <g id="line2d_38">
      <g>
       <use style="stroke:#000000;stroke-width:0.5;" x="635.625" xlink:href="#ma73f94f89e" y="108"/>
      </g>
     </g>
     <g id="text_18">
      <!-- 0.28 -->
      <g transform="translate(81.78125 111.31125)scale(0.12 -0.12)">
       <use xlink:href="#DejaVuSans-48"/>
       <use x="63.623047" xlink:href="#DejaVuSans-46"/>
       <use x="95.410156" xlink:href="#DejaVuSans-50"/>
       <use x="159.033203" xlink:href="#DejaVuSans-56"/>
      </g>
     </g>
    </g>
    <g id="ytick_8">
     <g id="line2d_39">
      <g>
       <use style="stroke:#000000;stroke-width:0.5;" x="112.5" xlink:href="#mc758872c7e" y="72"/>
      </g>
     </g>
     <g id="line2d_40">
      <g>
       <use style="stroke:#000000;stroke-width:0.5;" x="635.625" xlink:href="#ma73f94f89e" y="72"/>
      </g>
     </g>
     <g id="text_19">
      <!-- 0.30 -->
      <g transform="translate(81.78125 75.31125)scale(0.12 -0.12)">
       <use xlink:href="#DejaVuSans-48"/>
       <use x="63.623047" xlink:href="#DejaVuSans-46"/>
       <use x="95.410156" xlink:href="#DejaVuSans-51"/>
       <use x="159.033203" xlink:href="#DejaVuSans-48"/>
      </g>
     </g>
    </g>
    <g id="ytick_9">
     <g id="line2d_41">
      <g>
       <use style="stroke:#000000;stroke-width:0.5;" x="112.5" xlink:href="#mc758872c7e" y="36"/>
      </g>
     </g>
     <g id="line2d_42">
      <g>
       <use style="stroke:#000000;stroke-width:0.5;" x="635.625" xlink:href="#ma73f94f89e" y="36"/>
      </g>
     </g>
     <g id="text_20">
      <!-- 0.32 -->
      <g transform="translate(81.78125 39.31125)scale(0.12 -0.12)">
       <use xlink:href="#DejaVuSans-48"/>
       <use x="63.623047" xlink:href="#DejaVuSans-46"/>
       <use x="95.410156" xlink:href="#DejaVuSans-51"/>
       <use x="159.033203" xlink:href="#DejaVuSans-50"/>
      </g>
     </g>
    </g>
    <g id="text_21">
     <!-- los -->
     <defs>
      <path d="M 9.421875 75.984375 
L 18.40625 75.984375 
L 18.40625 0 
L 9.421875 0 
z
" id="DejaVuSans-108"/>
      <path d="M 44.28125 53.078125 
L 44.28125 44.578125 
Q 40.484375 46.53125 36.375 47.5 
Q 32.28125 48.484375 27.875 48.484375 
Q 21.1875 48.484375 17.84375 46.4375 
Q 14.5 44.390625 14.5 40.28125 
Q 14.5 37.15625 16.890625 35.375 
Q 19.28125 33.59375 26.515625 31.984375 
L 29.59375 31.296875 
Q 39.15625 29.25 43.1875 25.515625 
Q 47.21875 21.78125 47.21875 15.09375 
Q 47.21875 7.46875 41.1875 3.015625 
Q 35.15625 -1.421875 24.609375 -1.421875 
Q 20.21875 -1.421875 15.453125 -0.5625 
Q 10.6875 0.296875 5.421875 2 
L 5.421875 11.28125 
Q 10.40625 8.6875 15.234375 7.390625 
Q 20.0625 6.109375 24.8125 6.109375 
Q 31.15625 6.109375 34.5625 8.28125 
Q 37.984375 10.453125 37.984375 14.40625 
Q 37.984375 18.0625 35.515625 20.015625 
Q 33.0625 21.96875 24.703125 23.78125 
L 21.578125 24.515625 
Q 13.234375 26.265625 9.515625 29.90625 
Q 5.8125 33.546875 5.8125 39.890625 
Q 5.8125 47.609375 11.28125 51.796875 
Q 16.75 56 26.8125 56 
Q 31.78125 56 36.171875 55.265625 
Q 40.578125 54.546875 44.28125 53.078125 
z
" id="DejaVuSans-115"/>
     </defs>
     <g transform="translate(74.285625 188.46375)rotate(-90)scale(0.12 -0.12)">
      <use xlink:href="#DejaVuSans-108"/>
      <use x="27.783203" xlink:href="#DejaVuSans-111"/>
      <use x="88.964844" xlink:href="#DejaVuSans-115"/>
     </g>
    </g>
   </g>
   <g id="legend_1">
    <g id="patch_7">
     <path d="M 640.623 211.399935 
L 844.21653 211.399935 
L 844.21653 148.600065 
L 640.623 148.600065 
z
" style="fill:#ffffff;stroke:#000000;stroke-linejoin:miter;"/>
    </g>
    <g id="line2d_43">
     <path d="M 647.6202 156.695263 
L 661.6146 156.695263 
" style="fill:none;stroke:#0000ff;stroke-linecap:square;stroke-width:1.2;"/>
    </g>
    <g id="line2d_44"/>
    <g id="text_22">
     <!-- Crossover_epochs5_population10 -->
     <defs>
      <path d="M 64.40625 67.28125 
L 64.40625 56.890625 
Q 59.421875 61.53125 53.78125 63.8125 
Q 48.140625 66.109375 41.796875 66.109375 
Q 29.296875 66.109375 22.65625 58.46875 
Q 16.015625 50.828125 16.015625 36.375 
Q 16.015625 21.96875 22.65625 14.328125 
Q 29.296875 6.6875 41.796875 6.6875 
Q 48.140625 6.6875 53.78125 8.984375 
Q 59.421875 11.28125 64.40625 15.921875 
L 64.40625 5.609375 
Q 59.234375 2.09375 53.4375 0.328125 
Q 47.65625 -1.421875 41.21875 -1.421875 
Q 24.65625 -1.421875 15.125 8.703125 
Q 5.609375 18.84375 5.609375 36.375 
Q 5.609375 53.953125 15.125 64.078125 
Q 24.65625 74.21875 41.21875 74.21875 
Q 47.75 74.21875 53.53125 72.484375 
Q 59.328125 70.75 64.40625 67.28125 
z
" id="DejaVuSans-67"/>
      <path d="M 2.984375 54.6875 
L 12.5 54.6875 
L 29.59375 8.796875 
L 46.6875 54.6875 
L 56.203125 54.6875 
L 35.6875 0 
L 23.484375 0 
z
" id="DejaVuSans-118"/>
      <path d="M 50.984375 -16.609375 
L 50.984375 -23.578125 
L -0.984375 -23.578125 
L -0.984375 -16.609375 
z
" id="DejaVuSans-95"/>
      <path d="M 18.109375 8.203125 
L 18.109375 -20.796875 
L 9.078125 -20.796875 
L 9.078125 54.6875 
L 18.109375 54.6875 
L 18.109375 46.390625 
Q 20.953125 51.265625 25.265625 53.625 
Q 29.59375 56 35.59375 56 
Q 45.5625 56 51.78125 48.09375 
Q 58.015625 40.1875 58.015625 27.296875 
Q 58.015625 14.40625 51.78125 6.484375 
Q 45.5625 -1.421875 35.59375 -1.421875 
Q 29.59375 -1.421875 25.265625 0.953125 
Q 20.953125 3.328125 18.109375 8.203125 
z
M 48.6875 27.296875 
Q 48.6875 37.203125 44.609375 42.84375 
Q 40.53125 48.484375 33.40625 48.484375 
Q 26.265625 48.484375 22.1875 42.84375 
Q 18.109375 37.203125 18.109375 27.296875 
Q 18.109375 17.390625 22.1875 11.75 
Q 26.265625 6.109375 33.40625 6.109375 
Q 40.53125 6.109375 44.609375 11.75 
Q 48.6875 17.390625 48.6875 27.296875 
z
" id="DejaVuSans-112"/>
      <path d="M 48.78125 52.59375 
L 48.78125 44.1875 
Q 44.96875 46.296875 41.140625 47.34375 
Q 37.3125 48.390625 33.40625 48.390625 
Q 24.65625 48.390625 19.8125 42.84375 
Q 14.984375 37.3125 14.984375 27.296875 
Q 14.984375 17.28125 19.8125 11.734375 
Q 24.65625 6.203125 33.40625 6.203125 
Q 37.3125 6.203125 41.140625 7.25 
Q 44.96875 8.296875 48.78125 10.40625 
L 48.78125 2.09375 
Q 45.015625 0.34375 40.984375 -0.53125 
Q 36.96875 -1.421875 32.421875 -1.421875 
Q 20.0625 -1.421875 12.78125 6.34375 
Q 5.515625 14.109375 5.515625 27.296875 
Q 5.515625 40.671875 12.859375 48.328125 
Q 20.21875 56 33.015625 56 
Q 37.15625 56 41.109375 55.140625 
Q 45.0625 54.296875 48.78125 52.59375 
z
" id="DejaVuSans-99"/>
      <path d="M 54.890625 33.015625 
L 54.890625 0 
L 45.90625 0 
L 45.90625 32.71875 
Q 45.90625 40.484375 42.875 44.328125 
Q 39.84375 48.1875 33.796875 48.1875 
Q 26.515625 48.1875 22.3125 43.546875 
Q 18.109375 38.921875 18.109375 30.90625 
L 18.109375 0 
L 9.078125 0 
L 9.078125 75.984375 
L 18.109375 75.984375 
L 18.109375 46.1875 
Q 21.34375 51.125 25.703125 53.5625 
Q 30.078125 56 35.796875 56 
Q 45.21875 56 50.046875 50.171875 
Q 54.890625 44.34375 54.890625 33.015625 
z
" id="DejaVuSans-104"/>
      <path d="M 8.5 21.578125 
L 8.5 54.6875 
L 17.484375 54.6875 
L 17.484375 21.921875 
Q 17.484375 14.15625 20.5 10.265625 
Q 23.53125 6.390625 29.59375 6.390625 
Q 36.859375 6.390625 41.078125 11.03125 
Q 45.3125 15.671875 45.3125 23.6875 
L 45.3125 54.6875 
L 54.296875 54.6875 
L 54.296875 0 
L 45.3125 0 
L 45.3125 8.40625 
Q 42.046875 3.421875 37.71875 1 
Q 33.40625 -1.421875 27.6875 -1.421875 
Q 18.265625 -1.421875 13.375 4.4375 
Q 8.5 10.296875 8.5 21.578125 
z
M 31.109375 56 
z
" id="DejaVuSans-117"/>
     </defs>
     <g transform="translate(672.6102 160.193863)scale(0.09996 -0.09996)">
      <use xlink:href="#DejaVuSans-67"/>
      <use x="69.824219" xlink:href="#DejaVuSans-114"/>
      <use x="108.6875" xlink:href="#DejaVuSans-111"/>
      <use x="169.869141" xlink:href="#DejaVuSans-115"/>
      <use x="221.96875" xlink:href="#DejaVuSans-115"/>
      <use x="274.068359" xlink:href="#DejaVuSans-111"/>
      <use x="335.25" xlink:href="#DejaVuSans-118"/>
      <use x="394.429688" xlink:href="#DejaVuSans-101"/>
      <use x="455.953125" xlink:href="#DejaVuSans-114"/>
      <use x="497.066406" xlink:href="#DejaVuSans-95"/>
      <use x="547.066406" xlink:href="#DejaVuSans-101"/>
      <use x="608.589844" xlink:href="#DejaVuSans-112"/>
      <use x="672.066406" xlink:href="#DejaVuSans-111"/>
      <use x="733.248047" xlink:href="#DejaVuSans-99"/>
      <use x="788.228516" xlink:href="#DejaVuSans-104"/>
      <use x="851.607422" xlink:href="#DejaVuSans-115"/>
      <use x="903.707031" xlink:href="#DejaVuSans-53"/>
      <use x="967.330078" xlink:href="#DejaVuSans-95"/>
      <use x="1017.330078" xlink:href="#DejaVuSans-112"/>
      <use x="1080.806641" xlink:href="#DejaVuSans-111"/>
      <use x="1141.988281" xlink:href="#DejaVuSans-112"/>
      <use x="1205.464844" xlink:href="#DejaVuSans-117"/>
      <use x="1268.84375" xlink:href="#DejaVuSans-108"/>
      <use x="1296.626953" xlink:href="#DejaVuSans-97"/>
      <use x="1357.90625" xlink:href="#DejaVuSans-116"/>
      <use x="1397.115234" xlink:href="#DejaVuSans-105"/>
      <use x="1424.898438" xlink:href="#DejaVuSans-111"/>
      <use x="1486.080078" xlink:href="#DejaVuSans-110"/>
      <use x="1549.458984" xlink:href="#DejaVuSans-49"/>
      <use x="1613.082031" xlink:href="#DejaVuSans-48"/>
     </g>
    </g>
    <g id="line2d_45">
     <path d="M 647.6202 171.645531 
L 661.6146 171.645531 
" style="fill:none;stroke:#008000;stroke-linecap:square;stroke-width:1.2;"/>
    </g>
    <g id="line2d_46"/>
    <g id="text_23">
     <!-- Crossover_epochs3_population17 -->
     <g transform="translate(672.6102 175.144131)scale(0.09996 -0.09996)">
      <use xlink:href="#DejaVuSans-67"/>
      <use x="69.824219" xlink:href="#DejaVuSans-114"/>
      <use x="108.6875" xlink:href="#DejaVuSans-111"/>
      <use x="169.869141" xlink:href="#DejaVuSans-115"/>
      <use x="221.96875" xlink:href="#DejaVuSans-115"/>
      <use x="274.068359" xlink:href="#DejaVuSans-111"/>
      <use x="335.25" xlink:href="#DejaVuSans-118"/>
      <use x="394.429688" xlink:href="#DejaVuSans-101"/>
      <use x="455.953125" xlink:href="#DejaVuSans-114"/>
      <use x="497.066406" xlink:href="#DejaVuSans-95"/>
      <use x="547.066406" xlink:href="#DejaVuSans-101"/>
      <use x="608.589844" xlink:href="#DejaVuSans-112"/>
      <use x="672.066406" xlink:href="#DejaVuSans-111"/>
      <use x="733.248047" xlink:href="#DejaVuSans-99"/>
      <use x="788.228516" xlink:href="#DejaVuSans-104"/>
      <use x="851.607422" xlink:href="#DejaVuSans-115"/>
      <use x="903.707031" xlink:href="#DejaVuSans-51"/>
      <use x="967.330078" xlink:href="#DejaVuSans-95"/>
      <use x="1017.330078" xlink:href="#DejaVuSans-112"/>
      <use x="1080.806641" xlink:href="#DejaVuSans-111"/>
      <use x="1141.988281" xlink:href="#DejaVuSans-112"/>
      <use x="1205.464844" xlink:href="#DejaVuSans-117"/>
      <use x="1268.84375" xlink:href="#DejaVuSans-108"/>
      <use x="1296.626953" xlink:href="#DejaVuSans-97"/>
      <use x="1357.90625" xlink:href="#DejaVuSans-116"/>
      <use x="1397.115234" xlink:href="#DejaVuSans-105"/>
      <use x="1424.898438" xlink:href="#DejaVuSans-111"/>
      <use x="1486.080078" xlink:href="#DejaVuSans-110"/>
      <use x="1549.458984" xlink:href="#DejaVuSans-49"/>
      <use x="1613.082031" xlink:href="#DejaVuSans-55"/>
     </g>
    </g>
    <g id="line2d_47">
     <path d="M 647.6202 186.595798 
L 661.6146 186.595798 
" style="fill:none;stroke:#ff0000;stroke-linecap:square;stroke-width:1.2;"/>
    </g>
    <g id="line2d_48"/>
    <g id="text_24">
     <!-- Crossover_epochs4_population13 -->
     <g transform="translate(672.6102 190.094398)scale(0.09996 -0.09996)">
      <use xlink:href="#DejaVuSans-67"/>
      <use x="69.824219" xlink:href="#DejaVuSans-114"/>
      <use x="108.6875" xlink:href="#DejaVuSans-111"/>
      <use x="169.869141" xlink:href="#DejaVuSans-115"/>
      <use x="221.96875" xlink:href="#DejaVuSans-115"/>
      <use x="274.068359" xlink:href="#DejaVuSans-111"/>
      <use x="335.25" xlink:href="#DejaVuSans-118"/>
      <use x="394.429688" xlink:href="#DejaVuSans-101"/>
      <use x="455.953125" xlink:href="#DejaVuSans-114"/>
      <use x="497.066406" xlink:href="#DejaVuSans-95"/>
      <use x="547.066406" xlink:href="#DejaVuSans-101"/>
      <use x="608.589844" xlink:href="#DejaVuSans-112"/>
      <use x="672.066406" xlink:href="#DejaVuSans-111"/>
      <use x="733.248047" xlink:href="#DejaVuSans-99"/>
      <use x="788.228516" xlink:href="#DejaVuSans-104"/>
      <use x="851.607422" xlink:href="#DejaVuSans-115"/>
      <use x="903.707031" xlink:href="#DejaVuSans-52"/>
      <use x="967.330078" xlink:href="#DejaVuSans-95"/>
      <use x="1017.330078" xlink:href="#DejaVuSans-112"/>
      <use x="1080.806641" xlink:href="#DejaVuSans-111"/>
      <use x="1141.988281" xlink:href="#DejaVuSans-112"/>
      <use x="1205.464844" xlink:href="#DejaVuSans-117"/>
      <use x="1268.84375" xlink:href="#DejaVuSans-108"/>
      <use x="1296.626953" xlink:href="#DejaVuSans-97"/>
      <use x="1357.90625" xlink:href="#DejaVuSans-116"/>
      <use x="1397.115234" xlink:href="#DejaVuSans-105"/>
      <use x="1424.898438" xlink:href="#DejaVuSans-111"/>
      <use x="1486.080078" xlink:href="#DejaVuSans-110"/>
      <use x="1549.458984" xlink:href="#DejaVuSans-49"/>
      <use x="1613.082031" xlink:href="#DejaVuSans-51"/>
     </g>
    </g>
    <g id="line2d_49">
     <path d="M 647.6202 201.546066 
L 661.6146 201.546066 
" style="fill:none;stroke:#00bfbf;stroke-linecap:square;stroke-width:1.2;"/>
    </g>
    <g id="line2d_50"/>
    <g id="text_25">
     <!-- Crossover_epochs10_population5 -->
     <g transform="translate(672.6102 205.044666)scale(0.09996 -0.09996)">
      <use xlink:href="#DejaVuSans-67"/>
      <use x="69.824219" xlink:href="#DejaVuSans-114"/>
      <use x="108.6875" xlink:href="#DejaVuSans-111"/>
      <use x="169.869141" xlink:href="#DejaVuSans-115"/>
      <use x="221.96875" xlink:href="#DejaVuSans-115"/>
      <use x="274.068359" xlink:href="#DejaVuSans-111"/>
      <use x="335.25" xlink:href="#DejaVuSans-118"/>
      <use x="394.429688" xlink:href="#DejaVuSans-101"/>
      <use x="455.953125" xlink:href="#DejaVuSans-114"/>
      <use x="497.066406" xlink:href="#DejaVuSans-95"/>
      <use x="547.066406" xlink:href="#DejaVuSans-101"/>
      <use x="608.589844" xlink:href="#DejaVuSans-112"/>
      <use x="672.066406" xlink:href="#DejaVuSans-111"/>
      <use x="733.248047" xlink:href="#DejaVuSans-99"/>
      <use x="788.228516" xlink:href="#DejaVuSans-104"/>
      <use x="851.607422" xlink:href="#DejaVuSans-115"/>
      <use x="903.707031" xlink:href="#DejaVuSans-49"/>
      <use x="967.330078" xlink:href="#DejaVuSans-48"/>
      <use x="1030.953125" xlink:href="#DejaVuSans-95"/>
      <use x="1080.953125" xlink:href="#DejaVuSans-112"/>
      <use x="1144.429688" xlink:href="#DejaVuSans-111"/>
      <use x="1205.611328" xlink:href="#DejaVuSans-112"/>
      <use x="1269.087891" xlink:href="#DejaVuSans-117"/>
      <use x="1332.466797" xlink:href="#DejaVuSans-108"/>
      <use x="1360.25" xlink:href="#DejaVuSans-97"/>
      <use x="1421.529297" xlink:href="#DejaVuSans-116"/>
      <use x="1460.738281" xlink:href="#DejaVuSans-105"/>
      <use x="1488.521484" xlink:href="#DejaVuSans-111"/>
      <use x="1549.703125" xlink:href="#DejaVuSans-110"/>
      <use x="1613.082031" xlink:href="#DejaVuSans-53"/>
     </g>
    </g>
   </g>
  </g>
  <g id="text_26">
   <!-- Average Loss -->
   <defs>
    <path d="M 34.1875 63.1875 
L 20.796875 26.90625 
L 47.609375 26.90625 
z
M 28.609375 72.90625 
L 39.796875 72.90625 
L 67.578125 0 
L 57.328125 0 
L 50.6875 18.703125 
L 17.828125 18.703125 
L 11.1875 0 
L 0.78125 0 
z
" id="DejaVuSans-65"/>
    <path id="DejaVuSans-32"/>
    <path d="M 9.8125 72.90625 
L 19.671875 72.90625 
L 19.671875 8.296875 
L 55.171875 8.296875 
L 55.171875 0 
L 9.8125 0 
z
" id="DejaVuSans-76"/>
   </defs>
   <g transform="translate(410.293125 16.318125)scale(0.12 -0.12)">
    <use xlink:href="#DejaVuSans-65"/>
    <use x="62.533203" xlink:href="#DejaVuSans-118"/>
    <use x="121.712891" xlink:href="#DejaVuSans-101"/>
    <use x="183.236328" xlink:href="#DejaVuSans-114"/>
    <use x="224.349609" xlink:href="#DejaVuSans-97"/>
    <use x="285.628906" xlink:href="#DejaVuSans-103"/>
    <use x="349.105469" xlink:href="#DejaVuSans-101"/>
    <use x="410.628906" xlink:href="#DejaVuSans-32"/>
    <use x="442.416016" xlink:href="#DejaVuSans-76"/>
    <use x="496.378906" xlink:href="#DejaVuSans-111"/>
    <use x="557.560547" xlink:href="#DejaVuSans-115"/>
    <use x="609.660156" xlink:href="#DejaVuSans-115"/>
   </g>
  </g>
 </g>
 <defs>
  <clipPath id="p382d4c9034">
   <rect height="288" width="523.125" x="112.5" y="36"/>
  </clipPath>
 </defs>
</svg>
