<?xml version="1.0" encoding="utf-8" standalone="no"?>
<!DOCTYPE svg PUBLIC "-//W3C//DTD SVG 1.1//EN"
  "http://www.w3.org/Graphics/SVG/1.1/DTD/svg11.dtd">
<!-- Created with matplotlib (https://matplotlib.org/) -->
<svg height="360pt" version="1.1" viewBox="0 0 900 360" width="900pt" xmlns="http://www.w3.org/2000/svg" xmlns:xlink="http://www.w3.org/1999/xlink">
 <defs>
  <style type="text/css">
*{stroke-linecap:butt;stroke-linejoin:round;}
  </style>
 </defs>
 <g id="figure_1">
  <g id="patch_1">
   <path d="M 0 360 
L 900 360 
L 900 0 
L 0 0 
z
" style="fill:#ffffff;"/>
  </g>
  <g id="axes_1">
   <g id="patch_2">
    <path d="M 112.5 324 
L 635.625 324 
L 635.625 36 
L 112.5 36 
z
" style="fill:#ffffff;"/>
   </g>
   <g id="line2d_1">
    <path clip-path="url(#pa94f46bf14)" d="M 112.886927 105.640905 
L 116.756195 131.962797 
L 120.625462 141.215551 
L 124.49473 138.278105 
L 128.363998 139.953366 
L 132.233266 143.240027 
L 136.102533 146.06017 
L 139.971801 146.376679 
L 143.841069 148.741298 
L 147.710337 148.034174 
L 151.579604 150.145113 
L 155.448872 154.712962 
L 159.31814 152.294912 
L 163.187408 153.18728 
L 167.056675 155.212587 
L 170.925943 150.369636 
L 174.795211 148.382263 
L 178.664479 148.521514 
L 182.533746 145.559516 
L 186.403014 147.31789 
L 190.272282 144.814863 
L 194.14155 145.415052 
L 198.010817 151.627994 
L 201.880085 152.791161 
L 209.618621 155.366966 
L 213.487888 155.161427 
L 217.357156 157.81219 
L 221.226424 158.463291 
L 225.095692 157.335439 
L 228.964959 156.699819 
L 232.834227 159.588148 
L 236.703495 163.323698 
L 240.572763 167.380499 
L 244.44203 168.413341 
L 248.311298 171.584995 
L 252.180566 172.486693 
L 256.049834 179.02454 
L 259.919101 178.887205 
L 263.788369 176.872862 
L 267.657637 177.454486 
L 271.526905 181.573869 
L 275.396172 183.565379 
L 279.26544 181.115615 
L 283.134708 180.758304 
L 287.003976 183.80724 
L 290.873243 189.264615 
L 294.742511 187.560813 
L 298.611779 189.845972 
L 302.481047 190.991746 
L 306.350314 192.386243 
L 310.219582 192.504137 
L 314.08885 190.095399 
L 317.958118 190.088279 
L 321.827385 194.206432 
L 325.696653 190.374876 
L 329.565921 191.364304 
L 333.435189 198.018211 
L 337.304456 202.441373 
L 341.173724 206.456148 
L 345.042992 208.546326 
L 352.781527 211.731025 
L 356.650795 213.618493 
L 360.520063 214.776336 
L 364.389331 215.445622 
L 368.258598 215.575072 
L 372.127866 212.535183 
L 375.997134 209.343843 
L 379.866402 212.468975 
L 383.735669 213.546649 
L 387.604937 213.255855 
L 391.474205 213.340856 
L 395.343473 214.72942 
L 399.21274 217.456884 
L 403.082008 224.010303 
L 406.951276 225.767676 
L 410.820544 227.071812 
L 414.689811 229.568673 
L 418.559079 227.619168 
L 426.297615 229.732158 
L 430.166882 230.195096 
L 434.03615 231.080682 
L 437.905418 234.360427 
L 441.774686 232.370685 
L 445.643953 236.704717 
L 453.382489 243.115307 
L 457.251757 243.867195 
L 461.121024 245.798874 
L 464.990292 245.33093 
L 468.85956 249.19864 
L 476.598095 249.601618 
L 480.467363 249.149107 
L 484.336631 248.955388 
L 488.205899 248.941768 
L 492.075166 249.975052 
L 495.944434 250.425291 
L 499.813702 252.265515 
L 503.68297 253.556889 
L 507.552237 257.101281 
L 511.421505 261.513563 
L 515.290773 263.306087 
L 519.160041 263.998532 
L 523.029308 266.797617 
L 526.898576 269.313655 
L 530.767844 271.387269 
L 534.637112 270.919927 
L 538.506379 268.599973 
L 542.375647 270.222132 
L 546.244915 272.356583 
L 550.114183 271.957175 
L 553.98345 271.13393 
L 557.852718 270.872908 
L 565.591254 273.292708 
L 569.460521 273.9156 
L 573.329789 273.009189 
L 577.199057 272.476263 
L 581.068325 272.90561 
L 584.937592 273.482493 
L 588.80686 274.463262 
L 592.676128 273.88618 
L 596.545396 272.00596 
L 600.414663 273.721203 
L 604.283931 274.798478 
L 608.153199 275.497721 
L 612.022467 275.019799 
L 615.891734 273.89672 
L 619.761002 275.517405 
L 623.63027 277.588699 
L 627.499538 275.565298 
L 627.499538 275.565298 
" style="fill:none;stroke:#0000ff;stroke-linecap:square;stroke-width:1.2;"/>
   </g>
   <g id="line2d_2">
    <path clip-path="url(#pa94f46bf14)" d="M 112.886927 72.63281 
L 116.756195 72.187172 
L 120.625462 72.125938 
L 124.49473 80.065989 
L 128.363998 76.47406 
L 132.233266 82.251448 
L 136.102533 87.196641 
L 139.971801 83.830184 
L 143.841069 92.138307 
L 147.710337 91.215997 
L 151.579604 94.518658 
L 155.448872 96.895812 
L 159.31814 101.356461 
L 163.187408 101.03703 
L 167.056675 105.281666 
L 170.925943 102.808843 
L 174.795211 112.136902 
L 178.664479 114.247984 
L 182.533746 120.59454 
L 186.403014 119.704115 
L 190.272282 121.584868 
L 198.010817 130.495898 
L 201.880085 133.396052 
L 205.749353 136.551284 
L 209.618621 138.484703 
L 213.487888 143.175567 
L 217.357156 149.434979 
L 221.226424 152.662777 
L 225.095692 158.328615 
L 228.964959 164.598114 
L 232.834227 167.355236 
L 236.703495 172.758774 
L 240.572763 174.920411 
L 244.44203 175.6906 
L 248.311298 182.278371 
L 252.180566 185.16599 
L 256.049834 180.507792 
L 259.919101 182.718492 
L 263.788369 183.462611 
L 267.657637 186.964398 
L 271.526905 189.703617 
L 275.396172 190.818178 
L 279.26544 189.808761 
L 283.134708 198.151745 
L 287.003976 199.778804 
L 290.873243 207.002332 
L 294.742511 211.574606 
L 298.611779 213.623368 
L 302.481047 214.70069 
L 306.350314 222.64924 
L 310.219582 225.294336 
L 314.08885 233.009045 
L 317.958118 234.881471 
L 321.827385 238.482174 
L 325.696653 244.029346 
L 329.565921 250.553975 
L 333.435189 253.244939 
L 337.304456 256.856928 
L 341.173724 258.150799 
L 345.042992 262.519964 
L 352.781527 267.07063 
L 356.650795 268.295652 
L 360.520063 268.963889 
L 364.389331 272.393983 
L 368.258598 272.310876 
L 372.127866 267.375073 
L 375.997134 268.61014 
L 379.866402 266.707271 
L 383.735669 265.008792 
L 387.604937 265.046714 
L 391.474205 261.903435 
L 395.343473 261.70228 
L 399.21274 266.177983 
L 403.082008 266.084268 
L 406.951276 268.835557 
L 410.820544 270.846227 
L 414.689811 269.834072 
L 422.428347 272.659473 
L 426.297615 272.826704 
L 430.166882 272.650586 
L 434.03615 271.239412 
L 437.905418 271.409767 
L 441.774686 272.800649 
L 445.643953 273.534345 
L 449.513221 273.813105 
L 453.382489 272.534598 
L 457.251757 273.065402 
L 461.121024 273.929154 
L 464.990292 270.911733 
L 468.85956 270.131475 
L 472.728828 264.132128 
L 476.598095 262.817001 
L 480.467363 261.865031 
L 484.336631 261.704274 
L 488.205899 258.420791 
L 492.075166 261.842911 
L 495.944434 261.150945 
L 499.813702 265.928855 
L 503.68297 266.616771 
L 507.552237 269.456174 
L 511.421505 268.266339 
L 515.290773 270.112976 
L 519.160041 269.298395 
L 523.029308 270.967139 
L 526.898576 268.645587 
L 530.767844 267.929637 
L 534.637112 265.524521 
L 538.506379 267.322007 
L 542.375647 268.408288 
L 546.244915 268.748113 
L 550.114183 269.314495 
L 553.98345 273.564644 
L 557.852718 275.044685 
L 561.721986 276.654856 
L 565.591254 277.444073 
L 569.460521 279.926272 
L 573.329789 280.611168 
L 577.199057 280.086349 
L 581.068325 279.833442 
L 584.937592 280.750708 
L 588.80686 283.036528 
L 592.676128 282.753461 
L 596.545396 280.158558 
L 600.414663 278.290726 
L 604.283931 279.180534 
L 608.153199 279.262476 
L 612.022467 278.676343 
L 615.891734 276.354563 
L 619.761002 274.73408 
L 623.63027 275.308935 
L 627.499538 277.399706 
L 627.499538 277.399706 
" style="fill:none;stroke:#008000;stroke-linecap:square;stroke-width:1.2;"/>
   </g>
   <g id="line2d_3">
    <path clip-path="url(#pa94f46bf14)" d="M 112.886927 89.085648 
L 116.756195 101.52617 
L 120.625462 105.978367 
L 124.49473 115.797592 
L 128.363998 117.303799 
L 132.233266 116.800037 
L 136.102533 126.003357 
L 139.971801 129.461457 
L 143.841069 132.212328 
L 147.710337 136.222476 
L 151.579604 137.458761 
L 155.448872 138.90769 
L 159.31814 146.510387 
L 163.187408 152.923952 
L 167.056675 158.576908 
L 170.925943 165.714864 
L 178.664479 178.75366 
L 182.533746 184.450521 
L 186.403014 187.76417 
L 190.272282 187.59474 
L 194.14155 189.904865 
L 198.010817 187.454571 
L 201.880085 187.162838 
L 205.749353 188.110351 
L 209.618621 189.538524 
L 213.487888 192.567848 
L 217.357156 198.345137 
L 221.226424 199.421953 
L 225.095692 205.395042 
L 228.964959 211.046189 
L 232.834227 215.036376 
L 236.703495 218.647854 
L 240.572763 221.578071 
L 244.44203 224.899278 
L 248.311298 230.433817 
L 252.180566 232.888093 
L 256.049834 236.627094 
L 259.919101 239.760635 
L 263.788369 239.934583 
L 267.657637 244.603935 
L 271.526905 245.907195 
L 275.396172 248.39339 
L 279.26544 247.656368 
L 283.134708 247.348633 
L 287.003976 248.152884 
L 290.873243 251.454136 
L 294.742511 250.36435 
L 298.611779 250.543445 
L 302.481047 251.528954 
L 310.219582 255.704575 
L 314.08885 257.411846 
L 317.958118 260.3093 
L 321.827385 263.481216 
L 325.696653 266.482492 
L 329.565921 267.43666 
L 333.435189 270.671119 
L 337.304456 272.927321 
L 341.173724 274.431631 
L 345.042992 275.155287 
L 348.91226 274.827842 
L 352.781527 276.293134 
L 356.650795 277.063907 
L 360.520063 278.76084 
L 364.389331 279.229658 
L 368.258598 279.136437 
L 372.127866 280.165152 
L 375.997134 282.523671 
L 383.735669 284.476002 
L 387.604937 284.636736 
L 391.474205 283.919889 
L 399.21274 285.978027 
L 403.082008 284.275945 
L 406.951276 285.281105 
L 410.820544 285.93761 
L 414.689811 286.217464 
L 418.559079 288.004843 
L 422.428347 288.311601 
L 426.297615 288.860468 
L 430.166882 290.287329 
L 434.03615 290.199975 
L 437.905418 289.309772 
L 441.774686 290.095002 
L 445.643953 289.526679 
L 449.513221 288.647526 
L 453.382489 289.617568 
L 457.251757 289.425225 
L 461.121024 287.668151 
L 464.990292 288.48097 
L 468.85956 287.75775 
L 472.728828 288.424811 
L 476.598095 289.57025 
L 480.467363 288.17574 
L 484.336631 288.545217 
L 488.205899 291.442806 
L 492.075166 292.69303 
L 495.944434 293.252627 
L 499.813702 293.313176 
L 503.68297 293.173695 
L 507.552237 292.880552 
L 511.421505 294.277005 
L 515.290773 293.246201 
L 519.160041 292.543878 
L 523.029308 292.599486 
L 526.898576 288.60672 
L 530.767844 287.766923 
L 534.637112 284.997044 
L 538.506379 281.739487 
L 542.375647 281.603214 
L 546.244915 279.366648 
L 550.114183 274.352451 
L 553.98345 276.5285 
L 557.852718 273.980277 
L 561.721986 275.689346 
L 565.591254 274.20392 
L 569.460521 271.598379 
L 573.329789 271.963437 
L 577.199057 274.789124 
L 581.068325 273.971142 
L 584.937592 277.186439 
L 588.80686 278.12633 
L 592.676128 280.483799 
L 596.545396 282.470864 
L 600.414663 283.548846 
L 604.283931 284.46709 
L 612.022467 285.457236 
L 615.891734 285.215369 
L 619.761002 285.676385 
L 623.63027 285.564971 
L 627.499538 285.063193 
L 631.368805 285.426677 
L 635.238073 287.937218 
L 635.238073 287.937218 
" style="fill:none;stroke:#ff0000;stroke-linecap:square;stroke-width:1.2;"/>
   </g>
   <g id="line2d_4">
    <path clip-path="url(#pa94f46bf14)" d="M 112.886927 55.801261 
L 116.756195 79.933883 
L 120.625462 85.879884 
L 124.49473 107.586724 
L 128.363998 115.096846 
L 132.233266 124.813387 
L 136.102533 132.765686 
L 139.971801 143.941069 
L 143.841069 152.611688 
L 147.710337 165.58744 
L 151.579604 176.192993 
L 155.448872 183.518117 
L 159.31814 188.876559 
L 163.187408 196.982519 
L 167.056675 202.004554 
L 170.925943 210.723931 
L 174.795211 214.932963 
L 178.664479 219.651826 
L 182.533746 226.401899 
L 186.403014 234.999879 
L 190.272282 237.860095 
L 194.14155 244.005595 
L 198.010817 248.417417 
L 201.880085 253.614447 
L 205.749353 256.200138 
L 209.618621 260.125894 
L 213.487888 260.468965 
L 217.357156 266.044797 
L 221.226424 268.738395 
L 225.095692 268.068868 
L 228.964959 265.034557 
L 232.834227 266.105311 
L 236.703495 266.059201 
L 240.572763 266.613311 
L 244.44203 264.8606 
L 248.311298 265.143275 
L 252.180566 265.9621 
L 256.049834 268.271543 
L 259.919101 270.2974 
L 263.788369 272.033678 
L 267.657637 275.990926 
L 271.526905 278.623344 
L 275.396172 276.286397 
L 279.26544 278.262532 
L 283.134708 280.100852 
L 287.003976 280.36098 
L 290.873243 280.99566 
L 294.742511 279.936462 
L 298.611779 277.827502 
L 302.481047 281.214093 
L 306.350314 279.900149 
L 310.219582 280.302967 
L 314.08885 279.812225 
L 317.958118 279.705166 
L 321.827385 280.905253 
L 325.696653 281.358525 
L 329.565921 280.579274 
L 333.435189 282.622287 
L 337.304456 281.323529 
L 341.173724 282.712116 
L 345.042992 282.459417 
L 348.91226 280.44496 
L 352.781527 280.550697 
L 356.650795 278.967987 
L 360.520063 274.593856 
L 364.389331 274.254574 
L 368.258598 272.150679 
L 372.127866 272.440785 
L 375.997134 274.180067 
L 379.866402 274.947168 
L 383.735669 276.362834 
L 387.604937 280.133182 
L 391.474205 281.826104 
L 395.343473 283.893151 
L 399.21274 285.588578 
L 403.082008 285.298956 
L 406.951276 287.633371 
L 410.820544 290.483536 
L 414.689811 291.494448 
L 418.559079 292.374027 
L 422.428347 290.985221 
L 426.297615 289.24708 
L 430.166882 291.431144 
L 434.03615 286.252919 
L 437.905418 285.945912 
L 441.774686 284.729221 
L 445.643953 283.156736 
L 449.513221 284.617486 
L 453.382489 285.010348 
L 457.251757 284.301918 
L 461.121024 284.916321 
L 464.990292 280.23968 
L 468.85956 281.073298 
L 472.728828 282.198003 
L 476.598095 281.019185 
L 480.467363 282.011993 
L 484.336631 281.637521 
L 488.205899 284.914474 
L 492.075166 289.716308 
L 499.813702 292.799269 
L 503.68297 295.735141 
L 507.552237 296.118875 
L 511.421505 298.129134 
L 515.290773 299.295209 
L 519.160041 299.703306 
L 523.029308 301.252268 
L 526.898576 301.697942 
L 530.767844 301.10249 
L 534.637112 300.236849 
L 538.506379 299.840426 
L 542.375647 297.339511 
L 546.244915 296.462936 
L 550.114183 294.46188 
L 553.98345 294.106678 
L 557.852718 294.03776 
L 561.721986 294.534171 
L 565.591254 294.325103 
L 569.460521 296.01005 
L 573.329789 296.653713 
L 577.199057 296.483493 
L 581.068325 296.455241 
L 584.937592 296.875322 
L 588.80686 297.984297 
L 592.676128 297.468389 
L 596.545396 298.85396 
L 600.414663 298.812672 
L 604.283931 299.688705 
L 608.153199 299.555274 
L 615.891734 298.941029 
L 619.761002 300.131166 
L 619.761002 300.131166 
" style="fill:none;stroke:#00bfbf;stroke-linecap:square;stroke-width:1.2;"/>
   </g>
   <g id="patch_3">
    <path d="M 112.5 324 
L 112.5 36 
" style="fill:none;stroke:#000000;stroke-linecap:square;stroke-linejoin:miter;"/>
   </g>
   <g id="patch_4">
    <path d="M 635.625 324 
L 635.625 36 
" style="fill:none;stroke:#000000;stroke-linecap:square;stroke-linejoin:miter;"/>
   </g>
   <g id="patch_5">
    <path d="M 112.5 324 
L 635.625 324 
" style="fill:none;stroke:#000000;stroke-linecap:square;stroke-linejoin:miter;"/>
   </g>
   <g id="patch_6">
    <path d="M 112.5 36 
L 635.625 36 
" style="fill:none;stroke:#000000;stroke-linecap:square;stroke-linejoin:miter;"/>
   </g>
   <g id="matplotlib.axis_1">
    <g id="xtick_1">
     <g id="line2d_5">
      <defs>
       <path d="M 0 0 
L 0 -4 
" id="m31e4d67985" style="stroke:#000000;stroke-width:0.5;"/>
      </defs>
      <g>
       <use style="stroke:#000000;stroke-width:0.5;" x="112.886927" xlink:href="#m31e4d67985" y="324"/>
      </g>
     </g>
     <g id="line2d_6">
      <defs>
       <path d="M 0 0 
L 0 4 
" id="mf9e58ca34a" style="stroke:#000000;stroke-width:0.5;"/>
      </defs>
      <g>
       <use style="stroke:#000000;stroke-width:0.5;" x="112.886927" xlink:href="#mf9e58ca34a" y="36"/>
      </g>
     </g>
     <g id="text_1">
      <!-- 0 -->
      <defs>
       <path d="M 31.78125 66.40625 
Q 24.171875 66.40625 20.328125 58.90625 
Q 16.5 51.421875 16.5 36.375 
Q 16.5 21.390625 20.328125 13.890625 
Q 24.171875 6.390625 31.78125 6.390625 
Q 39.453125 6.390625 43.28125 13.890625 
Q 47.125 21.390625 47.125 36.375 
Q 47.125 51.421875 43.28125 58.90625 
Q 39.453125 66.40625 31.78125 66.40625 
z
M 31.78125 74.21875 
Q 44.046875 74.21875 50.515625 64.515625 
Q 56.984375 54.828125 56.984375 36.375 
Q 56.984375 17.96875 50.515625 8.265625 
Q 44.046875 -1.421875 31.78125 -1.421875 
Q 19.53125 -1.421875 13.0625 8.265625 
Q 6.59375 17.96875 6.59375 36.375 
Q 6.59375 54.828125 13.0625 64.515625 
Q 19.53125 74.21875 31.78125 74.21875 
z
" id="DejaVuSans-48"/>
      </defs>
      <g transform="translate(109.069427 337.118125)scale(0.12 -0.12)">
       <use xlink:href="#DejaVuSans-48"/>
      </g>
     </g>
    </g>
    <g id="xtick_2">
     <g id="line2d_7">
      <g>
       <use style="stroke:#000000;stroke-width:0.5;" x="167.056675" xlink:href="#m31e4d67985" y="324"/>
      </g>
     </g>
     <g id="line2d_8">
      <g>
       <use style="stroke:#000000;stroke-width:0.5;" x="167.056675" xlink:href="#mf9e58ca34a" y="36"/>
      </g>
     </g>
     <g id="text_2">
      <!-- 14 -->
      <defs>
       <path d="M 12.40625 8.296875 
L 28.515625 8.296875 
L 28.515625 63.921875 
L 10.984375 60.40625 
L 10.984375 69.390625 
L 28.421875 72.90625 
L 38.28125 72.90625 
L 38.28125 8.296875 
L 54.390625 8.296875 
L 54.390625 0 
L 12.40625 0 
z
" id="DejaVuSans-49"/>
       <path d="M 37.796875 64.3125 
L 12.890625 25.390625 
L 37.796875 25.390625 
z
M 35.203125 72.90625 
L 47.609375 72.90625 
L 47.609375 25.390625 
L 58.015625 25.390625 
L 58.015625 17.1875 
L 47.609375 17.1875 
L 47.609375 0 
L 37.796875 0 
L 37.796875 17.1875 
L 4.890625 17.1875 
L 4.890625 26.703125 
z
" id="DejaVuSans-52"/>
      </defs>
      <g transform="translate(159.421675 337.118125)scale(0.12 -0.12)">
       <use xlink:href="#DejaVuSans-49"/>
       <use x="63.623047" xlink:href="#DejaVuSans-52"/>
      </g>
     </g>
    </g>
    <g id="xtick_3">
     <g id="line2d_9">
      <g>
       <use style="stroke:#000000;stroke-width:0.5;" x="221.226424" xlink:href="#m31e4d67985" y="324"/>
      </g>
     </g>
     <g id="line2d_10">
      <g>
       <use style="stroke:#000000;stroke-width:0.5;" x="221.226424" xlink:href="#mf9e58ca34a" y="36"/>
      </g>
     </g>
     <g id="text_3">
      <!-- 28 -->
      <defs>
       <path d="M 19.1875 8.296875 
L 53.609375 8.296875 
L 53.609375 0 
L 7.328125 0 
L 7.328125 8.296875 
Q 12.9375 14.109375 22.625 23.890625 
Q 32.328125 33.6875 34.8125 36.53125 
Q 39.546875 41.84375 41.421875 45.53125 
Q 43.3125 49.21875 43.3125 52.78125 
Q 43.3125 58.59375 39.234375 62.25 
Q 35.15625 65.921875 28.609375 65.921875 
Q 23.96875 65.921875 18.8125 64.3125 
Q 13.671875 62.703125 7.8125 59.421875 
L 7.8125 69.390625 
Q 13.765625 71.78125 18.9375 73 
Q 24.125 74.21875 28.421875 74.21875 
Q 39.75 74.21875 46.484375 68.546875 
Q 53.21875 62.890625 53.21875 53.421875 
Q 53.21875 48.921875 51.53125 44.890625 
Q 49.859375 40.875 45.40625 35.40625 
Q 44.1875 33.984375 37.640625 27.21875 
Q 31.109375 20.453125 19.1875 8.296875 
z
" id="DejaVuSans-50"/>
       <path d="M 31.78125 34.625 
Q 24.75 34.625 20.71875 30.859375 
Q 16.703125 27.09375 16.703125 20.515625 
Q 16.703125 13.921875 20.71875 10.15625 
Q 24.75 6.390625 31.78125 6.390625 
Q 38.8125 6.390625 42.859375 10.171875 
Q 46.921875 13.96875 46.921875 20.515625 
Q 46.921875 27.09375 42.890625 30.859375 
Q 38.875 34.625 31.78125 34.625 
z
M 21.921875 38.8125 
Q 15.578125 40.375 12.03125 44.71875 
Q 8.5 49.078125 8.5 55.328125 
Q 8.5 64.0625 14.71875 69.140625 
Q 20.953125 74.21875 31.78125 74.21875 
Q 42.671875 74.21875 48.875 69.140625 
Q 55.078125 64.0625 55.078125 55.328125 
Q 55.078125 49.078125 51.53125 44.71875 
Q 48 40.375 41.703125 38.8125 
Q 48.828125 37.15625 52.796875 32.3125 
Q 56.78125 27.484375 56.78125 20.515625 
Q 56.78125 9.90625 50.3125 4.234375 
Q 43.84375 -1.421875 31.78125 -1.421875 
Q 19.734375 -1.421875 13.25 4.234375 
Q 6.78125 9.90625 6.78125 20.515625 
Q 6.78125 27.484375 10.78125 32.3125 
Q 14.796875 37.15625 21.921875 38.8125 
z
M 18.3125 54.390625 
Q 18.3125 48.734375 21.84375 45.5625 
Q 25.390625 42.390625 31.78125 42.390625 
Q 38.140625 42.390625 41.71875 45.5625 
Q 45.3125 48.734375 45.3125 54.390625 
Q 45.3125 60.0625 41.71875 63.234375 
Q 38.140625 66.40625 31.78125 66.40625 
Q 25.390625 66.40625 21.84375 63.234375 
Q 18.3125 60.0625 18.3125 54.390625 
z
" id="DejaVuSans-56"/>
      </defs>
      <g transform="translate(213.591424 337.118125)scale(0.12 -0.12)">
       <use xlink:href="#DejaVuSans-50"/>
       <use x="63.623047" xlink:href="#DejaVuSans-56"/>
      </g>
     </g>
    </g>
    <g id="xtick_4">
     <g id="line2d_11">
      <g>
       <use style="stroke:#000000;stroke-width:0.5;" x="275.396172" xlink:href="#m31e4d67985" y="324"/>
      </g>
     </g>
     <g id="line2d_12">
      <g>
       <use style="stroke:#000000;stroke-width:0.5;" x="275.396172" xlink:href="#mf9e58ca34a" y="36"/>
      </g>
     </g>
     <g id="text_4">
      <!-- 42 -->
      <g transform="translate(267.761172 337.118125)scale(0.12 -0.12)">
       <use xlink:href="#DejaVuSans-52"/>
       <use x="63.623047" xlink:href="#DejaVuSans-50"/>
      </g>
     </g>
    </g>
    <g id="xtick_5">
     <g id="line2d_13">
      <g>
       <use style="stroke:#000000;stroke-width:0.5;" x="329.565921" xlink:href="#m31e4d67985" y="324"/>
      </g>
     </g>
     <g id="line2d_14">
      <g>
       <use style="stroke:#000000;stroke-width:0.5;" x="329.565921" xlink:href="#mf9e58ca34a" y="36"/>
      </g>
     </g>
     <g id="text_5">
      <!-- 56 -->
      <defs>
       <path d="M 10.796875 72.90625 
L 49.515625 72.90625 
L 49.515625 64.59375 
L 19.828125 64.59375 
L 19.828125 46.734375 
Q 21.96875 47.46875 24.109375 47.828125 
Q 26.265625 48.1875 28.421875 48.1875 
Q 40.625 48.1875 47.75 41.5 
Q 54.890625 34.8125 54.890625 23.390625 
Q 54.890625 11.625 47.5625 5.09375 
Q 40.234375 -1.421875 26.90625 -1.421875 
Q 22.3125 -1.421875 17.546875 -0.640625 
Q 12.796875 0.140625 7.71875 1.703125 
L 7.71875 11.625 
Q 12.109375 9.234375 16.796875 8.0625 
Q 21.484375 6.890625 26.703125 6.890625 
Q 35.15625 6.890625 40.078125 11.328125 
Q 45.015625 15.765625 45.015625 23.390625 
Q 45.015625 31 40.078125 35.4375 
Q 35.15625 39.890625 26.703125 39.890625 
Q 22.75 39.890625 18.8125 39.015625 
Q 14.890625 38.140625 10.796875 36.28125 
z
" id="DejaVuSans-53"/>
       <path d="M 33.015625 40.375 
Q 26.375 40.375 22.484375 35.828125 
Q 18.609375 31.296875 18.609375 23.390625 
Q 18.609375 15.53125 22.484375 10.953125 
Q 26.375 6.390625 33.015625 6.390625 
Q 39.65625 6.390625 43.53125 10.953125 
Q 47.40625 15.53125 47.40625 23.390625 
Q 47.40625 31.296875 43.53125 35.828125 
Q 39.65625 40.375 33.015625 40.375 
z
M 52.59375 71.296875 
L 52.59375 62.3125 
Q 48.875 64.0625 45.09375 64.984375 
Q 41.3125 65.921875 37.59375 65.921875 
Q 27.828125 65.921875 22.671875 59.328125 
Q 17.53125 52.734375 16.796875 39.40625 
Q 19.671875 43.65625 24.015625 45.921875 
Q 28.375 48.1875 33.59375 48.1875 
Q 44.578125 48.1875 50.953125 41.515625 
Q 57.328125 34.859375 57.328125 23.390625 
Q 57.328125 12.15625 50.6875 5.359375 
Q 44.046875 -1.421875 33.015625 -1.421875 
Q 20.359375 -1.421875 13.671875 8.265625 
Q 6.984375 17.96875 6.984375 36.375 
Q 6.984375 53.65625 15.1875 63.9375 
Q 23.390625 74.21875 37.203125 74.21875 
Q 40.921875 74.21875 44.703125 73.484375 
Q 48.484375 72.75 52.59375 71.296875 
z
" id="DejaVuSans-54"/>
      </defs>
      <g transform="translate(321.930921 337.118125)scale(0.12 -0.12)">
       <use xlink:href="#DejaVuSans-53"/>
       <use x="63.623047" xlink:href="#DejaVuSans-54"/>
      </g>
     </g>
    </g>
    <g id="xtick_6">
     <g id="line2d_15">
      <g>
       <use style="stroke:#000000;stroke-width:0.5;" x="383.735669" xlink:href="#m31e4d67985" y="324"/>
      </g>
     </g>
     <g id="line2d_16">
      <g>
       <use style="stroke:#000000;stroke-width:0.5;" x="383.735669" xlink:href="#mf9e58ca34a" y="36"/>
      </g>
     </g>
     <g id="text_6">
      <!-- 70 -->
      <defs>
       <path d="M 8.203125 72.90625 
L 55.078125 72.90625 
L 55.078125 68.703125 
L 28.609375 0 
L 18.3125 0 
L 43.21875 64.59375 
L 8.203125 64.59375 
z
" id="DejaVuSans-55"/>
      </defs>
      <g transform="translate(376.100669 337.118125)scale(0.12 -0.12)">
       <use xlink:href="#DejaVuSans-55"/>
       <use x="63.623047" xlink:href="#DejaVuSans-48"/>
      </g>
     </g>
    </g>
    <g id="xtick_7">
     <g id="line2d_17">
      <g>
       <use style="stroke:#000000;stroke-width:0.5;" x="437.905418" xlink:href="#m31e4d67985" y="324"/>
      </g>
     </g>
     <g id="line2d_18">
      <g>
       <use style="stroke:#000000;stroke-width:0.5;" x="437.905418" xlink:href="#mf9e58ca34a" y="36"/>
      </g>
     </g>
     <g id="text_7">
      <!-- 84 -->
      <g transform="translate(430.270418 337.118125)scale(0.12 -0.12)">
       <use xlink:href="#DejaVuSans-56"/>
       <use x="63.623047" xlink:href="#DejaVuSans-52"/>
      </g>
     </g>
    </g>
    <g id="xtick_8">
     <g id="line2d_19">
      <g>
       <use style="stroke:#000000;stroke-width:0.5;" x="492.075166" xlink:href="#m31e4d67985" y="324"/>
      </g>
     </g>
     <g id="line2d_20">
      <g>
       <use style="stroke:#000000;stroke-width:0.5;" x="492.075166" xlink:href="#mf9e58ca34a" y="36"/>
      </g>
     </g>
     <g id="text_8">
      <!-- 98 -->
      <defs>
       <path d="M 10.984375 1.515625 
L 10.984375 10.5 
Q 14.703125 8.734375 18.5 7.8125 
Q 22.3125 6.890625 25.984375 6.890625 
Q 35.75 6.890625 40.890625 13.453125 
Q 46.046875 20.015625 46.78125 33.40625 
Q 43.953125 29.203125 39.59375 26.953125 
Q 35.25 24.703125 29.984375 24.703125 
Q 19.046875 24.703125 12.671875 31.3125 
Q 6.296875 37.9375 6.296875 49.421875 
Q 6.296875 60.640625 12.9375 67.421875 
Q 19.578125 74.21875 30.609375 74.21875 
Q 43.265625 74.21875 49.921875 64.515625 
Q 56.59375 54.828125 56.59375 36.375 
Q 56.59375 19.140625 48.40625 8.859375 
Q 40.234375 -1.421875 26.421875 -1.421875 
Q 22.703125 -1.421875 18.890625 -0.6875 
Q 15.09375 0.046875 10.984375 1.515625 
z
M 30.609375 32.421875 
Q 37.25 32.421875 41.125 36.953125 
Q 45.015625 41.5 45.015625 49.421875 
Q 45.015625 57.28125 41.125 61.84375 
Q 37.25 66.40625 30.609375 66.40625 
Q 23.96875 66.40625 20.09375 61.84375 
Q 16.21875 57.28125 16.21875 49.421875 
Q 16.21875 41.5 20.09375 36.953125 
Q 23.96875 32.421875 30.609375 32.421875 
z
" id="DejaVuSans-57"/>
      </defs>
      <g transform="translate(484.440166 337.118125)scale(0.12 -0.12)">
       <use xlink:href="#DejaVuSans-57"/>
       <use x="63.623047" xlink:href="#DejaVuSans-56"/>
      </g>
     </g>
    </g>
    <g id="xtick_9">
     <g id="line2d_21">
      <g>
       <use style="stroke:#000000;stroke-width:0.5;" x="546.244915" xlink:href="#m31e4d67985" y="324"/>
      </g>
     </g>
     <g id="line2d_22">
      <g>
       <use style="stroke:#000000;stroke-width:0.5;" x="546.244915" xlink:href="#mf9e58ca34a" y="36"/>
      </g>
     </g>
     <g id="text_9">
      <!-- 112 -->
      <g transform="translate(534.792415 337.118125)scale(0.12 -0.12)">
       <use xlink:href="#DejaVuSans-49"/>
       <use x="63.623047" xlink:href="#DejaVuSans-49"/>
       <use x="127.246094" xlink:href="#DejaVuSans-50"/>
      </g>
     </g>
    </g>
    <g id="xtick_10">
     <g id="line2d_23">
      <g>
       <use style="stroke:#000000;stroke-width:0.5;" x="600.414663" xlink:href="#m31e4d67985" y="324"/>
      </g>
     </g>
     <g id="line2d_24">
      <g>
       <use style="stroke:#000000;stroke-width:0.5;" x="600.414663" xlink:href="#mf9e58ca34a" y="36"/>
      </g>
     </g>
     <g id="text_10">
      <!-- 126 -->
      <g transform="translate(588.962163 337.118125)scale(0.12 -0.12)">
       <use xlink:href="#DejaVuSans-49"/>
       <use x="63.623047" xlink:href="#DejaVuSans-50"/>
       <use x="127.246094" xlink:href="#DejaVuSans-54"/>
      </g>
     </g>
    </g>
    <g id="text_11">
     <!-- generation -->
     <defs>
      <path d="M 45.40625 27.984375 
Q 45.40625 37.75 41.375 43.109375 
Q 37.359375 48.484375 30.078125 48.484375 
Q 22.859375 48.484375 18.828125 43.109375 
Q 14.796875 37.75 14.796875 27.984375 
Q 14.796875 18.265625 18.828125 12.890625 
Q 22.859375 7.515625 30.078125 7.515625 
Q 37.359375 7.515625 41.375 12.890625 
Q 45.40625 18.265625 45.40625 27.984375 
z
M 54.390625 6.78125 
Q 54.390625 -7.171875 48.1875 -13.984375 
Q 42 -20.796875 29.203125 -20.796875 
Q 24.46875 -20.796875 20.265625 -20.09375 
Q 16.0625 -19.390625 12.109375 -17.921875 
L 12.109375 -9.1875 
Q 16.0625 -11.328125 19.921875 -12.34375 
Q 23.78125 -13.375 27.78125 -13.375 
Q 36.625 -13.375 41.015625 -8.765625 
Q 45.40625 -4.15625 45.40625 5.171875 
L 45.40625 9.625 
Q 42.625 4.78125 38.28125 2.390625 
Q 33.9375 0 27.875 0 
Q 17.828125 0 11.671875 7.65625 
Q 5.515625 15.328125 5.515625 27.984375 
Q 5.515625 40.671875 11.671875 48.328125 
Q 17.828125 56 27.875 56 
Q 33.9375 56 38.28125 53.609375 
Q 42.625 51.21875 45.40625 46.390625 
L 45.40625 54.6875 
L 54.390625 54.6875 
z
" id="DejaVuSans-103"/>
      <path d="M 56.203125 29.59375 
L 56.203125 25.203125 
L 14.890625 25.203125 
Q 15.484375 15.921875 20.484375 11.0625 
Q 25.484375 6.203125 34.421875 6.203125 
Q 39.59375 6.203125 44.453125 7.46875 
Q 49.3125 8.734375 54.109375 11.28125 
L 54.109375 2.78125 
Q 49.265625 0.734375 44.1875 -0.34375 
Q 39.109375 -1.421875 33.890625 -1.421875 
Q 20.796875 -1.421875 13.15625 6.1875 
Q 5.515625 13.8125 5.515625 26.8125 
Q 5.515625 40.234375 12.765625 48.109375 
Q 20.015625 56 32.328125 56 
Q 43.359375 56 49.78125 48.890625 
Q 56.203125 41.796875 56.203125 29.59375 
z
M 47.21875 32.234375 
Q 47.125 39.59375 43.09375 43.984375 
Q 39.0625 48.390625 32.421875 48.390625 
Q 24.90625 48.390625 20.390625 44.140625 
Q 15.875 39.890625 15.1875 32.171875 
z
" id="DejaVuSans-101"/>
      <path d="M 54.890625 33.015625 
L 54.890625 0 
L 45.90625 0 
L 45.90625 32.71875 
Q 45.90625 40.484375 42.875 44.328125 
Q 39.84375 48.1875 33.796875 48.1875 
Q 26.515625 48.1875 22.3125 43.546875 
Q 18.109375 38.921875 18.109375 30.90625 
L 18.109375 0 
L 9.078125 0 
L 9.078125 54.6875 
L 18.109375 54.6875 
L 18.109375 46.1875 
Q 21.34375 51.125 25.703125 53.5625 
Q 30.078125 56 35.796875 56 
Q 45.21875 56 50.046875 50.171875 
Q 54.890625 44.34375 54.890625 33.015625 
z
" id="DejaVuSans-110"/>
      <path d="M 41.109375 46.296875 
Q 39.59375 47.171875 37.8125 47.578125 
Q 36.03125 48 33.890625 48 
Q 26.265625 48 22.1875 43.046875 
Q 18.109375 38.09375 18.109375 28.8125 
L 18.109375 0 
L 9.078125 0 
L 9.078125 54.6875 
L 18.109375 54.6875 
L 18.109375 46.1875 
Q 20.953125 51.171875 25.484375 53.578125 
Q 30.03125 56 36.53125 56 
Q 37.453125 56 38.578125 55.875 
Q 39.703125 55.765625 41.0625 55.515625 
z
" id="DejaVuSans-114"/>
      <path d="M 34.28125 27.484375 
Q 23.390625 27.484375 19.1875 25 
Q 14.984375 22.515625 14.984375 16.5 
Q 14.984375 11.71875 18.140625 8.90625 
Q 21.296875 6.109375 26.703125 6.109375 
Q 34.1875 6.109375 38.703125 11.40625 
Q 43.21875 16.703125 43.21875 25.484375 
L 43.21875 27.484375 
z
M 52.203125 31.203125 
L 52.203125 0 
L 43.21875 0 
L 43.21875 8.296875 
Q 40.140625 3.328125 35.546875 0.953125 
Q 30.953125 -1.421875 24.3125 -1.421875 
Q 15.921875 -1.421875 10.953125 3.296875 
Q 6 8.015625 6 15.921875 
Q 6 25.140625 12.171875 29.828125 
Q 18.359375 34.515625 30.609375 34.515625 
L 43.21875 34.515625 
L 43.21875 35.40625 
Q 43.21875 41.609375 39.140625 45 
Q 35.0625 48.390625 27.6875 48.390625 
Q 23 48.390625 18.546875 47.265625 
Q 14.109375 46.140625 10.015625 43.890625 
L 10.015625 52.203125 
Q 14.9375 54.109375 19.578125 55.046875 
Q 24.21875 56 28.609375 56 
Q 40.484375 56 46.34375 49.84375 
Q 52.203125 43.703125 52.203125 31.203125 
z
" id="DejaVuSans-97"/>
      <path d="M 18.3125 70.21875 
L 18.3125 54.6875 
L 36.8125 54.6875 
L 36.8125 47.703125 
L 18.3125 47.703125 
L 18.3125 18.015625 
Q 18.3125 11.328125 20.140625 9.421875 
Q 21.96875 7.515625 27.59375 7.515625 
L 36.8125 7.515625 
L 36.8125 0 
L 27.59375 0 
Q 17.1875 0 13.234375 3.875 
Q 9.28125 7.765625 9.28125 18.015625 
L 9.28125 47.703125 
L 2.6875 47.703125 
L 2.6875 54.6875 
L 9.28125 54.6875 
L 9.28125 70.21875 
z
" id="DejaVuSans-116"/>
      <path d="M 9.421875 54.6875 
L 18.40625 54.6875 
L 18.40625 0 
L 9.421875 0 
z
M 9.421875 75.984375 
L 18.40625 75.984375 
L 18.40625 64.59375 
L 9.421875 64.59375 
z
" id="DejaVuSans-105"/>
      <path d="M 30.609375 48.390625 
Q 23.390625 48.390625 19.1875 42.75 
Q 14.984375 37.109375 14.984375 27.296875 
Q 14.984375 17.484375 19.15625 11.84375 
Q 23.34375 6.203125 30.609375 6.203125 
Q 37.796875 6.203125 41.984375 11.859375 
Q 46.1875 17.53125 46.1875 27.296875 
Q 46.1875 37.015625 41.984375 42.703125 
Q 37.796875 48.390625 30.609375 48.390625 
z
M 30.609375 56 
Q 42.328125 56 49.015625 48.375 
Q 55.71875 40.765625 55.71875 27.296875 
Q 55.71875 13.875 49.015625 6.21875 
Q 42.328125 -1.421875 30.609375 -1.421875 
Q 18.84375 -1.421875 12.171875 6.21875 
Q 5.515625 13.875 5.515625 27.296875 
Q 5.515625 40.765625 12.171875 48.375 
Q 18.84375 56 30.609375 56 
z
" id="DejaVuSans-111"/>
     </defs>
     <g transform="translate(341.430938 353.731875)scale(0.12 -0.12)">
      <use xlink:href="#DejaVuSans-103"/>
      <use x="63.476562" xlink:href="#DejaVuSans-101"/>
      <use x="125" xlink:href="#DejaVuSans-110"/>
      <use x="188.378906" xlink:href="#DejaVuSans-101"/>
      <use x="249.902344" xlink:href="#DejaVuSans-114"/>
      <use x="291.015625" xlink:href="#DejaVuSans-97"/>
      <use x="352.294922" xlink:href="#DejaVuSans-116"/>
      <use x="391.503906" xlink:href="#DejaVuSans-105"/>
      <use x="419.287109" xlink:href="#DejaVuSans-111"/>
      <use x="480.46875" xlink:href="#DejaVuSans-110"/>
     </g>
    </g>
   </g>
   <g id="matplotlib.axis_2">
    <g id="ytick_1">
     <g id="line2d_25">
      <defs>
       <path d="M 0 0 
L 4 0 
" id="m810e54c2c0" style="stroke:#000000;stroke-width:0.5;"/>
      </defs>
      <g>
       <use style="stroke:#000000;stroke-width:0.5;" x="112.5" xlink:href="#m810e54c2c0" y="324"/>
      </g>
     </g>
     <g id="line2d_26">
      <defs>
       <path d="M 0 0 
L -4 0 
" id="mf000f5793a" style="stroke:#000000;stroke-width:0.5;"/>
      </defs>
      <g>
       <use style="stroke:#000000;stroke-width:0.5;" x="635.625" xlink:href="#mf000f5793a" y="324"/>
      </g>
     </g>
     <g id="text_12">
      <!-- 0.16 -->
      <defs>
       <path d="M 10.6875 12.40625 
L 21 12.40625 
L 21 0 
L 10.6875 0 
z
" id="DejaVuSans-46"/>
      </defs>
      <g transform="translate(81.78125 327.31125)scale(0.12 -0.12)">
       <use xlink:href="#DejaVuSans-48"/>
       <use x="63.623047" xlink:href="#DejaVuSans-46"/>
       <use x="95.410156" xlink:href="#DejaVuSans-49"/>
       <use x="159.033203" xlink:href="#DejaVuSans-54"/>
      </g>
     </g>
    </g>
    <g id="ytick_2">
     <g id="line2d_27">
      <g>
       <use style="stroke:#000000;stroke-width:0.5;" x="112.5" xlink:href="#m810e54c2c0" y="288"/>
      </g>
     </g>
     <g id="line2d_28">
      <g>
       <use style="stroke:#000000;stroke-width:0.5;" x="635.625" xlink:href="#mf000f5793a" y="288"/>
      </g>
     </g>
     <g id="text_13">
      <!-- 0.18 -->
      <g transform="translate(81.78125 291.31125)scale(0.12 -0.12)">
       <use xlink:href="#DejaVuSans-48"/>
       <use x="63.623047" xlink:href="#DejaVuSans-46"/>
       <use x="95.410156" xlink:href="#DejaVuSans-49"/>
       <use x="159.033203" xlink:href="#DejaVuSans-56"/>
      </g>
     </g>
    </g>
    <g id="ytick_3">
     <g id="line2d_29">
      <g>
       <use style="stroke:#000000;stroke-width:0.5;" x="112.5" xlink:href="#m810e54c2c0" y="252"/>
      </g>
     </g>
     <g id="line2d_30">
      <g>
       <use style="stroke:#000000;stroke-width:0.5;" x="635.625" xlink:href="#mf000f5793a" y="252"/>
      </g>
     </g>
     <g id="text_14">
      <!-- 0.20 -->
      <g transform="translate(81.78125 255.31125)scale(0.12 -0.12)">
       <use xlink:href="#DejaVuSans-48"/>
       <use x="63.623047" xlink:href="#DejaVuSans-46"/>
       <use x="95.410156" xlink:href="#DejaVuSans-50"/>
       <use x="159.033203" xlink:href="#DejaVuSans-48"/>
      </g>
     </g>
    </g>
    <g id="ytick_4">
     <g id="line2d_31">
      <g>
       <use style="stroke:#000000;stroke-width:0.5;" x="112.5" xlink:href="#m810e54c2c0" y="216"/>
      </g>
     </g>
     <g id="line2d_32">
      <g>
       <use style="stroke:#000000;stroke-width:0.5;" x="635.625" xlink:href="#mf000f5793a" y="216"/>
      </g>
     </g>
     <g id="text_15">
      <!-- 0.22 -->
      <g transform="translate(81.78125 219.31125)scale(0.12 -0.12)">
       <use xlink:href="#DejaVuSans-48"/>
       <use x="63.623047" xlink:href="#DejaVuSans-46"/>
       <use x="95.410156" xlink:href="#DejaVuSans-50"/>
       <use x="159.033203" xlink:href="#DejaVuSans-50"/>
      </g>
     </g>
    </g>
    <g id="ytick_5">
     <g id="line2d_33">
      <g>
       <use style="stroke:#000000;stroke-width:0.5;" x="112.5" xlink:href="#m810e54c2c0" y="180"/>
      </g>
     </g>
     <g id="line2d_34">
      <g>
       <use style="stroke:#000000;stroke-width:0.5;" x="635.625" xlink:href="#mf000f5793a" y="180"/>
      </g>
     </g>
     <g id="text_16">
      <!-- 0.24 -->
      <g transform="translate(81.78125 183.31125)scale(0.12 -0.12)">
       <use xlink:href="#DejaVuSans-48"/>
       <use x="63.623047" xlink:href="#DejaVuSans-46"/>
       <use x="95.410156" xlink:href="#DejaVuSans-50"/>
       <use x="159.033203" xlink:href="#DejaVuSans-52"/>
      </g>
     </g>
    </g>
    <g id="ytick_6">
     <g id="line2d_35">
      <g>
       <use style="stroke:#000000;stroke-width:0.5;" x="112.5" xlink:href="#m810e54c2c0" y="144"/>
      </g>
     </g>
     <g id="line2d_36">
      <g>
       <use style="stroke:#000000;stroke-width:0.5;" x="635.625" xlink:href="#mf000f5793a" y="144"/>
      </g>
     </g>
     <g id="text_17">
      <!-- 0.26 -->
      <g transform="translate(81.78125 147.31125)scale(0.12 -0.12)">
       <use xlink:href="#DejaVuSans-48"/>
       <use x="63.623047" xlink:href="#DejaVuSans-46"/>
       <use x="95.410156" xlink:href="#DejaVuSans-50"/>
       <use x="159.033203" xlink:href="#DejaVuSans-54"/>
      </g>
     </g>
    </g>
    <g id="ytick_7">
     <g id="line2d_37">
      <g>
       <use style="stroke:#000000;stroke-width:0.5;" x="112.5" xlink:href="#m810e54c2c0" y="108"/>
      </g>
     </g>
     <g id="line2d_38">
      <g>
       <use style="stroke:#000000;stroke-width:0.5;" x="635.625" xlink:href="#mf000f5793a" y="108"/>
      </g>
     </g>
     <g id="text_18">
      <!-- 0.28 -->
      <g transform="translate(81.78125 111.31125)scale(0.12 -0.12)">
       <use xlink:href="#DejaVuSans-48"/>
       <use x="63.623047" xlink:href="#DejaVuSans-46"/>
       <use x="95.410156" xlink:href="#DejaVuSans-50"/>
       <use x="159.033203" xlink:href="#DejaVuSans-56"/>
      </g>
     </g>
    </g>
    <g id="ytick_8">
     <g id="line2d_39">
      <g>
       <use style="stroke:#000000;stroke-width:0.5;" x="112.5" xlink:href="#m810e54c2c0" y="72"/>
      </g>
     </g>
     <g id="line2d_40">
      <g>
       <use style="stroke:#000000;stroke-width:0.5;" x="635.625" xlink:href="#mf000f5793a" y="72"/>
      </g>
     </g>
     <g id="text_19">
      <!-- 0.30 -->
      <defs>
       <path d="M 40.578125 39.3125 
Q 47.65625 37.796875 51.625 33 
Q 55.609375 28.21875 55.609375 21.1875 
Q 55.609375 10.40625 48.1875 4.484375 
Q 40.765625 -1.421875 27.09375 -1.421875 
Q 22.515625 -1.421875 17.65625 -0.515625 
Q 12.796875 0.390625 7.625 2.203125 
L 7.625 11.71875 
Q 11.71875 9.328125 16.59375 8.109375 
Q 21.484375 6.890625 26.8125 6.890625 
Q 36.078125 6.890625 40.9375 10.546875 
Q 45.796875 14.203125 45.796875 21.1875 
Q 45.796875 27.640625 41.28125 31.265625 
Q 36.765625 34.90625 28.71875 34.90625 
L 20.21875 34.90625 
L 20.21875 43.015625 
L 29.109375 43.015625 
Q 36.375 43.015625 40.234375 45.921875 
Q 44.09375 48.828125 44.09375 54.296875 
Q 44.09375 59.90625 40.109375 62.90625 
Q 36.140625 65.921875 28.71875 65.921875 
Q 24.65625 65.921875 20.015625 65.03125 
Q 15.375 64.15625 9.8125 62.3125 
L 9.8125 71.09375 
Q 15.4375 72.65625 20.34375 73.4375 
Q 25.25 74.21875 29.59375 74.21875 
Q 40.828125 74.21875 47.359375 69.109375 
Q 53.90625 64.015625 53.90625 55.328125 
Q 53.90625 49.265625 50.4375 45.09375 
Q 46.96875 40.921875 40.578125 39.3125 
z
" id="DejaVuSans-51"/>
      </defs>
      <g transform="translate(81.78125 75.31125)scale(0.12 -0.12)">
       <use xlink:href="#DejaVuSans-48"/>
       <use x="63.623047" xlink:href="#DejaVuSans-46"/>
       <use x="95.410156" xlink:href="#DejaVuSans-51"/>
       <use x="159.033203" xlink:href="#DejaVuSans-48"/>
      </g>
     </g>
    </g>
    <g id="ytick_9">
     <g id="line2d_41">
      <g>
       <use style="stroke:#000000;stroke-width:0.5;" x="112.5" xlink:href="#m810e54c2c0" y="36"/>
      </g>
     </g>
     <g id="line2d_42">
      <g>
       <use style="stroke:#000000;stroke-width:0.5;" x="635.625" xlink:href="#mf000f5793a" y="36"/>
      </g>
     </g>
     <g id="text_20">
      <!-- 0.32 -->
      <g transform="translate(81.78125 39.31125)scale(0.12 -0.12)">
       <use xlink:href="#DejaVuSans-48"/>
       <use x="63.623047" xlink:href="#DejaVuSans-46"/>
       <use x="95.410156" xlink:href="#DejaVuSans-51"/>
       <use x="159.033203" xlink:href="#DejaVuSans-50"/>
      </g>
     </g>
    </g>
    <g id="text_21">
     <!-- los -->
     <defs>
      <path d="M 9.421875 75.984375 
L 18.40625 75.984375 
L 18.40625 0 
L 9.421875 0 
z
" id="DejaVuSans-108"/>
      <path d="M 44.28125 53.078125 
L 44.28125 44.578125 
Q 40.484375 46.53125 36.375 47.5 
Q 32.28125 48.484375 27.875 48.484375 
Q 21.1875 48.484375 17.84375 46.4375 
Q 14.5 44.390625 14.5 40.28125 
Q 14.5 37.15625 16.890625 35.375 
Q 19.28125 33.59375 26.515625 31.984375 
L 29.59375 31.296875 
Q 39.15625 29.25 43.1875 25.515625 
Q 47.21875 21.78125 47.21875 15.09375 
Q 47.21875 7.46875 41.1875 3.015625 
Q 35.15625 -1.421875 24.609375 -1.421875 
Q 20.21875 -1.421875 15.453125 -0.5625 
Q 10.6875 0.296875 5.421875 2 
L 5.421875 11.28125 
Q 10.40625 8.6875 15.234375 7.390625 
Q 20.0625 6.109375 24.8125 6.109375 
Q 31.15625 6.109375 34.5625 8.28125 
Q 37.984375 10.453125 37.984375 14.40625 
Q 37.984375 18.0625 35.515625 20.015625 
Q 33.0625 21.96875 24.703125 23.78125 
L 21.578125 24.515625 
Q 13.234375 26.265625 9.515625 29.90625 
Q 5.8125 33.546875 5.8125 39.890625 
Q 5.8125 47.609375 11.28125 51.796875 
Q 16.75 56 26.8125 56 
Q 31.78125 56 36.171875 55.265625 
Q 40.578125 54.546875 44.28125 53.078125 
z
" id="DejaVuSans-115"/>
     </defs>
     <g transform="translate(74.285625 188.46375)rotate(-90)scale(0.12 -0.12)">
      <use xlink:href="#DejaVuSans-108"/>
      <use x="27.783203" xlink:href="#DejaVuSans-111"/>
      <use x="88.964844" xlink:href="#DejaVuSans-115"/>
     </g>
    </g>
   </g>
   <g id="legend_1">
    <g id="patch_7">
     <path d="M 640.623 211.399935 
L 797.452431 211.399935 
L 797.452431 148.600065 
L 640.623 148.600065 
z
" style="fill:#ffffff;stroke:#000000;stroke-linejoin:miter;"/>
    </g>
    <g id="line2d_43">
     <path d="M 647.6202 156.695263 
L 661.6146 156.695263 
" style="fill:none;stroke:#0000ff;stroke-linecap:square;stroke-width:1.2;"/>
    </g>
    <g id="line2d_44"/>
    <g id="text_22">
     <!-- Crossover_mutation_0.2 -->
     <defs>
      <path d="M 64.40625 67.28125 
L 64.40625 56.890625 
Q 59.421875 61.53125 53.78125 63.8125 
Q 48.140625 66.109375 41.796875 66.109375 
Q 29.296875 66.109375 22.65625 58.46875 
Q 16.015625 50.828125 16.015625 36.375 
Q 16.015625 21.96875 22.65625 14.328125 
Q 29.296875 6.6875 41.796875 6.6875 
Q 48.140625 6.6875 53.78125 8.984375 
Q 59.421875 11.28125 64.40625 15.921875 
L 64.40625 5.609375 
Q 59.234375 2.09375 53.4375 0.328125 
Q 47.65625 -1.421875 41.21875 -1.421875 
Q 24.65625 -1.421875 15.125 8.703125 
Q 5.609375 18.84375 5.609375 36.375 
Q 5.609375 53.953125 15.125 64.078125 
Q 24.65625 74.21875 41.21875 74.21875 
Q 47.75 74.21875 53.53125 72.484375 
Q 59.328125 70.75 64.40625 67.28125 
z
" id="DejaVuSans-67"/>
      <path d="M 2.984375 54.6875 
L 12.5 54.6875 
L 29.59375 8.796875 
L 46.6875 54.6875 
L 56.203125 54.6875 
L 35.6875 0 
L 23.484375 0 
z
" id="DejaVuSans-118"/>
      <path d="M 50.984375 -16.609375 
L 50.984375 -23.578125 
L -0.984375 -23.578125 
L -0.984375 -16.609375 
z
" id="DejaVuSans-95"/>
      <path d="M 52 44.1875 
Q 55.375 50.25 60.0625 53.125 
Q 64.75 56 71.09375 56 
Q 79.640625 56 84.28125 50.015625 
Q 88.921875 44.046875 88.921875 33.015625 
L 88.921875 0 
L 79.890625 0 
L 79.890625 32.71875 
Q 79.890625 40.578125 77.09375 44.375 
Q 74.3125 48.1875 68.609375 48.1875 
Q 61.625 48.1875 57.5625 43.546875 
Q 53.515625 38.921875 53.515625 30.90625 
L 53.515625 0 
L 44.484375 0 
L 44.484375 32.71875 
Q 44.484375 40.625 41.703125 44.40625 
Q 38.921875 48.1875 33.109375 48.1875 
Q 26.21875 48.1875 22.15625 43.53125 
Q 18.109375 38.875 18.109375 30.90625 
L 18.109375 0 
L 9.078125 0 
L 9.078125 54.6875 
L 18.109375 54.6875 
L 18.109375 46.1875 
Q 21.1875 51.21875 25.484375 53.609375 
Q 29.78125 56 35.6875 56 
Q 41.65625 56 45.828125 52.96875 
Q 50 49.953125 52 44.1875 
z
" id="DejaVuSans-109"/>
      <path d="M 8.5 21.578125 
L 8.5 54.6875 
L 17.484375 54.6875 
L 17.484375 21.921875 
Q 17.484375 14.15625 20.5 10.265625 
Q 23.53125 6.390625 29.59375 6.390625 
Q 36.859375 6.390625 41.078125 11.03125 
Q 45.3125 15.671875 45.3125 23.6875 
L 45.3125 54.6875 
L 54.296875 54.6875 
L 54.296875 0 
L 45.3125 0 
L 45.3125 8.40625 
Q 42.046875 3.421875 37.71875 1 
Q 33.40625 -1.421875 27.6875 -1.421875 
Q 18.265625 -1.421875 13.375 4.4375 
Q 8.5 10.296875 8.5 21.578125 
z
M 31.109375 56 
z
" id="DejaVuSans-117"/>
     </defs>
     <g transform="translate(672.6102 160.193863)scale(0.09996 -0.09996)">
      <use xlink:href="#DejaVuSans-67"/>
      <use x="69.824219" xlink:href="#DejaVuSans-114"/>
      <use x="108.6875" xlink:href="#DejaVuSans-111"/>
      <use x="169.869141" xlink:href="#DejaVuSans-115"/>
      <use x="221.96875" xlink:href="#DejaVuSans-115"/>
      <use x="274.068359" xlink:href="#DejaVuSans-111"/>
      <use x="335.25" xlink:href="#DejaVuSans-118"/>
      <use x="394.429688" xlink:href="#DejaVuSans-101"/>
      <use x="455.953125" xlink:href="#DejaVuSans-114"/>
      <use x="497.066406" xlink:href="#DejaVuSans-95"/>
      <use x="547.066406" xlink:href="#DejaVuSans-109"/>
      <use x="644.478516" xlink:href="#DejaVuSans-117"/>
      <use x="707.857422" xlink:href="#DejaVuSans-116"/>
      <use x="747.066406" xlink:href="#DejaVuSans-97"/>
      <use x="808.345703" xlink:href="#DejaVuSans-116"/>
      <use x="847.554688" xlink:href="#DejaVuSans-105"/>
      <use x="875.337891" xlink:href="#DejaVuSans-111"/>
      <use x="936.519531" xlink:href="#DejaVuSans-110"/>
      <use x="999.898438" xlink:href="#DejaVuSans-95"/>
      <use x="1049.898438" xlink:href="#DejaVuSans-48"/>
      <use x="1113.521484" xlink:href="#DejaVuSans-46"/>
      <use x="1145.308594" xlink:href="#DejaVuSans-50"/>
     </g>
    </g>
    <g id="line2d_45">
     <path d="M 647.6202 171.645531 
L 661.6146 171.645531 
" style="fill:none;stroke:#008000;stroke-linecap:square;stroke-width:1.2;"/>
    </g>
    <g id="line2d_46"/>
    <g id="text_23">
     <!-- Crossover_mutation_0.4 -->
     <g transform="translate(672.6102 175.144131)scale(0.09996 -0.09996)">
      <use xlink:href="#DejaVuSans-67"/>
      <use x="69.824219" xlink:href="#DejaVuSans-114"/>
      <use x="108.6875" xlink:href="#DejaVuSans-111"/>
      <use x="169.869141" xlink:href="#DejaVuSans-115"/>
      <use x="221.96875" xlink:href="#DejaVuSans-115"/>
      <use x="274.068359" xlink:href="#DejaVuSans-111"/>
      <use x="335.25" xlink:href="#DejaVuSans-118"/>
      <use x="394.429688" xlink:href="#DejaVuSans-101"/>
      <use x="455.953125" xlink:href="#DejaVuSans-114"/>
      <use x="497.066406" xlink:href="#DejaVuSans-95"/>
      <use x="547.066406" xlink:href="#DejaVuSans-109"/>
      <use x="644.478516" xlink:href="#DejaVuSans-117"/>
      <use x="707.857422" xlink:href="#DejaVuSans-116"/>
      <use x="747.066406" xlink:href="#DejaVuSans-97"/>
      <use x="808.345703" xlink:href="#DejaVuSans-116"/>
      <use x="847.554688" xlink:href="#DejaVuSans-105"/>
      <use x="875.337891" xlink:href="#DejaVuSans-111"/>
      <use x="936.519531" xlink:href="#DejaVuSans-110"/>
      <use x="999.898438" xlink:href="#DejaVuSans-95"/>
      <use x="1049.898438" xlink:href="#DejaVuSans-48"/>
      <use x="1113.521484" xlink:href="#DejaVuSans-46"/>
      <use x="1145.308594" xlink:href="#DejaVuSans-52"/>
     </g>
    </g>
    <g id="line2d_47">
     <path d="M 647.6202 186.595798 
L 661.6146 186.595798 
" style="fill:none;stroke:#ff0000;stroke-linecap:square;stroke-width:1.2;"/>
    </g>
    <g id="line2d_48"/>
    <g id="text_24">
     <!-- Crossover_mutation_0.6 -->
     <g transform="translate(672.6102 190.094398)scale(0.09996 -0.09996)">
      <use xlink:href="#DejaVuSans-67"/>
      <use x="69.824219" xlink:href="#DejaVuSans-114"/>
      <use x="108.6875" xlink:href="#DejaVuSans-111"/>
      <use x="169.869141" xlink:href="#DejaVuSans-115"/>
      <use x="221.96875" xlink:href="#DejaVuSans-115"/>
      <use x="274.068359" xlink:href="#DejaVuSans-111"/>
      <use x="335.25" xlink:href="#DejaVuSans-118"/>
      <use x="394.429688" xlink:href="#DejaVuSans-101"/>
      <use x="455.953125" xlink:href="#DejaVuSans-114"/>
      <use x="497.066406" xlink:href="#DejaVuSans-95"/>
      <use x="547.066406" xlink:href="#DejaVuSans-109"/>
      <use x="644.478516" xlink:href="#DejaVuSans-117"/>
      <use x="707.857422" xlink:href="#DejaVuSans-116"/>
      <use x="747.066406" xlink:href="#DejaVuSans-97"/>
      <use x="808.345703" xlink:href="#DejaVuSans-116"/>
      <use x="847.554688" xlink:href="#DejaVuSans-105"/>
      <use x="875.337891" xlink:href="#DejaVuSans-111"/>
      <use x="936.519531" xlink:href="#DejaVuSans-110"/>
      <use x="999.898438" xlink:href="#DejaVuSans-95"/>
      <use x="1049.898438" xlink:href="#DejaVuSans-48"/>
      <use x="1113.521484" xlink:href="#DejaVuSans-46"/>
      <use x="1145.308594" xlink:href="#DejaVuSans-54"/>
     </g>
    </g>
    <g id="line2d_49">
     <path d="M 647.6202 201.546066 
L 661.6146 201.546066 
" style="fill:none;stroke:#00bfbf;stroke-linecap:square;stroke-width:1.2;"/>
    </g>
    <g id="line2d_50"/>
    <g id="text_25">
     <!-- Crossover_mutation_0.8 -->
     <g transform="translate(672.6102 205.044666)scale(0.09996 -0.09996)">
      <use xlink:href="#DejaVuSans-67"/>
      <use x="69.824219" xlink:href="#DejaVuSans-114"/>
      <use x="108.6875" xlink:href="#DejaVuSans-111"/>
      <use x="169.869141" xlink:href="#DejaVuSans-115"/>
      <use x="221.96875" xlink:href="#DejaVuSans-115"/>
      <use x="274.068359" xlink:href="#DejaVuSans-111"/>
      <use x="335.25" xlink:href="#DejaVuSans-118"/>
      <use x="394.429688" xlink:href="#DejaVuSans-101"/>
      <use x="455.953125" xlink:href="#DejaVuSans-114"/>
      <use x="497.066406" xlink:href="#DejaVuSans-95"/>
      <use x="547.066406" xlink:href="#DejaVuSans-109"/>
      <use x="644.478516" xlink:href="#DejaVuSans-117"/>
      <use x="707.857422" xlink:href="#DejaVuSans-116"/>
      <use x="747.066406" xlink:href="#DejaVuSans-97"/>
      <use x="808.345703" xlink:href="#DejaVuSans-116"/>
      <use x="847.554688" xlink:href="#DejaVuSans-105"/>
      <use x="875.337891" xlink:href="#DejaVuSans-111"/>
      <use x="936.519531" xlink:href="#DejaVuSans-110"/>
      <use x="999.898438" xlink:href="#DejaVuSans-95"/>
      <use x="1049.898438" xlink:href="#DejaVuSans-48"/>
      <use x="1113.521484" xlink:href="#DejaVuSans-46"/>
      <use x="1145.308594" xlink:href="#DejaVuSans-56"/>
     </g>
    </g>
   </g>
  </g>
  <g id="text_26">
   <!-- Average Loss -->
   <defs>
    <path d="M 34.1875 63.1875 
L 20.796875 26.90625 
L 47.609375 26.90625 
z
M 28.609375 72.90625 
L 39.796875 72.90625 
L 67.578125 0 
L 57.328125 0 
L 50.6875 18.703125 
L 17.828125 18.703125 
L 11.1875 0 
L 0.78125 0 
z
" id="DejaVuSans-65"/>
    <path id="DejaVuSans-32"/>
    <path d="M 9.8125 72.90625 
L 19.671875 72.90625 
L 19.671875 8.296875 
L 55.171875 8.296875 
L 55.171875 0 
L 9.8125 0 
z
" id="DejaVuSans-76"/>
   </defs>
   <g transform="translate(410.293125 16.318125)scale(0.12 -0.12)">
    <use xlink:href="#DejaVuSans-65"/>
    <use x="62.533203" xlink:href="#DejaVuSans-118"/>
    <use x="121.712891" xlink:href="#DejaVuSans-101"/>
    <use x="183.236328" xlink:href="#DejaVuSans-114"/>
    <use x="224.349609" xlink:href="#DejaVuSans-97"/>
    <use x="285.628906" xlink:href="#DejaVuSans-103"/>
    <use x="349.105469" xlink:href="#DejaVuSans-101"/>
    <use x="410.628906" xlink:href="#DejaVuSans-32"/>
    <use x="442.416016" xlink:href="#DejaVuSans-76"/>
    <use x="496.378906" xlink:href="#DejaVuSans-111"/>
    <use x="557.560547" xlink:href="#DejaVuSans-115"/>
    <use x="609.660156" xlink:href="#DejaVuSans-115"/>
   </g>
  </g>
 </g>
 <defs>
  <clipPath id="pa94f46bf14">
   <rect height="288" width="523.125" x="112.5" y="36"/>
  </clipPath>
 </defs>
</svg>
