<?xml version="1.0" encoding="utf-8" standalone="no"?>
<!DOCTYPE svg PUBLIC "-//W3C//DTD SVG 1.1//EN"
  "http://www.w3.org/Graphics/SVG/1.1/DTD/svg11.dtd">
<!-- Created with matplotlib (https://matplotlib.org/) -->
<svg height="360pt" version="1.1" viewBox="0 0 900 360" width="900pt" xmlns="http://www.w3.org/2000/svg" xmlns:xlink="http://www.w3.org/1999/xlink">
 <defs>
  <style type="text/css">
*{stroke-linecap:butt;stroke-linejoin:round;}
  </style>
 </defs>
 <g id="figure_1">
  <g id="patch_1">
   <path d="M 0 360 
L 900 360 
L 900 0 
L 0 0 
z
" style="fill:#ffffff;"/>
  </g>
  <g id="axes_1">
   <g id="patch_2">
    <path d="M 112.5 324 
L 635.625 324 
L 635.625 36 
L 112.5 36 
z
" style="fill:#ffffff;"/>
   </g>
   <g id="line2d_1">
    <path clip-path="url(#p0f7a48ae49)" d="M 112.886927 321.259082 
L 147.710337 321.033342 
L 163.187408 320.800704 
L 205.749353 319.720788 
L 228.964959 319.155527 
L 240.572763 318.493956 
L 259.919101 317.346375 
L 279.26544 316.817089 
L 298.611779 316.204709 
L 314.08885 315.503844 
L 329.565921 314.606305 
L 364.389331 311.774909 
L 372.127866 311.112838 
L 379.866402 310.535379 
L 387.604937 310.186512 
L 403.082008 309.621561 
L 430.166882 308.404509 
L 441.774686 308.288975 
L 445.643953 308.219084 
L 453.382489 307.624419 
L 461.121024 306.889035 
L 468.85956 306.110362 
L 472.728828 305.751795 
L 495.944434 304.591502 
L 507.552237 303.51893 
L 523.029308 302.317967 
L 546.244915 301.366899 
L 561.721986 300.294351 
L 573.329789 298.929354 
L 581.068325 297.425231 
L 592.676128 294.955002 
L 600.414663 292.638026 
L 604.283931 291.745234 
L 612.022467 290.861758 
L 619.761002 289.769703 
L 623.63027 289.774002 
L 627.499538 289.939978 
L 627.499538 289.939978 
" style="fill:none;stroke:#0000ff;stroke-linecap:square;stroke-width:1.2;"/>
   </g>
   <g id="line2d_2">
    <path clip-path="url(#p0f7a48ae49)" d="M 112.886927 321.293611 
L 124.49473 320.959923 
L 136.102533 320.763624 
L 159.31814 319.85172 
L 170.925943 319.548942 
L 190.272282 319.09769 
L 213.487888 318.346302 
L 217.357156 318.049298 
L 240.572763 317.128201 
L 244.44203 317.152151 
L 256.049834 316.804065 
L 275.396172 315.548086 
L 283.134708 314.86923 
L 294.742511 313.875492 
L 310.219582 311.881174 
L 317.958118 310.544853 
L 329.565921 308.068319 
L 333.435189 306.921556 
L 341.173724 304.901287 
L 356.650795 300.604361 
L 364.389331 299.500458 
L 383.735669 297.365264 
L 387.604937 296.562211 
L 391.474205 295.492084 
L 395.343473 294.608404 
L 410.820544 291.599815 
L 414.689811 291.10374 
L 418.559079 290.998751 
L 426.297615 290.098175 
L 430.166882 289.624635 
L 434.03615 289.366503 
L 437.905418 289.260127 
L 441.774686 289.286066 
L 445.643953 288.930609 
L 449.513221 288.721855 
L 453.382489 288.727969 
L 457.251757 288.491744 
L 472.728828 286.908812 
L 476.598095 286.507173 
L 480.467363 285.96014 
L 492.075166 283.869437 
L 507.552237 280.82851 
L 519.160041 280.707836 
L 526.898576 281.200835 
L 530.767844 281.698177 
L 534.637112 282.326008 
L 538.506379 282.4659 
L 546.244915 283.22547 
L 557.852718 284.179984 
L 561.721986 284.296036 
L 565.591254 284.731679 
L 573.329789 284.765488 
L 577.199057 284.354598 
L 581.068325 283.40333 
L 584.937592 282.863113 
L 588.80686 282.11864 
L 592.676128 281.231434 
L 596.545396 280.467433 
L 600.414663 279.535765 
L 604.283931 278.317824 
L 608.153199 278.268276 
L 612.022467 277.726994 
L 619.761002 276.904503 
L 623.63027 276.416724 
L 627.499538 276.166775 
L 627.499538 276.166775 
" style="fill:none;stroke:#008000;stroke-linecap:square;stroke-width:1.2;"/>
   </g>
   <g id="line2d_3">
    <path clip-path="url(#p0f7a48ae49)" d="M 112.886927 321.057075 
L 132.233266 320.245028 
L 136.102533 320.175049 
L 155.448872 319.180633 
L 163.187408 318.407502 
L 174.795211 317.082698 
L 178.664479 316.544508 
L 182.533746 316.17074 
L 190.272282 315.183002 
L 209.618621 313.56786 
L 213.487888 313.469247 
L 217.357156 313.058634 
L 240.572763 309.036355 
L 244.44203 308.273587 
L 252.180566 307.002284 
L 256.049834 306.201034 
L 259.919101 305.179299 
L 263.788369 303.971865 
L 267.657637 302.939964 
L 271.526905 301.755327 
L 279.26544 299.13534 
L 287.003976 296.864473 
L 294.742511 295.007724 
L 302.481047 292.705734 
L 306.350314 291.191015 
L 314.08885 288.625542 
L 321.827385 285.800338 
L 329.565921 283.209541 
L 333.435189 281.752685 
L 337.304456 279.911268 
L 345.042992 275.348816 
L 352.781527 272.119028 
L 356.650795 269.727975 
L 360.520063 267.053178 
L 364.389331 264.526827 
L 368.258598 262.622549 
L 372.127866 260.092593 
L 375.997134 256.690356 
L 379.866402 253.869154 
L 383.735669 252.06464 
L 387.604937 249.95176 
L 391.474205 247.669134 
L 395.343473 244.760364 
L 399.21274 242.510499 
L 403.082008 239.797024 
L 406.951276 235.622842 
L 410.820544 230.888106 
L 414.689811 229.048347 
L 418.559079 225.46863 
L 422.428347 222.309543 
L 426.297615 218.398764 
L 430.166882 214.76327 
L 434.03615 212.955965 
L 437.905418 211.352366 
L 441.774686 208.110693 
L 445.643953 205.092815 
L 449.513221 202.843961 
L 453.382489 199.810966 
L 457.251757 195.737745 
L 461.121024 190.867689 
L 464.990292 190.608588 
L 468.85956 190.223441 
L 472.728828 191.48167 
L 476.598095 193.093603 
L 480.467363 196.462471 
L 488.205899 204.532329 
L 492.075166 203.097147 
L 495.944434 201.065698 
L 499.813702 197.427494 
L 503.68297 192.560282 
L 507.552237 187.282096 
L 515.290773 177.853642 
L 519.160041 172.761026 
L 523.029308 168.216575 
L 526.898576 165.466168 
L 534.637112 158.140531 
L 538.506379 155.641755 
L 542.375647 152.765677 
L 546.244915 151.20171 
L 553.98345 147.008667 
L 557.852718 146.459919 
L 561.721986 147.636122 
L 565.591254 147.658407 
L 569.460521 148.515557 
L 573.329789 147.246347 
L 577.199057 148.024478 
L 581.068325 148.043796 
L 584.937592 147.86721 
L 588.80686 146.13034 
L 592.676128 145.540544 
L 596.545396 143.760887 
L 600.414663 144.415896 
L 604.283931 143.52578 
L 608.153199 142.85214 
L 612.022467 142.013845 
L 615.891734 141.884591 
L 619.761002 140.481028 
L 623.63027 140.294766 
L 631.368805 139.486626 
L 635.238073 139.603005 
L 635.238073 139.603005 
" style="fill:none;stroke:#ff0000;stroke-linecap:square;stroke-width:1.2;"/>
   </g>
   <g id="line2d_4">
    <path clip-path="url(#p0f7a48ae49)" d="M 112.886927 320.396517 
L 120.625462 319.678175 
L 136.102533 318.60523 
L 147.710337 317.339618 
L 167.056675 314.315154 
L 170.925943 313.553177 
L 174.795211 312.521037 
L 178.664479 311.25139 
L 186.403014 308.394986 
L 190.272282 306.727408 
L 194.14155 304.308962 
L 201.880085 299.914703 
L 205.749353 298.208987 
L 217.357156 293.540085 
L 221.226424 292.58292 
L 225.095692 291.495317 
L 228.964959 290.1744 
L 232.834227 288.625692 
L 240.572763 286.403119 
L 244.44203 285.491434 
L 248.311298 284.424693 
L 252.180566 283.169983 
L 256.049834 282.078089 
L 259.919101 281.179284 
L 263.788369 279.377135 
L 267.657637 276.756376 
L 271.526905 273.797135 
L 275.396172 270.991787 
L 283.134708 268.049906 
L 287.003976 265.717255 
L 290.873243 264.051802 
L 294.742511 262.53349 
L 298.611779 260.351739 
L 302.481047 258.351624 
L 306.350314 254.804169 
L 310.219582 251.591654 
L 317.958118 246.593595 
L 321.827385 244.240073 
L 329.565921 240.694371 
L 333.435189 240.080164 
L 341.173724 237.882122 
L 345.042992 236.063484 
L 348.91226 234.467143 
L 352.781527 233.300119 
L 356.650795 230.614959 
L 360.520063 225.57163 
L 368.258598 219.444498 
L 372.127866 216.672505 
L 375.997134 213.754746 
L 379.866402 210.40825 
L 383.735669 207.744168 
L 387.604937 207.131174 
L 391.474205 203.228762 
L 395.343473 199.486782 
L 399.21274 195.993193 
L 403.082008 192.768819 
L 406.951276 188.84767 
L 410.820544 185.324874 
L 414.689811 181.161093 
L 418.559079 174.489785 
L 422.428347 166.933456 
L 426.297615 156.773946 
L 430.166882 144.1796 
L 434.03615 131.147399 
L 437.905418 117.382047 
L 441.774686 101.928239 
L 445.643953 93.544173 
L 449.513221 88.548747 
L 453.382489 86.238295 
L 457.251757 87.925965 
L 461.121024 88.279033 
L 464.990292 90.898716 
L 468.85956 96.267161 
L 472.728828 99.760478 
L 476.598095 100.386588 
L 480.467363 100.897677 
L 484.336631 100.657232 
L 488.205899 104.773542 
L 492.075166 106.265754 
L 495.944434 109.72591 
L 499.813702 112.78693 
L 503.68297 114.405423 
L 507.552237 119.316664 
L 511.421505 119.736648 
L 515.290773 117.269684 
L 519.160041 118.769105 
L 523.029308 115.748683 
L 526.898576 113.14946 
L 530.767844 110.162057 
L 534.637112 101.386947 
L 538.506379 95.319072 
L 542.375647 92.043779 
L 546.244915 85.568134 
L 550.114183 84.039498 
L 553.98345 79.929499 
L 557.852718 76.238031 
L 561.721986 77.295355 
L 565.591254 80.800105 
L 569.460521 83.184258 
L 573.329789 84.587668 
L 577.199057 82.623817 
L 581.068325 85.696662 
L 584.937592 88.149782 
L 588.80686 89.119748 
L 592.676128 89.967714 
L 596.545396 90.663964 
L 600.414663 92.259435 
L 604.283931 94.8232 
L 608.153199 93.277708 
L 612.022467 94.873561 
L 615.891734 96.050478 
L 619.761002 95.459638 
L 619.761002 95.459638 
" style="fill:none;stroke:#00bfbf;stroke-linecap:square;stroke-width:1.2;"/>
   </g>
   <g id="patch_3">
    <path d="M 112.5 324 
L 112.5 36 
" style="fill:none;stroke:#000000;stroke-linecap:square;stroke-linejoin:miter;"/>
   </g>
   <g id="patch_4">
    <path d="M 635.625 324 
L 635.625 36 
" style="fill:none;stroke:#000000;stroke-linecap:square;stroke-linejoin:miter;"/>
   </g>
   <g id="patch_5">
    <path d="M 112.5 324 
L 635.625 324 
" style="fill:none;stroke:#000000;stroke-linecap:square;stroke-linejoin:miter;"/>
   </g>
   <g id="patch_6">
    <path d="M 112.5 36 
L 635.625 36 
" style="fill:none;stroke:#000000;stroke-linecap:square;stroke-linejoin:miter;"/>
   </g>
   <g id="matplotlib.axis_1">
    <g id="xtick_1">
     <g id="line2d_5">
      <defs>
       <path d="M 0 0 
L 0 -4 
" id="mdacc41bff1" style="stroke:#000000;stroke-width:0.5;"/>
      </defs>
      <g>
       <use style="stroke:#000000;stroke-width:0.5;" x="112.886927" xlink:href="#mdacc41bff1" y="324"/>
      </g>
     </g>
     <g id="line2d_6">
      <defs>
       <path d="M 0 0 
L 0 4 
" id="md31d032ede" style="stroke:#000000;stroke-width:0.5;"/>
      </defs>
      <g>
       <use style="stroke:#000000;stroke-width:0.5;" x="112.886927" xlink:href="#md31d032ede" y="36"/>
      </g>
     </g>
     <g id="text_1">
      <!-- 0 -->
      <defs>
       <path d="M 31.78125 66.40625 
Q 24.171875 66.40625 20.328125 58.90625 
Q 16.5 51.421875 16.5 36.375 
Q 16.5 21.390625 20.328125 13.890625 
Q 24.171875 6.390625 31.78125 6.390625 
Q 39.453125 6.390625 43.28125 13.890625 
Q 47.125 21.390625 47.125 36.375 
Q 47.125 51.421875 43.28125 58.90625 
Q 39.453125 66.40625 31.78125 66.40625 
z
M 31.78125 74.21875 
Q 44.046875 74.21875 50.515625 64.515625 
Q 56.984375 54.828125 56.984375 36.375 
Q 56.984375 17.96875 50.515625 8.265625 
Q 44.046875 -1.421875 31.78125 -1.421875 
Q 19.53125 -1.421875 13.0625 8.265625 
Q 6.59375 17.96875 6.59375 36.375 
Q 6.59375 54.828125 13.0625 64.515625 
Q 19.53125 74.21875 31.78125 74.21875 
z
" id="DejaVuSans-48"/>
      </defs>
      <g transform="translate(109.069427 337.118125)scale(0.12 -0.12)">
       <use xlink:href="#DejaVuSans-48"/>
      </g>
     </g>
    </g>
    <g id="xtick_2">
     <g id="line2d_7">
      <g>
       <use style="stroke:#000000;stroke-width:0.5;" x="167.056675" xlink:href="#mdacc41bff1" y="324"/>
      </g>
     </g>
     <g id="line2d_8">
      <g>
       <use style="stroke:#000000;stroke-width:0.5;" x="167.056675" xlink:href="#md31d032ede" y="36"/>
      </g>
     </g>
     <g id="text_2">
      <!-- 14 -->
      <defs>
       <path d="M 12.40625 8.296875 
L 28.515625 8.296875 
L 28.515625 63.921875 
L 10.984375 60.40625 
L 10.984375 69.390625 
L 28.421875 72.90625 
L 38.28125 72.90625 
L 38.28125 8.296875 
L 54.390625 8.296875 
L 54.390625 0 
L 12.40625 0 
z
" id="DejaVuSans-49"/>
       <path d="M 37.796875 64.3125 
L 12.890625 25.390625 
L 37.796875 25.390625 
z
M 35.203125 72.90625 
L 47.609375 72.90625 
L 47.609375 25.390625 
L 58.015625 25.390625 
L 58.015625 17.1875 
L 47.609375 17.1875 
L 47.609375 0 
L 37.796875 0 
L 37.796875 17.1875 
L 4.890625 17.1875 
L 4.890625 26.703125 
z
" id="DejaVuSans-52"/>
      </defs>
      <g transform="translate(159.421675 337.118125)scale(0.12 -0.12)">
       <use xlink:href="#DejaVuSans-49"/>
       <use x="63.623047" xlink:href="#DejaVuSans-52"/>
      </g>
     </g>
    </g>
    <g id="xtick_3">
     <g id="line2d_9">
      <g>
       <use style="stroke:#000000;stroke-width:0.5;" x="221.226424" xlink:href="#mdacc41bff1" y="324"/>
      </g>
     </g>
     <g id="line2d_10">
      <g>
       <use style="stroke:#000000;stroke-width:0.5;" x="221.226424" xlink:href="#md31d032ede" y="36"/>
      </g>
     </g>
     <g id="text_3">
      <!-- 28 -->
      <defs>
       <path d="M 19.1875 8.296875 
L 53.609375 8.296875 
L 53.609375 0 
L 7.328125 0 
L 7.328125 8.296875 
Q 12.9375 14.109375 22.625 23.890625 
Q 32.328125 33.6875 34.8125 36.53125 
Q 39.546875 41.84375 41.421875 45.53125 
Q 43.3125 49.21875 43.3125 52.78125 
Q 43.3125 58.59375 39.234375 62.25 
Q 35.15625 65.921875 28.609375 65.921875 
Q 23.96875 65.921875 18.8125 64.3125 
Q 13.671875 62.703125 7.8125 59.421875 
L 7.8125 69.390625 
Q 13.765625 71.78125 18.9375 73 
Q 24.125 74.21875 28.421875 74.21875 
Q 39.75 74.21875 46.484375 68.546875 
Q 53.21875 62.890625 53.21875 53.421875 
Q 53.21875 48.921875 51.53125 44.890625 
Q 49.859375 40.875 45.40625 35.40625 
Q 44.1875 33.984375 37.640625 27.21875 
Q 31.109375 20.453125 19.1875 8.296875 
z
" id="DejaVuSans-50"/>
       <path d="M 31.78125 34.625 
Q 24.75 34.625 20.71875 30.859375 
Q 16.703125 27.09375 16.703125 20.515625 
Q 16.703125 13.921875 20.71875 10.15625 
Q 24.75 6.390625 31.78125 6.390625 
Q 38.8125 6.390625 42.859375 10.171875 
Q 46.921875 13.96875 46.921875 20.515625 
Q 46.921875 27.09375 42.890625 30.859375 
Q 38.875 34.625 31.78125 34.625 
z
M 21.921875 38.8125 
Q 15.578125 40.375 12.03125 44.71875 
Q 8.5 49.078125 8.5 55.328125 
Q 8.5 64.0625 14.71875 69.140625 
Q 20.953125 74.21875 31.78125 74.21875 
Q 42.671875 74.21875 48.875 69.140625 
Q 55.078125 64.0625 55.078125 55.328125 
Q 55.078125 49.078125 51.53125 44.71875 
Q 48 40.375 41.703125 38.8125 
Q 48.828125 37.15625 52.796875 32.3125 
Q 56.78125 27.484375 56.78125 20.515625 
Q 56.78125 9.90625 50.3125 4.234375 
Q 43.84375 -1.421875 31.78125 -1.421875 
Q 19.734375 -1.421875 13.25 4.234375 
Q 6.78125 9.90625 6.78125 20.515625 
Q 6.78125 27.484375 10.78125 32.3125 
Q 14.796875 37.15625 21.921875 38.8125 
z
M 18.3125 54.390625 
Q 18.3125 48.734375 21.84375 45.5625 
Q 25.390625 42.390625 31.78125 42.390625 
Q 38.140625 42.390625 41.71875 45.5625 
Q 45.3125 48.734375 45.3125 54.390625 
Q 45.3125 60.0625 41.71875 63.234375 
Q 38.140625 66.40625 31.78125 66.40625 
Q 25.390625 66.40625 21.84375 63.234375 
Q 18.3125 60.0625 18.3125 54.390625 
z
" id="DejaVuSans-56"/>
      </defs>
      <g transform="translate(213.591424 337.118125)scale(0.12 -0.12)">
       <use xlink:href="#DejaVuSans-50"/>
       <use x="63.623047" xlink:href="#DejaVuSans-56"/>
      </g>
     </g>
    </g>
    <g id="xtick_4">
     <g id="line2d_11">
      <g>
       <use style="stroke:#000000;stroke-width:0.5;" x="275.396172" xlink:href="#mdacc41bff1" y="324"/>
      </g>
     </g>
     <g id="line2d_12">
      <g>
       <use style="stroke:#000000;stroke-width:0.5;" x="275.396172" xlink:href="#md31d032ede" y="36"/>
      </g>
     </g>
     <g id="text_4">
      <!-- 42 -->
      <g transform="translate(267.761172 337.118125)scale(0.12 -0.12)">
       <use xlink:href="#DejaVuSans-52"/>
       <use x="63.623047" xlink:href="#DejaVuSans-50"/>
      </g>
     </g>
    </g>
    <g id="xtick_5">
     <g id="line2d_13">
      <g>
       <use style="stroke:#000000;stroke-width:0.5;" x="329.565921" xlink:href="#mdacc41bff1" y="324"/>
      </g>
     </g>
     <g id="line2d_14">
      <g>
       <use style="stroke:#000000;stroke-width:0.5;" x="329.565921" xlink:href="#md31d032ede" y="36"/>
      </g>
     </g>
     <g id="text_5">
      <!-- 56 -->
      <defs>
       <path d="M 10.796875 72.90625 
L 49.515625 72.90625 
L 49.515625 64.59375 
L 19.828125 64.59375 
L 19.828125 46.734375 
Q 21.96875 47.46875 24.109375 47.828125 
Q 26.265625 48.1875 28.421875 48.1875 
Q 40.625 48.1875 47.75 41.5 
Q 54.890625 34.8125 54.890625 23.390625 
Q 54.890625 11.625 47.5625 5.09375 
Q 40.234375 -1.421875 26.90625 -1.421875 
Q 22.3125 -1.421875 17.546875 -0.640625 
Q 12.796875 0.140625 7.71875 1.703125 
L 7.71875 11.625 
Q 12.109375 9.234375 16.796875 8.0625 
Q 21.484375 6.890625 26.703125 6.890625 
Q 35.15625 6.890625 40.078125 11.328125 
Q 45.015625 15.765625 45.015625 23.390625 
Q 45.015625 31 40.078125 35.4375 
Q 35.15625 39.890625 26.703125 39.890625 
Q 22.75 39.890625 18.8125 39.015625 
Q 14.890625 38.140625 10.796875 36.28125 
z
" id="DejaVuSans-53"/>
       <path d="M 33.015625 40.375 
Q 26.375 40.375 22.484375 35.828125 
Q 18.609375 31.296875 18.609375 23.390625 
Q 18.609375 15.53125 22.484375 10.953125 
Q 26.375 6.390625 33.015625 6.390625 
Q 39.65625 6.390625 43.53125 10.953125 
Q 47.40625 15.53125 47.40625 23.390625 
Q 47.40625 31.296875 43.53125 35.828125 
Q 39.65625 40.375 33.015625 40.375 
z
M 52.59375 71.296875 
L 52.59375 62.3125 
Q 48.875 64.0625 45.09375 64.984375 
Q 41.3125 65.921875 37.59375 65.921875 
Q 27.828125 65.921875 22.671875 59.328125 
Q 17.53125 52.734375 16.796875 39.40625 
Q 19.671875 43.65625 24.015625 45.921875 
Q 28.375 48.1875 33.59375 48.1875 
Q 44.578125 48.1875 50.953125 41.515625 
Q 57.328125 34.859375 57.328125 23.390625 
Q 57.328125 12.15625 50.6875 5.359375 
Q 44.046875 -1.421875 33.015625 -1.421875 
Q 20.359375 -1.421875 13.671875 8.265625 
Q 6.984375 17.96875 6.984375 36.375 
Q 6.984375 53.65625 15.1875 63.9375 
Q 23.390625 74.21875 37.203125 74.21875 
Q 40.921875 74.21875 44.703125 73.484375 
Q 48.484375 72.75 52.59375 71.296875 
z
" id="DejaVuSans-54"/>
      </defs>
      <g transform="translate(321.930921 337.118125)scale(0.12 -0.12)">
       <use xlink:href="#DejaVuSans-53"/>
       <use x="63.623047" xlink:href="#DejaVuSans-54"/>
      </g>
     </g>
    </g>
    <g id="xtick_6">
     <g id="line2d_15">
      <g>
       <use style="stroke:#000000;stroke-width:0.5;" x="383.735669" xlink:href="#mdacc41bff1" y="324"/>
      </g>
     </g>
     <g id="line2d_16">
      <g>
       <use style="stroke:#000000;stroke-width:0.5;" x="383.735669" xlink:href="#md31d032ede" y="36"/>
      </g>
     </g>
     <g id="text_6">
      <!-- 70 -->
      <defs>
       <path d="M 8.203125 72.90625 
L 55.078125 72.90625 
L 55.078125 68.703125 
L 28.609375 0 
L 18.3125 0 
L 43.21875 64.59375 
L 8.203125 64.59375 
z
" id="DejaVuSans-55"/>
      </defs>
      <g transform="translate(376.100669 337.118125)scale(0.12 -0.12)">
       <use xlink:href="#DejaVuSans-55"/>
       <use x="63.623047" xlink:href="#DejaVuSans-48"/>
      </g>
     </g>
    </g>
    <g id="xtick_7">
     <g id="line2d_17">
      <g>
       <use style="stroke:#000000;stroke-width:0.5;" x="437.905418" xlink:href="#mdacc41bff1" y="324"/>
      </g>
     </g>
     <g id="line2d_18">
      <g>
       <use style="stroke:#000000;stroke-width:0.5;" x="437.905418" xlink:href="#md31d032ede" y="36"/>
      </g>
     </g>
     <g id="text_7">
      <!-- 84 -->
      <g transform="translate(430.270418 337.118125)scale(0.12 -0.12)">
       <use xlink:href="#DejaVuSans-56"/>
       <use x="63.623047" xlink:href="#DejaVuSans-52"/>
      </g>
     </g>
    </g>
    <g id="xtick_8">
     <g id="line2d_19">
      <g>
       <use style="stroke:#000000;stroke-width:0.5;" x="492.075166" xlink:href="#mdacc41bff1" y="324"/>
      </g>
     </g>
     <g id="line2d_20">
      <g>
       <use style="stroke:#000000;stroke-width:0.5;" x="492.075166" xlink:href="#md31d032ede" y="36"/>
      </g>
     </g>
     <g id="text_8">
      <!-- 98 -->
      <defs>
       <path d="M 10.984375 1.515625 
L 10.984375 10.5 
Q 14.703125 8.734375 18.5 7.8125 
Q 22.3125 6.890625 25.984375 6.890625 
Q 35.75 6.890625 40.890625 13.453125 
Q 46.046875 20.015625 46.78125 33.40625 
Q 43.953125 29.203125 39.59375 26.953125 
Q 35.25 24.703125 29.984375 24.703125 
Q 19.046875 24.703125 12.671875 31.3125 
Q 6.296875 37.9375 6.296875 49.421875 
Q 6.296875 60.640625 12.9375 67.421875 
Q 19.578125 74.21875 30.609375 74.21875 
Q 43.265625 74.21875 49.921875 64.515625 
Q 56.59375 54.828125 56.59375 36.375 
Q 56.59375 19.140625 48.40625 8.859375 
Q 40.234375 -1.421875 26.421875 -1.421875 
Q 22.703125 -1.421875 18.890625 -0.6875 
Q 15.09375 0.046875 10.984375 1.515625 
z
M 30.609375 32.421875 
Q 37.25 32.421875 41.125 36.953125 
Q 45.015625 41.5 45.015625 49.421875 
Q 45.015625 57.28125 41.125 61.84375 
Q 37.25 66.40625 30.609375 66.40625 
Q 23.96875 66.40625 20.09375 61.84375 
Q 16.21875 57.28125 16.21875 49.421875 
Q 16.21875 41.5 20.09375 36.953125 
Q 23.96875 32.421875 30.609375 32.421875 
z
" id="DejaVuSans-57"/>
      </defs>
      <g transform="translate(484.440166 337.118125)scale(0.12 -0.12)">
       <use xlink:href="#DejaVuSans-57"/>
       <use x="63.623047" xlink:href="#DejaVuSans-56"/>
      </g>
     </g>
    </g>
    <g id="xtick_9">
     <g id="line2d_21">
      <g>
       <use style="stroke:#000000;stroke-width:0.5;" x="546.244915" xlink:href="#mdacc41bff1" y="324"/>
      </g>
     </g>
     <g id="line2d_22">
      <g>
       <use style="stroke:#000000;stroke-width:0.5;" x="546.244915" xlink:href="#md31d032ede" y="36"/>
      </g>
     </g>
     <g id="text_9">
      <!-- 112 -->
      <g transform="translate(534.792415 337.118125)scale(0.12 -0.12)">
       <use xlink:href="#DejaVuSans-49"/>
       <use x="63.623047" xlink:href="#DejaVuSans-49"/>
       <use x="127.246094" xlink:href="#DejaVuSans-50"/>
      </g>
     </g>
    </g>
    <g id="xtick_10">
     <g id="line2d_23">
      <g>
       <use style="stroke:#000000;stroke-width:0.5;" x="600.414663" xlink:href="#mdacc41bff1" y="324"/>
      </g>
     </g>
     <g id="line2d_24">
      <g>
       <use style="stroke:#000000;stroke-width:0.5;" x="600.414663" xlink:href="#md31d032ede" y="36"/>
      </g>
     </g>
     <g id="text_10">
      <!-- 126 -->
      <g transform="translate(588.962163 337.118125)scale(0.12 -0.12)">
       <use xlink:href="#DejaVuSans-49"/>
       <use x="63.623047" xlink:href="#DejaVuSans-50"/>
       <use x="127.246094" xlink:href="#DejaVuSans-54"/>
      </g>
     </g>
    </g>
    <g id="text_11">
     <!-- generation -->
     <defs>
      <path d="M 45.40625 27.984375 
Q 45.40625 37.75 41.375 43.109375 
Q 37.359375 48.484375 30.078125 48.484375 
Q 22.859375 48.484375 18.828125 43.109375 
Q 14.796875 37.75 14.796875 27.984375 
Q 14.796875 18.265625 18.828125 12.890625 
Q 22.859375 7.515625 30.078125 7.515625 
Q 37.359375 7.515625 41.375 12.890625 
Q 45.40625 18.265625 45.40625 27.984375 
z
M 54.390625 6.78125 
Q 54.390625 -7.171875 48.1875 -13.984375 
Q 42 -20.796875 29.203125 -20.796875 
Q 24.46875 -20.796875 20.265625 -20.09375 
Q 16.0625 -19.390625 12.109375 -17.921875 
L 12.109375 -9.1875 
Q 16.0625 -11.328125 19.921875 -12.34375 
Q 23.78125 -13.375 27.78125 -13.375 
Q 36.625 -13.375 41.015625 -8.765625 
Q 45.40625 -4.15625 45.40625 5.171875 
L 45.40625 9.625 
Q 42.625 4.78125 38.28125 2.390625 
Q 33.9375 0 27.875 0 
Q 17.828125 0 11.671875 7.65625 
Q 5.515625 15.328125 5.515625 27.984375 
Q 5.515625 40.671875 11.671875 48.328125 
Q 17.828125 56 27.875 56 
Q 33.9375 56 38.28125 53.609375 
Q 42.625 51.21875 45.40625 46.390625 
L 45.40625 54.6875 
L 54.390625 54.6875 
z
" id="DejaVuSans-103"/>
      <path d="M 56.203125 29.59375 
L 56.203125 25.203125 
L 14.890625 25.203125 
Q 15.484375 15.921875 20.484375 11.0625 
Q 25.484375 6.203125 34.421875 6.203125 
Q 39.59375 6.203125 44.453125 7.46875 
Q 49.3125 8.734375 54.109375 11.28125 
L 54.109375 2.78125 
Q 49.265625 0.734375 44.1875 -0.34375 
Q 39.109375 -1.421875 33.890625 -1.421875 
Q 20.796875 -1.421875 13.15625 6.1875 
Q 5.515625 13.8125 5.515625 26.8125 
Q 5.515625 40.234375 12.765625 48.109375 
Q 20.015625 56 32.328125 56 
Q 43.359375 56 49.78125 48.890625 
Q 56.203125 41.796875 56.203125 29.59375 
z
M 47.21875 32.234375 
Q 47.125 39.59375 43.09375 43.984375 
Q 39.0625 48.390625 32.421875 48.390625 
Q 24.90625 48.390625 20.390625 44.140625 
Q 15.875 39.890625 15.1875 32.171875 
z
" id="DejaVuSans-101"/>
      <path d="M 54.890625 33.015625 
L 54.890625 0 
L 45.90625 0 
L 45.90625 32.71875 
Q 45.90625 40.484375 42.875 44.328125 
Q 39.84375 48.1875 33.796875 48.1875 
Q 26.515625 48.1875 22.3125 43.546875 
Q 18.109375 38.921875 18.109375 30.90625 
L 18.109375 0 
L 9.078125 0 
L 9.078125 54.6875 
L 18.109375 54.6875 
L 18.109375 46.1875 
Q 21.34375 51.125 25.703125 53.5625 
Q 30.078125 56 35.796875 56 
Q 45.21875 56 50.046875 50.171875 
Q 54.890625 44.34375 54.890625 33.015625 
z
" id="DejaVuSans-110"/>
      <path d="M 41.109375 46.296875 
Q 39.59375 47.171875 37.8125 47.578125 
Q 36.03125 48 33.890625 48 
Q 26.265625 48 22.1875 43.046875 
Q 18.109375 38.09375 18.109375 28.8125 
L 18.109375 0 
L 9.078125 0 
L 9.078125 54.6875 
L 18.109375 54.6875 
L 18.109375 46.1875 
Q 20.953125 51.171875 25.484375 53.578125 
Q 30.03125 56 36.53125 56 
Q 37.453125 56 38.578125 55.875 
Q 39.703125 55.765625 41.0625 55.515625 
z
" id="DejaVuSans-114"/>
      <path d="M 34.28125 27.484375 
Q 23.390625 27.484375 19.1875 25 
Q 14.984375 22.515625 14.984375 16.5 
Q 14.984375 11.71875 18.140625 8.90625 
Q 21.296875 6.109375 26.703125 6.109375 
Q 34.1875 6.109375 38.703125 11.40625 
Q 43.21875 16.703125 43.21875 25.484375 
L 43.21875 27.484375 
z
M 52.203125 31.203125 
L 52.203125 0 
L 43.21875 0 
L 43.21875 8.296875 
Q 40.140625 3.328125 35.546875 0.953125 
Q 30.953125 -1.421875 24.3125 -1.421875 
Q 15.921875 -1.421875 10.953125 3.296875 
Q 6 8.015625 6 15.921875 
Q 6 25.140625 12.171875 29.828125 
Q 18.359375 34.515625 30.609375 34.515625 
L 43.21875 34.515625 
L 43.21875 35.40625 
Q 43.21875 41.609375 39.140625 45 
Q 35.0625 48.390625 27.6875 48.390625 
Q 23 48.390625 18.546875 47.265625 
Q 14.109375 46.140625 10.015625 43.890625 
L 10.015625 52.203125 
Q 14.9375 54.109375 19.578125 55.046875 
Q 24.21875 56 28.609375 56 
Q 40.484375 56 46.34375 49.84375 
Q 52.203125 43.703125 52.203125 31.203125 
z
" id="DejaVuSans-97"/>
      <path d="M 18.3125 70.21875 
L 18.3125 54.6875 
L 36.8125 54.6875 
L 36.8125 47.703125 
L 18.3125 47.703125 
L 18.3125 18.015625 
Q 18.3125 11.328125 20.140625 9.421875 
Q 21.96875 7.515625 27.59375 7.515625 
L 36.8125 7.515625 
L 36.8125 0 
L 27.59375 0 
Q 17.1875 0 13.234375 3.875 
Q 9.28125 7.765625 9.28125 18.015625 
L 9.28125 47.703125 
L 2.6875 47.703125 
L 2.6875 54.6875 
L 9.28125 54.6875 
L 9.28125 70.21875 
z
" id="DejaVuSans-116"/>
      <path d="M 9.421875 54.6875 
L 18.40625 54.6875 
L 18.40625 0 
L 9.421875 0 
z
M 9.421875 75.984375 
L 18.40625 75.984375 
L 18.40625 64.59375 
L 9.421875 64.59375 
z
" id="DejaVuSans-105"/>
      <path d="M 30.609375 48.390625 
Q 23.390625 48.390625 19.1875 42.75 
Q 14.984375 37.109375 14.984375 27.296875 
Q 14.984375 17.484375 19.15625 11.84375 
Q 23.34375 6.203125 30.609375 6.203125 
Q 37.796875 6.203125 41.984375 11.859375 
Q 46.1875 17.53125 46.1875 27.296875 
Q 46.1875 37.015625 41.984375 42.703125 
Q 37.796875 48.390625 30.609375 48.390625 
z
M 30.609375 56 
Q 42.328125 56 49.015625 48.375 
Q 55.71875 40.765625 55.71875 27.296875 
Q 55.71875 13.875 49.015625 6.21875 
Q 42.328125 -1.421875 30.609375 -1.421875 
Q 18.84375 -1.421875 12.171875 6.21875 
Q 5.515625 13.875 5.515625 27.296875 
Q 5.515625 40.765625 12.171875 48.375 
Q 18.84375 56 30.609375 56 
z
" id="DejaVuSans-111"/>
     </defs>
     <g transform="translate(341.430938 353.731875)scale(0.12 -0.12)">
      <use xlink:href="#DejaVuSans-103"/>
      <use x="63.476562" xlink:href="#DejaVuSans-101"/>
      <use x="125" xlink:href="#DejaVuSans-110"/>
      <use x="188.378906" xlink:href="#DejaVuSans-101"/>
      <use x="249.902344" xlink:href="#DejaVuSans-114"/>
      <use x="291.015625" xlink:href="#DejaVuSans-97"/>
      <use x="352.294922" xlink:href="#DejaVuSans-116"/>
      <use x="391.503906" xlink:href="#DejaVuSans-105"/>
      <use x="419.287109" xlink:href="#DejaVuSans-111"/>
      <use x="480.46875" xlink:href="#DejaVuSans-110"/>
     </g>
    </g>
   </g>
   <g id="matplotlib.axis_2">
    <g id="ytick_1">
     <g id="line2d_25">
      <defs>
       <path d="M 0 0 
L 4 0 
" id="m5ab121ebac" style="stroke:#000000;stroke-width:0.5;"/>
      </defs>
      <g>
       <use style="stroke:#000000;stroke-width:0.5;" x="112.5" xlink:href="#m5ab121ebac" y="324"/>
      </g>
     </g>
     <g id="line2d_26">
      <defs>
       <path d="M 0 0 
L -4 0 
" id="me473f75808" style="stroke:#000000;stroke-width:0.5;"/>
      </defs>
      <g>
       <use style="stroke:#000000;stroke-width:0.5;" x="635.625" xlink:href="#me473f75808" y="324"/>
      </g>
     </g>
     <g id="text_12">
      <!-- 0 -->
      <g transform="translate(100.865 327.31125)scale(0.12 -0.12)">
       <use xlink:href="#DejaVuSans-48"/>
      </g>
     </g>
    </g>
    <g id="ytick_2">
     <g id="line2d_27">
      <g>
       <use style="stroke:#000000;stroke-width:0.5;" x="112.5" xlink:href="#m5ab121ebac" y="282.857143"/>
      </g>
     </g>
     <g id="line2d_28">
      <g>
       <use style="stroke:#000000;stroke-width:0.5;" x="635.625" xlink:href="#me473f75808" y="282.857143"/>
      </g>
     </g>
     <g id="text_13">
      <!-- 500,000 -->
      <defs>
       <path d="M 11.71875 12.40625 
L 22.015625 12.40625 
L 22.015625 4 
L 14.015625 -11.625 
L 7.71875 -11.625 
L 11.71875 4 
z
" id="DejaVuSans-44"/>
      </defs>
      <g transform="translate(58.87625 286.168393)scale(0.12 -0.12)">
       <use xlink:href="#DejaVuSans-53"/>
       <use x="63.623047" xlink:href="#DejaVuSans-48"/>
       <use x="127.246094" xlink:href="#DejaVuSans-48"/>
       <use x="190.869141" xlink:href="#DejaVuSans-44"/>
       <use x="222.65625" xlink:href="#DejaVuSans-48"/>
       <use x="286.279297" xlink:href="#DejaVuSans-48"/>
       <use x="349.902344" xlink:href="#DejaVuSans-48"/>
      </g>
     </g>
    </g>
    <g id="ytick_3">
     <g id="line2d_29">
      <g>
       <use style="stroke:#000000;stroke-width:0.5;" x="112.5" xlink:href="#m5ab121ebac" y="241.714286"/>
      </g>
     </g>
     <g id="line2d_30">
      <g>
       <use style="stroke:#000000;stroke-width:0.5;" x="635.625" xlink:href="#me473f75808" y="241.714286"/>
      </g>
     </g>
     <g id="text_14">
      <!-- 1,000,000 -->
      <g transform="translate(47.4275 245.025536)scale(0.12 -0.12)">
       <use xlink:href="#DejaVuSans-49"/>
       <use x="63.623047" xlink:href="#DejaVuSans-44"/>
       <use x="95.410156" xlink:href="#DejaVuSans-48"/>
       <use x="159.033203" xlink:href="#DejaVuSans-48"/>
       <use x="222.65625" xlink:href="#DejaVuSans-48"/>
       <use x="286.279297" xlink:href="#DejaVuSans-44"/>
       <use x="318.066406" xlink:href="#DejaVuSans-48"/>
       <use x="381.689453" xlink:href="#DejaVuSans-48"/>
       <use x="445.3125" xlink:href="#DejaVuSans-48"/>
      </g>
     </g>
    </g>
    <g id="ytick_4">
     <g id="line2d_31">
      <g>
       <use style="stroke:#000000;stroke-width:0.5;" x="112.5" xlink:href="#m5ab121ebac" y="200.571429"/>
      </g>
     </g>
     <g id="line2d_32">
      <g>
       <use style="stroke:#000000;stroke-width:0.5;" x="635.625" xlink:href="#me473f75808" y="200.571429"/>
      </g>
     </g>
     <g id="text_15">
      <!-- 1,500,000 -->
      <g transform="translate(47.4275 203.882679)scale(0.12 -0.12)">
       <use xlink:href="#DejaVuSans-49"/>
       <use x="63.623047" xlink:href="#DejaVuSans-44"/>
       <use x="95.410156" xlink:href="#DejaVuSans-53"/>
       <use x="159.033203" xlink:href="#DejaVuSans-48"/>
       <use x="222.65625" xlink:href="#DejaVuSans-48"/>
       <use x="286.279297" xlink:href="#DejaVuSans-44"/>
       <use x="318.066406" xlink:href="#DejaVuSans-48"/>
       <use x="381.689453" xlink:href="#DejaVuSans-48"/>
       <use x="445.3125" xlink:href="#DejaVuSans-48"/>
      </g>
     </g>
    </g>
    <g id="ytick_5">
     <g id="line2d_33">
      <g>
       <use style="stroke:#000000;stroke-width:0.5;" x="112.5" xlink:href="#m5ab121ebac" y="159.428571"/>
      </g>
     </g>
     <g id="line2d_34">
      <g>
       <use style="stroke:#000000;stroke-width:0.5;" x="635.625" xlink:href="#me473f75808" y="159.428571"/>
      </g>
     </g>
     <g id="text_16">
      <!-- 2,000,000 -->
      <g transform="translate(47.4275 162.739821)scale(0.12 -0.12)">
       <use xlink:href="#DejaVuSans-50"/>
       <use x="63.623047" xlink:href="#DejaVuSans-44"/>
       <use x="95.410156" xlink:href="#DejaVuSans-48"/>
       <use x="159.033203" xlink:href="#DejaVuSans-48"/>
       <use x="222.65625" xlink:href="#DejaVuSans-48"/>
       <use x="286.279297" xlink:href="#DejaVuSans-44"/>
       <use x="318.066406" xlink:href="#DejaVuSans-48"/>
       <use x="381.689453" xlink:href="#DejaVuSans-48"/>
       <use x="445.3125" xlink:href="#DejaVuSans-48"/>
      </g>
     </g>
    </g>
    <g id="ytick_6">
     <g id="line2d_35">
      <g>
       <use style="stroke:#000000;stroke-width:0.5;" x="112.5" xlink:href="#m5ab121ebac" y="118.285714"/>
      </g>
     </g>
     <g id="line2d_36">
      <g>
       <use style="stroke:#000000;stroke-width:0.5;" x="635.625" xlink:href="#me473f75808" y="118.285714"/>
      </g>
     </g>
     <g id="text_17">
      <!-- 2,500,000 -->
      <g transform="translate(47.4275 121.596964)scale(0.12 -0.12)">
       <use xlink:href="#DejaVuSans-50"/>
       <use x="63.623047" xlink:href="#DejaVuSans-44"/>
       <use x="95.410156" xlink:href="#DejaVuSans-53"/>
       <use x="159.033203" xlink:href="#DejaVuSans-48"/>
       <use x="222.65625" xlink:href="#DejaVuSans-48"/>
       <use x="286.279297" xlink:href="#DejaVuSans-44"/>
       <use x="318.066406" xlink:href="#DejaVuSans-48"/>
       <use x="381.689453" xlink:href="#DejaVuSans-48"/>
       <use x="445.3125" xlink:href="#DejaVuSans-48"/>
      </g>
     </g>
    </g>
    <g id="ytick_7">
     <g id="line2d_37">
      <g>
       <use style="stroke:#000000;stroke-width:0.5;" x="112.5" xlink:href="#m5ab121ebac" y="77.142857"/>
      </g>
     </g>
     <g id="line2d_38">
      <g>
       <use style="stroke:#000000;stroke-width:0.5;" x="635.625" xlink:href="#me473f75808" y="77.142857"/>
      </g>
     </g>
     <g id="text_18">
      <!-- 3,000,000 -->
      <defs>
       <path d="M 40.578125 39.3125 
Q 47.65625 37.796875 51.625 33 
Q 55.609375 28.21875 55.609375 21.1875 
Q 55.609375 10.40625 48.1875 4.484375 
Q 40.765625 -1.421875 27.09375 -1.421875 
Q 22.515625 -1.421875 17.65625 -0.515625 
Q 12.796875 0.390625 7.625 2.203125 
L 7.625 11.71875 
Q 11.71875 9.328125 16.59375 8.109375 
Q 21.484375 6.890625 26.8125 6.890625 
Q 36.078125 6.890625 40.9375 10.546875 
Q 45.796875 14.203125 45.796875 21.1875 
Q 45.796875 27.640625 41.28125 31.265625 
Q 36.765625 34.90625 28.71875 34.90625 
L 20.21875 34.90625 
L 20.21875 43.015625 
L 29.109375 43.015625 
Q 36.375 43.015625 40.234375 45.921875 
Q 44.09375 48.828125 44.09375 54.296875 
Q 44.09375 59.90625 40.109375 62.90625 
Q 36.140625 65.921875 28.71875 65.921875 
Q 24.65625 65.921875 20.015625 65.03125 
Q 15.375 64.15625 9.8125 62.3125 
L 9.8125 71.09375 
Q 15.4375 72.65625 20.34375 73.4375 
Q 25.25 74.21875 29.59375 74.21875 
Q 40.828125 74.21875 47.359375 69.109375 
Q 53.90625 64.015625 53.90625 55.328125 
Q 53.90625 49.265625 50.4375 45.09375 
Q 46.96875 40.921875 40.578125 39.3125 
z
" id="DejaVuSans-51"/>
      </defs>
      <g transform="translate(47.4275 80.454107)scale(0.12 -0.12)">
       <use xlink:href="#DejaVuSans-51"/>
       <use x="63.623047" xlink:href="#DejaVuSans-44"/>
       <use x="95.410156" xlink:href="#DejaVuSans-48"/>
       <use x="159.033203" xlink:href="#DejaVuSans-48"/>
       <use x="222.65625" xlink:href="#DejaVuSans-48"/>
       <use x="286.279297" xlink:href="#DejaVuSans-44"/>
       <use x="318.066406" xlink:href="#DejaVuSans-48"/>
       <use x="381.689453" xlink:href="#DejaVuSans-48"/>
       <use x="445.3125" xlink:href="#DejaVuSans-48"/>
      </g>
     </g>
    </g>
    <g id="ytick_8">
     <g id="line2d_39">
      <g>
       <use style="stroke:#000000;stroke-width:0.5;" x="112.5" xlink:href="#m5ab121ebac" y="36"/>
      </g>
     </g>
     <g id="line2d_40">
      <g>
       <use style="stroke:#000000;stroke-width:0.5;" x="635.625" xlink:href="#me473f75808" y="36"/>
      </g>
     </g>
     <g id="text_19">
      <!-- 3,500,000 -->
      <g transform="translate(47.4275 39.31125)scale(0.12 -0.12)">
       <use xlink:href="#DejaVuSans-51"/>
       <use x="63.623047" xlink:href="#DejaVuSans-44"/>
       <use x="95.410156" xlink:href="#DejaVuSans-53"/>
       <use x="159.033203" xlink:href="#DejaVuSans-48"/>
       <use x="222.65625" xlink:href="#DejaVuSans-48"/>
       <use x="286.279297" xlink:href="#DejaVuSans-44"/>
       <use x="318.066406" xlink:href="#DejaVuSans-48"/>
       <use x="381.689453" xlink:href="#DejaVuSans-48"/>
       <use x="445.3125" xlink:href="#DejaVuSans-48"/>
      </g>
     </g>
    </g>
    <g id="text_20">
     <!-- parameters -->
     <defs>
      <path d="M 18.109375 8.203125 
L 18.109375 -20.796875 
L 9.078125 -20.796875 
L 9.078125 54.6875 
L 18.109375 54.6875 
L 18.109375 46.390625 
Q 20.953125 51.265625 25.265625 53.625 
Q 29.59375 56 35.59375 56 
Q 45.5625 56 51.78125 48.09375 
Q 58.015625 40.1875 58.015625 27.296875 
Q 58.015625 14.40625 51.78125 6.484375 
Q 45.5625 -1.421875 35.59375 -1.421875 
Q 29.59375 -1.421875 25.265625 0.953125 
Q 20.953125 3.328125 18.109375 8.203125 
z
M 48.6875 27.296875 
Q 48.6875 37.203125 44.609375 42.84375 
Q 40.53125 48.484375 33.40625 48.484375 
Q 26.265625 48.484375 22.1875 42.84375 
Q 18.109375 37.203125 18.109375 27.296875 
Q 18.109375 17.390625 22.1875 11.75 
Q 26.265625 6.109375 33.40625 6.109375 
Q 40.53125 6.109375 44.609375 11.75 
Q 48.6875 17.390625 48.6875 27.296875 
z
" id="DejaVuSans-112"/>
      <path d="M 52 44.1875 
Q 55.375 50.25 60.0625 53.125 
Q 64.75 56 71.09375 56 
Q 79.640625 56 84.28125 50.015625 
Q 88.921875 44.046875 88.921875 33.015625 
L 88.921875 0 
L 79.890625 0 
L 79.890625 32.71875 
Q 79.890625 40.578125 77.09375 44.375 
Q 74.3125 48.1875 68.609375 48.1875 
Q 61.625 48.1875 57.5625 43.546875 
Q 53.515625 38.921875 53.515625 30.90625 
L 53.515625 0 
L 44.484375 0 
L 44.484375 32.71875 
Q 44.484375 40.625 41.703125 44.40625 
Q 38.921875 48.1875 33.109375 48.1875 
Q 26.21875 48.1875 22.15625 43.53125 
Q 18.109375 38.875 18.109375 30.90625 
L 18.109375 0 
L 9.078125 0 
L 9.078125 54.6875 
L 18.109375 54.6875 
L 18.109375 46.1875 
Q 21.1875 51.21875 25.484375 53.609375 
Q 29.78125 56 35.6875 56 
Q 41.65625 56 45.828125 52.96875 
Q 50 49.953125 52 44.1875 
z
" id="DejaVuSans-109"/>
      <path d="M 44.28125 53.078125 
L 44.28125 44.578125 
Q 40.484375 46.53125 36.375 47.5 
Q 32.28125 48.484375 27.875 48.484375 
Q 21.1875 48.484375 17.84375 46.4375 
Q 14.5 44.390625 14.5 40.28125 
Q 14.5 37.15625 16.890625 35.375 
Q 19.28125 33.59375 26.515625 31.984375 
L 29.59375 31.296875 
Q 39.15625 29.25 43.1875 25.515625 
Q 47.21875 21.78125 47.21875 15.09375 
Q 47.21875 7.46875 41.1875 3.015625 
Q 35.15625 -1.421875 24.609375 -1.421875 
Q 20.21875 -1.421875 15.453125 -0.5625 
Q 10.6875 0.296875 5.421875 2 
L 5.421875 11.28125 
Q 10.40625 8.6875 15.234375 7.390625 
Q 20.0625 6.109375 24.8125 6.109375 
Q 31.15625 6.109375 34.5625 8.28125 
Q 37.984375 10.453125 37.984375 14.40625 
Q 37.984375 18.0625 35.515625 20.015625 
Q 33.0625 21.96875 24.703125 23.78125 
L 21.578125 24.515625 
Q 13.234375 26.265625 9.515625 29.90625 
Q 5.8125 33.546875 5.8125 39.890625 
Q 5.8125 47.609375 11.28125 51.796875 
Q 16.75 56 26.8125 56 
Q 31.78125 56 36.171875 55.265625 
Q 40.578125 54.546875 44.28125 53.078125 
z
" id="DejaVuSans-115"/>
     </defs>
     <g transform="translate(39.931875 214.801875)rotate(-90)scale(0.12 -0.12)">
      <use xlink:href="#DejaVuSans-112"/>
      <use x="63.476562" xlink:href="#DejaVuSans-97"/>
      <use x="124.755859" xlink:href="#DejaVuSans-114"/>
      <use x="165.869141" xlink:href="#DejaVuSans-97"/>
      <use x="227.148438" xlink:href="#DejaVuSans-109"/>
      <use x="324.560547" xlink:href="#DejaVuSans-101"/>
      <use x="386.083984" xlink:href="#DejaVuSans-116"/>
      <use x="425.292969" xlink:href="#DejaVuSans-101"/>
      <use x="486.816406" xlink:href="#DejaVuSans-114"/>
      <use x="527.929688" xlink:href="#DejaVuSans-115"/>
     </g>
    </g>
   </g>
   <g id="legend_1">
    <g id="patch_7">
     <path d="M 640.623 211.399935 
L 797.452431 211.399935 
L 797.452431 148.600065 
L 640.623 148.600065 
z
" style="fill:#ffffff;stroke:#000000;stroke-linejoin:miter;"/>
    </g>
    <g id="line2d_41">
     <path d="M 647.6202 156.695263 
L 661.6146 156.695263 
" style="fill:none;stroke:#0000ff;stroke-linecap:square;stroke-width:1.2;"/>
    </g>
    <g id="line2d_42"/>
    <g id="text_21">
     <!-- Crossover_mutation_0.2 -->
     <defs>
      <path d="M 64.40625 67.28125 
L 64.40625 56.890625 
Q 59.421875 61.53125 53.78125 63.8125 
Q 48.140625 66.109375 41.796875 66.109375 
Q 29.296875 66.109375 22.65625 58.46875 
Q 16.015625 50.828125 16.015625 36.375 
Q 16.015625 21.96875 22.65625 14.328125 
Q 29.296875 6.6875 41.796875 6.6875 
Q 48.140625 6.6875 53.78125 8.984375 
Q 59.421875 11.28125 64.40625 15.921875 
L 64.40625 5.609375 
Q 59.234375 2.09375 53.4375 0.328125 
Q 47.65625 -1.421875 41.21875 -1.421875 
Q 24.65625 -1.421875 15.125 8.703125 
Q 5.609375 18.84375 5.609375 36.375 
Q 5.609375 53.953125 15.125 64.078125 
Q 24.65625 74.21875 41.21875 74.21875 
Q 47.75 74.21875 53.53125 72.484375 
Q 59.328125 70.75 64.40625 67.28125 
z
" id="DejaVuSans-67"/>
      <path d="M 2.984375 54.6875 
L 12.5 54.6875 
L 29.59375 8.796875 
L 46.6875 54.6875 
L 56.203125 54.6875 
L 35.6875 0 
L 23.484375 0 
z
" id="DejaVuSans-118"/>
      <path d="M 50.984375 -16.609375 
L 50.984375 -23.578125 
L -0.984375 -23.578125 
L -0.984375 -16.609375 
z
" id="DejaVuSans-95"/>
      <path d="M 8.5 21.578125 
L 8.5 54.6875 
L 17.484375 54.6875 
L 17.484375 21.921875 
Q 17.484375 14.15625 20.5 10.265625 
Q 23.53125 6.390625 29.59375 6.390625 
Q 36.859375 6.390625 41.078125 11.03125 
Q 45.3125 15.671875 45.3125 23.6875 
L 45.3125 54.6875 
L 54.296875 54.6875 
L 54.296875 0 
L 45.3125 0 
L 45.3125 8.40625 
Q 42.046875 3.421875 37.71875 1 
Q 33.40625 -1.421875 27.6875 -1.421875 
Q 18.265625 -1.421875 13.375 4.4375 
Q 8.5 10.296875 8.5 21.578125 
z
M 31.109375 56 
z
" id="DejaVuSans-117"/>
      <path d="M 10.6875 12.40625 
L 21 12.40625 
L 21 0 
L 10.6875 0 
z
" id="DejaVuSans-46"/>
     </defs>
     <g transform="translate(672.6102 160.193863)scale(0.09996 -0.09996)">
      <use xlink:href="#DejaVuSans-67"/>
      <use x="69.824219" xlink:href="#DejaVuSans-114"/>
      <use x="108.6875" xlink:href="#DejaVuSans-111"/>
      <use x="169.869141" xlink:href="#DejaVuSans-115"/>
      <use x="221.96875" xlink:href="#DejaVuSans-115"/>
      <use x="274.068359" xlink:href="#DejaVuSans-111"/>
      <use x="335.25" xlink:href="#DejaVuSans-118"/>
      <use x="394.429688" xlink:href="#DejaVuSans-101"/>
      <use x="455.953125" xlink:href="#DejaVuSans-114"/>
      <use x="497.066406" xlink:href="#DejaVuSans-95"/>
      <use x="547.066406" xlink:href="#DejaVuSans-109"/>
      <use x="644.478516" xlink:href="#DejaVuSans-117"/>
      <use x="707.857422" xlink:href="#DejaVuSans-116"/>
      <use x="747.066406" xlink:href="#DejaVuSans-97"/>
      <use x="808.345703" xlink:href="#DejaVuSans-116"/>
      <use x="847.554688" xlink:href="#DejaVuSans-105"/>
      <use x="875.337891" xlink:href="#DejaVuSans-111"/>
      <use x="936.519531" xlink:href="#DejaVuSans-110"/>
      <use x="999.898438" xlink:href="#DejaVuSans-95"/>
      <use x="1049.898438" xlink:href="#DejaVuSans-48"/>
      <use x="1113.521484" xlink:href="#DejaVuSans-46"/>
      <use x="1145.308594" xlink:href="#DejaVuSans-50"/>
     </g>
    </g>
    <g id="line2d_43">
     <path d="M 647.6202 171.645531 
L 661.6146 171.645531 
" style="fill:none;stroke:#008000;stroke-linecap:square;stroke-width:1.2;"/>
    </g>
    <g id="line2d_44"/>
    <g id="text_22">
     <!-- Crossover_mutation_0.4 -->
     <g transform="translate(672.6102 175.144131)scale(0.09996 -0.09996)">
      <use xlink:href="#DejaVuSans-67"/>
      <use x="69.824219" xlink:href="#DejaVuSans-114"/>
      <use x="108.6875" xlink:href="#DejaVuSans-111"/>
      <use x="169.869141" xlink:href="#DejaVuSans-115"/>
      <use x="221.96875" xlink:href="#DejaVuSans-115"/>
      <use x="274.068359" xlink:href="#DejaVuSans-111"/>
      <use x="335.25" xlink:href="#DejaVuSans-118"/>
      <use x="394.429688" xlink:href="#DejaVuSans-101"/>
      <use x="455.953125" xlink:href="#DejaVuSans-114"/>
      <use x="497.066406" xlink:href="#DejaVuSans-95"/>
      <use x="547.066406" xlink:href="#DejaVuSans-109"/>
      <use x="644.478516" xlink:href="#DejaVuSans-117"/>
      <use x="707.857422" xlink:href="#DejaVuSans-116"/>
      <use x="747.066406" xlink:href="#DejaVuSans-97"/>
      <use x="808.345703" xlink:href="#DejaVuSans-116"/>
      <use x="847.554688" xlink:href="#DejaVuSans-105"/>
      <use x="875.337891" xlink:href="#DejaVuSans-111"/>
      <use x="936.519531" xlink:href="#DejaVuSans-110"/>
      <use x="999.898438" xlink:href="#DejaVuSans-95"/>
      <use x="1049.898438" xlink:href="#DejaVuSans-48"/>
      <use x="1113.521484" xlink:href="#DejaVuSans-46"/>
      <use x="1145.308594" xlink:href="#DejaVuSans-52"/>
     </g>
    </g>
    <g id="line2d_45">
     <path d="M 647.6202 186.595798 
L 661.6146 186.595798 
" style="fill:none;stroke:#ff0000;stroke-linecap:square;stroke-width:1.2;"/>
    </g>
    <g id="line2d_46"/>
    <g id="text_23">
     <!-- Crossover_mutation_0.6 -->
     <g transform="translate(672.6102 190.094398)scale(0.09996 -0.09996)">
      <use xlink:href="#DejaVuSans-67"/>
      <use x="69.824219" xlink:href="#DejaVuSans-114"/>
      <use x="108.6875" xlink:href="#DejaVuSans-111"/>
      <use x="169.869141" xlink:href="#DejaVuSans-115"/>
      <use x="221.96875" xlink:href="#DejaVuSans-115"/>
      <use x="274.068359" xlink:href="#DejaVuSans-111"/>
      <use x="335.25" xlink:href="#DejaVuSans-118"/>
      <use x="394.429688" xlink:href="#DejaVuSans-101"/>
      <use x="455.953125" xlink:href="#DejaVuSans-114"/>
      <use x="497.066406" xlink:href="#DejaVuSans-95"/>
      <use x="547.066406" xlink:href="#DejaVuSans-109"/>
      <use x="644.478516" xlink:href="#DejaVuSans-117"/>
      <use x="707.857422" xlink:href="#DejaVuSans-116"/>
      <use x="747.066406" xlink:href="#DejaVuSans-97"/>
      <use x="808.345703" xlink:href="#DejaVuSans-116"/>
      <use x="847.554688" xlink:href="#DejaVuSans-105"/>
      <use x="875.337891" xlink:href="#DejaVuSans-111"/>
      <use x="936.519531" xlink:href="#DejaVuSans-110"/>
      <use x="999.898438" xlink:href="#DejaVuSans-95"/>
      <use x="1049.898438" xlink:href="#DejaVuSans-48"/>
      <use x="1113.521484" xlink:href="#DejaVuSans-46"/>
      <use x="1145.308594" xlink:href="#DejaVuSans-54"/>
     </g>
    </g>
    <g id="line2d_47">
     <path d="M 647.6202 201.546066 
L 661.6146 201.546066 
" style="fill:none;stroke:#00bfbf;stroke-linecap:square;stroke-width:1.2;"/>
    </g>
    <g id="line2d_48"/>
    <g id="text_24">
     <!-- Crossover_mutation_0.8 -->
     <g transform="translate(672.6102 205.044666)scale(0.09996 -0.09996)">
      <use xlink:href="#DejaVuSans-67"/>
      <use x="69.824219" xlink:href="#DejaVuSans-114"/>
      <use x="108.6875" xlink:href="#DejaVuSans-111"/>
      <use x="169.869141" xlink:href="#DejaVuSans-115"/>
      <use x="221.96875" xlink:href="#DejaVuSans-115"/>
      <use x="274.068359" xlink:href="#DejaVuSans-111"/>
      <use x="335.25" xlink:href="#DejaVuSans-118"/>
      <use x="394.429688" xlink:href="#DejaVuSans-101"/>
      <use x="455.953125" xlink:href="#DejaVuSans-114"/>
      <use x="497.066406" xlink:href="#DejaVuSans-95"/>
      <use x="547.066406" xlink:href="#DejaVuSans-109"/>
      <use x="644.478516" xlink:href="#DejaVuSans-117"/>
      <use x="707.857422" xlink:href="#DejaVuSans-116"/>
      <use x="747.066406" xlink:href="#DejaVuSans-97"/>
      <use x="808.345703" xlink:href="#DejaVuSans-116"/>
      <use x="847.554688" xlink:href="#DejaVuSans-105"/>
      <use x="875.337891" xlink:href="#DejaVuSans-111"/>
      <use x="936.519531" xlink:href="#DejaVuSans-110"/>
      <use x="999.898438" xlink:href="#DejaVuSans-95"/>
      <use x="1049.898438" xlink:href="#DejaVuSans-48"/>
      <use x="1113.521484" xlink:href="#DejaVuSans-46"/>
      <use x="1145.308594" xlink:href="#DejaVuSans-56"/>
     </g>
    </g>
   </g>
  </g>
  <g id="text_25">
   <!-- Average Amount of Parameters -->
   <defs>
    <path d="M 34.1875 63.1875 
L 20.796875 26.90625 
L 47.609375 26.90625 
z
M 28.609375 72.90625 
L 39.796875 72.90625 
L 67.578125 0 
L 57.328125 0 
L 50.6875 18.703125 
L 17.828125 18.703125 
L 11.1875 0 
L 0.78125 0 
z
" id="DejaVuSans-65"/>
    <path id="DejaVuSans-32"/>
    <path d="M 37.109375 75.984375 
L 37.109375 68.5 
L 28.515625 68.5 
Q 23.6875 68.5 21.796875 66.546875 
Q 19.921875 64.59375 19.921875 59.515625 
L 19.921875 54.6875 
L 34.71875 54.6875 
L 34.71875 47.703125 
L 19.921875 47.703125 
L 19.921875 0 
L 10.890625 0 
L 10.890625 47.703125 
L 2.296875 47.703125 
L 2.296875 54.6875 
L 10.890625 54.6875 
L 10.890625 58.5 
Q 10.890625 67.625 15.140625 71.796875 
Q 19.390625 75.984375 28.609375 75.984375 
z
" id="DejaVuSans-102"/>
    <path d="M 19.671875 64.796875 
L 19.671875 37.40625 
L 32.078125 37.40625 
Q 38.96875 37.40625 42.71875 40.96875 
Q 46.484375 44.53125 46.484375 51.125 
Q 46.484375 57.671875 42.71875 61.234375 
Q 38.96875 64.796875 32.078125 64.796875 
z
M 9.8125 72.90625 
L 32.078125 72.90625 
Q 44.34375 72.90625 50.609375 67.359375 
Q 56.890625 61.8125 56.890625 51.125 
Q 56.890625 40.328125 50.609375 34.8125 
Q 44.34375 29.296875 32.078125 29.296875 
L 19.671875 29.296875 
L 19.671875 0 
L 9.8125 0 
z
" id="DejaVuSans-80"/>
   </defs>
   <g transform="translate(355.93875 16.318125)scale(0.12 -0.12)">
    <use xlink:href="#DejaVuSans-65"/>
    <use x="62.533203" xlink:href="#DejaVuSans-118"/>
    <use x="121.712891" xlink:href="#DejaVuSans-101"/>
    <use x="183.236328" xlink:href="#DejaVuSans-114"/>
    <use x="224.349609" xlink:href="#DejaVuSans-97"/>
    <use x="285.628906" xlink:href="#DejaVuSans-103"/>
    <use x="349.105469" xlink:href="#DejaVuSans-101"/>
    <use x="410.628906" xlink:href="#DejaVuSans-32"/>
    <use x="442.416016" xlink:href="#DejaVuSans-65"/>
    <use x="510.824219" xlink:href="#DejaVuSans-109"/>
    <use x="608.236328" xlink:href="#DejaVuSans-111"/>
    <use x="669.417969" xlink:href="#DejaVuSans-117"/>
    <use x="732.796875" xlink:href="#DejaVuSans-110"/>
    <use x="796.175781" xlink:href="#DejaVuSans-116"/>
    <use x="835.384766" xlink:href="#DejaVuSans-32"/>
    <use x="867.171875" xlink:href="#DejaVuSans-111"/>
    <use x="928.353516" xlink:href="#DejaVuSans-102"/>
    <use x="963.558594" xlink:href="#DejaVuSans-32"/>
    <use x="995.345703" xlink:href="#DejaVuSans-80"/>
    <use x="1051.148438" xlink:href="#DejaVuSans-97"/>
    <use x="1112.427734" xlink:href="#DejaVuSans-114"/>
    <use x="1153.541016" xlink:href="#DejaVuSans-97"/>
    <use x="1214.820312" xlink:href="#DejaVuSans-109"/>
    <use x="1312.232422" xlink:href="#DejaVuSans-101"/>
    <use x="1373.755859" xlink:href="#DejaVuSans-116"/>
    <use x="1412.964844" xlink:href="#DejaVuSans-101"/>
    <use x="1474.488281" xlink:href="#DejaVuSans-114"/>
    <use x="1515.601562" xlink:href="#DejaVuSans-115"/>
   </g>
  </g>
 </g>
 <defs>
  <clipPath id="p0f7a48ae49">
   <rect height="288" width="523.125" x="112.5" y="36"/>
  </clipPath>
 </defs>
</svg>
