<?xml version="1.0" encoding="utf-8" standalone="no"?>
<!DOCTYPE svg PUBLIC "-//W3C//DTD SVG 1.1//EN"
  "http://www.w3.org/Graphics/SVG/1.1/DTD/svg11.dtd">
<!-- Created with matplotlib (https://matplotlib.org/) -->
<svg height="360pt" version="1.1" viewBox="0 0 900 360" width="900pt" xmlns="http://www.w3.org/2000/svg" xmlns:xlink="http://www.w3.org/1999/xlink">
 <defs>
  <style type="text/css">
*{stroke-linecap:butt;stroke-linejoin:round;}
  </style>
 </defs>
 <g id="figure_1">
  <g id="patch_1">
   <path d="M 0 360 
L 900 360 
L 900 0 
L 0 0 
z
" style="fill:#ffffff;"/>
  </g>
  <g id="axes_1">
   <g id="patch_2">
    <path d="M 112.5 324 
L 635.625 324 
L 635.625 36 
L 112.5 36 
z
" style="fill:#ffffff;"/>
   </g>
   <g id="line2d_1">
    <path clip-path="url(#p9b0ca941b9)" d="M 112.85062 307.542857 
L 116.35682 303.342857 
L 123.369219 285.39619 
L 126.875419 281.250736 
L 130.381619 274.050736 
L 133.887818 273.312274 
L 137.394018 266.802229 
L 144.406418 256.109151 
L 147.912617 252.748609 
L 151.418817 249.079215 
L 154.925017 245.127559 
L 158.431216 245.174889 
L 161.937416 241.295863 
L 165.443616 236.241175 
L 168.949816 233.051331 
L 172.456015 228.58231 
L 175.962215 221.467164 
L 179.468415 217.800979 
L 182.974615 205.726063 
L 186.480814 200.405309 
L 189.987014 192.479473 
L 193.493214 185.297022 
L 196.999414 176.059692 
L 200.505613 169.612964 
L 204.011813 162.029271 
L 207.518013 162.914133 
L 214.530412 151.413388 
L 218.036612 147.699262 
L 225.049011 135.029889 
L 228.555211 129.629936 
L 232.061411 120.054228 
L 235.567611 114.607556 
L 239.07381 110.1148 
L 242.58001 108.515995 
L 246.08621 113.380954 
L 249.59241 114.669497 
L 253.098609 112.595617 
L 256.604809 112.575724 
L 260.111009 108.357891 
L 263.617208 109.515052 
L 267.123408 106.822672 
L 270.629608 99.487419 
L 274.135808 94.258029 
L 277.642007 93.216676 
L 281.148207 95.235211 
L 284.654407 99.395004 
L 288.160607 100.093462 
L 291.666806 98.468138 
L 295.173006 99.68204 
L 302.185405 99.677222 
L 305.691605 95.957377 
L 309.197805 93.662175 
L 312.704005 90.028999 
L 316.210204 87.718296 
L 319.716404 85.874931 
L 323.222604 86.286077 
L 326.728804 84.332912 
L 330.235003 83.254108 
L 337.247403 82.453003 
L 340.753603 82.971058 
L 344.259802 82.193837 
L 347.766002 80.217511 
L 351.272202 80.639403 
L 354.778401 80.807502 
L 358.284601 86.375563 
L 361.790801 87.231145 
L 365.297001 89.774228 
L 368.8032 92.57272 
L 372.3094 92.230813 
L 375.8156 96.076305 
L 379.3218 93.18929 
L 382.827999 87.621115 
L 386.334199 87.466498 
L 389.840399 83.042826 
L 393.346599 87.294372 
L 396.852798 90.053108 
L 400.358998 85.897478 
L 403.865198 87.551954 
L 407.371397 93.454326 
L 410.877597 94.468774 
L 414.383797 100.332308 
L 417.889997 96.719842 
L 421.396196 97.232668 
L 424.902396 99.950759 
L 428.408596 101.827591 
L 431.914796 95.825534 
L 435.420995 94.083746 
L 438.927195 90.28001 
L 442.433395 83.507715 
L 445.939595 81.713488 
L 449.445794 77.17216 
L 452.951994 73.98328 
L 456.458194 71.380031 
L 459.964393 66.125899 
L 463.470593 65.929429 
L 466.976793 71.592638 
L 470.482993 73.767957 
L 473.989192 73.136864 
L 477.495392 75.656371 
L 481.001592 75.062243 
L 484.507792 77.411192 
L 488.013991 76.817482 
L 491.520191 73.34247 
L 495.026391 70.909741 
L 498.53259 77.753808 
L 502.03879 77.176687 
L 505.54499 79.923953 
L 509.05119 85.471088 
L 512.557389 85.213673 
L 516.063589 87.788381 
L 519.569789 91.117507 
L 523.075989 86.791638 
L 526.582188 86.423557 
L 533.594588 85.103892 
L 537.100788 85.833908 
L 540.606987 85.683564 
L 544.113187 84.527107 
L 547.619387 86.014451 
L 551.125586 90.782981 
L 554.631786 93.380454 
L 558.137986 89.032498 
L 561.644186 90.386235 
L 565.150385 91.486441 
L 568.656585 89.806389 
L 572.162785 90.282692 
L 575.668985 86.5519 
L 579.175184 86.211242 
L 582.681384 90.055761 
L 586.187584 91.507264 
L 589.693784 92.062711 
L 593.199983 93.713198 
L 596.706183 94.161698 
L 600.212383 94.842656 
L 603.718582 95.085754 
L 607.224782 95.977328 
L 610.730982 94.338149 
L 614.237182 94.414848 
L 617.743381 93.945776 
L 617.743381 93.945776 
" style="fill:none;stroke:#0000ff;stroke-linecap:square;stroke-width:1.2;"/>
   </g>
   <g id="line2d_2">
    <path clip-path="url(#p9b0ca941b9)" d="M 112.85062 322.97143 
L 123.369219 307.524762 
L 126.875419 304.033852 
L 130.381619 305.633852 
L 133.887818 304.52616 
L 137.394018 301.076524 
L 140.900218 296.0923 
L 144.406418 292.775957 
L 147.912617 291.272203 
L 151.418817 283.644384 
L 154.925017 276.968271 
L 158.431216 273.740741 
L 161.937416 269.053374 
L 165.443616 262.911918 
L 168.949816 257.845454 
L 172.456015 249.181857 
L 175.962215 243.207817 
L 179.468415 239.872398 
L 182.974615 232.09791 
L 186.480814 223.347489 
L 189.987014 218.273302 
L 193.493214 213.567752 
L 196.999414 210.274359 
L 200.505613 207.18717 
L 204.011813 201.165229 
L 207.518013 199.339639 
L 211.024212 196.200573 
L 214.530412 194.871902 
L 221.542812 185.236554 
L 225.049011 181.33266 
L 228.555211 180.730155 
L 232.061411 177.083272 
L 235.567611 174.874248 
L 239.07381 168.905198 
L 242.58001 165.427853 
L 246.08621 164.088722 
L 249.59241 160.731496 
L 253.098609 155.131599 
L 256.604809 150.489163 
L 260.111009 147.69031 
L 263.617208 145.873781 
L 267.123408 141.60039 
L 270.629608 136.362827 
L 274.135808 130.796006 
L 277.642007 127.262499 
L 281.148207 125.475832 
L 284.654407 123.951641 
L 288.160607 118.019169 
L 291.666806 117.682152 
L 298.679206 113.407539 
L 302.185405 115.111003 
L 305.691605 109.88294 
L 309.197805 108.06227 
L 312.704005 108.957894 
L 316.210204 106.440643 
L 319.716404 104.635561 
L 323.222604 112.453101 
L 326.728804 108.92557 
L 330.235003 110.698081 
L 333.741203 111.454681 
L 337.247403 111.831357 
L 340.753603 114.830643 
L 344.259802 116.722572 
L 347.766002 108.558685 
L 351.272202 108.345847 
L 354.778401 107.057214 
L 358.284601 101.918947 
L 361.790801 101.894916 
L 365.297001 95.730629 
L 368.8032 93.377403 
L 372.3094 95.163458 
L 375.8156 97.841736 
L 379.3218 97.871315 
L 382.827999 100.883036 
L 386.334199 97.297506 
L 389.840399 98.710342 
L 393.346599 97.089799 
L 396.852798 97.053363 
L 400.358998 94.96195 
L 403.865198 93.999691 
L 407.371397 90.147126 
L 410.877597 87.381713 
L 414.383797 85.033357 
L 417.889997 88.905938 
L 421.396196 90.309983 
L 424.902396 85.890601 
L 428.408596 86.005286 
L 431.914796 85.132837 
L 435.420995 87.729077 
L 438.927195 89.413363 
L 442.433395 87.421626 
L 445.939595 83.876368 
L 449.445794 83.536812 
L 452.951994 81.685391 
L 456.458194 82.527895 
L 463.470593 87.517672 
L 466.976793 86.232753 
L 470.482993 85.490936 
L 473.989192 87.672023 
L 477.495392 89.05561 
L 484.507792 92.58608 
L 488.013991 90.391342 
L 491.520191 94.218926 
L 495.026391 96.551848 
L 498.53259 94.465681 
L 502.03879 95.989532 
L 509.05119 93.41082 
L 512.557389 97.520011 
L 516.063589 94.081633 
L 519.569789 94.076232 
L 523.075989 94.415506 
L 530.088388 102.909954 
L 537.100788 99.680706 
L 540.606987 99.557558 
L 544.113187 97.948429 
L 547.619387 98.404807 
L 551.125586 96.164778 
L 554.631786 93.245918 
L 558.137986 93.554015 
L 561.644186 92.713501 
L 565.150385 94.587035 
L 568.656585 95.066927 
L 572.162785 96.840937 
L 575.668985 89.139103 
L 579.175184 91.592425 
L 582.681384 94.395379 
L 586.187584 91.386293 
L 589.693784 88.740082 
L 593.199983 88.807248 
L 596.706183 85.420041 
L 600.212383 90.30319 
L 603.718582 89.280941 
L 607.224782 85.010599 
L 610.730982 87.843238 
L 614.237182 88.512712 
L 617.743381 87.264227 
L 621.249581 90.128628 
L 624.755781 90.484034 
L 628.261981 87.604826 
L 631.76818 89.879708 
L 635.27438 87.582019 
L 635.27438 87.582019 
" style="fill:none;stroke:#008000;stroke-linecap:square;stroke-width:1.2;"/>
   </g>
   <g id="patch_3">
    <path d="M 112.5 324 
L 112.5 36 
" style="fill:none;stroke:#000000;stroke-linecap:square;stroke-linejoin:miter;"/>
   </g>
   <g id="patch_4">
    <path d="M 635.625 324 
L 635.625 36 
" style="fill:none;stroke:#000000;stroke-linecap:square;stroke-linejoin:miter;"/>
   </g>
   <g id="patch_5">
    <path d="M 112.5 324 
L 635.625 324 
" style="fill:none;stroke:#000000;stroke-linecap:square;stroke-linejoin:miter;"/>
   </g>
   <g id="patch_6">
    <path d="M 112.5 36 
L 635.625 36 
" style="fill:none;stroke:#000000;stroke-linecap:square;stroke-linejoin:miter;"/>
   </g>
   <g id="matplotlib.axis_1">
    <g id="xtick_1">
     <g id="line2d_3">
      <defs>
       <path d="M 0 0 
L 0 -4 
" id="m98339aec0a" style="stroke:#000000;stroke-width:0.5;"/>
      </defs>
      <g>
       <use style="stroke:#000000;stroke-width:0.5;" x="112.85062" xlink:href="#m98339aec0a" y="324"/>
      </g>
     </g>
     <g id="line2d_4">
      <defs>
       <path d="M 0 0 
L 0 4 
" id="mc04a27cc17" style="stroke:#000000;stroke-width:0.5;"/>
      </defs>
      <g>
       <use style="stroke:#000000;stroke-width:0.5;" x="112.85062" xlink:href="#mc04a27cc17" y="36"/>
      </g>
     </g>
     <g id="text_1">
      <!-- 0 -->
      <defs>
       <path d="M 31.78125 66.40625 
Q 24.171875 66.40625 20.328125 58.90625 
Q 16.5 51.421875 16.5 36.375 
Q 16.5 21.390625 20.328125 13.890625 
Q 24.171875 6.390625 31.78125 6.390625 
Q 39.453125 6.390625 43.28125 13.890625 
Q 47.125 21.390625 47.125 36.375 
Q 47.125 51.421875 43.28125 58.90625 
Q 39.453125 66.40625 31.78125 66.40625 
z
M 31.78125 74.21875 
Q 44.046875 74.21875 50.515625 64.515625 
Q 56.984375 54.828125 56.984375 36.375 
Q 56.984375 17.96875 50.515625 8.265625 
Q 44.046875 -1.421875 31.78125 -1.421875 
Q 19.53125 -1.421875 13.0625 8.265625 
Q 6.59375 17.96875 6.59375 36.375 
Q 6.59375 54.828125 13.0625 64.515625 
Q 19.53125 74.21875 31.78125 74.21875 
z
" id="DejaVuSans-48"/>
      </defs>
      <g transform="translate(109.03312 337.118125)scale(0.12 -0.12)">
       <use xlink:href="#DejaVuSans-48"/>
      </g>
     </g>
    </g>
    <g id="xtick_2">
     <g id="line2d_5">
      <g>
       <use style="stroke:#000000;stroke-width:0.5;" x="165.443616" xlink:href="#m98339aec0a" y="324"/>
      </g>
     </g>
     <g id="line2d_6">
      <g>
       <use style="stroke:#000000;stroke-width:0.5;" x="165.443616" xlink:href="#mc04a27cc17" y="36"/>
      </g>
     </g>
     <g id="text_2">
      <!-- 15 -->
      <defs>
       <path d="M 12.40625 8.296875 
L 28.515625 8.296875 
L 28.515625 63.921875 
L 10.984375 60.40625 
L 10.984375 69.390625 
L 28.421875 72.90625 
L 38.28125 72.90625 
L 38.28125 8.296875 
L 54.390625 8.296875 
L 54.390625 0 
L 12.40625 0 
z
" id="DejaVuSans-49"/>
       <path d="M 10.796875 72.90625 
L 49.515625 72.90625 
L 49.515625 64.59375 
L 19.828125 64.59375 
L 19.828125 46.734375 
Q 21.96875 47.46875 24.109375 47.828125 
Q 26.265625 48.1875 28.421875 48.1875 
Q 40.625 48.1875 47.75 41.5 
Q 54.890625 34.8125 54.890625 23.390625 
Q 54.890625 11.625 47.5625 5.09375 
Q 40.234375 -1.421875 26.90625 -1.421875 
Q 22.3125 -1.421875 17.546875 -0.640625 
Q 12.796875 0.140625 7.71875 1.703125 
L 7.71875 11.625 
Q 12.109375 9.234375 16.796875 8.0625 
Q 21.484375 6.890625 26.703125 6.890625 
Q 35.15625 6.890625 40.078125 11.328125 
Q 45.015625 15.765625 45.015625 23.390625 
Q 45.015625 31 40.078125 35.4375 
Q 35.15625 39.890625 26.703125 39.890625 
Q 22.75 39.890625 18.8125 39.015625 
Q 14.890625 38.140625 10.796875 36.28125 
z
" id="DejaVuSans-53"/>
      </defs>
      <g transform="translate(157.808616 337.118125)scale(0.12 -0.12)">
       <use xlink:href="#DejaVuSans-49"/>
       <use x="63.623047" xlink:href="#DejaVuSans-53"/>
      </g>
     </g>
    </g>
    <g id="xtick_3">
     <g id="line2d_7">
      <g>
       <use style="stroke:#000000;stroke-width:0.5;" x="218.036612" xlink:href="#m98339aec0a" y="324"/>
      </g>
     </g>
     <g id="line2d_8">
      <g>
       <use style="stroke:#000000;stroke-width:0.5;" x="218.036612" xlink:href="#mc04a27cc17" y="36"/>
      </g>
     </g>
     <g id="text_3">
      <!-- 30 -->
      <defs>
       <path d="M 40.578125 39.3125 
Q 47.65625 37.796875 51.625 33 
Q 55.609375 28.21875 55.609375 21.1875 
Q 55.609375 10.40625 48.1875 4.484375 
Q 40.765625 -1.421875 27.09375 -1.421875 
Q 22.515625 -1.421875 17.65625 -0.515625 
Q 12.796875 0.390625 7.625 2.203125 
L 7.625 11.71875 
Q 11.71875 9.328125 16.59375 8.109375 
Q 21.484375 6.890625 26.8125 6.890625 
Q 36.078125 6.890625 40.9375 10.546875 
Q 45.796875 14.203125 45.796875 21.1875 
Q 45.796875 27.640625 41.28125 31.265625 
Q 36.765625 34.90625 28.71875 34.90625 
L 20.21875 34.90625 
L 20.21875 43.015625 
L 29.109375 43.015625 
Q 36.375 43.015625 40.234375 45.921875 
Q 44.09375 48.828125 44.09375 54.296875 
Q 44.09375 59.90625 40.109375 62.90625 
Q 36.140625 65.921875 28.71875 65.921875 
Q 24.65625 65.921875 20.015625 65.03125 
Q 15.375 64.15625 9.8125 62.3125 
L 9.8125 71.09375 
Q 15.4375 72.65625 20.34375 73.4375 
Q 25.25 74.21875 29.59375 74.21875 
Q 40.828125 74.21875 47.359375 69.109375 
Q 53.90625 64.015625 53.90625 55.328125 
Q 53.90625 49.265625 50.4375 45.09375 
Q 46.96875 40.921875 40.578125 39.3125 
z
" id="DejaVuSans-51"/>
      </defs>
      <g transform="translate(210.401612 337.118125)scale(0.12 -0.12)">
       <use xlink:href="#DejaVuSans-51"/>
       <use x="63.623047" xlink:href="#DejaVuSans-48"/>
      </g>
     </g>
    </g>
    <g id="xtick_4">
     <g id="line2d_9">
      <g>
       <use style="stroke:#000000;stroke-width:0.5;" x="270.629608" xlink:href="#m98339aec0a" y="324"/>
      </g>
     </g>
     <g id="line2d_10">
      <g>
       <use style="stroke:#000000;stroke-width:0.5;" x="270.629608" xlink:href="#mc04a27cc17" y="36"/>
      </g>
     </g>
     <g id="text_4">
      <!-- 45 -->
      <defs>
       <path d="M 37.796875 64.3125 
L 12.890625 25.390625 
L 37.796875 25.390625 
z
M 35.203125 72.90625 
L 47.609375 72.90625 
L 47.609375 25.390625 
L 58.015625 25.390625 
L 58.015625 17.1875 
L 47.609375 17.1875 
L 47.609375 0 
L 37.796875 0 
L 37.796875 17.1875 
L 4.890625 17.1875 
L 4.890625 26.703125 
z
" id="DejaVuSans-52"/>
      </defs>
      <g transform="translate(262.994608 337.118125)scale(0.12 -0.12)">
       <use xlink:href="#DejaVuSans-52"/>
       <use x="63.623047" xlink:href="#DejaVuSans-53"/>
      </g>
     </g>
    </g>
    <g id="xtick_5">
     <g id="line2d_11">
      <g>
       <use style="stroke:#000000;stroke-width:0.5;" x="323.222604" xlink:href="#m98339aec0a" y="324"/>
      </g>
     </g>
     <g id="line2d_12">
      <g>
       <use style="stroke:#000000;stroke-width:0.5;" x="323.222604" xlink:href="#mc04a27cc17" y="36"/>
      </g>
     </g>
     <g id="text_5">
      <!-- 60 -->
      <defs>
       <path d="M 33.015625 40.375 
Q 26.375 40.375 22.484375 35.828125 
Q 18.609375 31.296875 18.609375 23.390625 
Q 18.609375 15.53125 22.484375 10.953125 
Q 26.375 6.390625 33.015625 6.390625 
Q 39.65625 6.390625 43.53125 10.953125 
Q 47.40625 15.53125 47.40625 23.390625 
Q 47.40625 31.296875 43.53125 35.828125 
Q 39.65625 40.375 33.015625 40.375 
z
M 52.59375 71.296875 
L 52.59375 62.3125 
Q 48.875 64.0625 45.09375 64.984375 
Q 41.3125 65.921875 37.59375 65.921875 
Q 27.828125 65.921875 22.671875 59.328125 
Q 17.53125 52.734375 16.796875 39.40625 
Q 19.671875 43.65625 24.015625 45.921875 
Q 28.375 48.1875 33.59375 48.1875 
Q 44.578125 48.1875 50.953125 41.515625 
Q 57.328125 34.859375 57.328125 23.390625 
Q 57.328125 12.15625 50.6875 5.359375 
Q 44.046875 -1.421875 33.015625 -1.421875 
Q 20.359375 -1.421875 13.671875 8.265625 
Q 6.984375 17.96875 6.984375 36.375 
Q 6.984375 53.65625 15.1875 63.9375 
Q 23.390625 74.21875 37.203125 74.21875 
Q 40.921875 74.21875 44.703125 73.484375 
Q 48.484375 72.75 52.59375 71.296875 
z
" id="DejaVuSans-54"/>
      </defs>
      <g transform="translate(315.587604 337.118125)scale(0.12 -0.12)">
       <use xlink:href="#DejaVuSans-54"/>
       <use x="63.623047" xlink:href="#DejaVuSans-48"/>
      </g>
     </g>
    </g>
    <g id="xtick_6">
     <g id="line2d_13">
      <g>
       <use style="stroke:#000000;stroke-width:0.5;" x="375.8156" xlink:href="#m98339aec0a" y="324"/>
      </g>
     </g>
     <g id="line2d_14">
      <g>
       <use style="stroke:#000000;stroke-width:0.5;" x="375.8156" xlink:href="#mc04a27cc17" y="36"/>
      </g>
     </g>
     <g id="text_6">
      <!-- 75 -->
      <defs>
       <path d="M 8.203125 72.90625 
L 55.078125 72.90625 
L 55.078125 68.703125 
L 28.609375 0 
L 18.3125 0 
L 43.21875 64.59375 
L 8.203125 64.59375 
z
" id="DejaVuSans-55"/>
      </defs>
      <g transform="translate(368.1806 337.118125)scale(0.12 -0.12)">
       <use xlink:href="#DejaVuSans-55"/>
       <use x="63.623047" xlink:href="#DejaVuSans-53"/>
      </g>
     </g>
    </g>
    <g id="xtick_7">
     <g id="line2d_15">
      <g>
       <use style="stroke:#000000;stroke-width:0.5;" x="428.408596" xlink:href="#m98339aec0a" y="324"/>
      </g>
     </g>
     <g id="line2d_16">
      <g>
       <use style="stroke:#000000;stroke-width:0.5;" x="428.408596" xlink:href="#mc04a27cc17" y="36"/>
      </g>
     </g>
     <g id="text_7">
      <!-- 90 -->
      <defs>
       <path d="M 10.984375 1.515625 
L 10.984375 10.5 
Q 14.703125 8.734375 18.5 7.8125 
Q 22.3125 6.890625 25.984375 6.890625 
Q 35.75 6.890625 40.890625 13.453125 
Q 46.046875 20.015625 46.78125 33.40625 
Q 43.953125 29.203125 39.59375 26.953125 
Q 35.25 24.703125 29.984375 24.703125 
Q 19.046875 24.703125 12.671875 31.3125 
Q 6.296875 37.9375 6.296875 49.421875 
Q 6.296875 60.640625 12.9375 67.421875 
Q 19.578125 74.21875 30.609375 74.21875 
Q 43.265625 74.21875 49.921875 64.515625 
Q 56.59375 54.828125 56.59375 36.375 
Q 56.59375 19.140625 48.40625 8.859375 
Q 40.234375 -1.421875 26.421875 -1.421875 
Q 22.703125 -1.421875 18.890625 -0.6875 
Q 15.09375 0.046875 10.984375 1.515625 
z
M 30.609375 32.421875 
Q 37.25 32.421875 41.125 36.953125 
Q 45.015625 41.5 45.015625 49.421875 
Q 45.015625 57.28125 41.125 61.84375 
Q 37.25 66.40625 30.609375 66.40625 
Q 23.96875 66.40625 20.09375 61.84375 
Q 16.21875 57.28125 16.21875 49.421875 
Q 16.21875 41.5 20.09375 36.953125 
Q 23.96875 32.421875 30.609375 32.421875 
z
" id="DejaVuSans-57"/>
      </defs>
      <g transform="translate(420.773596 337.118125)scale(0.12 -0.12)">
       <use xlink:href="#DejaVuSans-57"/>
       <use x="63.623047" xlink:href="#DejaVuSans-48"/>
      </g>
     </g>
    </g>
    <g id="xtick_8">
     <g id="line2d_17">
      <g>
       <use style="stroke:#000000;stroke-width:0.5;" x="481.001592" xlink:href="#m98339aec0a" y="324"/>
      </g>
     </g>
     <g id="line2d_18">
      <g>
       <use style="stroke:#000000;stroke-width:0.5;" x="481.001592" xlink:href="#mc04a27cc17" y="36"/>
      </g>
     </g>
     <g id="text_8">
      <!-- 105 -->
      <g transform="translate(469.549092 337.118125)scale(0.12 -0.12)">
       <use xlink:href="#DejaVuSans-49"/>
       <use x="63.623047" xlink:href="#DejaVuSans-48"/>
       <use x="127.246094" xlink:href="#DejaVuSans-53"/>
      </g>
     </g>
    </g>
    <g id="xtick_9">
     <g id="line2d_19">
      <g>
       <use style="stroke:#000000;stroke-width:0.5;" x="533.594588" xlink:href="#m98339aec0a" y="324"/>
      </g>
     </g>
     <g id="line2d_20">
      <g>
       <use style="stroke:#000000;stroke-width:0.5;" x="533.594588" xlink:href="#mc04a27cc17" y="36"/>
      </g>
     </g>
     <g id="text_9">
      <!-- 120 -->
      <defs>
       <path d="M 19.1875 8.296875 
L 53.609375 8.296875 
L 53.609375 0 
L 7.328125 0 
L 7.328125 8.296875 
Q 12.9375 14.109375 22.625 23.890625 
Q 32.328125 33.6875 34.8125 36.53125 
Q 39.546875 41.84375 41.421875 45.53125 
Q 43.3125 49.21875 43.3125 52.78125 
Q 43.3125 58.59375 39.234375 62.25 
Q 35.15625 65.921875 28.609375 65.921875 
Q 23.96875 65.921875 18.8125 64.3125 
Q 13.671875 62.703125 7.8125 59.421875 
L 7.8125 69.390625 
Q 13.765625 71.78125 18.9375 73 
Q 24.125 74.21875 28.421875 74.21875 
Q 39.75 74.21875 46.484375 68.546875 
Q 53.21875 62.890625 53.21875 53.421875 
Q 53.21875 48.921875 51.53125 44.890625 
Q 49.859375 40.875 45.40625 35.40625 
Q 44.1875 33.984375 37.640625 27.21875 
Q 31.109375 20.453125 19.1875 8.296875 
z
" id="DejaVuSans-50"/>
      </defs>
      <g transform="translate(522.142088 337.118125)scale(0.12 -0.12)">
       <use xlink:href="#DejaVuSans-49"/>
       <use x="63.623047" xlink:href="#DejaVuSans-50"/>
       <use x="127.246094" xlink:href="#DejaVuSans-48"/>
      </g>
     </g>
    </g>
    <g id="xtick_10">
     <g id="line2d_21">
      <g>
       <use style="stroke:#000000;stroke-width:0.5;" x="586.187584" xlink:href="#m98339aec0a" y="324"/>
      </g>
     </g>
     <g id="line2d_22">
      <g>
       <use style="stroke:#000000;stroke-width:0.5;" x="586.187584" xlink:href="#mc04a27cc17" y="36"/>
      </g>
     </g>
     <g id="text_10">
      <!-- 135 -->
      <g transform="translate(574.735084 337.118125)scale(0.12 -0.12)">
       <use xlink:href="#DejaVuSans-49"/>
       <use x="63.623047" xlink:href="#DejaVuSans-51"/>
       <use x="127.246094" xlink:href="#DejaVuSans-53"/>
      </g>
     </g>
    </g>
    <g id="text_11">
     <!-- generation -->
     <defs>
      <path d="M 45.40625 27.984375 
Q 45.40625 37.75 41.375 43.109375 
Q 37.359375 48.484375 30.078125 48.484375 
Q 22.859375 48.484375 18.828125 43.109375 
Q 14.796875 37.75 14.796875 27.984375 
Q 14.796875 18.265625 18.828125 12.890625 
Q 22.859375 7.515625 30.078125 7.515625 
Q 37.359375 7.515625 41.375 12.890625 
Q 45.40625 18.265625 45.40625 27.984375 
z
M 54.390625 6.78125 
Q 54.390625 -7.171875 48.1875 -13.984375 
Q 42 -20.796875 29.203125 -20.796875 
Q 24.46875 -20.796875 20.265625 -20.09375 
Q 16.0625 -19.390625 12.109375 -17.921875 
L 12.109375 -9.1875 
Q 16.0625 -11.328125 19.921875 -12.34375 
Q 23.78125 -13.375 27.78125 -13.375 
Q 36.625 -13.375 41.015625 -8.765625 
Q 45.40625 -4.15625 45.40625 5.171875 
L 45.40625 9.625 
Q 42.625 4.78125 38.28125 2.390625 
Q 33.9375 0 27.875 0 
Q 17.828125 0 11.671875 7.65625 
Q 5.515625 15.328125 5.515625 27.984375 
Q 5.515625 40.671875 11.671875 48.328125 
Q 17.828125 56 27.875 56 
Q 33.9375 56 38.28125 53.609375 
Q 42.625 51.21875 45.40625 46.390625 
L 45.40625 54.6875 
L 54.390625 54.6875 
z
" id="DejaVuSans-103"/>
      <path d="M 56.203125 29.59375 
L 56.203125 25.203125 
L 14.890625 25.203125 
Q 15.484375 15.921875 20.484375 11.0625 
Q 25.484375 6.203125 34.421875 6.203125 
Q 39.59375 6.203125 44.453125 7.46875 
Q 49.3125 8.734375 54.109375 11.28125 
L 54.109375 2.78125 
Q 49.265625 0.734375 44.1875 -0.34375 
Q 39.109375 -1.421875 33.890625 -1.421875 
Q 20.796875 -1.421875 13.15625 6.1875 
Q 5.515625 13.8125 5.515625 26.8125 
Q 5.515625 40.234375 12.765625 48.109375 
Q 20.015625 56 32.328125 56 
Q 43.359375 56 49.78125 48.890625 
Q 56.203125 41.796875 56.203125 29.59375 
z
M 47.21875 32.234375 
Q 47.125 39.59375 43.09375 43.984375 
Q 39.0625 48.390625 32.421875 48.390625 
Q 24.90625 48.390625 20.390625 44.140625 
Q 15.875 39.890625 15.1875 32.171875 
z
" id="DejaVuSans-101"/>
      <path d="M 54.890625 33.015625 
L 54.890625 0 
L 45.90625 0 
L 45.90625 32.71875 
Q 45.90625 40.484375 42.875 44.328125 
Q 39.84375 48.1875 33.796875 48.1875 
Q 26.515625 48.1875 22.3125 43.546875 
Q 18.109375 38.921875 18.109375 30.90625 
L 18.109375 0 
L 9.078125 0 
L 9.078125 54.6875 
L 18.109375 54.6875 
L 18.109375 46.1875 
Q 21.34375 51.125 25.703125 53.5625 
Q 30.078125 56 35.796875 56 
Q 45.21875 56 50.046875 50.171875 
Q 54.890625 44.34375 54.890625 33.015625 
z
" id="DejaVuSans-110"/>
      <path d="M 41.109375 46.296875 
Q 39.59375 47.171875 37.8125 47.578125 
Q 36.03125 48 33.890625 48 
Q 26.265625 48 22.1875 43.046875 
Q 18.109375 38.09375 18.109375 28.8125 
L 18.109375 0 
L 9.078125 0 
L 9.078125 54.6875 
L 18.109375 54.6875 
L 18.109375 46.1875 
Q 20.953125 51.171875 25.484375 53.578125 
Q 30.03125 56 36.53125 56 
Q 37.453125 56 38.578125 55.875 
Q 39.703125 55.765625 41.0625 55.515625 
z
" id="DejaVuSans-114"/>
      <path d="M 34.28125 27.484375 
Q 23.390625 27.484375 19.1875 25 
Q 14.984375 22.515625 14.984375 16.5 
Q 14.984375 11.71875 18.140625 8.90625 
Q 21.296875 6.109375 26.703125 6.109375 
Q 34.1875 6.109375 38.703125 11.40625 
Q 43.21875 16.703125 43.21875 25.484375 
L 43.21875 27.484375 
z
M 52.203125 31.203125 
L 52.203125 0 
L 43.21875 0 
L 43.21875 8.296875 
Q 40.140625 3.328125 35.546875 0.953125 
Q 30.953125 -1.421875 24.3125 -1.421875 
Q 15.921875 -1.421875 10.953125 3.296875 
Q 6 8.015625 6 15.921875 
Q 6 25.140625 12.171875 29.828125 
Q 18.359375 34.515625 30.609375 34.515625 
L 43.21875 34.515625 
L 43.21875 35.40625 
Q 43.21875 41.609375 39.140625 45 
Q 35.0625 48.390625 27.6875 48.390625 
Q 23 48.390625 18.546875 47.265625 
Q 14.109375 46.140625 10.015625 43.890625 
L 10.015625 52.203125 
Q 14.9375 54.109375 19.578125 55.046875 
Q 24.21875 56 28.609375 56 
Q 40.484375 56 46.34375 49.84375 
Q 52.203125 43.703125 52.203125 31.203125 
z
" id="DejaVuSans-97"/>
      <path d="M 18.3125 70.21875 
L 18.3125 54.6875 
L 36.8125 54.6875 
L 36.8125 47.703125 
L 18.3125 47.703125 
L 18.3125 18.015625 
Q 18.3125 11.328125 20.140625 9.421875 
Q 21.96875 7.515625 27.59375 7.515625 
L 36.8125 7.515625 
L 36.8125 0 
L 27.59375 0 
Q 17.1875 0 13.234375 3.875 
Q 9.28125 7.765625 9.28125 18.015625 
L 9.28125 47.703125 
L 2.6875 47.703125 
L 2.6875 54.6875 
L 9.28125 54.6875 
L 9.28125 70.21875 
z
" id="DejaVuSans-116"/>
      <path d="M 9.421875 54.6875 
L 18.40625 54.6875 
L 18.40625 0 
L 9.421875 0 
z
M 9.421875 75.984375 
L 18.40625 75.984375 
L 18.40625 64.59375 
L 9.421875 64.59375 
z
" id="DejaVuSans-105"/>
      <path d="M 30.609375 48.390625 
Q 23.390625 48.390625 19.1875 42.75 
Q 14.984375 37.109375 14.984375 27.296875 
Q 14.984375 17.484375 19.15625 11.84375 
Q 23.34375 6.203125 30.609375 6.203125 
Q 37.796875 6.203125 41.984375 11.859375 
Q 46.1875 17.53125 46.1875 27.296875 
Q 46.1875 37.015625 41.984375 42.703125 
Q 37.796875 48.390625 30.609375 48.390625 
z
M 30.609375 56 
Q 42.328125 56 49.015625 48.375 
Q 55.71875 40.765625 55.71875 27.296875 
Q 55.71875 13.875 49.015625 6.21875 
Q 42.328125 -1.421875 30.609375 -1.421875 
Q 18.84375 -1.421875 12.171875 6.21875 
Q 5.515625 13.875 5.515625 27.296875 
Q 5.515625 40.765625 12.171875 48.375 
Q 18.84375 56 30.609375 56 
z
" id="DejaVuSans-111"/>
     </defs>
     <g transform="translate(341.430938 353.731875)scale(0.12 -0.12)">
      <use xlink:href="#DejaVuSans-103"/>
      <use x="63.476562" xlink:href="#DejaVuSans-101"/>
      <use x="125" xlink:href="#DejaVuSans-110"/>
      <use x="188.378906" xlink:href="#DejaVuSans-101"/>
      <use x="249.902344" xlink:href="#DejaVuSans-114"/>
      <use x="291.015625" xlink:href="#DejaVuSans-97"/>
      <use x="352.294922" xlink:href="#DejaVuSans-116"/>
      <use x="391.503906" xlink:href="#DejaVuSans-105"/>
      <use x="419.287109" xlink:href="#DejaVuSans-111"/>
      <use x="480.46875" xlink:href="#DejaVuSans-110"/>
     </g>
    </g>
   </g>
   <g id="matplotlib.axis_2">
    <g id="ytick_1">
     <g id="line2d_23">
      <defs>
       <path d="M 0 0 
L 4 0 
" id="mb5c1dfff2b" style="stroke:#000000;stroke-width:0.5;"/>
      </defs>
      <g>
       <use style="stroke:#000000;stroke-width:0.5;" x="112.5" xlink:href="#mb5c1dfff2b" y="324"/>
      </g>
     </g>
     <g id="line2d_24">
      <defs>
       <path d="M 0 0 
L -4 0 
" id="m2c565ef851" style="stroke:#000000;stroke-width:0.5;"/>
      </defs>
      <g>
       <use style="stroke:#000000;stroke-width:0.5;" x="635.625" xlink:href="#m2c565ef851" y="324"/>
      </g>
     </g>
     <g id="text_12">
      <!-- 0.910 -->
      <defs>
       <path d="M 10.6875 12.40625 
L 21 12.40625 
L 21 0 
L 10.6875 0 
z
" id="DejaVuSans-46"/>
      </defs>
      <g transform="translate(74.14625 327.31125)scale(0.12 -0.12)">
       <use xlink:href="#DejaVuSans-48"/>
       <use x="63.623047" xlink:href="#DejaVuSans-46"/>
       <use x="95.410156" xlink:href="#DejaVuSans-57"/>
       <use x="159.033203" xlink:href="#DejaVuSans-49"/>
       <use x="222.65625" xlink:href="#DejaVuSans-48"/>
      </g>
     </g>
    </g>
    <g id="ytick_2">
     <g id="line2d_25">
      <g>
       <use style="stroke:#000000;stroke-width:0.5;" x="112.5" xlink:href="#mb5c1dfff2b" y="288"/>
      </g>
     </g>
     <g id="line2d_26">
      <g>
       <use style="stroke:#000000;stroke-width:0.5;" x="635.625" xlink:href="#m2c565ef851" y="288"/>
      </g>
     </g>
     <g id="text_13">
      <!-- 0.915 -->
      <g transform="translate(74.14625 291.31125)scale(0.12 -0.12)">
       <use xlink:href="#DejaVuSans-48"/>
       <use x="63.623047" xlink:href="#DejaVuSans-46"/>
       <use x="95.410156" xlink:href="#DejaVuSans-57"/>
       <use x="159.033203" xlink:href="#DejaVuSans-49"/>
       <use x="222.65625" xlink:href="#DejaVuSans-53"/>
      </g>
     </g>
    </g>
    <g id="ytick_3">
     <g id="line2d_27">
      <g>
       <use style="stroke:#000000;stroke-width:0.5;" x="112.5" xlink:href="#mb5c1dfff2b" y="252"/>
      </g>
     </g>
     <g id="line2d_28">
      <g>
       <use style="stroke:#000000;stroke-width:0.5;" x="635.625" xlink:href="#m2c565ef851" y="252"/>
      </g>
     </g>
     <g id="text_14">
      <!-- 0.920 -->
      <g transform="translate(74.14625 255.31125)scale(0.12 -0.12)">
       <use xlink:href="#DejaVuSans-48"/>
       <use x="63.623047" xlink:href="#DejaVuSans-46"/>
       <use x="95.410156" xlink:href="#DejaVuSans-57"/>
       <use x="159.033203" xlink:href="#DejaVuSans-50"/>
       <use x="222.65625" xlink:href="#DejaVuSans-48"/>
      </g>
     </g>
    </g>
    <g id="ytick_4">
     <g id="line2d_29">
      <g>
       <use style="stroke:#000000;stroke-width:0.5;" x="112.5" xlink:href="#mb5c1dfff2b" y="216"/>
      </g>
     </g>
     <g id="line2d_30">
      <g>
       <use style="stroke:#000000;stroke-width:0.5;" x="635.625" xlink:href="#m2c565ef851" y="216"/>
      </g>
     </g>
     <g id="text_15">
      <!-- 0.925 -->
      <g transform="translate(74.14625 219.31125)scale(0.12 -0.12)">
       <use xlink:href="#DejaVuSans-48"/>
       <use x="63.623047" xlink:href="#DejaVuSans-46"/>
       <use x="95.410156" xlink:href="#DejaVuSans-57"/>
       <use x="159.033203" xlink:href="#DejaVuSans-50"/>
       <use x="222.65625" xlink:href="#DejaVuSans-53"/>
      </g>
     </g>
    </g>
    <g id="ytick_5">
     <g id="line2d_31">
      <g>
       <use style="stroke:#000000;stroke-width:0.5;" x="112.5" xlink:href="#mb5c1dfff2b" y="180"/>
      </g>
     </g>
     <g id="line2d_32">
      <g>
       <use style="stroke:#000000;stroke-width:0.5;" x="635.625" xlink:href="#m2c565ef851" y="180"/>
      </g>
     </g>
     <g id="text_16">
      <!-- 0.930 -->
      <g transform="translate(74.14625 183.31125)scale(0.12 -0.12)">
       <use xlink:href="#DejaVuSans-48"/>
       <use x="63.623047" xlink:href="#DejaVuSans-46"/>
       <use x="95.410156" xlink:href="#DejaVuSans-57"/>
       <use x="159.033203" xlink:href="#DejaVuSans-51"/>
       <use x="222.65625" xlink:href="#DejaVuSans-48"/>
      </g>
     </g>
    </g>
    <g id="ytick_6">
     <g id="line2d_33">
      <g>
       <use style="stroke:#000000;stroke-width:0.5;" x="112.5" xlink:href="#mb5c1dfff2b" y="144"/>
      </g>
     </g>
     <g id="line2d_34">
      <g>
       <use style="stroke:#000000;stroke-width:0.5;" x="635.625" xlink:href="#m2c565ef851" y="144"/>
      </g>
     </g>
     <g id="text_17">
      <!-- 0.935 -->
      <g transform="translate(74.14625 147.31125)scale(0.12 -0.12)">
       <use xlink:href="#DejaVuSans-48"/>
       <use x="63.623047" xlink:href="#DejaVuSans-46"/>
       <use x="95.410156" xlink:href="#DejaVuSans-57"/>
       <use x="159.033203" xlink:href="#DejaVuSans-51"/>
       <use x="222.65625" xlink:href="#DejaVuSans-53"/>
      </g>
     </g>
    </g>
    <g id="ytick_7">
     <g id="line2d_35">
      <g>
       <use style="stroke:#000000;stroke-width:0.5;" x="112.5" xlink:href="#mb5c1dfff2b" y="108"/>
      </g>
     </g>
     <g id="line2d_36">
      <g>
       <use style="stroke:#000000;stroke-width:0.5;" x="635.625" xlink:href="#m2c565ef851" y="108"/>
      </g>
     </g>
     <g id="text_18">
      <!-- 0.940 -->
      <g transform="translate(74.14625 111.31125)scale(0.12 -0.12)">
       <use xlink:href="#DejaVuSans-48"/>
       <use x="63.623047" xlink:href="#DejaVuSans-46"/>
       <use x="95.410156" xlink:href="#DejaVuSans-57"/>
       <use x="159.033203" xlink:href="#DejaVuSans-52"/>
       <use x="222.65625" xlink:href="#DejaVuSans-48"/>
      </g>
     </g>
    </g>
    <g id="ytick_8">
     <g id="line2d_37">
      <g>
       <use style="stroke:#000000;stroke-width:0.5;" x="112.5" xlink:href="#mb5c1dfff2b" y="72"/>
      </g>
     </g>
     <g id="line2d_38">
      <g>
       <use style="stroke:#000000;stroke-width:0.5;" x="635.625" xlink:href="#m2c565ef851" y="72"/>
      </g>
     </g>
     <g id="text_19">
      <!-- 0.945 -->
      <g transform="translate(74.14625 75.31125)scale(0.12 -0.12)">
       <use xlink:href="#DejaVuSans-48"/>
       <use x="63.623047" xlink:href="#DejaVuSans-46"/>
       <use x="95.410156" xlink:href="#DejaVuSans-57"/>
       <use x="159.033203" xlink:href="#DejaVuSans-52"/>
       <use x="222.65625" xlink:href="#DejaVuSans-53"/>
      </g>
     </g>
    </g>
    <g id="ytick_9">
     <g id="line2d_39">
      <g>
       <use style="stroke:#000000;stroke-width:0.5;" x="112.5" xlink:href="#mb5c1dfff2b" y="36"/>
      </g>
     </g>
     <g id="line2d_40">
      <g>
       <use style="stroke:#000000;stroke-width:0.5;" x="635.625" xlink:href="#m2c565ef851" y="36"/>
      </g>
     </g>
     <g id="text_20">
      <!-- 0.950 -->
      <g transform="translate(74.14625 39.31125)scale(0.12 -0.12)">
       <use xlink:href="#DejaVuSans-48"/>
       <use x="63.623047" xlink:href="#DejaVuSans-46"/>
       <use x="95.410156" xlink:href="#DejaVuSans-57"/>
       <use x="159.033203" xlink:href="#DejaVuSans-53"/>
       <use x="222.65625" xlink:href="#DejaVuSans-48"/>
      </g>
     </g>
    </g>
    <g id="text_21">
     <!-- accuracy -->
     <defs>
      <path d="M 48.78125 52.59375 
L 48.78125 44.1875 
Q 44.96875 46.296875 41.140625 47.34375 
Q 37.3125 48.390625 33.40625 48.390625 
Q 24.65625 48.390625 19.8125 42.84375 
Q 14.984375 37.3125 14.984375 27.296875 
Q 14.984375 17.28125 19.8125 11.734375 
Q 24.65625 6.203125 33.40625 6.203125 
Q 37.3125 6.203125 41.140625 7.25 
Q 44.96875 8.296875 48.78125 10.40625 
L 48.78125 2.09375 
Q 45.015625 0.34375 40.984375 -0.53125 
Q 36.96875 -1.421875 32.421875 -1.421875 
Q 20.0625 -1.421875 12.78125 6.34375 
Q 5.515625 14.109375 5.515625 27.296875 
Q 5.515625 40.671875 12.859375 48.328125 
Q 20.21875 56 33.015625 56 
Q 37.15625 56 41.109375 55.140625 
Q 45.0625 54.296875 48.78125 52.59375 
z
" id="DejaVuSans-99"/>
      <path d="M 8.5 21.578125 
L 8.5 54.6875 
L 17.484375 54.6875 
L 17.484375 21.921875 
Q 17.484375 14.15625 20.5 10.265625 
Q 23.53125 6.390625 29.59375 6.390625 
Q 36.859375 6.390625 41.078125 11.03125 
Q 45.3125 15.671875 45.3125 23.6875 
L 45.3125 54.6875 
L 54.296875 54.6875 
L 54.296875 0 
L 45.3125 0 
L 45.3125 8.40625 
Q 42.046875 3.421875 37.71875 1 
Q 33.40625 -1.421875 27.6875 -1.421875 
Q 18.265625 -1.421875 13.375 4.4375 
Q 8.5 10.296875 8.5 21.578125 
z
M 31.109375 56 
z
" id="DejaVuSans-117"/>
      <path d="M 32.171875 -5.078125 
Q 28.375 -14.84375 24.75 -17.8125 
Q 21.140625 -20.796875 15.09375 -20.796875 
L 7.90625 -20.796875 
L 7.90625 -13.28125 
L 13.1875 -13.28125 
Q 16.890625 -13.28125 18.9375 -11.515625 
Q 21 -9.765625 23.484375 -3.21875 
L 25.09375 0.875 
L 2.984375 54.6875 
L 12.5 54.6875 
L 29.59375 11.921875 
L 46.6875 54.6875 
L 56.203125 54.6875 
z
" id="DejaVuSans-121"/>
     </defs>
     <g transform="translate(66.650625 207.07125)rotate(-90)scale(0.12 -0.12)">
      <use xlink:href="#DejaVuSans-97"/>
      <use x="61.279297" xlink:href="#DejaVuSans-99"/>
      <use x="116.259766" xlink:href="#DejaVuSans-99"/>
      <use x="171.240234" xlink:href="#DejaVuSans-117"/>
      <use x="234.619141" xlink:href="#DejaVuSans-114"/>
      <use x="275.732422" xlink:href="#DejaVuSans-97"/>
      <use x="337.011719" xlink:href="#DejaVuSans-99"/>
      <use x="391.992188" xlink:href="#DejaVuSans-121"/>
     </g>
    </g>
   </g>
   <g id="legend_1">
    <g id="patch_7">
     <path d="M 640.623 196.449668 
L 792.873013 196.449668 
L 792.873013 163.550332 
L 640.623 163.550332 
z
" style="fill:#ffffff;stroke:#000000;stroke-linejoin:miter;"/>
    </g>
    <g id="line2d_41">
     <path d="M 647.6202 171.645531 
L 661.6146 171.645531 
" style="fill:none;stroke:#0000ff;stroke-linecap:square;stroke-width:1.2;"/>
    </g>
    <g id="line2d_42"/>
    <g id="text_22">
     <!-- Lonely_Los_Exp_Loss_3 -->
     <defs>
      <path d="M 9.8125 72.90625 
L 19.671875 72.90625 
L 19.671875 8.296875 
L 55.171875 8.296875 
L 55.171875 0 
L 9.8125 0 
z
" id="DejaVuSans-76"/>
      <path d="M 9.421875 75.984375 
L 18.40625 75.984375 
L 18.40625 0 
L 9.421875 0 
z
" id="DejaVuSans-108"/>
      <path d="M 50.984375 -16.609375 
L 50.984375 -23.578125 
L -0.984375 -23.578125 
L -0.984375 -16.609375 
z
" id="DejaVuSans-95"/>
      <path d="M 44.28125 53.078125 
L 44.28125 44.578125 
Q 40.484375 46.53125 36.375 47.5 
Q 32.28125 48.484375 27.875 48.484375 
Q 21.1875 48.484375 17.84375 46.4375 
Q 14.5 44.390625 14.5 40.28125 
Q 14.5 37.15625 16.890625 35.375 
Q 19.28125 33.59375 26.515625 31.984375 
L 29.59375 31.296875 
Q 39.15625 29.25 43.1875 25.515625 
Q 47.21875 21.78125 47.21875 15.09375 
Q 47.21875 7.46875 41.1875 3.015625 
Q 35.15625 -1.421875 24.609375 -1.421875 
Q 20.21875 -1.421875 15.453125 -0.5625 
Q 10.6875 0.296875 5.421875 2 
L 5.421875 11.28125 
Q 10.40625 8.6875 15.234375 7.390625 
Q 20.0625 6.109375 24.8125 6.109375 
Q 31.15625 6.109375 34.5625 8.28125 
Q 37.984375 10.453125 37.984375 14.40625 
Q 37.984375 18.0625 35.515625 20.015625 
Q 33.0625 21.96875 24.703125 23.78125 
L 21.578125 24.515625 
Q 13.234375 26.265625 9.515625 29.90625 
Q 5.8125 33.546875 5.8125 39.890625 
Q 5.8125 47.609375 11.28125 51.796875 
Q 16.75 56 26.8125 56 
Q 31.78125 56 36.171875 55.265625 
Q 40.578125 54.546875 44.28125 53.078125 
z
" id="DejaVuSans-115"/>
      <path d="M 9.8125 72.90625 
L 55.90625 72.90625 
L 55.90625 64.59375 
L 19.671875 64.59375 
L 19.671875 43.015625 
L 54.390625 43.015625 
L 54.390625 34.71875 
L 19.671875 34.71875 
L 19.671875 8.296875 
L 56.78125 8.296875 
L 56.78125 0 
L 9.8125 0 
z
" id="DejaVuSans-69"/>
      <path d="M 54.890625 54.6875 
L 35.109375 28.078125 
L 55.90625 0 
L 45.3125 0 
L 29.390625 21.484375 
L 13.484375 0 
L 2.875 0 
L 24.125 28.609375 
L 4.6875 54.6875 
L 15.28125 54.6875 
L 29.78125 35.203125 
L 44.28125 54.6875 
z
" id="DejaVuSans-120"/>
      <path d="M 18.109375 8.203125 
L 18.109375 -20.796875 
L 9.078125 -20.796875 
L 9.078125 54.6875 
L 18.109375 54.6875 
L 18.109375 46.390625 
Q 20.953125 51.265625 25.265625 53.625 
Q 29.59375 56 35.59375 56 
Q 45.5625 56 51.78125 48.09375 
Q 58.015625 40.1875 58.015625 27.296875 
Q 58.015625 14.40625 51.78125 6.484375 
Q 45.5625 -1.421875 35.59375 -1.421875 
Q 29.59375 -1.421875 25.265625 0.953125 
Q 20.953125 3.328125 18.109375 8.203125 
z
M 48.6875 27.296875 
Q 48.6875 37.203125 44.609375 42.84375 
Q 40.53125 48.484375 33.40625 48.484375 
Q 26.265625 48.484375 22.1875 42.84375 
Q 18.109375 37.203125 18.109375 27.296875 
Q 18.109375 17.390625 22.1875 11.75 
Q 26.265625 6.109375 33.40625 6.109375 
Q 40.53125 6.109375 44.609375 11.75 
Q 48.6875 17.390625 48.6875 27.296875 
z
" id="DejaVuSans-112"/>
     </defs>
     <g transform="translate(672.6102 175.144131)scale(0.09996 -0.09996)">
      <use xlink:href="#DejaVuSans-76"/>
      <use x="53.962891" xlink:href="#DejaVuSans-111"/>
      <use x="115.144531" xlink:href="#DejaVuSans-110"/>
      <use x="178.523438" xlink:href="#DejaVuSans-101"/>
      <use x="240.046875" xlink:href="#DejaVuSans-108"/>
      <use x="267.830078" xlink:href="#DejaVuSans-121"/>
      <use x="327.009766" xlink:href="#DejaVuSans-95"/>
      <use x="377.009766" xlink:href="#DejaVuSans-76"/>
      <use x="430.972656" xlink:href="#DejaVuSans-111"/>
      <use x="492.154297" xlink:href="#DejaVuSans-115"/>
      <use x="544.253906" xlink:href="#DejaVuSans-95"/>
      <use x="594.253906" xlink:href="#DejaVuSans-69"/>
      <use x="657.4375" xlink:href="#DejaVuSans-120"/>
      <use x="716.617188" xlink:href="#DejaVuSans-112"/>
      <use x="780.09375" xlink:href="#DejaVuSans-95"/>
      <use x="830.09375" xlink:href="#DejaVuSans-76"/>
      <use x="884.056641" xlink:href="#DejaVuSans-111"/>
      <use x="945.238281" xlink:href="#DejaVuSans-115"/>
      <use x="997.337891" xlink:href="#DejaVuSans-115"/>
      <use x="1049.4375" xlink:href="#DejaVuSans-95"/>
      <use x="1099.4375" xlink:href="#DejaVuSans-51"/>
     </g>
    </g>
    <g id="line2d_43">
     <path d="M 647.6202 186.595798 
L 661.6146 186.595798 
" style="fill:none;stroke:#008000;stroke-linecap:square;stroke-width:1.2;"/>
    </g>
    <g id="line2d_44"/>
    <g id="text_23">
     <!-- Loss_par_scale_0_1 -->
     <g transform="translate(672.6102 190.094398)scale(0.09996 -0.09996)">
      <use xlink:href="#DejaVuSans-76"/>
      <use x="53.962891" xlink:href="#DejaVuSans-111"/>
      <use x="115.144531" xlink:href="#DejaVuSans-115"/>
      <use x="167.244141" xlink:href="#DejaVuSans-115"/>
      <use x="219.34375" xlink:href="#DejaVuSans-95"/>
      <use x="269.34375" xlink:href="#DejaVuSans-112"/>
      <use x="332.820312" xlink:href="#DejaVuSans-97"/>
      <use x="394.099609" xlink:href="#DejaVuSans-114"/>
      <use x="435.212891" xlink:href="#DejaVuSans-95"/>
      <use x="485.212891" xlink:href="#DejaVuSans-115"/>
      <use x="537.3125" xlink:href="#DejaVuSans-99"/>
      <use x="592.292969" xlink:href="#DejaVuSans-97"/>
      <use x="653.572266" xlink:href="#DejaVuSans-108"/>
      <use x="681.355469" xlink:href="#DejaVuSans-101"/>
      <use x="742.878906" xlink:href="#DejaVuSans-95"/>
      <use x="792.878906" xlink:href="#DejaVuSans-48"/>
      <use x="856.501953" xlink:href="#DejaVuSans-95"/>
      <use x="906.501953" xlink:href="#DejaVuSans-49"/>
     </g>
    </g>
   </g>
  </g>
  <g id="text_24">
   <!-- Average Accuracy -->
   <defs>
    <path d="M 34.1875 63.1875 
L 20.796875 26.90625 
L 47.609375 26.90625 
z
M 28.609375 72.90625 
L 39.796875 72.90625 
L 67.578125 0 
L 57.328125 0 
L 50.6875 18.703125 
L 17.828125 18.703125 
L 11.1875 0 
L 0.78125 0 
z
" id="DejaVuSans-65"/>
    <path d="M 2.984375 54.6875 
L 12.5 54.6875 
L 29.59375 8.796875 
L 46.6875 54.6875 
L 56.203125 54.6875 
L 35.6875 0 
L 23.484375 0 
z
" id="DejaVuSans-118"/>
    <path id="DejaVuSans-32"/>
   </defs>
   <g transform="translate(396.06 16.318125)scale(0.12 -0.12)">
    <use xlink:href="#DejaVuSans-65"/>
    <use x="62.533203" xlink:href="#DejaVuSans-118"/>
    <use x="121.712891" xlink:href="#DejaVuSans-101"/>
    <use x="183.236328" xlink:href="#DejaVuSans-114"/>
    <use x="224.349609" xlink:href="#DejaVuSans-97"/>
    <use x="285.628906" xlink:href="#DejaVuSans-103"/>
    <use x="349.105469" xlink:href="#DejaVuSans-101"/>
    <use x="410.628906" xlink:href="#DejaVuSans-32"/>
    <use x="442.416016" xlink:href="#DejaVuSans-65"/>
    <use x="509.074219" xlink:href="#DejaVuSans-99"/>
    <use x="564.054688" xlink:href="#DejaVuSans-99"/>
    <use x="619.035156" xlink:href="#DejaVuSans-117"/>
    <use x="682.414062" xlink:href="#DejaVuSans-114"/>
    <use x="723.527344" xlink:href="#DejaVuSans-97"/>
    <use x="784.806641" xlink:href="#DejaVuSans-99"/>
    <use x="839.787109" xlink:href="#DejaVuSans-121"/>
   </g>
  </g>
 </g>
 <defs>
  <clipPath id="p9b0ca941b9">
   <rect height="288" width="523.125" x="112.5" y="36"/>
  </clipPath>
 </defs>
</svg>
