<?xml version="1.0" encoding="utf-8" standalone="no"?>
<!DOCTYPE svg PUBLIC "-//W3C//DTD SVG 1.1//EN"
  "http://www.w3.org/Graphics/SVG/1.1/DTD/svg11.dtd">
<!-- Created with matplotlib (https://matplotlib.org/) -->
<svg height="360pt" version="1.1" viewBox="0 0 900 360" width="900pt" xmlns="http://www.w3.org/2000/svg" xmlns:xlink="http://www.w3.org/1999/xlink">
 <defs>
  <style type="text/css">
*{stroke-linecap:butt;stroke-linejoin:round;}
  </style>
 </defs>
 <g id="figure_1">
  <g id="patch_1">
   <path d="M 0 360 
L 900 360 
L 900 0 
L 0 0 
z
" style="fill:#ffffff;"/>
  </g>
  <g id="axes_1">
   <g id="patch_2">
    <path d="M 112.5 324 
L 635.625 324 
L 635.625 36 
L 112.5 36 
z
" style="fill:#ffffff;"/>
   </g>
   <g id="line2d_1">
    <path clip-path="url(#pf66651db6b)" d="M 112.85062 319.675416 
L 130.381619 317.900607 
L 133.887818 317.637261 
L 144.406418 316.110457 
L 151.418817 314.906016 
L 154.925017 314.197614 
L 161.937416 312.478637 
L 165.443616 311.229689 
L 168.949816 309.681768 
L 175.962215 305.594795 
L 179.468415 303.15168 
L 182.974615 300.495311 
L 189.987014 294.237554 
L 193.493214 290.852193 
L 204.011813 279.835563 
L 207.518013 274.470608 
L 214.530412 264.482839 
L 218.036612 259.416723 
L 221.542812 253.736695 
L 225.049011 246.745374 
L 228.555211 238.226886 
L 232.061411 232.055667 
L 235.567611 223.964445 
L 239.07381 214.547471 
L 242.58001 204.515697 
L 246.08621 191.671708 
L 256.604809 156.360336 
L 260.111009 140.545669 
L 263.617208 132.347243 
L 267.123408 121.169949 
L 270.629608 117.318425 
L 274.135808 112.524414 
L 277.642007 106.456856 
L 284.654407 102.52298 
L 288.160607 94.56603 
L 291.666806 89.476839 
L 295.173006 88.207407 
L 298.679206 79.526775 
L 302.185405 79.954501 
L 305.691605 72.624495 
L 309.197805 71.819142 
L 312.704005 69.170315 
L 316.210204 72.912096 
L 319.716404 69.471094 
L 323.222604 75.341613 
L 326.728804 74.708333 
L 330.235003 79.91749 
L 333.741203 85.508788 
L 337.247403 88.788493 
L 340.753603 85.110178 
L 344.259802 79.283358 
L 347.766002 72.323589 
L 351.272202 66.796069 
L 354.778401 60.038407 
L 358.284601 50.868165 
L 361.790801 45.155054 
L 365.297001 42.603242 
L 368.8032 46.573336 
L 372.3094 44.392942 
L 375.8156 47.901318 
L 382.827999 46.040326 
L 386.334199 46.965556 
L 389.840399 48.305859 
L 393.346599 47.488065 
L 396.852798 52.057102 
L 400.358998 47.393334 
L 403.865198 48.382172 
L 407.371397 55.689427 
L 410.877597 58.806089 
L 414.383797 62.255645 
L 417.889997 63.232264 
L 421.396196 67.503647 
L 424.902396 73.894817 
L 428.408596 81.02696 
L 431.914796 79.559214 
L 435.420995 78.243706 
L 438.927195 79.572522 
L 442.433395 75.307587 
L 445.939595 76.622446 
L 449.445794 77.015096 
L 452.951994 77.270085 
L 456.458194 79.66875 
L 459.964393 87.945447 
L 463.470593 91.912374 
L 466.976793 100.370455 
L 470.482993 104.168126 
L 473.989192 109.893343 
L 477.495392 110.07129 
L 481.001592 107.297346 
L 484.507792 106.862018 
L 488.013991 99.331639 
L 491.520191 98.550593 
L 498.53259 81.708337 
L 502.03879 77.166522 
L 505.54499 80.924174 
L 509.05119 73.97738 
L 512.557389 79.779823 
L 516.063589 80.491328 
L 519.569789 81.903558 
L 523.075989 85.5031 
L 526.582188 88.734223 
L 530.088388 88.546635 
L 533.594588 91.811017 
L 537.100788 91.788783 
L 540.606987 89.27961 
L 544.113187 90.135505 
L 547.619387 86.789904 
L 551.125586 81.725669 
L 554.631786 83.056142 
L 558.137986 86.032631 
L 561.644186 79.061555 
L 565.150385 80.598698 
L 568.656585 72.922494 
L 572.162785 79.145588 
L 575.668985 84.866533 
L 582.681384 78.395672 
L 586.187584 82.990745 
L 589.693784 83.780276 
L 593.199983 91.356811 
L 596.706183 87.810868 
L 600.212383 85.805721 
L 603.718582 86.043472 
L 607.224782 87.158149 
L 610.730982 87.760702 
L 614.237182 84.786274 
L 617.743381 86.226961 
L 617.743381 86.226961 
" style="fill:none;stroke:#0000ff;stroke-linecap:square;stroke-width:1.2;"/>
   </g>
   <g id="line2d_2">
    <path clip-path="url(#pf66651db6b)" d="M 112.85062 319.753293 
L 119.863019 318.942242 
L 130.381619 317.787034 
L 133.887818 317.498528 
L 144.406418 315.85801 
L 151.418817 314.753019 
L 154.925017 314.001329 
L 158.431216 313.022789 
L 161.937416 311.870968 
L 165.443616 310.48232 
L 172.456015 307.299166 
L 175.962215 305.383903 
L 179.468415 303.132561 
L 182.974615 300.382423 
L 186.480814 297.927 
L 189.987014 294.584383 
L 193.493214 291.474887 
L 196.999414 288.120674 
L 200.505613 283.936185 
L 204.011813 280.636248 
L 207.518013 277.985091 
L 211.024212 275.157852 
L 214.530412 273.031138 
L 218.036612 270.17992 
L 221.542812 268.128917 
L 225.049011 267.000196 
L 228.555211 265.141103 
L 232.061411 263.12488 
L 235.567611 260.0036 
L 239.07381 257.327473 
L 242.58001 253.534273 
L 246.08621 250.462513 
L 249.59241 246.370737 
L 253.098609 242.63223 
L 256.604809 237.815208 
L 260.111009 234.776583 
L 263.617208 229.509373 
L 267.123408 226.280835 
L 270.629608 218.927343 
L 274.135808 212.124729 
L 277.642007 204.823069 
L 281.148207 199.886584 
L 284.654407 196.038648 
L 288.160607 191.781582 
L 295.173006 184.069808 
L 298.679206 181.670196 
L 302.185405 179.850627 
L 305.691605 179.075954 
L 312.704005 172.977272 
L 319.716404 166.397183 
L 323.222604 159.504207 
L 326.728804 151.883819 
L 330.235003 145.853669 
L 333.741203 134.814511 
L 337.247403 126.794828 
L 340.753603 116.13429 
L 344.259802 111.357106 
L 347.766002 107.38175 
L 354.778401 92.504088 
L 358.284601 89.870064 
L 361.790801 88.113274 
L 365.297001 80.809985 
L 368.8032 80.147634 
L 372.3094 80.231596 
L 375.8156 86.515722 
L 379.3218 88.470481 
L 382.827999 86.789455 
L 386.334199 85.639271 
L 389.840399 97.135023 
L 393.346599 95.51307 
L 396.852798 96.478898 
L 400.358998 91.010539 
L 403.865198 86.586472 
L 407.371397 92.221892 
L 410.877597 95.479122 
L 414.383797 94.271524 
L 417.889997 86.698338 
L 421.396196 86.870214 
L 424.902396 84.074263 
L 428.408596 85.04846 
L 431.914796 78.246804 
L 435.420995 73.509486 
L 438.927195 62.557755 
L 442.433395 64.659363 
L 445.939595 58.834588 
L 449.445794 60.606755 
L 452.951994 56.57289 
L 456.458194 54.316912 
L 459.964393 53.197838 
L 463.470593 57.882307 
L 466.976793 58.08897 
L 470.482993 59.710655 
L 473.989192 59.416958 
L 477.495392 60.417383 
L 481.001592 63.241668 
L 484.507792 67.491443 
L 488.013991 65.674306 
L 491.520191 68.151536 
L 495.026391 67.770934 
L 498.53259 68.483997 
L 502.03879 66.87529 
L 505.54499 69.984511 
L 509.05119 71.405792 
L 512.557389 71.266308 
L 516.063589 74.728119 
L 523.075989 82.263778 
L 526.582188 87.082353 
L 530.088388 89.959196 
L 533.594588 89.563088 
L 537.100788 97.829268 
L 540.606987 96.315294 
L 544.113187 95.474633 
L 547.619387 95.467662 
L 551.125586 96.786985 
L 554.631786 91.793677 
L 558.137986 88.016749 
L 565.150385 70.791481 
L 568.656585 73.211985 
L 572.162785 70.397983 
L 575.668985 67.287838 
L 582.681384 69.881608 
L 586.187584 71.716681 
L 589.693784 80.466524 
L 593.199983 77.634616 
L 596.706183 81.938508 
L 600.212383 87.391401 
L 603.718582 85.13058 
L 607.224782 84.590991 
L 610.730982 89.606993 
L 614.237182 90.318493 
L 617.743381 90.831269 
L 621.249581 88.812942 
L 624.755781 85.390882 
L 628.261981 89.394583 
L 631.76818 91.423692 
L 635.27438 90.30384 
L 635.27438 90.30384 
" style="fill:none;stroke:#008000;stroke-linecap:square;stroke-width:1.2;"/>
   </g>
   <g id="line2d_3">
    <path clip-path="url(#pf66651db6b)" d="M 112.85062 319.273567 
L 119.863019 318.263842 
L 130.381619 316.728752 
L 133.887818 316.178577 
L 137.394018 315.351747 
L 140.900218 314.408897 
L 144.406418 313.282068 
L 147.912617 311.960035 
L 151.418817 310.402423 
L 154.925017 309.030134 
L 158.431216 307.440289 
L 161.937416 305.291897 
L 165.443616 302.812585 
L 168.949816 300.593223 
L 175.962215 295.530444 
L 179.468415 292.194019 
L 186.480814 284.655406 
L 189.987014 281.388441 
L 200.505613 269.575654 
L 207.518013 260.050551 
L 211.024212 255.688793 
L 214.530412 250.449426 
L 218.036612 243.739548 
L 221.542812 236.18891 
L 225.049011 229.376971 
L 235.567611 206.406406 
L 239.07381 197.535183 
L 242.58001 189.17368 
L 246.08621 183.126625 
L 249.59241 177.307822 
L 256.604809 155.835531 
L 260.111009 148.082497 
L 263.617208 141.269256 
L 267.123408 130.495766 
L 270.629608 123.15793 
L 274.135808 116.409415 
L 281.148207 110.250773 
L 284.654407 102.345455 
L 288.160607 100.225222 
L 291.666806 98.730368 
L 295.173006 97.020738 
L 298.679206 92.184641 
L 302.185405 91.219371 
L 305.691605 86.209473 
L 309.197805 87.880145 
L 312.704005 84.573829 
L 316.210204 90.764618 
L 319.716404 86.229193 
L 323.222604 83.694506 
L 326.728804 78.96923 
L 330.235003 77.835276 
L 333.741203 72.141211 
L 337.247403 68.043156 
L 340.753603 58.527485 
L 344.259802 58.661024 
L 347.766002 58.166162 
L 351.272202 60.477535 
L 354.778401 66.933674 
L 358.284601 67.682088 
L 361.790801 70.923493 
L 365.297001 78.427133 
L 368.8032 80.900345 
L 372.3094 82.441135 
L 375.8156 85.724138 
L 379.3218 75.448148 
L 382.827999 78.628675 
L 386.334199 76.029361 
L 389.840399 71.049337 
L 393.346599 71.940414 
L 396.852798 71.431237 
L 400.358998 67.426591 
L 403.865198 76.903917 
L 407.371397 72.691897 
L 410.877597 75.987823 
L 414.383797 75.153296 
L 417.889997 65.094725 
L 421.396196 64.674395 
L 424.902396 68.815444 
L 428.408596 70.132285 
L 431.914796 75.965511 
L 435.420995 78.42784 
L 438.927195 84.367665 
L 442.433395 92.942088 
L 445.939595 96.384612 
L 449.445794 98.96156 
L 456.458194 100.534282 
L 459.964393 97.165787 
L 463.470593 92.237555 
L 466.976793 90.056464 
L 470.482993 86.075737 
L 473.989192 78.80112 
L 477.495392 72.324019 
L 481.001592 67.941558 
L 484.507792 69.786305 
L 488.013991 71.482783 
L 491.520191 69.523991 
L 495.026391 64.3073 
L 498.53259 67.092259 
L 502.03879 70.314597 
L 505.54499 67.789875 
L 509.05119 65.484248 
L 512.557389 68.07059 
L 516.063589 70.805274 
L 519.569789 75.010412 
L 523.075989 71.761567 
L 526.582188 69.526242 
L 530.088388 70.8608 
L 533.594588 69.041811 
L 537.100788 63.816055 
L 540.606987 61.163268 
L 544.113187 60.057847 
L 547.619387 52.404498 
L 551.125586 51.825481 
L 554.631786 52.025169 
L 558.137986 54.839154 
L 561.644186 54.492483 
L 568.656585 58.051873 
L 572.162785 61.495475 
L 575.668985 62.219192 
L 579.175184 63.769902 
L 582.681384 60.399343 
L 586.187584 62.923582 
L 589.693784 62.697954 
L 593.199983 63.640744 
L 596.706183 67.608346 
L 600.212383 68.393594 
L 603.718582 71.901027 
L 607.224782 74.515132 
L 610.730982 74.053158 
L 614.237182 75.958214 
L 617.743381 76.526669 
L 621.249581 79.66474 
L 624.755781 81.683567 
L 628.261981 78.747405 
L 631.76818 79.098905 
L 635.27438 79.956748 
L 635.27438 79.956748 
" style="fill:none;stroke:#ff0000;stroke-linecap:square;stroke-width:1.2;"/>
   </g>
   <g id="line2d_4">
    <path clip-path="url(#pf66651db6b)" d="M 112.85062 319.622459 
L 126.875419 317.394223 
L 133.887818 316.141513 
L 137.394018 315.11558 
L 140.900218 313.924345 
L 144.406418 312.477467 
L 147.912617 310.711467 
L 151.418817 308.53011 
L 154.925017 305.902235 
L 158.431216 302.992734 
L 161.937416 299.715255 
L 165.443616 295.93679 
L 172.456015 287.686882 
L 179.468415 278.672146 
L 182.974615 274.07394 
L 186.480814 268.823964 
L 189.987014 263.25448 
L 193.493214 256.27242 
L 196.999414 249.709482 
L 200.505613 242.368533 
L 204.011813 235.657629 
L 207.518013 227.757663 
L 211.024212 219.27309 
L 214.530412 212.261771 
L 218.036612 206.076818 
L 221.542812 198.092616 
L 225.049011 193.318048 
L 228.555211 184.765724 
L 232.061411 179.382076 
L 239.07381 165.579783 
L 242.58001 159.22564 
L 246.08621 156.650181 
L 249.59241 149.392951 
L 253.098609 145.150601 
L 256.604809 141.500929 
L 260.111009 141.111991 
L 263.617208 135.413853 
L 267.123408 134.189382 
L 270.629608 125.81424 
L 274.135808 118.619514 
L 277.642007 114.592664 
L 281.148207 110.11075 
L 288.160607 100.311224 
L 291.666806 94.298489 
L 295.173006 95.656653 
L 298.679206 96.870952 
L 302.185405 95.403747 
L 305.691605 94.789067 
L 312.704005 90.986955 
L 316.210204 91.081113 
L 319.716404 89.021593 
L 323.222604 88.73314 
L 326.728804 87.421592 
L 330.235003 78.927648 
L 333.741203 78.801116 
L 337.247403 85.041179 
L 340.753603 84.643663 
L 344.259802 86.653529 
L 347.766002 85.277471 
L 351.272202 88.720546 
L 354.778401 96.939787 
L 358.284601 97.216268 
L 361.790801 93.328719 
L 365.297001 89.989581 
L 368.8032 88.515162 
L 372.3094 89.441869 
L 375.8156 86.382493 
L 379.3218 84.855837 
L 382.827999 82.147159 
L 386.334199 82.387389 
L 389.840399 82.453422 
L 393.346599 78.937689 
L 396.852798 80.749715 
L 400.358998 78.045276 
L 403.865198 76.322072 
L 407.371397 78.338034 
L 410.877597 79.874999 
L 414.383797 86.196567 
L 417.889997 90.223728 
L 421.396196 87.413263 
L 424.902396 89.737437 
L 428.408596 93.570583 
L 431.914796 92.459427 
L 435.420995 92.062087 
L 438.927195 88.484256 
L 442.433395 87.862338 
L 445.939595 91.689399 
L 449.445794 92.614491 
L 452.951994 93.035768 
L 456.458194 93.234419 
L 459.964393 96.87893 
L 463.470593 96.516579 
L 466.976793 95.360674 
L 470.482993 90.334227 
L 473.989192 85.623234 
L 477.495392 78.581774 
L 481.001592 78.353713 
L 484.507792 72.168342 
L 488.013991 68.289275 
L 491.520191 64.002805 
L 495.026391 61.180563 
L 498.53259 65.107387 
L 502.03879 67.029764 
L 505.54499 66.760864 
L 509.05119 66.895079 
L 512.557389 71.211039 
L 516.063589 76.915022 
L 519.569789 84.682175 
L 523.075989 87.726069 
L 526.582188 88.452574 
L 530.088388 92.809979 
L 533.594588 95.526376 
L 537.100788 101.315106 
L 540.606987 99.079142 
L 544.113187 99.456949 
L 547.619387 98.898341 
L 551.125586 103.007943 
L 554.631786 100.873791 
L 558.137986 100.075752 
L 561.644186 92.328289 
L 565.150385 92.511808 
L 568.656585 87.914994 
L 572.162785 77.351482 
L 575.668985 67.579849 
L 579.175184 61.336965 
L 582.681384 60.306154 
L 586.187584 57.163581 
L 589.693784 55.075175 
L 593.199983 50.935412 
L 596.706183 59.648592 
L 600.212383 62.098005 
L 603.718582 58.028557 
L 607.224782 51.819884 
L 610.730982 51.100195 
L 614.237182 48.444782 
L 617.743381 48.686595 
L 621.249581 41.358958 
L 624.755781 37.582128 
L 628.261981 41.102068 
L 631.76818 43.896174 
L 631.76818 43.896174 
" style="fill:none;stroke:#00bfbf;stroke-linecap:square;stroke-width:1.2;"/>
   </g>
   <g id="patch_3">
    <path d="M 112.5 324 
L 112.5 36 
" style="fill:none;stroke:#000000;stroke-linecap:square;stroke-linejoin:miter;"/>
   </g>
   <g id="patch_4">
    <path d="M 635.625 324 
L 635.625 36 
" style="fill:none;stroke:#000000;stroke-linecap:square;stroke-linejoin:miter;"/>
   </g>
   <g id="patch_5">
    <path d="M 112.5 324 
L 635.625 324 
" style="fill:none;stroke:#000000;stroke-linecap:square;stroke-linejoin:miter;"/>
   </g>
   <g id="patch_6">
    <path d="M 112.5 36 
L 635.625 36 
" style="fill:none;stroke:#000000;stroke-linecap:square;stroke-linejoin:miter;"/>
   </g>
   <g id="matplotlib.axis_1">
    <g id="xtick_1">
     <g id="line2d_5">
      <defs>
       <path d="M 0 0 
L 0 -4 
" id="m4c3db75a9c" style="stroke:#000000;stroke-width:0.5;"/>
      </defs>
      <g>
       <use style="stroke:#000000;stroke-width:0.5;" x="112.85062" xlink:href="#m4c3db75a9c" y="324"/>
      </g>
     </g>
     <g id="line2d_6">
      <defs>
       <path d="M 0 0 
L 0 4 
" id="m6a99ebff80" style="stroke:#000000;stroke-width:0.5;"/>
      </defs>
      <g>
       <use style="stroke:#000000;stroke-width:0.5;" x="112.85062" xlink:href="#m6a99ebff80" y="36"/>
      </g>
     </g>
     <g id="text_1">
      <!-- 0 -->
      <defs>
       <path d="M 31.78125 66.40625 
Q 24.171875 66.40625 20.328125 58.90625 
Q 16.5 51.421875 16.5 36.375 
Q 16.5 21.390625 20.328125 13.890625 
Q 24.171875 6.390625 31.78125 6.390625 
Q 39.453125 6.390625 43.28125 13.890625 
Q 47.125 21.390625 47.125 36.375 
Q 47.125 51.421875 43.28125 58.90625 
Q 39.453125 66.40625 31.78125 66.40625 
z
M 31.78125 74.21875 
Q 44.046875 74.21875 50.515625 64.515625 
Q 56.984375 54.828125 56.984375 36.375 
Q 56.984375 17.96875 50.515625 8.265625 
Q 44.046875 -1.421875 31.78125 -1.421875 
Q 19.53125 -1.421875 13.0625 8.265625 
Q 6.59375 17.96875 6.59375 36.375 
Q 6.59375 54.828125 13.0625 64.515625 
Q 19.53125 74.21875 31.78125 74.21875 
z
" id="DejaVuSans-48"/>
      </defs>
      <g transform="translate(109.03312 337.118125)scale(0.12 -0.12)">
       <use xlink:href="#DejaVuSans-48"/>
      </g>
     </g>
    </g>
    <g id="xtick_2">
     <g id="line2d_7">
      <g>
       <use style="stroke:#000000;stroke-width:0.5;" x="165.443616" xlink:href="#m4c3db75a9c" y="324"/>
      </g>
     </g>
     <g id="line2d_8">
      <g>
       <use style="stroke:#000000;stroke-width:0.5;" x="165.443616" xlink:href="#m6a99ebff80" y="36"/>
      </g>
     </g>
     <g id="text_2">
      <!-- 15 -->
      <defs>
       <path d="M 12.40625 8.296875 
L 28.515625 8.296875 
L 28.515625 63.921875 
L 10.984375 60.40625 
L 10.984375 69.390625 
L 28.421875 72.90625 
L 38.28125 72.90625 
L 38.28125 8.296875 
L 54.390625 8.296875 
L 54.390625 0 
L 12.40625 0 
z
" id="DejaVuSans-49"/>
       <path d="M 10.796875 72.90625 
L 49.515625 72.90625 
L 49.515625 64.59375 
L 19.828125 64.59375 
L 19.828125 46.734375 
Q 21.96875 47.46875 24.109375 47.828125 
Q 26.265625 48.1875 28.421875 48.1875 
Q 40.625 48.1875 47.75 41.5 
Q 54.890625 34.8125 54.890625 23.390625 
Q 54.890625 11.625 47.5625 5.09375 
Q 40.234375 -1.421875 26.90625 -1.421875 
Q 22.3125 -1.421875 17.546875 -0.640625 
Q 12.796875 0.140625 7.71875 1.703125 
L 7.71875 11.625 
Q 12.109375 9.234375 16.796875 8.0625 
Q 21.484375 6.890625 26.703125 6.890625 
Q 35.15625 6.890625 40.078125 11.328125 
Q 45.015625 15.765625 45.015625 23.390625 
Q 45.015625 31 40.078125 35.4375 
Q 35.15625 39.890625 26.703125 39.890625 
Q 22.75 39.890625 18.8125 39.015625 
Q 14.890625 38.140625 10.796875 36.28125 
z
" id="DejaVuSans-53"/>
      </defs>
      <g transform="translate(157.808616 337.118125)scale(0.12 -0.12)">
       <use xlink:href="#DejaVuSans-49"/>
       <use x="63.623047" xlink:href="#DejaVuSans-53"/>
      </g>
     </g>
    </g>
    <g id="xtick_3">
     <g id="line2d_9">
      <g>
       <use style="stroke:#000000;stroke-width:0.5;" x="218.036612" xlink:href="#m4c3db75a9c" y="324"/>
      </g>
     </g>
     <g id="line2d_10">
      <g>
       <use style="stroke:#000000;stroke-width:0.5;" x="218.036612" xlink:href="#m6a99ebff80" y="36"/>
      </g>
     </g>
     <g id="text_3">
      <!-- 30 -->
      <defs>
       <path d="M 40.578125 39.3125 
Q 47.65625 37.796875 51.625 33 
Q 55.609375 28.21875 55.609375 21.1875 
Q 55.609375 10.40625 48.1875 4.484375 
Q 40.765625 -1.421875 27.09375 -1.421875 
Q 22.515625 -1.421875 17.65625 -0.515625 
Q 12.796875 0.390625 7.625 2.203125 
L 7.625 11.71875 
Q 11.71875 9.328125 16.59375 8.109375 
Q 21.484375 6.890625 26.8125 6.890625 
Q 36.078125 6.890625 40.9375 10.546875 
Q 45.796875 14.203125 45.796875 21.1875 
Q 45.796875 27.640625 41.28125 31.265625 
Q 36.765625 34.90625 28.71875 34.90625 
L 20.21875 34.90625 
L 20.21875 43.015625 
L 29.109375 43.015625 
Q 36.375 43.015625 40.234375 45.921875 
Q 44.09375 48.828125 44.09375 54.296875 
Q 44.09375 59.90625 40.109375 62.90625 
Q 36.140625 65.921875 28.71875 65.921875 
Q 24.65625 65.921875 20.015625 65.03125 
Q 15.375 64.15625 9.8125 62.3125 
L 9.8125 71.09375 
Q 15.4375 72.65625 20.34375 73.4375 
Q 25.25 74.21875 29.59375 74.21875 
Q 40.828125 74.21875 47.359375 69.109375 
Q 53.90625 64.015625 53.90625 55.328125 
Q 53.90625 49.265625 50.4375 45.09375 
Q 46.96875 40.921875 40.578125 39.3125 
z
" id="DejaVuSans-51"/>
      </defs>
      <g transform="translate(210.401612 337.118125)scale(0.12 -0.12)">
       <use xlink:href="#DejaVuSans-51"/>
       <use x="63.623047" xlink:href="#DejaVuSans-48"/>
      </g>
     </g>
    </g>
    <g id="xtick_4">
     <g id="line2d_11">
      <g>
       <use style="stroke:#000000;stroke-width:0.5;" x="270.629608" xlink:href="#m4c3db75a9c" y="324"/>
      </g>
     </g>
     <g id="line2d_12">
      <g>
       <use style="stroke:#000000;stroke-width:0.5;" x="270.629608" xlink:href="#m6a99ebff80" y="36"/>
      </g>
     </g>
     <g id="text_4">
      <!-- 45 -->
      <defs>
       <path d="M 37.796875 64.3125 
L 12.890625 25.390625 
L 37.796875 25.390625 
z
M 35.203125 72.90625 
L 47.609375 72.90625 
L 47.609375 25.390625 
L 58.015625 25.390625 
L 58.015625 17.1875 
L 47.609375 17.1875 
L 47.609375 0 
L 37.796875 0 
L 37.796875 17.1875 
L 4.890625 17.1875 
L 4.890625 26.703125 
z
" id="DejaVuSans-52"/>
      </defs>
      <g transform="translate(262.994608 337.118125)scale(0.12 -0.12)">
       <use xlink:href="#DejaVuSans-52"/>
       <use x="63.623047" xlink:href="#DejaVuSans-53"/>
      </g>
     </g>
    </g>
    <g id="xtick_5">
     <g id="line2d_13">
      <g>
       <use style="stroke:#000000;stroke-width:0.5;" x="323.222604" xlink:href="#m4c3db75a9c" y="324"/>
      </g>
     </g>
     <g id="line2d_14">
      <g>
       <use style="stroke:#000000;stroke-width:0.5;" x="323.222604" xlink:href="#m6a99ebff80" y="36"/>
      </g>
     </g>
     <g id="text_5">
      <!-- 60 -->
      <defs>
       <path d="M 33.015625 40.375 
Q 26.375 40.375 22.484375 35.828125 
Q 18.609375 31.296875 18.609375 23.390625 
Q 18.609375 15.53125 22.484375 10.953125 
Q 26.375 6.390625 33.015625 6.390625 
Q 39.65625 6.390625 43.53125 10.953125 
Q 47.40625 15.53125 47.40625 23.390625 
Q 47.40625 31.296875 43.53125 35.828125 
Q 39.65625 40.375 33.015625 40.375 
z
M 52.59375 71.296875 
L 52.59375 62.3125 
Q 48.875 64.0625 45.09375 64.984375 
Q 41.3125 65.921875 37.59375 65.921875 
Q 27.828125 65.921875 22.671875 59.328125 
Q 17.53125 52.734375 16.796875 39.40625 
Q 19.671875 43.65625 24.015625 45.921875 
Q 28.375 48.1875 33.59375 48.1875 
Q 44.578125 48.1875 50.953125 41.515625 
Q 57.328125 34.859375 57.328125 23.390625 
Q 57.328125 12.15625 50.6875 5.359375 
Q 44.046875 -1.421875 33.015625 -1.421875 
Q 20.359375 -1.421875 13.671875 8.265625 
Q 6.984375 17.96875 6.984375 36.375 
Q 6.984375 53.65625 15.1875 63.9375 
Q 23.390625 74.21875 37.203125 74.21875 
Q 40.921875 74.21875 44.703125 73.484375 
Q 48.484375 72.75 52.59375 71.296875 
z
" id="DejaVuSans-54"/>
      </defs>
      <g transform="translate(315.587604 337.118125)scale(0.12 -0.12)">
       <use xlink:href="#DejaVuSans-54"/>
       <use x="63.623047" xlink:href="#DejaVuSans-48"/>
      </g>
     </g>
    </g>
    <g id="xtick_6">
     <g id="line2d_15">
      <g>
       <use style="stroke:#000000;stroke-width:0.5;" x="375.8156" xlink:href="#m4c3db75a9c" y="324"/>
      </g>
     </g>
     <g id="line2d_16">
      <g>
       <use style="stroke:#000000;stroke-width:0.5;" x="375.8156" xlink:href="#m6a99ebff80" y="36"/>
      </g>
     </g>
     <g id="text_6">
      <!-- 75 -->
      <defs>
       <path d="M 8.203125 72.90625 
L 55.078125 72.90625 
L 55.078125 68.703125 
L 28.609375 0 
L 18.3125 0 
L 43.21875 64.59375 
L 8.203125 64.59375 
z
" id="DejaVuSans-55"/>
      </defs>
      <g transform="translate(368.1806 337.118125)scale(0.12 -0.12)">
       <use xlink:href="#DejaVuSans-55"/>
       <use x="63.623047" xlink:href="#DejaVuSans-53"/>
      </g>
     </g>
    </g>
    <g id="xtick_7">
     <g id="line2d_17">
      <g>
       <use style="stroke:#000000;stroke-width:0.5;" x="428.408596" xlink:href="#m4c3db75a9c" y="324"/>
      </g>
     </g>
     <g id="line2d_18">
      <g>
       <use style="stroke:#000000;stroke-width:0.5;" x="428.408596" xlink:href="#m6a99ebff80" y="36"/>
      </g>
     </g>
     <g id="text_7">
      <!-- 90 -->
      <defs>
       <path d="M 10.984375 1.515625 
L 10.984375 10.5 
Q 14.703125 8.734375 18.5 7.8125 
Q 22.3125 6.890625 25.984375 6.890625 
Q 35.75 6.890625 40.890625 13.453125 
Q 46.046875 20.015625 46.78125 33.40625 
Q 43.953125 29.203125 39.59375 26.953125 
Q 35.25 24.703125 29.984375 24.703125 
Q 19.046875 24.703125 12.671875 31.3125 
Q 6.296875 37.9375 6.296875 49.421875 
Q 6.296875 60.640625 12.9375 67.421875 
Q 19.578125 74.21875 30.609375 74.21875 
Q 43.265625 74.21875 49.921875 64.515625 
Q 56.59375 54.828125 56.59375 36.375 
Q 56.59375 19.140625 48.40625 8.859375 
Q 40.234375 -1.421875 26.421875 -1.421875 
Q 22.703125 -1.421875 18.890625 -0.6875 
Q 15.09375 0.046875 10.984375 1.515625 
z
M 30.609375 32.421875 
Q 37.25 32.421875 41.125 36.953125 
Q 45.015625 41.5 45.015625 49.421875 
Q 45.015625 57.28125 41.125 61.84375 
Q 37.25 66.40625 30.609375 66.40625 
Q 23.96875 66.40625 20.09375 61.84375 
Q 16.21875 57.28125 16.21875 49.421875 
Q 16.21875 41.5 20.09375 36.953125 
Q 23.96875 32.421875 30.609375 32.421875 
z
" id="DejaVuSans-57"/>
      </defs>
      <g transform="translate(420.773596 337.118125)scale(0.12 -0.12)">
       <use xlink:href="#DejaVuSans-57"/>
       <use x="63.623047" xlink:href="#DejaVuSans-48"/>
      </g>
     </g>
    </g>
    <g id="xtick_8">
     <g id="line2d_19">
      <g>
       <use style="stroke:#000000;stroke-width:0.5;" x="481.001592" xlink:href="#m4c3db75a9c" y="324"/>
      </g>
     </g>
     <g id="line2d_20">
      <g>
       <use style="stroke:#000000;stroke-width:0.5;" x="481.001592" xlink:href="#m6a99ebff80" y="36"/>
      </g>
     </g>
     <g id="text_8">
      <!-- 105 -->
      <g transform="translate(469.549092 337.118125)scale(0.12 -0.12)">
       <use xlink:href="#DejaVuSans-49"/>
       <use x="63.623047" xlink:href="#DejaVuSans-48"/>
       <use x="127.246094" xlink:href="#DejaVuSans-53"/>
      </g>
     </g>
    </g>
    <g id="xtick_9">
     <g id="line2d_21">
      <g>
       <use style="stroke:#000000;stroke-width:0.5;" x="533.594588" xlink:href="#m4c3db75a9c" y="324"/>
      </g>
     </g>
     <g id="line2d_22">
      <g>
       <use style="stroke:#000000;stroke-width:0.5;" x="533.594588" xlink:href="#m6a99ebff80" y="36"/>
      </g>
     </g>
     <g id="text_9">
      <!-- 120 -->
      <defs>
       <path d="M 19.1875 8.296875 
L 53.609375 8.296875 
L 53.609375 0 
L 7.328125 0 
L 7.328125 8.296875 
Q 12.9375 14.109375 22.625 23.890625 
Q 32.328125 33.6875 34.8125 36.53125 
Q 39.546875 41.84375 41.421875 45.53125 
Q 43.3125 49.21875 43.3125 52.78125 
Q 43.3125 58.59375 39.234375 62.25 
Q 35.15625 65.921875 28.609375 65.921875 
Q 23.96875 65.921875 18.8125 64.3125 
Q 13.671875 62.703125 7.8125 59.421875 
L 7.8125 69.390625 
Q 13.765625 71.78125 18.9375 73 
Q 24.125 74.21875 28.421875 74.21875 
Q 39.75 74.21875 46.484375 68.546875 
Q 53.21875 62.890625 53.21875 53.421875 
Q 53.21875 48.921875 51.53125 44.890625 
Q 49.859375 40.875 45.40625 35.40625 
Q 44.1875 33.984375 37.640625 27.21875 
Q 31.109375 20.453125 19.1875 8.296875 
z
" id="DejaVuSans-50"/>
      </defs>
      <g transform="translate(522.142088 337.118125)scale(0.12 -0.12)">
       <use xlink:href="#DejaVuSans-49"/>
       <use x="63.623047" xlink:href="#DejaVuSans-50"/>
       <use x="127.246094" xlink:href="#DejaVuSans-48"/>
      </g>
     </g>
    </g>
    <g id="xtick_10">
     <g id="line2d_23">
      <g>
       <use style="stroke:#000000;stroke-width:0.5;" x="586.187584" xlink:href="#m4c3db75a9c" y="324"/>
      </g>
     </g>
     <g id="line2d_24">
      <g>
       <use style="stroke:#000000;stroke-width:0.5;" x="586.187584" xlink:href="#m6a99ebff80" y="36"/>
      </g>
     </g>
     <g id="text_10">
      <!-- 135 -->
      <g transform="translate(574.735084 337.118125)scale(0.12 -0.12)">
       <use xlink:href="#DejaVuSans-49"/>
       <use x="63.623047" xlink:href="#DejaVuSans-51"/>
       <use x="127.246094" xlink:href="#DejaVuSans-53"/>
      </g>
     </g>
    </g>
    <g id="text_11">
     <!-- generation -->
     <defs>
      <path d="M 45.40625 27.984375 
Q 45.40625 37.75 41.375 43.109375 
Q 37.359375 48.484375 30.078125 48.484375 
Q 22.859375 48.484375 18.828125 43.109375 
Q 14.796875 37.75 14.796875 27.984375 
Q 14.796875 18.265625 18.828125 12.890625 
Q 22.859375 7.515625 30.078125 7.515625 
Q 37.359375 7.515625 41.375 12.890625 
Q 45.40625 18.265625 45.40625 27.984375 
z
M 54.390625 6.78125 
Q 54.390625 -7.171875 48.1875 -13.984375 
Q 42 -20.796875 29.203125 -20.796875 
Q 24.46875 -20.796875 20.265625 -20.09375 
Q 16.0625 -19.390625 12.109375 -17.921875 
L 12.109375 -9.1875 
Q 16.0625 -11.328125 19.921875 -12.34375 
Q 23.78125 -13.375 27.78125 -13.375 
Q 36.625 -13.375 41.015625 -8.765625 
Q 45.40625 -4.15625 45.40625 5.171875 
L 45.40625 9.625 
Q 42.625 4.78125 38.28125 2.390625 
Q 33.9375 0 27.875 0 
Q 17.828125 0 11.671875 7.65625 
Q 5.515625 15.328125 5.515625 27.984375 
Q 5.515625 40.671875 11.671875 48.328125 
Q 17.828125 56 27.875 56 
Q 33.9375 56 38.28125 53.609375 
Q 42.625 51.21875 45.40625 46.390625 
L 45.40625 54.6875 
L 54.390625 54.6875 
z
" id="DejaVuSans-103"/>
      <path d="M 56.203125 29.59375 
L 56.203125 25.203125 
L 14.890625 25.203125 
Q 15.484375 15.921875 20.484375 11.0625 
Q 25.484375 6.203125 34.421875 6.203125 
Q 39.59375 6.203125 44.453125 7.46875 
Q 49.3125 8.734375 54.109375 11.28125 
L 54.109375 2.78125 
Q 49.265625 0.734375 44.1875 -0.34375 
Q 39.109375 -1.421875 33.890625 -1.421875 
Q 20.796875 -1.421875 13.15625 6.1875 
Q 5.515625 13.8125 5.515625 26.8125 
Q 5.515625 40.234375 12.765625 48.109375 
Q 20.015625 56 32.328125 56 
Q 43.359375 56 49.78125 48.890625 
Q 56.203125 41.796875 56.203125 29.59375 
z
M 47.21875 32.234375 
Q 47.125 39.59375 43.09375 43.984375 
Q 39.0625 48.390625 32.421875 48.390625 
Q 24.90625 48.390625 20.390625 44.140625 
Q 15.875 39.890625 15.1875 32.171875 
z
" id="DejaVuSans-101"/>
      <path d="M 54.890625 33.015625 
L 54.890625 0 
L 45.90625 0 
L 45.90625 32.71875 
Q 45.90625 40.484375 42.875 44.328125 
Q 39.84375 48.1875 33.796875 48.1875 
Q 26.515625 48.1875 22.3125 43.546875 
Q 18.109375 38.921875 18.109375 30.90625 
L 18.109375 0 
L 9.078125 0 
L 9.078125 54.6875 
L 18.109375 54.6875 
L 18.109375 46.1875 
Q 21.34375 51.125 25.703125 53.5625 
Q 30.078125 56 35.796875 56 
Q 45.21875 56 50.046875 50.171875 
Q 54.890625 44.34375 54.890625 33.015625 
z
" id="DejaVuSans-110"/>
      <path d="M 41.109375 46.296875 
Q 39.59375 47.171875 37.8125 47.578125 
Q 36.03125 48 33.890625 48 
Q 26.265625 48 22.1875 43.046875 
Q 18.109375 38.09375 18.109375 28.8125 
L 18.109375 0 
L 9.078125 0 
L 9.078125 54.6875 
L 18.109375 54.6875 
L 18.109375 46.1875 
Q 20.953125 51.171875 25.484375 53.578125 
Q 30.03125 56 36.53125 56 
Q 37.453125 56 38.578125 55.875 
Q 39.703125 55.765625 41.0625 55.515625 
z
" id="DejaVuSans-114"/>
      <path d="M 34.28125 27.484375 
Q 23.390625 27.484375 19.1875 25 
Q 14.984375 22.515625 14.984375 16.5 
Q 14.984375 11.71875 18.140625 8.90625 
Q 21.296875 6.109375 26.703125 6.109375 
Q 34.1875 6.109375 38.703125 11.40625 
Q 43.21875 16.703125 43.21875 25.484375 
L 43.21875 27.484375 
z
M 52.203125 31.203125 
L 52.203125 0 
L 43.21875 0 
L 43.21875 8.296875 
Q 40.140625 3.328125 35.546875 0.953125 
Q 30.953125 -1.421875 24.3125 -1.421875 
Q 15.921875 -1.421875 10.953125 3.296875 
Q 6 8.015625 6 15.921875 
Q 6 25.140625 12.171875 29.828125 
Q 18.359375 34.515625 30.609375 34.515625 
L 43.21875 34.515625 
L 43.21875 35.40625 
Q 43.21875 41.609375 39.140625 45 
Q 35.0625 48.390625 27.6875 48.390625 
Q 23 48.390625 18.546875 47.265625 
Q 14.109375 46.140625 10.015625 43.890625 
L 10.015625 52.203125 
Q 14.9375 54.109375 19.578125 55.046875 
Q 24.21875 56 28.609375 56 
Q 40.484375 56 46.34375 49.84375 
Q 52.203125 43.703125 52.203125 31.203125 
z
" id="DejaVuSans-97"/>
      <path d="M 18.3125 70.21875 
L 18.3125 54.6875 
L 36.8125 54.6875 
L 36.8125 47.703125 
L 18.3125 47.703125 
L 18.3125 18.015625 
Q 18.3125 11.328125 20.140625 9.421875 
Q 21.96875 7.515625 27.59375 7.515625 
L 36.8125 7.515625 
L 36.8125 0 
L 27.59375 0 
Q 17.1875 0 13.234375 3.875 
Q 9.28125 7.765625 9.28125 18.015625 
L 9.28125 47.703125 
L 2.6875 47.703125 
L 2.6875 54.6875 
L 9.28125 54.6875 
L 9.28125 70.21875 
z
" id="DejaVuSans-116"/>
      <path d="M 9.421875 54.6875 
L 18.40625 54.6875 
L 18.40625 0 
L 9.421875 0 
z
M 9.421875 75.984375 
L 18.40625 75.984375 
L 18.40625 64.59375 
L 9.421875 64.59375 
z
" id="DejaVuSans-105"/>
      <path d="M 30.609375 48.390625 
Q 23.390625 48.390625 19.1875 42.75 
Q 14.984375 37.109375 14.984375 27.296875 
Q 14.984375 17.484375 19.15625 11.84375 
Q 23.34375 6.203125 30.609375 6.203125 
Q 37.796875 6.203125 41.984375 11.859375 
Q 46.1875 17.53125 46.1875 27.296875 
Q 46.1875 37.015625 41.984375 42.703125 
Q 37.796875 48.390625 30.609375 48.390625 
z
M 30.609375 56 
Q 42.328125 56 49.015625 48.375 
Q 55.71875 40.765625 55.71875 27.296875 
Q 55.71875 13.875 49.015625 6.21875 
Q 42.328125 -1.421875 30.609375 -1.421875 
Q 18.84375 -1.421875 12.171875 6.21875 
Q 5.515625 13.875 5.515625 27.296875 
Q 5.515625 40.765625 12.171875 48.375 
Q 18.84375 56 30.609375 56 
z
" id="DejaVuSans-111"/>
     </defs>
     <g transform="translate(341.430938 353.731875)scale(0.12 -0.12)">
      <use xlink:href="#DejaVuSans-103"/>
      <use x="63.476562" xlink:href="#DejaVuSans-101"/>
      <use x="125" xlink:href="#DejaVuSans-110"/>
      <use x="188.378906" xlink:href="#DejaVuSans-101"/>
      <use x="249.902344" xlink:href="#DejaVuSans-114"/>
      <use x="291.015625" xlink:href="#DejaVuSans-97"/>
      <use x="352.294922" xlink:href="#DejaVuSans-116"/>
      <use x="391.503906" xlink:href="#DejaVuSans-105"/>
      <use x="419.287109" xlink:href="#DejaVuSans-111"/>
      <use x="480.46875" xlink:href="#DejaVuSans-110"/>
     </g>
    </g>
   </g>
   <g id="matplotlib.axis_2">
    <g id="ytick_1">
     <g id="line2d_25">
      <defs>
       <path d="M 0 0 
L 4 0 
" id="mb9be3746f4" style="stroke:#000000;stroke-width:0.5;"/>
      </defs>
      <g>
       <use style="stroke:#000000;stroke-width:0.5;" x="112.5" xlink:href="#mb9be3746f4" y="324"/>
      </g>
     </g>
     <g id="line2d_26">
      <defs>
       <path d="M 0 0 
L -4 0 
" id="mbcede9d0e2" style="stroke:#000000;stroke-width:0.5;"/>
      </defs>
      <g>
       <use style="stroke:#000000;stroke-width:0.5;" x="635.625" xlink:href="#mbcede9d0e2" y="324"/>
      </g>
     </g>
     <g id="text_12">
      <!-- 0 -->
      <g transform="translate(100.865 327.31125)scale(0.12 -0.12)">
       <use xlink:href="#DejaVuSans-48"/>
      </g>
     </g>
    </g>
    <g id="ytick_2">
     <g id="line2d_27">
      <g>
       <use style="stroke:#000000;stroke-width:0.5;" x="112.5" xlink:href="#mb9be3746f4" y="282.857143"/>
      </g>
     </g>
     <g id="line2d_28">
      <g>
       <use style="stroke:#000000;stroke-width:0.5;" x="635.625" xlink:href="#mbcede9d0e2" y="282.857143"/>
      </g>
     </g>
     <g id="text_13">
      <!-- 500,000 -->
      <defs>
       <path d="M 11.71875 12.40625 
L 22.015625 12.40625 
L 22.015625 4 
L 14.015625 -11.625 
L 7.71875 -11.625 
L 11.71875 4 
z
" id="DejaVuSans-44"/>
      </defs>
      <g transform="translate(58.87625 286.168393)scale(0.12 -0.12)">
       <use xlink:href="#DejaVuSans-53"/>
       <use x="63.623047" xlink:href="#DejaVuSans-48"/>
       <use x="127.246094" xlink:href="#DejaVuSans-48"/>
       <use x="190.869141" xlink:href="#DejaVuSans-44"/>
       <use x="222.65625" xlink:href="#DejaVuSans-48"/>
       <use x="286.279297" xlink:href="#DejaVuSans-48"/>
       <use x="349.902344" xlink:href="#DejaVuSans-48"/>
      </g>
     </g>
    </g>
    <g id="ytick_3">
     <g id="line2d_29">
      <g>
       <use style="stroke:#000000;stroke-width:0.5;" x="112.5" xlink:href="#mb9be3746f4" y="241.714286"/>
      </g>
     </g>
     <g id="line2d_30">
      <g>
       <use style="stroke:#000000;stroke-width:0.5;" x="635.625" xlink:href="#mbcede9d0e2" y="241.714286"/>
      </g>
     </g>
     <g id="text_14">
      <!-- 1,000,000 -->
      <g transform="translate(47.4275 245.025536)scale(0.12 -0.12)">
       <use xlink:href="#DejaVuSans-49"/>
       <use x="63.623047" xlink:href="#DejaVuSans-44"/>
       <use x="95.410156" xlink:href="#DejaVuSans-48"/>
       <use x="159.033203" xlink:href="#DejaVuSans-48"/>
       <use x="222.65625" xlink:href="#DejaVuSans-48"/>
       <use x="286.279297" xlink:href="#DejaVuSans-44"/>
       <use x="318.066406" xlink:href="#DejaVuSans-48"/>
       <use x="381.689453" xlink:href="#DejaVuSans-48"/>
       <use x="445.3125" xlink:href="#DejaVuSans-48"/>
      </g>
     </g>
    </g>
    <g id="ytick_4">
     <g id="line2d_31">
      <g>
       <use style="stroke:#000000;stroke-width:0.5;" x="112.5" xlink:href="#mb9be3746f4" y="200.571429"/>
      </g>
     </g>
     <g id="line2d_32">
      <g>
       <use style="stroke:#000000;stroke-width:0.5;" x="635.625" xlink:href="#mbcede9d0e2" y="200.571429"/>
      </g>
     </g>
     <g id="text_15">
      <!-- 1,500,000 -->
      <g transform="translate(47.4275 203.882679)scale(0.12 -0.12)">
       <use xlink:href="#DejaVuSans-49"/>
       <use x="63.623047" xlink:href="#DejaVuSans-44"/>
       <use x="95.410156" xlink:href="#DejaVuSans-53"/>
       <use x="159.033203" xlink:href="#DejaVuSans-48"/>
       <use x="222.65625" xlink:href="#DejaVuSans-48"/>
       <use x="286.279297" xlink:href="#DejaVuSans-44"/>
       <use x="318.066406" xlink:href="#DejaVuSans-48"/>
       <use x="381.689453" xlink:href="#DejaVuSans-48"/>
       <use x="445.3125" xlink:href="#DejaVuSans-48"/>
      </g>
     </g>
    </g>
    <g id="ytick_5">
     <g id="line2d_33">
      <g>
       <use style="stroke:#000000;stroke-width:0.5;" x="112.5" xlink:href="#mb9be3746f4" y="159.428571"/>
      </g>
     </g>
     <g id="line2d_34">
      <g>
       <use style="stroke:#000000;stroke-width:0.5;" x="635.625" xlink:href="#mbcede9d0e2" y="159.428571"/>
      </g>
     </g>
     <g id="text_16">
      <!-- 2,000,000 -->
      <g transform="translate(47.4275 162.739821)scale(0.12 -0.12)">
       <use xlink:href="#DejaVuSans-50"/>
       <use x="63.623047" xlink:href="#DejaVuSans-44"/>
       <use x="95.410156" xlink:href="#DejaVuSans-48"/>
       <use x="159.033203" xlink:href="#DejaVuSans-48"/>
       <use x="222.65625" xlink:href="#DejaVuSans-48"/>
       <use x="286.279297" xlink:href="#DejaVuSans-44"/>
       <use x="318.066406" xlink:href="#DejaVuSans-48"/>
       <use x="381.689453" xlink:href="#DejaVuSans-48"/>
       <use x="445.3125" xlink:href="#DejaVuSans-48"/>
      </g>
     </g>
    </g>
    <g id="ytick_6">
     <g id="line2d_35">
      <g>
       <use style="stroke:#000000;stroke-width:0.5;" x="112.5" xlink:href="#mb9be3746f4" y="118.285714"/>
      </g>
     </g>
     <g id="line2d_36">
      <g>
       <use style="stroke:#000000;stroke-width:0.5;" x="635.625" xlink:href="#mbcede9d0e2" y="118.285714"/>
      </g>
     </g>
     <g id="text_17">
      <!-- 2,500,000 -->
      <g transform="translate(47.4275 121.596964)scale(0.12 -0.12)">
       <use xlink:href="#DejaVuSans-50"/>
       <use x="63.623047" xlink:href="#DejaVuSans-44"/>
       <use x="95.410156" xlink:href="#DejaVuSans-53"/>
       <use x="159.033203" xlink:href="#DejaVuSans-48"/>
       <use x="222.65625" xlink:href="#DejaVuSans-48"/>
       <use x="286.279297" xlink:href="#DejaVuSans-44"/>
       <use x="318.066406" xlink:href="#DejaVuSans-48"/>
       <use x="381.689453" xlink:href="#DejaVuSans-48"/>
       <use x="445.3125" xlink:href="#DejaVuSans-48"/>
      </g>
     </g>
    </g>
    <g id="ytick_7">
     <g id="line2d_37">
      <g>
       <use style="stroke:#000000;stroke-width:0.5;" x="112.5" xlink:href="#mb9be3746f4" y="77.142857"/>
      </g>
     </g>
     <g id="line2d_38">
      <g>
       <use style="stroke:#000000;stroke-width:0.5;" x="635.625" xlink:href="#mbcede9d0e2" y="77.142857"/>
      </g>
     </g>
     <g id="text_18">
      <!-- 3,000,000 -->
      <g transform="translate(47.4275 80.454107)scale(0.12 -0.12)">
       <use xlink:href="#DejaVuSans-51"/>
       <use x="63.623047" xlink:href="#DejaVuSans-44"/>
       <use x="95.410156" xlink:href="#DejaVuSans-48"/>
       <use x="159.033203" xlink:href="#DejaVuSans-48"/>
       <use x="222.65625" xlink:href="#DejaVuSans-48"/>
       <use x="286.279297" xlink:href="#DejaVuSans-44"/>
       <use x="318.066406" xlink:href="#DejaVuSans-48"/>
       <use x="381.689453" xlink:href="#DejaVuSans-48"/>
       <use x="445.3125" xlink:href="#DejaVuSans-48"/>
      </g>
     </g>
    </g>
    <g id="ytick_8">
     <g id="line2d_39">
      <g>
       <use style="stroke:#000000;stroke-width:0.5;" x="112.5" xlink:href="#mb9be3746f4" y="36"/>
      </g>
     </g>
     <g id="line2d_40">
      <g>
       <use style="stroke:#000000;stroke-width:0.5;" x="635.625" xlink:href="#mbcede9d0e2" y="36"/>
      </g>
     </g>
     <g id="text_19">
      <!-- 3,500,000 -->
      <g transform="translate(47.4275 39.31125)scale(0.12 -0.12)">
       <use xlink:href="#DejaVuSans-51"/>
       <use x="63.623047" xlink:href="#DejaVuSans-44"/>
       <use x="95.410156" xlink:href="#DejaVuSans-53"/>
       <use x="159.033203" xlink:href="#DejaVuSans-48"/>
       <use x="222.65625" xlink:href="#DejaVuSans-48"/>
       <use x="286.279297" xlink:href="#DejaVuSans-44"/>
       <use x="318.066406" xlink:href="#DejaVuSans-48"/>
       <use x="381.689453" xlink:href="#DejaVuSans-48"/>
       <use x="445.3125" xlink:href="#DejaVuSans-48"/>
      </g>
     </g>
    </g>
    <g id="text_20">
     <!-- parameters -->
     <defs>
      <path d="M 18.109375 8.203125 
L 18.109375 -20.796875 
L 9.078125 -20.796875 
L 9.078125 54.6875 
L 18.109375 54.6875 
L 18.109375 46.390625 
Q 20.953125 51.265625 25.265625 53.625 
Q 29.59375 56 35.59375 56 
Q 45.5625 56 51.78125 48.09375 
Q 58.015625 40.1875 58.015625 27.296875 
Q 58.015625 14.40625 51.78125 6.484375 
Q 45.5625 -1.421875 35.59375 -1.421875 
Q 29.59375 -1.421875 25.265625 0.953125 
Q 20.953125 3.328125 18.109375 8.203125 
z
M 48.6875 27.296875 
Q 48.6875 37.203125 44.609375 42.84375 
Q 40.53125 48.484375 33.40625 48.484375 
Q 26.265625 48.484375 22.1875 42.84375 
Q 18.109375 37.203125 18.109375 27.296875 
Q 18.109375 17.390625 22.1875 11.75 
Q 26.265625 6.109375 33.40625 6.109375 
Q 40.53125 6.109375 44.609375 11.75 
Q 48.6875 17.390625 48.6875 27.296875 
z
" id="DejaVuSans-112"/>
      <path d="M 52 44.1875 
Q 55.375 50.25 60.0625 53.125 
Q 64.75 56 71.09375 56 
Q 79.640625 56 84.28125 50.015625 
Q 88.921875 44.046875 88.921875 33.015625 
L 88.921875 0 
L 79.890625 0 
L 79.890625 32.71875 
Q 79.890625 40.578125 77.09375 44.375 
Q 74.3125 48.1875 68.609375 48.1875 
Q 61.625 48.1875 57.5625 43.546875 
Q 53.515625 38.921875 53.515625 30.90625 
L 53.515625 0 
L 44.484375 0 
L 44.484375 32.71875 
Q 44.484375 40.625 41.703125 44.40625 
Q 38.921875 48.1875 33.109375 48.1875 
Q 26.21875 48.1875 22.15625 43.53125 
Q 18.109375 38.875 18.109375 30.90625 
L 18.109375 0 
L 9.078125 0 
L 9.078125 54.6875 
L 18.109375 54.6875 
L 18.109375 46.1875 
Q 21.1875 51.21875 25.484375 53.609375 
Q 29.78125 56 35.6875 56 
Q 41.65625 56 45.828125 52.96875 
Q 50 49.953125 52 44.1875 
z
" id="DejaVuSans-109"/>
      <path d="M 44.28125 53.078125 
L 44.28125 44.578125 
Q 40.484375 46.53125 36.375 47.5 
Q 32.28125 48.484375 27.875 48.484375 
Q 21.1875 48.484375 17.84375 46.4375 
Q 14.5 44.390625 14.5 40.28125 
Q 14.5 37.15625 16.890625 35.375 
Q 19.28125 33.59375 26.515625 31.984375 
L 29.59375 31.296875 
Q 39.15625 29.25 43.1875 25.515625 
Q 47.21875 21.78125 47.21875 15.09375 
Q 47.21875 7.46875 41.1875 3.015625 
Q 35.15625 -1.421875 24.609375 -1.421875 
Q 20.21875 -1.421875 15.453125 -0.5625 
Q 10.6875 0.296875 5.421875 2 
L 5.421875 11.28125 
Q 10.40625 8.6875 15.234375 7.390625 
Q 20.0625 6.109375 24.8125 6.109375 
Q 31.15625 6.109375 34.5625 8.28125 
Q 37.984375 10.453125 37.984375 14.40625 
Q 37.984375 18.0625 35.515625 20.015625 
Q 33.0625 21.96875 24.703125 23.78125 
L 21.578125 24.515625 
Q 13.234375 26.265625 9.515625 29.90625 
Q 5.8125 33.546875 5.8125 39.890625 
Q 5.8125 47.609375 11.28125 51.796875 
Q 16.75 56 26.8125 56 
Q 31.78125 56 36.171875 55.265625 
Q 40.578125 54.546875 44.28125 53.078125 
z
" id="DejaVuSans-115"/>
     </defs>
     <g transform="translate(39.931875 214.801875)rotate(-90)scale(0.12 -0.12)">
      <use xlink:href="#DejaVuSans-112"/>
      <use x="63.476562" xlink:href="#DejaVuSans-97"/>
      <use x="124.755859" xlink:href="#DejaVuSans-114"/>
      <use x="165.869141" xlink:href="#DejaVuSans-97"/>
      <use x="227.148438" xlink:href="#DejaVuSans-109"/>
      <use x="324.560547" xlink:href="#DejaVuSans-101"/>
      <use x="386.083984" xlink:href="#DejaVuSans-116"/>
      <use x="425.292969" xlink:href="#DejaVuSans-101"/>
      <use x="486.816406" xlink:href="#DejaVuSans-114"/>
      <use x="527.929688" xlink:href="#DejaVuSans-115"/>
     </g>
    </g>
   </g>
   <g id="legend_1">
    <g id="patch_7">
     <path d="M 640.623 211.399935 
L 806.672179 211.399935 
L 806.672179 148.600065 
L 640.623 148.600065 
z
" style="fill:#ffffff;stroke:#000000;stroke-linejoin:miter;"/>
    </g>
    <g id="line2d_41">
     <path d="M 647.6202 156.695263 
L 661.6146 156.695263 
" style="fill:none;stroke:#0000ff;stroke-linecap:square;stroke-width:1.2;"/>
    </g>
    <g id="line2d_42"/>
    <g id="text_21">
     <!-- Lonely_Los_Exp_Loss_3 -->
     <defs>
      <path d="M 9.8125 72.90625 
L 19.671875 72.90625 
L 19.671875 8.296875 
L 55.171875 8.296875 
L 55.171875 0 
L 9.8125 0 
z
" id="DejaVuSans-76"/>
      <path d="M 9.421875 75.984375 
L 18.40625 75.984375 
L 18.40625 0 
L 9.421875 0 
z
" id="DejaVuSans-108"/>
      <path d="M 32.171875 -5.078125 
Q 28.375 -14.84375 24.75 -17.8125 
Q 21.140625 -20.796875 15.09375 -20.796875 
L 7.90625 -20.796875 
L 7.90625 -13.28125 
L 13.1875 -13.28125 
Q 16.890625 -13.28125 18.9375 -11.515625 
Q 21 -9.765625 23.484375 -3.21875 
L 25.09375 0.875 
L 2.984375 54.6875 
L 12.5 54.6875 
L 29.59375 11.921875 
L 46.6875 54.6875 
L 56.203125 54.6875 
z
" id="DejaVuSans-121"/>
      <path d="M 50.984375 -16.609375 
L 50.984375 -23.578125 
L -0.984375 -23.578125 
L -0.984375 -16.609375 
z
" id="DejaVuSans-95"/>
      <path d="M 9.8125 72.90625 
L 55.90625 72.90625 
L 55.90625 64.59375 
L 19.671875 64.59375 
L 19.671875 43.015625 
L 54.390625 43.015625 
L 54.390625 34.71875 
L 19.671875 34.71875 
L 19.671875 8.296875 
L 56.78125 8.296875 
L 56.78125 0 
L 9.8125 0 
z
" id="DejaVuSans-69"/>
      <path d="M 54.890625 54.6875 
L 35.109375 28.078125 
L 55.90625 0 
L 45.3125 0 
L 29.390625 21.484375 
L 13.484375 0 
L 2.875 0 
L 24.125 28.609375 
L 4.6875 54.6875 
L 15.28125 54.6875 
L 29.78125 35.203125 
L 44.28125 54.6875 
z
" id="DejaVuSans-120"/>
     </defs>
     <g transform="translate(672.6102 160.193863)scale(0.09996 -0.09996)">
      <use xlink:href="#DejaVuSans-76"/>
      <use x="53.962891" xlink:href="#DejaVuSans-111"/>
      <use x="115.144531" xlink:href="#DejaVuSans-110"/>
      <use x="178.523438" xlink:href="#DejaVuSans-101"/>
      <use x="240.046875" xlink:href="#DejaVuSans-108"/>
      <use x="267.830078" xlink:href="#DejaVuSans-121"/>
      <use x="327.009766" xlink:href="#DejaVuSans-95"/>
      <use x="377.009766" xlink:href="#DejaVuSans-76"/>
      <use x="430.972656" xlink:href="#DejaVuSans-111"/>
      <use x="492.154297" xlink:href="#DejaVuSans-115"/>
      <use x="544.253906" xlink:href="#DejaVuSans-95"/>
      <use x="594.253906" xlink:href="#DejaVuSans-69"/>
      <use x="657.4375" xlink:href="#DejaVuSans-120"/>
      <use x="716.617188" xlink:href="#DejaVuSans-112"/>
      <use x="780.09375" xlink:href="#DejaVuSans-95"/>
      <use x="830.09375" xlink:href="#DejaVuSans-76"/>
      <use x="884.056641" xlink:href="#DejaVuSans-111"/>
      <use x="945.238281" xlink:href="#DejaVuSans-115"/>
      <use x="997.337891" xlink:href="#DejaVuSans-115"/>
      <use x="1049.4375" xlink:href="#DejaVuSans-95"/>
      <use x="1099.4375" xlink:href="#DejaVuSans-51"/>
     </g>
    </g>
    <g id="line2d_43">
     <path d="M 647.6202 171.645531 
L 661.6146 171.645531 
" style="fill:none;stroke:#008000;stroke-linecap:square;stroke-width:1.2;"/>
    </g>
    <g id="line2d_44"/>
    <g id="text_22">
     <!-- Lonely_Los_Overall_Exp_3 -->
     <defs>
      <path d="M 39.40625 66.21875 
Q 28.65625 66.21875 22.328125 58.203125 
Q 16.015625 50.203125 16.015625 36.375 
Q 16.015625 22.609375 22.328125 14.59375 
Q 28.65625 6.59375 39.40625 6.59375 
Q 50.140625 6.59375 56.421875 14.59375 
Q 62.703125 22.609375 62.703125 36.375 
Q 62.703125 50.203125 56.421875 58.203125 
Q 50.140625 66.21875 39.40625 66.21875 
z
M 39.40625 74.21875 
Q 54.734375 74.21875 63.90625 63.9375 
Q 73.09375 53.65625 73.09375 36.375 
Q 73.09375 19.140625 63.90625 8.859375 
Q 54.734375 -1.421875 39.40625 -1.421875 
Q 24.03125 -1.421875 14.8125 8.828125 
Q 5.609375 19.09375 5.609375 36.375 
Q 5.609375 53.65625 14.8125 63.9375 
Q 24.03125 74.21875 39.40625 74.21875 
z
" id="DejaVuSans-79"/>
      <path d="M 2.984375 54.6875 
L 12.5 54.6875 
L 29.59375 8.796875 
L 46.6875 54.6875 
L 56.203125 54.6875 
L 35.6875 0 
L 23.484375 0 
z
" id="DejaVuSans-118"/>
     </defs>
     <g transform="translate(672.6102 175.144131)scale(0.09996 -0.09996)">
      <use xlink:href="#DejaVuSans-76"/>
      <use x="53.962891" xlink:href="#DejaVuSans-111"/>
      <use x="115.144531" xlink:href="#DejaVuSans-110"/>
      <use x="178.523438" xlink:href="#DejaVuSans-101"/>
      <use x="240.046875" xlink:href="#DejaVuSans-108"/>
      <use x="267.830078" xlink:href="#DejaVuSans-121"/>
      <use x="327.009766" xlink:href="#DejaVuSans-95"/>
      <use x="377.009766" xlink:href="#DejaVuSans-76"/>
      <use x="430.972656" xlink:href="#DejaVuSans-111"/>
      <use x="492.154297" xlink:href="#DejaVuSans-115"/>
      <use x="544.253906" xlink:href="#DejaVuSans-95"/>
      <use x="594.253906" xlink:href="#DejaVuSans-79"/>
      <use x="672.964844" xlink:href="#DejaVuSans-118"/>
      <use x="732.144531" xlink:href="#DejaVuSans-101"/>
      <use x="793.667969" xlink:href="#DejaVuSans-114"/>
      <use x="834.78125" xlink:href="#DejaVuSans-97"/>
      <use x="896.060547" xlink:href="#DejaVuSans-108"/>
      <use x="923.84375" xlink:href="#DejaVuSans-108"/>
      <use x="951.626953" xlink:href="#DejaVuSans-95"/>
      <use x="1001.626953" xlink:href="#DejaVuSans-69"/>
      <use x="1064.810547" xlink:href="#DejaVuSans-120"/>
      <use x="1123.990234" xlink:href="#DejaVuSans-112"/>
      <use x="1187.466797" xlink:href="#DejaVuSans-95"/>
      <use x="1237.466797" xlink:href="#DejaVuSans-51"/>
     </g>
    </g>
    <g id="line2d_45">
     <path d="M 647.6202 186.595798 
L 661.6146 186.595798 
" style="fill:none;stroke:#ff0000;stroke-linecap:square;stroke-width:1.2;"/>
    </g>
    <g id="line2d_46"/>
    <g id="text_23">
     <!-- Lonely_Los_Overall_Exp_4 -->
     <g transform="translate(672.6102 190.094398)scale(0.09996 -0.09996)">
      <use xlink:href="#DejaVuSans-76"/>
      <use x="53.962891" xlink:href="#DejaVuSans-111"/>
      <use x="115.144531" xlink:href="#DejaVuSans-110"/>
      <use x="178.523438" xlink:href="#DejaVuSans-101"/>
      <use x="240.046875" xlink:href="#DejaVuSans-108"/>
      <use x="267.830078" xlink:href="#DejaVuSans-121"/>
      <use x="327.009766" xlink:href="#DejaVuSans-95"/>
      <use x="377.009766" xlink:href="#DejaVuSans-76"/>
      <use x="430.972656" xlink:href="#DejaVuSans-111"/>
      <use x="492.154297" xlink:href="#DejaVuSans-115"/>
      <use x="544.253906" xlink:href="#DejaVuSans-95"/>
      <use x="594.253906" xlink:href="#DejaVuSans-79"/>
      <use x="672.964844" xlink:href="#DejaVuSans-118"/>
      <use x="732.144531" xlink:href="#DejaVuSans-101"/>
      <use x="793.667969" xlink:href="#DejaVuSans-114"/>
      <use x="834.78125" xlink:href="#DejaVuSans-97"/>
      <use x="896.060547" xlink:href="#DejaVuSans-108"/>
      <use x="923.84375" xlink:href="#DejaVuSans-108"/>
      <use x="951.626953" xlink:href="#DejaVuSans-95"/>
      <use x="1001.626953" xlink:href="#DejaVuSans-69"/>
      <use x="1064.810547" xlink:href="#DejaVuSans-120"/>
      <use x="1123.990234" xlink:href="#DejaVuSans-112"/>
      <use x="1187.466797" xlink:href="#DejaVuSans-95"/>
      <use x="1237.466797" xlink:href="#DejaVuSans-52"/>
     </g>
    </g>
    <g id="line2d_47">
     <path d="M 647.6202 201.546066 
L 661.6146 201.546066 
" style="fill:none;stroke:#00bfbf;stroke-linecap:square;stroke-width:1.2;"/>
    </g>
    <g id="line2d_48"/>
    <g id="text_24">
     <!-- Lonely_Los_Overall_Exp_5 -->
     <g transform="translate(672.6102 205.044666)scale(0.09996 -0.09996)">
      <use xlink:href="#DejaVuSans-76"/>
      <use x="53.962891" xlink:href="#DejaVuSans-111"/>
      <use x="115.144531" xlink:href="#DejaVuSans-110"/>
      <use x="178.523438" xlink:href="#DejaVuSans-101"/>
      <use x="240.046875" xlink:href="#DejaVuSans-108"/>
      <use x="267.830078" xlink:href="#DejaVuSans-121"/>
      <use x="327.009766" xlink:href="#DejaVuSans-95"/>
      <use x="377.009766" xlink:href="#DejaVuSans-76"/>
      <use x="430.972656" xlink:href="#DejaVuSans-111"/>
      <use x="492.154297" xlink:href="#DejaVuSans-115"/>
      <use x="544.253906" xlink:href="#DejaVuSans-95"/>
      <use x="594.253906" xlink:href="#DejaVuSans-79"/>
      <use x="672.964844" xlink:href="#DejaVuSans-118"/>
      <use x="732.144531" xlink:href="#DejaVuSans-101"/>
      <use x="793.667969" xlink:href="#DejaVuSans-114"/>
      <use x="834.78125" xlink:href="#DejaVuSans-97"/>
      <use x="896.060547" xlink:href="#DejaVuSans-108"/>
      <use x="923.84375" xlink:href="#DejaVuSans-108"/>
      <use x="951.626953" xlink:href="#DejaVuSans-95"/>
      <use x="1001.626953" xlink:href="#DejaVuSans-69"/>
      <use x="1064.810547" xlink:href="#DejaVuSans-120"/>
      <use x="1123.990234" xlink:href="#DejaVuSans-112"/>
      <use x="1187.466797" xlink:href="#DejaVuSans-95"/>
      <use x="1237.466797" xlink:href="#DejaVuSans-53"/>
     </g>
    </g>
   </g>
  </g>
  <g id="text_25">
   <!-- Average Amount of Parameters -->
   <defs>
    <path d="M 34.1875 63.1875 
L 20.796875 26.90625 
L 47.609375 26.90625 
z
M 28.609375 72.90625 
L 39.796875 72.90625 
L 67.578125 0 
L 57.328125 0 
L 50.6875 18.703125 
L 17.828125 18.703125 
L 11.1875 0 
L 0.78125 0 
z
" id="DejaVuSans-65"/>
    <path id="DejaVuSans-32"/>
    <path d="M 8.5 21.578125 
L 8.5 54.6875 
L 17.484375 54.6875 
L 17.484375 21.921875 
Q 17.484375 14.15625 20.5 10.265625 
Q 23.53125 6.390625 29.59375 6.390625 
Q 36.859375 6.390625 41.078125 11.03125 
Q 45.3125 15.671875 45.3125 23.6875 
L 45.3125 54.6875 
L 54.296875 54.6875 
L 54.296875 0 
L 45.3125 0 
L 45.3125 8.40625 
Q 42.046875 3.421875 37.71875 1 
Q 33.40625 -1.421875 27.6875 -1.421875 
Q 18.265625 -1.421875 13.375 4.4375 
Q 8.5 10.296875 8.5 21.578125 
z
M 31.109375 56 
z
" id="DejaVuSans-117"/>
    <path d="M 37.109375 75.984375 
L 37.109375 68.5 
L 28.515625 68.5 
Q 23.6875 68.5 21.796875 66.546875 
Q 19.921875 64.59375 19.921875 59.515625 
L 19.921875 54.6875 
L 34.71875 54.6875 
L 34.71875 47.703125 
L 19.921875 47.703125 
L 19.921875 0 
L 10.890625 0 
L 10.890625 47.703125 
L 2.296875 47.703125 
L 2.296875 54.6875 
L 10.890625 54.6875 
L 10.890625 58.5 
Q 10.890625 67.625 15.140625 71.796875 
Q 19.390625 75.984375 28.609375 75.984375 
z
" id="DejaVuSans-102"/>
    <path d="M 19.671875 64.796875 
L 19.671875 37.40625 
L 32.078125 37.40625 
Q 38.96875 37.40625 42.71875 40.96875 
Q 46.484375 44.53125 46.484375 51.125 
Q 46.484375 57.671875 42.71875 61.234375 
Q 38.96875 64.796875 32.078125 64.796875 
z
M 9.8125 72.90625 
L 32.078125 72.90625 
Q 44.34375 72.90625 50.609375 67.359375 
Q 56.890625 61.8125 56.890625 51.125 
Q 56.890625 40.328125 50.609375 34.8125 
Q 44.34375 29.296875 32.078125 29.296875 
L 19.671875 29.296875 
L 19.671875 0 
L 9.8125 0 
z
" id="DejaVuSans-80"/>
   </defs>
   <g transform="translate(355.93875 16.318125)scale(0.12 -0.12)">
    <use xlink:href="#DejaVuSans-65"/>
    <use x="62.533203" xlink:href="#DejaVuSans-118"/>
    <use x="121.712891" xlink:href="#DejaVuSans-101"/>
    <use x="183.236328" xlink:href="#DejaVuSans-114"/>
    <use x="224.349609" xlink:href="#DejaVuSans-97"/>
    <use x="285.628906" xlink:href="#DejaVuSans-103"/>
    <use x="349.105469" xlink:href="#DejaVuSans-101"/>
    <use x="410.628906" xlink:href="#DejaVuSans-32"/>
    <use x="442.416016" xlink:href="#DejaVuSans-65"/>
    <use x="510.824219" xlink:href="#DejaVuSans-109"/>
    <use x="608.236328" xlink:href="#DejaVuSans-111"/>
    <use x="669.417969" xlink:href="#DejaVuSans-117"/>
    <use x="732.796875" xlink:href="#DejaVuSans-110"/>
    <use x="796.175781" xlink:href="#DejaVuSans-116"/>
    <use x="835.384766" xlink:href="#DejaVuSans-32"/>
    <use x="867.171875" xlink:href="#DejaVuSans-111"/>
    <use x="928.353516" xlink:href="#DejaVuSans-102"/>
    <use x="963.558594" xlink:href="#DejaVuSans-32"/>
    <use x="995.345703" xlink:href="#DejaVuSans-80"/>
    <use x="1051.148438" xlink:href="#DejaVuSans-97"/>
    <use x="1112.427734" xlink:href="#DejaVuSans-114"/>
    <use x="1153.541016" xlink:href="#DejaVuSans-97"/>
    <use x="1214.820312" xlink:href="#DejaVuSans-109"/>
    <use x="1312.232422" xlink:href="#DejaVuSans-101"/>
    <use x="1373.755859" xlink:href="#DejaVuSans-116"/>
    <use x="1412.964844" xlink:href="#DejaVuSans-101"/>
    <use x="1474.488281" xlink:href="#DejaVuSans-114"/>
    <use x="1515.601562" xlink:href="#DejaVuSans-115"/>
   </g>
  </g>
 </g>
 <defs>
  <clipPath id="pf66651db6b">
   <rect height="288" width="523.125" x="112.5" y="36"/>
  </clipPath>
 </defs>
</svg>
